  0
SECTION
  2
HEADER
  9
$ACADVER
  1
AC1009
  9
$EXTMIN
 10
0.0
 20
0.0
 30
0.0
  9
$EXTMAX
 10
1000.0
 20
1000.0
 30
0.0
  9
$FILLMODE
 70
 0
  9
$SPLFRAME
 70
 1
  0
ENDSEC
  0
SECTION
  2
TABLES
  0
TABLE
  2
LAYER
 70
1
  0
LAYER
  2
0
 70
     0
 62
     7
  6
CONTINUOUS
  0
ENDTAB
  0
ENDSEC
  0
SECTION
  2
ENTITIES
  0
LINE
  8
0
 62
     0
 10
147.206
 20
105.344
 30
0.0
 11
147.285
 21
105.341
 31
0.0
  0
LINE
  8
0
 62
     0
 10
147.285
 20
105.341
 30
0.0
 11
147.363
 21
105.332
 31
0.0
  0
LINE
  8
0
 62
     0
 10
147.363
 20
105.332
 30
0.0
 11
147.44
 21
105.317
 31
0.0
  0
LINE
  8
0
 62
     0
 10
147.44
 20
105.317
 30
0.0
 11
147.516
 21
105.295
 31
0.0
  0
LINE
  8
0
 62
     0
 10
147.516
 20
105.295
 30
0.0
 11
147.589
 21
105.268
 31
0.0
  0
LINE
  8
0
 62
     0
 10
147.589
 20
105.268
 30
0.0
 11
147.66
 21
105.235
 31
0.0
  0
LINE
  8
0
 62
     0
 10
147.66
 20
105.235
 30
0.0
 11
147.729
 21
105.197
 31
0.0
  0
LINE
  8
0
 62
     0
 10
147.729
 20
105.197
 30
0.0
 11
147.793
 21
105.152
 31
0.0
  0
LINE
  8
0
 62
     0
 10
147.793
 20
105.152
 30
0.0
 11
147.855
 21
105.104
 31
0.0
  0
LINE
  8
0
 62
     0
 10
147.855
 20
105.104
 30
0.0
 11
147.913
 21
105.051
 31
0.0
  0
LINE
  8
0
 62
     0
 10
147.913
 20
105.051
 30
0.0
 11
147.967
 21
104.993
 31
0.0
  0
LINE
  8
0
 62
     0
 10
147.967
 20
104.993
 30
0.0
 11
148.015
 21
104.932
 31
0.0
  0
LINE
  8
0
 62
     0
 10
148.015
 20
104.932
 30
0.0
 11
148.059
 21
104.866
 31
0.0
  0
LINE
  8
0
 62
     0
 10
148.059
 20
104.866
 30
0.0
 11
148.098
 21
104.798
 31
0.0
  0
LINE
  8
0
 62
     0
 10
148.098
 20
104.798
 30
0.0
 11
148.13
 21
104.727
 31
0.0
  0
LINE
  8
0
 62
     0
 10
148.13
 20
104.727
 30
0.0
 11
148.159
 21
104.654
 31
0.0
  0
LINE
  8
0
 62
     0
 10
148.159
 20
104.654
 30
0.0
 11
148.179
 21
104.577
 31
0.0
  0
LINE
  8
0
 62
     0
 10
148.179
 20
104.577
 30
0.0
 11
148.194
 21
104.501
 31
0.0
  0
LINE
  8
0
 62
     0
 10
148.194
 20
104.501
 30
0.0
 11
148.203
 21
104.422
 31
0.0
  0
LINE
  8
0
 62
     0
 10
148.203
 20
104.422
 30
0.0
 11
148.207
 21
104.344
 31
0.0
  0
LINE
  8
0
 62
     0
 10
148.207
 20
104.344
 30
0.0
 11
148.207
 21
1.09416
 31
0.0
  0
LINE
  8
0
 62
     0
 10
148.207
 20
1.09416
 30
0.0
 11
148.203
 21
1.01562
 31
0.0
  0
LINE
  8
0
 62
     0
 10
148.203
 20
1.01562
 30
0.0
 11
148.194
 21
0.938445
 31
0.0
  0
LINE
  8
0
 62
     0
 10
148.194
 20
0.938445
 30
0.0
 11
148.179
 21
0.861275
 31
0.0
  0
LINE
  8
0
 62
     0
 10
148.179
 20
0.861275
 30
0.0
 11
148.159
 21
0.785481
 31
0.0
  0
LINE
  8
0
 62
     0
 10
148.159
 20
0.785481
 30
0.0
 11
148.13
 21
0.711069
 31
0.0
  0
LINE
  8
0
 62
     0
 10
148.13
 20
0.711069
 30
0.0
 11
148.098
 21
0.63941
 31
0.0
  0
LINE
  8
0
 62
     0
 10
148.098
 20
0.63941
 30
0.0
 11
148.059
 21
0.571885
 31
0.0
  0
LINE
  8
0
 62
     0
 10
148.059
 20
0.571885
 30
0.0
 11
148.015
 21
0.505739
 31
0.0
  0
LINE
  8
0
 62
     0
 10
148.015
 20
0.505739
 30
0.0
 11
147.967
 21
0.445107
 31
0.0
  0
LINE
  8
0
 62
     0
 10
147.967
 20
0.445107
 30
0.0
 11
147.913
 21
0.38723
 31
0.0
  0
LINE
  8
0
 62
     0
 10
147.913
 20
0.38723
 30
0.0
 11
147.855
 21
0.333485
 31
0.0
  0
LINE
  8
0
 62
     0
 10
147.855
 20
0.333485
 30
0.0
 11
147.793
 21
0.285254
 31
0.0
  0
LINE
  8
0
 62
     0
 10
147.793
 20
0.285254
 30
0.0
 11
147.729
 21
0.241157
 31
0.0
  0
LINE
  8
0
 62
     0
 10
147.729
 20
0.241157
 30
0.0
 11
147.66
 21
0.202572
 31
0.0
  0
LINE
  8
0
 62
     0
 10
147.66
 20
0.202572
 30
0.0
 11
147.589
 21
0.169499
 31
0.0
  0
LINE
  8
0
 62
     0
 10
147.589
 20
0.169499
 30
0.0
 11
147.516
 21
0.143316
 31
0.0
  0
LINE
  8
0
 62
     0
 10
147.516
 20
0.143316
 30
0.0
 11
147.44
 21
0.122645
 31
0.0
  0
LINE
  8
0
 62
     0
 10
147.44
 20
0.122645
 30
0.0
 11
147.363
 21
0.106109
 31
0.0
  0
LINE
  8
0
 62
     0
 10
147.363
 20
0.106109
 30
0.0
 11
147.285
 21
0.0964629
 31
0.0
  0
LINE
  8
0
 62
     0
 10
147.285
 20
0.0964629
 30
0.0
 11
147.206
 21
0.0937066
 31
0.0
  0
LINE
  8
0
 62
     0
 10
147.206
 20
0.0937066
 30
0.0
 11
1.09416
 21
0.0937066
 31
0.0
  0
LINE
  8
0
 62
     0
 10
1.09416
 20
0.0937066
 30
0.0
 11
1.01562
 21
0.0964629
 31
0.0
  0
LINE
  8
0
 62
     0
 10
1.01562
 20
0.0964629
 30
0.0
 11
0.937066
 21
0.106109
 31
0.0
  0
LINE
  8
0
 62
     0
 10
0.937066
 20
0.106109
 30
0.0
 11
0.861275
 21
0.122645
 31
0.0
  0
LINE
  8
0
 62
     0
 10
0.861275
 20
0.122645
 30
0.0
 11
0.784105
 21
0.143316
 31
0.0
  0
LINE
  8
0
 62
     0
 10
0.784105
 20
0.143316
 30
0.0
 11
0.711069
 21
0.169499
 31
0.0
  0
LINE
  8
0
 62
     0
 10
0.711069
 20
0.169499
 30
0.0
 11
0.63941
 21
0.202572
 31
0.0
  0
LINE
  8
0
 62
     0
 10
0.63941
 20
0.202572
 30
0.0
 11
0.571885
 21
0.241157
 31
0.0
  0
LINE
  8
0
 62
     0
 10
0.571885
 20
0.241157
 30
0.0
 11
0.505739
 21
0.285254
 31
0.0
  0
LINE
  8
0
 62
     0
 10
0.505739
 20
0.285254
 30
0.0
 11
0.445107
 21
0.333485
 31
0.0
  0
LINE
  8
0
 62
     0
 10
0.445107
 20
0.333485
 30
0.0
 11
0.38723
 21
0.38723
 31
0.0
  0
LINE
  8
0
 62
     0
 10
0.38723
 20
0.38723
 30
0.0
 11
0.333485
 21
0.445107
 31
0.0
  0
LINE
  8
0
 62
     0
 10
0.333485
 20
0.445107
 30
0.0
 11
0.285254
 21
0.505739
 31
0.0
  0
LINE
  8
0
 62
     0
 10
0.285254
 20
0.505739
 30
0.0
 11
0.241157
 21
0.571885
 31
0.0
  0
LINE
  8
0
 62
     0
 10
0.241157
 20
0.571885
 30
0.0
 11
0.202572
 21
0.63941
 31
0.0
  0
LINE
  8
0
 62
     0
 10
0.202572
 20
0.63941
 30
0.0
 11
0.169499
 21
0.711069
 31
0.0
  0
LINE
  8
0
 62
     0
 10
0.169499
 20
0.711069
 30
0.0
 11
0.143316
 21
0.785481
 31
0.0
  0
LINE
  8
0
 62
     0
 10
0.143316
 20
0.785481
 30
0.0
 11
0.121267
 21
0.861275
 31
0.0
  0
LINE
  8
0
 62
     0
 10
0.121267
 20
0.861275
 30
0.0
 11
0.106109
 21
0.938445
 31
0.0
  0
LINE
  8
0
 62
     0
 10
0.106109
 20
0.938445
 30
0.0
 11
0.0964629
 21
1.01562
 31
0.0
  0
LINE
  8
0
 62
     0
 10
0.0964629
 20
1.01562
 30
0.0
 11
0.0937066
 21
1.09416
 31
0.0
  0
LINE
  8
0
 62
     0
 10
0.0937066
 20
1.09416
 30
0.0
 11
0.0937066
 21
104.344
 31
0.0
  0
LINE
  8
0
 62
     0
 10
0.0937066
 20
104.344
 30
0.0
 11
0.0964629
 21
104.422
 31
0.0
  0
LINE
  8
0
 62
     0
 10
0.0964629
 20
104.422
 30
0.0
 11
0.106109
 21
104.501
 31
0.0
  0
LINE
  8
0
 62
     0
 10
0.106109
 20
104.501
 30
0.0
 11
0.121267
 21
104.577
 31
0.0
  0
LINE
  8
0
 62
     0
 10
0.121267
 20
104.577
 30
0.0
 11
0.143316
 21
104.654
 31
0.0
  0
LINE
  8
0
 62
     0
 10
0.143316
 20
104.654
 30
0.0
 11
0.169499
 21
104.727
 31
0.0
  0
LINE
  8
0
 62
     0
 10
0.169499
 20
104.727
 30
0.0
 11
0.202572
 21
104.798
 31
0.0
  0
LINE
  8
0
 62
     0
 10
0.202572
 20
104.798
 30
0.0
 11
0.241157
 21
104.866
 31
0.0
  0
LINE
  8
0
 62
     0
 10
0.241157
 20
104.866
 30
0.0
 11
0.285254
 21
104.932
 31
0.0
  0
LINE
  8
0
 62
     0
 10
0.285254
 20
104.932
 30
0.0
 11
0.333485
 21
104.993
 31
0.0
  0
LINE
  8
0
 62
     0
 10
0.333485
 20
104.993
 30
0.0
 11
0.38723
 21
105.051
 31
0.0
  0
LINE
  8
0
 62
     0
 10
0.38723
 20
105.051
 30
0.0
 11
0.445107
 21
105.104
 31
0.0
  0
LINE
  8
0
 62
     0
 10
0.445107
 20
105.104
 30
0.0
 11
0.505739
 21
105.152
 31
0.0
  0
LINE
  8
0
 62
     0
 10
0.505739
 20
105.152
 30
0.0
 11
0.571885
 21
105.197
 31
0.0
  0
LINE
  8
0
 62
     0
 10
0.571885
 20
105.197
 30
0.0
 11
0.63941
 21
105.235
 31
0.0
  0
LINE
  8
0
 62
     0
 10
0.63941
 20
105.235
 30
0.0
 11
0.711069
 21
105.268
 31
0.0
  0
LINE
  8
0
 62
     0
 10
0.711069
 20
105.268
 30
0.0
 11
0.784105
 21
105.295
 31
0.0
  0
LINE
  8
0
 62
     0
 10
0.784105
 20
105.295
 30
0.0
 11
0.861275
 21
105.317
 31
0.0
  0
LINE
  8
0
 62
     0
 10
0.861275
 20
105.317
 30
0.0
 11
0.937066
 21
105.332
 31
0.0
  0
LINE
  8
0
 62
     0
 10
0.937066
 20
105.332
 30
0.0
 11
1.01562
 21
105.341
 31
0.0
  0
LINE
  8
0
 62
     0
 10
1.01562
 20
105.341
 30
0.0
 11
1.09416
 21
105.344
 31
0.0
  0
LINE
  8
0
 62
     0
 10
1.09416
 20
105.344
 30
0.0
 11
147.206
 21
105.344
 31
0.0
  0
LINE
  8
0
 62
     0
 10
50.2984
 20
103.843
 30
0.0
 11
50.607
 21
103.795
 31
0.0
  0
LINE
  8
0
 62
     0
 10
50.607
 20
103.795
 30
0.0
 11
50.8854
 21
103.653
 31
0.0
  0
LINE
  8
0
 62
     0
 10
50.8854
 20
103.653
 30
0.0
 11
51.1073
 21
103.431
 31
0.0
  0
LINE
  8
0
 62
     0
 10
51.1073
 20
103.431
 30
0.0
 11
51.2491
 21
103.153
 31
0.0
  0
LINE
  8
0
 62
     0
 10
51.2491
 20
103.153
 30
0.0
 11
51.2974
 21
102.844
 31
0.0
  0
LINE
  8
0
 62
     0
 10
51.2974
 20
102.844
 30
0.0
 11
51.2491
 21
102.536
 31
0.0
  0
LINE
  8
0
 62
     0
 10
51.2491
 20
102.536
 30
0.0
 11
51.1073
 21
102.256
 31
0.0
  0
LINE
  8
0
 62
     0
 10
51.1073
 20
102.256
 30
0.0
 11
50.8854
 21
102.035
 31
0.0
  0
LINE
  8
0
 62
     0
 10
50.8854
 20
102.035
 30
0.0
 11
50.607
 21
101.894
 31
0.0
  0
LINE
  8
0
 62
     0
 10
50.607
 20
101.894
 30
0.0
 11
50.2984
 21
101.844
 31
0.0
  0
LINE
  8
0
 62
     0
 10
50.2984
 20
101.844
 30
0.0
 11
49.9883
 21
101.894
 31
0.0
  0
LINE
  8
0
 62
     0
 10
49.9883
 20
101.894
 30
0.0
 11
49.7099
 21
102.035
 31
0.0
  0
LINE
  8
0
 62
     0
 10
49.7099
 20
102.035
 30
0.0
 11
49.488
 21
102.256
 31
0.0
  0
LINE
  8
0
 62
     0
 10
49.488
 20
102.256
 30
0.0
 11
49.3462
 21
102.536
 31
0.0
  0
LINE
  8
0
 62
     0
 10
49.3462
 20
102.536
 30
0.0
 11
49.2979
 21
102.844
 31
0.0
  0
LINE
  8
0
 62
     0
 10
49.2979
 20
102.844
 30
0.0
 11
49.3462
 21
103.153
 31
0.0
  0
LINE
  8
0
 62
     0
 10
49.3462
 20
103.153
 30
0.0
 11
49.488
 21
103.431
 31
0.0
  0
LINE
  8
0
 62
     0
 10
49.488
 20
103.431
 30
0.0
 11
49.7099
 21
103.653
 31
0.0
  0
LINE
  8
0
 62
     0
 10
49.7099
 20
103.653
 30
0.0
 11
49.9883
 21
103.795
 31
0.0
  0
LINE
  8
0
 62
     0
 10
49.9883
 20
103.795
 30
0.0
 11
50.2984
 21
103.843
 31
0.0
  0
LINE
  8
0
 62
     0
 10
98.002
 20
103.843
 30
0.0
 11
98.3107
 21
103.795
 31
0.0
  0
LINE
  8
0
 62
     0
 10
98.3107
 20
103.795
 30
0.0
 11
98.5905
 21
103.653
 31
0.0
  0
LINE
  8
0
 62
     0
 10
98.5905
 20
103.653
 30
0.0
 11
98.8109
 21
103.431
 31
0.0
  0
LINE
  8
0
 62
     0
 10
98.8109
 20
103.431
 30
0.0
 11
98.9528
 21
103.153
 31
0.0
  0
LINE
  8
0
 62
     0
 10
98.9528
 20
103.153
 30
0.0
 11
99.0025
 21
102.844
 31
0.0
  0
LINE
  8
0
 62
     0
 10
99.0025
 20
102.844
 30
0.0
 11
98.9528
 21
102.536
 31
0.0
  0
LINE
  8
0
 62
     0
 10
98.9528
 20
102.536
 30
0.0
 11
98.8109
 21
102.256
 31
0.0
  0
LINE
  8
0
 62
     0
 10
98.8109
 20
102.256
 30
0.0
 11
98.5905
 21
102.035
 31
0.0
  0
LINE
  8
0
 62
     0
 10
98.5905
 20
102.035
 30
0.0
 11
98.3107
 21
101.894
 31
0.0
  0
LINE
  8
0
 62
     0
 10
98.3107
 20
101.894
 30
0.0
 11
98.002
 21
101.844
 31
0.0
  0
LINE
  8
0
 62
     0
 10
98.002
 20
101.844
 30
0.0
 11
97.6933
 21
101.894
 31
0.0
  0
LINE
  8
0
 62
     0
 10
97.6933
 20
101.894
 30
0.0
 11
97.415
 21
102.035
 31
0.0
  0
LINE
  8
0
 62
     0
 10
97.415
 20
102.035
 30
0.0
 11
97.1931
 21
102.256
 31
0.0
  0
LINE
  8
0
 62
     0
 10
97.1931
 20
102.256
 30
0.0
 11
97.0509
 21
102.536
 31
0.0
  0
LINE
  8
0
 62
     0
 10
97.0509
 20
102.536
 30
0.0
 11
97.0015
 21
102.844
 31
0.0
  0
LINE
  8
0
 62
     0
 10
97.0015
 20
102.844
 30
0.0
 11
97.0509
 21
103.153
 31
0.0
  0
LINE
  8
0
 62
     0
 10
97.0509
 20
103.153
 30
0.0
 11
97.1931
 21
103.431
 31
0.0
  0
LINE
  8
0
 62
     0
 10
97.1931
 20
103.431
 30
0.0
 11
97.415
 21
103.653
 31
0.0
  0
LINE
  8
0
 62
     0
 10
97.415
 20
103.653
 30
0.0
 11
97.6933
 21
103.795
 31
0.0
  0
LINE
  8
0
 62
     0
 10
97.6933
 20
103.795
 30
0.0
 11
98.002
 21
103.843
 31
0.0
  0
LINE
  8
0
 62
     0
 10
145.707
 20
103.843
 30
0.0
 11
146.015
 21
103.795
 31
0.0
  0
LINE
  8
0
 62
     0
 10
146.015
 20
103.795
 30
0.0
 11
146.294
 21
103.653
 31
0.0
  0
LINE
  8
0
 62
     0
 10
146.294
 20
103.653
 30
0.0
 11
146.516
 21
103.431
 31
0.0
  0
LINE
  8
0
 62
     0
 10
146.516
 20
103.431
 30
0.0
 11
146.658
 21
103.153
 31
0.0
  0
LINE
  8
0
 62
     0
 10
146.658
 20
103.153
 30
0.0
 11
146.707
 21
102.844
 31
0.0
  0
LINE
  8
0
 62
     0
 10
146.707
 20
102.844
 30
0.0
 11
146.658
 21
102.536
 31
0.0
  0
LINE
  8
0
 62
     0
 10
146.658
 20
102.536
 30
0.0
 11
146.516
 21
102.256
 31
0.0
  0
LINE
  8
0
 62
     0
 10
146.516
 20
102.256
 30
0.0
 11
146.294
 21
102.035
 31
0.0
  0
LINE
  8
0
 62
     0
 10
146.294
 20
102.035
 30
0.0
 11
146.015
 21
101.894
 31
0.0
  0
LINE
  8
0
 62
     0
 10
146.015
 20
101.894
 30
0.0
 11
145.707
 21
101.844
 31
0.0
  0
LINE
  8
0
 62
     0
 10
145.707
 20
101.844
 30
0.0
 11
145.397
 21
101.894
 31
0.0
  0
LINE
  8
0
 62
     0
 10
145.397
 20
101.894
 30
0.0
 11
145.118
 21
102.035
 31
0.0
  0
LINE
  8
0
 62
     0
 10
145.118
 20
102.035
 30
0.0
 11
144.896
 21
102.256
 31
0.0
  0
LINE
  8
0
 62
     0
 10
144.896
 20
102.256
 30
0.0
 11
144.755
 21
102.536
 31
0.0
  0
LINE
  8
0
 62
     0
 10
144.755
 20
102.536
 30
0.0
 11
144.706
 21
102.844
 31
0.0
  0
LINE
  8
0
 62
     0
 10
144.706
 20
102.844
 30
0.0
 11
144.755
 21
103.153
 31
0.0
  0
LINE
  8
0
 62
     0
 10
144.755
 20
103.153
 30
0.0
 11
144.896
 21
103.431
 31
0.0
  0
LINE
  8
0
 62
     0
 10
144.896
 20
103.431
 30
0.0
 11
145.118
 21
103.653
 31
0.0
  0
LINE
  8
0
 62
     0
 10
145.118
 20
103.653
 30
0.0
 11
145.397
 21
103.795
 31
0.0
  0
LINE
  8
0
 62
     0
 10
145.397
 20
103.795
 30
0.0
 11
145.707
 21
103.843
 31
0.0
  0
LINE
  8
0
 62
     0
 10
145.707
 20
53.7185
 30
0.0
 11
146.015
 21
53.6706
 31
0.0
  0
LINE
  8
0
 62
     0
 10
146.015
 20
53.6706
 30
0.0
 11
146.294
 21
53.5284
 31
0.0
  0
LINE
  8
0
 62
     0
 10
146.294
 20
53.5284
 30
0.0
 11
146.516
 21
53.3065
 31
0.0
  0
LINE
  8
0
 62
     0
 10
146.516
 20
53.3065
 30
0.0
 11
146.658
 21
53.0281
 31
0.0
  0
LINE
  8
0
 62
     0
 10
146.658
 20
53.0281
 30
0.0
 11
146.707
 21
52.7195
 31
0.0
  0
LINE
  8
0
 62
     0
 10
146.707
 20
52.7195
 30
0.0
 11
146.658
 21
52.4097
 31
0.0
  0
LINE
  8
0
 62
     0
 10
146.658
 20
52.4097
 30
0.0
 11
146.516
 21
52.131
 31
0.0
  0
LINE
  8
0
 62
     0
 10
146.516
 20
52.131
 30
0.0
 11
146.294
 21
51.9105
 31
0.0
  0
LINE
  8
0
 62
     0
 10
146.294
 20
51.9105
 30
0.0
 11
146.015
 21
51.7687
 31
0.0
  0
LINE
  8
0
 62
     0
 10
146.015
 20
51.7687
 30
0.0
 11
145.707
 21
51.719
 31
0.0
  0
LINE
  8
0
 62
     0
 10
145.707
 20
51.719
 30
0.0
 11
145.397
 21
51.7687
 31
0.0
  0
LINE
  8
0
 62
     0
 10
145.397
 20
51.7687
 30
0.0
 11
145.118
 21
51.9105
 31
0.0
  0
LINE
  8
0
 62
     0
 10
145.118
 20
51.9105
 30
0.0
 11
144.896
 21
52.131
 31
0.0
  0
LINE
  8
0
 62
     0
 10
144.896
 20
52.131
 30
0.0
 11
144.755
 21
52.4097
 31
0.0
  0
LINE
  8
0
 62
     0
 10
144.755
 20
52.4097
 30
0.0
 11
144.706
 21
52.7195
 31
0.0
  0
LINE
  8
0
 62
     0
 10
144.706
 20
52.7195
 30
0.0
 11
144.755
 21
53.0281
 31
0.0
  0
LINE
  8
0
 62
     0
 10
144.755
 20
53.0281
 30
0.0
 11
144.896
 21
53.3065
 31
0.0
  0
LINE
  8
0
 62
     0
 10
144.896
 20
53.3065
 30
0.0
 11
145.118
 21
53.5284
 31
0.0
  0
LINE
  8
0
 62
     0
 10
145.118
 20
53.5284
 30
0.0
 11
145.397
 21
53.6706
 31
0.0
  0
LINE
  8
0
 62
     0
 10
145.397
 20
53.6706
 30
0.0
 11
145.707
 21
53.7185
 31
0.0
  0
LINE
  8
0
 62
     0
 10
145.707
 20
3.59392
 30
0.0
 11
146.015
 21
3.5457
 31
0.0
  0
LINE
  8
0
 62
     0
 10
146.015
 20
3.5457
 30
0.0
 11
146.294
 21
3.40376
 31
0.0
  0
LINE
  8
0
 62
     0
 10
146.294
 20
3.40376
 30
0.0
 11
146.516
 21
3.18189
 31
0.0
  0
LINE
  8
0
 62
     0
 10
146.516
 20
3.18189
 30
0.0
 11
146.658
 21
2.90353
 31
0.0
  0
LINE
  8
0
 62
     0
 10
146.658
 20
2.90353
 30
0.0
 11
146.707
 21
2.59347
 31
0.0
  0
LINE
  8
0
 62
     0
 10
146.707
 20
2.59347
 30
0.0
 11
146.658
 21
2.28479
 31
0.0
  0
LINE
  8
0
 62
     0
 10
146.658
 20
2.28479
 30
0.0
 11
146.516
 21
2.00642
 31
0.0
  0
LINE
  8
0
 62
     0
 10
146.516
 20
2.00642
 30
0.0
 11
146.294
 21
1.78456
 31
0.0
  0
LINE
  8
0
 62
     0
 10
146.294
 20
1.78456
 30
0.0
 11
146.015
 21
1.64262
 31
0.0
  0
LINE
  8
0
 62
     0
 10
146.015
 20
1.64262
 30
0.0
 11
145.707
 21
1.59439
 31
0.0
  0
LINE
  8
0
 62
     0
 10
145.707
 20
1.59439
 30
0.0
 11
145.397
 21
1.64262
 31
0.0
  0
LINE
  8
0
 62
     0
 10
145.397
 20
1.64262
 30
0.0
 11
145.118
 21
1.78456
 31
0.0
  0
LINE
  8
0
 62
     0
 10
145.118
 20
1.78456
 30
0.0
 11
144.896
 21
2.00642
 31
0.0
  0
LINE
  8
0
 62
     0
 10
144.896
 20
2.00642
 30
0.0
 11
144.755
 21
2.28479
 31
0.0
  0
LINE
  8
0
 62
     0
 10
144.755
 20
2.28479
 30
0.0
 11
144.706
 21
2.59347
 31
0.0
  0
LINE
  8
0
 62
     0
 10
144.706
 20
2.59347
 30
0.0
 11
144.755
 21
2.90353
 31
0.0
  0
LINE
  8
0
 62
     0
 10
144.755
 20
2.90353
 30
0.0
 11
144.896
 21
3.18189
 31
0.0
  0
LINE
  8
0
 62
     0
 10
144.896
 20
3.18189
 30
0.0
 11
145.118
 21
3.40376
 31
0.0
  0
LINE
  8
0
 62
     0
 10
145.118
 20
3.40376
 30
0.0
 11
145.397
 21
3.5457
 31
0.0
  0
LINE
  8
0
 62
     0
 10
145.397
 20
3.5457
 30
0.0
 11
145.707
 21
3.59392
 31
0.0
  0
LINE
  8
0
 62
     0
 10
98.002
 20
3.59392
 30
0.0
 11
98.3107
 21
3.5457
 31
0.0
  0
LINE
  8
0
 62
     0
 10
98.3107
 20
3.5457
 30
0.0
 11
98.5905
 21
3.40376
 31
0.0
  0
LINE
  8
0
 62
     0
 10
98.5905
 20
3.40376
 30
0.0
 11
98.8109
 21
3.18189
 31
0.0
  0
LINE
  8
0
 62
     0
 10
98.8109
 20
3.18189
 30
0.0
 11
98.9528
 21
2.90353
 31
0.0
  0
LINE
  8
0
 62
     0
 10
98.9528
 20
2.90353
 30
0.0
 11
99.0025
 21
2.59347
 31
0.0
  0
LINE
  8
0
 62
     0
 10
99.0025
 20
2.59347
 30
0.0
 11
98.9528
 21
2.28479
 31
0.0
  0
LINE
  8
0
 62
     0
 10
98.9528
 20
2.28479
 30
0.0
 11
98.8109
 21
2.00642
 31
0.0
  0
LINE
  8
0
 62
     0
 10
98.8109
 20
2.00642
 30
0.0
 11
98.5905
 21
1.78456
 31
0.0
  0
LINE
  8
0
 62
     0
 10
98.5905
 20
1.78456
 30
0.0
 11
98.3107
 21
1.64262
 31
0.0
  0
LINE
  8
0
 62
     0
 10
98.3107
 20
1.64262
 30
0.0
 11
98.002
 21
1.59439
 31
0.0
  0
LINE
  8
0
 62
     0
 10
98.002
 20
1.59439
 30
0.0
 11
97.6933
 21
1.64262
 31
0.0
  0
LINE
  8
0
 62
     0
 10
97.6933
 20
1.64262
 30
0.0
 11
97.415
 21
1.78456
 31
0.0
  0
LINE
  8
0
 62
     0
 10
97.415
 20
1.78456
 30
0.0
 11
97.1931
 21
2.00642
 31
0.0
  0
LINE
  8
0
 62
     0
 10
97.1931
 20
2.00642
 30
0.0
 11
97.0509
 21
2.28479
 31
0.0
  0
LINE
  8
0
 62
     0
 10
97.0509
 20
2.28479
 30
0.0
 11
97.0015
 21
2.59347
 31
0.0
  0
LINE
  8
0
 62
     0
 10
97.0015
 20
2.59347
 30
0.0
 11
97.0509
 21
2.90353
 31
0.0
  0
LINE
  8
0
 62
     0
 10
97.0509
 20
2.90353
 30
0.0
 11
97.1931
 21
3.18189
 31
0.0
  0
LINE
  8
0
 62
     0
 10
97.1931
 20
3.18189
 30
0.0
 11
97.415
 21
3.40376
 31
0.0
  0
LINE
  8
0
 62
     0
 10
97.415
 20
3.40376
 30
0.0
 11
97.6933
 21
3.5457
 31
0.0
  0
LINE
  8
0
 62
     0
 10
97.6933
 20
3.5457
 30
0.0
 11
98.002
 21
3.59392
 31
0.0
  0
LINE
  8
0
 62
     0
 10
50.2984
 20
3.59392
 30
0.0
 11
50.607
 21
3.5457
 31
0.0
  0
LINE
  8
0
 62
     0
 10
50.607
 20
3.5457
 30
0.0
 11
50.8854
 21
3.40376
 31
0.0
  0
LINE
  8
0
 62
     0
 10
50.8854
 20
3.40376
 30
0.0
 11
51.1073
 21
3.18189
 31
0.0
  0
LINE
  8
0
 62
     0
 10
51.1073
 20
3.18189
 30
0.0
 11
51.2491
 21
2.90353
 31
0.0
  0
LINE
  8
0
 62
     0
 10
51.2491
 20
2.90353
 30
0.0
 11
51.2974
 21
2.59347
 31
0.0
  0
LINE
  8
0
 62
     0
 10
51.2974
 20
2.59347
 30
0.0
 11
51.2491
 21
2.28479
 31
0.0
  0
LINE
  8
0
 62
     0
 10
51.2491
 20
2.28479
 30
0.0
 11
51.1073
 21
2.00642
 31
0.0
  0
LINE
  8
0
 62
     0
 10
51.1073
 20
2.00642
 30
0.0
 11
50.8854
 21
1.78456
 31
0.0
  0
LINE
  8
0
 62
     0
 10
50.8854
 20
1.78456
 30
0.0
 11
50.607
 21
1.64262
 31
0.0
  0
LINE
  8
0
 62
     0
 10
50.607
 20
1.64262
 30
0.0
 11
50.2984
 21
1.59439
 31
0.0
  0
LINE
  8
0
 62
     0
 10
50.2984
 20
1.59439
 30
0.0
 11
49.9883
 21
1.64262
 31
0.0
  0
LINE
  8
0
 62
     0
 10
49.9883
 20
1.64262
 30
0.0
 11
49.7099
 21
1.78456
 31
0.0
  0
LINE
  8
0
 62
     0
 10
49.7099
 20
1.78456
 30
0.0
 11
49.488
 21
2.00642
 31
0.0
  0
LINE
  8
0
 62
     0
 10
49.488
 20
2.00642
 30
0.0
 11
49.3462
 21
2.28479
 31
0.0
  0
LINE
  8
0
 62
     0
 10
49.3462
 20
2.28479
 30
0.0
 11
49.2979
 21
2.59347
 31
0.0
  0
LINE
  8
0
 62
     0
 10
49.2979
 20
2.59347
 30
0.0
 11
49.3462
 21
2.90353
 31
0.0
  0
LINE
  8
0
 62
     0
 10
49.3462
 20
2.90353
 30
0.0
 11
49.488
 21
3.18189
 31
0.0
  0
LINE
  8
0
 62
     0
 10
49.488
 20
3.18189
 30
0.0
 11
49.7099
 21
3.40376
 31
0.0
  0
LINE
  8
0
 62
     0
 10
49.7099
 20
3.40376
 30
0.0
 11
49.9883
 21
3.5457
 31
0.0
  0
LINE
  8
0
 62
     0
 10
49.9883
 20
3.5457
 30
0.0
 11
50.2984
 21
3.59392
 31
0.0
  0
LINE
  8
0
 62
     0
 10
2.59347
 20
3.59392
 30
0.0
 11
2.90215
 21
3.5457
 31
0.0
  0
LINE
  8
0
 62
     0
 10
2.90215
 20
3.5457
 30
0.0
 11
3.18189
 21
3.40376
 31
0.0
  0
LINE
  8
0
 62
     0
 10
3.18189
 20
3.40376
 30
0.0
 11
3.40238
 21
3.18189
 31
0.0
  0
LINE
  8
0
 62
     0
 10
3.40238
 20
3.18189
 30
0.0
 11
3.54432
 21
2.90353
 31
0.0
  0
LINE
  8
0
 62
     0
 10
3.54432
 20
2.90353
 30
0.0
 11
3.59392
 21
2.59347
 31
0.0
  0
LINE
  8
0
 62
     0
 10
3.59392
 20
2.59347
 30
0.0
 11
3.54432
 21
2.28479
 31
0.0
  0
LINE
  8
0
 62
     0
 10
3.54432
 20
2.28479
 30
0.0
 11
3.40238
 21
2.00642
 31
0.0
  0
LINE
  8
0
 62
     0
 10
3.40238
 20
2.00642
 30
0.0
 11
3.18189
 21
1.78456
 31
0.0
  0
LINE
  8
0
 62
     0
 10
3.18189
 20
1.78456
 30
0.0
 11
2.90215
 21
1.64262
 31
0.0
  0
LINE
  8
0
 62
     0
 10
2.90215
 20
1.64262
 30
0.0
 11
2.59347
 21
1.59439
 31
0.0
  0
LINE
  8
0
 62
     0
 10
2.59347
 20
1.59439
 30
0.0
 11
2.28479
 21
1.64262
 31
0.0
  0
LINE
  8
0
 62
     0
 10
2.28479
 20
1.64262
 30
0.0
 11
2.00642
 21
1.78456
 31
0.0
  0
LINE
  8
0
 62
     0
 10
2.00642
 20
1.78456
 30
0.0
 11
1.78456
 21
2.00642
 31
0.0
  0
LINE
  8
0
 62
     0
 10
1.78456
 20
2.00642
 30
0.0
 11
1.64262
 21
2.28479
 31
0.0
  0
LINE
  8
0
 62
     0
 10
1.64262
 20
2.28479
 30
0.0
 11
1.59439
 21
2.59347
 31
0.0
  0
LINE
  8
0
 62
     0
 10
1.59439
 20
2.59347
 30
0.0
 11
1.64262
 21
2.90353
 31
0.0
  0
LINE
  8
0
 62
     0
 10
1.64262
 20
2.90353
 30
0.0
 11
1.78456
 21
3.18189
 31
0.0
  0
LINE
  8
0
 62
     0
 10
1.78456
 20
3.18189
 30
0.0
 11
2.00642
 21
3.40376
 31
0.0
  0
LINE
  8
0
 62
     0
 10
2.00642
 20
3.40376
 30
0.0
 11
2.28479
 21
3.5457
 31
0.0
  0
LINE
  8
0
 62
     0
 10
2.28479
 20
3.5457
 30
0.0
 11
2.59347
 21
3.59392
 31
0.0
  0
LINE
  8
0
 62
     0
 10
2.59347
 20
53.7185
 30
0.0
 11
2.90215
 21
53.6706
 31
0.0
  0
LINE
  8
0
 62
     0
 10
2.90215
 20
53.6706
 30
0.0
 11
3.18189
 21
53.5284
 31
0.0
  0
LINE
  8
0
 62
     0
 10
3.18189
 20
53.5284
 30
0.0
 11
3.40238
 21
53.3065
 31
0.0
  0
LINE
  8
0
 62
     0
 10
3.40238
 20
53.3065
 30
0.0
 11
3.54432
 21
53.0281
 31
0.0
  0
LINE
  8
0
 62
     0
 10
3.54432
 20
53.0281
 30
0.0
 11
3.59392
 21
52.7195
 31
0.0
  0
LINE
  8
0
 62
     0
 10
3.59392
 20
52.7195
 30
0.0
 11
3.54432
 21
52.4097
 31
0.0
  0
LINE
  8
0
 62
     0
 10
3.54432
 20
52.4097
 30
0.0
 11
3.40238
 21
52.131
 31
0.0
  0
LINE
  8
0
 62
     0
 10
3.40238
 20
52.131
 30
0.0
 11
3.18189
 21
51.9105
 31
0.0
  0
LINE
  8
0
 62
     0
 10
3.18189
 20
51.9105
 30
0.0
 11
2.90215
 21
51.7687
 31
0.0
  0
LINE
  8
0
 62
     0
 10
2.90215
 20
51.7687
 30
0.0
 11
2.59347
 21
51.719
 31
0.0
  0
LINE
  8
0
 62
     0
 10
2.59347
 20
51.719
 30
0.0
 11
2.28479
 21
51.7687
 31
0.0
  0
LINE
  8
0
 62
     0
 10
2.28479
 20
51.7687
 30
0.0
 11
2.00642
 21
51.9105
 31
0.0
  0
LINE
  8
0
 62
     0
 10
2.00642
 20
51.9105
 30
0.0
 11
1.78456
 21
52.131
 31
0.0
  0
LINE
  8
0
 62
     0
 10
1.78456
 20
52.131
 30
0.0
 11
1.64262
 21
52.4097
 31
0.0
  0
LINE
  8
0
 62
     0
 10
1.64262
 20
52.4097
 30
0.0
 11
1.59439
 21
52.7195
 31
0.0
  0
LINE
  8
0
 62
     0
 10
1.59439
 20
52.7195
 30
0.0
 11
1.64262
 21
53.0281
 31
0.0
  0
LINE
  8
0
 62
     0
 10
1.64262
 20
53.0281
 30
0.0
 11
1.78456
 21
53.3065
 31
0.0
  0
LINE
  8
0
 62
     0
 10
1.78456
 20
53.3065
 30
0.0
 11
2.00642
 21
53.5284
 31
0.0
  0
LINE
  8
0
 62
     0
 10
2.00642
 20
53.5284
 30
0.0
 11
2.28479
 21
53.6706
 31
0.0
  0
LINE
  8
0
 62
     0
 10
2.28479
 20
53.6706
 30
0.0
 11
2.59347
 21
53.7185
 31
0.0
  0
LINE
  8
0
 62
     0
 10
2.59347
 20
103.843
 30
0.0
 11
2.90215
 21
103.795
 31
0.0
  0
LINE
  8
0
 62
     0
 10
2.90215
 20
103.795
 30
0.0
 11
3.18189
 21
103.653
 31
0.0
  0
LINE
  8
0
 62
     0
 10
3.18189
 20
103.653
 30
0.0
 11
3.40238
 21
103.431
 31
0.0
  0
LINE
  8
0
 62
     0
 10
3.40238
 20
103.431
 30
0.0
 11
3.54432
 21
103.153
 31
0.0
  0
LINE
  8
0
 62
     0
 10
3.54432
 20
103.153
 30
0.0
 11
3.59392
 21
102.844
 31
0.0
  0
LINE
  8
0
 62
     0
 10
3.59392
 20
102.844
 30
0.0
 11
3.54432
 21
102.536
 31
0.0
  0
LINE
  8
0
 62
     0
 10
3.54432
 20
102.536
 30
0.0
 11
3.40238
 21
102.256
 31
0.0
  0
LINE
  8
0
 62
     0
 10
3.40238
 20
102.256
 30
0.0
 11
3.18189
 21
102.035
 31
0.0
  0
LINE
  8
0
 62
     0
 10
3.18189
 20
102.035
 30
0.0
 11
2.90215
 21
101.894
 31
0.0
  0
LINE
  8
0
 62
     0
 10
2.90215
 20
101.894
 30
0.0
 11
2.59347
 21
101.844
 31
0.0
  0
LINE
  8
0
 62
     0
 10
2.59347
 20
101.844
 30
0.0
 11
2.28479
 21
101.894
 31
0.0
  0
LINE
  8
0
 62
     0
 10
2.28479
 20
101.894
 30
0.0
 11
2.00642
 21
102.035
 31
0.0
  0
LINE
  8
0
 62
     0
 10
2.00642
 20
102.035
 30
0.0
 11
1.78456
 21
102.256
 31
0.0
  0
LINE
  8
0
 62
     0
 10
1.78456
 20
102.256
 30
0.0
 11
1.64262
 21
102.536
 31
0.0
  0
LINE
  8
0
 62
     0
 10
1.64262
 20
102.536
 30
0.0
 11
1.59439
 21
102.844
 31
0.0
  0
LINE
  8
0
 62
     0
 10
1.59439
 20
102.844
 30
0.0
 11
1.64262
 21
103.153
 31
0.0
  0
LINE
  8
0
 62
     0
 10
1.64262
 20
103.153
 30
0.0
 11
1.78456
 21
103.431
 31
0.0
  0
LINE
  8
0
 62
     0
 10
1.78456
 20
103.431
 30
0.0
 11
2.00642
 21
103.653
 31
0.0
  0
LINE
  8
0
 62
     0
 10
2.00642
 20
103.653
 30
0.0
 11
2.28479
 21
103.795
 31
0.0
  0
LINE
  8
0
 62
     0
 10
2.28479
 20
103.795
 30
0.0
 11
2.59347
 21
103.843
 31
0.0
  0
ENDSEC
  0
EOF
