  0
SECTION
  2
HEADER
  9
$ACADVER
  1
AC1009
  9
$EXTMIN
 10
0.0
 20
0.0
 30
0.0
  9
$EXTMAX
 10
1000.0
 20
1000.0
 30
0.0
  9
$FILLMODE
 70
 0
  9
$SPLFRAME
 70
 1
  0
ENDSEC
  0
SECTION
  2
TABLES
  0
TABLE
  2
LAYER
 70
1
  0
LAYER
  2
0
 70
     0
 62
     7
  6
CONTINUOUS
  0
ENDTAB
  0
ENDSEC
  0
SECTION
  2
ENTITIES
  0
LINE
  8
0
 62
     0
 10
172.019
 20
104.344
 30
0.0
 11
172.016
 21
104.422
 31
0.0
  0
LINE
  8
0
 62
     0
 10
172.016
 20
104.422
 30
0.0
 11
172.007
 21
104.501
 31
0.0
  0
LINE
  8
0
 62
     0
 10
172.007
 20
104.501
 30
0.0
 11
171.99
 21
104.577
 31
0.0
  0
LINE
  8
0
 62
     0
 10
171.99
 20
104.577
 30
0.0
 11
171.97
 21
104.654
 31
0.0
  0
LINE
  8
0
 62
     0
 10
171.97
 20
104.654
 30
0.0
 11
171.943
 21
104.727
 31
0.0
  0
LINE
  8
0
 62
     0
 10
171.943
 20
104.727
 30
0.0
 11
171.91
 21
104.798
 31
0.0
  0
LINE
  8
0
 62
     0
 10
171.91
 20
104.798
 30
0.0
 11
171.872
 21
104.866
 31
0.0
  0
LINE
  8
0
 62
     0
 10
171.872
 20
104.866
 30
0.0
 11
171.827
 21
104.932
 31
0.0
  0
LINE
  8
0
 62
     0
 10
171.827
 20
104.932
 30
0.0
 11
171.779
 21
104.993
 31
0.0
  0
LINE
  8
0
 62
     0
 10
171.779
 20
104.993
 30
0.0
 11
171.726
 21
105.051
 31
0.0
  0
LINE
  8
0
 62
     0
 10
171.726
 20
105.051
 30
0.0
 11
171.668
 21
105.104
 31
0.0
  0
LINE
  8
0
 62
     0
 10
171.668
 20
105.104
 30
0.0
 11
171.607
 21
105.152
 31
0.0
  0
LINE
  8
0
 62
     0
 10
171.607
 20
105.152
 30
0.0
 11
171.541
 21
105.197
 31
0.0
  0
LINE
  8
0
 62
     0
 10
171.541
 20
105.197
 30
0.0
 11
171.473
 21
105.235
 31
0.0
  0
LINE
  8
0
 62
     0
 10
171.473
 20
105.235
 30
0.0
 11
171.402
 21
105.268
 31
0.0
  0
LINE
  8
0
 62
     0
 10
171.402
 20
105.268
 30
0.0
 11
171.327
 21
105.295
 31
0.0
  0
LINE
  8
0
 62
     0
 10
171.327
 20
105.295
 30
0.0
 11
171.252
 21
105.317
 31
0.0
  0
LINE
  8
0
 62
     0
 10
171.252
 20
105.317
 30
0.0
 11
171.174
 21
105.332
 31
0.0
  0
LINE
  8
0
 62
     0
 10
171.174
 20
105.332
 30
0.0
 11
171.097
 21
105.341
 31
0.0
  0
LINE
  8
0
 62
     0
 10
171.097
 20
105.341
 30
0.0
 11
171.019
 21
105.344
 31
0.0
  0
LINE
  8
0
 62
     0
 10
171.019
 20
105.344
 30
0.0
 11
91.0565
 21
105.344
 31
0.0
  0
LINE
  8
0
 62
     0
 10
91.0565
 20
105.344
 30
0.0
 11
91.0565
 21
100.344
 31
0.0
  0
LINE
  8
0
 62
     0
 10
91.0565
 20
100.344
 30
0.0
 11
167.018
 21
100.344
 31
0.0
  0
LINE
  8
0
 62
     0
 10
167.018
 20
100.344
 30
0.0
 11
167.018
 21
5.0946
 31
0.0
  0
LINE
  8
0
 62
     0
 10
167.018
 20
5.0946
 30
0.0
 11
5.09323
 21
5.0946
 31
0.0
  0
LINE
  8
0
 62
     0
 10
5.09323
 20
5.0946
 30
0.0
 11
5.09323
 21
100.344
 31
0.0
  0
LINE
  8
0
 62
     0
 10
5.09323
 20
100.344
 30
0.0
 11
81.0563
 21
100.344
 31
0.0
  0
LINE
  8
0
 62
     0
 10
81.0563
 20
100.344
 30
0.0
 11
81.0563
 21
105.344
 31
0.0
  0
LINE
  8
0
 62
     0
 10
81.0563
 20
105.344
 30
0.0
 11
1.09416
 21
105.344
 31
0.0
  0
LINE
  8
0
 62
     0
 10
1.09416
 20
105.344
 30
0.0
 11
1.01562
 21
105.341
 31
0.0
  0
LINE
  8
0
 62
     0
 10
1.01562
 20
105.341
 30
0.0
 11
0.937066
 21
105.332
 31
0.0
  0
LINE
  8
0
 62
     0
 10
0.937066
 20
105.332
 30
0.0
 11
0.861275
 21
105.317
 31
0.0
  0
LINE
  8
0
 62
     0
 10
0.861275
 20
105.317
 30
0.0
 11
0.784105
 21
105.295
 31
0.0
  0
LINE
  8
0
 62
     0
 10
0.784105
 20
105.295
 30
0.0
 11
0.711069
 21
105.268
 31
0.0
  0
LINE
  8
0
 62
     0
 10
0.711069
 20
105.268
 30
0.0
 11
0.63941
 21
105.235
 31
0.0
  0
LINE
  8
0
 62
     0
 10
0.63941
 20
105.235
 30
0.0
 11
0.571885
 21
105.197
 31
0.0
  0
LINE
  8
0
 62
     0
 10
0.571885
 20
105.197
 30
0.0
 11
0.505739
 21
105.152
 31
0.0
  0
LINE
  8
0
 62
     0
 10
0.505739
 20
105.152
 30
0.0
 11
0.445107
 21
105.104
 31
0.0
  0
LINE
  8
0
 62
     0
 10
0.445107
 20
105.104
 30
0.0
 11
0.38723
 21
105.051
 31
0.0
  0
LINE
  8
0
 62
     0
 10
0.38723
 20
105.051
 30
0.0
 11
0.333485
 21
104.993
 31
0.0
  0
LINE
  8
0
 62
     0
 10
0.333485
 20
104.993
 30
0.0
 11
0.285254
 21
104.932
 31
0.0
  0
LINE
  8
0
 62
     0
 10
0.285254
 20
104.932
 30
0.0
 11
0.241157
 21
104.866
 31
0.0
  0
LINE
  8
0
 62
     0
 10
0.241157
 20
104.866
 30
0.0
 11
0.202572
 21
104.798
 31
0.0
  0
LINE
  8
0
 62
     0
 10
0.202572
 20
104.798
 30
0.0
 11
0.169499
 21
104.727
 31
0.0
  0
LINE
  8
0
 62
     0
 10
0.169499
 20
104.727
 30
0.0
 11
0.143316
 21
104.654
 31
0.0
  0
LINE
  8
0
 62
     0
 10
0.143316
 20
104.654
 30
0.0
 11
0.121267
 21
104.577
 31
0.0
  0
LINE
  8
0
 62
     0
 10
0.121267
 20
104.577
 30
0.0
 11
0.106109
 21
104.501
 31
0.0
  0
LINE
  8
0
 62
     0
 10
0.106109
 20
104.501
 30
0.0
 11
0.0964629
 21
104.422
 31
0.0
  0
LINE
  8
0
 62
     0
 10
0.0964629
 20
104.422
 30
0.0
 11
0.0937066
 21
104.344
 31
0.0
  0
LINE
  8
0
 62
     0
 10
0.0937066
 20
104.344
 30
0.0
 11
0.0937066
 21
1.09416
 31
0.0
  0
LINE
  8
0
 62
     0
 10
0.0937066
 20
1.09416
 30
0.0
 11
0.0964629
 21
1.01562
 31
0.0
  0
LINE
  8
0
 62
     0
 10
0.0964629
 20
1.01562
 30
0.0
 11
0.106109
 21
0.938445
 31
0.0
  0
LINE
  8
0
 62
     0
 10
0.106109
 20
0.938445
 30
0.0
 11
0.121267
 21
0.861275
 31
0.0
  0
LINE
  8
0
 62
     0
 10
0.121267
 20
0.861275
 30
0.0
 11
0.143316
 21
0.785481
 31
0.0
  0
LINE
  8
0
 62
     0
 10
0.143316
 20
0.785481
 30
0.0
 11
0.169499
 21
0.711069
 31
0.0
  0
LINE
  8
0
 62
     0
 10
0.169499
 20
0.711069
 30
0.0
 11
0.202572
 21
0.63941
 31
0.0
  0
LINE
  8
0
 62
     0
 10
0.202572
 20
0.63941
 30
0.0
 11
0.241157
 21
0.571885
 31
0.0
  0
LINE
  8
0
 62
     0
 10
0.241157
 20
0.571885
 30
0.0
 11
0.285254
 21
0.505739
 31
0.0
  0
LINE
  8
0
 62
     0
 10
0.285254
 20
0.505739
 30
0.0
 11
0.333485
 21
0.445107
 31
0.0
  0
LINE
  8
0
 62
     0
 10
0.333485
 20
0.445107
 30
0.0
 11
0.38723
 21
0.38723
 31
0.0
  0
LINE
  8
0
 62
     0
 10
0.38723
 20
0.38723
 30
0.0
 11
0.445107
 21
0.333485
 31
0.0
  0
LINE
  8
0
 62
     0
 10
0.445107
 20
0.333485
 30
0.0
 11
0.505739
 21
0.285254
 31
0.0
  0
LINE
  8
0
 62
     0
 10
0.505739
 20
0.285254
 30
0.0
 11
0.571885
 21
0.241157
 31
0.0
  0
LINE
  8
0
 62
     0
 10
0.571885
 20
0.241157
 30
0.0
 11
0.63941
 21
0.202572
 31
0.0
  0
LINE
  8
0
 62
     0
 10
0.63941
 20
0.202572
 30
0.0
 11
0.711069
 21
0.169499
 31
0.0
  0
LINE
  8
0
 62
     0
 10
0.711069
 20
0.169499
 30
0.0
 11
0.784105
 21
0.143316
 31
0.0
  0
LINE
  8
0
 62
     0
 10
0.784105
 20
0.143316
 30
0.0
 11
0.861275
 21
0.122645
 31
0.0
  0
LINE
  8
0
 62
     0
 10
0.861275
 20
0.122645
 30
0.0
 11
0.937066
 21
0.106109
 31
0.0
  0
LINE
  8
0
 62
     0
 10
0.937066
 20
0.106109
 30
0.0
 11
1.01562
 21
0.0964629
 31
0.0
  0
LINE
  8
0
 62
     0
 10
1.01562
 20
0.0964629
 30
0.0
 11
1.09416
 21
0.0937066
 31
0.0
  0
LINE
  8
0
 62
     0
 10
1.09416
 20
0.0937066
 30
0.0
 11
171.019
 21
0.0937066
 31
0.0
  0
LINE
  8
0
 62
     0
 10
171.019
 20
0.0937066
 30
0.0
 11
171.097
 21
0.0964629
 31
0.0
  0
LINE
  8
0
 62
     0
 10
171.097
 20
0.0964629
 30
0.0
 11
171.174
 21
0.106109
 31
0.0
  0
LINE
  8
0
 62
     0
 10
171.174
 20
0.106109
 30
0.0
 11
171.252
 21
0.122645
 31
0.0
  0
LINE
  8
0
 62
     0
 10
171.252
 20
0.122645
 30
0.0
 11
171.327
 21
0.143316
 31
0.0
  0
LINE
  8
0
 62
     0
 10
171.327
 20
0.143316
 30
0.0
 11
171.402
 21
0.169499
 31
0.0
  0
LINE
  8
0
 62
     0
 10
171.402
 20
0.169499
 30
0.0
 11
171.473
 21
0.202572
 31
0.0
  0
LINE
  8
0
 62
     0
 10
171.473
 20
0.202572
 30
0.0
 11
171.541
 21
0.241157
 31
0.0
  0
LINE
  8
0
 62
     0
 10
171.541
 20
0.241157
 30
0.0
 11
171.607
 21
0.285254
 31
0.0
  0
LINE
  8
0
 62
     0
 10
171.607
 20
0.285254
 30
0.0
 11
171.668
 21
0.333485
 31
0.0
  0
LINE
  8
0
 62
     0
 10
171.668
 20
0.333485
 30
0.0
 11
171.726
 21
0.38723
 31
0.0
  0
LINE
  8
0
 62
     0
 10
171.726
 20
0.38723
 30
0.0
 11
171.779
 21
0.445107
 31
0.0
  0
LINE
  8
0
 62
     0
 10
171.779
 20
0.445107
 30
0.0
 11
171.827
 21
0.505739
 31
0.0
  0
LINE
  8
0
 62
     0
 10
171.827
 20
0.505739
 30
0.0
 11
171.872
 21
0.571885
 31
0.0
  0
LINE
  8
0
 62
     0
 10
171.872
 20
0.571885
 30
0.0
 11
171.91
 21
0.63941
 31
0.0
  0
LINE
  8
0
 62
     0
 10
171.91
 20
0.63941
 30
0.0
 11
171.943
 21
0.711069
 31
0.0
  0
LINE
  8
0
 62
     0
 10
171.943
 20
0.711069
 30
0.0
 11
171.97
 21
0.785481
 31
0.0
  0
LINE
  8
0
 62
     0
 10
171.97
 20
0.785481
 30
0.0
 11
171.99
 21
0.861275
 31
0.0
  0
LINE
  8
0
 62
     0
 10
171.99
 20
0.861275
 30
0.0
 11
172.007
 21
0.938445
 31
0.0
  0
LINE
  8
0
 62
     0
 10
172.007
 20
0.938445
 30
0.0
 11
172.016
 21
1.01562
 31
0.0
  0
LINE
  8
0
 62
     0
 10
172.016
 20
1.01562
 30
0.0
 11
172.019
 21
1.09416
 31
0.0
  0
LINE
  8
0
 62
     0
 10
172.019
 20
1.09416
 30
0.0
 11
172.019
 21
104.344
 31
0.0
  0
LINE
  8
0
 62
     0
 10
58.2359
 20
103.843
 30
0.0
 11
58.5445
 21
103.795
 31
0.0
  0
LINE
  8
0
 62
     0
 10
58.5445
 20
103.795
 30
0.0
 11
58.8229
 21
103.653
 31
0.0
  0
LINE
  8
0
 62
     0
 10
58.8229
 20
103.653
 30
0.0
 11
59.0448
 21
103.431
 31
0.0
  0
LINE
  8
0
 62
     0
 10
59.0448
 20
103.431
 30
0.0
 11
59.1866
 21
103.153
 31
0.0
  0
LINE
  8
0
 62
     0
 10
59.1866
 20
103.153
 30
0.0
 11
59.2363
 21
102.844
 31
0.0
  0
LINE
  8
0
 62
     0
 10
59.2363
 20
102.844
 30
0.0
 11
59.1866
 21
102.536
 31
0.0
  0
LINE
  8
0
 62
     0
 10
59.1866
 20
102.536
 30
0.0
 11
59.0448
 21
102.256
 31
0.0
  0
LINE
  8
0
 62
     0
 10
59.0448
 20
102.256
 30
0.0
 11
58.8229
 21
102.035
 31
0.0
  0
LINE
  8
0
 62
     0
 10
58.8229
 20
102.035
 30
0.0
 11
58.5445
 21
101.894
 31
0.0
  0
LINE
  8
0
 62
     0
 10
58.5445
 20
101.894
 30
0.0
 11
58.2359
 21
101.844
 31
0.0
  0
LINE
  8
0
 62
     0
 10
58.2359
 20
101.844
 30
0.0
 11
57.9272
 21
101.894
 31
0.0
  0
LINE
  8
0
 62
     0
 10
57.9272
 20
101.894
 30
0.0
 11
57.6474
 21
102.035
 31
0.0
  0
LINE
  8
0
 62
     0
 10
57.6474
 20
102.035
 30
0.0
 11
57.4269
 21
102.256
 31
0.0
  0
LINE
  8
0
 62
     0
 10
57.4269
 20
102.256
 30
0.0
 11
57.2851
 21
102.536
 31
0.0
  0
LINE
  8
0
 62
     0
 10
57.2851
 20
102.536
 30
0.0
 11
57.2354
 21
102.844
 31
0.0
  0
LINE
  8
0
 62
     0
 10
57.2354
 20
102.844
 30
0.0
 11
57.2851
 21
103.153
 31
0.0
  0
LINE
  8
0
 62
     0
 10
57.2851
 20
103.153
 30
0.0
 11
57.4269
 21
103.431
 31
0.0
  0
LINE
  8
0
 62
     0
 10
57.4269
 20
103.431
 30
0.0
 11
57.6474
 21
103.653
 31
0.0
  0
LINE
  8
0
 62
     0
 10
57.6474
 20
103.653
 30
0.0
 11
57.9272
 21
103.795
 31
0.0
  0
LINE
  8
0
 62
     0
 10
57.9272
 20
103.795
 30
0.0
 11
58.2359
 21
103.843
 31
0.0
  0
LINE
  8
0
 62
     0
 10
113.877
 20
103.843
 30
0.0
 11
114.186
 21
103.795
 31
0.0
  0
LINE
  8
0
 62
     0
 10
114.186
 20
103.795
 30
0.0
 11
114.465
 21
103.653
 31
0.0
  0
LINE
  8
0
 62
     0
 10
114.465
 20
103.653
 30
0.0
 11
114.686
 21
103.431
 31
0.0
  0
LINE
  8
0
 62
     0
 10
114.686
 20
103.431
 30
0.0
 11
114.828
 21
103.153
 31
0.0
  0
LINE
  8
0
 62
     0
 10
114.828
 20
103.153
 30
0.0
 11
114.877
 21
102.844
 31
0.0
  0
LINE
  8
0
 62
     0
 10
114.877
 20
102.844
 30
0.0
 11
114.828
 21
102.536
 31
0.0
  0
LINE
  8
0
 62
     0
 10
114.828
 20
102.536
 30
0.0
 11
114.686
 21
102.256
 31
0.0
  0
LINE
  8
0
 62
     0
 10
114.686
 20
102.256
 30
0.0
 11
114.465
 21
102.035
 31
0.0
  0
LINE
  8
0
 62
     0
 10
114.465
 20
102.035
 30
0.0
 11
114.186
 21
101.894
 31
0.0
  0
LINE
  8
0
 62
     0
 10
114.186
 20
101.894
 30
0.0
 11
113.877
 21
101.844
 31
0.0
  0
LINE
  8
0
 62
     0
 10
113.877
 20
101.844
 30
0.0
 11
113.568
 21
101.894
 31
0.0
  0
LINE
  8
0
 62
     0
 10
113.568
 20
101.894
 30
0.0
 11
113.29
 21
102.035
 31
0.0
  0
LINE
  8
0
 62
     0
 10
113.29
 20
102.035
 30
0.0
 11
113.068
 21
102.256
 31
0.0
  0
LINE
  8
0
 62
     0
 10
113.068
 20
102.256
 30
0.0
 11
112.926
 21
102.536
 31
0.0
  0
LINE
  8
0
 62
     0
 10
112.926
 20
102.536
 30
0.0
 11
112.877
 21
102.844
 31
0.0
  0
LINE
  8
0
 62
     0
 10
112.877
 20
102.844
 30
0.0
 11
112.926
 21
103.153
 31
0.0
  0
LINE
  8
0
 62
     0
 10
112.926
 20
103.153
 30
0.0
 11
113.068
 21
103.431
 31
0.0
  0
LINE
  8
0
 62
     0
 10
113.068
 20
103.431
 30
0.0
 11
113.29
 21
103.653
 31
0.0
  0
LINE
  8
0
 62
     0
 10
113.29
 20
103.653
 30
0.0
 11
113.568
 21
103.795
 31
0.0
  0
LINE
  8
0
 62
     0
 10
113.568
 20
103.795
 30
0.0
 11
113.877
 21
103.843
 31
0.0
  0
LINE
  8
0
 62
     0
 10
169.519
 20
103.843
 30
0.0
 11
169.828
 21
103.795
 31
0.0
  0
LINE
  8
0
 62
     0
 10
169.828
 20
103.795
 30
0.0
 11
170.106
 21
103.653
 31
0.0
  0
LINE
  8
0
 62
     0
 10
170.106
 20
103.653
 30
0.0
 11
170.328
 21
103.431
 31
0.0
  0
LINE
  8
0
 62
     0
 10
170.328
 20
103.431
 30
0.0
 11
170.47
 21
103.153
 31
0.0
  0
LINE
  8
0
 62
     0
 10
170.47
 20
103.153
 30
0.0
 11
170.518
 21
102.844
 31
0.0
  0
LINE
  8
0
 62
     0
 10
170.518
 20
102.844
 30
0.0
 11
170.47
 21
102.536
 31
0.0
  0
LINE
  8
0
 62
     0
 10
170.47
 20
102.536
 30
0.0
 11
170.328
 21
102.256
 31
0.0
  0
LINE
  8
0
 62
     0
 10
170.328
 20
102.256
 30
0.0
 11
170.106
 21
102.035
 31
0.0
  0
LINE
  8
0
 62
     0
 10
170.106
 20
102.035
 30
0.0
 11
169.828
 21
101.894
 31
0.0
  0
LINE
  8
0
 62
     0
 10
169.828
 20
101.894
 30
0.0
 11
169.519
 21
101.844
 31
0.0
  0
LINE
  8
0
 62
     0
 10
169.519
 20
101.844
 30
0.0
 11
169.209
 21
101.894
 31
0.0
  0
LINE
  8
0
 62
     0
 10
169.209
 20
101.894
 30
0.0
 11
168.931
 21
102.035
 31
0.0
  0
LINE
  8
0
 62
     0
 10
168.931
 20
102.035
 30
0.0
 11
168.709
 21
102.256
 31
0.0
  0
LINE
  8
0
 62
     0
 10
168.709
 20
102.256
 30
0.0
 11
168.567
 21
102.536
 31
0.0
  0
LINE
  8
0
 62
     0
 10
168.567
 20
102.536
 30
0.0
 11
168.519
 21
102.844
 31
0.0
  0
LINE
  8
0
 62
     0
 10
168.519
 20
102.844
 30
0.0
 11
168.567
 21
103.153
 31
0.0
  0
LINE
  8
0
 62
     0
 10
168.567
 20
103.153
 30
0.0
 11
168.709
 21
103.431
 31
0.0
  0
LINE
  8
0
 62
     0
 10
168.709
 20
103.431
 30
0.0
 11
168.931
 21
103.653
 31
0.0
  0
LINE
  8
0
 62
     0
 10
168.931
 20
103.653
 30
0.0
 11
169.209
 21
103.795
 31
0.0
  0
LINE
  8
0
 62
     0
 10
169.209
 20
103.795
 30
0.0
 11
169.519
 21
103.843
 31
0.0
  0
LINE
  8
0
 62
     0
 10
169.519
 20
53.7185
 30
0.0
 11
169.828
 21
53.6706
 31
0.0
  0
LINE
  8
0
 62
     0
 10
169.828
 20
53.6706
 30
0.0
 11
170.106
 21
53.5284
 31
0.0
  0
LINE
  8
0
 62
     0
 10
170.106
 20
53.5284
 30
0.0
 11
170.328
 21
53.3065
 31
0.0
  0
LINE
  8
0
 62
     0
 10
170.328
 20
53.3065
 30
0.0
 11
170.47
 21
53.0281
 31
0.0
  0
LINE
  8
0
 62
     0
 10
170.47
 20
53.0281
 30
0.0
 11
170.518
 21
52.7195
 31
0.0
  0
LINE
  8
0
 62
     0
 10
170.518
 20
52.7195
 30
0.0
 11
170.47
 21
52.4097
 31
0.0
  0
LINE
  8
0
 62
     0
 10
170.47
 20
52.4097
 30
0.0
 11
170.328
 21
52.131
 31
0.0
  0
LINE
  8
0
 62
     0
 10
170.328
 20
52.131
 30
0.0
 11
170.106
 21
51.9105
 31
0.0
  0
LINE
  8
0
 62
     0
 10
170.106
 20
51.9105
 30
0.0
 11
169.828
 21
51.7687
 31
0.0
  0
LINE
  8
0
 62
     0
 10
169.828
 20
51.7687
 30
0.0
 11
169.519
 21
51.719
 31
0.0
  0
LINE
  8
0
 62
     0
 10
169.519
 20
51.719
 30
0.0
 11
169.209
 21
51.7687
 31
0.0
  0
LINE
  8
0
 62
     0
 10
169.209
 20
51.7687
 30
0.0
 11
168.931
 21
51.9105
 31
0.0
  0
LINE
  8
0
 62
     0
 10
168.931
 20
51.9105
 30
0.0
 11
168.709
 21
52.131
 31
0.0
  0
LINE
  8
0
 62
     0
 10
168.709
 20
52.131
 30
0.0
 11
168.567
 21
52.4097
 31
0.0
  0
LINE
  8
0
 62
     0
 10
168.567
 20
52.4097
 30
0.0
 11
168.519
 21
52.7195
 31
0.0
  0
LINE
  8
0
 62
     0
 10
168.519
 20
52.7195
 30
0.0
 11
168.567
 21
53.0281
 31
0.0
  0
LINE
  8
0
 62
     0
 10
168.567
 20
53.0281
 30
0.0
 11
168.709
 21
53.3065
 31
0.0
  0
LINE
  8
0
 62
     0
 10
168.709
 20
53.3065
 30
0.0
 11
168.931
 21
53.5284
 31
0.0
  0
LINE
  8
0
 62
     0
 10
168.931
 20
53.5284
 30
0.0
 11
169.209
 21
53.6706
 31
0.0
  0
LINE
  8
0
 62
     0
 10
169.209
 20
53.6706
 30
0.0
 11
169.519
 21
53.7185
 31
0.0
  0
LINE
  8
0
 62
     0
 10
169.519
 20
3.59392
 30
0.0
 11
169.828
 21
3.5457
 31
0.0
  0
LINE
  8
0
 62
     0
 10
169.828
 20
3.5457
 30
0.0
 11
170.106
 21
3.40376
 31
0.0
  0
LINE
  8
0
 62
     0
 10
170.106
 20
3.40376
 30
0.0
 11
170.328
 21
3.18189
 31
0.0
  0
LINE
  8
0
 62
     0
 10
170.328
 20
3.18189
 30
0.0
 11
170.47
 21
2.90353
 31
0.0
  0
LINE
  8
0
 62
     0
 10
170.47
 20
2.90353
 30
0.0
 11
170.518
 21
2.59347
 31
0.0
  0
LINE
  8
0
 62
     0
 10
170.518
 20
2.59347
 30
0.0
 11
170.47
 21
2.28479
 31
0.0
  0
LINE
  8
0
 62
     0
 10
170.47
 20
2.28479
 30
0.0
 11
170.328
 21
2.00642
 31
0.0
  0
LINE
  8
0
 62
     0
 10
170.328
 20
2.00642
 30
0.0
 11
170.106
 21
1.78456
 31
0.0
  0
LINE
  8
0
 62
     0
 10
170.106
 20
1.78456
 30
0.0
 11
169.828
 21
1.64262
 31
0.0
  0
LINE
  8
0
 62
     0
 10
169.828
 20
1.64262
 30
0.0
 11
169.519
 21
1.59439
 31
0.0
  0
LINE
  8
0
 62
     0
 10
169.519
 20
1.59439
 30
0.0
 11
169.209
 21
1.64262
 31
0.0
  0
LINE
  8
0
 62
     0
 10
169.209
 20
1.64262
 30
0.0
 11
168.931
 21
1.78456
 31
0.0
  0
LINE
  8
0
 62
     0
 10
168.931
 20
1.78456
 30
0.0
 11
168.709
 21
2.00642
 31
0.0
  0
LINE
  8
0
 62
     0
 10
168.709
 20
2.00642
 30
0.0
 11
168.567
 21
2.28479
 31
0.0
  0
LINE
  8
0
 62
     0
 10
168.567
 20
2.28479
 30
0.0
 11
168.519
 21
2.59347
 31
0.0
  0
LINE
  8
0
 62
     0
 10
168.519
 20
2.59347
 30
0.0
 11
168.567
 21
2.90353
 31
0.0
  0
LINE
  8
0
 62
     0
 10
168.567
 20
2.90353
 30
0.0
 11
168.709
 21
3.18189
 31
0.0
  0
LINE
  8
0
 62
     0
 10
168.709
 20
3.18189
 30
0.0
 11
168.931
 21
3.40376
 31
0.0
  0
LINE
  8
0
 62
     0
 10
168.931
 20
3.40376
 30
0.0
 11
169.209
 21
3.5457
 31
0.0
  0
LINE
  8
0
 62
     0
 10
169.209
 20
3.5457
 30
0.0
 11
169.519
 21
3.59392
 31
0.0
  0
LINE
  8
0
 62
     0
 10
113.877
 20
3.59392
 30
0.0
 11
114.186
 21
3.5457
 31
0.0
  0
LINE
  8
0
 62
     0
 10
114.186
 20
3.5457
 30
0.0
 11
114.465
 21
3.40376
 31
0.0
  0
LINE
  8
0
 62
     0
 10
114.465
 20
3.40376
 30
0.0
 11
114.686
 21
3.18189
 31
0.0
  0
LINE
  8
0
 62
     0
 10
114.686
 20
3.18189
 30
0.0
 11
114.828
 21
2.90353
 31
0.0
  0
LINE
  8
0
 62
     0
 10
114.828
 20
2.90353
 30
0.0
 11
114.877
 21
2.59347
 31
0.0
  0
LINE
  8
0
 62
     0
 10
114.877
 20
2.59347
 30
0.0
 11
114.828
 21
2.28479
 31
0.0
  0
LINE
  8
0
 62
     0
 10
114.828
 20
2.28479
 30
0.0
 11
114.686
 21
2.00642
 31
0.0
  0
LINE
  8
0
 62
     0
 10
114.686
 20
2.00642
 30
0.0
 11
114.465
 21
1.78456
 31
0.0
  0
LINE
  8
0
 62
     0
 10
114.465
 20
1.78456
 30
0.0
 11
114.186
 21
1.64262
 31
0.0
  0
LINE
  8
0
 62
     0
 10
114.186
 20
1.64262
 30
0.0
 11
113.877
 21
1.59439
 31
0.0
  0
LINE
  8
0
 62
     0
 10
113.877
 20
1.59439
 30
0.0
 11
113.568
 21
1.64262
 31
0.0
  0
LINE
  8
0
 62
     0
 10
113.568
 20
1.64262
 30
0.0
 11
113.29
 21
1.78456
 31
0.0
  0
LINE
  8
0
 62
     0
 10
113.29
 20
1.78456
 30
0.0
 11
113.068
 21
2.00642
 31
0.0
  0
LINE
  8
0
 62
     0
 10
113.068
 20
2.00642
 30
0.0
 11
112.926
 21
2.28479
 31
0.0
  0
LINE
  8
0
 62
     0
 10
112.926
 20
2.28479
 30
0.0
 11
112.877
 21
2.59347
 31
0.0
  0
LINE
  8
0
 62
     0
 10
112.877
 20
2.59347
 30
0.0
 11
112.926
 21
2.90353
 31
0.0
  0
LINE
  8
0
 62
     0
 10
112.926
 20
2.90353
 30
0.0
 11
113.068
 21
3.18189
 31
0.0
  0
LINE
  8
0
 62
     0
 10
113.068
 20
3.18189
 30
0.0
 11
113.29
 21
3.40376
 31
0.0
  0
LINE
  8
0
 62
     0
 10
113.29
 20
3.40376
 30
0.0
 11
113.568
 21
3.5457
 31
0.0
  0
LINE
  8
0
 62
     0
 10
113.568
 20
3.5457
 30
0.0
 11
113.877
 21
3.59392
 31
0.0
  0
LINE
  8
0
 62
     0
 10
58.2359
 20
3.59392
 30
0.0
 11
58.5445
 21
3.5457
 31
0.0
  0
LINE
  8
0
 62
     0
 10
58.5445
 20
3.5457
 30
0.0
 11
58.8229
 21
3.40376
 31
0.0
  0
LINE
  8
0
 62
     0
 10
58.8229
 20
3.40376
 30
0.0
 11
59.0448
 21
3.18189
 31
0.0
  0
LINE
  8
0
 62
     0
 10
59.0448
 20
3.18189
 30
0.0
 11
59.1866
 21
2.90353
 31
0.0
  0
LINE
  8
0
 62
     0
 10
59.1866
 20
2.90353
 30
0.0
 11
59.2363
 21
2.59347
 31
0.0
  0
LINE
  8
0
 62
     0
 10
59.2363
 20
2.59347
 30
0.0
 11
59.1866
 21
2.28479
 31
0.0
  0
LINE
  8
0
 62
     0
 10
59.1866
 20
2.28479
 30
0.0
 11
59.0448
 21
2.00642
 31
0.0
  0
LINE
  8
0
 62
     0
 10
59.0448
 20
2.00642
 30
0.0
 11
58.8229
 21
1.78456
 31
0.0
  0
LINE
  8
0
 62
     0
 10
58.8229
 20
1.78456
 30
0.0
 11
58.5445
 21
1.64262
 31
0.0
  0
LINE
  8
0
 62
     0
 10
58.5445
 20
1.64262
 30
0.0
 11
58.2359
 21
1.59439
 31
0.0
  0
LINE
  8
0
 62
     0
 10
58.2359
 20
1.59439
 30
0.0
 11
57.9272
 21
1.64262
 31
0.0
  0
LINE
  8
0
 62
     0
 10
57.9272
 20
1.64262
 30
0.0
 11
57.6474
 21
1.78456
 31
0.0
  0
LINE
  8
0
 62
     0
 10
57.6474
 20
1.78456
 30
0.0
 11
57.4269
 21
2.00642
 31
0.0
  0
LINE
  8
0
 62
     0
 10
57.4269
 20
2.00642
 30
0.0
 11
57.2851
 21
2.28479
 31
0.0
  0
LINE
  8
0
 62
     0
 10
57.2851
 20
2.28479
 30
0.0
 11
57.2354
 21
2.59347
 31
0.0
  0
LINE
  8
0
 62
     0
 10
57.2354
 20
2.59347
 30
0.0
 11
57.2851
 21
2.90353
 31
0.0
  0
LINE
  8
0
 62
     0
 10
57.2851
 20
2.90353
 30
0.0
 11
57.4269
 21
3.18189
 31
0.0
  0
LINE
  8
0
 62
     0
 10
57.4269
 20
3.18189
 30
0.0
 11
57.6474
 21
3.40376
 31
0.0
  0
LINE
  8
0
 62
     0
 10
57.6474
 20
3.40376
 30
0.0
 11
57.9272
 21
3.5457
 31
0.0
  0
LINE
  8
0
 62
     0
 10
57.9272
 20
3.5457
 30
0.0
 11
58.2359
 21
3.59392
 31
0.0
  0
LINE
  8
0
 62
     0
 10
2.59347
 20
3.59392
 30
0.0
 11
2.90215
 21
3.5457
 31
0.0
  0
LINE
  8
0
 62
     0
 10
2.90215
 20
3.5457
 30
0.0
 11
3.18189
 21
3.40376
 31
0.0
  0
LINE
  8
0
 62
     0
 10
3.18189
 20
3.40376
 30
0.0
 11
3.40238
 21
3.18189
 31
0.0
  0
LINE
  8
0
 62
     0
 10
3.40238
 20
3.18189
 30
0.0
 11
3.54432
 21
2.90353
 31
0.0
  0
LINE
  8
0
 62
     0
 10
3.54432
 20
2.90353
 30
0.0
 11
3.59392
 21
2.59347
 31
0.0
  0
LINE
  8
0
 62
     0
 10
3.59392
 20
2.59347
 30
0.0
 11
3.54432
 21
2.28479
 31
0.0
  0
LINE
  8
0
 62
     0
 10
3.54432
 20
2.28479
 30
0.0
 11
3.40238
 21
2.00642
 31
0.0
  0
LINE
  8
0
 62
     0
 10
3.40238
 20
2.00642
 30
0.0
 11
3.18189
 21
1.78456
 31
0.0
  0
LINE
  8
0
 62
     0
 10
3.18189
 20
1.78456
 30
0.0
 11
2.90215
 21
1.64262
 31
0.0
  0
LINE
  8
0
 62
     0
 10
2.90215
 20
1.64262
 30
0.0
 11
2.59347
 21
1.59439
 31
0.0
  0
LINE
  8
0
 62
     0
 10
2.59347
 20
1.59439
 30
0.0
 11
2.28479
 21
1.64262
 31
0.0
  0
LINE
  8
0
 62
     0
 10
2.28479
 20
1.64262
 30
0.0
 11
2.00642
 21
1.78456
 31
0.0
  0
LINE
  8
0
 62
     0
 10
2.00642
 20
1.78456
 30
0.0
 11
1.78456
 21
2.00642
 31
0.0
  0
LINE
  8
0
 62
     0
 10
1.78456
 20
2.00642
 30
0.0
 11
1.64262
 21
2.28479
 31
0.0
  0
LINE
  8
0
 62
     0
 10
1.64262
 20
2.28479
 30
0.0
 11
1.59439
 21
2.59347
 31
0.0
  0
LINE
  8
0
 62
     0
 10
1.59439
 20
2.59347
 30
0.0
 11
1.64262
 21
2.90353
 31
0.0
  0
LINE
  8
0
 62
     0
 10
1.64262
 20
2.90353
 30
0.0
 11
1.78456
 21
3.18189
 31
0.0
  0
LINE
  8
0
 62
     0
 10
1.78456
 20
3.18189
 30
0.0
 11
2.00642
 21
3.40376
 31
0.0
  0
LINE
  8
0
 62
     0
 10
2.00642
 20
3.40376
 30
0.0
 11
2.28479
 21
3.5457
 31
0.0
  0
LINE
  8
0
 62
     0
 10
2.28479
 20
3.5457
 30
0.0
 11
2.59347
 21
3.59392
 31
0.0
  0
LINE
  8
0
 62
     0
 10
2.59347
 20
53.7185
 30
0.0
 11
2.90215
 21
53.6706
 31
0.0
  0
LINE
  8
0
 62
     0
 10
2.90215
 20
53.6706
 30
0.0
 11
3.18189
 21
53.5284
 31
0.0
  0
LINE
  8
0
 62
     0
 10
3.18189
 20
53.5284
 30
0.0
 11
3.40238
 21
53.3065
 31
0.0
  0
LINE
  8
0
 62
     0
 10
3.40238
 20
53.3065
 30
0.0
 11
3.54432
 21
53.0281
 31
0.0
  0
LINE
  8
0
 62
     0
 10
3.54432
 20
53.0281
 30
0.0
 11
3.59392
 21
52.7195
 31
0.0
  0
LINE
  8
0
 62
     0
 10
3.59392
 20
52.7195
 30
0.0
 11
3.54432
 21
52.4097
 31
0.0
  0
LINE
  8
0
 62
     0
 10
3.54432
 20
52.4097
 30
0.0
 11
3.40238
 21
52.131
 31
0.0
  0
LINE
  8
0
 62
     0
 10
3.40238
 20
52.131
 30
0.0
 11
3.18189
 21
51.9105
 31
0.0
  0
LINE
  8
0
 62
     0
 10
3.18189
 20
51.9105
 30
0.0
 11
2.90215
 21
51.7687
 31
0.0
  0
LINE
  8
0
 62
     0
 10
2.90215
 20
51.7687
 30
0.0
 11
2.59347
 21
51.719
 31
0.0
  0
LINE
  8
0
 62
     0
 10
2.59347
 20
51.719
 30
0.0
 11
2.28479
 21
51.7687
 31
0.0
  0
LINE
  8
0
 62
     0
 10
2.28479
 20
51.7687
 30
0.0
 11
2.00642
 21
51.9105
 31
0.0
  0
LINE
  8
0
 62
     0
 10
2.00642
 20
51.9105
 30
0.0
 11
1.78456
 21
52.131
 31
0.0
  0
LINE
  8
0
 62
     0
 10
1.78456
 20
52.131
 30
0.0
 11
1.64262
 21
52.4097
 31
0.0
  0
LINE
  8
0
 62
     0
 10
1.64262
 20
52.4097
 30
0.0
 11
1.59439
 21
52.7195
 31
0.0
  0
LINE
  8
0
 62
     0
 10
1.59439
 20
52.7195
 30
0.0
 11
1.64262
 21
53.0281
 31
0.0
  0
LINE
  8
0
 62
     0
 10
1.64262
 20
53.0281
 30
0.0
 11
1.78456
 21
53.3065
 31
0.0
  0
LINE
  8
0
 62
     0
 10
1.78456
 20
53.3065
 30
0.0
 11
2.00642
 21
53.5284
 31
0.0
  0
LINE
  8
0
 62
     0
 10
2.00642
 20
53.5284
 30
0.0
 11
2.28479
 21
53.6706
 31
0.0
  0
LINE
  8
0
 62
     0
 10
2.28479
 20
53.6706
 30
0.0
 11
2.59347
 21
53.7185
 31
0.0
  0
LINE
  8
0
 62
     0
 10
2.59347
 20
103.843
 30
0.0
 11
2.90215
 21
103.795
 31
0.0
  0
LINE
  8
0
 62
     0
 10
2.90215
 20
103.795
 30
0.0
 11
3.18189
 21
103.653
 31
0.0
  0
LINE
  8
0
 62
     0
 10
3.18189
 20
103.653
 30
0.0
 11
3.40238
 21
103.431
 31
0.0
  0
LINE
  8
0
 62
     0
 10
3.40238
 20
103.431
 30
0.0
 11
3.54432
 21
103.153
 31
0.0
  0
LINE
  8
0
 62
     0
 10
3.54432
 20
103.153
 30
0.0
 11
3.59392
 21
102.844
 31
0.0
  0
LINE
  8
0
 62
     0
 10
3.59392
 20
102.844
 30
0.0
 11
3.54432
 21
102.536
 31
0.0
  0
LINE
  8
0
 62
     0
 10
3.54432
 20
102.536
 30
0.0
 11
3.40238
 21
102.256
 31
0.0
  0
LINE
  8
0
 62
     0
 10
3.40238
 20
102.256
 30
0.0
 11
3.18189
 21
102.035
 31
0.0
  0
LINE
  8
0
 62
     0
 10
3.18189
 20
102.035
 30
0.0
 11
2.90215
 21
101.894
 31
0.0
  0
LINE
  8
0
 62
     0
 10
2.90215
 20
101.894
 30
0.0
 11
2.59347
 21
101.844
 31
0.0
  0
LINE
  8
0
 62
     0
 10
2.59347
 20
101.844
 30
0.0
 11
2.28479
 21
101.894
 31
0.0
  0
LINE
  8
0
 62
     0
 10
2.28479
 20
101.894
 30
0.0
 11
2.00642
 21
102.035
 31
0.0
  0
LINE
  8
0
 62
     0
 10
2.00642
 20
102.035
 30
0.0
 11
1.78456
 21
102.256
 31
0.0
  0
LINE
  8
0
 62
     0
 10
1.78456
 20
102.256
 30
0.0
 11
1.64262
 21
102.536
 31
0.0
  0
LINE
  8
0
 62
     0
 10
1.64262
 20
102.536
 30
0.0
 11
1.59439
 21
102.844
 31
0.0
  0
LINE
  8
0
 62
     0
 10
1.59439
 20
102.844
 30
0.0
 11
1.64262
 21
103.153
 31
0.0
  0
LINE
  8
0
 62
     0
 10
1.64262
 20
103.153
 30
0.0
 11
1.78456
 21
103.431
 31
0.0
  0
LINE
  8
0
 62
     0
 10
1.78456
 20
103.431
 30
0.0
 11
2.00642
 21
103.653
 31
0.0
  0
LINE
  8
0
 62
     0
 10
2.00642
 20
103.653
 30
0.0
 11
2.28479
 21
103.795
 31
0.0
  0
LINE
  8
0
 62
     0
 10
2.28479
 20
103.795
 30
0.0
 11
2.59347
 21
103.843
 31
0.0
  0
ENDSEC
  0
EOF
