  0
SECTION
  2
HEADER
  9
$ACADVER
  1
AC1009
  9
$EXTMIN
 10
0.0
 20
0.0
 30
0.0
  9
$EXTMAX
 10
1000.0
 20
1000.0
 30
0.0
  9
$FILLMODE
 70
 0
  9
$SPLFRAME
 70
 1
  0
ENDSEC
  0
SECTION
  2
TABLES
  0
TABLE
  2
LAYER
 70
1
  0
LAYER
  2
0
 70
     0
 62
     7
  6
CONTINUOUS
  0
ENDTAB
  0
ENDSEC
  0
SECTION
  2
ENTITIES
  0
LINE
  8
0
 62
     0
 10
294.844
 20
105.344
 30
0.0
 11
294.922
 21
105.341
 31
0.0
  0
LINE
  8
0
 62
     0
 10
294.922
 20
105.341
 30
0.0
 11
294.999
 21
105.332
 31
0.0
  0
LINE
  8
0
 62
     0
 10
294.999
 20
105.332
 30
0.0
 11
295.077
 21
105.317
 31
0.0
  0
LINE
  8
0
 62
     0
 10
295.077
 20
105.317
 30
0.0
 11
295.152
 21
105.295
 31
0.0
  0
LINE
  8
0
 62
     0
 10
295.152
 20
105.295
 30
0.0
 11
295.227
 21
105.268
 31
0.0
  0
LINE
  8
0
 62
     0
 10
295.227
 20
105.268
 30
0.0
 11
295.297
 21
105.235
 31
0.0
  0
LINE
  8
0
 62
     0
 10
295.297
 20
105.235
 30
0.0
 11
295.366
 21
105.197
 31
0.0
  0
LINE
  8
0
 62
     0
 10
295.366
 20
105.197
 30
0.0
 11
295.432
 21
105.152
 31
0.0
  0
LINE
  8
0
 62
     0
 10
295.432
 20
105.152
 30
0.0
 11
295.493
 21
105.104
 31
0.0
  0
LINE
  8
0
 62
     0
 10
295.493
 20
105.104
 30
0.0
 11
295.551
 21
105.051
 31
0.0
  0
LINE
  8
0
 62
     0
 10
295.551
 20
105.051
 30
0.0
 11
295.605
 21
104.993
 31
0.0
  0
LINE
  8
0
 62
     0
 10
295.605
 20
104.993
 30
0.0
 11
295.652
 21
104.932
 31
0.0
  0
LINE
  8
0
 62
     0
 10
295.652
 20
104.932
 30
0.0
 11
295.697
 21
104.866
 31
0.0
  0
LINE
  8
0
 62
     0
 10
295.697
 20
104.866
 30
0.0
 11
295.735
 21
104.798
 31
0.0
  0
LINE
  8
0
 62
     0
 10
295.735
 20
104.798
 30
0.0
 11
295.768
 21
104.727
 31
0.0
  0
LINE
  8
0
 62
     0
 10
295.768
 20
104.727
 30
0.0
 11
295.795
 21
104.654
 31
0.0
  0
LINE
  8
0
 62
     0
 10
295.795
 20
104.654
 30
0.0
 11
295.815
 21
104.577
 31
0.0
  0
LINE
  8
0
 62
     0
 10
295.815
 20
104.577
 30
0.0
 11
295.832
 21
104.501
 31
0.0
  0
LINE
  8
0
 62
     0
 10
295.832
 20
104.501
 30
0.0
 11
295.841
 21
104.422
 31
0.0
  0
LINE
  8
0
 62
     0
 10
295.841
 20
104.422
 30
0.0
 11
295.844
 21
104.344
 31
0.0
  0
LINE
  8
0
 62
     0
 10
295.844
 20
104.344
 30
0.0
 11
295.844
 21
1.09416
 31
0.0
  0
LINE
  8
0
 62
     0
 10
295.844
 20
1.09416
 30
0.0
 11
295.841
 21
1.01562
 31
0.0
  0
LINE
  8
0
 62
     0
 10
295.841
 20
1.01562
 30
0.0
 11
295.832
 21
0.938445
 31
0.0
  0
LINE
  8
0
 62
     0
 10
295.832
 20
0.938445
 30
0.0
 11
295.815
 21
0.861275
 31
0.0
  0
LINE
  8
0
 62
     0
 10
295.815
 20
0.861275
 30
0.0
 11
295.795
 21
0.785481
 31
0.0
  0
LINE
  8
0
 62
     0
 10
295.795
 20
0.785481
 30
0.0
 11
295.768
 21
0.711069
 31
0.0
  0
LINE
  8
0
 62
     0
 10
295.768
 20
0.711069
 30
0.0
 11
295.735
 21
0.63941
 31
0.0
  0
LINE
  8
0
 62
     0
 10
295.735
 20
0.63941
 30
0.0
 11
295.697
 21
0.571885
 31
0.0
  0
LINE
  8
0
 62
     0
 10
295.697
 20
0.571885
 30
0.0
 11
295.652
 21
0.505739
 31
0.0
  0
LINE
  8
0
 62
     0
 10
295.652
 20
0.505739
 30
0.0
 11
295.605
 21
0.445107
 31
0.0
  0
LINE
  8
0
 62
     0
 10
295.605
 20
0.445107
 30
0.0
 11
295.551
 21
0.38723
 31
0.0
  0
LINE
  8
0
 62
     0
 10
295.551
 20
0.38723
 30
0.0
 11
295.493
 21
0.333485
 31
0.0
  0
LINE
  8
0
 62
     0
 10
295.493
 20
0.333485
 30
0.0
 11
295.432
 21
0.285254
 31
0.0
  0
LINE
  8
0
 62
     0
 10
295.432
 20
0.285254
 30
0.0
 11
295.366
 21
0.241157
 31
0.0
  0
LINE
  8
0
 62
     0
 10
295.366
 20
0.241157
 30
0.0
 11
295.297
 21
0.202572
 31
0.0
  0
LINE
  8
0
 62
     0
 10
295.297
 20
0.202572
 30
0.0
 11
295.227
 21
0.169499
 31
0.0
  0
LINE
  8
0
 62
     0
 10
295.227
 20
0.169499
 30
0.0
 11
295.152
 21
0.143316
 31
0.0
  0
LINE
  8
0
 62
     0
 10
295.152
 20
0.143316
 30
0.0
 11
295.077
 21
0.122645
 31
0.0
  0
LINE
  8
0
 62
     0
 10
295.077
 20
0.122645
 30
0.0
 11
294.999
 21
0.106109
 31
0.0
  0
LINE
  8
0
 62
     0
 10
294.999
 20
0.106109
 30
0.0
 11
294.922
 21
0.0964629
 31
0.0
  0
LINE
  8
0
 62
     0
 10
294.922
 20
0.0964629
 30
0.0
 11
294.844
 21
0.0937066
 31
0.0
  0
LINE
  8
0
 62
     0
 10
294.844
 20
0.0937066
 30
0.0
 11
1.09416
 21
0.0937066
 31
0.0
  0
LINE
  8
0
 62
     0
 10
1.09416
 20
0.0937066
 30
0.0
 11
1.01562
 21
0.0964629
 31
0.0
  0
LINE
  8
0
 62
     0
 10
1.01562
 20
0.0964629
 30
0.0
 11
0.937066
 21
0.106109
 31
0.0
  0
LINE
  8
0
 62
     0
 10
0.937066
 20
0.106109
 30
0.0
 11
0.861275
 21
0.122645
 31
0.0
  0
LINE
  8
0
 62
     0
 10
0.861275
 20
0.122645
 30
0.0
 11
0.784105
 21
0.143316
 31
0.0
  0
LINE
  8
0
 62
     0
 10
0.784105
 20
0.143316
 30
0.0
 11
0.711069
 21
0.169499
 31
0.0
  0
LINE
  8
0
 62
     0
 10
0.711069
 20
0.169499
 30
0.0
 11
0.63941
 21
0.202572
 31
0.0
  0
LINE
  8
0
 62
     0
 10
0.63941
 20
0.202572
 30
0.0
 11
0.571885
 21
0.241157
 31
0.0
  0
LINE
  8
0
 62
     0
 10
0.571885
 20
0.241157
 30
0.0
 11
0.505739
 21
0.285254
 31
0.0
  0
LINE
  8
0
 62
     0
 10
0.505739
 20
0.285254
 30
0.0
 11
0.445107
 21
0.333485
 31
0.0
  0
LINE
  8
0
 62
     0
 10
0.445107
 20
0.333485
 30
0.0
 11
0.38723
 21
0.38723
 31
0.0
  0
LINE
  8
0
 62
     0
 10
0.38723
 20
0.38723
 30
0.0
 11
0.333485
 21
0.445107
 31
0.0
  0
LINE
  8
0
 62
     0
 10
0.333485
 20
0.445107
 30
0.0
 11
0.285254
 21
0.505739
 31
0.0
  0
LINE
  8
0
 62
     0
 10
0.285254
 20
0.505739
 30
0.0
 11
0.241157
 21
0.571885
 31
0.0
  0
LINE
  8
0
 62
     0
 10
0.241157
 20
0.571885
 30
0.0
 11
0.202572
 21
0.63941
 31
0.0
  0
LINE
  8
0
 62
     0
 10
0.202572
 20
0.63941
 30
0.0
 11
0.169499
 21
0.711069
 31
0.0
  0
LINE
  8
0
 62
     0
 10
0.169499
 20
0.711069
 30
0.0
 11
0.143316
 21
0.785481
 31
0.0
  0
LINE
  8
0
 62
     0
 10
0.143316
 20
0.785481
 30
0.0
 11
0.121267
 21
0.861275
 31
0.0
  0
LINE
  8
0
 62
     0
 10
0.121267
 20
0.861275
 30
0.0
 11
0.106109
 21
0.938445
 31
0.0
  0
LINE
  8
0
 62
     0
 10
0.106109
 20
0.938445
 30
0.0
 11
0.0964629
 21
1.01562
 31
0.0
  0
LINE
  8
0
 62
     0
 10
0.0964629
 20
1.01562
 30
0.0
 11
0.0937066
 21
1.09416
 31
0.0
  0
LINE
  8
0
 62
     0
 10
0.0937066
 20
1.09416
 30
0.0
 11
0.0937066
 21
104.344
 31
0.0
  0
LINE
  8
0
 62
     0
 10
0.0937066
 20
104.344
 30
0.0
 11
0.0964629
 21
104.422
 31
0.0
  0
LINE
  8
0
 62
     0
 10
0.0964629
 20
104.422
 30
0.0
 11
0.106109
 21
104.501
 31
0.0
  0
LINE
  8
0
 62
     0
 10
0.106109
 20
104.501
 30
0.0
 11
0.121267
 21
104.577
 31
0.0
  0
LINE
  8
0
 62
     0
 10
0.121267
 20
104.577
 30
0.0
 11
0.143316
 21
104.654
 31
0.0
  0
LINE
  8
0
 62
     0
 10
0.143316
 20
104.654
 30
0.0
 11
0.169499
 21
104.727
 31
0.0
  0
LINE
  8
0
 62
     0
 10
0.169499
 20
104.727
 30
0.0
 11
0.202572
 21
104.798
 31
0.0
  0
LINE
  8
0
 62
     0
 10
0.202572
 20
104.798
 30
0.0
 11
0.241157
 21
104.866
 31
0.0
  0
LINE
  8
0
 62
     0
 10
0.241157
 20
104.866
 30
0.0
 11
0.285254
 21
104.932
 31
0.0
  0
LINE
  8
0
 62
     0
 10
0.285254
 20
104.932
 30
0.0
 11
0.333485
 21
104.993
 31
0.0
  0
LINE
  8
0
 62
     0
 10
0.333485
 20
104.993
 30
0.0
 11
0.38723
 21
105.051
 31
0.0
  0
LINE
  8
0
 62
     0
 10
0.38723
 20
105.051
 30
0.0
 11
0.445107
 21
105.104
 31
0.0
  0
LINE
  8
0
 62
     0
 10
0.445107
 20
105.104
 30
0.0
 11
0.505739
 21
105.152
 31
0.0
  0
LINE
  8
0
 62
     0
 10
0.505739
 20
105.152
 30
0.0
 11
0.571885
 21
105.197
 31
0.0
  0
LINE
  8
0
 62
     0
 10
0.571885
 20
105.197
 30
0.0
 11
0.63941
 21
105.235
 31
0.0
  0
LINE
  8
0
 62
     0
 10
0.63941
 20
105.235
 30
0.0
 11
0.711069
 21
105.268
 31
0.0
  0
LINE
  8
0
 62
     0
 10
0.711069
 20
105.268
 30
0.0
 11
0.784105
 21
105.295
 31
0.0
  0
LINE
  8
0
 62
     0
 10
0.784105
 20
105.295
 30
0.0
 11
0.861275
 21
105.317
 31
0.0
  0
LINE
  8
0
 62
     0
 10
0.861275
 20
105.317
 30
0.0
 11
0.937066
 21
105.332
 31
0.0
  0
LINE
  8
0
 62
     0
 10
0.937066
 20
105.332
 30
0.0
 11
1.01562
 21
105.341
 31
0.0
  0
LINE
  8
0
 62
     0
 10
1.01562
 20
105.341
 30
0.0
 11
1.09416
 21
105.344
 31
0.0
  0
LINE
  8
0
 62
     0
 10
1.09416
 20
105.344
 30
0.0
 11
294.844
 21
105.344
 31
0.0
  0
LINE
  8
0
 62
     0
 10
99.5109
 20
103.843
 30
0.0
 11
99.8195
 21
103.795
 31
0.0
  0
LINE
  8
0
 62
     0
 10
99.8195
 20
103.795
 30
0.0
 11
100.098
 21
103.653
 31
0.0
  0
LINE
  8
0
 62
     0
 10
100.098
 20
103.653
 30
0.0
 11
100.32
 21
103.431
 31
0.0
  0
LINE
  8
0
 62
     0
 10
100.32
 20
103.431
 30
0.0
 11
100.462
 21
103.153
 31
0.0
  0
LINE
  8
0
 62
     0
 10
100.462
 20
103.153
 30
0.0
 11
100.511
 21
102.844
 31
0.0
  0
LINE
  8
0
 62
     0
 10
100.511
 20
102.844
 30
0.0
 11
100.462
 21
102.536
 31
0.0
  0
LINE
  8
0
 62
     0
 10
100.462
 20
102.536
 30
0.0
 11
100.32
 21
102.256
 31
0.0
  0
LINE
  8
0
 62
     0
 10
100.32
 20
102.256
 30
0.0
 11
100.098
 21
102.035
 31
0.0
  0
LINE
  8
0
 62
     0
 10
100.098
 20
102.035
 30
0.0
 11
99.8195
 21
101.894
 31
0.0
  0
LINE
  8
0
 62
     0
 10
99.8195
 20
101.894
 30
0.0
 11
99.5109
 21
101.844
 31
0.0
  0
LINE
  8
0
 62
     0
 10
99.5109
 20
101.844
 30
0.0
 11
99.2022
 21
101.894
 31
0.0
  0
LINE
  8
0
 62
     0
 10
99.2022
 20
101.894
 30
0.0
 11
98.9224
 21
102.035
 31
0.0
  0
LINE
  8
0
 62
     0
 10
98.9224
 20
102.035
 30
0.0
 11
98.7019
 21
102.256
 31
0.0
  0
LINE
  8
0
 62
     0
 10
98.7019
 20
102.256
 30
0.0
 11
98.5601
 21
102.536
 31
0.0
  0
LINE
  8
0
 62
     0
 10
98.5601
 20
102.536
 30
0.0
 11
98.5104
 21
102.844
 31
0.0
  0
LINE
  8
0
 62
     0
 10
98.5104
 20
102.844
 30
0.0
 11
98.5601
 21
103.153
 31
0.0
  0
LINE
  8
0
 62
     0
 10
98.5601
 20
103.153
 30
0.0
 11
98.7019
 21
103.431
 31
0.0
  0
LINE
  8
0
 62
     0
 10
98.7019
 20
103.431
 30
0.0
 11
98.9224
 21
103.653
 31
0.0
  0
LINE
  8
0
 62
     0
 10
98.9224
 20
103.653
 30
0.0
 11
99.2022
 21
103.795
 31
0.0
  0
LINE
  8
0
 62
     0
 10
99.2022
 20
103.795
 30
0.0
 11
99.5109
 21
103.843
 31
0.0
  0
LINE
  8
0
 62
     0
 10
196.427
 20
103.843
 30
0.0
 11
196.736
 21
103.795
 31
0.0
  0
LINE
  8
0
 62
     0
 10
196.736
 20
103.795
 30
0.0
 11
197.015
 21
103.653
 31
0.0
  0
LINE
  8
0
 62
     0
 10
197.015
 20
103.653
 30
0.0
 11
197.236
 21
103.431
 31
0.0
  0
LINE
  8
0
 62
     0
 10
197.236
 20
103.431
 30
0.0
 11
197.378
 21
103.153
 31
0.0
  0
LINE
  8
0
 62
     0
 10
197.378
 20
103.153
 30
0.0
 11
197.428
 21
102.844
 31
0.0
  0
LINE
  8
0
 62
     0
 10
197.428
 20
102.844
 30
0.0
 11
197.378
 21
102.536
 31
0.0
  0
LINE
  8
0
 62
     0
 10
197.378
 20
102.536
 30
0.0
 11
197.236
 21
102.256
 31
0.0
  0
LINE
  8
0
 62
     0
 10
197.236
 20
102.256
 30
0.0
 11
197.015
 21
102.035
 31
0.0
  0
LINE
  8
0
 62
     0
 10
197.015
 20
102.035
 30
0.0
 11
196.736
 21
101.894
 31
0.0
  0
LINE
  8
0
 62
     0
 10
196.736
 20
101.894
 30
0.0
 11
196.427
 21
101.844
 31
0.0
  0
LINE
  8
0
 62
     0
 10
196.427
 20
101.844
 30
0.0
 11
196.118
 21
101.894
 31
0.0
  0
LINE
  8
0
 62
     0
 10
196.118
 20
101.894
 30
0.0
 11
195.84
 21
102.035
 31
0.0
  0
LINE
  8
0
 62
     0
 10
195.84
 20
102.035
 30
0.0
 11
195.618
 21
102.256
 31
0.0
  0
LINE
  8
0
 62
     0
 10
195.618
 20
102.256
 30
0.0
 11
195.476
 21
102.536
 31
0.0
  0
LINE
  8
0
 62
     0
 10
195.476
 20
102.536
 30
0.0
 11
195.427
 21
102.844
 31
0.0
  0
LINE
  8
0
 62
     0
 10
195.427
 20
102.844
 30
0.0
 11
195.476
 21
103.153
 31
0.0
  0
LINE
  8
0
 62
     0
 10
195.476
 20
103.153
 30
0.0
 11
195.618
 21
103.431
 31
0.0
  0
LINE
  8
0
 62
     0
 10
195.618
 20
103.431
 30
0.0
 11
195.84
 21
103.653
 31
0.0
  0
LINE
  8
0
 62
     0
 10
195.84
 20
103.653
 30
0.0
 11
196.118
 21
103.795
 31
0.0
  0
LINE
  8
0
 62
     0
 10
196.118
 20
103.795
 30
0.0
 11
196.427
 21
103.843
 31
0.0
  0
LINE
  8
0
 62
     0
 10
293.344
 20
103.843
 30
0.0
 11
293.653
 21
103.795
 31
0.0
  0
LINE
  8
0
 62
     0
 10
293.653
 20
103.795
 30
0.0
 11
293.931
 21
103.653
 31
0.0
  0
LINE
  8
0
 62
     0
 10
293.931
 20
103.653
 30
0.0
 11
294.153
 21
103.431
 31
0.0
  0
LINE
  8
0
 62
     0
 10
294.153
 20
103.431
 30
0.0
 11
294.295
 21
103.153
 31
0.0
  0
LINE
  8
0
 62
     0
 10
294.295
 20
103.153
 30
0.0
 11
294.343
 21
102.844
 31
0.0
  0
LINE
  8
0
 62
     0
 10
294.343
 20
102.844
 30
0.0
 11
294.295
 21
102.536
 31
0.0
  0
LINE
  8
0
 62
     0
 10
294.295
 20
102.536
 30
0.0
 11
294.153
 21
102.256
 31
0.0
  0
LINE
  8
0
 62
     0
 10
294.153
 20
102.256
 30
0.0
 11
293.931
 21
102.035
 31
0.0
  0
LINE
  8
0
 62
     0
 10
293.931
 20
102.035
 30
0.0
 11
293.653
 21
101.894
 31
0.0
  0
LINE
  8
0
 62
     0
 10
293.653
 20
101.894
 30
0.0
 11
293.344
 21
101.844
 31
0.0
  0
LINE
  8
0
 62
     0
 10
293.344
 20
101.844
 30
0.0
 11
293.034
 21
101.894
 31
0.0
  0
LINE
  8
0
 62
     0
 10
293.034
 20
101.894
 30
0.0
 11
292.756
 21
102.035
 31
0.0
  0
LINE
  8
0
 62
     0
 10
292.756
 20
102.035
 30
0.0
 11
292.534
 21
102.256
 31
0.0
  0
LINE
  8
0
 62
     0
 10
292.534
 20
102.256
 30
0.0
 11
292.392
 21
102.536
 31
0.0
  0
LINE
  8
0
 62
     0
 10
292.392
 20
102.536
 30
0.0
 11
292.344
 21
102.844
 31
0.0
  0
LINE
  8
0
 62
     0
 10
292.344
 20
102.844
 30
0.0
 11
292.392
 21
103.153
 31
0.0
  0
LINE
  8
0
 62
     0
 10
292.392
 20
103.153
 30
0.0
 11
292.534
 21
103.431
 31
0.0
  0
LINE
  8
0
 62
     0
 10
292.534
 20
103.431
 30
0.0
 11
292.756
 21
103.653
 31
0.0
  0
LINE
  8
0
 62
     0
 10
292.756
 20
103.653
 30
0.0
 11
293.034
 21
103.795
 31
0.0
  0
LINE
  8
0
 62
     0
 10
293.034
 20
103.795
 30
0.0
 11
293.344
 21
103.843
 31
0.0
  0
LINE
  8
0
 62
     0
 10
293.344
 20
53.7185
 30
0.0
 11
293.653
 21
53.6706
 31
0.0
  0
LINE
  8
0
 62
     0
 10
293.653
 20
53.6706
 30
0.0
 11
293.931
 21
53.5284
 31
0.0
  0
LINE
  8
0
 62
     0
 10
293.931
 20
53.5284
 30
0.0
 11
294.153
 21
53.3065
 31
0.0
  0
LINE
  8
0
 62
     0
 10
294.153
 20
53.3065
 30
0.0
 11
294.295
 21
53.0281
 31
0.0
  0
LINE
  8
0
 62
     0
 10
294.295
 20
53.0281
 30
0.0
 11
294.343
 21
52.7195
 31
0.0
  0
LINE
  8
0
 62
     0
 10
294.343
 20
52.7195
 30
0.0
 11
294.295
 21
52.4097
 31
0.0
  0
LINE
  8
0
 62
     0
 10
294.295
 20
52.4097
 30
0.0
 11
294.153
 21
52.131
 31
0.0
  0
LINE
  8
0
 62
     0
 10
294.153
 20
52.131
 30
0.0
 11
293.931
 21
51.9105
 31
0.0
  0
LINE
  8
0
 62
     0
 10
293.931
 20
51.9105
 30
0.0
 11
293.653
 21
51.7687
 31
0.0
  0
LINE
  8
0
 62
     0
 10
293.653
 20
51.7687
 30
0.0
 11
293.344
 21
51.719
 31
0.0
  0
LINE
  8
0
 62
     0
 10
293.344
 20
51.719
 30
0.0
 11
293.034
 21
51.7687
 31
0.0
  0
LINE
  8
0
 62
     0
 10
293.034
 20
51.7687
 30
0.0
 11
292.756
 21
51.9105
 31
0.0
  0
LINE
  8
0
 62
     0
 10
292.756
 20
51.9105
 30
0.0
 11
292.534
 21
52.131
 31
0.0
  0
LINE
  8
0
 62
     0
 10
292.534
 20
52.131
 30
0.0
 11
292.392
 21
52.4097
 31
0.0
  0
LINE
  8
0
 62
     0
 10
292.392
 20
52.4097
 30
0.0
 11
292.344
 21
52.7195
 31
0.0
  0
LINE
  8
0
 62
     0
 10
292.344
 20
52.7195
 30
0.0
 11
292.392
 21
53.0281
 31
0.0
  0
LINE
  8
0
 62
     0
 10
292.392
 20
53.0281
 30
0.0
 11
292.534
 21
53.3065
 31
0.0
  0
LINE
  8
0
 62
     0
 10
292.534
 20
53.3065
 30
0.0
 11
292.756
 21
53.5284
 31
0.0
  0
LINE
  8
0
 62
     0
 10
292.756
 20
53.5284
 30
0.0
 11
293.034
 21
53.6706
 31
0.0
  0
LINE
  8
0
 62
     0
 10
293.034
 20
53.6706
 30
0.0
 11
293.344
 21
53.7185
 31
0.0
  0
LINE
  8
0
 62
     0
 10
293.344
 20
3.59392
 30
0.0
 11
293.653
 21
3.5457
 31
0.0
  0
LINE
  8
0
 62
     0
 10
293.653
 20
3.5457
 30
0.0
 11
293.931
 21
3.40376
 31
0.0
  0
LINE
  8
0
 62
     0
 10
293.931
 20
3.40376
 30
0.0
 11
294.153
 21
3.18189
 31
0.0
  0
LINE
  8
0
 62
     0
 10
294.153
 20
3.18189
 30
0.0
 11
294.295
 21
2.90353
 31
0.0
  0
LINE
  8
0
 62
     0
 10
294.295
 20
2.90353
 30
0.0
 11
294.343
 21
2.59347
 31
0.0
  0
LINE
  8
0
 62
     0
 10
294.343
 20
2.59347
 30
0.0
 11
294.295
 21
2.28479
 31
0.0
  0
LINE
  8
0
 62
     0
 10
294.295
 20
2.28479
 30
0.0
 11
294.153
 21
2.00642
 31
0.0
  0
LINE
  8
0
 62
     0
 10
294.153
 20
2.00642
 30
0.0
 11
293.931
 21
1.78456
 31
0.0
  0
LINE
  8
0
 62
     0
 10
293.931
 20
1.78456
 30
0.0
 11
293.653
 21
1.64262
 31
0.0
  0
LINE
  8
0
 62
     0
 10
293.653
 20
1.64262
 30
0.0
 11
293.344
 21
1.59439
 31
0.0
  0
LINE
  8
0
 62
     0
 10
293.344
 20
1.59439
 30
0.0
 11
293.034
 21
1.64262
 31
0.0
  0
LINE
  8
0
 62
     0
 10
293.034
 20
1.64262
 30
0.0
 11
292.756
 21
1.78456
 31
0.0
  0
LINE
  8
0
 62
     0
 10
292.756
 20
1.78456
 30
0.0
 11
292.534
 21
2.00642
 31
0.0
  0
LINE
  8
0
 62
     0
 10
292.534
 20
2.00642
 30
0.0
 11
292.392
 21
2.28479
 31
0.0
  0
LINE
  8
0
 62
     0
 10
292.392
 20
2.28479
 30
0.0
 11
292.344
 21
2.59347
 31
0.0
  0
LINE
  8
0
 62
     0
 10
292.344
 20
2.59347
 30
0.0
 11
292.392
 21
2.90353
 31
0.0
  0
LINE
  8
0
 62
     0
 10
292.392
 20
2.90353
 30
0.0
 11
292.534
 21
3.18189
 31
0.0
  0
LINE
  8
0
 62
     0
 10
292.534
 20
3.18189
 30
0.0
 11
292.756
 21
3.40376
 31
0.0
  0
LINE
  8
0
 62
     0
 10
292.756
 20
3.40376
 30
0.0
 11
293.034
 21
3.5457
 31
0.0
  0
LINE
  8
0
 62
     0
 10
293.034
 20
3.5457
 30
0.0
 11
293.344
 21
3.59392
 31
0.0
  0
LINE
  8
0
 62
     0
 10
196.427
 20
3.59392
 30
0.0
 11
196.736
 21
3.5457
 31
0.0
  0
LINE
  8
0
 62
     0
 10
196.736
 20
3.5457
 30
0.0
 11
197.015
 21
3.40376
 31
0.0
  0
LINE
  8
0
 62
     0
 10
197.015
 20
3.40376
 30
0.0
 11
197.236
 21
3.18189
 31
0.0
  0
LINE
  8
0
 62
     0
 10
197.236
 20
3.18189
 30
0.0
 11
197.378
 21
2.90353
 31
0.0
  0
LINE
  8
0
 62
     0
 10
197.378
 20
2.90353
 30
0.0
 11
197.428
 21
2.59347
 31
0.0
  0
LINE
  8
0
 62
     0
 10
197.428
 20
2.59347
 30
0.0
 11
197.378
 21
2.28479
 31
0.0
  0
LINE
  8
0
 62
     0
 10
197.378
 20
2.28479
 30
0.0
 11
197.236
 21
2.00642
 31
0.0
  0
LINE
  8
0
 62
     0
 10
197.236
 20
2.00642
 30
0.0
 11
197.015
 21
1.78456
 31
0.0
  0
LINE
  8
0
 62
     0
 10
197.015
 20
1.78456
 30
0.0
 11
196.736
 21
1.64262
 31
0.0
  0
LINE
  8
0
 62
     0
 10
196.736
 20
1.64262
 30
0.0
 11
196.427
 21
1.59439
 31
0.0
  0
LINE
  8
0
 62
     0
 10
196.427
 20
1.59439
 30
0.0
 11
196.118
 21
1.64262
 31
0.0
  0
LINE
  8
0
 62
     0
 10
196.118
 20
1.64262
 30
0.0
 11
195.84
 21
1.78456
 31
0.0
  0
LINE
  8
0
 62
     0
 10
195.84
 20
1.78456
 30
0.0
 11
195.618
 21
2.00642
 31
0.0
  0
LINE
  8
0
 62
     0
 10
195.618
 20
2.00642
 30
0.0
 11
195.476
 21
2.28479
 31
0.0
  0
LINE
  8
0
 62
     0
 10
195.476
 20
2.28479
 30
0.0
 11
195.427
 21
2.59347
 31
0.0
  0
LINE
  8
0
 62
     0
 10
195.427
 20
2.59347
 30
0.0
 11
195.476
 21
2.90353
 31
0.0
  0
LINE
  8
0
 62
     0
 10
195.476
 20
2.90353
 30
0.0
 11
195.618
 21
3.18189
 31
0.0
  0
LINE
  8
0
 62
     0
 10
195.618
 20
3.18189
 30
0.0
 11
195.84
 21
3.40376
 31
0.0
  0
LINE
  8
0
 62
     0
 10
195.84
 20
3.40376
 30
0.0
 11
196.118
 21
3.5457
 31
0.0
  0
LINE
  8
0
 62
     0
 10
196.118
 20
3.5457
 30
0.0
 11
196.427
 21
3.59392
 31
0.0
  0
LINE
  8
0
 62
     0
 10
99.5109
 20
3.59392
 30
0.0
 11
99.8195
 21
3.5457
 31
0.0
  0
LINE
  8
0
 62
     0
 10
99.8195
 20
3.5457
 30
0.0
 11
100.098
 21
3.40376
 31
0.0
  0
LINE
  8
0
 62
     0
 10
100.098
 20
3.40376
 30
0.0
 11
100.32
 21
3.18189
 31
0.0
  0
LINE
  8
0
 62
     0
 10
100.32
 20
3.18189
 30
0.0
 11
100.462
 21
2.90353
 31
0.0
  0
LINE
  8
0
 62
     0
 10
100.462
 20
2.90353
 30
0.0
 11
100.511
 21
2.59347
 31
0.0
  0
LINE
  8
0
 62
     0
 10
100.511
 20
2.59347
 30
0.0
 11
100.462
 21
2.28479
 31
0.0
  0
LINE
  8
0
 62
     0
 10
100.462
 20
2.28479
 30
0.0
 11
100.32
 21
2.00642
 31
0.0
  0
LINE
  8
0
 62
     0
 10
100.32
 20
2.00642
 30
0.0
 11
100.098
 21
1.78456
 31
0.0
  0
LINE
  8
0
 62
     0
 10
100.098
 20
1.78456
 30
0.0
 11
99.8195
 21
1.64262
 31
0.0
  0
LINE
  8
0
 62
     0
 10
99.8195
 20
1.64262
 30
0.0
 11
99.5109
 21
1.59439
 31
0.0
  0
LINE
  8
0
 62
     0
 10
99.5109
 20
1.59439
 30
0.0
 11
99.2022
 21
1.64262
 31
0.0
  0
LINE
  8
0
 62
     0
 10
99.2022
 20
1.64262
 30
0.0
 11
98.9224
 21
1.78456
 31
0.0
  0
LINE
  8
0
 62
     0
 10
98.9224
 20
1.78456
 30
0.0
 11
98.7019
 21
2.00642
 31
0.0
  0
LINE
  8
0
 62
     0
 10
98.7019
 20
2.00642
 30
0.0
 11
98.5601
 21
2.28479
 31
0.0
  0
LINE
  8
0
 62
     0
 10
98.5601
 20
2.28479
 30
0.0
 11
98.5104
 21
2.59347
 31
0.0
  0
LINE
  8
0
 62
     0
 10
98.5104
 20
2.59347
 30
0.0
 11
98.5601
 21
2.90353
 31
0.0
  0
LINE
  8
0
 62
     0
 10
98.5601
 20
2.90353
 30
0.0
 11
98.7019
 21
3.18189
 31
0.0
  0
LINE
  8
0
 62
     0
 10
98.7019
 20
3.18189
 30
0.0
 11
98.9224
 21
3.40376
 31
0.0
  0
LINE
  8
0
 62
     0
 10
98.9224
 20
3.40376
 30
0.0
 11
99.2022
 21
3.5457
 31
0.0
  0
LINE
  8
0
 62
     0
 10
99.2022
 20
3.5457
 30
0.0
 11
99.5109
 21
3.59392
 31
0.0
  0
LINE
  8
0
 62
     0
 10
2.59347
 20
3.59392
 30
0.0
 11
2.90215
 21
3.5457
 31
0.0
  0
LINE
  8
0
 62
     0
 10
2.90215
 20
3.5457
 30
0.0
 11
3.18189
 21
3.40376
 31
0.0
  0
LINE
  8
0
 62
     0
 10
3.18189
 20
3.40376
 30
0.0
 11
3.40238
 21
3.18189
 31
0.0
  0
LINE
  8
0
 62
     0
 10
3.40238
 20
3.18189
 30
0.0
 11
3.54432
 21
2.90353
 31
0.0
  0
LINE
  8
0
 62
     0
 10
3.54432
 20
2.90353
 30
0.0
 11
3.59392
 21
2.59347
 31
0.0
  0
LINE
  8
0
 62
     0
 10
3.59392
 20
2.59347
 30
0.0
 11
3.54432
 21
2.28479
 31
0.0
  0
LINE
  8
0
 62
     0
 10
3.54432
 20
2.28479
 30
0.0
 11
3.40238
 21
2.00642
 31
0.0
  0
LINE
  8
0
 62
     0
 10
3.40238
 20
2.00642
 30
0.0
 11
3.18189
 21
1.78456
 31
0.0
  0
LINE
  8
0
 62
     0
 10
3.18189
 20
1.78456
 30
0.0
 11
2.90215
 21
1.64262
 31
0.0
  0
LINE
  8
0
 62
     0
 10
2.90215
 20
1.64262
 30
0.0
 11
2.59347
 21
1.59439
 31
0.0
  0
LINE
  8
0
 62
     0
 10
2.59347
 20
1.59439
 30
0.0
 11
2.28479
 21
1.64262
 31
0.0
  0
LINE
  8
0
 62
     0
 10
2.28479
 20
1.64262
 30
0.0
 11
2.00642
 21
1.78456
 31
0.0
  0
LINE
  8
0
 62
     0
 10
2.00642
 20
1.78456
 30
0.0
 11
1.78456
 21
2.00642
 31
0.0
  0
LINE
  8
0
 62
     0
 10
1.78456
 20
2.00642
 30
0.0
 11
1.64262
 21
2.28479
 31
0.0
  0
LINE
  8
0
 62
     0
 10
1.64262
 20
2.28479
 30
0.0
 11
1.59439
 21
2.59347
 31
0.0
  0
LINE
  8
0
 62
     0
 10
1.59439
 20
2.59347
 30
0.0
 11
1.64262
 21
2.90353
 31
0.0
  0
LINE
  8
0
 62
     0
 10
1.64262
 20
2.90353
 30
0.0
 11
1.78456
 21
3.18189
 31
0.0
  0
LINE
  8
0
 62
     0
 10
1.78456
 20
3.18189
 30
0.0
 11
2.00642
 21
3.40376
 31
0.0
  0
LINE
  8
0
 62
     0
 10
2.00642
 20
3.40376
 30
0.0
 11
2.28479
 21
3.5457
 31
0.0
  0
LINE
  8
0
 62
     0
 10
2.28479
 20
3.5457
 30
0.0
 11
2.59347
 21
3.59392
 31
0.0
  0
LINE
  8
0
 62
     0
 10
2.59347
 20
53.7185
 30
0.0
 11
2.90215
 21
53.6706
 31
0.0
  0
LINE
  8
0
 62
     0
 10
2.90215
 20
53.6706
 30
0.0
 11
3.18189
 21
53.5284
 31
0.0
  0
LINE
  8
0
 62
     0
 10
3.18189
 20
53.5284
 30
0.0
 11
3.40238
 21
53.3065
 31
0.0
  0
LINE
  8
0
 62
     0
 10
3.40238
 20
53.3065
 30
0.0
 11
3.54432
 21
53.0281
 31
0.0
  0
LINE
  8
0
 62
     0
 10
3.54432
 20
53.0281
 30
0.0
 11
3.59392
 21
52.7195
 31
0.0
  0
LINE
  8
0
 62
     0
 10
3.59392
 20
52.7195
 30
0.0
 11
3.54432
 21
52.4097
 31
0.0
  0
LINE
  8
0
 62
     0
 10
3.54432
 20
52.4097
 30
0.0
 11
3.40238
 21
52.131
 31
0.0
  0
LINE
  8
0
 62
     0
 10
3.40238
 20
52.131
 30
0.0
 11
3.18189
 21
51.9105
 31
0.0
  0
LINE
  8
0
 62
     0
 10
3.18189
 20
51.9105
 30
0.0
 11
2.90215
 21
51.7687
 31
0.0
  0
LINE
  8
0
 62
     0
 10
2.90215
 20
51.7687
 30
0.0
 11
2.59347
 21
51.719
 31
0.0
  0
LINE
  8
0
 62
     0
 10
2.59347
 20
51.719
 30
0.0
 11
2.28479
 21
51.7687
 31
0.0
  0
LINE
  8
0
 62
     0
 10
2.28479
 20
51.7687
 30
0.0
 11
2.00642
 21
51.9105
 31
0.0
  0
LINE
  8
0
 62
     0
 10
2.00642
 20
51.9105
 30
0.0
 11
1.78456
 21
52.131
 31
0.0
  0
LINE
  8
0
 62
     0
 10
1.78456
 20
52.131
 30
0.0
 11
1.64262
 21
52.4097
 31
0.0
  0
LINE
  8
0
 62
     0
 10
1.64262
 20
52.4097
 30
0.0
 11
1.59439
 21
52.7195
 31
0.0
  0
LINE
  8
0
 62
     0
 10
1.59439
 20
52.7195
 30
0.0
 11
1.64262
 21
53.0281
 31
0.0
  0
LINE
  8
0
 62
     0
 10
1.64262
 20
53.0281
 30
0.0
 11
1.78456
 21
53.3065
 31
0.0
  0
LINE
  8
0
 62
     0
 10
1.78456
 20
53.3065
 30
0.0
 11
2.00642
 21
53.5284
 31
0.0
  0
LINE
  8
0
 62
     0
 10
2.00642
 20
53.5284
 30
0.0
 11
2.28479
 21
53.6706
 31
0.0
  0
LINE
  8
0
 62
     0
 10
2.28479
 20
53.6706
 30
0.0
 11
2.59347
 21
53.7185
 31
0.0
  0
LINE
  8
0
 62
     0
 10
2.59347
 20
103.843
 30
0.0
 11
2.90215
 21
103.795
 31
0.0
  0
LINE
  8
0
 62
     0
 10
2.90215
 20
103.795
 30
0.0
 11
3.18189
 21
103.653
 31
0.0
  0
LINE
  8
0
 62
     0
 10
3.18189
 20
103.653
 30
0.0
 11
3.40238
 21
103.431
 31
0.0
  0
LINE
  8
0
 62
     0
 10
3.40238
 20
103.431
 30
0.0
 11
3.54432
 21
103.153
 31
0.0
  0
LINE
  8
0
 62
     0
 10
3.54432
 20
103.153
 30
0.0
 11
3.59392
 21
102.844
 31
0.0
  0
LINE
  8
0
 62
     0
 10
3.59392
 20
102.844
 30
0.0
 11
3.54432
 21
102.536
 31
0.0
  0
LINE
  8
0
 62
     0
 10
3.54432
 20
102.536
 30
0.0
 11
3.40238
 21
102.256
 31
0.0
  0
LINE
  8
0
 62
     0
 10
3.40238
 20
102.256
 30
0.0
 11
3.18189
 21
102.035
 31
0.0
  0
LINE
  8
0
 62
     0
 10
3.18189
 20
102.035
 30
0.0
 11
2.90215
 21
101.894
 31
0.0
  0
LINE
  8
0
 62
     0
 10
2.90215
 20
101.894
 30
0.0
 11
2.59347
 21
101.844
 31
0.0
  0
LINE
  8
0
 62
     0
 10
2.59347
 20
101.844
 30
0.0
 11
2.28479
 21
101.894
 31
0.0
  0
LINE
  8
0
 62
     0
 10
2.28479
 20
101.894
 30
0.0
 11
2.00642
 21
102.035
 31
0.0
  0
LINE
  8
0
 62
     0
 10
2.00642
 20
102.035
 30
0.0
 11
1.78456
 21
102.256
 31
0.0
  0
LINE
  8
0
 62
     0
 10
1.78456
 20
102.256
 30
0.0
 11
1.64262
 21
102.536
 31
0.0
  0
LINE
  8
0
 62
     0
 10
1.64262
 20
102.536
 30
0.0
 11
1.59439
 21
102.844
 31
0.0
  0
LINE
  8
0
 62
     0
 10
1.59439
 20
102.844
 30
0.0
 11
1.64262
 21
103.153
 31
0.0
  0
LINE
  8
0
 62
     0
 10
1.64262
 20
103.153
 30
0.0
 11
1.78456
 21
103.431
 31
0.0
  0
LINE
  8
0
 62
     0
 10
1.78456
 20
103.431
 30
0.0
 11
2.00642
 21
103.653
 31
0.0
  0
LINE
  8
0
 62
     0
 10
2.00642
 20
103.653
 30
0.0
 11
2.28479
 21
103.795
 31
0.0
  0
LINE
  8
0
 62
     0
 10
2.28479
 20
103.795
 30
0.0
 11
2.59347
 21
103.843
 31
0.0
  0
LINE
  8
0
 62
     0
 10
21.6187
 20
84.8198
 30
0.0
 11
21.6187
 21
83.8193
 31
0.0
  0
LINE
  8
0
 62
     0
 10
21.6187
 20
83.8193
 30
0.0
 11
7.61919
 21
83.8193
 31
0.0
  0
LINE
  8
0
 62
     0
 10
7.61919
 20
83.8193
 30
0.0
 11
7.61919
 21
84.8198
 31
0.0
  0
LINE
  8
0
 62
     0
 10
7.61919
 20
84.8198
 30
0.0
 11
6.81852
 21
84.8198
 31
0.0
  0
LINE
  8
0
 62
     0
 10
6.81852
 20
84.8198
 30
0.0
 11
6.81852
 21
87.9189
 31
0.0
  0
LINE
  8
0
 62
     0
 10
6.81852
 20
87.9189
 30
0.0
 11
7.61919
 21
87.9189
 31
0.0
  0
LINE
  8
0
 62
     0
 10
7.61919
 20
87.9189
 30
0.0
 11
7.61919
 21
93.7189
 31
0.0
  0
LINE
  8
0
 62
     0
 10
7.61919
 20
93.7189
 30
0.0
 11
6.81852
 21
93.7189
 31
0.0
  0
LINE
  8
0
 62
     0
 10
6.81852
 20
93.7189
 30
0.0
 11
6.81852
 21
96.8195
 31
0.0
  0
LINE
  8
0
 62
     0
 10
6.81852
 20
96.8195
 30
0.0
 11
7.61919
 21
96.8195
 31
0.0
  0
LINE
  8
0
 62
     0
 10
7.61919
 20
96.8195
 30
0.0
 11
7.61919
 21
97.8186
 31
0.0
  0
LINE
  8
0
 62
     0
 10
7.61919
 20
97.8186
 30
0.0
 11
21.6187
 21
97.8186
 31
0.0
  0
LINE
  8
0
 62
     0
 10
21.6187
 20
97.8186
 30
0.0
 11
21.6187
 21
96.8195
 31
0.0
  0
LINE
  8
0
 62
     0
 10
21.6187
 20
96.8195
 30
0.0
 11
22.4193
 21
96.8195
 31
0.0
  0
LINE
  8
0
 62
     0
 10
22.4193
 20
96.8195
 30
0.0
 11
22.4193
 21
93.7189
 31
0.0
  0
LINE
  8
0
 62
     0
 10
22.4193
 20
93.7189
 30
0.0
 11
21.6187
 21
93.7189
 31
0.0
  0
LINE
  8
0
 62
     0
 10
21.6187
 20
93.7189
 30
0.0
 11
21.6187
 21
87.9189
 31
0.0
  0
LINE
  8
0
 62
     0
 10
21.6187
 20
87.9189
 30
0.0
 11
22.4193
 21
87.9189
 31
0.0
  0
LINE
  8
0
 62
     0
 10
22.4193
 20
87.9189
 30
0.0
 11
22.4193
 21
84.8198
 31
0.0
  0
LINE
  8
0
 62
     0
 10
22.4193
 20
84.8198
 30
0.0
 11
21.6187
 21
84.8198
 31
0.0
  0
LINE
  8
0
 62
     0
 10
23.9999
 20
8.61963
 30
0.0
 11
23.9999
 21
7.61919
 31
0.0
  0
LINE
  8
0
 62
     0
 10
23.9999
 20
7.61919
 30
0.0
 11
10.0004
 21
7.61919
 31
0.0
  0
LINE
  8
0
 62
     0
 10
10.0004
 20
7.61919
 30
0.0
 11
10.0004
 21
8.61963
 31
0.0
  0
LINE
  8
0
 62
     0
 10
10.0004
 20
8.61963
 30
0.0
 11
9.19977
 21
8.61963
 31
0.0
  0
LINE
  8
0
 62
     0
 10
9.19977
 20
8.61963
 30
0.0
 11
9.19977
 21
11.7189
 31
0.0
  0
LINE
  8
0
 62
     0
 10
9.19977
 20
11.7189
 30
0.0
 11
10.0004
 21
11.7189
 31
0.0
  0
LINE
  8
0
 62
     0
 10
10.0004
 20
11.7189
 30
0.0
 11
10.0004
 21
17.519
 31
0.0
  0
LINE
  8
0
 62
     0
 10
10.0004
 20
17.519
 30
0.0
 11
9.19977
 21
17.519
 31
0.0
  0
LINE
  8
0
 62
     0
 10
9.19977
 20
17.519
 30
0.0
 11
9.19977
 21
20.6196
 31
0.0
  0
LINE
  8
0
 62
     0
 10
9.19977
 20
20.6196
 30
0.0
 11
10.0004
 21
20.6196
 31
0.0
  0
LINE
  8
0
 62
     0
 10
10.0004
 20
20.6196
 30
0.0
 11
10.0004
 21
21.6187
 31
0.0
  0
LINE
  8
0
 62
     0
 10
10.0004
 20
21.6187
 30
0.0
 11
23.9999
 21
21.6187
 31
0.0
  0
LINE
  8
0
 62
     0
 10
23.9999
 20
21.6187
 30
0.0
 11
23.9999
 21
20.6196
 31
0.0
  0
LINE
  8
0
 62
     0
 10
23.9999
 20
20.6196
 30
0.0
 11
24.7992
 21
20.6196
 31
0.0
  0
LINE
  8
0
 62
     0
 10
24.7992
 20
20.6196
 30
0.0
 11
24.7992
 21
17.519
 31
0.0
  0
LINE
  8
0
 62
     0
 10
24.7992
 20
17.519
 30
0.0
 11
23.9999
 21
17.519
 31
0.0
  0
LINE
  8
0
 62
     0
 10
23.9999
 20
17.519
 30
0.0
 11
23.9999
 21
11.7189
 31
0.0
  0
LINE
  8
0
 62
     0
 10
23.9999
 20
11.7189
 30
0.0
 11
24.7992
 21
11.7189
 31
0.0
  0
LINE
  8
0
 62
     0
 10
24.7992
 20
11.7189
 30
0.0
 11
24.7992
 21
8.61963
 31
0.0
  0
LINE
  8
0
 62
     0
 10
24.7992
 20
8.61963
 30
0.0
 11
23.9999
 21
8.61963
 31
0.0
  0
LINE
  8
0
 62
     0
 10
26.3812
 20
65.7698
 30
0.0
 11
26.3812
 21
64.7693
 31
0.0
  0
LINE
  8
0
 62
     0
 10
26.3812
 20
64.7693
 30
0.0
 11
12.3817
 21
64.7693
 31
0.0
  0
LINE
  8
0
 62
     0
 10
12.3817
 20
64.7693
 30
0.0
 11
12.3817
 21
65.7698
 31
0.0
  0
LINE
  8
0
 62
     0
 10
12.3817
 20
65.7698
 30
0.0
 11
11.5824
 21
65.7698
 31
0.0
  0
LINE
  8
0
 62
     0
 10
11.5824
 20
65.7698
 30
0.0
 11
11.5824
 21
68.8689
 31
0.0
  0
LINE
  8
0
 62
     0
 10
11.5824
 20
68.8689
 30
0.0
 11
12.3817
 21
68.8689
 31
0.0
  0
LINE
  8
0
 62
     0
 10
12.3817
 20
68.8689
 30
0.0
 11
12.3817
 21
74.6689
 31
0.0
  0
LINE
  8
0
 62
     0
 10
12.3817
 20
74.6689
 30
0.0
 11
11.5824
 21
74.6689
 31
0.0
  0
LINE
  8
0
 62
     0
 10
11.5824
 20
74.6689
 30
0.0
 11
11.5824
 21
77.7695
 31
0.0
  0
LINE
  8
0
 62
     0
 10
11.5824
 20
77.7695
 30
0.0
 11
12.3817
 21
77.7695
 31
0.0
  0
LINE
  8
0
 62
     0
 10
12.3817
 20
77.7695
 30
0.0
 11
12.3817
 21
78.7686
 31
0.0
  0
LINE
  8
0
 62
     0
 10
12.3817
 20
78.7686
 30
0.0
 11
26.3812
 21
78.7686
 31
0.0
  0
LINE
  8
0
 62
     0
 10
26.3812
 20
78.7686
 30
0.0
 11
26.3812
 21
77.7695
 31
0.0
  0
LINE
  8
0
 62
     0
 10
26.3812
 20
77.7695
 30
0.0
 11
27.1804
 21
77.7695
 31
0.0
  0
LINE
  8
0
 62
     0
 10
27.1804
 20
77.7695
 30
0.0
 11
27.1804
 21
74.6689
 31
0.0
  0
LINE
  8
0
 62
     0
 10
27.1804
 20
74.6689
 30
0.0
 11
26.3812
 21
74.6689
 31
0.0
  0
LINE
  8
0
 62
     0
 10
26.3812
 20
74.6689
 30
0.0
 11
26.3812
 21
68.8689
 31
0.0
  0
LINE
  8
0
 62
     0
 10
26.3812
 20
68.8689
 30
0.0
 11
27.1804
 21
68.8689
 31
0.0
  0
LINE
  8
0
 62
     0
 10
27.1804
 20
68.8689
 30
0.0
 11
27.1804
 21
65.7698
 31
0.0
  0
LINE
  8
0
 62
     0
 10
27.1804
 20
65.7698
 30
0.0
 11
26.3812
 21
65.7698
 31
0.0
  0
LINE
  8
0
 62
     0
 10
28.7624
 20
46.7198
 30
0.0
 11
28.7624
 21
45.7193
 31
0.0
  0
LINE
  8
0
 62
     0
 10
28.7624
 20
45.7193
 30
0.0
 11
14.7629
 21
45.7193
 31
0.0
  0
LINE
  8
0
 62
     0
 10
14.7629
 20
45.7193
 30
0.0
 11
14.7629
 21
46.7198
 31
0.0
  0
LINE
  8
0
 62
     0
 10
14.7629
 20
46.7198
 30
0.0
 11
13.9623
 21
46.7198
 31
0.0
  0
LINE
  8
0
 62
     0
 10
13.9623
 20
46.7198
 30
0.0
 11
13.9623
 21
49.8189
 31
0.0
  0
LINE
  8
0
 62
     0
 10
13.9623
 20
49.8189
 30
0.0
 11
14.7629
 21
49.8189
 31
0.0
  0
LINE
  8
0
 62
     0
 10
14.7629
 20
49.8189
 30
0.0
 11
14.7629
 21
55.6189
 31
0.0
  0
LINE
  8
0
 62
     0
 10
14.7629
 20
55.6189
 30
0.0
 11
13.9623
 21
55.6189
 31
0.0
  0
LINE
  8
0
 62
     0
 10
13.9623
 20
55.6189
 30
0.0
 11
13.9623
 21
58.7195
 31
0.0
  0
LINE
  8
0
 62
     0
 10
13.9623
 20
58.7195
 30
0.0
 11
14.7629
 21
58.7195
 31
0.0
  0
LINE
  8
0
 62
     0
 10
14.7629
 20
58.7195
 30
0.0
 11
14.7629
 21
59.7186
 31
0.0
  0
LINE
  8
0
 62
     0
 10
14.7629
 20
59.7186
 30
0.0
 11
28.7624
 21
59.7186
 31
0.0
  0
LINE
  8
0
 62
     0
 10
28.7624
 20
59.7186
 30
0.0
 11
28.7624
 21
58.7195
 31
0.0
  0
LINE
  8
0
 62
     0
 10
28.7624
 20
58.7195
 30
0.0
 11
29.5631
 21
58.7195
 31
0.0
  0
LINE
  8
0
 62
     0
 10
29.5631
 20
58.7195
 30
0.0
 11
29.5631
 21
55.6189
 31
0.0
  0
LINE
  8
0
 62
     0
 10
29.5631
 20
55.6189
 30
0.0
 11
28.7624
 21
55.6189
 31
0.0
  0
LINE
  8
0
 62
     0
 10
28.7624
 20
55.6189
 30
0.0
 11
28.7624
 21
49.8189
 31
0.0
  0
LINE
  8
0
 62
     0
 10
28.7624
 20
49.8189
 30
0.0
 11
29.5631
 21
49.8189
 31
0.0
  0
LINE
  8
0
 62
     0
 10
29.5631
 20
49.8189
 30
0.0
 11
29.5631
 21
46.7198
 31
0.0
  0
LINE
  8
0
 62
     0
 10
29.5631
 20
46.7198
 30
0.0
 11
28.7624
 21
46.7198
 31
0.0
  0
LINE
  8
0
 62
     0
 10
40.6686
 20
84.8198
 30
0.0
 11
40.6686
 21
83.8193
 31
0.0
  0
LINE
  8
0
 62
     0
 10
40.6686
 20
83.8193
 30
0.0
 11
26.6692
 21
83.8193
 31
0.0
  0
LINE
  8
0
 62
     0
 10
26.6692
 20
83.8193
 30
0.0
 11
26.6692
 21
84.8198
 31
0.0
  0
LINE
  8
0
 62
     0
 10
26.6692
 20
84.8198
 30
0.0
 11
25.8685
 21
84.8198
 31
0.0
  0
LINE
  8
0
 62
     0
 10
25.8685
 20
84.8198
 30
0.0
 11
25.8685
 21
87.9189
 31
0.0
  0
LINE
  8
0
 62
     0
 10
25.8685
 20
87.9189
 30
0.0
 11
26.6692
 21
87.9189
 31
0.0
  0
LINE
  8
0
 62
     0
 10
26.6692
 20
87.9189
 30
0.0
 11
26.6692
 21
93.7189
 31
0.0
  0
LINE
  8
0
 62
     0
 10
26.6692
 20
93.7189
 30
0.0
 11
25.8685
 21
93.7189
 31
0.0
  0
LINE
  8
0
 62
     0
 10
25.8685
 20
93.7189
 30
0.0
 11
25.8685
 21
96.8195
 31
0.0
  0
LINE
  8
0
 62
     0
 10
25.8685
 20
96.8195
 30
0.0
 11
26.6692
 21
96.8195
 31
0.0
  0
LINE
  8
0
 62
     0
 10
26.6692
 20
96.8195
 30
0.0
 11
26.6692
 21
97.8186
 31
0.0
  0
LINE
  8
0
 62
     0
 10
26.6692
 20
97.8186
 30
0.0
 11
40.6686
 21
97.8186
 31
0.0
  0
LINE
  8
0
 62
     0
 10
40.6686
 20
97.8186
 30
0.0
 11
40.6686
 21
96.8195
 31
0.0
  0
LINE
  8
0
 62
     0
 10
40.6686
 20
96.8195
 30
0.0
 11
41.4694
 21
96.8195
 31
0.0
  0
LINE
  8
0
 62
     0
 10
41.4694
 20
96.8195
 30
0.0
 11
41.4694
 21
93.7189
 31
0.0
  0
LINE
  8
0
 62
     0
 10
41.4694
 20
93.7189
 30
0.0
 11
40.6686
 21
93.7189
 31
0.0
  0
LINE
  8
0
 62
     0
 10
40.6686
 20
93.7189
 30
0.0
 11
40.6686
 21
87.9189
 31
0.0
  0
LINE
  8
0
 62
     0
 10
40.6686
 20
87.9189
 30
0.0
 11
41.4694
 21
87.9189
 31
0.0
  0
LINE
  8
0
 62
     0
 10
41.4694
 20
87.9189
 30
0.0
 11
41.4694
 21
84.8198
 31
0.0
  0
LINE
  8
0
 62
     0
 10
41.4694
 20
84.8198
 30
0.0
 11
40.6686
 21
84.8198
 31
0.0
  0
LINE
  8
0
 62
     0
 10
41.7505
 20
33.1694
 30
0.0
 11
41.7505
 21
26.8993
 31
0.0
  0
LINE
  8
0
 62
     0
 10
41.7505
 20
26.8993
 30
0.0
 11
40.1242
 21
26.8993
 31
0.0
  0
LINE
  8
0
 62
     0
 10
40.1242
 20
26.8993
 30
0.0
 11
40.1242
 21
25.6991
 31
0.0
  0
LINE
  8
0
 62
     0
 10
40.1242
 20
25.6991
 30
0.0
 11
36.8254
 21
25.6991
 31
0.0
  0
LINE
  8
0
 62
     0
 10
36.8254
 20
25.6991
 30
0.0
 11
36.8254
 21
26.8993
 31
0.0
  0
LINE
  8
0
 62
     0
 10
36.8254
 20
26.8993
 30
0.0
 11
35.1
 21
26.8993
 31
0.0
  0
LINE
  8
0
 62
     0
 10
35.1
 20
26.8993
 30
0.0
 11
35.1
 21
27.6986
 31
0.0
  0
LINE
  8
0
 62
     0
 10
35.1
 20
27.6986
 30
0.0
 11
34.3242
 21
27.6986
 31
0.0
  0
LINE
  8
0
 62
     0
 10
34.3242
 20
27.6986
 30
0.0
 11
34.3242
 21
27.6696
 31
0.0
  0
LINE
  8
0
 62
     0
 10
34.3242
 20
27.6696
 30
0.0
 11
33.5249
 21
27.6696
 31
0.0
  0
LINE
  8
0
 62
     0
 10
33.5249
 20
27.6696
 30
0.0
 11
33.5249
 21
26.6692
 31
0.0
  0
LINE
  8
0
 62
     0
 10
33.5249
 20
26.6692
 30
0.0
 11
19.5254
 21
26.6692
 31
0.0
  0
LINE
  8
0
 62
     0
 10
19.5254
 20
26.6692
 30
0.0
 11
19.5254
 21
27.6696
 31
0.0
  0
LINE
  8
0
 62
     0
 10
19.5254
 20
27.6696
 30
0.0
 11
18.7248
 21
27.6696
 31
0.0
  0
LINE
  8
0
 62
     0
 10
18.7248
 20
27.6696
 30
0.0
 11
18.7248
 21
27.6986
 31
0.0
  0
LINE
  8
0
 62
     0
 10
18.7248
 20
27.6986
 30
0.0
 11
17.9503
 21
27.6986
 31
0.0
  0
LINE
  8
0
 62
     0
 10
17.9503
 20
27.6986
 30
0.0
 11
17.9503
 21
26.8993
 31
0.0
  0
LINE
  8
0
 62
     0
 10
17.9503
 20
26.8993
 30
0.0
 11
16.225
 21
26.8993
 31
0.0
  0
LINE
  8
0
 62
     0
 10
16.225
 20
26.8993
 30
0.0
 11
16.225
 21
25.6991
 31
0.0
  0
LINE
  8
0
 62
     0
 10
16.225
 20
25.6991
 30
0.0
 11
12.9246
 21
25.6991
 31
0.0
  0
LINE
  8
0
 62
     0
 10
12.9246
 20
25.6991
 30
0.0
 11
12.9246
 21
26.8993
 31
0.0
  0
LINE
  8
0
 62
     0
 10
12.9246
 20
26.8993
 30
0.0
 11
11.2999
 21
26.8993
 31
0.0
  0
LINE
  8
0
 62
     0
 10
11.2999
 20
26.8993
 30
0.0
 11
11.2999
 21
33.1694
 31
0.0
  0
LINE
  8
0
 62
     0
 10
11.2999
 20
33.1694
 30
0.0
 11
10.4249
 21
33.1694
 31
0.0
  0
LINE
  8
0
 62
     0
 10
10.4249
 20
33.1694
 30
0.0
 11
10.4249
 21
35.9696
 31
0.0
  0
LINE
  8
0
 62
     0
 10
10.4249
 20
35.9696
 30
0.0
 11
11.2999
 21
35.9696
 31
0.0
  0
LINE
  8
0
 62
     0
 10
11.2999
 20
35.9696
 30
0.0
 11
11.2999
 21
39.1996
 31
0.0
  0
LINE
  8
0
 62
     0
 10
11.2999
 20
39.1996
 30
0.0
 11
17.9503
 21
39.1996
 31
0.0
  0
LINE
  8
0
 62
     0
 10
17.9503
 20
39.1996
 30
0.0
 11
17.9503
 21
38.3992
 31
0.0
  0
LINE
  8
0
 62
     0
 10
17.9503
 20
38.3992
 30
0.0
 11
18.7248
 21
38.3992
 31
0.0
  0
LINE
  8
0
 62
     0
 10
18.7248
 20
38.3992
 30
0.0
 11
18.7248
 21
39.6695
 31
0.0
  0
LINE
  8
0
 62
     0
 10
18.7248
 20
39.6695
 30
0.0
 11
19.5254
 21
39.6695
 31
0.0
  0
LINE
  8
0
 62
     0
 10
19.5254
 20
39.6695
 30
0.0
 11
19.5254
 21
40.6686
 31
0.0
  0
LINE
  8
0
 62
     0
 10
19.5254
 20
40.6686
 30
0.0
 11
33.5249
 21
40.6686
 31
0.0
  0
LINE
  8
0
 62
     0
 10
33.5249
 20
40.6686
 30
0.0
 11
33.5249
 21
39.6695
 31
0.0
  0
LINE
  8
0
 62
     0
 10
33.5249
 20
39.6695
 30
0.0
 11
34.3242
 21
39.6695
 31
0.0
  0
LINE
  8
0
 62
     0
 10
34.3242
 20
39.6695
 30
0.0
 11
34.3242
 21
38.3992
 31
0.0
  0
LINE
  8
0
 62
     0
 10
34.3242
 20
38.3992
 30
0.0
 11
35.1
 21
38.3992
 31
0.0
  0
LINE
  8
0
 62
     0
 10
35.1
 20
38.3992
 30
0.0
 11
35.1
 21
39.1996
 31
0.0
  0
LINE
  8
0
 62
     0
 10
35.1
 20
39.1996
 30
0.0
 11
41.7505
 21
39.1996
 31
0.0
  0
LINE
  8
0
 62
     0
 10
41.7505
 20
39.1996
 30
0.0
 11
41.7505
 21
35.9696
 31
0.0
  0
LINE
  8
0
 62
     0
 10
41.7505
 20
35.9696
 30
0.0
 11
42.624
 21
35.9696
 31
0.0
  0
LINE
  8
0
 62
     0
 10
42.624
 20
35.9696
 30
0.0
 11
42.624
 21
33.1694
 31
0.0
  0
LINE
  8
0
 62
     0
 10
42.624
 20
33.1694
 30
0.0
 11
41.7505
 21
33.1694
 31
0.0
  0
LINE
  8
0
 62
     0
 10
47.8123
 20
8.61963
 30
0.0
 11
47.8123
 21
7.61919
 31
0.0
  0
LINE
  8
0
 62
     0
 10
47.8123
 20
7.61919
 30
0.0
 11
33.8129
 21
7.61919
 31
0.0
  0
LINE
  8
0
 62
     0
 10
33.8129
 20
7.61919
 30
0.0
 11
33.8129
 21
8.61963
 31
0.0
  0
LINE
  8
0
 62
     0
 10
33.8129
 20
8.61963
 30
0.0
 11
33.0123
 21
8.61963
 31
0.0
  0
LINE
  8
0
 62
     0
 10
33.0123
 20
8.61963
 30
0.0
 11
33.0123
 21
11.7189
 31
0.0
  0
LINE
  8
0
 62
     0
 10
33.0123
 20
11.7189
 30
0.0
 11
33.8129
 21
11.7189
 31
0.0
  0
LINE
  8
0
 62
     0
 10
33.8129
 20
11.7189
 30
0.0
 11
33.8129
 21
17.519
 31
0.0
  0
LINE
  8
0
 62
     0
 10
33.8129
 20
17.519
 30
0.0
 11
33.0123
 21
17.519
 31
0.0
  0
LINE
  8
0
 62
     0
 10
33.0123
 20
17.519
 30
0.0
 11
33.0123
 21
20.6196
 31
0.0
  0
LINE
  8
0
 62
     0
 10
33.0123
 20
20.6196
 30
0.0
 11
33.8129
 21
20.6196
 31
0.0
  0
LINE
  8
0
 62
     0
 10
33.8129
 20
20.6196
 30
0.0
 11
33.8129
 21
21.6187
 31
0.0
  0
LINE
  8
0
 62
     0
 10
33.8129
 20
21.6187
 30
0.0
 11
47.8123
 21
21.6187
 31
0.0
  0
LINE
  8
0
 62
     0
 10
47.8123
 20
21.6187
 30
0.0
 11
47.8123
 21
20.6196
 31
0.0
  0
LINE
  8
0
 62
     0
 10
47.8123
 20
20.6196
 30
0.0
 11
48.6131
 21
20.6196
 31
0.0
  0
LINE
  8
0
 62
     0
 10
48.6131
 20
20.6196
 30
0.0
 11
48.6131
 21
17.519
 31
0.0
  0
LINE
  8
0
 62
     0
 10
48.6131
 20
17.519
 30
0.0
 11
47.8123
 21
17.519
 31
0.0
  0
LINE
  8
0
 62
     0
 10
47.8123
 20
17.519
 30
0.0
 11
47.8123
 21
11.7189
 31
0.0
  0
LINE
  8
0
 62
     0
 10
47.8123
 20
11.7189
 30
0.0
 11
48.6131
 21
11.7189
 31
0.0
  0
LINE
  8
0
 62
     0
 10
48.6131
 20
11.7189
 30
0.0
 11
48.6131
 21
8.61963
 31
0.0
  0
LINE
  8
0
 62
     0
 10
48.6131
 20
8.61963
 30
0.0
 11
47.8123
 21
8.61963
 31
0.0
  0
LINE
  8
0
 62
     0
 10
50.1936
 20
65.7698
 30
0.0
 11
50.1936
 21
64.7693
 31
0.0
  0
LINE
  8
0
 62
     0
 10
50.1936
 20
64.7693
 30
0.0
 11
36.1943
 21
64.7693
 31
0.0
  0
LINE
  8
0
 62
     0
 10
36.1943
 20
64.7693
 30
0.0
 11
36.1943
 21
65.7698
 31
0.0
  0
LINE
  8
0
 62
     0
 10
36.1943
 20
65.7698
 30
0.0
 11
35.3935
 21
65.7698
 31
0.0
  0
LINE
  8
0
 62
     0
 10
35.3935
 20
65.7698
 30
0.0
 11
35.3935
 21
68.8689
 31
0.0
  0
LINE
  8
0
 62
     0
 10
35.3935
 20
68.8689
 30
0.0
 11
36.1943
 21
68.8689
 31
0.0
  0
LINE
  8
0
 62
     0
 10
36.1943
 20
68.8689
 30
0.0
 11
36.1943
 21
74.6689
 31
0.0
  0
LINE
  8
0
 62
     0
 10
36.1943
 20
74.6689
 30
0.0
 11
35.3935
 21
74.6689
 31
0.0
  0
LINE
  8
0
 62
     0
 10
35.3935
 20
74.6689
 30
0.0
 11
35.3935
 21
77.7695
 31
0.0
  0
LINE
  8
0
 62
     0
 10
35.3935
 20
77.7695
 30
0.0
 11
36.1943
 21
77.7695
 31
0.0
  0
LINE
  8
0
 62
     0
 10
36.1943
 20
77.7695
 30
0.0
 11
36.1943
 21
78.7686
 31
0.0
  0
LINE
  8
0
 62
     0
 10
36.1943
 20
78.7686
 30
0.0
 11
50.1936
 21
78.7686
 31
0.0
  0
LINE
  8
0
 62
     0
 10
50.1936
 20
78.7686
 30
0.0
 11
50.1936
 21
77.7695
 31
0.0
  0
LINE
  8
0
 62
     0
 10
50.1936
 20
77.7695
 30
0.0
 11
50.9944
 21
77.7695
 31
0.0
  0
LINE
  8
0
 62
     0
 10
50.9944
 20
77.7695
 30
0.0
 11
50.9944
 21
74.6689
 31
0.0
  0
LINE
  8
0
 62
     0
 10
50.9944
 20
74.6689
 30
0.0
 11
50.1936
 21
74.6689
 31
0.0
  0
LINE
  8
0
 62
     0
 10
50.1936
 20
74.6689
 30
0.0
 11
50.1936
 21
68.8689
 31
0.0
  0
LINE
  8
0
 62
     0
 10
50.1936
 20
68.8689
 30
0.0
 11
50.9944
 21
68.8689
 31
0.0
  0
LINE
  8
0
 62
     0
 10
50.9944
 20
68.8689
 30
0.0
 11
50.9944
 21
65.7698
 31
0.0
  0
LINE
  8
0
 62
     0
 10
50.9944
 20
65.7698
 30
0.0
 11
50.1936
 21
65.7698
 31
0.0
  0
LINE
  8
0
 62
     0
 10
54.9561
 20
46.7198
 30
0.0
 11
54.9561
 21
45.7193
 31
0.0
  0
LINE
  8
0
 62
     0
 10
54.9561
 20
45.7193
 30
0.0
 11
40.9554
 21
45.7193
 31
0.0
  0
LINE
  8
0
 62
     0
 10
40.9554
 20
45.7193
 30
0.0
 11
40.9554
 21
46.7198
 31
0.0
  0
LINE
  8
0
 62
     0
 10
40.9554
 20
46.7198
 30
0.0
 11
40.156
 21
46.7198
 31
0.0
  0
LINE
  8
0
 62
     0
 10
40.156
 20
46.7198
 30
0.0
 11
40.156
 21
49.8189
 31
0.0
  0
LINE
  8
0
 62
     0
 10
40.156
 20
49.8189
 30
0.0
 11
40.9554
 21
49.8189
 31
0.0
  0
LINE
  8
0
 62
     0
 10
40.9554
 20
49.8189
 30
0.0
 11
40.9554
 21
55.6189
 31
0.0
  0
LINE
  8
0
 62
     0
 10
40.9554
 20
55.6189
 30
0.0
 11
40.156
 21
55.6189
 31
0.0
  0
LINE
  8
0
 62
     0
 10
40.156
 20
55.6189
 30
0.0
 11
40.156
 21
58.7195
 31
0.0
  0
LINE
  8
0
 62
     0
 10
40.156
 20
58.7195
 30
0.0
 11
40.9554
 21
58.7195
 31
0.0
  0
LINE
  8
0
 62
     0
 10
40.9554
 20
58.7195
 30
0.0
 11
40.9554
 21
59.7186
 31
0.0
  0
LINE
  8
0
 62
     0
 10
40.9554
 20
59.7186
 30
0.0
 11
54.9561
 21
59.7186
 31
0.0
  0
LINE
  8
0
 62
     0
 10
54.9561
 20
59.7186
 30
0.0
 11
54.9561
 21
58.7195
 31
0.0
  0
LINE
  8
0
 62
     0
 10
54.9561
 20
58.7195
 30
0.0
 11
55.7555
 21
58.7195
 31
0.0
  0
LINE
  8
0
 62
     0
 10
55.7555
 20
58.7195
 30
0.0
 11
55.7555
 21
55.6189
 31
0.0
  0
LINE
  8
0
 62
     0
 10
55.7555
 20
55.6189
 30
0.0
 11
54.9561
 21
55.6189
 31
0.0
  0
LINE
  8
0
 62
     0
 10
54.9561
 20
55.6189
 30
0.0
 11
54.9561
 21
49.8189
 31
0.0
  0
LINE
  8
0
 62
     0
 10
54.9561
 20
49.8189
 30
0.0
 11
55.7555
 21
49.8189
 31
0.0
  0
LINE
  8
0
 62
     0
 10
55.7555
 20
49.8189
 30
0.0
 11
55.7555
 21
46.7198
 31
0.0
  0
LINE
  8
0
 62
     0
 10
55.7555
 20
46.7198
 30
0.0
 11
54.9561
 21
46.7198
 31
0.0
  0
LINE
  8
0
 62
     0
 10
59.7186
 20
84.8198
 30
0.0
 11
59.7186
 21
83.8193
 31
0.0
  0
LINE
  8
0
 62
     0
 10
59.7186
 20
83.8193
 30
0.0
 11
45.7193
 21
83.8193
 31
0.0
  0
LINE
  8
0
 62
     0
 10
45.7193
 20
83.8193
 30
0.0
 11
45.7193
 21
84.8198
 31
0.0
  0
LINE
  8
0
 62
     0
 10
45.7193
 20
84.8198
 30
0.0
 11
44.9185
 21
84.8198
 31
0.0
  0
LINE
  8
0
 62
     0
 10
44.9185
 20
84.8198
 30
0.0
 11
44.9185
 21
87.9189
 31
0.0
  0
LINE
  8
0
 62
     0
 10
44.9185
 20
87.9189
 30
0.0
 11
45.7193
 21
87.9189
 31
0.0
  0
LINE
  8
0
 62
     0
 10
45.7193
 20
87.9189
 30
0.0
 11
45.7193
 21
93.7189
 31
0.0
  0
LINE
  8
0
 62
     0
 10
45.7193
 20
93.7189
 30
0.0
 11
44.9185
 21
93.7189
 31
0.0
  0
LINE
  8
0
 62
     0
 10
44.9185
 20
93.7189
 30
0.0
 11
44.9185
 21
96.8195
 31
0.0
  0
LINE
  8
0
 62
     0
 10
44.9185
 20
96.8195
 30
0.0
 11
45.7193
 21
96.8195
 31
0.0
  0
LINE
  8
0
 62
     0
 10
45.7193
 20
96.8195
 30
0.0
 11
45.7193
 21
97.8186
 31
0.0
  0
LINE
  8
0
 62
     0
 10
45.7193
 20
97.8186
 30
0.0
 11
59.7186
 21
97.8186
 31
0.0
  0
LINE
  8
0
 62
     0
 10
59.7186
 20
97.8186
 30
0.0
 11
59.7186
 21
96.8195
 31
0.0
  0
LINE
  8
0
 62
     0
 10
59.7186
 20
96.8195
 30
0.0
 11
60.5194
 21
96.8195
 31
0.0
  0
LINE
  8
0
 62
     0
 10
60.5194
 20
96.8195
 30
0.0
 11
60.5194
 21
93.7189
 31
0.0
  0
LINE
  8
0
 62
     0
 10
60.5194
 20
93.7189
 30
0.0
 11
59.7186
 21
93.7189
 31
0.0
  0
LINE
  8
0
 62
     0
 10
59.7186
 20
93.7189
 30
0.0
 11
59.7186
 21
87.9189
 31
0.0
  0
LINE
  8
0
 62
     0
 10
59.7186
 20
87.9189
 30
0.0
 11
60.5194
 21
87.9189
 31
0.0
  0
LINE
  8
0
 62
     0
 10
60.5194
 20
87.9189
 30
0.0
 11
60.5194
 21
84.8198
 31
0.0
  0
LINE
  8
0
 62
     0
 10
60.5194
 20
84.8198
 30
0.0
 11
59.7186
 21
84.8198
 31
0.0
  0
LINE
  8
0
 62
     0
 10
64.4811
 20
27.6696
 30
0.0
 11
64.4811
 21
26.6692
 31
0.0
  0
LINE
  8
0
 62
     0
 10
64.4811
 20
26.6692
 30
0.0
 11
50.4818
 21
26.6692
 31
0.0
  0
LINE
  8
0
 62
     0
 10
50.4818
 20
26.6692
 30
0.0
 11
50.4818
 21
27.6696
 31
0.0
  0
LINE
  8
0
 62
     0
 10
50.4818
 20
27.6696
 30
0.0
 11
49.6824
 21
27.6696
 31
0.0
  0
LINE
  8
0
 62
     0
 10
49.6824
 20
27.6696
 30
0.0
 11
49.6824
 21
30.7689
 31
0.0
  0
LINE
  8
0
 62
     0
 10
49.6824
 20
30.7689
 30
0.0
 11
50.4818
 21
30.7689
 31
0.0
  0
LINE
  8
0
 62
     0
 10
50.4818
 20
30.7689
 30
0.0
 11
50.4818
 21
36.5689
 31
0.0
  0
LINE
  8
0
 62
     0
 10
50.4818
 20
36.5689
 30
0.0
 11
49.6824
 21
36.5689
 31
0.0
  0
LINE
  8
0
 62
     0
 10
49.6824
 20
36.5689
 30
0.0
 11
49.6824
 21
39.6695
 31
0.0
  0
LINE
  8
0
 62
     0
 10
49.6824
 20
39.6695
 30
0.0
 11
50.4818
 21
39.6695
 31
0.0
  0
LINE
  8
0
 62
     0
 10
50.4818
 20
39.6695
 30
0.0
 11
50.4818
 21
40.6686
 31
0.0
  0
LINE
  8
0
 62
     0
 10
50.4818
 20
40.6686
 30
0.0
 11
64.4811
 21
40.6686
 31
0.0
  0
LINE
  8
0
 62
     0
 10
64.4811
 20
40.6686
 30
0.0
 11
64.4811
 21
39.6695
 31
0.0
  0
LINE
  8
0
 62
     0
 10
64.4811
 20
39.6695
 30
0.0
 11
65.2819
 21
39.6695
 31
0.0
  0
LINE
  8
0
 62
     0
 10
65.2819
 20
39.6695
 30
0.0
 11
65.2819
 21
36.5689
 31
0.0
  0
LINE
  8
0
 62
     0
 10
65.2819
 20
36.5689
 30
0.0
 11
64.4811
 21
36.5689
 31
0.0
  0
LINE
  8
0
 62
     0
 10
64.4811
 20
36.5689
 30
0.0
 11
64.4811
 21
30.7689
 31
0.0
  0
LINE
  8
0
 62
     0
 10
64.4811
 20
30.7689
 30
0.0
 11
65.2819
 21
30.7689
 31
0.0
  0
LINE
  8
0
 62
     0
 10
65.2819
 20
30.7689
 30
0.0
 11
65.2819
 21
27.6696
 31
0.0
  0
LINE
  8
0
 62
     0
 10
65.2819
 20
27.6696
 30
0.0
 11
64.4811
 21
27.6696
 31
0.0
  0
LINE
  8
0
 62
     0
 10
69.2436
 20
65.7698
 30
0.0
 11
69.2436
 21
64.7693
 31
0.0
  0
LINE
  8
0
 62
     0
 10
69.2436
 20
64.7693
 30
0.0
 11
55.2443
 21
64.7693
 31
0.0
  0
LINE
  8
0
 62
     0
 10
55.2443
 20
64.7693
 30
0.0
 11
55.2443
 21
65.7698
 31
0.0
  0
LINE
  8
0
 62
     0
 10
55.2443
 20
65.7698
 30
0.0
 11
54.4435
 21
65.7698
 31
0.0
  0
LINE
  8
0
 62
     0
 10
54.4435
 20
65.7698
 30
0.0
 11
54.4435
 21
68.8689
 31
0.0
  0
LINE
  8
0
 62
     0
 10
54.4435
 20
68.8689
 30
0.0
 11
55.2443
 21
68.8689
 31
0.0
  0
LINE
  8
0
 62
     0
 10
55.2443
 20
68.8689
 30
0.0
 11
55.2443
 21
74.6689
 31
0.0
  0
LINE
  8
0
 62
     0
 10
55.2443
 20
74.6689
 30
0.0
 11
54.4435
 21
74.6689
 31
0.0
  0
LINE
  8
0
 62
     0
 10
54.4435
 20
74.6689
 30
0.0
 11
54.4435
 21
77.7695
 31
0.0
  0
LINE
  8
0
 62
     0
 10
54.4435
 20
77.7695
 30
0.0
 11
55.2443
 21
77.7695
 31
0.0
  0
LINE
  8
0
 62
     0
 10
55.2443
 20
77.7695
 30
0.0
 11
55.2443
 21
78.7686
 31
0.0
  0
LINE
  8
0
 62
     0
 10
55.2443
 20
78.7686
 30
0.0
 11
69.2436
 21
78.7686
 31
0.0
  0
LINE
  8
0
 62
     0
 10
69.2436
 20
78.7686
 30
0.0
 11
69.2436
 21
77.7695
 31
0.0
  0
LINE
  8
0
 62
     0
 10
69.2436
 20
77.7695
 30
0.0
 11
70.0444
 21
77.7695
 31
0.0
  0
LINE
  8
0
 62
     0
 10
70.0444
 20
77.7695
 30
0.0
 11
70.0444
 21
74.6689
 31
0.0
  0
LINE
  8
0
 62
     0
 10
70.0444
 20
74.6689
 30
0.0
 11
69.2436
 21
74.6689
 31
0.0
  0
LINE
  8
0
 62
     0
 10
69.2436
 20
74.6689
 30
0.0
 11
69.2436
 21
68.8689
 31
0.0
  0
LINE
  8
0
 62
     0
 10
69.2436
 20
68.8689
 30
0.0
 11
70.0444
 21
68.8689
 31
0.0
  0
LINE
  8
0
 62
     0
 10
70.0444
 20
68.8689
 30
0.0
 11
70.0444
 21
65.7698
 31
0.0
  0
LINE
  8
0
 62
     0
 10
70.0444
 20
65.7698
 30
0.0
 11
69.2436
 21
65.7698
 31
0.0
  0
LINE
  8
0
 62
     0
 10
71.6248
 20
8.61963
 30
0.0
 11
71.6248
 21
7.61919
 31
0.0
  0
LINE
  8
0
 62
     0
 10
71.6248
 20
7.61919
 30
0.0
 11
57.6255
 21
7.61919
 31
0.0
  0
LINE
  8
0
 62
     0
 10
57.6255
 20
7.61919
 30
0.0
 11
57.6255
 21
8.61963
 31
0.0
  0
LINE
  8
0
 62
     0
 10
57.6255
 20
8.61963
 30
0.0
 11
56.8247
 21
8.61963
 31
0.0
  0
LINE
  8
0
 62
     0
 10
56.8247
 20
8.61963
 30
0.0
 11
56.8247
 21
11.7189
 31
0.0
  0
LINE
  8
0
 62
     0
 10
56.8247
 20
11.7189
 30
0.0
 11
57.6255
 21
11.7189
 31
0.0
  0
LINE
  8
0
 62
     0
 10
57.6255
 20
11.7189
 30
0.0
 11
57.6255
 21
17.519
 31
0.0
  0
LINE
  8
0
 62
     0
 10
57.6255
 20
17.519
 30
0.0
 11
56.8247
 21
17.519
 31
0.0
  0
LINE
  8
0
 62
     0
 10
56.8247
 20
17.519
 30
0.0
 11
56.8247
 21
20.6196
 31
0.0
  0
LINE
  8
0
 62
     0
 10
56.8247
 20
20.6196
 30
0.0
 11
57.6255
 21
20.6196
 31
0.0
  0
LINE
  8
0
 62
     0
 10
57.6255
 20
20.6196
 30
0.0
 11
57.6255
 21
21.6187
 31
0.0
  0
LINE
  8
0
 62
     0
 10
57.6255
 20
21.6187
 30
0.0
 11
71.6248
 21
21.6187
 31
0.0
  0
LINE
  8
0
 62
     0
 10
71.6248
 20
21.6187
 30
0.0
 11
71.6248
 21
20.6196
 31
0.0
  0
LINE
  8
0
 62
     0
 10
71.6248
 20
20.6196
 30
0.0
 11
72.4242
 21
20.6196
 31
0.0
  0
LINE
  8
0
 62
     0
 10
72.4242
 20
20.6196
 30
0.0
 11
72.4242
 21
17.519
 31
0.0
  0
LINE
  8
0
 62
     0
 10
72.4242
 20
17.519
 30
0.0
 11
71.6248
 21
17.519
 31
0.0
  0
LINE
  8
0
 62
     0
 10
71.6248
 20
17.519
 30
0.0
 11
71.6248
 21
11.7189
 31
0.0
  0
LINE
  8
0
 62
     0
 10
71.6248
 20
11.7189
 30
0.0
 11
72.4242
 21
11.7189
 31
0.0
  0
LINE
  8
0
 62
     0
 10
72.4242
 20
11.7189
 30
0.0
 11
72.4242
 21
8.61963
 31
0.0
  0
LINE
  8
0
 62
     0
 10
72.4242
 20
8.61963
 30
0.0
 11
71.6248
 21
8.61963
 31
0.0
  0
LINE
  8
0
 62
     0
 10
74.0061
 20
46.7198
 30
0.0
 11
74.0061
 21
45.7193
 31
0.0
  0
LINE
  8
0
 62
     0
 10
74.0061
 20
45.7193
 30
0.0
 11
60.0054
 21
45.7193
 31
0.0
  0
LINE
  8
0
 62
     0
 10
60.0054
 20
45.7193
 30
0.0
 11
60.0054
 21
46.7198
 31
0.0
  0
LINE
  8
0
 62
     0
 10
60.0054
 20
46.7198
 30
0.0
 11
59.206
 21
46.7198
 31
0.0
  0
LINE
  8
0
 62
     0
 10
59.206
 20
46.7198
 30
0.0
 11
59.206
 21
49.8189
 31
0.0
  0
LINE
  8
0
 62
     0
 10
59.206
 20
49.8189
 30
0.0
 11
60.0054
 21
49.8189
 31
0.0
  0
LINE
  8
0
 62
     0
 10
60.0054
 20
49.8189
 30
0.0
 11
60.0054
 21
55.6189
 31
0.0
  0
LINE
  8
0
 62
     0
 10
60.0054
 20
55.6189
 30
0.0
 11
59.206
 21
55.6189
 31
0.0
  0
LINE
  8
0
 62
     0
 10
59.206
 20
55.6189
 30
0.0
 11
59.206
 21
58.7195
 31
0.0
  0
LINE
  8
0
 62
     0
 10
59.206
 20
58.7195
 30
0.0
 11
60.0054
 21
58.7195
 31
0.0
  0
LINE
  8
0
 62
     0
 10
60.0054
 20
58.7195
 30
0.0
 11
60.0054
 21
59.7186
 31
0.0
  0
LINE
  8
0
 62
     0
 10
60.0054
 20
59.7186
 30
0.0
 11
74.0061
 21
59.7186
 31
0.0
  0
LINE
  8
0
 62
     0
 10
74.0061
 20
59.7186
 30
0.0
 11
74.0061
 21
58.7195
 31
0.0
  0
LINE
  8
0
 62
     0
 10
74.0061
 20
58.7195
 30
0.0
 11
74.8055
 21
58.7195
 31
0.0
  0
LINE
  8
0
 62
     0
 10
74.8055
 20
58.7195
 30
0.0
 11
74.8055
 21
55.6189
 31
0.0
  0
LINE
  8
0
 62
     0
 10
74.8055
 20
55.6189
 30
0.0
 11
74.0061
 21
55.6189
 31
0.0
  0
LINE
  8
0
 62
     0
 10
74.0061
 20
55.6189
 30
0.0
 11
74.0061
 21
49.8189
 31
0.0
  0
LINE
  8
0
 62
     0
 10
74.0061
 20
49.8189
 30
0.0
 11
74.8055
 21
49.8189
 31
0.0
  0
LINE
  8
0
 62
     0
 10
74.8055
 20
49.8189
 30
0.0
 11
74.8055
 21
46.7198
 31
0.0
  0
LINE
  8
0
 62
     0
 10
74.8055
 20
46.7198
 30
0.0
 11
74.0061
 21
46.7198
 31
0.0
  0
LINE
  8
0
 62
     0
 10
78.7686
 20
84.8198
 30
0.0
 11
78.7686
 21
83.8193
 31
0.0
  0
LINE
  8
0
 62
     0
 10
78.7686
 20
83.8193
 30
0.0
 11
64.7693
 21
83.8193
 31
0.0
  0
LINE
  8
0
 62
     0
 10
64.7693
 20
83.8193
 30
0.0
 11
64.7693
 21
84.8198
 31
0.0
  0
LINE
  8
0
 62
     0
 10
64.7693
 20
84.8198
 30
0.0
 11
63.9685
 21
84.8198
 31
0.0
  0
LINE
  8
0
 62
     0
 10
63.9685
 20
84.8198
 30
0.0
 11
63.9685
 21
87.9189
 31
0.0
  0
LINE
  8
0
 62
     0
 10
63.9685
 20
87.9189
 30
0.0
 11
64.7693
 21
87.9189
 31
0.0
  0
LINE
  8
0
 62
     0
 10
64.7693
 20
87.9189
 30
0.0
 11
64.7693
 21
93.7189
 31
0.0
  0
LINE
  8
0
 62
     0
 10
64.7693
 20
93.7189
 30
0.0
 11
63.9685
 21
93.7189
 31
0.0
  0
LINE
  8
0
 62
     0
 10
63.9685
 20
93.7189
 30
0.0
 11
63.9685
 21
96.8195
 31
0.0
  0
LINE
  8
0
 62
     0
 10
63.9685
 20
96.8195
 30
0.0
 11
64.7693
 21
96.8195
 31
0.0
  0
LINE
  8
0
 62
     0
 10
64.7693
 20
96.8195
 30
0.0
 11
64.7693
 21
97.8186
 31
0.0
  0
LINE
  8
0
 62
     0
 10
64.7693
 20
97.8186
 30
0.0
 11
78.7686
 21
97.8186
 31
0.0
  0
LINE
  8
0
 62
     0
 10
78.7686
 20
97.8186
 30
0.0
 11
78.7686
 21
96.8195
 31
0.0
  0
LINE
  8
0
 62
     0
 10
78.7686
 20
96.8195
 30
0.0
 11
79.5694
 21
96.8195
 31
0.0
  0
LINE
  8
0
 62
     0
 10
79.5694
 20
96.8195
 30
0.0
 11
79.5694
 21
93.7189
 31
0.0
  0
LINE
  8
0
 62
     0
 10
79.5694
 20
93.7189
 30
0.0
 11
78.7686
 21
93.7189
 31
0.0
  0
LINE
  8
0
 62
     0
 10
78.7686
 20
93.7189
 30
0.0
 11
78.7686
 21
87.9189
 31
0.0
  0
LINE
  8
0
 62
     0
 10
78.7686
 20
87.9189
 30
0.0
 11
79.5694
 21
87.9189
 31
0.0
  0
LINE
  8
0
 62
     0
 10
79.5694
 20
87.9189
 30
0.0
 11
79.5694
 21
84.8198
 31
0.0
  0
LINE
  8
0
 62
     0
 10
79.5694
 20
84.8198
 30
0.0
 11
78.7686
 21
84.8198
 31
0.0
  0
LINE
  8
0
 62
     0
 10
83.5311
 20
27.6696
 30
0.0
 11
83.5311
 21
26.6692
 31
0.0
  0
LINE
  8
0
 62
     0
 10
83.5311
 20
26.6692
 30
0.0
 11
69.5318
 21
26.6692
 31
0.0
  0
LINE
  8
0
 62
     0
 10
69.5318
 20
26.6692
 30
0.0
 11
69.5318
 21
27.6696
 31
0.0
  0
LINE
  8
0
 62
     0
 10
69.5318
 20
27.6696
 30
0.0
 11
68.7324
 21
27.6696
 31
0.0
  0
LINE
  8
0
 62
     0
 10
68.7324
 20
27.6696
 30
0.0
 11
68.7324
 21
30.7689
 31
0.0
  0
LINE
  8
0
 62
     0
 10
68.7324
 20
30.7689
 30
0.0
 11
69.5318
 21
30.7689
 31
0.0
  0
LINE
  8
0
 62
     0
 10
69.5318
 20
30.7689
 30
0.0
 11
69.5318
 21
36.5689
 31
0.0
  0
LINE
  8
0
 62
     0
 10
69.5318
 20
36.5689
 30
0.0
 11
68.7324
 21
36.5689
 31
0.0
  0
LINE
  8
0
 62
     0
 10
68.7324
 20
36.5689
 30
0.0
 11
68.7324
 21
39.6695
 31
0.0
  0
LINE
  8
0
 62
     0
 10
68.7324
 20
39.6695
 30
0.0
 11
69.5318
 21
39.6695
 31
0.0
  0
LINE
  8
0
 62
     0
 10
69.5318
 20
39.6695
 30
0.0
 11
69.5318
 21
40.6686
 31
0.0
  0
LINE
  8
0
 62
     0
 10
69.5318
 20
40.6686
 30
0.0
 11
83.5311
 21
40.6686
 31
0.0
  0
LINE
  8
0
 62
     0
 10
83.5311
 20
40.6686
 30
0.0
 11
83.5311
 21
39.6695
 31
0.0
  0
LINE
  8
0
 62
     0
 10
83.5311
 20
39.6695
 30
0.0
 11
84.3305
 21
39.6695
 31
0.0
  0
LINE
  8
0
 62
     0
 10
84.3305
 20
39.6695
 30
0.0
 11
84.3305
 21
36.5689
 31
0.0
  0
LINE
  8
0
 62
     0
 10
84.3305
 20
36.5689
 30
0.0
 11
83.5311
 21
36.5689
 31
0.0
  0
LINE
  8
0
 62
     0
 10
83.5311
 20
36.5689
 30
0.0
 11
83.5311
 21
30.7689
 31
0.0
  0
LINE
  8
0
 62
     0
 10
83.5311
 20
30.7689
 30
0.0
 11
84.3305
 21
30.7689
 31
0.0
  0
LINE
  8
0
 62
     0
 10
84.3305
 20
30.7689
 30
0.0
 11
84.3305
 21
27.6696
 31
0.0
  0
LINE
  8
0
 62
     0
 10
84.3305
 20
27.6696
 30
0.0
 11
83.5311
 21
27.6696
 31
0.0
  0
LINE
  8
0
 62
     0
 10
88.2936
 20
65.7698
 30
0.0
 11
88.2936
 21
64.7693
 31
0.0
  0
LINE
  8
0
 62
     0
 10
88.2936
 20
64.7693
 30
0.0
 11
74.2943
 21
64.7693
 31
0.0
  0
LINE
  8
0
 62
     0
 10
74.2943
 20
64.7693
 30
0.0
 11
74.2943
 21
65.7698
 31
0.0
  0
LINE
  8
0
 62
     0
 10
74.2943
 20
65.7698
 30
0.0
 11
73.4935
 21
65.7698
 31
0.0
  0
LINE
  8
0
 62
     0
 10
73.4935
 20
65.7698
 30
0.0
 11
73.4935
 21
68.8689
 31
0.0
  0
LINE
  8
0
 62
     0
 10
73.4935
 20
68.8689
 30
0.0
 11
74.2943
 21
68.8689
 31
0.0
  0
LINE
  8
0
 62
     0
 10
74.2943
 20
68.8689
 30
0.0
 11
74.2943
 21
74.6689
 31
0.0
  0
LINE
  8
0
 62
     0
 10
74.2943
 20
74.6689
 30
0.0
 11
73.4935
 21
74.6689
 31
0.0
  0
LINE
  8
0
 62
     0
 10
73.4935
 20
74.6689
 30
0.0
 11
73.4935
 21
77.7695
 31
0.0
  0
LINE
  8
0
 62
     0
 10
73.4935
 20
77.7695
 30
0.0
 11
74.2943
 21
77.7695
 31
0.0
  0
LINE
  8
0
 62
     0
 10
74.2943
 20
77.7695
 30
0.0
 11
74.2943
 21
78.7686
 31
0.0
  0
LINE
  8
0
 62
     0
 10
74.2943
 20
78.7686
 30
0.0
 11
88.2936
 21
78.7686
 31
0.0
  0
LINE
  8
0
 62
     0
 10
88.2936
 20
78.7686
 30
0.0
 11
88.2936
 21
77.7695
 31
0.0
  0
LINE
  8
0
 62
     0
 10
88.2936
 20
77.7695
 30
0.0
 11
89.0944
 21
77.7695
 31
0.0
  0
LINE
  8
0
 62
     0
 10
89.0944
 20
77.7695
 30
0.0
 11
89.0944
 21
74.6689
 31
0.0
  0
LINE
  8
0
 62
     0
 10
89.0944
 20
74.6689
 30
0.0
 11
88.2936
 21
74.6689
 31
0.0
  0
LINE
  8
0
 62
     0
 10
88.2936
 20
74.6689
 30
0.0
 11
88.2936
 21
68.8689
 31
0.0
  0
LINE
  8
0
 62
     0
 10
88.2936
 20
68.8689
 30
0.0
 11
89.0944
 21
68.8689
 31
0.0
  0
LINE
  8
0
 62
     0
 10
89.0944
 20
68.8689
 30
0.0
 11
89.0944
 21
65.7698
 31
0.0
  0
LINE
  8
0
 62
     0
 10
89.0944
 20
65.7698
 30
0.0
 11
88.2936
 21
65.7698
 31
0.0
  0
LINE
  8
0
 62
     0
 10
93.0561
 20
46.7198
 30
0.0
 11
93.0561
 21
45.7193
 31
0.0
  0
LINE
  8
0
 62
     0
 10
93.0561
 20
45.7193
 30
0.0
 11
79.0554
 21
45.7193
 31
0.0
  0
LINE
  8
0
 62
     0
 10
79.0554
 20
45.7193
 30
0.0
 11
79.0554
 21
46.7198
 31
0.0
  0
LINE
  8
0
 62
     0
 10
79.0554
 20
46.7198
 30
0.0
 11
78.256
 21
46.7198
 31
0.0
  0
LINE
  8
0
 62
     0
 10
78.256
 20
46.7198
 30
0.0
 11
78.256
 21
49.8189
 31
0.0
  0
LINE
  8
0
 62
     0
 10
78.256
 20
49.8189
 30
0.0
 11
79.0554
 21
49.8189
 31
0.0
  0
LINE
  8
0
 62
     0
 10
79.0554
 20
49.8189
 30
0.0
 11
79.0554
 21
55.6189
 31
0.0
  0
LINE
  8
0
 62
     0
 10
79.0554
 20
55.6189
 30
0.0
 11
78.256
 21
55.6189
 31
0.0
  0
LINE
  8
0
 62
     0
 10
78.256
 20
55.6189
 30
0.0
 11
78.256
 21
58.7195
 31
0.0
  0
LINE
  8
0
 62
     0
 10
78.256
 20
58.7195
 30
0.0
 11
79.0554
 21
58.7195
 31
0.0
  0
LINE
  8
0
 62
     0
 10
79.0554
 20
58.7195
 30
0.0
 11
79.0554
 21
59.7186
 31
0.0
  0
LINE
  8
0
 62
     0
 10
79.0554
 20
59.7186
 30
0.0
 11
93.0561
 21
59.7186
 31
0.0
  0
LINE
  8
0
 62
     0
 10
93.0561
 20
59.7186
 30
0.0
 11
93.0561
 21
58.7195
 31
0.0
  0
LINE
  8
0
 62
     0
 10
93.0561
 20
58.7195
 30
0.0
 11
93.8555
 21
58.7195
 31
0.0
  0
LINE
  8
0
 62
     0
 10
93.8555
 20
58.7195
 30
0.0
 11
93.8555
 21
55.6189
 31
0.0
  0
LINE
  8
0
 62
     0
 10
93.8555
 20
55.6189
 30
0.0
 11
93.0561
 21
55.6189
 31
0.0
  0
LINE
  8
0
 62
     0
 10
93.0561
 20
55.6189
 30
0.0
 11
93.0561
 21
49.8189
 31
0.0
  0
LINE
  8
0
 62
     0
 10
93.0561
 20
49.8189
 30
0.0
 11
93.8555
 21
49.8189
 31
0.0
  0
LINE
  8
0
 62
     0
 10
93.8555
 20
49.8189
 30
0.0
 11
93.8555
 21
46.7198
 31
0.0
  0
LINE
  8
0
 62
     0
 10
93.8555
 20
46.7198
 30
0.0
 11
93.0561
 21
46.7198
 31
0.0
  0
LINE
  8
0
 62
     0
 10
97.8186
 20
84.8198
 30
0.0
 11
97.8186
 21
83.8193
 31
0.0
  0
LINE
  8
0
 62
     0
 10
97.8186
 20
83.8193
 30
0.0
 11
83.8193
 21
83.8193
 31
0.0
  0
LINE
  8
0
 62
     0
 10
83.8193
 20
83.8193
 30
0.0
 11
83.8193
 21
84.8198
 31
0.0
  0
LINE
  8
0
 62
     0
 10
83.8193
 20
84.8198
 30
0.0
 11
83.0185
 21
84.8198
 31
0.0
  0
LINE
  8
0
 62
     0
 10
83.0185
 20
84.8198
 30
0.0
 11
83.0185
 21
87.9189
 31
0.0
  0
LINE
  8
0
 62
     0
 10
83.0185
 20
87.9189
 30
0.0
 11
83.8193
 21
87.9189
 31
0.0
  0
LINE
  8
0
 62
     0
 10
83.8193
 20
87.9189
 30
0.0
 11
83.8193
 21
93.7189
 31
0.0
  0
LINE
  8
0
 62
     0
 10
83.8193
 20
93.7189
 30
0.0
 11
83.0185
 21
93.7189
 31
0.0
  0
LINE
  8
0
 62
     0
 10
83.0185
 20
93.7189
 30
0.0
 11
83.0185
 21
96.8195
 31
0.0
  0
LINE
  8
0
 62
     0
 10
83.0185
 20
96.8195
 30
0.0
 11
83.8193
 21
96.8195
 31
0.0
  0
LINE
  8
0
 62
     0
 10
83.8193
 20
96.8195
 30
0.0
 11
83.8193
 21
97.8186
 31
0.0
  0
LINE
  8
0
 62
     0
 10
83.8193
 20
97.8186
 30
0.0
 11
97.8186
 21
97.8186
 31
0.0
  0
LINE
  8
0
 62
     0
 10
97.8186
 20
97.8186
 30
0.0
 11
97.8186
 21
96.8195
 31
0.0
  0
LINE
  8
0
 62
     0
 10
97.8186
 20
96.8195
 30
0.0
 11
98.6194
 21
96.8195
 31
0.0
  0
LINE
  8
0
 62
     0
 10
98.6194
 20
96.8195
 30
0.0
 11
98.6194
 21
93.7189
 31
0.0
  0
LINE
  8
0
 62
     0
 10
98.6194
 20
93.7189
 30
0.0
 11
97.8186
 21
93.7189
 31
0.0
  0
LINE
  8
0
 62
     0
 10
97.8186
 20
93.7189
 30
0.0
 11
97.8186
 21
87.9189
 31
0.0
  0
LINE
  8
0
 62
     0
 10
97.8186
 20
87.9189
 30
0.0
 11
98.6194
 21
87.9189
 31
0.0
  0
LINE
  8
0
 62
     0
 10
98.6194
 20
87.9189
 30
0.0
 11
98.6194
 21
84.8198
 31
0.0
  0
LINE
  8
0
 62
     0
 10
98.6194
 20
84.8198
 30
0.0
 11
97.8186
 21
84.8198
 31
0.0
  0
LINE
  8
0
 62
     0
 10
102.581
 20
27.6696
 30
0.0
 11
102.581
 21
26.6692
 31
0.0
  0
LINE
  8
0
 62
     0
 10
102.581
 20
26.6692
 30
0.0
 11
88.5804
 21
26.6692
 31
0.0
  0
LINE
  8
0
 62
     0
 10
88.5804
 20
26.6692
 30
0.0
 11
88.5804
 21
27.6696
 31
0.0
  0
LINE
  8
0
 62
     0
 10
88.5804
 20
27.6696
 30
0.0
 11
87.7824
 21
27.6696
 31
0.0
  0
LINE
  8
0
 62
     0
 10
87.7824
 20
27.6696
 30
0.0
 11
87.7824
 21
30.7689
 31
0.0
  0
LINE
  8
0
 62
     0
 10
87.7824
 20
30.7689
 30
0.0
 11
88.5804
 21
30.7689
 31
0.0
  0
LINE
  8
0
 62
     0
 10
88.5804
 20
30.7689
 30
0.0
 11
88.5804
 21
36.5689
 31
0.0
  0
LINE
  8
0
 62
     0
 10
88.5804
 20
36.5689
 30
0.0
 11
87.7824
 21
36.5689
 31
0.0
  0
LINE
  8
0
 62
     0
 10
87.7824
 20
36.5689
 30
0.0
 11
87.7824
 21
39.6695
 31
0.0
  0
LINE
  8
0
 62
     0
 10
87.7824
 20
39.6695
 30
0.0
 11
88.5804
 21
39.6695
 31
0.0
  0
LINE
  8
0
 62
     0
 10
88.5804
 20
39.6695
 30
0.0
 11
88.5804
 21
40.6686
 31
0.0
  0
LINE
  8
0
 62
     0
 10
88.5804
 20
40.6686
 30
0.0
 11
102.581
 21
40.6686
 31
0.0
  0
LINE
  8
0
 62
     0
 10
102.581
 20
40.6686
 30
0.0
 11
102.581
 21
39.6695
 31
0.0
  0
LINE
  8
0
 62
     0
 10
102.581
 20
39.6695
 30
0.0
 11
103.38
 21
39.6695
 31
0.0
  0
LINE
  8
0
 62
     0
 10
103.38
 20
39.6695
 30
0.0
 11
103.38
 21
36.5689
 31
0.0
  0
LINE
  8
0
 62
     0
 10
103.38
 20
36.5689
 30
0.0
 11
102.581
 21
36.5689
 31
0.0
  0
LINE
  8
0
 62
     0
 10
102.581
 20
36.5689
 30
0.0
 11
102.581
 21
30.7689
 31
0.0
  0
LINE
  8
0
 62
     0
 10
102.581
 20
30.7689
 30
0.0
 11
103.38
 21
30.7689
 31
0.0
  0
LINE
  8
0
 62
     0
 10
103.38
 20
30.7689
 30
0.0
 11
103.38
 21
27.6696
 31
0.0
  0
LINE
  8
0
 62
     0
 10
103.38
 20
27.6696
 30
0.0
 11
102.581
 21
27.6696
 31
0.0
  0
LINE
  8
0
 62
     0
 10
107.344
 20
65.7698
 30
0.0
 11
107.344
 21
64.7693
 31
0.0
  0
LINE
  8
0
 62
     0
 10
107.344
 20
64.7693
 30
0.0
 11
93.3443
 21
64.7693
 31
0.0
  0
LINE
  8
0
 62
     0
 10
93.3443
 20
64.7693
 30
0.0
 11
93.3443
 21
65.7698
 31
0.0
  0
LINE
  8
0
 62
     0
 10
93.3443
 20
65.7698
 30
0.0
 11
92.5435
 21
65.7698
 31
0.0
  0
LINE
  8
0
 62
     0
 10
92.5435
 20
65.7698
 30
0.0
 11
92.5435
 21
68.8689
 31
0.0
  0
LINE
  8
0
 62
     0
 10
92.5435
 20
68.8689
 30
0.0
 11
93.3443
 21
68.8689
 31
0.0
  0
LINE
  8
0
 62
     0
 10
93.3443
 20
68.8689
 30
0.0
 11
93.3443
 21
74.6689
 31
0.0
  0
LINE
  8
0
 62
     0
 10
93.3443
 20
74.6689
 30
0.0
 11
92.5435
 21
74.6689
 31
0.0
  0
LINE
  8
0
 62
     0
 10
92.5435
 20
74.6689
 30
0.0
 11
92.5435
 21
77.7695
 31
0.0
  0
LINE
  8
0
 62
     0
 10
92.5435
 20
77.7695
 30
0.0
 11
93.3443
 21
77.7695
 31
0.0
  0
LINE
  8
0
 62
     0
 10
93.3443
 20
77.7695
 30
0.0
 11
93.3443
 21
78.7686
 31
0.0
  0
LINE
  8
0
 62
     0
 10
93.3443
 20
78.7686
 30
0.0
 11
107.344
 21
78.7686
 31
0.0
  0
LINE
  8
0
 62
     0
 10
107.344
 20
78.7686
 30
0.0
 11
107.344
 21
77.7695
 31
0.0
  0
LINE
  8
0
 62
     0
 10
107.344
 20
77.7695
 30
0.0
 11
108.144
 21
77.7695
 31
0.0
  0
LINE
  8
0
 62
     0
 10
108.144
 20
77.7695
 30
0.0
 11
108.144
 21
74.6689
 31
0.0
  0
LINE
  8
0
 62
     0
 10
108.144
 20
74.6689
 30
0.0
 11
107.344
 21
74.6689
 31
0.0
  0
LINE
  8
0
 62
     0
 10
107.344
 20
74.6689
 30
0.0
 11
107.344
 21
68.8689
 31
0.0
  0
LINE
  8
0
 62
     0
 10
107.344
 20
68.8689
 30
0.0
 11
108.144
 21
68.8689
 31
0.0
  0
LINE
  8
0
 62
     0
 10
108.144
 20
68.8689
 30
0.0
 11
108.144
 21
65.7698
 31
0.0
  0
LINE
  8
0
 62
     0
 10
108.144
 20
65.7698
 30
0.0
 11
107.344
 21
65.7698
 31
0.0
  0
LINE
  8
0
 62
     0
 10
112.106
 20
46.7198
 30
0.0
 11
112.106
 21
45.7193
 31
0.0
  0
LINE
  8
0
 62
     0
 10
112.106
 20
45.7193
 30
0.0
 11
98.1054
 21
45.7193
 31
0.0
  0
LINE
  8
0
 62
     0
 10
98.1054
 20
45.7193
 30
0.0
 11
98.1054
 21
46.7198
 31
0.0
  0
LINE
  8
0
 62
     0
 10
98.1054
 20
46.7198
 30
0.0
 11
97.306
 21
46.7198
 31
0.0
  0
LINE
  8
0
 62
     0
 10
97.306
 20
46.7198
 30
0.0
 11
97.306
 21
49.8189
 31
0.0
  0
LINE
  8
0
 62
     0
 10
97.306
 20
49.8189
 30
0.0
 11
98.1054
 21
49.8189
 31
0.0
  0
LINE
  8
0
 62
     0
 10
98.1054
 20
49.8189
 30
0.0
 11
98.1054
 21
55.6189
 31
0.0
  0
LINE
  8
0
 62
     0
 10
98.1054
 20
55.6189
 30
0.0
 11
97.306
 21
55.6189
 31
0.0
  0
LINE
  8
0
 62
     0
 10
97.306
 20
55.6189
 30
0.0
 11
97.306
 21
58.7195
 31
0.0
  0
LINE
  8
0
 62
     0
 10
97.306
 20
58.7195
 30
0.0
 11
98.1054
 21
58.7195
 31
0.0
  0
LINE
  8
0
 62
     0
 10
98.1054
 20
58.7195
 30
0.0
 11
98.1054
 21
59.7186
 31
0.0
  0
LINE
  8
0
 62
     0
 10
98.1054
 20
59.7186
 30
0.0
 11
112.106
 21
59.7186
 31
0.0
  0
LINE
  8
0
 62
     0
 10
112.106
 20
59.7186
 30
0.0
 11
112.106
 21
58.7195
 31
0.0
  0
LINE
  8
0
 62
     0
 10
112.106
 20
58.7195
 30
0.0
 11
112.905
 21
58.7195
 31
0.0
  0
LINE
  8
0
 62
     0
 10
112.905
 20
58.7195
 30
0.0
 11
112.905
 21
55.6189
 31
0.0
  0
LINE
  8
0
 62
     0
 10
112.905
 20
55.6189
 30
0.0
 11
112.106
 21
55.6189
 31
0.0
  0
LINE
  8
0
 62
     0
 10
112.106
 20
55.6189
 30
0.0
 11
112.106
 21
49.8189
 31
0.0
  0
LINE
  8
0
 62
     0
 10
112.106
 20
49.8189
 30
0.0
 11
112.905
 21
49.8189
 31
0.0
  0
LINE
  8
0
 62
     0
 10
112.905
 20
49.8189
 30
0.0
 11
112.905
 21
46.7198
 31
0.0
  0
LINE
  8
0
 62
     0
 10
112.905
 20
46.7198
 30
0.0
 11
112.106
 21
46.7198
 31
0.0
  0
LINE
  8
0
 62
     0
 10
115.569
 20
14.1194
 30
0.0
 11
115.569
 21
7.84931
 31
0.0
  0
LINE
  8
0
 62
     0
 10
115.569
 20
7.84931
 30
0.0
 11
113.943
 21
7.84931
 31
0.0
  0
LINE
  8
0
 62
     0
 10
113.943
 20
7.84931
 30
0.0
 11
113.943
 21
6.64905
 31
0.0
  0
LINE
  8
0
 62
     0
 10
113.943
 20
6.64905
 30
0.0
 11
110.644
 21
6.64905
 31
0.0
  0
LINE
  8
0
 62
     0
 10
110.644
 20
6.64905
 30
0.0
 11
110.644
 21
7.84931
 31
0.0
  0
LINE
  8
0
 62
     0
 10
110.644
 20
7.84931
 30
0.0
 11
108.919
 21
7.84931
 31
0.0
  0
LINE
  8
0
 62
     0
 10
108.919
 20
7.84931
 30
0.0
 11
108.919
 21
8.64856
 31
0.0
  0
LINE
  8
0
 62
     0
 10
108.919
 20
8.64856
 30
0.0
 11
108.144
 21
8.64856
 31
0.0
  0
LINE
  8
0
 62
     0
 10
108.144
 20
8.64856
 30
0.0
 11
108.144
 21
8.61963
 31
0.0
  0
LINE
  8
0
 62
     0
 10
108.144
 20
8.61963
 30
0.0
 11
107.344
 21
8.61963
 31
0.0
  0
LINE
  8
0
 62
     0
 10
107.344
 20
8.61963
 30
0.0
 11
107.344
 21
7.61919
 31
0.0
  0
LINE
  8
0
 62
     0
 10
107.344
 20
7.61919
 30
0.0
 11
93.3443
 21
7.61919
 31
0.0
  0
LINE
  8
0
 62
     0
 10
93.3443
 20
7.61919
 30
0.0
 11
93.3443
 21
8.61963
 31
0.0
  0
LINE
  8
0
 62
     0
 10
93.3443
 20
8.61963
 30
0.0
 11
92.5435
 21
8.61963
 31
0.0
  0
LINE
  8
0
 62
     0
 10
92.5435
 20
8.61963
 30
0.0
 11
92.5435
 21
8.64856
 31
0.0
  0
LINE
  8
0
 62
     0
 10
92.5435
 20
8.64856
 30
0.0
 11
91.7691
 21
8.64856
 31
0.0
  0
LINE
  8
0
 62
     0
 10
91.7691
 20
8.64856
 30
0.0
 11
91.7691
 21
7.84931
 31
0.0
  0
LINE
  8
0
 62
     0
 10
91.7691
 20
7.84931
 30
0.0
 11
90.0437
 21
7.84931
 31
0.0
  0
LINE
  8
0
 62
     0
 10
90.0437
 20
7.84931
 30
0.0
 11
90.0437
 21
6.64905
 31
0.0
  0
LINE
  8
0
 62
     0
 10
90.0437
 20
6.64905
 30
0.0
 11
86.7435
 21
6.64905
 31
0.0
  0
LINE
  8
0
 62
     0
 10
86.7435
 20
6.64905
 30
0.0
 11
86.7435
 21
7.84931
 31
0.0
  0
LINE
  8
0
 62
     0
 10
86.7435
 20
7.84931
 30
0.0
 11
85.1186
 21
7.84931
 31
0.0
  0
LINE
  8
0
 62
     0
 10
85.1186
 20
7.84931
 30
0.0
 11
85.1186
 21
14.1194
 31
0.0
  0
LINE
  8
0
 62
     0
 10
85.1186
 20
14.1194
 30
0.0
 11
84.2437
 21
14.1194
 31
0.0
  0
LINE
  8
0
 62
     0
 10
84.2437
 20
14.1194
 30
0.0
 11
84.2437
 21
16.9195
 31
0.0
  0
LINE
  8
0
 62
     0
 10
84.2437
 20
16.9195
 30
0.0
 11
85.1186
 21
16.9195
 31
0.0
  0
LINE
  8
0
 62
     0
 10
85.1186
 20
16.9195
 30
0.0
 11
85.1186
 21
20.1497
 31
0.0
  0
LINE
  8
0
 62
     0
 10
85.1186
 20
20.1497
 30
0.0
 11
91.7691
 21
20.1497
 31
0.0
  0
LINE
  8
0
 62
     0
 10
91.7691
 20
20.1497
 30
0.0
 11
91.7691
 21
19.349
 31
0.0
  0
LINE
  8
0
 62
     0
 10
91.7691
 20
19.349
 30
0.0
 11
92.5435
 21
19.349
 31
0.0
  0
LINE
  8
0
 62
     0
 10
92.5435
 20
19.349
 30
0.0
 11
92.5435
 21
20.6196
 31
0.0
  0
LINE
  8
0
 62
     0
 10
92.5435
 20
20.6196
 30
0.0
 11
93.3443
 21
20.6196
 31
0.0
  0
LINE
  8
0
 62
     0
 10
93.3443
 20
20.6196
 30
0.0
 11
93.3443
 21
21.6187
 31
0.0
  0
LINE
  8
0
 62
     0
 10
93.3443
 20
21.6187
 30
0.0
 11
107.344
 21
21.6187
 31
0.0
  0
LINE
  8
0
 62
     0
 10
107.344
 20
21.6187
 30
0.0
 11
107.344
 21
20.6196
 31
0.0
  0
LINE
  8
0
 62
     0
 10
107.344
 20
20.6196
 30
0.0
 11
108.144
 21
20.6196
 31
0.0
  0
LINE
  8
0
 62
     0
 10
108.144
 20
20.6196
 30
0.0
 11
108.144
 21
19.349
 31
0.0
  0
LINE
  8
0
 62
     0
 10
108.144
 20
19.349
 30
0.0
 11
108.919
 21
19.349
 31
0.0
  0
LINE
  8
0
 62
     0
 10
108.919
 20
19.349
 30
0.0
 11
108.919
 21
20.1497
 31
0.0
  0
LINE
  8
0
 62
     0
 10
108.919
 20
20.1497
 30
0.0
 11
115.569
 21
20.1497
 31
0.0
  0
LINE
  8
0
 62
     0
 10
115.569
 20
20.1497
 30
0.0
 11
115.569
 21
16.9195
 31
0.0
  0
LINE
  8
0
 62
     0
 10
115.569
 20
16.9195
 30
0.0
 11
116.444
 21
16.9195
 31
0.0
  0
LINE
  8
0
 62
     0
 10
116.444
 20
16.9195
 30
0.0
 11
116.444
 21
14.1194
 31
0.0
  0
LINE
  8
0
 62
     0
 10
116.444
 20
14.1194
 30
0.0
 11
115.569
 21
14.1194
 31
0.0
  0
LINE
  8
0
 62
     0
 10
116.869
 20
84.8198
 30
0.0
 11
116.869
 21
83.8193
 31
0.0
  0
LINE
  8
0
 62
     0
 10
116.869
 20
83.8193
 30
0.0
 11
102.869
 21
83.8193
 31
0.0
  0
LINE
  8
0
 62
     0
 10
102.869
 20
83.8193
 30
0.0
 11
102.869
 21
84.8198
 31
0.0
  0
LINE
  8
0
 62
     0
 10
102.869
 20
84.8198
 30
0.0
 11
102.068
 21
84.8198
 31
0.0
  0
LINE
  8
0
 62
     0
 10
102.068
 20
84.8198
 30
0.0
 11
102.068
 21
87.9189
 31
0.0
  0
LINE
  8
0
 62
     0
 10
102.068
 20
87.9189
 30
0.0
 11
102.869
 21
87.9189
 31
0.0
  0
LINE
  8
0
 62
     0
 10
102.869
 20
87.9189
 30
0.0
 11
102.869
 21
93.7189
 31
0.0
  0
LINE
  8
0
 62
     0
 10
102.869
 20
93.7189
 30
0.0
 11
102.068
 21
93.7189
 31
0.0
  0
LINE
  8
0
 62
     0
 10
102.068
 20
93.7189
 30
0.0
 11
102.068
 21
96.8195
 31
0.0
  0
LINE
  8
0
 62
     0
 10
102.068
 20
96.8195
 30
0.0
 11
102.869
 21
96.8195
 31
0.0
  0
LINE
  8
0
 62
     0
 10
102.869
 20
96.8195
 30
0.0
 11
102.869
 21
97.8186
 31
0.0
  0
LINE
  8
0
 62
     0
 10
102.869
 20
97.8186
 30
0.0
 11
116.869
 21
97.8186
 31
0.0
  0
LINE
  8
0
 62
     0
 10
116.869
 20
97.8186
 30
0.0
 11
116.869
 21
96.8195
 31
0.0
  0
LINE
  8
0
 62
     0
 10
116.869
 20
96.8195
 30
0.0
 11
117.669
 21
96.8195
 31
0.0
  0
LINE
  8
0
 62
     0
 10
117.669
 20
96.8195
 30
0.0
 11
117.669
 21
93.7189
 31
0.0
  0
LINE
  8
0
 62
     0
 10
117.669
 20
93.7189
 30
0.0
 11
116.869
 21
93.7189
 31
0.0
  0
LINE
  8
0
 62
     0
 10
116.869
 20
93.7189
 30
0.0
 11
116.869
 21
87.9189
 31
0.0
  0
LINE
  8
0
 62
     0
 10
116.869
 20
87.9189
 30
0.0
 11
117.669
 21
87.9189
 31
0.0
  0
LINE
  8
0
 62
     0
 10
117.669
 20
87.9189
 30
0.0
 11
117.669
 21
84.8198
 31
0.0
  0
LINE
  8
0
 62
     0
 10
117.669
 20
84.8198
 30
0.0
 11
116.869
 21
84.8198
 31
0.0
  0
LINE
  8
0
 62
     0
 10
121.631
 20
27.6696
 30
0.0
 11
121.631
 21
26.6692
 31
0.0
  0
LINE
  8
0
 62
     0
 10
121.631
 20
26.6692
 30
0.0
 11
107.63
 21
26.6692
 31
0.0
  0
LINE
  8
0
 62
     0
 10
107.63
 20
26.6692
 30
0.0
 11
107.63
 21
27.6696
 31
0.0
  0
LINE
  8
0
 62
     0
 10
107.63
 20
27.6696
 30
0.0
 11
106.831
 21
27.6696
 31
0.0
  0
LINE
  8
0
 62
     0
 10
106.831
 20
27.6696
 30
0.0
 11
106.831
 21
30.7689
 31
0.0
  0
LINE
  8
0
 62
     0
 10
106.831
 20
30.7689
 30
0.0
 11
107.63
 21
30.7689
 31
0.0
  0
LINE
  8
0
 62
     0
 10
107.63
 20
30.7689
 30
0.0
 11
107.63
 21
36.5689
 31
0.0
  0
LINE
  8
0
 62
     0
 10
107.63
 20
36.5689
 30
0.0
 11
106.831
 21
36.5689
 31
0.0
  0
LINE
  8
0
 62
     0
 10
106.831
 20
36.5689
 30
0.0
 11
106.831
 21
39.6695
 31
0.0
  0
LINE
  8
0
 62
     0
 10
106.831
 20
39.6695
 30
0.0
 11
107.63
 21
39.6695
 31
0.0
  0
LINE
  8
0
 62
     0
 10
107.63
 20
39.6695
 30
0.0
 11
107.63
 21
40.6686
 31
0.0
  0
LINE
  8
0
 62
     0
 10
107.63
 20
40.6686
 30
0.0
 11
121.631
 21
40.6686
 31
0.0
  0
LINE
  8
0
 62
     0
 10
121.631
 20
40.6686
 30
0.0
 11
121.631
 21
39.6695
 31
0.0
  0
LINE
  8
0
 62
     0
 10
121.631
 20
39.6695
 30
0.0
 11
122.43
 21
39.6695
 31
0.0
  0
LINE
  8
0
 62
     0
 10
122.43
 20
39.6695
 30
0.0
 11
122.43
 21
36.5689
 31
0.0
  0
LINE
  8
0
 62
     0
 10
122.43
 20
36.5689
 30
0.0
 11
121.631
 21
36.5689
 31
0.0
  0
LINE
  8
0
 62
     0
 10
121.631
 20
36.5689
 30
0.0
 11
121.631
 21
30.7689
 31
0.0
  0
LINE
  8
0
 62
     0
 10
121.631
 20
30.7689
 30
0.0
 11
122.43
 21
30.7689
 31
0.0
  0
LINE
  8
0
 62
     0
 10
122.43
 20
30.7689
 30
0.0
 11
122.43
 21
27.6696
 31
0.0
  0
LINE
  8
0
 62
     0
 10
122.43
 20
27.6696
 30
0.0
 11
121.631
 21
27.6696
 31
0.0
  0
LINE
  8
0
 62
     0
 10
126.394
 20
65.7698
 30
0.0
 11
126.394
 21
64.7693
 31
0.0
  0
LINE
  8
0
 62
     0
 10
126.394
 20
64.7693
 30
0.0
 11
112.394
 21
64.7693
 31
0.0
  0
LINE
  8
0
 62
     0
 10
112.394
 20
64.7693
 30
0.0
 11
112.394
 21
65.7698
 31
0.0
  0
LINE
  8
0
 62
     0
 10
112.394
 20
65.7698
 30
0.0
 11
111.593
 21
65.7698
 31
0.0
  0
LINE
  8
0
 62
     0
 10
111.593
 20
65.7698
 30
0.0
 11
111.593
 21
68.8689
 31
0.0
  0
LINE
  8
0
 62
     0
 10
111.593
 20
68.8689
 30
0.0
 11
112.394
 21
68.8689
 31
0.0
  0
LINE
  8
0
 62
     0
 10
112.394
 20
68.8689
 30
0.0
 11
112.394
 21
74.6689
 31
0.0
  0
LINE
  8
0
 62
     0
 10
112.394
 20
74.6689
 30
0.0
 11
111.593
 21
74.6689
 31
0.0
  0
LINE
  8
0
 62
     0
 10
111.593
 20
74.6689
 30
0.0
 11
111.593
 21
77.7695
 31
0.0
  0
LINE
  8
0
 62
     0
 10
111.593
 20
77.7695
 30
0.0
 11
112.394
 21
77.7695
 31
0.0
  0
LINE
  8
0
 62
     0
 10
112.394
 20
77.7695
 30
0.0
 11
112.394
 21
78.7686
 31
0.0
  0
LINE
  8
0
 62
     0
 10
112.394
 20
78.7686
 30
0.0
 11
126.394
 21
78.7686
 31
0.0
  0
LINE
  8
0
 62
     0
 10
126.394
 20
78.7686
 30
0.0
 11
126.394
 21
77.7695
 31
0.0
  0
LINE
  8
0
 62
     0
 10
126.394
 20
77.7695
 30
0.0
 11
127.194
 21
77.7695
 31
0.0
  0
LINE
  8
0
 62
     0
 10
127.194
 20
77.7695
 30
0.0
 11
127.194
 21
74.6689
 31
0.0
  0
LINE
  8
0
 62
     0
 10
127.194
 20
74.6689
 30
0.0
 11
126.394
 21
74.6689
 31
0.0
  0
LINE
  8
0
 62
     0
 10
126.394
 20
74.6689
 30
0.0
 11
126.394
 21
68.8689
 31
0.0
  0
LINE
  8
0
 62
     0
 10
126.394
 20
68.8689
 30
0.0
 11
127.194
 21
68.8689
 31
0.0
  0
LINE
  8
0
 62
     0
 10
127.194
 20
68.8689
 30
0.0
 11
127.194
 21
65.7698
 31
0.0
  0
LINE
  8
0
 62
     0
 10
127.194
 20
65.7698
 30
0.0
 11
126.394
 21
65.7698
 31
0.0
  0
LINE
  8
0
 62
     0
 10
131.156
 20
46.7198
 30
0.0
 11
131.156
 21
45.7193
 31
0.0
  0
LINE
  8
0
 62
     0
 10
131.156
 20
45.7193
 30
0.0
 11
117.155
 21
45.7193
 31
0.0
  0
LINE
  8
0
 62
     0
 10
117.155
 20
45.7193
 30
0.0
 11
117.155
 21
46.7198
 31
0.0
  0
LINE
  8
0
 62
     0
 10
117.155
 20
46.7198
 30
0.0
 11
116.357
 21
46.7198
 31
0.0
  0
LINE
  8
0
 62
     0
 10
116.357
 20
46.7198
 30
0.0
 11
116.357
 21
49.8189
 31
0.0
  0
LINE
  8
0
 62
     0
 10
116.357
 20
49.8189
 30
0.0
 11
117.155
 21
49.8189
 31
0.0
  0
LINE
  8
0
 62
     0
 10
117.155
 20
49.8189
 30
0.0
 11
117.155
 21
55.6189
 31
0.0
  0
LINE
  8
0
 62
     0
 10
117.155
 20
55.6189
 30
0.0
 11
116.357
 21
55.6189
 31
0.0
  0
LINE
  8
0
 62
     0
 10
116.357
 20
55.6189
 30
0.0
 11
116.357
 21
58.7195
 31
0.0
  0
LINE
  8
0
 62
     0
 10
116.357
 20
58.7195
 30
0.0
 11
117.155
 21
58.7195
 31
0.0
  0
LINE
  8
0
 62
     0
 10
117.155
 20
58.7195
 30
0.0
 11
117.155
 21
59.7186
 31
0.0
  0
LINE
  8
0
 62
     0
 10
117.155
 20
59.7186
 30
0.0
 11
131.156
 21
59.7186
 31
0.0
  0
LINE
  8
0
 62
     0
 10
131.156
 20
59.7186
 30
0.0
 11
131.156
 21
58.7195
 31
0.0
  0
LINE
  8
0
 62
     0
 10
131.156
 20
58.7195
 30
0.0
 11
131.957
 21
58.7195
 31
0.0
  0
LINE
  8
0
 62
     0
 10
131.957
 20
58.7195
 30
0.0
 11
131.957
 21
55.6189
 31
0.0
  0
LINE
  8
0
 62
     0
 10
131.957
 20
55.6189
 30
0.0
 11
131.156
 21
55.6189
 31
0.0
  0
LINE
  8
0
 62
     0
 10
131.156
 20
55.6189
 30
0.0
 11
131.156
 21
49.8189
 31
0.0
  0
LINE
  8
0
 62
     0
 10
131.156
 20
49.8189
 30
0.0
 11
131.957
 21
49.8189
 31
0.0
  0
LINE
  8
0
 62
     0
 10
131.957
 20
49.8189
 30
0.0
 11
131.957
 21
46.7198
 31
0.0
  0
LINE
  8
0
 62
     0
 10
131.957
 20
46.7198
 30
0.0
 11
131.156
 21
46.7198
 31
0.0
  0
LINE
  8
0
 62
     0
 10
135.919
 20
84.8198
 30
0.0
 11
135.919
 21
83.8193
 31
0.0
  0
LINE
  8
0
 62
     0
 10
135.919
 20
83.8193
 30
0.0
 11
121.919
 21
83.8193
 31
0.0
  0
LINE
  8
0
 62
     0
 10
121.919
 20
83.8193
 30
0.0
 11
121.919
 21
84.8198
 31
0.0
  0
LINE
  8
0
 62
     0
 10
121.919
 20
84.8198
 30
0.0
 11
121.118
 21
84.8198
 31
0.0
  0
LINE
  8
0
 62
     0
 10
121.118
 20
84.8198
 30
0.0
 11
121.118
 21
87.9189
 31
0.0
  0
LINE
  8
0
 62
     0
 10
121.118
 20
87.9189
 30
0.0
 11
121.919
 21
87.9189
 31
0.0
  0
LINE
  8
0
 62
     0
 10
121.919
 20
87.9189
 30
0.0
 11
121.919
 21
93.7189
 31
0.0
  0
LINE
  8
0
 62
     0
 10
121.919
 20
93.7189
 30
0.0
 11
121.118
 21
93.7189
 31
0.0
  0
LINE
  8
0
 62
     0
 10
121.118
 20
93.7189
 30
0.0
 11
121.118
 21
96.8195
 31
0.0
  0
LINE
  8
0
 62
     0
 10
121.118
 20
96.8195
 30
0.0
 11
121.919
 21
96.8195
 31
0.0
  0
LINE
  8
0
 62
     0
 10
121.919
 20
96.8195
 30
0.0
 11
121.919
 21
97.8186
 31
0.0
  0
LINE
  8
0
 62
     0
 10
121.919
 20
97.8186
 30
0.0
 11
135.919
 21
97.8186
 31
0.0
  0
LINE
  8
0
 62
     0
 10
135.919
 20
97.8186
 30
0.0
 11
135.919
 21
96.8195
 31
0.0
  0
LINE
  8
0
 62
     0
 10
135.919
 20
96.8195
 30
0.0
 11
136.719
 21
96.8195
 31
0.0
  0
LINE
  8
0
 62
     0
 10
136.719
 20
96.8195
 30
0.0
 11
136.719
 21
93.7189
 31
0.0
  0
LINE
  8
0
 62
     0
 10
136.719
 20
93.7189
 30
0.0
 11
135.919
 21
93.7189
 31
0.0
  0
LINE
  8
0
 62
     0
 10
135.919
 20
93.7189
 30
0.0
 11
135.919
 21
87.9189
 31
0.0
  0
LINE
  8
0
 62
     0
 10
135.919
 20
87.9189
 30
0.0
 11
136.719
 21
87.9189
 31
0.0
  0
LINE
  8
0
 62
     0
 10
136.719
 20
87.9189
 30
0.0
 11
136.719
 21
84.8198
 31
0.0
  0
LINE
  8
0
 62
     0
 10
136.719
 20
84.8198
 30
0.0
 11
135.919
 21
84.8198
 31
0.0
  0
LINE
  8
0
 62
     0
 10
140.681
 20
27.6696
 30
0.0
 11
140.681
 21
26.6692
 31
0.0
  0
LINE
  8
0
 62
     0
 10
140.681
 20
26.6692
 30
0.0
 11
126.682
 21
26.6692
 31
0.0
  0
LINE
  8
0
 62
     0
 10
126.682
 20
26.6692
 30
0.0
 11
126.682
 21
27.6696
 31
0.0
  0
LINE
  8
0
 62
     0
 10
126.682
 20
27.6696
 30
0.0
 11
125.881
 21
27.6696
 31
0.0
  0
LINE
  8
0
 62
     0
 10
125.881
 20
27.6696
 30
0.0
 11
125.881
 21
30.7689
 31
0.0
  0
LINE
  8
0
 62
     0
 10
125.881
 20
30.7689
 30
0.0
 11
126.682
 21
30.7689
 31
0.0
  0
LINE
  8
0
 62
     0
 10
126.682
 20
30.7689
 30
0.0
 11
126.682
 21
36.5689
 31
0.0
  0
LINE
  8
0
 62
     0
 10
126.682
 20
36.5689
 30
0.0
 11
125.881
 21
36.5689
 31
0.0
  0
LINE
  8
0
 62
     0
 10
125.881
 20
36.5689
 30
0.0
 11
125.881
 21
39.6695
 31
0.0
  0
LINE
  8
0
 62
     0
 10
125.881
 20
39.6695
 30
0.0
 11
126.682
 21
39.6695
 31
0.0
  0
LINE
  8
0
 62
     0
 10
126.682
 20
39.6695
 30
0.0
 11
126.682
 21
40.6686
 31
0.0
  0
LINE
  8
0
 62
     0
 10
126.682
 20
40.6686
 30
0.0
 11
140.681
 21
40.6686
 31
0.0
  0
LINE
  8
0
 62
     0
 10
140.681
 20
40.6686
 30
0.0
 11
140.681
 21
39.6695
 31
0.0
  0
LINE
  8
0
 62
     0
 10
140.681
 20
39.6695
 30
0.0
 11
141.482
 21
39.6695
 31
0.0
  0
LINE
  8
0
 62
     0
 10
141.482
 20
39.6695
 30
0.0
 11
141.482
 21
36.5689
 31
0.0
  0
LINE
  8
0
 62
     0
 10
141.482
 20
36.5689
 30
0.0
 11
140.681
 21
36.5689
 31
0.0
  0
LINE
  8
0
 62
     0
 10
140.681
 20
36.5689
 30
0.0
 11
140.681
 21
30.7689
 31
0.0
  0
LINE
  8
0
 62
     0
 10
140.681
 20
30.7689
 30
0.0
 11
141.482
 21
30.7689
 31
0.0
  0
LINE
  8
0
 62
     0
 10
141.482
 20
30.7689
 30
0.0
 11
141.482
 21
27.6696
 31
0.0
  0
LINE
  8
0
 62
     0
 10
141.482
 20
27.6696
 30
0.0
 11
140.681
 21
27.6696
 31
0.0
  0
LINE
  8
0
 62
     0
 10
140.681
 20
8.61963
 30
0.0
 11
140.681
 21
7.61919
 31
0.0
  0
LINE
  8
0
 62
     0
 10
140.681
 20
7.61919
 30
0.0
 11
126.682
 21
7.61919
 31
0.0
  0
LINE
  8
0
 62
     0
 10
126.682
 20
7.61919
 30
0.0
 11
126.682
 21
8.61963
 31
0.0
  0
LINE
  8
0
 62
     0
 10
126.682
 20
8.61963
 30
0.0
 11
125.881
 21
8.61963
 31
0.0
  0
LINE
  8
0
 62
     0
 10
125.881
 20
8.61963
 30
0.0
 11
125.881
 21
11.7189
 31
0.0
  0
LINE
  8
0
 62
     0
 10
125.881
 20
11.7189
 30
0.0
 11
126.682
 21
11.7189
 31
0.0
  0
LINE
  8
0
 62
     0
 10
126.682
 20
11.7189
 30
0.0
 11
126.682
 21
17.519
 31
0.0
  0
LINE
  8
0
 62
     0
 10
126.682
 20
17.519
 30
0.0
 11
125.881
 21
17.519
 31
0.0
  0
LINE
  8
0
 62
     0
 10
125.881
 20
17.519
 30
0.0
 11
125.881
 21
20.6196
 31
0.0
  0
LINE
  8
0
 62
     0
 10
125.881
 20
20.6196
 30
0.0
 11
126.682
 21
20.6196
 31
0.0
  0
LINE
  8
0
 62
     0
 10
126.682
 20
20.6196
 30
0.0
 11
126.682
 21
21.6187
 31
0.0
  0
LINE
  8
0
 62
     0
 10
126.682
 20
21.6187
 30
0.0
 11
140.681
 21
21.6187
 31
0.0
  0
LINE
  8
0
 62
     0
 10
140.681
 20
21.6187
 30
0.0
 11
140.681
 21
20.6196
 31
0.0
  0
LINE
  8
0
 62
     0
 10
140.681
 20
20.6196
 30
0.0
 11
141.482
 21
20.6196
 31
0.0
  0
LINE
  8
0
 62
     0
 10
141.482
 20
20.6196
 30
0.0
 11
141.482
 21
17.519
 31
0.0
  0
LINE
  8
0
 62
     0
 10
141.482
 20
17.519
 30
0.0
 11
140.681
 21
17.519
 31
0.0
  0
LINE
  8
0
 62
     0
 10
140.681
 20
17.519
 30
0.0
 11
140.681
 21
11.7189
 31
0.0
  0
LINE
  8
0
 62
     0
 10
140.681
 20
11.7189
 30
0.0
 11
141.482
 21
11.7189
 31
0.0
  0
LINE
  8
0
 62
     0
 10
141.482
 20
11.7189
 30
0.0
 11
141.482
 21
8.61963
 31
0.0
  0
LINE
  8
0
 62
     0
 10
141.482
 20
8.61963
 30
0.0
 11
140.681
 21
8.61963
 31
0.0
  0
LINE
  8
0
 62
     0
 10
145.444
 20
65.7698
 30
0.0
 11
145.444
 21
64.7693
 31
0.0
  0
LINE
  8
0
 62
     0
 10
145.444
 20
64.7693
 30
0.0
 11
131.444
 21
64.7693
 31
0.0
  0
LINE
  8
0
 62
     0
 10
131.444
 20
64.7693
 30
0.0
 11
131.444
 21
65.7698
 31
0.0
  0
LINE
  8
0
 62
     0
 10
131.444
 20
65.7698
 30
0.0
 11
130.643
 21
65.7698
 31
0.0
  0
LINE
  8
0
 62
     0
 10
130.643
 20
65.7698
 30
0.0
 11
130.643
 21
68.8689
 31
0.0
  0
LINE
  8
0
 62
     0
 10
130.643
 20
68.8689
 30
0.0
 11
131.444
 21
68.8689
 31
0.0
  0
LINE
  8
0
 62
     0
 10
131.444
 20
68.8689
 30
0.0
 11
131.444
 21
74.6689
 31
0.0
  0
LINE
  8
0
 62
     0
 10
131.444
 20
74.6689
 30
0.0
 11
130.643
 21
74.6689
 31
0.0
  0
LINE
  8
0
 62
     0
 10
130.643
 20
74.6689
 30
0.0
 11
130.643
 21
77.7695
 31
0.0
  0
LINE
  8
0
 62
     0
 10
130.643
 20
77.7695
 30
0.0
 11
131.444
 21
77.7695
 31
0.0
  0
LINE
  8
0
 62
     0
 10
131.444
 20
77.7695
 30
0.0
 11
131.444
 21
78.7686
 31
0.0
  0
LINE
  8
0
 62
     0
 10
131.444
 20
78.7686
 30
0.0
 11
145.444
 21
78.7686
 31
0.0
  0
LINE
  8
0
 62
     0
 10
145.444
 20
78.7686
 30
0.0
 11
145.444
 21
77.7695
 31
0.0
  0
LINE
  8
0
 62
     0
 10
145.444
 20
77.7695
 30
0.0
 11
146.244
 21
77.7695
 31
0.0
  0
LINE
  8
0
 62
     0
 10
146.244
 20
77.7695
 30
0.0
 11
146.244
 21
74.6689
 31
0.0
  0
LINE
  8
0
 62
     0
 10
146.244
 20
74.6689
 30
0.0
 11
145.444
 21
74.6689
 31
0.0
  0
LINE
  8
0
 62
     0
 10
145.444
 20
74.6689
 30
0.0
 11
145.444
 21
68.8689
 31
0.0
  0
LINE
  8
0
 62
     0
 10
145.444
 20
68.8689
 30
0.0
 11
146.244
 21
68.8689
 31
0.0
  0
LINE
  8
0
 62
     0
 10
146.244
 20
68.8689
 30
0.0
 11
146.244
 21
65.7698
 31
0.0
  0
LINE
  8
0
 62
     0
 10
146.244
 20
65.7698
 30
0.0
 11
145.444
 21
65.7698
 31
0.0
  0
LINE
  8
0
 62
     0
 10
150.206
 20
46.7198
 30
0.0
 11
150.206
 21
45.7193
 31
0.0
  0
LINE
  8
0
 62
     0
 10
150.206
 20
45.7193
 30
0.0
 11
136.207
 21
45.7193
 31
0.0
  0
LINE
  8
0
 62
     0
 10
136.207
 20
45.7193
 30
0.0
 11
136.207
 21
46.7198
 31
0.0
  0
LINE
  8
0
 62
     0
 10
136.207
 20
46.7198
 30
0.0
 11
135.406
 21
46.7198
 31
0.0
  0
LINE
  8
0
 62
     0
 10
135.406
 20
46.7198
 30
0.0
 11
135.406
 21
49.8189
 31
0.0
  0
LINE
  8
0
 62
     0
 10
135.406
 20
49.8189
 30
0.0
 11
136.207
 21
49.8189
 31
0.0
  0
LINE
  8
0
 62
     0
 10
136.207
 20
49.8189
 30
0.0
 11
136.207
 21
55.6189
 31
0.0
  0
LINE
  8
0
 62
     0
 10
136.207
 20
55.6189
 30
0.0
 11
135.406
 21
55.6189
 31
0.0
  0
LINE
  8
0
 62
     0
 10
135.406
 20
55.6189
 30
0.0
 11
135.406
 21
58.7195
 31
0.0
  0
LINE
  8
0
 62
     0
 10
135.406
 20
58.7195
 30
0.0
 11
136.207
 21
58.7195
 31
0.0
  0
LINE
  8
0
 62
     0
 10
136.207
 20
58.7195
 30
0.0
 11
136.207
 21
59.7186
 31
0.0
  0
LINE
  8
0
 62
     0
 10
136.207
 20
59.7186
 30
0.0
 11
150.206
 21
59.7186
 31
0.0
  0
LINE
  8
0
 62
     0
 10
150.206
 20
59.7186
 30
0.0
 11
150.206
 21
58.7195
 31
0.0
  0
LINE
  8
0
 62
     0
 10
150.206
 20
58.7195
 30
0.0
 11
151.007
 21
58.7195
 31
0.0
  0
LINE
  8
0
 62
     0
 10
151.007
 20
58.7195
 30
0.0
 11
151.007
 21
55.6189
 31
0.0
  0
LINE
  8
0
 62
     0
 10
151.007
 20
55.6189
 30
0.0
 11
150.206
 21
55.6189
 31
0.0
  0
LINE
  8
0
 62
     0
 10
150.206
 20
55.6189
 30
0.0
 11
150.206
 21
49.8189
 31
0.0
  0
LINE
  8
0
 62
     0
 10
150.206
 20
49.8189
 30
0.0
 11
151.007
 21
49.8189
 31
0.0
  0
LINE
  8
0
 62
     0
 10
151.007
 20
49.8189
 30
0.0
 11
151.007
 21
46.7198
 31
0.0
  0
LINE
  8
0
 62
     0
 10
151.007
 20
46.7198
 30
0.0
 11
150.206
 21
46.7198
 31
0.0
  0
LINE
  8
0
 62
     0
 10
154.969
 20
84.8198
 30
0.0
 11
154.969
 21
83.8193
 31
0.0
  0
LINE
  8
0
 62
     0
 10
154.969
 20
83.8193
 30
0.0
 11
140.969
 21
83.8193
 31
0.0
  0
LINE
  8
0
 62
     0
 10
140.969
 20
83.8193
 30
0.0
 11
140.969
 21
84.8198
 31
0.0
  0
LINE
  8
0
 62
     0
 10
140.969
 20
84.8198
 30
0.0
 11
140.168
 21
84.8198
 31
0.0
  0
LINE
  8
0
 62
     0
 10
140.168
 20
84.8198
 30
0.0
 11
140.168
 21
87.9189
 31
0.0
  0
LINE
  8
0
 62
     0
 10
140.168
 20
87.9189
 30
0.0
 11
140.969
 21
87.9189
 31
0.0
  0
LINE
  8
0
 62
     0
 10
140.969
 20
87.9189
 30
0.0
 11
140.969
 21
93.7189
 31
0.0
  0
LINE
  8
0
 62
     0
 10
140.969
 20
93.7189
 30
0.0
 11
140.168
 21
93.7189
 31
0.0
  0
LINE
  8
0
 62
     0
 10
140.168
 20
93.7189
 30
0.0
 11
140.168
 21
96.8195
 31
0.0
  0
LINE
  8
0
 62
     0
 10
140.168
 20
96.8195
 30
0.0
 11
140.969
 21
96.8195
 31
0.0
  0
LINE
  8
0
 62
     0
 10
140.969
 20
96.8195
 30
0.0
 11
140.969
 21
97.8186
 31
0.0
  0
LINE
  8
0
 62
     0
 10
140.969
 20
97.8186
 30
0.0
 11
154.969
 21
97.8186
 31
0.0
  0
LINE
  8
0
 62
     0
 10
154.969
 20
97.8186
 30
0.0
 11
154.969
 21
96.8195
 31
0.0
  0
LINE
  8
0
 62
     0
 10
154.969
 20
96.8195
 30
0.0
 11
155.769
 21
96.8195
 31
0.0
  0
LINE
  8
0
 62
     0
 10
155.769
 20
96.8195
 30
0.0
 11
155.769
 21
93.7189
 31
0.0
  0
LINE
  8
0
 62
     0
 10
155.769
 20
93.7189
 30
0.0
 11
154.969
 21
93.7189
 31
0.0
  0
LINE
  8
0
 62
     0
 10
154.969
 20
93.7189
 30
0.0
 11
154.969
 21
87.9189
 31
0.0
  0
LINE
  8
0
 62
     0
 10
154.969
 20
87.9189
 30
0.0
 11
155.769
 21
87.9189
 31
0.0
  0
LINE
  8
0
 62
     0
 10
155.769
 20
87.9189
 30
0.0
 11
155.769
 21
84.8198
 31
0.0
  0
LINE
  8
0
 62
     0
 10
155.769
 20
84.8198
 30
0.0
 11
154.969
 21
84.8198
 31
0.0
  0
LINE
  8
0
 62
     0
 10
159.731
 20
27.6696
 30
0.0
 11
159.731
 21
26.6692
 31
0.0
  0
LINE
  8
0
 62
     0
 10
159.731
 20
26.6692
 30
0.0
 11
145.732
 21
26.6692
 31
0.0
  0
LINE
  8
0
 62
     0
 10
145.732
 20
26.6692
 30
0.0
 11
145.732
 21
27.6696
 31
0.0
  0
LINE
  8
0
 62
     0
 10
145.732
 20
27.6696
 30
0.0
 11
144.932
 21
27.6696
 31
0.0
  0
LINE
  8
0
 62
     0
 10
144.932
 20
27.6696
 30
0.0
 11
144.932
 21
30.7689
 31
0.0
  0
LINE
  8
0
 62
     0
 10
144.932
 20
30.7689
 30
0.0
 11
145.732
 21
30.7689
 31
0.0
  0
LINE
  8
0
 62
     0
 10
145.732
 20
30.7689
 30
0.0
 11
145.732
 21
36.5689
 31
0.0
  0
LINE
  8
0
 62
     0
 10
145.732
 20
36.5689
 30
0.0
 11
144.932
 21
36.5689
 31
0.0
  0
LINE
  8
0
 62
     0
 10
144.932
 20
36.5689
 30
0.0
 11
144.932
 21
39.6695
 31
0.0
  0
LINE
  8
0
 62
     0
 10
144.932
 20
39.6695
 30
0.0
 11
145.732
 21
39.6695
 31
0.0
  0
LINE
  8
0
 62
     0
 10
145.732
 20
39.6695
 30
0.0
 11
145.732
 21
40.6686
 31
0.0
  0
LINE
  8
0
 62
     0
 10
145.732
 20
40.6686
 30
0.0
 11
159.731
 21
40.6686
 31
0.0
  0
LINE
  8
0
 62
     0
 10
159.731
 20
40.6686
 30
0.0
 11
159.731
 21
39.6695
 31
0.0
  0
LINE
  8
0
 62
     0
 10
159.731
 20
39.6695
 30
0.0
 11
160.532
 21
39.6695
 31
0.0
  0
LINE
  8
0
 62
     0
 10
160.532
 20
39.6695
 30
0.0
 11
160.532
 21
36.5689
 31
0.0
  0
LINE
  8
0
 62
     0
 10
160.532
 20
36.5689
 30
0.0
 11
159.731
 21
36.5689
 31
0.0
  0
LINE
  8
0
 62
     0
 10
159.731
 20
36.5689
 30
0.0
 11
159.731
 21
30.7689
 31
0.0
  0
LINE
  8
0
 62
     0
 10
159.731
 20
30.7689
 30
0.0
 11
160.532
 21
30.7689
 31
0.0
  0
LINE
  8
0
 62
     0
 10
160.532
 20
30.7689
 30
0.0
 11
160.532
 21
27.6696
 31
0.0
  0
LINE
  8
0
 62
     0
 10
160.532
 20
27.6696
 30
0.0
 11
159.731
 21
27.6696
 31
0.0
  0
LINE
  8
0
 62
     0
 10
164.494
 20
65.7698
 30
0.0
 11
164.494
 21
64.7693
 31
0.0
  0
LINE
  8
0
 62
     0
 10
164.494
 20
64.7693
 30
0.0
 11
150.494
 21
64.7693
 31
0.0
  0
LINE
  8
0
 62
     0
 10
150.494
 20
64.7693
 30
0.0
 11
150.494
 21
65.7698
 31
0.0
  0
LINE
  8
0
 62
     0
 10
150.494
 20
65.7698
 30
0.0
 11
149.693
 21
65.7698
 31
0.0
  0
LINE
  8
0
 62
     0
 10
149.693
 20
65.7698
 30
0.0
 11
149.693
 21
68.8689
 31
0.0
  0
LINE
  8
0
 62
     0
 10
149.693
 20
68.8689
 30
0.0
 11
150.494
 21
68.8689
 31
0.0
  0
LINE
  8
0
 62
     0
 10
150.494
 20
68.8689
 30
0.0
 11
150.494
 21
74.6689
 31
0.0
  0
LINE
  8
0
 62
     0
 10
150.494
 20
74.6689
 30
0.0
 11
149.693
 21
74.6689
 31
0.0
  0
LINE
  8
0
 62
     0
 10
149.693
 20
74.6689
 30
0.0
 11
149.693
 21
77.7695
 31
0.0
  0
LINE
  8
0
 62
     0
 10
149.693
 20
77.7695
 30
0.0
 11
150.494
 21
77.7695
 31
0.0
  0
LINE
  8
0
 62
     0
 10
150.494
 20
77.7695
 30
0.0
 11
150.494
 21
78.7686
 31
0.0
  0
LINE
  8
0
 62
     0
 10
150.494
 20
78.7686
 30
0.0
 11
164.494
 21
78.7686
 31
0.0
  0
LINE
  8
0
 62
     0
 10
164.494
 20
78.7686
 30
0.0
 11
164.494
 21
77.7695
 31
0.0
  0
LINE
  8
0
 62
     0
 10
164.494
 20
77.7695
 30
0.0
 11
165.294
 21
77.7695
 31
0.0
  0
LINE
  8
0
 62
     0
 10
165.294
 20
77.7695
 30
0.0
 11
165.294
 21
74.6689
 31
0.0
  0
LINE
  8
0
 62
     0
 10
165.294
 20
74.6689
 30
0.0
 11
164.494
 21
74.6689
 31
0.0
  0
LINE
  8
0
 62
     0
 10
164.494
 20
74.6689
 30
0.0
 11
164.494
 21
68.8689
 31
0.0
  0
LINE
  8
0
 62
     0
 10
164.494
 20
68.8689
 30
0.0
 11
165.294
 21
68.8689
 31
0.0
  0
LINE
  8
0
 62
     0
 10
165.294
 20
68.8689
 30
0.0
 11
165.294
 21
65.7698
 31
0.0
  0
LINE
  8
0
 62
     0
 10
165.294
 20
65.7698
 30
0.0
 11
164.494
 21
65.7698
 31
0.0
  0
LINE
  8
0
 62
     0
 10
169.256
 20
46.7198
 30
0.0
 11
169.256
 21
45.7193
 31
0.0
  0
LINE
  8
0
 62
     0
 10
169.256
 20
45.7193
 30
0.0
 11
155.257
 21
45.7193
 31
0.0
  0
LINE
  8
0
 62
     0
 10
155.257
 20
45.7193
 30
0.0
 11
155.257
 21
46.7198
 31
0.0
  0
LINE
  8
0
 62
     0
 10
155.257
 20
46.7198
 30
0.0
 11
154.457
 21
46.7198
 31
0.0
  0
LINE
  8
0
 62
     0
 10
154.457
 20
46.7198
 30
0.0
 11
154.457
 21
49.8189
 31
0.0
  0
LINE
  8
0
 62
     0
 10
154.457
 20
49.8189
 30
0.0
 11
155.257
 21
49.8189
 31
0.0
  0
LINE
  8
0
 62
     0
 10
155.257
 20
49.8189
 30
0.0
 11
155.257
 21
55.6189
 31
0.0
  0
LINE
  8
0
 62
     0
 10
155.257
 20
55.6189
 30
0.0
 11
154.457
 21
55.6189
 31
0.0
  0
LINE
  8
0
 62
     0
 10
154.457
 20
55.6189
 30
0.0
 11
154.457
 21
58.7195
 31
0.0
  0
LINE
  8
0
 62
     0
 10
154.457
 20
58.7195
 30
0.0
 11
155.257
 21
58.7195
 31
0.0
  0
LINE
  8
0
 62
     0
 10
155.257
 20
58.7195
 30
0.0
 11
155.257
 21
59.7186
 31
0.0
  0
LINE
  8
0
 62
     0
 10
155.257
 20
59.7186
 30
0.0
 11
169.256
 21
59.7186
 31
0.0
  0
LINE
  8
0
 62
     0
 10
169.256
 20
59.7186
 30
0.0
 11
169.256
 21
58.7195
 31
0.0
  0
LINE
  8
0
 62
     0
 10
169.256
 20
58.7195
 30
0.0
 11
170.057
 21
58.7195
 31
0.0
  0
LINE
  8
0
 62
     0
 10
170.057
 20
58.7195
 30
0.0
 11
170.057
 21
55.6189
 31
0.0
  0
LINE
  8
0
 62
     0
 10
170.057
 20
55.6189
 30
0.0
 11
169.256
 21
55.6189
 31
0.0
  0
LINE
  8
0
 62
     0
 10
169.256
 20
55.6189
 30
0.0
 11
169.256
 21
49.8189
 31
0.0
  0
LINE
  8
0
 62
     0
 10
169.256
 20
49.8189
 30
0.0
 11
170.057
 21
49.8189
 31
0.0
  0
LINE
  8
0
 62
     0
 10
170.057
 20
49.8189
 30
0.0
 11
170.057
 21
46.7198
 31
0.0
  0
LINE
  8
0
 62
     0
 10
170.057
 20
46.7198
 30
0.0
 11
169.256
 21
46.7198
 31
0.0
  0
LINE
  8
0
 62
     0
 10
174.019
 20
84.8198
 30
0.0
 11
174.019
 21
83.8193
 31
0.0
  0
LINE
  8
0
 62
     0
 10
174.019
 20
83.8193
 30
0.0
 11
160.019
 21
83.8193
 31
0.0
  0
LINE
  8
0
 62
     0
 10
160.019
 20
83.8193
 30
0.0
 11
160.019
 21
84.8198
 31
0.0
  0
LINE
  8
0
 62
     0
 10
160.019
 20
84.8198
 30
0.0
 11
159.218
 21
84.8198
 31
0.0
  0
LINE
  8
0
 62
     0
 10
159.218
 20
84.8198
 30
0.0
 11
159.218
 21
87.9189
 31
0.0
  0
LINE
  8
0
 62
     0
 10
159.218
 20
87.9189
 30
0.0
 11
160.019
 21
87.9189
 31
0.0
  0
LINE
  8
0
 62
     0
 10
160.019
 20
87.9189
 30
0.0
 11
160.019
 21
93.7189
 31
0.0
  0
LINE
  8
0
 62
     0
 10
160.019
 20
93.7189
 30
0.0
 11
159.218
 21
93.7189
 31
0.0
  0
LINE
  8
0
 62
     0
 10
159.218
 20
93.7189
 30
0.0
 11
159.218
 21
96.8195
 31
0.0
  0
LINE
  8
0
 62
     0
 10
159.218
 20
96.8195
 30
0.0
 11
160.019
 21
96.8195
 31
0.0
  0
LINE
  8
0
 62
     0
 10
160.019
 20
96.8195
 30
0.0
 11
160.019
 21
97.8186
 31
0.0
  0
LINE
  8
0
 62
     0
 10
160.019
 20
97.8186
 30
0.0
 11
174.019
 21
97.8186
 31
0.0
  0
LINE
  8
0
 62
     0
 10
174.019
 20
97.8186
 30
0.0
 11
174.019
 21
96.8195
 31
0.0
  0
LINE
  8
0
 62
     0
 10
174.019
 20
96.8195
 30
0.0
 11
174.819
 21
96.8195
 31
0.0
  0
LINE
  8
0
 62
     0
 10
174.819
 20
96.8195
 30
0.0
 11
174.819
 21
93.7189
 31
0.0
  0
LINE
  8
0
 62
     0
 10
174.819
 20
93.7189
 30
0.0
 11
174.019
 21
93.7189
 31
0.0
  0
LINE
  8
0
 62
     0
 10
174.019
 20
93.7189
 30
0.0
 11
174.019
 21
87.9189
 31
0.0
  0
LINE
  8
0
 62
     0
 10
174.019
 20
87.9189
 30
0.0
 11
174.819
 21
87.9189
 31
0.0
  0
LINE
  8
0
 62
     0
 10
174.819
 20
87.9189
 30
0.0
 11
174.819
 21
84.8198
 31
0.0
  0
LINE
  8
0
 62
     0
 10
174.819
 20
84.8198
 30
0.0
 11
174.019
 21
84.8198
 31
0.0
  0
LINE
  8
0
 62
     0
 10
178.781
 20
27.6696
 30
0.0
 11
178.781
 21
26.6692
 31
0.0
  0
LINE
  8
0
 62
     0
 10
178.781
 20
26.6692
 30
0.0
 11
164.782
 21
26.6692
 31
0.0
  0
LINE
  8
0
 62
     0
 10
164.782
 20
26.6692
 30
0.0
 11
164.782
 21
27.6696
 31
0.0
  0
LINE
  8
0
 62
     0
 10
164.782
 20
27.6696
 30
0.0
 11
163.982
 21
27.6696
 31
0.0
  0
LINE
  8
0
 62
     0
 10
163.982
 20
27.6696
 30
0.0
 11
163.982
 21
30.7689
 31
0.0
  0
LINE
  8
0
 62
     0
 10
163.982
 20
30.7689
 30
0.0
 11
164.782
 21
30.7689
 31
0.0
  0
LINE
  8
0
 62
     0
 10
164.782
 20
30.7689
 30
0.0
 11
164.782
 21
36.5689
 31
0.0
  0
LINE
  8
0
 62
     0
 10
164.782
 20
36.5689
 30
0.0
 11
163.982
 21
36.5689
 31
0.0
  0
LINE
  8
0
 62
     0
 10
163.982
 20
36.5689
 30
0.0
 11
163.982
 21
39.6695
 31
0.0
  0
LINE
  8
0
 62
     0
 10
163.982
 20
39.6695
 30
0.0
 11
164.782
 21
39.6695
 31
0.0
  0
LINE
  8
0
 62
     0
 10
164.782
 20
39.6695
 30
0.0
 11
164.782
 21
40.6686
 31
0.0
  0
LINE
  8
0
 62
     0
 10
164.782
 20
40.6686
 30
0.0
 11
178.781
 21
40.6686
 31
0.0
  0
LINE
  8
0
 62
     0
 10
178.781
 20
40.6686
 30
0.0
 11
178.781
 21
39.6695
 31
0.0
  0
LINE
  8
0
 62
     0
 10
178.781
 20
39.6695
 30
0.0
 11
179.582
 21
39.6695
 31
0.0
  0
LINE
  8
0
 62
     0
 10
179.582
 20
39.6695
 30
0.0
 11
179.582
 21
36.5689
 31
0.0
  0
LINE
  8
0
 62
     0
 10
179.582
 20
36.5689
 30
0.0
 11
178.781
 21
36.5689
 31
0.0
  0
LINE
  8
0
 62
     0
 10
178.781
 20
36.5689
 30
0.0
 11
178.781
 21
30.7689
 31
0.0
  0
LINE
  8
0
 62
     0
 10
178.781
 20
30.7689
 30
0.0
 11
179.582
 21
30.7689
 31
0.0
  0
LINE
  8
0
 62
     0
 10
179.582
 20
30.7689
 30
0.0
 11
179.582
 21
27.6696
 31
0.0
  0
LINE
  8
0
 62
     0
 10
179.582
 20
27.6696
 30
0.0
 11
178.781
 21
27.6696
 31
0.0
  0
LINE
  8
0
 62
     0
 10
183.544
 20
65.7698
 30
0.0
 11
183.544
 21
64.7693
 31
0.0
  0
LINE
  8
0
 62
     0
 10
183.544
 20
64.7693
 30
0.0
 11
169.544
 21
64.7693
 31
0.0
  0
LINE
  8
0
 62
     0
 10
169.544
 20
64.7693
 30
0.0
 11
169.544
 21
65.7698
 31
0.0
  0
LINE
  8
0
 62
     0
 10
169.544
 20
65.7698
 30
0.0
 11
168.743
 21
65.7698
 31
0.0
  0
LINE
  8
0
 62
     0
 10
168.743
 20
65.7698
 30
0.0
 11
168.743
 21
68.8689
 31
0.0
  0
LINE
  8
0
 62
     0
 10
168.743
 20
68.8689
 30
0.0
 11
169.544
 21
68.8689
 31
0.0
  0
LINE
  8
0
 62
     0
 10
169.544
 20
68.8689
 30
0.0
 11
169.544
 21
74.6689
 31
0.0
  0
LINE
  8
0
 62
     0
 10
169.544
 20
74.6689
 30
0.0
 11
168.743
 21
74.6689
 31
0.0
  0
LINE
  8
0
 62
     0
 10
168.743
 20
74.6689
 30
0.0
 11
168.743
 21
77.7695
 31
0.0
  0
LINE
  8
0
 62
     0
 10
168.743
 20
77.7695
 30
0.0
 11
169.544
 21
77.7695
 31
0.0
  0
LINE
  8
0
 62
     0
 10
169.544
 20
77.7695
 30
0.0
 11
169.544
 21
78.7686
 31
0.0
  0
LINE
  8
0
 62
     0
 10
169.544
 20
78.7686
 30
0.0
 11
183.544
 21
78.7686
 31
0.0
  0
LINE
  8
0
 62
     0
 10
183.544
 20
78.7686
 30
0.0
 11
183.544
 21
77.7695
 31
0.0
  0
LINE
  8
0
 62
     0
 10
183.544
 20
77.7695
 30
0.0
 11
184.344
 21
77.7695
 31
0.0
  0
LINE
  8
0
 62
     0
 10
184.344
 20
77.7695
 30
0.0
 11
184.344
 21
74.6689
 31
0.0
  0
LINE
  8
0
 62
     0
 10
184.344
 20
74.6689
 30
0.0
 11
183.544
 21
74.6689
 31
0.0
  0
LINE
  8
0
 62
     0
 10
183.544
 20
74.6689
 30
0.0
 11
183.544
 21
68.8689
 31
0.0
  0
LINE
  8
0
 62
     0
 10
183.544
 20
68.8689
 30
0.0
 11
184.344
 21
68.8689
 31
0.0
  0
LINE
  8
0
 62
     0
 10
184.344
 20
68.8689
 30
0.0
 11
184.344
 21
65.7698
 31
0.0
  0
LINE
  8
0
 62
     0
 10
184.344
 20
65.7698
 30
0.0
 11
183.544
 21
65.7698
 31
0.0
  0
LINE
  8
0
 62
     0
 10
184.626
 20
14.1194
 30
0.0
 11
184.626
 21
7.84931
 31
0.0
  0
LINE
  8
0
 62
     0
 10
184.626
 20
7.84931
 30
0.0
 11
182.999
 21
7.84931
 31
0.0
  0
LINE
  8
0
 62
     0
 10
182.999
 20
7.84931
 30
0.0
 11
182.999
 21
6.64905
 31
0.0
  0
LINE
  8
0
 62
     0
 10
182.999
 20
6.64905
 30
0.0
 11
179.7
 21
6.64905
 31
0.0
  0
LINE
  8
0
 62
     0
 10
179.7
 20
6.64905
 30
0.0
 11
179.7
 21
7.84931
 31
0.0
  0
LINE
  8
0
 62
     0
 10
179.7
 20
7.84931
 30
0.0
 11
177.975
 21
7.84931
 31
0.0
  0
LINE
  8
0
 62
     0
 10
177.975
 20
7.84931
 30
0.0
 11
177.975
 21
8.64856
 31
0.0
  0
LINE
  8
0
 62
     0
 10
177.975
 20
8.64856
 30
0.0
 11
177.199
 21
8.64856
 31
0.0
  0
LINE
  8
0
 62
     0
 10
177.199
 20
8.64856
 30
0.0
 11
177.199
 21
8.61963
 31
0.0
  0
LINE
  8
0
 62
     0
 10
177.199
 20
8.61963
 30
0.0
 11
176.4
 21
8.61963
 31
0.0
  0
LINE
  8
0
 62
     0
 10
176.4
 20
8.61963
 30
0.0
 11
176.4
 21
7.61919
 31
0.0
  0
LINE
  8
0
 62
     0
 10
176.4
 20
7.61919
 30
0.0
 11
162.401
 21
7.61919
 31
0.0
  0
LINE
  8
0
 62
     0
 10
162.401
 20
7.61919
 30
0.0
 11
162.401
 21
8.61963
 31
0.0
  0
LINE
  8
0
 62
     0
 10
162.401
 20
8.61963
 30
0.0
 11
161.6
 21
8.61963
 31
0.0
  0
LINE
  8
0
 62
     0
 10
161.6
 20
8.61963
 30
0.0
 11
161.6
 21
8.64856
 31
0.0
  0
LINE
  8
0
 62
     0
 10
161.6
 20
8.64856
 30
0.0
 11
160.825
 21
8.64856
 31
0.0
  0
LINE
  8
0
 62
     0
 10
160.825
 20
8.64856
 30
0.0
 11
160.825
 21
7.84931
 31
0.0
  0
LINE
  8
0
 62
     0
 10
160.825
 20
7.84931
 30
0.0
 11
159.1
 21
7.84931
 31
0.0
  0
LINE
  8
0
 62
     0
 10
159.1
 20
7.84931
 30
0.0
 11
159.1
 21
6.64905
 31
0.0
  0
LINE
  8
0
 62
     0
 10
159.1
 20
6.64905
 30
0.0
 11
155.8
 21
6.64905
 31
0.0
  0
LINE
  8
0
 62
     0
 10
155.8
 20
6.64905
 30
0.0
 11
155.8
 21
7.84931
 31
0.0
  0
LINE
  8
0
 62
     0
 10
155.8
 20
7.84931
 30
0.0
 11
154.175
 21
7.84931
 31
0.0
  0
LINE
  8
0
 62
     0
 10
154.175
 20
7.84931
 30
0.0
 11
154.175
 21
14.1194
 31
0.0
  0
LINE
  8
0
 62
     0
 10
154.175
 20
14.1194
 30
0.0
 11
153.3
 21
14.1194
 31
0.0
  0
LINE
  8
0
 62
     0
 10
153.3
 20
14.1194
 30
0.0
 11
153.3
 21
16.9195
 31
0.0
  0
LINE
  8
0
 62
     0
 10
153.3
 20
16.9195
 30
0.0
 11
154.175
 21
16.9195
 31
0.0
  0
LINE
  8
0
 62
     0
 10
154.175
 20
16.9195
 30
0.0
 11
154.175
 21
20.1497
 31
0.0
  0
LINE
  8
0
 62
     0
 10
154.175
 20
20.1497
 30
0.0
 11
160.825
 21
20.1497
 31
0.0
  0
LINE
  8
0
 62
     0
 10
160.825
 20
20.1497
 30
0.0
 11
160.825
 21
19.349
 31
0.0
  0
LINE
  8
0
 62
     0
 10
160.825
 20
19.349
 30
0.0
 11
161.6
 21
19.349
 31
0.0
  0
LINE
  8
0
 62
     0
 10
161.6
 20
19.349
 30
0.0
 11
161.6
 21
20.6196
 31
0.0
  0
LINE
  8
0
 62
     0
 10
161.6
 20
20.6196
 30
0.0
 11
162.401
 21
20.6196
 31
0.0
  0
LINE
  8
0
 62
     0
 10
162.401
 20
20.6196
 30
0.0
 11
162.401
 21
21.6187
 31
0.0
  0
LINE
  8
0
 62
     0
 10
162.401
 20
21.6187
 30
0.0
 11
176.4
 21
21.6187
 31
0.0
  0
LINE
  8
0
 62
     0
 10
176.4
 20
21.6187
 30
0.0
 11
176.4
 21
20.6196
 31
0.0
  0
LINE
  8
0
 62
     0
 10
176.4
 20
20.6196
 30
0.0
 11
177.199
 21
20.6196
 31
0.0
  0
LINE
  8
0
 62
     0
 10
177.199
 20
20.6196
 30
0.0
 11
177.199
 21
19.349
 31
0.0
  0
LINE
  8
0
 62
     0
 10
177.199
 20
19.349
 30
0.0
 11
177.975
 21
19.349
 31
0.0
  0
LINE
  8
0
 62
     0
 10
177.975
 20
19.349
 30
0.0
 11
177.975
 21
20.1497
 31
0.0
  0
LINE
  8
0
 62
     0
 10
177.975
 20
20.1497
 30
0.0
 11
184.626
 21
20.1497
 31
0.0
  0
LINE
  8
0
 62
     0
 10
184.626
 20
20.1497
 30
0.0
 11
184.626
 21
16.9195
 31
0.0
  0
LINE
  8
0
 62
     0
 10
184.626
 20
16.9195
 30
0.0
 11
185.499
 21
16.9195
 31
0.0
  0
LINE
  8
0
 62
     0
 10
185.499
 20
16.9195
 30
0.0
 11
185.499
 21
14.1194
 31
0.0
  0
LINE
  8
0
 62
     0
 10
185.499
 20
14.1194
 30
0.0
 11
184.626
 21
14.1194
 31
0.0
  0
LINE
  8
0
 62
     0
 10
188.306
 20
46.7198
 30
0.0
 11
188.306
 21
45.7193
 31
0.0
  0
LINE
  8
0
 62
     0
 10
188.306
 20
45.7193
 30
0.0
 11
174.307
 21
45.7193
 31
0.0
  0
LINE
  8
0
 62
     0
 10
174.307
 20
45.7193
 30
0.0
 11
174.307
 21
46.7198
 31
0.0
  0
LINE
  8
0
 62
     0
 10
174.307
 20
46.7198
 30
0.0
 11
173.507
 21
46.7198
 31
0.0
  0
LINE
  8
0
 62
     0
 10
173.507
 20
46.7198
 30
0.0
 11
173.507
 21
49.8189
 31
0.0
  0
LINE
  8
0
 62
     0
 10
173.507
 20
49.8189
 30
0.0
 11
174.307
 21
49.8189
 31
0.0
  0
LINE
  8
0
 62
     0
 10
174.307
 20
49.8189
 30
0.0
 11
174.307
 21
55.6189
 31
0.0
  0
LINE
  8
0
 62
     0
 10
174.307
 20
55.6189
 30
0.0
 11
173.507
 21
55.6189
 31
0.0
  0
LINE
  8
0
 62
     0
 10
173.507
 20
55.6189
 30
0.0
 11
173.507
 21
58.7195
 31
0.0
  0
LINE
  8
0
 62
     0
 10
173.507
 20
58.7195
 30
0.0
 11
174.307
 21
58.7195
 31
0.0
  0
LINE
  8
0
 62
     0
 10
174.307
 20
58.7195
 30
0.0
 11
174.307
 21
59.7186
 31
0.0
  0
LINE
  8
0
 62
     0
 10
174.307
 20
59.7186
 30
0.0
 11
188.306
 21
59.7186
 31
0.0
  0
LINE
  8
0
 62
     0
 10
188.306
 20
59.7186
 30
0.0
 11
188.306
 21
58.7195
 31
0.0
  0
LINE
  8
0
 62
     0
 10
188.306
 20
58.7195
 30
0.0
 11
189.107
 21
58.7195
 31
0.0
  0
LINE
  8
0
 62
     0
 10
189.107
 20
58.7195
 30
0.0
 11
189.107
 21
55.6189
 31
0.0
  0
LINE
  8
0
 62
     0
 10
189.107
 20
55.6189
 30
0.0
 11
188.306
 21
55.6189
 31
0.0
  0
LINE
  8
0
 62
     0
 10
188.306
 20
55.6189
 30
0.0
 11
188.306
 21
49.8189
 31
0.0
  0
LINE
  8
0
 62
     0
 10
188.306
 20
49.8189
 30
0.0
 11
189.107
 21
49.8189
 31
0.0
  0
LINE
  8
0
 62
     0
 10
189.107
 20
49.8189
 30
0.0
 11
189.107
 21
46.7198
 31
0.0
  0
LINE
  8
0
 62
     0
 10
189.107
 20
46.7198
 30
0.0
 11
188.306
 21
46.7198
 31
0.0
  0
LINE
  8
0
 62
     0
 10
193.069
 20
84.8198
 30
0.0
 11
193.069
 21
83.8193
 31
0.0
  0
LINE
  8
0
 62
     0
 10
193.069
 20
83.8193
 30
0.0
 11
179.069
 21
83.8193
 31
0.0
  0
LINE
  8
0
 62
     0
 10
179.069
 20
83.8193
 30
0.0
 11
179.069
 21
84.8198
 31
0.0
  0
LINE
  8
0
 62
     0
 10
179.069
 20
84.8198
 30
0.0
 11
178.268
 21
84.8198
 31
0.0
  0
LINE
  8
0
 62
     0
 10
178.268
 20
84.8198
 30
0.0
 11
178.268
 21
87.9189
 31
0.0
  0
LINE
  8
0
 62
     0
 10
178.268
 20
87.9189
 30
0.0
 11
179.069
 21
87.9189
 31
0.0
  0
LINE
  8
0
 62
     0
 10
179.069
 20
87.9189
 30
0.0
 11
179.069
 21
93.7189
 31
0.0
  0
LINE
  8
0
 62
     0
 10
179.069
 20
93.7189
 30
0.0
 11
178.268
 21
93.7189
 31
0.0
  0
LINE
  8
0
 62
     0
 10
178.268
 20
93.7189
 30
0.0
 11
178.268
 21
96.8195
 31
0.0
  0
LINE
  8
0
 62
     0
 10
178.268
 20
96.8195
 30
0.0
 11
179.069
 21
96.8195
 31
0.0
  0
LINE
  8
0
 62
     0
 10
179.069
 20
96.8195
 30
0.0
 11
179.069
 21
97.8186
 31
0.0
  0
LINE
  8
0
 62
     0
 10
179.069
 20
97.8186
 30
0.0
 11
193.069
 21
97.8186
 31
0.0
  0
LINE
  8
0
 62
     0
 10
193.069
 20
97.8186
 30
0.0
 11
193.069
 21
96.8195
 31
0.0
  0
LINE
  8
0
 62
     0
 10
193.069
 20
96.8195
 30
0.0
 11
193.869
 21
96.8195
 31
0.0
  0
LINE
  8
0
 62
     0
 10
193.869
 20
96.8195
 30
0.0
 11
193.869
 21
93.7189
 31
0.0
  0
LINE
  8
0
 62
     0
 10
193.869
 20
93.7189
 30
0.0
 11
193.069
 21
93.7189
 31
0.0
  0
LINE
  8
0
 62
     0
 10
193.069
 20
93.7189
 30
0.0
 11
193.069
 21
87.9189
 31
0.0
  0
LINE
  8
0
 62
     0
 10
193.069
 20
87.9189
 30
0.0
 11
193.869
 21
87.9189
 31
0.0
  0
LINE
  8
0
 62
     0
 10
193.869
 20
87.9189
 30
0.0
 11
193.869
 21
84.8198
 31
0.0
  0
LINE
  8
0
 62
     0
 10
193.869
 20
84.8198
 30
0.0
 11
193.069
 21
84.8198
 31
0.0
  0
LINE
  8
0
 62
     0
 10
197.831
 20
27.6696
 30
0.0
 11
197.831
 21
26.6692
 31
0.0
  0
LINE
  8
0
 62
     0
 10
197.831
 20
26.6692
 30
0.0
 11
183.832
 21
26.6692
 31
0.0
  0
LINE
  8
0
 62
     0
 10
183.832
 20
26.6692
 30
0.0
 11
183.832
 21
27.6696
 31
0.0
  0
LINE
  8
0
 62
     0
 10
183.832
 20
27.6696
 30
0.0
 11
183.032
 21
27.6696
 31
0.0
  0
LINE
  8
0
 62
     0
 10
183.032
 20
27.6696
 30
0.0
 11
183.032
 21
30.7689
 31
0.0
  0
LINE
  8
0
 62
     0
 10
183.032
 20
30.7689
 30
0.0
 11
183.832
 21
30.7689
 31
0.0
  0
LINE
  8
0
 62
     0
 10
183.832
 20
30.7689
 30
0.0
 11
183.832
 21
36.5689
 31
0.0
  0
LINE
  8
0
 62
     0
 10
183.832
 20
36.5689
 30
0.0
 11
183.032
 21
36.5689
 31
0.0
  0
LINE
  8
0
 62
     0
 10
183.032
 20
36.5689
 30
0.0
 11
183.032
 21
39.6695
 31
0.0
  0
LINE
  8
0
 62
     0
 10
183.032
 20
39.6695
 30
0.0
 11
183.832
 21
39.6695
 31
0.0
  0
LINE
  8
0
 62
     0
 10
183.832
 20
39.6695
 30
0.0
 11
183.832
 21
40.6686
 31
0.0
  0
LINE
  8
0
 62
     0
 10
183.832
 20
40.6686
 30
0.0
 11
197.831
 21
40.6686
 31
0.0
  0
LINE
  8
0
 62
     0
 10
197.831
 20
40.6686
 30
0.0
 11
197.831
 21
39.6695
 31
0.0
  0
LINE
  8
0
 62
     0
 10
197.831
 20
39.6695
 30
0.0
 11
198.632
 21
39.6695
 31
0.0
  0
LINE
  8
0
 62
     0
 10
198.632
 20
39.6695
 30
0.0
 11
198.632
 21
36.5689
 31
0.0
  0
LINE
  8
0
 62
     0
 10
198.632
 20
36.5689
 30
0.0
 11
197.831
 21
36.5689
 31
0.0
  0
LINE
  8
0
 62
     0
 10
197.831
 20
36.5689
 30
0.0
 11
197.831
 21
30.7689
 31
0.0
  0
LINE
  8
0
 62
     0
 10
197.831
 20
30.7689
 30
0.0
 11
198.632
 21
30.7689
 31
0.0
  0
LINE
  8
0
 62
     0
 10
198.632
 20
30.7689
 30
0.0
 11
198.632
 21
27.6696
 31
0.0
  0
LINE
  8
0
 62
     0
 10
198.632
 20
27.6696
 30
0.0
 11
197.831
 21
27.6696
 31
0.0
  0
LINE
  8
0
 62
     0
 10
202.594
 20
65.7698
 30
0.0
 11
202.594
 21
64.7693
 31
0.0
  0
LINE
  8
0
 62
     0
 10
202.594
 20
64.7693
 30
0.0
 11
188.594
 21
64.7693
 31
0.0
  0
LINE
  8
0
 62
     0
 10
188.594
 20
64.7693
 30
0.0
 11
188.594
 21
65.7698
 31
0.0
  0
LINE
  8
0
 62
     0
 10
188.594
 20
65.7698
 30
0.0
 11
187.793
 21
65.7698
 31
0.0
  0
LINE
  8
0
 62
     0
 10
187.793
 20
65.7698
 30
0.0
 11
187.793
 21
68.8689
 31
0.0
  0
LINE
  8
0
 62
     0
 10
187.793
 20
68.8689
 30
0.0
 11
188.594
 21
68.8689
 31
0.0
  0
LINE
  8
0
 62
     0
 10
188.594
 20
68.8689
 30
0.0
 11
188.594
 21
74.6689
 31
0.0
  0
LINE
  8
0
 62
     0
 10
188.594
 20
74.6689
 30
0.0
 11
187.793
 21
74.6689
 31
0.0
  0
LINE
  8
0
 62
     0
 10
187.793
 20
74.6689
 30
0.0
 11
187.793
 21
77.7695
 31
0.0
  0
LINE
  8
0
 62
     0
 10
187.793
 20
77.7695
 30
0.0
 11
188.594
 21
77.7695
 31
0.0
  0
LINE
  8
0
 62
     0
 10
188.594
 20
77.7695
 30
0.0
 11
188.594
 21
78.7686
 31
0.0
  0
LINE
  8
0
 62
     0
 10
188.594
 20
78.7686
 30
0.0
 11
202.594
 21
78.7686
 31
0.0
  0
LINE
  8
0
 62
     0
 10
202.594
 20
78.7686
 30
0.0
 11
202.594
 21
77.7695
 31
0.0
  0
LINE
  8
0
 62
     0
 10
202.594
 20
77.7695
 30
0.0
 11
203.394
 21
77.7695
 31
0.0
  0
LINE
  8
0
 62
     0
 10
203.394
 20
77.7695
 30
0.0
 11
203.394
 21
74.6689
 31
0.0
  0
LINE
  8
0
 62
     0
 10
203.394
 20
74.6689
 30
0.0
 11
202.594
 21
74.6689
 31
0.0
  0
LINE
  8
0
 62
     0
 10
202.594
 20
74.6689
 30
0.0
 11
202.594
 21
68.8689
 31
0.0
  0
LINE
  8
0
 62
     0
 10
202.594
 20
68.8689
 30
0.0
 11
203.394
 21
68.8689
 31
0.0
  0
LINE
  8
0
 62
     0
 10
203.394
 20
68.8689
 30
0.0
 11
203.394
 21
65.7698
 31
0.0
  0
LINE
  8
0
 62
     0
 10
203.394
 20
65.7698
 30
0.0
 11
202.594
 21
65.7698
 31
0.0
  0
LINE
  8
0
 62
     0
 10
207.356
 20
46.7198
 30
0.0
 11
207.356
 21
45.7193
 31
0.0
  0
LINE
  8
0
 62
     0
 10
207.356
 20
45.7193
 30
0.0
 11
193.357
 21
45.7193
 31
0.0
  0
LINE
  8
0
 62
     0
 10
193.357
 20
45.7193
 30
0.0
 11
193.357
 21
46.7198
 31
0.0
  0
LINE
  8
0
 62
     0
 10
193.357
 20
46.7198
 30
0.0
 11
192.557
 21
46.7198
 31
0.0
  0
LINE
  8
0
 62
     0
 10
192.557
 20
46.7198
 30
0.0
 11
192.557
 21
49.8189
 31
0.0
  0
LINE
  8
0
 62
     0
 10
192.557
 20
49.8189
 30
0.0
 11
193.357
 21
49.8189
 31
0.0
  0
LINE
  8
0
 62
     0
 10
193.357
 20
49.8189
 30
0.0
 11
193.357
 21
55.6189
 31
0.0
  0
LINE
  8
0
 62
     0
 10
193.357
 20
55.6189
 30
0.0
 11
192.557
 21
55.6189
 31
0.0
  0
LINE
  8
0
 62
     0
 10
192.557
 20
55.6189
 30
0.0
 11
192.557
 21
58.7195
 31
0.0
  0
LINE
  8
0
 62
     0
 10
192.557
 20
58.7195
 30
0.0
 11
193.357
 21
58.7195
 31
0.0
  0
LINE
  8
0
 62
     0
 10
193.357
 20
58.7195
 30
0.0
 11
193.357
 21
59.7186
 31
0.0
  0
LINE
  8
0
 62
     0
 10
193.357
 20
59.7186
 30
0.0
 11
207.356
 21
59.7186
 31
0.0
  0
LINE
  8
0
 62
     0
 10
207.356
 20
59.7186
 30
0.0
 11
207.356
 21
58.7195
 31
0.0
  0
LINE
  8
0
 62
     0
 10
207.356
 20
58.7195
 30
0.0
 11
208.157
 21
58.7195
 31
0.0
  0
LINE
  8
0
 62
     0
 10
208.157
 20
58.7195
 30
0.0
 11
208.157
 21
55.6189
 31
0.0
  0
LINE
  8
0
 62
     0
 10
208.157
 20
55.6189
 30
0.0
 11
207.356
 21
55.6189
 31
0.0
  0
LINE
  8
0
 62
     0
 10
207.356
 20
55.6189
 30
0.0
 11
207.356
 21
49.8189
 31
0.0
  0
LINE
  8
0
 62
     0
 10
207.356
 20
49.8189
 30
0.0
 11
208.157
 21
49.8189
 31
0.0
  0
LINE
  8
0
 62
     0
 10
208.157
 20
49.8189
 30
0.0
 11
208.157
 21
46.7198
 31
0.0
  0
LINE
  8
0
 62
     0
 10
208.157
 20
46.7198
 30
0.0
 11
207.356
 21
46.7198
 31
0.0
  0
LINE
  8
0
 62
     0
 10
212.119
 20
84.8198
 30
0.0
 11
212.119
 21
83.8193
 31
0.0
  0
LINE
  8
0
 62
     0
 10
212.119
 20
83.8193
 30
0.0
 11
198.119
 21
83.8193
 31
0.0
  0
LINE
  8
0
 62
     0
 10
198.119
 20
83.8193
 30
0.0
 11
198.119
 21
84.8198
 31
0.0
  0
LINE
  8
0
 62
     0
 10
198.119
 20
84.8198
 30
0.0
 11
197.318
 21
84.8198
 31
0.0
  0
LINE
  8
0
 62
     0
 10
197.318
 20
84.8198
 30
0.0
 11
197.318
 21
87.9189
 31
0.0
  0
LINE
  8
0
 62
     0
 10
197.318
 20
87.9189
 30
0.0
 11
198.119
 21
87.9189
 31
0.0
  0
LINE
  8
0
 62
     0
 10
198.119
 20
87.9189
 30
0.0
 11
198.119
 21
93.7189
 31
0.0
  0
LINE
  8
0
 62
     0
 10
198.119
 20
93.7189
 30
0.0
 11
197.318
 21
93.7189
 31
0.0
  0
LINE
  8
0
 62
     0
 10
197.318
 20
93.7189
 30
0.0
 11
197.318
 21
96.8195
 31
0.0
  0
LINE
  8
0
 62
     0
 10
197.318
 20
96.8195
 30
0.0
 11
198.119
 21
96.8195
 31
0.0
  0
LINE
  8
0
 62
     0
 10
198.119
 20
96.8195
 30
0.0
 11
198.119
 21
97.8186
 31
0.0
  0
LINE
  8
0
 62
     0
 10
198.119
 20
97.8186
 30
0.0
 11
212.119
 21
97.8186
 31
0.0
  0
LINE
  8
0
 62
     0
 10
212.119
 20
97.8186
 30
0.0
 11
212.119
 21
96.8195
 31
0.0
  0
LINE
  8
0
 62
     0
 10
212.119
 20
96.8195
 30
0.0
 11
212.919
 21
96.8195
 31
0.0
  0
LINE
  8
0
 62
     0
 10
212.919
 20
96.8195
 30
0.0
 11
212.919
 21
93.7189
 31
0.0
  0
LINE
  8
0
 62
     0
 10
212.919
 20
93.7189
 30
0.0
 11
212.119
 21
93.7189
 31
0.0
  0
LINE
  8
0
 62
     0
 10
212.119
 20
93.7189
 30
0.0
 11
212.119
 21
87.9189
 31
0.0
  0
LINE
  8
0
 62
     0
 10
212.119
 20
87.9189
 30
0.0
 11
212.919
 21
87.9189
 31
0.0
  0
LINE
  8
0
 62
     0
 10
212.919
 20
87.9189
 30
0.0
 11
212.919
 21
84.8198
 31
0.0
  0
LINE
  8
0
 62
     0
 10
212.919
 20
84.8198
 30
0.0
 11
212.119
 21
84.8198
 31
0.0
  0
LINE
  8
0
 62
     0
 10
214.5
 20
8.61963
 30
0.0
 11
214.5
 21
7.61919
 31
0.0
  0
LINE
  8
0
 62
     0
 10
214.5
 20
7.61919
 30
0.0
 11
200.501
 21
7.61919
 31
0.0
  0
LINE
  8
0
 62
     0
 10
200.501
 20
7.61919
 30
0.0
 11
200.501
 21
8.61963
 31
0.0
  0
LINE
  8
0
 62
     0
 10
200.501
 20
8.61963
 30
0.0
 11
199.7
 21
8.61963
 31
0.0
  0
LINE
  8
0
 62
     0
 10
199.7
 20
8.61963
 30
0.0
 11
199.7
 21
11.7189
 31
0.0
  0
LINE
  8
0
 62
     0
 10
199.7
 20
11.7189
 30
0.0
 11
200.501
 21
11.7189
 31
0.0
  0
LINE
  8
0
 62
     0
 10
200.501
 20
11.7189
 30
0.0
 11
200.501
 21
17.519
 31
0.0
  0
LINE
  8
0
 62
     0
 10
200.501
 20
17.519
 30
0.0
 11
199.7
 21
17.519
 31
0.0
  0
LINE
  8
0
 62
     0
 10
199.7
 20
17.519
 30
0.0
 11
199.7
 21
20.6196
 31
0.0
  0
LINE
  8
0
 62
     0
 10
199.7
 20
20.6196
 30
0.0
 11
200.501
 21
20.6196
 31
0.0
  0
LINE
  8
0
 62
     0
 10
200.501
 20
20.6196
 30
0.0
 11
200.501
 21
21.6187
 31
0.0
  0
LINE
  8
0
 62
     0
 10
200.501
 20
21.6187
 30
0.0
 11
214.5
 21
21.6187
 31
0.0
  0
LINE
  8
0
 62
     0
 10
214.5
 20
21.6187
 30
0.0
 11
214.5
 21
20.6196
 31
0.0
  0
LINE
  8
0
 62
     0
 10
214.5
 20
20.6196
 30
0.0
 11
215.299
 21
20.6196
 31
0.0
  0
LINE
  8
0
 62
     0
 10
215.299
 20
20.6196
 30
0.0
 11
215.299
 21
17.519
 31
0.0
  0
LINE
  8
0
 62
     0
 10
215.299
 20
17.519
 30
0.0
 11
214.5
 21
17.519
 31
0.0
  0
LINE
  8
0
 62
     0
 10
214.5
 20
17.519
 30
0.0
 11
214.5
 21
11.7189
 31
0.0
  0
LINE
  8
0
 62
     0
 10
214.5
 20
11.7189
 30
0.0
 11
215.299
 21
11.7189
 31
0.0
  0
LINE
  8
0
 62
     0
 10
215.299
 20
11.7189
 30
0.0
 11
215.299
 21
8.61963
 31
0.0
  0
LINE
  8
0
 62
     0
 10
215.299
 20
8.61963
 30
0.0
 11
214.5
 21
8.61963
 31
0.0
  0
LINE
  8
0
 62
     0
 10
216.881
 20
27.6696
 30
0.0
 11
216.881
 21
26.6692
 31
0.0
  0
LINE
  8
0
 62
     0
 10
216.881
 20
26.6692
 30
0.0
 11
202.882
 21
26.6692
 31
0.0
  0
LINE
  8
0
 62
     0
 10
202.882
 20
26.6692
 30
0.0
 11
202.882
 21
27.6696
 31
0.0
  0
LINE
  8
0
 62
     0
 10
202.882
 20
27.6696
 30
0.0
 11
202.082
 21
27.6696
 31
0.0
  0
LINE
  8
0
 62
     0
 10
202.082
 20
27.6696
 30
0.0
 11
202.082
 21
30.7689
 31
0.0
  0
LINE
  8
0
 62
     0
 10
202.082
 20
30.7689
 30
0.0
 11
202.882
 21
30.7689
 31
0.0
  0
LINE
  8
0
 62
     0
 10
202.882
 20
30.7689
 30
0.0
 11
202.882
 21
36.5689
 31
0.0
  0
LINE
  8
0
 62
     0
 10
202.882
 20
36.5689
 30
0.0
 11
202.082
 21
36.5689
 31
0.0
  0
LINE
  8
0
 62
     0
 10
202.082
 20
36.5689
 30
0.0
 11
202.082
 21
39.6695
 31
0.0
  0
LINE
  8
0
 62
     0
 10
202.082
 20
39.6695
 30
0.0
 11
202.882
 21
39.6695
 31
0.0
  0
LINE
  8
0
 62
     0
 10
202.882
 20
39.6695
 30
0.0
 11
202.882
 21
40.6686
 31
0.0
  0
LINE
  8
0
 62
     0
 10
202.882
 20
40.6686
 30
0.0
 11
216.881
 21
40.6686
 31
0.0
  0
LINE
  8
0
 62
     0
 10
216.881
 20
40.6686
 30
0.0
 11
216.881
 21
39.6695
 31
0.0
  0
LINE
  8
0
 62
     0
 10
216.881
 20
39.6695
 30
0.0
 11
217.682
 21
39.6695
 31
0.0
  0
LINE
  8
0
 62
     0
 10
217.682
 20
39.6695
 30
0.0
 11
217.682
 21
36.5689
 31
0.0
  0
LINE
  8
0
 62
     0
 10
217.682
 20
36.5689
 30
0.0
 11
216.881
 21
36.5689
 31
0.0
  0
LINE
  8
0
 62
     0
 10
216.881
 20
36.5689
 30
0.0
 11
216.881
 21
30.7689
 31
0.0
  0
LINE
  8
0
 62
     0
 10
216.881
 20
30.7689
 30
0.0
 11
217.682
 21
30.7689
 31
0.0
  0
LINE
  8
0
 62
     0
 10
217.682
 20
30.7689
 30
0.0
 11
217.682
 21
27.6696
 31
0.0
  0
LINE
  8
0
 62
     0
 10
217.682
 20
27.6696
 30
0.0
 11
216.881
 21
27.6696
 31
0.0
  0
LINE
  8
0
 62
     0
 10
221.644
 20
65.7698
 30
0.0
 11
221.644
 21
64.7693
 31
0.0
  0
LINE
  8
0
 62
     0
 10
221.644
 20
64.7693
 30
0.0
 11
207.644
 21
64.7693
 31
0.0
  0
LINE
  8
0
 62
     0
 10
207.644
 20
64.7693
 30
0.0
 11
207.644
 21
65.7698
 31
0.0
  0
LINE
  8
0
 62
     0
 10
207.644
 20
65.7698
 30
0.0
 11
206.843
 21
65.7698
 31
0.0
  0
LINE
  8
0
 62
     0
 10
206.843
 20
65.7698
 30
0.0
 11
206.843
 21
68.8689
 31
0.0
  0
LINE
  8
0
 62
     0
 10
206.843
 20
68.8689
 30
0.0
 11
207.644
 21
68.8689
 31
0.0
  0
LINE
  8
0
 62
     0
 10
207.644
 20
68.8689
 30
0.0
 11
207.644
 21
74.6689
 31
0.0
  0
LINE
  8
0
 62
     0
 10
207.644
 20
74.6689
 30
0.0
 11
206.843
 21
74.6689
 31
0.0
  0
LINE
  8
0
 62
     0
 10
206.843
 20
74.6689
 30
0.0
 11
206.843
 21
77.7695
 31
0.0
  0
LINE
  8
0
 62
     0
 10
206.843
 20
77.7695
 30
0.0
 11
207.644
 21
77.7695
 31
0.0
  0
LINE
  8
0
 62
     0
 10
207.644
 20
77.7695
 30
0.0
 11
207.644
 21
78.7686
 31
0.0
  0
LINE
  8
0
 62
     0
 10
207.644
 20
78.7686
 30
0.0
 11
221.644
 21
78.7686
 31
0.0
  0
LINE
  8
0
 62
     0
 10
221.644
 20
78.7686
 30
0.0
 11
221.644
 21
77.7695
 31
0.0
  0
LINE
  8
0
 62
     0
 10
221.644
 20
77.7695
 30
0.0
 11
222.444
 21
77.7695
 31
0.0
  0
LINE
  8
0
 62
     0
 10
222.444
 20
77.7695
 30
0.0
 11
222.444
 21
74.6689
 31
0.0
  0
LINE
  8
0
 62
     0
 10
222.444
 20
74.6689
 30
0.0
 11
221.644
 21
74.6689
 31
0.0
  0
LINE
  8
0
 62
     0
 10
221.644
 20
74.6689
 30
0.0
 11
221.644
 21
68.8689
 31
0.0
  0
LINE
  8
0
 62
     0
 10
221.644
 20
68.8689
 30
0.0
 11
222.444
 21
68.8689
 31
0.0
  0
LINE
  8
0
 62
     0
 10
222.444
 20
68.8689
 30
0.0
 11
222.444
 21
65.7698
 31
0.0
  0
LINE
  8
0
 62
     0
 10
222.444
 20
65.7698
 30
0.0
 11
221.644
 21
65.7698
 31
0.0
  0
LINE
  8
0
 62
     0
 10
226.406
 20
46.7198
 30
0.0
 11
226.406
 21
45.7193
 31
0.0
  0
LINE
  8
0
 62
     0
 10
226.406
 20
45.7193
 30
0.0
 11
212.407
 21
45.7193
 31
0.0
  0
LINE
  8
0
 62
     0
 10
212.407
 20
45.7193
 30
0.0
 11
212.407
 21
46.7198
 31
0.0
  0
LINE
  8
0
 62
     0
 10
212.407
 20
46.7198
 30
0.0
 11
211.607
 21
46.7198
 31
0.0
  0
LINE
  8
0
 62
     0
 10
211.607
 20
46.7198
 30
0.0
 11
211.607
 21
49.8189
 31
0.0
  0
LINE
  8
0
 62
     0
 10
211.607
 20
49.8189
 30
0.0
 11
212.407
 21
49.8189
 31
0.0
  0
LINE
  8
0
 62
     0
 10
212.407
 20
49.8189
 30
0.0
 11
212.407
 21
55.6189
 31
0.0
  0
LINE
  8
0
 62
     0
 10
212.407
 20
55.6189
 30
0.0
 11
211.607
 21
55.6189
 31
0.0
  0
LINE
  8
0
 62
     0
 10
211.607
 20
55.6189
 30
0.0
 11
211.607
 21
58.7195
 31
0.0
  0
LINE
  8
0
 62
     0
 10
211.607
 20
58.7195
 30
0.0
 11
212.407
 21
58.7195
 31
0.0
  0
LINE
  8
0
 62
     0
 10
212.407
 20
58.7195
 30
0.0
 11
212.407
 21
59.7186
 31
0.0
  0
LINE
  8
0
 62
     0
 10
212.407
 20
59.7186
 30
0.0
 11
226.406
 21
59.7186
 31
0.0
  0
LINE
  8
0
 62
     0
 10
226.406
 20
59.7186
 30
0.0
 11
226.406
 21
58.7195
 31
0.0
  0
LINE
  8
0
 62
     0
 10
226.406
 20
58.7195
 30
0.0
 11
227.207
 21
58.7195
 31
0.0
  0
LINE
  8
0
 62
     0
 10
227.207
 20
58.7195
 30
0.0
 11
227.207
 21
55.6189
 31
0.0
  0
LINE
  8
0
 62
     0
 10
227.207
 20
55.6189
 30
0.0
 11
226.406
 21
55.6189
 31
0.0
  0
LINE
  8
0
 62
     0
 10
226.406
 20
55.6189
 30
0.0
 11
226.406
 21
49.8189
 31
0.0
  0
LINE
  8
0
 62
     0
 10
226.406
 20
49.8189
 30
0.0
 11
227.207
 21
49.8189
 31
0.0
  0
LINE
  8
0
 62
     0
 10
227.207
 20
49.8189
 30
0.0
 11
227.207
 21
46.7198
 31
0.0
  0
LINE
  8
0
 62
     0
 10
227.207
 20
46.7198
 30
0.0
 11
226.406
 21
46.7198
 31
0.0
  0
LINE
  8
0
 62
     0
 10
231.169
 20
84.8198
 30
0.0
 11
231.169
 21
83.8193
 31
0.0
  0
LINE
  8
0
 62
     0
 10
231.169
 20
83.8193
 30
0.0
 11
217.169
 21
83.8193
 31
0.0
  0
LINE
  8
0
 62
     0
 10
217.169
 20
83.8193
 30
0.0
 11
217.169
 21
84.8198
 31
0.0
  0
LINE
  8
0
 62
     0
 10
217.169
 20
84.8198
 30
0.0
 11
216.368
 21
84.8198
 31
0.0
  0
LINE
  8
0
 62
     0
 10
216.368
 20
84.8198
 30
0.0
 11
216.368
 21
87.9189
 31
0.0
  0
LINE
  8
0
 62
     0
 10
216.368
 20
87.9189
 30
0.0
 11
217.169
 21
87.9189
 31
0.0
  0
LINE
  8
0
 62
     0
 10
217.169
 20
87.9189
 30
0.0
 11
217.169
 21
93.7189
 31
0.0
  0
LINE
  8
0
 62
     0
 10
217.169
 20
93.7189
 30
0.0
 11
216.368
 21
93.7189
 31
0.0
  0
LINE
  8
0
 62
     0
 10
216.368
 20
93.7189
 30
0.0
 11
216.368
 21
96.8195
 31
0.0
  0
LINE
  8
0
 62
     0
 10
216.368
 20
96.8195
 30
0.0
 11
217.169
 21
96.8195
 31
0.0
  0
LINE
  8
0
 62
     0
 10
217.169
 20
96.8195
 30
0.0
 11
217.169
 21
97.8186
 31
0.0
  0
LINE
  8
0
 62
     0
 10
217.169
 20
97.8186
 30
0.0
 11
231.169
 21
97.8186
 31
0.0
  0
LINE
  8
0
 62
     0
 10
231.169
 20
97.8186
 30
0.0
 11
231.169
 21
96.8195
 31
0.0
  0
LINE
  8
0
 62
     0
 10
231.169
 20
96.8195
 30
0.0
 11
231.969
 21
96.8195
 31
0.0
  0
LINE
  8
0
 62
     0
 10
231.969
 20
96.8195
 30
0.0
 11
231.969
 21
93.7189
 31
0.0
  0
LINE
  8
0
 62
     0
 10
231.969
 20
93.7189
 30
0.0
 11
231.169
 21
93.7189
 31
0.0
  0
LINE
  8
0
 62
     0
 10
231.169
 20
93.7189
 30
0.0
 11
231.169
 21
87.9189
 31
0.0
  0
LINE
  8
0
 62
     0
 10
231.169
 20
87.9189
 30
0.0
 11
231.969
 21
87.9189
 31
0.0
  0
LINE
  8
0
 62
     0
 10
231.969
 20
87.9189
 30
0.0
 11
231.969
 21
84.8198
 31
0.0
  0
LINE
  8
0
 62
     0
 10
231.969
 20
84.8198
 30
0.0
 11
231.169
 21
84.8198
 31
0.0
  0
LINE
  8
0
 62
     0
 10
235.931
 20
27.6696
 30
0.0
 11
235.931
 21
26.6692
 31
0.0
  0
LINE
  8
0
 62
     0
 10
235.931
 20
26.6692
 30
0.0
 11
221.932
 21
26.6692
 31
0.0
  0
LINE
  8
0
 62
     0
 10
221.932
 20
26.6692
 30
0.0
 11
221.932
 21
27.6696
 31
0.0
  0
LINE
  8
0
 62
     0
 10
221.932
 20
27.6696
 30
0.0
 11
221.132
 21
27.6696
 31
0.0
  0
LINE
  8
0
 62
     0
 10
221.132
 20
27.6696
 30
0.0
 11
221.132
 21
30.7689
 31
0.0
  0
LINE
  8
0
 62
     0
 10
221.132
 20
30.7689
 30
0.0
 11
221.932
 21
30.7689
 31
0.0
  0
LINE
  8
0
 62
     0
 10
221.932
 20
30.7689
 30
0.0
 11
221.932
 21
36.5689
 31
0.0
  0
LINE
  8
0
 62
     0
 10
221.932
 20
36.5689
 30
0.0
 11
221.132
 21
36.5689
 31
0.0
  0
LINE
  8
0
 62
     0
 10
221.132
 20
36.5689
 30
0.0
 11
221.132
 21
39.6695
 31
0.0
  0
LINE
  8
0
 62
     0
 10
221.132
 20
39.6695
 30
0.0
 11
221.932
 21
39.6695
 31
0.0
  0
LINE
  8
0
 62
     0
 10
221.932
 20
39.6695
 30
0.0
 11
221.932
 21
40.6686
 31
0.0
  0
LINE
  8
0
 62
     0
 10
221.932
 20
40.6686
 30
0.0
 11
235.931
 21
40.6686
 31
0.0
  0
LINE
  8
0
 62
     0
 10
235.931
 20
40.6686
 30
0.0
 11
235.931
 21
39.6695
 31
0.0
  0
LINE
  8
0
 62
     0
 10
235.931
 20
39.6695
 30
0.0
 11
236.732
 21
39.6695
 31
0.0
  0
LINE
  8
0
 62
     0
 10
236.732
 20
39.6695
 30
0.0
 11
236.732
 21
36.5689
 31
0.0
  0
LINE
  8
0
 62
     0
 10
236.732
 20
36.5689
 30
0.0
 11
235.931
 21
36.5689
 31
0.0
  0
LINE
  8
0
 62
     0
 10
235.931
 20
36.5689
 30
0.0
 11
235.931
 21
30.7689
 31
0.0
  0
LINE
  8
0
 62
     0
 10
235.931
 20
30.7689
 30
0.0
 11
236.732
 21
30.7689
 31
0.0
  0
LINE
  8
0
 62
     0
 10
236.732
 20
30.7689
 30
0.0
 11
236.732
 21
27.6696
 31
0.0
  0
LINE
  8
0
 62
     0
 10
236.732
 20
27.6696
 30
0.0
 11
235.931
 21
27.6696
 31
0.0
  0
LINE
  8
0
 62
     0
 10
238.312
 20
8.61963
 30
0.0
 11
238.312
 21
7.61919
 31
0.0
  0
LINE
  8
0
 62
     0
 10
238.312
 20
7.61919
 30
0.0
 11
224.313
 21
7.61919
 31
0.0
  0
LINE
  8
0
 62
     0
 10
224.313
 20
7.61919
 30
0.0
 11
224.313
 21
8.61963
 31
0.0
  0
LINE
  8
0
 62
     0
 10
224.313
 20
8.61963
 30
0.0
 11
223.512
 21
8.61963
 31
0.0
  0
LINE
  8
0
 62
     0
 10
223.512
 20
8.61963
 30
0.0
 11
223.512
 21
11.7189
 31
0.0
  0
LINE
  8
0
 62
     0
 10
223.512
 20
11.7189
 30
0.0
 11
224.313
 21
11.7189
 31
0.0
  0
LINE
  8
0
 62
     0
 10
224.313
 20
11.7189
 30
0.0
 11
224.313
 21
17.519
 31
0.0
  0
LINE
  8
0
 62
     0
 10
224.313
 20
17.519
 30
0.0
 11
223.512
 21
17.519
 31
0.0
  0
LINE
  8
0
 62
     0
 10
223.512
 20
17.519
 30
0.0
 11
223.512
 21
20.6196
 31
0.0
  0
LINE
  8
0
 62
     0
 10
223.512
 20
20.6196
 30
0.0
 11
224.313
 21
20.6196
 31
0.0
  0
LINE
  8
0
 62
     0
 10
224.313
 20
20.6196
 30
0.0
 11
224.313
 21
21.6187
 31
0.0
  0
LINE
  8
0
 62
     0
 10
224.313
 20
21.6187
 30
0.0
 11
238.312
 21
21.6187
 31
0.0
  0
LINE
  8
0
 62
     0
 10
238.312
 20
21.6187
 30
0.0
 11
238.312
 21
20.6196
 31
0.0
  0
LINE
  8
0
 62
     0
 10
238.312
 20
20.6196
 30
0.0
 11
239.113
 21
20.6196
 31
0.0
  0
LINE
  8
0
 62
     0
 10
239.113
 20
20.6196
 30
0.0
 11
239.113
 21
17.519
 31
0.0
  0
LINE
  8
0
 62
     0
 10
239.113
 20
17.519
 30
0.0
 11
238.312
 21
17.519
 31
0.0
  0
LINE
  8
0
 62
     0
 10
238.312
 20
17.519
 30
0.0
 11
238.312
 21
11.7189
 31
0.0
  0
LINE
  8
0
 62
     0
 10
238.312
 20
11.7189
 30
0.0
 11
239.113
 21
11.7189
 31
0.0
  0
LINE
  8
0
 62
     0
 10
239.113
 20
11.7189
 30
0.0
 11
239.113
 21
8.61963
 31
0.0
  0
LINE
  8
0
 62
     0
 10
239.113
 20
8.61963
 30
0.0
 11
238.312
 21
8.61963
 31
0.0
  0
LINE
  8
0
 62
     0
 10
240.694
 20
65.7698
 30
0.0
 11
240.694
 21
64.7693
 31
0.0
  0
LINE
  8
0
 62
     0
 10
240.694
 20
64.7693
 30
0.0
 11
226.694
 21
64.7693
 31
0.0
  0
LINE
  8
0
 62
     0
 10
226.694
 20
64.7693
 30
0.0
 11
226.694
 21
65.7698
 31
0.0
  0
LINE
  8
0
 62
     0
 10
226.694
 20
65.7698
 30
0.0
 11
225.893
 21
65.7698
 31
0.0
  0
LINE
  8
0
 62
     0
 10
225.893
 20
65.7698
 30
0.0
 11
225.893
 21
68.8689
 31
0.0
  0
LINE
  8
0
 62
     0
 10
225.893
 20
68.8689
 30
0.0
 11
226.694
 21
68.8689
 31
0.0
  0
LINE
  8
0
 62
     0
 10
226.694
 20
68.8689
 30
0.0
 11
226.694
 21
74.6689
 31
0.0
  0
LINE
  8
0
 62
     0
 10
226.694
 20
74.6689
 30
0.0
 11
225.893
 21
74.6689
 31
0.0
  0
LINE
  8
0
 62
     0
 10
225.893
 20
74.6689
 30
0.0
 11
225.893
 21
77.7695
 31
0.0
  0
LINE
  8
0
 62
     0
 10
225.893
 20
77.7695
 30
0.0
 11
226.694
 21
77.7695
 31
0.0
  0
LINE
  8
0
 62
     0
 10
226.694
 20
77.7695
 30
0.0
 11
226.694
 21
78.7686
 31
0.0
  0
LINE
  8
0
 62
     0
 10
226.694
 20
78.7686
 30
0.0
 11
240.694
 21
78.7686
 31
0.0
  0
LINE
  8
0
 62
     0
 10
240.694
 20
78.7686
 30
0.0
 11
240.694
 21
77.7695
 31
0.0
  0
LINE
  8
0
 62
     0
 10
240.694
 20
77.7695
 30
0.0
 11
241.494
 21
77.7695
 31
0.0
  0
LINE
  8
0
 62
     0
 10
241.494
 20
77.7695
 30
0.0
 11
241.494
 21
74.6689
 31
0.0
  0
LINE
  8
0
 62
     0
 10
241.494
 20
74.6689
 30
0.0
 11
240.694
 21
74.6689
 31
0.0
  0
LINE
  8
0
 62
     0
 10
240.694
 20
74.6689
 30
0.0
 11
240.694
 21
68.8689
 31
0.0
  0
LINE
  8
0
 62
     0
 10
240.694
 20
68.8689
 30
0.0
 11
241.494
 21
68.8689
 31
0.0
  0
LINE
  8
0
 62
     0
 10
241.494
 20
68.8689
 30
0.0
 11
241.494
 21
65.7698
 31
0.0
  0
LINE
  8
0
 62
     0
 10
241.494
 20
65.7698
 30
0.0
 11
240.694
 21
65.7698
 31
0.0
  0
LINE
  8
0
 62
     0
 10
245.456
 20
46.7198
 30
0.0
 11
245.456
 21
45.7193
 31
0.0
  0
LINE
  8
0
 62
     0
 10
245.456
 20
45.7193
 30
0.0
 11
231.457
 21
45.7193
 31
0.0
  0
LINE
  8
0
 62
     0
 10
231.457
 20
45.7193
 30
0.0
 11
231.457
 21
46.7198
 31
0.0
  0
LINE
  8
0
 62
     0
 10
231.457
 20
46.7198
 30
0.0
 11
230.657
 21
46.7198
 31
0.0
  0
LINE
  8
0
 62
     0
 10
230.657
 20
46.7198
 30
0.0
 11
230.657
 21
49.8189
 31
0.0
  0
LINE
  8
0
 62
     0
 10
230.657
 20
49.8189
 30
0.0
 11
231.457
 21
49.8189
 31
0.0
  0
LINE
  8
0
 62
     0
 10
231.457
 20
49.8189
 30
0.0
 11
231.457
 21
55.6189
 31
0.0
  0
LINE
  8
0
 62
     0
 10
231.457
 20
55.6189
 30
0.0
 11
230.657
 21
55.6189
 31
0.0
  0
LINE
  8
0
 62
     0
 10
230.657
 20
55.6189
 30
0.0
 11
230.657
 21
58.7195
 31
0.0
  0
LINE
  8
0
 62
     0
 10
230.657
 20
58.7195
 30
0.0
 11
231.457
 21
58.7195
 31
0.0
  0
LINE
  8
0
 62
     0
 10
231.457
 20
58.7195
 30
0.0
 11
231.457
 21
59.7186
 31
0.0
  0
LINE
  8
0
 62
     0
 10
231.457
 20
59.7186
 30
0.0
 11
245.456
 21
59.7186
 31
0.0
  0
LINE
  8
0
 62
     0
 10
245.456
 20
59.7186
 30
0.0
 11
245.456
 21
58.7195
 31
0.0
  0
LINE
  8
0
 62
     0
 10
245.456
 20
58.7195
 30
0.0
 11
246.257
 21
58.7195
 31
0.0
  0
LINE
  8
0
 62
     0
 10
246.257
 20
58.7195
 30
0.0
 11
246.257
 21
55.6189
 31
0.0
  0
LINE
  8
0
 62
     0
 10
246.257
 20
55.6189
 30
0.0
 11
245.456
 21
55.6189
 31
0.0
  0
LINE
  8
0
 62
     0
 10
245.456
 20
55.6189
 30
0.0
 11
245.456
 21
49.8189
 31
0.0
  0
LINE
  8
0
 62
     0
 10
245.456
 20
49.8189
 30
0.0
 11
246.257
 21
49.8189
 31
0.0
  0
LINE
  8
0
 62
     0
 10
246.257
 20
49.8189
 30
0.0
 11
246.257
 21
46.7198
 31
0.0
  0
LINE
  8
0
 62
     0
 10
246.257
 20
46.7198
 30
0.0
 11
245.456
 21
46.7198
 31
0.0
  0
LINE
  8
0
 62
     0
 10
250.219
 20
84.8198
 30
0.0
 11
250.219
 21
83.8193
 31
0.0
  0
LINE
  8
0
 62
     0
 10
250.219
 20
83.8193
 30
0.0
 11
236.219
 21
83.8193
 31
0.0
  0
LINE
  8
0
 62
     0
 10
236.219
 20
83.8193
 30
0.0
 11
236.219
 21
84.8198
 31
0.0
  0
LINE
  8
0
 62
     0
 10
236.219
 20
84.8198
 30
0.0
 11
235.418
 21
84.8198
 31
0.0
  0
LINE
  8
0
 62
     0
 10
235.418
 20
84.8198
 30
0.0
 11
235.418
 21
87.9189
 31
0.0
  0
LINE
  8
0
 62
     0
 10
235.418
 20
87.9189
 30
0.0
 11
236.219
 21
87.9189
 31
0.0
  0
LINE
  8
0
 62
     0
 10
236.219
 20
87.9189
 30
0.0
 11
236.219
 21
93.7189
 31
0.0
  0
LINE
  8
0
 62
     0
 10
236.219
 20
93.7189
 30
0.0
 11
235.418
 21
93.7189
 31
0.0
  0
LINE
  8
0
 62
     0
 10
235.418
 20
93.7189
 30
0.0
 11
235.418
 21
96.8195
 31
0.0
  0
LINE
  8
0
 62
     0
 10
235.418
 20
96.8195
 30
0.0
 11
236.219
 21
96.8195
 31
0.0
  0
LINE
  8
0
 62
     0
 10
236.219
 20
96.8195
 30
0.0
 11
236.219
 21
97.8186
 31
0.0
  0
LINE
  8
0
 62
     0
 10
236.219
 20
97.8186
 30
0.0
 11
250.219
 21
97.8186
 31
0.0
  0
LINE
  8
0
 62
     0
 10
250.219
 20
97.8186
 30
0.0
 11
250.219
 21
96.8195
 31
0.0
  0
LINE
  8
0
 62
     0
 10
250.219
 20
96.8195
 30
0.0
 11
251.019
 21
96.8195
 31
0.0
  0
LINE
  8
0
 62
     0
 10
251.019
 20
96.8195
 30
0.0
 11
251.019
 21
93.7189
 31
0.0
  0
LINE
  8
0
 62
     0
 10
251.019
 20
93.7189
 30
0.0
 11
250.219
 21
93.7189
 31
0.0
  0
LINE
  8
0
 62
     0
 10
250.219
 20
93.7189
 30
0.0
 11
250.219
 21
87.9189
 31
0.0
  0
LINE
  8
0
 62
     0
 10
250.219
 20
87.9189
 30
0.0
 11
251.019
 21
87.9189
 31
0.0
  0
LINE
  8
0
 62
     0
 10
251.019
 20
87.9189
 30
0.0
 11
251.019
 21
84.8198
 31
0.0
  0
LINE
  8
0
 62
     0
 10
251.019
 20
84.8198
 30
0.0
 11
250.219
 21
84.8198
 31
0.0
  0
LINE
  8
0
 62
     0
 10
259.744
 20
65.7698
 30
0.0
 11
259.744
 21
64.7693
 31
0.0
  0
LINE
  8
0
 62
     0
 10
259.744
 20
64.7693
 30
0.0
 11
245.744
 21
64.7693
 31
0.0
  0
LINE
  8
0
 62
     0
 10
245.744
 20
64.7693
 30
0.0
 11
245.744
 21
65.7698
 31
0.0
  0
LINE
  8
0
 62
     0
 10
245.744
 20
65.7698
 30
0.0
 11
244.943
 21
65.7698
 31
0.0
  0
LINE
  8
0
 62
     0
 10
244.943
 20
65.7698
 30
0.0
 11
244.943
 21
68.8689
 31
0.0
  0
LINE
  8
0
 62
     0
 10
244.943
 20
68.8689
 30
0.0
 11
245.744
 21
68.8689
 31
0.0
  0
LINE
  8
0
 62
     0
 10
245.744
 20
68.8689
 30
0.0
 11
245.744
 21
74.6689
 31
0.0
  0
LINE
  8
0
 62
     0
 10
245.744
 20
74.6689
 30
0.0
 11
244.943
 21
74.6689
 31
0.0
  0
LINE
  8
0
 62
     0
 10
244.943
 20
74.6689
 30
0.0
 11
244.943
 21
77.7695
 31
0.0
  0
LINE
  8
0
 62
     0
 10
244.943
 20
77.7695
 30
0.0
 11
245.744
 21
77.7695
 31
0.0
  0
LINE
  8
0
 62
     0
 10
245.744
 20
77.7695
 30
0.0
 11
245.744
 21
78.7686
 31
0.0
  0
LINE
  8
0
 62
     0
 10
245.744
 20
78.7686
 30
0.0
 11
259.744
 21
78.7686
 31
0.0
  0
LINE
  8
0
 62
     0
 10
259.744
 20
78.7686
 30
0.0
 11
259.744
 21
77.7695
 31
0.0
  0
LINE
  8
0
 62
     0
 10
259.744
 20
77.7695
 30
0.0
 11
260.544
 21
77.7695
 31
0.0
  0
LINE
  8
0
 62
     0
 10
260.544
 20
77.7695
 30
0.0
 11
260.544
 21
74.6689
 31
0.0
  0
LINE
  8
0
 62
     0
 10
260.544
 20
74.6689
 30
0.0
 11
259.744
 21
74.6689
 31
0.0
  0
LINE
  8
0
 62
     0
 10
259.744
 20
74.6689
 30
0.0
 11
259.744
 21
68.8689
 31
0.0
  0
LINE
  8
0
 62
     0
 10
259.744
 20
68.8689
 30
0.0
 11
260.544
 21
68.8689
 31
0.0
  0
LINE
  8
0
 62
     0
 10
260.544
 20
68.8689
 30
0.0
 11
260.544
 21
65.7698
 31
0.0
  0
LINE
  8
0
 62
     0
 10
260.544
 20
65.7698
 30
0.0
 11
259.744
 21
65.7698
 31
0.0
  0
LINE
  8
0
 62
     0
 10
262.125
 20
8.61963
 30
0.0
 11
262.125
 21
7.61919
 31
0.0
  0
LINE
  8
0
 62
     0
 10
262.125
 20
7.61919
 30
0.0
 11
248.126
 21
7.61919
 31
0.0
  0
LINE
  8
0
 62
     0
 10
248.126
 20
7.61919
 30
0.0
 11
248.126
 21
8.61963
 31
0.0
  0
LINE
  8
0
 62
     0
 10
248.126
 20
8.61963
 30
0.0
 11
247.325
 21
8.61963
 31
0.0
  0
LINE
  8
0
 62
     0
 10
247.325
 20
8.61963
 30
0.0
 11
247.325
 21
11.7189
 31
0.0
  0
LINE
  8
0
 62
     0
 10
247.325
 20
11.7189
 30
0.0
 11
248.126
 21
11.7189
 31
0.0
  0
LINE
  8
0
 62
     0
 10
248.126
 20
11.7189
 30
0.0
 11
248.126
 21
17.519
 31
0.0
  0
LINE
  8
0
 62
     0
 10
248.126
 20
17.519
 30
0.0
 11
247.325
 21
17.519
 31
0.0
  0
LINE
  8
0
 62
     0
 10
247.325
 20
17.519
 30
0.0
 11
247.325
 21
20.6196
 31
0.0
  0
LINE
  8
0
 62
     0
 10
247.325
 20
20.6196
 30
0.0
 11
248.126
 21
20.6196
 31
0.0
  0
LINE
  8
0
 62
     0
 10
248.126
 20
20.6196
 30
0.0
 11
248.126
 21
21.6187
 31
0.0
  0
LINE
  8
0
 62
     0
 10
248.126
 20
21.6187
 30
0.0
 11
262.125
 21
21.6187
 31
0.0
  0
LINE
  8
0
 62
     0
 10
262.125
 20
21.6187
 30
0.0
 11
262.125
 21
20.6196
 31
0.0
  0
LINE
  8
0
 62
     0
 10
262.125
 20
20.6196
 30
0.0
 11
262.924
 21
20.6196
 31
0.0
  0
LINE
  8
0
 62
     0
 10
262.924
 20
20.6196
 30
0.0
 11
262.924
 21
17.519
 31
0.0
  0
LINE
  8
0
 62
     0
 10
262.924
 20
17.519
 30
0.0
 11
262.125
 21
17.519
 31
0.0
  0
LINE
  8
0
 62
     0
 10
262.125
 20
17.519
 30
0.0
 11
262.125
 21
11.7189
 31
0.0
  0
LINE
  8
0
 62
     0
 10
262.125
 20
11.7189
 30
0.0
 11
262.924
 21
11.7189
 31
0.0
  0
LINE
  8
0
 62
     0
 10
262.924
 20
11.7189
 30
0.0
 11
262.924
 21
8.61963
 31
0.0
  0
LINE
  8
0
 62
     0
 10
262.924
 20
8.61963
 30
0.0
 11
262.125
 21
8.61963
 31
0.0
  0
LINE
  8
0
 62
     0
 10
262.125
 20
27.6696
 30
0.0
 11
262.125
 21
26.6692
 31
0.0
  0
LINE
  8
0
 62
     0
 10
262.125
 20
26.6692
 30
0.0
 11
248.126
 21
26.6692
 31
0.0
  0
LINE
  8
0
 62
     0
 10
248.126
 20
26.6692
 30
0.0
 11
248.126
 21
27.6696
 31
0.0
  0
LINE
  8
0
 62
     0
 10
248.126
 20
27.6696
 30
0.0
 11
247.325
 21
27.6696
 31
0.0
  0
LINE
  8
0
 62
     0
 10
247.325
 20
27.6696
 30
0.0
 11
247.325
 21
30.7689
 31
0.0
  0
LINE
  8
0
 62
     0
 10
247.325
 20
30.7689
 30
0.0
 11
248.126
 21
30.7689
 31
0.0
  0
LINE
  8
0
 62
     0
 10
248.126
 20
30.7689
 30
0.0
 11
248.126
 21
36.5689
 31
0.0
  0
LINE
  8
0
 62
     0
 10
248.126
 20
36.5689
 30
0.0
 11
247.325
 21
36.5689
 31
0.0
  0
LINE
  8
0
 62
     0
 10
247.325
 20
36.5689
 30
0.0
 11
247.325
 21
39.6695
 31
0.0
  0
LINE
  8
0
 62
     0
 10
247.325
 20
39.6695
 30
0.0
 11
248.126
 21
39.6695
 31
0.0
  0
LINE
  8
0
 62
     0
 10
248.126
 20
39.6695
 30
0.0
 11
248.126
 21
40.6686
 31
0.0
  0
LINE
  8
0
 62
     0
 10
248.126
 20
40.6686
 30
0.0
 11
262.125
 21
40.6686
 31
0.0
  0
LINE
  8
0
 62
     0
 10
262.125
 20
40.6686
 30
0.0
 11
262.125
 21
39.6695
 31
0.0
  0
LINE
  8
0
 62
     0
 10
262.125
 20
39.6695
 30
0.0
 11
262.924
 21
39.6695
 31
0.0
  0
LINE
  8
0
 62
     0
 10
262.924
 20
39.6695
 30
0.0
 11
262.924
 21
36.5689
 31
0.0
  0
LINE
  8
0
 62
     0
 10
262.924
 20
36.5689
 30
0.0
 11
262.125
 21
36.5689
 31
0.0
  0
LINE
  8
0
 62
     0
 10
262.125
 20
36.5689
 30
0.0
 11
262.125
 21
30.7689
 31
0.0
  0
LINE
  8
0
 62
     0
 10
262.125
 20
30.7689
 30
0.0
 11
262.924
 21
30.7689
 31
0.0
  0
LINE
  8
0
 62
     0
 10
262.924
 20
30.7689
 30
0.0
 11
262.924
 21
27.6696
 31
0.0
  0
LINE
  8
0
 62
     0
 10
262.924
 20
27.6696
 30
0.0
 11
262.125
 21
27.6696
 31
0.0
  0
LINE
  8
0
 62
     0
 10
283.556
 20
65.7698
 30
0.0
 11
283.556
 21
64.7693
 31
0.0
  0
LINE
  8
0
 62
     0
 10
283.556
 20
64.7693
 30
0.0
 11
269.557
 21
64.7693
 31
0.0
  0
LINE
  8
0
 62
     0
 10
269.557
 20
64.7693
 30
0.0
 11
269.557
 21
65.7698
 31
0.0
  0
LINE
  8
0
 62
     0
 10
269.557
 20
65.7698
 30
0.0
 11
268.757
 21
65.7698
 31
0.0
  0
LINE
  8
0
 62
     0
 10
268.757
 20
65.7698
 30
0.0
 11
268.757
 21
68.8689
 31
0.0
  0
LINE
  8
0
 62
     0
 10
268.757
 20
68.8689
 30
0.0
 11
269.557
 21
68.8689
 31
0.0
  0
LINE
  8
0
 62
     0
 10
269.557
 20
68.8689
 30
0.0
 11
269.557
 21
74.6689
 31
0.0
  0
LINE
  8
0
 62
     0
 10
269.557
 20
74.6689
 30
0.0
 11
268.757
 21
74.6689
 31
0.0
  0
LINE
  8
0
 62
     0
 10
268.757
 20
74.6689
 30
0.0
 11
268.757
 21
77.7695
 31
0.0
  0
LINE
  8
0
 62
     0
 10
268.757
 20
77.7695
 30
0.0
 11
269.557
 21
77.7695
 31
0.0
  0
LINE
  8
0
 62
     0
 10
269.557
 20
77.7695
 30
0.0
 11
269.557
 21
78.7686
 31
0.0
  0
LINE
  8
0
 62
     0
 10
269.557
 20
78.7686
 30
0.0
 11
283.556
 21
78.7686
 31
0.0
  0
LINE
  8
0
 62
     0
 10
283.556
 20
78.7686
 30
0.0
 11
283.556
 21
77.7695
 31
0.0
  0
LINE
  8
0
 62
     0
 10
283.556
 20
77.7695
 30
0.0
 11
284.357
 21
77.7695
 31
0.0
  0
LINE
  8
0
 62
     0
 10
284.357
 20
77.7695
 30
0.0
 11
284.357
 21
74.6689
 31
0.0
  0
LINE
  8
0
 62
     0
 10
284.357
 20
74.6689
 30
0.0
 11
283.556
 21
74.6689
 31
0.0
  0
LINE
  8
0
 62
     0
 10
283.556
 20
74.6689
 30
0.0
 11
283.556
 21
68.8689
 31
0.0
  0
LINE
  8
0
 62
     0
 10
283.556
 20
68.8689
 30
0.0
 11
284.357
 21
68.8689
 31
0.0
  0
LINE
  8
0
 62
     0
 10
284.357
 20
68.8689
 30
0.0
 11
284.357
 21
65.7698
 31
0.0
  0
LINE
  8
0
 62
     0
 10
284.357
 20
65.7698
 30
0.0
 11
283.556
 21
65.7698
 31
0.0
  0
LINE
  8
0
 62
     0
 10
284.638
 20
52.2192
 30
0.0
 11
284.638
 21
45.9493
 31
0.0
  0
LINE
  8
0
 62
     0
 10
284.638
 20
45.9493
 30
0.0
 11
283.013
 21
45.9493
 31
0.0
  0
LINE
  8
0
 62
     0
 10
283.013
 20
45.9493
 30
0.0
 11
283.013
 21
44.7492
 31
0.0
  0
LINE
  8
0
 62
     0
 10
283.013
 20
44.7492
 30
0.0
 11
279.713
 21
44.7492
 31
0.0
  0
LINE
  8
0
 62
     0
 10
279.713
 20
44.7492
 30
0.0
 11
279.713
 21
45.9493
 31
0.0
  0
LINE
  8
0
 62
     0
 10
279.713
 20
45.9493
 30
0.0
 11
277.987
 21
45.9493
 31
0.0
  0
LINE
  8
0
 62
     0
 10
277.987
 20
45.9493
 30
0.0
 11
277.987
 21
46.7487
 31
0.0
  0
LINE
  8
0
 62
     0
 10
277.987
 20
46.7487
 30
0.0
 11
277.213
 21
46.7487
 31
0.0
  0
LINE
  8
0
 62
     0
 10
277.213
 20
46.7487
 30
0.0
 11
277.213
 21
46.7198
 31
0.0
  0
LINE
  8
0
 62
     0
 10
277.213
 20
46.7198
 30
0.0
 11
276.412
 21
46.7198
 31
0.0
  0
LINE
  8
0
 62
     0
 10
276.412
 20
46.7198
 30
0.0
 11
276.412
 21
45.7193
 31
0.0
  0
LINE
  8
0
 62
     0
 10
276.412
 20
45.7193
 30
0.0
 11
262.413
 21
45.7193
 31
0.0
  0
LINE
  8
0
 62
     0
 10
262.413
 20
45.7193
 30
0.0
 11
262.413
 21
46.7198
 31
0.0
  0
LINE
  8
0
 62
     0
 10
262.413
 20
46.7198
 30
0.0
 11
261.612
 21
46.7198
 31
0.0
  0
LINE
  8
0
 62
     0
 10
261.612
 20
46.7198
 30
0.0
 11
261.612
 21
46.7487
 31
0.0
  0
LINE
  8
0
 62
     0
 10
261.612
 20
46.7487
 30
0.0
 11
260.838
 21
46.7487
 31
0.0
  0
LINE
  8
0
 62
     0
 10
260.838
 20
46.7487
 30
0.0
 11
260.838
 21
45.9493
 31
0.0
  0
LINE
  8
0
 62
     0
 10
260.838
 20
45.9493
 30
0.0
 11
259.112
 21
45.9493
 31
0.0
  0
LINE
  8
0
 62
     0
 10
259.112
 20
45.9493
 30
0.0
 11
259.112
 21
44.7492
 31
0.0
  0
LINE
  8
0
 62
     0
 10
259.112
 20
44.7492
 30
0.0
 11
255.812
 21
44.7492
 31
0.0
  0
LINE
  8
0
 62
     0
 10
255.812
 20
44.7492
 30
0.0
 11
255.812
 21
45.9493
 31
0.0
  0
LINE
  8
0
 62
     0
 10
255.812
 20
45.9493
 30
0.0
 11
254.187
 21
45.9493
 31
0.0
  0
LINE
  8
0
 62
     0
 10
254.187
 20
45.9493
 30
0.0
 11
254.187
 21
52.2192
 31
0.0
  0
LINE
  8
0
 62
     0
 10
254.187
 20
52.2192
 30
0.0
 11
253.312
 21
52.2192
 31
0.0
  0
LINE
  8
0
 62
     0
 10
253.312
 20
52.2192
 30
0.0
 11
253.312
 21
55.0196
 31
0.0
  0
LINE
  8
0
 62
     0
 10
253.312
 20
55.0196
 30
0.0
 11
254.187
 21
55.0196
 31
0.0
  0
LINE
  8
0
 62
     0
 10
254.187
 20
55.0196
 30
0.0
 11
254.187
 21
58.2496
 31
0.0
  0
LINE
  8
0
 62
     0
 10
254.187
 20
58.2496
 30
0.0
 11
260.838
 21
58.2496
 31
0.0
  0
LINE
  8
0
 62
     0
 10
260.838
 20
58.2496
 30
0.0
 11
260.838
 21
57.4492
 31
0.0
  0
LINE
  8
0
 62
     0
 10
260.838
 20
57.4492
 30
0.0
 11
261.612
 21
57.4492
 31
0.0
  0
LINE
  8
0
 62
     0
 10
261.612
 20
57.4492
 30
0.0
 11
261.612
 21
58.7195
 31
0.0
  0
LINE
  8
0
 62
     0
 10
261.612
 20
58.7195
 30
0.0
 11
262.413
 21
58.7195
 31
0.0
  0
LINE
  8
0
 62
     0
 10
262.413
 20
58.7195
 30
0.0
 11
262.413
 21
59.7186
 31
0.0
  0
LINE
  8
0
 62
     0
 10
262.413
 20
59.7186
 30
0.0
 11
276.412
 21
59.7186
 31
0.0
  0
LINE
  8
0
 62
     0
 10
276.412
 20
59.7186
 30
0.0
 11
276.412
 21
58.7195
 31
0.0
  0
LINE
  8
0
 62
     0
 10
276.412
 20
58.7195
 30
0.0
 11
277.213
 21
58.7195
 31
0.0
  0
LINE
  8
0
 62
     0
 10
277.213
 20
58.7195
 30
0.0
 11
277.213
 21
57.4492
 31
0.0
  0
LINE
  8
0
 62
     0
 10
277.213
 20
57.4492
 30
0.0
 11
277.987
 21
57.4492
 31
0.0
  0
LINE
  8
0
 62
     0
 10
277.987
 20
57.4492
 30
0.0
 11
277.987
 21
58.2496
 31
0.0
  0
LINE
  8
0
 62
     0
 10
277.987
 20
58.2496
 30
0.0
 11
284.638
 21
58.2496
 31
0.0
  0
LINE
  8
0
 62
     0
 10
284.638
 20
58.2496
 30
0.0
 11
284.638
 21
55.0196
 31
0.0
  0
LINE
  8
0
 62
     0
 10
284.638
 20
55.0196
 30
0.0
 11
285.513
 21
55.0196
 31
0.0
  0
LINE
  8
0
 62
     0
 10
285.513
 20
55.0196
 30
0.0
 11
285.513
 21
52.2192
 31
0.0
  0
LINE
  8
0
 62
     0
 10
285.513
 20
52.2192
 30
0.0
 11
284.638
 21
52.2192
 31
0.0
  0
LINE
  8
0
 62
     0
 10
285.937
 20
8.61963
 30
0.0
 11
285.937
 21
7.61919
 31
0.0
  0
LINE
  8
0
 62
     0
 10
285.937
 20
7.61919
 30
0.0
 11
271.938
 21
7.61919
 31
0.0
  0
LINE
  8
0
 62
     0
 10
271.938
 20
7.61919
 30
0.0
 11
271.938
 21
8.61963
 31
0.0
  0
LINE
  8
0
 62
     0
 10
271.938
 20
8.61963
 30
0.0
 11
271.137
 21
8.61963
 31
0.0
  0
LINE
  8
0
 62
     0
 10
271.137
 20
8.61963
 30
0.0
 11
271.137
 21
11.7189
 31
0.0
  0
LINE
  8
0
 62
     0
 10
271.137
 20
11.7189
 30
0.0
 11
271.938
 21
11.7189
 31
0.0
  0
LINE
  8
0
 62
     0
 10
271.938
 20
11.7189
 30
0.0
 11
271.938
 21
17.519
 31
0.0
  0
LINE
  8
0
 62
     0
 10
271.938
 20
17.519
 30
0.0
 11
271.137
 21
17.519
 31
0.0
  0
LINE
  8
0
 62
     0
 10
271.137
 20
17.519
 30
0.0
 11
271.137
 21
20.6196
 31
0.0
  0
LINE
  8
0
 62
     0
 10
271.137
 20
20.6196
 30
0.0
 11
271.938
 21
20.6196
 31
0.0
  0
LINE
  8
0
 62
     0
 10
271.938
 20
20.6196
 30
0.0
 11
271.938
 21
21.6187
 31
0.0
  0
LINE
  8
0
 62
     0
 10
271.938
 20
21.6187
 30
0.0
 11
285.937
 21
21.6187
 31
0.0
  0
LINE
  8
0
 62
     0
 10
285.937
 20
21.6187
 30
0.0
 11
285.937
 21
20.6196
 31
0.0
  0
LINE
  8
0
 62
     0
 10
285.937
 20
20.6196
 30
0.0
 11
286.738
 21
20.6196
 31
0.0
  0
LINE
  8
0
 62
     0
 10
286.738
 20
20.6196
 30
0.0
 11
286.738
 21
17.519
 31
0.0
  0
LINE
  8
0
 62
     0
 10
286.738
 20
17.519
 30
0.0
 11
285.937
 21
17.519
 31
0.0
  0
LINE
  8
0
 62
     0
 10
285.937
 20
17.519
 30
0.0
 11
285.937
 21
11.7189
 31
0.0
  0
LINE
  8
0
 62
     0
 10
285.937
 20
11.7189
 30
0.0
 11
286.738
 21
11.7189
 31
0.0
  0
LINE
  8
0
 62
     0
 10
286.738
 20
11.7189
 30
0.0
 11
286.738
 21
8.61963
 31
0.0
  0
LINE
  8
0
 62
     0
 10
286.738
 20
8.61963
 30
0.0
 11
285.937
 21
8.61963
 31
0.0
  0
LINE
  8
0
 62
     0
 10
287.019
 20
90.3192
 30
0.0
 11
287.019
 21
84.0493
 31
0.0
  0
LINE
  8
0
 62
     0
 10
287.019
 20
84.0493
 30
0.0
 11
285.393
 21
84.0493
 31
0.0
  0
LINE
  8
0
 62
     0
 10
285.393
 20
84.0493
 30
0.0
 11
285.393
 21
82.8492
 31
0.0
  0
LINE
  8
0
 62
     0
 10
285.393
 20
82.8492
 30
0.0
 11
282.094
 21
82.8492
 31
0.0
  0
LINE
  8
0
 62
     0
 10
282.094
 20
82.8492
 30
0.0
 11
282.094
 21
84.0493
 31
0.0
  0
LINE
  8
0
 62
     0
 10
282.094
 20
84.0493
 30
0.0
 11
280.369
 21
84.0493
 31
0.0
  0
LINE
  8
0
 62
     0
 10
280.369
 20
84.0493
 30
0.0
 11
280.369
 21
84.8487
 31
0.0
  0
LINE
  8
0
 62
     0
 10
280.369
 20
84.8487
 30
0.0
 11
279.594
 21
84.8487
 31
0.0
  0
LINE
  8
0
 62
     0
 10
279.594
 20
84.8487
 30
0.0
 11
279.594
 21
84.8198
 31
0.0
  0
LINE
  8
0
 62
     0
 10
279.594
 20
84.8198
 30
0.0
 11
278.794
 21
84.8198
 31
0.0
  0
LINE
  8
0
 62
     0
 10
278.794
 20
84.8198
 30
0.0
 11
278.794
 21
83.8193
 31
0.0
  0
LINE
  8
0
 62
     0
 10
278.794
 20
83.8193
 30
0.0
 11
264.794
 21
83.8193
 31
0.0
  0
LINE
  8
0
 62
     0
 10
264.794
 20
83.8193
 30
0.0
 11
264.794
 21
84.8198
 31
0.0
  0
LINE
  8
0
 62
     0
 10
264.794
 20
84.8198
 30
0.0
 11
263.993
 21
84.8198
 31
0.0
  0
LINE
  8
0
 62
     0
 10
263.993
 20
84.8198
 30
0.0
 11
263.993
 21
84.8487
 31
0.0
  0
LINE
  8
0
 62
     0
 10
263.993
 20
84.8487
 30
0.0
 11
263.219
 21
84.8487
 31
0.0
  0
LINE
  8
0
 62
     0
 10
263.219
 20
84.8487
 30
0.0
 11
263.219
 21
84.0493
 31
0.0
  0
LINE
  8
0
 62
     0
 10
263.219
 20
84.0493
 30
0.0
 11
261.494
 21
84.0493
 31
0.0
  0
LINE
  8
0
 62
     0
 10
261.494
 20
84.0493
 30
0.0
 11
261.494
 21
82.8492
 31
0.0
  0
LINE
  8
0
 62
     0
 10
261.494
 20
82.8492
 30
0.0
 11
258.193
 21
82.8492
 31
0.0
  0
LINE
  8
0
 62
     0
 10
258.193
 20
82.8492
 30
0.0
 11
258.193
 21
84.0493
 31
0.0
  0
LINE
  8
0
 62
     0
 10
258.193
 20
84.0493
 30
0.0
 11
256.569
 21
84.0493
 31
0.0
  0
LINE
  8
0
 62
     0
 10
256.569
 20
84.0493
 30
0.0
 11
256.569
 21
90.3192
 31
0.0
  0
LINE
  8
0
 62
     0
 10
256.569
 20
90.3192
 30
0.0
 11
255.694
 21
90.3192
 31
0.0
  0
LINE
  8
0
 62
     0
 10
255.694
 20
90.3192
 30
0.0
 11
255.694
 21
93.1196
 31
0.0
  0
LINE
  8
0
 62
     0
 10
255.694
 20
93.1196
 30
0.0
 11
256.569
 21
93.1196
 31
0.0
  0
LINE
  8
0
 62
     0
 10
256.569
 20
93.1196
 30
0.0
 11
256.569
 21
96.3496
 31
0.0
  0
LINE
  8
0
 62
     0
 10
256.569
 20
96.3496
 30
0.0
 11
263.219
 21
96.3496
 31
0.0
  0
LINE
  8
0
 62
     0
 10
263.219
 20
96.3496
 30
0.0
 11
263.219
 21
95.5492
 31
0.0
  0
LINE
  8
0
 62
     0
 10
263.219
 20
95.5492
 30
0.0
 11
263.993
 21
95.5492
 31
0.0
  0
LINE
  8
0
 62
     0
 10
263.993
 20
95.5492
 30
0.0
 11
263.993
 21
96.8195
 31
0.0
  0
LINE
  8
0
 62
     0
 10
263.993
 20
96.8195
 30
0.0
 11
264.794
 21
96.8195
 31
0.0
  0
LINE
  8
0
 62
     0
 10
264.794
 20
96.8195
 30
0.0
 11
264.794
 21
97.8186
 31
0.0
  0
LINE
  8
0
 62
     0
 10
264.794
 20
97.8186
 30
0.0
 11
278.794
 21
97.8186
 31
0.0
  0
LINE
  8
0
 62
     0
 10
278.794
 20
97.8186
 30
0.0
 11
278.794
 21
96.8195
 31
0.0
  0
LINE
  8
0
 62
     0
 10
278.794
 20
96.8195
 30
0.0
 11
279.594
 21
96.8195
 31
0.0
  0
LINE
  8
0
 62
     0
 10
279.594
 20
96.8195
 30
0.0
 11
279.594
 21
95.5492
 31
0.0
  0
LINE
  8
0
 62
     0
 10
279.594
 20
95.5492
 30
0.0
 11
280.369
 21
95.5492
 31
0.0
  0
LINE
  8
0
 62
     0
 10
280.369
 20
95.5492
 30
0.0
 11
280.369
 21
96.3496
 31
0.0
  0
LINE
  8
0
 62
     0
 10
280.369
 20
96.3496
 30
0.0
 11
287.019
 21
96.3496
 31
0.0
  0
LINE
  8
0
 62
     0
 10
287.019
 20
96.3496
 30
0.0
 11
287.019
 21
93.1196
 31
0.0
  0
LINE
  8
0
 62
     0
 10
287.019
 20
93.1196
 30
0.0
 11
287.894
 21
93.1196
 31
0.0
  0
LINE
  8
0
 62
     0
 10
287.894
 20
93.1196
 30
0.0
 11
287.894
 21
90.3192
 31
0.0
  0
LINE
  8
0
 62
     0
 10
287.894
 20
90.3192
 30
0.0
 11
287.019
 21
90.3192
 31
0.0
  0
LINE
  8
0
 62
     0
 10
288.319
 20
27.6696
 30
0.0
 11
288.319
 21
26.6692
 31
0.0
  0
LINE
  8
0
 62
     0
 10
288.319
 20
26.6692
 30
0.0
 11
274.319
 21
26.6692
 31
0.0
  0
LINE
  8
0
 62
     0
 10
274.319
 20
26.6692
 30
0.0
 11
274.319
 21
27.6696
 31
0.0
  0
LINE
  8
0
 62
     0
 10
274.319
 20
27.6696
 30
0.0
 11
273.518
 21
27.6696
 31
0.0
  0
LINE
  8
0
 62
     0
 10
273.518
 20
27.6696
 30
0.0
 11
273.518
 21
30.7689
 31
0.0
  0
LINE
  8
0
 62
     0
 10
273.518
 20
30.7689
 30
0.0
 11
274.319
 21
30.7689
 31
0.0
  0
LINE
  8
0
 62
     0
 10
274.319
 20
30.7689
 30
0.0
 11
274.319
 21
36.5689
 31
0.0
  0
LINE
  8
0
 62
     0
 10
274.319
 20
36.5689
 30
0.0
 11
273.518
 21
36.5689
 31
0.0
  0
LINE
  8
0
 62
     0
 10
273.518
 20
36.5689
 30
0.0
 11
273.518
 21
39.6695
 31
0.0
  0
LINE
  8
0
 62
     0
 10
273.518
 20
39.6695
 30
0.0
 11
274.319
 21
39.6695
 31
0.0
  0
LINE
  8
0
 62
     0
 10
274.319
 20
39.6695
 30
0.0
 11
274.319
 21
40.6686
 31
0.0
  0
LINE
  8
0
 62
     0
 10
274.319
 20
40.6686
 30
0.0
 11
288.319
 21
40.6686
 31
0.0
  0
LINE
  8
0
 62
     0
 10
288.319
 20
40.6686
 30
0.0
 11
288.319
 21
39.6695
 31
0.0
  0
LINE
  8
0
 62
     0
 10
288.319
 20
39.6695
 30
0.0
 11
289.119
 21
39.6695
 31
0.0
  0
LINE
  8
0
 62
     0
 10
289.119
 20
39.6695
 30
0.0
 11
289.119
 21
36.5689
 31
0.0
  0
LINE
  8
0
 62
     0
 10
289.119
 20
36.5689
 30
0.0
 11
288.319
 21
36.5689
 31
0.0
  0
LINE
  8
0
 62
     0
 10
288.319
 20
36.5689
 30
0.0
 11
288.319
 21
30.7689
 31
0.0
  0
LINE
  8
0
 62
     0
 10
288.319
 20
30.7689
 30
0.0
 11
289.119
 21
30.7689
 31
0.0
  0
LINE
  8
0
 62
     0
 10
289.119
 20
30.7689
 30
0.0
 11
289.119
 21
27.6696
 31
0.0
  0
LINE
  8
0
 62
     0
 10
289.119
 20
27.6696
 30
0.0
 11
288.319
 21
27.6696
 31
0.0
  0
ENDSEC
  0
EOF
