  0
SECTION
  2
HEADER
  9
$ACADVER
  1
AC1009
  9
$EXTMIN
 10
0.0
 20
0.0
 30
0.0
  9
$EXTMAX
 10
1000.0
 20
1000.0
 30
0.0
  9
$FILLMODE
 70
 0
  9
$SPLFRAME
 70
 1
  0
ENDSEC
  0
SECTION
  2
TABLES
  0
TABLE
  2
LAYER
 70
1
  0
LAYER
  2
0
 70
     0
 62
     7
  6
CONTINUOUS
  0
ENDTAB
  0
ENDSEC
  0
SECTION
  2
ENTITIES
  0
LINE
  8
0
 62
     0
 10
171.019
 20
105.344
 30
0.0
 11
171.097
 21
105.341
 31
0.0
  0
LINE
  8
0
 62
     0
 10
171.097
 20
105.341
 30
0.0
 11
171.174
 21
105.332
 31
0.0
  0
LINE
  8
0
 62
     0
 10
171.174
 20
105.332
 30
0.0
 11
171.252
 21
105.317
 31
0.0
  0
LINE
  8
0
 62
     0
 10
171.252
 20
105.317
 30
0.0
 11
171.327
 21
105.295
 31
0.0
  0
LINE
  8
0
 62
     0
 10
171.327
 20
105.295
 30
0.0
 11
171.402
 21
105.268
 31
0.0
  0
LINE
  8
0
 62
     0
 10
171.402
 20
105.268
 30
0.0
 11
171.473
 21
105.235
 31
0.0
  0
LINE
  8
0
 62
     0
 10
171.473
 20
105.235
 30
0.0
 11
171.541
 21
105.197
 31
0.0
  0
LINE
  8
0
 62
     0
 10
171.541
 20
105.197
 30
0.0
 11
171.607
 21
105.152
 31
0.0
  0
LINE
  8
0
 62
     0
 10
171.607
 20
105.152
 30
0.0
 11
171.668
 21
105.104
 31
0.0
  0
LINE
  8
0
 62
     0
 10
171.668
 20
105.104
 30
0.0
 11
171.726
 21
105.051
 31
0.0
  0
LINE
  8
0
 62
     0
 10
171.726
 20
105.051
 30
0.0
 11
171.779
 21
104.993
 31
0.0
  0
LINE
  8
0
 62
     0
 10
171.779
 20
104.993
 30
0.0
 11
171.827
 21
104.932
 31
0.0
  0
LINE
  8
0
 62
     0
 10
171.827
 20
104.932
 30
0.0
 11
171.872
 21
104.866
 31
0.0
  0
LINE
  8
0
 62
     0
 10
171.872
 20
104.866
 30
0.0
 11
171.91
 21
104.798
 31
0.0
  0
LINE
  8
0
 62
     0
 10
171.91
 20
104.798
 30
0.0
 11
171.943
 21
104.727
 31
0.0
  0
LINE
  8
0
 62
     0
 10
171.943
 20
104.727
 30
0.0
 11
171.97
 21
104.654
 31
0.0
  0
LINE
  8
0
 62
     0
 10
171.97
 20
104.654
 30
0.0
 11
171.99
 21
104.577
 31
0.0
  0
LINE
  8
0
 62
     0
 10
171.99
 20
104.577
 30
0.0
 11
172.007
 21
104.501
 31
0.0
  0
LINE
  8
0
 62
     0
 10
172.007
 20
104.501
 30
0.0
 11
172.016
 21
104.422
 31
0.0
  0
LINE
  8
0
 62
     0
 10
172.016
 20
104.422
 30
0.0
 11
172.019
 21
104.344
 31
0.0
  0
LINE
  8
0
 62
     0
 10
172.019
 20
104.344
 30
0.0
 11
172.019
 21
1.09416
 31
0.0
  0
LINE
  8
0
 62
     0
 10
172.019
 20
1.09416
 30
0.0
 11
172.016
 21
1.01562
 31
0.0
  0
LINE
  8
0
 62
     0
 10
172.016
 20
1.01562
 30
0.0
 11
172.007
 21
0.938445
 31
0.0
  0
LINE
  8
0
 62
     0
 10
172.007
 20
0.938445
 30
0.0
 11
171.99
 21
0.861275
 31
0.0
  0
LINE
  8
0
 62
     0
 10
171.99
 20
0.861275
 30
0.0
 11
171.97
 21
0.785481
 31
0.0
  0
LINE
  8
0
 62
     0
 10
171.97
 20
0.785481
 30
0.0
 11
171.943
 21
0.711069
 31
0.0
  0
LINE
  8
0
 62
     0
 10
171.943
 20
0.711069
 30
0.0
 11
171.91
 21
0.63941
 31
0.0
  0
LINE
  8
0
 62
     0
 10
171.91
 20
0.63941
 30
0.0
 11
171.872
 21
0.571885
 31
0.0
  0
LINE
  8
0
 62
     0
 10
171.872
 20
0.571885
 30
0.0
 11
171.827
 21
0.505739
 31
0.0
  0
LINE
  8
0
 62
     0
 10
171.827
 20
0.505739
 30
0.0
 11
171.779
 21
0.445107
 31
0.0
  0
LINE
  8
0
 62
     0
 10
171.779
 20
0.445107
 30
0.0
 11
171.726
 21
0.38723
 31
0.0
  0
LINE
  8
0
 62
     0
 10
171.726
 20
0.38723
 30
0.0
 11
171.668
 21
0.333485
 31
0.0
  0
LINE
  8
0
 62
     0
 10
171.668
 20
0.333485
 30
0.0
 11
171.607
 21
0.285254
 31
0.0
  0
LINE
  8
0
 62
     0
 10
171.607
 20
0.285254
 30
0.0
 11
171.541
 21
0.241157
 31
0.0
  0
LINE
  8
0
 62
     0
 10
171.541
 20
0.241157
 30
0.0
 11
171.473
 21
0.202572
 31
0.0
  0
LINE
  8
0
 62
     0
 10
171.473
 20
0.202572
 30
0.0
 11
171.402
 21
0.169499
 31
0.0
  0
LINE
  8
0
 62
     0
 10
171.402
 20
0.169499
 30
0.0
 11
171.327
 21
0.143316
 31
0.0
  0
LINE
  8
0
 62
     0
 10
171.327
 20
0.143316
 30
0.0
 11
171.252
 21
0.122645
 31
0.0
  0
LINE
  8
0
 62
     0
 10
171.252
 20
0.122645
 30
0.0
 11
171.174
 21
0.106109
 31
0.0
  0
LINE
  8
0
 62
     0
 10
171.174
 20
0.106109
 30
0.0
 11
171.097
 21
0.0964629
 31
0.0
  0
LINE
  8
0
 62
     0
 10
171.097
 20
0.0964629
 30
0.0
 11
171.019
 21
0.0937066
 31
0.0
  0
LINE
  8
0
 62
     0
 10
171.019
 20
0.0937066
 30
0.0
 11
1.09416
 21
0.0937066
 31
0.0
  0
LINE
  8
0
 62
     0
 10
1.09416
 20
0.0937066
 30
0.0
 11
1.01562
 21
0.0964629
 31
0.0
  0
LINE
  8
0
 62
     0
 10
1.01562
 20
0.0964629
 30
0.0
 11
0.937066
 21
0.106109
 31
0.0
  0
LINE
  8
0
 62
     0
 10
0.937066
 20
0.106109
 30
0.0
 11
0.861275
 21
0.122645
 31
0.0
  0
LINE
  8
0
 62
     0
 10
0.861275
 20
0.122645
 30
0.0
 11
0.784105
 21
0.143316
 31
0.0
  0
LINE
  8
0
 62
     0
 10
0.784105
 20
0.143316
 30
0.0
 11
0.711069
 21
0.169499
 31
0.0
  0
LINE
  8
0
 62
     0
 10
0.711069
 20
0.169499
 30
0.0
 11
0.63941
 21
0.202572
 31
0.0
  0
LINE
  8
0
 62
     0
 10
0.63941
 20
0.202572
 30
0.0
 11
0.571885
 21
0.241157
 31
0.0
  0
LINE
  8
0
 62
     0
 10
0.571885
 20
0.241157
 30
0.0
 11
0.505739
 21
0.285254
 31
0.0
  0
LINE
  8
0
 62
     0
 10
0.505739
 20
0.285254
 30
0.0
 11
0.445107
 21
0.333485
 31
0.0
  0
LINE
  8
0
 62
     0
 10
0.445107
 20
0.333485
 30
0.0
 11
0.38723
 21
0.38723
 31
0.0
  0
LINE
  8
0
 62
     0
 10
0.38723
 20
0.38723
 30
0.0
 11
0.333485
 21
0.445107
 31
0.0
  0
LINE
  8
0
 62
     0
 10
0.333485
 20
0.445107
 30
0.0
 11
0.285254
 21
0.505739
 31
0.0
  0
LINE
  8
0
 62
     0
 10
0.285254
 20
0.505739
 30
0.0
 11
0.241157
 21
0.571885
 31
0.0
  0
LINE
  8
0
 62
     0
 10
0.241157
 20
0.571885
 30
0.0
 11
0.202572
 21
0.63941
 31
0.0
  0
LINE
  8
0
 62
     0
 10
0.202572
 20
0.63941
 30
0.0
 11
0.169499
 21
0.711069
 31
0.0
  0
LINE
  8
0
 62
     0
 10
0.169499
 20
0.711069
 30
0.0
 11
0.143316
 21
0.785481
 31
0.0
  0
LINE
  8
0
 62
     0
 10
0.143316
 20
0.785481
 30
0.0
 11
0.121267
 21
0.861275
 31
0.0
  0
LINE
  8
0
 62
     0
 10
0.121267
 20
0.861275
 30
0.0
 11
0.106109
 21
0.938445
 31
0.0
  0
LINE
  8
0
 62
     0
 10
0.106109
 20
0.938445
 30
0.0
 11
0.0964629
 21
1.01562
 31
0.0
  0
LINE
  8
0
 62
     0
 10
0.0964629
 20
1.01562
 30
0.0
 11
0.0937066
 21
1.09416
 31
0.0
  0
LINE
  8
0
 62
     0
 10
0.0937066
 20
1.09416
 30
0.0
 11
0.0937066
 21
104.344
 31
0.0
  0
LINE
  8
0
 62
     0
 10
0.0937066
 20
104.344
 30
0.0
 11
0.0964629
 21
104.422
 31
0.0
  0
LINE
  8
0
 62
     0
 10
0.0964629
 20
104.422
 30
0.0
 11
0.106109
 21
104.501
 31
0.0
  0
LINE
  8
0
 62
     0
 10
0.106109
 20
104.501
 30
0.0
 11
0.121267
 21
104.577
 31
0.0
  0
LINE
  8
0
 62
     0
 10
0.121267
 20
104.577
 30
0.0
 11
0.143316
 21
104.654
 31
0.0
  0
LINE
  8
0
 62
     0
 10
0.143316
 20
104.654
 30
0.0
 11
0.169499
 21
104.727
 31
0.0
  0
LINE
  8
0
 62
     0
 10
0.169499
 20
104.727
 30
0.0
 11
0.202572
 21
104.798
 31
0.0
  0
LINE
  8
0
 62
     0
 10
0.202572
 20
104.798
 30
0.0
 11
0.241157
 21
104.866
 31
0.0
  0
LINE
  8
0
 62
     0
 10
0.241157
 20
104.866
 30
0.0
 11
0.285254
 21
104.932
 31
0.0
  0
LINE
  8
0
 62
     0
 10
0.285254
 20
104.932
 30
0.0
 11
0.333485
 21
104.993
 31
0.0
  0
LINE
  8
0
 62
     0
 10
0.333485
 20
104.993
 30
0.0
 11
0.38723
 21
105.051
 31
0.0
  0
LINE
  8
0
 62
     0
 10
0.38723
 20
105.051
 30
0.0
 11
0.445107
 21
105.104
 31
0.0
  0
LINE
  8
0
 62
     0
 10
0.445107
 20
105.104
 30
0.0
 11
0.505739
 21
105.152
 31
0.0
  0
LINE
  8
0
 62
     0
 10
0.505739
 20
105.152
 30
0.0
 11
0.571885
 21
105.197
 31
0.0
  0
LINE
  8
0
 62
     0
 10
0.571885
 20
105.197
 30
0.0
 11
0.63941
 21
105.235
 31
0.0
  0
LINE
  8
0
 62
     0
 10
0.63941
 20
105.235
 30
0.0
 11
0.711069
 21
105.268
 31
0.0
  0
LINE
  8
0
 62
     0
 10
0.711069
 20
105.268
 30
0.0
 11
0.784105
 21
105.295
 31
0.0
  0
LINE
  8
0
 62
     0
 10
0.784105
 20
105.295
 30
0.0
 11
0.861275
 21
105.317
 31
0.0
  0
LINE
  8
0
 62
     0
 10
0.861275
 20
105.317
 30
0.0
 11
0.937066
 21
105.332
 31
0.0
  0
LINE
  8
0
 62
     0
 10
0.937066
 20
105.332
 30
0.0
 11
1.01562
 21
105.341
 31
0.0
  0
LINE
  8
0
 62
     0
 10
1.01562
 20
105.341
 30
0.0
 11
1.09416
 21
105.344
 31
0.0
  0
LINE
  8
0
 62
     0
 10
1.09416
 20
105.344
 30
0.0
 11
171.019
 21
105.344
 31
0.0
  0
LINE
  8
0
 62
     0
 10
58.2359
 20
103.843
 30
0.0
 11
58.5445
 21
103.795
 31
0.0
  0
LINE
  8
0
 62
     0
 10
58.5445
 20
103.795
 30
0.0
 11
58.8229
 21
103.653
 31
0.0
  0
LINE
  8
0
 62
     0
 10
58.8229
 20
103.653
 30
0.0
 11
59.0448
 21
103.431
 31
0.0
  0
LINE
  8
0
 62
     0
 10
59.0448
 20
103.431
 30
0.0
 11
59.1866
 21
103.153
 31
0.0
  0
LINE
  8
0
 62
     0
 10
59.1866
 20
103.153
 30
0.0
 11
59.2363
 21
102.844
 31
0.0
  0
LINE
  8
0
 62
     0
 10
59.2363
 20
102.844
 30
0.0
 11
59.1866
 21
102.536
 31
0.0
  0
LINE
  8
0
 62
     0
 10
59.1866
 20
102.536
 30
0.0
 11
59.0448
 21
102.256
 31
0.0
  0
LINE
  8
0
 62
     0
 10
59.0448
 20
102.256
 30
0.0
 11
58.8229
 21
102.035
 31
0.0
  0
LINE
  8
0
 62
     0
 10
58.8229
 20
102.035
 30
0.0
 11
58.5445
 21
101.894
 31
0.0
  0
LINE
  8
0
 62
     0
 10
58.5445
 20
101.894
 30
0.0
 11
58.2359
 21
101.844
 31
0.0
  0
LINE
  8
0
 62
     0
 10
58.2359
 20
101.844
 30
0.0
 11
57.9272
 21
101.894
 31
0.0
  0
LINE
  8
0
 62
     0
 10
57.9272
 20
101.894
 30
0.0
 11
57.6474
 21
102.035
 31
0.0
  0
LINE
  8
0
 62
     0
 10
57.6474
 20
102.035
 30
0.0
 11
57.4269
 21
102.256
 31
0.0
  0
LINE
  8
0
 62
     0
 10
57.4269
 20
102.256
 30
0.0
 11
57.2851
 21
102.536
 31
0.0
  0
LINE
  8
0
 62
     0
 10
57.2851
 20
102.536
 30
0.0
 11
57.2354
 21
102.844
 31
0.0
  0
LINE
  8
0
 62
     0
 10
57.2354
 20
102.844
 30
0.0
 11
57.2851
 21
103.153
 31
0.0
  0
LINE
  8
0
 62
     0
 10
57.2851
 20
103.153
 30
0.0
 11
57.4269
 21
103.431
 31
0.0
  0
LINE
  8
0
 62
     0
 10
57.4269
 20
103.431
 30
0.0
 11
57.6474
 21
103.653
 31
0.0
  0
LINE
  8
0
 62
     0
 10
57.6474
 20
103.653
 30
0.0
 11
57.9272
 21
103.795
 31
0.0
  0
LINE
  8
0
 62
     0
 10
57.9272
 20
103.795
 30
0.0
 11
58.2359
 21
103.843
 31
0.0
  0
LINE
  8
0
 62
     0
 10
113.877
 20
103.843
 30
0.0
 11
114.186
 21
103.795
 31
0.0
  0
LINE
  8
0
 62
     0
 10
114.186
 20
103.795
 30
0.0
 11
114.465
 21
103.653
 31
0.0
  0
LINE
  8
0
 62
     0
 10
114.465
 20
103.653
 30
0.0
 11
114.686
 21
103.431
 31
0.0
  0
LINE
  8
0
 62
     0
 10
114.686
 20
103.431
 30
0.0
 11
114.828
 21
103.153
 31
0.0
  0
LINE
  8
0
 62
     0
 10
114.828
 20
103.153
 30
0.0
 11
114.877
 21
102.844
 31
0.0
  0
LINE
  8
0
 62
     0
 10
114.877
 20
102.844
 30
0.0
 11
114.828
 21
102.536
 31
0.0
  0
LINE
  8
0
 62
     0
 10
114.828
 20
102.536
 30
0.0
 11
114.686
 21
102.256
 31
0.0
  0
LINE
  8
0
 62
     0
 10
114.686
 20
102.256
 30
0.0
 11
114.465
 21
102.035
 31
0.0
  0
LINE
  8
0
 62
     0
 10
114.465
 20
102.035
 30
0.0
 11
114.186
 21
101.894
 31
0.0
  0
LINE
  8
0
 62
     0
 10
114.186
 20
101.894
 30
0.0
 11
113.877
 21
101.844
 31
0.0
  0
LINE
  8
0
 62
     0
 10
113.877
 20
101.844
 30
0.0
 11
113.568
 21
101.894
 31
0.0
  0
LINE
  8
0
 62
     0
 10
113.568
 20
101.894
 30
0.0
 11
113.29
 21
102.035
 31
0.0
  0
LINE
  8
0
 62
     0
 10
113.29
 20
102.035
 30
0.0
 11
113.068
 21
102.256
 31
0.0
  0
LINE
  8
0
 62
     0
 10
113.068
 20
102.256
 30
0.0
 11
112.926
 21
102.536
 31
0.0
  0
LINE
  8
0
 62
     0
 10
112.926
 20
102.536
 30
0.0
 11
112.877
 21
102.844
 31
0.0
  0
LINE
  8
0
 62
     0
 10
112.877
 20
102.844
 30
0.0
 11
112.926
 21
103.153
 31
0.0
  0
LINE
  8
0
 62
     0
 10
112.926
 20
103.153
 30
0.0
 11
113.068
 21
103.431
 31
0.0
  0
LINE
  8
0
 62
     0
 10
113.068
 20
103.431
 30
0.0
 11
113.29
 21
103.653
 31
0.0
  0
LINE
  8
0
 62
     0
 10
113.29
 20
103.653
 30
0.0
 11
113.568
 21
103.795
 31
0.0
  0
LINE
  8
0
 62
     0
 10
113.568
 20
103.795
 30
0.0
 11
113.877
 21
103.843
 31
0.0
  0
LINE
  8
0
 62
     0
 10
169.519
 20
103.843
 30
0.0
 11
169.828
 21
103.795
 31
0.0
  0
LINE
  8
0
 62
     0
 10
169.828
 20
103.795
 30
0.0
 11
170.106
 21
103.653
 31
0.0
  0
LINE
  8
0
 62
     0
 10
170.106
 20
103.653
 30
0.0
 11
170.328
 21
103.431
 31
0.0
  0
LINE
  8
0
 62
     0
 10
170.328
 20
103.431
 30
0.0
 11
170.47
 21
103.153
 31
0.0
  0
LINE
  8
0
 62
     0
 10
170.47
 20
103.153
 30
0.0
 11
170.518
 21
102.844
 31
0.0
  0
LINE
  8
0
 62
     0
 10
170.518
 20
102.844
 30
0.0
 11
170.47
 21
102.536
 31
0.0
  0
LINE
  8
0
 62
     0
 10
170.47
 20
102.536
 30
0.0
 11
170.328
 21
102.256
 31
0.0
  0
LINE
  8
0
 62
     0
 10
170.328
 20
102.256
 30
0.0
 11
170.106
 21
102.035
 31
0.0
  0
LINE
  8
0
 62
     0
 10
170.106
 20
102.035
 30
0.0
 11
169.828
 21
101.894
 31
0.0
  0
LINE
  8
0
 62
     0
 10
169.828
 20
101.894
 30
0.0
 11
169.519
 21
101.844
 31
0.0
  0
LINE
  8
0
 62
     0
 10
169.519
 20
101.844
 30
0.0
 11
169.209
 21
101.894
 31
0.0
  0
LINE
  8
0
 62
     0
 10
169.209
 20
101.894
 30
0.0
 11
168.931
 21
102.035
 31
0.0
  0
LINE
  8
0
 62
     0
 10
168.931
 20
102.035
 30
0.0
 11
168.709
 21
102.256
 31
0.0
  0
LINE
  8
0
 62
     0
 10
168.709
 20
102.256
 30
0.0
 11
168.567
 21
102.536
 31
0.0
  0
LINE
  8
0
 62
     0
 10
168.567
 20
102.536
 30
0.0
 11
168.519
 21
102.844
 31
0.0
  0
LINE
  8
0
 62
     0
 10
168.519
 20
102.844
 30
0.0
 11
168.567
 21
103.153
 31
0.0
  0
LINE
  8
0
 62
     0
 10
168.567
 20
103.153
 30
0.0
 11
168.709
 21
103.431
 31
0.0
  0
LINE
  8
0
 62
     0
 10
168.709
 20
103.431
 30
0.0
 11
168.931
 21
103.653
 31
0.0
  0
LINE
  8
0
 62
     0
 10
168.931
 20
103.653
 30
0.0
 11
169.209
 21
103.795
 31
0.0
  0
LINE
  8
0
 62
     0
 10
169.209
 20
103.795
 30
0.0
 11
169.519
 21
103.843
 31
0.0
  0
LINE
  8
0
 62
     0
 10
169.519
 20
53.7185
 30
0.0
 11
169.828
 21
53.6706
 31
0.0
  0
LINE
  8
0
 62
     0
 10
169.828
 20
53.6706
 30
0.0
 11
170.106
 21
53.5284
 31
0.0
  0
LINE
  8
0
 62
     0
 10
170.106
 20
53.5284
 30
0.0
 11
170.328
 21
53.3065
 31
0.0
  0
LINE
  8
0
 62
     0
 10
170.328
 20
53.3065
 30
0.0
 11
170.47
 21
53.0281
 31
0.0
  0
LINE
  8
0
 62
     0
 10
170.47
 20
53.0281
 30
0.0
 11
170.518
 21
52.7195
 31
0.0
  0
LINE
  8
0
 62
     0
 10
170.518
 20
52.7195
 30
0.0
 11
170.47
 21
52.4097
 31
0.0
  0
LINE
  8
0
 62
     0
 10
170.47
 20
52.4097
 30
0.0
 11
170.328
 21
52.131
 31
0.0
  0
LINE
  8
0
 62
     0
 10
170.328
 20
52.131
 30
0.0
 11
170.106
 21
51.9105
 31
0.0
  0
LINE
  8
0
 62
     0
 10
170.106
 20
51.9105
 30
0.0
 11
169.828
 21
51.7687
 31
0.0
  0
LINE
  8
0
 62
     0
 10
169.828
 20
51.7687
 30
0.0
 11
169.519
 21
51.719
 31
0.0
  0
LINE
  8
0
 62
     0
 10
169.519
 20
51.719
 30
0.0
 11
169.209
 21
51.7687
 31
0.0
  0
LINE
  8
0
 62
     0
 10
169.209
 20
51.7687
 30
0.0
 11
168.931
 21
51.9105
 31
0.0
  0
LINE
  8
0
 62
     0
 10
168.931
 20
51.9105
 30
0.0
 11
168.709
 21
52.131
 31
0.0
  0
LINE
  8
0
 62
     0
 10
168.709
 20
52.131
 30
0.0
 11
168.567
 21
52.4097
 31
0.0
  0
LINE
  8
0
 62
     0
 10
168.567
 20
52.4097
 30
0.0
 11
168.519
 21
52.7195
 31
0.0
  0
LINE
  8
0
 62
     0
 10
168.519
 20
52.7195
 30
0.0
 11
168.567
 21
53.0281
 31
0.0
  0
LINE
  8
0
 62
     0
 10
168.567
 20
53.0281
 30
0.0
 11
168.709
 21
53.3065
 31
0.0
  0
LINE
  8
0
 62
     0
 10
168.709
 20
53.3065
 30
0.0
 11
168.931
 21
53.5284
 31
0.0
  0
LINE
  8
0
 62
     0
 10
168.931
 20
53.5284
 30
0.0
 11
169.209
 21
53.6706
 31
0.0
  0
LINE
  8
0
 62
     0
 10
169.209
 20
53.6706
 30
0.0
 11
169.519
 21
53.7185
 31
0.0
  0
LINE
  8
0
 62
     0
 10
169.519
 20
3.59392
 30
0.0
 11
169.828
 21
3.5457
 31
0.0
  0
LINE
  8
0
 62
     0
 10
169.828
 20
3.5457
 30
0.0
 11
170.106
 21
3.40376
 31
0.0
  0
LINE
  8
0
 62
     0
 10
170.106
 20
3.40376
 30
0.0
 11
170.328
 21
3.18189
 31
0.0
  0
LINE
  8
0
 62
     0
 10
170.328
 20
3.18189
 30
0.0
 11
170.47
 21
2.90353
 31
0.0
  0
LINE
  8
0
 62
     0
 10
170.47
 20
2.90353
 30
0.0
 11
170.518
 21
2.59347
 31
0.0
  0
LINE
  8
0
 62
     0
 10
170.518
 20
2.59347
 30
0.0
 11
170.47
 21
2.28479
 31
0.0
  0
LINE
  8
0
 62
     0
 10
170.47
 20
2.28479
 30
0.0
 11
170.328
 21
2.00642
 31
0.0
  0
LINE
  8
0
 62
     0
 10
170.328
 20
2.00642
 30
0.0
 11
170.106
 21
1.78456
 31
0.0
  0
LINE
  8
0
 62
     0
 10
170.106
 20
1.78456
 30
0.0
 11
169.828
 21
1.64262
 31
0.0
  0
LINE
  8
0
 62
     0
 10
169.828
 20
1.64262
 30
0.0
 11
169.519
 21
1.59439
 31
0.0
  0
LINE
  8
0
 62
     0
 10
169.519
 20
1.59439
 30
0.0
 11
169.209
 21
1.64262
 31
0.0
  0
LINE
  8
0
 62
     0
 10
169.209
 20
1.64262
 30
0.0
 11
168.931
 21
1.78456
 31
0.0
  0
LINE
  8
0
 62
     0
 10
168.931
 20
1.78456
 30
0.0
 11
168.709
 21
2.00642
 31
0.0
  0
LINE
  8
0
 62
     0
 10
168.709
 20
2.00642
 30
0.0
 11
168.567
 21
2.28479
 31
0.0
  0
LINE
  8
0
 62
     0
 10
168.567
 20
2.28479
 30
0.0
 11
168.519
 21
2.59347
 31
0.0
  0
LINE
  8
0
 62
     0
 10
168.519
 20
2.59347
 30
0.0
 11
168.567
 21
2.90353
 31
0.0
  0
LINE
  8
0
 62
     0
 10
168.567
 20
2.90353
 30
0.0
 11
168.709
 21
3.18189
 31
0.0
  0
LINE
  8
0
 62
     0
 10
168.709
 20
3.18189
 30
0.0
 11
168.931
 21
3.40376
 31
0.0
  0
LINE
  8
0
 62
     0
 10
168.931
 20
3.40376
 30
0.0
 11
169.209
 21
3.5457
 31
0.0
  0
LINE
  8
0
 62
     0
 10
169.209
 20
3.5457
 30
0.0
 11
169.519
 21
3.59392
 31
0.0
  0
LINE
  8
0
 62
     0
 10
113.877
 20
3.59392
 30
0.0
 11
114.186
 21
3.5457
 31
0.0
  0
LINE
  8
0
 62
     0
 10
114.186
 20
3.5457
 30
0.0
 11
114.465
 21
3.40376
 31
0.0
  0
LINE
  8
0
 62
     0
 10
114.465
 20
3.40376
 30
0.0
 11
114.686
 21
3.18189
 31
0.0
  0
LINE
  8
0
 62
     0
 10
114.686
 20
3.18189
 30
0.0
 11
114.828
 21
2.90353
 31
0.0
  0
LINE
  8
0
 62
     0
 10
114.828
 20
2.90353
 30
0.0
 11
114.877
 21
2.59347
 31
0.0
  0
LINE
  8
0
 62
     0
 10
114.877
 20
2.59347
 30
0.0
 11
114.828
 21
2.28479
 31
0.0
  0
LINE
  8
0
 62
     0
 10
114.828
 20
2.28479
 30
0.0
 11
114.686
 21
2.00642
 31
0.0
  0
LINE
  8
0
 62
     0
 10
114.686
 20
2.00642
 30
0.0
 11
114.465
 21
1.78456
 31
0.0
  0
LINE
  8
0
 62
     0
 10
114.465
 20
1.78456
 30
0.0
 11
114.186
 21
1.64262
 31
0.0
  0
LINE
  8
0
 62
     0
 10
114.186
 20
1.64262
 30
0.0
 11
113.877
 21
1.59439
 31
0.0
  0
LINE
  8
0
 62
     0
 10
113.877
 20
1.59439
 30
0.0
 11
113.568
 21
1.64262
 31
0.0
  0
LINE
  8
0
 62
     0
 10
113.568
 20
1.64262
 30
0.0
 11
113.29
 21
1.78456
 31
0.0
  0
LINE
  8
0
 62
     0
 10
113.29
 20
1.78456
 30
0.0
 11
113.068
 21
2.00642
 31
0.0
  0
LINE
  8
0
 62
     0
 10
113.068
 20
2.00642
 30
0.0
 11
112.926
 21
2.28479
 31
0.0
  0
LINE
  8
0
 62
     0
 10
112.926
 20
2.28479
 30
0.0
 11
112.877
 21
2.59347
 31
0.0
  0
LINE
  8
0
 62
     0
 10
112.877
 20
2.59347
 30
0.0
 11
112.926
 21
2.90353
 31
0.0
  0
LINE
  8
0
 62
     0
 10
112.926
 20
2.90353
 30
0.0
 11
113.068
 21
3.18189
 31
0.0
  0
LINE
  8
0
 62
     0
 10
113.068
 20
3.18189
 30
0.0
 11
113.29
 21
3.40376
 31
0.0
  0
LINE
  8
0
 62
     0
 10
113.29
 20
3.40376
 30
0.0
 11
113.568
 21
3.5457
 31
0.0
  0
LINE
  8
0
 62
     0
 10
113.568
 20
3.5457
 30
0.0
 11
113.877
 21
3.59392
 31
0.0
  0
LINE
  8
0
 62
     0
 10
58.2359
 20
3.59392
 30
0.0
 11
58.5445
 21
3.5457
 31
0.0
  0
LINE
  8
0
 62
     0
 10
58.5445
 20
3.5457
 30
0.0
 11
58.8229
 21
3.40376
 31
0.0
  0
LINE
  8
0
 62
     0
 10
58.8229
 20
3.40376
 30
0.0
 11
59.0448
 21
3.18189
 31
0.0
  0
LINE
  8
0
 62
     0
 10
59.0448
 20
3.18189
 30
0.0
 11
59.1866
 21
2.90353
 31
0.0
  0
LINE
  8
0
 62
     0
 10
59.1866
 20
2.90353
 30
0.0
 11
59.2363
 21
2.59347
 31
0.0
  0
LINE
  8
0
 62
     0
 10
59.2363
 20
2.59347
 30
0.0
 11
59.1866
 21
2.28479
 31
0.0
  0
LINE
  8
0
 62
     0
 10
59.1866
 20
2.28479
 30
0.0
 11
59.0448
 21
2.00642
 31
0.0
  0
LINE
  8
0
 62
     0
 10
59.0448
 20
2.00642
 30
0.0
 11
58.8229
 21
1.78456
 31
0.0
  0
LINE
  8
0
 62
     0
 10
58.8229
 20
1.78456
 30
0.0
 11
58.5445
 21
1.64262
 31
0.0
  0
LINE
  8
0
 62
     0
 10
58.5445
 20
1.64262
 30
0.0
 11
58.2359
 21
1.59439
 31
0.0
  0
LINE
  8
0
 62
     0
 10
58.2359
 20
1.59439
 30
0.0
 11
57.9272
 21
1.64262
 31
0.0
  0
LINE
  8
0
 62
     0
 10
57.9272
 20
1.64262
 30
0.0
 11
57.6474
 21
1.78456
 31
0.0
  0
LINE
  8
0
 62
     0
 10
57.6474
 20
1.78456
 30
0.0
 11
57.4269
 21
2.00642
 31
0.0
  0
LINE
  8
0
 62
     0
 10
57.4269
 20
2.00642
 30
0.0
 11
57.2851
 21
2.28479
 31
0.0
  0
LINE
  8
0
 62
     0
 10
57.2851
 20
2.28479
 30
0.0
 11
57.2354
 21
2.59347
 31
0.0
  0
LINE
  8
0
 62
     0
 10
57.2354
 20
2.59347
 30
0.0
 11
57.2851
 21
2.90353
 31
0.0
  0
LINE
  8
0
 62
     0
 10
57.2851
 20
2.90353
 30
0.0
 11
57.4269
 21
3.18189
 31
0.0
  0
LINE
  8
0
 62
     0
 10
57.4269
 20
3.18189
 30
0.0
 11
57.6474
 21
3.40376
 31
0.0
  0
LINE
  8
0
 62
     0
 10
57.6474
 20
3.40376
 30
0.0
 11
57.9272
 21
3.5457
 31
0.0
  0
LINE
  8
0
 62
     0
 10
57.9272
 20
3.5457
 30
0.0
 11
58.2359
 21
3.59392
 31
0.0
  0
LINE
  8
0
 62
     0
 10
2.59347
 20
3.59392
 30
0.0
 11
2.90215
 21
3.5457
 31
0.0
  0
LINE
  8
0
 62
     0
 10
2.90215
 20
3.5457
 30
0.0
 11
3.18189
 21
3.40376
 31
0.0
  0
LINE
  8
0
 62
     0
 10
3.18189
 20
3.40376
 30
0.0
 11
3.40238
 21
3.18189
 31
0.0
  0
LINE
  8
0
 62
     0
 10
3.40238
 20
3.18189
 30
0.0
 11
3.54432
 21
2.90353
 31
0.0
  0
LINE
  8
0
 62
     0
 10
3.54432
 20
2.90353
 30
0.0
 11
3.59392
 21
2.59347
 31
0.0
  0
LINE
  8
0
 62
     0
 10
3.59392
 20
2.59347
 30
0.0
 11
3.54432
 21
2.28479
 31
0.0
  0
LINE
  8
0
 62
     0
 10
3.54432
 20
2.28479
 30
0.0
 11
3.40238
 21
2.00642
 31
0.0
  0
LINE
  8
0
 62
     0
 10
3.40238
 20
2.00642
 30
0.0
 11
3.18189
 21
1.78456
 31
0.0
  0
LINE
  8
0
 62
     0
 10
3.18189
 20
1.78456
 30
0.0
 11
2.90215
 21
1.64262
 31
0.0
  0
LINE
  8
0
 62
     0
 10
2.90215
 20
1.64262
 30
0.0
 11
2.59347
 21
1.59439
 31
0.0
  0
LINE
  8
0
 62
     0
 10
2.59347
 20
1.59439
 30
0.0
 11
2.28479
 21
1.64262
 31
0.0
  0
LINE
  8
0
 62
     0
 10
2.28479
 20
1.64262
 30
0.0
 11
2.00642
 21
1.78456
 31
0.0
  0
LINE
  8
0
 62
     0
 10
2.00642
 20
1.78456
 30
0.0
 11
1.78456
 21
2.00642
 31
0.0
  0
LINE
  8
0
 62
     0
 10
1.78456
 20
2.00642
 30
0.0
 11
1.64262
 21
2.28479
 31
0.0
  0
LINE
  8
0
 62
     0
 10
1.64262
 20
2.28479
 30
0.0
 11
1.59439
 21
2.59347
 31
0.0
  0
LINE
  8
0
 62
     0
 10
1.59439
 20
2.59347
 30
0.0
 11
1.64262
 21
2.90353
 31
0.0
  0
LINE
  8
0
 62
     0
 10
1.64262
 20
2.90353
 30
0.0
 11
1.78456
 21
3.18189
 31
0.0
  0
LINE
  8
0
 62
     0
 10
1.78456
 20
3.18189
 30
0.0
 11
2.00642
 21
3.40376
 31
0.0
  0
LINE
  8
0
 62
     0
 10
2.00642
 20
3.40376
 30
0.0
 11
2.28479
 21
3.5457
 31
0.0
  0
LINE
  8
0
 62
     0
 10
2.28479
 20
3.5457
 30
0.0
 11
2.59347
 21
3.59392
 31
0.0
  0
LINE
  8
0
 62
     0
 10
2.59347
 20
53.7185
 30
0.0
 11
2.90215
 21
53.6706
 31
0.0
  0
LINE
  8
0
 62
     0
 10
2.90215
 20
53.6706
 30
0.0
 11
3.18189
 21
53.5284
 31
0.0
  0
LINE
  8
0
 62
     0
 10
3.18189
 20
53.5284
 30
0.0
 11
3.40238
 21
53.3065
 31
0.0
  0
LINE
  8
0
 62
     0
 10
3.40238
 20
53.3065
 30
0.0
 11
3.54432
 21
53.0281
 31
0.0
  0
LINE
  8
0
 62
     0
 10
3.54432
 20
53.0281
 30
0.0
 11
3.59392
 21
52.7195
 31
0.0
  0
LINE
  8
0
 62
     0
 10
3.59392
 20
52.7195
 30
0.0
 11
3.54432
 21
52.4097
 31
0.0
  0
LINE
  8
0
 62
     0
 10
3.54432
 20
52.4097
 30
0.0
 11
3.40238
 21
52.131
 31
0.0
  0
LINE
  8
0
 62
     0
 10
3.40238
 20
52.131
 30
0.0
 11
3.18189
 21
51.9105
 31
0.0
  0
LINE
  8
0
 62
     0
 10
3.18189
 20
51.9105
 30
0.0
 11
2.90215
 21
51.7687
 31
0.0
  0
LINE
  8
0
 62
     0
 10
2.90215
 20
51.7687
 30
0.0
 11
2.59347
 21
51.719
 31
0.0
  0
LINE
  8
0
 62
     0
 10
2.59347
 20
51.719
 30
0.0
 11
2.28479
 21
51.7687
 31
0.0
  0
LINE
  8
0
 62
     0
 10
2.28479
 20
51.7687
 30
0.0
 11
2.00642
 21
51.9105
 31
0.0
  0
LINE
  8
0
 62
     0
 10
2.00642
 20
51.9105
 30
0.0
 11
1.78456
 21
52.131
 31
0.0
  0
LINE
  8
0
 62
     0
 10
1.78456
 20
52.131
 30
0.0
 11
1.64262
 21
52.4097
 31
0.0
  0
LINE
  8
0
 62
     0
 10
1.64262
 20
52.4097
 30
0.0
 11
1.59439
 21
52.7195
 31
0.0
  0
LINE
  8
0
 62
     0
 10
1.59439
 20
52.7195
 30
0.0
 11
1.64262
 21
53.0281
 31
0.0
  0
LINE
  8
0
 62
     0
 10
1.64262
 20
53.0281
 30
0.0
 11
1.78456
 21
53.3065
 31
0.0
  0
LINE
  8
0
 62
     0
 10
1.78456
 20
53.3065
 30
0.0
 11
2.00642
 21
53.5284
 31
0.0
  0
LINE
  8
0
 62
     0
 10
2.00642
 20
53.5284
 30
0.0
 11
2.28479
 21
53.6706
 31
0.0
  0
LINE
  8
0
 62
     0
 10
2.28479
 20
53.6706
 30
0.0
 11
2.59347
 21
53.7185
 31
0.0
  0
LINE
  8
0
 62
     0
 10
2.59347
 20
103.843
 30
0.0
 11
2.90215
 21
103.795
 31
0.0
  0
LINE
  8
0
 62
     0
 10
2.90215
 20
103.795
 30
0.0
 11
3.18189
 21
103.653
 31
0.0
  0
LINE
  8
0
 62
     0
 10
3.18189
 20
103.653
 30
0.0
 11
3.40238
 21
103.431
 31
0.0
  0
LINE
  8
0
 62
     0
 10
3.40238
 20
103.431
 30
0.0
 11
3.54432
 21
103.153
 31
0.0
  0
LINE
  8
0
 62
     0
 10
3.54432
 20
103.153
 30
0.0
 11
3.59392
 21
102.844
 31
0.0
  0
LINE
  8
0
 62
     0
 10
3.59392
 20
102.844
 30
0.0
 11
3.54432
 21
102.536
 31
0.0
  0
LINE
  8
0
 62
     0
 10
3.54432
 20
102.536
 30
0.0
 11
3.40238
 21
102.256
 31
0.0
  0
LINE
  8
0
 62
     0
 10
3.40238
 20
102.256
 30
0.0
 11
3.18189
 21
102.035
 31
0.0
  0
LINE
  8
0
 62
     0
 10
3.18189
 20
102.035
 30
0.0
 11
2.90215
 21
101.894
 31
0.0
  0
LINE
  8
0
 62
     0
 10
2.90215
 20
101.894
 30
0.0
 11
2.59347
 21
101.844
 31
0.0
  0
LINE
  8
0
 62
     0
 10
2.59347
 20
101.844
 30
0.0
 11
2.28479
 21
101.894
 31
0.0
  0
LINE
  8
0
 62
     0
 10
2.28479
 20
101.894
 30
0.0
 11
2.00642
 21
102.035
 31
0.0
  0
LINE
  8
0
 62
     0
 10
2.00642
 20
102.035
 30
0.0
 11
1.78456
 21
102.256
 31
0.0
  0
LINE
  8
0
 62
     0
 10
1.78456
 20
102.256
 30
0.0
 11
1.64262
 21
102.536
 31
0.0
  0
LINE
  8
0
 62
     0
 10
1.64262
 20
102.536
 30
0.0
 11
1.59439
 21
102.844
 31
0.0
  0
LINE
  8
0
 62
     0
 10
1.59439
 20
102.844
 30
0.0
 11
1.64262
 21
103.153
 31
0.0
  0
LINE
  8
0
 62
     0
 10
1.64262
 20
103.153
 30
0.0
 11
1.78456
 21
103.431
 31
0.0
  0
LINE
  8
0
 62
     0
 10
1.78456
 20
103.431
 30
0.0
 11
2.00642
 21
103.653
 31
0.0
  0
LINE
  8
0
 62
     0
 10
2.00642
 20
103.653
 30
0.0
 11
2.28479
 21
103.795
 31
0.0
  0
LINE
  8
0
 62
     0
 10
2.28479
 20
103.795
 30
0.0
 11
2.59347
 21
103.843
 31
0.0
  0
LINE
  8
0
 62
     0
 10
21.6187
 20
65.7698
 30
0.0
 11
21.6187
 21
64.7693
 31
0.0
  0
LINE
  8
0
 62
     0
 10
21.6187
 20
64.7693
 30
0.0
 11
7.61919
 21
64.7693
 31
0.0
  0
LINE
  8
0
 62
     0
 10
7.61919
 20
64.7693
 30
0.0
 11
7.61919
 21
65.7698
 31
0.0
  0
LINE
  8
0
 62
     0
 10
7.61919
 20
65.7698
 30
0.0
 11
6.81852
 21
65.7698
 31
0.0
  0
LINE
  8
0
 62
     0
 10
6.81852
 20
65.7698
 30
0.0
 11
6.81852
 21
68.8689
 31
0.0
  0
LINE
  8
0
 62
     0
 10
6.81852
 20
68.8689
 30
0.0
 11
7.61919
 21
68.8689
 31
0.0
  0
LINE
  8
0
 62
     0
 10
7.61919
 20
68.8689
 30
0.0
 11
7.61919
 21
74.6689
 31
0.0
  0
LINE
  8
0
 62
     0
 10
7.61919
 20
74.6689
 30
0.0
 11
6.81852
 21
74.6689
 31
0.0
  0
LINE
  8
0
 62
     0
 10
6.81852
 20
74.6689
 30
0.0
 11
6.81852
 21
77.7695
 31
0.0
  0
LINE
  8
0
 62
     0
 10
6.81852
 20
77.7695
 30
0.0
 11
7.61919
 21
77.7695
 31
0.0
  0
LINE
  8
0
 62
     0
 10
7.61919
 20
77.7695
 30
0.0
 11
7.61919
 21
78.7686
 31
0.0
  0
LINE
  8
0
 62
     0
 10
7.61919
 20
78.7686
 30
0.0
 11
21.6187
 21
78.7686
 31
0.0
  0
LINE
  8
0
 62
     0
 10
21.6187
 20
78.7686
 30
0.0
 11
21.6187
 21
77.7695
 31
0.0
  0
LINE
  8
0
 62
     0
 10
21.6187
 20
77.7695
 30
0.0
 11
22.4193
 21
77.7695
 31
0.0
  0
LINE
  8
0
 62
     0
 10
22.4193
 20
77.7695
 30
0.0
 11
22.4193
 21
74.6689
 31
0.0
  0
LINE
  8
0
 62
     0
 10
22.4193
 20
74.6689
 30
0.0
 11
21.6187
 21
74.6689
 31
0.0
  0
LINE
  8
0
 62
     0
 10
21.6187
 20
74.6689
 30
0.0
 11
21.6187
 21
68.8689
 31
0.0
  0
LINE
  8
0
 62
     0
 10
21.6187
 20
68.8689
 30
0.0
 11
22.4193
 21
68.8689
 31
0.0
  0
LINE
  8
0
 62
     0
 10
22.4193
 20
68.8689
 30
0.0
 11
22.4193
 21
65.7698
 31
0.0
  0
LINE
  8
0
 62
     0
 10
22.4193
 20
65.7698
 30
0.0
 11
21.6187
 21
65.7698
 31
0.0
  0
LINE
  8
0
 62
     0
 10
26.3812
 20
46.7198
 30
0.0
 11
26.3812
 21
45.7193
 31
0.0
  0
LINE
  8
0
 62
     0
 10
26.3812
 20
45.7193
 30
0.0
 11
12.3817
 21
45.7193
 31
0.0
  0
LINE
  8
0
 62
     0
 10
12.3817
 20
45.7193
 30
0.0
 11
12.3817
 21
46.7198
 31
0.0
  0
LINE
  8
0
 62
     0
 10
12.3817
 20
46.7198
 30
0.0
 11
11.5824
 21
46.7198
 31
0.0
  0
LINE
  8
0
 62
     0
 10
11.5824
 20
46.7198
 30
0.0
 11
11.5824
 21
49.8189
 31
0.0
  0
LINE
  8
0
 62
     0
 10
11.5824
 20
49.8189
 30
0.0
 11
12.3817
 21
49.8189
 31
0.0
  0
LINE
  8
0
 62
     0
 10
12.3817
 20
49.8189
 30
0.0
 11
12.3817
 21
55.6189
 31
0.0
  0
LINE
  8
0
 62
     0
 10
12.3817
 20
55.6189
 30
0.0
 11
11.5824
 21
55.6189
 31
0.0
  0
LINE
  8
0
 62
     0
 10
11.5824
 20
55.6189
 30
0.0
 11
11.5824
 21
58.7195
 31
0.0
  0
LINE
  8
0
 62
     0
 10
11.5824
 20
58.7195
 30
0.0
 11
12.3817
 21
58.7195
 31
0.0
  0
LINE
  8
0
 62
     0
 10
12.3817
 20
58.7195
 30
0.0
 11
12.3817
 21
59.7186
 31
0.0
  0
LINE
  8
0
 62
     0
 10
12.3817
 20
59.7186
 30
0.0
 11
26.3812
 21
59.7186
 31
0.0
  0
LINE
  8
0
 62
     0
 10
26.3812
 20
59.7186
 30
0.0
 11
26.3812
 21
58.7195
 31
0.0
  0
LINE
  8
0
 62
     0
 10
26.3812
 20
58.7195
 30
0.0
 11
27.1804
 21
58.7195
 31
0.0
  0
LINE
  8
0
 62
     0
 10
27.1804
 20
58.7195
 30
0.0
 11
27.1804
 21
55.6189
 31
0.0
  0
LINE
  8
0
 62
     0
 10
27.1804
 20
55.6189
 30
0.0
 11
26.3812
 21
55.6189
 31
0.0
  0
LINE
  8
0
 62
     0
 10
26.3812
 20
55.6189
 30
0.0
 11
26.3812
 21
49.8189
 31
0.0
  0
LINE
  8
0
 62
     0
 10
26.3812
 20
49.8189
 30
0.0
 11
27.1804
 21
49.8189
 31
0.0
  0
LINE
  8
0
 62
     0
 10
27.1804
 20
49.8189
 30
0.0
 11
27.1804
 21
46.7198
 31
0.0
  0
LINE
  8
0
 62
     0
 10
27.1804
 20
46.7198
 30
0.0
 11
26.3812
 21
46.7198
 31
0.0
  0
LINE
  8
0
 62
     0
 10
31.1437
 20
84.8198
 30
0.0
 11
31.1437
 21
83.8193
 31
0.0
  0
LINE
  8
0
 62
     0
 10
31.1437
 20
83.8193
 30
0.0
 11
17.1442
 21
83.8193
 31
0.0
  0
LINE
  8
0
 62
     0
 10
17.1442
 20
83.8193
 30
0.0
 11
17.1442
 21
84.8198
 31
0.0
  0
LINE
  8
0
 62
     0
 10
17.1442
 20
84.8198
 30
0.0
 11
16.3435
 21
84.8198
 31
0.0
  0
LINE
  8
0
 62
     0
 10
16.3435
 20
84.8198
 30
0.0
 11
16.3435
 21
87.9189
 31
0.0
  0
LINE
  8
0
 62
     0
 10
16.3435
 20
87.9189
 30
0.0
 11
17.1442
 21
87.9189
 31
0.0
  0
LINE
  8
0
 62
     0
 10
17.1442
 20
87.9189
 30
0.0
 11
17.1442
 21
93.7189
 31
0.0
  0
LINE
  8
0
 62
     0
 10
17.1442
 20
93.7189
 30
0.0
 11
16.3435
 21
93.7189
 31
0.0
  0
LINE
  8
0
 62
     0
 10
16.3435
 20
93.7189
 30
0.0
 11
16.3435
 21
96.8195
 31
0.0
  0
LINE
  8
0
 62
     0
 10
16.3435
 20
96.8195
 30
0.0
 11
17.1442
 21
96.8195
 31
0.0
  0
LINE
  8
0
 62
     0
 10
17.1442
 20
96.8195
 30
0.0
 11
17.1442
 21
97.8186
 31
0.0
  0
LINE
  8
0
 62
     0
 10
17.1442
 20
97.8186
 30
0.0
 11
31.1437
 21
97.8186
 31
0.0
  0
LINE
  8
0
 62
     0
 10
31.1437
 20
97.8186
 30
0.0
 11
31.1437
 21
96.8195
 31
0.0
  0
LINE
  8
0
 62
     0
 10
31.1437
 20
96.8195
 30
0.0
 11
31.9443
 21
96.8195
 31
0.0
  0
LINE
  8
0
 62
     0
 10
31.9443
 20
96.8195
 30
0.0
 11
31.9443
 21
93.7189
 31
0.0
  0
LINE
  8
0
 62
     0
 10
31.9443
 20
93.7189
 30
0.0
 11
31.1437
 21
93.7189
 31
0.0
  0
LINE
  8
0
 62
     0
 10
31.1437
 20
93.7189
 30
0.0
 11
31.1437
 21
87.9189
 31
0.0
  0
LINE
  8
0
 62
     0
 10
31.1437
 20
87.9189
 30
0.0
 11
31.9443
 21
87.9189
 31
0.0
  0
LINE
  8
0
 62
     0
 10
31.9443
 20
87.9189
 30
0.0
 11
31.9443
 21
84.8198
 31
0.0
  0
LINE
  8
0
 62
     0
 10
31.9443
 20
84.8198
 30
0.0
 11
31.1437
 21
84.8198
 31
0.0
  0
LINE
  8
0
 62
     0
 10
35.9061
 20
27.6696
 30
0.0
 11
35.9061
 21
26.6692
 31
0.0
  0
LINE
  8
0
 62
     0
 10
35.9061
 20
26.6692
 30
0.0
 11
21.9053
 21
26.6692
 31
0.0
  0
LINE
  8
0
 62
     0
 10
21.9053
 20
26.6692
 30
0.0
 11
21.9053
 21
27.6696
 31
0.0
  0
LINE
  8
0
 62
     0
 10
21.9053
 20
27.6696
 30
0.0
 11
21.106
 21
27.6696
 31
0.0
  0
LINE
  8
0
 62
     0
 10
21.106
 20
27.6696
 30
0.0
 11
21.106
 21
30.7689
 31
0.0
  0
LINE
  8
0
 62
     0
 10
21.106
 20
30.7689
 30
0.0
 11
21.9053
 21
30.7689
 31
0.0
  0
LINE
  8
0
 62
     0
 10
21.9053
 20
30.7689
 30
0.0
 11
21.9053
 21
36.5689
 31
0.0
  0
LINE
  8
0
 62
     0
 10
21.9053
 20
36.5689
 30
0.0
 11
21.106
 21
36.5689
 31
0.0
  0
LINE
  8
0
 62
     0
 10
21.106
 20
36.5689
 30
0.0
 11
21.106
 21
39.6695
 31
0.0
  0
LINE
  8
0
 62
     0
 10
21.106
 20
39.6695
 30
0.0
 11
21.9053
 21
39.6695
 31
0.0
  0
LINE
  8
0
 62
     0
 10
21.9053
 20
39.6695
 30
0.0
 11
21.9053
 21
40.6686
 31
0.0
  0
LINE
  8
0
 62
     0
 10
21.9053
 20
40.6686
 30
0.0
 11
35.9061
 21
40.6686
 31
0.0
  0
LINE
  8
0
 62
     0
 10
35.9061
 20
40.6686
 30
0.0
 11
35.9061
 21
39.6695
 31
0.0
  0
LINE
  8
0
 62
     0
 10
35.9061
 20
39.6695
 30
0.0
 11
36.7055
 21
39.6695
 31
0.0
  0
LINE
  8
0
 62
     0
 10
36.7055
 20
39.6695
 30
0.0
 11
36.7055
 21
36.5689
 31
0.0
  0
LINE
  8
0
 62
     0
 10
36.7055
 20
36.5689
 30
0.0
 11
35.9061
 21
36.5689
 31
0.0
  0
LINE
  8
0
 62
     0
 10
35.9061
 20
36.5689
 30
0.0
 11
35.9061
 21
30.7689
 31
0.0
  0
LINE
  8
0
 62
     0
 10
35.9061
 20
30.7689
 30
0.0
 11
36.7055
 21
30.7689
 31
0.0
  0
LINE
  8
0
 62
     0
 10
36.7055
 20
30.7689
 30
0.0
 11
36.7055
 21
27.6696
 31
0.0
  0
LINE
  8
0
 62
     0
 10
36.7055
 20
27.6696
 30
0.0
 11
35.9061
 21
27.6696
 31
0.0
  0
LINE
  8
0
 62
     0
 10
40.6686
 20
65.7698
 30
0.0
 11
40.6686
 21
64.7693
 31
0.0
  0
LINE
  8
0
 62
     0
 10
40.6686
 20
64.7693
 30
0.0
 11
26.6692
 21
64.7693
 31
0.0
  0
LINE
  8
0
 62
     0
 10
26.6692
 20
64.7693
 30
0.0
 11
26.6692
 21
65.7698
 31
0.0
  0
LINE
  8
0
 62
     0
 10
26.6692
 20
65.7698
 30
0.0
 11
25.8685
 21
65.7698
 31
0.0
  0
LINE
  8
0
 62
     0
 10
25.8685
 20
65.7698
 30
0.0
 11
25.8685
 21
68.8689
 31
0.0
  0
LINE
  8
0
 62
     0
 10
25.8685
 20
68.8689
 30
0.0
 11
26.6692
 21
68.8689
 31
0.0
  0
LINE
  8
0
 62
     0
 10
26.6692
 20
68.8689
 30
0.0
 11
26.6692
 21
74.6689
 31
0.0
  0
LINE
  8
0
 62
     0
 10
26.6692
 20
74.6689
 30
0.0
 11
25.8685
 21
74.6689
 31
0.0
  0
LINE
  8
0
 62
     0
 10
25.8685
 20
74.6689
 30
0.0
 11
25.8685
 21
77.7695
 31
0.0
  0
LINE
  8
0
 62
     0
 10
25.8685
 20
77.7695
 30
0.0
 11
26.6692
 21
77.7695
 31
0.0
  0
LINE
  8
0
 62
     0
 10
26.6692
 20
77.7695
 30
0.0
 11
26.6692
 21
78.7686
 31
0.0
  0
LINE
  8
0
 62
     0
 10
26.6692
 20
78.7686
 30
0.0
 11
40.6686
 21
78.7686
 31
0.0
  0
LINE
  8
0
 62
     0
 10
40.6686
 20
78.7686
 30
0.0
 11
40.6686
 21
77.7695
 31
0.0
  0
LINE
  8
0
 62
     0
 10
40.6686
 20
77.7695
 30
0.0
 11
41.4694
 21
77.7695
 31
0.0
  0
LINE
  8
0
 62
     0
 10
41.4694
 20
77.7695
 30
0.0
 11
41.4694
 21
74.6689
 31
0.0
  0
LINE
  8
0
 62
     0
 10
41.4694
 20
74.6689
 30
0.0
 11
40.6686
 21
74.6689
 31
0.0
  0
LINE
  8
0
 62
     0
 10
40.6686
 20
74.6689
 30
0.0
 11
40.6686
 21
68.8689
 31
0.0
  0
LINE
  8
0
 62
     0
 10
40.6686
 20
68.8689
 30
0.0
 11
41.4694
 21
68.8689
 31
0.0
  0
LINE
  8
0
 62
     0
 10
41.4694
 20
68.8689
 30
0.0
 11
41.4694
 21
65.7698
 31
0.0
  0
LINE
  8
0
 62
     0
 10
41.4694
 20
65.7698
 30
0.0
 11
40.6686
 21
65.7698
 31
0.0
  0
LINE
  8
0
 62
     0
 10
45.4311
 20
46.7198
 30
0.0
 11
45.4311
 21
45.7193
 31
0.0
  0
LINE
  8
0
 62
     0
 10
45.4311
 20
45.7193
 30
0.0
 11
31.4317
 21
45.7193
 31
0.0
  0
LINE
  8
0
 62
     0
 10
31.4317
 20
45.7193
 30
0.0
 11
31.4317
 21
46.7198
 31
0.0
  0
LINE
  8
0
 62
     0
 10
31.4317
 20
46.7198
 30
0.0
 11
30.6324
 21
46.7198
 31
0.0
  0
LINE
  8
0
 62
     0
 10
30.6324
 20
46.7198
 30
0.0
 11
30.6324
 21
49.8189
 31
0.0
  0
LINE
  8
0
 62
     0
 10
30.6324
 20
49.8189
 30
0.0
 11
31.4317
 21
49.8189
 31
0.0
  0
LINE
  8
0
 62
     0
 10
31.4317
 20
49.8189
 30
0.0
 11
31.4317
 21
55.6189
 31
0.0
  0
LINE
  8
0
 62
     0
 10
31.4317
 20
55.6189
 30
0.0
 11
30.6324
 21
55.6189
 31
0.0
  0
LINE
  8
0
 62
     0
 10
30.6324
 20
55.6189
 30
0.0
 11
30.6324
 21
58.7195
 31
0.0
  0
LINE
  8
0
 62
     0
 10
30.6324
 20
58.7195
 30
0.0
 11
31.4317
 21
58.7195
 31
0.0
  0
LINE
  8
0
 62
     0
 10
31.4317
 20
58.7195
 30
0.0
 11
31.4317
 21
59.7186
 31
0.0
  0
LINE
  8
0
 62
     0
 10
31.4317
 20
59.7186
 30
0.0
 11
45.4311
 21
59.7186
 31
0.0
  0
LINE
  8
0
 62
     0
 10
45.4311
 20
59.7186
 30
0.0
 11
45.4311
 21
58.7195
 31
0.0
  0
LINE
  8
0
 62
     0
 10
45.4311
 20
58.7195
 30
0.0
 11
46.2319
 21
58.7195
 31
0.0
  0
LINE
  8
0
 62
     0
 10
46.2319
 20
58.7195
 30
0.0
 11
46.2319
 21
55.6189
 31
0.0
  0
LINE
  8
0
 62
     0
 10
46.2319
 20
55.6189
 30
0.0
 11
45.4311
 21
55.6189
 31
0.0
  0
LINE
  8
0
 62
     0
 10
45.4311
 20
55.6189
 30
0.0
 11
45.4311
 21
49.8189
 31
0.0
  0
LINE
  8
0
 62
     0
 10
45.4311
 20
49.8189
 30
0.0
 11
46.2319
 21
49.8189
 31
0.0
  0
LINE
  8
0
 62
     0
 10
46.2319
 20
49.8189
 30
0.0
 11
46.2319
 21
46.7198
 31
0.0
  0
LINE
  8
0
 62
     0
 10
46.2319
 20
46.7198
 30
0.0
 11
45.4311
 21
46.7198
 31
0.0
  0
LINE
  8
0
 62
     0
 10
50.1936
 20
84.8198
 30
0.0
 11
50.1936
 21
83.8193
 31
0.0
  0
LINE
  8
0
 62
     0
 10
50.1936
 20
83.8193
 30
0.0
 11
36.1943
 21
83.8193
 31
0.0
  0
LINE
  8
0
 62
     0
 10
36.1943
 20
83.8193
 30
0.0
 11
36.1943
 21
84.8198
 31
0.0
  0
LINE
  8
0
 62
     0
 10
36.1943
 20
84.8198
 30
0.0
 11
35.3935
 21
84.8198
 31
0.0
  0
LINE
  8
0
 62
     0
 10
35.3935
 20
84.8198
 30
0.0
 11
35.3935
 21
87.9189
 31
0.0
  0
LINE
  8
0
 62
     0
 10
35.3935
 20
87.9189
 30
0.0
 11
36.1943
 21
87.9189
 31
0.0
  0
LINE
  8
0
 62
     0
 10
36.1943
 20
87.9189
 30
0.0
 11
36.1943
 21
93.7189
 31
0.0
  0
LINE
  8
0
 62
     0
 10
36.1943
 20
93.7189
 30
0.0
 11
35.3935
 21
93.7189
 31
0.0
  0
LINE
  8
0
 62
     0
 10
35.3935
 20
93.7189
 30
0.0
 11
35.3935
 21
96.8195
 31
0.0
  0
LINE
  8
0
 62
     0
 10
35.3935
 20
96.8195
 30
0.0
 11
36.1943
 21
96.8195
 31
0.0
  0
LINE
  8
0
 62
     0
 10
36.1943
 20
96.8195
 30
0.0
 11
36.1943
 21
97.8186
 31
0.0
  0
LINE
  8
0
 62
     0
 10
36.1943
 20
97.8186
 30
0.0
 11
50.1936
 21
97.8186
 31
0.0
  0
LINE
  8
0
 62
     0
 10
50.1936
 20
97.8186
 30
0.0
 11
50.1936
 21
96.8195
 31
0.0
  0
LINE
  8
0
 62
     0
 10
50.1936
 20
96.8195
 30
0.0
 11
50.9944
 21
96.8195
 31
0.0
  0
LINE
  8
0
 62
     0
 10
50.9944
 20
96.8195
 30
0.0
 11
50.9944
 21
93.7189
 31
0.0
  0
LINE
  8
0
 62
     0
 10
50.9944
 20
93.7189
 30
0.0
 11
50.1936
 21
93.7189
 31
0.0
  0
LINE
  8
0
 62
     0
 10
50.1936
 20
93.7189
 30
0.0
 11
50.1936
 21
87.9189
 31
0.0
  0
LINE
  8
0
 62
     0
 10
50.1936
 20
87.9189
 30
0.0
 11
50.9944
 21
87.9189
 31
0.0
  0
LINE
  8
0
 62
     0
 10
50.9944
 20
87.9189
 30
0.0
 11
50.9944
 21
84.8198
 31
0.0
  0
LINE
  8
0
 62
     0
 10
50.9944
 20
84.8198
 30
0.0
 11
50.1936
 21
84.8198
 31
0.0
  0
LINE
  8
0
 62
     0
 10
54.9561
 20
27.6696
 30
0.0
 11
54.9561
 21
26.6692
 31
0.0
  0
LINE
  8
0
 62
     0
 10
54.9561
 20
26.6692
 30
0.0
 11
40.9554
 21
26.6692
 31
0.0
  0
LINE
  8
0
 62
     0
 10
40.9554
 20
26.6692
 30
0.0
 11
40.9554
 21
27.6696
 31
0.0
  0
LINE
  8
0
 62
     0
 10
40.9554
 20
27.6696
 30
0.0
 11
40.156
 21
27.6696
 31
0.0
  0
LINE
  8
0
 62
     0
 10
40.156
 20
27.6696
 30
0.0
 11
40.156
 21
30.7689
 31
0.0
  0
LINE
  8
0
 62
     0
 10
40.156
 20
30.7689
 30
0.0
 11
40.9554
 21
30.7689
 31
0.0
  0
LINE
  8
0
 62
     0
 10
40.9554
 20
30.7689
 30
0.0
 11
40.9554
 21
36.5689
 31
0.0
  0
LINE
  8
0
 62
     0
 10
40.9554
 20
36.5689
 30
0.0
 11
40.156
 21
36.5689
 31
0.0
  0
LINE
  8
0
 62
     0
 10
40.156
 20
36.5689
 30
0.0
 11
40.156
 21
39.6695
 31
0.0
  0
LINE
  8
0
 62
     0
 10
40.156
 20
39.6695
 30
0.0
 11
40.9554
 21
39.6695
 31
0.0
  0
LINE
  8
0
 62
     0
 10
40.9554
 20
39.6695
 30
0.0
 11
40.9554
 21
40.6686
 31
0.0
  0
LINE
  8
0
 62
     0
 10
40.9554
 20
40.6686
 30
0.0
 11
54.9561
 21
40.6686
 31
0.0
  0
LINE
  8
0
 62
     0
 10
54.9561
 20
40.6686
 30
0.0
 11
54.9561
 21
39.6695
 31
0.0
  0
LINE
  8
0
 62
     0
 10
54.9561
 20
39.6695
 30
0.0
 11
55.7555
 21
39.6695
 31
0.0
  0
LINE
  8
0
 62
     0
 10
55.7555
 20
39.6695
 30
0.0
 11
55.7555
 21
36.5689
 31
0.0
  0
LINE
  8
0
 62
     0
 10
55.7555
 20
36.5689
 30
0.0
 11
54.9561
 21
36.5689
 31
0.0
  0
LINE
  8
0
 62
     0
 10
54.9561
 20
36.5689
 30
0.0
 11
54.9561
 21
30.7689
 31
0.0
  0
LINE
  8
0
 62
     0
 10
54.9561
 20
30.7689
 30
0.0
 11
55.7555
 21
30.7689
 31
0.0
  0
LINE
  8
0
 62
     0
 10
55.7555
 20
30.7689
 30
0.0
 11
55.7555
 21
27.6696
 31
0.0
  0
LINE
  8
0
 62
     0
 10
55.7555
 20
27.6696
 30
0.0
 11
54.9561
 21
27.6696
 31
0.0
  0
LINE
  8
0
 62
     0
 10
59.7186
 20
65.7698
 30
0.0
 11
59.7186
 21
64.7693
 31
0.0
  0
LINE
  8
0
 62
     0
 10
59.7186
 20
64.7693
 30
0.0
 11
45.7193
 21
64.7693
 31
0.0
  0
LINE
  8
0
 62
     0
 10
45.7193
 20
64.7693
 30
0.0
 11
45.7193
 21
65.7698
 31
0.0
  0
LINE
  8
0
 62
     0
 10
45.7193
 20
65.7698
 30
0.0
 11
44.9185
 21
65.7698
 31
0.0
  0
LINE
  8
0
 62
     0
 10
44.9185
 20
65.7698
 30
0.0
 11
44.9185
 21
68.8689
 31
0.0
  0
LINE
  8
0
 62
     0
 10
44.9185
 20
68.8689
 30
0.0
 11
45.7193
 21
68.8689
 31
0.0
  0
LINE
  8
0
 62
     0
 10
45.7193
 20
68.8689
 30
0.0
 11
45.7193
 21
74.6689
 31
0.0
  0
LINE
  8
0
 62
     0
 10
45.7193
 20
74.6689
 30
0.0
 11
44.9185
 21
74.6689
 31
0.0
  0
LINE
  8
0
 62
     0
 10
44.9185
 20
74.6689
 30
0.0
 11
44.9185
 21
77.7695
 31
0.0
  0
LINE
  8
0
 62
     0
 10
44.9185
 20
77.7695
 30
0.0
 11
45.7193
 21
77.7695
 31
0.0
  0
LINE
  8
0
 62
     0
 10
45.7193
 20
77.7695
 30
0.0
 11
45.7193
 21
78.7686
 31
0.0
  0
LINE
  8
0
 62
     0
 10
45.7193
 20
78.7686
 30
0.0
 11
59.7186
 21
78.7686
 31
0.0
  0
LINE
  8
0
 62
     0
 10
59.7186
 20
78.7686
 30
0.0
 11
59.7186
 21
77.7695
 31
0.0
  0
LINE
  8
0
 62
     0
 10
59.7186
 20
77.7695
 30
0.0
 11
60.5194
 21
77.7695
 31
0.0
  0
LINE
  8
0
 62
     0
 10
60.5194
 20
77.7695
 30
0.0
 11
60.5194
 21
74.6689
 31
0.0
  0
LINE
  8
0
 62
     0
 10
60.5194
 20
74.6689
 30
0.0
 11
59.7186
 21
74.6689
 31
0.0
  0
LINE
  8
0
 62
     0
 10
59.7186
 20
74.6689
 30
0.0
 11
59.7186
 21
68.8689
 31
0.0
  0
LINE
  8
0
 62
     0
 10
59.7186
 20
68.8689
 30
0.0
 11
60.5194
 21
68.8689
 31
0.0
  0
LINE
  8
0
 62
     0
 10
60.5194
 20
68.8689
 30
0.0
 11
60.5194
 21
65.7698
 31
0.0
  0
LINE
  8
0
 62
     0
 10
60.5194
 20
65.7698
 30
0.0
 11
59.7186
 21
65.7698
 31
0.0
  0
LINE
  8
0
 62
     0
 10
60.8005
 20
14.1194
 30
0.0
 11
60.8005
 21
7.84931
 31
0.0
  0
LINE
  8
0
 62
     0
 10
60.8005
 20
7.84931
 30
0.0
 11
59.1742
 21
7.84931
 31
0.0
  0
LINE
  8
0
 62
     0
 10
59.1742
 20
7.84931
 30
0.0
 11
59.1742
 21
6.64905
 31
0.0
  0
LINE
  8
0
 62
     0
 10
59.1742
 20
6.64905
 30
0.0
 11
55.8754
 21
6.64905
 31
0.0
  0
LINE
  8
0
 62
     0
 10
55.8754
 20
6.64905
 30
0.0
 11
55.8754
 21
7.84931
 31
0.0
  0
LINE
  8
0
 62
     0
 10
55.8754
 20
7.84931
 30
0.0
 11
54.15
 21
7.84931
 31
0.0
  0
LINE
  8
0
 62
     0
 10
54.15
 20
7.84931
 30
0.0
 11
54.15
 21
8.64856
 31
0.0
  0
LINE
  8
0
 62
     0
 10
54.15
 20
8.64856
 30
0.0
 11
53.3742
 21
8.64856
 31
0.0
  0
LINE
  8
0
 62
     0
 10
53.3742
 20
8.64856
 30
0.0
 11
53.3742
 21
8.61963
 31
0.0
  0
LINE
  8
0
 62
     0
 10
53.3742
 20
8.61963
 30
0.0
 11
52.5748
 21
8.61963
 31
0.0
  0
LINE
  8
0
 62
     0
 10
52.5748
 20
8.61963
 30
0.0
 11
52.5748
 21
7.61919
 31
0.0
  0
LINE
  8
0
 62
     0
 10
52.5748
 20
7.61919
 30
0.0
 11
38.5755
 21
7.61919
 31
0.0
  0
LINE
  8
0
 62
     0
 10
38.5755
 20
7.61919
 30
0.0
 11
38.5755
 21
8.61963
 31
0.0
  0
LINE
  8
0
 62
     0
 10
38.5755
 20
8.61963
 30
0.0
 11
37.7747
 21
8.61963
 31
0.0
  0
LINE
  8
0
 62
     0
 10
37.7747
 20
8.61963
 30
0.0
 11
37.7747
 21
8.64856
 31
0.0
  0
LINE
  8
0
 62
     0
 10
37.7747
 20
8.64856
 30
0.0
 11
37.0004
 21
8.64856
 31
0.0
  0
LINE
  8
0
 62
     0
 10
37.0004
 20
8.64856
 30
0.0
 11
37.0004
 21
7.84931
 31
0.0
  0
LINE
  8
0
 62
     0
 10
37.0004
 20
7.84931
 30
0.0
 11
35.275
 21
7.84931
 31
0.0
  0
LINE
  8
0
 62
     0
 10
35.275
 20
7.84931
 30
0.0
 11
35.275
 21
6.64905
 31
0.0
  0
LINE
  8
0
 62
     0
 10
35.275
 20
6.64905
 30
0.0
 11
31.9746
 21
6.64905
 31
0.0
  0
LINE
  8
0
 62
     0
 10
31.9746
 20
6.64905
 30
0.0
 11
31.9746
 21
7.84931
 31
0.0
  0
LINE
  8
0
 62
     0
 10
31.9746
 20
7.84931
 30
0.0
 11
30.3499
 21
7.84931
 31
0.0
  0
LINE
  8
0
 62
     0
 10
30.3499
 20
7.84931
 30
0.0
 11
30.3499
 21
14.1194
 31
0.0
  0
LINE
  8
0
 62
     0
 10
30.3499
 20
14.1194
 30
0.0
 11
29.4749
 21
14.1194
 31
0.0
  0
LINE
  8
0
 62
     0
 10
29.4749
 20
14.1194
 30
0.0
 11
29.4749
 21
16.9195
 31
0.0
  0
LINE
  8
0
 62
     0
 10
29.4749
 20
16.9195
 30
0.0
 11
30.3499
 21
16.9195
 31
0.0
  0
LINE
  8
0
 62
     0
 10
30.3499
 20
16.9195
 30
0.0
 11
30.3499
 21
20.1497
 31
0.0
  0
LINE
  8
0
 62
     0
 10
30.3499
 20
20.1497
 30
0.0
 11
37.0004
 21
20.1497
 31
0.0
  0
LINE
  8
0
 62
     0
 10
37.0004
 20
20.1497
 30
0.0
 11
37.0004
 21
19.349
 31
0.0
  0
LINE
  8
0
 62
     0
 10
37.0004
 20
19.349
 30
0.0
 11
37.7747
 21
19.349
 31
0.0
  0
LINE
  8
0
 62
     0
 10
37.7747
 20
19.349
 30
0.0
 11
37.7747
 21
20.6196
 31
0.0
  0
LINE
  8
0
 62
     0
 10
37.7747
 20
20.6196
 30
0.0
 11
38.5755
 21
20.6196
 31
0.0
  0
LINE
  8
0
 62
     0
 10
38.5755
 20
20.6196
 30
0.0
 11
38.5755
 21
21.6187
 31
0.0
  0
LINE
  8
0
 62
     0
 10
38.5755
 20
21.6187
 30
0.0
 11
52.5748
 21
21.6187
 31
0.0
  0
LINE
  8
0
 62
     0
 10
52.5748
 20
21.6187
 30
0.0
 11
52.5748
 21
20.6196
 31
0.0
  0
LINE
  8
0
 62
     0
 10
52.5748
 20
20.6196
 30
0.0
 11
53.3742
 21
20.6196
 31
0.0
  0
LINE
  8
0
 62
     0
 10
53.3742
 20
20.6196
 30
0.0
 11
53.3742
 21
19.349
 31
0.0
  0
LINE
  8
0
 62
     0
 10
53.3742
 20
19.349
 30
0.0
 11
54.15
 21
19.349
 31
0.0
  0
LINE
  8
0
 62
     0
 10
54.15
 20
19.349
 30
0.0
 11
54.15
 21
20.1497
 31
0.0
  0
LINE
  8
0
 62
     0
 10
54.15
 20
20.1497
 30
0.0
 11
60.8005
 21
20.1497
 31
0.0
  0
LINE
  8
0
 62
     0
 10
60.8005
 20
20.1497
 30
0.0
 11
60.8005
 21
16.9195
 31
0.0
  0
LINE
  8
0
 62
     0
 10
60.8005
 20
16.9195
 30
0.0
 11
61.674
 21
16.9195
 31
0.0
  0
LINE
  8
0
 62
     0
 10
61.674
 20
16.9195
 30
0.0
 11
61.674
 21
14.1194
 31
0.0
  0
LINE
  8
0
 62
     0
 10
61.674
 20
14.1194
 30
0.0
 11
60.8005
 21
14.1194
 31
0.0
  0
LINE
  8
0
 62
     0
 10
64.4811
 20
46.7198
 30
0.0
 11
64.4811
 21
45.7193
 31
0.0
  0
LINE
  8
0
 62
     0
 10
64.4811
 20
45.7193
 30
0.0
 11
50.4818
 21
45.7193
 31
0.0
  0
LINE
  8
0
 62
     0
 10
50.4818
 20
45.7193
 30
0.0
 11
50.4818
 21
46.7198
 31
0.0
  0
LINE
  8
0
 62
     0
 10
50.4818
 20
46.7198
 30
0.0
 11
49.6824
 21
46.7198
 31
0.0
  0
LINE
  8
0
 62
     0
 10
49.6824
 20
46.7198
 30
0.0
 11
49.6824
 21
49.8189
 31
0.0
  0
LINE
  8
0
 62
     0
 10
49.6824
 20
49.8189
 30
0.0
 11
50.4818
 21
49.8189
 31
0.0
  0
LINE
  8
0
 62
     0
 10
50.4818
 20
49.8189
 30
0.0
 11
50.4818
 21
55.6189
 31
0.0
  0
LINE
  8
0
 62
     0
 10
50.4818
 20
55.6189
 30
0.0
 11
49.6824
 21
55.6189
 31
0.0
  0
LINE
  8
0
 62
     0
 10
49.6824
 20
55.6189
 30
0.0
 11
49.6824
 21
58.7195
 31
0.0
  0
LINE
  8
0
 62
     0
 10
49.6824
 20
58.7195
 30
0.0
 11
50.4818
 21
58.7195
 31
0.0
  0
LINE
  8
0
 62
     0
 10
50.4818
 20
58.7195
 30
0.0
 11
50.4818
 21
59.7186
 31
0.0
  0
LINE
  8
0
 62
     0
 10
50.4818
 20
59.7186
 30
0.0
 11
64.4811
 21
59.7186
 31
0.0
  0
LINE
  8
0
 62
     0
 10
64.4811
 20
59.7186
 30
0.0
 11
64.4811
 21
58.7195
 31
0.0
  0
LINE
  8
0
 62
     0
 10
64.4811
 20
58.7195
 30
0.0
 11
65.2819
 21
58.7195
 31
0.0
  0
LINE
  8
0
 62
     0
 10
65.2819
 20
58.7195
 30
0.0
 11
65.2819
 21
55.6189
 31
0.0
  0
LINE
  8
0
 62
     0
 10
65.2819
 20
55.6189
 30
0.0
 11
64.4811
 21
55.6189
 31
0.0
  0
LINE
  8
0
 62
     0
 10
64.4811
 20
55.6189
 30
0.0
 11
64.4811
 21
49.8189
 31
0.0
  0
LINE
  8
0
 62
     0
 10
64.4811
 20
49.8189
 30
0.0
 11
65.2819
 21
49.8189
 31
0.0
  0
LINE
  8
0
 62
     0
 10
65.2819
 20
49.8189
 30
0.0
 11
65.2819
 21
46.7198
 31
0.0
  0
LINE
  8
0
 62
     0
 10
65.2819
 20
46.7198
 30
0.0
 11
64.4811
 21
46.7198
 31
0.0
  0
LINE
  8
0
 62
     0
 10
69.2436
 20
84.8198
 30
0.0
 11
69.2436
 21
83.8193
 31
0.0
  0
LINE
  8
0
 62
     0
 10
69.2436
 20
83.8193
 30
0.0
 11
55.2443
 21
83.8193
 31
0.0
  0
LINE
  8
0
 62
     0
 10
55.2443
 20
83.8193
 30
0.0
 11
55.2443
 21
84.8198
 31
0.0
  0
LINE
  8
0
 62
     0
 10
55.2443
 20
84.8198
 30
0.0
 11
54.4435
 21
84.8198
 31
0.0
  0
LINE
  8
0
 62
     0
 10
54.4435
 20
84.8198
 30
0.0
 11
54.4435
 21
87.9189
 31
0.0
  0
LINE
  8
0
 62
     0
 10
54.4435
 20
87.9189
 30
0.0
 11
55.2443
 21
87.9189
 31
0.0
  0
LINE
  8
0
 62
     0
 10
55.2443
 20
87.9189
 30
0.0
 11
55.2443
 21
93.7189
 31
0.0
  0
LINE
  8
0
 62
     0
 10
55.2443
 20
93.7189
 30
0.0
 11
54.4435
 21
93.7189
 31
0.0
  0
LINE
  8
0
 62
     0
 10
54.4435
 20
93.7189
 30
0.0
 11
54.4435
 21
96.8195
 31
0.0
  0
LINE
  8
0
 62
     0
 10
54.4435
 20
96.8195
 30
0.0
 11
55.2443
 21
96.8195
 31
0.0
  0
LINE
  8
0
 62
     0
 10
55.2443
 20
96.8195
 30
0.0
 11
55.2443
 21
97.8186
 31
0.0
  0
LINE
  8
0
 62
     0
 10
55.2443
 20
97.8186
 30
0.0
 11
69.2436
 21
97.8186
 31
0.0
  0
LINE
  8
0
 62
     0
 10
69.2436
 20
97.8186
 30
0.0
 11
69.2436
 21
96.8195
 31
0.0
  0
LINE
  8
0
 62
     0
 10
69.2436
 20
96.8195
 30
0.0
 11
70.0444
 21
96.8195
 31
0.0
  0
LINE
  8
0
 62
     0
 10
70.0444
 20
96.8195
 30
0.0
 11
70.0444
 21
93.7189
 31
0.0
  0
LINE
  8
0
 62
     0
 10
70.0444
 20
93.7189
 30
0.0
 11
69.2436
 21
93.7189
 31
0.0
  0
LINE
  8
0
 62
     0
 10
69.2436
 20
93.7189
 30
0.0
 11
69.2436
 21
87.9189
 31
0.0
  0
LINE
  8
0
 62
     0
 10
69.2436
 20
87.9189
 30
0.0
 11
70.0444
 21
87.9189
 31
0.0
  0
LINE
  8
0
 62
     0
 10
70.0444
 20
87.9189
 30
0.0
 11
70.0444
 21
84.8198
 31
0.0
  0
LINE
  8
0
 62
     0
 10
70.0444
 20
84.8198
 30
0.0
 11
69.2436
 21
84.8198
 31
0.0
  0
LINE
  8
0
 62
     0
 10
74.0061
 20
27.6696
 30
0.0
 11
74.0061
 21
26.6692
 31
0.0
  0
LINE
  8
0
 62
     0
 10
74.0061
 20
26.6692
 30
0.0
 11
60.0054
 21
26.6692
 31
0.0
  0
LINE
  8
0
 62
     0
 10
60.0054
 20
26.6692
 30
0.0
 11
60.0054
 21
27.6696
 31
0.0
  0
LINE
  8
0
 62
     0
 10
60.0054
 20
27.6696
 30
0.0
 11
59.206
 21
27.6696
 31
0.0
  0
LINE
  8
0
 62
     0
 10
59.206
 20
27.6696
 30
0.0
 11
59.206
 21
30.7689
 31
0.0
  0
LINE
  8
0
 62
     0
 10
59.206
 20
30.7689
 30
0.0
 11
60.0054
 21
30.7689
 31
0.0
  0
LINE
  8
0
 62
     0
 10
60.0054
 20
30.7689
 30
0.0
 11
60.0054
 21
36.5689
 31
0.0
  0
LINE
  8
0
 62
     0
 10
60.0054
 20
36.5689
 30
0.0
 11
59.206
 21
36.5689
 31
0.0
  0
LINE
  8
0
 62
     0
 10
59.206
 20
36.5689
 30
0.0
 11
59.206
 21
39.6695
 31
0.0
  0
LINE
  8
0
 62
     0
 10
59.206
 20
39.6695
 30
0.0
 11
60.0054
 21
39.6695
 31
0.0
  0
LINE
  8
0
 62
     0
 10
60.0054
 20
39.6695
 30
0.0
 11
60.0054
 21
40.6686
 31
0.0
  0
LINE
  8
0
 62
     0
 10
60.0054
 20
40.6686
 30
0.0
 11
74.0061
 21
40.6686
 31
0.0
  0
LINE
  8
0
 62
     0
 10
74.0061
 20
40.6686
 30
0.0
 11
74.0061
 21
39.6695
 31
0.0
  0
LINE
  8
0
 62
     0
 10
74.0061
 20
39.6695
 30
0.0
 11
74.8055
 21
39.6695
 31
0.0
  0
LINE
  8
0
 62
     0
 10
74.8055
 20
39.6695
 30
0.0
 11
74.8055
 21
36.5689
 31
0.0
  0
LINE
  8
0
 62
     0
 10
74.8055
 20
36.5689
 30
0.0
 11
74.0061
 21
36.5689
 31
0.0
  0
LINE
  8
0
 62
     0
 10
74.0061
 20
36.5689
 30
0.0
 11
74.0061
 21
30.7689
 31
0.0
  0
LINE
  8
0
 62
     0
 10
74.0061
 20
30.7689
 30
0.0
 11
74.8055
 21
30.7689
 31
0.0
  0
LINE
  8
0
 62
     0
 10
74.8055
 20
30.7689
 30
0.0
 11
74.8055
 21
27.6696
 31
0.0
  0
LINE
  8
0
 62
     0
 10
74.8055
 20
27.6696
 30
0.0
 11
74.0061
 21
27.6696
 31
0.0
  0
LINE
  8
0
 62
     0
 10
78.7686
 20
65.7698
 30
0.0
 11
78.7686
 21
64.7693
 31
0.0
  0
LINE
  8
0
 62
     0
 10
78.7686
 20
64.7693
 30
0.0
 11
64.7693
 21
64.7693
 31
0.0
  0
LINE
  8
0
 62
     0
 10
64.7693
 20
64.7693
 30
0.0
 11
64.7693
 21
65.7698
 31
0.0
  0
LINE
  8
0
 62
     0
 10
64.7693
 20
65.7698
 30
0.0
 11
63.9685
 21
65.7698
 31
0.0
  0
LINE
  8
0
 62
     0
 10
63.9685
 20
65.7698
 30
0.0
 11
63.9685
 21
68.8689
 31
0.0
  0
LINE
  8
0
 62
     0
 10
63.9685
 20
68.8689
 30
0.0
 11
64.7693
 21
68.8689
 31
0.0
  0
LINE
  8
0
 62
     0
 10
64.7693
 20
68.8689
 30
0.0
 11
64.7693
 21
74.6689
 31
0.0
  0
LINE
  8
0
 62
     0
 10
64.7693
 20
74.6689
 30
0.0
 11
63.9685
 21
74.6689
 31
0.0
  0
LINE
  8
0
 62
     0
 10
63.9685
 20
74.6689
 30
0.0
 11
63.9685
 21
77.7695
 31
0.0
  0
LINE
  8
0
 62
     0
 10
63.9685
 20
77.7695
 30
0.0
 11
64.7693
 21
77.7695
 31
0.0
  0
LINE
  8
0
 62
     0
 10
64.7693
 20
77.7695
 30
0.0
 11
64.7693
 21
78.7686
 31
0.0
  0
LINE
  8
0
 62
     0
 10
64.7693
 20
78.7686
 30
0.0
 11
78.7686
 21
78.7686
 31
0.0
  0
LINE
  8
0
 62
     0
 10
78.7686
 20
78.7686
 30
0.0
 11
78.7686
 21
77.7695
 31
0.0
  0
LINE
  8
0
 62
     0
 10
78.7686
 20
77.7695
 30
0.0
 11
79.5694
 21
77.7695
 31
0.0
  0
LINE
  8
0
 62
     0
 10
79.5694
 20
77.7695
 30
0.0
 11
79.5694
 21
74.6689
 31
0.0
  0
LINE
  8
0
 62
     0
 10
79.5694
 20
74.6689
 30
0.0
 11
78.7686
 21
74.6689
 31
0.0
  0
LINE
  8
0
 62
     0
 10
78.7686
 20
74.6689
 30
0.0
 11
78.7686
 21
68.8689
 31
0.0
  0
LINE
  8
0
 62
     0
 10
78.7686
 20
68.8689
 30
0.0
 11
79.5694
 21
68.8689
 31
0.0
  0
LINE
  8
0
 62
     0
 10
79.5694
 20
68.8689
 30
0.0
 11
79.5694
 21
65.7698
 31
0.0
  0
LINE
  8
0
 62
     0
 10
79.5694
 20
65.7698
 30
0.0
 11
78.7686
 21
65.7698
 31
0.0
  0
LINE
  8
0
 62
     0
 10
83.5311
 20
46.7198
 30
0.0
 11
83.5311
 21
45.7193
 31
0.0
  0
LINE
  8
0
 62
     0
 10
83.5311
 20
45.7193
 30
0.0
 11
69.5318
 21
45.7193
 31
0.0
  0
LINE
  8
0
 62
     0
 10
69.5318
 20
45.7193
 30
0.0
 11
69.5318
 21
46.7198
 31
0.0
  0
LINE
  8
0
 62
     0
 10
69.5318
 20
46.7198
 30
0.0
 11
68.7324
 21
46.7198
 31
0.0
  0
LINE
  8
0
 62
     0
 10
68.7324
 20
46.7198
 30
0.0
 11
68.7324
 21
49.8189
 31
0.0
  0
LINE
  8
0
 62
     0
 10
68.7324
 20
49.8189
 30
0.0
 11
69.5318
 21
49.8189
 31
0.0
  0
LINE
  8
0
 62
     0
 10
69.5318
 20
49.8189
 30
0.0
 11
69.5318
 21
55.6189
 31
0.0
  0
LINE
  8
0
 62
     0
 10
69.5318
 20
55.6189
 30
0.0
 11
68.7324
 21
55.6189
 31
0.0
  0
LINE
  8
0
 62
     0
 10
68.7324
 20
55.6189
 30
0.0
 11
68.7324
 21
58.7195
 31
0.0
  0
LINE
  8
0
 62
     0
 10
68.7324
 20
58.7195
 30
0.0
 11
69.5318
 21
58.7195
 31
0.0
  0
LINE
  8
0
 62
     0
 10
69.5318
 20
58.7195
 30
0.0
 11
69.5318
 21
59.7186
 31
0.0
  0
LINE
  8
0
 62
     0
 10
69.5318
 20
59.7186
 30
0.0
 11
83.5311
 21
59.7186
 31
0.0
  0
LINE
  8
0
 62
     0
 10
83.5311
 20
59.7186
 30
0.0
 11
83.5311
 21
58.7195
 31
0.0
  0
LINE
  8
0
 62
     0
 10
83.5311
 20
58.7195
 30
0.0
 11
84.3305
 21
58.7195
 31
0.0
  0
LINE
  8
0
 62
     0
 10
84.3305
 20
58.7195
 30
0.0
 11
84.3305
 21
55.6189
 31
0.0
  0
LINE
  8
0
 62
     0
 10
84.3305
 20
55.6189
 30
0.0
 11
83.5311
 21
55.6189
 31
0.0
  0
LINE
  8
0
 62
     0
 10
83.5311
 20
55.6189
 30
0.0
 11
83.5311
 21
49.8189
 31
0.0
  0
LINE
  8
0
 62
     0
 10
83.5311
 20
49.8189
 30
0.0
 11
84.3305
 21
49.8189
 31
0.0
  0
LINE
  8
0
 62
     0
 10
84.3305
 20
49.8189
 30
0.0
 11
84.3305
 21
46.7198
 31
0.0
  0
LINE
  8
0
 62
     0
 10
84.3305
 20
46.7198
 30
0.0
 11
83.5311
 21
46.7198
 31
0.0
  0
LINE
  8
0
 62
     0
 10
88.2936
 20
84.8198
 30
0.0
 11
88.2936
 21
83.8193
 31
0.0
  0
LINE
  8
0
 62
     0
 10
88.2936
 20
83.8193
 30
0.0
 11
74.2943
 21
83.8193
 31
0.0
  0
LINE
  8
0
 62
     0
 10
74.2943
 20
83.8193
 30
0.0
 11
74.2943
 21
84.8198
 31
0.0
  0
LINE
  8
0
 62
     0
 10
74.2943
 20
84.8198
 30
0.0
 11
73.4935
 21
84.8198
 31
0.0
  0
LINE
  8
0
 62
     0
 10
73.4935
 20
84.8198
 30
0.0
 11
73.4935
 21
87.9189
 31
0.0
  0
LINE
  8
0
 62
     0
 10
73.4935
 20
87.9189
 30
0.0
 11
74.2943
 21
87.9189
 31
0.0
  0
LINE
  8
0
 62
     0
 10
74.2943
 20
87.9189
 30
0.0
 11
74.2943
 21
93.7189
 31
0.0
  0
LINE
  8
0
 62
     0
 10
74.2943
 20
93.7189
 30
0.0
 11
73.4935
 21
93.7189
 31
0.0
  0
LINE
  8
0
 62
     0
 10
73.4935
 20
93.7189
 30
0.0
 11
73.4935
 21
96.8195
 31
0.0
  0
LINE
  8
0
 62
     0
 10
73.4935
 20
96.8195
 30
0.0
 11
74.2943
 21
96.8195
 31
0.0
  0
LINE
  8
0
 62
     0
 10
74.2943
 20
96.8195
 30
0.0
 11
74.2943
 21
97.8186
 31
0.0
  0
LINE
  8
0
 62
     0
 10
74.2943
 20
97.8186
 30
0.0
 11
88.2936
 21
97.8186
 31
0.0
  0
LINE
  8
0
 62
     0
 10
88.2936
 20
97.8186
 30
0.0
 11
88.2936
 21
96.8195
 31
0.0
  0
LINE
  8
0
 62
     0
 10
88.2936
 20
96.8195
 30
0.0
 11
89.0944
 21
96.8195
 31
0.0
  0
LINE
  8
0
 62
     0
 10
89.0944
 20
96.8195
 30
0.0
 11
89.0944
 21
93.7189
 31
0.0
  0
LINE
  8
0
 62
     0
 10
89.0944
 20
93.7189
 30
0.0
 11
88.2936
 21
93.7189
 31
0.0
  0
LINE
  8
0
 62
     0
 10
88.2936
 20
93.7189
 30
0.0
 11
88.2936
 21
87.9189
 31
0.0
  0
LINE
  8
0
 62
     0
 10
88.2936
 20
87.9189
 30
0.0
 11
89.0944
 21
87.9189
 31
0.0
  0
LINE
  8
0
 62
     0
 10
89.0944
 20
87.9189
 30
0.0
 11
89.0944
 21
84.8198
 31
0.0
  0
LINE
  8
0
 62
     0
 10
89.0944
 20
84.8198
 30
0.0
 11
88.2936
 21
84.8198
 31
0.0
  0
LINE
  8
0
 62
     0
 10
90.6748
 20
8.61963
 30
0.0
 11
90.6748
 21
7.61919
 31
0.0
  0
LINE
  8
0
 62
     0
 10
90.6748
 20
7.61919
 30
0.0
 11
76.6755
 21
7.61919
 31
0.0
  0
LINE
  8
0
 62
     0
 10
76.6755
 20
7.61919
 30
0.0
 11
76.6755
 21
8.61963
 31
0.0
  0
LINE
  8
0
 62
     0
 10
76.6755
 20
8.61963
 30
0.0
 11
75.8747
 21
8.61963
 31
0.0
  0
LINE
  8
0
 62
     0
 10
75.8747
 20
8.61963
 30
0.0
 11
75.8747
 21
11.7189
 31
0.0
  0
LINE
  8
0
 62
     0
 10
75.8747
 20
11.7189
 30
0.0
 11
76.6755
 21
11.7189
 31
0.0
  0
LINE
  8
0
 62
     0
 10
76.6755
 20
11.7189
 30
0.0
 11
76.6755
 21
17.519
 31
0.0
  0
LINE
  8
0
 62
     0
 10
76.6755
 20
17.519
 30
0.0
 11
75.8747
 21
17.519
 31
0.0
  0
LINE
  8
0
 62
     0
 10
75.8747
 20
17.519
 30
0.0
 11
75.8747
 21
20.6196
 31
0.0
  0
LINE
  8
0
 62
     0
 10
75.8747
 20
20.6196
 30
0.0
 11
76.6755
 21
20.6196
 31
0.0
  0
LINE
  8
0
 62
     0
 10
76.6755
 20
20.6196
 30
0.0
 11
76.6755
 21
21.6187
 31
0.0
  0
LINE
  8
0
 62
     0
 10
76.6755
 20
21.6187
 30
0.0
 11
90.6748
 21
21.6187
 31
0.0
  0
LINE
  8
0
 62
     0
 10
90.6748
 20
21.6187
 30
0.0
 11
90.6748
 21
20.6196
 31
0.0
  0
LINE
  8
0
 62
     0
 10
90.6748
 20
20.6196
 30
0.0
 11
91.4742
 21
20.6196
 31
0.0
  0
LINE
  8
0
 62
     0
 10
91.4742
 20
20.6196
 30
0.0
 11
91.4742
 21
17.519
 31
0.0
  0
LINE
  8
0
 62
     0
 10
91.4742
 20
17.519
 30
0.0
 11
90.6748
 21
17.519
 31
0.0
  0
LINE
  8
0
 62
     0
 10
90.6748
 20
17.519
 30
0.0
 11
90.6748
 21
11.7189
 31
0.0
  0
LINE
  8
0
 62
     0
 10
90.6748
 20
11.7189
 30
0.0
 11
91.4742
 21
11.7189
 31
0.0
  0
LINE
  8
0
 62
     0
 10
91.4742
 20
11.7189
 30
0.0
 11
91.4742
 21
8.61963
 31
0.0
  0
LINE
  8
0
 62
     0
 10
91.4742
 20
8.61963
 30
0.0
 11
90.6748
 21
8.61963
 31
0.0
  0
LINE
  8
0
 62
     0
 10
93.0561
 20
27.6696
 30
0.0
 11
93.0561
 21
26.6692
 31
0.0
  0
LINE
  8
0
 62
     0
 10
93.0561
 20
26.6692
 30
0.0
 11
79.0554
 21
26.6692
 31
0.0
  0
LINE
  8
0
 62
     0
 10
79.0554
 20
26.6692
 30
0.0
 11
79.0554
 21
27.6696
 31
0.0
  0
LINE
  8
0
 62
     0
 10
79.0554
 20
27.6696
 30
0.0
 11
78.256
 21
27.6696
 31
0.0
  0
LINE
  8
0
 62
     0
 10
78.256
 20
27.6696
 30
0.0
 11
78.256
 21
30.7689
 31
0.0
  0
LINE
  8
0
 62
     0
 10
78.256
 20
30.7689
 30
0.0
 11
79.0554
 21
30.7689
 31
0.0
  0
LINE
  8
0
 62
     0
 10
79.0554
 20
30.7689
 30
0.0
 11
79.0554
 21
36.5689
 31
0.0
  0
LINE
  8
0
 62
     0
 10
79.0554
 20
36.5689
 30
0.0
 11
78.256
 21
36.5689
 31
0.0
  0
LINE
  8
0
 62
     0
 10
78.256
 20
36.5689
 30
0.0
 11
78.256
 21
39.6695
 31
0.0
  0
LINE
  8
0
 62
     0
 10
78.256
 20
39.6695
 30
0.0
 11
79.0554
 21
39.6695
 31
0.0
  0
LINE
  8
0
 62
     0
 10
79.0554
 20
39.6695
 30
0.0
 11
79.0554
 21
40.6686
 31
0.0
  0
LINE
  8
0
 62
     0
 10
79.0554
 20
40.6686
 30
0.0
 11
93.0561
 21
40.6686
 31
0.0
  0
LINE
  8
0
 62
     0
 10
93.0561
 20
40.6686
 30
0.0
 11
93.0561
 21
39.6695
 31
0.0
  0
LINE
  8
0
 62
     0
 10
93.0561
 20
39.6695
 30
0.0
 11
93.8555
 21
39.6695
 31
0.0
  0
LINE
  8
0
 62
     0
 10
93.8555
 20
39.6695
 30
0.0
 11
93.8555
 21
36.5689
 31
0.0
  0
LINE
  8
0
 62
     0
 10
93.8555
 20
36.5689
 30
0.0
 11
93.0561
 21
36.5689
 31
0.0
  0
LINE
  8
0
 62
     0
 10
93.0561
 20
36.5689
 30
0.0
 11
93.0561
 21
30.7689
 31
0.0
  0
LINE
  8
0
 62
     0
 10
93.0561
 20
30.7689
 30
0.0
 11
93.8555
 21
30.7689
 31
0.0
  0
LINE
  8
0
 62
     0
 10
93.8555
 20
30.7689
 30
0.0
 11
93.8555
 21
27.6696
 31
0.0
  0
LINE
  8
0
 62
     0
 10
93.8555
 20
27.6696
 30
0.0
 11
93.0561
 21
27.6696
 31
0.0
  0
LINE
  8
0
 62
     0
 10
97.8186
 20
65.7698
 30
0.0
 11
97.8186
 21
64.7693
 31
0.0
  0
LINE
  8
0
 62
     0
 10
97.8186
 20
64.7693
 30
0.0
 11
83.8193
 21
64.7693
 31
0.0
  0
LINE
  8
0
 62
     0
 10
83.8193
 20
64.7693
 30
0.0
 11
83.8193
 21
65.7698
 31
0.0
  0
LINE
  8
0
 62
     0
 10
83.8193
 20
65.7698
 30
0.0
 11
83.0185
 21
65.7698
 31
0.0
  0
LINE
  8
0
 62
     0
 10
83.0185
 20
65.7698
 30
0.0
 11
83.0185
 21
68.8689
 31
0.0
  0
LINE
  8
0
 62
     0
 10
83.0185
 20
68.8689
 30
0.0
 11
83.8193
 21
68.8689
 31
0.0
  0
LINE
  8
0
 62
     0
 10
83.8193
 20
68.8689
 30
0.0
 11
83.8193
 21
74.6689
 31
0.0
  0
LINE
  8
0
 62
     0
 10
83.8193
 20
74.6689
 30
0.0
 11
83.0185
 21
74.6689
 31
0.0
  0
LINE
  8
0
 62
     0
 10
83.0185
 20
74.6689
 30
0.0
 11
83.0185
 21
77.7695
 31
0.0
  0
LINE
  8
0
 62
     0
 10
83.0185
 20
77.7695
 30
0.0
 11
83.8193
 21
77.7695
 31
0.0
  0
LINE
  8
0
 62
     0
 10
83.8193
 20
77.7695
 30
0.0
 11
83.8193
 21
78.7686
 31
0.0
  0
LINE
  8
0
 62
     0
 10
83.8193
 20
78.7686
 30
0.0
 11
97.8186
 21
78.7686
 31
0.0
  0
LINE
  8
0
 62
     0
 10
97.8186
 20
78.7686
 30
0.0
 11
97.8186
 21
77.7695
 31
0.0
  0
LINE
  8
0
 62
     0
 10
97.8186
 20
77.7695
 30
0.0
 11
98.6194
 21
77.7695
 31
0.0
  0
LINE
  8
0
 62
     0
 10
98.6194
 20
77.7695
 30
0.0
 11
98.6194
 21
74.6689
 31
0.0
  0
LINE
  8
0
 62
     0
 10
98.6194
 20
74.6689
 30
0.0
 11
97.8186
 21
74.6689
 31
0.0
  0
LINE
  8
0
 62
     0
 10
97.8186
 20
74.6689
 30
0.0
 11
97.8186
 21
68.8689
 31
0.0
  0
LINE
  8
0
 62
     0
 10
97.8186
 20
68.8689
 30
0.0
 11
98.6194
 21
68.8689
 31
0.0
  0
LINE
  8
0
 62
     0
 10
98.6194
 20
68.8689
 30
0.0
 11
98.6194
 21
65.7698
 31
0.0
  0
LINE
  8
0
 62
     0
 10
98.6194
 20
65.7698
 30
0.0
 11
97.8186
 21
65.7698
 31
0.0
  0
LINE
  8
0
 62
     0
 10
102.581
 20
46.7198
 30
0.0
 11
102.581
 21
45.7193
 31
0.0
  0
LINE
  8
0
 62
     0
 10
102.581
 20
45.7193
 30
0.0
 11
88.5804
 21
45.7193
 31
0.0
  0
LINE
  8
0
 62
     0
 10
88.5804
 20
45.7193
 30
0.0
 11
88.5804
 21
46.7198
 31
0.0
  0
LINE
  8
0
 62
     0
 10
88.5804
 20
46.7198
 30
0.0
 11
87.7824
 21
46.7198
 31
0.0
  0
LINE
  8
0
 62
     0
 10
87.7824
 20
46.7198
 30
0.0
 11
87.7824
 21
49.8189
 31
0.0
  0
LINE
  8
0
 62
     0
 10
87.7824
 20
49.8189
 30
0.0
 11
88.5804
 21
49.8189
 31
0.0
  0
LINE
  8
0
 62
     0
 10
88.5804
 20
49.8189
 30
0.0
 11
88.5804
 21
55.6189
 31
0.0
  0
LINE
  8
0
 62
     0
 10
88.5804
 20
55.6189
 30
0.0
 11
87.7824
 21
55.6189
 31
0.0
  0
LINE
  8
0
 62
     0
 10
87.7824
 20
55.6189
 30
0.0
 11
87.7824
 21
58.7195
 31
0.0
  0
LINE
  8
0
 62
     0
 10
87.7824
 20
58.7195
 30
0.0
 11
88.5804
 21
58.7195
 31
0.0
  0
LINE
  8
0
 62
     0
 10
88.5804
 20
58.7195
 30
0.0
 11
88.5804
 21
59.7186
 31
0.0
  0
LINE
  8
0
 62
     0
 10
88.5804
 20
59.7186
 30
0.0
 11
102.581
 21
59.7186
 31
0.0
  0
LINE
  8
0
 62
     0
 10
102.581
 20
59.7186
 30
0.0
 11
102.581
 21
58.7195
 31
0.0
  0
LINE
  8
0
 62
     0
 10
102.581
 20
58.7195
 30
0.0
 11
103.38
 21
58.7195
 31
0.0
  0
LINE
  8
0
 62
     0
 10
103.38
 20
58.7195
 30
0.0
 11
103.38
 21
55.6189
 31
0.0
  0
LINE
  8
0
 62
     0
 10
103.38
 20
55.6189
 30
0.0
 11
102.581
 21
55.6189
 31
0.0
  0
LINE
  8
0
 62
     0
 10
102.581
 20
55.6189
 30
0.0
 11
102.581
 21
49.8189
 31
0.0
  0
LINE
  8
0
 62
     0
 10
102.581
 20
49.8189
 30
0.0
 11
103.38
 21
49.8189
 31
0.0
  0
LINE
  8
0
 62
     0
 10
103.38
 20
49.8189
 30
0.0
 11
103.38
 21
46.7198
 31
0.0
  0
LINE
  8
0
 62
     0
 10
103.38
 20
46.7198
 30
0.0
 11
102.581
 21
46.7198
 31
0.0
  0
LINE
  8
0
 62
     0
 10
107.344
 20
84.8198
 30
0.0
 11
107.344
 21
83.8193
 31
0.0
  0
LINE
  8
0
 62
     0
 10
107.344
 20
83.8193
 30
0.0
 11
93.3443
 21
83.8193
 31
0.0
  0
LINE
  8
0
 62
     0
 10
93.3443
 20
83.8193
 30
0.0
 11
93.3443
 21
84.8198
 31
0.0
  0
LINE
  8
0
 62
     0
 10
93.3443
 20
84.8198
 30
0.0
 11
92.5435
 21
84.8198
 31
0.0
  0
LINE
  8
0
 62
     0
 10
92.5435
 20
84.8198
 30
0.0
 11
92.5435
 21
87.9189
 31
0.0
  0
LINE
  8
0
 62
     0
 10
92.5435
 20
87.9189
 30
0.0
 11
93.3443
 21
87.9189
 31
0.0
  0
LINE
  8
0
 62
     0
 10
93.3443
 20
87.9189
 30
0.0
 11
93.3443
 21
93.7189
 31
0.0
  0
LINE
  8
0
 62
     0
 10
93.3443
 20
93.7189
 30
0.0
 11
92.5435
 21
93.7189
 31
0.0
  0
LINE
  8
0
 62
     0
 10
92.5435
 20
93.7189
 30
0.0
 11
92.5435
 21
96.8195
 31
0.0
  0
LINE
  8
0
 62
     0
 10
92.5435
 20
96.8195
 30
0.0
 11
93.3443
 21
96.8195
 31
0.0
  0
LINE
  8
0
 62
     0
 10
93.3443
 20
96.8195
 30
0.0
 11
93.3443
 21
97.8186
 31
0.0
  0
LINE
  8
0
 62
     0
 10
93.3443
 20
97.8186
 30
0.0
 11
107.344
 21
97.8186
 31
0.0
  0
LINE
  8
0
 62
     0
 10
107.344
 20
97.8186
 30
0.0
 11
107.344
 21
96.8195
 31
0.0
  0
LINE
  8
0
 62
     0
 10
107.344
 20
96.8195
 30
0.0
 11
108.144
 21
96.8195
 31
0.0
  0
LINE
  8
0
 62
     0
 10
108.144
 20
96.8195
 30
0.0
 11
108.144
 21
93.7189
 31
0.0
  0
LINE
  8
0
 62
     0
 10
108.144
 20
93.7189
 30
0.0
 11
107.344
 21
93.7189
 31
0.0
  0
LINE
  8
0
 62
     0
 10
107.344
 20
93.7189
 30
0.0
 11
107.344
 21
87.9189
 31
0.0
  0
LINE
  8
0
 62
     0
 10
107.344
 20
87.9189
 30
0.0
 11
108.144
 21
87.9189
 31
0.0
  0
LINE
  8
0
 62
     0
 10
108.144
 20
87.9189
 30
0.0
 11
108.144
 21
84.8198
 31
0.0
  0
LINE
  8
0
 62
     0
 10
108.144
 20
84.8198
 30
0.0
 11
107.344
 21
84.8198
 31
0.0
  0
LINE
  8
0
 62
     0
 10
112.106
 20
27.6696
 30
0.0
 11
112.106
 21
26.6692
 31
0.0
  0
LINE
  8
0
 62
     0
 10
112.106
 20
26.6692
 30
0.0
 11
98.1054
 21
26.6692
 31
0.0
  0
LINE
  8
0
 62
     0
 10
98.1054
 20
26.6692
 30
0.0
 11
98.1054
 21
27.6696
 31
0.0
  0
LINE
  8
0
 62
     0
 10
98.1054
 20
27.6696
 30
0.0
 11
97.306
 21
27.6696
 31
0.0
  0
LINE
  8
0
 62
     0
 10
97.306
 20
27.6696
 30
0.0
 11
97.306
 21
30.7689
 31
0.0
  0
LINE
  8
0
 62
     0
 10
97.306
 20
30.7689
 30
0.0
 11
98.1054
 21
30.7689
 31
0.0
  0
LINE
  8
0
 62
     0
 10
98.1054
 20
30.7689
 30
0.0
 11
98.1054
 21
36.5689
 31
0.0
  0
LINE
  8
0
 62
     0
 10
98.1054
 20
36.5689
 30
0.0
 11
97.306
 21
36.5689
 31
0.0
  0
LINE
  8
0
 62
     0
 10
97.306
 20
36.5689
 30
0.0
 11
97.306
 21
39.6695
 31
0.0
  0
LINE
  8
0
 62
     0
 10
97.306
 20
39.6695
 30
0.0
 11
98.1054
 21
39.6695
 31
0.0
  0
LINE
  8
0
 62
     0
 10
98.1054
 20
39.6695
 30
0.0
 11
98.1054
 21
40.6686
 31
0.0
  0
LINE
  8
0
 62
     0
 10
98.1054
 20
40.6686
 30
0.0
 11
112.106
 21
40.6686
 31
0.0
  0
LINE
  8
0
 62
     0
 10
112.106
 20
40.6686
 30
0.0
 11
112.106
 21
39.6695
 31
0.0
  0
LINE
  8
0
 62
     0
 10
112.106
 20
39.6695
 30
0.0
 11
112.905
 21
39.6695
 31
0.0
  0
LINE
  8
0
 62
     0
 10
112.905
 20
39.6695
 30
0.0
 11
112.905
 21
36.5689
 31
0.0
  0
LINE
  8
0
 62
     0
 10
112.905
 20
36.5689
 30
0.0
 11
112.106
 21
36.5689
 31
0.0
  0
LINE
  8
0
 62
     0
 10
112.106
 20
36.5689
 30
0.0
 11
112.106
 21
30.7689
 31
0.0
  0
LINE
  8
0
 62
     0
 10
112.106
 20
30.7689
 30
0.0
 11
112.905
 21
30.7689
 31
0.0
  0
LINE
  8
0
 62
     0
 10
112.905
 20
30.7689
 30
0.0
 11
112.905
 21
27.6696
 31
0.0
  0
LINE
  8
0
 62
     0
 10
112.905
 20
27.6696
 30
0.0
 11
112.106
 21
27.6696
 31
0.0
  0
LINE
  8
0
 62
     0
 10
114.487
 20
8.61963
 30
0.0
 11
114.487
 21
7.61919
 31
0.0
  0
LINE
  8
0
 62
     0
 10
114.487
 20
7.61919
 30
0.0
 11
100.488
 21
7.61919
 31
0.0
  0
LINE
  8
0
 62
     0
 10
100.488
 20
7.61919
 30
0.0
 11
100.488
 21
8.61963
 31
0.0
  0
LINE
  8
0
 62
     0
 10
100.488
 20
8.61963
 30
0.0
 11
99.6872
 21
8.61963
 31
0.0
  0
LINE
  8
0
 62
     0
 10
99.6872
 20
8.61963
 30
0.0
 11
99.6872
 21
11.7189
 31
0.0
  0
LINE
  8
0
 62
     0
 10
99.6872
 20
11.7189
 30
0.0
 11
100.488
 21
11.7189
 31
0.0
  0
LINE
  8
0
 62
     0
 10
100.488
 20
11.7189
 30
0.0
 11
100.488
 21
17.519
 31
0.0
  0
LINE
  8
0
 62
     0
 10
100.488
 20
17.519
 30
0.0
 11
99.6872
 21
17.519
 31
0.0
  0
LINE
  8
0
 62
     0
 10
99.6872
 20
17.519
 30
0.0
 11
99.6872
 21
20.6196
 31
0.0
  0
LINE
  8
0
 62
     0
 10
99.6872
 20
20.6196
 30
0.0
 11
100.488
 21
20.6196
 31
0.0
  0
LINE
  8
0
 62
     0
 10
100.488
 20
20.6196
 30
0.0
 11
100.488
 21
21.6187
 31
0.0
  0
LINE
  8
0
 62
     0
 10
100.488
 20
21.6187
 30
0.0
 11
114.487
 21
21.6187
 31
0.0
  0
LINE
  8
0
 62
     0
 10
114.487
 20
21.6187
 30
0.0
 11
114.487
 21
20.6196
 31
0.0
  0
LINE
  8
0
 62
     0
 10
114.487
 20
20.6196
 30
0.0
 11
115.288
 21
20.6196
 31
0.0
  0
LINE
  8
0
 62
     0
 10
115.288
 20
20.6196
 30
0.0
 11
115.288
 21
17.519
 31
0.0
  0
LINE
  8
0
 62
     0
 10
115.288
 20
17.519
 30
0.0
 11
114.487
 21
17.519
 31
0.0
  0
LINE
  8
0
 62
     0
 10
114.487
 20
17.519
 30
0.0
 11
114.487
 21
11.7189
 31
0.0
  0
LINE
  8
0
 62
     0
 10
114.487
 20
11.7189
 30
0.0
 11
115.288
 21
11.7189
 31
0.0
  0
LINE
  8
0
 62
     0
 10
115.288
 20
11.7189
 30
0.0
 11
115.288
 21
8.61963
 31
0.0
  0
LINE
  8
0
 62
     0
 10
115.288
 20
8.61963
 30
0.0
 11
114.487
 21
8.61963
 31
0.0
  0
LINE
  8
0
 62
     0
 10
116.869
 20
65.7698
 30
0.0
 11
116.869
 21
64.7693
 31
0.0
  0
LINE
  8
0
 62
     0
 10
116.869
 20
64.7693
 30
0.0
 11
102.869
 21
64.7693
 31
0.0
  0
LINE
  8
0
 62
     0
 10
102.869
 20
64.7693
 30
0.0
 11
102.869
 21
65.7698
 31
0.0
  0
LINE
  8
0
 62
     0
 10
102.869
 20
65.7698
 30
0.0
 11
102.068
 21
65.7698
 31
0.0
  0
LINE
  8
0
 62
     0
 10
102.068
 20
65.7698
 30
0.0
 11
102.068
 21
68.8689
 31
0.0
  0
LINE
  8
0
 62
     0
 10
102.068
 20
68.8689
 30
0.0
 11
102.869
 21
68.8689
 31
0.0
  0
LINE
  8
0
 62
     0
 10
102.869
 20
68.8689
 30
0.0
 11
102.869
 21
74.6689
 31
0.0
  0
LINE
  8
0
 62
     0
 10
102.869
 20
74.6689
 30
0.0
 11
102.068
 21
74.6689
 31
0.0
  0
LINE
  8
0
 62
     0
 10
102.068
 20
74.6689
 30
0.0
 11
102.068
 21
77.7695
 31
0.0
  0
LINE
  8
0
 62
     0
 10
102.068
 20
77.7695
 30
0.0
 11
102.869
 21
77.7695
 31
0.0
  0
LINE
  8
0
 62
     0
 10
102.869
 20
77.7695
 30
0.0
 11
102.869
 21
78.7686
 31
0.0
  0
LINE
  8
0
 62
     0
 10
102.869
 20
78.7686
 30
0.0
 11
116.869
 21
78.7686
 31
0.0
  0
LINE
  8
0
 62
     0
 10
116.869
 20
78.7686
 30
0.0
 11
116.869
 21
77.7695
 31
0.0
  0
LINE
  8
0
 62
     0
 10
116.869
 20
77.7695
 30
0.0
 11
117.669
 21
77.7695
 31
0.0
  0
LINE
  8
0
 62
     0
 10
117.669
 20
77.7695
 30
0.0
 11
117.669
 21
74.6689
 31
0.0
  0
LINE
  8
0
 62
     0
 10
117.669
 20
74.6689
 30
0.0
 11
116.869
 21
74.6689
 31
0.0
  0
LINE
  8
0
 62
     0
 10
116.869
 20
74.6689
 30
0.0
 11
116.869
 21
68.8689
 31
0.0
  0
LINE
  8
0
 62
     0
 10
116.869
 20
68.8689
 30
0.0
 11
117.669
 21
68.8689
 31
0.0
  0
LINE
  8
0
 62
     0
 10
117.669
 20
68.8689
 30
0.0
 11
117.669
 21
65.7698
 31
0.0
  0
LINE
  8
0
 62
     0
 10
117.669
 20
65.7698
 30
0.0
 11
116.869
 21
65.7698
 31
0.0
  0
LINE
  8
0
 62
     0
 10
121.631
 20
46.7198
 30
0.0
 11
121.631
 21
45.7193
 31
0.0
  0
LINE
  8
0
 62
     0
 10
121.631
 20
45.7193
 30
0.0
 11
107.63
 21
45.7193
 31
0.0
  0
LINE
  8
0
 62
     0
 10
107.63
 20
45.7193
 30
0.0
 11
107.63
 21
46.7198
 31
0.0
  0
LINE
  8
0
 62
     0
 10
107.63
 20
46.7198
 30
0.0
 11
106.831
 21
46.7198
 31
0.0
  0
LINE
  8
0
 62
     0
 10
106.831
 20
46.7198
 30
0.0
 11
106.831
 21
49.8189
 31
0.0
  0
LINE
  8
0
 62
     0
 10
106.831
 20
49.8189
 30
0.0
 11
107.63
 21
49.8189
 31
0.0
  0
LINE
  8
0
 62
     0
 10
107.63
 20
49.8189
 30
0.0
 11
107.63
 21
55.6189
 31
0.0
  0
LINE
  8
0
 62
     0
 10
107.63
 20
55.6189
 30
0.0
 11
106.831
 21
55.6189
 31
0.0
  0
LINE
  8
0
 62
     0
 10
106.831
 20
55.6189
 30
0.0
 11
106.831
 21
58.7195
 31
0.0
  0
LINE
  8
0
 62
     0
 10
106.831
 20
58.7195
 30
0.0
 11
107.63
 21
58.7195
 31
0.0
  0
LINE
  8
0
 62
     0
 10
107.63
 20
58.7195
 30
0.0
 11
107.63
 21
59.7186
 31
0.0
  0
LINE
  8
0
 62
     0
 10
107.63
 20
59.7186
 30
0.0
 11
121.631
 21
59.7186
 31
0.0
  0
LINE
  8
0
 62
     0
 10
121.631
 20
59.7186
 30
0.0
 11
121.631
 21
58.7195
 31
0.0
  0
LINE
  8
0
 62
     0
 10
121.631
 20
58.7195
 30
0.0
 11
122.43
 21
58.7195
 31
0.0
  0
LINE
  8
0
 62
     0
 10
122.43
 20
58.7195
 30
0.0
 11
122.43
 21
55.6189
 31
0.0
  0
LINE
  8
0
 62
     0
 10
122.43
 20
55.6189
 30
0.0
 11
121.631
 21
55.6189
 31
0.0
  0
LINE
  8
0
 62
     0
 10
121.631
 20
55.6189
 30
0.0
 11
121.631
 21
49.8189
 31
0.0
  0
LINE
  8
0
 62
     0
 10
121.631
 20
49.8189
 30
0.0
 11
122.43
 21
49.8189
 31
0.0
  0
LINE
  8
0
 62
     0
 10
122.43
 20
49.8189
 30
0.0
 11
122.43
 21
46.7198
 31
0.0
  0
LINE
  8
0
 62
     0
 10
122.43
 20
46.7198
 30
0.0
 11
121.631
 21
46.7198
 31
0.0
  0
LINE
  8
0
 62
     0
 10
126.394
 20
84.8198
 30
0.0
 11
126.394
 21
83.8193
 31
0.0
  0
LINE
  8
0
 62
     0
 10
126.394
 20
83.8193
 30
0.0
 11
112.394
 21
83.8193
 31
0.0
  0
LINE
  8
0
 62
     0
 10
112.394
 20
83.8193
 30
0.0
 11
112.394
 21
84.8198
 31
0.0
  0
LINE
  8
0
 62
     0
 10
112.394
 20
84.8198
 30
0.0
 11
111.593
 21
84.8198
 31
0.0
  0
LINE
  8
0
 62
     0
 10
111.593
 20
84.8198
 30
0.0
 11
111.593
 21
87.9189
 31
0.0
  0
LINE
  8
0
 62
     0
 10
111.593
 20
87.9189
 30
0.0
 11
112.394
 21
87.9189
 31
0.0
  0
LINE
  8
0
 62
     0
 10
112.394
 20
87.9189
 30
0.0
 11
112.394
 21
93.7189
 31
0.0
  0
LINE
  8
0
 62
     0
 10
112.394
 20
93.7189
 30
0.0
 11
111.593
 21
93.7189
 31
0.0
  0
LINE
  8
0
 62
     0
 10
111.593
 20
93.7189
 30
0.0
 11
111.593
 21
96.8195
 31
0.0
  0
LINE
  8
0
 62
     0
 10
111.593
 20
96.8195
 30
0.0
 11
112.394
 21
96.8195
 31
0.0
  0
LINE
  8
0
 62
     0
 10
112.394
 20
96.8195
 30
0.0
 11
112.394
 21
97.8186
 31
0.0
  0
LINE
  8
0
 62
     0
 10
112.394
 20
97.8186
 30
0.0
 11
126.394
 21
97.8186
 31
0.0
  0
LINE
  8
0
 62
     0
 10
126.394
 20
97.8186
 30
0.0
 11
126.394
 21
96.8195
 31
0.0
  0
LINE
  8
0
 62
     0
 10
126.394
 20
96.8195
 30
0.0
 11
127.194
 21
96.8195
 31
0.0
  0
LINE
  8
0
 62
     0
 10
127.194
 20
96.8195
 30
0.0
 11
127.194
 21
93.7189
 31
0.0
  0
LINE
  8
0
 62
     0
 10
127.194
 20
93.7189
 30
0.0
 11
126.394
 21
93.7189
 31
0.0
  0
LINE
  8
0
 62
     0
 10
126.394
 20
93.7189
 30
0.0
 11
126.394
 21
87.9189
 31
0.0
  0
LINE
  8
0
 62
     0
 10
126.394
 20
87.9189
 30
0.0
 11
127.194
 21
87.9189
 31
0.0
  0
LINE
  8
0
 62
     0
 10
127.194
 20
87.9189
 30
0.0
 11
127.194
 21
84.8198
 31
0.0
  0
LINE
  8
0
 62
     0
 10
127.194
 20
84.8198
 30
0.0
 11
126.394
 21
84.8198
 31
0.0
  0
LINE
  8
0
 62
     0
 10
135.919
 20
65.7698
 30
0.0
 11
135.919
 21
64.7693
 31
0.0
  0
LINE
  8
0
 62
     0
 10
135.919
 20
64.7693
 30
0.0
 11
121.919
 21
64.7693
 31
0.0
  0
LINE
  8
0
 62
     0
 10
121.919
 20
64.7693
 30
0.0
 11
121.919
 21
65.7698
 31
0.0
  0
LINE
  8
0
 62
     0
 10
121.919
 20
65.7698
 30
0.0
 11
121.118
 21
65.7698
 31
0.0
  0
LINE
  8
0
 62
     0
 10
121.118
 20
65.7698
 30
0.0
 11
121.118
 21
68.8689
 31
0.0
  0
LINE
  8
0
 62
     0
 10
121.118
 20
68.8689
 30
0.0
 11
121.919
 21
68.8689
 31
0.0
  0
LINE
  8
0
 62
     0
 10
121.919
 20
68.8689
 30
0.0
 11
121.919
 21
74.6689
 31
0.0
  0
LINE
  8
0
 62
     0
 10
121.919
 20
74.6689
 30
0.0
 11
121.118
 21
74.6689
 31
0.0
  0
LINE
  8
0
 62
     0
 10
121.118
 20
74.6689
 30
0.0
 11
121.118
 21
77.7695
 31
0.0
  0
LINE
  8
0
 62
     0
 10
121.118
 20
77.7695
 30
0.0
 11
121.919
 21
77.7695
 31
0.0
  0
LINE
  8
0
 62
     0
 10
121.919
 20
77.7695
 30
0.0
 11
121.919
 21
78.7686
 31
0.0
  0
LINE
  8
0
 62
     0
 10
121.919
 20
78.7686
 30
0.0
 11
135.919
 21
78.7686
 31
0.0
  0
LINE
  8
0
 62
     0
 10
135.919
 20
78.7686
 30
0.0
 11
135.919
 21
77.7695
 31
0.0
  0
LINE
  8
0
 62
     0
 10
135.919
 20
77.7695
 30
0.0
 11
136.719
 21
77.7695
 31
0.0
  0
LINE
  8
0
 62
     0
 10
136.719
 20
77.7695
 30
0.0
 11
136.719
 21
74.6689
 31
0.0
  0
LINE
  8
0
 62
     0
 10
136.719
 20
74.6689
 30
0.0
 11
135.919
 21
74.6689
 31
0.0
  0
LINE
  8
0
 62
     0
 10
135.919
 20
74.6689
 30
0.0
 11
135.919
 21
68.8689
 31
0.0
  0
LINE
  8
0
 62
     0
 10
135.919
 20
68.8689
 30
0.0
 11
136.719
 21
68.8689
 31
0.0
  0
LINE
  8
0
 62
     0
 10
136.719
 20
68.8689
 30
0.0
 11
136.719
 21
65.7698
 31
0.0
  0
LINE
  8
0
 62
     0
 10
136.719
 20
65.7698
 30
0.0
 11
135.919
 21
65.7698
 31
0.0
  0
LINE
  8
0
 62
     0
 10
138.3
 20
27.6696
 30
0.0
 11
138.3
 21
26.6692
 31
0.0
  0
LINE
  8
0
 62
     0
 10
138.3
 20
26.6692
 30
0.0
 11
124.301
 21
26.6692
 31
0.0
  0
LINE
  8
0
 62
     0
 10
124.301
 20
26.6692
 30
0.0
 11
124.301
 21
27.6696
 31
0.0
  0
LINE
  8
0
 62
     0
 10
124.301
 20
27.6696
 30
0.0
 11
123.5
 21
27.6696
 31
0.0
  0
LINE
  8
0
 62
     0
 10
123.5
 20
27.6696
 30
0.0
 11
123.5
 21
30.7689
 31
0.0
  0
LINE
  8
0
 62
     0
 10
123.5
 20
30.7689
 30
0.0
 11
124.301
 21
30.7689
 31
0.0
  0
LINE
  8
0
 62
     0
 10
124.301
 20
30.7689
 30
0.0
 11
124.301
 21
36.5689
 31
0.0
  0
LINE
  8
0
 62
     0
 10
124.301
 20
36.5689
 30
0.0
 11
123.5
 21
36.5689
 31
0.0
  0
LINE
  8
0
 62
     0
 10
123.5
 20
36.5689
 30
0.0
 11
123.5
 21
39.6695
 31
0.0
  0
LINE
  8
0
 62
     0
 10
123.5
 20
39.6695
 30
0.0
 11
124.301
 21
39.6695
 31
0.0
  0
LINE
  8
0
 62
     0
 10
124.301
 20
39.6695
 30
0.0
 11
124.301
 21
40.6686
 31
0.0
  0
LINE
  8
0
 62
     0
 10
124.301
 20
40.6686
 30
0.0
 11
138.3
 21
40.6686
 31
0.0
  0
LINE
  8
0
 62
     0
 10
138.3
 20
40.6686
 30
0.0
 11
138.3
 21
39.6695
 31
0.0
  0
LINE
  8
0
 62
     0
 10
138.3
 20
39.6695
 30
0.0
 11
139.099
 21
39.6695
 31
0.0
  0
LINE
  8
0
 62
     0
 10
139.099
 20
39.6695
 30
0.0
 11
139.099
 21
36.5689
 31
0.0
  0
LINE
  8
0
 62
     0
 10
139.099
 20
36.5689
 30
0.0
 11
138.3
 21
36.5689
 31
0.0
  0
LINE
  8
0
 62
     0
 10
138.3
 20
36.5689
 30
0.0
 11
138.3
 21
30.7689
 31
0.0
  0
LINE
  8
0
 62
     0
 10
138.3
 20
30.7689
 30
0.0
 11
139.099
 21
30.7689
 31
0.0
  0
LINE
  8
0
 62
     0
 10
139.099
 20
30.7689
 30
0.0
 11
139.099
 21
27.6696
 31
0.0
  0
LINE
  8
0
 62
     0
 10
139.099
 20
27.6696
 30
0.0
 11
138.3
 21
27.6696
 31
0.0
  0
LINE
  8
0
 62
     0
 10
138.3
 20
8.61963
 30
0.0
 11
138.3
 21
7.61919
 31
0.0
  0
LINE
  8
0
 62
     0
 10
138.3
 20
7.61919
 30
0.0
 11
124.301
 21
7.61919
 31
0.0
  0
LINE
  8
0
 62
     0
 10
124.301
 20
7.61919
 30
0.0
 11
124.301
 21
8.61963
 31
0.0
  0
LINE
  8
0
 62
     0
 10
124.301
 20
8.61963
 30
0.0
 11
123.5
 21
8.61963
 31
0.0
  0
LINE
  8
0
 62
     0
 10
123.5
 20
8.61963
 30
0.0
 11
123.5
 21
11.7189
 31
0.0
  0
LINE
  8
0
 62
     0
 10
123.5
 20
11.7189
 30
0.0
 11
124.301
 21
11.7189
 31
0.0
  0
LINE
  8
0
 62
     0
 10
124.301
 20
11.7189
 30
0.0
 11
124.301
 21
17.519
 31
0.0
  0
LINE
  8
0
 62
     0
 10
124.301
 20
17.519
 30
0.0
 11
123.5
 21
17.519
 31
0.0
  0
LINE
  8
0
 62
     0
 10
123.5
 20
17.519
 30
0.0
 11
123.5
 21
20.6196
 31
0.0
  0
LINE
  8
0
 62
     0
 10
123.5
 20
20.6196
 30
0.0
 11
124.301
 21
20.6196
 31
0.0
  0
LINE
  8
0
 62
     0
 10
124.301
 20
20.6196
 30
0.0
 11
124.301
 21
21.6187
 31
0.0
  0
LINE
  8
0
 62
     0
 10
124.301
 20
21.6187
 30
0.0
 11
138.3
 21
21.6187
 31
0.0
  0
LINE
  8
0
 62
     0
 10
138.3
 20
21.6187
 30
0.0
 11
138.3
 21
20.6196
 31
0.0
  0
LINE
  8
0
 62
     0
 10
138.3
 20
20.6196
 30
0.0
 11
139.099
 21
20.6196
 31
0.0
  0
LINE
  8
0
 62
     0
 10
139.099
 20
20.6196
 30
0.0
 11
139.099
 21
17.519
 31
0.0
  0
LINE
  8
0
 62
     0
 10
139.099
 20
17.519
 30
0.0
 11
138.3
 21
17.519
 31
0.0
  0
LINE
  8
0
 62
     0
 10
138.3
 20
17.519
 30
0.0
 11
138.3
 21
11.7189
 31
0.0
  0
LINE
  8
0
 62
     0
 10
138.3
 20
11.7189
 30
0.0
 11
139.099
 21
11.7189
 31
0.0
  0
LINE
  8
0
 62
     0
 10
139.099
 20
11.7189
 30
0.0
 11
139.099
 21
8.61963
 31
0.0
  0
LINE
  8
0
 62
     0
 10
139.099
 20
8.61963
 30
0.0
 11
138.3
 21
8.61963
 31
0.0
  0
LINE
  8
0
 62
     0
 10
159.731
 20
65.7698
 30
0.0
 11
159.731
 21
64.7693
 31
0.0
  0
LINE
  8
0
 62
     0
 10
159.731
 20
64.7693
 30
0.0
 11
145.73
 21
64.7693
 31
0.0
  0
LINE
  8
0
 62
     0
 10
145.73
 20
64.7693
 30
0.0
 11
145.73
 21
65.7698
 31
0.0
  0
LINE
  8
0
 62
     0
 10
145.73
 20
65.7698
 30
0.0
 11
144.931
 21
65.7698
 31
0.0
  0
LINE
  8
0
 62
     0
 10
144.931
 20
65.7698
 30
0.0
 11
144.931
 21
68.8689
 31
0.0
  0
LINE
  8
0
 62
     0
 10
144.931
 20
68.8689
 30
0.0
 11
145.73
 21
68.8689
 31
0.0
  0
LINE
  8
0
 62
     0
 10
145.73
 20
68.8689
 30
0.0
 11
145.73
 21
74.6689
 31
0.0
  0
LINE
  8
0
 62
     0
 10
145.73
 20
74.6689
 30
0.0
 11
144.931
 21
74.6689
 31
0.0
  0
LINE
  8
0
 62
     0
 10
144.931
 20
74.6689
 30
0.0
 11
144.931
 21
77.7695
 31
0.0
  0
LINE
  8
0
 62
     0
 10
144.931
 20
77.7695
 30
0.0
 11
145.73
 21
77.7695
 31
0.0
  0
LINE
  8
0
 62
     0
 10
145.73
 20
77.7695
 30
0.0
 11
145.73
 21
78.7686
 31
0.0
  0
LINE
  8
0
 62
     0
 10
145.73
 20
78.7686
 30
0.0
 11
159.731
 21
78.7686
 31
0.0
  0
LINE
  8
0
 62
     0
 10
159.731
 20
78.7686
 30
0.0
 11
159.731
 21
77.7695
 31
0.0
  0
LINE
  8
0
 62
     0
 10
159.731
 20
77.7695
 30
0.0
 11
160.532
 21
77.7695
 31
0.0
  0
LINE
  8
0
 62
     0
 10
160.532
 20
77.7695
 30
0.0
 11
160.532
 21
74.6689
 31
0.0
  0
LINE
  8
0
 62
     0
 10
160.532
 20
74.6689
 30
0.0
 11
159.731
 21
74.6689
 31
0.0
  0
LINE
  8
0
 62
     0
 10
159.731
 20
74.6689
 30
0.0
 11
159.731
 21
68.8689
 31
0.0
  0
LINE
  8
0
 62
     0
 10
159.731
 20
68.8689
 30
0.0
 11
160.532
 21
68.8689
 31
0.0
  0
LINE
  8
0
 62
     0
 10
160.532
 20
68.8689
 30
0.0
 11
160.532
 21
65.7698
 31
0.0
  0
LINE
  8
0
 62
     0
 10
160.532
 20
65.7698
 30
0.0
 11
159.731
 21
65.7698
 31
0.0
  0
LINE
  8
0
 62
     0
 10
160.813
 20
52.2192
 30
0.0
 11
160.813
 21
45.9493
 31
0.0
  0
LINE
  8
0
 62
     0
 10
160.813
 20
45.9493
 30
0.0
 11
159.188
 21
45.9493
 31
0.0
  0
LINE
  8
0
 62
     0
 10
159.188
 20
45.9493
 30
0.0
 11
159.188
 21
44.7492
 31
0.0
  0
LINE
  8
0
 62
     0
 10
159.188
 20
44.7492
 30
0.0
 11
155.888
 21
44.7492
 31
0.0
  0
LINE
  8
0
 62
     0
 10
155.888
 20
44.7492
 30
0.0
 11
155.888
 21
45.9493
 31
0.0
  0
LINE
  8
0
 62
     0
 10
155.888
 20
45.9493
 30
0.0
 11
154.162
 21
45.9493
 31
0.0
  0
LINE
  8
0
 62
     0
 10
154.162
 20
45.9493
 30
0.0
 11
154.162
 21
46.7487
 31
0.0
  0
LINE
  8
0
 62
     0
 10
154.162
 20
46.7487
 30
0.0
 11
153.388
 21
46.7487
 31
0.0
  0
LINE
  8
0
 62
     0
 10
153.388
 20
46.7487
 30
0.0
 11
153.388
 21
46.7198
 31
0.0
  0
LINE
  8
0
 62
     0
 10
153.388
 20
46.7198
 30
0.0
 11
152.587
 21
46.7198
 31
0.0
  0
LINE
  8
0
 62
     0
 10
152.587
 20
46.7198
 30
0.0
 11
152.587
 21
45.7193
 31
0.0
  0
LINE
  8
0
 62
     0
 10
152.587
 20
45.7193
 30
0.0
 11
138.588
 21
45.7193
 31
0.0
  0
LINE
  8
0
 62
     0
 10
138.588
 20
45.7193
 30
0.0
 11
138.588
 21
46.7198
 31
0.0
  0
LINE
  8
0
 62
     0
 10
138.588
 20
46.7198
 30
0.0
 11
137.787
 21
46.7198
 31
0.0
  0
LINE
  8
0
 62
     0
 10
137.787
 20
46.7198
 30
0.0
 11
137.787
 21
46.7487
 31
0.0
  0
LINE
  8
0
 62
     0
 10
137.787
 20
46.7487
 30
0.0
 11
137.013
 21
46.7487
 31
0.0
  0
LINE
  8
0
 62
     0
 10
137.013
 20
46.7487
 30
0.0
 11
137.013
 21
45.9493
 31
0.0
  0
LINE
  8
0
 62
     0
 10
137.013
 20
45.9493
 30
0.0
 11
135.287
 21
45.9493
 31
0.0
  0
LINE
  8
0
 62
     0
 10
135.287
 20
45.9493
 30
0.0
 11
135.287
 21
44.7492
 31
0.0
  0
LINE
  8
0
 62
     0
 10
135.287
 20
44.7492
 30
0.0
 11
131.987
 21
44.7492
 31
0.0
  0
LINE
  8
0
 62
     0
 10
131.987
 20
44.7492
 30
0.0
 11
131.987
 21
45.9493
 31
0.0
  0
LINE
  8
0
 62
     0
 10
131.987
 20
45.9493
 30
0.0
 11
130.362
 21
45.9493
 31
0.0
  0
LINE
  8
0
 62
     0
 10
130.362
 20
45.9493
 30
0.0
 11
130.362
 21
52.2192
 31
0.0
  0
LINE
  8
0
 62
     0
 10
130.362
 20
52.2192
 30
0.0
 11
129.487
 21
52.2192
 31
0.0
  0
LINE
  8
0
 62
     0
 10
129.487
 20
52.2192
 30
0.0
 11
129.487
 21
55.0196
 31
0.0
  0
LINE
  8
0
 62
     0
 10
129.487
 20
55.0196
 30
0.0
 11
130.362
 21
55.0196
 31
0.0
  0
LINE
  8
0
 62
     0
 10
130.362
 20
55.0196
 30
0.0
 11
130.362
 21
58.2496
 31
0.0
  0
LINE
  8
0
 62
     0
 10
130.362
 20
58.2496
 30
0.0
 11
137.013
 21
58.2496
 31
0.0
  0
LINE
  8
0
 62
     0
 10
137.013
 20
58.2496
 30
0.0
 11
137.013
 21
57.4492
 31
0.0
  0
LINE
  8
0
 62
     0
 10
137.013
 20
57.4492
 30
0.0
 11
137.787
 21
57.4492
 31
0.0
  0
LINE
  8
0
 62
     0
 10
137.787
 20
57.4492
 30
0.0
 11
137.787
 21
58.7195
 31
0.0
  0
LINE
  8
0
 62
     0
 10
137.787
 20
58.7195
 30
0.0
 11
138.588
 21
58.7195
 31
0.0
  0
LINE
  8
0
 62
     0
 10
138.588
 20
58.7195
 30
0.0
 11
138.588
 21
59.7186
 31
0.0
  0
LINE
  8
0
 62
     0
 10
138.588
 20
59.7186
 30
0.0
 11
152.587
 21
59.7186
 31
0.0
  0
LINE
  8
0
 62
     0
 10
152.587
 20
59.7186
 30
0.0
 11
152.587
 21
58.7195
 31
0.0
  0
LINE
  8
0
 62
     0
 10
152.587
 20
58.7195
 30
0.0
 11
153.388
 21
58.7195
 31
0.0
  0
LINE
  8
0
 62
     0
 10
153.388
 20
58.7195
 30
0.0
 11
153.388
 21
57.4492
 31
0.0
  0
LINE
  8
0
 62
     0
 10
153.388
 20
57.4492
 30
0.0
 11
154.162
 21
57.4492
 31
0.0
  0
LINE
  8
0
 62
     0
 10
154.162
 20
57.4492
 30
0.0
 11
154.162
 21
58.2496
 31
0.0
  0
LINE
  8
0
 62
     0
 10
154.162
 20
58.2496
 30
0.0
 11
160.813
 21
58.2496
 31
0.0
  0
LINE
  8
0
 62
     0
 10
160.813
 20
58.2496
 30
0.0
 11
160.813
 21
55.0196
 31
0.0
  0
LINE
  8
0
 62
     0
 10
160.813
 20
55.0196
 30
0.0
 11
161.688
 21
55.0196
 31
0.0
  0
LINE
  8
0
 62
     0
 10
161.688
 20
55.0196
 30
0.0
 11
161.688
 21
52.2192
 31
0.0
  0
LINE
  8
0
 62
     0
 10
161.688
 20
52.2192
 30
0.0
 11
160.813
 21
52.2192
 31
0.0
  0
LINE
  8
0
 62
     0
 10
162.112
 20
8.61963
 30
0.0
 11
162.112
 21
7.61919
 31
0.0
  0
LINE
  8
0
 62
     0
 10
162.112
 20
7.61919
 30
0.0
 11
148.113
 21
7.61919
 31
0.0
  0
LINE
  8
0
 62
     0
 10
148.113
 20
7.61919
 30
0.0
 11
148.113
 21
8.61963
 31
0.0
  0
LINE
  8
0
 62
     0
 10
148.113
 20
8.61963
 30
0.0
 11
147.312
 21
8.61963
 31
0.0
  0
LINE
  8
0
 62
     0
 10
147.312
 20
8.61963
 30
0.0
 11
147.312
 21
11.7189
 31
0.0
  0
LINE
  8
0
 62
     0
 10
147.312
 20
11.7189
 30
0.0
 11
148.113
 21
11.7189
 31
0.0
  0
LINE
  8
0
 62
     0
 10
148.113
 20
11.7189
 30
0.0
 11
148.113
 21
17.519
 31
0.0
  0
LINE
  8
0
 62
     0
 10
148.113
 20
17.519
 30
0.0
 11
147.312
 21
17.519
 31
0.0
  0
LINE
  8
0
 62
     0
 10
147.312
 20
17.519
 30
0.0
 11
147.312
 21
20.6196
 31
0.0
  0
LINE
  8
0
 62
     0
 10
147.312
 20
20.6196
 30
0.0
 11
148.113
 21
20.6196
 31
0.0
  0
LINE
  8
0
 62
     0
 10
148.113
 20
20.6196
 30
0.0
 11
148.113
 21
21.6187
 31
0.0
  0
LINE
  8
0
 62
     0
 10
148.113
 20
21.6187
 30
0.0
 11
162.112
 21
21.6187
 31
0.0
  0
LINE
  8
0
 62
     0
 10
162.112
 20
21.6187
 30
0.0
 11
162.112
 21
20.6196
 31
0.0
  0
LINE
  8
0
 62
     0
 10
162.112
 20
20.6196
 30
0.0
 11
162.913
 21
20.6196
 31
0.0
  0
LINE
  8
0
 62
     0
 10
162.913
 20
20.6196
 30
0.0
 11
162.913
 21
17.519
 31
0.0
  0
LINE
  8
0
 62
     0
 10
162.913
 20
17.519
 30
0.0
 11
162.112
 21
17.519
 31
0.0
  0
LINE
  8
0
 62
     0
 10
162.112
 20
17.519
 30
0.0
 11
162.112
 21
11.7189
 31
0.0
  0
LINE
  8
0
 62
     0
 10
162.112
 20
11.7189
 30
0.0
 11
162.913
 21
11.7189
 31
0.0
  0
LINE
  8
0
 62
     0
 10
162.913
 20
11.7189
 30
0.0
 11
162.913
 21
8.61963
 31
0.0
  0
LINE
  8
0
 62
     0
 10
162.913
 20
8.61963
 30
0.0
 11
162.112
 21
8.61963
 31
0.0
  0
LINE
  8
0
 62
     0
 10
163.194
 20
90.3192
 30
0.0
 11
163.194
 21
84.0493
 31
0.0
  0
LINE
  8
0
 62
     0
 10
163.194
 20
84.0493
 30
0.0
 11
161.568
 21
84.0493
 31
0.0
  0
LINE
  8
0
 62
     0
 10
161.568
 20
84.0493
 30
0.0
 11
161.568
 21
82.8492
 31
0.0
  0
LINE
  8
0
 62
     0
 10
161.568
 20
82.8492
 30
0.0
 11
158.269
 21
82.8492
 31
0.0
  0
LINE
  8
0
 62
     0
 10
158.269
 20
82.8492
 30
0.0
 11
158.269
 21
84.0493
 31
0.0
  0
LINE
  8
0
 62
     0
 10
158.269
 20
84.0493
 30
0.0
 11
156.544
 21
84.0493
 31
0.0
  0
LINE
  8
0
 62
     0
 10
156.544
 20
84.0493
 30
0.0
 11
156.544
 21
84.8487
 31
0.0
  0
LINE
  8
0
 62
     0
 10
156.544
 20
84.8487
 30
0.0
 11
155.769
 21
84.8487
 31
0.0
  0
LINE
  8
0
 62
     0
 10
155.769
 20
84.8487
 30
0.0
 11
155.769
 21
84.8198
 31
0.0
  0
LINE
  8
0
 62
     0
 10
155.769
 20
84.8198
 30
0.0
 11
154.969
 21
84.8198
 31
0.0
  0
LINE
  8
0
 62
     0
 10
154.969
 20
84.8198
 30
0.0
 11
154.969
 21
83.8193
 31
0.0
  0
LINE
  8
0
 62
     0
 10
154.969
 20
83.8193
 30
0.0
 11
140.969
 21
83.8193
 31
0.0
  0
LINE
  8
0
 62
     0
 10
140.969
 20
83.8193
 30
0.0
 11
140.969
 21
84.8198
 31
0.0
  0
LINE
  8
0
 62
     0
 10
140.969
 20
84.8198
 30
0.0
 11
140.168
 21
84.8198
 31
0.0
  0
LINE
  8
0
 62
     0
 10
140.168
 20
84.8198
 30
0.0
 11
140.168
 21
84.8487
 31
0.0
  0
LINE
  8
0
 62
     0
 10
140.168
 20
84.8487
 30
0.0
 11
139.394
 21
84.8487
 31
0.0
  0
LINE
  8
0
 62
     0
 10
139.394
 20
84.8487
 30
0.0
 11
139.394
 21
84.0493
 31
0.0
  0
LINE
  8
0
 62
     0
 10
139.394
 20
84.0493
 30
0.0
 11
137.669
 21
84.0493
 31
0.0
  0
LINE
  8
0
 62
     0
 10
137.669
 20
84.0493
 30
0.0
 11
137.669
 21
82.8492
 31
0.0
  0
LINE
  8
0
 62
     0
 10
137.669
 20
82.8492
 30
0.0
 11
134.368
 21
82.8492
 31
0.0
  0
LINE
  8
0
 62
     0
 10
134.368
 20
82.8492
 30
0.0
 11
134.368
 21
84.0493
 31
0.0
  0
LINE
  8
0
 62
     0
 10
134.368
 20
84.0493
 30
0.0
 11
132.744
 21
84.0493
 31
0.0
  0
LINE
  8
0
 62
     0
 10
132.744
 20
84.0493
 30
0.0
 11
132.744
 21
90.3192
 31
0.0
  0
LINE
  8
0
 62
     0
 10
132.744
 20
90.3192
 30
0.0
 11
131.869
 21
90.3192
 31
0.0
  0
LINE
  8
0
 62
     0
 10
131.869
 20
90.3192
 30
0.0
 11
131.869
 21
93.1196
 31
0.0
  0
LINE
  8
0
 62
     0
 10
131.869
 20
93.1196
 30
0.0
 11
132.744
 21
93.1196
 31
0.0
  0
LINE
  8
0
 62
     0
 10
132.744
 20
93.1196
 30
0.0
 11
132.744
 21
96.3496
 31
0.0
  0
LINE
  8
0
 62
     0
 10
132.744
 20
96.3496
 30
0.0
 11
139.394
 21
96.3496
 31
0.0
  0
LINE
  8
0
 62
     0
 10
139.394
 20
96.3496
 30
0.0
 11
139.394
 21
95.5492
 31
0.0
  0
LINE
  8
0
 62
     0
 10
139.394
 20
95.5492
 30
0.0
 11
140.168
 21
95.5492
 31
0.0
  0
LINE
  8
0
 62
     0
 10
140.168
 20
95.5492
 30
0.0
 11
140.168
 21
96.8195
 31
0.0
  0
LINE
  8
0
 62
     0
 10
140.168
 20
96.8195
 30
0.0
 11
140.969
 21
96.8195
 31
0.0
  0
LINE
  8
0
 62
     0
 10
140.969
 20
96.8195
 30
0.0
 11
140.969
 21
97.8186
 31
0.0
  0
LINE
  8
0
 62
     0
 10
140.969
 20
97.8186
 30
0.0
 11
154.969
 21
97.8186
 31
0.0
  0
LINE
  8
0
 62
     0
 10
154.969
 20
97.8186
 30
0.0
 11
154.969
 21
96.8195
 31
0.0
  0
LINE
  8
0
 62
     0
 10
154.969
 20
96.8195
 30
0.0
 11
155.769
 21
96.8195
 31
0.0
  0
LINE
  8
0
 62
     0
 10
155.769
 20
96.8195
 30
0.0
 11
155.769
 21
95.5492
 31
0.0
  0
LINE
  8
0
 62
     0
 10
155.769
 20
95.5492
 30
0.0
 11
156.544
 21
95.5492
 31
0.0
  0
LINE
  8
0
 62
     0
 10
156.544
 20
95.5492
 30
0.0
 11
156.544
 21
96.3496
 31
0.0
  0
LINE
  8
0
 62
     0
 10
156.544
 20
96.3496
 30
0.0
 11
163.194
 21
96.3496
 31
0.0
  0
LINE
  8
0
 62
     0
 10
163.194
 20
96.3496
 30
0.0
 11
163.194
 21
93.1196
 31
0.0
  0
LINE
  8
0
 62
     0
 10
163.194
 20
93.1196
 30
0.0
 11
164.069
 21
93.1196
 31
0.0
  0
LINE
  8
0
 62
     0
 10
164.069
 20
93.1196
 30
0.0
 11
164.069
 21
90.3192
 31
0.0
  0
LINE
  8
0
 62
     0
 10
164.069
 20
90.3192
 30
0.0
 11
163.194
 21
90.3192
 31
0.0
  0
LINE
  8
0
 62
     0
 10
164.494
 20
27.6696
 30
0.0
 11
164.494
 21
26.6692
 31
0.0
  0
LINE
  8
0
 62
     0
 10
164.494
 20
26.6692
 30
0.0
 11
150.494
 21
26.6692
 31
0.0
  0
LINE
  8
0
 62
     0
 10
150.494
 20
26.6692
 30
0.0
 11
150.494
 21
27.6696
 31
0.0
  0
LINE
  8
0
 62
     0
 10
150.494
 20
27.6696
 30
0.0
 11
149.693
 21
27.6696
 31
0.0
  0
LINE
  8
0
 62
     0
 10
149.693
 20
27.6696
 30
0.0
 11
149.693
 21
30.7689
 31
0.0
  0
LINE
  8
0
 62
     0
 10
149.693
 20
30.7689
 30
0.0
 11
150.494
 21
30.7689
 31
0.0
  0
LINE
  8
0
 62
     0
 10
150.494
 20
30.7689
 30
0.0
 11
150.494
 21
36.5689
 31
0.0
  0
LINE
  8
0
 62
     0
 10
150.494
 20
36.5689
 30
0.0
 11
149.693
 21
36.5689
 31
0.0
  0
LINE
  8
0
 62
     0
 10
149.693
 20
36.5689
 30
0.0
 11
149.693
 21
39.6695
 31
0.0
  0
LINE
  8
0
 62
     0
 10
149.693
 20
39.6695
 30
0.0
 11
150.494
 21
39.6695
 31
0.0
  0
LINE
  8
0
 62
     0
 10
150.494
 20
39.6695
 30
0.0
 11
150.494
 21
40.6686
 31
0.0
  0
LINE
  8
0
 62
     0
 10
150.494
 20
40.6686
 30
0.0
 11
164.494
 21
40.6686
 31
0.0
  0
LINE
  8
0
 62
     0
 10
164.494
 20
40.6686
 30
0.0
 11
164.494
 21
39.6695
 31
0.0
  0
LINE
  8
0
 62
     0
 10
164.494
 20
39.6695
 30
0.0
 11
165.294
 21
39.6695
 31
0.0
  0
LINE
  8
0
 62
     0
 10
165.294
 20
39.6695
 30
0.0
 11
165.294
 21
36.5689
 31
0.0
  0
LINE
  8
0
 62
     0
 10
165.294
 20
36.5689
 30
0.0
 11
164.494
 21
36.5689
 31
0.0
  0
LINE
  8
0
 62
     0
 10
164.494
 20
36.5689
 30
0.0
 11
164.494
 21
30.7689
 31
0.0
  0
LINE
  8
0
 62
     0
 10
164.494
 20
30.7689
 30
0.0
 11
165.294
 21
30.7689
 31
0.0
  0
LINE
  8
0
 62
     0
 10
165.294
 20
30.7689
 30
0.0
 11
165.294
 21
27.6696
 31
0.0
  0
LINE
  8
0
 62
     0
 10
165.294
 20
27.6696
 30
0.0
 11
164.494
 21
27.6696
 31
0.0
  0
ENDSEC
  0
EOF
