0
SECTION
2
HEADER
9
$INSUNITS
70
4
9
$ACADVER
1
AC1014
9
$HANDSEED
5
FFFF
0
ENDSEC
0
SECTION
2
TABLES
0
TABLE
2
VPORT
5
8
100
AcDbSymbolTable
0
ENDTAB
0
TABLE
2
LTYPE
5
5
100
AcDbSymbolTable
0
LTYPE
5
14
100
AcDbSymbolTableRecord
100
AcDbLinetypeTableRecord
2
BYBLOCK
70
0
0
LTYPE
5
15
100
AcDbSymbolTableRecord
100
AcDbLinetypeTableRecord
2
BYLAYER
70
0
0
ENDTAB
0
TABLE
2
LAYER
5
2
100
AcDbSymbolTable
70
2
0
LAYER
5
50
100
AcDbSymbolTableRecord
100
AcDbLayerTableRecord
2
0
70
0
6
CONTINUOUS
0
ENDTAB
0
TABLE
2
STYLE
5
3
100
AcDbSymbolTable
70
1
0
STYLE
5
11
100
AcDbSymbolTableRecord
100
AcDbTextStyleTableRecord
2
STANDARD
70
0
0
ENDTAB
0
TABLE
2
VIEW
5
6
100
AcDbSymbolTable
70
0
0
ENDTAB
0
TABLE
2
UCS
5
7
100
AcDbSymbolTable
70
0
0
ENDTAB
0
TABLE
2
APPID
5
9
100
AcDbSymbolTable
70
2
0
APPID
5
12
100
AcDbSymbolTableRecord
100
AcDbRegAppTableRecord
2
ACAD
70
0
0
ENDTAB
0
TABLE
2
DIMSTYLE
5
A
100
AcDbSymbolTable
70
1
0
ENDTAB
0
TABLE
2
BLOCK_RECORD
5
1
100
AcDbSymbolTable
70
1
0
BLOCK_RECORD
5
1F
100
AcDbSymbolTableRecord
100
AcDbBlockTableRecord
2
*MODEL_SPACE
0
BLOCK_RECORD
5
1B
100
AcDbSymbolTableRecord
100
AcDbBlockTableRecord
2
*PAPER_SPACE
0
ENDTAB
0
ENDSEC
0
SECTION
2
BLOCKS
0
BLOCK
5
20
100
AcDbEntity
100
AcDbBlockBegin
2
*MODEL_SPACE
0
ENDBLK
5
21
100
AcDbEntity
100
AcDbBlockEnd
0
BLOCK
5
1C
100
AcDbEntity
100
AcDbBlockBegin
2
*PAPER_SPACE
0
ENDBLK
5
1D
100
AcDbEntity
100
AcDbBlockEnd
0
ENDSEC
0
SECTION
2
ENTITIES
0
LWPOLYLINE
5
100
100
AcDbEntity
8
0
100
AcDbPolyline
90
84
70
1
43
0.0
10
0.44510700000000003
20
0.33348499999999998
10
0.50573900000000005
20
0.28525400000000001
10
0.57188500000000009
20
0.24115700000000004
10
0.63941000000000014
20
0.20257200000000003
10
0.71106899999999995
20
0.16949900000000001
10
0.78410500000000005
20
0.143316
10
0.86127500000000012
20
0.122645
10
0.93706599999999995
20
0.10610899999999999
10
1.01562
20
0.096462900000000004
10
1.0941599999999951
20
0.093706600000000015
10
294.84399999999999
20
0.093706600000000015
10
294.92200000000003
20
0.096462900000000004
10
294.99900000000002
20
0.10610899999999999
10
295.077
20
0.122645
10
295.15199999999999
20
0.143316
10
295.22700000000003
20
0.16949900000000001
10
295.29700000000003
20
0.20257200000000003
10
295.36599999999999
20
0.24115700000000004
10
295.43200000000002
20
0.28525400000000001
10
295.49300000000005
20
0.33348499999999998
10
295.55099999999999
20
0.38723000000000007
10
295.60500000000002
20
0.44510700000000003
10
295.65199999999999
20
0.50573900000000005
10
295.697
20
0.57188500000000009
10
295.73500000000001
20
0.63941000000000014
10
295.76799999999997
20
0.71106899999999995
10
295.79500000000002
20
0.7854810000000001
10
295.815
20
0.86127500000000012
10
295.83199999999999
20
0.93844500000000008
10
295.84100000000001
20
1.01562
10
295.84400000000005
20
1.0941599999999951
10
295.84400000000005
20
104.34399999999999
10
295.84100000000001
20
104.42200000000001
10
295.83199999999999
20
104.501
10
295.815
20
104.57700000000003
10
295.79500000000002
20
104.65400000000001
10
295.76799999999997
20
104.72700000000002
10
295.73500000000001
20
104.79799999999999
10
295.697
20
104.86600000000001
10
295.65199999999999
20
104.93200000000002
10
295.60500000000002
20
104.99299999999999
10
295.55099999999999
20
105.051
10
295.49300000000005
20
105.10400000000001
10
295.43200000000002
20
105.152
10
295.36599999999999
20
105.197
10
295.29700000000003
20
105.235
10
295.22700000000003
20
105.268
10
295.15199999999999
20
105.295
10
295.077
20
105.31700000000001
10
294.99900000000002
20
105.33200000000001
10
294.92200000000003
20
105.34100000000002
10
294.84399999999999
20
105.34399999999999
10
1.09416
20
105.34399999999999
10
1.01562
20
105.34100000000002
10
0.93706599999999995
20
105.33200000000001
10
0.86127500000000012
20
105.31700000000001
10
0.78410500000000005
20
105.295
10
0.71106899999999995
20
105.268
10
0.63941000000000014
20
105.235
10
0.57188500000000009
20
105.197
10
0.50573900000000005
20
105.152
10
0.44510700000000003
20
105.10400000000001
10
0.38723000000000007
20
105.051
10
0.33348499999999998
20
104.99299999999999
10
0.28525400000000001
20
104.93200000000002
10
0.24115700000000004
20
104.86600000000001
10
0.20257200000000003
20
104.79799999999999
10
0.16949900000000001
20
104.72700000000002
10
0.143316
20
104.65400000000001
10
0.12126700000000003
20
104.57700000000003
10
0.10610899999999999
20
104.501
10
0.096462900000000004
20
104.42200000000001
10
0.093706600000000015
20
104.34399999999999
10
0.093706600000000015
20
1.09416
10
0.096462900000000004
20
1.01562
10
0.10610899999999999
20
0.93844500000000008
10
0.12126700000000003
20
0.86127500000000012
10
0.143316
20
0.7854810000000001
10
0.16949900000000001
20
0.71106899999999995
10
0.20257200000000003
20
0.63941000000000014
10
0.24115700000000004
20
0.57188500000000009
10
0.28525400000000001
20
0.50573900000000005
10
0.33348499999999998
20
0.44510700000000003
10
0.38723000000000007
20
0.38723000000000007
0
LWPOLYLINE
5
101
100
AcDbEntity
8
0
100
AcDbPolyline
90
20
70
1
43
0.0
10
10.000400000000001
20
20.619599999999998
10
9.1997699999999991
20
20.619599999999998
10
9.1997699999999991
20
17.519000000000002
10
10.000400000000001
20
17.519000000000002
10
10.000400000000001
20
11.718900000000001
10
9.1997699999999991
20
11.718900000000001
10
9.1997699999999991
20
8.6196300000000008
10
10.000400000000001
20
8.6196300000000008
10
10.000400000000001
20
7.6191899999999997
10
23.999900000000004
20
7.6191899999999997
10
23.999900000000004
20
8.6196300000000008
10
24.799199999999999
20
8.6196300000000008
10
24.799199999999999
20
11.718900000000001
10
23.999900000000004
20
11.718900000000001
10
23.999900000000004
20
17.519000000000002
10
24.799199999999999
20
17.519000000000002
10
24.799199999999999
20
20.619599999999998
10
23.999900000000004
20
20.619599999999998
10
23.999900000000004
20
21.6187
10
10.000400000000001
20
21.6187
0
LWPOLYLINE
5
102
100
AcDbEntity
8
0
100
AcDbPolyline
90
20
70
1
43
0.0
10
26.381200000000003
20
65.769800000000004
10
27.180400000000002
20
65.769800000000004
10
27.180400000000002
20
68.868899999999996
10
26.381200000000003
20
68.868899999999996
10
26.381200000000003
20
74.668899999999994
10
27.180400000000002
20
74.668899999999994
10
27.180400000000002
20
77.769499999999994
10
26.381200000000003
20
77.769499999999994
10
26.381200000000003
20
78.768600000000006
10
12.381700000000002
20
78.768600000000006
10
12.381700000000002
20
77.769499999999994
10
11.5824
20
77.769499999999994
10
11.5824
20
74.668899999999994
10
12.381700000000002
20
74.668899999999994
10
12.381700000000002
20
68.868899999999996
10
11.5824
20
68.868899999999996
10
11.5824
20
65.769800000000004
10
12.381700000000002
20
65.769800000000004
10
12.381700000000002
20
64.769300000000001
10
26.381200000000003
20
64.769300000000001
0
LWPOLYLINE
5
103
100
AcDbEntity
8
0
100
AcDbPolyline
90
20
70
1
43
0.0
10
7.6191899999999997
20
87.918900000000008
10
6.8185200000000004
20
87.918900000000008
10
6.8185200000000004
20
84.819800000000001
10
7.6191899999999997
20
84.819800000000001
10
7.6191899999999997
20
83.819299999999998
10
21.6187
20
83.819299999999998
10
21.6187
20
84.819800000000001
10
22.4193
20
84.819800000000001
10
22.4193
20
87.918900000000008
10
21.6187
20
87.918900000000008
10
21.6187
20
93.718900000000005
10
22.4193
20
93.718900000000005
10
22.4193
20
96.819500000000005
10
21.6187
20
96.819500000000005
10
21.6187
20
97.818600000000018
10
7.6191899999999997
20
97.818600000000018
10
7.6191899999999997
20
96.819500000000005
10
6.8185200000000004
20
96.819500000000005
10
6.8185200000000004
20
93.718900000000005
10
7.6191899999999997
20
93.718900000000005
0
LWPOLYLINE
5
104
100
AcDbEntity
8
0
100
AcDbPolyline
90
20
70
1
43
0.0
10
28.7624
20
45.719300000000004
10
28.7624
20
46.719800000000006
10
29.563100000000002
20
46.719800000000006
10
29.563100000000002
20
49.818899999999999
10
28.7624
20
49.818899999999999
10
28.7624
20
55.618899999999996
10
29.563100000000002
20
55.618899999999996
10
29.563100000000002
20
58.719499999999996
10
28.7624
20
58.719499999999996
10
28.7624
20
59.718600000000002
10
14.762900000000002
20
59.718600000000002
10
14.762900000000002
20
58.719499999999996
10
13.962300000000001
20
58.719499999999996
10
13.962300000000001
20
55.618899999999996
10
14.762900000000002
20
55.618899999999996
10
14.762900000000002
20
49.818899999999999
10
13.962300000000001
20
49.818899999999999
10
13.962300000000001
20
46.719800000000006
10
14.762900000000002
20
46.719800000000006
10
14.762900000000002
20
45.719300000000004
0
LWPOLYLINE
5
105
100
AcDbEntity
8
0
100
AcDbPolyline
90
20
70
1
43
0.0
10
25.868500000000001
20
84.819800000000001
10
26.669200000000004
20
84.819800000000001
10
26.669200000000004
20
83.819299999999998
10
40.668599999999998
20
83.819299999999998
10
40.668599999999998
20
84.819800000000001
10
41.4694
20
84.819800000000001
10
41.4694
20
87.918900000000008
10
40.668599999999998
20
87.918900000000008
10
40.668599999999998
20
93.718900000000005
10
41.4694
20
93.718900000000005
10
41.4694
20
96.819500000000005
10
40.668599999999998
20
96.819500000000005
10
40.668599999999998
20
97.818600000000018
10
26.669200000000004
20
97.818600000000018
10
26.669200000000004
20
96.819500000000005
10
25.868500000000001
20
96.819500000000005
10
25.868500000000001
20
93.718900000000005
10
26.669200000000004
20
93.718900000000005
10
26.669200000000004
20
87.918900000000008
10
25.868500000000001
20
87.918900000000008
0
LWPOLYLINE
5
106
100
AcDbEntity
8
0
100
AcDbPolyline
90
44
70
1
43
0.0
10
11.299900000000001
20
33.16940000000001
10
11.299900000000001
20
26.899300000000004
10
12.924600000000002
20
26.899300000000004
10
12.924600000000002
20
25.699100000000001
10
16.225000000000001
20
25.699100000000001
10
16.225000000000001
20
26.899300000000004
10
17.950299999999999
20
26.899300000000004
10
17.950299999999999
20
27.698599999999999
10
18.724799999999998
20
27.698599999999999
10
18.724799999999998
20
27.669600000000003
10
19.525400000000001
20
27.669600000000003
10
19.525400000000001
20
26.669200000000004
10
33.524900000000002
20
26.669200000000004
10
33.524900000000002
20
27.669600000000003
10
34.324199999999998
20
27.669600000000003
10
34.324199999999998
20
27.698599999999999
10
35.100000000000001
20
27.698599999999999
10
35.100000000000001
20
26.899300000000004
10
36.825400000000002
20
26.899300000000004
10
36.825400000000002
20
25.699100000000001
10
40.124200000000002
20
25.699100000000001
10
40.124200000000002
20
26.899300000000004
10
41.750500000000002
20
26.899300000000004
10
41.750500000000002
20
33.16940000000001
10
42.623999999999995
20
33.16940000000001
10
42.623999999999995
20
35.9696
10
41.750500000000002
20
35.9696
10
41.750500000000002
20
39.199599999999997
10
35.100000000000001
20
39.199599999999997
10
35.100000000000001
20
38.3992
10
34.324199999999998
20
38.3992
10
34.324199999999998
20
39.669499999999999
10
33.524900000000002
20
39.669499999999999
10
33.524900000000002
20
40.668599999999998
10
19.525400000000001
20
40.668599999999998
10
19.525400000000001
20
39.669499999999999
10
18.724799999999998
20
39.669499999999999
10
18.724799999999998
20
38.3992
10
17.950299999999999
20
38.3992
10
17.950299999999999
20
39.199599999999997
10
11.299900000000001
20
39.199599999999997
10
11.299900000000001
20
35.9696
10
10.424899999999999
20
35.9696
10
10.424899999999999
20
33.16940000000001
0
LWPOLYLINE
5
107
100
AcDbEntity
8
0
100
AcDbPolyline
90
20
70
1
43
0.0
10
36.194299999999998
20
64.769300000000001
10
50.193600000000004
20
64.769300000000001
10
50.193600000000004
20
65.769800000000004
10
50.994400000000006
20
65.769800000000004
10
50.994400000000006
20
68.868899999999996
10
50.193600000000004
20
68.868899999999996
10
50.193600000000004
20
74.668899999999994
10
50.994400000000006
20
74.668899999999994
10
50.994400000000006
20
77.769499999999994
10
50.193600000000004
20
77.769499999999994
10
50.193600000000004
20
78.768600000000006
10
36.194299999999998
20
78.768600000000006
10
36.194299999999998
20
77.769499999999994
10
35.393500000000003
20
77.769499999999994
10
35.393500000000003
20
74.668899999999994
10
36.194299999999998
20
74.668899999999994
10
36.194299999999998
20
68.868899999999996
10
35.393500000000003
20
68.868899999999996
10
35.393500000000003
20
65.769800000000004
10
36.194299999999998
20
65.769800000000004
0
LWPOLYLINE
5
108
100
AcDbEntity
8
0
100
AcDbPolyline
90
20
70
1
43
0.0
10
33.812899999999999
20
7.6191899999999997
10
47.8123
20
7.6191899999999997
10
47.8123
20
8.6196300000000008
10
48.613100000000003
20
8.6196300000000008
10
48.613100000000003
20
11.718900000000001
10
47.8123
20
11.718900000000001
10
47.8123
20
17.519000000000002
10
48.613100000000003
20
17.519000000000002
10
48.613100000000003
20
20.619599999999998
10
47.8123
20
20.619599999999998
10
47.8123
20
21.6187
10
33.812899999999999
20
21.6187
10
33.812899999999999
20
20.619599999999998
10
33.012300000000003
20
20.619599999999998
10
33.012300000000003
20
17.519000000000002
10
33.812899999999999
20
17.519000000000002
10
33.812899999999999
20
11.718900000000001
10
33.012300000000003
20
11.718900000000001
10
33.012300000000003
20
8.6196300000000008
10
33.812899999999999
20
8.6196300000000008
0
LWPOLYLINE
5
109
100
AcDbEntity
8
0
100
AcDbPolyline
90
20
70
1
43
0.0
10
40.155999999999999
20
46.719800000000006
10
40.955399999999997
20
46.719800000000006
10
40.955399999999997
20
45.719300000000004
10
54.956099999999999
20
45.719300000000004
10
54.956099999999999
20
46.719800000000006
10
55.755499999999998
20
46.719800000000006
10
55.755499999999998
20
49.818899999999999
10
54.956099999999999
20
49.818899999999999
10
54.956099999999999
20
55.618899999999996
10
55.755499999999998
20
55.618899999999996
10
55.755499999999998
20
58.719499999999996
10
54.956099999999999
20
58.719499999999996
10
54.956099999999999
20
59.718600000000002
10
40.955399999999997
20
59.718600000000002
10
40.955399999999997
20
58.719499999999996
10
40.155999999999999
20
58.719499999999996
10
40.155999999999999
20
55.618899999999996
10
40.955399999999997
20
55.618899999999996
10
40.955399999999997
20
49.818899999999999
10
40.155999999999999
20
49.818899999999999
0
LWPOLYLINE
5
110
100
AcDbEntity
8
0
100
AcDbPolyline
90
20
70
1
43
0.0
10
55.24430000000001
20
64.769300000000001
10
69.243600000000001
20
64.769300000000001
10
69.243600000000001
20
65.769800000000004
10
70.044399999999996
20
65.769800000000004
10
70.044399999999996
20
68.868899999999996
10
69.243600000000001
20
68.868899999999996
10
69.243600000000001
20
74.668899999999994
10
70.044399999999996
20
74.668899999999994
10
70.044399999999996
20
77.769499999999994
10
69.243600000000001
20
77.769499999999994
10
69.243600000000001
20
78.768600000000006
10
55.24430000000001
20
78.768600000000006
10
55.24430000000001
20
77.769499999999994
10
54.4435
20
77.769499999999994
10
54.4435
20
74.668899999999994
10
55.24430000000001
20
74.668899999999994
10
55.24430000000001
20
68.868899999999996
10
54.4435
20
68.868899999999996
10
54.4435
20
65.769800000000004
10
55.24430000000001
20
65.769800000000004
0
LWPOLYLINE
5
111
100
AcDbEntity
8
0
100
AcDbPolyline
90
20
70
1
43
0.0
10
45.719300000000004
20
93.718900000000005
10
45.719300000000004
20
87.918900000000008
10
44.918500000000002
20
87.918900000000008
10
44.918500000000002
20
84.819800000000001
10
45.719300000000004
20
84.819800000000001
10
45.719300000000004
20
83.819299999999998
10
59.718600000000002
20
83.819299999999998
10
59.718600000000002
20
84.819800000000001
10
60.519400000000005
20
84.819800000000001
10
60.519400000000005
20
87.918900000000008
10
59.718600000000002
20
87.918900000000008
10
59.718600000000002
20
93.718900000000005
10
60.519400000000005
20
93.718900000000005
10
60.519400000000005
20
96.819500000000005
10
59.718600000000002
20
96.819500000000005
10
59.718600000000002
20
97.818600000000018
10
45.719300000000004
20
97.818600000000018
10
45.719300000000004
20
96.819500000000005
10
44.918500000000002
20
96.819500000000005
10
44.918500000000002
20
93.718900000000005
0
LWPOLYLINE
5
112
100
AcDbEntity
8
0
100
AcDbPolyline
90
20
70
1
43
0.0
10
64.481099999999998
20
39.669499999999999
10
64.481099999999998
20
40.668599999999998
10
50.481800000000007
20
40.668599999999998
10
50.481800000000007
20
39.669499999999999
10
49.682400000000008
20
39.669499999999999
10
49.682400000000008
20
36.568899999999999
10
50.481800000000007
20
36.568899999999999
10
50.481800000000007
20
30.768900000000002
10
49.682400000000008
20
30.768900000000002
10
49.682400000000008
20
27.669600000000003
10
50.481800000000007
20
27.669600000000003
10
50.481800000000007
20
26.669200000000004
10
64.481099999999998
20
26.669200000000004
10
64.481099999999998
20
27.669600000000003
10
65.281899999999993
20
27.669600000000003
10
65.281899999999993
20
30.768900000000002
10
64.481099999999998
20
30.768900000000002
10
64.481099999999998
20
36.568899999999999
10
65.281899999999993
20
36.568899999999999
10
65.281899999999993
20
39.669499999999999
0
LWPOLYLINE
5
113
100
AcDbEntity
8
0
100
AcDbPolyline
90
20
70
1
43
0.0
10
64.769300000000001
20
83.819299999999998
10
78.768600000000006
20
83.819299999999998
10
78.768600000000006
20
84.819800000000001
10
79.569400000000002
20
84.819800000000001
10
79.569400000000002
20
87.918900000000008
10
78.768600000000006
20
87.918900000000008
10
78.768600000000006
20
93.718900000000005
10
79.569400000000002
20
93.718900000000005
10
79.569400000000002
20
96.819500000000005
10
78.768600000000006
20
96.819500000000005
10
78.768600000000006
20
97.818600000000018
10
64.769300000000001
20
97.818600000000018
10
64.769300000000001
20
96.819500000000005
10
63.968500000000006
20
96.819500000000005
10
63.968500000000006
20
93.718900000000005
10
64.769300000000001
20
93.718900000000005
10
64.769300000000001
20
87.918900000000008
10
63.968500000000006
20
87.918900000000008
10
63.968500000000006
20
84.819800000000001
10
64.769300000000001
20
84.819800000000001
0
LWPOLYLINE
5
114
100
AcDbEntity
8
0
100
AcDbPolyline
90
20
70
1
43
0.0
10
57.625500000000009
20
21.6187
10
57.625500000000009
20
20.619599999999998
10
56.824700000000007
20
20.619599999999998
10
56.824700000000007
20
17.519000000000002
10
57.625500000000009
20
17.519000000000002
10
57.625500000000009
20
11.718900000000001
10
56.824700000000007
20
11.718900000000001
10
56.824700000000007
20
8.6196300000000008
10
57.625500000000009
20
8.6196300000000008
10
57.625500000000009
20
7.6191899999999997
10
71.624799999999993
20
7.6191899999999997
10
71.624799999999993
20
8.6196300000000008
10
72.424199999999999
20
8.6196300000000008
10
72.424199999999999
20
11.718900000000001
10
71.624799999999993
20
11.718900000000001
10
71.624799999999993
20
17.519000000000002
10
72.424199999999999
20
17.519000000000002
10
72.424199999999999
20
20.619599999999998
10
71.624799999999993
20
20.619599999999998
10
71.624799999999993
20
21.6187
0
LWPOLYLINE
5
115
100
AcDbEntity
8
0
100
AcDbPolyline
90
20
70
1
43
0.0
10
59.206000000000003
20
49.818899999999999
10
59.206000000000003
20
46.719800000000006
10
60.005400000000009
20
46.719800000000006
10
60.005400000000009
20
45.719300000000004
10
74.006100000000004
20
45.719300000000004
10
74.006100000000004
20
46.719800000000006
10
74.805499999999995
20
46.719800000000006
10
74.805499999999995
20
49.818899999999999
10
74.006100000000004
20
49.818899999999999
10
74.006100000000004
20
55.618899999999996
10
74.805499999999995
20
55.618899999999996
10
74.805499999999995
20
58.719499999999996
10
74.006100000000004
20
58.719499999999996
10
74.006100000000004
20
59.718600000000002
10
60.005400000000009
20
59.718600000000002
10
60.005400000000009
20
58.719499999999996
10
59.206000000000003
20
58.719499999999996
10
59.206000000000003
20
55.618899999999996
10
60.005400000000009
20
55.618899999999996
10
60.005400000000009
20
49.818899999999999
0
LWPOLYLINE
5
116
100
AcDbEntity
8
0
100
AcDbPolyline
90
20
70
1
43
0.0
10
68.732399999999998
20
39.669499999999999
10
68.732399999999998
20
36.568899999999999
10
69.531800000000004
20
36.568899999999999
10
69.531800000000004
20
30.768900000000002
10
68.732399999999998
20
30.768900000000002
10
68.732399999999998
20
27.669600000000003
10
69.531800000000004
20
27.669600000000003
10
69.531800000000004
20
26.669200000000004
10
83.531099999999995
20
26.669200000000004
10
83.531099999999995
20
27.669600000000003
10
84.330500000000001
20
27.669600000000003
10
84.330500000000001
20
30.768900000000002
10
83.531099999999995
20
30.768900000000002
10
83.531099999999995
20
36.568899999999999
10
84.330500000000001
20
36.568899999999999
10
84.330500000000001
20
39.669499999999999
10
83.531099999999995
20
39.669499999999999
10
83.531099999999995
20
40.668599999999998
10
69.531800000000004
20
40.668599999999998
10
69.531800000000004
20
39.669499999999999
0
LWPOLYLINE
5
117
100
AcDbEntity
8
0
100
AcDbPolyline
90
20
70
1
43
0.0
10
88.293599999999998
20
68.868899999999996
10
88.293599999999998
20
74.668899999999994
10
89.094400000000007
20
74.668899999999994
10
89.094400000000007
20
77.769499999999994
10
88.293599999999998
20
77.769499999999994
10
88.293599999999998
20
78.768600000000006
10
74.294300000000007
20
78.768600000000006
10
74.294300000000007
20
77.769499999999994
10
73.493499999999997
20
77.769499999999994
10
73.493499999999997
20
74.668899999999994
10
74.294300000000007
20
74.668899999999994
10
74.294300000000007
20
68.868899999999996
10
73.493499999999997
20
68.868899999999996
10
73.493499999999997
20
65.769800000000004
10
74.294300000000007
20
65.769800000000004
10
74.294300000000007
20
64.769300000000001
10
88.293599999999998
20
64.769300000000001
10
88.293599999999998
20
65.769800000000004
10
89.094400000000007
20
65.769800000000004
10
89.094400000000007
20
68.868899999999996
0
LWPOLYLINE
5
118
100
AcDbEntity
8
0
100
AcDbPolyline
90
20
70
1
43
0.0
10
79.055400000000006
20
55.618899999999996
10
79.055400000000006
20
49.818899999999999
10
78.256
20
49.818899999999999
10
78.256
20
46.719800000000006
10
79.055400000000006
20
46.719800000000006
10
79.055400000000006
20
45.719300000000004
10
93.056100000000001
20
45.719300000000004
10
93.056100000000001
20
46.719800000000006
10
93.855500000000006
20
46.719800000000006
10
93.855500000000006
20
49.818899999999999
10
93.056100000000001
20
49.818899999999999
10
93.056100000000001
20
55.618899999999996
10
93.855500000000006
20
55.618899999999996
10
93.855500000000006
20
58.719499999999996
10
93.056100000000001
20
58.719499999999996
10
93.056100000000001
20
59.718600000000002
10
79.055400000000006
20
59.718600000000002
10
79.055400000000006
20
58.719499999999996
10
78.256
20
58.719499999999996
10
78.256
20
55.618899999999996
0
LWPOLYLINE
5
119
100
AcDbEntity
8
0
100
AcDbPolyline
90
20
70
1
43
0.0
10
98.619400000000013
20
87.918900000000008
10
97.818600000000018
20
87.918900000000008
10
97.818600000000018
20
93.718900000000005
10
98.619400000000013
20
93.718900000000005
10
98.619400000000013
20
96.819500000000005
10
97.818600000000018
20
96.819500000000005
10
97.818600000000018
20
97.818600000000018
10
83.819299999999998
20
97.818600000000018
10
83.819299999999998
20
96.819500000000005
10
83.018500000000003
20
96.819500000000005
10
83.018500000000003
20
93.718900000000005
10
83.819299999999998
20
93.718900000000005
10
83.819299999999998
20
87.918900000000008
10
83.018500000000003
20
87.918900000000008
10
83.018500000000003
20
84.819800000000001
10
83.819299999999998
20
84.819800000000001
10
83.819299999999998
20
83.819299999999998
10
97.818600000000018
20
83.819299999999998
10
97.818600000000018
20
84.819800000000001
10
98.619400000000013
20
84.819800000000001
0
LWPOLYLINE
5
120
100
AcDbEntity
8
0
100
AcDbPolyline
90
20
70
1
43
0.0
10
107.34400000000001
20
64.769300000000001
10
107.34400000000001
20
65.769800000000004
10
108.14399999999999
20
65.769800000000004
10
108.14399999999999
20
68.868899999999996
10
107.34400000000001
20
68.868899999999996
10
107.34400000000001
20
74.668899999999994
10
108.14399999999999
20
74.668899999999994
10
108.14399999999999
20
77.769499999999994
10
107.34400000000001
20
77.769499999999994
10
107.34400000000001
20
78.768600000000006
10
93.344300000000004
20
78.768600000000006
10
93.344300000000004
20
77.769499999999994
10
92.543500000000009
20
77.769499999999994
10
92.543500000000009
20
74.668899999999994
10
93.344300000000004
20
74.668899999999994
10
93.344300000000004
20
68.868899999999996
10
92.543500000000009
20
68.868899999999996
10
92.543500000000009
20
65.769800000000004
10
93.344300000000004
20
65.769800000000004
10
93.344300000000004
20
64.769300000000001
0
LWPOLYLINE
5
121
100
AcDbEntity
8
0
100
AcDbPolyline
90
20
70
1
43
0.0
10
102.581
20
27.669600000000003
10
103.38000000000001
20
27.669600000000003
10
103.38000000000001
20
30.768900000000002
10
102.581
20
30.768900000000002
10
102.581
20
36.568899999999999
10
103.38000000000001
20
36.568899999999999
10
103.38000000000001
20
39.669499999999999
10
102.581
20
39.669499999999999
10
102.581
20
40.668599999999998
10
88.580400000000012
20
40.668599999999998
10
88.580400000000012
20
39.669499999999999
10
87.782399999999996
20
39.669499999999999
10
87.782399999999996
20
36.568899999999999
10
88.580400000000012
20
36.568899999999999
10
88.580400000000012
20
30.768900000000002
10
87.782399999999996
20
30.768900000000002
10
87.782399999999996
20
27.669600000000003
10
88.580400000000012
20
27.669600000000003
10
88.580400000000012
20
26.669200000000004
10
102.581
20
26.669200000000004
0
LWPOLYLINE
5
122
100
AcDbEntity
8
0
100
AcDbPolyline
90
20
70
1
43
0.0
10
112.10600000000001
20
45.719300000000004
10
112.10600000000001
20
46.719800000000006
10
112.90500000000002
20
46.719800000000006
10
112.90500000000002
20
49.818899999999999
10
112.10600000000001
20
49.818899999999999
10
112.10600000000001
20
55.618899999999996
10
112.90500000000002
20
55.618899999999996
10
112.90500000000002
20
58.719499999999996
10
112.10600000000001
20
58.719499999999996
10
112.10600000000001
20
59.718600000000002
10
98.105400000000017
20
59.718600000000002
10
98.105400000000017
20
58.719499999999996
10
97.306000000000012
20
58.719499999999996
10
97.306000000000012
20
55.618899999999996
10
98.105400000000017
20
55.618899999999996
10
98.105400000000017
20
49.818899999999999
10
97.306000000000012
20
49.818899999999999
10
97.306000000000012
20
46.719800000000006
10
98.105400000000017
20
46.719800000000006
10
98.105400000000017
20
45.719300000000004
0
LWPOLYLINE
5
123
100
AcDbEntity
8
0
100
AcDbPolyline
90
44
70
1
43
0.0
10
93.344300000000004
20
8.6196300000000008
10
93.344300000000004
20
7.6191899999999997
10
107.34400000000001
20
7.6191899999999997
10
107.34400000000001
20
8.6196300000000008
10
108.14399999999999
20
8.6196300000000008
10
108.14399999999999
20
8.6485599999999998
10
108.919
20
8.6485599999999998
10
108.919
20
7.8493100000000018
10
110.64399999999999
20
7.8493100000000018
10
110.64399999999999
20
6.6490500000000008
10
113.94300000000001
20
6.6490500000000008
10
113.94300000000001
20
7.8493100000000018
10
115.569
20
7.8493100000000018
10
115.569
20
14.119400000000002
10
116.44400000000002
20
14.119400000000002
10
116.44400000000002
20
16.919499999999999
10
115.569
20
16.919499999999999
10
115.569
20
20.149699999999999
10
108.919
20
20.149699999999999
10
108.919
20
19.349
10
108.14399999999999
20
19.349
10
108.14399999999999
20
20.619599999999998
10
107.34400000000001
20
20.619599999999998
10
107.34400000000001
20
21.6187
10
93.344300000000004
20
21.6187
10
93.344300000000004
20
20.619599999999998
10
92.543500000000009
20
20.619599999999998
10
92.543500000000009
20
19.349
10
91.769099999999995
20
19.349
10
91.769099999999995
20
20.149699999999999
10
85.118600000000001
20
20.149699999999999
10
85.118600000000001
20
16.919499999999999
10
84.243700000000018
20
16.919499999999999
10
84.243700000000018
20
14.119400000000002
10
85.118600000000001
20
14.119400000000002
10
85.118600000000001
20
7.8493100000000018
10
86.743500000000012
20
7.8493100000000018
10
86.743500000000012
20
6.6490500000000008
10
90.043700000000001
20
6.6490500000000008
10
90.043700000000001
20
7.8493100000000018
10
91.769099999999995
20
7.8493100000000018
10
91.769099999999995
20
8.6485599999999998
10
92.543500000000009
20
8.6485599999999998
10
92.543500000000009
20
8.6196300000000008
0
LWPOLYLINE
5
124
100
AcDbEntity
8
0
100
AcDbPolyline
90
20
70
1
43
0.0
10
116.86900000000001
20
83.819299999999998
10
116.86900000000001
20
84.819800000000001
10
117.669
20
84.819800000000001
10
117.669
20
87.918900000000008
10
116.86900000000001
20
87.918900000000008
10
116.86900000000001
20
93.718900000000005
10
117.669
20
93.718900000000005
10
117.669
20
96.819500000000005
10
116.86900000000001
20
96.819500000000005
10
116.86900000000001
20
97.818600000000018
10
102.86900000000001
20
97.818600000000018
10
102.86900000000001
20
96.819500000000005
10
102.06800000000001
20
96.819500000000005
10
102.06800000000001
20
93.718900000000005
10
102.86900000000001
20
93.718900000000005
10
102.86900000000001
20
87.918900000000008
10
102.06800000000001
20
87.918900000000008
10
102.06800000000001
20
84.819800000000001
10
102.86900000000001
20
84.819800000000001
10
102.86900000000001
20
83.819299999999998
0
LWPOLYLINE
5
125
100
AcDbEntity
8
0
100
AcDbPolyline
90
20
70
1
43
0.0
10
111.593
20
65.769800000000004
10
112.39400000000001
20
65.769800000000004
10
112.39400000000001
20
64.769300000000001
10
126.39400000000001
20
64.769300000000001
10
126.39400000000001
20
65.769800000000004
10
127.194
20
65.769800000000004
10
127.194
20
68.868899999999996
10
126.39400000000001
20
68.868899999999996
10
126.39400000000001
20
74.668899999999994
10
127.194
20
74.668899999999994
10
127.194
20
77.769499999999994
10
126.39400000000001
20
77.769499999999994
10
126.39400000000001
20
78.768600000000006
10
112.39400000000001
20
78.768600000000006
10
112.39400000000001
20
77.769499999999994
10
111.593
20
77.769499999999994
10
111.593
20
74.668899999999994
10
112.39400000000001
20
74.668899999999994
10
112.39400000000001
20
68.868899999999996
10
111.593
20
68.868899999999996
0
LWPOLYLINE
5
126
100
AcDbEntity
8
0
100
AcDbPolyline
90
20
70
1
43
0.0
10
106.83100000000002
20
27.669600000000003
10
107.63
20
27.669600000000003
10
107.63
20
26.669200000000004
10
121.631
20
26.669200000000004
10
121.631
20
27.669600000000003
10
122.43000000000002
20
27.669600000000003
10
122.43000000000002
20
30.768900000000002
10
121.631
20
30.768900000000002
10
121.631
20
36.568899999999999
10
122.43000000000002
20
36.568899999999999
10
122.43000000000002
20
39.669499999999999
10
121.631
20
39.669499999999999
10
121.631
20
40.668599999999998
10
107.63
20
40.668599999999998
10
107.63
20
39.669499999999999
10
106.83100000000002
20
39.669499999999999
10
106.83100000000002
20
36.568899999999999
10
107.63
20
36.568899999999999
10
107.63
20
30.768900000000002
10
106.83100000000002
20
30.768900000000002
0
LWPOLYLINE
5
127
100
AcDbEntity
8
0
100
AcDbPolyline
90
20
70
1
43
0.0
10
116.35700000000001
20
46.719800000000006
10
117.155
20
46.719800000000006
10
117.155
20
45.719300000000004
10
131.15600000000001
20
45.719300000000004
10
131.15600000000001
20
46.719800000000006
10
131.95699999999999
20
46.719800000000006
10
131.95699999999999
20
49.818899999999999
10
131.15600000000001
20
49.818899999999999
10
131.15600000000001
20
55.618899999999996
10
131.95699999999999
20
55.618899999999996
10
131.95699999999999
20
58.719499999999996
10
131.15600000000001
20
58.719499999999996
10
131.15600000000001
20
59.718600000000002
10
117.155
20
59.718600000000002
10
117.155
20
58.719499999999996
10
116.35700000000001
20
58.719499999999996
10
116.35700000000001
20
55.618899999999996
10
117.155
20
55.618899999999996
10
117.155
20
49.818899999999999
10
116.35700000000001
20
49.818899999999999
0
LWPOLYLINE
5
128
100
AcDbEntity
8
0
100
AcDbPolyline
90
20
70
1
43
0.0
10
121.91900000000001
20
96.819500000000005
10
121.11800000000001
20
96.819500000000005
10
121.11800000000001
20
93.718900000000005
10
121.91900000000001
20
93.718900000000005
10
121.91900000000001
20
87.918900000000008
10
121.11800000000001
20
87.918900000000008
10
121.11800000000001
20
84.819800000000001
10
121.91900000000001
20
84.819800000000001
10
121.91900000000001
20
83.819299999999998
10
135.91899999999998
20
83.819299999999998
10
135.91899999999998
20
84.819800000000001
10
136.71899999999999
20
84.819800000000001
10
136.71899999999999
20
87.918900000000008
10
135.91899999999998
20
87.918900000000008
10
135.91899999999998
20
93.718900000000005
10
136.71899999999999
20
93.718900000000005
10
136.71899999999999
20
96.819500000000005
10
135.91899999999998
20
96.819500000000005
10
135.91899999999998
20
97.818600000000018
10
121.91900000000001
20
97.818600000000018
0
LWPOLYLINE
5
129
100
AcDbEntity
8
0
100
AcDbPolyline
90
20
70
1
43
0.0
10
125.881
20
8.6196300000000008
10
126.682
20
8.6196300000000008
10
126.682
20
7.6191899999999997
10
140.68100000000001
20
7.6191899999999997
10
140.68100000000001
20
8.6196300000000008
10
141.482
20
8.6196300000000008
10
141.482
20
11.718900000000001
10
140.68100000000001
20
11.718900000000001
10
140.68100000000001
20
17.519000000000002
10
141.482
20
17.519000000000002
10
141.482
20
20.619599999999998
10
140.68100000000001
20
20.619599999999998
10
140.68100000000001
20
21.6187
10
126.682
20
21.6187
10
126.682
20
20.619599999999998
10
125.881
20
20.619599999999998
10
125.881
20
17.519000000000002
10
126.682
20
17.519000000000002
10
126.682
20
11.718900000000001
10
125.881
20
11.718900000000001
0
LWPOLYLINE
5
130
100
AcDbEntity
8
0
100
AcDbPolyline
90
20
70
1
43
0.0
10
140.68100000000001
20
27.669600000000003
10
141.482
20
27.669600000000003
10
141.482
20
30.768900000000002
10
140.68100000000001
20
30.768900000000002
10
140.68100000000001
20
36.568899999999999
10
141.482
20
36.568899999999999
10
141.482
20
39.669499999999999
10
140.68100000000001
20
39.669499999999999
10
140.68100000000001
20
40.668599999999998
10
126.682
20
40.668599999999998
10
126.682
20
39.669499999999999
10
125.881
20
39.669499999999999
10
125.881
20
36.568899999999999
10
126.682
20
36.568899999999999
10
126.682
20
30.768900000000002
10
125.881
20
30.768900000000002
10
125.881
20
27.669600000000003
10
126.682
20
27.669600000000003
10
126.682
20
26.669200000000004
10
140.68100000000001
20
26.669200000000004
0
LWPOLYLINE
5
131
100
AcDbEntity
8
0
100
AcDbPolyline
90
20
70
1
43
0.0
10
145.44399999999999
20
74.668899999999994
10
146.24400000000003
20
74.668899999999994
10
146.24400000000003
20
77.769499999999994
10
145.44399999999999
20
77.769499999999994
10
145.44399999999999
20
78.768600000000006
10
131.44399999999999
20
78.768600000000006
10
131.44399999999999
20
77.769499999999994
10
130.643
20
77.769499999999994
10
130.643
20
74.668899999999994
10
131.44399999999999
20
74.668899999999994
10
131.44399999999999
20
68.868899999999996
10
130.643
20
68.868899999999996
10
130.643
20
65.769800000000004
10
131.44399999999999
20
65.769800000000004
10
131.44399999999999
20
64.769300000000001
10
145.44399999999999
20
64.769300000000001
10
145.44399999999999
20
65.769800000000004
10
146.24400000000003
20
65.769800000000004
10
146.24400000000003
20
68.868899999999996
10
145.44399999999999
20
68.868899999999996
0
LWPOLYLINE
5
132
100
AcDbEntity
8
0
100
AcDbPolyline
90
20
70
1
43
0.0
10
150.20600000000002
20
45.719300000000004
10
150.20600000000002
20
46.719800000000006
10
151.00700000000001
20
46.719800000000006
10
151.00700000000001
20
49.818899999999999
10
150.20600000000002
20
49.818899999999999
10
150.20600000000002
20
55.618899999999996
10
151.00700000000001
20
55.618899999999996
10
151.00700000000001
20
58.719499999999996
10
150.20600000000002
20
58.719499999999996
10
150.20600000000002
20
59.718600000000002
10
136.20699999999999
20
59.718600000000002
10
136.20699999999999
20
58.719499999999996
10
135.40600000000001
20
58.719499999999996
10
135.40600000000001
20
55.618899999999996
10
136.20699999999999
20
55.618899999999996
10
136.20699999999999
20
49.818899999999999
10
135.40600000000001
20
49.818899999999999
10
135.40600000000001
20
46.719800000000006
10
136.20699999999999
20
46.719800000000006
10
136.20699999999999
20
45.719300000000004
0
LWPOLYLINE
5
133
100
AcDbEntity
8
0
100
AcDbPolyline
90
20
70
1
43
0.0
10
140.16800000000001
20
87.918900000000008
10
140.16800000000001
20
84.819800000000001
10
140.96899999999999
20
84.819800000000001
10
140.96899999999999
20
83.819299999999998
10
154.96899999999999
20
83.819299999999998
10
154.96899999999999
20
84.819800000000001
10
155.76900000000001
20
84.819800000000001
10
155.76900000000001
20
87.918900000000008
10
154.96899999999999
20
87.918900000000008
10
154.96899999999999
20
93.718900000000005
10
155.76900000000001
20
93.718900000000005
10
155.76900000000001
20
96.819500000000005
10
154.96899999999999
20
96.819500000000005
10
154.96899999999999
20
97.818600000000018
10
140.96899999999999
20
97.818600000000018
10
140.96899999999999
20
96.819500000000005
10
140.16800000000001
20
96.819500000000005
10
140.16800000000001
20
93.718900000000005
10
140.96899999999999
20
93.718900000000005
10
140.96899999999999
20
87.918900000000008
0
LWPOLYLINE
5
134
100
AcDbEntity
8
0
100
AcDbPolyline
90
20
70
1
43
0.0
10
154.45699999999999
20
49.818899999999999
10
154.45699999999999
20
46.719800000000006
10
155.25700000000001
20
46.719800000000006
10
155.25700000000001
20
45.719300000000004
10
169.256
20
45.719300000000004
10
169.256
20
46.719800000000006
10
170.05700000000002
20
46.719800000000006
10
170.05700000000002
20
49.818899999999999
10
169.256
20
49.818899999999999
10
169.256
20
55.618899999999996
10
170.05700000000002
20
55.618899999999996
10
170.05700000000002
20
58.719499999999996
10
169.256
20
58.719499999999996
10
169.256
20
59.718600000000002
10
155.25700000000001
20
59.718600000000002
10
155.25700000000001
20
58.719499999999996
10
154.45699999999999
20
58.719499999999996
10
154.45699999999999
20
55.618899999999996
10
155.25700000000001
20
55.618899999999996
10
155.25700000000001
20
49.818899999999999
0
LWPOLYLINE
5
135
100
AcDbEntity
8
0
100
AcDbPolyline
90
20
70
1
43
0.0
10
164.49400000000003
20
74.668899999999994
10
165.29400000000004
20
74.668899999999994
10
165.29400000000004
20
77.769499999999994
10
164.49400000000003
20
77.769499999999994
10
164.49400000000003
20
78.768600000000006
10
150.494
20
78.768600000000006
10
150.494
20
77.769499999999994
10
149.69299999999998
20
77.769499999999994
10
149.69299999999998
20
74.668899999999994
10
150.494
20
74.668899999999994
10
150.494
20
68.868899999999996
10
149.69299999999998
20
68.868899999999996
10
149.69299999999998
20
65.769800000000004
10
150.494
20
65.769800000000004
10
150.494
20
64.769300000000001
10
164.49400000000003
20
64.769300000000001
10
164.49400000000003
20
65.769800000000004
10
165.29400000000004
20
65.769800000000004
10
165.29400000000004
20
68.868899999999996
10
164.49400000000003
20
68.868899999999996
0
LWPOLYLINE
5
136
100
AcDbEntity
8
0
100
AcDbPolyline
90
20
70
1
43
0.0
10
160.53200000000001
20
30.768900000000002
10
159.73099999999999
20
30.768900000000002
10
159.73099999999999
20
36.568899999999999
10
160.53200000000001
20
36.568899999999999
10
160.53200000000001
20
39.669499999999999
10
159.73099999999999
20
39.669499999999999
10
159.73099999999999
20
40.668599999999998
10
145.732
20
40.668599999999998
10
145.732
20
39.669499999999999
10
144.93200000000002
20
39.669499999999999
10
144.93200000000002
20
36.568899999999999
10
145.732
20
36.568899999999999
10
145.732
20
30.768900000000002
10
144.93200000000002
20
30.768900000000002
10
144.93200000000002
20
27.669600000000003
10
145.732
20
27.669600000000003
10
145.732
20
26.669200000000004
10
159.73099999999999
20
26.669200000000004
10
159.73099999999999
20
27.669600000000003
10
160.53200000000001
20
27.669600000000003
0
LWPOLYLINE
5
137
100
AcDbEntity
8
0
100
AcDbPolyline
90
20
70
1
43
0.0
10
174.81900000000002
20
93.718900000000005
10
174.81900000000002
20
96.819500000000005
10
174.01900000000001
20
96.819500000000005
10
174.01900000000001
20
97.818600000000018
10
160.01900000000003
20
97.818600000000018
10
160.01900000000003
20
96.819500000000005
10
159.21799999999999
20
96.819500000000005
10
159.21799999999999
20
93.718900000000005
10
160.01900000000003
20
93.718900000000005
10
160.01900000000003
20
87.918900000000008
10
159.21799999999999
20
87.918900000000008
10
159.21799999999999
20
84.819800000000001
10
160.01900000000003
20
84.819800000000001
10
160.01900000000003
20
83.819299999999998
10
174.01900000000001
20
83.819299999999998
10
174.01900000000001
20
84.819800000000001
10
174.81900000000002
20
84.819800000000001
10
174.81900000000002
20
87.918900000000008
10
174.01900000000001
20
87.918900000000008
10
174.01900000000001
20
93.718900000000005
0
LWPOLYLINE
5
138
100
AcDbEntity
8
0
100
AcDbPolyline
90
20
70
1
43
0.0
10
164.78200000000001
20
36.568899999999999
10
164.78200000000001
20
30.768900000000002
10
163.982
20
30.768900000000002
10
163.982
20
27.669600000000003
10
164.78200000000001
20
27.669600000000003
10
164.78200000000001
20
26.669200000000004
10
178.78100000000001
20
26.669200000000004
10
178.78100000000001
20
27.669600000000003
10
179.58200000000002
20
27.669600000000003
10
179.58200000000002
20
30.768900000000002
10
178.78100000000001
20
30.768900000000002
10
178.78100000000001
20
36.568899999999999
10
179.58200000000002
20
36.568899999999999
10
179.58200000000002
20
39.669499999999999
10
178.78100000000001
20
39.669499999999999
10
178.78100000000001
20
40.668599999999998
10
164.78200000000001
20
40.668599999999998
10
164.78200000000001
20
39.669499999999999
10
163.982
20
39.669499999999999
10
163.982
20
36.568899999999999
0
LWPOLYLINE
5
139
100
AcDbEntity
8
0
100
AcDbPolyline
90
20
70
1
43
0.0
10
169.54400000000004
20
77.769499999999994
10
168.74300000000002
20
77.769499999999994
10
168.74300000000002
20
74.668899999999994
10
169.54400000000004
20
74.668899999999994
10
169.54400000000004
20
68.868899999999996
10
168.74300000000002
20
68.868899999999996
10
168.74300000000002
20
65.769800000000004
10
169.54400000000004
20
65.769800000000004
10
169.54400000000004
20
64.769300000000001
10
183.54400000000001
20
64.769300000000001
10
183.54400000000001
20
65.769800000000004
10
184.34400000000005
20
65.769800000000004
10
184.34400000000005
20
68.868899999999996
10
183.54400000000001
20
68.868899999999996
10
183.54400000000001
20
74.668899999999994
10
184.34400000000005
20
74.668899999999994
10
184.34400000000005
20
77.769499999999994
10
183.54400000000001
20
77.769499999999994
10
183.54400000000001
20
78.768600000000006
10
169.54400000000004
20
78.768600000000006
0
LWPOLYLINE
5
140
100
AcDbEntity
8
0
100
AcDbPolyline
90
44
70
1
43
0.0
10
182.99900000000005
20
7.8493100000000018
10
184.62599999999998
20
7.8493100000000018
10
184.62599999999998
20
14.119400000000002
10
185.49900000000005
20
14.119400000000002
10
185.49900000000005
20
16.919499999999999
10
184.62599999999998
20
16.919499999999999
10
184.62599999999998
20
20.149699999999999
10
177.97499999999999
20
20.149699999999999
10
177.97499999999999
20
19.349
10
177.19900000000001
20
19.349
10
177.19900000000001
20
20.619599999999998
10
176.40000000000001
20
20.619599999999998
10
176.40000000000001
20
21.6187
10
162.40100000000001
20
21.6187
10
162.40100000000001
20
20.619599999999998
10
161.59999999999999
20
20.619599999999998
10
161.59999999999999
20
19.349
10
160.82499999999999
20
19.349
10
160.82499999999999
20
20.149699999999999
10
154.17500000000001
20
20.149699999999999
10
154.17500000000001
20
16.919499999999999
10
153.30000000000001
20
16.919499999999999
10
153.30000000000001
20
14.119400000000002
10
154.17500000000001
20
14.119400000000002
10
154.17500000000001
20
7.8493100000000018
10
155.80000000000001
20
7.8493100000000018
10
155.80000000000001
20
6.6490500000000008
10
159.09999999999999
20
6.6490500000000008
10
159.09999999999999
20
7.8493100000000018
10
160.82499999999999
20
7.8493100000000018
10
160.82499999999999
20
8.6485599999999998
10
161.59999999999999
20
8.6485599999999998
10
161.59999999999999
20
8.6196300000000008
10
162.40100000000001
20
8.6196300000000008
10
162.40100000000001
20
7.6191899999999997
10
176.40000000000001
20
7.6191899999999997
10
176.40000000000001
20
8.6196300000000008
10
177.19900000000001
20
8.6196300000000008
10
177.19900000000001
20
8.6485599999999998
10
177.97499999999999
20
8.6485599999999998
10
177.97499999999999
20
7.8493100000000018
10
179.69999999999999
20
7.8493100000000018
10
179.69999999999999
20
6.6490500000000008
10
182.99900000000005
20
6.6490500000000008
0
LWPOLYLINE
5
141
100
AcDbEntity
8
0
100
AcDbPolyline
90
20
70
1
43
0.0
10
188.30600000000001
20
45.719300000000004
10
188.30600000000001
20
46.719800000000006
10
189.10700000000003
20
46.719800000000006
10
189.10700000000003
20
49.818899999999999
10
188.30600000000001
20
49.818899999999999
10
188.30600000000001
20
55.618899999999996
10
189.10700000000003
20
55.618899999999996
10
189.10700000000003
20
58.719499999999996
10
188.30600000000001
20
58.719499999999996
10
188.30600000000001
20
59.718600000000002
10
174.30700000000002
20
59.718600000000002
10
174.30700000000002
20
58.719499999999996
10
173.50700000000001
20
58.719499999999996
10
173.50700000000001
20
55.618899999999996
10
174.30700000000002
20
55.618899999999996
10
174.30700000000002
20
49.818899999999999
10
173.50700000000001
20
49.818899999999999
10
173.50700000000001
20
46.719800000000006
10
174.30700000000002
20
46.719800000000006
10
174.30700000000002
20
45.719300000000004
0
LWPOLYLINE
5
142
100
AcDbEntity
8
0
100
AcDbPolyline
90
20
70
1
43
0.0
10
179.06900000000005
20
83.819299999999998
10
193.06900000000002
20
83.819299999999998
10
193.06900000000002
20
84.819800000000001
10
193.86900000000003
20
84.819800000000001
10
193.86900000000003
20
87.918900000000008
10
193.06900000000002
20
87.918900000000008
10
193.06900000000002
20
93.718900000000005
10
193.86900000000003
20
93.718900000000005
10
193.86900000000003
20
96.819500000000005
10
193.06900000000002
20
96.819500000000005
10
193.06900000000002
20
97.818600000000018
10
179.06900000000005
20
97.818600000000018
10
179.06900000000005
20
96.819500000000005
10
178.26800000000003
20
96.819500000000005
10
178.26800000000003
20
93.718900000000005
10
179.06900000000005
20
93.718900000000005
10
179.06900000000005
20
87.918900000000008
10
178.26800000000003
20
87.918900000000008
10
178.26800000000003
20
84.819800000000001
10
179.06900000000005
20
84.819800000000001
0
LWPOLYLINE
5
143
100
AcDbEntity
8
0
100
AcDbPolyline
90
20
70
1
43
0.0
10
187.79300000000003
20
77.769499999999994
10
187.79300000000003
20
74.668899999999994
10
188.59400000000005
20
74.668899999999994
10
188.59400000000005
20
68.868899999999996
10
187.79300000000003
20
68.868899999999996
10
187.79300000000003
20
65.769800000000004
10
188.59400000000005
20
65.769800000000004
10
188.59400000000005
20
64.769300000000001
10
202.59400000000002
20
64.769300000000001
10
202.59400000000002
20
65.769800000000004
10
203.39400000000001
20
65.769800000000004
10
203.39400000000001
20
68.868899999999996
10
202.59400000000002
20
68.868899999999996
10
202.59400000000002
20
74.668899999999994
10
203.39400000000001
20
74.668899999999994
10
203.39400000000001
20
77.769499999999994
10
202.59400000000002
20
77.769499999999994
10
202.59400000000002
20
78.768600000000006
10
188.59400000000005
20
78.768600000000006
10
188.59400000000005
20
77.769499999999994
0
LWPOLYLINE
5
144
100
AcDbEntity
8
0
100
AcDbPolyline
90
20
70
1
43
0.0
10
198.63200000000003
20
39.669499999999999
10
197.83100000000002
20
39.669499999999999
10
197.83100000000002
20
40.668599999999998
10
183.83199999999999
20
40.668599999999998
10
183.83199999999999
20
39.669499999999999
10
183.03200000000001
20
39.669499999999999
10
183.03200000000001
20
36.568899999999999
10
183.83199999999999
20
36.568899999999999
10
183.83199999999999
20
30.768900000000002
10
183.03200000000001
20
30.768900000000002
10
183.03200000000001
20
27.669600000000003
10
183.83199999999999
20
27.669600000000003
10
183.83199999999999
20
26.669200000000004
10
197.83100000000002
20
26.669200000000004
10
197.83100000000002
20
27.669600000000003
10
198.63200000000003
20
27.669600000000003
10
198.63200000000003
20
30.768900000000002
10
197.83100000000002
20
30.768900000000002
10
197.83100000000002
20
36.568899999999999
10
198.63200000000003
20
36.568899999999999
0
LWPOLYLINE
5
145
100
AcDbEntity
8
0
100
AcDbPolyline
90
20
70
1
43
0.0
10
192.55700000000004
20
49.818899999999999
10
192.55700000000004
20
46.719800000000006
10
193.35700000000003
20
46.719800000000006
10
193.35700000000003
20
45.719300000000004
10
207.35600000000002
20
45.719300000000004
10
207.35600000000002
20
46.719800000000006
10
208.15700000000004
20
46.719800000000006
10
208.15700000000004
20
49.818899999999999
10
207.35600000000002
20
49.818899999999999
10
207.35600000000002
20
55.618899999999996
10
208.15700000000004
20
55.618899999999996
10
208.15700000000004
20
58.719499999999996
10
207.35600000000002
20
58.719499999999996
10
207.35600000000002
20
59.718600000000002
10
193.35700000000003
20
59.718600000000002
10
193.35700000000003
20
58.719499999999996
10
192.55700000000004
20
58.719499999999996
10
192.55700000000004
20
55.618899999999996
10
193.35700000000003
20
55.618899999999996
10
193.35700000000003
20
49.818899999999999
0
LWPOLYLINE
5
146
100
AcDbEntity
8
0
100
AcDbPolyline
90
20
70
1
43
0.0
10
214.50000000000003
20
11.718900000000001
10
214.50000000000003
20
17.519000000000002
10
215.29900000000001
20
17.519000000000002
10
215.29900000000001
20
20.619599999999998
10
214.50000000000003
20
20.619599999999998
10
214.50000000000003
20
21.6187
10
200.501
20
21.6187
10
200.501
20
20.619599999999998
10
199.69999999999999
20
20.619599999999998
10
199.69999999999999
20
17.519000000000002
10
200.501
20
17.519000000000002
10
200.501
20
11.718900000000001
10
199.69999999999999
20
11.718900000000001
10
199.69999999999999
20
8.6196300000000008
10
200.501
20
8.6196300000000008
10
200.501
20
7.6191899999999997
10
214.50000000000003
20
7.6191899999999997
10
214.50000000000003
20
8.6196300000000008
10
215.29900000000001
20
8.6196300000000008
10
215.29900000000001
20
11.718900000000001
0
LWPOLYLINE
5
147
100
AcDbEntity
8
0
100
AcDbPolyline
90
20
70
1
43
0.0
10
202.88200000000003
20
30.768900000000002
10
202.08200000000002
20
30.768900000000002
10
202.08200000000002
20
27.669600000000003
10
202.88200000000003
20
27.669600000000003
10
202.88200000000003
20
26.669200000000004
10
216.88099999999997
20
26.669200000000004
10
216.88099999999997
20
27.669600000000003
10
217.68200000000004
20
27.669600000000003
10
217.68200000000004
20
30.768900000000002
10
216.88099999999997
20
30.768900000000002
10
216.88099999999997
20
36.568899999999999
10
217.68200000000004
20
36.568899999999999
10
217.68200000000004
20
39.669499999999999
10
216.88099999999997
20
39.669499999999999
10
216.88099999999997
20
40.668599999999998
10
202.88200000000003
20
40.668599999999998
10
202.88200000000003
20
39.669499999999999
10
202.08200000000002
20
39.669499999999999
10
202.08200000000002
20
36.568899999999999
10
202.88200000000003
20
36.568899999999999
0
LWPOLYLINE
5
148
100
AcDbEntity
8
0
100
AcDbPolyline
90
20
70
1
43
0.0
10
212.11900000000003
20
96.819500000000005
10
212.11900000000003
20
97.818600000000018
10
198.11900000000006
20
97.818600000000018
10
198.11900000000006
20
96.819500000000005
10
197.31799999999998
20
96.819500000000005
10
197.31799999999998
20
93.718900000000005
10
198.11900000000006
20
93.718900000000005
10
198.11900000000006
20
87.918900000000008
10
197.31799999999998
20
87.918900000000008
10
197.31799999999998
20
84.819800000000001
10
198.11900000000006
20
84.819800000000001
10
198.11900000000006
20
83.819299999999998
10
212.11900000000003
20
83.819299999999998
10
212.11900000000003
20
84.819800000000001
10
212.91900000000001
20
84.819800000000001
10
212.91900000000001
20
87.918900000000008
10
212.11900000000003
20
87.918900000000008
10
212.11900000000003
20
93.718900000000005
10
212.91900000000001
20
93.718900000000005
10
212.91900000000001
20
96.819500000000005
0
LWPOLYLINE
5
149
100
AcDbEntity
8
0
100
AcDbPolyline
90
20
70
1
43
0.0
10
217.16900000000004
20
97.818600000000018
10
217.16900000000004
20
96.819500000000005
10
216.36799999999999
20
96.819500000000005
10
216.36799999999999
20
93.718900000000005
10
217.16900000000004
20
93.718900000000005
10
217.16900000000004
20
87.918900000000008
10
216.36799999999999
20
87.918900000000008
10
216.36799999999999
20
84.819800000000001
10
217.16900000000004
20
84.819800000000001
10
217.16900000000004
20
83.819299999999998
10
231.16900000000001
20
83.819299999999998
10
231.16900000000001
20
84.819800000000001
10
231.96900000000002
20
84.819800000000001
10
231.96900000000002
20
87.918900000000008
10
231.16900000000001
20
87.918900000000008
10
231.16900000000001
20
93.718900000000005
10
231.96900000000002
20
93.718900000000005
10
231.96900000000002
20
96.819500000000005
10
231.16900000000001
20
96.819500000000005
10
231.16900000000001
20
97.818600000000018
0
LWPOLYLINE
5
150
100
AcDbEntity
8
0
100
AcDbPolyline
90
20
70
1
43
0.0
10
207.64400000000001
20
68.868899999999996
10
206.84300000000002
20
68.868899999999996
10
206.84300000000002
20
65.769800000000004
10
207.64400000000001
20
65.769800000000004
10
207.64400000000001
20
64.769300000000001
10
221.64400000000001
20
64.769300000000001
10
221.64400000000001
20
65.769800000000004
10
222.44400000000002
20
65.769800000000004
10
222.44400000000002
20
68.868899999999996
10
221.64400000000001
20
68.868899999999996
10
221.64400000000001
20
74.668899999999994
10
222.44400000000002
20
74.668899999999994
10
222.44400000000002
20
77.769499999999994
10
221.64400000000001
20
77.769499999999994
10
221.64400000000001
20
78.768600000000006
10
207.64400000000001
20
78.768600000000006
10
207.64400000000001
20
77.769499999999994
10
206.84300000000002
20
77.769499999999994
10
206.84300000000002
20
74.668899999999994
10
207.64400000000001
20
74.668899999999994
0
LWPOLYLINE
5
151
100
AcDbEntity
8
0
100
AcDbPolyline
90
20
70
1
43
0.0
10
212.40700000000004
20
49.818899999999999
10
211.60700000000003
20
49.818899999999999
10
211.60700000000003
20
46.719800000000006
10
212.40700000000004
20
46.719800000000006
10
212.40700000000004
20
45.719300000000004
10
226.40600000000001
20
45.719300000000004
10
226.40600000000001
20
46.719800000000006
10
227.20699999999999
20
46.719800000000006
10
227.20699999999999
20
49.818899999999999
10
226.40600000000001
20
49.818899999999999
10
226.40600000000001
20
55.618899999999996
10
227.20699999999999
20
55.618899999999996
10
227.20699999999999
20
58.719499999999996
10
226.40600000000001
20
58.719499999999996
10
226.40600000000001
20
59.718600000000002
10
212.40700000000004
20
59.718600000000002
10
212.40700000000004
20
58.719499999999996
10
211.60700000000003
20
58.719499999999996
10
211.60700000000003
20
55.618899999999996
10
212.40700000000004
20
55.618899999999996
0
LWPOLYLINE
5
152
100
AcDbEntity
8
0
100
AcDbPolyline
90
20
70
1
43
0.0
10
221.93200000000004
20
39.669499999999999
10
221.13200000000003
20
39.669499999999999
10
221.13200000000003
20
36.568899999999999
10
221.93200000000004
20
36.568899999999999
10
221.93200000000004
20
30.768900000000002
10
221.13200000000003
20
30.768900000000002
10
221.13200000000003
20
27.669600000000003
10
221.93200000000004
20
27.669600000000003
10
221.93200000000004
20
26.669200000000004
10
235.93099999999998
20
26.669200000000004
10
235.93099999999998
20
27.669600000000003
10
236.73200000000003
20
27.669600000000003
10
236.73200000000003
20
30.768900000000002
10
235.93099999999998
20
30.768900000000002
10
235.93099999999998
20
36.568899999999999
10
236.73200000000003
20
36.568899999999999
10
236.73200000000003
20
39.669499999999999
10
235.93099999999998
20
39.669499999999999
10
235.93099999999998
20
40.668599999999998
10
221.93200000000004
20
40.668599999999998
0
LWPOLYLINE
5
153
100
AcDbEntity
8
0
100
AcDbPolyline
90
20
70
1
43
0.0
10
238.31200000000001
20
21.6187
10
224.31299999999999
20
21.6187
10
224.31299999999999
20
20.619599999999998
10
223.51200000000003
20
20.619599999999998
10
223.51200000000003
20
17.519000000000002
10
224.31299999999999
20
17.519000000000002
10
224.31299999999999
20
11.718900000000001
10
223.51200000000003
20
11.718900000000001
10
223.51200000000003
20
8.6196300000000008
10
224.31299999999999
20
8.6196300000000008
10
224.31299999999999
20
7.6191899999999997
10
238.31200000000001
20
7.6191899999999997
10
238.31200000000001
20
8.6196300000000008
10
239.113
20
8.6196300000000008
10
239.113
20
11.718900000000001
10
238.31200000000001
20
11.718900000000001
10
238.31200000000001
20
17.519000000000002
10
239.113
20
17.519000000000002
10
239.113
20
20.619599999999998
10
238.31200000000001
20
20.619599999999998
0
LWPOLYLINE
5
154
100
AcDbEntity
8
0
100
AcDbPolyline
90
20
70
1
43
0.0
10
226.69400000000002
20
77.769499999999994
10
225.89300000000003
20
77.769499999999994
10
225.89300000000003
20
74.668899999999994
10
226.69400000000002
20
74.668899999999994
10
226.69400000000002
20
68.868899999999996
10
225.89300000000003
20
68.868899999999996
10
225.89300000000003
20
65.769800000000004
10
226.69400000000002
20
65.769800000000004
10
226.69400000000002
20
64.769300000000001
10
240.69400000000002
20
64.769300000000001
10
240.69400000000002
20
65.769800000000004
10
241.49400000000003
20
65.769800000000004
10
241.49400000000003
20
68.868899999999996
10
240.69400000000002
20
68.868899999999996
10
240.69400000000002
20
74.668899999999994
10
241.49400000000003
20
74.668899999999994
10
241.49400000000003
20
77.769499999999994
10
240.69400000000002
20
77.769499999999994
10
240.69400000000002
20
78.768600000000006
10
226.69400000000002
20
78.768600000000006
0
LWPOLYLINE
5
155
100
AcDbEntity
8
0
100
AcDbPolyline
90
20
70
1
43
0.0
10
235.41800000000001
20
84.819800000000001
10
236.21900000000005
20
84.819800000000001
10
236.21900000000005
20
83.819299999999998
10
250.21900000000002
20
83.819299999999998
10
250.21900000000002
20
84.819800000000001
10
251.01900000000001
20
84.819800000000001
10
251.01900000000001
20
87.918900000000008
10
250.21900000000002
20
87.918900000000008
10
250.21900000000002
20
93.718900000000005
10
251.01900000000001
20
93.718900000000005
10
251.01900000000001
20
96.819500000000005
10
250.21900000000002
20
96.819500000000005
10
250.21900000000002
20
97.818600000000018
10
236.21900000000005
20
97.818600000000018
10
236.21900000000005
20
96.819500000000005
10
235.41800000000001
20
96.819500000000005
10
235.41800000000001
20
93.718900000000005
10
236.21900000000005
20
93.718900000000005
10
236.21900000000005
20
87.918900000000008
10
235.41800000000001
20
87.918900000000008
0
LWPOLYLINE
5
156
100
AcDbEntity
8
0
100
AcDbPolyline
90
20
70
1
43
0.0
10
245.45600000000002
20
46.719800000000006
10
246.25700000000001
20
46.719800000000006
10
246.25700000000001
20
49.818899999999999
10
245.45600000000002
20
49.818899999999999
10
245.45600000000002
20
55.618899999999996
10
246.25700000000001
20
55.618899999999996
10
246.25700000000001
20
58.719499999999996
10
245.45600000000002
20
58.719499999999996
10
245.45600000000002
20
59.718600000000002
10
231.45700000000002
20
59.718600000000002
10
231.45700000000002
20
58.719499999999996
10
230.65700000000004
20
58.719499999999996
10
230.65700000000004
20
55.618899999999996
10
231.45700000000002
20
55.618899999999996
10
231.45700000000002
20
49.818899999999999
10
230.65700000000004
20
49.818899999999999
10
230.65700000000004
20
46.719800000000006
10
231.45700000000002
20
46.719800000000006
10
231.45700000000002
20
45.719300000000004
10
245.45600000000002
20
45.719300000000004
0
LWPOLYLINE
5
157
100
AcDbEntity
8
0
100
AcDbPolyline
90
20
70
1
43
0.0
10
259.74400000000003
20
78.768600000000006
10
245.74400000000003
20
78.768600000000006
10
245.74400000000003
20
77.769499999999994
10
244.94299999999998
20
77.769499999999994
10
244.94299999999998
20
74.668899999999994
10
245.74400000000003
20
74.668899999999994
10
245.74400000000003
20
68.868899999999996
10
244.94299999999998
20
68.868899999999996
10
244.94299999999998
20
65.769800000000004
10
245.74400000000003
20
65.769800000000004
10
245.74400000000003
20
64.769300000000001
10
259.74400000000003
20
64.769300000000001
10
259.74400000000003
20
65.769800000000004
10
260.54400000000004
20
65.769800000000004
10
260.54400000000004
20
68.868899999999996
10
259.74400000000003
20
68.868899999999996
10
259.74400000000003
20
74.668899999999994
10
260.54400000000004
20
74.668899999999994
10
260.54400000000004
20
77.769499999999994
10
259.74400000000003
20
77.769499999999994
0
LWPOLYLINE
5
158
100
AcDbEntity
8
0
100
AcDbPolyline
90
20
70
1
43
0.0
10
262.125
20
7.6191899999999997
10
262.125
20
8.6196300000000008
10
262.92400000000004
20
8.6196300000000008
10
262.92400000000004
20
11.718900000000001
10
262.125
20
11.718900000000001
10
262.125
20
17.519000000000002
10
262.92400000000004
20
17.519000000000002
10
262.92400000000004
20
20.619599999999998
10
262.125
20
20.619599999999998
10
262.125
20
21.6187
10
248.126
20
21.6187
10
248.126
20
20.619599999999998
10
247.32500000000002
20
20.619599999999998
10
247.32500000000002
20
17.519000000000002
10
248.126
20
17.519000000000002
10
248.126
20
11.718900000000001
10
247.32500000000002
20
11.718900000000001
10
247.32500000000002
20
8.6196300000000008
10
248.126
20
8.6196300000000008
10
248.126
20
7.6191899999999997
0
LWPOLYLINE
5
159
100
AcDbEntity
8
0
100
AcDbPolyline
90
20
70
1
43
0.0
10
247.32500000000002
20
27.669600000000003
10
248.126
20
27.669600000000003
10
248.126
20
26.669200000000004
10
262.125
20
26.669200000000004
10
262.125
20
27.669600000000003
10
262.92400000000004
20
27.669600000000003
10
262.92400000000004
20
30.768900000000002
10
262.125
20
30.768900000000002
10
262.125
20
36.568899999999999
10
262.92400000000004
20
36.568899999999999
10
262.92400000000004
20
39.669499999999999
10
262.125
20
39.669499999999999
10
262.125
20
40.668599999999998
10
248.126
20
40.668599999999998
10
248.126
20
39.669499999999999
10
247.32500000000002
20
39.669499999999999
10
247.32500000000002
20
36.568899999999999
10
248.126
20
36.568899999999999
10
248.126
20
30.768900000000002
10
247.32500000000002
20
30.768900000000002
0
LWPOLYLINE
5
160
100
AcDbEntity
8
0
100
AcDbPolyline
90
20
70
1
43
0.0
10
284.35700000000003
20
65.769800000000004
10
284.35700000000003
20
68.868899999999996
10
283.55599999999998
20
68.868899999999996
10
283.55599999999998
20
74.668899999999994
10
284.35700000000003
20
74.668899999999994
10
284.35700000000003
20
77.769499999999994
10
283.55599999999998
20
77.769499999999994
10
283.55599999999998
20
78.768600000000006
10
269.55700000000002
20
78.768600000000006
10
269.55700000000002
20
77.769499999999994
10
268.75700000000001
20
77.769499999999994
10
268.75700000000001
20
74.668899999999994
10
269.55700000000002
20
74.668899999999994
10
269.55700000000002
20
68.868899999999996
10
268.75700000000001
20
68.868899999999996
10
268.75700000000001
20
65.769800000000004
10
269.55700000000002
20
65.769800000000004
10
269.55700000000002
20
64.769300000000001
10
283.55599999999998
20
64.769300000000001
10
283.55599999999998
20
65.769800000000004
0
LWPOLYLINE
5
161
100
AcDbEntity
8
0
100
AcDbPolyline
90
44
70
1
43
0.0
10
283.01299999999998
20
45.949300000000008
10
284.63799999999998
20
45.949300000000008
10
284.63799999999998
20
52.219200000000008
10
285.51299999999998
20
52.219200000000008
10
285.51299999999998
20
55.019600000000004
10
284.63799999999998
20
55.019600000000004
10
284.63799999999998
20
58.249600000000008
10
277.98700000000002
20
58.249600000000008
10
277.98700000000002
20
57.449200000000005
10
277.21299999999997
20
57.449200000000005
10
277.21299999999997
20
58.719499999999996
10
276.41200000000003
20
58.719499999999996
10
276.41200000000003
20
59.718600000000002
10
262.41300000000001
20
59.718600000000002
10
262.41300000000001
20
58.719499999999996
10
261.61200000000002
20
58.719499999999996
10
261.61200000000002
20
57.449200000000005
10
260.83799999999997
20
57.449200000000005
10
260.83799999999997
20
58.249600000000008
10
254.18700000000001
20
58.249600000000008
10
254.18700000000001
20
55.019600000000004
10
253.31200000000001
20
55.019600000000004
10
253.31200000000001
20
52.219200000000008
10
254.18700000000001
20
52.219200000000008
10
254.18700000000001
20
45.949300000000008
10
255.81200000000001
20
45.949300000000008
10
255.81200000000001
20
44.749200000000002
10
259.11200000000002
20
44.749200000000002
10
259.11200000000002
20
45.949300000000008
10
260.83799999999997
20
45.949300000000008
10
260.83799999999997
20
46.748699999999999
10
261.61200000000002
20
46.748699999999999
10
261.61200000000002
20
46.719800000000006
10
262.41300000000001
20
46.719800000000006
10
262.41300000000001
20
45.719300000000004
10
276.41200000000003
20
45.719300000000004
10
276.41200000000003
20
46.719800000000006
10
277.21299999999997
20
46.719800000000006
10
277.21299999999997
20
46.748699999999999
10
277.98700000000002
20
46.748699999999999
10
277.98700000000002
20
45.949300000000008
10
279.71299999999997
20
45.949300000000008
10
279.71299999999997
20
44.749200000000002
10
283.01299999999998
20
44.749200000000002
0
LWPOLYLINE
5
162
100
AcDbEntity
8
0
100
AcDbPolyline
90
20
70
1
43
0.0
10
285.93700000000001
20
11.718900000000001
10
285.93700000000001
20
17.519000000000002
10
286.738
20
17.519000000000002
10
286.738
20
20.619599999999998
10
285.93700000000001
20
20.619599999999998
10
285.93700000000001
20
21.6187
10
271.93799999999999
20
21.6187
10
271.93799999999999
20
20.619599999999998
10
271.137
20
20.619599999999998
10
271.137
20
17.519000000000002
10
271.93799999999999
20
17.519000000000002
10
271.93799999999999
20
11.718900000000001
10
271.137
20
11.718900000000001
10
271.137
20
8.6196300000000008
10
271.93799999999999
20
8.6196300000000008
10
271.93799999999999
20
7.6191899999999997
10
285.93700000000001
20
7.6191899999999997
10
285.93700000000001
20
8.6196300000000008
10
286.738
20
8.6196300000000008
10
286.738
20
11.718900000000001
0
LWPOLYLINE
5
163
100
AcDbEntity
8
0
100
AcDbPolyline
90
44
70
1
43
0.0
10
287.01900000000001
20
84.049300000000002
10
287.01900000000001
20
90.319199999999995
10
287.89400000000001
20
90.319199999999995
10
287.89400000000001
20
93.119600000000005
10
287.01900000000001
20
93.119600000000005
10
287.01900000000001
20
96.349599999999995
10
280.36900000000003
20
96.349599999999995
10
280.36900000000003
20
95.549200000000013
10
279.59400000000005
20
95.549200000000013
10
279.59400000000005
20
96.819500000000005
10
278.79400000000004
20
96.819500000000005
10
278.79400000000004
20
97.818600000000018
10
264.79400000000004
20
97.818600000000018
10
264.79400000000004
20
96.819500000000005
10
263.99299999999999
20
96.819500000000005
10
263.99299999999999
20
95.549200000000013
10
263.21899999999999
20
95.549200000000013
10
263.21899999999999
20
96.349599999999995
10
256.56900000000002
20
96.349599999999995
10
256.56900000000002
20
93.119600000000005
10
255.69400000000002
20
93.119600000000005
10
255.69400000000002
20
90.319199999999995
10
256.56900000000002
20
90.319199999999995
10
256.56900000000002
20
84.049300000000002
10
258.19299999999998
20
84.049300000000002
10
258.19299999999998
20
82.849199999999996
10
261.49400000000003
20
82.849199999999996
10
261.49400000000003
20
84.049300000000002
10
263.21899999999999
20
84.049300000000002
10
263.21899999999999
20
84.848699999999994
10
263.99299999999999
20
84.848699999999994
10
263.99299999999999
20
84.819800000000001
10
264.79400000000004
20
84.819800000000001
10
264.79400000000004
20
83.819299999999998
10
278.79400000000004
20
83.819299999999998
10
278.79400000000004
20
84.819800000000001
10
279.59400000000005
20
84.819800000000001
10
279.59400000000005
20
84.848699999999994
10
280.36900000000003
20
84.848699999999994
10
280.36900000000003
20
84.049300000000002
10
282.09400000000005
20
84.049300000000002
10
282.09400000000005
20
82.849199999999996
10
285.39299999999997
20
82.849199999999996
10
285.39299999999997
20
84.049300000000002
0
LWPOLYLINE
5
164
100
AcDbEntity
8
0
100
AcDbPolyline
90
20
70
1
43
0.0
10
288.31900000000007
20
39.669499999999999
10
288.31900000000007
20
40.668599999999998
10
274.31900000000002
20
40.668599999999998
10
274.31900000000002
20
39.669499999999999
10
273.51799999999997
20
39.669499999999999
10
273.51799999999997
20
36.568899999999999
10
274.31900000000002
20
36.568899999999999
10
274.31900000000002
20
30.768900000000002
10
273.51799999999997
20
30.768900000000002
10
273.51799999999997
20
27.669600000000003
10
274.31900000000002
20
27.669600000000003
10
274.31900000000002
20
26.669200000000004
10
288.31900000000007
20
26.669200000000004
10
288.31900000000007
20
27.669600000000003
10
289.11900000000003
20
27.669600000000003
10
289.11900000000003
20
30.768900000000002
10
288.31900000000007
20
30.768900000000002
10
288.31900000000007
20
36.568899999999999
10
289.11900000000003
20
36.568899999999999
10
289.11900000000003
20
39.669499999999999
0
LINE
5
165
100
AcDbEntity
8
0
100
AcDbLine
10
143.20649999999986
20
43.193949999999994
30
0
11
143.20650000000001
21
0.093706600000000029
31
0
0
LINE
5
166
100
AcDbEntity
8
0
100
AcDbLine
10
133.6815
20
43.193950000000001
30
0
11
133.68149999999997
21
62.243949999999998
31
0
0
LINE
5
167
100
AcDbEntity
8
0
100
AcDbLine
10
128.99999711662531
20
81.29395000000082
30
0
11
128.99999711662531
21
62.243950000000005
31
0
0
LINE
5
168
100
AcDbEntity
8
0
100
AcDbLine
10
138.44400000000002
20
81.29395000000082
30
0
11
138.44400000000002
21
105.34399999999999
31
0
0
LINE
5
169
100
AcDbEntity
8
0
100
AcDbLine
10
128.99999711662531
20
81.29395000000082
30
0
11
138.44400000000002
21
81.29395000000082
31
0
0
LINE
5
170
100
AcDbEntity
8
0
100
AcDbLine
10
128.99999711662531
20
62.243950000000005
30
0
11
133.68149999999997
21
62.243949999999998
31
0
0
LINE
5
171
100
AcDbEntity
8
0
100
AcDbLine
10
143.20649999999986
20
43.193949999999994
30
0
11
133.6815
21
43.193950000000001
31
0
0
ENDSEC
0
SECTION
2
OBJECTS
0
DICTIONARY
5
C
100
AcDbDictionary
3
ACAD_GROUP
350
D
3
ACAD_MLINESTYLE
350
17
0
DICTIONARY
5
D
100
AcDbDictionary
0
DICTIONARY
5
1A
330
C
100
AcDbDictionary
0
DICTIONARY
5
17
100
AcDbDictionary
0
ENDSEC
0
EOF
