  0
SECTION
  2
HEADER
  9
$ACADVER
  1
AC1009
  9
$EXTMIN
 10
0.0
 20
0.0
 30
0.0
  9
$EXTMAX
 10
1000.0
 20
1000.0
 30
0.0
  9
$FILLMODE
 70
 0
  9
$SPLFRAME
 70
 1
  0
ENDSEC
  0
SECTION
  2
TABLES
  0
TABLE
  2
LAYER
 70
1
  0
LAYER
  2
0
 70
     0
 62
     7
  6
CONTINUOUS
  0
ENDTAB
  0
ENDSEC
  0
SECTION
  2
ENTITIES
  0
LINE
  8
0
 62
     0
 10
0.0937066
 20
143.938
 30
0.0
 11
182.018
 21
143.938
 31
0.0
  0
LINE
  8
0
 62
     0
 10
182.018
 20
143.938
 30
0.0
 11
182.018
 21
0.112999
 31
0.0
  0
LINE
  8
0
 62
     0
 10
182.018
 20
0.112999
 30
0.0
 11
0.0937066
 21
0.112999
 31
0.0
  0
LINE
  8
0
 62
     0
 10
0.0937066
 20
0.112999
 30
0.0
 11
0.0937066
 21
143.938
 31
0.0
  0
LINE
  8
0
 62
     0
 10
10.0941
 20
133.937
 30
0.0
 11
172.019
 21
133.937
 31
0.0
  0
LINE
  8
0
 62
     0
 10
172.019
 20
133.937
 30
0.0
 11
172.019
 21
10.1121
 31
0.0
  0
LINE
  8
0
 62
     0
 10
172.019
 20
10.1121
 30
0.0
 11
10.0941
 21
10.1121
 31
0.0
  0
LINE
  8
0
 62
     0
 10
10.0941
 20
10.1121
 30
0.0
 11
10.0941
 21
133.937
 31
0.0
  0
LINE
  8
0
 62
     0
 10
91.0565
 20
140.437
 30
0.0
 11
91.5197
 21
140.364
 31
0.0
  0
LINE
  8
0
 62
     0
 10
91.5197
 20
140.364
 30
0.0
 11
91.9371
 21
140.152
 31
0.0
  0
LINE
  8
0
 62
     0
 10
91.9371
 20
140.152
 30
0.0
 11
92.2694
 21
139.82
 31
0.0
  0
LINE
  8
0
 62
     0
 10
92.2694
 20
139.82
 30
0.0
 11
92.4828
 21
139.401
 31
0.0
  0
LINE
  8
0
 62
     0
 10
92.4828
 20
139.401
 30
0.0
 11
92.5572
 21
138.938
 31
0.0
  0
LINE
  8
0
 62
     0
 10
92.5572
 20
138.938
 30
0.0
 11
92.4828
 21
138.473
 31
0.0
  0
LINE
  8
0
 62
     0
 10
92.4828
 20
138.473
 30
0.0
 11
92.2694
 21
138.056
 31
0.0
  0
LINE
  8
0
 62
     0
 10
92.2694
 20
138.056
 30
0.0
 11
91.9371
 21
137.724
 31
0.0
  0
LINE
  8
0
 62
     0
 10
91.9371
 20
137.724
 30
0.0
 11
91.5197
 21
137.51
 31
0.0
  0
LINE
  8
0
 62
     0
 10
91.5197
 20
137.51
 30
0.0
 11
91.0565
 21
137.437
 31
0.0
  0
LINE
  8
0
 62
     0
 10
91.0565
 20
137.437
 30
0.0
 11
90.5923
 21
137.51
 31
0.0
  0
LINE
  8
0
 62
     0
 10
90.5923
 20
137.51
 30
0.0
 11
90.1746
 21
137.724
 31
0.0
  0
LINE
  8
0
 62
     0
 10
90.1746
 20
137.724
 30
0.0
 11
89.8426
 21
138.056
 31
0.0
  0
LINE
  8
0
 62
     0
 10
89.8426
 20
138.056
 30
0.0
 11
89.6303
 21
138.473
 31
0.0
  0
LINE
  8
0
 62
     0
 10
89.6303
 20
138.473
 30
0.0
 11
89.5572
 21
138.938
 31
0.0
  0
LINE
  8
0
 62
     0
 10
89.5572
 20
138.938
 30
0.0
 11
89.6303
 21
139.401
 31
0.0
  0
LINE
  8
0
 62
     0
 10
89.6303
 20
139.401
 30
0.0
 11
89.8426
 21
139.82
 31
0.0
  0
LINE
  8
0
 62
     0
 10
89.8426
 20
139.82
 30
0.0
 11
90.1746
 21
140.152
 31
0.0
  0
LINE
  8
0
 62
     0
 10
90.1746
 20
140.152
 30
0.0
 11
90.5923
 21
140.364
 31
0.0
  0
LINE
  8
0
 62
     0
 10
90.5923
 20
140.364
 30
0.0
 11
91.0565
 21
140.437
 31
0.0
  0
LINE
  8
0
 62
     0
 10
177.019
 20
140.437
 30
0.0
 11
177.483
 21
140.364
 31
0.0
  0
LINE
  8
0
 62
     0
 10
177.483
 20
140.364
 30
0.0
 11
177.901
 21
140.152
 31
0.0
  0
LINE
  8
0
 62
     0
 10
177.901
 20
140.152
 30
0.0
 11
178.233
 21
139.82
 31
0.0
  0
LINE
  8
0
 62
     0
 10
178.233
 20
139.82
 30
0.0
 11
178.446
 21
139.401
 31
0.0
  0
LINE
  8
0
 62
     0
 10
178.446
 20
139.401
 30
0.0
 11
178.519
 21
138.938
 31
0.0
  0
LINE
  8
0
 62
     0
 10
178.519
 20
138.938
 30
0.0
 11
178.446
 21
138.473
 31
0.0
  0
LINE
  8
0
 62
     0
 10
178.446
 20
138.473
 30
0.0
 11
178.233
 21
138.056
 31
0.0
  0
LINE
  8
0
 62
     0
 10
178.233
 20
138.056
 30
0.0
 11
177.901
 21
137.724
 31
0.0
  0
LINE
  8
0
 62
     0
 10
177.901
 20
137.724
 30
0.0
 11
177.483
 21
137.51
 31
0.0
  0
LINE
  8
0
 62
     0
 10
177.483
 20
137.51
 30
0.0
 11
177.019
 21
137.437
 31
0.0
  0
LINE
  8
0
 62
     0
 10
177.019
 20
137.437
 30
0.0
 11
176.554
 21
137.51
 31
0.0
  0
LINE
  8
0
 62
     0
 10
176.554
 20
137.51
 30
0.0
 11
176.137
 21
137.724
 31
0.0
  0
LINE
  8
0
 62
     0
 10
176.137
 20
137.724
 30
0.0
 11
175.805
 21
138.056
 31
0.0
  0
LINE
  8
0
 62
     0
 10
175.805
 20
138.056
 30
0.0
 11
175.592
 21
138.473
 31
0.0
  0
LINE
  8
0
 62
     0
 10
175.592
 20
138.473
 30
0.0
 11
175.519
 21
138.938
 31
0.0
  0
LINE
  8
0
 62
     0
 10
175.519
 20
138.938
 30
0.0
 11
175.592
 21
139.401
 31
0.0
  0
LINE
  8
0
 62
     0
 10
175.592
 20
139.401
 30
0.0
 11
175.805
 21
139.82
 31
0.0
  0
LINE
  8
0
 62
     0
 10
175.805
 20
139.82
 30
0.0
 11
176.137
 21
140.152
 31
0.0
  0
LINE
  8
0
 62
     0
 10
176.137
 20
140.152
 30
0.0
 11
176.554
 21
140.364
 31
0.0
  0
LINE
  8
0
 62
     0
 10
176.554
 20
140.364
 30
0.0
 11
177.019
 21
140.437
 31
0.0
  0
LINE
  8
0
 62
     0
 10
177.019
 20
73.5238
 30
0.0
 11
177.483
 21
73.4508
 31
0.0
  0
LINE
  8
0
 62
     0
 10
177.483
 20
73.4508
 30
0.0
 11
177.901
 21
73.2384
 31
0.0
  0
LINE
  8
0
 62
     0
 10
177.901
 20
73.2384
 30
0.0
 11
178.233
 21
72.9065
 31
0.0
  0
LINE
  8
0
 62
     0
 10
178.233
 20
72.9065
 30
0.0
 11
178.446
 21
72.4888
 31
0.0
  0
LINE
  8
0
 62
     0
 10
178.446
 20
72.4888
 30
0.0
 11
178.519
 21
72.0245
 31
0.0
  0
LINE
  8
0
 62
     0
 10
178.519
 20
72.0245
 30
0.0
 11
178.446
 21
71.5617
 31
0.0
  0
LINE
  8
0
 62
     0
 10
178.446
 20
71.5617
 30
0.0
 11
178.233
 21
71.144
 31
0.0
  0
LINE
  8
0
 62
     0
 10
178.233
 20
71.144
 30
0.0
 11
177.901
 21
70.812
 31
0.0
  0
LINE
  8
0
 62
     0
 10
177.901
 20
70.812
 30
0.0
 11
177.483
 21
70.5982
 31
0.0
  0
LINE
  8
0
 62
     0
 10
177.483
 20
70.5982
 30
0.0
 11
177.019
 21
70.5238
 31
0.0
  0
LINE
  8
0
 62
     0
 10
177.019
 20
70.5238
 30
0.0
 11
176.554
 21
70.5982
 31
0.0
  0
LINE
  8
0
 62
     0
 10
176.554
 20
70.5982
 30
0.0
 11
176.137
 21
70.812
 31
0.0
  0
LINE
  8
0
 62
     0
 10
176.137
 20
70.812
 30
0.0
 11
175.805
 21
71.144
 31
0.0
  0
LINE
  8
0
 62
     0
 10
175.805
 20
71.144
 30
0.0
 11
175.592
 21
71.5617
 31
0.0
  0
LINE
  8
0
 62
     0
 10
175.592
 20
71.5617
 30
0.0
 11
175.519
 21
72.0245
 31
0.0
  0
LINE
  8
0
 62
     0
 10
175.519
 20
72.0245
 30
0.0
 11
175.592
 21
72.4888
 31
0.0
  0
LINE
  8
0
 62
     0
 10
175.592
 20
72.4888
 30
0.0
 11
175.805
 21
72.9065
 31
0.0
  0
LINE
  8
0
 62
     0
 10
175.805
 20
72.9065
 30
0.0
 11
176.137
 21
73.2384
 31
0.0
  0
LINE
  8
0
 62
     0
 10
176.137
 20
73.2384
 30
0.0
 11
176.554
 21
73.4508
 31
0.0
  0
LINE
  8
0
 62
     0
 10
176.554
 20
73.4508
 30
0.0
 11
177.019
 21
73.5238
 31
0.0
  0
LINE
  8
0
 62
     0
 10
177.019
 20
6.61183
 30
0.0
 11
177.483
 21
6.53881
 31
0.0
  0
LINE
  8
0
 62
     0
 10
177.483
 20
6.53881
 30
0.0
 11
177.901
 21
6.32658
 31
0.0
  0
LINE
  8
0
 62
     0
 10
177.901
 20
6.32658
 30
0.0
 11
178.233
 21
5.99447
 31
0.0
  0
LINE
  8
0
 62
     0
 10
178.233
 20
5.99447
 30
0.0
 11
178.446
 21
5.57692
 31
0.0
  0
LINE
  8
0
 62
     0
 10
178.446
 20
5.57692
 30
0.0
 11
178.519
 21
5.11253
 31
0.0
  0
LINE
  8
0
 62
     0
 10
178.519
 20
5.11253
 30
0.0
 11
178.446
 21
4.64813
 31
0.0
  0
LINE
  8
0
 62
     0
 10
178.446
 20
4.64813
 30
0.0
 11
178.233
 21
4.23058
 31
0.0
  0
LINE
  8
0
 62
     0
 10
178.233
 20
4.23058
 30
0.0
 11
177.901
 21
3.89848
 31
0.0
  0
LINE
  8
0
 62
     0
 10
177.901
 20
3.89848
 30
0.0
 11
177.483
 21
3.68487
 31
0.0
  0
LINE
  8
0
 62
     0
 10
177.483
 20
3.68487
 30
0.0
 11
177.019
 21
3.61184
 31
0.0
  0
LINE
  8
0
 62
     0
 10
177.019
 20
3.61184
 30
0.0
 11
176.554
 21
3.68487
 31
0.0
  0
LINE
  8
0
 62
     0
 10
176.554
 20
3.68487
 30
0.0
 11
176.137
 21
3.89848
 31
0.0
  0
LINE
  8
0
 62
     0
 10
176.137
 20
3.89848
 30
0.0
 11
175.805
 21
4.23058
 31
0.0
  0
LINE
  8
0
 62
     0
 10
175.805
 20
4.23058
 30
0.0
 11
175.592
 21
4.64813
 31
0.0
  0
LINE
  8
0
 62
     0
 10
175.592
 20
4.64813
 30
0.0
 11
175.519
 21
5.11253
 31
0.0
  0
LINE
  8
0
 62
     0
 10
175.519
 20
5.11253
 30
0.0
 11
175.592
 21
5.57692
 31
0.0
  0
LINE
  8
0
 62
     0
 10
175.592
 20
5.57692
 30
0.0
 11
175.805
 21
5.99447
 31
0.0
  0
LINE
  8
0
 62
     0
 10
175.805
 20
5.99447
 30
0.0
 11
176.137
 21
6.32658
 31
0.0
  0
LINE
  8
0
 62
     0
 10
176.137
 20
6.32658
 30
0.0
 11
176.554
 21
6.53881
 31
0.0
  0
LINE
  8
0
 62
     0
 10
176.554
 20
6.53881
 30
0.0
 11
177.019
 21
6.61183
 31
0.0
  0
LINE
  8
0
 62
     0
 10
91.0565
 20
6.61183
 30
0.0
 11
91.5197
 21
6.53881
 31
0.0
  0
LINE
  8
0
 62
     0
 10
91.5197
 20
6.53881
 30
0.0
 11
91.9371
 21
6.32658
 31
0.0
  0
LINE
  8
0
 62
     0
 10
91.9371
 20
6.32658
 30
0.0
 11
92.2694
 21
5.99447
 31
0.0
  0
LINE
  8
0
 62
     0
 10
92.2694
 20
5.99447
 30
0.0
 11
92.4828
 21
5.57692
 31
0.0
  0
LINE
  8
0
 62
     0
 10
92.4828
 20
5.57692
 30
0.0
 11
92.5572
 21
5.11253
 31
0.0
  0
LINE
  8
0
 62
     0
 10
92.5572
 20
5.11253
 30
0.0
 11
92.4828
 21
4.64813
 31
0.0
  0
LINE
  8
0
 62
     0
 10
92.4828
 20
4.64813
 30
0.0
 11
92.2694
 21
4.23058
 31
0.0
  0
LINE
  8
0
 62
     0
 10
92.2694
 20
4.23058
 30
0.0
 11
91.9371
 21
3.89848
 31
0.0
  0
LINE
  8
0
 62
     0
 10
91.9371
 20
3.89848
 30
0.0
 11
91.5197
 21
3.68487
 31
0.0
  0
LINE
  8
0
 62
     0
 10
91.5197
 20
3.68487
 30
0.0
 11
91.0565
 21
3.61184
 31
0.0
  0
LINE
  8
0
 62
     0
 10
91.0565
 20
3.61184
 30
0.0
 11
90.5923
 21
3.68487
 31
0.0
  0
LINE
  8
0
 62
     0
 10
90.5923
 20
3.68487
 30
0.0
 11
90.1746
 21
3.89848
 31
0.0
  0
LINE
  8
0
 62
     0
 10
90.1746
 20
3.89848
 30
0.0
 11
89.8426
 21
4.23058
 31
0.0
  0
LINE
  8
0
 62
     0
 10
89.8426
 20
4.23058
 30
0.0
 11
89.6303
 21
4.64813
 31
0.0
  0
LINE
  8
0
 62
     0
 10
89.6303
 20
4.64813
 30
0.0
 11
89.5572
 21
5.11253
 31
0.0
  0
LINE
  8
0
 62
     0
 10
89.5572
 20
5.11253
 30
0.0
 11
89.6303
 21
5.57692
 31
0.0
  0
LINE
  8
0
 62
     0
 10
89.6303
 20
5.57692
 30
0.0
 11
89.8426
 21
5.99447
 31
0.0
  0
LINE
  8
0
 62
     0
 10
89.8426
 20
5.99447
 30
0.0
 11
90.1746
 21
6.32658
 31
0.0
  0
LINE
  8
0
 62
     0
 10
90.1746
 20
6.32658
 30
0.0
 11
90.5923
 21
6.53881
 31
0.0
  0
LINE
  8
0
 62
     0
 10
90.5923
 20
6.53881
 30
0.0
 11
91.0565
 21
6.61183
 31
0.0
  0
LINE
  8
0
 62
     0
 10
5.09323
 20
6.61183
 30
0.0
 11
5.55763
 21
6.53881
 31
0.0
  0
LINE
  8
0
 62
     0
 10
5.55763
 20
6.53881
 30
0.0
 11
5.97517
 21
6.32658
 31
0.0
  0
LINE
  8
0
 62
     0
 10
5.97517
 20
6.32658
 30
0.0
 11
6.30728
 21
5.99447
 31
0.0
  0
LINE
  8
0
 62
     0
 10
6.30728
 20
5.99447
 30
0.0
 11
6.52089
 21
5.57692
 31
0.0
  0
LINE
  8
0
 62
     0
 10
6.52089
 20
5.57692
 30
0.0
 11
6.59391
 21
5.11253
 31
0.0
  0
LINE
  8
0
 62
     0
 10
6.59391
 20
5.11253
 30
0.0
 11
6.52089
 21
4.64813
 31
0.0
  0
LINE
  8
0
 62
     0
 10
6.52089
 20
4.64813
 30
0.0
 11
6.30728
 21
4.23058
 31
0.0
  0
LINE
  8
0
 62
     0
 10
6.30728
 20
4.23058
 30
0.0
 11
5.97517
 21
3.89848
 31
0.0
  0
LINE
  8
0
 62
     0
 10
5.97517
 20
3.89848
 30
0.0
 11
5.55763
 21
3.68487
 31
0.0
  0
LINE
  8
0
 62
     0
 10
5.55763
 20
3.68487
 30
0.0
 11
5.09323
 21
3.61184
 31
0.0
  0
LINE
  8
0
 62
     0
 10
5.09323
 20
3.61184
 30
0.0
 11
4.63021
 21
3.68487
 31
0.0
  0
LINE
  8
0
 62
     0
 10
4.63021
 20
3.68487
 30
0.0
 11
4.21128
 21
3.89848
 31
0.0
  0
LINE
  8
0
 62
     0
 10
4.21128
 20
3.89848
 30
0.0
 11
3.87918
 21
4.23058
 31
0.0
  0
LINE
  8
0
 62
     0
 10
3.87918
 20
4.23058
 30
0.0
 11
3.66695
 21
4.64813
 31
0.0
  0
LINE
  8
0
 62
     0
 10
3.66695
 20
4.64813
 30
0.0
 11
3.59392
 21
5.11253
 31
0.0
  0
LINE
  8
0
 62
     0
 10
3.59392
 20
5.11253
 30
0.0
 11
3.66695
 21
5.57692
 31
0.0
  0
LINE
  8
0
 62
     0
 10
3.66695
 20
5.57692
 30
0.0
 11
3.87918
 21
5.99447
 31
0.0
  0
LINE
  8
0
 62
     0
 10
3.87918
 20
5.99447
 30
0.0
 11
4.21128
 21
6.32658
 31
0.0
  0
LINE
  8
0
 62
     0
 10
4.21128
 20
6.32658
 30
0.0
 11
4.63021
 21
6.53881
 31
0.0
  0
LINE
  8
0
 62
     0
 10
4.63021
 20
6.53881
 30
0.0
 11
5.09323
 21
6.61183
 31
0.0
  0
LINE
  8
0
 62
     0
 10
5.09323
 20
73.5238
 30
0.0
 11
5.55763
 21
73.4508
 31
0.0
  0
LINE
  8
0
 62
     0
 10
5.55763
 20
73.4508
 30
0.0
 11
5.97517
 21
73.2384
 31
0.0
  0
LINE
  8
0
 62
     0
 10
5.97517
 20
73.2384
 30
0.0
 11
6.30728
 21
72.9065
 31
0.0
  0
LINE
  8
0
 62
     0
 10
6.30728
 20
72.9065
 30
0.0
 11
6.52089
 21
72.4888
 31
0.0
  0
LINE
  8
0
 62
     0
 10
6.52089
 20
72.4888
 30
0.0
 11
6.59391
 21
72.0245
 31
0.0
  0
LINE
  8
0
 62
     0
 10
6.59391
 20
72.0245
 30
0.0
 11
6.52089
 21
71.5617
 31
0.0
  0
LINE
  8
0
 62
     0
 10
6.52089
 20
71.5617
 30
0.0
 11
6.30728
 21
71.144
 31
0.0
  0
LINE
  8
0
 62
     0
 10
6.30728
 20
71.144
 30
0.0
 11
5.97517
 21
70.812
 31
0.0
  0
LINE
  8
0
 62
     0
 10
5.97517
 20
70.812
 30
0.0
 11
5.55763
 21
70.5982
 31
0.0
  0
LINE
  8
0
 62
     0
 10
5.55763
 20
70.5982
 30
0.0
 11
5.09323
 21
70.5238
 31
0.0
  0
LINE
  8
0
 62
     0
 10
5.09323
 20
70.5238
 30
0.0
 11
4.63021
 21
70.5982
 31
0.0
  0
LINE
  8
0
 62
     0
 10
4.63021
 20
70.5982
 30
0.0
 11
4.21128
 21
70.812
 31
0.0
  0
LINE
  8
0
 62
     0
 10
4.21128
 20
70.812
 30
0.0
 11
3.87918
 21
71.144
 31
0.0
  0
LINE
  8
0
 62
     0
 10
3.87918
 20
71.144
 30
0.0
 11
3.66695
 21
71.5617
 31
0.0
  0
LINE
  8
0
 62
     0
 10
3.66695
 20
71.5617
 30
0.0
 11
3.59392
 21
72.0245
 31
0.0
  0
LINE
  8
0
 62
     0
 10
3.59392
 20
72.0245
 30
0.0
 11
3.66695
 21
72.4888
 31
0.0
  0
LINE
  8
0
 62
     0
 10
3.66695
 20
72.4888
 30
0.0
 11
3.87918
 21
72.9065
 31
0.0
  0
LINE
  8
0
 62
     0
 10
3.87918
 20
72.9065
 30
0.0
 11
4.21128
 21
73.2384
 31
0.0
  0
LINE
  8
0
 62
     0
 10
4.21128
 20
73.2384
 30
0.0
 11
4.63021
 21
73.4508
 31
0.0
  0
LINE
  8
0
 62
     0
 10
4.63021
 20
73.4508
 30
0.0
 11
5.09323
 21
73.5238
 31
0.0
  0
LINE
  8
0
 62
     0
 10
5.09323
 20
140.437
 30
0.0
 11
5.55763
 21
140.364
 31
0.0
  0
LINE
  8
0
 62
     0
 10
5.55763
 20
140.364
 30
0.0
 11
5.97517
 21
140.152
 31
0.0
  0
LINE
  8
0
 62
     0
 10
5.97517
 20
140.152
 30
0.0
 11
6.30728
 21
139.82
 31
0.0
  0
LINE
  8
0
 62
     0
 10
6.30728
 20
139.82
 30
0.0
 11
6.52089
 21
139.401
 31
0.0
  0
LINE
  8
0
 62
     0
 10
6.52089
 20
139.401
 30
0.0
 11
6.59391
 21
138.938
 31
0.0
  0
LINE
  8
0
 62
     0
 10
6.59391
 20
138.938
 30
0.0
 11
6.52089
 21
138.473
 31
0.0
  0
LINE
  8
0
 62
     0
 10
6.52089
 20
138.473
 30
0.0
 11
6.30728
 21
138.056
 31
0.0
  0
LINE
  8
0
 62
     0
 10
6.30728
 20
138.056
 30
0.0
 11
5.97517
 21
137.724
 31
0.0
  0
LINE
  8
0
 62
     0
 10
5.97517
 20
137.724
 30
0.0
 11
5.55763
 21
137.51
 31
0.0
  0
LINE
  8
0
 62
     0
 10
5.55763
 20
137.51
 30
0.0
 11
5.09323
 21
137.437
 31
0.0
  0
LINE
  8
0
 62
     0
 10
5.09323
 20
137.437
 30
0.0
 11
4.63021
 21
137.51
 31
0.0
  0
LINE
  8
0
 62
     0
 10
4.63021
 20
137.51
 30
0.0
 11
4.21128
 21
137.724
 31
0.0
  0
LINE
  8
0
 62
     0
 10
4.21128
 20
137.724
 30
0.0
 11
3.87918
 21
138.056
 31
0.0
  0
LINE
  8
0
 62
     0
 10
3.87918
 20
138.056
 30
0.0
 11
3.66695
 21
138.473
 31
0.0
  0
LINE
  8
0
 62
     0
 10
3.66695
 20
138.473
 30
0.0
 11
3.59392
 21
138.938
 31
0.0
  0
LINE
  8
0
 62
     0
 10
3.59392
 20
138.938
 30
0.0
 11
3.66695
 21
139.401
 31
0.0
  0
LINE
  8
0
 62
     0
 10
3.66695
 20
139.401
 30
0.0
 11
3.87918
 21
139.82
 31
0.0
  0
LINE
  8
0
 62
     0
 10
3.87918
 20
139.82
 30
0.0
 11
4.21128
 21
140.152
 31
0.0
  0
LINE
  8
0
 62
     0
 10
4.21128
 20
140.152
 30
0.0
 11
4.63021
 21
140.364
 31
0.0
  0
LINE
  8
0
 62
     0
 10
4.63021
 20
140.364
 30
0.0
 11
5.09323
 21
140.437
 31
0.0
  0
ENDSEC
  0
EOF
