  0
SECTION
  2
HEADER
  9
$ACADVER
  1
AC1009
  9
$EXTMIN
 10
0.0
 20
0.0
 30
0.0
  9
$EXTMAX
 10
1000.0
 20
1000.0
 30
0.0
  9
$FILLMODE
 70
 0
  9
$SPLFRAME
 70
 1
  0
ENDSEC
  0
SECTION
  2
TABLES
  0
TABLE
  2
LAYER
 70
1
  0
LAYER
  2
0
 70
     0
 62
     7
  6
CONTINUOUS
  0
ENDTAB
  0
ENDSEC
  0
SECTION
  2
ENTITIES
  0
LINE
  8
0
 62
     0
 10
0.0937066
 20
143.938
 30
0.0
 11
158.207
 21
143.938
 31
0.0
  0
LINE
  8
0
 62
     0
 10
158.207
 20
143.938
 30
0.0
 11
158.207
 21
0.112999
 31
0.0
  0
LINE
  8
0
 62
     0
 10
158.207
 20
0.112999
 30
0.0
 11
0.0937066
 21
0.112999
 31
0.0
  0
LINE
  8
0
 62
     0
 10
0.0937066
 20
0.112999
 30
0.0
 11
0.0937066
 21
143.938
 31
0.0
  0
LINE
  8
0
 62
     0
 10
10.0941
 20
133.937
 30
0.0
 11
148.207
 21
133.937
 31
0.0
  0
LINE
  8
0
 62
     0
 10
148.207
 20
133.937
 30
0.0
 11
148.207
 21
10.1121
 31
0.0
  0
LINE
  8
0
 62
     0
 10
148.207
 20
10.1121
 30
0.0
 11
10.0941
 21
10.1121
 31
0.0
  0
LINE
  8
0
 62
     0
 10
10.0941
 20
10.1121
 30
0.0
 11
10.0941
 21
133.937
 31
0.0
  0
LINE
  8
0
 62
     0
 10
79.1503
 20
140.437
 30
0.0
 11
79.6135
 21
140.364
 31
0.0
  0
LINE
  8
0
 62
     0
 10
79.6135
 20
140.364
 30
0.0
 11
80.0322
 21
140.152
 31
0.0
  0
LINE
  8
0
 62
     0
 10
80.0322
 20
140.152
 30
0.0
 11
80.3645
 21
139.82
 31
0.0
  0
LINE
  8
0
 62
     0
 10
80.3645
 20
139.82
 30
0.0
 11
80.5766
 21
139.401
 31
0.0
  0
LINE
  8
0
 62
     0
 10
80.5766
 20
139.401
 30
0.0
 11
80.6496
 21
138.938
 31
0.0
  0
LINE
  8
0
 62
     0
 10
80.6496
 20
138.938
 30
0.0
 11
80.5766
 21
138.473
 31
0.0
  0
LINE
  8
0
 62
     0
 10
80.5766
 20
138.473
 30
0.0
 11
80.3645
 21
138.056
 31
0.0
  0
LINE
  8
0
 62
     0
 10
80.3645
 20
138.056
 30
0.0
 11
80.0322
 21
137.724
 31
0.0
  0
LINE
  8
0
 62
     0
 10
80.0322
 20
137.724
 30
0.0
 11
79.6135
 21
137.51
 31
0.0
  0
LINE
  8
0
 62
     0
 10
79.6135
 20
137.51
 30
0.0
 11
79.1503
 21
137.437
 31
0.0
  0
LINE
  8
0
 62
     0
 10
79.1503
 20
137.437
 30
0.0
 11
78.6874
 21
137.51
 31
0.0
  0
LINE
  8
0
 62
     0
 10
78.6874
 20
137.51
 30
0.0
 11
78.2683
 21
137.724
 31
0.0
  0
LINE
  8
0
 62
     0
 10
78.2683
 20
137.724
 30
0.0
 11
77.9364
 21
138.056
 31
0.0
  0
LINE
  8
0
 62
     0
 10
77.9364
 20
138.056
 30
0.0
 11
77.724
 21
138.473
 31
0.0
  0
LINE
  8
0
 62
     0
 10
77.724
 20
138.473
 30
0.0
 11
77.6496
 21
138.938
 31
0.0
  0
LINE
  8
0
 62
     0
 10
77.6496
 20
138.938
 30
0.0
 11
77.724
 21
139.401
 31
0.0
  0
LINE
  8
0
 62
     0
 10
77.724
 20
139.401
 30
0.0
 11
77.9364
 21
139.82
 31
0.0
  0
LINE
  8
0
 62
     0
 10
77.9364
 20
139.82
 30
0.0
 11
78.2683
 21
140.152
 31
0.0
  0
LINE
  8
0
 62
     0
 10
78.2683
 20
140.152
 30
0.0
 11
78.6874
 21
140.364
 31
0.0
  0
LINE
  8
0
 62
     0
 10
78.6874
 20
140.364
 30
0.0
 11
79.1503
 21
140.437
 31
0.0
  0
LINE
  8
0
 62
     0
 10
153.206
 20
140.437
 30
0.0
 11
153.669
 21
140.364
 31
0.0
  0
LINE
  8
0
 62
     0
 10
153.669
 20
140.364
 30
0.0
 11
154.088
 21
140.152
 31
0.0
  0
LINE
  8
0
 62
     0
 10
154.088
 20
140.152
 30
0.0
 11
154.42
 21
139.82
 31
0.0
  0
LINE
  8
0
 62
     0
 10
154.42
 20
139.82
 30
0.0
 11
154.632
 21
139.401
 31
0.0
  0
LINE
  8
0
 62
     0
 10
154.632
 20
139.401
 30
0.0
 11
154.707
 21
138.938
 31
0.0
  0
LINE
  8
0
 62
     0
 10
154.707
 20
138.938
 30
0.0
 11
154.632
 21
138.473
 31
0.0
  0
LINE
  8
0
 62
     0
 10
154.632
 20
138.473
 30
0.0
 11
154.42
 21
138.056
 31
0.0
  0
LINE
  8
0
 62
     0
 10
154.42
 20
138.056
 30
0.0
 11
154.088
 21
137.724
 31
0.0
  0
LINE
  8
0
 62
     0
 10
154.088
 20
137.724
 30
0.0
 11
153.669
 21
137.51
 31
0.0
  0
LINE
  8
0
 62
     0
 10
153.669
 20
137.51
 30
0.0
 11
153.206
 21
137.437
 31
0.0
  0
LINE
  8
0
 62
     0
 10
153.206
 20
137.437
 30
0.0
 11
152.743
 21
137.51
 31
0.0
  0
LINE
  8
0
 62
     0
 10
152.743
 20
137.51
 30
0.0
 11
152.324
 21
137.724
 31
0.0
  0
LINE
  8
0
 62
     0
 10
152.324
 20
137.724
 30
0.0
 11
151.992
 21
138.056
 31
0.0
  0
LINE
  8
0
 62
     0
 10
151.992
 20
138.056
 30
0.0
 11
151.78
 21
138.473
 31
0.0
  0
LINE
  8
0
 62
     0
 10
151.78
 20
138.473
 30
0.0
 11
151.705
 21
138.938
 31
0.0
  0
LINE
  8
0
 62
     0
 10
151.705
 20
138.938
 30
0.0
 11
151.78
 21
139.401
 31
0.0
  0
LINE
  8
0
 62
     0
 10
151.78
 20
139.401
 30
0.0
 11
151.992
 21
139.82
 31
0.0
  0
LINE
  8
0
 62
     0
 10
151.992
 20
139.82
 30
0.0
 11
152.324
 21
140.152
 31
0.0
  0
LINE
  8
0
 62
     0
 10
152.324
 20
140.152
 30
0.0
 11
152.743
 21
140.364
 31
0.0
  0
LINE
  8
0
 62
     0
 10
152.743
 20
140.364
 30
0.0
 11
153.206
 21
140.437
 31
0.0
  0
LINE
  8
0
 62
     0
 10
153.206
 20
73.5238
 30
0.0
 11
153.669
 21
73.4508
 31
0.0
  0
LINE
  8
0
 62
     0
 10
153.669
 20
73.4508
 30
0.0
 11
154.088
 21
73.2384
 31
0.0
  0
LINE
  8
0
 62
     0
 10
154.088
 20
73.2384
 30
0.0
 11
154.42
 21
72.9065
 31
0.0
  0
LINE
  8
0
 62
     0
 10
154.42
 20
72.9065
 30
0.0
 11
154.632
 21
72.4888
 31
0.0
  0
LINE
  8
0
 62
     0
 10
154.632
 20
72.4888
 30
0.0
 11
154.707
 21
72.0245
 31
0.0
  0
LINE
  8
0
 62
     0
 10
154.707
 20
72.0245
 30
0.0
 11
154.632
 21
71.5617
 31
0.0
  0
LINE
  8
0
 62
     0
 10
154.632
 20
71.5617
 30
0.0
 11
154.42
 21
71.144
 31
0.0
  0
LINE
  8
0
 62
     0
 10
154.42
 20
71.144
 30
0.0
 11
154.088
 21
70.812
 31
0.0
  0
LINE
  8
0
 62
     0
 10
154.088
 20
70.812
 30
0.0
 11
153.669
 21
70.5982
 31
0.0
  0
LINE
  8
0
 62
     0
 10
153.669
 20
70.5982
 30
0.0
 11
153.206
 21
70.5238
 31
0.0
  0
LINE
  8
0
 62
     0
 10
153.206
 20
70.5238
 30
0.0
 11
152.743
 21
70.5982
 31
0.0
  0
LINE
  8
0
 62
     0
 10
152.743
 20
70.5982
 30
0.0
 11
152.324
 21
70.812
 31
0.0
  0
LINE
  8
0
 62
     0
 10
152.324
 20
70.812
 30
0.0
 11
151.992
 21
71.144
 31
0.0
  0
LINE
  8
0
 62
     0
 10
151.992
 20
71.144
 30
0.0
 11
151.78
 21
71.5617
 31
0.0
  0
LINE
  8
0
 62
     0
 10
151.78
 20
71.5617
 30
0.0
 11
151.705
 21
72.0245
 31
0.0
  0
LINE
  8
0
 62
     0
 10
151.705
 20
72.0245
 30
0.0
 11
151.78
 21
72.4888
 31
0.0
  0
LINE
  8
0
 62
     0
 10
151.78
 20
72.4888
 30
0.0
 11
151.992
 21
72.9065
 31
0.0
  0
LINE
  8
0
 62
     0
 10
151.992
 20
72.9065
 30
0.0
 11
152.324
 21
73.2384
 31
0.0
  0
LINE
  8
0
 62
     0
 10
152.324
 20
73.2384
 30
0.0
 11
152.743
 21
73.4508
 31
0.0
  0
LINE
  8
0
 62
     0
 10
152.743
 20
73.4508
 30
0.0
 11
153.206
 21
73.5238
 31
0.0
  0
LINE
  8
0
 62
     0
 10
153.206
 20
6.61183
 30
0.0
 11
153.669
 21
6.53881
 31
0.0
  0
LINE
  8
0
 62
     0
 10
153.669
 20
6.53881
 30
0.0
 11
154.088
 21
6.32658
 31
0.0
  0
LINE
  8
0
 62
     0
 10
154.088
 20
6.32658
 30
0.0
 11
154.42
 21
5.99447
 31
0.0
  0
LINE
  8
0
 62
     0
 10
154.42
 20
5.99447
 30
0.0
 11
154.632
 21
5.57692
 31
0.0
  0
LINE
  8
0
 62
     0
 10
154.632
 20
5.57692
 30
0.0
 11
154.707
 21
5.11253
 31
0.0
  0
LINE
  8
0
 62
     0
 10
154.707
 20
5.11253
 30
0.0
 11
154.632
 21
4.64813
 31
0.0
  0
LINE
  8
0
 62
     0
 10
154.632
 20
4.64813
 30
0.0
 11
154.42
 21
4.23058
 31
0.0
  0
LINE
  8
0
 62
     0
 10
154.42
 20
4.23058
 30
0.0
 11
154.088
 21
3.89848
 31
0.0
  0
LINE
  8
0
 62
     0
 10
154.088
 20
3.89848
 30
0.0
 11
153.669
 21
3.68487
 31
0.0
  0
LINE
  8
0
 62
     0
 10
153.669
 20
3.68487
 30
0.0
 11
153.206
 21
3.61184
 31
0.0
  0
LINE
  8
0
 62
     0
 10
153.206
 20
3.61184
 30
0.0
 11
152.743
 21
3.68487
 31
0.0
  0
LINE
  8
0
 62
     0
 10
152.743
 20
3.68487
 30
0.0
 11
152.324
 21
3.89848
 31
0.0
  0
LINE
  8
0
 62
     0
 10
152.324
 20
3.89848
 30
0.0
 11
151.992
 21
4.23058
 31
0.0
  0
LINE
  8
0
 62
     0
 10
151.992
 20
4.23058
 30
0.0
 11
151.78
 21
4.64813
 31
0.0
  0
LINE
  8
0
 62
     0
 10
151.78
 20
4.64813
 30
0.0
 11
151.705
 21
5.11253
 31
0.0
  0
LINE
  8
0
 62
     0
 10
151.705
 20
5.11253
 30
0.0
 11
151.78
 21
5.57692
 31
0.0
  0
LINE
  8
0
 62
     0
 10
151.78
 20
5.57692
 30
0.0
 11
151.992
 21
5.99447
 31
0.0
  0
LINE
  8
0
 62
     0
 10
151.992
 20
5.99447
 30
0.0
 11
152.324
 21
6.32658
 31
0.0
  0
LINE
  8
0
 62
     0
 10
152.324
 20
6.32658
 30
0.0
 11
152.743
 21
6.53881
 31
0.0
  0
LINE
  8
0
 62
     0
 10
152.743
 20
6.53881
 30
0.0
 11
153.206
 21
6.61183
 31
0.0
  0
LINE
  8
0
 62
     0
 10
79.1503
 20
6.61183
 30
0.0
 11
79.6135
 21
6.53881
 31
0.0
  0
LINE
  8
0
 62
     0
 10
79.6135
 20
6.53881
 30
0.0
 11
80.0322
 21
6.32658
 31
0.0
  0
LINE
  8
0
 62
     0
 10
80.0322
 20
6.32658
 30
0.0
 11
80.3645
 21
5.99447
 31
0.0
  0
LINE
  8
0
 62
     0
 10
80.3645
 20
5.99447
 30
0.0
 11
80.5766
 21
5.57692
 31
0.0
  0
LINE
  8
0
 62
     0
 10
80.5766
 20
5.57692
 30
0.0
 11
80.6496
 21
5.11253
 31
0.0
  0
LINE
  8
0
 62
     0
 10
80.6496
 20
5.11253
 30
0.0
 11
80.5766
 21
4.64813
 31
0.0
  0
LINE
  8
0
 62
     0
 10
80.5766
 20
4.64813
 30
0.0
 11
80.3645
 21
4.23058
 31
0.0
  0
LINE
  8
0
 62
     0
 10
80.3645
 20
4.23058
 30
0.0
 11
80.0322
 21
3.89848
 31
0.0
  0
LINE
  8
0
 62
     0
 10
80.0322
 20
3.89848
 30
0.0
 11
79.6135
 21
3.68487
 31
0.0
  0
LINE
  8
0
 62
     0
 10
79.6135
 20
3.68487
 30
0.0
 11
79.1503
 21
3.61184
 31
0.0
  0
LINE
  8
0
 62
     0
 10
79.1503
 20
3.61184
 30
0.0
 11
78.6874
 21
3.68487
 31
0.0
  0
LINE
  8
0
 62
     0
 10
78.6874
 20
3.68487
 30
0.0
 11
78.2683
 21
3.89848
 31
0.0
  0
LINE
  8
0
 62
     0
 10
78.2683
 20
3.89848
 30
0.0
 11
77.9364
 21
4.23058
 31
0.0
  0
LINE
  8
0
 62
     0
 10
77.9364
 20
4.23058
 30
0.0
 11
77.724
 21
4.64813
 31
0.0
  0
LINE
  8
0
 62
     0
 10
77.724
 20
4.64813
 30
0.0
 11
77.6496
 21
5.11253
 31
0.0
  0
LINE
  8
0
 62
     0
 10
77.6496
 20
5.11253
 30
0.0
 11
77.724
 21
5.57692
 31
0.0
  0
LINE
  8
0
 62
     0
 10
77.724
 20
5.57692
 30
0.0
 11
77.9364
 21
5.99447
 31
0.0
  0
LINE
  8
0
 62
     0
 10
77.9364
 20
5.99447
 30
0.0
 11
78.2683
 21
6.32658
 31
0.0
  0
LINE
  8
0
 62
     0
 10
78.2683
 20
6.32658
 30
0.0
 11
78.6874
 21
6.53881
 31
0.0
  0
LINE
  8
0
 62
     0
 10
78.6874
 20
6.53881
 30
0.0
 11
79.1503
 21
6.61183
 31
0.0
  0
LINE
  8
0
 62
     0
 10
5.09323
 20
6.61183
 30
0.0
 11
5.55763
 21
6.53881
 31
0.0
  0
LINE
  8
0
 62
     0
 10
5.55763
 20
6.53881
 30
0.0
 11
5.97517
 21
6.32658
 31
0.0
  0
LINE
  8
0
 62
     0
 10
5.97517
 20
6.32658
 30
0.0
 11
6.30728
 21
5.99447
 31
0.0
  0
LINE
  8
0
 62
     0
 10
6.30728
 20
5.99447
 30
0.0
 11
6.52089
 21
5.57692
 31
0.0
  0
LINE
  8
0
 62
     0
 10
6.52089
 20
5.57692
 30
0.0
 11
6.59391
 21
5.11253
 31
0.0
  0
LINE
  8
0
 62
     0
 10
6.59391
 20
5.11253
 30
0.0
 11
6.52089
 21
4.64813
 31
0.0
  0
LINE
  8
0
 62
     0
 10
6.52089
 20
4.64813
 30
0.0
 11
6.30728
 21
4.23058
 31
0.0
  0
LINE
  8
0
 62
     0
 10
6.30728
 20
4.23058
 30
0.0
 11
5.97517
 21
3.89848
 31
0.0
  0
LINE
  8
0
 62
     0
 10
5.97517
 20
3.89848
 30
0.0
 11
5.55763
 21
3.68487
 31
0.0
  0
LINE
  8
0
 62
     0
 10
5.55763
 20
3.68487
 30
0.0
 11
5.09323
 21
3.61184
 31
0.0
  0
LINE
  8
0
 62
     0
 10
5.09323
 20
3.61184
 30
0.0
 11
4.63021
 21
3.68487
 31
0.0
  0
LINE
  8
0
 62
     0
 10
4.63021
 20
3.68487
 30
0.0
 11
4.21128
 21
3.89848
 31
0.0
  0
LINE
  8
0
 62
     0
 10
4.21128
 20
3.89848
 30
0.0
 11
3.87918
 21
4.23058
 31
0.0
  0
LINE
  8
0
 62
     0
 10
3.87918
 20
4.23058
 30
0.0
 11
3.66695
 21
4.64813
 31
0.0
  0
LINE
  8
0
 62
     0
 10
3.66695
 20
4.64813
 30
0.0
 11
3.59392
 21
5.11253
 31
0.0
  0
LINE
  8
0
 62
     0
 10
3.59392
 20
5.11253
 30
0.0
 11
3.66695
 21
5.57692
 31
0.0
  0
LINE
  8
0
 62
     0
 10
3.66695
 20
5.57692
 30
0.0
 11
3.87918
 21
5.99447
 31
0.0
  0
LINE
  8
0
 62
     0
 10
3.87918
 20
5.99447
 30
0.0
 11
4.21128
 21
6.32658
 31
0.0
  0
LINE
  8
0
 62
     0
 10
4.21128
 20
6.32658
 30
0.0
 11
4.63021
 21
6.53881
 31
0.0
  0
LINE
  8
0
 62
     0
 10
4.63021
 20
6.53881
 30
0.0
 11
5.09323
 21
6.61183
 31
0.0
  0
LINE
  8
0
 62
     0
 10
5.09323
 20
73.5238
 30
0.0
 11
5.55763
 21
73.4508
 31
0.0
  0
LINE
  8
0
 62
     0
 10
5.55763
 20
73.4508
 30
0.0
 11
5.97517
 21
73.2384
 31
0.0
  0
LINE
  8
0
 62
     0
 10
5.97517
 20
73.2384
 30
0.0
 11
6.30728
 21
72.9065
 31
0.0
  0
LINE
  8
0
 62
     0
 10
6.30728
 20
72.9065
 30
0.0
 11
6.52089
 21
72.4888
 31
0.0
  0
LINE
  8
0
 62
     0
 10
6.52089
 20
72.4888
 30
0.0
 11
6.59391
 21
72.0245
 31
0.0
  0
LINE
  8
0
 62
     0
 10
6.59391
 20
72.0245
 30
0.0
 11
6.52089
 21
71.5617
 31
0.0
  0
LINE
  8
0
 62
     0
 10
6.52089
 20
71.5617
 30
0.0
 11
6.30728
 21
71.144
 31
0.0
  0
LINE
  8
0
 62
     0
 10
6.30728
 20
71.144
 30
0.0
 11
5.97517
 21
70.812
 31
0.0
  0
LINE
  8
0
 62
     0
 10
5.97517
 20
70.812
 30
0.0
 11
5.55763
 21
70.5982
 31
0.0
  0
LINE
  8
0
 62
     0
 10
5.55763
 20
70.5982
 30
0.0
 11
5.09323
 21
70.5238
 31
0.0
  0
LINE
  8
0
 62
     0
 10
5.09323
 20
70.5238
 30
0.0
 11
4.63021
 21
70.5982
 31
0.0
  0
LINE
  8
0
 62
     0
 10
4.63021
 20
70.5982
 30
0.0
 11
4.21128
 21
70.812
 31
0.0
  0
LINE
  8
0
 62
     0
 10
4.21128
 20
70.812
 30
0.0
 11
3.87918
 21
71.144
 31
0.0
  0
LINE
  8
0
 62
     0
 10
3.87918
 20
71.144
 30
0.0
 11
3.66695
 21
71.5617
 31
0.0
  0
LINE
  8
0
 62
     0
 10
3.66695
 20
71.5617
 30
0.0
 11
3.59392
 21
72.0245
 31
0.0
  0
LINE
  8
0
 62
     0
 10
3.59392
 20
72.0245
 30
0.0
 11
3.66695
 21
72.4888
 31
0.0
  0
LINE
  8
0
 62
     0
 10
3.66695
 20
72.4888
 30
0.0
 11
3.87918
 21
72.9065
 31
0.0
  0
LINE
  8
0
 62
     0
 10
3.87918
 20
72.9065
 30
0.0
 11
4.21128
 21
73.2384
 31
0.0
  0
LINE
  8
0
 62
     0
 10
4.21128
 20
73.2384
 30
0.0
 11
4.63021
 21
73.4508
 31
0.0
  0
LINE
  8
0
 62
     0
 10
4.63021
 20
73.4508
 30
0.0
 11
5.09323
 21
73.5238
 31
0.0
  0
LINE
  8
0
 62
     0
 10
5.09323
 20
140.437
 30
0.0
 11
5.55763
 21
140.364
 31
0.0
  0
LINE
  8
0
 62
     0
 10
5.55763
 20
140.364
 30
0.0
 11
5.97517
 21
140.152
 31
0.0
  0
LINE
  8
0
 62
     0
 10
5.97517
 20
140.152
 30
0.0
 11
6.30728
 21
139.82
 31
0.0
  0
LINE
  8
0
 62
     0
 10
6.30728
 20
139.82
 30
0.0
 11
6.52089
 21
139.401
 31
0.0
  0
LINE
  8
0
 62
     0
 10
6.52089
 20
139.401
 30
0.0
 11
6.59391
 21
138.938
 31
0.0
  0
LINE
  8
0
 62
     0
 10
6.59391
 20
138.938
 30
0.0
 11
6.52089
 21
138.473
 31
0.0
  0
LINE
  8
0
 62
     0
 10
6.52089
 20
138.473
 30
0.0
 11
6.30728
 21
138.056
 31
0.0
  0
LINE
  8
0
 62
     0
 10
6.30728
 20
138.056
 30
0.0
 11
5.97517
 21
137.724
 31
0.0
  0
LINE
  8
0
 62
     0
 10
5.97517
 20
137.724
 30
0.0
 11
5.55763
 21
137.51
 31
0.0
  0
LINE
  8
0
 62
     0
 10
5.55763
 20
137.51
 30
0.0
 11
5.09323
 21
137.437
 31
0.0
  0
LINE
  8
0
 62
     0
 10
5.09323
 20
137.437
 30
0.0
 11
4.63021
 21
137.51
 31
0.0
  0
LINE
  8
0
 62
     0
 10
4.63021
 20
137.51
 30
0.0
 11
4.21128
 21
137.724
 31
0.0
  0
LINE
  8
0
 62
     0
 10
4.21128
 20
137.724
 30
0.0
 11
3.87918
 21
138.056
 31
0.0
  0
LINE
  8
0
 62
     0
 10
3.87918
 20
138.056
 30
0.0
 11
3.66695
 21
138.473
 31
0.0
  0
LINE
  8
0
 62
     0
 10
3.66695
 20
138.473
 30
0.0
 11
3.59392
 21
138.938
 31
0.0
  0
LINE
  8
0
 62
     0
 10
3.59392
 20
138.938
 30
0.0
 11
3.66695
 21
139.401
 31
0.0
  0
LINE
  8
0
 62
     0
 10
3.66695
 20
139.401
 30
0.0
 11
3.87918
 21
139.82
 31
0.0
  0
LINE
  8
0
 62
     0
 10
3.87918
 20
139.82
 30
0.0
 11
4.21128
 21
140.152
 31
0.0
  0
LINE
  8
0
 62
     0
 10
4.21128
 20
140.152
 30
0.0
 11
4.63021
 21
140.364
 31
0.0
  0
LINE
  8
0
 62
     0
 10
4.63021
 20
140.364
 30
0.0
 11
5.09323
 21
140.437
 31
0.0
  0
ENDSEC
  0
EOF
