  0
SECTION
  2
HEADER
  9
$ACADVER
  1
AC1009
  9
$EXTMIN
 10
0.0
 20
0.0
 30
0.0
  9
$EXTMAX
 10
1000.0
 20
1000.0
 30
0.0
  9
$FILLMODE
 70
 0
  9
$SPLFRAME
 70
 1
  0
ENDSEC
  0
SECTION
  2
TABLES
  0
TABLE
  2
LAYER
 70
1
  0
LAYER
  2
0
 70
     0
 62
     7
  6
CONTINUOUS
  0
ENDTAB
  0
ENDSEC
  0
SECTION
  2
ENTITIES
  0
LINE
  8
0
 62
     0
 10
0.0937066
 20
143.938
 30
0.0
 11
77.2432
 21
143.938
 31
0.0
  0
LINE
  8
0
 62
     0
 10
77.2432
 20
143.938
 30
0.0
 11
77.2432
 21
0.112999
 31
0.0
  0
LINE
  8
0
 62
     0
 10
77.2432
 20
0.112999
 30
0.0
 11
0.0937066
 21
0.112999
 31
0.0
  0
LINE
  8
0
 62
     0
 10
0.0937066
 20
0.112999
 30
0.0
 11
0.0937066
 21
143.938
 31
0.0
  0
LINE
  8
0
 62
     0
 10
10.0941
 20
133.937
 30
0.0
 11
67.244
 21
133.937
 31
0.0
  0
LINE
  8
0
 62
     0
 10
67.244
 20
133.937
 30
0.0
 11
67.244
 21
10.1121
 31
0.0
  0
LINE
  8
0
 62
     0
 10
67.244
 20
10.1121
 30
0.0
 11
10.0941
 21
10.1121
 31
0.0
  0
LINE
  8
0
 62
     0
 10
10.0941
 20
10.1121
 30
0.0
 11
10.0941
 21
133.937
 31
0.0
  0
LINE
  8
0
 62
     0
 10
38.669
 20
140.437
 30
0.0
 11
39.1322
 21
140.364
 31
0.0
  0
LINE
  8
0
 62
     0
 10
39.1322
 20
140.364
 30
0.0
 11
39.551
 21
140.152
 31
0.0
  0
LINE
  8
0
 62
     0
 10
39.551
 20
140.152
 30
0.0
 11
39.8833
 21
139.82
 31
0.0
  0
LINE
  8
0
 62
     0
 10
39.8833
 20
139.82
 30
0.0
 11
40.0953
 21
139.401
 31
0.0
  0
LINE
  8
0
 62
     0
 10
40.0953
 20
139.401
 30
0.0
 11
40.1683
 21
138.938
 31
0.0
  0
LINE
  8
0
 62
     0
 10
40.1683
 20
138.938
 30
0.0
 11
40.0953
 21
138.473
 31
0.0
  0
LINE
  8
0
 62
     0
 10
40.0953
 20
138.473
 30
0.0
 11
39.8833
 21
138.056
 31
0.0
  0
LINE
  8
0
 62
     0
 10
39.8833
 20
138.056
 30
0.0
 11
39.551
 21
137.724
 31
0.0
  0
LINE
  8
0
 62
     0
 10
39.551
 20
137.724
 30
0.0
 11
39.1322
 21
137.51
 31
0.0
  0
LINE
  8
0
 62
     0
 10
39.1322
 20
137.51
 30
0.0
 11
38.669
 21
137.437
 31
0.0
  0
LINE
  8
0
 62
     0
 10
38.669
 20
137.437
 30
0.0
 11
38.2048
 21
137.51
 31
0.0
  0
LINE
  8
0
 62
     0
 10
38.2048
 20
137.51
 30
0.0
 11
37.7871
 21
137.724
 31
0.0
  0
LINE
  8
0
 62
     0
 10
37.7871
 20
137.724
 30
0.0
 11
37.4551
 21
138.056
 31
0.0
  0
LINE
  8
0
 62
     0
 10
37.4551
 20
138.056
 30
0.0
 11
37.2413
 21
138.473
 31
0.0
  0
LINE
  8
0
 62
     0
 10
37.2413
 20
138.473
 30
0.0
 11
37.1683
 21
138.938
 31
0.0
  0
LINE
  8
0
 62
     0
 10
37.1683
 20
138.938
 30
0.0
 11
37.2413
 21
139.401
 31
0.0
  0
LINE
  8
0
 62
     0
 10
37.2413
 20
139.401
 30
0.0
 11
37.4551
 21
139.82
 31
0.0
  0
LINE
  8
0
 62
     0
 10
37.4551
 20
139.82
 30
0.0
 11
37.7871
 21
140.152
 31
0.0
  0
LINE
  8
0
 62
     0
 10
37.7871
 20
140.152
 30
0.0
 11
38.2048
 21
140.364
 31
0.0
  0
LINE
  8
0
 62
     0
 10
38.2048
 20
140.364
 30
0.0
 11
38.669
 21
140.437
 31
0.0
  0
LINE
  8
0
 62
     0
 10
72.2436
 20
140.437
 30
0.0
 11
72.7082
 21
140.364
 31
0.0
  0
LINE
  8
0
 62
     0
 10
72.7082
 20
140.364
 30
0.0
 11
73.1255
 21
140.152
 31
0.0
  0
LINE
  8
0
 62
     0
 10
73.1255
 20
140.152
 30
0.0
 11
73.4579
 21
139.82
 31
0.0
  0
LINE
  8
0
 62
     0
 10
73.4579
 20
139.82
 30
0.0
 11
73.6713
 21
139.401
 31
0.0
  0
LINE
  8
0
 62
     0
 10
73.6713
 20
139.401
 30
0.0
 11
73.7443
 21
138.938
 31
0.0
  0
LINE
  8
0
 62
     0
 10
73.7443
 20
138.938
 30
0.0
 11
73.6713
 21
138.473
 31
0.0
  0
LINE
  8
0
 62
     0
 10
73.6713
 20
138.473
 30
0.0
 11
73.4579
 21
138.056
 31
0.0
  0
LINE
  8
0
 62
     0
 10
73.4579
 20
138.056
 30
0.0
 11
73.1255
 21
137.724
 31
0.0
  0
LINE
  8
0
 62
     0
 10
73.1255
 20
137.724
 30
0.0
 11
72.7082
 21
137.51
 31
0.0
  0
LINE
  8
0
 62
     0
 10
72.7082
 20
137.51
 30
0.0
 11
72.2436
 21
137.437
 31
0.0
  0
LINE
  8
0
 62
     0
 10
72.2436
 20
137.437
 30
0.0
 11
71.7793
 21
137.51
 31
0.0
  0
LINE
  8
0
 62
     0
 10
71.7793
 20
137.51
 30
0.0
 11
71.3617
 21
137.724
 31
0.0
  0
LINE
  8
0
 62
     0
 10
71.3617
 20
137.724
 30
0.0
 11
71.0297
 21
138.056
 31
0.0
  0
LINE
  8
0
 62
     0
 10
71.0297
 20
138.056
 30
0.0
 11
70.8173
 21
138.473
 31
0.0
  0
LINE
  8
0
 62
     0
 10
70.8173
 20
138.473
 30
0.0
 11
70.7443
 21
138.938
 31
0.0
  0
LINE
  8
0
 62
     0
 10
70.7443
 20
138.938
 30
0.0
 11
70.8173
 21
139.401
 31
0.0
  0
LINE
  8
0
 62
     0
 10
70.8173
 20
139.401
 30
0.0
 11
71.0297
 21
139.82
 31
0.0
  0
LINE
  8
0
 62
     0
 10
71.0297
 20
139.82
 30
0.0
 11
71.3617
 21
140.152
 31
0.0
  0
LINE
  8
0
 62
     0
 10
71.3617
 20
140.152
 30
0.0
 11
71.7793
 21
140.364
 31
0.0
  0
LINE
  8
0
 62
     0
 10
71.7793
 20
140.364
 30
0.0
 11
72.2436
 21
140.437
 31
0.0
  0
LINE
  8
0
 62
     0
 10
72.2436
 20
73.5238
 30
0.0
 11
72.7082
 21
73.4508
 31
0.0
  0
LINE
  8
0
 62
     0
 10
72.7082
 20
73.4508
 30
0.0
 11
73.1255
 21
73.2384
 31
0.0
  0
LINE
  8
0
 62
     0
 10
73.1255
 20
73.2384
 30
0.0
 11
73.4579
 21
72.9065
 31
0.0
  0
LINE
  8
0
 62
     0
 10
73.4579
 20
72.9065
 30
0.0
 11
73.6713
 21
72.4888
 31
0.0
  0
LINE
  8
0
 62
     0
 10
73.6713
 20
72.4888
 30
0.0
 11
73.7443
 21
72.0245
 31
0.0
  0
LINE
  8
0
 62
     0
 10
73.7443
 20
72.0245
 30
0.0
 11
73.6713
 21
71.5617
 31
0.0
  0
LINE
  8
0
 62
     0
 10
73.6713
 20
71.5617
 30
0.0
 11
73.4579
 21
71.144
 31
0.0
  0
LINE
  8
0
 62
     0
 10
73.4579
 20
71.144
 30
0.0
 11
73.1255
 21
70.812
 31
0.0
  0
LINE
  8
0
 62
     0
 10
73.1255
 20
70.812
 30
0.0
 11
72.7082
 21
70.5982
 31
0.0
  0
LINE
  8
0
 62
     0
 10
72.7082
 20
70.5982
 30
0.0
 11
72.2436
 21
70.5238
 31
0.0
  0
LINE
  8
0
 62
     0
 10
72.2436
 20
70.5238
 30
0.0
 11
71.7793
 21
70.5982
 31
0.0
  0
LINE
  8
0
 62
     0
 10
71.7793
 20
70.5982
 30
0.0
 11
71.3617
 21
70.812
 31
0.0
  0
LINE
  8
0
 62
     0
 10
71.3617
 20
70.812
 30
0.0
 11
71.0297
 21
71.144
 31
0.0
  0
LINE
  8
0
 62
     0
 10
71.0297
 20
71.144
 30
0.0
 11
70.8173
 21
71.5617
 31
0.0
  0
LINE
  8
0
 62
     0
 10
70.8173
 20
71.5617
 30
0.0
 11
70.7443
 21
72.0245
 31
0.0
  0
LINE
  8
0
 62
     0
 10
70.7443
 20
72.0245
 30
0.0
 11
70.8173
 21
72.4888
 31
0.0
  0
LINE
  8
0
 62
     0
 10
70.8173
 20
72.4888
 30
0.0
 11
71.0297
 21
72.9065
 31
0.0
  0
LINE
  8
0
 62
     0
 10
71.0297
 20
72.9065
 30
0.0
 11
71.3617
 21
73.2384
 31
0.0
  0
LINE
  8
0
 62
     0
 10
71.3617
 20
73.2384
 30
0.0
 11
71.7793
 21
73.4508
 31
0.0
  0
LINE
  8
0
 62
     0
 10
71.7793
 20
73.4508
 30
0.0
 11
72.2436
 21
73.5238
 31
0.0
  0
LINE
  8
0
 62
     0
 10
72.2436
 20
6.61183
 30
0.0
 11
72.7082
 21
6.53881
 31
0.0
  0
LINE
  8
0
 62
     0
 10
72.7082
 20
6.53881
 30
0.0
 11
73.1255
 21
6.32658
 31
0.0
  0
LINE
  8
0
 62
     0
 10
73.1255
 20
6.32658
 30
0.0
 11
73.4579
 21
5.99447
 31
0.0
  0
LINE
  8
0
 62
     0
 10
73.4579
 20
5.99447
 30
0.0
 11
73.6713
 21
5.57692
 31
0.0
  0
LINE
  8
0
 62
     0
 10
73.6713
 20
5.57692
 30
0.0
 11
73.7443
 21
5.11253
 31
0.0
  0
LINE
  8
0
 62
     0
 10
73.7443
 20
5.11253
 30
0.0
 11
73.6713
 21
4.64813
 31
0.0
  0
LINE
  8
0
 62
     0
 10
73.6713
 20
4.64813
 30
0.0
 11
73.4579
 21
4.23058
 31
0.0
  0
LINE
  8
0
 62
     0
 10
73.4579
 20
4.23058
 30
0.0
 11
73.1255
 21
3.89848
 31
0.0
  0
LINE
  8
0
 62
     0
 10
73.1255
 20
3.89848
 30
0.0
 11
72.7082
 21
3.68487
 31
0.0
  0
LINE
  8
0
 62
     0
 10
72.7082
 20
3.68487
 30
0.0
 11
72.2436
 21
3.61184
 31
0.0
  0
LINE
  8
0
 62
     0
 10
72.2436
 20
3.61184
 30
0.0
 11
71.7793
 21
3.68487
 31
0.0
  0
LINE
  8
0
 62
     0
 10
71.7793
 20
3.68487
 30
0.0
 11
71.3617
 21
3.89848
 31
0.0
  0
LINE
  8
0
 62
     0
 10
71.3617
 20
3.89848
 30
0.0
 11
71.0297
 21
4.23058
 31
0.0
  0
LINE
  8
0
 62
     0
 10
71.0297
 20
4.23058
 30
0.0
 11
70.8173
 21
4.64813
 31
0.0
  0
LINE
  8
0
 62
     0
 10
70.8173
 20
4.64813
 30
0.0
 11
70.7443
 21
5.11253
 31
0.0
  0
LINE
  8
0
 62
     0
 10
70.7443
 20
5.11253
 30
0.0
 11
70.8173
 21
5.57692
 31
0.0
  0
LINE
  8
0
 62
     0
 10
70.8173
 20
5.57692
 30
0.0
 11
71.0297
 21
5.99447
 31
0.0
  0
LINE
  8
0
 62
     0
 10
71.0297
 20
5.99447
 30
0.0
 11
71.3617
 21
6.32658
 31
0.0
  0
LINE
  8
0
 62
     0
 10
71.3617
 20
6.32658
 30
0.0
 11
71.7793
 21
6.53881
 31
0.0
  0
LINE
  8
0
 62
     0
 10
71.7793
 20
6.53881
 30
0.0
 11
72.2436
 21
6.61183
 31
0.0
  0
LINE
  8
0
 62
     0
 10
38.669
 20
6.61183
 30
0.0
 11
39.1322
 21
6.53881
 31
0.0
  0
LINE
  8
0
 62
     0
 10
39.1322
 20
6.53881
 30
0.0
 11
39.551
 21
6.32658
 31
0.0
  0
LINE
  8
0
 62
     0
 10
39.551
 20
6.32658
 30
0.0
 11
39.8833
 21
5.99447
 31
0.0
  0
LINE
  8
0
 62
     0
 10
39.8833
 20
5.99447
 30
0.0
 11
40.0953
 21
5.57692
 31
0.0
  0
LINE
  8
0
 62
     0
 10
40.0953
 20
5.57692
 30
0.0
 11
40.1683
 21
5.11253
 31
0.0
  0
LINE
  8
0
 62
     0
 10
40.1683
 20
5.11253
 30
0.0
 11
40.0953
 21
4.64813
 31
0.0
  0
LINE
  8
0
 62
     0
 10
40.0953
 20
4.64813
 30
0.0
 11
39.8833
 21
4.23058
 31
0.0
  0
LINE
  8
0
 62
     0
 10
39.8833
 20
4.23058
 30
0.0
 11
39.551
 21
3.89848
 31
0.0
  0
LINE
  8
0
 62
     0
 10
39.551
 20
3.89848
 30
0.0
 11
39.1322
 21
3.68487
 31
0.0
  0
LINE
  8
0
 62
     0
 10
39.1322
 20
3.68487
 30
0.0
 11
38.669
 21
3.61184
 31
0.0
  0
LINE
  8
0
 62
     0
 10
38.669
 20
3.61184
 30
0.0
 11
38.2048
 21
3.68487
 31
0.0
  0
LINE
  8
0
 62
     0
 10
38.2048
 20
3.68487
 30
0.0
 11
37.7871
 21
3.89848
 31
0.0
  0
LINE
  8
0
 62
     0
 10
37.7871
 20
3.89848
 30
0.0
 11
37.4551
 21
4.23058
 31
0.0
  0
LINE
  8
0
 62
     0
 10
37.4551
 20
4.23058
 30
0.0
 11
37.2413
 21
4.64813
 31
0.0
  0
LINE
  8
0
 62
     0
 10
37.2413
 20
4.64813
 30
0.0
 11
37.1683
 21
5.11253
 31
0.0
  0
LINE
  8
0
 62
     0
 10
37.1683
 20
5.11253
 30
0.0
 11
37.2413
 21
5.57692
 31
0.0
  0
LINE
  8
0
 62
     0
 10
37.2413
 20
5.57692
 30
0.0
 11
37.4551
 21
5.99447
 31
0.0
  0
LINE
  8
0
 62
     0
 10
37.4551
 20
5.99447
 30
0.0
 11
37.7871
 21
6.32658
 31
0.0
  0
LINE
  8
0
 62
     0
 10
37.7871
 20
6.32658
 30
0.0
 11
38.2048
 21
6.53881
 31
0.0
  0
LINE
  8
0
 62
     0
 10
38.2048
 20
6.53881
 30
0.0
 11
38.669
 21
6.61183
 31
0.0
  0
LINE
  8
0
 62
     0
 10
5.09323
 20
6.61183
 30
0.0
 11
5.55763
 21
6.53881
 31
0.0
  0
LINE
  8
0
 62
     0
 10
5.55763
 20
6.53881
 30
0.0
 11
5.97517
 21
6.32658
 31
0.0
  0
LINE
  8
0
 62
     0
 10
5.97517
 20
6.32658
 30
0.0
 11
6.30728
 21
5.99447
 31
0.0
  0
LINE
  8
0
 62
     0
 10
6.30728
 20
5.99447
 30
0.0
 11
6.52089
 21
5.57692
 31
0.0
  0
LINE
  8
0
 62
     0
 10
6.52089
 20
5.57692
 30
0.0
 11
6.59391
 21
5.11253
 31
0.0
  0
LINE
  8
0
 62
     0
 10
6.59391
 20
5.11253
 30
0.0
 11
6.52089
 21
4.64813
 31
0.0
  0
LINE
  8
0
 62
     0
 10
6.52089
 20
4.64813
 30
0.0
 11
6.30728
 21
4.23058
 31
0.0
  0
LINE
  8
0
 62
     0
 10
6.30728
 20
4.23058
 30
0.0
 11
5.97517
 21
3.89848
 31
0.0
  0
LINE
  8
0
 62
     0
 10
5.97517
 20
3.89848
 30
0.0
 11
5.55763
 21
3.68487
 31
0.0
  0
LINE
  8
0
 62
     0
 10
5.55763
 20
3.68487
 30
0.0
 11
5.09323
 21
3.61184
 31
0.0
  0
LINE
  8
0
 62
     0
 10
5.09323
 20
3.61184
 30
0.0
 11
4.63021
 21
3.68487
 31
0.0
  0
LINE
  8
0
 62
     0
 10
4.63021
 20
3.68487
 30
0.0
 11
4.21128
 21
3.89848
 31
0.0
  0
LINE
  8
0
 62
     0
 10
4.21128
 20
3.89848
 30
0.0
 11
3.87918
 21
4.23058
 31
0.0
  0
LINE
  8
0
 62
     0
 10
3.87918
 20
4.23058
 30
0.0
 11
3.66695
 21
4.64813
 31
0.0
  0
LINE
  8
0
 62
     0
 10
3.66695
 20
4.64813
 30
0.0
 11
3.59392
 21
5.11253
 31
0.0
  0
LINE
  8
0
 62
     0
 10
3.59392
 20
5.11253
 30
0.0
 11
3.66695
 21
5.57692
 31
0.0
  0
LINE
  8
0
 62
     0
 10
3.66695
 20
5.57692
 30
0.0
 11
3.87918
 21
5.99447
 31
0.0
  0
LINE
  8
0
 62
     0
 10
3.87918
 20
5.99447
 30
0.0
 11
4.21128
 21
6.32658
 31
0.0
  0
LINE
  8
0
 62
     0
 10
4.21128
 20
6.32658
 30
0.0
 11
4.63021
 21
6.53881
 31
0.0
  0
LINE
  8
0
 62
     0
 10
4.63021
 20
6.53881
 30
0.0
 11
5.09323
 21
6.61183
 31
0.0
  0
LINE
  8
0
 62
     0
 10
5.09323
 20
73.5238
 30
0.0
 11
5.55763
 21
73.4508
 31
0.0
  0
LINE
  8
0
 62
     0
 10
5.55763
 20
73.4508
 30
0.0
 11
5.97517
 21
73.2384
 31
0.0
  0
LINE
  8
0
 62
     0
 10
5.97517
 20
73.2384
 30
0.0
 11
6.30728
 21
72.9065
 31
0.0
  0
LINE
  8
0
 62
     0
 10
6.30728
 20
72.9065
 30
0.0
 11
6.52089
 21
72.4888
 31
0.0
  0
LINE
  8
0
 62
     0
 10
6.52089
 20
72.4888
 30
0.0
 11
6.59391
 21
72.0245
 31
0.0
  0
LINE
  8
0
 62
     0
 10
6.59391
 20
72.0245
 30
0.0
 11
6.52089
 21
71.5617
 31
0.0
  0
LINE
  8
0
 62
     0
 10
6.52089
 20
71.5617
 30
0.0
 11
6.30728
 21
71.144
 31
0.0
  0
LINE
  8
0
 62
     0
 10
6.30728
 20
71.144
 30
0.0
 11
5.97517
 21
70.812
 31
0.0
  0
LINE
  8
0
 62
     0
 10
5.97517
 20
70.812
 30
0.0
 11
5.55763
 21
70.5982
 31
0.0
  0
LINE
  8
0
 62
     0
 10
5.55763
 20
70.5982
 30
0.0
 11
5.09323
 21
70.5238
 31
0.0
  0
LINE
  8
0
 62
     0
 10
5.09323
 20
70.5238
 30
0.0
 11
4.63021
 21
70.5982
 31
0.0
  0
LINE
  8
0
 62
     0
 10
4.63021
 20
70.5982
 30
0.0
 11
4.21128
 21
70.812
 31
0.0
  0
LINE
  8
0
 62
     0
 10
4.21128
 20
70.812
 30
0.0
 11
3.87918
 21
71.144
 31
0.0
  0
LINE
  8
0
 62
     0
 10
3.87918
 20
71.144
 30
0.0
 11
3.66695
 21
71.5617
 31
0.0
  0
LINE
  8
0
 62
     0
 10
3.66695
 20
71.5617
 30
0.0
 11
3.59392
 21
72.0245
 31
0.0
  0
LINE
  8
0
 62
     0
 10
3.59392
 20
72.0245
 30
0.0
 11
3.66695
 21
72.4888
 31
0.0
  0
LINE
  8
0
 62
     0
 10
3.66695
 20
72.4888
 30
0.0
 11
3.87918
 21
72.9065
 31
0.0
  0
LINE
  8
0
 62
     0
 10
3.87918
 20
72.9065
 30
0.0
 11
4.21128
 21
73.2384
 31
0.0
  0
LINE
  8
0
 62
     0
 10
4.21128
 20
73.2384
 30
0.0
 11
4.63021
 21
73.4508
 31
0.0
  0
LINE
  8
0
 62
     0
 10
4.63021
 20
73.4508
 30
0.0
 11
5.09323
 21
73.5238
 31
0.0
  0
LINE
  8
0
 62
     0
 10
5.09323
 20
140.437
 30
0.0
 11
5.55763
 21
140.364
 31
0.0
  0
LINE
  8
0
 62
     0
 10
5.55763
 20
140.364
 30
0.0
 11
5.97517
 21
140.152
 31
0.0
  0
LINE
  8
0
 62
     0
 10
5.97517
 20
140.152
 30
0.0
 11
6.30728
 21
139.82
 31
0.0
  0
LINE
  8
0
 62
     0
 10
6.30728
 20
139.82
 30
0.0
 11
6.52089
 21
139.401
 31
0.0
  0
LINE
  8
0
 62
     0
 10
6.52089
 20
139.401
 30
0.0
 11
6.59391
 21
138.938
 31
0.0
  0
LINE
  8
0
 62
     0
 10
6.59391
 20
138.938
 30
0.0
 11
6.52089
 21
138.473
 31
0.0
  0
LINE
  8
0
 62
     0
 10
6.52089
 20
138.473
 30
0.0
 11
6.30728
 21
138.056
 31
0.0
  0
LINE
  8
0
 62
     0
 10
6.30728
 20
138.056
 30
0.0
 11
5.97517
 21
137.724
 31
0.0
  0
LINE
  8
0
 62
     0
 10
5.97517
 20
137.724
 30
0.0
 11
5.55763
 21
137.51
 31
0.0
  0
LINE
  8
0
 62
     0
 10
5.55763
 20
137.51
 30
0.0
 11
5.09323
 21
137.437
 31
0.0
  0
LINE
  8
0
 62
     0
 10
5.09323
 20
137.437
 30
0.0
 11
4.63021
 21
137.51
 31
0.0
  0
LINE
  8
0
 62
     0
 10
4.63021
 20
137.51
 30
0.0
 11
4.21128
 21
137.724
 31
0.0
  0
LINE
  8
0
 62
     0
 10
4.21128
 20
137.724
 30
0.0
 11
3.87918
 21
138.056
 31
0.0
  0
LINE
  8
0
 62
     0
 10
3.87918
 20
138.056
 30
0.0
 11
3.66695
 21
138.473
 31
0.0
  0
LINE
  8
0
 62
     0
 10
3.66695
 20
138.473
 30
0.0
 11
3.59392
 21
138.938
 31
0.0
  0
LINE
  8
0
 62
     0
 10
3.59392
 20
138.938
 30
0.0
 11
3.66695
 21
139.401
 31
0.0
  0
LINE
  8
0
 62
     0
 10
3.66695
 20
139.401
 30
0.0
 11
3.87918
 21
139.82
 31
0.0
  0
LINE
  8
0
 62
     0
 10
3.87918
 20
139.82
 30
0.0
 11
4.21128
 21
140.152
 31
0.0
  0
LINE
  8
0
 62
     0
 10
4.21128
 20
140.152
 30
0.0
 11
4.63021
 21
140.364
 31
0.0
  0
LINE
  8
0
 62
     0
 10
4.63021
 20
140.364
 30
0.0
 11
5.09323
 21
140.437
 31
0.0
  0
ENDSEC
  0
EOF
