  0
SECTION
  2
HEADER
  9
$ACADVER
  1
AC1009
  9
$EXTMIN
 10
0.0
 20
0.0
 30
0.0
  9
$EXTMAX
 10
1000.0
 20
1000.0
 30
0.0
  9
$FILLMODE
 70
 0
  9
$SPLFRAME
 70
 1
  0
ENDSEC
  0
SECTION
  2
TABLES
  0
TABLE
  2
LAYER
 70
1
  0
LAYER
  2
0
 70
     0
 62
     7
  6
CONTINUOUS
  0
ENDTAB
  0
ENDSEC
  0
SECTION
  2
ENTITIES
  0
LINE
  8
0
 62
     0
 10
0.0937066
 20
39.1555
 30
0.0
 11
139.156
 21
39.1555
 31
0.0
  0
LINE
  8
0
 62
     0
 10
139.156
 20
39.1555
 30
0.0
 11
139.156
 21
0.107487
 31
0.0
  0
LINE
  8
0
 62
     0
 10
139.156
 20
0.107487
 30
0.0
 11
0.0937066
 21
0.107487
 31
0.0
  0
LINE
  8
0
 62
     0
 10
0.0937066
 20
0.107487
 30
0.0
 11
0.0937066
 21
39.1555
 31
0.0
  0
LINE
  8
0
 62
     0
 10
10.0941
 20
29.1565
 30
0.0
 11
129.155
 21
29.1565
 31
0.0
  0
LINE
  8
0
 62
     0
 10
129.155
 20
29.1565
 30
0.0
 11
129.155
 21
10.1065
 31
0.0
  0
LINE
  8
0
 62
     0
 10
129.155
 20
10.1065
 30
0.0
 11
10.0941
 21
10.1065
 31
0.0
  0
LINE
  8
0
 62
     0
 10
10.0941
 20
10.1065
 30
0.0
 11
10.0941
 21
29.1565
 31
0.0
  0
LINE
  8
0
 62
     0
 10
48.1143
 20
35.6553
 30
0.0
 11
48.5771
 21
35.5822
 31
0.0
  0
LINE
  8
0
 62
     0
 10
48.5771
 20
35.5822
 30
0.0
 11
48.9962
 21
35.3716
 31
0.0
  0
LINE
  8
0
 62
     0
 10
48.9962
 20
35.3716
 30
0.0
 11
49.3282
 21
35.038
 31
0.0
  0
LINE
  8
0
 62
     0
 10
49.3282
 20
35.038
 30
0.0
 11
49.5406
 21
34.6204
 31
0.0
  0
LINE
  8
0
 62
     0
 10
49.5406
 20
34.6204
 30
0.0
 11
49.615
 21
34.156
 31
0.0
  0
LINE
  8
0
 62
     0
 10
49.615
 20
34.156
 30
0.0
 11
49.5406
 21
33.6917
 31
0.0
  0
LINE
  8
0
 62
     0
 10
49.5406
 20
33.6917
 30
0.0
 11
49.3282
 21
33.2741
 31
0.0
  0
LINE
  8
0
 62
     0
 10
49.3282
 20
33.2741
 30
0.0
 11
48.9962
 21
32.942
 31
0.0
  0
LINE
  8
0
 62
     0
 10
48.9962
 20
32.942
 30
0.0
 11
48.5771
 21
32.7298
 31
0.0
  0
LINE
  8
0
 62
     0
 10
48.5771
 20
32.7298
 30
0.0
 11
48.1143
 21
32.6567
 31
0.0
  0
LINE
  8
0
 62
     0
 10
48.1143
 20
32.6567
 30
0.0
 11
47.6511
 21
32.7298
 31
0.0
  0
LINE
  8
0
 62
     0
 10
47.6511
 20
32.7298
 30
0.0
 11
47.2324
 21
32.942
 31
0.0
  0
LINE
  8
0
 62
     0
 10
47.2324
 20
32.942
 30
0.0
 11
46.9
 21
33.2741
 31
0.0
  0
LINE
  8
0
 62
     0
 10
46.9
 20
33.2741
 30
0.0
 11
46.688
 21
33.6917
 31
0.0
  0
LINE
  8
0
 62
     0
 10
46.688
 20
33.6917
 30
0.0
 11
46.615
 21
34.156
 31
0.0
  0
LINE
  8
0
 62
     0
 10
46.615
 20
34.156
 30
0.0
 11
46.688
 21
34.6204
 31
0.0
  0
LINE
  8
0
 62
     0
 10
46.688
 20
34.6204
 30
0.0
 11
46.9
 21
35.038
 31
0.0
  0
LINE
  8
0
 62
     0
 10
46.9
 20
35.038
 30
0.0
 11
47.2324
 21
35.3716
 31
0.0
  0
LINE
  8
0
 62
     0
 10
47.2324
 20
35.3716
 30
0.0
 11
47.6511
 21
35.5822
 31
0.0
  0
LINE
  8
0
 62
     0
 10
47.6511
 20
35.5822
 30
0.0
 11
48.1143
 21
35.6553
 31
0.0
  0
LINE
  8
0
 62
     0
 10
91.1352
 20
35.6553
 30
0.0
 11
91.598
 21
35.5822
 31
0.0
  0
LINE
  8
0
 62
     0
 10
91.598
 20
35.5822
 30
0.0
 11
92.0171
 21
35.3716
 31
0.0
  0
LINE
  8
0
 62
     0
 10
92.0171
 20
35.3716
 30
0.0
 11
92.3491
 21
35.038
 31
0.0
  0
LINE
  8
0
 62
     0
 10
92.3491
 20
35.038
 30
0.0
 11
92.5615
 21
34.6204
 31
0.0
  0
LINE
  8
0
 62
     0
 10
92.5615
 20
34.6204
 30
0.0
 11
92.6359
 21
34.156
 31
0.0
  0
LINE
  8
0
 62
     0
 10
92.6359
 20
34.156
 30
0.0
 11
92.5615
 21
33.6917
 31
0.0
  0
LINE
  8
0
 62
     0
 10
92.5615
 20
33.6917
 30
0.0
 11
92.3491
 21
33.2741
 31
0.0
  0
LINE
  8
0
 62
     0
 10
92.3491
 20
33.2741
 30
0.0
 11
92.0171
 21
32.942
 31
0.0
  0
LINE
  8
0
 62
     0
 10
92.0171
 20
32.942
 30
0.0
 11
91.598
 21
32.7298
 31
0.0
  0
LINE
  8
0
 62
     0
 10
91.598
 20
32.7298
 30
0.0
 11
91.1352
 21
32.6567
 31
0.0
  0
LINE
  8
0
 62
     0
 10
91.1352
 20
32.6567
 30
0.0
 11
90.672
 21
32.7298
 31
0.0
  0
LINE
  8
0
 62
     0
 10
90.672
 20
32.7298
 30
0.0
 11
90.2533
 21
32.942
 31
0.0
  0
LINE
  8
0
 62
     0
 10
90.2533
 20
32.942
 30
0.0
 11
89.9213
 21
33.2741
 31
0.0
  0
LINE
  8
0
 62
     0
 10
89.9213
 20
33.2741
 30
0.0
 11
89.7089
 21
33.6917
 31
0.0
  0
LINE
  8
0
 62
     0
 10
89.7089
 20
33.6917
 30
0.0
 11
89.6359
 21
34.156
 31
0.0
  0
LINE
  8
0
 62
     0
 10
89.6359
 20
34.156
 30
0.0
 11
89.7089
 21
34.6204
 31
0.0
  0
LINE
  8
0
 62
     0
 10
89.7089
 20
34.6204
 30
0.0
 11
89.9213
 21
35.038
 31
0.0
  0
LINE
  8
0
 62
     0
 10
89.9213
 20
35.038
 30
0.0
 11
90.2533
 21
35.3716
 31
0.0
  0
LINE
  8
0
 62
     0
 10
90.2533
 20
35.3716
 30
0.0
 11
90.672
 21
35.5822
 31
0.0
  0
LINE
  8
0
 62
     0
 10
90.672
 20
35.5822
 30
0.0
 11
91.1352
 21
35.6553
 31
0.0
  0
LINE
  8
0
 62
     0
 10
134.156
 20
35.6553
 30
0.0
 11
134.619
 21
35.5822
 31
0.0
  0
LINE
  8
0
 62
     0
 10
134.619
 20
35.5822
 30
0.0
 11
135.038
 21
35.3716
 31
0.0
  0
LINE
  8
0
 62
     0
 10
135.038
 20
35.3716
 30
0.0
 11
135.37
 21
35.038
 31
0.0
  0
LINE
  8
0
 62
     0
 10
135.37
 20
35.038
 30
0.0
 11
135.582
 21
34.6204
 31
0.0
  0
LINE
  8
0
 62
     0
 10
135.582
 20
34.6204
 30
0.0
 11
135.657
 21
34.156
 31
0.0
  0
LINE
  8
0
 62
     0
 10
135.657
 20
34.156
 30
0.0
 11
135.582
 21
33.6917
 31
0.0
  0
LINE
  8
0
 62
     0
 10
135.582
 20
33.6917
 30
0.0
 11
135.37
 21
33.2741
 31
0.0
  0
LINE
  8
0
 62
     0
 10
135.37
 20
33.2741
 30
0.0
 11
135.038
 21
32.942
 31
0.0
  0
LINE
  8
0
 62
     0
 10
135.038
 20
32.942
 30
0.0
 11
134.619
 21
32.7298
 31
0.0
  0
LINE
  8
0
 62
     0
 10
134.619
 20
32.7298
 30
0.0
 11
134.156
 21
32.6567
 31
0.0
  0
LINE
  8
0
 62
     0
 10
134.156
 20
32.6567
 30
0.0
 11
133.693
 21
32.7298
 31
0.0
  0
LINE
  8
0
 62
     0
 10
133.693
 20
32.7298
 30
0.0
 11
133.274
 21
32.942
 31
0.0
  0
LINE
  8
0
 62
     0
 10
133.274
 20
32.942
 30
0.0
 11
132.942
 21
33.2741
 31
0.0
  0
LINE
  8
0
 62
     0
 10
132.942
 20
33.2741
 30
0.0
 11
132.73
 21
33.6917
 31
0.0
  0
LINE
  8
0
 62
     0
 10
132.73
 20
33.6917
 30
0.0
 11
132.655
 21
34.156
 31
0.0
  0
LINE
  8
0
 62
     0
 10
132.655
 20
34.156
 30
0.0
 11
132.73
 21
34.6204
 31
0.0
  0
LINE
  8
0
 62
     0
 10
132.73
 20
34.6204
 30
0.0
 11
132.942
 21
35.038
 31
0.0
  0
LINE
  8
0
 62
     0
 10
132.942
 20
35.038
 30
0.0
 11
133.274
 21
35.3716
 31
0.0
  0
LINE
  8
0
 62
     0
 10
133.274
 20
35.3716
 30
0.0
 11
133.693
 21
35.5822
 31
0.0
  0
LINE
  8
0
 62
     0
 10
133.693
 20
35.5822
 30
0.0
 11
134.156
 21
35.6553
 31
0.0
  0
LINE
  8
0
 62
     0
 10
134.156
 20
6.60633
 30
0.0
 11
134.619
 21
6.53327
 31
0.0
  0
LINE
  8
0
 62
     0
 10
134.619
 20
6.53327
 30
0.0
 11
135.038
 21
6.3197
 31
0.0
  0
LINE
  8
0
 62
     0
 10
135.038
 20
6.3197
 30
0.0
 11
135.37
 21
5.98897
 31
0.0
  0
LINE
  8
0
 62
     0
 10
135.37
 20
5.98897
 30
0.0
 11
135.582
 21
5.57004
 31
0.0
  0
LINE
  8
0
 62
     0
 10
135.582
 20
5.57004
 30
0.0
 11
135.657
 21
5.10702
 31
0.0
  0
LINE
  8
0
 62
     0
 10
135.657
 20
5.10702
 30
0.0
 11
135.582
 21
4.64125
 31
0.0
  0
LINE
  8
0
 62
     0
 10
135.582
 20
4.64125
 30
0.0
 11
135.37
 21
4.22508
 31
0.0
  0
LINE
  8
0
 62
     0
 10
135.37
 20
4.22508
 30
0.0
 11
135.038
 21
3.8916
 31
0.0
  0
LINE
  8
0
 62
     0
 10
135.038
 20
3.8916
 30
0.0
 11
134.619
 21
3.67937
 31
0.0
  0
LINE
  8
0
 62
     0
 10
134.619
 20
3.67937
 30
0.0
 11
134.156
 21
3.60634
 31
0.0
  0
LINE
  8
0
 62
     0
 10
134.156
 20
3.60634
 30
0.0
 11
133.693
 21
3.67937
 31
0.0
  0
LINE
  8
0
 62
     0
 10
133.693
 20
3.67937
 30
0.0
 11
133.274
 21
3.8916
 31
0.0
  0
LINE
  8
0
 62
     0
 10
133.274
 20
3.8916
 30
0.0
 11
132.942
 21
4.22508
 31
0.0
  0
LINE
  8
0
 62
     0
 10
132.942
 20
4.22508
 30
0.0
 11
132.73
 21
4.64125
 31
0.0
  0
LINE
  8
0
 62
     0
 10
132.73
 20
4.64125
 30
0.0
 11
132.655
 21
5.10702
 31
0.0
  0
LINE
  8
0
 62
     0
 10
132.655
 20
5.10702
 30
0.0
 11
132.73
 21
5.57004
 31
0.0
  0
LINE
  8
0
 62
     0
 10
132.73
 20
5.57004
 30
0.0
 11
132.942
 21
5.98897
 31
0.0
  0
LINE
  8
0
 62
     0
 10
132.942
 20
5.98897
 30
0.0
 11
133.274
 21
6.3197
 31
0.0
  0
LINE
  8
0
 62
     0
 10
133.274
 20
6.3197
 30
0.0
 11
133.693
 21
6.53327
 31
0.0
  0
LINE
  8
0
 62
     0
 10
133.693
 20
6.53327
 30
0.0
 11
134.156
 21
6.60633
 31
0.0
  0
LINE
  8
0
 62
     0
 10
91.1352
 20
6.60633
 30
0.0
 11
91.598
 21
6.53327
 31
0.0
  0
LINE
  8
0
 62
     0
 10
91.598
 20
6.53327
 30
0.0
 11
92.0171
 21
6.3197
 31
0.0
  0
LINE
  8
0
 62
     0
 10
92.0171
 20
6.3197
 30
0.0
 11
92.3491
 21
5.98897
 31
0.0
  0
LINE
  8
0
 62
     0
 10
92.3491
 20
5.98897
 30
0.0
 11
92.5615
 21
5.57004
 31
0.0
  0
LINE
  8
0
 62
     0
 10
92.5615
 20
5.57004
 30
0.0
 11
92.6359
 21
5.10702
 31
0.0
  0
LINE
  8
0
 62
     0
 10
92.6359
 20
5.10702
 30
0.0
 11
92.5615
 21
4.64125
 31
0.0
  0
LINE
  8
0
 62
     0
 10
92.5615
 20
4.64125
 30
0.0
 11
92.3491
 21
4.22508
 31
0.0
  0
LINE
  8
0
 62
     0
 10
92.3491
 20
4.22508
 30
0.0
 11
92.0171
 21
3.8916
 31
0.0
  0
LINE
  8
0
 62
     0
 10
92.0171
 20
3.8916
 30
0.0
 11
91.598
 21
3.67937
 31
0.0
  0
LINE
  8
0
 62
     0
 10
91.598
 20
3.67937
 30
0.0
 11
91.1352
 21
3.60634
 31
0.0
  0
LINE
  8
0
 62
     0
 10
91.1352
 20
3.60634
 30
0.0
 11
90.672
 21
3.67937
 31
0.0
  0
LINE
  8
0
 62
     0
 10
90.672
 20
3.67937
 30
0.0
 11
90.2533
 21
3.8916
 31
0.0
  0
LINE
  8
0
 62
     0
 10
90.2533
 20
3.8916
 30
0.0
 11
89.9213
 21
4.22508
 31
0.0
  0
LINE
  8
0
 62
     0
 10
89.9213
 20
4.22508
 30
0.0
 11
89.7089
 21
4.64125
 31
0.0
  0
LINE
  8
0
 62
     0
 10
89.7089
 20
4.64125
 30
0.0
 11
89.6359
 21
5.10702
 31
0.0
  0
LINE
  8
0
 62
     0
 10
89.6359
 20
5.10702
 30
0.0
 11
89.7089
 21
5.57004
 31
0.0
  0
LINE
  8
0
 62
     0
 10
89.7089
 20
5.57004
 30
0.0
 11
89.9213
 21
5.98897
 31
0.0
  0
LINE
  8
0
 62
     0
 10
89.9213
 20
5.98897
 30
0.0
 11
90.2533
 21
6.3197
 31
0.0
  0
LINE
  8
0
 62
     0
 10
90.2533
 20
6.3197
 30
0.0
 11
90.672
 21
6.53327
 31
0.0
  0
LINE
  8
0
 62
     0
 10
90.672
 20
6.53327
 30
0.0
 11
91.1352
 21
6.60633
 31
0.0
  0
LINE
  8
0
 62
     0
 10
48.1143
 20
6.60633
 30
0.0
 11
48.5771
 21
6.53327
 31
0.0
  0
LINE
  8
0
 62
     0
 10
48.5771
 20
6.53327
 30
0.0
 11
48.9962
 21
6.3197
 31
0.0
  0
LINE
  8
0
 62
     0
 10
48.9962
 20
6.3197
 30
0.0
 11
49.3282
 21
5.98897
 31
0.0
  0
LINE
  8
0
 62
     0
 10
49.3282
 20
5.98897
 30
0.0
 11
49.5406
 21
5.57004
 31
0.0
  0
LINE
  8
0
 62
     0
 10
49.5406
 20
5.57004
 30
0.0
 11
49.615
 21
5.10702
 31
0.0
  0
LINE
  8
0
 62
     0
 10
49.615
 20
5.10702
 30
0.0
 11
49.5406
 21
4.64125
 31
0.0
  0
LINE
  8
0
 62
     0
 10
49.5406
 20
4.64125
 30
0.0
 11
49.3282
 21
4.22508
 31
0.0
  0
LINE
  8
0
 62
     0
 10
49.3282
 20
4.22508
 30
0.0
 11
48.9962
 21
3.8916
 31
0.0
  0
LINE
  8
0
 62
     0
 10
48.9962
 20
3.8916
 30
0.0
 11
48.5771
 21
3.67937
 31
0.0
  0
LINE
  8
0
 62
     0
 10
48.5771
 20
3.67937
 30
0.0
 11
48.1143
 21
3.60634
 31
0.0
  0
LINE
  8
0
 62
     0
 10
48.1143
 20
3.60634
 30
0.0
 11
47.6511
 21
3.67937
 31
0.0
  0
LINE
  8
0
 62
     0
 10
47.6511
 20
3.67937
 30
0.0
 11
47.2324
 21
3.8916
 31
0.0
  0
LINE
  8
0
 62
     0
 10
47.2324
 20
3.8916
 30
0.0
 11
46.9
 21
4.22508
 31
0.0
  0
LINE
  8
0
 62
     0
 10
46.9
 20
4.22508
 30
0.0
 11
46.688
 21
4.64125
 31
0.0
  0
LINE
  8
0
 62
     0
 10
46.688
 20
4.64125
 30
0.0
 11
46.615
 21
5.10702
 31
0.0
  0
LINE
  8
0
 62
     0
 10
46.615
 20
5.10702
 30
0.0
 11
46.688
 21
5.57004
 31
0.0
  0
LINE
  8
0
 62
     0
 10
46.688
 20
5.57004
 30
0.0
 11
46.9
 21
5.98897
 31
0.0
  0
LINE
  8
0
 62
     0
 10
46.9
 20
5.98897
 30
0.0
 11
47.2324
 21
6.3197
 31
0.0
  0
LINE
  8
0
 62
     0
 10
47.2324
 20
6.3197
 30
0.0
 11
47.6511
 21
6.53327
 31
0.0
  0
LINE
  8
0
 62
     0
 10
47.6511
 20
6.53327
 30
0.0
 11
48.1143
 21
6.60633
 31
0.0
  0
LINE
  8
0
 62
     0
 10
5.09323
 20
6.60633
 30
0.0
 11
5.55763
 21
6.53327
 31
0.0
  0
LINE
  8
0
 62
     0
 10
5.55763
 20
6.53327
 30
0.0
 11
5.97517
 21
6.3197
 31
0.0
  0
LINE
  8
0
 62
     0
 10
5.97517
 20
6.3197
 30
0.0
 11
6.30728
 21
5.98897
 31
0.0
  0
LINE
  8
0
 62
     0
 10
6.30728
 20
5.98897
 30
0.0
 11
6.52089
 21
5.57004
 31
0.0
  0
LINE
  8
0
 62
     0
 10
6.52089
 20
5.57004
 30
0.0
 11
6.59391
 21
5.10702
 31
0.0
  0
LINE
  8
0
 62
     0
 10
6.59391
 20
5.10702
 30
0.0
 11
6.52089
 21
4.64125
 31
0.0
  0
LINE
  8
0
 62
     0
 10
6.52089
 20
4.64125
 30
0.0
 11
6.30728
 21
4.22508
 31
0.0
  0
LINE
  8
0
 62
     0
 10
6.30728
 20
4.22508
 30
0.0
 11
5.97517
 21
3.8916
 31
0.0
  0
LINE
  8
0
 62
     0
 10
5.97517
 20
3.8916
 30
0.0
 11
5.55763
 21
3.67937
 31
0.0
  0
LINE
  8
0
 62
     0
 10
5.55763
 20
3.67937
 30
0.0
 11
5.09323
 21
3.60634
 31
0.0
  0
LINE
  8
0
 62
     0
 10
5.09323
 20
3.60634
 30
0.0
 11
4.63021
 21
3.67937
 31
0.0
  0
LINE
  8
0
 62
     0
 10
4.63021
 20
3.67937
 30
0.0
 11
4.21128
 21
3.8916
 31
0.0
  0
LINE
  8
0
 62
     0
 10
4.21128
 20
3.8916
 30
0.0
 11
3.87918
 21
4.22508
 31
0.0
  0
LINE
  8
0
 62
     0
 10
3.87918
 20
4.22508
 30
0.0
 11
3.66695
 21
4.64125
 31
0.0
  0
LINE
  8
0
 62
     0
 10
3.66695
 20
4.64125
 30
0.0
 11
3.59392
 21
5.10702
 31
0.0
  0
LINE
  8
0
 62
     0
 10
3.59392
 20
5.10702
 30
0.0
 11
3.66695
 21
5.57004
 31
0.0
  0
LINE
  8
0
 62
     0
 10
3.66695
 20
5.57004
 30
0.0
 11
3.87918
 21
5.98897
 31
0.0
  0
LINE
  8
0
 62
     0
 10
3.87918
 20
5.98897
 30
0.0
 11
4.21128
 21
6.3197
 31
0.0
  0
LINE
  8
0
 62
     0
 10
4.21128
 20
6.3197
 30
0.0
 11
4.63021
 21
6.53327
 31
0.0
  0
LINE
  8
0
 62
     0
 10
4.63021
 20
6.53327
 30
0.0
 11
5.09323
 21
6.60633
 31
0.0
  0
LINE
  8
0
 62
     0
 10
5.09323
 20
35.6553
 30
0.0
 11
5.55763
 21
35.5822
 31
0.0
  0
LINE
  8
0
 62
     0
 10
5.55763
 20
35.5822
 30
0.0
 11
5.97517
 21
35.3716
 31
0.0
  0
LINE
  8
0
 62
     0
 10
5.97517
 20
35.3716
 30
0.0
 11
6.30728
 21
35.038
 31
0.0
  0
LINE
  8
0
 62
     0
 10
6.30728
 20
35.038
 30
0.0
 11
6.52089
 21
34.6204
 31
0.0
  0
LINE
  8
0
 62
     0
 10
6.52089
 20
34.6204
 30
0.0
 11
6.59391
 21
34.156
 31
0.0
  0
LINE
  8
0
 62
     0
 10
6.59391
 20
34.156
 30
0.0
 11
6.52089
 21
33.6917
 31
0.0
  0
LINE
  8
0
 62
     0
 10
6.52089
 20
33.6917
 30
0.0
 11
6.30728
 21
33.2741
 31
0.0
  0
LINE
  8
0
 62
     0
 10
6.30728
 20
33.2741
 30
0.0
 11
5.97517
 21
32.942
 31
0.0
  0
LINE
  8
0
 62
     0
 10
5.97517
 20
32.942
 30
0.0
 11
5.55763
 21
32.7298
 31
0.0
  0
LINE
  8
0
 62
     0
 10
5.55763
 20
32.7298
 30
0.0
 11
5.09323
 21
32.6567
 31
0.0
  0
LINE
  8
0
 62
     0
 10
5.09323
 20
32.6567
 30
0.0
 11
4.63021
 21
32.7298
 31
0.0
  0
LINE
  8
0
 62
     0
 10
4.63021
 20
32.7298
 30
0.0
 11
4.21128
 21
32.942
 31
0.0
  0
LINE
  8
0
 62
     0
 10
4.21128
 20
32.942
 30
0.0
 11
3.87918
 21
33.2741
 31
0.0
  0
LINE
  8
0
 62
     0
 10
3.87918
 20
33.2741
 30
0.0
 11
3.66695
 21
33.6917
 31
0.0
  0
LINE
  8
0
 62
     0
 10
3.66695
 20
33.6917
 30
0.0
 11
3.59392
 21
34.156
 31
0.0
  0
LINE
  8
0
 62
     0
 10
3.59392
 20
34.156
 30
0.0
 11
3.66695
 21
34.6204
 31
0.0
  0
LINE
  8
0
 62
     0
 10
3.66695
 20
34.6204
 30
0.0
 11
3.87918
 21
35.038
 31
0.0
  0
LINE
  8
0
 62
     0
 10
3.87918
 20
35.038
 30
0.0
 11
4.21128
 21
35.3716
 31
0.0
  0
LINE
  8
0
 62
     0
 10
4.21128
 20
35.3716
 30
0.0
 11
4.63021
 21
35.5822
 31
0.0
  0
LINE
  8
0
 62
     0
 10
4.63021
 20
35.5822
 30
0.0
 11
5.09323
 21
35.6553
 31
0.0
  0
ENDSEC
  0
EOF
