0
SECTION
2
HEADER
9
$INSUNITS
70
4
9
$ACADVER
1
AC1014
9
$HANDSEED
5
FFFF
0
ENDSEC
0
SECTION
2
TABLES
0
TABLE
2
VPORT
5
8
100
AcDbSymbolTable
0
ENDTAB
0
TABLE
2
LTYPE
5
5
100
AcDbSymbolTable
0
LTYPE
5
14
100
AcDbSymbolTableRecord
100
AcDbLinetypeTableRecord
2
BYBLOCK
70
0
0
LTYPE
5
15
100
AcDbSymbolTableRecord
100
AcDbLinetypeTableRecord
2
BYLAYER
70
0
0
ENDTAB
0
TABLE
2
LAYER
5
2
100
AcDbSymbolTable
70
2
0
LAYER
5
50
100
AcDbSymbolTableRecord
100
AcDbLayerTableRecord
2
0
70
0
6
CONTINUOUS
0
ENDTAB
0
TABLE
2
STYLE
5
3
100
AcDbSymbolTable
70
1
0
STYLE
5
11
100
AcDbSymbolTableRecord
100
AcDbTextStyleTableRecord
2
STANDARD
70
0
0
ENDTAB
0
TABLE
2
VIEW
5
6
100
AcDbSymbolTable
70
0
0
ENDTAB
0
TABLE
2
UCS
5
7
100
AcDbSymbolTable
70
0
0
ENDTAB
0
TABLE
2
APPID
5
9
100
AcDbSymbolTable
70
2
0
APPID
5
12
100
AcDbSymbolTableRecord
100
AcDbRegAppTableRecord
2
ACAD
70
0
0
ENDTAB
0
TABLE
2
DIMSTYLE
5
A
100
AcDbSymbolTable
70
1
0
ENDTAB
0
TABLE
2
BLOCK_RECORD
5
1
100
AcDbSymbolTable
70
1
0
BLOCK_RECORD
5
1F
100
AcDbSymbolTableRecord
100
AcDbBlockTableRecord
2
*MODEL_SPACE
0
BLOCK_RECORD
5
1B
100
AcDbSymbolTableRecord
100
AcDbBlockTableRecord
2
*PAPER_SPACE
0
ENDTAB
0
ENDSEC
0
SECTION
2
BLOCKS
0
BLOCK
5
20
100
AcDbEntity
100
AcDbBlockBegin
2
*MODEL_SPACE
0
ENDBLK
5
21
100
AcDbEntity
100
AcDbBlockEnd
0
BLOCK
5
1C
100
AcDbEntity
100
AcDbBlockBegin
2
*PAPER_SPACE
0
ENDBLK
5
1D
100
AcDbEntity
100
AcDbBlockEnd
0
ENDSEC
0
SECTION
2
ENTITIES
0
LWPOLYLINE
5
100
100
AcDbEntity
8
0
100
AcDbPolyline
90
18
70
1
43
0.0
10
180.2489361723915
20
34.736839336385508
10
153.56906818115516
20
171.99286135625854
42
0.41421354556320045
10
151.22419593618304
20
173.57449775430283
10
-3.503556128184742
20
143.49847869160232
42
-0.096289033716340469
10
-4.2667919970146606
20
143.49847871350437
10
-140.29449152199129
20
169.93958499846201
42
0.41421356237308943
10
-142.63936387963975
20
168.35794862231975
10
-169.31923184897403
20
31.101926715122961
42
0.41421356237310103
10
-167.73759547283177
20
28.757054357474562
10
-75.03437540924692
20
10.737373783452981
42
-0.35903668657693111
10
-73.415993400000005
20
8.7741194165576513
10
-73.415993400000005
20
-0.57336390330394282
42
0.41421356237309287
10
-71.415993400000005
20
-2.5733639033039473
10
63.646300000000018
20
-2.5733639033039424
42
0.41421356237309293
10
65.646300000000025
20
-0.57336390330394171
10
65.646300000000011
20
8.7742373276531556
42
-0.35903668657693399
10
67.264682009246926
20
10.737491694548487
10
178.66729979624932
20
32.391966978737081
42
0.41421356237311147
0
LWPOLYLINE
5
101
100
AcDbEntity
8
0
100
AcDbPolyline
90
20
70
1
43
0.0
10
175.40358790058974
20
38.08744435167884
10
174.95277234481986
20
38.216016928754549
10
174.48336445885784
20
38.199159971835186
10
174.04084069139702
20
38.038755372049735
10
173.67199754898809
20
37.75085728383462
10
173.40946689953796
20
37.3615004934748
10
173.28005260548309
20
36.910979747011034
10
173.29700361045437
20
36.441192842627281
10
173.45727409229892
20
35.999254235296675
10
173.74603297839272
20
35.630018120863305
10
174.13530087066189
20
35.367368319705356
10
174.58539811566192
20
35.237250288121096
10
175.05578953689746
20
35.25428823776403
10
175.49732976908484
20
35.414511844825931
10
175.86689122226352
20
35.70395538754957
10
176.12942377980357
20
36.093302361637562
10
176.25883807385844
20
36.543823108101336
10
176.24188516079732
20
37.013619828756923
10
176.08161658704273
20
37.455548619815687
10
175.7928577009489
20
37.82478473424905
0
LWPOLYLINE
5
102
100
AcDbEntity
8
0
100
AcDbPolyline
90
20
70
1
43
0.0
10
149.52074520119209
20
166.62070312299704
10
149.9622911576493
20
166.78089728124345
10
150.33177819531986
20
167.0707236585686
10
150.5943298337595
20
167.45997246993826
10
150.72384907276174
20
167.90995332145113
10
150.70678167430339
20
168.38033901841675
10
150.54677832505232
20
168.82090334769057
10
150.25774276591528
20
169.19156282153989
10
149.86849395454558
20
169.45411445997959
10
149.41772228484461
20
169.58246126280301
10
148.94831821506247
20
169.56558467333997
10
148.50579063142175
20
169.40519970609819
10
148.1369036029439
20
169.11752739213537
10
147.87435196450434
20
168.72827858076562
10
147.74521434349271
20
168.27633447488591
10
147.76190012396037
20
167.80791203228713
10
147.92228509120216
20
167.36538444864641
10
148.21093903234856
20
166.99668822916405
10
148.60018784371815
20
166.73413659072438
10
149.05035950422641
20
166.60363572453861
0
LWPOLYLINE
5
103
100
AcDbEntity
8
0
100
AcDbPolyline
90
20
70
1
43
0.0
10
160.9783505309839
20
101.31405013031389
10
161.36759934235354
20
101.05149849187427
10
161.81773284106271
20
100.9211939511252
10
162.28838567062186
20
100.93688707152678
10
162.72966449448558
20
101.09845550783001
10
163.09918969395517
20
101.38808555971849
10
163.36174133239481
20
101.77733437108814
10
163.49112700510034
20
102.22800236162945
10
163.47447938643174
20
102.69622847879151
10
163.31422798548684
20
103.13806892340378
10
163.02544047804366
20
103.50745228191464
10
162.63621074757353
20
103.76990575763593
10
162.18536275427448
20
103.89864521133283
10
161.71595868449231
20
103.88176862186978
10
161.27343110085155
20
103.721383654628
10
160.90462039597185
20
103.43331868979169
10
160.64204967663272
20
103.04416804114041
10
160.5126640039272
20
102.59350005059913
10
160.52959783608881
20
102.12380149266188
10
160.68956302354079
20
101.6834334888248
0
LWPOLYLINE
5
104
100
AcDbEntity
8
0
100
AcDbPolyline
90
20
70
1
43
0.0
10
66.21012328673784
20
151.05734431498712
10
66.34003517661354
20
151.50740149009815
10
66.324342056211961
20
151.97805431965728
10
66.162964428904104
20
152.41835151633757
10
65.873536218893619
20
152.78893466658874
10
65.48399291936893
20
153.05142906232982
10
65.033810225978058
20
153.17989035055058
10
64.565191457942618
20
153.16316640828381
10
64.123449176048709
20
153.00293408823828
10
63.753875008542437
20
152.71512820797858
10
63.491323370102826
20
152.32587939660897
10
63.362872888119654
20
151.87406885702597
10
63.379460505868998
20
151.40562733352763
10
63.539943635829125
20
150.96311883078653
10
63.827910437947068
20
150.59428904500732
10
64.217159249316651
20
150.3317374065677
10
64.668018048853369
20
150.20137010667861
10
65.13761844407226
20
150.21828485794083
10
65.578379098782719
20
150.37832636899088
10
65.947277160143202
20
150.66803826091882
0
LWPOLYLINE
5
105
100
AcDbEntity
8
0
100
AcDbPolyline
90
20
70
1
43
0.0
10
59.764300000000013
20
1.2107490966960557
10
59.432300000000012
20
1.5442290966960925
10
59.220300000000002
20
1.9603990966960796
10
59.14530000000002
20
2.4261690966960714
10
59.220300000000002
20
2.8891890966960787
10
59.432300000000012
20
3.3081190966960605
10
59.764300000000013
20
3.6388490966960774
10
60.183299999999988
20
3.8524190966960603
10
60.646300000000011
20
3.925479096696058
10
61.109299999999998
20
3.8524190966960603
10
61.52829999999998
20
3.6388490966960774
10
61.860300000000016
20
3.3081190966960605
10
62.072299999999991
20
2.8891890966960787
10
62.147300000000023
20
2.4261690966960714
10
62.072299999999991
20
1.9603990966960796
10
61.860300000000016
20
1.5442290966960925
10
61.52829999999998
20
1.2107490966960557
10
61.109299999999998
20
0.99851909669606442
10
60.646300000000011
20
0.92548909669606161
10
60.183299999999988
20
0.99851909669606442
0
LWPOLYLINE
5
106
100
AcDbEntity
8
0
100
AcDbPolyline
90
20
70
1
43
0.0
10
-67.534530000000004
20
3.6388490966960774
10
-67.202420000000004
20
3.3081190966960605
10
-66.988810000000001
20
2.8891890966960787
10
-66.915789999999987
20
2.4261690966960714
10
-66.988810000000001
20
1.9603990966960796
10
-67.202419999999989
20
1.5442290966960925
10
-67.534530000000004
20
1.2107490966960557
10
-67.952069999999992
20
0.99851909669606442
10
-68.416470000000004
20
0.92548909669606161
10
-68.87948999999999
20
0.99851909669606442
10
-69.298419999999993
20
1.2107490966960557
10
-69.63051999999999
20
1.544229096696057
10
-69.842749999999995
20
1.9603990966960796
10
-69.915780000000012
20
2.4261690966960714
10
-69.842749999999995
20
2.8891890966960787
10
-69.63051999999999
20
3.3081190966960605
10
-69.298419999999993
20
3.6388490966960774
10
-68.87948999999999
20
3.8524190966960603
10
-68.416470000000004
20
3.925479096696058
10
-67.952069999999992
20
3.8524190966960603
0
LINE
5
107
100
AcDbEntity
8
0
100
AcDbLine
10
148.94831821506247
20
169.56558467333997
30
0
11
148.50579063142175
21
169.40519970609819
31
0
0
LINE
5
108
100
AcDbEntity
8
0
100
AcDbLine
10
147.87435196450434
20
168.72827858076562
30
0
11
147.74521434349271
21
168.27633447488591
31
0
0
LINE
5
109
100
AcDbEntity
8
0
100
AcDbLine
10
66.324342056211961
20
151.97805431965728
30
0
11
66.162964428904104
21
152.41835151633757
31
0
0
LINE
5
110
100
AcDbEntity
8
0
100
AcDbLine
10
66.162964428904104
20
152.41835151633757
30
0
11
65.873536218893619
21
152.78893466658874
31
0
0
LINE
5
111
100
AcDbEntity
8
0
100
AcDbLine
10
63.362872888119654
20
151.87406885702597
30
0
11
63.379460505868998
21
151.40562733352763
31
0
0
LINE
5
112
100
AcDbEntity
8
0
100
AcDbLine
10
66.34003517661354
20
151.50740149009815
30
0
11
66.324342056211961
21
151.97805431965728
31
0
0
LINE
5
113
100
AcDbEntity
8
0
100
AcDbLine
10
149.41772228484461
20
169.58246126280301
30
0
11
148.94831821506247
21
169.56558467333997
31
0
0
LINE
5
114
100
AcDbEntity
8
0
100
AcDbLine
10
149.86849395454558
20
169.45411445997959
30
0
11
149.41772228484461
21
169.58246126280301
31
0
0
LINE
5
115
100
AcDbEntity
8
0
100
AcDbLine
10
63.379460505868998
20
151.40562733352763
30
0
11
63.539943635829125
21
150.96311883078653
31
0
0
LINE
5
116
100
AcDbEntity
8
0
100
AcDbLine
10
64.668018048853369
20
150.20137010667861
30
0
11
65.13761844407226
21
150.21828485794083
31
0
0
LWPOLYLINE
5
117
100
AcDbEntity
8
0
100
AcDbPolyline
90
20
70
1
43
0.0
10
91.482390187086921
20
19.301269989899815
10
91.113417710218201
20
19.011940932573388
10
90.672662779777639
20
18.851869972707792
10
90.20305666028888
20
18.834984670261182
10
89.752272276260371
20
18.964969135548657
10
89.363004383991239
20
19.227618936706609
10
89.074932636925809
20
19.596988617436747
10
88.914563992362901
20
20.038908143867815
10
88.897711150110013
20
20.508714129151105
10
89.026438305136509
20
20.959101309318115
10
89.288968954586622
20
21.348458099677924
10
89.658499236023943
20
21.63648975418981
10
90.100237701737939
20
21.796741706778956
10
90.568860285953278
20
21.81344601650202
10
91.019086865413129
20
21.684758954029096
10
91.408651153927266
20
21.422156579297909
10
91.697802690894434
20
21.052996788462686
10
91.859445542705899
20
20.611335129997453
10
91.87502417771023
20
20.141271276748334
10
91.745217232782025
20
19.69067420668641
0
LINE
5
118
100
AcDbEntity
8
0
100
AcDbLine
10
160.64204967663272
20
103.04416804114041
30
0
11
160.5126640039272
21
102.59350005059913
31
0
0
LINE
5
119
100
AcDbEntity
8
0
100
AcDbLine
10
150.72384907276174
20
167.90995332145113
30
0
11
150.70678167430339
21
168.38033901841675
31
0
0
LINE
5
120
100
AcDbEntity
8
0
100
AcDbLine
10
161.71595868449231
20
103.88176862186978
30
0
11
161.27343110085155
21
103.721383654628
31
0
0
LINE
5
121
100
AcDbEntity
8
0
100
AcDbLine
10
149.05035950422641
20
166.60363572453861
30
0
11
149.52074520119209
21
166.62070312299704
31
0
0
LINE
5
122
100
AcDbEntity
8
0
100
AcDbLine
10
147.76190012396037
20
167.80791203228713
30
0
11
147.92228509120216
21
167.36538444864641
31
0
0
LINE
5
123
100
AcDbEntity
8
0
100
AcDbLine
10
148.21093903234856
20
166.99668822916405
30
0
11
148.60018784371815
21
166.73413659072438
31
0
0
LINE
5
124
100
AcDbEntity
8
0
100
AcDbLine
10
162.28838567062186
20
100.93688707152678
30
0
11
162.72966449448558
21
101.09845550783001
31
0
0
LINE
5
125
100
AcDbEntity
8
0
100
AcDbLine
10
64.217159249316651
20
150.3317374065677
30
0
11
64.668018048853369
21
150.20137010667861
31
0
0
LINE
5
126
100
AcDbEntity
8
0
100
AcDbLine
10
160.68956302354079
20
101.6834334888248
30
0
11
160.9783505309839
21
101.31405013031389
31
0
0
LINE
5
127
100
AcDbEntity
8
0
100
AcDbLine
10
147.74521434349271
20
168.27633447488591
30
0
11
147.76190012396037
21
167.80791203228713
31
0
0
LINE
5
128
100
AcDbEntity
8
0
100
AcDbLine
10
147.92228509120216
20
167.36538444864641
30
0
11
148.21093903234856
21
166.99668822916405
31
0
0
LINE
5
129
100
AcDbEntity
8
0
100
AcDbLine
10
161.27343110085155
20
103.721383654628
30
0
11
160.90462039597185
21
103.43331868979169
31
0
0
LINE
5
130
100
AcDbEntity
8
0
100
AcDbLine
10
175.05578953689746
20
35.25428823776403
30
0
11
175.49732976908484
21
35.414511844825931
31
0
0
LINE
5
131
100
AcDbEntity
8
0
100
AcDbLine
10
161.81773284106271
20
100.9211939511252
30
0
11
162.28838567062186
21
100.93688707152678
31
0
0
LINE
5
132
100
AcDbEntity
8
0
100
AcDbLine
10
163.49112700510034
20
102.22800236162945
30
0
11
163.47447938643174
21
102.69622847879151
31
0
0
LINE
5
133
100
AcDbEntity
8
0
100
AcDbLine
10
163.47447938643174
20
102.69622847879151
30
0
11
163.31422798548684
21
103.13806892340378
31
0
0
LINE
5
134
100
AcDbEntity
8
0
100
AcDbLine
10
161.36759934235354
20
101.05149849187427
30
0
11
161.81773284106271
21
100.9211939511252
31
0
0
LINE
5
135
100
AcDbEntity
8
0
100
AcDbLine
10
173.74603297839272
20
35.630018120863305
30
0
11
174.13530087066189
21
35.367368319705356
31
0
0
LINE
5
136
100
AcDbEntity
8
0
100
AcDbLine
10
163.36174133239481
20
101.77733437108814
30
0
11
163.49112700510034
21
102.22800236162945
31
0
0
LINE
5
137
100
AcDbEntity
8
0
100
AcDbLine
10
160.90462039597185
20
103.43331868979169
30
0
11
160.64204967663272
21
103.04416804114041
31
0
0
LINE
5
138
100
AcDbEntity
8
0
100
AcDbLine
10
162.72966449448558
20
101.09845550783001
30
0
11
163.09918969395517
21
101.38808555971849
31
0
0
LINE
5
139
100
AcDbEntity
8
0
100
AcDbLine
10
148.60018784371815
20
166.73413659072438
30
0
11
149.05035950422641
21
166.60363572453861
31
0
0
LINE
5
140
100
AcDbEntity
8
0
100
AcDbLine
10
175.86689122226352
20
35.70395538754957
30
0
11
176.12942377980357
21
36.093302361637562
31
0
0
LINE
5
141
100
AcDbEntity
8
0
100
AcDbLine
10
162.63621074757353
20
103.76990575763593
30
0
11
162.18536275427448
21
103.89864521133283
31
0
0
LINE
5
142
100
AcDbEntity
8
0
100
AcDbLine
10
162.18536275427448
20
103.89864521133283
30
0
11
161.71595868449231
21
103.88176862186978
31
0
0
LINE
5
143
100
AcDbEntity
8
0
100
AcDbLine
10
160.52959783608881
20
102.12380149266188
30
0
11
160.68956302354079
21
101.6834334888248
31
0
0
LINE
5
144
100
AcDbEntity
8
0
100
AcDbLine
10
160.5126640039272
20
102.59350005059913
30
0
11
160.52959783608881
21
102.12380149266188
31
0
0
LINE
5
145
100
AcDbEntity
8
0
100
AcDbLine
10
163.31422798548684
20
103.13806892340378
30
0
11
163.02544047804366
21
103.50745228191464
31
0
0
LINE
5
146
100
AcDbEntity
8
0
100
AcDbLine
10
163.02544047804366
20
103.50745228191464
30
0
11
162.63621074757353
21
103.76990575763593
31
0
0
LINE
5
147
100
AcDbEntity
8
0
100
AcDbLine
10
163.09918969395517
20
101.38808555971849
30
0
11
163.36174133239481
21
101.77733437108814
31
0
0
LINE
5
148
100
AcDbEntity
8
0
100
AcDbLine
10
175.40358790058974
20
38.08744435167884
30
0
11
174.95277234481986
21
38.216016928754549
31
0
0
LINE
5
149
100
AcDbEntity
8
0
100
AcDbLine
10
149.52074520119209
20
166.62070312299704
30
0
11
149.9622911576493
21
166.78089728124345
31
0
0
LINE
5
150
100
AcDbEntity
8
0
100
AcDbLine
10
160.9783505309839
20
101.31405013031389
30
0
11
161.36759934235354
21
101.05149849187427
31
0
0
LINE
5
151
100
AcDbEntity
8
0
100
AcDbLine
10
149.9622911576493
20
166.78089728124345
30
0
11
150.33177819531986
21
167.0707236585686
31
0
0
LINE
5
152
100
AcDbEntity
8
0
100
AcDbLine
10
150.70678167430339
20
168.38033901841675
30
0
11
150.54677832505232
21
168.82090334769057
31
0
0
LINE
5
153
100
AcDbEntity
8
0
100
AcDbLine
10
150.25774276591528
20
169.19156282153989
30
0
11
149.86849395454558
21
169.45411445997959
31
0
0
LINE
5
154
100
AcDbEntity
8
0
100
AcDbLine
10
65.48399291936893
20
153.05142906232982
30
0
11
65.033810225978058
21
153.17989035055058
31
0
0
LINE
5
155
100
AcDbEntity
8
0
100
AcDbLine
10
65.13761844407226
20
150.21828485794083
30
0
11
65.578379098782719
21
150.37832636899088
31
0
0
LINE
5
156
100
AcDbEntity
8
0
100
AcDbLine
10
66.21012328673784
20
151.05734431498712
30
0
11
66.34003517661354
21
151.50740149009815
31
0
0
LINE
5
157
100
AcDbEntity
8
0
100
AcDbLine
10
64.565191457942618
20
153.16316640828381
30
0
11
64.123449176048709
21
153.00293408823828
31
0
0
LINE
5
158
100
AcDbEntity
8
0
100
AcDbLine
10
65.033810225978058
20
153.17989035055058
30
0
11
64.565191457942618
21
153.16316640828381
31
0
0
LINE
5
159
100
AcDbEntity
8
0
100
AcDbLine
10
65.873536218893619
20
152.78893466658874
30
0
11
65.48399291936893
21
153.05142906232982
31
0
0
LINE
5
160
100
AcDbEntity
8
0
100
AcDbLine
10
148.50579063142175
20
169.40519970609819
30
0
11
148.1369036029439
21
169.11752739213537
31
0
0
LINE
5
161
100
AcDbEntity
8
0
100
AcDbLine
10
64.123449176048709
20
153.00293408823828
30
0
11
63.753875008542437
21
152.71512820797858
31
0
0
LINE
5
162
100
AcDbEntity
8
0
100
AcDbLine
10
148.1369036029439
20
169.11752739213537
30
0
11
147.87435196450434
21
168.72827858076562
31
0
0
LINE
5
163
100
AcDbEntity
8
0
100
AcDbLine
10
63.753875008542437
20
152.71512820797858
30
0
11
63.491323370102826
21
152.32587939660897
31
0
0
LINE
5
164
100
AcDbEntity
8
0
100
AcDbLine
10
63.539943635829125
20
150.96311883078653
30
0
11
63.827910437947068
21
150.59428904500732
31
0
0
LINE
5
165
100
AcDbEntity
8
0
100
AcDbLine
10
63.491323370102826
20
152.32587939660897
30
0
11
63.362872888119654
21
151.87406885702597
31
0
0
LINE
5
166
100
AcDbEntity
8
0
100
AcDbLine
10
150.33177819531986
20
167.0707236585686
30
0
11
150.5943298337595
21
167.45997246993826
31
0
0
LINE
5
167
100
AcDbEntity
8
0
100
AcDbLine
10
65.578379098782719
20
150.37832636899088
30
0
11
65.947277160143202
21
150.66803826091882
31
0
0
LINE
5
168
100
AcDbEntity
8
0
100
AcDbLine
10
63.827910437947068
20
150.59428904500732
30
0
11
64.217159249316651
21
150.3317374065677
31
0
0
LINE
5
169
100
AcDbEntity
8
0
100
AcDbLine
10
65.947277160143202
20
150.66803826091882
30
0
11
66.21012328673784
21
151.05734431498712
31
0
0
LINE
5
170
100
AcDbEntity
8
0
100
AcDbLine
10
150.54677832505232
20
168.82090334769057
30
0
11
150.25774276591528
21
169.19156282153989
31
0
0
LINE
5
171
100
AcDbEntity
8
0
100
AcDbLine
10
150.5943298337595
20
167.45997246993826
30
0
11
150.72384907276174
21
167.90995332145113
31
0
0
LWPOLYLINE
5
172
100
AcDbEntity
8
0
100
AcDbPolyline
90
20
70
1
43
0.0
10
-91.776936755018028
20
20.321676733757684
10
-92.166108392658813
20
20.058998035428356
10
-92.454278302442589
20
19.689647435597763
10
-92.615921154253996
20
19.247985777132509
10
-92.63149978925837
20
18.777921923883408
10
-92.502674471513558
20
18.32751566281685
10
-92.240240076691805
20
17.938187769628406
10
-91.869598833611292
20
17.648534337009846
10
-91.429138391325736
20
17.488520619842856
10
-90.960513899020413
20
17.471826126391626
10
-90.508747887808482
20
17.601619782683716
10
-90.119185507384273
20
17.864212341143066
10
-89.831310085755533
20
18.233620183672265
10
-89.671039603911012
20
18.675558791002874
10
-89.654088598939765
20
19.145345695386631
10
-89.782619428529543
20
19.595694713754558
10
-90.045444566134719
20
19.985108746812987
10
-90.415956474755461
20
20.273331210320251
10
-90.856713313286036
20
20.433392353914016
10
-91.325041409346355
20
20.450039420938467
0
LWPOLYLINE
5
173
100
AcDbEntity
8
0
100
AcDbPolyline
90
20
70
1
43
0.0
10
-136.99141911017585
20
163.73024602401875
10
-136.83101451039045
20
164.17276979147957
10
-136.8143483624664
20
164.64119605025817
10
-136.94408477605992
20
165.09325654962515
10
-137.20674439348969
20
165.48252634998434
10
-137.57616150064658
20
165.77030170080474
10
-138.0181001079772
20
165.93057218264931
10
-138.48654218311964
20
165.94726177929687
10
-138.93822676610114
20
165.8190924288391
10
-139.32757374018914
20
165.55655987129896
10
-139.61585344639502
20
165.18575347452321
10
-139.77588624446156
20
164.74519486951925
10
-139.7929241941045
20
164.27480344828379
10
-139.66416080803342
20
163.82496951969731
10
-139.40151100687544
20
163.43570162742819
10
-139.0311110559243
20
163.14569779773717
10
-138.59052709410685
20
162.9856906323063
10
-138.12073037345129
20
162.9687377192451
10
-137.67002863426393
20
163.09913554857337
10
-137.28067184390414
20
163.36166619802356
0
LWPOLYLINE
5
174
100
AcDbEntity
8
0
100
AcDbPolyline
90
20
70
1
43
0.0
10
-64.296321084658842
20
149.59975039702209
10
-64.13593611741706
20
150.0422779806627
10
-64.119250336949392
20
150.51070042326154
10
-64.247504493495853
20
150.96247280104541
10
-64.51035062009052
20
151.35177885511371
10
-64.880906414780227
20
151.63977554436877
10
-65.321667069490687
20
151.79981705541883
10
-65.789991349371121
20
151.81648375498696
10
-66.241842808973857
20
151.68834684205837
10
-66.630993457625152
20
151.42577612271918
10
-66.91944004045223
20
151.05500216347264
10
-67.080817667760073
20
150.61470496679237
10
-67.096510788161638
20
150.14405213723319
10
-66.967580525469373
20
149.69418577111756
10
-66.7051270497481
20
149.30495604064743
10
-66.334560222175782
20
149.01491977342732
10
-65.894094055620343
20
148.85493550507587
10
-65.425475287584888
20
148.83821156280908
10
-64.973634860864749
20
148.96838805370277
10
-64.584091561340088
20
149.23088244944375
0
LWPOLYLINE
5
175
100
AcDbEntity
8
0
100
AcDbPolyline
90
20
70
1
43
0.0
10
-164.02159224309489
20
34.580817445248371
10
-164.47332071214538
20
34.452422320538375
10
-164.86268867522281
20
34.189781784008119
10
-165.15069170838541
20
33.820398746648308
10
-165.3109897309555
20
33.378475679859399
10
-165.32791319520118
20
32.90867323493395
10
-165.19925475407757
20
32.458299411396617
10
-164.93662403381916
20
32.06893335640909
10
-164.56614966735981
20
31.779312361319754
10
-164.12557142981225
20
31.61927574707331
10
-163.65576898488681
20
31.602352282827624
10
-163.20514166120762
20
31.73236727755436
10
-162.8157657899483
20
31.994996089722825
10
-162.52640811127253
20
32.36411581066902
10
-162.3661179968843
20
32.806050601819713
10
-162.34918662445676
20
33.275841322383371
10
-162.47919971109354
20
33.726478462334327
10
-162.74183833953384
20
34.11585624168363
10
-163.11121156062185
20
34.403857366756256
10
-163.55314635177254
20
34.564147481144467
0
LINE
5
176
100
AcDbEntity
8
0
100
AcDbLine
10
-139.32757374018914
20
165.55655987129896
30
0
11
-138.93822676610114
21
165.8190924288391
31
0
0
LWPOLYLINE
5
177
100
AcDbEntity
8
0
100
AcDbPolyline
90
20
70
1
43
0.0
10
-150.34380197007636
20
100.08648564933452
10
-150.78574057740701
20
100.24675613117905
10
-151.25418265254945
20
100.26344572782664
10
-151.70594355912911
20
100.13488372649545
10
-152.0952714523176
20
99.872449331673678
10
-152.38330310682949
20
99.502919050236386
10
-152.54358395659
20
99.061084329893987
10
-152.5602021264431
20
98.592852488462057
10
-152.43157230666873
20
98.142331420847242
10
-152.16892250551081
20
97.753063528578025
10
-151.79848439276057
20
97.463256024323854
10
-151.35816756353663
20
97.301874580836056
10
-150.88810371028754
20
97.286295945831739
10
-150.43744013289933
20
97.416497449723281
10
-150.04808334253946
20
97.679028099173451
10
-149.75869704251443
20
98.048295064197134
10
-149.59871222251886
20
98.488659251854301
10
-149.58179802290087
20
98.958361625971435
10
-149.71178248818831
20
99.409146009999901
10
-149.97446118651766
20
99.798317647640715
0
LINE
5
178
100
AcDbEntity
8
0
100
AcDbLine
10
-138.93822676610114
20
165.8190924288391
30
0
11
-138.48654218311964
21
165.94726177929687
31
0
0
LINE
5
179
100
AcDbEntity
8
0
100
AcDbLine
10
-136.99141911017585
20
163.73024602401875
30
0
11
-137.28067184390414
21
163.36166619802356
31
0
0
LINE
5
180
100
AcDbEntity
8
0
100
AcDbLine
10
91.859445542705899
20
20.611335129997453
30
0
11
91.87502417771023
21
20.141271276748334
31
0
0
LINE
5
181
100
AcDbEntity
8
0
100
AcDbLine
10
90.100237701737939
20
21.796741706778956
30
0
11
90.568860285953278
21
21.81344601650202
31
0
0
LINE
5
182
100
AcDbEntity
8
0
100
AcDbLine
10
173.74603297839272
20
35.630018120863305
30
0
11
173.45727409229892
21
35.999254235296675
31
0
0
LINE
5
183
100
AcDbEntity
8
0
100
AcDbLine
10
175.7928577009489
20
37.82478473424905
30
0
11
176.08161658704273
21
37.455548619815687
31
0
0
LINE
5
184
100
AcDbEntity
8
0
100
AcDbLine
10
175.40358790058974
20
38.08744435167884
30
0
11
175.7928577009489
21
37.82478473424905
31
0
0
LINE
5
185
100
AcDbEntity
8
0
100
AcDbLine
10
176.25883807385844
20
36.543823108101336
30
0
11
176.12942377980357
21
36.093302361637562
31
0
0
LINE
5
186
100
AcDbEntity
8
0
100
AcDbLine
10
173.28005260548309
20
36.910979747011034
30
0
11
173.40946689953796
21
37.3615004934748
31
0
0
LINE
5
187
100
AcDbEntity
8
0
100
AcDbLine
10
174.48336445885784
20
38.199159971835186
30
0
11
174.95277234481986
21
38.216016928754549
31
0
0
LINE
5
188
100
AcDbEntity
8
0
100
AcDbLine
10
173.45727409229892
20
35.999254235296675
30
0
11
173.29700361045437
21
36.441192842627281
31
0
0
LINE
5
189
100
AcDbEntity
8
0
100
AcDbLine
10
176.08161658704273
20
37.455548619815687
30
0
11
176.24188516079732
21
37.013619828756923
31
0
0
LINE
5
190
100
AcDbEntity
8
0
100
AcDbLine
10
176.24188516079732
20
37.013619828756923
30
0
11
176.25883807385844
21
36.543823108101336
31
0
0
LINE
5
191
100
AcDbEntity
8
0
100
AcDbLine
10
173.29700361045437
20
36.441192842627281
30
0
11
173.28005260548309
21
36.910979747011034
31
0
0
LINE
5
192
100
AcDbEntity
8
0
100
AcDbLine
10
174.58539811566192
20
35.237250288121096
30
0
11
174.13530087066189
21
35.367368319705356
31
0
0
LINE
5
193
100
AcDbEntity
8
0
100
AcDbLine
10
175.86689122226352
20
35.70395538754957
30
0
11
175.49732976908484
21
35.414511844825931
31
0
0
LINE
5
194
100
AcDbEntity
8
0
100
AcDbLine
10
175.05578953689746
20
35.25428823776403
30
0
11
174.58539811566192
21
35.237250288121096
31
0
0
LINE
5
195
100
AcDbEntity
8
0
100
AcDbLine
10
173.40946689953796
20
37.3615004934748
30
0
11
173.67199754898809
21
37.75085728383462
31
0
0
LINE
5
196
100
AcDbEntity
8
0
100
AcDbLine
10
89.363004383991239
20
19.227618936706609
30
0
11
89.074932636925809
21
19.596988617436747
31
0
0
LINE
5
197
100
AcDbEntity
8
0
100
AcDbLine
10
90.672662779777639
20
18.851869972707792
30
0
11
90.20305666028888
21
18.834984670261182
31
0
0
LINE
5
198
100
AcDbEntity
8
0
100
AcDbLine
10
89.026438305136509
20
20.959101309318115
30
0
11
89.288968954586622
21
21.348458099677924
31
0
0
LINE
5
199
100
AcDbEntity
8
0
100
AcDbLine
10
90.568860285953278
20
21.81344601650202
30
0
11
91.019086865413129
21
21.684758954029096
31
0
0
LINE
5
200
100
AcDbEntity
8
0
100
AcDbLine
10
91.697802690894434
20
21.052996788462686
30
0
11
91.859445542705899
21
20.611335129997453
31
0
0
LINE
5
201
100
AcDbEntity
8
0
100
AcDbLine
10
173.67199754898809
20
37.75085728383462
30
0
11
174.04084069139702
21
38.038755372049735
31
0
0
LINE
5
202
100
AcDbEntity
8
0
100
AcDbLine
10
91.408651153927266
20
21.422156579297909
30
0
11
91.697802690894434
21
21.052996788462686
31
0
0
LINE
5
203
100
AcDbEntity
8
0
100
AcDbLine
10
88.914563992362901
20
20.038908143867815
30
0
11
88.897711150110013
21
20.508714129151105
31
0
0
LINE
5
204
100
AcDbEntity
8
0
100
AcDbLine
10
90.20305666028888
20
18.834984670261182
30
0
11
89.752272276260371
21
18.964969135548657
31
0
0
LINE
5
205
100
AcDbEntity
8
0
100
AcDbLine
10
91.745217232782025
20
19.69067420668641
30
0
11
91.482390187086921
21
19.301269989899815
31
0
0
LINE
5
206
100
AcDbEntity
8
0
100
AcDbLine
10
91.482390187086921
20
19.301269989899815
30
0
11
91.113417710218201
21
19.011940932573388
31
0
0
LINE
5
207
100
AcDbEntity
8
0
100
AcDbLine
10
91.87502417771023
20
20.141271276748334
30
0
11
91.745217232782025
21
19.69067420668641
31
0
0
LINE
5
208
100
AcDbEntity
8
0
100
AcDbLine
10
174.04084069139702
20
38.038755372049735
30
0
11
174.48336445885784
21
38.199159971835186
31
0
0
LINE
5
209
100
AcDbEntity
8
0
100
AcDbLine
10
91.019086865413129
20
21.684758954029096
30
0
11
91.408651153927266
21
21.422156579297909
31
0
0
LINE
5
210
100
AcDbEntity
8
0
100
AcDbLine
10
89.752272276260371
20
18.964969135548657
30
0
11
89.363004383991239
21
19.227618936706609
31
0
0
LINE
5
211
100
AcDbEntity
8
0
100
AcDbLine
10
89.074932636925809
20
19.596988617436747
30
0
11
88.914563992362901
21
20.038908143867815
31
0
0
LINE
5
212
100
AcDbEntity
8
0
100
AcDbLine
10
89.658499236023943
20
21.63648975418981
30
0
11
90.100237701737939
21
21.796741706778956
31
0
0
LINE
5
213
100
AcDbEntity
8
0
100
AcDbLine
10
-164.47332071214538
20
34.452422320538375
30
0
11
-164.86268867522281
21
34.189781784008119
31
0
0
LINE
5
214
100
AcDbEntity
8
0
100
AcDbLine
10
-162.8157657899483
20
31.994996089722825
30
0
11
-162.52640811127253
21
32.36411581066902
31
0
0
LINE
5
215
100
AcDbEntity
8
0
100
AcDbLine
10
-164.02159224309489
20
34.580817445248371
30
0
11
-164.47332071214538
21
34.452422320538375
31
0
0
LINE
5
216
100
AcDbEntity
8
0
100
AcDbLine
10
-64.296321084658842
20
149.59975039702209
30
0
11
-64.13593611741706
21
150.0422779806627
31
0
0
LINE
5
217
100
AcDbEntity
8
0
100
AcDbLine
10
-164.56614966735981
20
31.779312361319754
30
0
11
-164.12557142981225
21
31.61927574707331
31
0
0
LINE
5
218
100
AcDbEntity
8
0
100
AcDbLine
10
-89.831310085755533
20
18.233620183672265
30
0
11
-89.671039603911012
21
18.675558791002874
31
0
0
LINE
5
219
100
AcDbEntity
8
0
100
AcDbLine
10
-165.15069170838541
20
33.820398746648308
30
0
11
-165.3109897309555
21
33.378475679859399
31
0
0
LINE
5
220
100
AcDbEntity
8
0
100
AcDbLine
10
91.113417710218201
20
19.011940932573388
30
0
11
90.672662779777639
21
18.851869972707792
31
0
0
LINE
5
221
100
AcDbEntity
8
0
100
AcDbLine
10
-65.321667069490687
20
151.79981705541883
30
0
11
-65.789991349371121
21
151.81648375498696
31
0
0
LINE
5
222
100
AcDbEntity
8
0
100
AcDbLine
10
-64.51035062009052
20
151.35177885511371
30
0
11
-64.880906414780227
21
151.63977554436877
31
0
0
LINE
5
223
100
AcDbEntity
8
0
100
AcDbLine
10
-65.894094055620343
20
148.85493550507587
30
0
11
-65.425475287584888
21
148.83821156280908
31
0
0
LINE
5
224
100
AcDbEntity
8
0
100
AcDbLine
10
-164.12557142981225
20
31.61927574707331
30
0
11
-163.65576898488681
21
31.602352282827624
31
0
0
LINE
5
225
100
AcDbEntity
8
0
100
AcDbLine
10
-65.425475287584888
20
148.83821156280908
30
0
11
-64.973634860864749
21
148.96838805370277
31
0
0
LINE
5
226
100
AcDbEntity
8
0
100
AcDbLine
10
-66.241842808973857
20
151.68834684205837
30
0
11
-66.630993457625152
21
151.42577612271918
31
0
0
LINE
5
227
100
AcDbEntity
8
0
100
AcDbLine
10
-138.59052709410685
20
162.9856906323063
30
0
11
-138.12073037345129
21
162.9687377192451
31
0
0
LINE
5
228
100
AcDbEntity
8
0
100
AcDbLine
10
89.288968954586622
20
21.348458099677924
30
0
11
89.658499236023943
21
21.63648975418981
31
0
0
LINE
5
229
100
AcDbEntity
8
0
100
AcDbLine
10
-92.240240076691805
20
17.938187769628406
30
0
11
-91.869598833611292
21
17.648534337009846
31
0
0
LINE
5
230
100
AcDbEntity
8
0
100
AcDbLine
10
88.897711150110013
20
20.508714129151105
30
0
11
89.026438305136509
21
20.959101309318115
31
0
0
LINE
5
231
100
AcDbEntity
8
0
100
AcDbLine
10
-163.55314635177254
20
34.564147481144467
30
0
11
-164.02159224309489
21
34.580817445248371
31
0
0
LINE
5
232
100
AcDbEntity
8
0
100
AcDbLine
10
-89.654088598939765
20
19.145345695386631
30
0
11
-89.782619428529543
21
19.595694713754558
31
0
0
LINE
5
233
100
AcDbEntity
8
0
100
AcDbLine
10
-92.166108392658813
20
20.058998035428356
30
0
11
-92.454278302442589
21
19.689647435597763
31
0
0
LINE
5
234
100
AcDbEntity
8
0
100
AcDbLine
10
-91.325041409346355
20
20.450039420938467
30
0
11
-91.776936755018028
21
20.321676733757684
31
0
0
LINE
5
235
100
AcDbEntity
8
0
100
AcDbLine
10
-66.630993457625152
20
151.42577612271918
30
0
11
-66.91944004045223
21
151.05500216347264
31
0
0
LINE
5
236
100
AcDbEntity
8
0
100
AcDbLine
10
-90.508747887808482
20
17.601619782683716
30
0
11
-90.119185507384273
21
17.864212341143066
31
0
0
LINE
5
237
100
AcDbEntity
8
0
100
AcDbLine
10
-90.415956474755461
20
20.273331210320251
30
0
11
-90.856713313286036
21
20.433392353914016
31
0
0
LINE
5
238
100
AcDbEntity
8
0
100
AcDbLine
10
-162.52640811127253
20
32.36411581066902
30
0
11
-162.3661179968843
21
32.806050601819713
31
0
0
LINE
5
239
100
AcDbEntity
8
0
100
AcDbLine
10
-165.32791319520118
20
32.90867323493395
30
0
11
-165.19925475407757
21
32.458299411396617
31
0
0
LINE
5
240
100
AcDbEntity
8
0
100
AcDbLine
10
-163.20514166120762
20
31.73236727755436
30
0
11
-162.8157657899483
21
31.994996089722825
31
0
0
LINE
5
241
100
AcDbEntity
8
0
100
AcDbLine
10
-91.776936755018028
20
20.321676733757684
30
0
11
-92.166108392658813
21
20.058998035428356
31
0
0
LINE
5
242
100
AcDbEntity
8
0
100
AcDbLine
10
-89.782619428529543
20
19.595694713754558
30
0
11
-90.045444566134719
21
19.985108746812987
31
0
0
LINE
5
243
100
AcDbEntity
8
0
100
AcDbLine
10
-164.93662403381916
20
32.06893335640909
30
0
11
-164.56614966735981
21
31.779312361319754
31
0
0
LINE
5
244
100
AcDbEntity
8
0
100
AcDbLine
10
-90.960513899020413
20
17.471826126391626
30
0
11
-90.508747887808482
21
17.601619782683716
31
0
0
LINE
5
245
100
AcDbEntity
8
0
100
AcDbLine
10
-164.86268867522281
20
34.189781784008119
30
0
11
-165.15069170838541
21
33.820398746648308
31
0
0
LINE
5
246
100
AcDbEntity
8
0
100
AcDbLine
10
-139.40151100687544
20
163.43570162742819
30
0
11
-139.0311110559243
21
163.14569779773717
31
0
0
LINE
5
247
100
AcDbEntity
8
0
100
AcDbLine
10
-90.119185507384273
20
17.864212341143066
30
0
11
-89.831310085755533
21
18.233620183672265
31
0
0
LINE
5
248
100
AcDbEntity
8
0
100
AcDbLine
10
-89.671039603911012
20
18.675558791002874
30
0
11
-89.654088598939765
21
19.145345695386631
31
0
0
LINE
5
249
100
AcDbEntity
8
0
100
AcDbLine
10
-139.0311110559243
20
163.14569779773717
30
0
11
-138.59052709410685
21
162.9856906323063
31
0
0
LINE
5
250
100
AcDbEntity
8
0
100
AcDbLine
10
-165.3109897309555
20
33.378475679859399
30
0
11
-165.32791319520118
21
32.90867323493395
31
0
0
LINE
5
251
100
AcDbEntity
8
0
100
AcDbLine
10
-165.19925475407757
20
32.458299411396617
30
0
11
-164.93662403381916
21
32.06893335640909
31
0
0
LINE
5
252
100
AcDbEntity
8
0
100
AcDbLine
10
-92.454278302442589
20
19.689647435597763
30
0
11
-92.615921154253996
21
19.247985777132509
31
0
0
LINE
5
253
100
AcDbEntity
8
0
100
AcDbLine
10
-162.47919971109354
20
33.726478462334327
30
0
11
-162.74183833953384
21
34.11585624168363
31
0
0
LINE
5
254
100
AcDbEntity
8
0
100
AcDbLine
10
-162.3661179968843
20
32.806050601819713
30
0
11
-162.34918662445676
21
33.275841322383371
31
0
0
LINE
5
255
100
AcDbEntity
8
0
100
AcDbLine
10
-66.91944004045223
20
151.05500216347264
30
0
11
-67.080817667760073
21
150.61470496679237
31
0
0
LINE
5
256
100
AcDbEntity
8
0
100
AcDbLine
10
-90.045444566134719
20
19.985108746812987
30
0
11
-90.415956474755461
21
20.273331210320251
31
0
0
LINE
5
257
100
AcDbEntity
8
0
100
AcDbLine
10
-64.13593611741706
20
150.0422779806627
30
0
11
-64.119250336949392
21
150.51070042326154
31
0
0
LINE
5
258
100
AcDbEntity
8
0
100
AcDbLine
10
-91.869598833611292
20
17.648534337009846
30
0
11
-91.429138391325736
21
17.488520619842856
31
0
0
LINE
5
259
100
AcDbEntity
8
0
100
AcDbLine
10
-92.615921154253996
20
19.247985777132509
30
0
11
-92.63149978925837
21
18.777921923883408
31
0
0
LINE
5
260
100
AcDbEntity
8
0
100
AcDbLine
10
-92.63149978925837
20
18.777921923883408
30
0
11
-92.502674471513558
21
18.32751566281685
31
0
0
LINE
5
261
100
AcDbEntity
8
0
100
AcDbLine
10
-163.11121156062185
20
34.403857366756256
30
0
11
-163.55314635177254
21
34.564147481144467
31
0
0
LINE
5
262
100
AcDbEntity
8
0
100
AcDbLine
10
-92.502674471513558
20
18.32751566281685
30
0
11
-92.240240076691805
21
17.938187769628406
31
0
0
LINE
5
263
100
AcDbEntity
8
0
100
AcDbLine
10
-149.75869704251443
20
98.048295064197134
30
0
11
-149.59871222251886
21
98.488659251854301
31
0
0
LINE
5
264
100
AcDbEntity
8
0
100
AcDbLine
10
-152.54358395659
20
99.061084329893987
30
0
11
-152.5602021264431
21
98.592852488462057
31
0
0
LINE
5
265
100
AcDbEntity
8
0
100
AcDbLine
10
-150.78574057740701
20
100.24675613117905
30
0
11
-151.25418265254945
21
100.26344572782664
31
0
0
LINE
5
266
100
AcDbEntity
8
0
100
AcDbLine
10
-67.096510788161638
20
150.14405213723319
30
0
11
-67.080817667760073
21
150.61470496679237
31
0
0
LINE
5
267
100
AcDbEntity
8
0
100
AcDbLine
10
-151.79848439276057
20
97.463256024323854
30
0
11
-151.35816756353663
21
97.301874580836056
31
0
0
LINE
5
268
100
AcDbEntity
8
0
100
AcDbLine
10
-138.0181001079772
20
165.93057218264931
30
0
11
-138.48654218311964
21
165.94726177929687
31
0
0
LINE
5
269
100
AcDbEntity
8
0
100
AcDbLine
10
-66.334560222175782
20
149.01491977342732
30
0
11
-66.7051270497481
21
149.30495604064743
31
0
0
LINE
5
270
100
AcDbEntity
8
0
100
AcDbLine
10
-139.66416080803342
20
163.82496951969731
30
0
11
-139.40151100687544
21
163.43570162742819
31
0
0
LINE
5
271
100
AcDbEntity
8
0
100
AcDbLine
10
-163.20514166120762
20
31.73236727755436
30
0
11
-163.65576898488681
21
31.602352282827624
31
0
0
LINE
5
272
100
AcDbEntity
8
0
100
AcDbLine
10
-136.99141911017585
20
163.73024602401875
30
0
11
-136.83101451039045
21
164.17276979147957
31
0
0
LINE
5
273
100
AcDbEntity
8
0
100
AcDbLine
10
-149.59871222251886
20
98.488659251854301
30
0
11
-149.58179802290087
21
98.958361625971435
31
0
0
LINE
5
274
100
AcDbEntity
8
0
100
AcDbLine
10
-151.25418265254945
20
100.26344572782664
30
0
11
-151.70594355912911
21
100.13488372649545
31
0
0
LINE
5
275
100
AcDbEntity
8
0
100
AcDbLine
10
-137.20674439348969
20
165.48252634998434
30
0
11
-137.57616150064658
21
165.77030170080474
31
0
0
LINE
5
276
100
AcDbEntity
8
0
100
AcDbLine
10
-139.7929241941045
20
164.27480344828379
30
0
11
-139.66416080803342
21
163.82496951969731
31
0
0
LINE
5
277
100
AcDbEntity
8
0
100
AcDbLine
10
-149.97446118651766
20
99.798317647640715
30
0
11
-150.34380197007636
21
100.08648564933452
31
0
0
LINE
5
278
100
AcDbEntity
8
0
100
AcDbLine
10
-150.34380197007636
20
100.08648564933452
30
0
11
-150.78574057740701
21
100.24675613117905
31
0
0
LINE
5
279
100
AcDbEntity
8
0
100
AcDbLine
10
-139.61585344639502
20
165.18575347452321
30
0
11
-139.77588624446156
21
164.74519486951925
31
0
0
LINE
5
280
100
AcDbEntity
8
0
100
AcDbLine
10
-152.0952714523176
20
99.872449331673678
30
0
11
-152.38330310682949
21
99.502919050236386
31
0
0
LINE
5
281
100
AcDbEntity
8
0
100
AcDbLine
10
-138.12073037345129
20
162.9687377192451
30
0
11
-137.67002863426393
21
163.09913554857337
31
0
0
LINE
5
282
100
AcDbEntity
8
0
100
AcDbLine
10
-65.321667069490687
20
151.79981705541883
30
0
11
-64.880906414780227
21
151.63977554436877
31
0
0
LINE
5
283
100
AcDbEntity
8
0
100
AcDbLine
10
-149.58179802290087
20
98.958361625971435
30
0
11
-149.71178248818831
21
99.409146009999901
31
0
0
LINE
5
284
100
AcDbEntity
8
0
100
AcDbLine
10
-136.8143483624664
20
164.64119605025817
30
0
11
-136.94408477605992
21
165.09325654962515
31
0
0
LINE
5
285
100
AcDbEntity
8
0
100
AcDbLine
10
-152.38330310682949
20
99.502919050236386
30
0
11
-152.54358395659
21
99.061084329893987
31
0
0
LINE
5
286
100
AcDbEntity
8
0
100
AcDbLine
10
-139.77588624446156
20
164.74519486951925
30
0
11
-139.7929241941045
21
164.27480344828379
31
0
0
LINE
5
287
100
AcDbEntity
8
0
100
AcDbLine
10
-66.7051270497481
20
149.30495604064743
30
0
11
-66.967580525469373
21
149.69418577111756
31
0
0
LINE
5
288
100
AcDbEntity
8
0
100
AcDbLine
10
-139.32757374018914
20
165.55655987129896
30
0
11
-139.61585344639502
21
165.18575347452321
31
0
0
LINE
5
289
100
AcDbEntity
8
0
100
AcDbLine
10
-150.88810371028754
20
97.286295945831739
30
0
11
-150.43744013289933
21
97.416497449723281
31
0
0
LINE
5
290
100
AcDbEntity
8
0
100
AcDbLine
10
-66.241842808973857
20
151.68834684205837
30
0
11
-65.789991349371121
21
151.81648375498696
31
0
0
LINE
5
291
100
AcDbEntity
8
0
100
AcDbLine
10
-151.35816756353663
20
97.301874580836056
30
0
11
-150.88810371028754
21
97.286295945831739
31
0
0
LINE
5
292
100
AcDbEntity
8
0
100
AcDbLine
10
-64.247504493495853
20
150.96247280104541
30
0
11
-64.119250336949392
21
150.51070042326154
31
0
0
LINE
5
293
100
AcDbEntity
8
0
100
AcDbLine
10
-64.584091561340088
20
149.23088244944375
30
0
11
-64.973634860864749
21
148.96838805370277
31
0
0
LINE
5
294
100
AcDbEntity
8
0
100
AcDbLine
10
-90.960513899020413
20
17.471826126391626
30
0
11
-91.429138391325736
21
17.488520619842856
31
0
0
LINE
5
295
100
AcDbEntity
8
0
100
AcDbLine
10
-136.94408477605992
20
165.09325654962515
30
0
11
-137.20674439348969
21
165.48252634998434
31
0
0
LINE
5
296
100
AcDbEntity
8
0
100
AcDbLine
10
-150.43744013289933
20
97.416497449723281
30
0
11
-150.04808334253946
21
97.679028099173451
31
0
0
LINE
5
297
100
AcDbEntity
8
0
100
AcDbLine
10
-91.325041409346355
20
20.450039420938467
30
0
11
-90.856713313286036
21
20.433392353914016
31
0
0
LINE
5
298
100
AcDbEntity
8
0
100
AcDbLine
10
-136.83101451039045
20
164.17276979147957
30
0
11
-136.8143483624664
21
164.64119605025817
31
0
0
LINE
5
299
100
AcDbEntity
8
0
100
AcDbLine
10
-163.11121156062185
20
34.403857366756256
30
0
11
-162.74183833953384
21
34.11585624168363
31
0
0
LINE
5
300
100
AcDbEntity
8
0
100
AcDbLine
10
-150.04808334253946
20
97.679028099173451
30
0
11
-149.75869704251443
21
98.048295064197134
31
0
0
LINE
5
301
100
AcDbEntity
8
0
100
AcDbLine
10
-64.51035062009052
20
151.35177885511371
30
0
11
-64.247504493495853
21
150.96247280104541
31
0
0
LINE
5
302
100
AcDbEntity
8
0
100
AcDbLine
10
-152.43157230666873
20
98.142331420847242
30
0
11
-152.16892250551081
21
97.753063528578025
31
0
0
LINE
5
303
100
AcDbEntity
8
0
100
AcDbLine
10
-137.67002863426393
20
163.09913554857337
30
0
11
-137.28067184390414
21
163.36166619802356
31
0
0
LINE
5
304
100
AcDbEntity
8
0
100
AcDbLine
10
-152.5602021264431
20
98.592852488462057
30
0
11
-152.43157230666873
21
98.142331420847242
31
0
0
LINE
5
305
100
AcDbEntity
8
0
100
AcDbLine
10
-152.16892250551081
20
97.753063528578025
30
0
11
-151.79848439276057
21
97.463256024323854
31
0
0
LINE
5
306
100
AcDbEntity
8
0
100
AcDbLine
10
-151.70594355912911
20
100.13488372649545
30
0
11
-152.0952714523176
21
99.872449331673678
31
0
0
LINE
5
307
100
AcDbEntity
8
0
100
AcDbLine
10
-137.57616150064658
20
165.77030170080474
30
0
11
-138.0181001079772
21
165.93057218264931
31
0
0
LINE
5
308
100
AcDbEntity
8
0
100
AcDbLine
10
-66.967580525469373
20
149.69418577111756
30
0
11
-67.096510788161638
21
150.14405213723319
31
0
0
LINE
5
309
100
AcDbEntity
8
0
100
AcDbLine
10
-149.71178248818831
20
99.409146009999901
30
0
11
-149.97446118651766
21
99.798317647640715
31
0
0
LINE
5
310
100
AcDbEntity
8
0
100
AcDbLine
10
-162.47919971109354
20
33.726478462334327
30
0
11
-162.34918662445676
21
33.275841322383371
31
0
0
LINE
5
311
100
AcDbEntity
8
0
100
AcDbLine
10
-64.296321084658842
20
149.59975039702209
30
0
11
-64.584091561340088
21
149.23088244944375
31
0
0
LINE
5
312
100
AcDbEntity
8
0
100
AcDbLine
10
-65.894094055620343
20
148.85493550507587
30
0
11
-66.334560222175782
21
149.01491977342732
31
0
0
ENDSEC
0
SECTION
2
OBJECTS
0
DICTIONARY
5
C
100
AcDbDictionary
3
ACAD_GROUP
350
D
3
ACAD_MLINESTYLE
350
17
0
DICTIONARY
5
D
100
AcDbDictionary
0
DICTIONARY
5
1A
330
C
100
AcDbDictionary
0
DICTIONARY
5
17
100
AcDbDictionary
0
ENDSEC
0
EOF
