0
SECTION
2
HEADER
9
$INSUNITS
70
4
9
$ACADVER
1
AC1014
9
$HANDSEED
5
FFFF
0
ENDSEC
0
SECTION
2
TABLES
0
TABLE
2
VPORT
5
8
100
AcDbSymbolTable
0
ENDTAB
0
TABLE
2
LTYPE
5
5
100
AcDbSymbolTable
0
LTYPE
5
14
100
AcDbSymbolTableRecord
100
AcDbLinetypeTableRecord
2
BYBLOCK
70
0
0
LTYPE
5
15
100
AcDbSymbolTableRecord
100
AcDbLinetypeTableRecord
2
BYLAYER
70
0
0
ENDTAB
0
TABLE
2
LAYER
5
2
100
AcDbSymbolTable
70
2
0
LAYER
5
50
100
AcDbSymbolTableRecord
100
AcDbLayerTableRecord
2
0
70
0
6
CONTINUOUS
0
ENDTAB
0
TABLE
2
STYLE
5
3
100
AcDbSymbolTable
70
1
0
STYLE
5
11
100
AcDbSymbolTableRecord
100
AcDbTextStyleTableRecord
2
STANDARD
70
0
0
ENDTAB
0
TABLE
2
VIEW
5
6
100
AcDbSymbolTable
70
0
0
ENDTAB
0
TABLE
2
UCS
5
7
100
AcDbSymbolTable
70
0
0
ENDTAB
0
TABLE
2
APPID
5
9
100
AcDbSymbolTable
70
2
0
APPID
5
12
100
AcDbSymbolTableRecord
100
AcDbRegAppTableRecord
2
ACAD
70
0
0
ENDTAB
0
TABLE
2
DIMSTYLE
5
A
100
AcDbSymbolTable
70
1
0
ENDTAB
0
TABLE
2
BLOCK_RECORD
5
1
100
AcDbSymbolTable
70
1
0
BLOCK_RECORD
5
1F
100
AcDbSymbolTableRecord
100
AcDbBlockTableRecord
2
*MODEL_SPACE
0
BLOCK_RECORD
5
1B
100
AcDbSymbolTableRecord
100
AcDbBlockTableRecord
2
*PAPER_SPACE
0
ENDTAB
0
ENDSEC
0
SECTION
2
BLOCKS
0
BLOCK
5
20
100
AcDbEntity
100
AcDbBlockBegin
2
*MODEL_SPACE
0
ENDBLK
5
21
100
AcDbEntity
100
AcDbBlockEnd
0
BLOCK
5
1C
100
AcDbEntity
100
AcDbBlockBegin
2
*PAPER_SPACE
0
ENDBLK
5
1D
100
AcDbEntity
100
AcDbBlockEnd
0
ENDSEC
0
SECTION
2
ENTITIES
0
LWPOLYLINE
5
100
100
AcDbEntity
8
0
100
AcDbPolyline
90
20
70
1
43
0.0
10
-91.429138391325722
20
17.488520619842856
10
-90.960513899020413
20
17.471826126391623
10
-90.508747887808468
20
17.601619782683716
10
-90.119185507384259
20
17.864212341143062
10
-89.831310085755547
20
18.233620183672269
10
-89.671039603910998
20
18.675558791002874
10
-89.654088598939765
20
19.145345695386627
10
-89.782619428529529
20
19.595694713754561
10
-90.045444566134705
20
19.98510874681299
10
-90.415956474755461
20
20.273331210320251
10
-90.856713313286008
20
20.433392353914016
10
-91.325041409346355
20
20.450039420938467
10
-91.776936755018028
20
20.321676733757677
10
-92.166108392658799
20
20.058998035428353
10
-92.45427830244256
20
19.68964743559776
10
-92.615921154253982
20
19.247985777132509
10
-92.631499789258356
20
18.777921923883405
10
-92.502674471513529
20
18.32751566281685
10
-92.240240076691805
20
17.938187769628406
10
-91.869598833611278
20
17.648534337009842
0
LWPOLYLINE
5
101
100
AcDbEntity
8
0
100
AcDbPolyline
90
20
70
1
43
0.0
10
-162.74183833953384
20
34.11585624168363
10
-163.11121156062183
20
34.403857366756256
10
-163.55314635177251
20
34.564147481144467
10
-164.02159224309486
20
34.580817445248371
10
-164.47332071214535
20
34.452422320538368
10
-164.86268867522281
20
34.189781784008119
10
-165.15069170838541
20
33.820398746648308
10
-165.3109897309555
20
33.378475679859399
10
-165.32791319520118
20
32.90867323493395
10
-165.19925475407757
20
32.458299411396617
10
-164.93662403381916
20
32.068933356409097
10
-164.56614966735981
20
31.779312361319747
10
-164.12557142981223
20
31.61927574707331
10
-163.65576898488678
20
31.602352282827624
10
-163.20514166120762
20
31.73236727755436
10
-162.8157657899483
20
31.994996089722825
10
-162.52640811127253
20
32.36411581066902
10
-162.36611799688433
20
32.806050601819713
10
-162.34918662445676
20
33.275841322383371
10
-162.47919971109354
20
33.726478462334327
0
LWPOLYLINE
5
102
100
AcDbEntity
8
0
100
AcDbPolyline
90
20
70
1
43
0.0
10
-66.919440040452216
20
151.05500216347264
10
-67.080817667760058
20
150.61470496679235
10
-67.096510788161638
20
150.14405213723319
10
-66.967580525469373
20
149.69418577111756
10
-66.7051270497481
20
149.30495604064743
10
-66.334560222175782
20
149.01491977342732
10
-65.894094055620329
20
148.85493550507587
10
-65.425475287584888
20
148.83821156280908
10
-64.973634860864763
20
148.96838805370274
10
-64.584091561340088
20
149.23088244944375
10
-64.296321084658842
20
149.59975039702206
10
-64.13593611741706
20
150.0422779806627
10
-64.119250336949392
20
150.51070042326151
10
-64.247504493495867
20
150.96247280104541
10
-64.51035062009052
20
151.35177885511371
10
-64.880906414780227
20
151.63977554436875
10
-65.321667069490687
20
151.79981705541883
10
-65.789991349371121
20
151.81648375498696
10
-66.241842808973857
20
151.68834684205837
10
-66.630993457625152
20
151.42577612271918
0
LWPOLYLINE
5
103
100
AcDbEntity
8
0
100
AcDbPolyline
90
20
70
1
43
0.0
10
-139.40151100687544
20
163.43570162742816
10
-139.0311110559243
20
163.1456977977372
10
-138.59052709410685
20
162.9856906323063
10
-138.12073037345127
20
162.9687377192451
10
-137.67002863426393
20
163.09913554857337
10
-137.28067184390412
20
163.36166619802356
10
-136.99141911017585
20
163.73024602401875
10
-136.83101451039039
20
164.17276979147957
10
-136.8143483624664
20
164.6411960502582
10
-136.9440847760599
20
165.09325654962515
10
-137.20674439348969
20
165.48252634998434
10
-137.57616150064661
20
165.77030170080477
10
-138.0181001079772
20
165.93057218264931
10
-138.48654218311964
20
165.94726177929687
10
-138.93822676610117
20
165.8190924288391
10
-139.32757374018917
20
165.55655987129896
10
-139.61585344639502
20
165.18575347452321
10
-139.77588624446156
20
164.74519486951925
10
-139.7929241941045
20
164.27480344828376
10
-139.66416080803339
20
163.82496951969733
0
LWPOLYLINE
5
104
100
AcDbEntity
8
0
100
AcDbPolyline
90
20
70
1
43
0.0
10
-151.70594355912914
20
100.13488372649545
10
-152.0952714523176
20
99.872449331673693
10
-152.38330310682949
20
99.502919050236386
10
-152.54358395659
20
99.061084329893987
10
-152.56020212644307
20
98.592852488462057
10
-152.43157230666873
20
98.142331420847199
10
-152.16892250551081
20
97.753063528578025
10
-151.79848439276057
20
97.46325602432384
10
-151.35816756353665
20
97.301874580836056
10
-150.88810371028754
20
97.286295945831711
10
-150.43744013289927
20
97.416497449723295
10
-150.04808334253948
20
97.679028099173422
10
-149.75869704251443
20
98.048295064197134
10
-149.59871222251883
20
98.488659251854301
10
-149.58179802290087
20
98.958361625971435
10
-149.71178248818833
20
99.409146009999901
10
-149.97446118651766
20
99.798317647640701
10
-150.34380197007638
20
100.08648564933452
10
-150.78574057740701
20
100.24675613117905
10
-151.25418265254945
20
100.26344572782664
0
LWPOLYLINE
5
105
100
AcDbEntity
8
0
100
AcDbPolyline
90
21
70
1
43
0.0
10
-134.73098663578992
20
156.63253014263546
10
-157.59945523372116
20
38.984458178057253
42
0.41421356237310153
10
-156.0178188575789
20
36.63958582040884
10
-65.033982009246913
20
18.954119487294335
42
-0.35903668657693466
10
-63.415599999999998
20
16.990865120399
10
-63.415600000000012
20
9.4256490966960751
42
0.41421356237309265
10
-61.415600000000012
20
7.4256490966960715
10
53.645300000000013
20
7.4256490966960698
42
0.41421356237309209
10
55.645300000000013
20
9.4256490966960698
10
55.645300000000013
20
17.016490979210225
42
-0.35903668657693399
10
57.263682009246928
20
18.979745346105553
10
156.80039329224604
20
38.327722055846721
10
213.13237943501949
20
38.327722055846721
42
0.4142135623730937
10
215.13237943501949
20
40.327722055846706
10
215.13237943501949
20
160.15262205584673
42
0.41421356237309503
10
213.13237943501949
20
162.15262205584673
10
145.06998943344982
20
162.15262205584673
42
0.048033429341702884
10
144.68837156134578
20
162.11587644580507
10
2.4115218408277372
20
134.46006733735689
42
-0.096289032948733755
10
-10.181869896315021
20
134.46006771789698
10
-132.38611427814146
20
158.21416651877766
42
0.41421356237309503
0
LINE
5
106
100
AcDbEntity
8
0
100
AcDbLine
10
-66.241842808973857
20
151.68834684205837
30
0
11
-65.789991349371121
21
151.81648375498696
31
0
0
LINE
5
107
100
AcDbEntity
8
0
100
AcDbLine
10
-66.334560222175782
20
149.01491977342732
30
0
11
-66.7051270497481
21
149.30495604064743
31
0
0
LINE
5
108
100
AcDbEntity
8
0
100
AcDbLine
10
-65.894094055620329
20
148.85493550507587
30
0
11
-66.334560222175782
21
149.01491977342732
31
0
0
LINE
5
109
100
AcDbEntity
8
0
100
AcDbLine
10
-66.7051270497481
20
149.30495604064743
30
0
11
-66.967580525469373
21
149.69418577111756
31
0
0
LINE
5
110
100
AcDbEntity
8
0
100
AcDbLine
10
-66.967580525469373
20
149.69418577111756
30
0
11
-67.096510788161638
21
150.14405213723319
31
0
0
LINE
5
111
100
AcDbEntity
8
0
100
AcDbLine
10
-64.296321084658842
20
149.59975039702206
30
0
11
-64.584091561340088
21
149.23088244944375
31
0
0
LINE
5
112
100
AcDbEntity
8
0
100
AcDbLine
10
-64.584091561340088
20
149.23088244944375
30
0
11
-64.973634860864763
21
148.96838805370274
31
0
0
LINE
5
113
100
AcDbEntity
8
0
100
AcDbLine
10
-64.247504493495867
20
150.96247280104541
30
0
11
-64.119250336949392
21
150.51070042326151
31
0
0
LINE
5
114
100
AcDbEntity
8
0
100
AcDbLine
10
-64.51035062009052
20
151.35177885511371
30
0
11
-64.247504493495867
21
150.96247280104541
31
0
0
LINE
5
115
100
AcDbEntity
8
0
100
AcDbLine
10
-65.321667069490687
20
151.79981705541883
30
0
11
-64.880906414780227
21
151.63977554436875
31
0
0
LINE
5
116
100
AcDbEntity
8
0
100
AcDbLine
10
-90.960513899020413
20
17.471826126391623
30
0
11
-91.429138391325722
21
17.488520619842856
31
0
0
LINE
5
117
100
AcDbEntity
8
0
100
AcDbLine
10
-162.47919971109354
20
33.726478462334327
30
0
11
-162.34918662445676
21
33.275841322383371
31
0
0
LINE
5
118
100
AcDbEntity
8
0
100
AcDbLine
10
-163.11121156062183
20
34.403857366756256
30
0
11
-162.74183833953384
21
34.11585624168363
31
0
0
LINE
5
119
100
AcDbEntity
8
0
100
AcDbLine
10
-91.325041409346355
20
20.450039420938467
30
0
11
-90.856713313286008
21
20.433392353914016
31
0
0
LINE
5
120
100
AcDbEntity
8
0
100
AcDbLine
10
-67.096510788161638
20
150.14405213723319
30
0
11
-67.080817667760058
21
150.61470496679235
31
0
0
LINE
5
121
100
AcDbEntity
8
0
100
AcDbLine
10
-163.20514166120762
20
31.73236727755436
30
0
11
-163.65576898488678
21
31.602352282827624
31
0
0
LINE
5
122
100
AcDbEntity
8
0
100
AcDbLine
10
-164.12557142981223
20
31.61927574707331
30
0
11
-164.56614966735981
21
31.779312361319747
31
0
0
LINE
5
123
100
AcDbEntity
8
0
100
AcDbLine
10
-65.425475287584888
20
148.83821156280908
30
0
11
-65.894094055620329
21
148.85493550507587
31
0
0
LINE
5
124
100
AcDbEntity
8
0
100
AcDbLine
10
-64.880906414780227
20
151.63977554436875
30
0
11
-64.51035062009052
21
151.35177885511371
31
0
0
LINE
5
125
100
AcDbEntity
8
0
100
AcDbLine
10
-91.429138391325722
20
17.488520619842856
30
0
11
-91.869598833611278
21
17.648534337009842
31
0
0
LINE
5
126
100
AcDbEntity
8
0
100
AcDbLine
10
-164.56614966735981
20
31.779312361319747
30
0
11
-164.93662403381916
21
32.068933356409097
31
0
0
LINE
5
127
100
AcDbEntity
8
0
100
AcDbLine
10
-92.240240076691805
20
17.938187769628406
30
0
11
-92.502674471513529
21
18.32751566281685
31
0
0
LINE
5
128
100
AcDbEntity
8
0
100
AcDbLine
10
-66.919440040452216
20
151.05500216347264
30
0
11
-66.630993457625152
21
151.42577612271918
31
0
0
LINE
5
129
100
AcDbEntity
8
0
100
AcDbLine
10
-89.831310085755547
20
18.233620183672269
30
0
11
-90.119185507384259
21
17.864212341143062
31
0
0
LINE
5
130
100
AcDbEntity
8
0
100
AcDbLine
10
-64.13593611741706
20
150.0422779806627
30
0
11
-64.296321084658842
21
149.59975039702206
31
0
0
LINE
5
131
100
AcDbEntity
8
0
100
AcDbLine
10
-162.52640811127253
20
32.36411581066902
30
0
11
-162.8157657899483
21
31.994996089722825
31
0
0
LINE
5
132
100
AcDbEntity
8
0
100
AcDbLine
10
-165.19925475407757
20
32.458299411396617
30
0
11
-165.32791319520118
21
32.90867323493395
31
0
0
LINE
5
133
100
AcDbEntity
8
0
100
AcDbLine
10
-165.32791319520118
20
32.90867323493395
30
0
11
-165.3109897309555
21
33.378475679859399
31
0
0
LINE
5
134
100
AcDbEntity
8
0
100
AcDbLine
10
-165.3109897309555
20
33.378475679859399
30
0
11
-165.15069170838541
21
33.820398746648308
31
0
0
LINE
5
135
100
AcDbEntity
8
0
100
AcDbLine
10
-64.973634860864763
20
148.96838805370274
30
0
11
-65.425475287584888
21
148.83821156280908
31
0
0
LINE
5
136
100
AcDbEntity
8
0
100
AcDbLine
10
-65.789991349371121
20
151.81648375498696
30
0
11
-65.321667069490687
21
151.79981705541883
31
0
0
LINE
5
137
100
AcDbEntity
8
0
100
AcDbLine
10
-64.119250336949392
20
150.51070042326151
30
0
11
-64.13593611741706
21
150.0422779806627
31
0
0
LINE
5
138
100
AcDbEntity
8
0
100
AcDbLine
10
-89.671039603910998
20
18.675558791002874
30
0
11
-89.831310085755547
21
18.233620183672269
31
0
0
LINE
5
139
100
AcDbEntity
8
0
100
AcDbLine
10
-67.080817667760058
20
150.61470496679235
30
0
11
-66.919440040452216
21
151.05500216347264
31
0
0
LINE
5
140
100
AcDbEntity
8
0
100
AcDbLine
10
-92.615921154253982
20
19.247985777132509
30
0
11
-92.45427830244256
21
19.68964743559776
31
0
0
LINE
5
141
100
AcDbEntity
8
0
100
AcDbLine
10
-66.630993457625152
20
151.42577612271918
30
0
11
-66.241842808973857
21
151.68834684205837
31
0
0
LINE
5
142
100
AcDbEntity
8
0
100
AcDbLine
10
-162.36611799688433
20
32.806050601819713
30
0
11
-162.52640811127253
21
32.36411581066902
31
0
0
LINE
5
143
100
AcDbEntity
8
0
100
AcDbLine
10
-162.34918662445676
20
33.275841322383371
30
0
11
-162.36611799688433
21
32.806050601819713
31
0
0
LINE
5
144
100
AcDbEntity
8
0
100
AcDbLine
10
-162.8157657899483
20
31.994996089722825
30
0
11
-163.20514166120762
21
31.73236727755436
31
0
0
LINE
5
145
100
AcDbEntity
8
0
100
AcDbLine
10
-89.654088598939765
20
19.145345695386627
30
0
11
-89.671039603910998
21
18.675558791002874
31
0
0
LINE
5
146
100
AcDbEntity
8
0
100
AcDbLine
10
-90.415956474755461
20
20.273331210320251
30
0
11
-90.045444566134705
21
19.98510874681299
31
0
0
LINE
5
147
100
AcDbEntity
8
0
100
AcDbLine
10
-90.508747887808468
20
17.601619782683716
30
0
11
-90.960513899020413
21
17.471826126391623
31
0
0
LINE
5
148
100
AcDbEntity
8
0
100
AcDbLine
10
-163.65576898488678
20
31.602352282827624
30
0
11
-164.12557142981223
21
31.61927574707331
31
0
0
LINE
5
149
100
AcDbEntity
8
0
100
AcDbLine
10
-162.74183833953384
20
34.11585624168363
30
0
11
-162.47919971109354
21
33.726478462334327
31
0
0
LINE
5
150
100
AcDbEntity
8
0
100
AcDbLine
10
-163.55314635177251
20
34.564147481144467
30
0
11
-163.11121156062183
21
34.403857366756256
31
0
0
LINE
5
151
100
AcDbEntity
8
0
100
AcDbLine
10
-89.782619428529529
20
19.595694713754561
30
0
11
-89.654088598939765
21
19.145345695386627
31
0
0
LINE
5
152
100
AcDbEntity
8
0
100
AcDbLine
10
-90.856713313286008
20
20.433392353914016
30
0
11
-90.415956474755461
21
20.273331210320251
31
0
0
LINE
5
153
100
AcDbEntity
8
0
100
AcDbLine
10
-164.47332071214535
20
34.452422320538368
30
0
11
-164.02159224309486
21
34.580817445248371
31
0
0
LINE
5
154
100
AcDbEntity
8
0
100
AcDbLine
10
-90.119185507384259
20
17.864212341143062
30
0
11
-90.508747887808468
21
17.601619782683716
31
0
0
LINE
5
155
100
AcDbEntity
8
0
100
AcDbLine
10
-164.86268867522281
20
34.189781784008119
30
0
11
-164.47332071214535
21
34.452422320538368
31
0
0
LINE
5
156
100
AcDbEntity
8
0
100
AcDbLine
10
-91.869598833611278
20
17.648534337009842
30
0
11
-92.240240076691805
21
17.938187769628406
31
0
0
LINE
5
157
100
AcDbEntity
8
0
100
AcDbLine
10
-164.02159224309486
20
34.580817445248371
30
0
11
-163.55314635177251
21
34.564147481144467
31
0
0
LINE
5
158
100
AcDbEntity
8
0
100
AcDbLine
10
-92.631499789258356
20
18.777921923883405
30
0
11
-92.615921154253982
21
19.247985777132509
31
0
0
LINE
5
159
100
AcDbEntity
8
0
100
AcDbLine
10
-91.776936755018028
20
20.321676733757677
30
0
11
-91.325041409346355
21
20.450039420938467
31
0
0
LINE
5
160
100
AcDbEntity
8
0
100
AcDbLine
10
-92.166108392658799
20
20.058998035428353
30
0
11
-91.776936755018028
21
20.321676733757677
31
0
0
LINE
5
161
100
AcDbEntity
8
0
100
AcDbLine
10
-164.93662403381916
20
32.068933356409097
30
0
11
-165.19925475407757
21
32.458299411396617
31
0
0
LINE
5
162
100
AcDbEntity
8
0
100
AcDbLine
10
-92.502674471513529
20
18.32751566281685
30
0
11
-92.631499789258356
21
18.777921923883405
31
0
0
LINE
5
163
100
AcDbEntity
8
0
100
AcDbLine
10
-165.15069170838541
20
33.820398746648308
30
0
11
-164.86268867522281
21
34.189781784008119
31
0
0
LINE
5
164
100
AcDbEntity
8
0
100
AcDbLine
10
-90.045444566134705
20
19.98510874681299
30
0
11
-89.782619428529529
21
19.595694713754561
31
0
0
LINE
5
165
100
AcDbEntity
8
0
100
AcDbLine
10
-136.83101451039039
20
164.17276979147957
30
0
11
-136.99141911017585
21
163.73024602401875
31
0
0
LWPOLYLINE
5
166
100
AcDbEntity
8
0
100
AcDbPolyline
90
20
70
1
43
0.0
10
-135.61807691865542
20
143.02681972678266
10
-134.83346231092571
20
142.87430609677818
10
-135.02408049730687
20
141.89366054051396
10
-121.2817907426313
20
139.22243000974001
10
-121.09117255625011
20
140.20307556600423
10
-120.30528183318194
20
140.05031388430578
10
-119.71358313851925
20
143.09433978017697
10
-120.49947386158746
20
143.24710146187542
10
-119.39278168840349
20
148.94053912587188
10
-118.60689096533531
20
148.7877774441734
10
-118.0155738886634
20
151.82984008567774
10
-118.80146461173157
20
151.98260176737622
10
-118.61046480735968
20
152.96521057800729
10
-132.35275456203524
20
155.63644110878124
10
-132.54375436640717
20
154.65383229815015
10
-133.32836897413688
20
154.80634592815463
10
-133.91968605080879
20
151.76428328665028
10
-133.13507144307908
20
151.61176965664583
10
-134.24176361626306
20
145.91833199264934
10
-135.02637822399277
20
146.07084562265382
0
LINE
5
167
100
AcDbEntity
8
0
100
AcDbLine
10
-150.88810371028754
20
97.286295945831711
30
0
11
-151.35816756353665
21
97.301874580836056
31
0
0
LINE
5
168
100
AcDbEntity
8
0
100
AcDbLine
10
-149.59871222251883
20
98.488659251854301
30
0
11
-149.75869704251443
21
98.048295064197134
31
0
0
LINE
5
169
100
AcDbEntity
8
0
100
AcDbLine
10
-151.35816756353665
20
97.301874580836056
30
0
11
-151.79848439276057
21
97.46325602432384
31
0
0
LINE
5
170
100
AcDbEntity
8
0
100
AcDbLine
10
-150.34380197007638
20
100.08648564933452
30
0
11
-149.97446118651766
21
99.798317647640701
31
0
0
LINE
5
171
100
AcDbEntity
8
0
100
AcDbLine
10
-150.78574057740701
20
100.24675613117905
30
0
11
-150.34380197007638
21
100.08648564933452
31
0
0
LINE
5
172
100
AcDbEntity
8
0
100
AcDbLine
10
-138.48654218311964
20
165.94726177929687
30
0
11
-138.0181001079772
21
165.93057218264931
31
0
0
LINE
5
173
100
AcDbEntity
8
0
100
AcDbLine
10
-136.9440847760599
20
165.09325654962515
30
0
11
-136.8143483624664
21
164.6411960502582
31
0
0
LINE
5
174
100
AcDbEntity
8
0
100
AcDbLine
10
-151.79848439276057
20
97.46325602432384
30
0
11
-152.16892250551081
21
97.753063528578025
31
0
0
LINE
5
175
100
AcDbEntity
8
0
100
AcDbLine
10
-137.57616150064661
20
165.77030170080477
30
0
11
-137.20674439348969
21
165.48252634998434
31
0
0
LINE
5
176
100
AcDbEntity
8
0
100
AcDbLine
10
-137.20674439348969
20
165.48252634998434
30
0
11
-136.9440847760599
21
165.09325654962515
31
0
0
LINE
5
177
100
AcDbEntity
8
0
100
AcDbLine
10
-149.75869704251443
20
98.048295064197134
30
0
11
-150.04808334253948
21
97.679028099173422
31
0
0
LINE
5
178
100
AcDbEntity
8
0
100
AcDbLine
10
-136.99141911017585
20
163.73024602401875
30
0
11
-137.28067184390412
21
163.36166619802356
31
0
0
LINE
5
179
100
AcDbEntity
8
0
100
AcDbLine
10
-150.43744013289927
20
97.416497449723295
30
0
11
-150.88810371028754
21
97.286295945831711
31
0
0
LINE
5
180
100
AcDbEntity
8
0
100
AcDbLine
10
-137.28067184390412
20
163.36166619802356
30
0
11
-137.67002863426393
21
163.09913554857337
31
0
0
LINE
5
181
100
AcDbEntity
8
0
100
AcDbLine
10
-152.0952714523176
20
99.872449331673693
30
0
11
-151.70594355912914
21
100.13488372649545
31
0
0
LINE
5
182
100
AcDbEntity
8
0
100
AcDbLine
10
-138.93822676610117
20
165.8190924288391
30
0
11
-138.48654218311964
21
165.94726177929687
31
0
0
LINE
5
183
100
AcDbEntity
8
0
100
AcDbLine
10
-152.16892250551081
20
97.753063528578025
30
0
11
-152.43157230666873
21
98.142331420847199
31
0
0
LINE
5
184
100
AcDbEntity
8
0
100
AcDbLine
10
-139.32757374018917
20
165.55655987129896
30
0
11
-138.93822676610117
21
165.8190924288391
31
0
0
LINE
5
185
100
AcDbEntity
8
0
100
AcDbLine
10
-138.0181001079772
20
165.93057218264931
30
0
11
-137.57616150064661
21
165.77030170080477
31
0
0
LINE
5
186
100
AcDbEntity
8
0
100
AcDbLine
10
-137.67002863426393
20
163.09913554857337
30
0
11
-138.12073037345127
21
162.9687377192451
31
0
0
LINE
5
187
100
AcDbEntity
8
0
100
AcDbLine
10
-139.0311110559243
20
163.1456977977372
30
0
11
-139.40151100687544
21
163.43570162742816
31
0
0
LINE
5
188
100
AcDbEntity
8
0
100
AcDbLine
10
-151.70594355912914
20
100.13488372649545
30
0
11
-151.25418265254945
21
100.26344572782664
31
0
0
LINE
5
189
100
AcDbEntity
8
0
100
AcDbLine
10
-136.8143483624664
20
164.6411960502582
30
0
11
-136.83101451039039
21
164.17276979147957
31
0
0
LINE
5
190
100
AcDbEntity
8
0
100
AcDbLine
10
-149.97446118651766
20
99.798317647640701
30
0
11
-149.71178248818833
21
99.409146009999901
31
0
0
LINE
5
191
100
AcDbEntity
8
0
100
AcDbLine
10
-138.12073037345127
20
162.9687377192451
30
0
11
-138.59052709410685
21
162.9856906323063
31
0
0
LINE
5
192
100
AcDbEntity
8
0
100
AcDbLine
10
-139.66416080803339
20
163.82496951969733
30
0
11
-139.7929241941045
21
164.27480344828376
31
0
0
LINE
5
193
100
AcDbEntity
8
0
100
AcDbLine
10
-139.40151100687544
20
163.43570162742816
30
0
11
-139.66416080803339
21
163.82496951969733
31
0
0
LINE
5
194
100
AcDbEntity
8
0
100
AcDbLine
10
-139.77588624446156
20
164.74519486951925
30
0
11
-139.61585344639502
21
165.18575347452321
31
0
0
LINE
5
195
100
AcDbEntity
8
0
100
AcDbLine
10
-139.61585344639502
20
165.18575347452321
30
0
11
-139.32757374018917
21
165.55655987129896
31
0
0
LINE
5
196
100
AcDbEntity
8
0
100
AcDbLine
10
-152.56020212644307
20
98.592852488462057
30
0
11
-152.54358395659
21
99.061084329893987
31
0
0
LINE
5
197
100
AcDbEntity
8
0
100
AcDbLine
10
-152.38330310682949
20
99.502919050236386
30
0
11
-152.0952714523176
21
99.872449331673693
31
0
0
LINE
5
198
100
AcDbEntity
8
0
100
AcDbLine
10
-92.45427830244256
20
19.68964743559776
30
0
11
-92.166108392658799
21
20.058998035428353
31
0
0
LINE
5
199
100
AcDbEntity
8
0
100
AcDbLine
10
-149.58179802290087
20
98.958361625971435
30
0
11
-149.59871222251883
21
98.488659251854301
31
0
0
LINE
5
200
100
AcDbEntity
8
0
100
AcDbLine
10
-151.25418265254945
20
100.26344572782664
30
0
11
-150.78574057740701
21
100.24675613117905
31
0
0
LINE
5
201
100
AcDbEntity
8
0
100
AcDbLine
10
-150.04808334253948
20
97.679028099173422
30
0
11
-150.43744013289927
21
97.416497449723295
31
0
0
LINE
5
202
100
AcDbEntity
8
0
100
AcDbLine
10
-152.43157230666873
20
98.142331420847199
30
0
11
-152.56020212644307
21
98.592852488462057
31
0
0
LINE
5
203
100
AcDbEntity
8
0
100
AcDbLine
10
-138.59052709410685
20
162.9856906323063
30
0
11
-139.0311110559243
21
163.1456977977372
31
0
0
LINE
5
204
100
AcDbEntity
8
0
100
AcDbLine
10
-139.7929241941045
20
164.27480344828376
30
0
11
-139.77588624446156
21
164.74519486951925
31
0
0
LINE
5
205
100
AcDbEntity
8
0
100
AcDbLine
10
-152.54358395659
20
99.061084329893987
30
0
11
-152.38330310682949
21
99.502919050236386
31
0
0
LWPOLYLINE
5
206
100
AcDbEntity
8
0
100
AcDbPolyline
90
20
70
1
43
0.0
10
-141.07044396154015
20
114.97682295976566
10
-140.28582935381047
20
114.82430932976116
10
-140.47646662109116
20
113.8435656107786
10
-126.73417686641559
20
111.17233508000467
10
-126.5435395991349
20
112.15307879898724
10
-125.7576488760667
20
112.00031711728877
10
-125.16604558590171
20
115.04385219956825
10
-125.95193630896989
20
115.19661388126671
10
-124.8451678121878
20
120.89044419613654
10
-124.0592770891196
20
120.73768251443808
10
-123.46794093154816
20
123.77984331866074
10
-124.25383165461636
20
123.9326050003592
10
-124.06283185024442
20
124.91521381099031
10
-137.80512160492003
20
127.58644434176423
10
-137.9961214092919
20
126.60383553113314
10
-138.78073601702164
20
126.75634916113762
10
-139.37207217459309
20
123.71418835691495
10
-138.58745756686341
20
123.56167472691047
10
-139.69422606364549
20
117.86784441204064
10
-140.4788406713752
20
118.02035804204513
0
LWPOLYLINE
5
207
100
AcDbEntity
8
0
100
AcDbPolyline
90
20
70
1
43
0.0
10
-151.89640178121309
20
42.613596816256361
10
-152.68229250428129
20
42.766358497954826
10
-153.27389579444628
20
39.72282341567535
10
-152.48800507137804
20
39.570061733976885
10
-152.67864233865876
20
38.589318014994319
10
-138.93635258398319
20
35.918087484220379
10
-138.7457153167025
20
36.898831203202946
10
-137.95972643091596
20
36.746050440604947
10
-137.36812314075098
20
39.78958552288443
10
-138.15411202653752
20
39.942366285482429
10
-137.04738169155448
20
45.636000274915567
10
-136.26139280576794
20
45.483219512317568
10
-135.67003756729696
20
48.525478479258567
10
-136.4560264530835
20
48.678259241856559
10
-136.26512205320927
20
49.660377238895954
10
-150.00741180788484
20
52.331607769669901
10
-150.19831620775906
20
51.349489772630506
10
-150.98420693082727
20
51.50225145432897
10
-151.57556216929828
20
48.459992487387979
10
-150.78967144623005
20
48.307230805689514
0
LWPOLYLINE
5
208
100
AcDbEntity
8
0
100
AcDbPolyline
90
20
70
1
43
0.0
10
-125.69271448911245
20
91.563342262252334
10
-125.50207722183174
20
92.5440859812349
10
-124.71756077682038
20
92.391591432129957
10
-124.12595748665538
20
95.435126514409461
10
-124.91047393166674
20
95.587621063514391
10
-123.80370543488465
20
101.28145137838422
10
-123.01918898987327
20
101.12895682927928
10
-122.42783375140232
20
104.17121579622028
10
-123.21235019641367
20
104.32371034532521
10
-123.02146487743897
20
105.30573017964626
10
-136.76512891017137
20
107.97722784301372
10
-136.95601422914606
20
106.99520800869267
10
-137.74062883687577
20
107.14772163869716
10
-138.33198407534678
20
104.10546267175616
10
-137.54736946761707
20
103.95294904175168
10
-138.65413796439918
20
98.259118726881866
10
-139.43875257212886
20
98.411632356886329
10
-140.03035586229385
20
95.368097274606839
10
-139.24574125456414
20
95.215583644602361
10
-139.43637852184483
20
94.234839925619809
0
LWPOLYLINE
5
209
100
AcDbEntity
8
0
100
AcDbPolyline
90
20
70
1
43
0.0
10
-126.99017520181005
20
72.408990037783724
10
-126.79953793452935
20
73.38973375676629
10
-126.01492332679965
20
73.237220126761798
10
-125.42332003663468
20
76.280755209041303
10
-126.20793464436439
20
76.433268839045766
10
-125.10116614758229
20
82.127099153915594
10
-124.31655153985254
20
81.974585523911117
10
-123.72519630138157
20
85.016844490852108
10
-124.50981090911128
20
85.1693581208566
10
-124.31892559013659
20
86.151377955177622
10
-138.06258962286898
20
88.822875618545098
10
-138.25347494184368
20
87.840855784224047
10
-139.03799138685508
20
87.993350333328976
10
-139.62934662532604
20
84.951091366387999
10
-138.84483018031463
20
84.798596817283055
10
-139.95159867709677
20
79.104766502413227
10
-140.73611512210817
20
79.257261051518171
10
-141.32771841227313
20
76.213725969238681
10
-140.54320196726172
20
76.061231420133751
10
-140.73383923454244
20
75.080487701151185
0
LINE
5
210
100
AcDbEntity
8
0
100
AcDbLine
10
-149.71178248818833
20
99.409146009999901
30
0
11
-149.58179802290087
21
98.958361625971435
31
0
0
LWPOLYLINE
5
211
100
AcDbEntity
8
0
100
AcDbPolyline
90
20
70
1
43
0.0
10
-120.08073817234364
20
123.12143779921443
10
-120.67207432991509
20
120.07927699499177
10
-119.88745972218538
20
119.92676336498731
10
-120.99422821896749
20
114.23293305011748
10
-121.7788428266972
20
114.38544668012196
10
-122.37044611686218
20
111.34191159784248
10
-121.58583150913248
20
111.189397967838
10
-121.7764687764132
20
110.20865424885544
10
-108.03427718445593
20
107.53744279898102
10
-107.84363991717524
20
108.51818651796358
10
-107.05755286867034
20
108.36538667446605
10
-106.46594957850539
20
111.40892175674553
10
-107.25203662701027
20
111.56172160024306
10
-106.14526813022817
20
117.25555191511289
10
-105.35918108172328
20
117.10275207161536
10
-104.7678449241518
20
120.14491287583802
10
-105.5539319726567
20
120.29771271933556
10
-105.3629321682848
20
121.28032152996666
10
-119.10512376024201
20
123.95153297984108
10
-119.29612356461394
20
122.96892416920996
0
LWPOLYLINE
5
212
100
AcDbEntity
8
0
100
AcDbPolyline
90
52
70
1
43
0.0
10
-122.66782651989149
20
52.395441777369797
10
-122.85478117356142
20
51.433643463027778
10
-119.61521514274747
20
50.8039356164861
10
-119.42826048907754
20
51.765733930828119
10
-117.83321447869344
20
51.455688394240781
10
-116.63684207768249
20
57.610490834457622
10
-115.77801645488414
20
57.443552044402686
10
-115.24369402513119
20
60.192402646211185
10
-116.10251964792954
20
60.359341436266121
10
-115.48618751196375
20
63.530095401520413
10
-117.08123352234786
20
63.840140938107766
10
-116.9056129230033
20
64.743630597752997
10
-120.14517895381726
20
65.373338444294674
10
-120.32079955316185
20
64.469848784649443
10
-122.01459725820079
20
64.799089706171671
10
-122.16712996910481
20
64.014376935723604
10
-122.92720389724835
20
64.162120340843657
10
-122.68501003941691
20
65.408099724793786
10
-123.47109708792178
20
65.560899568291333
10
-123.28021176894708
20
66.54291940261237
10
-137.02250152362265
20
69.214149933386309
10
-137.21338684259734
20
68.232130099065259
10
-137.99927756566558
20
68.384891780763724
10
-138.24147142349702
20
67.138912396813595
10
-139.00164351435888
20
67.286674882833196
10
-138.84911080345486
20
68.071387653281249
10
-140.54271218305712
20
68.400590413004409
10
-140.36709158371252
20
69.304080072649654
10
-143.60695210268153
20
69.933845161889934
10
-143.78257270202613
20
69.030355502244703
10
-145.37742238697354
20
69.340362877032959
10
-145.99375452293935
20
66.169608911778681
10
-146.85267830845603
20
66.336566782733144
10
-147.38700073820897
20
63.587716180924652
10
-146.52807695269229
20
63.420758309970182
10
-147.72444935370322
20
57.265955869753327
10
-146.12959966875579
20
56.95594849496505
10
-146.3165543224257
20
55.994150180623038
10
-143.07669380345669
20
55.364385091382751
10
-142.88973914978675
20
56.32618340572477
10
-141.19613777018452
20
55.996980646001617
10
-141.04337608848601
20
56.782871369069809
10
-140.28320399762418
20
56.635108883050222
10
-140.28898551018412
20
56.605365579391759
10
-139.50309478711588
20
56.452603897693294
10
-139.69373205439661
20
55.471860178710735
10
-125.95144229972104
20
52.800629647936802
10
-125.76080503244032
20
53.781373366919354
10
-124.97471798393545
20
53.628573523421821
10
-124.96893647137551
20
53.658316827080284
10
-124.208862543232
20
53.510573421960224
10
-124.36162422493048
20
52.724682698892025
0
LWPOLYLINE
5
213
100
AcDbEntity
8
0
100
AcDbPolyline
90
20
70
1
43
0.0
10
-128.19919058539395
20
43.91608615239047
10
-127.41447781494585
20
43.763553441486458
10
-128.5212081499289
20
38.06991945205332
10
-129.30592092037696
20
38.222452162957332
10
-129.89752421054195
20
35.178917080677849
10
-129.11281144009388
20
35.026384369773837
10
-129.30344870737457
20
34.04564065079127
10
-115.55998100007886
20
31.374181149222878
10
-115.36934373279817
20
32.354924868205444
10
-114.5846309623501
20
32.202392157301432
10
-113.99302767218512
20
35.245927239580922
10
-114.7777404426332
20
35.398459950484927
10
-113.67101010765015
20
41.092093939918072
10
-112.88629733720211
20
40.93956122901406
10
-112.2949420987311
20
43.981820195955059
10
-113.07965486917919
20
44.134352906859064
10
-112.88875046930497
20
45.11647090389846
10
-126.63221817660066
20
47.787930405466845
10
-126.82312257647489
20
46.80581240842745
10
-127.60783534692294
20
46.958345119331462
0
LWPOLYLINE
5
214
100
AcDbEntity
8
0
100
AcDbPolyline
90
20
70
1
43
0.0
10
-113.91817478559145
20
79.953345835887376
10
-113.13208773708655
20
79.800545992389843
10
-114.23885623386866
20
74.106715677520015
10
-115.02494328237354
20
74.259515521017548
10
-115.61654657253851
20
71.215980438738058
10
-114.83045952403361
20
71.063180595240539
10
-115.02109679131433
20
70.082436876257972
10
-101.2791015247938
20
67.411263588182649
10
-101.0884642575131
20
68.392007307165201
10
-100.30237720900821
20
68.239207463667668
10
-99.71077391884323
20
71.282742545947158
10
-100.49686096734811
20
71.435542389444691
10
-99.390092470566003
20
77.12937270431452
10
-98.604005422061107
20
76.976572860816987
10
-98.012650183590154
20
80.018831827757978
10
-98.798737232095021
20
80.171631671255511
10
-98.607851913120328
20
81.153651505576562
10
-112.34984717964085
20
83.824824793651885
10
-112.54073249861555
20
82.842804959330834
10
-113.32681954712044
20
82.995604802828367
0
LWPOLYLINE
5
215
100
AcDbEntity
8
0
100
AcDbPolyline
90
20
70
1
43
0.0
10
-116.06118489056065
20
89.69116256141676
10
-102.31918962404012
20
87.019989273341437
10
-102.12855235675943
20
88.000732992323975
10
-101.34246530825453
20
87.847933148826456
10
-100.75086201808956
20
90.891468231105947
10
-101.53694906659445
20
91.04426807460348
10
-100.43018056981232
20
96.738098389473294
10
-99.64409352130744
20
96.58529854597576
10
-99.052738282836472
20
99.627557512916781
10
-99.838825331341354
20
99.780357356414299
10
-99.647940012366661
20
100.76237719073535
10
-113.38993527888718
20
103.43355047881069
10
-113.58082059786187
20
102.45153064448964
10
-114.36553336830994
20
102.60406335539363
10
-114.95688860678094
20
99.561804388452643
10
-114.17217583633288
20
99.409271677548631
10
-115.27894433311499
20
93.715441362678803
10
-116.06365710356303
20
93.867974073582815
10
-116.655260393728
20
90.824438991303325
10
-115.87054762327995
20
90.671906280399313
0
LWPOLYLINE
5
216
100
AcDbEntity
8
0
100
AcDbPolyline
90
20
70
1
43
0.0
10
-96.841571601470349
20
138.64847110700393
10
-97.62628437191843
20
138.80100381790794
10
-98.217983066581084
20
135.75697792203675
10
-97.433270296133003
20
135.60444521113274
10
-97.623888482514189
20
134.62379965486852
10
-83.881893215993628
20
131.9526263667932
10
-83.69127502961247
20
132.93327192305742
10
-82.905089818389243
20
132.78045299866034
10
-82.313391123726589
20
135.82447889453152
10
-83.099576334949816
20
135.97729781892861
10
-81.992884161765858
20
141.67073548292504
10
-81.206698950542631
20
141.51791655852799
10
-80.615381873870703
20
144.55997920003233
10
-81.40156708509393
20
144.71279812442938
10
-81.210567280722017
20
145.69540693506048
10
-94.95256254724255
20
148.3665802231358
10
-95.143562351614463
20
147.38397141250471
10
-95.928275122062544
20
147.53650412340872
10
-96.519592198734472
20
144.4944414819044
10
-95.734879428286376
20
144.34190877100039
0
LWPOLYLINE
5
217
100
AcDbEntity
8
0
100
AcDbPolyline
90
20
70
1
43
0.0
10
-103.07627460629848
20
106.57370472513318
10
-89.334279339777936
20
103.90253143705785
10
-89.143642072497215
20
104.88327515604041
10
-88.357456861273988
20
104.73045623164336
10
-87.765853571109034
20
107.77399131392283
10
-88.552038782332261
20
107.92681023831989
10
-87.445270285550151
20
113.6206405531897
10
-86.659085074326924
20
113.46782162879265
10
-86.067748916755448
20
116.50998243301531
10
-86.853934127978675
20
116.66280135741238
10
-86.662934323606777
20
117.64541016804347
10
-100.40492959012731
20
120.31658345611881
10
-100.59592939449925
20
119.3339746454877
10
-101.38064216494729
20
119.48650735639171
10
-101.97197832251877
20
116.44434655216905
10
-101.18726555207068
20
116.29181384126504
10
-102.29403404885278
20
110.59798352639521
10
-103.07874681930087
20
110.75051623729922
10
-103.67035010946583
20
107.70698115501975
10
-102.88563733901779
20
107.55444844411574
0
LWPOLYLINE
5
218
100
AcDbEntity
8
0
100
AcDbPolyline
90
20
70
1
43
0.0
10
-82.836951221916451
20
87.409356712680307
10
-81.730182725134341
20
93.103187027550121
10
-80.9439975139111
20
92.950368103153039
10
-80.352642275440118
20
95.992627070094045
10
-81.138827486663345
20
96.145445994491126
10
-80.947942167688637
20
97.127465828812177
10
-94.68993743420917
20
99.798639116887514
10
-94.880822753183878
20
98.816619282566464
10
-95.665535523631959
20
98.969151993470476
10
-96.256890762102927
20
95.926893026529456
10
-95.472177991654874
20
95.774360315625444
10
-96.578946488436969
20
90.08053000075563
10
-97.36365925888505
20
90.233062711659642
10
-97.955262549050019
20
87.189527629380152
10
-97.170549778601952
20
87.03699491847614
10
-97.361187045882659
20
86.056251199493587
10
-83.61919177936214
20
83.38507791141825
10
-83.428554512081433
20
84.365821630400802
10
-82.642369300858178
20
84.213002706003749
10
-82.050766010693224
20
87.256537788283225
0
LWPOLYLINE
5
219
100
AcDbEntity
8
0
100
AcDbPolyline
90
20
70
1
43
0.0
10
-95.562522442703283
20
46.893622011768343
10
-95.371885175422591
20
47.874365730750895
10
-94.58717240497451
20
47.721833019846891
10
-93.995588195709061
20
50.765269939408029
10
-94.780300966157128
20
50.917802650312041
10
-93.673532469375004
20
56.611632965181862
10
-92.888819698926966
20
56.45910025427785
10
-92.29746446045597
20
59.501359221218863
10
-93.082177230904051
20
59.653891932122875
10
-92.891291911929343
20
60.635911766443904
10
-106.63475961922504
20
63.307371268012304
10
-106.82564493819974
20
62.32535143369126
10
-107.6103577086478
20
62.477884144595272
10
-108.20171294711881
20
59.435625177654259
10
-107.41700017667071
20
59.283092466750247
10
-108.52376867345285
20
53.589262151880426
10
-109.3084814439009
20
53.741794862784438
10
-109.90006565316634
20
50.6983579432233
10
-109.11535288271828
20
50.545825232319288
10
-109.30599014999899
20
49.565081513336729
0
LWPOLYLINE
5
220
100
AcDbEntity
8
0
100
AcDbPolyline
90
20
70
1
43
0.0
10
-70.634281495099941
20
100.26762007513467
10
-70.443644227819235
20
101.24836379411724
10
-69.657459016596007
20
101.09554486972016
10
-69.065855726431039
20
104.13907995199963
10
-69.852040937654266
20
104.29189887639671
10
-68.745272440872156
20
109.98572919126653
10
-67.959087229648929
20
109.83291026686945
10
-67.367751072077468
20
112.87507107109212
10
-68.153936283300695
20
113.0278899954892
10
-67.962936478928782
20
114.0104988061203
10
-81.704931745449315
20
116.68167209419563
10
-81.895931549821228
20
115.69906328356453
10
-82.680644320269295
20
115.85159599446854
10
-83.271980477840771
20
112.80943519024588
10
-82.487267707392689
20
112.65690247934187
10
-83.594036204174813
20
106.96307216447204
10
-84.378748974622866
20
107.11560487537605
10
-84.970352264787834
20
104.07206979309657
10
-84.185639494339767
20
103.91953708219256
10
-84.376276761620488
20
102.93879336321
0
LWPOLYLINE
5
221
100
AcDbEntity
8
0
100
AcDbPolyline
90
20
70
1
43
0.0
10
-96.32109894663634
20
66.447525514334785
10
-82.579103680115807
20
63.776352226259469
10
-82.388466412835101
20
64.757095945242028
10
-81.602281201611859
20
64.604277020844947
10
-81.010677911446891
20
67.647812103124437
10
-81.796863122670118
20
67.800631027521504
10
-80.690094625888023
20
73.494461342391332
10
-79.903909414664781
20
73.341642417994265
10
-79.3125541761938
20
76.383901384935257
10
-80.098739387417027
20
76.536720309332338
10
-79.907854068442333
20
77.518740143653375
10
-93.649849334962852
20
80.189913431728698
10
-93.840734653937545
20
79.207893597407661
10
-94.626821702442427
20
79.360693440905195
10
-95.218176940913423
20
76.318434473964203
10
-94.432089892408555
20
76.16563463046667
10
-95.538858389190651
20
70.471804315596827
10
-96.324945437695533
20
70.624604159094375
10
-96.916548727860516
20
67.581069076814885
10
-96.130461679355633
20
67.428269233317351
0
LWPOLYLINE
5
222
100
AcDbEntity
8
0
100
AcDbPolyline
90
20
70
1
43
0.0
10
-105.03138484920512
20
33.526280249649346
10
-105.81747189771001
20
33.679080093146887
10
-106.409075187875
20
30.6355450108674
10
-105.62298813937008
20
30.482745167369867
10
-105.8136254066508
20
29.502001448387301
10
-92.071531977411922
20
26.830809079412433
10
-91.880894710131216
20
27.811552798394999
10
-91.094807661626319
20
27.658752954897462
10
-90.503204371461337
20
30.702288037176942
10
-91.289291419966233
20
30.855087880674482
10
-90.182561084983206
20
36.548721870107627
10
-89.39647403647831
20
36.39592202661008
10
-88.805118798007328
20
39.438180993551086
10
-89.591205846512224
20
39.590980837048619
10
-89.400301446637968
20
40.573098834088015
10
-103.14239487587687
20
43.244291203062879
10
-103.3332992757511
20
42.262173206023483
10
-104.119386324256
20
42.414973049521016
10
-104.71074156272699
20
39.372714082580025
10
-103.92465451422208
20
39.219914239082485
0
LWPOLYLINE
5
223
100
AcDbEntity
8
0
100
AcDbPolyline
90
20
70
1
43
0.0
10
-78.14157375679234
20
135.01355974508076
10
-78.926286527240407
20
135.16609245598477
10
-79.517985221903075
20
132.12206656011358
10
-78.733272451455008
20
131.96953384920957
10
-78.92389063783618
20
130.98888829294535
10
-65.181895371315647
20
128.31771500487002
10
-64.991277184934475
20
129.29836056113425
10
-64.205091973711234
20
129.14554163673716
10
-63.613393279048573
20
132.18956753260835
10
-64.399578490271821
20
132.3423864570054
10
-63.292886317087856
20
138.03582412100187
10
-62.506701105864622
20
137.88300519660478
10
-61.915384029192701
20
140.92506783810913
10
-62.701569240415935
20
141.07788676250621
10
-62.510569436044022
20
142.0604955731373
10
-76.252564702564555
20
144.73166886121263
10
-76.443564506936468
20
143.74906005058153
10
-77.228277277384535
20
143.90159276148555
10
-77.819594354056449
20
140.85953011998123
10
-77.034881583608382
20
140.70699740907719
0
LWPOLYLINE
5
224
100
AcDbEntity
8
0
100
AcDbPolyline
90
20
70
1
43
0.0
10
-78.661189201204678
20
82.421339837570414
10
-64.919193934684145
20
79.750166549495077
10
-64.728556667403438
20
80.730910268477629
10
-63.942469618898542
20
80.578110424980096
10
-63.350866328733559
20
83.621645507259586
10
-64.136953377238456
20
83.774445350757119
10
-63.030184880456346
20
89.468275665626948
10
-62.24409783195145
20
89.315475822129414
10
-61.652742593480461
20
92.357734789070406
10
-62.438829641985365
20
92.510534632567953
10
-62.247944323010664
20
93.492554466889004
10
-75.98993958953119
20
96.163727754964313
10
-76.180824908505897
20
95.181707920643262
10
-76.965537678953936
20
95.334240631547274
10
-77.556892917424932
20
92.291981664606283
10
-76.772180146976879
20
92.139448953702271
10
-77.878948643758989
20
86.445618638832457
10
-78.663661414207041
20
86.598151349736469
10
-79.255264704372024
20
83.554616267456964
10
-78.470551933923971
20
83.402083556552952
0
LWPOLYLINE
5
225
100
AcDbEntity
8
0
100
AcDbPolyline
90
20
70
1
43
0.0
10
-87.934761774547042
20
59.672459906089117
10
-88.125647093521735
20
58.690440071768073
10
-88.910359863969788
20
58.842972782672085
10
-89.501715102440784
20
55.800713815731072
10
-88.717002331992745
20
55.64818110482706
10
-89.82377082877484
20
49.954350789957246
10
-90.608483599222893
20
50.106883500861258
10
-91.200067808488328
20
47.063446581300113
10
-90.415355038040275
20
46.910913870396101
10
-90.605992305320981
20
45.930170151413549
10
-76.862524598025274
20
43.258710649845156
10
-76.671887330744568
20
44.239454368827715
10
-75.887174560296501
20
44.086921657923703
10
-75.295590351031066
20
47.130358577484841
10
-76.080303121479119
20
47.282891288388853
10
-74.97353462469701
20
52.976721603258675
10
-74.188821854248957
20
52.824188892354663
10
-73.597466615777961
20
55.866447859295675
10
-74.382179386226028
20
56.018980570199687
10
-74.191294067251334
20
57.001000404520724
0
LWPOLYLINE
5
226
100
AcDbEntity
8
0
100
AcDbPolyline
90
20
70
1
43
0.0
10
-77.430463834677653
20
63.793357871394178
10
-77.621101101958359
20
62.812614152411612
10
-63.879105835437812
20
60.141440864336289
10
-63.688468568157106
20
61.122184583318848
10
-62.902381519652209
20
60.969384739821308
10
-62.310778229487234
20
64.012919822100798
10
-63.096865277992123
20
64.165719665598331
10
-61.990096781210013
20
69.859549980468159
10
-61.204009732705124
20
69.706750136970626
10
-60.612654494234135
20
72.749009103911618
10
-61.398741542739032
20
72.901808947409151
10
-61.207856223764324
20
73.883828781730202
10
-74.949851490284885
20
76.555002069805511
10
-75.140736809259579
20
75.572982235484488
10
-75.926823857764447
20
75.725782078982022
10
-76.518179096235428
20
72.68352311204103
10
-75.732092047730561
20
72.530723268543497
10
-76.83886054451267
20
66.836892953673654
10
-77.624947593017538
20
66.989692797171202
10
-78.216550883182521
20
63.946157714891712
0
LWPOLYLINE
5
227
100
AcDbEntity
8
0
100
AcDbPolyline
90
20
70
1
43
0.0
10
-58.52827943270654
20
140.26668139956237
10
-59.119596509378454
20
137.22461875805803
10
-58.334883738930401
20
137.07208604715402
10
-59.441575912114359
20
131.37864838315755
10
-60.226288682562412
20
131.53118109406159
10
-60.81798737722508
20
128.48715519819041
10
-60.03327460677702
20
128.3346224872864
10
-60.223892793158186
20
127.35397693102216
10
-46.48199568935599
20
124.68282272384639
10
-46.291377502974818
20
125.66346828011061
10
-45.505094129033239
20
125.51063027481398
10
-44.913395434370571
20
128.55465617068515
10
-45.699678808312157
20
128.70749417598179
10
-44.592986635128199
20
134.40093183997823
10
-43.806703261186613
20
134.24809383468161
10
-43.215386184514699
20
137.29015647618596
10
-44.001669558456278
20
137.44299448148257
10
-43.810669754084365
20
138.42560329211366
10
-57.552566857886561
20
141.09675749928945
10
-57.74356666225848
20
140.11414868865836
0
LWPOLYLINE
5
228
100
AcDbEntity
8
0
100
AcDbPolyline
90
20
70
1
43
0.0
10
-49.454036601341045
20
109.39299771446557
10
-49.263036796969132
20
110.37560652509667
10
-63.004933900771327
20
113.04676073227245
10
-63.195933705143254
20
112.06415192164135
10
-63.980646475591307
20
112.21668463254537
10
-64.571982633162762
20
109.17452382832269
10
-63.787269862714702
20
109.02199111741868
10
-64.894038359496818
20
103.32816080254887
10
-65.678751129944871
20
103.48069351345288
10
-66.27035442010984
20
100.4371584311734
10
-65.485641649661787
20
100.28462572026939
10
-65.676278916942493
20
99.303882001286823
10
-51.934381813140291
20
96.632727794111034
10
-51.743744545859585
20
97.6134715130936
10
-50.957461171918006
20
97.460633507796985
10
-50.36585788175303
20
100.50416859007646
10
-51.152141255694602
20
100.65700659537308
10
-50.045372758912507
20
106.3508369102429
10
-49.25908938497092
20
106.19799890494627
10
-48.667753227399473
20
109.24015970916895
0
LWPOLYLINE
5
229
100
AcDbEntity
8
0
100
AcDbPolyline
90
20
70
1
43
0.0
10
-58.16262491606561
20
39.623818368821517
10
-57.971987648784904
20
40.604562087804076
10
-57.187667529210231
20
40.452105700498215
10
-56.596083319944782
20
43.495542620059354
10
-57.380403439519455
20
43.647999007365215
10
-56.27363494273736
20
49.341829322235036
10
-55.489314823162687
20
49.189372934929175
10
-54.897959584691691
20
52.231631901870188
10
-55.682279704266364
20
52.384088289176049
10
-55.49139438529167
20
53.366108123497085
10
-69.234763929869047
20
56.037548544165936
10
-69.42564924884374
20
55.055528709844893
10
-70.210362019291793
20
55.208061420748905
10
-70.801717257762775
20
52.165802453807899
10
-70.017004487314736
20
52.013269742903887
10
-71.123772984096846
20
46.319439428034066
10
-71.908485754544884
20
46.471972138938078
10
-72.500069963810333
20
43.42853521937694
10
-71.71535719336228
20
43.276002508472928
10
-71.905994460642987
20
42.295258789490369
0
LWPOLYLINE
5
230
100
AcDbEntity
8
0
100
AcDbPolyline
90
20
70
1
43
0.0
10
-57.480827063827888
20
91.546796558720089
10
-58.265539834275948
20
91.699329269624101
10
-58.856895072746937
20
88.65707030268311
10
-58.07218230229887
20
88.504537591779098
10
-59.178950799080987
20
82.810707276909284
10
-59.963663569529047
20
82.963239987813296
10
-60.555266859694029
20
79.919704905533791
10
-59.770554089245962
20
79.767172194629779
10
-59.961191356526669
20
78.786428475647227
10
-46.219294252724488
20
76.115274268471438
10
-46.028656985443781
20
77.09601798745399
10
-45.242373611502202
20
76.943179982157389
10
-44.65077032133722
20
79.986715064436879
10
-45.437053695278806
20
80.139553069733495
10
-44.330285198496696
20
85.833383384603309
10
-43.544001824555124
20
85.680545379306693
10
-42.952646586084128
20
88.722804346247699
10
-43.738929960025708
20
88.8756423515443
10
-43.548044641051007
20
89.857662185865351
10
-57.289941744853188
20
92.52881639304114
0
LWPOLYLINE
5
231
100
AcDbEntity
8
0
100
AcDbPolyline
90
20
70
1
43
0.0
10
-44.20277632584758
20
57.334549701496286
10
-43.611173035682604
20
60.378084783775769
10
-44.396474782440734
20
60.530731980077007
10
-43.289706285658625
20
66.224562294946836
10
-42.504404538900495
20
66.071915098645604
10
-41.913049300429506
20
69.114174065586582
10
-42.698351047187643
20
69.266821261887827
10
-42.507465728212935
20
70.248841096208864
10
-56.250246296480242
20
72.920167031480489
10
-56.441131615454943
20
71.938147197159452
10
-57.226433362213072
20
72.090794393460683
10
-57.817788600684061
20
69.048535426519692
10
-57.032486853925931
20
68.895888230218461
10
-58.139255350708041
20
63.202057915348632
10
-58.92455709746617
20
63.354705111649864
10
-59.516160387631146
20
60.311170029370381
10
-58.730858640873016
20
60.158522833069142
10
-58.921495908153723
20
59.17777911408659
10
-45.178715339886423
20
56.506453178814965
10
-44.988078072605717
20
57.487196897797517
0
LWPOLYLINE
5
232
100
AcDbEntity
8
0
100
AcDbPolyline
90
20
70
1
43
0.0
10
-38.852470850490207
20
137.46182705646672
10
-39.043470654862126
20
136.47921824583565
10
-39.828772401620256
20
136.6318654421369
10
-40.420089478292169
20
133.58980280063255
10
-39.63478773153404
20
133.43715560433131
10
-40.741479904718005
20
127.74371794033485
10
-41.526781651476128
20
127.89636513663609
10
-42.118480346138796
20
124.85233924076491
10
-41.333178599380666
20
124.69969204446366
10
-41.523796785761832
20
123.71904648819944
10
-27.781997844677999
20
121.0479113619232
10
-27.59137965829683
20
122.02855691818742
10
-26.805096284355251
20
121.8757189128908
10
-26.21339758969259
20
124.91974480876198
10
-26.999680963634166
20
125.07258281405861
10
-25.892988790450207
20
130.76602047805505
10
-25.106705416508632
20
130.61318247275844
10
-24.515388339836711
20
133.65524511426278
10
-25.30167171377829
20
133.8080831195594
10
-25.110671909406371
20
134.79069193019049
0
LWPOLYLINE
5
233
100
AcDbEntity
8
0
100
AcDbPolyline
90
20
70
1
43
0.0
10
-29.967755382721482
20
105.60524834724576
10
-30.754038756663057
20
105.75808635254239
10
-30.563038952291137
20
106.74069516317348
10
-44.304837893374973
20
109.41183028944974
10
-44.495837697746893
20
108.42922147881863
10
-45.28113944450503
20
108.58186867511988
10
-45.872475602076477
20
105.53970787089722
10
-45.087173855318348
20
105.38706067459597
10
-46.19394235210045
20
99.693230359726144
10
-46.979244098858587
20
99.845877556027389
10
-47.570847389023562
20
96.802342473747913
10
-46.785545642265433
20
96.649695277446668
10
-46.976182909546139
20
95.668951558464101
10
-33.234383968462296
20
92.997816432187861
10
-33.04374670118159
20
93.978560151170427
10
-32.257463327240018
20
93.825722145873812
10
-31.665860037075042
20
96.869257228153288
10
-32.452143411016621
20
97.022095233449903
10
-31.345374914234512
20
102.71592554831972
10
-30.559091540292936
20
102.5630875430231
0
LWPOLYLINE
5
234
100
AcDbEntity
8
0
100
AcDbPolyline
90
20
70
1
43
0.0
10
-39.462627071387608
20
35.988907006898337
10
-39.271989804106909
20
36.969650725880896
10
-38.487669684532236
20
36.817194338575035
10
-37.896085475266801
20
39.860631258136181
10
-38.680405594841467
20
40.013087645442042
10
-37.573637098059358
20
45.706917960311856
10
-36.789316978484685
20
45.554461573006002
10
-36.197961740013696
20
48.596720539947007
10
-36.982281859588369
20
48.749176927252869
10
-36.791396540613668
20
49.731196761573912
10
-50.535158736064417
20
52.402713505840914
10
-50.726044055039111
20
51.420693671519871
10
-51.510364174613798
20
51.573150058825732
10
-52.101719413084794
20
48.530891091884726
10
-51.3173992935101
20
48.378434704578865
10
-52.424167790292209
20
42.684604389709044
10
-53.208487909866889
20
42.837060777014898
10
-53.800072119132338
20
39.79362385745376
10
-53.015751999557651
20
39.641167470147899
10
-53.20638926683835
20
38.660423751165339
0
LWPOLYLINE
5
235
100
AcDbEntity
8
0
100
AcDbPolyline
90
20
70
1
43
0.0
10
-27.519296408046475
20
72.480362906548251
10
-27.328659140765769
20
73.461106625530817
10
-26.542375766824193
20
73.308268620234202
10
-25.950772476659214
20
76.351803702513692
10
-26.73705585060079
20
76.504641707810308
10
-25.630287353818684
20
82.198472022680136
10
-24.844003979877101
20
82.04563401738352
10
-24.252648741406119
20
85.087892984324526
10
-25.038932115347695
20
85.240730989621127
10
-24.848046796372998
20
86.222750823942178
10
-38.589845737456855
20
88.893885950218433
10
-38.780731056431549
20
87.911866115897382
10
-39.566032803189685
20
88.064513312198613
10
-40.157388041660667
20
85.022254345257622
10
-39.372086294902537
20
84.869607148956376
10
-40.478854791684647
20
79.175776834086548
10
-41.264156538442776
20
79.328424030387794
10
-41.855759828607759
20
76.284888948108303
10
-41.07045808184963
20
76.132241751807058
10
-41.261095349130336
20
75.151498032824506
0
LWPOLYLINE
5
236
100
AcDbEntity
8
0
100
AcDbPolyline
90
20
70
1
43
0.0
10
-40.223577625604712
20
59.719602940731306
10
-40.815180915769687
20
56.676067858451816
10
-40.030860796195
20
56.523611471145962
10
-40.221498063475707
20
55.542867752163403
10
-26.478717495208429
20
52.871541816891785
10
-26.288080227927722
20
53.852285535874344
10
-25.502778481169575
20
53.699638339573099
10
-24.911175191004595
20
56.743173421852582
10
-25.696476937762746
20
56.895820618153827
10
-24.589708440980633
20
62.589650933023655
10
-23.804406694222486
20
62.43700373672241
10
-23.213051455751497
20
65.479262703663409
10
-23.998353202509648
20
65.631909899964654
10
-23.807467883534951
20
66.613929734285691
10
-37.550248451802233
20
69.285255669557301
10
-37.741133770776926
20
68.303235835236265
10
-38.525453890351613
20
68.455692222542126
10
-39.116809128822602
20
65.413433255601134
10
-38.332489009247915
20
65.260976868295273
10
-39.439257506030025
20
59.567146553425445
0
LWPOLYLINE
5
237
100
AcDbEntity
8
0
100
AcDbPolyline
90
20
70
1
43
0.0
10
-11.863041107613128
20
103.1057838012503
10
-25.604840048696982
20
105.77691892752655
10
-25.795839853068902
20
104.79431011689545
10
-26.581141599827035
20
104.94695731319669
10
-27.172477757398489
20
101.90479650897403
10
-26.387176010640356
20
101.75214931267278
10
-27.493944507422462
20
96.058318997802971
10
-28.279246254180595
20
96.210966194104216
10
-28.870849544345567
20
93.16743111182474
10
-28.085547797587438
20
93.014783915523495
10
-28.276185064868145
20
92.034040196540928
10
-14.534386123784291
20
89.362905070264674
10
-14.343748856503584
20
90.343648789247226
10
-13.557465482562009
20
90.190810783950624
10
-12.965862192397031
20
93.2343458662301
10
-13.752145566338607
20
93.387183871526702
10
-12.645377069556501
20
99.08101418639653
10
-11.859093695614924
20
98.928176181099928
10
-11.267757538043471
20
101.97033698532259
10
-12.054040911985046
20
102.12317499061919
0
LWPOLYLINE
5
238
100
AcDbEntity
8
0
100
AcDbPolyline
90
20
70
1
43
0.0
10
-6.4067075718306192
20
126.97827111083527
10
-5.8153904951587005
20
130.02033375233961
10
-6.6016738691002779
20
130.1731717576362
10
-6.4106740647283615
20
131.15578056826729
10
-20.152473005812219
20
133.82691569454354
10
-20.343472810184132
20
132.84430688391245
10
-21.128774556942265
20
132.9969540802137
10
-21.720091633614182
20
129.95489143870938
10
-20.934789886856052
20
129.80224424240814
10
-22.041482060040011
20
124.10880657841167
10
-22.82678380679814
20
124.26145377471292
10
-23.418482501460804
20
121.21742787884173
10
-22.633180754702671
20
121.06478068254049
10
-22.823798941083844
20
120.08413512627627
10
-9.0819999999999883
20
117.41300000000001
10
-8.8913818136188176
20
118.39364555626423
10
-8.1050984396772403
20
118.24080755096762
10
-7.5133997450145777
20
121.2848334468388
10
-8.2996831189561533
20
121.43767145213542
10
-7.1929909457721948
20
127.13110911613187
0
LWPOLYLINE
5
239
100
AcDbEntity
8
0
100
AcDbPolyline
90
20
70
1
43
0.0
10
-34.394645697496067
20
39.202340224087095
10
-34.986229906761508
20
36.158903304525957
10
-34.200928160003357
20
36.006256108224719
10
-34.391565427284057
20
35.025512389242159
10
-20.647803231833315
20
32.353995644975157
10
-20.457165964552612
20
33.334739363957709
10
-19.67284584497796
20
33.182282976651862
10
-19.081261635712522
20
36.225719896213
10
-19.865581755287174
20
36.378176283518854
10
-18.758813258505064
20
42.072006598388676
10
-17.974493138930413
20
41.919550211082822
10
-17.383137900459424
20
44.961809178023834
10
-18.167458020034072
20
45.114265565329681
10
-17.976572701059379
20
46.096285399650725
10
-31.720334896510121
20
48.767802143917727
10
-31.911220215484818
20
47.785782309596684
10
-32.696521962242969
20
47.938429505897922
10
-33.287877200713957
20
44.896170538956916
10
-32.502575453955806
20
44.743523342655678
10
-33.609343950737916
20
39.049693027785857
0
LWPOLYLINE
5
240
100
AcDbEntity
8
0
100
AcDbPolyline
90
20
70
1
43
0.0
10
63.379460505868991
20
151.40562733352763
10
63.539943635829118
20
150.96311883078653
10
63.827910437947054
20
150.59428904500732
10
64.217159249316666
20
150.33173740656767
10
64.668018048853369
20
150.20137010667864
10
65.13761844407226
20
150.2182848579408
10
65.578379098782719
20
150.37832636899086
10
65.947277160143202
20
150.66803826091882
10
66.21012328673784
20
151.05734431498712
10
66.34003517661354
20
151.50740149009812
10
66.324342056211961
20
151.97805431965728
10
66.162964428904104
20
152.41835151633757
10
65.873536218893619
20
152.78893466658877
10
65.483992919368944
20
153.05142906232979
10
65.033810225978058
20
153.17989035055052
10
64.565191457942618
20
153.16316640828379
10
64.123449176048709
20
153.00293408823828
10
63.753875008542437
20
152.71512820797861
10
63.491323370102833
20
152.32587939660897
10
63.362872888119654
20
151.87406885702597
0
LWPOLYLINE
5
241
100
AcDbEntity
8
0
100
AcDbPolyline
90
20
70
1
43
0.0
10
89.752272276260371
20
18.964969135548657
10
90.20305666028888
20
18.834984670261182
10
90.672662779777639
20
18.851869972707792
10
91.113417710218215
20
19.011940932573388
10
91.482390187086921
20
19.301269989899819
10
91.745217232782025
20
19.69067420668641
10
91.87502417771023
20
20.141271276748334
10
91.859445542705899
20
20.61133512999745
10
91.697802690894449
20
21.052996788462689
10
91.408651153927266
20
21.422156579297909
10
91.019086865413129
20
21.684758954029093
10
90.568860285953278
20
21.81344601650202
10
90.100237701737939
20
21.796741706778953
10
89.658499236023928
20
21.636489754189803
10
89.288968954586579
20
21.348458099677927
10
89.02643830513648
20
20.959101309318111
10
88.897711150110027
20
20.508714129151102
10
88.914563992362915
20
20.038908143867815
10
89.074932636925809
20
19.596988617436747
10
89.363004383991239
20
19.227618936706609
0
LWPOLYLINE
5
242
100
AcDbEntity
8
0
100
AcDbPolyline
90
52
70
1
43
0.0
10
128.31436660234633
20
112.98988616546394
10
142.05616554343018
20
115.66102129174018
10
141.86552827614949
20
116.64176501072275
10
142.65181165009108
20
116.79460301601937
10
142.6460301375312
20
116.82434631967782
10
143.4058095775197
20
116.97203248209925
10
143.55853309741909
20
116.18633808446775
10
145.25282161604972
20
116.51567441048768
10
145.43981443151873
20
115.55367977070895
10
148.67918413689605
20
116.18334945545156
10
148.49219132142704
20
117.14534409523027
10
150.08733549452947
20
117.45540871271716
10
148.89098217441807
20
123.61011299021567
10
149.74990595993481
20
123.77707086117015
10
149.21558353018187
20
126.52592146297864
10
148.35665974466514
20
126.35896359202417
10
147.74036577049844
20
129.52952123184178
10
146.14522159739602
20
129.2194566143549
10
145.96948651265419
20
130.12353525031017
10
142.73011680727686
20
129.49386556556757
10
142.90585189201869
20
128.58978692961227
10
141.21156337338806
20
128.26045060359237
10
141.36401976069388
20
127.47613048401769
10
140.60424032070537
20
127.32844432159624
10
140.36210370557254
20
128.57412921739132
10
139.57582033163095
20
128.42129121209473
10
139.38482052725905
20
129.40390002272582
10
125.64302158617517
20
126.73276489644957
10
125.83402139054706
20
125.75015608581845
10
125.04871964378894
20
125.59750888951723
10
125.29085625892178
20
124.35182399372212
10
124.53009519174985
20
124.20394702230531
10
124.37763880444402
20
124.98826714188
10
122.68335028581339
20
124.65893081586009
10
122.50761520107156
20
125.56300945181536
10
119.26922712287771
20
124.93353057606814
10
119.44496220761954
20
124.02945194011286
10
117.84883640733361
20
123.71919651363059
10
118.46513038150027
20
120.54863887381299
10
117.60620659598358
20
120.38168100285851
10
118.14052902573651
20
117.63283040105001
10
118.99945281125325
20
117.79978827200449
10
120.19580613136463
20
111.64508399450598
10
121.79193193165057
20
111.95533942098825
10
121.97892474711958
20
110.99334478120953
10
125.21731282531343
20
111.62282365695675
10
125.03032000984439
20
112.58481829673548
10
126.72460852847506
20
112.91415462275539
10
126.57188500857566
20
113.69984902038689
10
127.33264607574759
20
113.84772599180371
10
127.33842758830748
20
113.81798268814526
10
128.1237293350656
20
113.97062988444651
0
LWPOLYLINE
5
243
100
AcDbEntity
8
0
100
AcDbPolyline
90
20
70
1
43
0.0
10
126.15105481702068
20
151.76460766194242
10
125.55973774034877
20
154.80667030344674
10
124.77345436640717
20
154.65383229815012
10
124.58245456203527
20
155.63644110878121
10
110.8406556209514
20
152.96530598250496
10
111.03165542532329
20
151.98269717187389
10
110.24635367856517
20
151.83004997557265
10
110.83767075523708
20
148.7879873340683
10
111.62297250199521
20
148.94063453036955
10
112.72966467517917
20
143.24719686637309
10
111.94436292842104
20
143.09454967007187
10
112.53606162308371
20
140.05052377420066
10
113.32136336984183
20
140.2031709705019
10
113.51198155622301
20
139.22252541423768
10
127.25378049730688
20
141.89366054051393
10
127.0631623109257
20
142.87430609677816
10
127.84944568486731
20
143.02714410207477
10
127.25774699020464
20
146.07116999794596
10
126.47146361626304
20
145.91833199264934
10
125.36477144307908
20
151.61176965664578
0
LWPOLYLINE
5
244
100
AcDbEntity
8
0
100
AcDbPolyline
90
52
70
1
43
0.0
10
131.22363485488401
20
56.38450034852265
10
131.22941636744392
20
56.354757044864186
10
132.01569974138553
20
56.507595050160795
10
132.20633700866622
20
55.52685133117825
10
145.94813594975005
20
58.197986457454491
10
145.75749868246936
20
59.178730176437057
10
146.54378205641092
20
59.331568181733658
10
146.53800054385104
20
59.361311485392122
10
147.298761611023
20
59.50918845680895
10
147.45152329272148
20
58.72329773374075
10
149.14483018416868
20
59.052443250765293
10
149.3317848378386
20
58.09064493642326
10
152.5711545432159
20
58.720314621165869
10
152.38419988954598
20
59.682112935507888
10
153.97934406264844
20
59.992177552994775
10
152.78297166163748
20
66.14697999321163
10
153.64189544715421
20
66.313937864166107
10
153.10757301740128
20
69.062788465974606
10
152.24864923188454
20
68.895830595020129
10
151.63231709591878
20
72.066584560274421
10
150.03717292281632
20
71.756519942787534
10
149.86155232347176
20
72.660009602432766
10
146.62218261809446
20
72.030339917690171
10
146.79780321743903
20
71.126850258044939
10
145.10449632599182
20
70.797704741020397
10
145.25702903689583
20
70.01299197057233
10
144.49626796972387
20
69.865114999155509
10
144.25407411189244
20
71.111094383105637
10
143.46779073795085
20
70.958256377809022
10
143.27690541897616
20
71.940276212130073
10
129.53510647789233
20
69.269141085853803
10
129.72599179686702
20
68.287121251532767
10
128.93970842292541
20
68.134283246236151
10
129.18190228075684
20
66.888303862286023
10
128.4221228407684
20
66.740617699864586
10
128.26959012986438
20
67.525330470312653
10
126.57628323841715
20
67.19618495328811
10
126.40066263907256
20
68.099674612933342
10
123.16031130651182
20
67.469814119195362
10
123.3359319058564
20
66.566324459550131
10
121.74078773275396
20
66.256259842063244
10
122.35711986871971
20
63.085505876808945
10
121.49917771038646
20
62.918738814849853
10
122.03350014013941
20
60.169888213041354
10
122.89144229847265
20
60.336655275000453
10
124.0878146994836
20
54.181852834783598
10
125.68295887258606
20
54.491917452270485
10
125.86991352625597
20
53.530119137928473
10
129.11026485881672
20
54.159979631666452
10
128.92331020514681
20
55.121777946008464
10
130.61661709659401
20
55.450923463033007
10
130.46385541489553
20
56.236814186101199
0
LWPOLYLINE
5
245
100
AcDbEntity
8
0
100
AcDbPolyline
90
20
70
1
43
0.0
10
125.70900889080475
20
39.03367660680069
10
124.92272551686314
20
38.880838601504081
10
125.51432880702811
20
35.837303519224591
10
126.30061218096971
20
35.990141524521214
10
126.49124944825041
20
35.009397805538647
10
140.2330483893343
20
37.680532931814895
10
140.04241112205358
20
38.661276650797461
10
140.82869449599511
20
38.814114656094077
10
140.23709120583015
20
41.857649738373553
10
139.45080783188862
20
41.704811733076951
10
138.34407749690558
20
47.39844572251009
10
139.13036087084711
20
47.551283727806691
10
138.5390056323761
20
50.593542694747697
10
137.75272225843457
20
50.440704689451081
10
137.56181785856035
20
51.422822686490477
10
123.82001891747647
20
48.751687560214222
10
124.0109233173507
20
47.769569563174834
10
123.22463994340909
20
47.616731557878218
10
123.8159951818801
20
44.574472590937219
10
124.6022785558217
20
44.727310596233835
0
LWPOLYLINE
5
246
100
AcDbEntity
8
0
100
AcDbPolyline
90
52
70
1
43
0.0
10
148.33935960476057
20
79.117911383747085
10
148.49208312465996
20
78.332216986115583
10
150.18440838892371
20
78.661171694144741
10
150.37142028529226
20
77.699078891647687
10
153.61177161785301
20
78.328939385385667
10
153.42475972148446
20
79.29103218788272
10
155.01990389458692
20
79.601096805369608
10
153.82355057447552
20
85.755801082868118
10
154.68247435999226
20
85.922758953822594
10
154.14815193023932
20
88.671609555631093
10
153.28922814472259
20
88.504651684676617
10
152.67289600875679
20
91.675405649930909
10
151.07775183565434
20
91.365341032444022
10
150.9021312363098
20
92.268830692089253
10
147.66177990374905
20
91.638970198351274
10
147.83740050309359
20
90.735480538706042
10
146.14507523882983
20
90.406525830676884
10
146.29760794973384
20
89.621813060228831
10
145.53684688256189
20
89.473936088811996
10
145.29465302473045
20
90.719915472762111
10
144.50935127797231
20
90.567268276460865
10
144.31846595899762
20
91.549288110781916
10
130.57568539073037
20
88.877962175510291
10
130.76657070970506
20
87.89594234118924
10
129.98126896294687
20
87.743295144887995
10
130.22346282077831
20
86.49731576093788
10
129.46172012642296
20
86.349247980525689
10
129.30918741551895
20
87.13396075097377
10
127.61686215125513
20
86.805006042944598
10
127.44124155191058
20
87.708495702589829
10
124.20187184653331
20
87.078826017847234
10
124.37749244587786
20
86.175336358202003
10
122.78234827277542
20
85.865271740715116
10
123.39868040874117
20
82.69451777546081
10
122.53975662322448
20
82.527559904506347
10
123.07407905297742
20
79.778709302697848
10
123.93300283849415
20
79.945667173652325
10
125.1293561586055
20
73.790962896153815
10
126.72450033170799
20
74.101027513640702
10
126.91151222807653
20
73.138934711143634
10
130.1508819334538
20
73.768604395886243
10
129.96387003708526
20
74.730697198383297
10
131.65619530134907
20
75.059651906412469
10
131.50347178144966
20
75.845346304043971
10
132.26521447580504
20
75.993414084456163
10
132.27099598836497
20
75.963670780797713
10
133.05629773512314
20
76.11631797709893
10
133.24693500240383
20
75.135574258116392
10
146.98971557067108
20
77.806900193388003
10
146.79907830339039
20
78.787643912370569
10
147.5843800501485
20
78.940291108671801
10
147.57859853758862
20
78.970034412330264
0
LWPOLYLINE
5
247
100
AcDbEntity
8
0
100
AcDbPolyline
90
20
70
1
43
0.0
10
149.2628598726449
20
107.74060300447375
10
148.67150463417391
20
110.78286197141475
10
147.88620288741578
20
110.63021477511354
10
147.69531756844111
20
111.61223460943459
10
133.95253700017383
20
108.94090867416296
10
134.1434223191485
20
107.9588888398419
10
133.35812057239036
20
107.80624164354067
10
133.94947581086137
20
104.76398267659967
10
134.73477755761951
20
104.9166298729009
10
135.84154605440159
20
99.22279955803107
10
135.05624430764348
20
99.070152361729839
10
135.64784759780846
20
96.026617279450349
10
136.4331493445666
20
96.179264475751594
10
136.62378661184729
20
95.198520756769028
10
150.3665671801146
20
97.869846692040653
10
150.17592991283388
20
98.850590411023219
10
150.96123165959202
20
99.003237607324451
10
150.36962836942701
20
102.04677268960394
10
149.5843266226689
20
101.89412549330271
10
148.47755812588679
20
107.58795580817252
0
LWPOLYLINE
5
248
100
AcDbEntity
8
0
100
AcDbPolyline
90
20
70
1
43
0.0
10
106.66477359840107
20
147.97685829472263
10
107.45105697234267
20
148.12969630001925
10
106.85973989567076
20
151.17175894152356
10
106.07345652172916
20
151.01892093622698
10
105.88245671735726
20
152.00152974685804
10
92.140657776273414
20
149.33039462058179
10
92.331657580645313
20
148.34778580995072
10
91.546355833887162
20
148.19513861364948
10
92.137672910559075
20
145.15307597214513
10
92.922974657317226
20
145.30572316844638
10
94.029666830501156
20
139.61228550444991
10
93.244365083743034
20
139.45963830814867
10
93.836063778405702
20
136.41561241227748
10
94.621365525163853
20
136.56825960857873
10
94.811983711545039
20
135.58761405231451
10
108.55378265262887
20
138.25874917859076
10
108.3631644662477
20
139.23939473485498
10
109.1494478401893
20
139.3922327401516
10
108.55774914552663
20
142.43625863602279
10
107.77146577158503
20
142.28342063072614
0
LWPOLYLINE
5
249
100
AcDbEntity
8
0
100
AcDbPolyline
90
20
70
1
43
0.0
10
98.696827531125479
20
111.40915072753997
10
99.288430821290476
20
108.36561564526049
10
100.07373256804863
20
108.51826284156174
10
100.2643698353293
20
107.53751912257917
10
114.00616877641318
20
110.20865424885541
10
113.81553150913247
20
111.18939796783798
10
114.60181488307407
20
111.34223597313459
10
114.01021159290912
20
114.38577105541407
10
113.2239282189675
20
114.23293305011745
10
112.11715972218536
20
119.92676336498727
10
112.90344309612698
20
120.0796013702839
10
112.31210693855553
20
123.12176217450656
10
111.52582356461393
20
122.96892416920996
10
111.33482376024199
20
123.95153297984103
10
97.59302481915816
20
121.28039785356479
10
97.784024623530058
20
120.29778904293367
10
96.998722876771936
20
120.14514184663244
10
97.590059034343369
20
117.10298104240978
10
98.375360781101534
20
117.25562823871103
10
99.482129277883601
20
111.56179792384121
0
LWPOLYLINE
5
250
100
AcDbEntity
8
0
100
AcDbPolyline
90
20
70
1
43
0.0
10
126.20883850322967
20
97.350390886401058
10
125.10207000644756
20
103.04422120127087
10
125.88835338038918
20
103.19705920656747
10
125.29699814191817
20
106.23931817350849
10
124.51071476797657
20
106.08648016821186
10
124.3198294490019
20
107.06850000253291
10
110.57803050791803
20
104.39736487625667
10
110.76891582689269
20
103.41534504193561
10
109.98361408013457
20
103.26269784563438
10
110.57496931860557
20
100.22043887869339
10
111.36027106536373
20
100.37308607499462
10
112.46703956214583
20
94.679255760124789
10
111.68173781538768
20
94.526608563823572
10
112.27334110555263
20
91.483073481544054
10
113.05864285231083
20
91.635720677845299
10
113.24928011959153
20
90.654976958862733
10
126.99107906067537
20
93.326112085138988
10
126.80044179339467
20
94.30685580412154
10
127.58672516733627
20
94.45969380941817
10
126.99512187717127
20
97.50322889169766
0
LINE
5
251
100
AcDbEntity
8
0
100
AcDbLine
10
89.288968954586579
20
21.348458099677927
30
0
11
89.658499236023928
21
21.636489754189803
31
0
0
LINE
5
252
100
AcDbEntity
8
0
100
AcDbLine
10
89.363004383991239
20
19.227618936706609
30
0
11
89.074932636925809
21
19.596988617436747
31
0
0
LINE
5
253
100
AcDbEntity
8
0
100
AcDbLine
10
90.672662779777639
20
18.851869972707792
30
0
11
90.20305666028888
21
18.834984670261182
31
0
0
LINE
5
254
100
AcDbEntity
8
0
100
AcDbLine
10
91.697802690894449
20
21.052996788462689
30
0
11
91.859445542705899
21
20.61133512999745
31
0
0
LINE
5
255
100
AcDbEntity
8
0
100
AcDbLine
10
91.482390187086921
20
19.301269989899819
30
0
11
91.113417710218215
21
19.011940932573388
31
0
0
LINE
5
256
100
AcDbEntity
8
0
100
AcDbLine
10
91.87502417771023
20
20.141271276748334
30
0
11
91.745217232782025
21
19.69067420668641
31
0
0
LINE
5
257
100
AcDbEntity
8
0
100
AcDbLine
10
88.897711150110027
20
20.508714129151102
30
0
11
89.02643830513648
21
20.959101309318111
31
0
0
LINE
5
258
100
AcDbEntity
8
0
100
AcDbLine
10
91.019086865413129
20
21.684758954029093
30
0
11
91.408651153927266
21
21.422156579297909
31
0
0
LINE
5
259
100
AcDbEntity
8
0
100
AcDbLine
10
89.02643830513648
20
20.959101309318111
30
0
11
89.288968954586579
21
21.348458099677927
31
0
0
LINE
5
260
100
AcDbEntity
8
0
100
AcDbLine
10
91.745217232782025
20
19.69067420668641
30
0
11
91.482390187086921
21
19.301269989899819
31
0
0
LINE
5
261
100
AcDbEntity
8
0
100
AcDbLine
10
90.568860285953278
20
21.81344601650202
30
0
11
91.019086865413129
21
21.684758954029093
31
0
0
LINE
5
262
100
AcDbEntity
8
0
100
AcDbLine
10
89.752272276260371
20
18.964969135548657
30
0
11
89.363004383991239
21
19.227618936706609
31
0
0
LINE
5
263
100
AcDbEntity
8
0
100
AcDbLine
10
89.658499236023928
20
21.636489754189803
30
0
11
90.100237701737939
21
21.796741706778953
31
0
0
LINE
5
264
100
AcDbEntity
8
0
100
AcDbLine
10
90.20305666028888
20
18.834984670261182
30
0
11
89.752272276260371
21
18.964969135548657
31
0
0
LINE
5
265
100
AcDbEntity
8
0
100
AcDbLine
10
88.914563992362915
20
20.038908143867815
30
0
11
88.897711150110027
21
20.508714129151102
31
0
0
LINE
5
266
100
AcDbEntity
8
0
100
AcDbLine
10
91.408651153927266
20
21.422156579297909
30
0
11
91.697802690894449
21
21.052996788462689
31
0
0
LINE
5
267
100
AcDbEntity
8
0
100
AcDbLine
10
91.113417710218215
20
19.011940932573388
30
0
11
90.672662779777639
21
18.851869972707792
31
0
0
LINE
5
268
100
AcDbEntity
8
0
100
AcDbLine
10
89.074932636925809
20
19.596988617436747
30
0
11
88.914563992362915
21
20.038908143867815
31
0
0
LWPOLYLINE
5
269
100
AcDbEntity
8
0
100
AcDbPolyline
90
20
70
1
43
0.0
10
-0.84001049085930646
20
78.563560660756934
10
0.26675800592280474
20
72.86973034588712
10
-0.51785660180691195
20
72.717216715882643
10
0.073746688358067303
20
69.673681633603138
10
0.858361296087784
20
69.82619526360763
10
1.0489985633684906
20
68.845451544625064
10
14.791288318044078
20
71.516682075399004
10
14.600651050763371
20
72.497425794381556
10
15.386541773831564
20
72.650187476080021
10
14.794938483666566
20
75.693722558359511
10
14.009047760598374
20
75.540960876661046
10
12.902279263816272
20
81.234791191530874
10
13.688169986884464
20
81.387552873229339
10
13.096814748413479
20
84.429811840170345
10
12.310924025345287
20
84.27705015847188
10
12.120038706370586
20
85.259069992792931
10
-1.6222510483049923
20
82.587839462018991
10
-1.4313657293302917
20
81.60581962769794
10
-2.2159803370600084
20
81.453305997693462
10
-1.6246250985890232
20
78.411047030752457
0
LINE
5
270
100
AcDbEntity
8
0
100
AcDbLine
10
91.859445542705899
20
20.61133512999745
30
0
11
91.87502417771023
21
20.141271276748334
31
0
0
LINE
5
271
100
AcDbEntity
8
0
100
AcDbLine
10
90.100237701737939
20
21.796741706778953
30
0
11
90.568860285953278
21
21.81344601650202
31
0
0
LWPOLYLINE
5
272
100
AcDbEntity
8
0
100
AcDbPolyline
90
20
70
1
43
0.0
10
22.911936151912862
20
54.70642292277789
10
23.696452596924242
20
54.858917471882826
10
23.104849306759263
20
57.902452554162309
10
22.320332861747882
20
57.74995800505738
10
21.21356436496578
20
63.443788319927208
10
21.998080809977143
20
63.596282869032137
10
21.406725571506175
20
66.638541835973129
10
20.622209126494777
20
66.4860472868682
10
20.431323807520076
20
67.468067121189236
10
6.6876597747876954
20
64.796569457821775
10
6.8785450937623871
20
63.814549623500731
10
6.0939304860326704
20
63.662035993496254
10
6.6852857245036557
20
60.619777026555262
10
7.4699003322333724
20
60.77229065655974
10
8.5766688290154836
20
55.078460341689912
10
7.7920542212857669
20
54.925946711685434
10
8.3836575114507461
20
51.882411629405951
10
9.1682721191804539
20
52.034925259410429
10
9.3589093864611606
20
51.054181540427869
10
23.102573419193568
20
53.725679203795337
0
LWPOLYLINE
5
273
100
AcDbEntity
8
0
100
AcDbPolyline
90
20
70
1
43
0.0
10
18.812019552447179
20
104.94718628399113
10
18.025932503942297
20
104.79438644049358
10
17.834932699570363
20
105.7769952511247
10
4.092741107613147
20
103.1057838012503
10
4.2837409119850545
20
102.12317499061919
10
3.4991263042553467
20
101.97066136061471
10
4.090462461826796
20
98.928500556392038
10
4.8750770695565215
20
99.08101418639653
10
5.981845566338615
20
93.387183871526702
10
5.1972309586089072
20
93.234670241522224
10
5.7888342487738775
20
90.191135159242748
10
6.5734488565036031
20
90.343648789247226
10
6.7640861237843097
20
89.362905070264674
10
20.506277715741543
20
92.034116520139065
10
20.315640448460837
20
93.014860239121631
10
21.101727496965719
20
93.167660082619165
10
20.510124206800722
20
96.211195164898641
10
19.72403715829584
20
96.058395321401107
10
18.617268661513737
20
101.75222563627094
10
19.403355710018619
20
101.90502547976847
0
LWPOLYLINE
5
274
100
AcDbEntity
8
0
100
AcDbPolyline
90
20
70
1
43
0.0
10
12.573565461057523
20
132.84438320751059
10
12.382565656685607
20
133.82699201814168
10
-1.3596259352716178
20
131.15578056826729
10
-1.1686261308997103
20
130.1731717576362
10
-1.953240738629427
20
130.02065812763172
10
-1.3619236619575137
20
126.97859548612739
10
-0.57730905422778811
20
127.13110911613187
10
0.52938311895617041
20
121.43767145213542
10
-0.25523148877355517
20
121.28515782213093
10
0.3364672058891216
20
118.24113192625974
10
1.1210818136188383
20
118.39364555626423
10
1.311700000000009
20
117.41300000000001
10
15.053891591957242
20
120.08421144987439
10
14.863273405576063
20
121.06485700613861
10
15.649360454080945
20
121.21765684963617
10
15.057661759418277
20
124.26168274550734
10
14.271574710913395
20
124.10888290200981
10
13.164882537729437
20
129.80232056600624
10
13.950969586234319
20
129.95512040950382
10
13.359652509562405
20
132.99718305100814
0
LWPOLYLINE
5
275
100
AcDbEntity
8
0
100
AcDbPolyline
90
20
70
1
43
0.0
10
35.303770705234911
20
40.867129627847902
10
34.197002208452773
20
46.560959942717723
10
34.983089256957655
20
46.713759786215256
10
34.391734018486687
20
49.756018753156262
10
33.605646969981805
20
49.603218909658729
10
33.414761651007097
20
50.585238743979772
10
19.672570059049868
20
47.914027294105367
10
19.86345537802455
20
46.93200745978433
10
19.077564654956358
20
46.779245778085865
10
19.668919893427361
20
43.73698681114486
10
20.454810616495553
20
43.889748492843317
10
21.561579113277656
20
38.195918177973496
10
20.775688390209464
20
38.043156496275039
10
21.367272599474898
20
34.9997195767139
10
22.15316332254309
20
35.152481258412358
10
22.343800589823797
20
34.171737539429799
10
36.085992181781052
20
36.842948989304205
10
35.895354914500345
20
37.823692708286757
10
36.681441963005227
20
37.97649255178429
10
36.089857753739793
20
41.019929471345435
0
LWPOLYLINE
5
276
100
AcDbEntity
8
0
100
AcDbPolyline
90
20
70
1
43
0.0
10
17.859987353818685
20
82.198472022680122
10
18.966755850600787
20
76.504641707810293
10
18.182141242871079
20
76.352128077805816
10
18.773744533036041
20
73.308592995526311
10
19.558359140765766
20
73.461106625530803
10
19.748996408046473
20
72.480362906548237
10
33.491188000003703
20
75.151574356422643
10
33.300550732722996
20
76.132318075405209
10
34.086637781227878
20
76.285117918902742
10
33.495034491062881
20
79.328653001182232
10
32.708947442558042
20
79.175853157684699
10
31.602178945775936
20
84.869683472554527
10
32.388265994280786
20
85.022483316052046
10
31.796910755809815
20
88.064742282993052
10
31.010823707304933
20
87.911942439495505
10
30.819938388330232
20
88.893962273816555
10
17.077746796372981
20
86.222750823942164
10
17.268632115347682
20
85.240730989621113
10
16.484017507617992
20
85.088217359616635
10
17.075372746088977
20
82.04595839267563
0
LWPOLYLINE
5
277
100
AcDbEntity
8
0
100
AcDbPolyline
90
20
70
1
43
0.0
10
40.698176817373465
20
67.231213311854845
10
40.106821578902498
20
70.27347227879585
10
39.32220697117279
20
70.120958648791373
10
39.131321652198054
20
71.102978483112409
10
25.38785394490235
20
68.431518981544016
10
25.578739263877051
20
67.44949914722298
10
24.794026493428998
20
67.296966436318968
10
25.385381731899965
20
64.254707469377976
10
26.170094502348054
20
64.407240180281988
10
27.276862999130156
20
58.71340986541216
10
26.492150228682103
20
58.560877154508155
10
27.083753518847065
20
55.517342072228658
10
27.868466289295135
20
55.66987478313267
10
28.059103556575842
20
54.689131064150118
10
41.802571263871556
20
57.36059056571851
10
41.611933996590821
20
58.34133428470107
10
42.396548604320557
20
58.49384791470554
10
41.804945314155603
20
61.537382996985023
10
41.020330706425895
20
61.384869366980553
10
39.913562209643757
20
67.078699681850381
0
LWPOLYLINE
5
278
100
AcDbEntity
8
0
100
AcDbPolyline
90
20
70
1
43
0.0
10
33.753889436635248
20
123.71912281179759
10
33.563271250254076
20
124.69976836806181
10
34.349358298758958
20
124.85256821155934
10
33.75765960409629
20
127.89659410743053
10
32.971572555591408
20
127.74379426393298
10
31.864880382407446
20
133.43723192792945
10
32.650967430912331
20
133.59003177142699
10
32.059650354240397
20
136.63209441293131
10
31.273563305735532
20
136.47929456943379
10
31.082563501363616
20
137.46190338006488
10
17.340568234843055
20
134.79073009198953
10
17.531568039214971
20
133.80812128135847
10
16.746855268766918
20
133.65558857045446
10
17.338172345438831
20
130.61352592895011
10
18.122885115886884
20
130.76605863985412
10
19.229577289070843
20
125.07262097585766
10
18.44486451862279
20
124.92008826495365
10
19.03656321328544
20
121.87606236908246
10
19.821275983733511
20
122.02859507998647
10
20.01189417011469
20
121.04794952372225
0
LWPOLYLINE
5
279
100
AcDbEntity
8
0
100
AcDbPolyline
90
20
70
1
43
0.0
10
39.206275560419556
20
95.669027882062238
10
39.015638293138849
20
96.649771601044819
10
39.801725341643689
20
96.802571444542338
10
39.210122051478734
20
99.846106526821814
10
38.424035002973852
20
99.693306683324295
10
37.317266506191743
20
105.38713699819411
10
38.103353554696625
20
105.53993684169164
10
37.512017397125149
20
108.5820976459143
10
36.725930348620309
20
108.42929780241677
10
36.534930544248368
20
109.41190661304788
10
22.79293527772781
20
106.74073332497255
10
22.983935082099745
20
105.75812451434145
10
22.199222311651692
20
105.60559180343743
10
22.790558469223132
20
102.56343099921477
10
23.575271239671185
20
102.71596371011879
10
24.682039736453287
20
97.022133395248957
10
23.897326966005235
20
96.869600684344945
10
24.488930256170232
20
93.826065602065469
10
25.273643026618284
20
93.978598312969481
10
25.464280293898991
20
92.997854593986915
0
LWPOLYLINE
5
280
100
AcDbEntity
8
0
100
AcDbPolyline
90
20
70
1
43
0.0
10
53.011826048007066
20
50.195871304640896
10
53.797913096511948
20
50.348671148138436
10
53.206557858040938
20
53.390930115079449
10
52.420470809536098
20
53.238130271581909
10
52.229585490561362
20
54.220150105902945
10
38.487590224040829
20
51.548976817827622
10
38.678475543015537
20
50.566956983506579
10
37.892388494510655
20
50.414157140009046
10
38.483743732981623
20
47.371898173068033
10
39.269830781486505
20
47.524698016565566
10
40.376599278268642
20
41.830867701695745
10
39.59051222976376
20
41.678067858198212
10
40.182096439029152
20
38.634630938637073
10
40.968183487534077
20
38.787430782134606
10
41.158820754814784
20
37.806687063152047
10
54.900816021335345
20
40.477860351227378
10
54.710178754054638
20
41.458604070209937
10
55.496265802559478
20
41.61140391370747
10
54.904681593294043
20
44.654840833268622
10
54.118594544789204
20
44.502040989771075
0
LWPOLYLINE
5
281
100
AcDbEntity
8
0
100
AcDbPolyline
90
20
70
1
43
0.0
10
38.449190578161151
20
76.115312430270507
10
52.191185844681712
20
78.78648571834583
10
52.000548577401005
20
79.767229437328382
10
52.786733788624232
20
79.920048361725463
10
52.195130498459235
20
82.963583444004939
10
51.408945287236051
20
82.810764519607872
10
50.302176790453942
20
88.5045948344777
10
51.08836200167714
20
88.657413758874753
10
50.497006763206173
20
91.699672725815759
10
49.710821551982946
20
91.546853801418692
10
49.519936233008238
20
92.528873635739743
10
35.777940966487677
20
89.857700347664405
10
35.968826285462384
20
88.875680513343355
10
35.184113515014332
20
88.723147802439343
10
35.775468753485299
20
85.680888835498351
10
36.56018152393338
20
85.833421546402363
10
37.66695002071549
20
80.139591231532549
10
36.882237250267394
20
79.987058520628537
10
37.473840540432391
20
76.943523438349047
10
38.258553310880444
20
77.096056149253059
0
LWPOLYLINE
5
282
100
AcDbEntity
8
0
100
AcDbPolyline
90
20
70
1
43
0.0
10
43.188928100848202
20
97.460976963988642
10
43.973640871296297
20
97.613509674892654
10
44.164278138577004
20
96.632765955910088
10
57.906273405097522
20
99.303939243985425
10
57.715636137816816
20
100.28468296296799
10
58.501821349040043
20
100.43750188736507
10
57.910218058875088
20
103.48103696964455
10
57.124032847651861
20
103.32821804524747
10
56.017264350869752
20
109.02204836011728
10
56.803449562092979
20
109.17486728451436
10
56.212113404521503
20
112.21702808873702
10
55.425928193298276
20
112.06420916433996
10
55.234928388926377
20
113.04681797497105
10
41.492933122405816
20
110.37564468689573
10
41.683932926777757
20
109.39303587626462
10
40.899220156329662
20
109.24050316536061
10
41.490556313901138
20
106.19834236113795
10
42.275269084349191
20
106.35087507204196
10
43.3820375811313
20
100.65704475717213
10
42.597324810683247
20
100.50451204626812
0
LWPOLYLINE
5
283
100
AcDbEntity
8
0
100
AcDbPolyline
90
20
70
1
43
0.0
10
44.087851789580355
20
72.066430343467204
10
44.278737108555063
20
71.084410509146153
10
43.49402433810701
20
70.931877798242141
10
44.085379576577978
20
67.889618831301163
10
44.870092347026059
20
68.042151542205161
10
45.976860843808169
20
62.348321227335347
10
45.192148073360116
20
62.195788516431335
10
45.78375136352507
20
59.152253434151845
10
46.568464133973123
20
59.30478614505585
10
46.75910140125383
20
58.324042426073305
10
60.502569108549537
20
60.995501927641691
10
60.31193184126883
20
61.97624564662425
10
61.096644611716911
20
62.128778357528262
10
60.505041321551957
20
65.172313439807738
10
59.720328551103862
20
65.019780728903726
10
58.613560054321766
20
70.713611043773568
10
59.398272824769819
20
70.86614375467758
10
58.806917586298852
20
73.908402721618558
10
58.022204815850756
20
73.755870010714546
10
57.831319496876063
20
74.737889845035582
0
LWPOLYLINE
5
284
100
AcDbEntity
8
0
100
AcDbPolyline
90
20
70
1
43
0.0
10
37.929575133748855
20
128.70753233778083
10
37.144862363300803
20
128.55499962687682
10
37.73656105796347
20
125.51097373100563
10
38.521273828411523
20
125.66350644190965
10
38.711892014792696
20
124.68286088564543
10
52.453887281313229
20
127.35403417372076
10
52.263269094932085
20
128.334679729985
10
53.049454306155312
20
128.48749865438205
10
52.457755611492644
20
131.53152455025324
10
51.671570400269417
20
131.37870562585616
10
50.564878227085458
20
137.07214328985262
10
51.351063438308685
20
137.2249622142497
10
50.759746361636772
20
140.26702485575404
10
49.973561150413545
20
140.11420593135696
10
49.782561346041604
20
141.09681474198806
10
36.040566079521085
20
138.4256414539127
10
36.231565883892983
20
137.44303264328164
10
35.446853113444931
20
137.29049993237763
10
36.038170190116844
20
134.24843729087328
10
36.822882960564897
20
134.4009700017773
0
LWPOLYLINE
5
285
100
AcDbEntity
8
0
100
AcDbPolyline
90
20
70
1
43
0.0
10
62.978734953233072
20
74.719321871069354
10
62.194022182785019
20
74.566789160165342
10
62.785377421255987
20
71.524530193224351
10
63.570090191704068
20
71.677062904128363
10
64.676858688486178
20
65.98323258925852
10
63.892145918038125
20
65.830699878354508
10
64.483749208203079
20
62.787164796075025
10
65.268461978651132
20
62.939697506979037
10
65.459099245931839
20
61.958953787996478
10
79.202566953227546
20
64.630413289564871
10
79.011929685946839
20
65.611157008547423
10
79.79664245639492
20
65.763689719451435
10
79.205039166229966
20
68.807224801730925
10
78.420326395781871
20
68.654692090826913
10
77.313557898999775
20
74.348522405696741
10
78.098270669447828
20
74.501055116600753
10
77.506915430976861
20
77.543314083541745
10
76.722202660528765
20
77.390781372637733
10
76.531317341554072
20
78.372801206958783
10
62.787849634258365
20
75.701341705390377
0
LWPOLYLINE
5
286
100
AcDbEntity
8
0
100
AcDbPolyline
90
20
70
1
43
0.0
10
70.814757340363087
20
57.855061467826125
10
57.072762073842554
20
55.183888179750802
10
57.263647392817262
20
54.201868345429759
10
56.47756034431238
20
54.049068501932226
10
57.068915582783347
20
51.00680953499122
10
57.85500263128823
20
51.159609378488753
10
58.961771128070367
20
45.465779063618932
10
58.175684079565485
20
45.312979220121399
10
58.76726828883092
20
42.269542300560246
10
59.553355337335802
20
42.422342144057794
10
59.743992604616508
20
41.441598425075235
10
73.485987871137027
20
44.112771713150565
10
73.295350603856321
20
45.093515432133117
10
74.081535815079548
20
45.246334356530191
10
73.489951605814113
20
48.289771276091329
10
72.703766394590886
20
48.136952351694262
10
71.596997897808791
20
53.830782666564083
10
72.383183109032018
20
53.98360159096115
10
71.791827870561008
20
57.025860557902163
10
71.005642659337781
20
56.873041633505096
0
LWPOLYLINE
5
287
100
AcDbEntity
8
0
100
AcDbPolyline
90
20
70
1
43
0.0
10
56.366947865393499
20
83.774502593455722
10
55.582235094945403
20
83.62196988255171
10
56.1738383851104
20
80.57843480027222
10
56.958551155558453
20
80.730967511176232
10
57.14918842283916
20
79.75022379219368
10
70.891183689359721
20
82.421397080268989
10
70.700546422079015
20
83.402140799251555
10
71.486731633302242
20
83.554959723648636
10
70.895128343137245
20
86.598494805928127
10
70.108943131914017
20
86.445675881531059
10
69.002174635131922
20
92.139506196400873
10
69.788359846355149
20
92.292325120797955
10
69.197004607884182
20
95.334584087738946
10
68.410819396660955
20
95.181765163341879
10
68.219934077686247
20
96.16378499766293
10
54.477938811165686
20
93.492611709587607
10
54.668824130140393
20
92.510591875266556
10
53.884111359692341
20
92.358059164362544
10
54.475466598163308
20
89.315800197421538
10
55.260179368611389
20
89.46833290832555
0
LWPOLYLINE
5
288
100
AcDbEntity
8
0
100
AcDbPolyline
90
20
70
1
43
0.0
10
71.749353988114933
20
132.12239093540569
10
71.157655293452265
20
135.16641683127688
10
70.371568244947383
20
135.01361698777936
10
69.264876071763425
20
140.70705465177579
10
70.050963120268307
20
140.85985449527334
10
69.459646043596393
20
143.90191713677768
10
68.673558995091511
20
143.74911729328014
10
68.482559190719613
20
144.73172610391123
10
54.740563924199051
20
142.0605528158359
10
54.931563728570993
20
141.07794400520481
10
54.14685095812294
20
140.9254112943008
10
54.738168034794853
20
137.88334865279646
10
55.522880805242906
20
138.03588136370047
10
56.629572978426864
20
132.34244369970401
10
55.844860207978812
20
132.18991098880002
10
56.43655890264148
20
129.14588509292881
10
57.221271673089532
20
129.29841780383282
10
57.411889859470676
20
128.3177722475686
10
71.153885125991238
20
130.98894553564395
10
70.963266939610051
20
131.96959109190817
0
LWPOLYLINE
5
289
100
AcDbEntity
8
0
100
AcDbPolyline
90
20
70
1
43
0.0
10
91.003120297612924
20
41.353502608241293
10
90.812215897738696
20
42.335620605280681
10
77.070122468499832
20
39.66442823630581
10
77.26102686837406
20
38.682310239266414
10
76.474939819869178
20
38.529510395768881
10
77.066295058340145
20
35.487251428827889
10
77.852382106845027
20
35.640051272325422
10
78.959112441828069
20
29.946417282892284
10
78.173025393323186
20
29.793617439394751
10
78.764628683488155
20
26.750082357115268
10
79.550715731993037
20
26.902882200612801
10
79.741352999273744
20
25.922138481630238
10
93.48344642851265
20
28.59333085060511
10
93.292809161231943
20
29.574074569587665
10
94.078896209736826
20
29.726874413085199
10
93.487292919571829
20
32.770409495364689
10
92.701205871066946
20
32.617609651867156
10
91.594475536083934
20
38.311243641300294
10
92.380562584588816
20
38.464043484797827
10
91.789207346117806
20
41.506302451738826
0
LWPOLYLINE
5
290
100
AcDbEntity
8
0
100
AcDbPolyline
90
20
70
1
43
0.0
10
60.9752669290272
20
109.98578643396513
10
62.082035425809309
20
104.29195611909532
10
61.297322655361256
20
104.13942340819132
10
61.888925945526211
20
101.09588832591184
10
62.673638715974263
20
101.24842103681584
10
62.86427598325497
20
100.26767731783326
10
76.606271249775531
20
102.9388506059086
10
76.415633982494825
20
103.91959432489116
10
77.201721030999707
20
104.0723941683887
10
76.61011774083471
20
107.11592925066817
10
75.824030692329828
20
106.96312940717064
10
74.717262195547733
20
112.65695972204045
10
75.503349244052615
20
112.809759565538
10
74.912013086481167
20
115.85192036976066
10
74.125926037976285
20
115.69912052626313
10
73.934926233604358
20
116.68172933689422
10
60.192930967083825
20
114.0105560488189
10
60.383930771455724
20
113.02794723818779
10
59.599218001007671
20
112.87541452728378
10
60.190554158579147
20
109.83325372306113
0
LWPOLYLINE
5
291
100
AcDbEntity
8
0
100
AcDbPolyline
90
20
70
1
43
0.0
10
96.206422462063102
20
81.178130040967233
10
95.42112071530498
20
81.025482844666001
10
95.230235396330286
20
82.007502678987038
10
81.487847478936374
20
79.336253067313564
10
81.678732797911081
20
78.354233232992513
10
80.894020027463029
20
78.201700522088515
10
81.485375265933996
20
75.159441555147524
10
82.270088036382049
20
75.311974266051521
10
83.376856533164187
20
69.618143951181693
10
82.592143762716134
20
69.465611240277681
10
83.183747052881088
20
66.422076157998205
10
83.968459823329141
20
66.574608868902217
10
84.159097090609848
20
65.593865149919651
10
97.90148500800376
20
68.265114761593125
10
97.710847740723054
20
69.245858480575691
10
98.496149487481176
20
69.398505676876923
10
97.904546197316208
20
72.442040759156413
10
97.119244450558085
20
72.289393562855167
10
96.01247595377599
20
77.98322387772501
10
96.797777700534112
20
78.135871074026241
0
LWPOLYLINE
5
292
100
AcDbEntity
8
0
100
AcDbPolyline
90
20
70
1
43
0.0
10
92.781435497039212
20
48.88122663755383
10
92.189851287773777
20
51.924663557114968
10
91.403764239268895
20
51.771863713617435
10
90.296995742486757
20
57.465694028487263
10
91.083082790991639
20
57.618493871984796
10
90.491727552520672
20
60.660752838925802
10
89.70564050401579
20
60.507952995428269
10
89.514755185041096
20
61.489972829749306
10
75.772759918520535
20
58.818799541673982
10
75.963645237495228
20
57.836779707352939
10
75.177558188990346
20
57.683979863855406
10
75.768913427461356
20
54.641720896914393
10
76.555000475966239
20
54.794520740411926
10
77.661768972748334
20
49.100690425542112
10
76.875681924243452
20
48.947890582044579
10
77.467266133508886
20
45.904453662483427
10
78.253353182013768
20
46.057253505980967
10
78.443990449294475
20
45.076509786998415
10
92.185985715815036
20
47.747683075073738
10
91.99534844853433
20
48.72842679405629
0
LWPOLYLINE
5
293
100
AcDbEntity
8
0
100
AcDbPolyline
90
20
70
1
43
0.0
10
74.282232939623412
20
87.256881244474883
10
74.873836229788381
20
84.213346162195393
10
75.658549000236462
20
84.365878873099405
10
75.849186267517169
20
83.385135154116853
10
89.591083371319357
20
86.056289361292642
10
89.40044610403865
20
87.037033080275194
10
90.186729477980222
20
87.189871085571809
10
89.595126187815254
20
90.233406167851314
10
88.808842813873682
20
90.080568162554698
10
87.702074317091586
20
95.774398477424526
10
88.488357691033158
20
95.927236482721128
10
87.897002452562148
20
98.969495449662119
10
87.110719078620576
20
98.816657444365518
10
86.919833759645883
20
99.798677278686569
10
73.177936655843695
20
97.12752307151078
10
73.368821974818403
20
96.145503237189729
10
72.584109204370307
20
95.992970526285717
10
73.175464442841317
20
92.950711559344711
10
73.96017721328937
20
93.103244270248723
10
75.066945710071465
20
87.409413955378895
0
LWPOLYLINE
5
294
100
AcDbEntity
8
0
100
AcDbPolyline
90
20
70
1
43
0.0
10
89.853784807950859
20
134.62383781666756
10
89.663166621569687
20
135.60448337293178
10
90.449449995511287
20
135.75732137822843
10
89.857751300848619
20
138.80134727409961
10
89.071467926907019
20
138.64850926880297
10
87.96477575372306
20
144.34194693279943
10
88.751059127664661
20
144.49478493809605
10
88.159742050992747
20
147.53684757960039
10
87.373458677051147
20
147.38400957430378
10
87.182458872679248
20
148.36661838493487
10
73.44056176887706
20
145.69546417775908
10
73.631561573249002
20
144.71285536712799
10
72.846848802800906
20
144.560322656224
10
73.43816587947282
20
141.51826001471966
10
74.222878649920915
20
141.67079272562364
10
75.329570823104874
20
135.97735506162718
10
74.544858052656778
20
135.82482235072317
10
75.136556747319446
20
132.78079645485201
10
75.921269517767541
20
132.93332916575599
10
76.111887704148685
20
131.95268360949177
0
LWPOLYLINE
5
295
100
AcDbEntity
8
0
100
AcDbPolyline
90
20
70
1
43
0.0
10
80.782033270487318
20
107.92686748101849
10
79.997320500039223
20
107.77433477011448
10
80.58892379020422
20
104.730799687835
10
81.373636560652272
20
104.88333239873901
10
81.564273827932979
20
103.90258867975645
10
95.306170931735167
20
106.57374288693222
10
95.11553366445446
20
107.5544866059148
10
95.901817038396061
20
107.70732461121142
10
95.310213748231064
20
110.7508596934909
10
94.523930374289463
20
110.59802168819428
10
93.417161877507354
20
116.29185200306409
10
94.203445251448969
20
116.44469000836071
10
93.612109093877521
20
119.48685081258338
10
92.825825719935921
20
119.33401280728675
10
92.634825915563979
20
120.31662161791786
10
78.892928811761834
20
117.64546741074207
10
79.083928616133733
20
116.66285860011098
10
78.29921584568568
20
116.51032588920698
10
78.890552003257127
20
113.46816508498429
10
79.675264773705209
20
113.6206977958883
0
LWPOLYLINE
5
296
100
AcDbEntity
8
0
100
AcDbPolyline
90
20
70
1
43
0.0
10
94.663250431299858
20
61.471614745677968
10
93.877948684541735
20
61.318967549376723
10
94.469303923012745
20
58.276708582435717
10
95.254605669770868
20
58.429355778736962
10
96.361374166552963
20
52.735525463867141
10
95.576072419794841
20
52.582878267565896
10
96.167656629060275
20
49.539441348004765
10
96.952958375818397
20
49.692088544305989
10
97.143595643099104
20
48.711344825323444
10
110.8863762113664
20
51.382670760595062
10
110.69573894408569
20
52.363414479577628
10
111.48104069084384
20
52.516061675878859
10
110.88945648157838
20
55.559498595439997
10
110.10415473482026
20
55.406851399138759
10
108.99738623803815
20
61.10068171400858
10
109.78268798479631
20
61.253328910309826
10
109.1913327463253
20
64.295587877250838
10
108.40603099956715
20
64.142940680949593
10
108.21514568059244
20
65.124960515270644
10
94.472365112325164
20
62.453634579999004
0
LWPOLYLINE
5
297
100
AcDbEntity
8
0
100
AcDbPolyline
90
20
70
1
43
0.0
10
102.9261056887139
20
31.446597726614929
10
103.11674295599461
20
30.465854007632363
10
116.8595235242619
20
33.137179942903991
10
116.6688862569812
20
34.117923661886557
10
117.45418800373935
20
34.270570858187796
10
116.86258471357435
20
37.314105940467272
10
116.07728296681623
20
37.161458744166033
10
114.97055263183319
20
42.855092733599172
10
115.75585437859134
20
43.007739929900417
10
115.16449914012034
20
46.049998896841409
10
114.37919739336218
20
45.89735170054017
10
114.18829299348795
20
46.879469697579559
10
100.4455124252207
20
44.208143762307941
10
100.63641682509493
20
43.226025765268545
10
99.851115078336775
20
43.073378568967307
10
100.44247031680777
20
40.031119602026308
10
101.22777206356589
20
40.183766798327554
10
102.33450239854895
20
34.490132808894401
10
101.54920065179078
20
34.33748561259317
10
102.14080394195578
20
31.293950530313694
0
LWPOLYLINE
5
298
100
AcDbEntity
8
0
100
AcDbPolyline
90
20
70
1
43
0.0
10
93.767041717467819
20
91.044344398201616
10
92.981739970709697
20
90.891697201900371
10
93.573343260874665
20
87.848162119620895
10
94.358645007632816
20
88.000809315922126
10
94.549282274913494
20
87.02006559693956
10
108.29108121599732
20
89.691200723215815
10
108.10044394871662
20
90.671944442198367
10
108.88672732265823
20
90.824782447494982
10
108.29512403249326
20
93.868317529774487
10
107.50884065855166
20
93.715479524477857
10
106.40207216176955
20
99.409309839347685
10
107.18835553571117
20
99.562147844644301
10
106.59700029724016
20
102.60440681158529
10
105.81071692329856
20
102.45156880628869
10
105.61983160432385
20
103.43358864060974
10
91.878032663240049
20
100.76245351433349
10
92.068917982214757
20
99.780433680012436
10
91.283616235456591
20
99.627786483711205
10
91.874971473927602
20
96.585527516770199
10
92.660273220685724
20
96.738174713071444
0
LWPOLYLINE
5
299
100
AcDbEntity
8
0
100
AcDbPolyline
90
20
70
1
43
0.0
10
115.49777554521212
20
81.770782435949414
10
114.90642030674111
20
84.813041402890406
10
114.12111855998299
20
84.660394206589174
10
113.9302332410083
20
85.642414040910211
10
100.187452672741
20
82.971088105638586
10
100.37833799171571
20
81.989068271317564
10
99.593036244957588
20
81.836421075016318
10
100.18439148342858
20
78.794162108075327
10
100.96969323018668
20
78.946809304376572
10
102.07646172696882
20
73.25297898950673
10
101.29115998021069
20
73.100331793205498
10
101.88276327037565
20
70.056796710926008
10
102.66806501713377
20
70.209443907227239
10
102.85870228441448
20
69.228700188244687
10
116.60148285268177
20
71.900026123516312
10
116.41084558540106
20
72.880769842498864
10
117.19614733215919
20
73.033417038800096
10
116.60454404199422
20
76.076952121079572
10
115.81924229523609
20
75.92430492477834
10
114.712473798454
20
81.618135239648183
0
LINE
5
300
100
AcDbEntity
8
0
100
AcDbLine
10
66.21012328673784
20
151.05734431498712
30
0
11
65.947277160143202
21
150.66803826091882
31
0
0
LINE
5
301
100
AcDbEntity
8
0
100
AcDbLine
10
65.033810225978058
20
153.17989035055052
30
0
11
65.483992919368944
21
153.05142906232979
31
0
0
LINE
5
302
100
AcDbEntity
8
0
100
AcDbLine
10
63.539943635829118
20
150.96311883078653
30
0
11
63.379460505868991
21
151.40562733352763
31
0
0
LINE
5
303
100
AcDbEntity
8
0
100
AcDbLine
10
64.123449176048709
20
153.00293408823828
30
0
11
64.565191457942618
21
153.16316640828379
31
0
0
LINE
5
304
100
AcDbEntity
8
0
100
AcDbLine
10
66.34003517661354
20
151.50740149009812
30
0
11
66.21012328673784
21
151.05734431498712
31
0
0
LINE
5
305
100
AcDbEntity
8
0
100
AcDbLine
10
65.13761844407226
20
150.2182848579408
30
0
11
64.668018048853369
21
150.20137010667864
31
0
0
LINE
5
306
100
AcDbEntity
8
0
100
AcDbLine
10
65.483992919368944
20
153.05142906232979
30
0
11
65.873536218893619
21
152.78893466658877
31
0
0
LINE
5
307
100
AcDbEntity
8
0
100
AcDbLine
10
64.565191457942618
20
153.16316640828379
30
0
11
65.033810225978058
21
153.17989035055052
31
0
0
LINE
5
308
100
AcDbEntity
8
0
100
AcDbLine
10
64.217159249316666
20
150.33173740656767
30
0
11
63.827910437947054
21
150.59428904500732
31
0
0
LINE
5
309
100
AcDbEntity
8
0
100
AcDbLine
10
64.668018048853369
20
150.20137010667864
30
0
11
64.217159249316666
21
150.33173740656767
31
0
0
LINE
5
310
100
AcDbEntity
8
0
100
AcDbLine
10
63.491323370102833
20
152.32587939660897
30
0
11
63.753875008542437
21
152.71512820797861
31
0
0
LINE
5
311
100
AcDbEntity
8
0
100
AcDbLine
10
63.362872888119654
20
151.87406885702597
30
0
11
63.491323370102833
21
152.32587939660897
31
0
0
LINE
5
312
100
AcDbEntity
8
0
100
AcDbLine
10
65.947277160143202
20
150.66803826091882
30
0
11
65.578379098782719
21
150.37832636899086
31
0
0
LINE
5
313
100
AcDbEntity
8
0
100
AcDbLine
10
66.162964428904104
20
152.41835151633757
30
0
11
66.324342056211961
21
151.97805431965728
31
0
0
LINE
5
314
100
AcDbEntity
8
0
100
AcDbLine
10
63.379460505868991
20
151.40562733352763
30
0
11
63.362872888119654
21
151.87406885702597
31
0
0
LINE
5
315
100
AcDbEntity
8
0
100
AcDbLine
10
63.827910437947054
20
150.59428904500732
30
0
11
63.539943635829118
21
150.96311883078653
31
0
0
LINE
5
316
100
AcDbEntity
8
0
100
AcDbLine
10
66.324342056211961
20
151.97805431965728
30
0
11
66.34003517661354
21
151.50740149009812
31
0
0
LINE
5
317
100
AcDbEntity
8
0
100
AcDbLine
10
63.753875008542437
20
152.71512820797861
30
0
11
64.123449176048709
21
153.00293408823828
31
0
0
LINE
5
318
100
AcDbEntity
8
0
100
AcDbLine
10
65.578379098782719
20
150.37832636899086
30
0
11
65.13761844407226
21
150.2182848579408
31
0
0
LINE
5
319
100
AcDbEntity
8
0
100
AcDbLine
10
65.873536218893619
20
152.78893466658877
30
0
11
66.162964428904104
21
152.41835151633757
31
0
0
LWPOLYLINE
5
320
100
AcDbEntity
8
0
100
AcDbPolyline
90
20
70
1
43
0.0
10
-67.534530000000004
20
3.6388490966960774
10
-67.952069999999992
20
3.8524190966960603
10
-68.416470000000004
20
3.9254790966960584
10
-68.87948999999999
20
3.8524190966960603
10
-69.298419999999993
20
3.6388490966960774
10
-69.63051999999999
20
3.3081190966960605
10
-69.842749999999995
20
2.8891890966960787
10
-69.915780000000012
20
2.4261690966960714
10
-69.842749999999995
20
1.9603990966960794
10
-69.63051999999999
20
1.544229096696057
10
-69.298419999999993
20
1.2107490966960555
10
-68.87948999999999
20
0.99851909669606442
10
-68.416470000000004
20
0.92548909669606161
10
-67.952069999999992
20
0.99851909669606442
10
-67.534530000000004
20
1.2107490966960555
10
-67.202419999999989
20
1.5442290966960925
10
-66.988810000000001
20
1.9603990966960794
10
-66.915789999999987
20
2.4261690966960714
10
-66.988810000000001
20
2.8891890966960787
10
-67.202420000000004
20
3.3081190966960605
0
LWPOLYLINE
5
321
100
AcDbEntity
8
0
100
AcDbPolyline
90
20
70
1
43
0.0
10
59.764300000000006
20
3.6388490966960774
10
59.432300000000012
20
3.3081190966960605
10
59.220299999999995
20
2.8891890966960787
10
59.145300000000006
20
2.4261690966960714
10
59.220299999999995
20
1.9603990966960794
10
59.432300000000012
20
1.5442290966960925
10
59.764300000000006
20
1.2107490966960555
10
60.183299999999988
20
0.99851909669606442
10
60.646300000000011
20
0.92548909669606161
10
61.109299999999998
20
0.99851909669606442
10
61.52829999999998
20
1.2107490966960555
10
61.860300000000009
20
1.5442290966960925
10
62.072299999999991
20
1.9603990966960794
10
62.147300000000016
20
2.4261690966960714
10
62.072299999999991
20
2.8891890966960787
10
61.860300000000009
20
3.3081190966960605
10
61.52829999999998
20
3.6388490966960774
10
61.109299999999998
20
3.8524190966960603
10
60.646300000000011
20
3.9254790966960584
10
60.183299999999988
20
3.8524190966960603
0
LWPOLYLINE
5
322
100
AcDbEntity
8
0
100
AcDbPolyline
90
60
70
1
43
0.0
10
-11.685072290952389
20
10.949748333069209
10
-10.885072290952406
20
10.949748333069209
10
-10.885072290952406
20
9.9506693330692109
10
3.1149277090475791
20
9.9506693330692109
10
3.1149277090475791
20
10.949748333069209
10
3.9149277090475976
20
10.949748333069209
10
3.9149277090475971
20
14.050328333069206
10
3.1149277090475787
20
14.050328333069206
10
3.1149277090475769
20
14.649768333069204
10
42.789927709047582
20
14.649768333069208
10
42.789927709047582
20
10.179428333069204
10
44.464927709047586
20
10.179428333069204
10
44.464927709047586
20
9.1996393330692108
10
47.764927709047569
20
9.1996393330692108
10
47.764927709047569
20
10.179428333069204
10
49.439927709047609
20
10.179428333069204
10
49.439927709047609
20
16.449498333069215
10
50.314927709047595
20
16.449498333069215
10
50.314927709047595
20
19.249718333069222
10
49.439927709047609
20
19.249718333069222
10
49.439927709047609
20
22.479818333069218
10
47.764927709047569
20
22.479818333069218
10
47.764927709047569
20
23.400318333069222
10
44.464927709047586
20
23.400318333069222
10
44.464927709047586
20
22.479818333069218
10
42.789927709047582
20
22.479818333069218
10
42.789927709047582
20
19.249718333069218
10
3.1149277090475778
20
19.249718333069215
10
3.1149277090475778
20
19.850518333069207
10
3.9149277090475962
20
19.850518333069207
10
3.9149277090475958
20
22.949718333069207
10
3.1149277090475773
20
22.949718333069207
10
3.1149277090475769
20
23.950118333069206
10
-10.885072290952408
20
23.950118333069206
10
-10.885072290952408
20
22.949718333069207
10
-11.685072290952391
20
22.949718333069207
10
-11.685072290952389
20
19.850518333069203
10
-10.885072290952406
20
19.850518333069203
10
-10.885072290952404
20
19.249718333069211
10
-50.561072290952424
20
19.249718333069207
10
-50.561072290952424
20
22.479818333069204
10
-52.235072290952431
20
22.479818333069204
10
-52.235072290952431
20
23.400318333069208
10
-55.535072290952428
20
23.400318333069208
10
-55.535072290952428
20
22.479818333069204
10
-57.210072290952418
20
22.479818333069204
10
-57.210072290952418
20
19.249718333069207
10
-58.085072290952418
20
19.249718333069207
10
-58.085072290952418
20
16.449498333069201
10
-57.210072290952418
20
16.449498333069201
10
-57.210072290952418
20
10.179428333069191
10
-55.535072290952428
20
10.179428333069191
10
-55.535072290952428
20
9.1996393330691983
10
-52.235072290952431
20
9.1996393330692037
10
-52.235072290952431
20
10.179428333069197
10
-50.561072290952424
20
10.179428333069197
10
-50.561072290952424
20
14.649768333069197
10
-10.885072290952406
20
14.649768333069202
10
-10.885072290952406
20
14.050328333069205
10
-11.685072290952389
20
14.050328333069205
0
LWPOLYLINE
5
323
100
AcDbEntity
8
0
100
AcDbPolyline
90
20
70
1
43
0.0
10
220.59657943501952
20
101.66642205584671
10
220.13197943501956
20
101.73942205584672
10
219.66767943501958
20
101.66642205584671
10
219.25007943501953
20
101.45402205584672
10
218.91807943501954
20
101.1221220558467
10
218.70567943501953
20
100.70442205584671
10
218.63267943501953
20
100.24012205584671
10
218.70567943501953
20
99.77732205584671
10
218.91807943501954
20
99.359622055846714
10
219.25007943501953
20
99.027622055846706
10
219.66767943501958
20
98.813822055846728
10
220.13197943501956
20
98.739422055846703
10
220.59657943501952
20
98.813822055846728
10
221.01387943501953
20
99.027622055846706
10
221.34627943501954
20
99.359622055846714
10
221.55967943501958
20
99.77732205584671
10
221.63267943501955
20
100.24012205584671
10
221.55967943501958
20
100.70442205584671
10
221.34627943501954
20
101.1221220558467
10
221.01387943501953
20
101.45402205584672
0
LWPOLYLINE
5
324
100
AcDbEntity
8
0
100
AcDbPolyline
90
20
70
1
43
0.0
10
221.55967943501958
20
166.68862205584674
10
221.63267943501955
20
167.15362205584668
10
221.55967943501958
20
167.6166220558467
10
221.34627943501954
20
168.03562205584669
10
221.01387943501953
20
168.36762205584677
10
220.59657943501952
20
168.5796220558467
10
220.13197943501956
20
168.65262205584671
10
219.66767943501958
20
168.5796220558467
10
219.25007943501953
20
168.36762205584677
10
218.91807943501954
20
168.03562205584669
10
218.70567943501953
20
167.6166220558467
10
218.63267943501953
20
167.15362205584668
10
218.70567943501953
20
166.68862205584674
10
218.91807943501954
20
166.27162205584676
10
219.25007943501953
20
165.93962205584674
10
219.66767943501958
20
165.72562205584674
10
220.13197943501956
20
165.65262205584673
10
220.59657943501952
20
165.72562205584674
10
221.01387943501953
20
165.93962205584674
10
221.34627943501954
20
166.27162205584676
0
LWPOLYLINE
5
325
100
AcDbEntity
8
0
100
AcDbPolyline
90
21
70
1
43
0.0
10
225.13157943501952
20
30.328621055846714
10
225.13157943501952
20
170.15362205584668
42
0.41421356237309503
10
223.13157943501952
20
172.15362205584668
10
144.10699995413964
20
172.15362205584668
42
0.048033430103947769
10
143.7253820760628
20
172.11687644464405
10
2.793139824784947
20
144.72243202244863
42
-0.096289033716362882
10
-10.563487879738425
20
144.72243240573439
10
-140.29449152199129
20
169.93958499846201
42
0.41421356237309964
10
-142.63936387963972
20
168.35794862231967
10
-169.31923184897408
20
31.101926715122961
42
0.41421356237308837
10
-167.7375954728318
20
28.757054357474523
10
-75.03437540924692
20
10.737373783452979
42
-0.35903668657693388
10
-73.415993400000005
20
8.7741194165576513
10
-73.415993400000005
20
-0.57336390330394282
42
0.41421356237309209
10
-71.415993400000005
20
-2.5733639033039424
10
63.646300000000011
20
-2.5733639033039424
42
0.41421356237309215
10
65.646300000000011
20
-0.57336390330394282
10
65.646300000000011
20
8.7742373276531556
42
-0.35903668657693388
10
67.264682009246926
20
10.737491694548481
10
157.76319721036708
20
28.32862105584671
10
223.13157943501952
20
28.32862105584671
42
0.41421356237309631
0
LWPOLYLINE
5
326
100
AcDbEntity
8
0
100
AcDbPolyline
90
20
70
1
43
0.0
10
158.11878082920413
20
31.900492055846712
10
158.53632082920413
20
32.114102055846715
10
158.86843082920416
20
32.446202055846712
10
159.08204082920412
20
32.86375205584671
10
159.15506082920413
20
33.328152055846715
10
159.08204082920412
20
33.79254205584671
10
158.86843082920416
20
34.210092055846715
10
158.53632082920413
20
34.542202055846715
10
158.11878082920413
20
34.754432055846713
10
157.65438082920411
20
34.827452055846713
10
157.19136082920414
20
34.754432055846713
10
156.77243082920413
20
34.542202055846715
10
156.44033082920413
20
34.210092055846715
10
156.22810082920412
20
33.79254205584671
10
156.15507082920413
20
33.328152055846715
10
156.22810082920412
20
32.86375205584671
10
156.44033082920413
20
32.446202055846712
10
156.77243082920415
20
32.114102055846715
10
157.19136082920414
20
31.900492055846712
10
157.65438082920411
20
31.827462055846713
0
LWPOLYLINE
5
327
100
AcDbEntity
8
0
100
AcDbPolyline
90
20
70
1
43
0.0
10
219.25007943501953
20
34.542202055846715
10
218.91807943501954
20
34.210092055846715
10
218.70567943501953
20
33.79254205584671
10
218.63267943501953
20
33.328152055846715
10
218.70567943501953
20
32.86375205584671
10
218.91807943501954
20
32.446202055846712
10
219.25007943501953
20
32.114102055846715
10
219.66767943501958
20
31.900492055846712
10
220.13197943501956
20
31.827462055846713
10
220.59657943501952
20
31.900492055846712
10
221.01387943501953
20
32.114102055846715
10
221.34627943501954
20
32.446202055846712
10
221.55967943501958
20
32.86375205584671
10
221.63267943501955
20
33.328152055846715
10
221.55967943501958
20
33.79254205584671
10
221.34627943501954
20
34.210092055846715
10
221.01387943501953
20
34.542202055846715
10
220.59657943501952
20
34.754432055846713
10
220.13197943501956
20
34.827452055846713
10
219.66767943501958
20
34.754432055846713
0
LWPOLYLINE
5
328
100
AcDbEntity
8
0
100
AcDbPolyline
90
20
70
1
43
0.0
10
143.08089590141537
20
165.93962205584674
10
143.49982590141533
20
165.72562205584674
10
143.96284590141531
20
165.65262205584673
10
144.42724590141532
20
165.72562205584674
10
144.84478590141532
20
165.93962205584674
10
145.17689590141535
20
166.27162205584676
10
145.39050590141534
20
166.68862205584674
10
145.46352590141532
20
167.15362205584668
10
145.39050590141534
20
167.6166220558467
10
145.17689590141535
20
168.03562205584669
10
144.84478590141532
20
168.36762205584677
10
144.42724590141532
20
168.5796220558467
10
143.96284590141531
20
168.65262205584671
10
143.49982590141531
20
168.5796220558467
10
143.08089590141532
20
168.36762205584677
10
142.74879590141532
20
168.03562205584669
10
142.53656590141534
20
167.6166220558467
10
142.46353590141533
20
167.15362205584668
10
142.53656590141534
20
166.68862205584674
10
142.74879590141532
20
166.27162205584676
0
LWPOLYLINE
5
329
100
AcDbEntity
8
0
100
AcDbPolyline
90
20
70
1
43
0.0
10
213.40737943501949
20
155.52862205584671
10
213.40737943501949
20
158.62762205584673
10
212.60647943501951
20
158.62762205584673
10
212.60647943501951
20
159.62862205584668
10
198.60727943501951
20
159.62862205584668
10
198.60727943501951
20
158.62762205584673
10
197.80787943501949
20
158.62762205584673
10
197.80787943501949
20
155.52862205584671
10
198.60727943501951
20
155.52862205584671
10
198.60727943501951
20
149.7286220558467
10
197.80787943501949
20
149.7286220558467
10
197.80787943501949
20
146.62762205584673
10
198.60727943501951
20
146.62762205584673
10
198.60727943501951
20
145.62862205584673
10
212.60647943501951
20
145.62862205584673
10
212.60647943501951
20
146.62762205584673
10
213.40737943501949
20
146.62762205584673
10
213.40737943501949
20
149.7286220558467
10
212.60647943501951
20
149.7286220558467
10
212.60647943501951
20
155.52862205584671
0
LWPOLYLINE
5
330
100
AcDbEntity
8
0
100
AcDbPolyline
90
20
70
1
43
0.0
10
197.80787943501949
20
102.10312205584673
10
197.80787943501949
20
99.0026220558467
10
198.60727943501951
20
99.0026220558467
10
198.60727943501951
20
98.003522055846716
10
212.60647943501951
20
98.003522055846716
10
212.60647943501951
20
99.0026220558467
10
213.40737943501949
20
99.0026220558467
10
213.40737943501949
20
102.10312205584673
10
212.60647943501951
20
102.10312205584673
10
212.60647943501951
20
107.90352205584671
10
213.40737943501949
20
107.90352205584671
10
213.40737943501949
20
111.00272205584672
10
212.60647943501951
20
111.00272205584672
10
212.60647943501951
20
112.00312205584672
10
198.60727943501951
20
112.00312205584672
10
198.60727943501951
20
111.00272205584672
10
197.80787943501949
20
111.00272205584672
10
197.80787943501949
20
107.90352205584671
10
198.60727943501951
20
107.90352205584671
10
198.60727943501951
20
102.10312205584673
0
LWPOLYLINE
5
331
100
AcDbEntity
8
0
100
AcDbPolyline
90
20
70
1
43
0.0
10
212.60647943501951
20
126.9535220558467
10
213.40737943501949
20
126.9535220558467
10
213.40737943501949
20
130.05262205584674
10
212.60647943501951
20
130.05262205584674
10
212.60647943501951
20
131.05362205584672
10
198.60727943501951
20
131.05362205584672
10
198.60727943501951
20
130.05262205584674
10
197.80787943501949
20
130.05262205584674
10
197.80787943501949
20
126.9535220558467
10
198.60727943501951
20
126.9535220558467
10
198.60727943501951
20
121.15312205584672
10
197.80787943501949
20
121.15312205584672
10
197.80787943501949
20
118.05262205584671
10
198.60727943501951
20
118.05262205584671
10
198.60727943501951
20
117.05352205584673
10
212.60647943501951
20
117.05352205584673
10
212.60647943501951
20
118.05262205584671
10
213.40737943501949
20
118.05262205584671
10
213.40737943501949
20
121.15312205584672
10
212.60647943501951
20
121.15312205584672
0
LWPOLYLINE
5
332
100
AcDbEntity
8
0
100
AcDbPolyline
90
20
70
1
43
0.0
10
179.55707943501949
20
50.75342205584672
10
179.55707943501949
20
44.953222055846709
10
178.75777943501953
20
44.953222055846709
10
178.75777943501953
20
41.852722055846712
10
179.55707943501949
20
41.852722055846712
10
179.55707943501949
20
40.853622055846714
10
193.5564794350195
20
40.853622055846714
10
193.5564794350195
20
41.852722055846712
10
194.35727943501951
20
41.852722055846712
10
194.35727943501951
20
44.953222055846709
10
193.5564794350195
20
44.953222055846709
10
193.5564794350195
20
50.75342205584672
10
194.35727943501951
20
50.75342205584672
10
194.35727943501951
20
53.852622055846709
10
193.5564794350195
20
53.852622055846709
10
193.5564794350195
20
54.853122055846711
10
179.55707943501949
20
54.853122055846711
10
179.55707943501949
20
53.852622055846709
10
178.75777943501953
20
53.852622055846709
10
178.75777943501953
20
50.75342205584672
0
LWPOLYLINE
5
333
100
AcDbEntity
8
0
100
AcDbPolyline
90
20
70
1
43
0.0
10
213.40737943501949
20
44.953222055846709
10
212.60647943501951
20
44.953222055846709
10
212.60647943501951
20
50.75342205584672
10
213.40737943501949
20
50.75342205584672
10
213.40737943501949
20
53.852622055846709
10
212.60647943501951
20
53.852622055846709
10
212.60647943501951
20
54.853122055846711
10
198.60727943501951
20
54.853122055846711
10
198.60727943501951
20
53.852622055846709
10
197.80787943501949
20
53.852622055846709
10
197.80787943501949
20
50.75342205584672
10
198.60727943501951
20
50.75342205584672
10
198.60727943501951
20
44.953222055846709
10
197.80787943501949
20
44.953222055846709
10
197.80787943501949
20
41.852722055846712
10
198.60727943501951
20
41.852722055846712
10
198.60727943501951
20
40.853622055846714
10
212.60647943501951
20
40.853622055846714
10
212.60647943501951
20
41.852722055846712
10
213.40737943501949
20
41.852722055846712
0
LINE
5
334
100
AcDbEntity
8
0
100
AcDbLine
10
221.34627943501954
20
168.03562205584669
30
0
11
221.55967943501958
21
167.6166220558467
31
0
0
LINE
5
335
100
AcDbEntity
8
0
100
AcDbLine
10
221.01387943501953
20
165.93962205584674
30
0
11
220.59657943501952
21
165.72562205584674
31
0
0
LINE
5
336
100
AcDbEntity
8
0
100
AcDbLine
10
221.01387943501953
20
168.36762205584677
30
0
11
221.34627943501954
21
168.03562205584669
31
0
0
LINE
5
337
100
AcDbEntity
8
0
100
AcDbLine
10
220.13197943501956
20
165.65262205584673
30
0
11
219.66767943501958
21
165.72562205584674
31
0
0
LINE
5
338
100
AcDbEntity
8
0
100
AcDbLine
10
219.66767943501958
20
165.72562205584674
30
0
11
219.25007943501953
21
165.93962205584674
31
0
0
LINE
5
339
100
AcDbEntity
8
0
100
AcDbLine
10
220.13197943501956
20
168.65262205584671
30
0
11
220.59657943501952
21
168.5796220558467
31
0
0
LINE
5
340
100
AcDbEntity
8
0
100
AcDbLine
10
218.91807943501954
20
166.27162205584676
30
0
11
218.70567943501953
21
166.68862205584674
31
0
0
LINE
5
341
100
AcDbEntity
8
0
100
AcDbLine
10
218.70567943501953
20
166.68862205584674
30
0
11
218.63267943501953
21
167.15362205584668
31
0
0
LINE
5
342
100
AcDbEntity
8
0
100
AcDbLine
10
220.13197943501956
20
31.827462055846713
30
0
11
219.66767943501958
21
31.900492055846712
31
0
0
LINE
5
343
100
AcDbEntity
8
0
100
AcDbLine
10
218.70567943501953
20
33.79254205584671
30
0
11
218.91807943501954
21
34.210092055846715
31
0
0
LINE
5
344
100
AcDbEntity
8
0
100
AcDbLine
10
221.55967943501958
20
99.77732205584671
30
0
11
221.34627943501954
21
99.359622055846714
31
0
0
LINE
5
345
100
AcDbEntity
8
0
100
AcDbLine
10
218.91807943501954
20
32.446202055846712
30
0
11
218.70567943501953
21
32.86375205584671
31
0
0
LINE
5
346
100
AcDbEntity
8
0
100
AcDbLine
10
221.01387943501953
20
32.114102055846715
30
0
11
220.59657943501952
21
31.900492055846712
31
0
0
LINE
5
347
100
AcDbEntity
8
0
100
AcDbLine
10
220.59657943501952
20
101.66642205584671
30
0
11
221.01387943501953
21
101.45402205584672
31
0
0
LINE
5
348
100
AcDbEntity
8
0
100
AcDbLine
10
220.59657943501952
20
165.72562205584674
30
0
11
220.13197943501956
21
165.65262205584673
31
0
0
LINE
5
349
100
AcDbEntity
8
0
100
AcDbLine
10
221.01387943501953
20
99.027622055846706
30
0
11
220.59657943501952
21
98.813822055846728
31
0
0
LINE
5
350
100
AcDbEntity
8
0
100
AcDbLine
10
221.34627943501954
20
166.27162205584676
30
0
11
221.01387943501953
21
165.93962205584674
31
0
0
LINE
5
351
100
AcDbEntity
8
0
100
AcDbLine
10
221.63267943501955
20
167.15362205584668
30
0
11
221.55967943501958
21
166.68862205584674
31
0
0
LINE
5
352
100
AcDbEntity
8
0
100
AcDbLine
10
219.66767943501958
20
98.813822055846728
30
0
11
219.25007943501953
21
99.027622055846706
31
0
0
LINE
5
353
100
AcDbEntity
8
0
100
AcDbLine
10
159.08204082920412
20
33.79254205584671
30
0
11
159.15506082920413
21
33.328152055846715
31
0
0
LINE
5
354
100
AcDbEntity
8
0
100
AcDbLine
10
221.01387943501953
20
34.542202055846715
30
0
11
221.34627943501954
21
34.210092055846715
31
0
0
LINE
5
355
100
AcDbEntity
8
0
100
AcDbLine
10
220.59657943501952
20
98.813822055846728
30
0
11
220.13197943501956
21
98.739422055846703
31
0
0
LINE
5
356
100
AcDbEntity
8
0
100
AcDbLine
10
219.25007943501953
20
34.542202055846715
30
0
11
219.66767943501958
21
34.754432055846713
31
0
0
LINE
5
357
100
AcDbEntity
8
0
100
AcDbLine
10
220.13197943501956
20
101.73942205584672
30
0
11
220.59657943501952
21
101.66642205584671
31
0
0
LINE
5
358
100
AcDbEntity
8
0
100
AcDbLine
10
221.55967943501958
20
33.79254205584671
30
0
11
221.63267943501955
21
33.328152055846715
31
0
0
LINE
5
359
100
AcDbEntity
8
0
100
AcDbLine
10
218.91807943501954
20
34.210092055846715
30
0
11
219.25007943501953
21
34.542202055846715
31
0
0
LINE
5
360
100
AcDbEntity
8
0
100
AcDbLine
10
218.70567943501953
20
99.77732205584671
30
0
11
218.63267943501953
21
100.24012205584671
31
0
0
LINE
5
361
100
AcDbEntity
8
0
100
AcDbLine
10
221.55967943501958
20
167.6166220558467
30
0
11
221.63267943501955
21
167.15362205584668
31
0
0
LINE
5
362
100
AcDbEntity
8
0
100
AcDbLine
10
221.34627943501954
20
101.1221220558467
30
0
11
221.55967943501958
21
100.70442205584671
31
0
0
LINE
5
363
100
AcDbEntity
8
0
100
AcDbLine
10
219.25007943501953
20
101.45402205584672
30
0
11
219.66767943501958
21
101.66642205584671
31
0
0
LINE
5
364
100
AcDbEntity
8
0
100
AcDbLine
10
220.59657943501952
20
168.5796220558467
30
0
11
221.01387943501953
21
168.36762205584677
31
0
0
LINE
5
365
100
AcDbEntity
8
0
100
AcDbLine
10
219.66767943501958
20
101.66642205584671
30
0
11
220.13197943501956
21
101.73942205584672
31
0
0
LINE
5
366
100
AcDbEntity
8
0
100
AcDbLine
10
221.34627943501954
20
32.446202055846712
30
0
11
221.01387943501953
21
32.114102055846715
31
0
0
LINE
5
367
100
AcDbEntity
8
0
100
AcDbLine
10
218.91807943501954
20
99.359622055846714
30
0
11
218.70567943501953
21
99.77732205584671
31
0
0
LINE
5
368
100
AcDbEntity
8
0
100
AcDbLine
10
220.59657943501952
20
31.900492055846712
30
0
11
220.13197943501956
21
31.827462055846713
31
0
0
LINE
5
369
100
AcDbEntity
8
0
100
AcDbLine
10
221.63267943501955
20
100.24012205584671
30
0
11
221.55967943501958
21
99.77732205584671
31
0
0
LINE
5
370
100
AcDbEntity
8
0
100
AcDbLine
10
219.66767943501958
20
168.5796220558467
30
0
11
220.13197943501956
21
168.65262205584671
31
0
0
LINE
5
371
100
AcDbEntity
8
0
100
AcDbLine
10
218.91807943501954
20
101.1221220558467
30
0
11
219.25007943501953
21
101.45402205584672
31
0
0
LINE
5
372
100
AcDbEntity
8
0
100
AcDbLine
10
220.13197943501956
20
34.827452055846713
30
0
11
220.59657943501952
21
34.754432055846713
31
0
0
LINE
5
373
100
AcDbEntity
8
0
100
AcDbLine
10
219.66767943501958
20
34.754432055846713
30
0
11
220.13197943501956
21
34.827452055846713
31
0
0
LINE
5
374
100
AcDbEntity
8
0
100
AcDbLine
10
221.55967943501958
20
100.70442205584671
30
0
11
221.63267943501955
21
100.24012205584671
31
0
0
LINE
5
375
100
AcDbEntity
8
0
100
AcDbLine
10
221.63267943501955
20
33.328152055846715
30
0
11
221.55967943501958
21
32.86375205584671
31
0
0
LINE
5
376
100
AcDbEntity
8
0
100
AcDbLine
10
218.70567943501953
20
100.70442205584671
30
0
11
218.91807943501954
21
101.1221220558467
31
0
0
LINE
5
377
100
AcDbEntity
8
0
100
AcDbLine
10
219.25007943501953
20
99.027622055846706
30
0
11
218.91807943501954
21
99.359622055846714
31
0
0
LINE
5
378
100
AcDbEntity
8
0
100
AcDbLine
10
218.70567943501953
20
167.6166220558467
30
0
11
218.91807943501954
21
168.03562205584669
31
0
0
LINE
5
379
100
AcDbEntity
8
0
100
AcDbLine
10
219.25007943501953
20
165.93962205584674
30
0
11
218.91807943501954
21
166.27162205584676
31
0
0
LINE
5
380
100
AcDbEntity
8
0
100
AcDbLine
10
219.25007943501953
20
168.36762205584677
30
0
11
219.66767943501958
21
168.5796220558467
31
0
0
LINE
5
381
100
AcDbEntity
8
0
100
AcDbLine
10
218.91807943501954
20
168.03562205584669
30
0
11
219.25007943501953
21
168.36762205584677
31
0
0
LINE
5
382
100
AcDbEntity
8
0
100
AcDbLine
10
221.01387943501953
20
101.45402205584672
30
0
11
221.34627943501954
21
101.1221220558467
31
0
0
LINE
5
383
100
AcDbEntity
8
0
100
AcDbLine
10
218.70567943501953
20
32.86375205584671
30
0
11
218.63267943501953
21
33.328152055846715
31
0
0
LINE
5
384
100
AcDbEntity
8
0
100
AcDbLine
10
220.59657943501952
20
34.754432055846713
30
0
11
221.01387943501953
21
34.542202055846715
31
0
0
LINE
5
385
100
AcDbEntity
8
0
100
AcDbLine
10
221.55967943501958
20
166.68862205584674
30
0
11
221.34627943501954
21
166.27162205584676
31
0
0
LINE
5
386
100
AcDbEntity
8
0
100
AcDbLine
10
220.13197943501956
20
98.739422055846703
30
0
11
219.66767943501958
21
98.813822055846728
31
0
0
LINE
5
387
100
AcDbEntity
8
0
100
AcDbLine
10
221.34627943501954
20
99.359622055846714
30
0
11
221.01387943501953
21
99.027622055846706
31
0
0
LINE
5
388
100
AcDbEntity
8
0
100
AcDbLine
10
218.63267943501953
20
167.15362205584668
30
0
11
218.70567943501953
21
167.6166220558467
31
0
0
LINE
5
389
100
AcDbEntity
8
0
100
AcDbLine
10
218.63267943501953
20
100.24012205584671
30
0
11
218.70567943501953
21
100.70442205584671
31
0
0
LINE
5
390
100
AcDbEntity
8
0
100
AcDbLine
10
144.84478590141532
20
168.36762205584677
30
0
11
145.17689590141535
21
168.03562205584669
31
0
0
LINE
5
391
100
AcDbEntity
8
0
100
AcDbLine
10
156.77243082920415
20
32.114102055846715
30
0
11
156.44033082920413
21
32.446202055846712
31
0
0
LINE
5
392
100
AcDbEntity
8
0
100
AcDbLine
10
218.63267943501953
20
33.328152055846715
30
0
11
218.70567943501953
21
33.79254205584671
31
0
0
LINE
5
393
100
AcDbEntity
8
0
100
AcDbLine
10
145.39050590141534
20
167.6166220558467
30
0
11
145.46352590141532
21
167.15362205584668
31
0
0
LINE
5
394
100
AcDbEntity
8
0
100
AcDbLine
10
142.74879590141532
20
166.27162205584676
30
0
11
142.53656590141534
21
166.68862205584674
31
0
0
LINE
5
395
100
AcDbEntity
8
0
100
AcDbLine
10
156.22810082920412
20
33.79254205584671
30
0
11
156.44033082920413
21
34.210092055846715
31
0
0
LINE
5
396
100
AcDbEntity
8
0
100
AcDbLine
10
158.86843082920416
20
34.210092055846715
30
0
11
159.08204082920412
21
33.79254205584671
31
0
0
LINE
5
397
100
AcDbEntity
8
0
100
AcDbLine
10
143.96284590141531
20
168.65262205584671
30
0
11
144.42724590141532
21
168.5796220558467
31
0
0
LINE
5
398
100
AcDbEntity
8
0
100
AcDbLine
10
157.65438082920411
20
34.827452055846713
30
0
11
158.11878082920413
21
34.754432055846713
31
0
0
LINE
5
399
100
AcDbEntity
8
0
100
AcDbLine
10
156.44033082920413
20
34.210092055846715
30
0
11
156.77243082920413
21
34.542202055846715
31
0
0
LINE
5
400
100
AcDbEntity
8
0
100
AcDbLine
10
219.66767943501958
20
31.900492055846712
30
0
11
219.25007943501953
21
32.114102055846715
31
0
0
LINE
5
401
100
AcDbEntity
8
0
100
AcDbLine
10
157.19136082920414
20
31.900492055846712
30
0
11
156.77243082920415
21
32.114102055846715
31
0
0
LINE
5
402
100
AcDbEntity
8
0
100
AcDbLine
10
157.65438082920411
20
31.827462055846713
30
0
11
157.19136082920414
21
31.900492055846712
31
0
0
LINE
5
403
100
AcDbEntity
8
0
100
AcDbLine
10
159.15506082920413
20
33.328152055846715
30
0
11
159.08204082920412
21
32.86375205584671
31
0
0
LINE
5
404
100
AcDbEntity
8
0
100
AcDbLine
10
156.77243082920413
20
34.542202055846715
30
0
11
157.19136082920414
21
34.754432055846713
31
0
0
LINE
5
405
100
AcDbEntity
8
0
100
AcDbLine
10
219.25007943501953
20
32.114102055846715
30
0
11
218.91807943501954
21
32.446202055846712
31
0
0
LINE
5
406
100
AcDbEntity
8
0
100
AcDbLine
10
156.15507082920413
20
33.328152055846715
30
0
11
156.22810082920412
21
33.79254205584671
31
0
0
LINE
5
407
100
AcDbEntity
8
0
100
AcDbLine
10
145.39050590141534
20
166.68862205584674
30
0
11
145.17689590141535
21
166.27162205584676
31
0
0
LINE
5
408
100
AcDbEntity
8
0
100
AcDbLine
10
158.86843082920416
20
32.446202055846712
30
0
11
158.53632082920413
21
32.114102055846715
31
0
0
LINE
5
409
100
AcDbEntity
8
0
100
AcDbLine
10
157.19136082920414
20
34.754432055846713
30
0
11
157.65438082920411
21
34.827452055846713
31
0
0
LINE
5
410
100
AcDbEntity
8
0
100
AcDbLine
10
143.49982590141533
20
165.72562205584674
30
0
11
143.08089590141537
21
165.93962205584674
31
0
0
LINE
5
411
100
AcDbEntity
8
0
100
AcDbLine
10
221.55967943501958
20
32.86375205584671
30
0
11
221.34627943501954
21
32.446202055846712
31
0
0
LINE
5
412
100
AcDbEntity
8
0
100
AcDbLine
10
156.44033082920413
20
32.446202055846712
30
0
11
156.22810082920412
21
32.86375205584671
31
0
0
LINE
5
413
100
AcDbEntity
8
0
100
AcDbLine
10
145.46352590141532
20
167.15362205584668
30
0
11
145.39050590141534
21
166.68862205584674
31
0
0
LINE
5
414
100
AcDbEntity
8
0
100
AcDbLine
10
142.53656590141534
20
167.6166220558467
30
0
11
142.74879590141532
21
168.03562205584669
31
0
0
LINE
5
415
100
AcDbEntity
8
0
100
AcDbLine
10
145.17689590141535
20
168.03562205584669
30
0
11
145.39050590141534
21
167.6166220558467
31
0
0
LINE
5
416
100
AcDbEntity
8
0
100
AcDbLine
10
144.42724590141532
20
168.5796220558467
30
0
11
144.84478590141532
21
168.36762205584677
31
0
0
LINE
5
417
100
AcDbEntity
8
0
100
AcDbLine
10
158.53632082920413
20
32.114102055846715
30
0
11
158.11878082920413
21
31.900492055846712
31
0
0
LINE
5
418
100
AcDbEntity
8
0
100
AcDbLine
10
144.42724590141532
20
165.72562205584674
30
0
11
143.96284590141531
21
165.65262205584673
31
0
0
LINE
5
419
100
AcDbEntity
8
0
100
AcDbLine
10
158.11878082920413
20
31.900492055846712
30
0
11
157.65438082920411
21
31.827462055846713
31
0
0
LINE
5
420
100
AcDbEntity
8
0
100
AcDbLine
10
142.53656590141534
20
166.68862205584674
30
0
11
142.46353590141533
21
167.15362205584668
31
0
0
LINE
5
421
100
AcDbEntity
8
0
100
AcDbLine
10
145.17689590141535
20
166.27162205584676
30
0
11
144.84478590141532
21
165.93962205584674
31
0
0
LINE
5
422
100
AcDbEntity
8
0
100
AcDbLine
10
159.08204082920412
20
32.86375205584671
30
0
11
158.86843082920416
21
32.446202055846712
31
0
0
LINE
5
423
100
AcDbEntity
8
0
100
AcDbLine
10
158.11878082920413
20
34.754432055846713
30
0
11
158.53632082920413
21
34.542202055846715
31
0
0
LINE
5
424
100
AcDbEntity
8
0
100
AcDbLine
10
158.53632082920413
20
34.542202055846715
30
0
11
158.86843082920416
21
34.210092055846715
31
0
0
LINE
5
425
100
AcDbEntity
8
0
100
AcDbLine
10
221.34627943501954
20
34.210092055846715
30
0
11
221.55967943501958
21
33.79254205584671
31
0
0
LWPOLYLINE
5
426
100
AcDbEntity
8
0
100
AcDbPolyline
90
20
70
1
43
0.0
10
160.50707943501953
20
155.52862205584671
10
160.50707943501953
20
149.7286220558467
10
159.70777943501952
20
149.7286220558467
10
159.70777943501952
20
146.62762205584673
10
160.50707943501953
20
146.62762205584673
10
160.50707943501953
20
145.62862205584673
10
174.50657943501952
20
145.62862205584673
10
174.50657943501952
20
146.62762205584673
10
175.30717943501955
20
146.62762205584673
10
175.30717943501946
20
149.7286220558467
10
174.50657943501952
20
149.7286220558467
10
174.50657943501952
20
155.52862205584671
10
175.30717943501955
20
155.52862205584671
10
175.30717943501955
20
158.62762205584673
10
174.50657943501952
20
158.62762205584673
10
174.50657943501952
20
159.62862205584668
10
160.50707943501953
20
159.62862205584668
10
160.50707943501953
20
158.62762205584673
10
159.70777943501952
20
158.62762205584673
10
159.70777943501952
20
155.52862205584671
0
LWPOLYLINE
5
427
100
AcDbEntity
8
0
100
AcDbPolyline
90
20
70
1
43
0.0
10
160.50707943501953
20
126.9535220558467
10
160.50707943501953
20
121.15312205584672
10
159.70777943501952
20
121.15312205584672
10
159.70777943501952
20
118.05262205584671
10
160.50707943501953
20
118.05262205584671
10
160.50707943501948
20
117.05352205584673
10
174.50657943501952
20
117.05352205584673
10
174.50657943501952
20
118.05262205584671
10
175.30717943501955
20
118.05262205584671
10
175.30717943501955
20
121.15312205584672
10
174.50657943501952
20
121.15312205584672
10
174.50657943501952
20
126.9535220558467
10
175.30717943501955
20
126.9535220558467
10
175.30717943501955
20
130.05262205584674
10
174.50657943501952
20
130.05262205584674
10
174.50657943501952
20
131.05362205584672
10
160.50707943501953
20
131.05362205584672
10
160.50707943501953
20
130.05262205584674
10
159.70777943501952
20
130.05262205584674
10
159.70777943501952
20
126.9535220558467
0
LINE
5
428
100
AcDbEntity
8
0
100
AcDbLine
10
143.49982590141531
20
168.5796220558467
30
0
11
143.96284590141531
21
168.65262205584671
31
0
0
LINE
5
429
100
AcDbEntity
8
0
100
AcDbLine
10
142.74879590141532
20
168.03562205584669
30
0
11
143.08089590141532
21
168.36762205584677
31
0
0
LINE
5
430
100
AcDbEntity
8
0
100
AcDbLine
10
144.84478590141532
20
165.93962205584674
30
0
11
144.42724590141532
21
165.72562205584674
31
0
0
LINE
5
431
100
AcDbEntity
8
0
100
AcDbLine
10
143.08089590141532
20
168.36762205584677
30
0
11
143.49982590141531
21
168.5796220558467
31
0
0
LINE
5
432
100
AcDbEntity
8
0
100
AcDbLine
10
143.08089590141537
20
165.93962205584674
30
0
11
142.74879590141532
21
166.27162205584676
31
0
0
LINE
5
433
100
AcDbEntity
8
0
100
AcDbLine
10
143.96284590141531
20
165.65262205584673
30
0
11
143.49982590141533
21
165.72562205584674
31
0
0
LINE
5
434
100
AcDbEntity
8
0
100
AcDbLine
10
156.22810082920412
20
32.86375205584671
30
0
11
156.15507082920413
21
33.328152055846715
31
0
0
LINE
5
435
100
AcDbEntity
8
0
100
AcDbLine
10
142.46353590141533
20
167.15362205584668
30
0
11
142.53656590141534
21
167.6166220558467
31
0
0
LWPOLYLINE
5
436
100
AcDbEntity
8
0
100
AcDbPolyline
90
20
70
1
43
0.0
10
160.50707943501953
20
102.10312205584673
10
159.70777943501952
20
102.10312205584673
10
159.70777943501952
20
99.0026220558467
10
160.50707943501953
20
99.0026220558467
10
160.50707943501948
20
98.003522055846716
10
174.50657943501952
20
98.003522055846716
10
174.50657943501952
20
99.0026220558467
10
175.30717943501955
20
99.0026220558467
10
175.30717943501955
20
102.10312205584673
10
174.50657943501952
20
102.10312205584673
10
174.50657943501952
20
107.90352205584671
10
175.30717943501955
20
107.90352205584671
10
175.30717943501946
20
111.00272205584672
10
174.50657943501952
20
111.00272205584672
10
174.50657943501952
20
112.00312205584672
10
160.50707943501953
20
112.00312205584672
10
160.50707943501953
20
111.00272205584672
10
159.70777943501952
20
111.00272205584672
10
159.70777943501952
20
107.90352205584671
10
160.50707943501953
20
107.90352205584671
0
LWPOLYLINE
5
437
100
AcDbEntity
8
0
100
AcDbPolyline
90
20
70
1
43
0.0
10
179.55707943501949
20
73.903122055846723
10
179.55707943501949
20
72.902722055846723
10
178.75777943501953
20
72.902722055846723
10
178.75777943501953
20
69.803522055846713
10
179.55707943501949
20
69.803522055846713
10
179.55707943501949
20
64.003122055846717
10
178.75777943501953
20
64.003122055846717
10
178.75777943501953
20
60.902722055846716
10
179.55707943501949
20
60.902722055846716
10
179.55707943501949
20
59.903622055846725
10
193.5564794350195
20
59.903622055846725
10
193.5564794350195
20
60.902722055846716
10
194.35727943501951
20
60.902722055846716
10
194.35727943501951
20
64.003122055846717
10
193.5564794350195
20
64.003122055846717
10
193.5564794350195
20
69.803522055846713
10
194.35727943501951
20
69.803522055846713
10
194.35727943501951
20
72.902722055846723
10
193.5564794350195
20
72.902722055846723
10
193.5564794350195
20
73.903122055846723
0
LWPOLYLINE
5
438
100
AcDbEntity
8
0
100
AcDbPolyline
90
20
70
1
43
0.0
10
174.50657943501952
20
41.852722055846712
10
175.30717943501955
20
41.852722055846712
10
175.30717943501955
20
44.953222055846709
10
174.50657943501952
20
44.953222055846709
10
174.50657943501952
20
50.75342205584672
10
175.30717943501955
20
50.75342205584672
10
175.30717943501955
20
53.852622055846709
10
174.50657943501952
20
53.852622055846709
10
174.50657943501952
20
54.853122055846711
10
160.50707943501953
20
54.853122055846711
10
160.50707943501953
20
53.852622055846709
10
159.70777943501952
20
53.852622055846709
10
159.70777943501952
20
50.75342205584672
10
160.50707943501953
20
50.75342205584672
10
160.50707943501953
20
44.953222055846709
10
159.70777943501952
20
44.953222055846709
10
159.70777943501952
20
41.852722055846712
10
160.50707943501953
20
41.852722055846712
10
160.50707943501948
20
40.853622055846714
10
174.50657943501952
20
40.853622055846714
0
LWPOLYLINE
5
439
100
AcDbEntity
8
0
100
AcDbPolyline
90
20
70
1
43
0.0
10
179.55707943501949
20
131.05362205584672
10
179.55707943501949
20
130.05262205584674
10
178.75777943501953
20
130.05262205584674
10
178.75777943501953
20
126.9535220558467
10
179.55707943501949
20
126.9535220558467
10
179.55707943501949
20
121.15312205584672
10
178.75777943501953
20
121.15312205584672
10
178.75777943501953
20
118.05262205584671
10
179.55707943501949
20
118.05262205584671
10
179.55707943501949
20
117.05352205584673
10
193.5564794350195
20
117.05352205584673
10
193.5564794350195
20
118.05262205584671
10
194.35727943501951
20
118.05262205584671
10
194.35727943501951
20
121.15312205584672
10
193.5564794350195
20
121.15312205584672
10
193.5564794350195
20
126.9535220558467
10
194.35727943501951
20
126.9535220558467
10
194.35727943501951
20
130.05262205584674
10
193.5564794350195
20
130.05262205584674
10
193.5564794350195
20
131.05362205584672
0
LWPOLYLINE
5
440
100
AcDbEntity
8
0
100
AcDbPolyline
90
20
70
1
43
0.0
10
193.5564794350195
20
155.52862205584671
10
194.35727943501951
20
155.52862205584671
10
194.35727943501951
20
158.62762205584673
10
193.5564794350195
20
158.62762205584673
10
193.5564794350195
20
159.62862205584668
10
179.55707943501949
20
159.62862205584668
10
179.55707943501949
20
158.62762205584673
10
178.75777943501953
20
158.62762205584673
10
178.75777943501953
20
155.52862205584671
10
179.55707943501949
20
155.52862205584671
10
179.55707943501949
20
149.7286220558467
10
178.75777943501953
20
149.7286220558467
10
178.75777943501953
20
146.62762205584673
10
179.55707943501949
20
146.62762205584673
10
179.55707943501949
20
145.62862205584673
10
193.5564794350195
20
145.62862205584673
10
193.5564794350195
20
146.62762205584673
10
194.35727943501951
20
146.62762205584673
10
194.35727943501951
20
149.7286220558467
10
193.5564794350195
20
149.7286220558467
0
LWPOLYLINE
5
441
100
AcDbEntity
8
0
100
AcDbPolyline
90
20
70
1
43
0.0
10
178.75777943501953
20
99.0026220558467
10
179.55707943501949
20
99.0026220558467
10
179.55707943501949
20
98.003522055846716
10
193.5564794350195
20
98.003522055846716
10
193.5564794350195
20
99.0026220558467
10
194.35727943501951
20
99.0026220558467
10
194.35727943501951
20
102.10312205584673
10
193.5564794350195
20
102.10312205584673
10
193.5564794350195
20
107.90352205584671
10
194.35727943501951
20
107.90352205584671
10
194.35727943501951
20
111.00272205584672
10
193.5564794350195
20
111.00272205584672
10
193.5564794350195
20
112.00312205584672
10
179.55707943501949
20
112.00312205584672
10
179.55707943501949
20
111.00272205584672
10
178.75777943501953
20
111.00272205584672
10
178.75777943501953
20
107.90352205584671
10
179.55707943501949
20
107.90352205584671
10
179.55707943501949
20
102.10312205584673
10
178.75777943501953
20
102.10312205584673
0
ENDSEC
0
SECTION
2
OBJECTS
0
DICTIONARY
5
C
100
AcDbDictionary
3
ACAD_GROUP
350
D
3
ACAD_MLINESTYLE
350
17
0
DICTIONARY
5
D
100
AcDbDictionary
0
DICTIONARY
5
1A
330
C
100
AcDbDictionary
0
DICTIONARY
5
17
100
AcDbDictionary
0
ENDSEC
0
EOF
