0
SECTION
2
HEADER
9
$INSUNITS
70
4
9
$ACADVER
1
AC1014
9
$HANDSEED
5
FFFF
0
ENDSEC
0
SECTION
2
TABLES
0
TABLE
2
VPORT
5
8
100
AcDbSymbolTable
0
ENDTAB
0
TABLE
2
LTYPE
5
5
100
AcDbSymbolTable
0
LTYPE
5
14
100
AcDbSymbolTableRecord
100
AcDbLinetypeTableRecord
2
BYBLOCK
70
0
0
LTYPE
5
15
100
AcDbSymbolTableRecord
100
AcDbLinetypeTableRecord
2
BYLAYER
70
0
0
ENDTAB
0
TABLE
2
LAYER
5
2
100
AcDbSymbolTable
70
2
0
LAYER
5
50
100
AcDbSymbolTableRecord
100
AcDbLayerTableRecord
2
0
70
0
6
CONTINUOUS
0
ENDTAB
0
TABLE
2
STYLE
5
3
100
AcDbSymbolTable
70
1
0
STYLE
5
11
100
AcDbSymbolTableRecord
100
AcDbTextStyleTableRecord
2
STANDARD
70
0
0
ENDTAB
0
TABLE
2
VIEW
5
6
100
AcDbSymbolTable
70
0
0
ENDTAB
0
TABLE
2
UCS
5
7
100
AcDbSymbolTable
70
0
0
ENDTAB
0
TABLE
2
APPID
5
9
100
AcDbSymbolTable
70
2
0
APPID
5
12
100
AcDbSymbolTableRecord
100
AcDbRegAppTableRecord
2
ACAD
70
0
0
ENDTAB
0
TABLE
2
DIMSTYLE
5
A
100
AcDbSymbolTable
70
1
0
ENDTAB
0
TABLE
2
BLOCK_RECORD
5
1
100
AcDbSymbolTable
70
1
0
BLOCK_RECORD
5
1F
100
AcDbSymbolTableRecord
100
AcDbBlockTableRecord
2
*MODEL_SPACE
0
BLOCK_RECORD
5
1B
100
AcDbSymbolTableRecord
100
AcDbBlockTableRecord
2
*PAPER_SPACE
0
ENDTAB
0
ENDSEC
0
SECTION
2
BLOCKS
0
BLOCK
5
20
100
AcDbEntity
100
AcDbBlockBegin
2
*MODEL_SPACE
0
ENDBLK
5
21
100
AcDbEntity
100
AcDbBlockEnd
0
BLOCK
5
1C
100
AcDbEntity
100
AcDbBlockBegin
2
*PAPER_SPACE
0
ENDBLK
5
1D
100
AcDbEntity
100
AcDbBlockEnd
0
ENDSEC
0
SECTION
2
ENTITIES
0
LWPOLYLINE
5
100
100
AcDbEntity
8
0
100
AcDbPolyline
90
20
70
1
43
0.0
10
65.13761844407226
20
150.21828485794083
10
64.668018048853369
20
150.20137010667861
10
64.217159249316651
20
150.3317374065677
10
63.827910437947068
20
150.59428904500732
10
63.539943635829125
20
150.96311883078653
10
63.379460505868998
20
151.40562733352763
10
63.362872888119654
20
151.87406885702597
10
63.491323370102826
20
152.32587939660897
10
63.753875008542437
20
152.71512820797858
10
64.123449176048709
20
153.00293408823828
10
64.565191457942618
20
153.16316640828381
10
65.033810225978058
20
153.17989035055058
10
65.48399291936893
20
153.05142906232982
10
65.873536218893619
20
152.78893466658874
10
66.162964428904104
20
152.41835151633757
10
66.324342056211961
20
151.97805431965728
10
66.34003517661354
20
151.50740149009815
10
66.21012328673784
20
151.05734431498712
10
65.947277160143202
20
150.66803826091882
10
65.578379098782719
20
150.37832636899088
0
LWPOLYLINE
5
101
100
AcDbEntity
8
0
100
AcDbPolyline
90
20
70
1
43
0.0
10
89.658499236023943
20
21.63648975418981
10
90.100237701737939
20
21.796741706778956
10
90.568860285953278
20
21.81344601650202
10
91.019086865413129
20
21.684758954029096
10
91.408651153927266
20
21.422156579297909
10
91.697802690894434
20
21.052996788462686
10
91.859445542705899
20
20.611335129997453
10
91.87502417771023
20
20.141271276748334
10
91.745217232782025
20
19.69067420668641
10
91.482390187086921
20
19.301269989899815
10
91.113417710218201
20
19.011940932573388
10
90.672662779777639
20
18.851869972707792
10
90.20305666028888
20
18.834984670261182
10
89.752272276260371
20
18.964969135548657
10
89.363004383991239
20
19.227618936706609
10
89.074932636925809
20
19.596988617436747
10
88.914563992362901
20
20.038908143867815
10
88.897711150110013
20
20.508714129151105
10
89.026438305136509
20
20.959101309318115
10
89.288968954586622
20
21.348458099677924
0
LWPOLYLINE
5
102
100
AcDbEntity
8
0
100
AcDbPolyline
90
20
70
1
43
0.0
10
-112.49851389902041
20
17.471826126391626
10
-112.96713839132572
20
17.488520619842856
10
-113.40759883361129
20
17.648534337009846
10
-113.77824007669183
20
17.938187769628406
10
-114.04067447151355
20
18.32751566281685
10
-114.16949978925837
20
18.777921923883408
10
-114.15392115425398
20
19.247985777132509
10
-113.99227830244257
20
19.689647435597763
10
-113.70410839265881
20
20.058998035428356
10
-113.31493675501804
20
20.321676733757684
10
-112.86304140934635
20
20.450039420938467
10
-112.39471331328602
20
20.433392353914016
10
-111.95395647475549
20
20.273331210320251
10
-111.5834445661347
20
19.985108746812998
10
-111.32061942852957
20
19.595694713754558
10
-111.19208859893976
20
19.145345695386631
10
-111.20903960391101
20
18.675558791002874
10
-111.36931008575557
20
18.233620183672265
10
-111.65718550738426
20
17.864212341143066
10
-112.04674788780849
20
17.601619782683716
0
LWPOLYLINE
5
103
100
AcDbEntity
8
0
100
AcDbPolyline
90
20
70
1
43
0.0
10
-185.55959224309487
20
34.580817445248371
10
-185.09114635177255
20
34.564147481144481
10
-184.64921156062186
20
34.403857366756284
10
-184.27983833953388
20
34.11585624168363
10
-184.01719971109355
20
33.726478462334327
10
-183.88718662445683
20
33.275841322383371
10
-183.90411799688439
20
32.806050601819699
10
-184.06440811127254
20
32.36411581066902
10
-184.3537657899484
20
31.9949960897228
10
-184.74314166120769
20
31.732367277554321
10
-185.19376898488684
20
31.602352282827624
10
-185.66357142981221
20
31.61927574707331
10
-186.10414966735985
20
31.779312361319754
10
-186.4746240338192
20
32.06893335640909
10
-186.73725475407761
20
32.458299411396617
10
-186.86591319520119
20
32.90867323493395
10
-186.84898973095554
20
33.378475679859399
10
-186.68869170838545
20
33.820398746648308
10
-186.40068867522285
20
34.189781784008119
10
-186.01132071214539
20
34.452422320538375
0
LWPOLYLINE
5
104
100
AcDbEntity
8
0
100
AcDbPolyline
90
20
70
1
43
0.0
10
-87.872560222175792
20
149.01491977342732
10
-88.243127049748125
20
149.30495604064743
10
-88.505580525469384
20
149.69418577111756
10
-88.634510788161677
20
150.14405213723319
10
-88.618817667760055
20
150.61470496679237
10
-88.457440040452212
20
151.05500216347264
10
-88.168993457625163
20
151.42577612271918
10
-87.779842808973868
20
151.68834684205837
10
-87.327991349371089
20
151.81648375498696
10
-86.859667069490712
20
151.79981705541883
10
-86.418906414780267
20
151.63977554436877
10
-86.048350620090517
20
151.35177885511371
10
-85.785504493495907
20
150.96247280104541
10
-85.657250336949389
20
150.51070042326154
10
-85.673936117417057
20
150.0422779806627
10
-85.834321084658839
20
149.59975039702209
10
-86.122091561340113
20
149.23088244944375
10
-86.511634860864774
20
148.96838805370277
10
-86.963475287584927
20
148.83821156280908
10
-87.43209405562034
20
148.85493550507587
0
LINE
5
105
100
AcDbEntity
8
0
100
AcDbLine
10
-87.872560222175792
20
149.01491977342732
30
0
11
-88.243127049748125
21
149.30495604064743
31
0
0
LINE
5
106
100
AcDbEntity
8
0
100
AcDbLine
10
-87.43209405562034
20
148.85493550507587
30
0
11
-87.872560222175792
21
149.01491977342732
31
0
0
LINE
5
107
100
AcDbEntity
8
0
100
AcDbLine
10
-88.505580525469384
20
149.69418577111756
30
0
11
-88.634510788161677
21
150.14405213723319
31
0
0
LWPOLYLINE
5
108
100
AcDbEntity
8
0
100
AcDbPolyline
90
20
70
1
43
0.0
10
-171.11979802290085
20
98.958361625971435
10
-171.13671222251884
20
98.488659251854301
10
-171.29669704251444
20
98.048295064197134
10
-171.58608334253952
20
97.679028099173451
10
-171.97544013289928
20
97.416497449723281
10
-172.42610371028752
20
97.286295945831739
10
-172.89616756353664
20
97.301874580836056
10
-173.33648439276058
20
97.463256024323854
10
-173.70692250551085
20
97.753063528578025
10
-173.96957230666874
20
98.142331420847242
10
-174.09820212644314
20
98.592852488462057
10
-174.08158395659001
20
99.061084329893987
10
-173.92130310682944
20
99.502919050236386
10
-173.63327145231762
20
99.872449331673678
10
-173.24394355912915
20
100.13488372649545
10
-172.79218265254943
20
100.26344572782664
10
-172.32374057740702
20
100.24675613117905
10
-171.8818019700764
20
100.08648564933452
10
-171.5124611865177
20
99.798317647640715
10
-171.24978248818834
20
99.409146009999901
0
LWPOLYLINE
5
109
100
AcDbEntity
8
0
100
AcDbPolyline
90
20
70
1
43
0.0
10
-158.48208477605991
20
165.09325654962515
10
-158.35234836246642
20
164.64119605025817
10
-158.36901451039043
20
164.17276979147957
10
-158.52941911017584
20
163.73024602401875
10
-158.81867184390413
20
163.36166619802356
10
-159.20802863426388
20
163.09913554857337
10
-159.65873037345125
20
162.9687377192451
10
-160.12852709410686
20
162.9856906323063
10
-160.56911105592431
20
163.14569779773717
10
-160.93951100687545
20
163.43570162742819
10
-161.20216080803343
20
163.82496951969731
10
-161.33092419410445
20
164.27480344828379
10
-161.31388624446157
20
164.74519486951925
10
-161.15385344639503
20
165.18575347452321
10
-160.86557374018921
20
165.55655987129896
10
-160.47622676610118
20
165.8190924288391
10
-160.02454218311965
20
165.94726177929687
10
-159.55610010797722
20
165.93057218264931
10
-159.11416150064662
20
165.77030170080474
10
-158.7447443934897
20
165.48252634998434
0
LINE
5
110
100
AcDbEntity
8
0
100
AcDbLine
10
-85.785504493495907
20
150.96247280104541
30
0
11
-85.657250336949389
21
150.51070042326154
31
0
0
LINE
5
111
100
AcDbEntity
8
0
100
AcDbLine
10
-87.779842808973868
20
151.68834684205837
30
0
11
-87.327991349371089
21
151.81648375498696
31
0
0
LINE
5
112
100
AcDbEntity
8
0
100
AcDbLine
10
-88.243127049748125
20
149.30495604064743
30
0
11
-88.505580525469384
21
149.69418577111756
31
0
0
LINE
5
113
100
AcDbEntity
8
0
100
AcDbLine
10
-112.49851389902041
20
17.471826126391626
30
0
11
-112.96713839132572
21
17.488520619842856
31
0
0
LINE
5
114
100
AcDbEntity
8
0
100
AcDbLine
10
-184.01719971109355
20
33.726478462334327
30
0
11
-183.88718662445683
21
33.275841322383371
31
0
0
LINE
5
115
100
AcDbEntity
8
0
100
AcDbLine
10
-86.511634860864774
20
148.96838805370277
30
0
11
-86.122091561340113
21
149.23088244944375
31
0
0
LINE
5
116
100
AcDbEntity
8
0
100
AcDbLine
10
-86.418906414780267
20
151.63977554436877
30
0
11
-86.859667069490712
21
151.79981705541883
31
0
0
LINE
5
117
100
AcDbEntity
8
0
100
AcDbLine
10
-85.785504493495907
20
150.96247280104541
30
0
11
-86.048350620090517
21
151.35177885511371
31
0
0
LINE
5
118
100
AcDbEntity
8
0
100
AcDbLine
10
-86.122091561340113
20
149.23088244944375
30
0
11
-85.834321084658839
21
149.59975039702209
31
0
0
LINE
5
119
100
AcDbEntity
8
0
100
AcDbLine
10
-111.36931008575557
20
18.233620183672265
30
0
11
-111.65718550738426
21
17.864212341143066
31
0
0
LINE
5
120
100
AcDbEntity
8
0
100
AcDbLine
10
-88.457440040452212
20
151.05500216347264
30
0
11
-88.168993457625163
21
151.42577612271918
31
0
0
LINE
5
121
100
AcDbEntity
8
0
100
AcDbLine
10
-184.06440811127254
20
32.36411581066902
30
0
11
-184.3537657899484
21
31.9949960897228
31
0
0
LINE
5
122
100
AcDbEntity
8
0
100
AcDbLine
10
-86.963475287584927
20
148.83821156280908
30
0
11
-87.43209405562034
21
148.85493550507587
31
0
0
LINE
5
123
100
AcDbEntity
8
0
100
AcDbLine
10
-87.327991349371089
20
151.81648375498696
30
0
11
-86.859667069490712
21
151.79981705541883
31
0
0
LINE
5
124
100
AcDbEntity
8
0
100
AcDbLine
10
-186.01132071214539
20
34.452422320538375
30
0
11
-185.55959224309487
21
34.580817445248371
31
0
0
LINE
5
125
100
AcDbEntity
8
0
100
AcDbLine
10
90.100237701737939
20
21.796741706778956
30
0
11
90.568860285953278
21
21.81344601650202
31
0
0
LINE
5
126
100
AcDbEntity
8
0
100
AcDbLine
10
90.568860285953278
20
21.81344601650202
30
0
11
91.019086865413129
21
21.684758954029096
31
0
0
LINE
5
127
100
AcDbEntity
8
0
100
AcDbLine
10
91.745217232782025
20
19.69067420668641
30
0
11
91.482390187086921
21
19.301269989899815
31
0
0
LINE
5
128
100
AcDbEntity
8
0
100
AcDbLine
10
91.697802690894434
20
21.052996788462686
30
0
11
91.859445542705899
21
20.611335129997453
31
0
0
LINE
5
129
100
AcDbEntity
8
0
100
AcDbLine
10
89.026438305136509
20
20.959101309318115
30
0
11
89.288968954586622
21
21.348458099677924
31
0
0
LINE
5
130
100
AcDbEntity
8
0
100
AcDbLine
10
89.288968954586622
20
21.348458099677924
30
0
11
89.658499236023943
21
21.63648975418981
31
0
0
LINE
5
131
100
AcDbEntity
8
0
100
AcDbLine
10
91.87502417771023
20
20.141271276748334
30
0
11
91.745217232782025
21
19.69067420668641
31
0
0
LINE
5
132
100
AcDbEntity
8
0
100
AcDbLine
10
91.019086865413129
20
21.684758954029096
30
0
11
91.408651153927266
21
21.422156579297909
31
0
0
LINE
5
133
100
AcDbEntity
8
0
100
AcDbLine
10
88.914563992362901
20
20.038908143867815
30
0
11
88.897711150110013
21
20.508714129151105
31
0
0
LINE
5
134
100
AcDbEntity
8
0
100
AcDbLine
10
89.752272276260371
20
18.964969135548657
30
0
11
89.363004383991239
21
19.227618936706609
31
0
0
LINE
5
135
100
AcDbEntity
8
0
100
AcDbLine
10
89.658499236023943
20
21.63648975418981
30
0
11
90.100237701737939
21
21.796741706778956
31
0
0
LINE
5
136
100
AcDbEntity
8
0
100
AcDbLine
10
90.20305666028888
20
18.834984670261182
30
0
11
89.752272276260371
21
18.964969135548657
31
0
0
LINE
5
137
100
AcDbEntity
8
0
100
AcDbLine
10
88.897711150110013
20
20.508714129151105
30
0
11
89.026438305136509
21
20.959101309318115
31
0
0
LINE
5
138
100
AcDbEntity
8
0
100
AcDbLine
10
91.408651153927266
20
21.422156579297909
30
0
11
91.697802690894434
21
21.052996788462686
31
0
0
LINE
5
139
100
AcDbEntity
8
0
100
AcDbLine
10
89.074932636925809
20
19.596988617436747
30
0
11
88.914563992362901
21
20.038908143867815
31
0
0
LINE
5
140
100
AcDbEntity
8
0
100
AcDbLine
10
89.363004383991239
20
19.227618936706609
30
0
11
89.074932636925809
21
19.596988617436747
31
0
0
LINE
5
141
100
AcDbEntity
8
0
100
AcDbLine
10
90.20305666028888
20
18.834984670261182
30
0
11
90.672662779777639
21
18.851869972707792
31
0
0
LINE
5
142
100
AcDbEntity
8
0
100
AcDbLine
10
91.113417710218201
20
19.011940932573388
30
0
11
91.482390187086921
21
19.301269989899815
31
0
0
LINE
5
143
100
AcDbEntity
8
0
100
AcDbLine
10
90.672662779777639
20
18.851869972707792
30
0
11
91.113417710218201
21
19.011940932573388
31
0
0
LINE
5
144
100
AcDbEntity
8
0
100
AcDbLine
10
91.87502417771023
20
20.141271276748334
30
0
11
91.859445542705899
21
20.611335129997453
31
0
0
LINE
5
145
100
AcDbEntity
8
0
100
AcDbLine
10
-171.8818019700764
20
100.08648564933452
30
0
11
-171.5124611865177
21
99.798317647640715
31
0
0
LINE
5
146
100
AcDbEntity
8
0
100
AcDbLine
10
-161.31388624446157
20
164.74519486951925
30
0
11
-161.15385344639503
21
165.18575347452321
31
0
0
LINE
5
147
100
AcDbEntity
8
0
100
AcDbLine
10
-173.96957230666874
20
98.142331420847242
30
0
11
-174.09820212644314
21
98.592852488462057
31
0
0
LINE
5
148
100
AcDbEntity
8
0
100
AcDbLine
10
-173.70692250551085
20
97.753063528578025
30
0
11
-173.96957230666874
21
98.142331420847242
31
0
0
LINE
5
149
100
AcDbEntity
8
0
100
AcDbLine
10
-160.93951100687545
20
163.43570162742819
30
0
11
-161.20216080803343
21
163.82496951969731
31
0
0
LINE
5
150
100
AcDbEntity
8
0
100
AcDbLine
10
-174.09820212644314
20
98.592852488462057
30
0
11
-174.08158395659001
21
99.061084329893987
31
0
0
LINE
5
151
100
AcDbEntity
8
0
100
AcDbLine
10
-173.92130310682944
20
99.502919050236386
30
0
11
-173.63327145231762
21
99.872449331673678
31
0
0
LINE
5
152
100
AcDbEntity
8
0
100
AcDbLine
10
-186.86591319520119
20
32.90867323493395
30
0
11
-186.84898973095554
21
33.378475679859399
31
0
0
LINE
5
153
100
AcDbEntity
8
0
100
AcDbLine
10
-174.08158395659001
20
99.061084329893987
30
0
11
-173.92130310682944
21
99.502919050236386
31
0
0
LINE
5
154
100
AcDbEntity
8
0
100
AcDbLine
10
-173.24394355912915
20
100.13488372649545
30
0
11
-172.79218265254943
21
100.26344572782664
31
0
0
LINE
5
155
100
AcDbEntity
8
0
100
AcDbLine
10
-159.55610010797722
20
165.93057218264931
30
0
11
-159.11416150064662
21
165.77030170080474
31
0
0
LINE
5
156
100
AcDbEntity
8
0
100
AcDbLine
10
-159.11416150064662
20
165.77030170080474
30
0
11
-158.7447443934897
21
165.48252634998434
31
0
0
LINE
5
157
100
AcDbEntity
8
0
100
AcDbLine
10
-159.65873037345125
20
162.9687377192451
30
0
11
-160.12852709410686
21
162.9856906323063
31
0
0
LINE
5
158
100
AcDbEntity
8
0
100
AcDbLine
10
-171.11979802290085
20
98.958361625971435
30
0
11
-171.13671222251884
21
98.488659251854301
31
0
0
LINE
5
159
100
AcDbEntity
8
0
100
AcDbLine
10
-172.42610371028752
20
97.286295945831739
30
0
11
-172.89616756353664
21
97.301874580836056
31
0
0
LINE
5
160
100
AcDbEntity
8
0
100
AcDbLine
10
-85.673936117417057
20
150.0422779806627
30
0
11
-85.834321084658839
21
149.59975039702209
31
0
0
LINE
5
161
100
AcDbEntity
8
0
100
AcDbLine
10
-171.5124611865177
20
99.798317647640715
30
0
11
-171.24978248818834
21
99.409146009999901
31
0
0
LINE
5
162
100
AcDbEntity
8
0
100
AcDbLine
10
-158.35234836246642
20
164.64119605025817
30
0
11
-158.36901451039043
21
164.17276979147957
31
0
0
LINE
5
163
100
AcDbEntity
8
0
100
AcDbLine
10
-161.15385344639503
20
165.18575347452321
30
0
11
-160.86557374018921
21
165.55655987129896
31
0
0
LINE
5
164
100
AcDbEntity
8
0
100
AcDbLine
10
-113.99227830244257
20
19.689647435597763
30
0
11
-113.70410839265881
21
20.058998035428356
31
0
0
LINE
5
165
100
AcDbEntity
8
0
100
AcDbLine
10
-158.81867184390413
20
163.36166619802356
30
0
11
-159.20802863426388
21
163.09913554857337
31
0
0
LINE
5
166
100
AcDbEntity
8
0
100
AcDbLine
10
-160.47622676610118
20
165.8190924288391
30
0
11
-160.02454218311965
21
165.94726177929687
31
0
0
LINE
5
167
100
AcDbEntity
8
0
100
AcDbLine
10
-173.33648439276058
20
97.463256024323854
30
0
11
-173.70692250551085
21
97.753063528578025
31
0
0
LINE
5
168
100
AcDbEntity
8
0
100
AcDbLine
10
-171.58608334253952
20
97.679028099173451
30
0
11
-171.97544013289928
21
97.416497449723281
31
0
0
LINE
5
169
100
AcDbEntity
8
0
100
AcDbLine
10
-161.20216080803343
20
163.82496951969731
30
0
11
-161.33092419410445
21
164.27480344828379
31
0
0
LINE
5
170
100
AcDbEntity
8
0
100
AcDbLine
10
-160.02454218311965
20
165.94726177929687
30
0
11
-159.55610010797722
21
165.93057218264931
31
0
0
LINE
5
171
100
AcDbEntity
8
0
100
AcDbLine
10
-159.20802863426388
20
163.09913554857337
30
0
11
-159.65873037345125
21
162.9687377192451
31
0
0
LINE
5
172
100
AcDbEntity
8
0
100
AcDbLine
10
-86.418906414780267
20
151.63977554436877
30
0
11
-86.048350620090517
21
151.35177885511371
31
0
0
LINE
5
173
100
AcDbEntity
8
0
100
AcDbLine
10
-158.48208477605991
20
165.09325654962515
30
0
11
-158.35234836246642
21
164.64119605025817
31
0
0
LINE
5
174
100
AcDbEntity
8
0
100
AcDbLine
10
-161.33092419410445
20
164.27480344828379
30
0
11
-161.31388624446157
21
164.74519486951925
31
0
0
LINE
5
175
100
AcDbEntity
8
0
100
AcDbLine
10
-158.52941911017584
20
163.73024602401875
30
0
11
-158.81867184390413
21
163.36166619802356
31
0
0
LINE
5
176
100
AcDbEntity
8
0
100
AcDbLine
10
-171.97544013289928
20
97.416497449723281
30
0
11
-172.42610371028752
21
97.286295945831739
31
0
0
LINE
5
177
100
AcDbEntity
8
0
100
AcDbLine
10
-172.32374057740702
20
100.24675613117905
30
0
11
-171.8818019700764
21
100.08648564933452
31
0
0
LINE
5
178
100
AcDbEntity
8
0
100
AcDbLine
10
-158.7447443934897
20
165.48252634998434
30
0
11
-158.48208477605991
21
165.09325654962515
31
0
0
LINE
5
179
100
AcDbEntity
8
0
100
AcDbLine
10
-160.86557374018921
20
165.55655987129896
30
0
11
-160.47622676610118
21
165.8190924288391
31
0
0
LINE
5
180
100
AcDbEntity
8
0
100
AcDbLine
10
-160.56911105592431
20
163.14569779773717
30
0
11
-160.93951100687545
21
163.43570162742819
31
0
0
LINE
5
181
100
AcDbEntity
8
0
100
AcDbLine
10
-171.29669704251444
20
98.048295064197134
30
0
11
-171.58608334253952
21
97.679028099173451
31
0
0
LINE
5
182
100
AcDbEntity
8
0
100
AcDbLine
10
-173.63327145231762
20
99.872449331673678
30
0
11
-173.24394355912915
21
100.13488372649545
31
0
0
LINE
5
183
100
AcDbEntity
8
0
100
AcDbLine
10
-113.40759883361129
20
17.648534337009846
30
0
11
-113.77824007669183
21
17.938187769628406
31
0
0
LINE
5
184
100
AcDbEntity
8
0
100
AcDbLine
10
-171.13671222251884
20
98.488659251854301
30
0
11
-171.29669704251444
21
98.048295064197134
31
0
0
LINE
5
185
100
AcDbEntity
8
0
100
AcDbLine
10
-172.79218265254943
20
100.26344572782664
30
0
11
-172.32374057740702
21
100.24675613117905
31
0
0
LINE
5
186
100
AcDbEntity
8
0
100
AcDbLine
10
-160.12852709410686
20
162.9856906323063
30
0
11
-160.56911105592431
21
163.14569779773717
31
0
0
LINE
5
187
100
AcDbEntity
8
0
100
AcDbLine
10
-172.89616756353664
20
97.301874580836056
30
0
11
-173.33648439276058
21
97.463256024323854
31
0
0
LINE
5
188
100
AcDbEntity
8
0
100
AcDbLine
10
-171.24978248818834
20
99.409146009999901
30
0
11
-171.11979802290085
21
98.958361625971435
31
0
0
LINE
5
189
100
AcDbEntity
8
0
100
AcDbLine
10
64.123449176048709
20
153.00293408823828
30
0
11
64.565191457942618
21
153.16316640828381
31
0
0
LINE
5
190
100
AcDbEntity
8
0
100
AcDbLine
10
65.033810225978058
20
153.17989035055058
30
0
11
65.48399291936893
21
153.05142906232982
31
0
0
LINE
5
191
100
AcDbEntity
8
0
100
AcDbLine
10
66.21012328673784
20
151.05734431498712
30
0
11
65.947277160143202
21
150.66803826091882
31
0
0
LINE
5
192
100
AcDbEntity
8
0
100
AcDbLine
10
65.13761844407226
20
150.21828485794083
30
0
11
64.668018048853369
21
150.20137010667861
31
0
0
LINE
5
193
100
AcDbEntity
8
0
100
AcDbLine
10
66.34003517661354
20
151.50740149009815
30
0
11
66.21012328673784
21
151.05734431498712
31
0
0
LINE
5
194
100
AcDbEntity
8
0
100
AcDbLine
10
64.565191457942618
20
153.16316640828381
30
0
11
65.033810225978058
21
153.17989035055058
31
0
0
LWPOLYLINE
5
195
100
AcDbEntity
8
0
100
AcDbPolyline
90
20
70
1
43
0.0
10
218.91807943501959
20
101.12212205584672
10
219.25007943501956
20
101.45402205584672
10
219.66767943501964
20
101.66642205584672
10
220.13197943501964
20
101.73942205584673
10
220.59657943501952
20
101.66642205584672
10
221.01387943501959
20
101.45402205584672
10
221.34627943501957
20
101.12212205584672
10
221.55967943501963
20
100.70442205584671
10
221.63267943501961
20
100.24012205584671
10
221.55967943501963
20
99.777322055846724
10
221.34627943501957
20
99.359622055846728
10
221.01387943501959
20
99.02762205584672
10
220.59657943501952
20
98.813822055846714
10
220.13197943501964
20
98.739422055846717
10
219.66767943501964
20
98.813822055846714
10
219.25007943501956
20
99.02762205584672
10
218.91807943501959
20
99.359622055846728
10
218.70567943501956
20
99.777322055846724
10
218.63267943501961
20
100.24012205584671
10
218.70567943501956
20
100.70442205584671
0
LINE
5
196
100
AcDbEntity
8
0
100
AcDbLine
10
63.539943635829125
20
150.96311883078653
30
0
11
63.379460505868998
21
151.40562733352763
31
0
0
LINE
5
197
100
AcDbEntity
8
0
100
AcDbLine
10
65.48399291936893
20
153.05142906232982
30
0
11
65.873536218893619
21
152.78893466658874
31
0
0
LWPOLYLINE
5
198
100
AcDbEntity
8
0
100
AcDbPolyline
90
21
70
1
43
0.0
10
-24.579992049422774
20
143.29781118604959
10
-4.7223803209031781
20
143.29658892479381
42
0.04799192001998679
10
-4.3410854206268468
20
143.33324787558982
10
144.10699995413964
20
172.15362205584668
10
223.13287226093041
20
172.15362205584668
42
-0.41421356237309503
10
225.13287226093041
20
170.15362205584668
10
225.13287226093041
20
30.328621055846696
42
-0.4142135623730937
10
223.13287226093041
20
28.32862105584671
10
157.95577530676215
20
28.32862105584671
42
0.048033444485196711
10
157.57415731600906
20
28.291875422742038
10
54.878257281797971
20
8.3298146269158337
10
54.878257281797971
20
2.7789653185476153
42
-0.41421356237309254
10
52.878257281797971
20
0.7789653185476153
10
-82.184036118202059
20
0.77896531854761641
42
-0.41421356237309587
10
-84.184036118202044
20
2.7789653185476149
10
-84.184036118202044
20
8.3293245623567067
10
-189.27559547283181
20
28.757054357474551
42
-0.41421356237310708
10
-190.85723184897407
20
31.101926715122925
10
-164.17736387963973
20
168.35794862231967
42
-0.41421356237308998
10
-161.83249152199127
20
169.93958499846201
10
-24.961486937632586
20
143.33455681536574
42
0.048018021175693822
0
LINE
5
199
100
AcDbEntity
8
0
100
AcDbLine
10
64.668018048853369
20
150.20137010667861
30
0
11
64.217159249316651
21
150.3317374065677
31
0
0
LWPOLYLINE
5
200
100
AcDbEntity
8
0
100
AcDbPolyline
90
20
70
1
43
0.0
10
221.34627943501957
20
166.27162205584676
10
221.01387943501959
20
165.93962205584674
10
220.59657943501952
20
165.72562205584674
10
220.13197943501964
20
165.65262205584671
10
219.66767943501964
20
165.72562205584674
10
219.25007943501956
20
165.93962205584674
10
218.91807943501959
20
166.27162205584676
10
218.70567943501956
20
166.68862205584674
10
218.63267943501961
20
167.15362205584668
10
218.70567943501956
20
167.6166220558467
10
218.91807943501959
20
168.03562205584669
10
219.25007943501956
20
168.36762205584674
10
219.66767943501964
20
168.5796220558467
10
220.13197943501964
20
168.65262205584671
10
220.59657943501952
20
168.5796220558467
10
221.01387943501959
20
168.36762205584674
10
221.34627943501957
20
168.03562205584669
10
221.55967943501963
20
167.6166220558467
10
221.63267943501961
20
167.15362205584668
10
221.55967943501963
20
166.68862205584674
0
LINE
5
201
100
AcDbEntity
8
0
100
AcDbLine
10
63.379460505868998
20
151.40562733352763
30
0
11
63.362872888119654
21
151.87406885702597
31
0
0
LINE
5
202
100
AcDbEntity
8
0
100
AcDbLine
10
65.578379098782719
20
150.37832636899088
30
0
11
65.13761844407226
21
150.21828485794083
31
0
0
LINE
5
203
100
AcDbEntity
8
0
100
AcDbLine
10
63.362872888119654
20
151.87406885702597
30
0
11
63.491323370102826
21
152.32587939660897
31
0
0
LINE
5
204
100
AcDbEntity
8
0
100
AcDbLine
10
63.491323370102826
20
152.32587939660897
30
0
11
63.753875008542437
21
152.71512820797858
31
0
0
LINE
5
205
100
AcDbEntity
8
0
100
AcDbLine
10
65.947277160143202
20
150.66803826091882
30
0
11
65.578379098782719
21
150.37832636899088
31
0
0
LINE
5
206
100
AcDbEntity
8
0
100
AcDbLine
10
63.753875008542437
20
152.71512820797858
30
0
11
64.123449176048709
21
153.00293408823828
31
0
0
LWPOLYLINE
5
207
100
AcDbEntity
8
0
100
AcDbPolyline
90
20
70
1
43
0.0
10
144.42724590141532
20
168.5796220558467
10
144.84478590141532
20
168.36762205584674
10
145.17689590141538
20
168.03562205584669
10
145.39050590141534
20
167.6166220558467
10
145.46352590141532
20
167.15362205584668
10
145.39050590141534
20
166.68862205584674
10
145.17689590141538
20
166.27162205584676
10
144.84478590141532
20
165.93962205584674
10
144.42724590141532
20
165.72562205584674
10
143.96284590141531
20
165.65262205584671
10
143.49982590141531
20
165.72562205584674
10
143.08089590141537
20
165.93962205584674
10
142.74879590141532
20
166.27162205584676
10
142.53656590141534
20
166.68862205584674
10
142.4635359014153
20
167.15362205584668
10
142.53656590141534
20
167.6166220558467
10
142.74879590141532
20
168.03562205584669
10
143.08089590141532
20
168.36762205584674
10
143.49982590141531
20
168.5796220558467
10
143.96284590141531
20
168.65262205584671
0
LWPOLYLINE
5
208
100
AcDbEntity
8
0
100
AcDbPolyline
90
20
70
1
43
0.0
10
158.11878082920413
20
31.900492055846712
10
157.65438082920411
20
31.827462055846716
10
157.19136082920411
20
31.900492055846712
10
156.77243082920415
20
32.114102055846715
10
156.44033082920413
20
32.446202055846712
10
156.22810082920412
20
32.86375205584671
10
156.15507082920411
20
33.328152055846715
10
156.22810082920412
20
33.79254205584671
10
156.44033082920413
20
34.210092055846715
10
156.77243082920413
20
34.542202055846715
10
157.19136082920411
20
34.754432055846713
10
157.65438082920411
20
34.827452055846713
10
158.11878082920413
20
34.754432055846713
10
158.53632082920413
20
34.542202055846715
10
158.86843082920416
20
34.210092055846715
10
159.08204082920412
20
33.79254205584671
10
159.15506082920413
20
33.328152055846715
10
159.08204082920412
20
32.86375205584671
10
158.86843082920416
20
32.446202055846712
10
158.53632082920413
20
32.114102055846715
0
LWPOLYLINE
5
209
100
AcDbEntity
8
0
100
AcDbPolyline
90
20
70
1
43
0.0
10
220.13197943501964
20
31.827462055846716
10
219.66767943501964
20
31.900492055846712
10
219.25007943501956
20
32.114102055846715
10
218.91807943501959
20
32.446202055846712
10
218.70567943501956
20
32.86375205584671
10
218.63267943501961
20
33.328152055846715
10
218.70567943501956
20
33.79254205584671
10
218.91807943501959
20
34.210092055846715
10
219.25007943501956
20
34.542202055846715
10
219.66767943501964
20
34.754432055846713
10
220.13197943501964
20
34.827452055846713
10
220.59657943501952
20
34.754432055846713
10
221.01387943501959
20
34.542202055846715
10
221.34627943501957
20
34.210092055846715
10
221.55967943501963
20
33.79254205584671
10
221.63267943501961
20
33.328152055846715
10
221.55967943501963
20
32.86375205584671
10
221.34627943501957
20
32.446202055846712
10
221.01387943501959
20
32.114102055846715
10
220.59657943501952
20
31.900492055846712
0
LINE
5
210
100
AcDbEntity
8
0
100
AcDbLine
10
66.324342056211961
20
151.97805431965728
30
0
11
66.34003517661354
21
151.50740149009815
31
0
0
LINE
5
211
100
AcDbEntity
8
0
100
AcDbLine
10
63.827910437947068
20
150.59428904500732
30
0
11
63.539943635829125
21
150.96311883078653
31
0
0
LINE
5
212
100
AcDbEntity
8
0
100
AcDbLine
10
66.162964428904104
20
152.41835151633757
30
0
11
66.324342056211961
21
151.97805431965728
31
0
0
LINE
5
213
100
AcDbEntity
8
0
100
AcDbLine
10
65.873536218893619
20
152.78893466658874
30
0
11
66.162964428904104
21
152.41835151633757
31
0
0
LINE
5
214
100
AcDbEntity
8
0
100
AcDbLine
10
64.217159249316651
20
150.3317374065677
30
0
11
63.827910437947068
21
150.59428904500732
31
0
0
LINE
5
215
100
AcDbEntity
8
0
100
AcDbLine
10
220.13197943501964
20
165.65262205584671
30
0
11
219.66767943501964
21
165.72562205584674
31
0
0
LINE
5
216
100
AcDbEntity
8
0
100
AcDbLine
10
218.70567943501956
20
166.68862205584674
30
0
11
218.63267943501961
21
167.15362205584668
31
0
0
LINE
5
217
100
AcDbEntity
8
0
100
AcDbLine
10
218.91807943501959
20
166.27162205584676
30
0
11
218.70567943501956
21
166.68862205584674
31
0
0
LINE
5
218
100
AcDbEntity
8
0
100
AcDbLine
10
218.70567943501956
20
33.79254205584671
30
0
11
218.91807943501959
21
34.210092055846715
31
0
0
LINE
5
219
100
AcDbEntity
8
0
100
AcDbLine
10
219.66767943501964
20
165.72562205584674
30
0
11
219.25007943501956
21
165.93962205584674
31
0
0
LINE
5
220
100
AcDbEntity
8
0
100
AcDbLine
10
221.63267943501961
20
167.15362205584668
30
0
11
221.55967943501963
21
166.68862205584674
31
0
0
LINE
5
221
100
AcDbEntity
8
0
100
AcDbLine
10
221.34627943501957
20
166.27162205584676
30
0
11
221.01387943501959
21
165.93962205584674
31
0
0
LINE
5
222
100
AcDbEntity
8
0
100
AcDbLine
10
221.55967943501963
20
99.777322055846724
30
0
11
221.34627943501957
21
99.359622055846728
31
0
0
LINE
5
223
100
AcDbEntity
8
0
100
AcDbLine
10
220.59657943501952
20
101.66642205584672
30
0
11
221.01387943501959
21
101.45402205584672
31
0
0
LINE
5
224
100
AcDbEntity
8
0
100
AcDbLine
10
221.01387943501959
20
165.93962205584674
30
0
11
220.59657943501952
21
165.72562205584674
31
0
0
LINE
5
225
100
AcDbEntity
8
0
100
AcDbLine
10
220.59657943501952
20
165.72562205584674
30
0
11
220.13197943501964
21
165.65262205584671
31
0
0
LINE
5
226
100
AcDbEntity
8
0
100
AcDbLine
10
220.13197943501964
20
31.827462055846716
30
0
11
219.66767943501964
21
31.900492055846712
31
0
0
LINE
5
227
100
AcDbEntity
8
0
100
AcDbLine
10
159.08204082920412
20
33.79254205584671
30
0
11
159.15506082920413
21
33.328152055846715
31
0
0
LINE
5
228
100
AcDbEntity
8
0
100
AcDbLine
10
218.91807943501959
20
32.446202055846712
30
0
11
218.70567943501956
21
32.86375205584671
31
0
0
LINE
5
229
100
AcDbEntity
8
0
100
AcDbLine
10
219.66767943501964
20
98.813822055846714
30
0
11
219.25007943501956
21
99.02762205584672
31
0
0
LINE
5
230
100
AcDbEntity
8
0
100
AcDbLine
10
220.59657943501952
20
98.813822055846714
30
0
11
220.13197943501964
21
98.739422055846717
31
0
0
LINE
5
231
100
AcDbEntity
8
0
100
AcDbLine
10
221.01387943501959
20
32.114102055846715
30
0
11
220.59657943501952
21
31.900492055846712
31
0
0
LINE
5
232
100
AcDbEntity
8
0
100
AcDbLine
10
221.34627943501957
20
168.03562205584669
30
0
11
221.55967943501963
21
167.6166220558467
31
0
0
LINE
5
233
100
AcDbEntity
8
0
100
AcDbLine
10
221.01387943501959
20
99.02762205584672
30
0
11
220.59657943501952
21
98.813822055846714
31
0
0
LINE
5
234
100
AcDbEntity
8
0
100
AcDbLine
10
221.01387943501959
20
34.542202055846715
30
0
11
221.34627943501957
21
34.210092055846715
31
0
0
LINE
5
235
100
AcDbEntity
8
0
100
AcDbLine
10
219.25007943501956
20
34.542202055846715
30
0
11
219.66767943501964
21
34.754432055846713
31
0
0
LINE
5
236
100
AcDbEntity
8
0
100
AcDbLine
10
221.55967943501963
20
32.86375205584671
30
0
11
221.34627943501957
21
32.446202055846712
31
0
0
LINE
5
237
100
AcDbEntity
8
0
100
AcDbLine
10
220.13197943501964
20
168.65262205584671
30
0
11
220.59657943501952
21
168.5796220558467
31
0
0
LINE
5
238
100
AcDbEntity
8
0
100
AcDbLine
10
145.39050590141534
20
166.68862205584674
30
0
11
145.17689590141538
21
166.27162205584676
31
0
0
LINE
5
239
100
AcDbEntity
8
0
100
AcDbLine
10
157.19136082920411
20
31.900492055846712
30
0
11
156.77243082920415
21
32.114102055846715
31
0
0
LINE
5
240
100
AcDbEntity
8
0
100
AcDbLine
10
220.13197943501964
20
101.73942205584673
30
0
11
220.59657943501952
21
101.66642205584672
31
0
0
LINE
5
241
100
AcDbEntity
8
0
100
AcDbLine
10
219.25007943501956
20
32.114102055846715
30
0
11
218.91807943501959
21
32.446202055846712
31
0
0
LINE
5
242
100
AcDbEntity
8
0
100
AcDbLine
10
143.49982590141531
20
165.72562205584674
30
0
11
143.08089590141537
21
165.93962205584674
31
0
0
LINE
5
243
100
AcDbEntity
8
0
100
AcDbLine
10
156.44033082920413
20
32.446202055846712
30
0
11
156.22810082920412
21
32.86375205584671
31
0
0
LINE
5
244
100
AcDbEntity
8
0
100
AcDbLine
10
142.53656590141534
20
167.6166220558467
30
0
11
142.74879590141532
21
168.03562205584669
31
0
0
LINE
5
245
100
AcDbEntity
8
0
100
AcDbLine
10
218.63267943501961
20
167.15362205584668
30
0
11
218.70567943501956
21
167.6166220558467
31
0
0
LINE
5
246
100
AcDbEntity
8
0
100
AcDbLine
10
221.01387943501959
20
168.36762205584674
30
0
11
221.34627943501957
21
168.03562205584669
31
0
0
LINE
5
247
100
AcDbEntity
8
0
100
AcDbLine
10
158.86843082920416
20
32.446202055846712
30
0
11
158.53632082920413
21
32.114102055846715
31
0
0
LINE
5
248
100
AcDbEntity
8
0
100
AcDbLine
10
156.77243082920415
20
32.114102055846715
30
0
11
156.44033082920413
21
32.446202055846712
31
0
0
LINE
5
249
100
AcDbEntity
8
0
100
AcDbLine
10
144.42724590141532
20
168.5796220558467
30
0
11
144.84478590141532
21
168.36762205584674
31
0
0
LINE
5
250
100
AcDbEntity
8
0
100
AcDbLine
10
218.91807943501959
20
168.03562205584669
30
0
11
219.25007943501956
21
168.36762205584674
31
0
0
LINE
5
251
100
AcDbEntity
8
0
100
AcDbLine
10
221.34627943501957
20
32.446202055846712
30
0
11
221.01387943501959
21
32.114102055846715
31
0
0
LINE
5
252
100
AcDbEntity
8
0
100
AcDbLine
10
157.65438082920411
20
31.827462055846716
30
0
11
157.19136082920411
21
31.900492055846712
31
0
0
LINE
5
253
100
AcDbEntity
8
0
100
AcDbLine
10
157.19136082920411
20
34.754432055846713
30
0
11
157.65438082920411
21
34.827452055846713
31
0
0
LINE
5
254
100
AcDbEntity
8
0
100
AcDbLine
10
219.66767943501964
20
34.754432055846713
30
0
11
220.13197943501964
21
34.827452055846713
31
0
0
LINE
5
255
100
AcDbEntity
8
0
100
AcDbLine
10
221.34627943501957
20
101.12212205584672
30
0
11
221.55967943501963
21
100.70442205584671
31
0
0
LINE
5
256
100
AcDbEntity
8
0
100
AcDbLine
10
218.70567943501956
20
100.70442205584671
30
0
11
218.91807943501959
21
101.12212205584672
31
0
0
LINE
5
257
100
AcDbEntity
8
0
100
AcDbLine
10
221.55967943501963
20
167.6166220558467
30
0
11
221.63267943501961
21
167.15362205584668
31
0
0
LINE
5
258
100
AcDbEntity
8
0
100
AcDbLine
10
143.96284590141531
20
168.65262205584671
30
0
11
144.42724590141532
21
168.5796220558467
31
0
0
LINE
5
259
100
AcDbEntity
8
0
100
AcDbLine
10
145.17689590141538
20
168.03562205584669
30
0
11
145.39050590141534
21
167.6166220558467
31
0
0
LINE
5
260
100
AcDbEntity
8
0
100
AcDbLine
10
158.86843082920416
20
34.210092055846715
30
0
11
159.08204082920412
21
33.79254205584671
31
0
0
LINE
5
261
100
AcDbEntity
8
0
100
AcDbLine
10
219.66767943501964
20
101.66642205584672
30
0
11
220.13197943501964
21
101.73942205584673
31
0
0
LINE
5
262
100
AcDbEntity
8
0
100
AcDbLine
10
218.63267943501961
20
33.328152055846715
30
0
11
218.70567943501956
21
33.79254205584671
31
0
0
LINE
5
263
100
AcDbEntity
8
0
100
AcDbLine
10
220.13197943501964
20
34.827452055846713
30
0
11
220.59657943501952
21
34.754432055846713
31
0
0
LINE
5
264
100
AcDbEntity
8
0
100
AcDbLine
10
221.63267943501961
20
33.328152055846715
30
0
11
221.55967943501963
21
32.86375205584671
31
0
0
LINE
5
265
100
AcDbEntity
8
0
100
AcDbLine
10
142.53656590141534
20
166.68862205584674
30
0
11
142.4635359014153
21
167.15362205584668
31
0
0
LINE
5
266
100
AcDbEntity
8
0
100
AcDbLine
10
144.42724590141532
20
165.72562205584674
30
0
11
143.96284590141531
21
165.65262205584671
31
0
0
LINE
5
267
100
AcDbEntity
8
0
100
AcDbLine
10
145.39050590141534
20
167.6166220558467
30
0
11
145.46352590141532
21
167.15362205584668
31
0
0
LINE
5
268
100
AcDbEntity
8
0
100
AcDbLine
10
159.15506082920413
20
33.328152055846715
30
0
11
159.08204082920412
21
32.86375205584671
31
0
0
LINE
5
269
100
AcDbEntity
8
0
100
AcDbLine
10
221.63267943501961
20
100.24012205584671
30
0
11
221.55967943501963
21
99.777322055846724
31
0
0
LINE
5
270
100
AcDbEntity
8
0
100
AcDbLine
10
156.44033082920413
20
34.210092055846715
30
0
11
156.77243082920413
21
34.542202055846715
31
0
0
LINE
5
271
100
AcDbEntity
8
0
100
AcDbLine
10
218.91807943501959
20
34.210092055846715
30
0
11
219.25007943501956
21
34.542202055846715
31
0
0
LINE
5
272
100
AcDbEntity
8
0
100
AcDbLine
10
158.11878082920413
20
31.900492055846712
30
0
11
157.65438082920411
21
31.827462055846716
31
0
0
LINE
5
273
100
AcDbEntity
8
0
100
AcDbLine
10
157.65438082920411
20
34.827452055846713
30
0
11
158.11878082920413
21
34.754432055846713
31
0
0
LINE
5
274
100
AcDbEntity
8
0
100
AcDbLine
10
158.53632082920413
20
32.114102055846715
30
0
11
158.11878082920413
21
31.900492055846712
31
0
0
LINE
5
275
100
AcDbEntity
8
0
100
AcDbLine
10
219.66767943501964
20
168.5796220558467
30
0
11
220.13197943501964
21
168.65262205584671
31
0
0
LINE
5
276
100
AcDbEntity
8
0
100
AcDbLine
10
156.15507082920411
20
33.328152055846715
30
0
11
156.22810082920412
21
33.79254205584671
31
0
0
LINE
5
277
100
AcDbEntity
8
0
100
AcDbLine
10
221.55967943501963
20
33.79254205584671
30
0
11
221.63267943501961
21
33.328152055846715
31
0
0
LINE
5
278
100
AcDbEntity
8
0
100
AcDbLine
10
221.34627943501957
20
99.359622055846728
30
0
11
221.01387943501959
21
99.02762205584672
31
0
0
LINE
5
279
100
AcDbEntity
8
0
100
AcDbLine
10
218.70567943501956
20
99.777322055846724
30
0
11
218.63267943501961
21
100.24012205584671
31
0
0
LINE
5
280
100
AcDbEntity
8
0
100
AcDbLine
10
219.25007943501956
20
165.93962205584674
30
0
11
218.91807943501959
21
166.27162205584676
31
0
0
LINE
5
281
100
AcDbEntity
8
0
100
AcDbLine
10
219.25007943501956
20
101.45402205584672
30
0
11
219.66767943501964
21
101.66642205584672
31
0
0
LINE
5
282
100
AcDbEntity
8
0
100
AcDbLine
10
145.46352590141532
20
167.15362205584668
30
0
11
145.39050590141534
21
166.68862205584674
31
0
0
LINE
5
283
100
AcDbEntity
8
0
100
AcDbLine
10
218.70567943501956
20
32.86375205584671
30
0
11
218.63267943501961
21
33.328152055846715
31
0
0
LINE
5
284
100
AcDbEntity
8
0
100
AcDbLine
10
221.01387943501959
20
101.45402205584672
30
0
11
221.34627943501957
21
101.12212205584672
31
0
0
LINE
5
285
100
AcDbEntity
8
0
100
AcDbLine
10
218.91807943501959
20
99.359622055846728
30
0
11
218.70567943501956
21
99.777322055846724
31
0
0
LINE
5
286
100
AcDbEntity
8
0
100
AcDbLine
10
220.59657943501952
20
34.754432055846713
30
0
11
221.01387943501959
21
34.542202055846715
31
0
0
LINE
5
287
100
AcDbEntity
8
0
100
AcDbLine
10
219.25007943501956
20
99.02762205584672
30
0
11
218.91807943501959
21
99.359622055846728
31
0
0
LINE
5
288
100
AcDbEntity
8
0
100
AcDbLine
10
221.55967943501963
20
166.68862205584674
30
0
11
221.34627943501957
21
166.27162205584676
31
0
0
LINE
5
289
100
AcDbEntity
8
0
100
AcDbLine
10
220.13197943501964
20
98.739422055846717
30
0
11
219.66767943501964
21
98.813822055846714
31
0
0
LINE
5
290
100
AcDbEntity
8
0
100
AcDbLine
10
156.22810082920412
20
33.79254205584671
30
0
11
156.44033082920413
21
34.210092055846715
31
0
0
LINE
5
291
100
AcDbEntity
8
0
100
AcDbLine
10
219.66767943501964
20
31.900492055846712
30
0
11
219.25007943501956
21
32.114102055846715
31
0
0
LINE
5
292
100
AcDbEntity
8
0
100
AcDbLine
10
142.74879590141532
20
166.27162205584676
30
0
11
142.53656590141534
21
166.68862205584674
31
0
0
LINE
5
293
100
AcDbEntity
8
0
100
AcDbLine
10
142.4635359014153
20
167.15362205584668
30
0
11
142.53656590141534
21
167.6166220558467
31
0
0
LINE
5
294
100
AcDbEntity
8
0
100
AcDbLine
10
144.84478590141532
20
165.93962205584674
30
0
11
144.42724590141532
21
165.72562205584674
31
0
0
LINE
5
295
100
AcDbEntity
8
0
100
AcDbLine
10
221.55967943501963
20
100.70442205584671
30
0
11
221.63267943501961
21
100.24012205584671
31
0
0
LINE
5
296
100
AcDbEntity
8
0
100
AcDbLine
10
156.77243082920413
20
34.542202055846715
30
0
11
157.19136082920411
21
34.754432055846713
31
0
0
LINE
5
297
100
AcDbEntity
8
0
100
AcDbLine
10
220.59657943501952
20
31.900492055846712
30
0
11
220.13197943501964
21
31.827462055846716
31
0
0
LINE
5
298
100
AcDbEntity
8
0
100
AcDbLine
10
219.25007943501956
20
168.36762205584674
30
0
11
219.66767943501964
21
168.5796220558467
31
0
0
LINE
5
299
100
AcDbEntity
8
0
100
AcDbLine
10
218.70567943501956
20
167.6166220558467
30
0
11
218.91807943501959
21
168.03562205584669
31
0
0
LINE
5
300
100
AcDbEntity
8
0
100
AcDbLine
10
220.59657943501952
20
168.5796220558467
30
0
11
221.01387943501959
21
168.36762205584674
31
0
0
LINE
5
301
100
AcDbEntity
8
0
100
AcDbLine
10
218.63267943501961
20
100.24012205584671
30
0
11
218.70567943501956
21
100.70442205584671
31
0
0
LINE
5
302
100
AcDbEntity
8
0
100
AcDbLine
10
145.17689590141538
20
166.27162205584676
30
0
11
144.84478590141532
21
165.93962205584674
31
0
0
LINE
5
303
100
AcDbEntity
8
0
100
AcDbLine
10
218.91807943501959
20
101.12212205584672
30
0
11
219.25007943501956
21
101.45402205584672
31
0
0
LINE
5
304
100
AcDbEntity
8
0
100
AcDbLine
10
144.84478590141532
20
168.36762205584674
30
0
11
145.17689590141538
21
168.03562205584669
31
0
0
LINE
5
305
100
AcDbEntity
8
0
100
AcDbLine
10
143.49982590141531
20
168.5796220558467
30
0
11
143.96284590141531
21
168.65262205584671
31
0
0
LINE
5
306
100
AcDbEntity
8
0
100
AcDbLine
10
143.08089590141537
20
165.93962205584674
30
0
11
142.74879590141532
21
166.27162205584676
31
0
0
LINE
5
307
100
AcDbEntity
8
0
100
AcDbLine
10
156.22810082920412
20
32.86375205584671
30
0
11
156.15507082920411
21
33.328152055846715
31
0
0
LINE
5
308
100
AcDbEntity
8
0
100
AcDbLine
10
143.96284590141531
20
165.65262205584671
30
0
11
143.49982590141531
21
165.72562205584674
31
0
0
LINE
5
309
100
AcDbEntity
8
0
100
AcDbLine
10
143.08089590141532
20
168.36762205584674
30
0
11
143.49982590141531
21
168.5796220558467
31
0
0
LINE
5
310
100
AcDbEntity
8
0
100
AcDbLine
10
158.11878082920413
20
34.754432055846713
30
0
11
158.53632082920413
21
34.542202055846715
31
0
0
LINE
5
311
100
AcDbEntity
8
0
100
AcDbLine
10
221.34627943501957
20
34.210092055846715
30
0
11
221.55967943501963
21
33.79254205584671
31
0
0
LINE
5
312
100
AcDbEntity
8
0
100
AcDbLine
10
159.08204082920412
20
32.86375205584671
30
0
11
158.86843082920416
21
32.446202055846712
31
0
0
LINE
5
313
100
AcDbEntity
8
0
100
AcDbLine
10
158.53632082920413
20
34.542202055846715
30
0
11
158.86843082920416
21
34.210092055846715
31
0
0
LINE
5
314
100
AcDbEntity
8
0
100
AcDbLine
10
142.74879590141532
20
168.03562205584669
30
0
11
143.08089590141532
21
168.36762205584674
31
0
0
ARC
5
315
100
AcDbEntity
8
0
100
AcDbCircle
10
144.10699995413958
20
170.15362205584722
30
0
40
1.99999999999946
100
AcDbArc
50
89.99999999999838
51
100.99999671164905
0
LWPOLYLINE
5
316
100
AcDbEntity
8
0
100
AcDbPolyline
90
20
70
1
43
0.0
10
50.760257281797934
20
4.5630783185476131
10
50.341257281797951
20
4.3508483185476132
10
49.878257281797971
20
4.2778183185476149
10
49.415257281797942
20
4.3508483185476132
10
48.996257281797959
20
4.5630783185476131
10
48.66425728179798
20
4.8965583185476156
10
48.452257281797941
20
5.3127283185476148
10
48.377257281797981
20
5.7784983185476158
10
48.452257281797941
20
6.2415183185476142
10
48.66425728179798
20
6.6604483185476138
10
48.996257281797959
20
6.9911783185476128
10
49.415257281797942
20
7.2047483185476136
10
49.878257281797971
20
7.2778083185476161
10
50.341257281797951
20
7.2047483185476136
10
50.760257281797934
20
6.9911783185476128
10
51.09225728179797
20
6.6604483185476138
10
51.304257281797938
20
6.2415183185476142
10
51.379257281797962
20
5.7784983185476158
10
51.304257281797938
20
5.3127283185476148
10
51.09225728179797
20
4.8965583185476156
0
LWPOLYLINE
5
317
100
AcDbEntity
8
0
100
AcDbPolyline
90
20
70
1
43
0.0
10
-79.647532718202044
20
7.2047483185476136
10
-79.184512718202043
20
7.2778083185476161
10
-78.720112718202046
20
7.2047483185476136
10
-78.302572718202043
20
6.9911783185476128
10
-77.970462718202043
20
6.6604483185476138
10
-77.756852718202055
20
6.2415183185476142
10
-77.683832718202041
20
5.7784983185476158
10
-77.756852718202055
20
5.3127283185476148
10
-77.970462718202043
20
4.8965583185476156
10
-78.302572718202043
20
4.5630783185476131
10
-78.720112718202046
20
4.3508483185476132
10
-79.184512718202043
20
4.2778183185476149
10
-79.647532718202044
20
4.3508483185476132
10
-80.066462718202047
20
4.5630783185476131
10
-80.398562718202044
20
4.8965583185476156
10
-80.610792718202063
20
5.3127283185476148
10
-80.683822718202052
20
5.7784983185476158
10
-80.610792718202063
20
6.2415183185476142
10
-80.398562718202044
20
6.6604483185476138
10
-80.066462718202033
20
6.9911783185476128
0
LINE
5
318
100
AcDbEntity
8
0
100
AcDbLine
10
-185.66357142981221
20
31.61927574707331
30
0
11
-186.10414966735985
21
31.779312361319754
31
0
0
LINE
5
319
100
AcDbEntity
8
0
100
AcDbLine
10
-111.65718550738426
20
17.864212341143066
30
0
11
-112.04674788780849
21
17.601619782683716
31
0
0
LINE
5
320
100
AcDbEntity
8
0
100
AcDbLine
10
-186.4746240338192
20
32.06893335640909
30
0
11
-186.73725475407761
21
32.458299411396617
31
0
0
LINE
5
321
100
AcDbEntity
8
0
100
AcDbLine
10
-185.09114635177255
20
34.564147481144481
30
0
11
-184.64921156062186
21
34.403857366756284
31
0
0
LINE
5
322
100
AcDbEntity
8
0
100
AcDbLine
10
-112.86304140934635
20
20.450039420938467
30
0
11
-112.39471331328602
21
20.433392353914016
31
0
0
LINE
5
323
100
AcDbEntity
8
0
100
AcDbLine
10
-111.95395647475549
20
20.273331210320251
30
0
11
-111.5834445661347
21
19.985108746812998
31
0
0
LINE
5
324
100
AcDbEntity
8
0
100
AcDbLine
10
-185.55959224309487
20
34.580817445248371
30
0
11
-185.09114635177255
21
34.564147481144481
31
0
0
LINE
5
325
100
AcDbEntity
8
0
100
AcDbLine
10
-112.39471331328602
20
20.433392353914016
30
0
11
-111.95395647475549
21
20.273331210320251
31
0
0
LINE
5
326
100
AcDbEntity
8
0
100
AcDbLine
10
-158.36901451039043
20
164.17276979147957
30
0
11
-158.52941911017584
21
163.73024602401875
31
0
0
LINE
5
327
100
AcDbEntity
8
0
100
AcDbLine
10
-183.90411799688439
20
32.806050601819699
30
0
11
-184.06440811127254
21
32.36411581066902
31
0
0
LINE
5
328
100
AcDbEntity
8
0
100
AcDbLine
10
-114.16949978925837
20
18.777921923883408
30
0
11
-114.15392115425398
21
19.247985777132509
31
0
0
LINE
5
329
100
AcDbEntity
8
0
100
AcDbLine
10
-114.15392115425398
20
19.247985777132509
30
0
11
-113.99227830244257
21
19.689647435597763
31
0
0
LINE
5
330
100
AcDbEntity
8
0
100
AcDbLine
10
-112.04674788780849
20
17.601619782683716
30
0
11
-112.49851389902041
21
17.471826126391626
31
0
0
LINE
5
331
100
AcDbEntity
8
0
100
AcDbLine
10
-184.64921156062186
20
34.403857366756284
30
0
11
-184.27983833953388
21
34.11585624168363
31
0
0
LINE
5
332
100
AcDbEntity
8
0
100
AcDbLine
10
-183.88718662445683
20
33.275841322383371
30
0
11
-183.90411799688439
21
32.806050601819699
31
0
0
LINE
5
333
100
AcDbEntity
8
0
100
AcDbLine
10
-185.19376898488684
20
31.602352282827624
30
0
11
-185.66357142981221
21
31.61927574707331
31
0
0
LINE
5
334
100
AcDbEntity
8
0
100
AcDbLine
10
-86.511634860864774
20
148.96838805370277
30
0
11
-86.963475287584927
21
148.83821156280908
31
0
0
LINE
5
335
100
AcDbEntity
8
0
100
AcDbLine
10
-186.68869170838545
20
33.820398746648308
30
0
11
-186.40068867522285
21
34.189781784008119
31
0
0
LINE
5
336
100
AcDbEntity
8
0
100
AcDbLine
10
-88.634510788161677
20
150.14405213723319
30
0
11
-88.618817667760055
21
150.61470496679237
31
0
0
LINE
5
337
100
AcDbEntity
8
0
100
AcDbLine
10
-186.10414966735985
20
31.779312361319754
30
0
11
-186.4746240338192
21
32.06893335640909
31
0
0
LINE
5
338
100
AcDbEntity
8
0
100
AcDbLine
10
-111.20903960391101
20
18.675558791002874
30
0
11
-111.36931008575557
21
18.233620183672265
31
0
0
LINE
5
339
100
AcDbEntity
8
0
100
AcDbLine
10
-113.31493675501804
20
20.321676733757684
30
0
11
-112.86304140934635
21
20.450039420938467
31
0
0
LINE
5
340
100
AcDbEntity
8
0
100
AcDbLine
10
-184.74314166120769
20
31.732367277554321
30
0
11
-185.19376898488684
21
31.602352282827624
31
0
0
LINE
5
341
100
AcDbEntity
8
0
100
AcDbLine
10
-184.27983833953388
20
34.11585624168363
30
0
11
-184.01719971109355
21
33.726478462334327
31
0
0
LINE
5
342
100
AcDbEntity
8
0
100
AcDbLine
10
-112.96713839132572
20
17.488520619842856
30
0
11
-113.40759883361129
21
17.648534337009846
31
0
0
LINE
5
343
100
AcDbEntity
8
0
100
AcDbLine
10
-111.32061942852957
20
19.595694713754558
30
0
11
-111.19208859893976
21
19.145345695386631
31
0
0
LINE
5
344
100
AcDbEntity
8
0
100
AcDbLine
10
-88.618817667760055
20
150.61470496679237
30
0
11
-88.457440040452212
21
151.05500216347264
31
0
0
LINE
5
345
100
AcDbEntity
8
0
100
AcDbLine
10
-113.70410839265881
20
20.058998035428356
30
0
11
-113.31493675501804
21
20.321676733757684
31
0
0
LINE
5
346
100
AcDbEntity
8
0
100
AcDbLine
10
-186.84898973095554
20
33.378475679859399
30
0
11
-186.68869170838545
21
33.820398746648308
31
0
0
LINE
5
347
100
AcDbEntity
8
0
100
AcDbLine
10
-111.5834445661347
20
19.985108746812998
30
0
11
-111.32061942852957
21
19.595694713754558
31
0
0
LINE
5
348
100
AcDbEntity
8
0
100
AcDbLine
10
-186.40068867522285
20
34.189781784008119
30
0
11
-186.01132071214539
21
34.452422320538375
31
0
0
LINE
5
349
100
AcDbEntity
8
0
100
AcDbLine
10
-186.73725475407761
20
32.458299411396617
30
0
11
-186.86591319520119
21
32.90867323493395
31
0
0
LINE
5
350
100
AcDbEntity
8
0
100
AcDbLine
10
-85.657250336949389
20
150.51070042326154
30
0
11
-85.673936117417057
21
150.0422779806627
31
0
0
LINE
5
351
100
AcDbEntity
8
0
100
AcDbLine
10
-111.19208859893976
20
19.145345695386631
30
0
11
-111.20903960391101
21
18.675558791002874
31
0
0
LINE
5
352
100
AcDbEntity
8
0
100
AcDbLine
10
-184.3537657899484
20
31.9949960897228
30
0
11
-184.74314166120769
21
31.732367277554321
31
0
0
LINE
5
353
100
AcDbEntity
8
0
100
AcDbLine
10
-114.04067447151355
20
18.32751566281685
30
0
11
-114.16949978925837
21
18.777921923883408
31
0
0
LINE
5
354
100
AcDbEntity
8
0
100
AcDbLine
10
-88.168993457625163
20
151.42577612271918
30
0
11
-87.779842808973868
21
151.68834684205837
31
0
0
LINE
5
355
100
AcDbEntity
8
0
100
AcDbLine
10
-113.77824007669183
20
17.938187769628406
30
0
11
-114.04067447151355
21
18.32751566281685
31
0
0
ENDSEC
0
SECTION
2
OBJECTS
0
DICTIONARY
5
C
100
AcDbDictionary
3
ACAD_GROUP
350
D
3
ACAD_MLINESTYLE
350
17
0
DICTIONARY
5
D
100
AcDbDictionary
0
DICTIONARY
5
1A
330
C
100
AcDbDictionary
0
DICTIONARY
5
17
100
AcDbDictionary
0
ENDSEC
0
EOF
