0
SECTION
2
HEADER
9
$INSUNITS
70
4
9
$ACADVER
1
AC1014
9
$HANDSEED
5
FFFF
0
ENDSEC
0
SECTION
2
TABLES
0
TABLE
2
VPORT
5
8
100
AcDbSymbolTable
0
ENDTAB
0
TABLE
2
LTYPE
5
5
100
AcDbSymbolTable
0
LTYPE
5
14
100
AcDbSymbolTableRecord
100
AcDbLinetypeTableRecord
2
BYBLOCK
70
0
0
LTYPE
5
15
100
AcDbSymbolTableRecord
100
AcDbLinetypeTableRecord
2
BYLAYER
70
0
0
ENDTAB
0
TABLE
2
LAYER
5
2
100
AcDbSymbolTable
70
2
0
LAYER
5
50
100
AcDbSymbolTableRecord
100
AcDbLayerTableRecord
2
0
70
0
6
CONTINUOUS
0
ENDTAB
0
TABLE
2
STYLE
5
3
100
AcDbSymbolTable
70
1
0
STYLE
5
11
100
AcDbSymbolTableRecord
100
AcDbTextStyleTableRecord
2
STANDARD
70
0
0
ENDTAB
0
TABLE
2
VIEW
5
6
100
AcDbSymbolTable
70
0
0
ENDTAB
0
TABLE
2
UCS
5
7
100
AcDbSymbolTable
70
0
0
ENDTAB
0
TABLE
2
APPID
5
9
100
AcDbSymbolTable
70
2
0
APPID
5
12
100
AcDbSymbolTableRecord
100
AcDbRegAppTableRecord
2
ACAD
70
0
0
ENDTAB
0
TABLE
2
DIMSTYLE
5
A
100
AcDbSymbolTable
70
1
0
ENDTAB
0
TABLE
2
BLOCK_RECORD
5
1
100
AcDbSymbolTable
70
1
0
BLOCK_RECORD
5
1F
100
AcDbSymbolTableRecord
100
AcDbBlockTableRecord
2
*MODEL_SPACE
0
BLOCK_RECORD
5
1B
100
AcDbSymbolTableRecord
100
AcDbBlockTableRecord
2
*PAPER_SPACE
0
ENDTAB
0
ENDSEC
0
SECTION
2
BLOCKS
0
BLOCK
5
20
100
AcDbEntity
100
AcDbBlockBegin
2
*MODEL_SPACE
0
ENDBLK
5
21
100
AcDbEntity
100
AcDbBlockEnd
0
BLOCK
5
1C
100
AcDbEntity
100
AcDbBlockBegin
2
*PAPER_SPACE
0
ENDBLK
5
1D
100
AcDbEntity
100
AcDbBlockEnd
0
ENDSEC
0
SECTION
2
ENTITIES
0
LWPOLYLINE
5
100
100
AcDbEntity
8
0
100
AcDbPolyline
90
20
70
1
43
0.0
10
221.34627943501957
20
164.03562205584674
10
221.01387943501959
20
164.36762205584674
10
220.59657943501952
20
164.5796220558467
10
220.13197943501964
20
164.65262205584673
10
219.66767943501964
20
164.5796220558467
10
219.25007943501956
20
164.36762205584674
10
218.91807943501959
20
164.03562205584674
10
218.70567943501956
20
163.61662205584673
10
218.63267943501961
20
163.15362205584674
10
218.70567943501956
20
162.68862205584674
10
218.91807943501959
20
162.27162205584673
10
219.25007943501956
20
161.93962205584677
10
219.66767943501964
20
161.72562205584677
10
220.13197943501964
20
161.65262205584671
10
220.59657943501952
20
161.72562205584677
10
221.01387943501959
20
161.93962205584677
10
221.34627943501957
20
162.27162205584673
10
221.55967943501963
20
162.68862205584674
10
221.63267943501961
20
163.15362205584674
10
221.55967943501963
20
163.61662205584673
0
LWPOLYLINE
5
101
100
AcDbEntity
8
0
100
AcDbPolyline
90
20
70
1
43
0.0
10
221.34627943501957
20
95.359622055846728
10
221.55967943501963
20
95.777322055846696
10
221.63267943501961
20
96.240122055846712
10
221.55967943501963
20
96.704422055846706
10
221.34627943501957
20
97.122122055846717
10
221.01387943501959
20
97.454022055846707
10
220.59657943501952
20
97.666422055846724
10
220.13197943501964
20
97.739422055846731
10
219.66767943501964
20
97.666422055846724
10
219.25007943501956
20
97.454022055846707
10
218.91807943501959
20
97.122122055846717
10
218.70567943501956
20
96.704422055846706
10
218.63267943501961
20
96.240122055846712
10
218.70567943501956
20
95.777322055846696
10
218.91807943501959
20
95.359622055846728
10
219.25007943501956
20
95.02762205584672
10
219.66767943501964
20
94.813822055846714
10
220.13197943501964
20
94.739422055846717
10
220.59657943501952
20
94.813822055846714
10
221.01387943501959
20
95.02762205584672
0
LWPOLYLINE
5
102
100
AcDbEntity
8
0
100
AcDbPolyline
90
20
70
1
43
0.0
10
135.4706300216765
20
30.542202055846715
10
135.1385300216765
20
30.210092055846715
10
134.92630002167652
20
29.792542055846706
10
134.85327002167651
20
29.328152055846711
10
134.92630002167652
20
28.86375205584671
10
135.1385300216765
20
28.446202055846715
10
135.47063002167653
20
28.114102055846715
10
135.88956002167652
20
27.900492055846708
10
136.35258002167649
20
27.827462055846709
10
136.8169800216765
20
27.900492055846708
10
137.2345200216765
20
28.114102055846715
10
137.56663002167653
20
28.446202055846715
10
137.78024002167652
20
28.86375205584671
10
137.8532600216765
20
29.328152055846711
10
137.78024002167652
20
29.792542055846706
10
137.56663002167653
20
30.210092055846715
10
137.2345200216765
20
30.542202055846715
10
136.8169800216765
20
30.75443205584671
10
136.35258002167649
20
30.82745205584672
10
135.88956002167652
20
30.75443205584671
0
LWPOLYLINE
5
103
100
AcDbEntity
8
0
100
AcDbPolyline
90
20
70
1
43
0.0
10
221.01387943501959
20
30.542202055846715
10
220.59657943501952
20
30.75443205584671
10
220.13197943501964
20
30.82745205584672
10
219.66767943501964
20
30.75443205584671
10
219.25007943501956
20
30.542202055846715
10
218.91807943501959
20
30.210092055846715
10
218.70567943501956
20
29.792542055846706
10
218.63267943501961
20
29.328152055846711
10
218.70567943501956
20
28.86375205584671
10
218.91807943501959
20
28.446202055846715
10
219.25007943501956
20
28.114102055846715
10
219.66767943501964
20
27.900492055846708
10
220.13197943501964
20
27.827462055846709
10
220.59657943501952
20
27.900492055846708
10
221.01387943501959
20
28.114102055846715
10
221.34627943501957
20
28.446202055846715
10
221.55967943501963
20
28.86375205584671
10
221.63267943501961
20
29.328152055846711
10
221.55967943501963
20
29.792542055846706
10
221.34627943501957
20
30.210092055846715
0
LWPOLYLINE
5
104
100
AcDbEntity
8
0
100
AcDbPolyline
90
20
70
1
43
0.0
10
125.02619298744793
20
162.27162205584673
10
125.23980298744792
20
162.68862205584674
10
125.31282298744792
20
163.15362205584674
10
125.23980298744792
20
163.61662205584673
10
125.02619298744793
20
164.03562205584674
10
124.69408298744793
20
164.36762205584674
10
124.27654298744791
20
164.5796220558467
10
123.81214298744787
20
164.65262205584673
10
123.34912298744788
20
164.5796220558467
10
122.93019298744792
20
164.36762205584674
10
122.59809298744791
20
164.03562205584674
10
122.38586298744794
20
163.61662205584673
10
122.31283298744792
20
163.15362205584674
10
122.38586298744794
20
162.68862205584674
10
122.59809298744791
20
162.27162205584673
10
122.93019298744794
20
161.93962205584677
10
123.34912298744794
20
161.72562205584677
10
123.81214298744787
20
161.65262205584671
10
124.27654298744791
20
161.72562205584677
10
124.69408298744793
20
161.93962205584677
0
LINE
5
105
100
AcDbEntity
8
0
100
AcDbLine
10
220.13197943501964
20
97.739422055846731
30
0
11
220.59657943501952
21
97.666422055846724
31
0
0
LINE
5
106
100
AcDbEntity
8
0
100
AcDbLine
10
219.66767943501964
20
97.666422055846724
30
0
11
220.13197943501964
21
97.739422055846731
31
0
0
LINE
5
107
100
AcDbEntity
8
0
100
AcDbLine
10
219.25007943501956
20
97.454022055846707
30
0
11
219.66767943501964
21
97.666422055846724
31
0
0
LINE
5
108
100
AcDbEntity
8
0
100
AcDbLine
10
218.91807943501959
20
97.122122055846717
30
0
11
219.25007943501956
21
97.454022055846707
31
0
0
LINE
5
109
100
AcDbEntity
8
0
100
AcDbLine
10
218.63267943501961
20
96.240122055846712
30
0
11
218.70567943501956
21
96.704422055846706
31
0
0
LINE
5
110
100
AcDbEntity
8
0
100
AcDbLine
10
218.70567943501956
20
96.704422055846706
30
0
11
218.91807943501959
21
97.122122055846717
31
0
0
LWPOLYLINE
5
111
100
AcDbEntity
8
0
100
AcDbPolyline
90
20
70
1
43
0.0
10
48.452257281797941
20
5.3127283185476148
10
48.377257281797981
20
5.7784983185476158
10
48.452257281797941
20
6.2415183185476142
10
48.66425728179798
20
6.6604483185476138
10
48.996257281797959
20
6.9911783185476128
10
49.415257281797942
20
7.2047483185476136
10
49.878257281797971
20
7.2778083185476161
10
50.341257281797951
20
7.2047483185476136
10
50.760257281797934
20
6.9911783185476128
10
51.09225728179797
20
6.6604483185476138
10
51.304257281797938
20
6.2415183185476142
10
51.379257281797962
20
5.7784983185476158
10
51.304257281797938
20
5.3127283185476148
10
51.09225728179797
20
4.8965583185476156
10
50.760257281797934
20
4.5630783185476131
10
50.341257281797951
20
4.3508483185476132
10
49.878257281797971
20
4.2778183185476149
10
49.415257281797942
20
4.3508483185476132
10
48.996257281797959
20
4.5630783185476131
10
48.66425728179798
20
4.8965583185476156
0
LWPOLYLINE
5
112
100
AcDbEntity
8
0
100
AcDbPolyline
90
20
70
1
43
0.0
10
-42.161583386665242
20
141.362630052273
10
-42.375193386665245
20
140.94646005227301
10
-42.707303386665252
20
140.612980052273
10
-43.124843386665248
20
140.400750052273
10
-43.589243386665252
20
140.32772005227301
10
-44.052263386665238
20
140.400750052273
10
-44.471193386665249
20
140.612980052273
10
-44.803293386665246
20
140.94646005227301
10
-45.015523386665251
20
141.362630052273
10
-45.088553386665247
20
141.828400052273
10
-45.015523386665251
20
142.291420052273
10
-44.803293386665231
20
142.71035005227301
10
-44.471193386665234
20
143.041080052273
10
-44.052263386665238
20
143.25465005227301
10
-43.589243386665252
20
143.32771005227301
10
-43.124843386665226
20
143.25465005227301
10
-42.707303386665252
20
143.041080052273
10
-42.375193386665245
20
142.71035005227301
10
-42.161583386665242
20
142.291420052273
10
-42.088563386665243
20
141.828400052273
0
LWPOLYLINE
5
113
100
AcDbEntity
8
0
100
AcDbPolyline
90
20
70
1
43
0.0
10
-79.184512718202043
20
4.2778183185476149
10
-79.647532718202044
20
4.3508483185476132
10
-80.066462718202047
20
4.5630783185476131
10
-80.398562718202044
20
4.8965583185476156
10
-80.610792718202063
20
5.3127283185476148
10
-80.683822718202052
20
5.7784983185476158
10
-80.610792718202063
20
6.2415183185476142
10
-80.398562718202044
20
6.6604483185476138
10
-80.066462718202033
20
6.9911783185476128
10
-79.647532718202044
20
7.2047483185476136
10
-79.184512718202043
20
7.2778083185476161
10
-78.720112718202046
20
7.2047483185476136
10
-78.302572718202043
20
6.9911783185476128
10
-77.970462718202043
20
6.6604483185476138
10
-77.756852718202055
20
6.2415183185476142
10
-77.683832718202041
20
5.7784983185476158
10
-77.756852718202055
20
5.3127283185476148
10
-77.970462718202043
20
4.8965583185476156
10
-78.302572718202043
20
4.5630783185476131
10
-78.720112718202046
20
4.3508483185476132
0
LINE
5
114
100
AcDbEntity
8
0
100
AcDbLine
10
219.25007943501956
20
95.02762205584672
30
0
11
219.66767943501964
21
94.813822055846714
31
0
0
LWPOLYLINE
5
115
100
AcDbEntity
8
0
100
AcDbPolyline
90
20
70
1
43
0.0
10
13.947538063328606
20
140.612980052273
10
13.615438063328602
20
140.94646005227301
10
13.403208063328616
20
141.362630052273
10
13.330178063328608
20
141.828400052273
10
13.403208063328616
20
142.291420052273
10
13.61543806332862
20
142.71035005227301
10
13.947538063328626
20
143.041080052273
10
14.366468063328615
20
143.25465005227301
10
14.829488063328615
20
143.32771005227301
10
15.293888063328618
20
143.25465005227301
10
15.71142806332861
20
143.041080052273
10
16.043538063328615
20
142.71035005227301
10
16.257148063328614
20
142.291420052273
10
16.330168063328614
20
141.828400052273
10
16.257148063328614
20
141.362630052273
10
16.043538063328615
20
140.94646005227301
10
15.71142806332861
20
140.612980052273
10
15.293888063328609
20
140.400750052273
10
14.829488063328615
20
140.32772005227301
10
14.366468063328615
20
140.400750052273
0
LINE
5
116
100
AcDbEntity
8
0
100
AcDbLine
10
221.55967943501963
20
95.777322055846696
30
0
11
221.63267943501961
21
96.240122055846712
31
0
0
LINE
5
117
100
AcDbEntity
8
0
100
AcDbLine
10
220.13197943501964
20
161.65262205584671
30
0
11
220.59657943501952
21
161.72562205584677
31
0
0
LWPOLYLINE
5
118
100
AcDbEntity
8
0
100
AcDbPolyline
90
25
70
1
43
0.0
10
223.13287226093041
20
168.15362205584674
42
-0.414213562373069
10
225.13287226093041
20
166.15362205584663
10
225.13287226093041
20
26.32862105584671
42
-0.41421356237307422
10
223.13287226093041
20
24.328621055846714
10
137.37755924288078
20
24.328621055846682
42
0.048033444485176345
10
136.99594125212764
20
24.291875422742013
10
56.496639291044886
20
8.644396222176173
42
0.35903668657693599
10
54.878257281797971
20
6.6811418552808446
10
54.878257281797971
20
2.7789653185476153
42
-0.41421356237309254
10
52.878257281797971
20
0.7789653185476153
10
-82.184036118202059
20
0.77896531854761641
42
-0.41421356237309587
10
-84.184036118202044
20
2.7789653185476149
10
-84.184036118202044
20
8.3293245623567067
10
-189.27559547283181
20
28.757054357474551
42
-0.41421356237310708
10
-190.85723184897407
20
31.101926715122925
10
-164.53166253605613
20
166.53524004659974
42
-0.35903668657696136
10
-162.56840816916082
20
168.15362205584674
10
-152.8370867895801
20
168.15362205584674
42
-0.048033444485184464
10
-152.45546879882704
20
168.11687642274205
10
-24.961486937632586
20
143.33455681536574
42
0.048018021175693822
10
-24.579992049422774
20
143.29781118604959
10
-4.9145077228033882
20
143.29660075047971
42
0.047921546639634036
10
-4.5337642372008347
20
143.33315272751673
10
123.31523069105828
20
168.1170700750211
42
-0.047906123495444951
10
123.69585107411758
20
168.15362205584674
0
LINE
5
119
100
AcDbEntity
8
0
100
AcDbLine
10
137.78024002167652
20
28.86375205584671
30
0
11
137.8532600216765
21
29.328152055846711
31
0
0
LINE
5
120
100
AcDbEntity
8
0
100
AcDbLine
10
221.34627943501957
20
95.359622055846728
30
0
11
221.55967943501963
21
95.777322055846696
31
0
0
LINE
5
121
100
AcDbEntity
8
0
100
AcDbLine
10
221.63267943501961
20
163.15362205584674
30
0
11
221.55967943501963
21
163.61662205584673
31
0
0
LINE
5
122
100
AcDbEntity
8
0
100
AcDbLine
10
218.63267943501961
20
96.240122055846712
30
0
11
218.70567943501956
21
95.777322055846696
31
0
0
LINE
5
123
100
AcDbEntity
8
0
100
AcDbLine
10
221.34627943501957
20
164.03562205584674
30
0
11
221.01387943501959
21
164.36762205584674
31
0
0
LINE
5
124
100
AcDbEntity
8
0
100
AcDbLine
10
221.01387943501959
20
97.454022055846707
30
0
11
220.59657943501952
21
97.666422055846724
31
0
0
LINE
5
125
100
AcDbEntity
8
0
100
AcDbLine
10
137.8532600216765
20
29.328152055846711
30
0
11
137.78024002167652
21
29.792542055846706
31
0
0
LINE
5
126
100
AcDbEntity
8
0
100
AcDbLine
10
137.2345200216765
20
28.114102055846715
30
0
11
137.56663002167653
21
28.446202055846715
31
0
0
LINE
5
127
100
AcDbEntity
8
0
100
AcDbLine
10
218.70567943501956
20
95.777322055846696
30
0
11
218.91807943501959
21
95.359622055846728
31
0
0
LINE
5
128
100
AcDbEntity
8
0
100
AcDbLine
10
218.70567943501956
20
163.61662205584673
30
0
11
218.63267943501961
21
163.15362205584674
31
0
0
LINE
5
129
100
AcDbEntity
8
0
100
AcDbLine
10
221.01387943501959
20
161.93962205584677
30
0
11
221.34627943501957
21
162.27162205584673
31
0
0
LINE
5
130
100
AcDbEntity
8
0
100
AcDbLine
10
221.01387943501959
20
95.02762205584672
30
0
11
221.34627943501957
21
95.359622055846728
31
0
0
LINE
5
131
100
AcDbEntity
8
0
100
AcDbLine
10
220.13197943501964
20
164.65262205584673
30
0
11
219.66767943501964
21
164.5796220558467
31
0
0
LINE
5
132
100
AcDbEntity
8
0
100
AcDbLine
10
218.91807943501959
20
162.27162205584673
30
0
11
219.25007943501956
21
161.93962205584677
31
0
0
LINE
5
133
100
AcDbEntity
8
0
100
AcDbLine
10
221.55967943501963
20
96.704422055846706
30
0
11
221.34627943501957
21
97.122122055846717
31
0
0
LINE
5
134
100
AcDbEntity
8
0
100
AcDbLine
10
221.55967943501963
20
162.68862205584674
30
0
11
221.63267943501961
21
163.15362205584674
31
0
0
LINE
5
135
100
AcDbEntity
8
0
100
AcDbLine
10
219.66767943501964
20
164.5796220558467
30
0
11
219.25007943501956
21
164.36762205584674
31
0
0
LINE
5
136
100
AcDbEntity
8
0
100
AcDbLine
10
219.66767943501964
20
94.813822055846714
30
0
11
220.13197943501964
21
94.739422055846717
31
0
0
LINE
5
137
100
AcDbEntity
8
0
100
AcDbLine
10
218.63267943501961
20
163.15362205584674
30
0
11
218.70567943501956
21
162.68862205584674
31
0
0
LINE
5
138
100
AcDbEntity
8
0
100
AcDbLine
10
220.13197943501964
20
94.739422055846717
30
0
11
220.59657943501952
21
94.813822055846714
31
0
0
LINE
5
139
100
AcDbEntity
8
0
100
AcDbLine
10
218.91807943501959
20
164.03562205584674
30
0
11
218.70567943501956
21
163.61662205584673
31
0
0
LINE
5
140
100
AcDbEntity
8
0
100
AcDbLine
10
220.59657943501952
20
94.813822055846714
30
0
11
221.01387943501959
21
95.02762205584672
31
0
0
LINE
5
141
100
AcDbEntity
8
0
100
AcDbLine
10
221.01387943501959
20
164.36762205584674
30
0
11
220.59657943501952
21
164.5796220558467
31
0
0
LINE
5
142
100
AcDbEntity
8
0
100
AcDbLine
10
221.63267943501961
20
96.240122055846712
30
0
11
221.55967943501963
21
96.704422055846706
31
0
0
LINE
5
143
100
AcDbEntity
8
0
100
AcDbLine
10
136.8169800216765
20
27.900492055846708
30
0
11
137.2345200216765
21
28.114102055846715
31
0
0
LINE
5
144
100
AcDbEntity
8
0
100
AcDbLine
10
221.34627943501957
20
97.122122055846717
30
0
11
221.01387943501959
21
97.454022055846707
31
0
0
LINE
5
145
100
AcDbEntity
8
0
100
AcDbLine
10
221.34627943501957
20
162.27162205584673
30
0
11
221.55967943501963
21
162.68862205584674
31
0
0
LINE
5
146
100
AcDbEntity
8
0
100
AcDbLine
10
219.25007943501956
20
164.36762205584674
30
0
11
218.91807943501959
21
164.03562205584674
31
0
0
LINE
5
147
100
AcDbEntity
8
0
100
AcDbLine
10
218.91807943501959
20
95.359622055846728
30
0
11
219.25007943501956
21
95.02762205584672
31
0
0
LINE
5
148
100
AcDbEntity
8
0
100
AcDbLine
10
137.56663002167653
20
28.446202055846715
30
0
11
137.78024002167652
21
28.86375205584671
31
0
0
LINE
5
149
100
AcDbEntity
8
0
100
AcDbLine
10
135.47063002167653
20
28.114102055846715
30
0
11
135.88956002167652
21
27.900492055846708
31
0
0
LINE
5
150
100
AcDbEntity
8
0
100
AcDbLine
10
220.13197943501964
20
27.827462055846709
30
0
11
220.59657943501952
21
27.900492055846708
31
0
0
LINE
5
151
100
AcDbEntity
8
0
100
AcDbLine
10
219.25007943501956
20
28.114102055846715
30
0
11
219.66767943501964
21
27.900492055846708
31
0
0
LINE
5
152
100
AcDbEntity
8
0
100
AcDbLine
10
135.88956002167652
20
30.75443205584671
30
0
11
135.4706300216765
21
30.542202055846715
31
0
0
LINE
5
153
100
AcDbEntity
8
0
100
AcDbLine
10
221.01387943501959
20
30.542202055846715
30
0
11
220.59657943501952
21
30.75443205584671
31
0
0
LINE
5
154
100
AcDbEntity
8
0
100
AcDbLine
10
135.1385300216765
20
28.446202055846715
30
0
11
135.47063002167653
21
28.114102055846715
31
0
0
LINE
5
155
100
AcDbEntity
8
0
100
AcDbLine
10
220.59657943501952
20
161.72562205584677
30
0
11
221.01387943501959
21
161.93962205584677
31
0
0
LINE
5
156
100
AcDbEntity
8
0
100
AcDbLine
10
124.69408298744793
20
161.93962205584677
30
0
11
125.02619298744793
21
162.27162205584673
31
0
0
LINE
5
157
100
AcDbEntity
8
0
100
AcDbLine
10
221.01387943501959
20
28.114102055846715
30
0
11
221.34627943501957
21
28.446202055846715
31
0
0
LINE
5
158
100
AcDbEntity
8
0
100
AcDbLine
10
220.59657943501952
20
30.75443205584671
30
0
11
220.13197943501964
21
30.82745205584672
31
0
0
LINE
5
159
100
AcDbEntity
8
0
100
AcDbLine
10
122.93019298744794
20
161.93962205584677
30
0
11
123.34912298744794
21
161.72562205584677
31
0
0
LINE
5
160
100
AcDbEntity
8
0
100
AcDbLine
10
123.81214298744787
20
161.65262205584671
30
0
11
124.27654298744791
21
161.72562205584677
31
0
0
LINE
5
161
100
AcDbEntity
8
0
100
AcDbLine
10
221.34627943501957
20
30.210092055846715
30
0
11
221.01387943501959
21
30.542202055846715
31
0
0
LINE
5
162
100
AcDbEntity
8
0
100
AcDbLine
10
135.1385300216765
20
30.210092055846715
30
0
11
134.92630002167652
21
29.792542055846706
31
0
0
LINE
5
163
100
AcDbEntity
8
0
100
AcDbLine
10
122.38586298744794
20
163.61662205584673
30
0
11
122.31283298744792
21
163.15362205584674
31
0
0
LINE
5
164
100
AcDbEntity
8
0
100
AcDbLine
10
219.66767943501964
20
30.75443205584671
30
0
11
219.25007943501956
21
30.542202055846715
31
0
0
LINE
5
165
100
AcDbEntity
8
0
100
AcDbLine
10
221.55967943501963
20
28.86375205584671
30
0
11
221.63267943501961
21
29.328152055846711
31
0
0
LINE
5
166
100
AcDbEntity
8
0
100
AcDbLine
10
122.93019298744792
20
164.36762205584674
30
0
11
122.59809298744791
21
164.03562205584674
31
0
0
LINE
5
167
100
AcDbEntity
8
0
100
AcDbLine
10
124.69408298744793
20
164.36762205584674
30
0
11
124.27654298744791
21
164.5796220558467
31
0
0
LINE
5
168
100
AcDbEntity
8
0
100
AcDbLine
10
134.85327002167651
20
29.328152055846711
30
0
11
134.92630002167652
21
28.86375205584671
31
0
0
LINE
5
169
100
AcDbEntity
8
0
100
AcDbLine
10
123.81214298744787
20
164.65262205584673
30
0
11
123.34912298744788
21
164.5796220558467
31
0
0
LINE
5
170
100
AcDbEntity
8
0
100
AcDbLine
10
122.59809298744791
20
164.03562205584674
30
0
11
122.38586298744794
21
163.61662205584673
31
0
0
LINE
5
171
100
AcDbEntity
8
0
100
AcDbLine
10
136.35258002167649
20
27.827462055846709
30
0
11
136.8169800216765
21
27.900492055846708
31
0
0
LINE
5
172
100
AcDbEntity
8
0
100
AcDbLine
10
123.34912298744788
20
164.5796220558467
30
0
11
122.93019298744792
21
164.36762205584674
31
0
0
LINE
5
173
100
AcDbEntity
8
0
100
AcDbLine
10
123.34912298744794
20
161.72562205584677
30
0
11
123.81214298744787
21
161.65262205584671
31
0
0
LINE
5
174
100
AcDbEntity
8
0
100
AcDbLine
10
136.35258002167649
20
30.82745205584672
30
0
11
135.88956002167652
21
30.75443205584671
31
0
0
LINE
5
175
100
AcDbEntity
8
0
100
AcDbLine
10
218.91807943501959
20
28.446202055846715
30
0
11
219.25007943501956
21
28.114102055846715
31
0
0
LINE
5
176
100
AcDbEntity
8
0
100
AcDbLine
10
221.34627943501957
20
28.446202055846715
30
0
11
221.55967943501963
21
28.86375205584671
31
0
0
LINE
5
177
100
AcDbEntity
8
0
100
AcDbLine
10
137.78024002167652
20
29.792542055846706
30
0
11
137.56663002167653
21
30.210092055846715
31
0
0
LINE
5
178
100
AcDbEntity
8
0
100
AcDbLine
10
125.23980298744792
20
163.61662205584673
30
0
11
125.02619298744793
21
164.03562205584674
31
0
0
LINE
5
179
100
AcDbEntity
8
0
100
AcDbLine
10
218.70567943501956
20
29.792542055846706
30
0
11
218.63267943501961
21
29.328152055846711
31
0
0
LINE
5
180
100
AcDbEntity
8
0
100
AcDbLine
10
122.38586298744794
20
162.68862205584674
30
0
11
122.59809298744791
21
162.27162205584673
31
0
0
LINE
5
181
100
AcDbEntity
8
0
100
AcDbLine
10
219.25007943501956
20
30.542202055846715
30
0
11
218.91807943501959
21
30.210092055846715
31
0
0
LINE
5
182
100
AcDbEntity
8
0
100
AcDbLine
10
136.8169800216765
20
30.75443205584671
30
0
11
136.35258002167649
21
30.82745205584672
31
0
0
LINE
5
183
100
AcDbEntity
8
0
100
AcDbLine
10
220.13197943501964
20
30.82745205584672
30
0
11
219.66767943501964
21
30.75443205584671
31
0
0
LINE
5
184
100
AcDbEntity
8
0
100
AcDbLine
10
218.63267943501961
20
29.328152055846711
30
0
11
218.70567943501956
21
28.86375205584671
31
0
0
LINE
5
185
100
AcDbEntity
8
0
100
AcDbLine
10
125.23980298744792
20
162.68862205584674
30
0
11
125.31282298744792
21
163.15362205584674
31
0
0
LINE
5
186
100
AcDbEntity
8
0
100
AcDbLine
10
122.31283298744792
20
163.15362205584674
30
0
11
122.38586298744794
21
162.68862205584674
31
0
0
LINE
5
187
100
AcDbEntity
8
0
100
AcDbLine
10
134.92630002167652
20
28.86375205584671
30
0
11
135.1385300216765
21
28.446202055846715
31
0
0
LINE
5
188
100
AcDbEntity
8
0
100
AcDbLine
10
122.59809298744791
20
162.27162205584673
30
0
11
122.93019298744794
21
161.93962205584677
31
0
0
LINE
5
189
100
AcDbEntity
8
0
100
AcDbLine
10
125.02619298744793
20
164.03562205584674
30
0
11
124.69408298744793
21
164.36762205584674
31
0
0
LINE
5
190
100
AcDbEntity
8
0
100
AcDbLine
10
221.63267943501961
20
29.328152055846711
30
0
11
221.55967943501963
21
29.792542055846706
31
0
0
LINE
5
191
100
AcDbEntity
8
0
100
AcDbLine
10
124.27654298744791
20
161.72562205584677
30
0
11
124.69408298744793
21
161.93962205584677
31
0
0
LINE
5
192
100
AcDbEntity
8
0
100
AcDbLine
10
134.92630002167652
20
29.792542055846706
30
0
11
134.85327002167651
21
29.328152055846711
31
0
0
LINE
5
193
100
AcDbEntity
8
0
100
AcDbLine
10
125.02619298744793
20
162.27162205584673
30
0
11
125.23980298744792
21
162.68862205584674
31
0
0
LINE
5
194
100
AcDbEntity
8
0
100
AcDbLine
10
221.55967943501963
20
29.792542055846706
30
0
11
221.34627943501957
21
30.210092055846715
31
0
0
LINE
5
195
100
AcDbEntity
8
0
100
AcDbLine
10
135.88956002167652
20
27.900492055846708
30
0
11
136.35258002167649
21
27.827462055846709
31
0
0
LINE
5
196
100
AcDbEntity
8
0
100
AcDbLine
10
124.27654298744791
20
164.5796220558467
30
0
11
123.81214298744787
21
164.65262205584673
31
0
0
LINE
5
197
100
AcDbEntity
8
0
100
AcDbLine
10
137.56663002167653
20
30.210092055846715
30
0
11
137.2345200216765
21
30.542202055846715
31
0
0
LINE
5
198
100
AcDbEntity
8
0
100
AcDbLine
10
125.31282298744792
20
163.15362205584674
30
0
11
125.23980298744792
21
163.61662205584673
31
0
0
LINE
5
199
100
AcDbEntity
8
0
100
AcDbLine
10
137.2345200216765
20
30.542202055846715
30
0
11
136.8169800216765
21
30.75443205584671
31
0
0
LINE
5
200
100
AcDbEntity
8
0
100
AcDbLine
10
135.4706300216765
20
30.542202055846715
30
0
11
135.1385300216765
21
30.210092055846715
31
0
0
LWPOLYLINE
5
201
100
AcDbEntity
8
0
100
AcDbPolyline
90
20
70
1
43
0.0
10
-161.00479166311885
20
163.39701207520892
10
-160.71651195691294
20
163.7678184719847
10
-160.32716498282497
20
164.03035102952484
10
-159.87548039984344
20
164.1585203799826
10
-159.40703832470101
20
164.14183078333505
10
-158.96509971737041
20
163.9815603014905
10
-158.59568261021346
20
163.69378495067008
10
-158.33302299278367
20
163.30451515031089
10
-158.20328657919026
20
162.85245465094394
10
-158.21995272711422
20
162.38402839216531
10
-158.38035732689968
20
161.94150462470446
10
-158.66961006062789
20
161.57292479870929
10
-159.05896685098776
20
161.31039414925914
10
-159.5096685901751
20
161.17999631993084
10
-159.97946531083062
20
161.19694923299204
10
-160.42004927264813
20
161.35695639842294
10
-160.79044922359927
20
161.64696022811387
10
-161.05309902475716
20
162.0362281203831
10
-161.18186241082833
20
162.48606204896947
10
-161.16482446118539
20
162.95645347020499
0
LWPOLYLINE
5
202
100
AcDbEntity
8
0
100
AcDbPolyline
90
20
70
1
43
0.0
10
-185.55959224309487
20
34.580817445248371
10
-185.09114635177255
20
34.564147481144481
10
-184.64921156062186
20
34.403857366756284
10
-184.27983833953388
20
34.11585624168363
10
-184.01719971109355
20
33.726478462334327
10
-183.88718662445683
20
33.275841322383371
10
-183.90411799688439
20
32.806050601819699
10
-184.06440811127254
20
32.36411581066902
10
-184.3537657899484
20
31.9949960897228
10
-184.74314166120769
20
31.732367277554321
10
-185.19376898488684
20
31.602352282827624
10
-185.66357142981221
20
31.61927574707331
10
-186.10414966735985
20
31.779312361319754
10
-186.4746240338192
20
32.06893335640909
10
-186.73725475407761
20
32.458299411396617
10
-186.86591319520119
20
32.90867323493395
10
-186.84898973095554
20
33.378475679859399
10
-186.68869170838545
20
33.820398746648308
10
-186.40068867522285
20
34.189781784008119
10
-186.01132071214539
20
34.452422320538375
0
LWPOLYLINE
5
203
100
AcDbEntity
8
0
100
AcDbPolyline
90
20
70
1
43
0.0
10
-171.13671222251884
20
98.488659251854301
10
-171.29669704251444
20
98.048295064197134
10
-171.58608334253952
20
97.679028099173451
10
-171.97544013289928
20
97.416497449723281
10
-172.42610371028752
20
97.286295945831739
10
-172.89616756353664
20
97.301874580836056
10
-173.33648439276058
20
97.463256024323854
10
-173.70692250551085
20
97.753063528578025
10
-173.96957230666874
20
98.142331420847242
10
-174.09820212644314
20
98.592852488462057
10
-174.08158395659001
20
99.061084329893987
10
-173.92130310682944
20
99.502919050236386
10
-173.63327145231762
20
99.872449331673678
10
-173.24394355912915
20
100.13488372649545
10
-172.79218265254943
20
100.26344572782664
10
-172.32374057740702
20
100.24675613117905
10
-171.8818019700764
20
100.08648564933452
10
-171.5124611865177
20
99.798317647640715
10
-171.24978248818834
20
99.409146009999901
10
-171.11979802290085
20
98.958361625971435
0
LINE
5
204
100
AcDbEntity
8
0
100
AcDbLine
10
-171.13671222251884
20
98.488659251854301
30
0
11
-171.29669704251444
21
98.048295064197134
31
0
0
LINE
5
205
100
AcDbEntity
8
0
100
AcDbLine
10
-184.06440811127254
20
32.36411581066902
30
0
11
-184.3537657899484
21
31.9949960897228
31
0
0
LINE
5
206
100
AcDbEntity
8
0
100
AcDbLine
10
-185.09114635177255
20
34.564147481144481
30
0
11
-184.64921156062186
21
34.403857366756284
31
0
0
LINE
5
207
100
AcDbEntity
8
0
100
AcDbLine
10
-184.3537657899484
20
31.9949960897228
30
0
11
-184.74314166120769
21
31.732367277554321
31
0
0
LINE
5
208
100
AcDbEntity
8
0
100
AcDbLine
10
-183.90411799688439
20
32.806050601819699
30
0
11
-184.06440811127254
21
32.36411581066902
31
0
0
LINE
5
209
100
AcDbEntity
8
0
100
AcDbLine
10
-186.10414966735985
20
31.779312361319754
30
0
11
-186.4746240338192
21
32.06893335640909
31
0
0
LINE
5
210
100
AcDbEntity
8
0
100
AcDbLine
10
-184.74314166120769
20
31.732367277554321
30
0
11
-185.19376898488684
21
31.602352282827624
31
0
0
LINE
5
211
100
AcDbEntity
8
0
100
AcDbLine
10
-186.73725475407761
20
32.458299411396617
30
0
11
-186.86591319520119
21
32.90867323493395
31
0
0
LINE
5
212
100
AcDbEntity
8
0
100
AcDbLine
10
-171.8818019700764
20
100.08648564933452
30
0
11
-172.32374057740702
21
100.24675613117905
31
0
0
LINE
5
213
100
AcDbEntity
8
0
100
AcDbLine
10
-171.5124611865177
20
99.798317647640715
30
0
11
-171.8818019700764
21
100.08648564933452
31
0
0
LINE
5
214
100
AcDbEntity
8
0
100
AcDbLine
10
-184.27983833953388
20
34.11585624168363
30
0
11
-184.01719971109355
21
33.726478462334327
31
0
0
LINE
5
215
100
AcDbEntity
8
0
100
AcDbLine
10
-158.21995272711422
20
162.38402839216531
30
0
11
-158.38035732689968
21
161.94150462470446
31
0
0
LINE
5
216
100
AcDbEntity
8
0
100
AcDbLine
10
-186.01132071214539
20
34.452422320538375
30
0
11
-185.55959224309487
21
34.580817445248371
31
0
0
LINE
5
217
100
AcDbEntity
8
0
100
AcDbLine
10
-185.19376898488684
20
31.602352282827624
30
0
11
-185.66357142981221
21
31.61927574707331
31
0
0
LINE
5
218
100
AcDbEntity
8
0
100
AcDbLine
10
-184.01719971109355
20
33.726478462334327
30
0
11
-183.88718662445683
21
33.275841322383371
31
0
0
LINE
5
219
100
AcDbEntity
8
0
100
AcDbLine
10
-185.55959224309487
20
34.580817445248371
30
0
11
-185.09114635177255
21
34.564147481144481
31
0
0
LINE
5
220
100
AcDbEntity
8
0
100
AcDbLine
10
-186.84898973095554
20
33.378475679859399
30
0
11
-186.68869170838545
21
33.820398746648308
31
0
0
LINE
5
221
100
AcDbEntity
8
0
100
AcDbLine
10
-173.33648439276058
20
97.463256024323854
30
0
11
-173.70692250551085
21
97.753063528578025
31
0
0
LINE
5
222
100
AcDbEntity
8
0
100
AcDbLine
10
-172.89616756353664
20
97.301874580836056
30
0
11
-173.33648439276058
21
97.463256024323854
31
0
0
LINE
5
223
100
AcDbEntity
8
0
100
AcDbLine
10
-173.24394355912915
20
100.13488372649545
30
0
11
-172.79218265254943
21
100.26344572782664
31
0
0
LINE
5
224
100
AcDbEntity
8
0
100
AcDbLine
10
-158.96509971737041
20
163.9815603014905
30
0
11
-158.59568261021346
21
163.69378495067008
31
0
0
LINE
5
225
100
AcDbEntity
8
0
100
AcDbLine
10
-171.58608334253952
20
97.679028099173451
30
0
11
-171.97544013289928
21
97.416497449723281
31
0
0
LINE
5
226
100
AcDbEntity
8
0
100
AcDbLine
10
-172.89616756353664
20
97.301874580836056
30
0
11
-172.42610371028752
21
97.286295945831739
31
0
0
LINE
5
227
100
AcDbEntity
8
0
100
AcDbLine
10
-160.42004927264813
20
161.35695639842294
30
0
11
-160.79044922359927
21
161.64696022811387
31
0
0
LINE
5
228
100
AcDbEntity
8
0
100
AcDbLine
10
-171.11979802290085
20
98.958361625971435
30
0
11
-171.13671222251884
21
98.488659251854301
31
0
0
LINE
5
229
100
AcDbEntity
8
0
100
AcDbLine
10
-171.29669704251444
20
98.048295064197134
30
0
11
-171.58608334253952
21
97.679028099173451
31
0
0
LINE
5
230
100
AcDbEntity
8
0
100
AcDbLine
10
-171.97544013289928
20
97.416497449723281
30
0
11
-172.42610371028752
21
97.286295945831739
31
0
0
LINE
5
231
100
AcDbEntity
8
0
100
AcDbLine
10
-172.79218265254943
20
100.26344572782664
30
0
11
-172.32374057740702
21
100.24675613117905
31
0
0
LINE
5
232
100
AcDbEntity
8
0
100
AcDbLine
10
-186.86591319520119
20
32.90867323493395
30
0
11
-186.84898973095554
21
33.378475679859399
31
0
0
LINE
5
233
100
AcDbEntity
8
0
100
AcDbLine
10
-159.05896685098776
20
161.31039414925914
30
0
11
-159.5096685901751
21
161.17999631993084
31
0
0
LINE
5
234
100
AcDbEntity
8
0
100
AcDbLine
10
-159.97946531083062
20
161.19694923299204
30
0
11
-160.42004927264813
21
161.35695639842294
31
0
0
LINE
5
235
100
AcDbEntity
8
0
100
AcDbLine
10
-173.96957230666874
20
98.142331420847242
30
0
11
-173.70692250551085
21
97.753063528578025
31
0
0
LINE
5
236
100
AcDbEntity
8
0
100
AcDbLine
10
-159.40703832470101
20
164.14183078333505
30
0
11
-158.96509971737041
21
163.9815603014905
31
0
0
LINE
5
237
100
AcDbEntity
8
0
100
AcDbLine
10
-171.24978248818834
20
99.409146009999901
30
0
11
-171.11979802290085
21
98.958361625971435
31
0
0
LINE
5
238
100
AcDbEntity
8
0
100
AcDbLine
10
-173.96957230666874
20
98.142331420847242
30
0
11
-174.09820212644314
21
98.592852488462057
31
0
0
LINE
5
239
100
AcDbEntity
8
0
100
AcDbLine
10
-158.66961006062789
20
161.57292479870929
30
0
11
-159.05896685098776
21
161.31039414925914
31
0
0
LINE
5
240
100
AcDbEntity
8
0
100
AcDbLine
10
-161.00479166311885
20
163.39701207520892
30
0
11
-160.71651195691294
21
163.7678184719847
31
0
0
LINE
5
241
100
AcDbEntity
8
0
100
AcDbLine
10
-158.20328657919026
20
162.85245465094394
30
0
11
-158.21995272711422
21
162.38402839216531
31
0
0
LINE
5
242
100
AcDbEntity
8
0
100
AcDbLine
10
-174.09820212644314
20
98.592852488462057
30
0
11
-174.08158395659001
21
99.061084329893987
31
0
0
LINE
5
243
100
AcDbEntity
8
0
100
AcDbLine
10
-171.5124611865177
20
99.798317647640715
30
0
11
-171.24978248818834
21
99.409146009999901
31
0
0
LINE
5
244
100
AcDbEntity
8
0
100
AcDbLine
10
-159.5096685901751
20
161.17999631993084
30
0
11
-159.97946531083062
21
161.19694923299204
31
0
0
LINE
5
245
100
AcDbEntity
8
0
100
AcDbLine
10
219.66767943501964
20
161.72562205584677
30
0
11
219.25007943501956
21
161.93962205584677
31
0
0
LINE
5
246
100
AcDbEntity
8
0
100
AcDbLine
10
220.13197943501964
20
27.827462055846709
30
0
11
219.66767943501964
21
27.900492055846708
31
0
0
LINE
5
247
100
AcDbEntity
8
0
100
AcDbLine
10
221.01387943501959
20
28.114102055846715
30
0
11
220.59657943501952
21
27.900492055846708
31
0
0
LINE
5
248
100
AcDbEntity
8
0
100
AcDbLine
10
220.13197943501964
20
164.65262205584673
30
0
11
220.59657943501952
21
164.5796220558467
31
0
0
LINE
5
249
100
AcDbEntity
8
0
100
AcDbLine
10
218.91807943501959
20
28.446202055846715
30
0
11
218.70567943501956
21
28.86375205584671
31
0
0
LINE
5
250
100
AcDbEntity
8
0
100
AcDbLine
10
221.34627943501957
20
164.03562205584674
30
0
11
221.55967943501963
21
163.61662205584673
31
0
0
LINE
5
251
100
AcDbEntity
8
0
100
AcDbLine
10
220.13197943501964
20
161.65262205584671
30
0
11
219.66767943501964
21
161.72562205584677
31
0
0
LINE
5
252
100
AcDbEntity
8
0
100
AcDbLine
10
218.70567943501956
20
29.792542055846706
30
0
11
218.91807943501959
21
30.210092055846715
31
0
0
LINE
5
253
100
AcDbEntity
8
0
100
AcDbLine
10
218.91807943501959
20
162.27162205584673
30
0
11
218.70567943501956
21
162.68862205584674
31
0
0
LINE
5
254
100
AcDbEntity
8
0
100
AcDbLine
10
-184.27983833953388
20
34.11585624168363
30
0
11
-184.64921156062186
21
34.403857366756284
31
0
0
LINE
5
255
100
AcDbEntity
8
0
100
AcDbLine
10
-186.10414966735985
20
31.779312361319754
30
0
11
-185.66357142981221
21
31.61927574707331
31
0
0
LINE
5
256
100
AcDbEntity
8
0
100
AcDbLine
10
-160.32716498282497
20
164.03035102952484
30
0
11
-160.71651195691294
21
163.7678184719847
31
0
0
LINE
5
257
100
AcDbEntity
8
0
100
AcDbLine
10
-186.73725475407761
20
32.458299411396617
30
0
11
-186.4746240338192
21
32.06893335640909
31
0
0
LINE
5
258
100
AcDbEntity
8
0
100
AcDbLine
10
-186.40068867522285
20
34.189781784008119
30
0
11
-186.68869170838545
21
33.820398746648308
31
0
0
LINE
5
259
100
AcDbEntity
8
0
100
AcDbLine
10
-161.16482446118539
20
162.95645347020499
30
0
11
-161.18186241082833
21
162.48606204896947
31
0
0
LINE
5
260
100
AcDbEntity
8
0
100
AcDbLine
10
-158.20328657919026
20
162.85245465094394
30
0
11
-158.33302299278367
21
163.30451515031089
31
0
0
LINE
5
261
100
AcDbEntity
8
0
100
AcDbLine
10
-161.05309902475716
20
162.0362281203831
30
0
11
-160.79044922359927
21
161.64696022811387
31
0
0
LINE
5
262
100
AcDbEntity
8
0
100
AcDbLine
10
-173.92130310682944
20
99.502919050236386
30
0
11
-174.08158395659001
21
99.061084329893987
31
0
0
LINE
5
263
100
AcDbEntity
8
0
100
AcDbLine
10
-158.33302299278367
20
163.30451515031089
30
0
11
-158.59568261021346
21
163.69378495067008
31
0
0
LINE
5
264
100
AcDbEntity
8
0
100
AcDbLine
10
-158.66961006062789
20
161.57292479870929
30
0
11
-158.38035732689968
21
161.94150462470446
31
0
0
LINE
5
265
100
AcDbEntity
8
0
100
AcDbLine
10
-186.01132071214539
20
34.452422320538375
30
0
11
-186.40068867522285
21
34.189781784008119
31
0
0
LINE
5
266
100
AcDbEntity
8
0
100
AcDbLine
10
-183.90411799688439
20
32.806050601819699
30
0
11
-183.88718662445683
21
33.275841322383371
31
0
0
LINE
5
267
100
AcDbEntity
8
0
100
AcDbLine
10
-161.00479166311885
20
163.39701207520892
30
0
11
-161.16482446118539
21
162.95645347020499
31
0
0
LINE
5
268
100
AcDbEntity
8
0
100
AcDbLine
10
-159.40703832470101
20
164.14183078333505
30
0
11
-159.87548039984344
21
164.1585203799826
31
0
0
LINE
5
269
100
AcDbEntity
8
0
100
AcDbLine
10
-161.18186241082833
20
162.48606204896947
30
0
11
-161.05309902475716
21
162.0362281203831
31
0
0
LINE
5
270
100
AcDbEntity
8
0
100
AcDbLine
10
-173.24394355912915
20
100.13488372649545
30
0
11
-173.63327145231762
21
99.872449331673678
31
0
0
LINE
5
271
100
AcDbEntity
8
0
100
AcDbLine
10
-173.63327145231762
20
99.872449331673678
30
0
11
-173.92130310682944
21
99.502919050236386
31
0
0
LINE
5
272
100
AcDbEntity
8
0
100
AcDbLine
10
-159.87548039984344
20
164.1585203799826
30
0
11
-160.32716498282497
21
164.03035102952484
31
0
0
ENDSEC
0
SECTION
2
OBJECTS
0
DICTIONARY
5
C
100
AcDbDictionary
3
ACAD_GROUP
350
D
3
ACAD_MLINESTYLE
350
17
0
DICTIONARY
5
D
100
AcDbDictionary
0
DICTIONARY
5
1A
330
C
100
AcDbDictionary
0
DICTIONARY
5
17
100
AcDbDictionary
0
ENDSEC
0
EOF
