0
SECTION
2
HEADER
9
$INSUNITS
70
4
9
$ACADVER
1
AC1014
9
$HANDSEED
5
FFFF
0
ENDSEC
0
SECTION
2
TABLES
0
TABLE
2
VPORT
5
8
100
AcDbSymbolTable
0
ENDTAB
0
TABLE
2
LTYPE
5
5
100
AcDbSymbolTable
0
LTYPE
5
14
100
AcDbSymbolTableRecord
100
AcDbLinetypeTableRecord
2
BYBLOCK
70
0
0
LTYPE
5
15
100
AcDbSymbolTableRecord
100
AcDbLinetypeTableRecord
2
BYLAYER
70
0
0
ENDTAB
0
TABLE
2
LAYER
5
2
100
AcDbSymbolTable
70
2
0
LAYER
5
50
100
AcDbSymbolTableRecord
100
AcDbLayerTableRecord
2
0
70
0
6
CONTINUOUS
0
ENDTAB
0
TABLE
2
STYLE
5
3
100
AcDbSymbolTable
70
1
0
STYLE
5
11
100
AcDbSymbolTableRecord
100
AcDbTextStyleTableRecord
2
STANDARD
70
0
0
ENDTAB
0
TABLE
2
VIEW
5
6
100
AcDbSymbolTable
70
0
0
ENDTAB
0
TABLE
2
UCS
5
7
100
AcDbSymbolTable
70
0
0
ENDTAB
0
TABLE
2
APPID
5
9
100
AcDbSymbolTable
70
2
0
APPID
5
12
100
AcDbSymbolTableRecord
100
AcDbRegAppTableRecord
2
ACAD
70
0
0
ENDTAB
0
TABLE
2
DIMSTYLE
5
A
100
AcDbSymbolTable
70
1
0
ENDTAB
0
TABLE
2
BLOCK_RECORD
5
1
100
AcDbSymbolTable
70
1
0
BLOCK_RECORD
5
1F
100
AcDbSymbolTableRecord
100
AcDbBlockTableRecord
2
*MODEL_SPACE
0
BLOCK_RECORD
5
1B
100
AcDbSymbolTableRecord
100
AcDbBlockTableRecord
2
*PAPER_SPACE
0
ENDTAB
0
ENDSEC
0
SECTION
2
BLOCKS
0
BLOCK
5
20
100
AcDbEntity
100
AcDbBlockBegin
2
*MODEL_SPACE
0
ENDBLK
5
21
100
AcDbEntity
100
AcDbBlockEnd
0
BLOCK
5
1C
100
AcDbEntity
100
AcDbBlockBegin
2
*PAPER_SPACE
0
ENDBLK
5
1D
100
AcDbEntity
100
AcDbBlockEnd
0
ENDSEC
0
SECTION
2
ENTITIES
0
LWPOLYLINE
5
100
100
AcDbEntity
8
0
100
AcDbPolyline
90
20
70
1
43
0.0
10
159.08204082920412
20
33.79254205584671
10
159.15506082920413
20
33.328152055846715
10
159.08204082920412
20
32.86375205584671
10
158.86843082920416
20
32.446202055846712
10
158.53632082920413
20
32.114102055846715
10
158.11878082920413
20
31.900492055846712
10
157.65438082920411
20
31.827462055846716
10
157.19136082920411
20
31.900492055846712
10
156.77243082920415
20
32.114102055846715
10
156.44033082920413
20
32.446202055846712
10
156.22810082920412
20
32.86375205584671
10
156.15507082920411
20
33.328152055846715
10
156.22810082920412
20
33.79254205584671
10
156.44033082920413
20
34.210092055846715
10
156.77243082920413
20
34.542202055846715
10
157.19136082920411
20
34.754432055846713
10
157.65438082920411
20
34.827452055846713
10
158.11878082920413
20
34.754432055846713
10
158.53632082920413
20
34.542202055846715
10
158.86843082920416
20
34.210092055846715
0
LWPOLYLINE
5
101
100
AcDbEntity
8
0
100
AcDbPolyline
90
20
70
1
43
0.0
10
63.539943635829125
20
150.96311883078653
10
63.827910437947068
20
150.59428904500732
10
64.217159249316651
20
150.3317374065677
10
64.668018048853369
20
150.20137010667861
10
65.13761844407226
20
150.21828485794083
10
65.578379098782719
20
150.37832636899088
10
65.947277160143202
20
150.66803826091882
10
66.21012328673784
20
151.05734431498712
10
66.34003517661354
20
151.50740149009815
10
66.324342056211961
20
151.97805431965728
10
66.162964428904104
20
152.41835151633757
10
65.873536218893619
20
152.78893466658874
10
65.48399291936893
20
153.05142906232982
10
65.033810225978058
20
153.17989035055058
10
64.565191457942618
20
153.16316640828381
10
64.123449176048709
20
153.00293408823828
10
63.753875008542437
20
152.71512820797858
10
63.491323370102826
20
152.32587939660897
10
63.362872888119654
20
151.87406885702597
10
63.379460505868998
20
151.40562733352763
0
LWPOLYLINE
5
102
100
AcDbEntity
8
0
100
AcDbPolyline
90
20
70
1
43
0.0
10
220.13197943501964
20
101.73942205584673
10
220.59657943501952
20
101.66642205584672
10
221.01387943501959
20
101.45402205584672
10
221.34627943501957
20
101.12212205584672
10
221.55967943501963
20
100.70442205584671
10
221.63267943501961
20
100.24012205584671
10
221.55967943501963
20
99.777322055846724
10
221.34627943501957
20
99.359622055846728
10
221.01387943501959
20
99.02762205584672
10
220.59657943501952
20
98.813822055846714
10
220.13197943501964
20
98.739422055846717
10
219.66767943501964
20
98.813822055846714
10
219.25007943501956
20
99.02762205584672
10
218.91807943501959
20
99.359622055846728
10
218.70567943501956
20
99.777322055846724
10
218.63267943501961
20
100.24012205584671
10
218.70567943501956
20
100.70442205584671
10
218.91807943501959
20
101.12212205584672
10
219.25007943501956
20
101.45402205584672
10
219.66767943501964
20
101.66642205584672
0
LWPOLYLINE
5
103
100
AcDbEntity
8
0
100
AcDbPolyline
90
20
70
1
43
0.0
10
221.01387943501959
20
165.93962205584674
10
220.59657943501952
20
165.72562205584674
10
220.13197943501964
20
165.65262205584671
10
219.66767943501964
20
165.72562205584674
10
219.25007943501956
20
165.93962205584674
10
218.91807943501959
20
166.27162205584676
10
218.70567943501956
20
166.68862205584674
10
218.63267943501961
20
167.15362205584668
10
218.70567943501956
20
167.6166220558467
10
218.91807943501959
20
168.03562205584669
10
219.25007943501956
20
168.36762205584674
10
219.66767943501964
20
168.5796220558467
10
220.13197943501964
20
168.65262205584671
10
220.59657943501952
20
168.5796220558467
10
221.01387943501959
20
168.36762205584674
10
221.34627943501957
20
168.03562205584669
10
221.55967943501963
20
167.6166220558467
10
221.63267943501961
20
167.15362205584668
10
221.55967943501963
20
166.68862205584674
10
221.34627943501957
20
166.27162205584676
0
LWPOLYLINE
5
104
100
AcDbEntity
8
0
100
AcDbPolyline
90
20
70
1
43
0.0
10
56.629572978426864
20
132.34244369970401
10
55.522880805242906
20
138.0358813637005
10
54.73816803479486
20
137.88334865279646
10
54.146850958122947
20
140.92541129430083
10
54.931563728571
20
141.07794400520481
10
54.740563924199044
20
142.0605528158359
10
68.482559190719613
20
144.73172610391126
10
68.673558995091511
20
143.74911729328014
10
69.459646043596393
20
143.90191713677768
10
70.050963120268335
20
140.85985449527334
10
69.264876071763425
20
140.70705465177579
10
70.371568244947383
20
135.01361698777936
10
71.157655293452265
20
135.16641683127688
10
71.749353988114933
20
132.12239093540569
10
70.963266939610037
20
131.96959109190814
10
71.153885125991224
20
130.98894553564395
10
57.411889859470691
20
128.3177722475686
10
57.221271673089539
20
129.29841780383282
10
56.436558902641487
20
129.14588509292878
10
55.844860207978819
20
132.18991098880002
0
LWPOLYLINE
5
105
100
AcDbEntity
8
0
100
AcDbPolyline
90
20
70
1
43
0.0
10
57.263647392817269
20
54.201868345429752
10
57.072762073842568
20
55.183888179750795
10
70.814757340363087
20
57.855061467826147
10
71.005642659337781
20
56.87304163350511
10
71.791827870561036
20
57.025860557902163
10
72.383183109032032
20
53.98360159096115
10
71.596997897808805
20
53.830782666564083
10
72.703766394590872
20
48.136952351694262
10
73.489951605814113
20
48.289771276091329
10
74.081535815079548
20
45.246334356530191
10
73.295350603856321
20
45.093515432133124
10
73.485987871137013
20
44.112771713150565
10
59.743992604616508
20
41.441598425075242
10
59.553355337335802
20
42.422342144057794
10
58.767268288830927
20
42.269542300560261
10
58.175684079565499
20
45.312979220121406
10
58.961771128070374
20
45.465779063618925
10
57.85500263128823
20
51.159609378488753
10
57.068915582783362
20
51.00680953499122
10
56.477560344312387
20
54.04906850193224
0
LWPOLYLINE
5
106
100
AcDbEntity
8
0
100
AcDbPolyline
90
20
70
1
43
0.0
10
77.506915430976861
20
77.54331408354173
10
78.098270669447842
20
74.501055116600753
10
77.313557898999775
20
74.348522405696741
10
78.420326395781899
20
68.654692090826899
10
79.205039166229952
20
68.807224801730925
10
79.79664245639492
20
65.763689719451435
10
79.011929685946839
20
65.611157008547423
10
79.202566953227546
20
64.630413289564871
10
65.459099245931839
20
61.958953787996478
10
65.268461978651132
20
62.939697506979044
10
64.483749208203079
20
62.787164796075032
10
63.892145918038139
20
65.830699878354508
10
64.676858688486178
20
65.983232589258535
10
63.570090191704082
20
71.677062904128363
10
62.785377421255994
20
71.524530193224351
10
62.194022182785034
20
74.566789160165342
10
62.978734953233079
20
74.71932187106934
10
62.787849634258365
20
75.701341705390377
10
76.531317341554058
20
78.372801206958783
10
76.722202660528765
20
77.390781372637733
0
LWPOLYLINE
5
107
100
AcDbEntity
8
0
100
AcDbPolyline
90
20
70
1
43
0.0
10
70.891183689359721
20
82.421397080268989
10
57.149188422839153
20
79.750223792193694
10
56.958551155558453
20
80.730967511176232
10
56.1738383851104
20
80.57843480027222
10
55.582235094945403
20
83.621969882551696
10
56.366947865393506
20
83.774502593455708
10
55.260179368611382
20
89.46833290832555
10
54.475466598163308
20
89.315800197421552
10
53.884111359692355
20
92.358059164362544
10
54.668824130140401
20
92.51059187526657
10
54.477938811165686
20
93.492611709587607
10
68.219934077686247
20
96.16378499766293
10
68.410819396660955
20
95.181765163341922
10
69.197004607884182
20
95.334584087738946
10
69.788359846355149
20
92.292325120797955
10
69.002174635131922
20
92.139506196400873
10
70.108943131914017
20
86.445675881531074
10
70.895128343137259
20
86.598494805928112
10
71.486731633302227
20
83.554959723648622
10
70.700546422079015
20
83.402140799251541
0
LWPOLYLINE
5
108
100
AcDbEntity
8
0
100
AcDbPolyline
90
20
70
1
43
0.0
10
178.75777943501956
20
72.902722055846723
10
179.55707943501946
20
72.902722055846723
10
179.55707943501946
20
73.903122055846723
10
193.5564794350195
20
73.903122055846723
10
193.5564794350195
20
72.902722055846723
10
194.35727943501956
20
72.902722055846723
10
194.35727943501956
20
69.803522055846713
10
193.5564794350195
20
69.803522055846713
10
193.5564794350195
20
64.003122055846717
10
194.35727943501956
20
64.003122055846717
10
194.35727943501956
20
60.902722055846716
10
193.5564794350195
20
60.902722055846716
10
193.5564794350195
20
59.903622055846739
10
179.55707943501946
20
59.903622055846739
10
179.55707943501946
20
60.902722055846716
10
178.75777943501956
20
60.902722055846716
10
178.75777943501956
20
64.003122055846717
10
179.55707943501946
20
64.003122055846717
10
179.55707943501946
20
69.803522055846713
10
178.75777943501956
20
69.803522055846713
0
LWPOLYLINE
5
109
100
AcDbEntity
8
0
100
AcDbPolyline
90
20
70
1
43
0.0
10
160.50707943501953
20
121.15312205584672
10
160.50707943501953
20
126.9535220558467
10
159.70777943501952
20
126.9535220558467
10
159.70777943501952
20
130.05262205584674
10
160.50707943501953
20
130.05262205584674
10
160.50707943501953
20
131.05362205584672
10
174.50657943501952
20
131.05362205584672
10
174.50657943501952
20
130.05262205584674
10
175.30717943501958
20
130.05262205584674
10
175.30717943501958
20
126.9535220558467
10
174.50657943501952
20
126.9535220558467
10
174.50657943501952
20
121.15312205584672
10
175.30717943501958
20
121.15312205584672
10
175.30717943501958
20
118.05262205584671
10
174.50657943501952
20
118.05262205584671
10
174.50657943501952
20
117.05352205584673
10
160.50707943501948
20
117.05352205584673
10
160.50707943501953
20
118.05262205584671
10
159.70777943501952
20
118.05262205584671
10
159.70777943501952
20
121.15312205584672
0
LWPOLYLINE
5
110
100
AcDbEntity
8
0
100
AcDbPolyline
90
20
70
1
43
0.0
10
159.70777943501952
20
99.002622055846729
10
159.70777943501952
20
102.10312205584671
10
160.50707943501953
20
102.10312205584671
10
160.50707943501953
20
107.90352205584671
10
159.70777943501952
20
107.90352205584671
10
159.70777943501952
20
111.00272205584672
10
160.50707943501953
20
111.00272205584672
10
160.50707943501953
20
112.00312205584673
10
174.50657943501952
20
112.00312205584673
10
174.50657943501952
20
111.00272205584672
10
175.30717943501946
20
111.00272205584672
10
175.30717943501958
20
107.90352205584671
10
174.50657943501952
20
107.90352205584671
10
174.50657943501952
20
102.10312205584671
10
175.30717943501958
20
102.10312205584671
10
175.30717943501958
20
99.002622055846729
10
174.50657943501952
20
99.002622055846729
10
174.50657943501952
20
98.00352205584673
10
160.50707943501948
20
98.00352205584673
10
160.50707943501953
20
99.002622055846729
0
LWPOLYLINE
5
111
100
AcDbEntity
8
0
100
AcDbPolyline
90
20
70
1
43
0.0
10
142.74879590141532
20
166.27162205584676
10
143.08089590141537
20
165.93962205584674
10
143.49982590141531
20
165.72562205584674
10
143.96284590141531
20
165.65262205584671
10
144.42724590141532
20
165.72562205584674
10
144.84478590141532
20
165.93962205584674
10
145.17689590141538
20
166.27162205584676
10
145.39050590141534
20
166.68862205584674
10
145.46352590141532
20
167.15362205584668
10
145.39050590141534
20
167.6166220558467
10
145.17689590141538
20
168.03562205584669
10
144.84478590141532
20
168.36762205584674
10
144.42724590141532
20
168.5796220558467
10
143.96284590141531
20
168.65262205584671
10
143.49982590141531
20
168.5796220558467
10
143.08089590141532
20
168.36762205584674
10
142.74879590141532
20
168.03562205584669
10
142.53656590141534
20
167.6166220558467
10
142.4635359014153
20
167.15362205584668
10
142.53656590141534
20
166.68862205584674
0
LWPOLYLINE
5
112
100
AcDbEntity
8
0
100
AcDbPolyline
90
20
70
1
43
0.0
10
160.50707943501953
20
155.52862205584671
10
159.70777943501952
20
155.52862205584671
10
159.70777943501952
20
158.6276220558467
10
160.50707943501953
20
158.6276220558467
10
160.50707943501953
20
159.62862205584671
10
174.50657943501952
20
159.62862205584671
10
174.50657943501952
20
158.6276220558467
10
175.30717943501958
20
158.6276220558467
10
175.30717943501958
20
155.52862205584671
10
174.50657943501952
20
155.52862205584671
10
174.50657943501952
20
149.7286220558467
10
175.30717943501946
20
149.7286220558467
10
175.30717943501958
20
146.6276220558467
10
174.50657943501952
20
146.6276220558467
10
174.50657943501952
20
145.62862205584673
10
160.50707943501953
20
145.62862205584673
10
160.50707943501953
20
146.6276220558467
10
159.70777943501952
20
146.6276220558467
10
159.70777943501952
20
149.7286220558467
10
160.50707943501953
20
149.7286220558467
0
LWPOLYLINE
5
113
100
AcDbEntity
8
0
100
AcDbPolyline
90
20
70
1
43
0.0
10
212.60647943501954
20
41.852722055846712
10
212.60647943501954
20
40.853622055846721
10
198.60727943501956
20
40.853622055846721
10
198.60727943501956
20
41.852722055846712
10
197.80787943501949
20
41.852722055846712
10
197.80787943501949
20
44.953222055846709
10
198.60727943501956
20
44.953222055846709
10
198.60727943501956
20
50.75342205584672
10
197.80787943501949
20
50.75342205584672
10
197.80787943501949
20
53.852622055846709
10
198.60727943501956
20
53.852622055846709
10
198.60727943501956
20
54.853122055846711
10
212.60647943501954
20
54.853122055846711
10
212.60647943501954
20
53.852622055846709
10
213.40737943501949
20
53.852622055846709
10
213.40737943501949
20
50.75342205584672
10
212.60647943501954
20
50.75342205584672
10
212.60647943501954
20
44.953222055846709
10
213.40737943501949
20
44.953222055846709
10
213.40737943501949
20
41.852722055846712
0
LWPOLYLINE
5
114
100
AcDbEntity
8
0
100
AcDbPolyline
90
20
70
1
43
0.0
10
218.91807943501959
20
34.210092055846715
10
218.70567943501956
20
33.79254205584671
10
218.63267943501961
20
33.328152055846715
10
218.70567943501956
20
32.86375205584671
10
218.91807943501959
20
32.446202055846712
10
219.25007943501956
20
32.114102055846715
10
219.66767943501964
20
31.900492055846712
10
220.13197943501964
20
31.827462055846716
10
220.59657943501952
20
31.900492055846712
10
221.01387943501959
20
32.114102055846715
10
221.34627943501957
20
32.446202055846712
10
221.55967943501963
20
32.86375205584671
10
221.63267943501961
20
33.328152055846715
10
221.55967943501963
20
33.79254205584671
10
221.34627943501957
20
34.210092055846715
10
221.01387943501959
20
34.542202055846715
10
220.59657943501952
20
34.754432055846713
10
220.13197943501964
20
34.827452055846713
10
219.66767943501964
20
34.754432055846713
10
219.25007943501956
20
34.542202055846715
0
LWPOLYLINE
5
115
100
AcDbEntity
8
0
100
AcDbPolyline
90
21
70
1
43
0.0
10
-82.184036118202059
20
0.77896531854761641
42
-0.41421356237309587
10
-84.184036118202044
20
2.7789653185476149
10
-84.184036118202044
20
8.3293245623567067
10
-189.27559547283181
20
28.757054357474551
42
-0.41421356237310708
10
-190.85723184897407
20
31.101926715122925
10
-164.17736387963973
20
168.35794862231967
42
-0.41421356237308998
10
-161.83249152199127
20
169.93958499846201
10
-24.961486937632586
20
143.33455681536574
42
0.048018021175693822
10
-24.579992049422774
20
143.29781118604959
10
-4.7223803209031781
20
143.29658892479381
42
0.04799192001998679
10
-4.3410854206268468
20
143.33324787558982
10
144.10699995413964
20
172.15362205584668
10
223.13287226093041
20
172.15362205584668
42
-0.41421356237309503
10
225.13287226093041
20
170.15362205584668
10
225.13287226093041
20
30.328621055846696
42
-0.4142135623730937
10
223.13287226093041
20
28.32862105584671
10
157.95577530676215
20
28.32862105584671
42
0.048033444485196711
10
157.57415731600906
20
28.291875422742038
10
54.878257281797971
20
8.3298146269158337
10
54.878257281797971
20
2.7789653185476153
42
-0.41421356237309254
10
52.878257281797971
20
0.7789653185476153
0
LWPOLYLINE
5
116
100
AcDbEntity
8
0
100
AcDbPolyline
90
20
70
1
43
0.0
10
91.594475536083934
20
38.311243641300287
10
92.701205871066946
20
32.617609651867163
10
93.487292919571843
20
32.770409495364689
10
94.078896209736826
20
29.726874413085199
10
93.292809161231943
20
29.574074569587665
10
93.48344642851265
20
28.59333085060511
10
79.741352999273744
20
25.922138481630238
10
79.550715731993023
20
26.902882200612801
10
78.764628683488141
20
26.750082357115268
10
78.173025393323186
20
29.793617439394751
10
78.959112441828097
20
29.946417282892284
10
77.852382106845013
20
35.640051272325422
10
77.066295058340145
20
35.487251428827889
10
76.474939819869178
20
38.529510395768881
10
77.26102686837406
20
38.682310239266414
10
77.070122468499818
20
39.664428236305817
10
90.812215897738682
20
42.335620605280681
10
91.003120297612909
20
41.353502608241293
10
91.789207346117806
20
41.506302451738833
10
92.380562584588816
20
38.464043484797827
0
LWPOLYLINE
5
117
100
AcDbEntity
8
0
100
AcDbPolyline
90
20
70
1
43
0.0
10
74.912013086481153
20
115.85192036976066
10
75.503349244052615
20
112.80975956553802
10
74.717262195547733
20
112.65695972204044
10
75.824030692329814
20
106.96312940717064
10
76.61011774083471
20
107.11592925066817
10
77.201721030999693
20
104.07239416838871
10
76.415633982494811
20
103.91959432489116
10
76.606271249775546
20
102.9388506059086
10
62.86427598325497
20
100.26767731783329
10
62.673638715974256
20
101.24842103681587
10
61.888925945526211
20
101.09588832591186
10
61.29732265536127
20
104.13942340819133
10
62.082035425809295
20
104.29195611909532
10
60.975266929027214
20
109.98578643396513
10
60.19055415857914
20
109.83325372306112
10
59.599218001007671
20
112.87541452728378
10
60.383930771455724
20
113.02794723818779
10
60.192930967083825
20
114.01055604881891
10
73.934926233604344
20
116.68172933689422
10
74.125926037976313
20
115.69912052626313
0
LWPOLYLINE
5
118
100
AcDbEntity
8
0
100
AcDbPolyline
90
20
70
1
43
0.0
10
83.968459823329141
20
66.574608868902217
10
83.183747052881102
20
66.422076157998205
10
82.592143762716134
20
69.465611240277681
10
83.376856533164187
20
69.618143951181693
10
82.270088036382063
20
75.311974266051507
10
81.485375265933996
20
75.159441555147509
10
80.894020027463043
20
78.201700522088515
10
81.678732797911081
20
78.354233232992513
10
81.487847478936374
20
79.336253067313564
10
95.230235396330286
20
82.007502678987052
10
95.42112071530498
20
81.025482844666001
10
96.206422462063102
20
81.178130040967233
10
96.797777700534141
20
78.135871074026227
10
96.012475953776004
20
77.983223877725024
10
97.119244450558071
20
72.289393562855167
10
97.904546197316208
20
72.442040759156413
10
98.496149487481176
20
69.398505676876923
10
97.710847740723054
20
69.245858480575691
10
97.901485008003775
20
68.265114761593125
10
84.159097090609862
20
65.593865149919651
0
LWPOLYLINE
5
119
100
AcDbEntity
8
0
100
AcDbPolyline
90
20
70
1
43
0.0
10
53.049454306155319
20
128.48749865438205
10
52.263269094932099
20
128.334679729985
10
52.453887281313229
20
127.35403417372076
10
38.711892014792696
20
124.68286088564547
10
38.521273828411523
20
125.66350644190963
10
37.73656105796347
20
125.51097373100566
10
37.144862363300803
20
128.55499962687682
10
37.929575133748855
20
128.70753233778083
10
36.822882960564897
20
134.4009700017773
10
36.038170190116851
20
134.24843729087328
10
35.446853113444931
20
137.29049993237766
10
36.231565883892983
20
137.44303264328164
10
36.040566079521092
20
138.4256414539127
10
49.782561346041604
20
141.09681474198806
10
49.973561150413552
20
140.11420593135693
10
50.759746361636779
20
140.26702485575407
10
51.351063438308692
20
137.2249622142497
10
50.564878227085465
20
137.07214328985262
10
51.671570400269431
20
131.37870562585616
10
52.457755611492651
20
131.53152455025324
0
LWPOLYLINE
5
120
100
AcDbEntity
8
0
100
AcDbPolyline
90
20
70
1
43
0.0
10
43.188928100848216
20
97.460976963988642
10
42.597324810683254
20
100.50451204626812
10
43.3820375811313
20
100.65704475717213
10
42.275269084349191
20
106.35087507204196
10
41.490556313901131
20
106.19834236113796
10
40.899220156329662
20
109.24050316536059
10
41.683932926777764
20
109.39303587626463
10
41.492933122405809
20
110.37564468689573
10
55.234928388926392
20
113.04681797497105
10
55.42592819329829
20
112.06420916433997
10
56.212113404521503
20
112.21702808873701
10
56.803449562092972
20
109.17486728451436
10
56.017264350869752
20
109.02204836011728
10
57.124032847651868
20
103.32821804524748
10
57.910218058875103
20
103.48103696964458
10
58.501821349040043
20
100.43750188736509
10
57.71563613781683
20
100.28468296296801
10
57.906273405097522
20
99.30393924398544
10
44.164278138577011
20
96.632765955910074
10
43.973640871296304
20
97.61350967489264
0
LWPOLYLINE
5
121
100
AcDbEntity
8
0
100
AcDbPolyline
90
20
70
1
43
0.0
10
57.831319496876063
20
74.737889845035582
10
58.022204815850756
20
73.755870010714546
10
58.806917586298852
20
73.908402721618572
10
59.398272824769826
20
70.86614375467758
10
58.613560054321781
20
70.713611043773568
10
59.720328551103862
20
65.019780728903726
10
60.505041321551971
20
65.172313439807738
10
61.096644611716911
20
62.128778357528262
10
60.31193184126883
20
61.976245646624257
10
60.502569108549544
20
60.995501927641698
10
46.759101401253822
20
58.324042426073291
10
46.568464133973123
20
59.30478614505585
10
45.783751363525063
20
59.152253434151859
10
45.192148073360123
20
62.19578851643135
10
45.976860843808176
20
62.348321227335354
10
44.870092347026052
20
68.042151542205147
10
44.085379576577985
20
67.889618831301149
10
43.49402433810701
20
70.931877798242141
10
44.278737108555063
20
71.084410509146153
10
44.087851789580355
20
72.066430343467204
0
LWPOLYLINE
5
122
100
AcDbEntity
8
0
100
AcDbPolyline
90
20
70
1
43
0.0
10
213.40737943501949
20
158.6276220558467
10
213.40737943501949
20
155.52862205584671
10
212.60647943501954
20
155.52862205584671
10
212.60647943501954
20
149.7286220558467
10
213.40737943501949
20
149.7286220558467
10
213.40737943501949
20
146.6276220558467
10
212.60647943501954
20
146.6276220558467
10
212.60647943501954
20
145.62862205584673
10
198.60727943501956
20
145.62862205584673
10
198.60727943501956
20
146.6276220558467
10
197.80787943501949
20
146.6276220558467
10
197.80787943501949
20
149.7286220558467
10
198.60727943501956
20
149.7286220558467
10
198.60727943501956
20
155.52862205584671
10
197.80787943501949
20
155.52862205584671
10
197.80787943501949
20
158.6276220558467
10
198.60727943501956
20
158.6276220558467
10
198.60727943501956
20
159.62862205584671
10
212.60647943501954
20
159.62862205584671
10
212.60647943501954
20
158.6276220558467
0
LINE
5
123
100
AcDbEntity
8
0
100
AcDbLine
10
143.49982590141531
20
168.5796220558467
30
0
11
143.08089590141532
21
168.36762205584674
31
0
0
LINE
5
124
100
AcDbEntity
8
0
100
AcDbLine
10
143.08089590141532
20
168.36762205584674
30
0
11
142.74879590141532
21
168.03562205584669
31
0
0
LINE
5
125
100
AcDbEntity
8
0
100
AcDbLine
10
142.53656590141534
20
167.6166220558467
30
0
11
142.4635359014153
21
167.15362205584668
31
0
0
LWPOLYLINE
5
126
100
AcDbEntity
8
0
100
AcDbPolyline
90
20
70
1
43
0.0
10
212.60647943501954
20
112.00312205584673
10
212.60647943501954
20
111.00272205584672
10
213.40737943501949
20
111.00272205584672
10
213.40737943501949
20
107.90352205584671
10
212.60647943501954
20
107.90352205584671
10
212.60647943501954
20
102.10312205584671
10
213.40737943501949
20
102.10312205584671
10
213.40737943501949
20
99.002622055846729
10
212.60647943501954
20
99.002622055846729
10
212.60647943501954
20
98.00352205584673
10
198.60727943501956
20
98.00352205584673
10
198.60727943501956
20
99.002622055846729
10
197.80787943501949
20
99.002622055846729
10
197.80787943501949
20
102.10312205584671
10
198.60727943501956
20
102.10312205584671
10
198.60727943501956
20
107.90352205584671
10
197.80787943501949
20
107.90352205584671
10
197.80787943501949
20
111.00272205584672
10
198.60727943501956
20
111.00272205584672
10
198.60727943501956
20
112.00312205584673
0
LWPOLYLINE
5
127
100
AcDbEntity
8
0
100
AcDbPolyline
90
20
70
1
43
0.0
10
198.60727943501956
20
117.05352205584673
10
198.60727943501956
20
118.05262205584671
10
197.80787943501949
20
118.05262205584671
10
197.80787943501949
20
121.15312205584672
10
198.60727943501956
20
121.15312205584672
10
198.60727943501956
20
126.9535220558467
10
197.80787943501949
20
126.9535220558467
10
197.80787943501949
20
130.05262205584674
10
198.60727943501956
20
130.05262205584674
10
198.60727943501956
20
131.05362205584672
10
212.60647943501954
20
131.05362205584672
10
212.60647943501954
20
130.05262205584674
10
213.40737943501949
20
130.05262205584674
10
213.40737943501949
20
126.9535220558467
10
212.60647943501954
20
126.9535220558467
10
212.60647943501954
20
121.15312205584672
10
213.40737943501949
20
121.15312205584672
10
213.40737943501949
20
118.05262205584671
10
212.60647943501954
20
118.05262205584671
10
212.60647943501954
20
117.05352205584673
0
LWPOLYLINE
5
128
100
AcDbEntity
8
0
100
AcDbPolyline
90
20
70
1
43
0.0
10
179.55707943501946
20
41.852722055846712
10
178.75777943501956
20
41.852722055846712
10
178.75777943501956
20
44.953222055846709
10
179.55707943501946
20
44.953222055846709
10
179.55707943501946
20
50.75342205584672
10
178.75777943501956
20
50.75342205584672
10
178.75777943501956
20
53.852622055846709
10
179.55707943501946
20
53.852622055846709
10
179.55707943501946
20
54.853122055846711
10
193.5564794350195
20
54.853122055846711
10
193.5564794350195
20
53.852622055846709
10
194.35727943501956
20
53.852622055846709
10
194.35727943501956
20
50.75342205584672
10
193.5564794350195
20
50.75342205584672
10
193.5564794350195
20
44.953222055846709
10
194.35727943501956
20
44.953222055846709
10
194.35727943501956
20
41.852722055846712
10
193.5564794350195
20
41.852722055846712
10
193.5564794350195
20
40.853622055846721
10
179.55707943501946
20
40.853622055846721
0
LINE
5
129
100
AcDbEntity
8
0
100
AcDbLine
10
142.74879590141532
20
166.27162205584676
30
0
11
143.08089590141537
21
165.93962205584674
31
0
0
LINE
5
130
100
AcDbEntity
8
0
100
AcDbLine
10
218.91807943501959
20
34.210092055846715
30
0
11
218.70567943501956
21
33.79254205584671
31
0
0
LINE
5
131
100
AcDbEntity
8
0
100
AcDbLine
10
144.42724590141532
20
165.72562205584674
30
0
11
144.84478590141532
21
165.93962205584674
31
0
0
LINE
5
132
100
AcDbEntity
8
0
100
AcDbLine
10
143.49982590141531
20
165.72562205584674
30
0
11
143.96284590141531
21
165.65262205584671
31
0
0
LINE
5
133
100
AcDbEntity
8
0
100
AcDbLine
10
219.25007943501956
20
101.45402205584672
30
0
11
219.66767943501964
21
101.66642205584672
31
0
0
LINE
5
134
100
AcDbEntity
8
0
100
AcDbLine
10
220.13197943501964
20
31.827462055846716
30
0
11
219.66767943501964
21
31.900492055846712
31
0
0
LINE
5
135
100
AcDbEntity
8
0
100
AcDbLine
10
220.59657943501952
20
168.5796220558467
30
0
11
221.01387943501959
21
168.36762205584674
31
0
0
LINE
5
136
100
AcDbEntity
8
0
100
AcDbLine
10
221.34627943501957
20
101.12212205584672
30
0
11
221.55967943501963
21
100.70442205584671
31
0
0
LINE
5
137
100
AcDbEntity
8
0
100
AcDbLine
10
219.25007943501956
20
34.542202055846715
30
0
11
219.66767943501964
21
34.754432055846713
31
0
0
LWPOLYLINE
5
138
100
AcDbEntity
8
0
100
AcDbPolyline
90
20
70
1
43
0.0
10
100.96969323018669
20
78.946809304376572
10
100.18439148342857
20
78.794162108075327
10
99.593036244957602
20
81.836421075016318
10
100.37833799171572
20
81.989068271317564
10
100.18745267274099
20
82.971088105638586
10
113.93023324100831
20
85.642414040910211
10
114.12111855998302
20
84.660394206589174
10
114.90642030674113
20
84.813041402890406
10
115.49777554521214
20
81.7707824359494
10
114.71247379845401
20
81.618135239648183
10
115.81924229523608
20
75.92430492477834
10
116.6045440419942
20
76.076952121079557
10
117.1961473321592
20
73.033417038800096
10
116.41084558540108
20
72.88076984249885
10
116.60148285268178
20
71.900026123516312
10
102.85870228441448
20
69.228700188244687
10
102.66806501713377
20
70.209443907227239
10
101.88276327037563
20
70.056796710926008
10
101.29115998021069
20
73.100331793205498
10
102.07646172696882
20
73.25297898950673
0
LWPOLYLINE
5
139
100
AcDbEntity
8
0
100
AcDbPolyline
90
20
70
1
43
0.0
10
91.878032663240049
20
100.76245351433349
10
105.61983160432385
20
103.43358864060974
10
105.81071692329857
20
102.45156880628869
10
106.59700029724016
20
102.60440681158528
10
107.18835553571117
20
99.562147844644301
10
106.40207216176958
20
99.409309839347699
10
107.50884065855166
20
93.715479524477843
10
108.29512403249326
20
93.868317529774487
10
108.88672732265825
20
90.824782447494982
10
108.10044394871662
20
90.671944442198352
10
108.29108121599731
20
89.691200723215815
10
94.549282274913494
20
87.02006559693956
10
94.358645007632788
20
88.000809315922112
10
93.573343260874665
20
87.848162119620923
10
92.981739970709683
20
90.891697201900371
10
93.767041717467805
20
91.044344398201602
10
92.660273220685724
20
96.738174713071459
10
91.874971473927602
20
96.585527516770213
10
91.283616235456606
20
99.627786483711205
10
92.068917982214771
20
99.78043368001245
0
LINE
5
140
100
AcDbEntity
8
0
100
AcDbLine
10
221.34627943501957
20
32.446202055846712
30
0
11
221.01387943501959
21
32.114102055846715
31
0
0
LINE
5
141
100
AcDbEntity
8
0
100
AcDbLine
10
221.01387943501959
20
32.114102055846715
30
0
11
220.59657943501952
21
31.900492055846712
31
0
0
LINE
5
142
100
AcDbEntity
8
0
100
AcDbLine
10
221.55967943501963
20
33.79254205584671
30
0
11
221.63267943501961
21
33.328152055846715
31
0
0
LINE
5
143
100
AcDbEntity
8
0
100
AcDbLine
10
221.34627943501957
20
168.03562205584669
30
0
11
221.55967943501963
21
167.6166220558467
31
0
0
LINE
5
144
100
AcDbEntity
8
0
100
AcDbLine
10
221.01387943501959
20
101.45402205584672
30
0
11
220.59657943501952
21
101.66642205584672
31
0
0
LWPOLYLINE
5
145
100
AcDbEntity
8
0
100
AcDbPolyline
90
20
70
1
43
0.0
10
-80.398562718202044
20
6.6604483185476138
10
-80.066462718202033
20
6.9911783185476128
10
-79.647532718202044
20
7.2047483185476136
10
-79.184512718202043
20
7.2778083185476161
10
-78.720112718202046
20
7.2047483185476136
10
-78.302572718202043
20
6.9911783185476128
10
-77.970462718202043
20
6.6604483185476138
10
-77.756852718202055
20
6.2415183185476142
10
-77.683832718202041
20
5.7784983185476158
10
-77.756852718202055
20
5.3127283185476148
10
-77.970462718202043
20
4.8965583185476156
10
-78.302572718202043
20
4.5630783185476131
10
-78.720112718202046
20
4.3508483185476132
10
-79.184512718202043
20
4.2778183185476149
10
-79.647532718202044
20
4.3508483185476132
10
-80.066462718202047
20
4.5630783185476131
10
-80.398562718202044
20
4.8965583185476156
10
-80.610792718202063
20
5.3127283185476148
10
-80.683822718202052
20
5.7784983185476158
10
-80.610792718202063
20
6.2415183185476142
0
LWPOLYLINE
5
146
100
AcDbEntity
8
0
100
AcDbPolyline
90
20
70
1
43
0.0
10
179.55707943501946
20
149.7286220558467
10
179.55707943501946
20
155.52862205584671
10
178.75777943501956
20
155.52862205584671
10
178.75777943501956
20
158.6276220558467
10
179.55707943501946
20
158.6276220558467
10
179.55707943501946
20
159.62862205584671
10
193.5564794350195
20
159.62862205584671
10
193.5564794350195
20
158.6276220558467
10
194.35727943501956
20
158.6276220558467
10
194.35727943501956
20
155.52862205584671
10
193.5564794350195
20
155.52862205584671
10
193.5564794350195
20
149.7286220558467
10
194.35727943501956
20
149.7286220558467
10
194.35727943501956
20
146.6276220558467
10
193.5564794350195
20
146.6276220558467
10
193.5564794350195
20
145.62862205584673
10
179.55707943501946
20
145.62862205584673
10
179.55707943501946
20
146.6276220558467
10
178.75777943501956
20
146.6276220558467
10
178.75777943501956
20
149.7286220558467
0
LWPOLYLINE
5
147
100
AcDbEntity
8
0
100
AcDbPolyline
90
20
70
1
43
0.0
10
193.5564794350195
20
99.002622055846729
10
193.5564794350195
20
98.00352205584673
10
179.55707943501946
20
98.00352205584673
10
179.55707943501946
20
99.002622055846729
10
178.75777943501956
20
99.002622055846729
10
178.75777943501956
20
102.10312205584671
10
179.55707943501946
20
102.10312205584671
10
179.55707943501946
20
107.90352205584671
10
178.75777943501956
20
107.90352205584671
10
178.75777943501956
20
111.00272205584672
10
179.55707943501946
20
111.00272205584672
10
179.55707943501946
20
112.00312205584673
10
193.5564794350195
20
112.00312205584673
10
193.5564794350195
20
111.00272205584672
10
194.35727943501956
20
111.00272205584672
10
194.35727943501956
20
107.90352205584671
10
193.5564794350195
20
107.90352205584671
10
193.5564794350195
20
102.10312205584671
10
194.35727943501956
20
102.10312205584671
10
194.35727943501956
20
99.002622055846729
0
LWPOLYLINE
5
148
100
AcDbEntity
8
0
100
AcDbPolyline
90
60
70
1
43
0.0
10
33.696758453788682
20
26.75291393288909
10
36.996758453788665
20
26.75291393288909
10
36.996758453788665
20
25.832413932889089
10
38.671758453788712
20
25.832413932889089
10
38.671758453788712
20
22.602313932889089
10
39.546758453788684
20
22.602313932889089
10
39.546758453788684
20
19.80209393288909
10
38.671758453788712
20
19.80209393288909
10
38.671758453788712
20
13.532023932889087
10
36.996758453788665
20
13.532023932889087
10
36.996758453788665
20
12.552234932889089
10
33.696758453788682
20
12.552234932889089
10
33.696758453788682
20
13.532023932889087
10
32.021758453788678
20
13.532023932889087
10
32.021758453788678
20
18.002363932889086
10
-7.6532415462113335
20
18.002363932889086
10
-7.6532415462113343
20
17.402923932889088
10
-6.8532415462113168
20
17.402923932889088
10
-6.8532415462113168
20
14.302343932889094
10
-7.6532415462113343
20
14.302343932889094
10
-7.6532415462113335
20
13.303264932889094
10
-21.653241546211319
20
13.303264932889094
10
-21.653241546211319
20
14.302343932889094
10
-22.453241546211306
20
14.302343932889094
10
-22.453241546211306
20
17.402923932889088
10
-21.653241546211319
20
17.402923932889088
10
-21.653241546211319
20
18.002363932889086
10
-61.329241546211328
20
18.002363932889086
10
-61.329241546211328
20
13.532023932889084
10
-63.003241546211356
20
13.532023932889087
10
-63.003241546211356
20
12.552234932889089
10
-66.303241546211353
20
12.552234932889089
10
-66.303241546211353
20
13.532023932889087
10
-67.978241546211322
20
13.532023932889087
10
-67.978241546211322
20
19.80209393288909
10
-68.853241546211322
20
19.80209393288909
10
-68.853241546211322
20
22.602313932889089
10
-67.978241546211322
20
22.602313932889089
10
-67.978241546211322
20
25.832413932889089
10
-66.303241546211353
20
25.832413932889089
10
-66.303241546211353
20
26.75291393288909
10
-63.003241546211356
20
26.75291393288909
10
-63.003241546211356
20
25.832413932889089
10
-61.329241546211328
20
25.832413932889089
10
-61.329241546211328
20
22.602313932889089
10
-21.653241546211319
20
22.602313932889089
10
-21.653241546211319
20
23.203113932889089
10
-22.453241546211306
20
23.203113932889089
10
-22.453241546211306
20
26.302313932889092
10
-21.653241546211319
20
26.302313932889092
10
-21.653241546211319
20
27.302713932889091
10
-7.6532415462113343
20
27.302713932889091
10
-7.6532415462113343
20
26.302313932889092
10
-6.8532415462113168
20
26.302313932889092
10
-6.8532415462113168
20
23.203113932889089
10
-7.6532415462113343
20
23.203113932889089
10
-7.6532415462113335
20
22.602313932889089
10
32.021758453788678
20
22.602313932889089
10
32.021758453788678
20
25.832413932889089
10
33.696758453788682
20
25.832413932889089
0
LWPOLYLINE
5
149
100
AcDbEntity
8
0
100
AcDbPolyline
90
20
70
1
43
0.0
10
50.760257281797934
20
6.9911783185476128
10
51.09225728179797
20
6.6604483185476138
10
51.304257281797938
20
6.2415183185476142
10
51.379257281797962
20
5.7784983185476158
10
51.304257281797938
20
5.3127283185476148
10
51.09225728179797
20
4.8965583185476156
10
50.760257281797934
20
4.5630783185476131
10
50.341257281797951
20
4.3508483185476132
10
49.878257281797971
20
4.2778183185476149
10
49.415257281797942
20
4.3508483185476132
10
48.996257281797959
20
4.5630783185476131
10
48.66425728179798
20
4.8965583185476156
10
48.452257281797941
20
5.3127283185476148
10
48.377257281797981
20
5.7784983185476158
10
48.452257281797941
20
6.2415183185476142
10
48.66425728179798
20
6.6604483185476138
10
48.996257281797959
20
6.9911783185476128
10
49.415257281797942
20
7.2047483185476136
10
49.878257281797971
20
7.2778083185476161
10
50.341257281797951
20
7.2047483185476136
0
ARC
5
150
100
AcDbEntity
8
0
100
AcDbCircle
10
144.10699995413958
20
170.15362205584722
30
0
40
1.99999999999946
100
AcDbArc
50
89.99999999999838
51
100.99999671164905
0
LINE
5
151
100
AcDbEntity
8
0
100
AcDbLine
10
218.63267943501961
20
33.328152055846715
30
0
11
218.70567943501956
21
33.79254205584671
31
0
0
LINE
5
152
100
AcDbEntity
8
0
100
AcDbLine
10
158.86843082920416
20
34.210092055846715
30
0
11
159.08204082920412
21
33.79254205584671
31
0
0
LINE
5
153
100
AcDbEntity
8
0
100
AcDbLine
10
158.86843082920416
20
32.446202055846712
30
0
11
158.53632082920413
21
32.114102055846715
31
0
0
LINE
5
154
100
AcDbEntity
8
0
100
AcDbLine
10
159.08204082920412
20
32.86375205584671
30
0
11
158.86843082920416
21
32.446202055846712
31
0
0
LINE
5
155
100
AcDbEntity
8
0
100
AcDbLine
10
143.49982590141531
20
168.5796220558467
30
0
11
143.96284590141531
21
168.65262205584671
31
0
0
LINE
5
156
100
AcDbEntity
8
0
100
AcDbLine
10
156.22810082920412
20
32.86375205584671
30
0
11
156.15507082920411
21
33.328152055846715
31
0
0
LINE
5
157
100
AcDbEntity
8
0
100
AcDbLine
10
218.70567943501956
20
100.70442205584671
30
0
11
218.91807943501959
21
101.12212205584672
31
0
0
LINE
5
158
100
AcDbEntity
8
0
100
AcDbLine
10
159.08204082920412
20
33.79254205584671
30
0
11
159.15506082920413
21
33.328152055846715
31
0
0
LINE
5
159
100
AcDbEntity
8
0
100
AcDbLine
10
219.66767943501964
20
168.5796220558467
30
0
11
220.13197943501964
21
168.65262205584671
31
0
0
LINE
5
160
100
AcDbEntity
8
0
100
AcDbLine
10
221.63267943501961
20
100.24012205584671
30
0
11
221.55967943501963
21
99.777322055846724
31
0
0
LINE
5
161
100
AcDbEntity
8
0
100
AcDbLine
10
142.53656590141534
20
167.6166220558467
30
0
11
142.74879590141532
21
168.03562205584669
31
0
0
LINE
5
162
100
AcDbEntity
8
0
100
AcDbLine
10
219.66767943501964
20
31.900492055846712
30
0
11
219.25007943501956
21
32.114102055846715
31
0
0
LINE
5
163
100
AcDbEntity
8
0
100
AcDbLine
10
157.19136082920411
20
31.900492055846712
30
0
11
156.77243082920415
21
32.114102055846715
31
0
0
LINE
5
164
100
AcDbEntity
8
0
100
AcDbLine
10
159.15506082920413
20
33.328152055846715
30
0
11
159.08204082920412
21
32.86375205584671
31
0
0
LINE
5
165
100
AcDbEntity
8
0
100
AcDbLine
10
158.11878082920413
20
34.754432055846713
30
0
11
158.53632082920413
21
34.542202055846715
31
0
0
LINE
5
166
100
AcDbEntity
8
0
100
AcDbLine
10
158.11878082920413
20
31.900492055846712
30
0
11
157.65438082920411
21
31.827462055846716
31
0
0
LINE
5
167
100
AcDbEntity
8
0
100
AcDbLine
10
221.34627943501957
20
34.210092055846715
30
0
11
221.55967943501963
21
33.79254205584671
31
0
0
LINE
5
168
100
AcDbEntity
8
0
100
AcDbLine
10
218.63267943501961
20
167.15362205584668
30
0
11
218.70567943501956
21
167.6166220558467
31
0
0
LINE
5
169
100
AcDbEntity
8
0
100
AcDbLine
10
157.65438082920411
20
31.827462055846716
30
0
11
157.19136082920411
21
31.900492055846712
31
0
0
LINE
5
170
100
AcDbEntity
8
0
100
AcDbLine
10
156.44033082920413
20
34.210092055846715
30
0
11
156.77243082920413
21
34.542202055846715
31
0
0
LINE
5
171
100
AcDbEntity
8
0
100
AcDbLine
10
144.84478590141532
20
168.36762205584674
30
0
11
145.17689590141538
21
168.03562205584669
31
0
0
LINE
5
172
100
AcDbEntity
8
0
100
AcDbLine
10
145.17689590141538
20
168.03562205584669
30
0
11
145.39050590141534
21
167.6166220558467
31
0
0
LINE
5
173
100
AcDbEntity
8
0
100
AcDbLine
10
221.34627943501957
20
99.359622055846728
30
0
11
221.01387943501959
21
99.02762205584672
31
0
0
LINE
5
174
100
AcDbEntity
8
0
100
AcDbLine
10
145.46352590141532
20
167.15362205584668
30
0
11
145.39050590141534
21
166.68862205584674
31
0
0
LINE
5
175
100
AcDbEntity
8
0
100
AcDbLine
10
219.25007943501956
20
168.36762205584674
30
0
11
219.66767943501964
21
168.5796220558467
31
0
0
LINE
5
176
100
AcDbEntity
8
0
100
AcDbLine
10
156.77243082920415
20
32.114102055846715
30
0
11
156.44033082920413
21
32.446202055846712
31
0
0
LINE
5
177
100
AcDbEntity
8
0
100
AcDbLine
10
143.49982590141531
20
165.72562205584674
30
0
11
143.08089590141537
21
165.93962205584674
31
0
0
LINE
5
178
100
AcDbEntity
8
0
100
AcDbLine
10
145.39050590141534
20
167.6166220558467
30
0
11
145.46352590141532
21
167.15362205584668
31
0
0
LINE
5
179
100
AcDbEntity
8
0
100
AcDbLine
10
156.44033082920413
20
32.446202055846712
30
0
11
156.22810082920412
21
32.86375205584671
31
0
0
LINE
5
180
100
AcDbEntity
8
0
100
AcDbLine
10
144.42724590141532
20
165.72562205584674
30
0
11
143.96284590141531
21
165.65262205584671
31
0
0
LINE
5
181
100
AcDbEntity
8
0
100
AcDbLine
10
218.70567943501956
20
32.86375205584671
30
0
11
218.63267943501961
21
33.328152055846715
31
0
0
LINE
5
182
100
AcDbEntity
8
0
100
AcDbLine
10
145.17689590141538
20
166.27162205584676
30
0
11
144.84478590141532
21
165.93962205584674
31
0
0
LINE
5
183
100
AcDbEntity
8
0
100
AcDbLine
10
220.59657943501952
20
34.754432055846713
30
0
11
221.01387943501959
21
34.542202055846715
31
0
0
LINE
5
184
100
AcDbEntity
8
0
100
AcDbLine
10
145.39050590141534
20
166.68862205584674
30
0
11
145.17689590141538
21
166.27162205584676
31
0
0
LINE
5
185
100
AcDbEntity
8
0
100
AcDbLine
10
221.55967943501963
20
32.86375205584671
30
0
11
221.34627943501957
21
32.446202055846712
31
0
0
LINE
5
186
100
AcDbEntity
8
0
100
AcDbLine
10
156.22810082920412
20
33.79254205584671
30
0
11
156.44033082920413
21
34.210092055846715
31
0
0
LINE
5
187
100
AcDbEntity
8
0
100
AcDbLine
10
143.96284590141531
20
168.65262205584671
30
0
11
144.42724590141532
21
168.5796220558467
31
0
0
LINE
5
188
100
AcDbEntity
8
0
100
AcDbLine
10
142.74879590141532
20
166.27162205584676
30
0
11
142.53656590141534
21
166.68862205584674
31
0
0
LINE
5
189
100
AcDbEntity
8
0
100
AcDbLine
10
156.15507082920411
20
33.328152055846715
30
0
11
156.22810082920412
21
33.79254205584671
31
0
0
LINE
5
190
100
AcDbEntity
8
0
100
AcDbLine
10
144.42724590141532
20
168.5796220558467
30
0
11
144.84478590141532
21
168.36762205584674
31
0
0
LINE
5
191
100
AcDbEntity
8
0
100
AcDbLine
10
142.53656590141534
20
166.68862205584674
30
0
11
142.4635359014153
21
167.15362205584668
31
0
0
LINE
5
192
100
AcDbEntity
8
0
100
AcDbLine
10
221.55967943501963
20
166.68862205584674
30
0
11
221.34627943501957
21
166.27162205584676
31
0
0
LINE
5
193
100
AcDbEntity
8
0
100
AcDbLine
10
219.25007943501956
20
32.114102055846715
30
0
11
218.91807943501959
21
32.446202055846712
31
0
0
LINE
5
194
100
AcDbEntity
8
0
100
AcDbLine
10
158.53632082920413
20
32.114102055846715
30
0
11
158.11878082920413
21
31.900492055846712
31
0
0
LINE
5
195
100
AcDbEntity
8
0
100
AcDbLine
10
158.53632082920413
20
34.542202055846715
30
0
11
158.86843082920416
21
34.210092055846715
31
0
0
LINE
5
196
100
AcDbEntity
8
0
100
AcDbLine
10
218.91807943501959
20
168.03562205584669
30
0
11
219.25007943501956
21
168.36762205584674
31
0
0
LWPOLYLINE
5
197
100
AcDbEntity
8
0
100
AcDbPolyline
90
20
70
1
43
0.0
10
109.1913327463253
20
64.295587877250838
10
109.78268798479633
20
61.253328910309833
10
108.99738623803816
20
61.10068171400858
10
110.10415473482027
20
55.406851399138759
10
110.88945648157838
20
55.559498595440004
10
111.48104069084386
20
52.516061675878866
10
110.6957389440857
20
52.363414479577628
10
110.88637621136641
20
51.382670760595062
10
97.143595643099104
20
48.711344825323444
10
96.952958375818412
20
49.692088544305989
10
96.167656629060303
20
49.539441348004772
10
95.576072419794841
20
52.582878267565896
10
96.361374166552949
20
52.735525463867141
10
95.254605669770868
20
58.429355778736962
10
94.469303923012745
20
58.276708582435724
10
93.877948684541721
20
61.318967549376715
10
94.663250431299844
20
61.471614745677968
10
94.472365112325164
20
62.453634579999012
10
108.21514568059244
20
65.124960515270644
10
108.40603099956716
20
64.142940680949593
0
LWPOLYLINE
5
198
100
AcDbEntity
8
0
100
AcDbPolyline
90
20
70
1
43
0.0
10
114.18829299348795
20
46.879469697579566
10
114.37919739336218
20
45.89735170054017
10
115.16449914012036
20
46.049998896841402
10
115.75585437859135
20
43.007739929900417
10
114.97055263183321
20
42.855092733599172
10
116.07728296681626
20
37.161458744166033
10
116.86258471357435
20
37.314105940467272
10
117.45418800373938
20
34.270570858187803
10
116.66888625698121
20
34.117923661886557
10
116.85952352426192
20
33.137179942903984
10
103.1167429559946
20
30.465854007632366
10
102.92610568871393
20
31.446597726614929
10
102.14080394195578
20
31.293950530313694
10
101.54920065179078
20
34.337485612593177
10
102.33450239854896
20
34.490132808894401
10
101.22777206356588
20
40.183766798327547
10
100.44247031680777
20
40.031119602026315
10
99.85111507833679
20
43.073378568967307
10
100.63641682509493
20
43.226025765268545
10
100.4455124252207
20
44.208143762307941
0
LWPOLYLINE
5
199
100
AcDbEntity
8
0
100
AcDbPolyline
90
20
70
1
43
0.0
10
79.083928616133733
20
116.66285860011101
10
78.892928811761806
20
117.64546741074207
10
92.634825915563979
20
120.31662161791786
10
92.825825719935921
20
119.33401280728675
10
93.612109093877507
20
119.48685081258338
10
94.203445251448997
20
116.44469000836071
10
93.417161877507368
20
116.29185200306409
10
94.523930374289463
20
110.59802168819429
10
95.310213748231064
20
110.75085969349091
10
95.901817038396047
20
107.70732461121142
10
95.11553366445446
20
107.55448660591482
10
95.306170931735167
20
106.57374288693222
10
81.564273827932993
20
103.90258867975645
10
81.373636560652272
20
104.88333239873901
10
80.58892379020422
20
104.73079968783502
10
79.997320500039208
20
107.77433477011449
10
80.782033270487332
20
107.9268674810185
10
79.675264773705209
20
113.62069779588829
10
78.890552003257127
20
113.46816508498428
10
78.299215845685694
20
116.510325889207
0
LINE
5
200
100
AcDbEntity
8
0
100
AcDbLine
10
218.63267943501961
20
167.15362205584668
30
0
11
218.70567943501956
21
166.68862205584674
31
0
0
LINE
5
201
100
AcDbEntity
8
0
100
AcDbLine
10
221.34627943501957
20
101.12212205584672
30
0
11
221.01387943501959
21
101.45402205584672
31
0
0
LINE
5
202
100
AcDbEntity
8
0
100
AcDbLine
10
218.91807943501959
20
168.03562205584669
30
0
11
218.70567943501956
21
167.6166220558467
31
0
0
LINE
5
203
100
AcDbEntity
8
0
100
AcDbLine
10
221.63267943501961
20
167.15362205584668
30
0
11
221.55967943501963
21
167.6166220558467
31
0
0
LINE
5
204
100
AcDbEntity
8
0
100
AcDbLine
10
218.70567943501956
20
166.68862205584674
30
0
11
218.91807943501959
21
166.27162205584676
31
0
0
LWPOLYLINE
5
205
100
AcDbEntity
8
0
100
AcDbPolyline
90
20
70
1
43
0.0
10
53.206557858040931
20
53.390930115079449
10
53.797913096511934
20
50.348671148138436
10
53.011826048007066
20
50.195871304640896
10
54.118594544789204
20
44.502040989771089
10
54.904681593294036
20
44.654840833268629
10
55.496265802559478
20
41.61140391370747
10
54.710178754054645
20
41.458604070209937
10
54.900816021335359
20
40.477860351227378
10
41.158820754814791
20
37.806687063152047
10
40.968183487534084
20
38.787430782134606
10
40.182096439029152
20
38.634630938637073
10
39.59051222976376
20
41.678067858198212
10
40.37659927826865
20
41.830867701695752
10
39.269830781486505
20
47.52469801656558
10
38.483743732981623
20
47.371898173068026
10
37.892388494510655
20
50.414157140009053
10
38.678475543015537
20
50.566956983506579
10
38.487590224040829
20
51.548976817827622
10
52.229585490561369
20
54.220150105902945
10
52.420470809536113
20
53.238130271581916
0
LWPOLYLINE
5
206
100
AcDbEntity
8
0
100
AcDbPolyline
90
20
70
1
43
0.0
10
38.424035002973852
20
99.693306683324295
10
39.210122051478734
20
99.846106526821799
10
39.801725341643689
20
96.802571444542366
10
39.015638293138849
20
96.649771601044819
10
39.206275560419563
20
95.669027882062224
10
25.464280293898991
20
92.997854593986929
10
25.273643026618284
20
93.978598312969496
10
24.488930256170232
20
93.826065602065484
10
23.897326966005235
20
96.869600684344945
10
24.682039736453291
20
97.022133395248957
10
23.575271239671181
20
102.7159637101188
10
22.790558469223129
20
102.56343099921477
10
22.199222311651688
20
105.60559180343745
10
22.983935082099748
20
105.75812451434145
10
22.79293527772781
20
106.74073332497257
10
36.534930544248368
20
109.41190661304788
10
36.725930348620317
20
108.42929780241677
10
37.512017397125149
20
108.58209764591429
10
38.103353554696632
20
105.53993684169164
10
37.317266506191743
20
105.38713699819412
0
LWPOLYLINE
5
207
100
AcDbEntity
8
0
100
AcDbPolyline
90
20
70
1
43
0.0
10
50.497006763206173
20
91.699672725815788
10
51.088362001677147
20
88.657413758874739
10
50.302176790453942
20
88.504594834477714
10
51.408945287236058
20
82.810764519607872
10
52.19513049845925
20
82.963583444004939
10
52.786733788624232
20
79.920048361725449
10
52.000548577401005
20
79.767229437328382
10
52.191185844681712
20
78.78648571834583
10
38.449190578161151
20
76.115312430270507
10
38.258553310880451
20
77.096056149253059
10
37.473840540432391
20
76.943523438349047
10
36.882237250267394
20
79.987058520628523
10
37.666950020715497
20
80.139591231532563
10
36.56018152393338
20
85.833421546402377
10
35.775468753485299
20
85.680888835498337
10
35.184113515014332
20
88.723147802439343
10
35.968826285462384
20
88.875680513343355
10
35.777940966487677
20
89.857700347664434
10
49.519936233008252
20
92.528873635739743
10
49.71082155198296
20
91.546853801418692
0
LWPOLYLINE
5
208
100
AcDbEntity
8
0
100
AcDbPolyline
90
20
70
1
43
0.0
10
-97.425174560296526
20
44.086921657923696
10
-98.209887330744579
20
44.239454368827715
10
-98.400524598025285
20
43.258710649845149
10
-112.14399230532101
20
45.930170151413535
10
-111.95335503804029
20
46.910913870396101
10
-112.73806780848831
20
47.063446581300106
10
-112.14648359922292
20
50.106883500861258
10
-111.36177082877487
20
49.954350789957253
10
-110.25500233199274
20
55.64818110482706
10
-111.03971510244079
20
55.800713815731065
10
-110.44835986396978
20
58.842972782672092
10
-109.66364709352177
20
58.690440071768073
10
-109.47276177454704
20
59.672459906089124
10
-95.729294067251359
20
57.001000404520724
10
-95.920179386226067
20
56.018980570199695
10
-95.135466615777943
20
55.866447859295683
10
-95.726821854248968
20
52.824188892354663
10
-96.511534624697006
20
52.976721603258675
10
-97.618303121479144
20
47.282891288388853
10
-96.833590351031063
20
47.130358577484856
0
LWPOLYLINE
5
209
100
AcDbEntity
8
0
100
AcDbPolyline
90
20
70
1
43
0.0
10
-100.20166141420704
20
86.598151349736483
10
-99.416948643759014
20
86.445618638832457
10
-98.31018014697689
20
92.139448953702299
10
-99.094892917424943
20
92.291981664606283
10
-98.503537678953961
20
95.334240631547274
10
-97.71882490850588
20
95.181707920643277
10
-97.527939589531215
20
96.163727754964313
10
-83.785944323010696
20
93.492554466889004
10
-83.976829641985375
20
92.510534632567953
10
-83.190742593480451
20
92.35773478907042
10
-83.782097831951461
20
89.315475822129414
10
-84.568184880456343
20
89.468275665626948
10
-85.674953377238467
20
83.774445350757119
10
-84.88886632873357
20
83.621645507259572
10
-85.480469618898539
20
80.578110424980096
10
-86.266556667403464
20
80.730910268477615
10
-86.457193934684142
20
79.750166549495063
10
-100.19918920120467
20
82.421339837570414
10
-100.00855193392397
20
83.402083556552938
10
-100.79326470437202
20
83.55461626745695
0
LWPOLYLINE
5
210
100
AcDbEntity
8
0
100
AcDbPolyline
90
20
70
1
43
0.0
10
-84.44038151965222
20
60.969384739821308
10
-85.226468568157102
20
61.122184583318855
10
-85.417105835437809
20
60.141440864336289
10
-99.15910110195837
20
62.812614152411612
10
-98.968463834677635
20
63.793357871394178
10
-99.754550883182503
20
63.946157714891712
10
-99.162947593017563
20
66.989692797171202
10
-98.376860544512695
20
66.836892953673654
10
-97.270092047730557
20
72.530723268543483
10
-98.056179096235425
20
72.68352311204103
10
-97.464823857764443
20
75.725782078982022
10
-96.678736809259576
20
75.572982235484488
10
-96.487851490284868
20
76.555002069805496
10
-82.745856223764349
20
73.883828781730202
10
-82.936741542739043
20
72.901808947409151
10
-82.150654494234118
20
72.749009103911646
10
-82.742009732705128
20
69.706750136970641
10
-83.528096781210024
20
69.859549980468159
10
-84.63486527799212
20
64.165719665598331
10
-83.848778229487237
20
64.012919822100798
0
LWPOLYLINE
5
211
100
AcDbEntity
8
0
100
AcDbPolyline
90
20
70
1
43
0.0
10
-84.542933900771331
20
113.04676073227243
10
-70.801036796969129
20
110.37560652509669
10
-70.99203660134107
20
109.39299771446557
10
-70.20575322739947
20
109.24015970916896
10
-70.797089384970946
20
106.1979989049463
10
-71.583372758912503
20
106.35083691024292
10
-72.690141255694613
20
100.65700659537308
10
-71.903857881753041
20
100.50416859007646
10
-72.495461171918024
20
97.460633507796999
10
-73.281744545859596
20
97.613471513093586
10
-73.472381813140302
20
96.632727794111048
10
-87.214278916942476
20
99.303882001286823
10
-87.023641649661784
20
100.28462572026942
10
-87.80835442010985
20
100.4371584311734
10
-87.216751129944868
20
103.48069351345288
10
-86.432038359496801
20
103.32816080254887
10
-85.325269862714705
20
109.02199111741871
10
-86.109982633162744
20
109.17452382832269
10
-85.518646475591311
20
112.21668463254537
10
-84.733933705143272
20
112.06415192164137
0
LWPOLYLINE
5
212
100
AcDbEntity
8
0
100
AcDbPolyline
90
20
70
1
43
0.0
10
-78.918403439519452
20
43.647999007365215
10
-78.134083319944779
20
43.495542620059354
10
-78.725667529210213
20
40.452105700498215
10
-79.5099876487849
20
40.604562087804076
10
-79.700624916065593
20
39.623818368821524
10
-93.443994460643012
20
42.295258789490369
10
-93.253357193362291
20
43.276002508472928
10
-94.038069963810344
20
43.42853521937694
10
-93.446485754544867
20
46.471972138938071
10
-92.661772984096856
20
46.319439428034066
10
-91.555004487314719
20
52.013269742903894
10
-92.339717257762771
20
52.165802453807899
10
-91.748362019291804
20
55.208061420748905
10
-90.963649248843765
20
55.055528709844893
10
-90.772763929869058
20
56.037548544165936
10
-77.029394385291695
20
53.366108123497099
10
-77.22027970426636
20
52.384088289176049
10
-76.435959584691687
20
52.231631901870188
10
-77.027314823162683
20
49.189372934929182
10
-77.811634942737342
20
49.341829322235043
0
LWPOLYLINE
5
213
100
AcDbEntity
8
0
100
AcDbPolyline
90
20
70
1
43
0.0
10
-65.344703261186623
20
134.24809383468158
10
-66.13098663512821
20
134.40093183997823
10
-67.237678808312168
20
128.70749417598179
10
-66.451395434370582
20
128.55465617068515
10
-67.04309412903325
20
125.51063027481398
10
-67.829377502974822
20
125.66346828011061
10
-68.019995689356008
20
124.68282272384641
10
-81.761892793158196
20
127.35397693102215
10
-81.571274606777024
20
128.33462248728642
10
-82.355987377225105
20
128.48715519819041
10
-81.764288682562437
20
131.53118109406159
10
-80.979575912114385
20
131.37864838315755
10
-79.872883738930412
20
137.07208604715402
10
-80.657596509378465
20
137.22461875805806
10
-80.066279432706565
20
140.26668139956237
10
-79.281566662258484
20
140.11414868865836
10
-79.090566857886586
20
141.09675749928942
10
-65.348669754084369
20
138.42560329211364
10
-65.539669558456282
20
137.44299448148257
10
-64.75338618451471
20
137.29015647618596
0
LWPOLYLINE
5
214
100
AcDbEntity
8
0
100
AcDbPolyline
90
20
70
1
43
0.0
10
-79.803539834275952
20
91.699329269624101
10
-79.018827063827899
20
91.546796558720089
10
-78.827941744853192
20
92.52881639304114
10
-65.086044641051032
20
89.857662185865351
10
-65.276929960025711
20
88.8756423515443
10
-64.490646586084139
20
88.722804346247713
10
-65.082001824555121
20
85.680545379306693
10
-65.868285198496679
20
85.833383384603309
10
-66.975053695278802
20
80.139553069733495
10
-66.188770321337216
20
79.986715064436879
10
-66.780373611502199
20
76.943179982157389
10
-67.566656985443785
20
77.09601798745399
10
-67.757294252724492
20
76.115274268471438
10
-81.499191356526666
20
78.786428475647227
10
-81.308554089245973
20
79.767172194629808
10
-82.093266859694012
20
79.91970490553382
10
-81.501663569529072
20
82.96323998781331
10
-80.716950799080976
20
82.810707276909298
10
-79.610182302298881
20
88.504537591779098
10
-80.394895072746934
20
88.65707030268311
0
LWPOLYLINE
5
215
100
AcDbEntity
8
0
100
AcDbPolyline
90
20
70
1
43
0.0
10
159.70777943501952
20
53.852622055846709
10
160.50707943501953
20
53.852622055846709
10
160.50707943501953
20
54.853122055846711
10
174.50657943501952
20
54.853122055846711
10
174.50657943501952
20
53.852622055846709
10
175.30717943501958
20
53.852622055846709
10
175.30717943501958
20
50.75342205584672
10
174.50657943501952
20
50.75342205584672
10
174.50657943501952
20
44.953222055846709
10
175.30717943501958
20
44.953222055846709
10
175.30717943501958
20
41.852722055846712
10
174.50657943501952
20
41.852722055846712
10
174.50657943501952
20
40.853622055846721
10
160.50707943501948
20
40.853622055846721
10
160.50707943501953
20
41.852722055846712
10
159.70777943501952
20
41.852722055846712
10
159.70777943501952
20
44.953222055846709
10
160.50707943501953
20
44.953222055846709
10
160.50707943501953
20
50.75342205584672
10
159.70777943501952
20
50.75342205584672
0
LWPOLYLINE
5
216
100
AcDbEntity
8
0
100
AcDbPolyline
90
20
70
1
43
0.0
10
179.55707943501946
20
131.05362205584672
10
193.5564794350195
20
131.05362205584672
10
193.5564794350195
20
130.05262205584674
10
194.35727943501956
20
130.05262205584674
10
194.35727943501956
20
126.9535220558467
10
193.5564794350195
20
126.9535220558467
10
193.5564794350195
20
121.15312205584672
10
194.35727943501956
20
121.15312205584672
10
194.35727943501956
20
118.05262205584671
10
193.5564794350195
20
118.05262205584671
10
193.5564794350195
20
117.05352205584673
10
179.55707943501946
20
117.05352205584673
10
179.55707943501946
20
118.05262205584671
10
178.75777943501956
20
118.05262205584671
10
178.75777943501956
20
121.15312205584672
10
179.55707943501946
20
121.15312205584672
10
179.55707943501946
20
126.9535220558467
10
178.75777943501956
20
126.9535220558467
10
178.75777943501956
20
130.05262205584674
10
179.55707943501946
20
130.05262205584674
0
LWPOLYLINE
5
217
100
AcDbEntity
8
0
100
AcDbPolyline
90
20
70
1
43
0.0
10
-64.042404538900513
20
66.071915098645604
10
-64.827706285658621
20
66.22456229494685
10
-65.934474782440745
20
60.530731980077014
10
-65.149173035682608
20
60.378084783775776
10
-65.740776325847591
20
57.334549701496293
10
-66.526078072605713
20
57.487196897797531
10
-66.71671533988642
20
56.506453178814972
10
-80.459495908153713
20
59.177779114086597
10
-80.26885864087302
20
60.158522833069142
10
-81.054160387631157
20
60.311170029370388
10
-80.462557097466188
20
63.354705111649857
10
-79.677255350708023
20
63.202057915348639
10
-78.570486853925928
20
68.895888230218461
10
-79.355788600684065
20
69.048535426519692
10
-78.764433362213111
20
72.090794393460669
10
-77.979131615454946
20
71.938147197159452
10
-77.788246296480267
20
72.920167031480503
10
-64.04546572821296
20
70.248841096208864
10
-64.23635104718764
20
69.266821261887827
10
-63.451049300429503
20
69.114174065586582
0
LINE
5
218
100
AcDbEntity
8
0
100
AcDbLine
10
220.13197943501964
20
101.73942205584673
30
0
11
220.59657943501952
21
101.66642205584672
31
0
0
LINE
5
219
100
AcDbEntity
8
0
100
AcDbLine
10
220.59657943501952
20
165.72562205584674
30
0
11
220.13197943501964
21
165.65262205584671
31
0
0
LINE
5
220
100
AcDbEntity
8
0
100
AcDbLine
10
220.59657943501952
20
31.900492055846712
30
0
11
220.13197943501964
21
31.827462055846716
31
0
0
LINE
5
221
100
AcDbEntity
8
0
100
AcDbLine
10
221.01387943501959
20
34.542202055846715
30
0
11
221.34627943501957
21
34.210092055846715
31
0
0
LINE
5
222
100
AcDbEntity
8
0
100
AcDbLine
10
221.63267943501961
20
100.24012205584671
30
0
11
221.55967943501963
21
100.70442205584671
31
0
0
LINE
5
223
100
AcDbEntity
8
0
100
AcDbLine
10
221.34627943501957
20
99.359622055846728
30
0
11
221.55967943501963
21
99.777322055846724
31
0
0
LINE
5
224
100
AcDbEntity
8
0
100
AcDbLine
10
158.11878082920413
20
34.754432055846713
30
0
11
157.65438082920411
21
34.827452055846713
31
0
0
LINE
5
225
100
AcDbEntity
8
0
100
AcDbLine
10
157.65438082920411
20
34.827452055846713
30
0
11
157.19136082920411
21
34.754432055846713
31
0
0
LINE
5
226
100
AcDbEntity
8
0
100
AcDbLine
10
157.19136082920411
20
34.754432055846713
30
0
11
156.77243082920413
21
34.542202055846715
31
0
0
LWPOLYLINE
5
227
100
AcDbEntity
8
0
100
AcDbPolyline
90
20
70
1
43
0.0
10
75.768913427461342
20
54.641720896914386
10
75.177558188990346
20
57.683979863855413
10
75.963645237495228
20
57.836779707352939
10
75.772759918520521
20
58.818799541673982
10
89.514755185041096
20
61.489972829749306
10
89.70564050401579
20
60.507952995428262
10
90.491727552520715
20
60.660752838925802
10
91.083082790991654
20
57.618493871984803
10
90.296995742486757
20
57.465694028487263
10
91.403764239268881
20
51.771863713617449
10
92.189851287773763
20
51.924663557114982
10
92.781435497039197
20
48.881226637553823
10
91.995348448534315
20
48.72842679405629
10
92.185985715815065
20
47.747683075073738
10
78.443990449294446
20
45.076509786998422
10
78.253353182013768
20
46.057253505980967
10
77.467266133508872
20
45.904453662483427
10
76.875681924243452
20
48.947890582044586
10
77.661768972748348
20
49.100690425542112
10
76.555000475966239
20
54.79452074041194
0
LWPOLYLINE
5
228
100
AcDbEntity
8
0
100
AcDbPolyline
90
20
70
1
43
0.0
10
89.857751300848619
20
138.80134727409961
10
90.449449995511287
20
135.75732137822843
10
89.663166621569687
20
135.60448337293178
10
89.853784807950859
20
134.62383781666756
10
76.111887704148671
20
131.95268360949177
10
75.921269517767541
20
132.93332916575599
10
75.136556747319446
20
132.78079645485201
10
74.544858052656764
20
135.82482235072314
10
75.329570823104859
20
135.97735506162718
10
74.222878649920901
20
141.67079272562361
10
73.438165879472805
20
141.51826001471966
10
72.846848802800906
20
144.560322656224
10
73.631561573248987
20
144.71285536712799
10
73.44056176887706
20
145.69546417775911
10
87.182458872679248
20
148.3666183849349
10
87.373458677051147
20
147.38400957430378
10
88.159742050992733
20
147.53684757960042
10
88.751059127664661
20
144.49478493809602
10
87.964775753723075
20
144.34194693279943
10
89.071467926907019
20
138.64850926880294
0
LWPOLYLINE
5
229
100
AcDbEntity
8
0
100
AcDbPolyline
90
20
70
1
43
0.0
10
86.919833759645883
20
99.798677278686583
10
87.110719078620605
20
98.816657444365546
10
87.897002452562148
20
98.969495449662134
10
88.488357691033158
20
95.927236482721113
10
87.702074317091586
20
95.774398477424526
10
88.808842813873696
20
90.080568162554684
10
89.595126187815254
20
90.233406167851328
10
90.186729477980222
20
87.189871085571809
10
89.400446104038664
20
87.037033080275194
10
89.591083371319357
20
86.056289361292642
10
75.849186267517169
20
83.385135154116838
10
75.658549000236448
20
84.36587887309939
10
74.873836229788381
20
84.213346162195393
10
74.282232939623398
20
87.256881244474869
10
75.066945710071451
20
87.409413955378909
10
73.96017721328937
20
93.103244270248723
10
73.175464442841317
20
92.950711559344711
10
72.584109204370293
20
95.992970526285731
10
73.368821974818417
20
96.145503237189729
10
73.177936655843723
20
97.12752307151078
0
LWPOLYLINE
5
230
100
AcDbEntity
8
0
100
AcDbPolyline
90
20
70
1
43
0.0
10
23.102573419193568
20
53.725679203795345
10
9.3589093864611606
20
51.054181540427862
10
9.1682721191804522
20
52.034925259410429
10
8.3836575114507461
20
51.882411629405958
10
7.7920542212857677
20
54.925946711685441
10
8.5766688290154836
20
55.078460341689919
10
7.4699003322333732
20
60.772290656559747
10
6.6852857245036557
20
60.619777026555262
10
6.0939304860326704
20
63.662035993496254
10
6.8785450937623871
20
63.814549623500731
10
6.6876597747876954
20
64.796569457821789
10
20.431323807520076
20
67.468067121189236
10
20.622209126494774
20
66.4860472868682
10
21.406725571506172
20
66.638541835973129
10
21.998080809977147
20
63.596282869032152
10
21.213564364965784
20
63.443788319927215
10
22.320332861747879
20
57.749958005057387
10
23.104849306759267
20
57.902452554162309
10
23.696452596924239
20
54.858917471882826
10
22.911936151912865
20
54.70642292277789
0
LWPOLYLINE
5
231
100
AcDbEntity
8
0
100
AcDbPolyline
90
20
70
1
43
0.0
10
19.403355710018612
20
101.90502547976848
10
18.617268661513734
20
101.75222563627095
10
19.72403715829584
20
96.058395321401093
10
20.510124206800718
20
96.211195164898641
10
21.101727496965719
20
93.16766008261915
10
20.31564044846084
20
93.014860239121646
10
20.506277715741547
20
92.034116520139065
10
6.7640861237843097
20
89.362905070264674
10
6.5734488565036031
20
90.343648789247226
10
5.7888342487738775
20
90.191135159242762
10
5.1972309586089072
20
93.23467024152221
10
5.9818455663386159
20
93.387183871526702
10
4.8750770695565215
20
99.08101418639653
10
4.0904624618267968
20
98.928500556392038
10
3.4991263042553467
20
101.97066136061473
10
4.2837409119850554
20
102.12317499061922
10
4.092741107613147
20
103.10578380125031
10
17.834932699570363
20
105.77699525112472
10
18.025932503942297
20
104.7943864404936
10
18.812019552447175
20
104.94718628399113
0
LWPOLYLINE
5
232
100
AcDbEntity
8
0
100
AcDbPolyline
90
20
70
1
43
0.0
10
-0.25523148877355517
20
121.28515782213093
10
0.52938311895617041
20
121.43767145213545
10
-0.57730905422778811
20
127.13110911613188
10
-1.3619236619575137
20
126.97859548612742
10
-1.9532407386294268
20
130.02065812763172
10
-1.1686261308997103
20
130.1731717576362
10
-1.3596259352716178
20
131.15578056826729
10
12.382565656685607
20
133.82699201814171
10
12.573565461057525
20
132.84438320751059
10
13.359652509562405
20
132.99718305100814
10
13.950969586234319
20
129.95512040950382
10
13.164882537729437
20
129.80232056600624
10
14.271574710913395
20
124.1088829020098
10
15.057661759418277
20
124.26168274550733
10
15.649360454080947
20
121.21765684963617
10
14.863273405576065
20
121.0648570061386
10
15.053891591957242
20
120.0842114498744
10
1.3117000000000092
20
117.41300000000001
10
1.1210818136188383
20
118.39364555626425
10
0.3364672058891216
20
118.24113192625973
0
LWPOLYLINE
5
233
100
AcDbEntity
8
0
100
AcDbPolyline
90
20
70
1
43
0.0
10
34.391734018486687
20
49.756018753156262
10
34.983089256957655
20
46.713759786215256
10
34.197002208452773
20
46.560959942717723
10
35.303770705234911
20
40.867129627847902
10
36.089857753739793
20
41.019929471345442
10
36.681441963005227
20
37.97649255178429
10
35.895354914500345
20
37.823692708286757
10
36.085992181781052
20
36.842948989304212
10
22.3438005898238
20
34.171737539429813
10
22.15316332254309
20
35.152481258412358
10
21.367272599474894
20
34.9997195767139
10
20.775688390209464
20
38.043156496275039
10
21.561579113277656
20
38.195918177973496
10
20.454810616495553
20
43.889748492843324
10
19.668919893427361
20
43.73698681114486
10
19.077564654956358
20
46.779245778085858
10
19.86345537802455
20
46.93200745978433
10
19.672570059049868
20
47.914027294105367
10
33.414761651007097
20
50.585238743979772
10
33.605646969981805
20
49.603218909658729
0
LWPOLYLINE
5
234
100
AcDbEntity
8
0
100
AcDbPolyline
90
20
70
1
43
0.0
10
16.746855268766918
20
133.65558857045446
10
17.531568039214974
20
133.80812128135852
10
17.340568234843055
20
134.79073009198953
10
31.082563501363616
20
137.46190338006488
10
31.273563305735532
20
136.47929456943382
10
32.059650354240397
20
136.63209441293131
10
32.650967430912331
20
133.59003177142699
10
31.864880382407449
20
133.43723192792945
10
32.971572555591415
20
127.74379426393301
10
33.75765960409629
20
127.89659410743053
10
34.349358298758958
20
124.85256821155936
10
33.563271250254076
20
124.69976836806181
10
33.753889436635248
20
123.7191228117976
10
20.01189417011469
20
121.04794952372224
10
19.821275983733511
20
122.02859507998647
10
19.03656321328544
20
121.87606236908245
10
18.44486451862279
20
124.92008826495365
10
19.229577289070846
20
125.07262097585766
10
18.122885115886888
20
130.76605863985412
10
17.338172345438831
20
130.61352592895014
0
LWPOLYLINE
5
235
100
AcDbEntity
8
0
100
AcDbPolyline
90
20
70
1
43
0.0
10
17.077746796372981
20
86.222750823942164
10
30.819938388330232
20
88.893962273816541
10
31.010823707304933
20
87.911942439495505
10
31.796910755809812
20
88.064742282993066
10
32.388265994280786
20
85.022483316052032
10
31.602178945775936
20
84.869683472554541
10
32.708947442558042
20
79.175853157684713
10
33.495034491062881
20
79.328653001182218
10
34.086637781227878
20
76.285117918902728
10
33.300550732722996
20
76.132318075405223
10
33.491188000003703
20
75.151574356422643
10
19.748996408046477
20
72.480362906548223
10
19.558359140765766
20
73.461106625530789
10
18.773744533036037
20
73.308592995526297
10
18.182141242871076
20
76.352128077805816
10
18.966755850600787
20
76.504641707810293
10
17.859987353818685
20
82.198472022680122
10
17.075372746088973
20
82.04595839267563
10
16.484017507617992
20
85.088217359616621
10
17.268632115347682
20
85.240730989621113
0
LWPOLYLINE
5
236
100
AcDbEntity
8
0
100
AcDbPolyline
90
20
70
1
43
0.0
10
41.80257126387157
20
57.36059056571851
10
28.059103556575842
20
54.689131064150118
10
27.868466289295132
20
55.66987478313267
10
27.083753518847065
20
55.517342072228658
10
26.492150228682103
20
58.560877154508155
10
27.276862999130159
20
58.713409865412167
10
26.170094502348054
20
64.407240180281988
10
25.385381731899969
20
64.254707469377976
10
24.794026493428998
20
67.296966436318968
10
25.578739263877051
20
67.44949914722298
10
25.387853944902353
20
68.431518981544031
10
39.131321652198054
20
71.102978483112409
10
39.32220697117279
20
70.120958648791373
10
40.106821578902498
20
70.27347227879585
10
40.698176817373472
20
67.231213311854845
10
39.913562209643757
20
67.078699681850381
10
41.020330706425902
20
61.384869366980546
10
41.80494531415561
20
61.537382996985031
10
42.396548604320571
20
58.493847914705547
10
41.611933996590821
20
58.34133428470107
0
LINE
5
237
100
AcDbEntity
8
0
100
AcDbLine
10
218.70567943501956
20
100.70442205584671
30
0
11
218.63267943501961
21
100.24012205584671
31
0
0
LINE
5
238
100
AcDbEntity
8
0
100
AcDbLine
10
218.70567943501956
20
99.777322055846724
30
0
11
218.91807943501959
21
99.359622055846728
31
0
0
LINE
5
239
100
AcDbEntity
8
0
100
AcDbLine
10
219.66767943501964
20
98.813822055846714
30
0
11
220.13197943501964
21
98.739422055846717
31
0
0
LINE
5
240
100
AcDbEntity
8
0
100
AcDbLine
10
219.25007943501956
20
99.02762205584672
30
0
11
219.66767943501964
21
98.813822055846714
31
0
0
LWPOLYLINE
5
241
100
AcDbEntity
8
0
100
AcDbPolyline
90
20
70
1
43
0.0
10
-120.928092470566
20
77.12937270431452
10
-122.03486096734814
20
71.435542389444691
10
-121.24877391884324
20
71.282742545947158
10
-121.8403772090082
20
68.239207463667668
10
-122.62646425751313
20
68.392007307165201
10
-122.8171015247938
20
67.411263588182649
10
-136.55909679131435
20
70.082436876257972
10
-136.36845952403365
20
71.063180595240539
10
-137.15454657253849
20
71.215980438738058
10
-136.56294328237354
20
74.259515521017548
10
-135.7768562338687
20
74.106715677520015
10
-134.67008773708656
20
79.800545992389843
10
-135.45617478559143
20
79.953345835887376
10
-134.86481954712045
20
82.995604802828339
10
-134.07873249861558
20
82.84280495933082
10
-133.88784717964086
20
83.824824793651871
10
-120.14585191312037
20
81.153651505576562
10
-120.33673723209505
20
80.171631671255511
10
-119.55065018359016
20
80.018831827757992
10
-120.14200542206112
20
76.976572860816987
0
LWPOLYLINE
5
242
100
AcDbEntity
8
0
100
AcDbPolyline
90
20
70
1
43
0.0
10
-136.90734373279815
20
32.354924868205444
10
-137.09798100007887
20
31.374181149222878
10
-150.84144870737458
20
34.04564065079127
10
-150.65081144009389
20
35.026384369773844
10
-151.43552421054198
20
35.178917080677856
10
-150.84392092037697
20
38.222452162957332
10
-150.05920814992891
20
38.06991945205332
10
-148.95247781494587
20
43.763553441486451
10
-149.7371905853939
20
43.91608615239047
10
-149.14583534692298
20
46.958345119331462
10
-148.36112257647488
20
46.805812408427457
10
-148.17021817660066
20
47.787930405466852
10
-134.42675046930498
20
45.11647090389846
10
-134.6176548691792
20
44.134352906859064
10
-133.83294209873111
20
43.981820195955059
10
-134.42429733720212
20
40.93956122901406
10
-135.20901010765016
20
41.092093939918072
10
-136.3157404426332
20
35.398459950484934
10
-135.53102767218513
20
35.245927239580922
10
-136.12263096235012
20
32.202392157301432
0
LWPOLYLINE
5
243
100
AcDbEntity
8
0
100
AcDbPolyline
90
52
70
1
43
0.0
10
-161.82120399762422
20
56.635108883050229
10
-162.58137608848602
20
56.782871369069817
10
-162.7341377701845
20
55.996980646001617
10
-164.42773914978676
20
56.326183405724777
10
-164.6146938034567
20
55.364385091382751
10
-167.85455432242574
20
55.994150180623038
10
-167.66759966875583
20
56.95594849496505
10
-169.26244935370329
20
57.265955869753341
10
-168.06607695269233
20
63.420758309970182
10
-168.92500073820895
20
63.587716180924652
10
-168.39067830845605
20
66.336566782733144
10
-167.53175452293934
20
66.169608911778681
10
-166.9154223869736
20
69.340362877032959
10
-165.32057270202611
20
69.030355502244703
10
-165.14495210268151
20
69.933845161889934
10
-161.90509158371253
20
69.304080072649654
10
-162.08071218305716
20
68.400590413004409
10
-160.38711080345485
20
68.071387653281249
10
-160.53964351435891
20
67.286674882833211
10
-159.77947142349703
20
67.138912396813609
10
-159.53727756566559
20
68.384891780763738
10
-158.75138684259738
20
68.232130099065259
10
-158.56050152362263
20
69.214149933386309
10
-144.81821176894709
20
66.54291940261237
10
-145.00909708792182
20
65.560899568291333
10
-144.22301003941692
20
65.408099724793772
10
-144.46520389724839
20
64.162120340843657
10
-143.7051299691048
20
64.014376935723604
10
-143.55259725820082
20
64.799089706171671
10
-141.85879955316184
20
64.469848784649443
10
-141.68317895381728
20
65.373338444294674
10
-138.44361292300331
20
64.743630597752997
10
-138.61923352234786
20
63.84014093810778
10
-137.02418751196376
20
63.530095401520406
10
-137.64051964792955
20
60.359341436266121
10
-136.7816940251312
20
60.192402646211185
10
-137.31601645488414
20
57.443552044402686
10
-138.17484207768248
20
57.610490834457622
10
-139.37121447869342
20
51.455688394240788
10
-140.96626048907754
20
51.765733930828119
10
-141.15321514274746
20
50.8039356164861
10
-144.39278117356139
20
51.433643463027785
10
-144.2058265198915
20
52.395441777369804
10
-145.89962422493048
20
52.724682698892025
10
-145.746862543232
20
53.510573421960217
10
-146.50693647137552
20
53.658316827080284
10
-146.51271798393543
20
53.628573523421821
10
-147.29880503244033
20
53.781373366919354
10
-147.48944229972102
20
52.800629647936795
10
-161.23173205439659
20
55.471860178710756
10
-161.0410947871159
20
56.452603897693301
10
-161.8269855101841
20
56.605365579391759
0
LWPOLYLINE
5
244
100
AcDbEntity
8
0
100
AcDbPolyline
90
20
70
1
43
0.0
10
-135.90353336830992
20
102.60406335539365
10
-135.11882059786188
20
102.45153064448964
10
-134.92793527888719
20
103.43355047881069
10
-121.18594001236666
20
100.76237719073538
10
-121.37682533134138
20
99.780357356414285
10
-120.59073828283647
20
99.627557512916795
10
-121.18209352130745
20
96.58529854597576
10
-121.96818056981232
20
96.738098389473279
10
-123.07494906659443
20
91.04426807460348
10
-122.28886201808956
20
90.891468231105947
10
-122.88046530825454
20
87.847933148826456
10
-123.66655235675942
20
88.000732992323975
10
-123.85718962404013
20
87.019989273341437
10
-137.59918489056065
20
89.69116256141676
10
-137.40854762327996
20
90.671906280399298
10
-138.193260393728
20
90.82443899130331
10
-137.60165710356304
20
93.867974073582801
10
-136.81694433311498
20
93.715441362678789
10
-135.71017583633287
20
99.409271677548645
10
-136.49488860678093
20
99.561804388452657
0
LWPOLYLINE
5
245
100
AcDbEntity
8
0
100
AcDbPolyline
90
20
70
1
43
0.0
10
-118.97127029613301
20
135.60444521113277
10
-119.75598306658108
20
135.75697792203675
10
-119.16428437191843
20
138.80100381790794
10
-118.37957160147036
20
138.64847110700393
10
-117.2728794282864
20
144.34190877100039
10
-118.05759219873451
20
144.4944414819044
10
-117.46627512206257
20
147.53650412340872
10
-116.68156235161447
20
147.38397141250471
10
-116.49056254724258
20
148.36658022313583
10
-102.74856728072201
20
145.69540693506048
10
-102.93956708509391
20
144.71279812442938
10
-102.1533818738707
20
144.5599792000323
10
-102.74469895054266
20
141.51791655852801
10
-103.5308841617659
20
141.67073548292504
10
-104.6375763349498
20
135.97729781892861
10
-103.85139112372661
20
135.82447889453152
10
-104.44308981838923
20
132.78045299866034
10
-105.2292750296125
20
132.93327192305742
10
-105.41989321599365
20
131.9526263667932
10
-119.16188848251423
20
134.62379965486855
0
LWPOLYLINE
5
246
100
AcDbEntity
8
0
100
AcDbPolyline
90
20
70
1
43
0.0
10
-145.60083185024442
20
124.91521381099032
10
-145.79183165461637
20
123.93260500035922
10
-145.00594093154817
20
123.77984331866074
10
-145.59727708911959
20
120.73768251443809
10
-146.38316781218779
20
120.89044419613657
10
-147.4899363089699
20
115.19661388126673
10
-146.70404558590172
20
115.04385219956824
10
-147.29564887606674
20
112.00031711728876
10
-148.08153959913489
20
112.15307879898724
10
-148.27217686641561
20
111.17233508000469
10
-162.01446662109117
20
113.8435656107786
10
-161.82382935381045
20
114.82430932976116
10
-162.60844396154016
20
114.97682295976567
10
-162.01684067137518
20
118.02035804204513
10
-161.2322260636455
20
117.86784441204064
10
-160.12545756686342
20
123.56167472691048
10
-160.9100721745931
20
123.71418835691497
10
-160.31873601702162
20
126.75634916113763
10
-159.53412140929188
20
126.60383553113314
10
-159.34312160492001
20
127.58644434176425
0
LWPOLYLINE
5
247
100
AcDbEntity
8
0
100
AcDbPolyline
90
20
70
1
43
0.0
10
-161.31388624446157
20
164.74519486951925
10
-161.33092419410445
20
164.27480344828379
10
-161.20216080803343
20
163.82496951969731
10
-160.93951100687545
20
163.43570162742819
10
-160.56911105592431
20
163.14569779773717
10
-160.12852709410686
20
162.9856906323063
10
-159.65873037345125
20
162.9687377192451
10
-159.20802863426388
20
163.09913554857337
10
-158.81867184390413
20
163.36166619802356
10
-158.52941911017584
20
163.73024602401875
10
-158.36901451039043
20
164.17276979147957
10
-158.35234836246642
20
164.64119605025817
10
-158.48208477605991
20
165.09325654962515
10
-158.7447443934897
20
165.48252634998434
10
-159.11416150064662
20
165.77030170080474
10
-159.55610010797722
20
165.93057218264931
10
-160.02454218311965
20
165.94726177929687
10
-160.47622676610118
20
165.8190924288391
10
-160.86557374018921
20
165.55655987129896
10
-161.15385344639503
20
165.18575347452321
0
LWPOLYLINE
5
248
100
AcDbEntity
8
0
100
AcDbPolyline
90
20
70
1
43
0.0
10
-172.52220693082731
20
51.50225145432897
10
-171.7363162077591
20
51.349489772630506
10
-171.54541180788485
20
52.331607769669901
10
-157.80312205320928
20
49.660377238895954
10
-157.99402645308356
20
48.678259241856566
10
-157.20803756729697
20
48.525478479258567
10
-157.79939280576798
20
45.483219512317575
10
-158.58538169155446
20
45.636000274915574
10
-159.69211202653753
20
39.942366285482422
10
-158.90612314075099
20
39.78958552288443
10
-159.49772643091598
20
36.746050440604954
10
-160.28371531670246
20
36.898831203202953
10
-160.4743525839832
20
35.918087484220379
10
-174.21664233865874
20
38.589318014994319
10
-174.02600507137802
20
39.570061733976885
10
-174.81189579444629
20
39.72282341567535
10
-174.22029250428128
20
42.766358497954826
10
-173.43440178121313
20
42.613596816256361
10
-172.32767144623008
20
48.307230805689528
10
-173.11356216929826
20
48.459992487387979
0
LWPOLYLINE
5
249
100
AcDbEntity
8
0
100
AcDbPolyline
90
20
70
1
43
0.0
10
-144.75035019641368
20
104.32371034532521
10
-143.96583375140233
20
104.17121579622028
10
-144.55718898987328
20
101.12895682927929
10
-145.34170543488466
20
101.28145137838423
10
-146.4484739316668
20
95.587621063514405
10
-145.66395748665542
20
95.435126514409461
10
-146.25556077682037
20
92.391591432129957
10
-147.04007722183175
20
92.544085981234915
10
-147.23071448911244
20
91.56334226225232
10
-160.97437852184484
20
94.234839925619823
10
-160.78374125456412
20
95.215583644602361
10
-161.56835586229388
20
95.368097274606853
10
-160.97675257212887
20
98.411632356886344
10
-160.19213796439914
20
98.25911872688188
10
-159.08536946761706
20
103.95294904175171
10
-159.86998407534682
20
104.10546267175617
10
-159.27862883687578
20
107.14772163869716
10
-158.4940142291461
20
106.99520800869269
10
-158.30312891017138
20
107.97722784301372
10
-144.55946487743896
20
105.30573017964628
0
LWPOLYLINE
5
250
100
AcDbEntity
8
0
100
AcDbPolyline
90
20
70
1
43
0.0
10
-173.92130310682944
20
99.502919050236386
10
-174.08158395659001
20
99.061084329893987
10
-174.09820212644314
20
98.592852488462057
10
-173.96957230666874
20
98.142331420847242
10
-173.70692250551085
20
97.753063528578025
10
-173.33648439276058
20
97.463256024323854
10
-172.89616756353664
20
97.301874580836056
10
-172.42610371028752
20
97.286295945831739
10
-171.97544013289928
20
97.416497449723281
10
-171.58608334253952
20
97.679028099173451
10
-171.29669704251444
20
98.048295064197134
10
-171.13671222251884
20
98.488659251854301
10
-171.11979802290085
20
98.958361625971435
10
-171.24978248818834
20
99.409146009999901
10
-171.5124611865177
20
99.798317647640715
10
-171.8818019700764
20
100.08648564933452
10
-172.32374057740702
20
100.24675613117905
10
-172.79218265254943
20
100.26344572782664
10
-173.24394355912915
20
100.13488372649545
10
-173.63327145231762
20
99.872449331673678
0
LWPOLYLINE
5
251
100
AcDbEntity
8
0
100
AcDbPolyline
90
20
70
1
43
0.0
10
-141.61873817234363
20
123.12143779921443
10
-140.83412356461398
20
122.96892416920997
10
-140.64312376024202
20
123.95153297984109
10
-126.9009321682848
20
121.28032152996667
10
-127.09193197265671
20
120.29771271933555
10
-126.30584492415181
20
120.14491287583802
10
-126.89718108172329
20
117.10275207161537
10
-127.68326813022817
20
117.25555191511289
10
-128.79003662701029
20
111.56172160024305
10
-128.0039495785054
20
111.40892175674551
10
-128.59555286867038
20
108.36538667446604
10
-129.38163991717522
20
108.51818651796358
10
-129.57227718445594
20
107.53744279898102
10
-143.31446877641321
20
110.20865424885544
10
-143.12383150913246
20
111.189397967838
10
-143.90844611686219
20
111.3419115978425
10
-143.31684282669721
20
114.38544668012197
10
-142.53222821896748
20
114.23293305011751
10
-141.42545972218539
20
119.92676336498732
10
-142.21007432991507
20
120.07927699499177
0
LWPOLYLINE
5
252
100
AcDbEntity
8
0
100
AcDbPolyline
90
20
70
1
43
0.0
10
-146.96132003663473
20
76.280755209041303
10
-147.55292332679966
20
73.237220126761798
10
-148.33753793452934
20
73.389733756766304
10
-148.52817520181006
20
72.408990037783695
10
-162.27183923454245
20
75.080487701151185
10
-162.08120196726171
20
76.061231420133737
10
-162.86571841227311
20
76.213725969238695
10
-162.27411512210819
20
79.257261051518185
10
-161.48959867709678
20
79.104766502413213
10
-160.38283018031461
20
84.798596817283055
10
-161.16734662532605
20
84.951091366388013
10
-160.57599138685509
20
87.993350333329005
10
-159.79147494184366
20
87.840855784224047
10
-159.60058962286897
20
88.822875618545098
10
-145.8569255901366
20
86.151377955177651
10
-146.04781090911129
20
85.1693581208566
10
-145.26319630138158
20
85.016844490852094
10
-145.85455153985254
20
81.974585523911102
10
-146.63916614758227
20
82.12709915391558
10
-147.74593464436438
20
76.433268839045766
0
LINE
5
253
100
AcDbEntity
8
0
100
AcDbLine
10
221.01387943501959
20
168.36762205584674
30
0
11
221.34627943501957
21
168.03562205584669
31
0
0
LINE
5
254
100
AcDbEntity
8
0
100
AcDbLine
10
219.25007943501956
20
99.02762205584672
30
0
11
218.91807943501959
21
99.359622055846728
31
0
0
LINE
5
255
100
AcDbEntity
8
0
100
AcDbLine
10
219.66767943501964
20
165.72562205584674
30
0
11
219.25007943501956
21
165.93962205584674
31
0
0
LINE
5
256
100
AcDbEntity
8
0
100
AcDbLine
10
221.01387943501959
20
165.93962205584674
30
0
11
220.59657943501952
21
165.72562205584674
31
0
0
LINE
5
257
100
AcDbEntity
8
0
100
AcDbLine
10
219.25007943501956
20
165.93962205584674
30
0
11
218.91807943501959
21
166.27162205584676
31
0
0
LINE
5
258
100
AcDbEntity
8
0
100
AcDbLine
10
218.70567943501956
20
99.777322055846724
30
0
11
218.63267943501961
21
100.24012205584671
31
0
0
LINE
5
259
100
AcDbEntity
8
0
100
AcDbLine
10
221.34627943501957
20
166.27162205584676
30
0
11
221.01387943501959
21
165.93962205584674
31
0
0
LINE
5
260
100
AcDbEntity
8
0
100
AcDbLine
10
218.91807943501959
20
101.12212205584672
30
0
11
219.25007943501956
21
101.45402205584672
31
0
0
LINE
5
261
100
AcDbEntity
8
0
100
AcDbLine
10
219.66767943501964
20
34.754432055846713
30
0
11
220.13197943501964
21
34.827452055846713
31
0
0
LINE
5
262
100
AcDbEntity
8
0
100
AcDbLine
10
220.13197943501964
20
168.65262205584671
30
0
11
220.59657943501952
21
168.5796220558467
31
0
0
LINE
5
263
100
AcDbEntity
8
0
100
AcDbLine
10
218.91807943501959
20
32.446202055846712
30
0
11
218.70567943501956
21
32.86375205584671
31
0
0
LINE
5
264
100
AcDbEntity
8
0
100
AcDbLine
10
220.13197943501964
20
165.65262205584671
30
0
11
219.66767943501964
21
165.72562205584674
31
0
0
LINE
5
265
100
AcDbEntity
8
0
100
AcDbLine
10
219.66767943501964
20
101.66642205584672
30
0
11
220.13197943501964
21
101.73942205584673
31
0
0
LINE
5
266
100
AcDbEntity
8
0
100
AcDbLine
10
220.13197943501964
20
34.827452055846713
30
0
11
220.59657943501952
21
34.754432055846713
31
0
0
LINE
5
267
100
AcDbEntity
8
0
100
AcDbLine
10
221.63267943501961
20
33.328152055846715
30
0
11
221.55967943501963
21
32.86375205584671
31
0
0
LINE
5
268
100
AcDbEntity
8
0
100
AcDbLine
10
220.59657943501952
20
98.813822055846714
30
0
11
220.13197943501964
21
98.739422055846717
31
0
0
LINE
5
269
100
AcDbEntity
8
0
100
AcDbLine
10
221.01387943501959
20
99.02762205584672
30
0
11
220.59657943501952
21
98.813822055846714
31
0
0
LINE
5
270
100
AcDbEntity
8
0
100
AcDbLine
10
221.63267943501961
20
167.15362205584668
30
0
11
221.55967943501963
21
166.68862205584674
31
0
0
LINE
5
271
100
AcDbEntity
8
0
100
AcDbLine
10
218.91807943501959
20
34.210092055846715
30
0
11
219.25007943501956
21
34.542202055846715
31
0
0
LWPOLYLINE
5
272
100
AcDbEntity
8
0
100
AcDbPolyline
90
20
70
1
43
0.0
10
-107.60574891675546
20
116.50998243301531
10
-108.19708507432694
20
113.46782162879265
10
-108.98327028555016
20
113.6206405531897
10
-110.0900387823323
20
107.92681023831989
10
-109.30385357110906
20
107.77399131392286
10
-109.895456861274
20
104.73045623164337
10
-110.68164207249724
20
104.88327515604041
10
-110.87227933977793
20
103.90253143705785
10
-124.61427460629849
20
106.57370472513321
10
-124.42363733901779
20
107.55444844411574
10
-125.20835010946584
20
107.70698115501978
10
-124.6167468193009
20
110.75051623729921
10
-123.8320340488528
20
110.59798352639521
10
-122.72526555207071
20
116.29181384126505
10
-123.50997832251879
20
116.44434655216905
10
-122.9186421649473
20
119.48650735639171
10
-122.13392939449923
20
119.33397464548773
10
-121.94292959012733
20
120.31658345611881
10
-108.2009343236068
20
117.6454101680435
10
-108.39193412797869
20
116.66280135741239
0
LWPOLYLINE
5
273
100
AcDbEntity
8
0
100
AcDbPolyline
90
20
70
1
43
0.0
10
-104.02526770739271
20
112.65690247934188
10
-104.80998047784077
20
112.80943519024589
10
-104.21864432026929
20
115.85159599446855
10
-103.43393154982124
20
115.69906328356453
10
-103.24293174544933
20
116.68167209419565
10
-89.500936478928779
20
114.0104988061203
10
-89.691936283300734
20
113.0278899954892
10
-88.905751072077493
20
112.87507107109214
10
-89.49708722964894
20
109.83291026686943
10
-90.283272440872153
20
109.98572919126651
10
-91.390040937654234
20
104.29189887639673
10
-90.603855726431007
20
104.13907995199965
10
-91.19545901659599
20
101.09554486972016
10
-91.981644227819274
20
101.24836379411725
10
-92.172281495099952
20
100.2676200751347
10
-105.91427676162048
20
102.93879336321
10
-105.72363949433979
20
103.91953708219255
10
-106.50835226478785
20
104.07206979309656
10
-105.91674897462286
20
107.11560487537605
10
-105.13203620417482
20
106.96307216447207
0
LWPOLYLINE
5
274
100
AcDbEntity
8
0
100
AcDbPolyline
90
20
70
1
43
0.0
10
-103.26818272513435
20
93.103187027550121
10
-104.37495122191646
20
87.409356712680321
10
-103.58876601069323
20
87.256537788283225
10
-104.18036930085822
20
84.213002706003763
10
-104.96655451208143
20
84.365821630400802
10
-105.15719177936217
20
83.38507791141825
10
-118.89918704588268
20
86.056251199493573
10
-118.70854977860196
20
87.03699491847614
10
-119.49326254905004
20
87.189527629380152
10
-118.90165925888505
20
90.233062711659642
10
-118.11694648843698
20
90.08053000075563
10
-117.01017799165487
20
95.774360315625444
10
-117.79489076210294
20
95.926893026529441
10
-117.20353552363196
20
98.96915199347049
10
-116.41882275318387
20
98.816619282566464
10
-116.22793743420915
20
99.798639116887529
10
-102.48594216768865
20
97.127465828812163
10
-102.67682748666334
20
96.145445994491126
10
-101.89064227544011
20
95.992627070094045
10
-102.48199751391114
20
92.950368103153068
0
LWPOLYLINE
5
275
100
AcDbEntity
8
0
100
AcDbPolyline
90
20
70
1
43
0.0
10
-130.843990149999
20
49.565081513336722
10
-130.65335288271828
20
50.545825232319288
10
-131.43806565316635
20
50.6983579432233
10
-130.8464814439009
20
53.741794862784431
10
-130.06176867345286
20
53.589262151880426
10
-128.95500017667072
20
59.283092466750247
10
-129.73971294711879
20
59.435625177654259
10
-129.14835770864781
20
62.477884144595279
10
-128.36364493819974
20
62.32535143369126
10
-128.17275961922505
20
63.307371268012304
10
-114.42929191192934
20
60.635911766443904
10
-114.62017723090405
20
59.653891932122889
10
-113.835464460456
20
59.50135922121887
10
-114.42681969892696
20
56.45910025427785
10
-115.21153246937502
20
56.611632965181862
10
-116.31830096615714
20
50.917802650312041
10
-115.53358819570906
20
50.765269939408029
10
-116.12517240497453
20
47.721833019846891
10
-116.90988517542259
20
47.874365730750903
10
-117.10052244270329
20
46.893622011768343
0
LWPOLYLINE
5
276
100
AcDbEntity
8
0
100
AcDbPolyline
90
20
70
1
43
0.0
10
-103.92646641283513
20
64.757095945242028
10
-104.11710368011583
20
63.776352226259469
10
-117.85909894663635
20
66.447525514334814
10
-117.66846167935566
20
67.428269233317351
10
-118.45454872786051
20
67.581069076814885
10
-117.86294543769556
20
70.624604159094389
10
-117.07685838919063
20
70.471804315596813
10
-115.97008989240857
20
76.16563463046667
10
-116.75617694091343
20
76.318434473964189
10
-116.16482170244242
20
79.360693440905195
10
-115.37873465393758
20
79.207893597407661
10
-115.18784933496285
20
80.189913431728712
10
-101.4458540684423
20
77.518740143653389
10
-101.63673938741702
20
76.536720309332338
10
-100.8505541761938
20
76.383901384935243
10
-101.44190941466478
20
73.341642417994265
10
-102.22809462588802
20
73.494461342391332
10
-103.33486312267013
20
67.80063102752149
10
-102.54867791144692
20
67.647812103124437
10
-103.14028120161186
20
64.604277020844961
0
LWPOLYLINE
5
277
100
AcDbEntity
8
0
100
AcDbPolyline
90
20
70
1
43
0.0
10
-126.56938484920515
20
33.526280249649346
10
-125.46265451422208
20
39.219914239082492
10
-126.24874156272699
20
39.372714082580025
10
-125.657386324256
20
42.414973049521016
10
-124.87129927575113
20
42.262173206023476
10
-124.68039487587689
20
43.244291203062886
10
-110.93830144663799
20
40.573098834088015
10
-111.12920584651222
20
39.590980837048619
10
-110.34311879800732
20
39.438180993551093
10
-110.93447403647831
20
36.39592202661008
10
-111.72056108498323
20
36.548721870107627
10
-112.82729141996626
20
30.855087880674485
10
-112.04120437146132
20
30.702288037176952
10
-112.63280766162632
20
27.658752954897466
10
-113.41889471013121
20
27.811552798394999
10
-113.60953197741193
20
26.830809079412433
10
-127.3516254066508
20
29.502001448387301
10
-127.16098813937009
20
30.48274516736987
10
-127.94707518787501
20
30.6355450108674
10
-127.35547189771003
20
33.679080093146894
0
LWPOLYLINE
5
278
100
AcDbEntity
8
0
100
AcDbPolyline
90
20
70
1
43
0.0
10
-100.271272451455
20
131.96953384920957
10
-101.05598522190307
20
132.12206656011358
10
-100.46428652724045
20
135.16609245598477
10
-99.679573756792337
20
135.01355974508076
10
-98.572881583608378
20
140.70699740907722
10
-99.357594354056459
20
140.85953011998126
10
-98.766277277384518
20
143.90159276148555
10
-97.981564506936465
20
143.74906005058153
10
-97.790564702564566
20
144.73166886121263
10
-84.048569436044033
20
142.06049557313733
10
-84.239569240415932
20
141.07788676250618
10
-83.453384029192705
20
140.92506783810913
10
-84.044701105864604
20
137.88300519660478
10
-84.830886317087845
20
138.03582412100187
10
-85.937578490271832
20
132.3423864570054
10
-85.151393279048605
20
132.18956753260835
10
-85.74309197371123
20
129.14554163673716
10
-86.529277184934443
20
129.29836056113425
10
-86.719895371315644
20
128.31771500487002
10
-100.46189063783621
20
130.98888829294538
0
LWPOLYLINE
5
279
100
AcDbEntity
8
0
100
AcDbPolyline
90
52
70
1
43
0.0
10
121.97892474711958
20
110.99334478120952
10
121.79193193165057
20
111.95533942098825
10
120.19580613136463
20
111.64508399450598
10
118.99945281125326
20
117.79978827200451
10
118.14052902573653
20
117.63283040105001
10
117.60620659598359
20
120.38168100285853
10
118.46513038150029
20
120.54863887381302
10
117.84883640733362
20
123.71919651363061
10
119.44496220761955
20
124.02945194011288
10
119.26922712287771
20
124.93353057606814
10
122.50761520107159
20
125.56300945181536
10
122.6833502858134
20
124.65893081586009
10
124.377638804444
20
124.98826714188
10
124.53009519174984
20
124.20394702230531
10
125.29085625892179
20
124.35182399372215
10
125.04871964378893
20
125.59750888951724
10
125.83402139054706
20
125.75015608581845
10
125.64302158617515
20
126.73276489644957
10
139.38482052725905
20
129.40390002272582
10
139.57582033163095
20
128.42129121209473
10
140.36210370557254
20
128.57412921739132
10
140.60424032070534
20
127.32844432159624
10
141.36401976069388
20
127.47613048401772
10
141.21156337338806
20
128.26045060359235
10
142.90585189201869
20
128.58978692961227
10
142.73011680727689
20
129.49386556556757
10
145.96948651265419
20
130.12353525031014
10
146.14522159739602
20
129.21945661435495
10
147.74036577049844
20
129.52952123184178
10
148.35665974466514
20
126.35896359202417
10
149.21558353018187
20
126.52592146297864
10
149.74990595993484
20
123.77707086117016
10
148.8909821744181
20
123.6101129902157
10
150.0873354945295
20
117.45540871271716
10
148.49219132142704
20
117.14534409523027
10
148.67918413689603
20
116.18334945545158
10
145.43981443151873
20
115.55367977070898
10
145.25282161604972
20
116.51567441048769
10
143.55853309741912
20
116.18633808446779
10
143.40580957751968
20
116.97203248209924
10
142.6460301375312
20
116.82434631967782
10
142.6518116500911
20
116.79460301601937
10
141.86552827614946
20
116.64176501072276
10
142.05616554343018
20
115.6610212917402
10
128.3143666023463
20
112.98988616546396
10
128.1237293350656
20
113.97062988444652
10
127.33842758830748
20
113.81798268814528
10
127.3326460757476
20
113.84772599180373
10
126.57188500857565
20
113.69984902038688
10
126.72460852847507
20
112.91415462275543
10
125.0303200098444
20
112.58481829673549
10
125.21731282531343
20
111.62282365695677
0
LWPOLYLINE
5
280
100
AcDbEntity
8
0
100
AcDbPolyline
90
20
70
1
43
0.0
10
125.55973774034877
20
154.80667030344674
10
126.15105481702068
20
151.76460766194239
10
125.36477144307908
20
151.61176965664578
10
126.47146361626305
20
145.91833199264934
10
127.25774699020464
20
146.07116999794599
10
127.84944568486731
20
143.02714410207474
10
127.06316231092572
20
142.87430609677816
10
127.25378049730688
20
141.89366054051391
10
113.51198155622299
20
139.22252541423768
10
113.32136336984185
20
140.2031709705019
10
112.53606162308373
20
140.05052377420066
10
111.94436292842106
20
143.09454967007187
10
112.72966467517917
20
143.24719686637309
10
111.62297250199522
20
148.94063453036958
10
110.8376707552371
20
148.7879873340683
10
110.24635367856517
20
151.83004997557262
10
111.03165542532329
20
151.98269717187387
10
110.84065562095141
20
152.96530598250499
10
124.58245456203528
20
155.63644110878118
10
124.77345436640718
20
154.65383229815012
0
LWPOLYLINE
5
281
100
AcDbEntity
8
0
100
AcDbPolyline
90
52
70
1
43
0.0
10
146.53800054385104
20
59.361311485392115
10
146.54378205641089
20
59.331568181733658
10
145.75749868246936
20
59.178730176437071
10
145.94813594975003
20
58.197986457454498
10
132.2063370086662
20
55.52685133117825
10
132.0156997413855
20
56.507595050160802
10
131.22941636744395
20
56.354757044864179
10
131.22363485488398
20
56.38450034852265
10
130.46385541489551
20
56.236814186101213
10
130.61661709659401
20
55.450923463033007
10
128.92331020514678
20
55.121777946008464
10
129.11026485881672
20
54.159979631666459
10
125.86991352625596
20
53.530119137928473
10
125.68295887258607
20
54.491917452270499
10
124.08781469948359
20
54.181852834783612
10
122.89144229847265
20
60.336655275000467
10
122.03350014013942
20
60.169888213041361
10
121.49917771038645
20
62.918738814849853
10
122.35711986871971
20
63.085505876808952
10
121.74078773275396
20
66.256259842063244
10
123.3359319058564
20
66.566324459550131
10
123.16031130651183
20
67.469814119195362
10
126.40066263907258
20
68.099674612933342
10
126.57628323841715
20
67.19618495328811
10
128.26959012986435
20
67.525330470312653
10
128.42212284076845
20
66.740617699864572
10
129.18190228075684
20
66.888303862286023
10
128.93970842292541
20
68.134283246236151
10
129.72599179686705
20
68.287121251532767
10
129.5351064778923
20
69.269141085853789
10
143.27690541897618
20
71.940276212130073
10
143.46779073795085
20
70.958256377809022
10
144.25407411189244
20
71.111094383105637
10
144.49626796972387
20
69.865114999155509
10
145.25702903689586
20
70.01299197057233
10
145.10449632599182
20
70.797704741020397
10
146.79780321743903
20
71.126850258044939
10
146.62218261809446
20
72.030339917690171
10
149.86155232347176
20
72.660009602432766
10
150.03717292281632
20
71.756519942787548
10
151.63231709591878
20
72.066584560274421
10
152.24864923188454
20
68.895830595020129
10
153.10757301740128
20
69.062788465974606
10
153.64189544715418
20
66.313937864166093
10
152.78297166163748
20
66.14697999321163
10
153.97934406264847
20
59.992177552994789
10
152.38419988954598
20
59.682112935507888
10
152.5711545432159
20
58.720314621165855
10
149.3317848378386
20
58.090644936423253
10
149.14483018416868
20
59.052443250765293
10
147.45152329272148
20
58.723297733740758
10
147.298761611023
20
59.509188456808957
0
LWPOLYLINE
5
282
100
AcDbEntity
8
0
100
AcDbPolyline
90
20
70
1
43
0.0
10
-112.49851389902041
20
17.471826126391626
10
-112.96713839132572
20
17.488520619842856
10
-113.40759883361129
20
17.648534337009846
10
-113.77824007669183
20
17.938187769628406
10
-114.04067447151355
20
18.32751566281685
10
-114.16949978925837
20
18.777921923883408
10
-114.15392115425398
20
19.247985777132509
10
-113.99227830244257
20
19.689647435597763
10
-113.70410839265881
20
20.058998035428356
10
-113.31493675501804
20
20.321676733757684
10
-112.86304140934635
20
20.450039420938467
10
-112.39471331328602
20
20.433392353914016
10
-111.95395647475549
20
20.273331210320251
10
-111.5834445661347
20
19.985108746812998
10
-111.32061942852957
20
19.595694713754558
10
-111.19208859893976
20
19.145345695386631
10
-111.20903960391101
20
18.675558791002874
10
-111.36931008575557
20
18.233620183672265
10
-111.65718550738426
20
17.864212341143066
10
-112.04674788780849
20
17.601619782683716
0
LWPOLYLINE
5
283
100
AcDbEntity
8
0
100
AcDbPolyline
90
20
70
1
43
0.0
10
-184.64921156062186
20
34.403857366756284
10
-184.27983833953388
20
34.11585624168363
10
-184.01719971109355
20
33.726478462334327
10
-183.88718662445683
20
33.275841322383371
10
-183.90411799688439
20
32.806050601819699
10
-184.06440811127254
20
32.36411581066902
10
-184.3537657899484
20
31.9949960897228
10
-184.74314166120769
20
31.732367277554321
10
-185.19376898488684
20
31.602352282827624
10
-185.66357142981221
20
31.61927574707331
10
-186.10414966735985
20
31.779312361319754
10
-186.4746240338192
20
32.06893335640909
10
-186.73725475407761
20
32.458299411396617
10
-186.86591319520119
20
32.90867323493395
10
-186.84898973095554
20
33.378475679859399
10
-186.68869170838545
20
33.820398746648308
10
-186.40068867522285
20
34.189781784008119
10
-186.01132071214539
20
34.452422320538375
10
-185.55959224309487
20
34.580817445248371
10
-185.09114635177255
20
34.564147481144481
0
LINE
5
284
100
AcDbEntity
8
0
100
AcDbLine
10
-173.92130310682944
20
99.502919050236386
30
0
11
-174.08158395659001
21
99.061084329893987
31
0
0
LINE
5
285
100
AcDbEntity
8
0
100
AcDbLine
10
-174.09820212644314
20
98.592852488462057
30
0
11
-173.96957230666874
21
98.142331420847242
31
0
0
LWPOLYLINE
5
286
100
AcDbEntity
8
0
100
AcDbPolyline
90
20
70
1
43
0.0
10
-86.963475287584927
20
148.83821156280908
10
-87.43209405562034
20
148.85493550507587
10
-87.872560222175792
20
149.01491977342732
10
-88.243127049748125
20
149.30495604064743
10
-88.505580525469384
20
149.69418577111756
10
-88.634510788161677
20
150.14405213723319
10
-88.618817667760055
20
150.61470496679237
10
-88.457440040452212
20
151.05500216347264
10
-88.168993457625163
20
151.42577612271918
10
-87.779842808973868
20
151.68834684205837
10
-87.327991349371089
20
151.81648375498696
10
-86.859667069490712
20
151.79981705541883
10
-86.418906414780267
20
151.63977554436877
10
-86.048350620090517
20
151.35177885511371
10
-85.785504493495907
20
150.96247280104541
10
-85.657250336949389
20
150.51070042326154
10
-85.673936117417057
20
150.0422779806627
10
-85.834321084658839
20
149.59975039702209
10
-86.122091561340113
20
149.23088244944375
10
-86.511634860864774
20
148.96838805370277
0
LINE
5
287
100
AcDbEntity
8
0
100
AcDbLine
10
-86.859667069490712
20
151.79981705541883
30
0
11
-86.418906414780267
21
151.63977554436877
31
0
0
LINE
5
288
100
AcDbEntity
8
0
100
AcDbLine
10
-161.31388624446157
20
164.74519486951925
30
0
11
-161.33092419410445
21
164.27480344828379
31
0
0
LINE
5
289
100
AcDbEntity
8
0
100
AcDbLine
10
-114.15392115425398
20
19.247985777132509
30
0
11
-113.99227830244257
21
19.689647435597763
31
0
0
LINE
5
290
100
AcDbEntity
8
0
100
AcDbLine
10
-87.43209405562034
20
148.85493550507587
30
0
11
-87.872560222175792
21
149.01491977342732
31
0
0
LINE
5
291
100
AcDbEntity
8
0
100
AcDbLine
10
-86.963475287584927
20
148.83821156280908
30
0
11
-87.43209405562034
21
148.85493550507587
31
0
0
LINE
5
292
100
AcDbEntity
8
0
100
AcDbLine
10
-88.168993457625163
20
151.42577612271918
30
0
11
-88.457440040452212
21
151.05500216347264
31
0
0
LINE
5
293
100
AcDbEntity
8
0
100
AcDbLine
10
-85.834321084658839
20
149.59975039702209
30
0
11
-85.673936117417057
21
150.0422779806627
31
0
0
LINE
5
294
100
AcDbEntity
8
0
100
AcDbLine
10
-88.634510788161677
20
150.14405213723319
30
0
11
-88.505580525469384
21
149.69418577111756
31
0
0
LINE
5
295
100
AcDbEntity
8
0
100
AcDbLine
10
-85.785504493495907
20
150.96247280104541
30
0
11
-86.048350620090517
21
151.35177885511371
31
0
0
LINE
5
296
100
AcDbEntity
8
0
100
AcDbLine
10
-186.01132071214539
20
34.452422320538375
30
0
11
-186.40068867522285
21
34.189781784008119
31
0
0
LINE
5
297
100
AcDbEntity
8
0
100
AcDbLine
10
-160.56911105592431
20
163.14569779773717
30
0
11
-160.12852709410686
21
162.9856906323063
31
0
0
LINE
5
298
100
AcDbEntity
8
0
100
AcDbLine
10
-88.168993457625163
20
151.42577612271918
30
0
11
-87.779842808973868
21
151.68834684205837
31
0
0
LINE
5
299
100
AcDbEntity
8
0
100
AcDbLine
10
-184.27983833953388
20
34.11585624168363
30
0
11
-184.01719971109355
21
33.726478462334327
31
0
0
LINE
5
300
100
AcDbEntity
8
0
100
AcDbLine
10
-183.90411799688439
20
32.806050601819699
30
0
11
-184.06440811127254
21
32.36411581066902
31
0
0
LINE
5
301
100
AcDbEntity
8
0
100
AcDbLine
10
-112.49851389902041
20
17.471826126391626
30
0
11
-112.96713839132572
21
17.488520619842856
31
0
0
LINE
5
302
100
AcDbEntity
8
0
100
AcDbLine
10
-160.86557374018921
20
165.55655987129896
30
0
11
-160.47622676610118
21
165.8190924288391
31
0
0
LINE
5
303
100
AcDbEntity
8
0
100
AcDbLine
10
-88.634510788161677
20
150.14405213723319
30
0
11
-88.618817667760055
21
150.61470496679237
31
0
0
LINE
5
304
100
AcDbEntity
8
0
100
AcDbLine
10
-86.122091561340113
20
149.23088244944375
30
0
11
-86.511634860864774
21
148.96838805370277
31
0
0
LINE
5
305
100
AcDbEntity
8
0
100
AcDbLine
10
-111.95395647475549
20
20.273331210320251
30
0
11
-111.5834445661347
21
19.985108746812998
31
0
0
LINE
5
306
100
AcDbEntity
8
0
100
AcDbLine
10
-111.36931008575557
20
18.233620183672265
30
0
11
-111.65718550738426
21
17.864212341143066
31
0
0
LINE
5
307
100
AcDbEntity
8
0
100
AcDbLine
10
-186.10414966735985
20
31.779312361319754
30
0
11
-186.4746240338192
21
32.06893335640909
31
0
0
LINE
5
308
100
AcDbEntity
8
0
100
AcDbLine
10
-111.65718550738426
20
17.864212341143066
30
0
11
-112.04674788780849
21
17.601619782683716
31
0
0
LINE
5
309
100
AcDbEntity
8
0
100
AcDbLine
10
-87.872560222175792
20
149.01491977342732
30
0
11
-88.243127049748125
21
149.30495604064743
31
0
0
LINE
5
310
100
AcDbEntity
8
0
100
AcDbLine
10
-113.77824007669183
20
17.938187769628406
30
0
11
-114.04067447151355
21
18.32751566281685
31
0
0
LINE
5
311
100
AcDbEntity
8
0
100
AcDbLine
10
-186.86591319520119
20
32.90867323493395
30
0
11
-186.84898973095554
21
33.378475679859399
31
0
0
LINE
5
312
100
AcDbEntity
8
0
100
AcDbLine
10
-185.66357142981221
20
31.61927574707331
30
0
11
-186.10414966735985
21
31.779312361319754
31
0
0
LINE
5
313
100
AcDbEntity
8
0
100
AcDbLine
10
-111.19208859893976
20
19.145345695386631
30
0
11
-111.20903960391101
21
18.675558791002874
31
0
0
LINE
5
314
100
AcDbEntity
8
0
100
AcDbLine
10
-171.11979802290085
20
98.958361625971435
30
0
11
-171.24978248818834
21
99.409146009999901
31
0
0
LINE
5
315
100
AcDbEntity
8
0
100
AcDbLine
10
-186.84898973095554
20
33.378475679859399
30
0
11
-186.68869170838545
21
33.820398746648308
31
0
0
LINE
5
316
100
AcDbEntity
8
0
100
AcDbLine
10
-112.39471331328602
20
20.433392353914016
30
0
11
-111.95395647475549
21
20.273331210320251
31
0
0
LINE
5
317
100
AcDbEntity
8
0
100
AcDbLine
10
-87.327991349371089
20
151.81648375498696
30
0
11
-86.859667069490712
21
151.79981705541883
31
0
0
LINE
5
318
100
AcDbEntity
8
0
100
AcDbLine
10
-184.74314166120769
20
31.732367277554321
30
0
11
-185.19376898488684
21
31.602352282827624
31
0
0
LINE
5
319
100
AcDbEntity
8
0
100
AcDbLine
10
-186.73725475407761
20
32.458299411396617
30
0
11
-186.86591319520119
21
32.90867323493395
31
0
0
LINE
5
320
100
AcDbEntity
8
0
100
AcDbLine
10
-186.01132071214539
20
34.452422320538375
30
0
11
-185.55959224309487
21
34.580817445248371
31
0
0
LINE
5
321
100
AcDbEntity
8
0
100
AcDbLine
10
-86.511634860864774
20
148.96838805370277
30
0
11
-86.963475287584927
21
148.83821156280908
31
0
0
LINE
5
322
100
AcDbEntity
8
0
100
AcDbLine
10
-87.779842808973868
20
151.68834684205837
30
0
11
-87.327991349371089
21
151.81648375498696
31
0
0
LWPOLYLINE
5
323
100
AcDbEntity
8
0
100
AcDbPolyline
90
20
70
1
43
0.0
10
-156.56437822399278
20
146.07084562265382
10
-155.77976361626304
20
145.91833199264934
10
-154.6730714430791
20
151.61176965664589
10
-155.4576860508088
20
151.76428328665028
10
-154.86636897413686
20
154.80634592815463
10
-154.08175436640718
20
154.65383229815015
10
-153.89075456203526
20
155.63644110878124
10
-140.14846480735969
20
152.96521057800729
10
-140.33946461173159
20
151.98260176737622
10
-139.55357388866338
20
151.82984008567774
10
-140.14489096533532
20
148.7877774441734
10
-140.9307816884035
20
148.94053912587191
10
-142.03747386158742
20
143.24710146187539
10
-141.25158313851929
20
143.09433978017697
10
-141.84328183318198
20
140.05031388430578
10
-142.62917255625013
20
140.20307556600423
10
-142.81979074263131
20
139.22243000974001
10
-156.56208049730685
20
141.89366054051396
10
-156.37146231092572
20
142.87430609677818
10
-157.15607691865543
20
143.02681972678266
0
LINE
5
324
100
AcDbEntity
8
0
100
AcDbLine
10
-88.243127049748125
20
149.30495604064743
30
0
11
-88.505580525469384
21
149.69418577111756
31
0
0
LINE
5
325
100
AcDbEntity
8
0
100
AcDbLine
10
-112.04674788780849
20
17.601619782683716
30
0
11
-112.49851389902041
21
17.471826126391626
31
0
0
LINE
5
326
100
AcDbEntity
8
0
100
AcDbLine
10
-184.01719971109355
20
33.726478462334327
30
0
11
-183.88718662445683
21
33.275841322383371
31
0
0
LINE
5
327
100
AcDbEntity
8
0
100
AcDbLine
10
-185.19376898488684
20
31.602352282827624
30
0
11
-185.66357142981221
21
31.61927574707331
31
0
0
LINE
5
328
100
AcDbEntity
8
0
100
AcDbLine
10
-184.06440811127254
20
32.36411581066902
30
0
11
-184.3537657899484
21
31.9949960897228
31
0
0
LINE
5
329
100
AcDbEntity
8
0
100
AcDbLine
10
-112.86304140934635
20
20.450039420938467
30
0
11
-112.39471331328602
21
20.433392353914016
31
0
0
LINE
5
330
100
AcDbEntity
8
0
100
AcDbLine
10
-160.47622676610118
20
165.8190924288391
30
0
11
-160.02454218311965
21
165.94726177929687
31
0
0
LINE
5
331
100
AcDbEntity
8
0
100
AcDbLine
10
-88.618817667760055
20
150.61470496679237
30
0
11
-88.457440040452212
21
151.05500216347264
31
0
0
LINE
5
332
100
AcDbEntity
8
0
100
AcDbLine
10
-85.785504493495907
20
150.96247280104541
30
0
11
-85.657250336949389
21
150.51070042326154
31
0
0
LINE
5
333
100
AcDbEntity
8
0
100
AcDbLine
10
-85.657250336949389
20
150.51070042326154
30
0
11
-85.673936117417057
21
150.0422779806627
31
0
0
LINE
5
334
100
AcDbEntity
8
0
100
AcDbLine
10
-183.88718662445683
20
33.275841322383371
30
0
11
-183.90411799688439
21
32.806050601819699
31
0
0
LINE
5
335
100
AcDbEntity
8
0
100
AcDbLine
10
-171.13671222251884
20
98.488659251854301
30
0
11
-171.29669704251444
21
98.048295064197134
31
0
0
LINE
5
336
100
AcDbEntity
8
0
100
AcDbLine
10
-172.89616756353664
20
97.301874580836056
30
0
11
-173.33648439276058
21
97.463256024323854
31
0
0
LINE
5
337
100
AcDbEntity
8
0
100
AcDbLine
10
-86.418906414780267
20
151.63977554436877
30
0
11
-86.048350620090517
21
151.35177885511371
31
0
0
LINE
5
338
100
AcDbEntity
8
0
100
AcDbLine
10
-85.834321084658839
20
149.59975039702209
30
0
11
-86.122091561340113
21
149.23088244944375
31
0
0
LINE
5
339
100
AcDbEntity
8
0
100
AcDbLine
10
-171.97544013289928
20
97.416497449723281
30
0
11
-172.42610371028752
21
97.286295945831739
31
0
0
LINE
5
340
100
AcDbEntity
8
0
100
AcDbLine
10
-111.5834445661347
20
19.985108746812998
30
0
11
-111.32061942852957
21
19.595694713754558
31
0
0
LINE
5
341
100
AcDbEntity
8
0
100
AcDbLine
10
-112.96713839132572
20
17.488520619842856
30
0
11
-113.40759883361129
21
17.648534337009846
31
0
0
LINE
5
342
100
AcDbEntity
8
0
100
AcDbLine
10
-185.09114635177255
20
34.564147481144481
30
0
11
-184.64921156062186
21
34.403857366756284
31
0
0
LINE
5
343
100
AcDbEntity
8
0
100
AcDbLine
10
-184.64921156062186
20
34.403857366756284
30
0
11
-184.27983833953388
21
34.11585624168363
31
0
0
LINE
5
344
100
AcDbEntity
8
0
100
AcDbLine
10
-158.35234836246642
20
164.64119605025817
30
0
11
-158.36901451039043
21
164.17276979147957
31
0
0
LINE
5
345
100
AcDbEntity
8
0
100
AcDbLine
10
-171.5124611865177
20
99.798317647640715
30
0
11
-171.24978248818834
21
99.409146009999901
31
0
0
LINE
5
346
100
AcDbEntity
8
0
100
AcDbLine
10
-184.3537657899484
20
31.9949960897228
30
0
11
-184.74314166120769
21
31.732367277554321
31
0
0
LINE
5
347
100
AcDbEntity
8
0
100
AcDbLine
10
-111.20903960391101
20
18.675558791002874
30
0
11
-111.36931008575557
21
18.233620183672265
31
0
0
LINE
5
348
100
AcDbEntity
8
0
100
AcDbLine
10
-111.32061942852957
20
19.595694713754558
30
0
11
-111.19208859893976
21
19.145345695386631
31
0
0
LINE
5
349
100
AcDbEntity
8
0
100
AcDbLine
10
-159.55610010797722
20
165.93057218264931
30
0
11
-159.11416150064662
21
165.77030170080474
31
0
0
LINE
5
350
100
AcDbEntity
8
0
100
AcDbLine
10
-161.15385344639503
20
165.18575347452321
30
0
11
-160.86557374018921
21
165.55655987129896
31
0
0
LINE
5
351
100
AcDbEntity
8
0
100
AcDbLine
10
-172.79218265254943
20
100.26344572782664
30
0
11
-172.32374057740702
21
100.24675613117905
31
0
0
LINE
5
352
100
AcDbEntity
8
0
100
AcDbLine
10
-171.58608334253952
20
97.679028099173451
30
0
11
-171.97544013289928
21
97.416497449723281
31
0
0
LINE
5
353
100
AcDbEntity
8
0
100
AcDbLine
10
-174.09820212644314
20
98.592852488462057
30
0
11
-174.08158395659001
21
99.061084329893987
31
0
0
LINE
5
354
100
AcDbEntity
8
0
100
AcDbLine
10
-114.16949978925837
20
18.777921923883408
30
0
11
-114.15392115425398
21
19.247985777132509
31
0
0
LINE
5
355
100
AcDbEntity
8
0
100
AcDbLine
10
-160.56911105592431
20
163.14569779773717
30
0
11
-160.93951100687545
21
163.43570162742819
31
0
0
LINE
5
356
100
AcDbEntity
8
0
100
AcDbLine
10
-158.48208477605991
20
165.09325654962515
30
0
11
-158.35234836246642
21
164.64119605025817
31
0
0
LINE
5
357
100
AcDbEntity
8
0
100
AcDbLine
10
-172.32374057740702
20
100.24675613117905
30
0
11
-171.8818019700764
21
100.08648564933452
31
0
0
LINE
5
358
100
AcDbEntity
8
0
100
AcDbLine
10
-171.8818019700764
20
100.08648564933452
30
0
11
-171.5124611865177
21
99.798317647640715
31
0
0
LINE
5
359
100
AcDbEntity
8
0
100
AcDbLine
10
-173.33648439276058
20
97.463256024323854
30
0
11
-173.70692250551085
21
97.753063528578025
31
0
0
LINE
5
360
100
AcDbEntity
8
0
100
AcDbLine
10
-158.52941911017584
20
163.73024602401875
30
0
11
-158.81867184390413
21
163.36166619802356
31
0
0
LINE
5
361
100
AcDbEntity
8
0
100
AcDbLine
10
-159.65873037345125
20
162.9687377192451
30
0
11
-160.12852709410686
21
162.9856906323063
31
0
0
LINE
5
362
100
AcDbEntity
8
0
100
AcDbLine
10
-185.55959224309487
20
34.580817445248371
30
0
11
-185.09114635177255
21
34.564147481144481
31
0
0
LINE
5
363
100
AcDbEntity
8
0
100
AcDbLine
10
-113.99227830244257
20
19.689647435597763
30
0
11
-113.70410839265881
21
20.058998035428356
31
0
0
LINE
5
364
100
AcDbEntity
8
0
100
AcDbLine
10
-158.81867184390413
20
163.36166619802356
30
0
11
-159.20802863426388
21
163.09913554857337
31
0
0
LINE
5
365
100
AcDbEntity
8
0
100
AcDbLine
10
-173.70692250551085
20
97.753063528578025
30
0
11
-173.96957230666874
21
98.142331420847242
31
0
0
LINE
5
366
100
AcDbEntity
8
0
100
AcDbLine
10
-173.92130310682944
20
99.502919050236386
30
0
11
-173.63327145231762
21
99.872449331673678
31
0
0
LINE
5
367
100
AcDbEntity
8
0
100
AcDbLine
10
-113.31493675501804
20
20.321676733757684
30
0
11
-112.86304140934635
21
20.450039420938467
31
0
0
LINE
5
368
100
AcDbEntity
8
0
100
AcDbLine
10
-159.20802863426388
20
163.09913554857337
30
0
11
-159.65873037345125
21
162.9687377192451
31
0
0
LINE
5
369
100
AcDbEntity
8
0
100
AcDbLine
10
-173.24394355912915
20
100.13488372649545
30
0
11
-172.79218265254943
21
100.26344572782664
31
0
0
LINE
5
370
100
AcDbEntity
8
0
100
AcDbLine
10
-173.63327145231762
20
99.872449331673678
30
0
11
-173.24394355912915
21
100.13488372649545
31
0
0
LINE
5
371
100
AcDbEntity
8
0
100
AcDbLine
10
-160.93951100687545
20
163.43570162742819
30
0
11
-161.20216080803343
21
163.82496951969731
31
0
0
LINE
5
372
100
AcDbEntity
8
0
100
AcDbLine
10
-161.20216080803343
20
163.82496951969731
30
0
11
-161.33092419410445
21
164.27480344828379
31
0
0
LINE
5
373
100
AcDbEntity
8
0
100
AcDbLine
10
-114.04067447151355
20
18.32751566281685
30
0
11
-114.16949978925837
21
18.777921923883408
31
0
0
LINE
5
374
100
AcDbEntity
8
0
100
AcDbLine
10
-161.31388624446157
20
164.74519486951925
30
0
11
-161.15385344639503
21
165.18575347452321
31
0
0
LINE
5
375
100
AcDbEntity
8
0
100
AcDbLine
10
-159.11416150064662
20
165.77030170080474
30
0
11
-158.7447443934897
21
165.48252634998434
31
0
0
LINE
5
376
100
AcDbEntity
8
0
100
AcDbLine
10
-171.11979802290085
20
98.958361625971435
30
0
11
-171.13671222251884
21
98.488659251854301
31
0
0
LINE
5
377
100
AcDbEntity
8
0
100
AcDbLine
10
-172.42610371028752
20
97.286295945831739
30
0
11
-172.89616756353664
21
97.301874580836056
31
0
0
LINE
5
378
100
AcDbEntity
8
0
100
AcDbLine
10
-171.29669704251444
20
98.048295064197134
30
0
11
-171.58608334253952
21
97.679028099173451
31
0
0
LINE
5
379
100
AcDbEntity
8
0
100
AcDbLine
10
-113.40759883361129
20
17.648534337009846
30
0
11
-113.77824007669183
21
17.938187769628406
31
0
0
LINE
5
380
100
AcDbEntity
8
0
100
AcDbLine
10
-160.02454218311965
20
165.94726177929687
30
0
11
-159.55610010797722
21
165.93057218264931
31
0
0
LINE
5
381
100
AcDbEntity
8
0
100
AcDbLine
10
-186.4746240338192
20
32.06893335640909
30
0
11
-186.73725475407761
21
32.458299411396617
31
0
0
LINE
5
382
100
AcDbEntity
8
0
100
AcDbLine
10
-186.68869170838545
20
33.820398746648308
30
0
11
-186.40068867522285
21
34.189781784008119
31
0
0
LINE
5
383
100
AcDbEntity
8
0
100
AcDbLine
10
-113.70410839265881
20
20.058998035428356
30
0
11
-113.31493675501804
21
20.321676733757684
31
0
0
LINE
5
384
100
AcDbEntity
8
0
100
AcDbLine
10
-158.7447443934897
20
165.48252634998434
30
0
11
-158.48208477605991
21
165.09325654962515
31
0
0
LINE
5
385
100
AcDbEntity
8
0
100
AcDbLine
10
-158.36901451039043
20
164.17276979147957
30
0
11
-158.52941911017584
21
163.73024602401875
31
0
0
LWPOLYLINE
5
386
100
AcDbEntity
8
0
100
AcDbPolyline
90
20
70
1
43
0.0
10
124.51071476797658
20
106.08648016821186
10
125.29699814191817
20
106.23931817350851
10
125.88835338038919
20
103.19705920656747
10
125.10207000644756
20
103.04422120127087
10
126.2088385032297
20
97.350390886401073
10
126.9951218771713
20
97.50322889169766
10
127.58672516733627
20
94.45969380941817
10
126.80044179339468
20
94.306855804121568
10
126.99107906067537
20
93.326112085138988
10
113.24928011959152
20
90.654976958862719
10
113.05864285231087
20
91.635720677845313
10
112.27334110555263
20
91.483073481544054
10
111.68173781538769
20
94.526608563823572
10
112.46703956214586
20
94.679255760124818
10
111.36027106536373
20
100.37308607499462
10
110.57496931860555
20
100.22043887869343
10
109.98361408013457
20
103.26269784563438
10
110.76891582689269
20
103.41534504193561
10
110.57803050791806
20
104.39736487625669
10
124.31982944900192
20
107.06850000253291
0
LWPOLYLINE
5
387
100
AcDbEntity
8
0
100
AcDbPolyline
90
20
70
1
43
0.0
10
96.998722876771936
20
120.14514184663244
10
97.784024623530058
20
120.29778904293369
10
97.593024819158174
20
121.28039785356479
10
111.33482376024202
20
123.95153297984106
10
111.52582356461393
20
122.96892416920997
10
112.31210693855552
20
123.12176217450657
10
112.90344309612699
20
120.07960137028391
10
112.11715972218536
20
119.92676336498729
10
113.2239282189675
20
114.23293305011745
10
114.01021159290913
20
114.3857710554141
10
114.60181488307407
20
111.34223597313459
10
113.81553150913248
20
111.18939796783799
10
114.00616877641319
20
110.20865424885541
10
100.26436983532932
20
107.53751912257917
10
100.07373256804867
20
108.51826284156175
10
99.28843082129049
20
108.3656156452605
10
98.696827531125493
20
111.40915072753997
10
99.482129277883601
20
111.56179792384123
10
98.375360781101506
20
117.25562823871107
10
97.590059034343369
20
117.10298104240978
0
LWPOLYLINE
5
388
100
AcDbEntity
8
0
100
AcDbPolyline
90
20
70
1
43
0.0
10
93.244365083743034
20
139.4596383081487
10
94.029666830501156
20
139.61228550444991
10
92.922974657317212
20
145.30572316844638
10
92.137672910559075
20
145.15307597214513
10
91.546355833887162
20
148.19513861364948
10
92.331657580645313
20
148.34778580995072
10
92.1406577762734
20
149.33039462058184
10
105.88245671735727
20
152.00152974685801
10
106.07345652172917
20
151.01892093622695
10
106.85973989567076
20
151.17175894152356
10
107.45105697234268
20
148.12969630001925
10
106.66477359840108
20
147.97685829472266
10
107.77146577158504
20
142.28342063072614
10
108.55774914552666
20
142.43625863602284
10
109.14944784018931
20
139.3922327401516
10
108.36316446624771
20
139.23939473485498
10
108.55378265262888
20
138.25874917859076
10
94.811983711545068
20
135.58761405231451
10
94.621365525163839
20
136.56825960857873
10
93.836063778405702
20
136.41561241227748
0
LWPOLYLINE
5
389
100
AcDbEntity
8
0
100
AcDbPolyline
90
20
70
1
43
0.0
10
89.288968954586622
20
21.348458099677924
10
89.026438305136509
20
20.959101309318115
10
88.897711150110013
20
20.508714129151105
10
88.914563992362901
20
20.038908143867815
10
89.074932636925809
20
19.596988617436747
10
89.363004383991239
20
19.227618936706609
10
89.752272276260371
20
18.964969135548657
10
90.20305666028888
20
18.834984670261182
10
90.672662779777639
20
18.851869972707792
10
91.113417710218201
20
19.011940932573388
10
91.482390187086921
20
19.301269989899815
10
91.745217232782025
20
19.69067420668641
10
91.87502417771023
20
20.141271276748334
10
91.859445542705899
20
20.611335129997453
10
91.697802690894434
20
21.052996788462686
10
91.408651153927266
20
21.422156579297909
10
91.019086865413129
20
21.684758954029096
10
90.568860285953278
20
21.81344601650202
10
90.100237701737939
20
21.796741706778956
10
89.658499236023943
20
21.63648975418981
0
LWPOLYLINE
5
390
100
AcDbEntity
8
0
100
AcDbPolyline
90
20
70
1
43
0.0
10
12.902279263816274
20
81.234791191530874
10
14.009047760598376
20
75.540960876661046
10
14.794938483666566
20
75.693722558359497
10
15.386541773831565
20
72.650187476080021
10
14.600651050763373
20
72.497425794381542
10
14.791288318044078
20
71.516682075399018
10
1.0489985633684906
20
68.845451544625064
10
0.858361296087784
20
69.82619526360763
10
0.073746688358067303
20
69.673681633603138
10
-0.51785660180691195
20
72.717216715882643
10
0.26675800592280474
20
72.86973034588712
10
-0.84001049085930646
20
78.563560660756934
10
-1.6246250985890232
20
78.411047030752442
10
-2.2159803370600084
20
81.453305997693448
10
-1.4313657293302915
20
81.605819627697954
10
-1.6222510483049923
20
82.587839462019005
10
12.120038706370586
20
85.259069992792945
10
12.310924025345287
20
84.277050158471866
10
13.096814748413479
20
84.429811840170345
10
13.688169986884466
20
81.387552873229353
0
LWPOLYLINE
5
391
100
AcDbEntity
8
0
100
AcDbPolyline
90
20
70
1
43
0.0
10
123.82001891747649
20
48.751687560214222
10
137.56181785856035
20
51.422822686490477
10
137.75272225843457
20
50.440704689451081
10
138.5390056323761
20
50.593542694747704
10
139.13036087084714
20
47.551283727806691
10
138.34407749690558
20
47.39844572251009
10
139.45080783188865
20
41.704811733076951
10
140.23709120583015
20
41.857649738373546
10
140.82869449599511
20
38.814114656094077
10
140.04241112205358
20
38.661276650797454
10
140.2330483893343
20
37.680532931814902
10
126.49124944825041
20
35.009397805538647
10
126.30061218096972
20
35.990141524521214
10
125.51432880702812
20
35.837303519224605
10
124.92272551686314
20
38.880838601504081
10
125.70900889080477
20
39.03367660680069
10
124.6022785558217
20
44.727310596233842
10
123.81599518188011
20
44.574472590937226
10
123.22463994340909
20
47.616731557878218
10
124.01092331735072
20
47.769569563174834
0
LWPOLYLINE
5
392
100
AcDbEntity
8
0
100
AcDbPolyline
90
52
70
1
43
0.0
10
148.49208312465998
20
78.332216986115583
10
148.33935960476057
20
79.117911383747071
10
147.57859853758868
20
78.970034412330264
10
147.5843800501485
20
78.940291108671815
10
146.79907830339042
20
78.787643912370584
10
146.98971557067111
20
77.806900193388003
10
133.24693500240386
20
75.135574258116378
10
133.05629773512317
20
76.116317977098944
10
132.27099598836497
20
75.963670780797699
10
132.26521447580507
20
75.993414084456163
10
131.50347178144966
20
75.845346304043971
10
131.6561953013491
20
75.059651906412483
10
129.96387003708526
20
74.730697198383297
10
130.15088193345377
20
73.768604395886229
10
126.91151222807653
20
73.138934711143634
10
126.72450033170799
20
74.101027513640702
10
125.1293561586055
20
73.790962896153815
10
123.93300283849415
20
79.945667173652311
10
123.07407905297744
20
79.778709302697862
10
122.53975662322449
20
82.527559904506347
10
123.39868040874116
20
82.69451777546081
10
122.78234827277544
20
85.865271740715087
10
124.37749244587786
20
86.175336358202003
10
124.20187184653332
20
87.078826017847234
10
127.44124155191058
20
87.708495702589829
10
127.61686215125515
20
86.805006042944598
10
129.30918741551895
20
87.13396075097377
10
129.46172012642296
20
86.349247980525718
10
130.22346282077831
20
86.49731576093788
10
129.98126896294687
20
87.743295144887981
10
130.76657070970506
20
87.895942341189226
10
130.57568539073037
20
88.877962175510291
10
144.31846595899765
20
91.549288110781916
10
144.50935127797231
20
90.567268276460865
10
145.29465302473042
20
90.719915472762125
10
145.53684688256186
20
89.473936088811982
10
146.29760794973384
20
89.621813060228831
10
146.14507523882986
20
90.406525830676884
10
147.83740050309359
20
90.735480538706071
10
147.66177990374902
20
91.638970198351302
10
150.90213123630983
20
92.268830692089239
10
151.07775183565434
20
91.365341032444022
10
152.67289600875682
20
91.675405649930923
10
153.28922814472259
20
88.504651684676617
10
154.14815193023935
20
88.671609555631079
10
154.68247435999226
20
85.922758953822594
10
153.82355057447555
20
85.755801082868132
10
155.01990389458692
20
79.601096805369593
10
153.42475972148446
20
79.29103218788272
10
153.61177161785298
20
78.328939385385652
10
150.37142028529223
20
77.699078891647687
10
150.18440838892371
20
78.661171694144741
0
LWPOLYLINE
5
393
100
AcDbEntity
8
0
100
AcDbPolyline
90
20
70
1
43
0.0
10
133.35812057239036
20
107.80624164354069
10
134.1434223191485
20
107.9588888398419
10
133.95253700017383
20
108.94090867416296
10
147.69531756844111
20
111.61223460943459
10
147.88620288741578
20
110.63021477511356
10
148.67150463417391
20
110.78286197141477
10
149.2628598726449
20
107.74060300447377
10
148.47755812588682
20
107.58795580817251
10
149.58432662266893
20
101.89412549330272
10
150.36962836942701
20
102.04677268960396
10
150.96123165959204
20
99.003237607324422
10
150.17592991283388
20
98.850590411023234
10
150.3665671801146
20
97.869846692040653
10
136.62378661184729
20
95.198520756769014
10
136.43314934456663
20
96.179264475751594
10
135.64784759780846
20
96.026617279450363
10
135.05624430764351
20
99.070152361729868
10
135.84154605440159
20
99.222799558031085
10
134.73477755761951
20
104.91662987290091
10
133.94947581086137
20
104.76398267659971
0
LWPOLYLINE
5
394
100
AcDbEntity
8
0
100
AcDbPolyline
90
20
70
1
43
0.0
10
-63.6564803461388
20
124.85233924076493
10
-63.064781651476139
20
127.89636513663609
10
-62.279479904718009
20
127.74371794033485
10
-61.172787731534051
20
133.43715560433134
10
-61.958089478292173
20
133.58980280063258
10
-61.36677240162026
20
136.6318654421369
10
-60.581470654862137
20
136.47921824583565
10
-60.39047085049021
20
137.46182705646672
10
-46.648671909406367
20
134.79069193019052
10
-46.839671713778294
20
133.8080831195594
10
-46.053388339836722
20
133.65524511426281
10
-46.644705416508636
20
130.61318247275844
10
-47.430988790450222
20
130.76602047805503
10
-48.537680963634173
20
125.07258281405861
10
-47.751397589692594
20
124.91974480876198
10
-48.343096284355269
20
121.8757189128908
10
-49.129379658296834
20
122.02855691818743
10
-49.319997844677999
20
121.0479113619232
10
-63.06179678576185
20
123.71904648819944
10
-62.871178599380677
20
124.69969204446366
0
LWPOLYLINE
5
395
100
AcDbEntity
8
0
100
AcDbPolyline
90
20
70
1
43
0.0
10
-66.819139444505026
20
108.58186867511989
10
-66.03383769774689
20
108.42922147881865
10
-65.842837893374977
20
109.41183028944974
10
-52.101038952291148
20
106.74069516317348
10
-52.292038756663075
20
105.75808635254241
10
-51.505755382721496
20
105.60524834724578
10
-52.097091540292944
20
102.5630875430231
10
-52.883374914234523
20
102.71592554831972
10
-53.990143411016618
20
97.022095233449903
10
-53.203860037075046
20
96.869257228153302
10
-53.795463327240029
20
93.825722145873812
10
-54.581746701181608
20
93.978560151170427
10
-54.772383968462321
20
92.997816432187861
10
-68.514182909546136
20
95.668951558464087
10
-68.323545642265429
20
96.649695277446668
10
-69.108847389023566
20
96.802342473747927
10
-68.517244098858598
20
99.845877556027432
10
-67.731942352100447
20
99.693230359726144
10
-66.625173855318351
20
105.38706067459594
10
-67.410475602076488
20
105.53970787089723
0
LWPOLYLINE
5
396
100
AcDbEntity
8
0
100
AcDbPolyline
90
20
70
1
43
0.0
10
-61.759498063475711
20
55.542867752163403
10
-61.568860796195011
20
56.523611471145969
10
-62.353180915769705
20
56.67606785845183
10
-61.761577625604716
20
59.719602940731306
10
-60.977257506030035
20
59.567146553425452
10
-59.870489009247933
20
65.260976868295273
10
-60.654809128822613
20
65.413433255601134
10
-60.063453890351617
20
68.45569222254214
10
-59.279133770776937
20
68.303235835236251
10
-59.088248451802244
20
69.285255669557301
10
-45.345467883534958
20
66.613929734285691
10
-45.536353202509652
20
65.631909899964654
10
-44.751051455751508
20
65.479262703663409
10
-45.34240669422249
20
62.437003736722403
10
-46.127708440980648
20
62.589650933023655
10
-47.23447693776275
20
56.895820618153827
10
-46.449175191004599
20
56.743173421852582
10
-47.040778481169582
20
53.699638339573106
10
-47.826080227927726
20
53.852285535874351
10
-48.016717495208425
20
52.871541816891785
0
LWPOLYLINE
5
397
100
AcDbEntity
8
0
100
AcDbPolyline
90
20
70
1
43
0.0
10
-73.962167790292199
20
42.684604389709044
10
-72.855399293510089
20
48.378434704578872
10
-73.639719413084777
20
48.530891091884733
10
-73.048364174613795
20
51.573150058825732
10
-72.264044055039136
20
51.420693671519871
10
-72.073158736064443
20
52.402713505840907
10
-58.329396540613672
20
49.731196761573912
10
-58.520281859588366
20
48.749176927252869
10
-57.735961740013707
20
48.596720539947007
10
-58.327316978484717
20
45.554461573006002
10
-59.111637098059369
20
45.70691796031187
10
-60.218405594841471
20
40.013087645442042
10
-59.434085475266798
20
39.860631258136173
10
-60.02566968453224
20
36.817194338575042
10
-60.809989804106905
20
36.969650725880896
10
-61.000627071387612
20
35.988907006898344
10
-74.74438926683834
20
38.660423751165339
10
-74.553751999557662
20
39.641167470147906
10
-75.338072119132349
20
39.79362385745376
10
-74.7464879098669
20
42.837060777014898
0
LWPOLYLINE
5
398
100
AcDbEntity
8
0
100
AcDbPolyline
90
20
70
1
43
0.0
10
-47.333839853068895
20
104.79431011689545
10
-47.142840048696975
20
105.77691892752657
10
-33.401041107613132
20
103.10578380125031
10
-33.592040911985052
20
102.12317499061922
10
-32.80575753804348
20
101.97033698532259
10
-33.397093695614927
20
98.928176181099943
10
-34.183377069556506
20
99.08101418639653
10
-35.290145566338609
20
93.387183871526702
10
-34.503862192397044
20
93.234345866230086
10
-35.09546548256202
20
90.190810783950639
10
-35.881748856503592
20
90.343648789247226
10
-36.072386123784298
20
89.362905070264674
10
-49.814185064868148
20
92.034040196540928
10
-49.623547797587442
20
93.014783915523495
10
-50.408849544345571
20
93.16743111182474
10
-49.817246254180603
20
96.210966194104202
10
-49.031944507422473
20
96.058318997802957
10
-47.925176010640371
20
101.75214931267278
10
-48.7104777573985
20
101.90479650897407
10
-48.11914159982706
20
104.94695731319668
0
LWPOLYLINE
5
399
100
AcDbEntity
8
0
100
AcDbPolyline
90
20
70
1
43
0.0
10
-46.382003979877112
20
82.045634017383534
10
-47.168287353818684
20
82.198472022680122
10
-48.275055850600793
20
76.504641707810293
10
-47.488772476659229
20
76.351803702513706
10
-48.080375766824204
20
73.308268620234202
10
-48.866659140765769
20
73.461106625530817
10
-49.057296408046476
20
72.480362906548265
10
-62.799095349130347
20
75.151498032824492
10
-62.608458081849641
20
76.132241751807058
10
-63.393759828607763
20
76.284888948108303
10
-62.802156538442802
20
79.328424030387794
10
-62.016854791684644
20
79.175776834086562
10
-60.910086294902541
20
84.869607148956376
10
-61.695388041660671
20
85.022254345257622
10
-61.104032803189696
20
88.064513312198599
10
-60.318731056431567
20
87.911866115897368
10
-60.127845737456866
20
88.893885950218433
10
-46.386046796372995
20
86.222750823942178
10
-46.576932115347702
20
85.240730989621127
10
-45.790648741406123
20
85.087892984324526
0
LWPOLYLINE
5
400
100
AcDbEntity
8
0
100
AcDbPolyline
90
20
70
1
43
0.0
10
-39.705458020034079
20
45.114265565329674
10
-38.921137900459428
20
44.961809178023842
10
-39.512493138930424
20
41.919550211082814
10
-40.296813258505068
20
42.072006598388683
10
-41.403581755287171
20
36.378176283518854
10
-40.619261635712533
20
36.225719896213
10
-41.210845844977968
20
33.182282976651862
10
-41.995165964552605
20
33.334739363957709
10
-42.185803231833319
20
32.353995644975164
10
-55.929565427284061
20
35.025512389242159
10
-55.738928160003375
20
36.006256108224719
10
-56.524229906761505
20
36.158903304525964
10
-55.932645697496071
20
39.202340224087095
10
-55.147343950737934
20
39.04969302778585
10
-54.04057545395581
20
44.743523342655678
10
-54.825877200713968
20
44.896170538956916
10
-54.234521962242965
20
47.938429505897922
10
-53.449220215484829
20
47.785782309596698
10
-53.258334896510114
20
48.76780214391772
10
-39.514572701059372
20
46.096285399650725
0
LWPOLYLINE
5
401
100
AcDbEntity
8
0
100
AcDbPolyline
90
20
70
1
43
0.0
10
-30.619999999999994
20
117.41300000000001
10
-44.361798941083848
20
120.08413512627628
10
-44.171180754702689
20
121.06478068254049
10
-44.956482501460819
20
121.21742787884173
10
-44.364783806798151
20
124.26145377471293
10
-43.579482060040021
20
124.10880657841169
10
-42.47278988685607
20
129.80224424240814
10
-43.258091633614193
20
129.95489143870938
10
-42.666774556942279
20
132.9969540802137
10
-41.881472810184128
20
132.84430688391242
10
-41.690473005812223
20
133.82691569454354
10
-27.948674064728365
20
131.15578056826729
10
-28.139673869100289
20
130.1731717576362
10
-27.353390495158703
20
130.02033375233958
10
-27.944707571830634
20
126.97827111083528
10
-28.730990945772202
20
127.13110911613188
10
-29.837683118956164
20
121.43767145213545
10
-29.051399745014589
20
121.2848334468388
10
-29.643098439677242
20
118.24080755096762
10
-30.429381813618825
20
118.39364555626425
0
LINE
5
402
100
AcDbEntity
8
0
100
AcDbLine
10
63.539943635829125
20
150.96311883078653
30
0
11
63.827910437947068
21
150.59428904500732
31
0
0
LINE
5
403
100
AcDbEntity
8
0
100
AcDbLine
10
63.827910437947068
20
150.59428904500732
30
0
11
64.217159249316651
21
150.3317374065677
31
0
0
LINE
5
404
100
AcDbEntity
8
0
100
AcDbLine
10
63.379460505868998
20
151.40562733352763
30
0
11
63.539943635829125
21
150.96311883078653
31
0
0
LINE
5
405
100
AcDbEntity
8
0
100
AcDbLine
10
64.668018048853369
20
150.20137010667861
30
0
11
65.13761844407226
21
150.21828485794083
31
0
0
LINE
5
406
100
AcDbEntity
8
0
100
AcDbLine
10
65.13761844407226
20
150.21828485794083
30
0
11
65.578379098782719
21
150.37832636899088
31
0
0
LINE
5
407
100
AcDbEntity
8
0
100
AcDbLine
10
65.947277160143202
20
150.66803826091882
30
0
11
66.21012328673784
21
151.05734431498712
31
0
0
LINE
5
408
100
AcDbEntity
8
0
100
AcDbLine
10
65.578379098782719
20
150.37832636899088
30
0
11
65.947277160143202
21
150.66803826091882
31
0
0
LINE
5
409
100
AcDbEntity
8
0
100
AcDbLine
10
64.217159249316651
20
150.3317374065677
30
0
11
64.668018048853369
21
150.20137010667861
31
0
0
LINE
5
410
100
AcDbEntity
8
0
100
AcDbLine
10
89.363004383991239
20
19.227618936706609
30
0
11
89.752272276260371
21
18.964969135548657
31
0
0
LINE
5
411
100
AcDbEntity
8
0
100
AcDbLine
10
88.897711150110013
20
20.508714129151105
30
0
11
88.914563992362901
21
20.038908143867815
31
0
0
LINE
5
412
100
AcDbEntity
8
0
100
AcDbLine
10
64.123449176048709
20
153.00293408823828
30
0
11
63.753875008542437
21
152.71512820797858
31
0
0
LINE
5
413
100
AcDbEntity
8
0
100
AcDbLine
10
65.033810225978058
20
153.17989035055058
30
0
11
64.565191457942618
21
153.16316640828381
31
0
0
LINE
5
414
100
AcDbEntity
8
0
100
AcDbLine
10
66.34003517661354
20
151.50740149009815
30
0
11
66.324342056211961
21
151.97805431965728
31
0
0
LINE
5
415
100
AcDbEntity
8
0
100
AcDbLine
10
63.362872888119654
20
151.87406885702597
30
0
11
63.379460505868998
21
151.40562733352763
31
0
0
LINE
5
416
100
AcDbEntity
8
0
100
AcDbLine
10
91.859445542705899
20
20.611335129997453
30
0
11
91.697802690894434
21
21.052996788462686
31
0
0
LINE
5
417
100
AcDbEntity
8
0
100
AcDbLine
10
89.752272276260371
20
18.964969135548657
30
0
11
90.20305666028888
21
18.834984670261182
31
0
0
LINE
5
418
100
AcDbEntity
8
0
100
AcDbLine
10
89.288968954586622
20
21.348458099677924
30
0
11
89.026438305136509
21
20.959101309318115
31
0
0
LINE
5
419
100
AcDbEntity
8
0
100
AcDbLine
10
89.026438305136509
20
20.959101309318115
30
0
11
88.897711150110013
21
20.508714129151105
31
0
0
LINE
5
420
100
AcDbEntity
8
0
100
AcDbLine
10
89.074932636925809
20
19.596988617436747
30
0
11
89.363004383991239
21
19.227618936706609
31
0
0
LINE
5
421
100
AcDbEntity
8
0
100
AcDbLine
10
90.672662779777639
20
18.851869972707792
30
0
11
91.113417710218201
21
19.011940932573388
31
0
0
LINE
5
422
100
AcDbEntity
8
0
100
AcDbLine
10
90.100237701737939
20
21.796741706778956
30
0
11
89.658499236023943
21
21.63648975418981
31
0
0
LINE
5
423
100
AcDbEntity
8
0
100
AcDbLine
10
66.21012328673784
20
151.05734431498712
30
0
11
66.34003517661354
21
151.50740149009815
31
0
0
LINE
5
424
100
AcDbEntity
8
0
100
AcDbLine
10
91.87502417771023
20
20.141271276748334
30
0
11
91.859445542705899
21
20.611335129997453
31
0
0
LINE
5
425
100
AcDbEntity
8
0
100
AcDbLine
10
63.491323370102826
20
152.32587939660897
30
0
11
63.362872888119654
21
151.87406885702597
31
0
0
LINE
5
426
100
AcDbEntity
8
0
100
AcDbLine
10
89.658499236023943
20
21.63648975418981
30
0
11
89.288968954586622
21
21.348458099677924
31
0
0
LINE
5
427
100
AcDbEntity
8
0
100
AcDbLine
10
90.20305666028888
20
18.834984670261182
30
0
11
90.672662779777639
21
18.851869972707792
31
0
0
LINE
5
428
100
AcDbEntity
8
0
100
AcDbLine
10
91.482390187086921
20
19.301269989899815
30
0
11
91.745217232782025
21
19.69067420668641
31
0
0
LINE
5
429
100
AcDbEntity
8
0
100
AcDbLine
10
66.162964428904104
20
152.41835151633757
30
0
11
65.873536218893619
21
152.78893466658874
31
0
0
LINE
5
430
100
AcDbEntity
8
0
100
AcDbLine
10
63.753875008542437
20
152.71512820797858
30
0
11
63.491323370102826
21
152.32587939660897
31
0
0
LINE
5
431
100
AcDbEntity
8
0
100
AcDbLine
10
91.408651153927266
20
21.422156579297909
30
0
11
91.019086865413129
21
21.684758954029096
31
0
0
LINE
5
432
100
AcDbEntity
8
0
100
AcDbLine
10
90.568860285953278
20
21.81344601650202
30
0
11
90.100237701737939
21
21.796741706778956
31
0
0
LINE
5
433
100
AcDbEntity
8
0
100
AcDbLine
10
64.565191457942618
20
153.16316640828381
30
0
11
64.123449176048709
21
153.00293408823828
31
0
0
LINE
5
434
100
AcDbEntity
8
0
100
AcDbLine
10
91.113417710218201
20
19.011940932573388
30
0
11
91.482390187086921
21
19.301269989899815
31
0
0
LINE
5
435
100
AcDbEntity
8
0
100
AcDbLine
10
91.019086865413129
20
21.684758954029096
30
0
11
90.568860285953278
21
21.81344601650202
31
0
0
LINE
5
436
100
AcDbEntity
8
0
100
AcDbLine
10
91.697802690894434
20
21.052996788462686
30
0
11
91.408651153927266
21
21.422156579297909
31
0
0
LINE
5
437
100
AcDbEntity
8
0
100
AcDbLine
10
66.324342056211961
20
151.97805431965728
30
0
11
66.162964428904104
21
152.41835151633757
31
0
0
LINE
5
438
100
AcDbEntity
8
0
100
AcDbLine
10
65.48399291936893
20
153.05142906232982
30
0
11
65.033810225978058
21
153.17989035055058
31
0
0
LINE
5
439
100
AcDbEntity
8
0
100
AcDbLine
10
91.745217232782025
20
19.69067420668641
30
0
11
91.87502417771023
21
20.141271276748334
31
0
0
LINE
5
440
100
AcDbEntity
8
0
100
AcDbLine
10
65.873536218893619
20
152.78893466658874
30
0
11
65.48399291936893
21
153.05142906232982
31
0
0
LINE
5
441
100
AcDbEntity
8
0
100
AcDbLine
10
88.914563992362901
20
20.038908143867815
30
0
11
89.074932636925809
21
19.596988617436747
31
0
0
ENDSEC
0
SECTION
2
OBJECTS
0
DICTIONARY
5
C
100
AcDbDictionary
3
ACAD_GROUP
350
D
3
ACAD_MLINESTYLE
350
17
0
DICTIONARY
5
D
100
AcDbDictionary
0
DICTIONARY
5
1A
330
C
100
AcDbDictionary
0
DICTIONARY
5
17
100
AcDbDictionary
0
ENDSEC
0
EOF
