  0
SECTION
  2
HEADER
  9
$ACADVER
  1
AC1009
  9
$EXTMIN
 10
0.0
 20
0.0
 30
0.0
  9
$EXTMAX
 10
1000.0
 20
1000.0
 30
0.0
  9
$FILLMODE
 70
 0
  9
$SPLFRAME
 70
 1
  0
ENDSEC
  0
SECTION
  2
TABLES
  0
TABLE
  2
LAYER
 70
1
  0
LAYER
  2
0
 70
     0
 62
     7
  6
CONTINUOUS
  0
ENDTAB
  0
ENDSEC
  0
SECTION
  2
ENTITIES
  0
LINE
  8
0
 62
     0
 10
0.0937066
 20
143.938
 30
0.0
 11
158.207
 21
143.938
 31
0.0
  0
LINE
  8
0
 62
     0
 10
158.207
 20
143.938
 30
0.0
 11
158.207
 21
0.112999
 31
0.0
  0
LINE
  8
0
 62
     0
 10
158.207
 20
0.112999
 30
0.0
 11
0.0937066
 21
0.112999
 31
0.0
  0
LINE
  8
0
 62
     0
 10
0.0937066
 20
0.112999
 30
0.0
 11
0.0937066
 21
143.938
 31
0.0
  0
LINE
  8
0
 62
     0
 10
79.1503
 20
140.437
 30
0.0
 11
79.6135
 21
140.364
 31
0.0
  0
LINE
  8
0
 62
     0
 10
79.6135
 20
140.364
 30
0.0
 11
80.0322
 21
140.152
 31
0.0
  0
LINE
  8
0
 62
     0
 10
80.0322
 20
140.152
 30
0.0
 11
80.3645
 21
139.82
 31
0.0
  0
LINE
  8
0
 62
     0
 10
80.3645
 20
139.82
 30
0.0
 11
80.5766
 21
139.401
 31
0.0
  0
LINE
  8
0
 62
     0
 10
80.5766
 20
139.401
 30
0.0
 11
80.6496
 21
138.938
 31
0.0
  0
LINE
  8
0
 62
     0
 10
80.6496
 20
138.938
 30
0.0
 11
80.5766
 21
138.473
 31
0.0
  0
LINE
  8
0
 62
     0
 10
80.5766
 20
138.473
 30
0.0
 11
80.3645
 21
138.056
 31
0.0
  0
LINE
  8
0
 62
     0
 10
80.3645
 20
138.056
 30
0.0
 11
80.0322
 21
137.724
 31
0.0
  0
LINE
  8
0
 62
     0
 10
80.0322
 20
137.724
 30
0.0
 11
79.6135
 21
137.51
 31
0.0
  0
LINE
  8
0
 62
     0
 10
79.6135
 20
137.51
 30
0.0
 11
79.1503
 21
137.437
 31
0.0
  0
LINE
  8
0
 62
     0
 10
79.1503
 20
137.437
 30
0.0
 11
78.6874
 21
137.51
 31
0.0
  0
LINE
  8
0
 62
     0
 10
78.6874
 20
137.51
 30
0.0
 11
78.2683
 21
137.724
 31
0.0
  0
LINE
  8
0
 62
     0
 10
78.2683
 20
137.724
 30
0.0
 11
77.9364
 21
138.056
 31
0.0
  0
LINE
  8
0
 62
     0
 10
77.9364
 20
138.056
 30
0.0
 11
77.724
 21
138.473
 31
0.0
  0
LINE
  8
0
 62
     0
 10
77.724
 20
138.473
 30
0.0
 11
77.6496
 21
138.938
 31
0.0
  0
LINE
  8
0
 62
     0
 10
77.6496
 20
138.938
 30
0.0
 11
77.724
 21
139.401
 31
0.0
  0
LINE
  8
0
 62
     0
 10
77.724
 20
139.401
 30
0.0
 11
77.9364
 21
139.82
 31
0.0
  0
LINE
  8
0
 62
     0
 10
77.9364
 20
139.82
 30
0.0
 11
78.2683
 21
140.152
 31
0.0
  0
LINE
  8
0
 62
     0
 10
78.2683
 20
140.152
 30
0.0
 11
78.6874
 21
140.364
 31
0.0
  0
LINE
  8
0
 62
     0
 10
78.6874
 20
140.364
 30
0.0
 11
79.1503
 21
140.437
 31
0.0
  0
LINE
  8
0
 62
     0
 10
153.206
 20
140.437
 30
0.0
 11
153.669
 21
140.364
 31
0.0
  0
LINE
  8
0
 62
     0
 10
153.669
 20
140.364
 30
0.0
 11
154.088
 21
140.152
 31
0.0
  0
LINE
  8
0
 62
     0
 10
154.088
 20
140.152
 30
0.0
 11
154.42
 21
139.82
 31
0.0
  0
LINE
  8
0
 62
     0
 10
154.42
 20
139.82
 30
0.0
 11
154.632
 21
139.401
 31
0.0
  0
LINE
  8
0
 62
     0
 10
154.632
 20
139.401
 30
0.0
 11
154.707
 21
138.938
 31
0.0
  0
LINE
  8
0
 62
     0
 10
154.707
 20
138.938
 30
0.0
 11
154.632
 21
138.473
 31
0.0
  0
LINE
  8
0
 62
     0
 10
154.632
 20
138.473
 30
0.0
 11
154.42
 21
138.056
 31
0.0
  0
LINE
  8
0
 62
     0
 10
154.42
 20
138.056
 30
0.0
 11
154.088
 21
137.724
 31
0.0
  0
LINE
  8
0
 62
     0
 10
154.088
 20
137.724
 30
0.0
 11
153.669
 21
137.51
 31
0.0
  0
LINE
  8
0
 62
     0
 10
153.669
 20
137.51
 30
0.0
 11
153.206
 21
137.437
 31
0.0
  0
LINE
  8
0
 62
     0
 10
153.206
 20
137.437
 30
0.0
 11
152.743
 21
137.51
 31
0.0
  0
LINE
  8
0
 62
     0
 10
152.743
 20
137.51
 30
0.0
 11
152.324
 21
137.724
 31
0.0
  0
LINE
  8
0
 62
     0
 10
152.324
 20
137.724
 30
0.0
 11
151.992
 21
138.056
 31
0.0
  0
LINE
  8
0
 62
     0
 10
151.992
 20
138.056
 30
0.0
 11
151.78
 21
138.473
 31
0.0
  0
LINE
  8
0
 62
     0
 10
151.78
 20
138.473
 30
0.0
 11
151.705
 21
138.938
 31
0.0
  0
LINE
  8
0
 62
     0
 10
151.705
 20
138.938
 30
0.0
 11
151.78
 21
139.401
 31
0.0
  0
LINE
  8
0
 62
     0
 10
151.78
 20
139.401
 30
0.0
 11
151.992
 21
139.82
 31
0.0
  0
LINE
  8
0
 62
     0
 10
151.992
 20
139.82
 30
0.0
 11
152.324
 21
140.152
 31
0.0
  0
LINE
  8
0
 62
     0
 10
152.324
 20
140.152
 30
0.0
 11
152.743
 21
140.364
 31
0.0
  0
LINE
  8
0
 62
     0
 10
152.743
 20
140.364
 30
0.0
 11
153.206
 21
140.437
 31
0.0
  0
LINE
  8
0
 62
     0
 10
153.206
 20
73.5238
 30
0.0
 11
153.669
 21
73.4508
 31
0.0
  0
LINE
  8
0
 62
     0
 10
153.669
 20
73.4508
 30
0.0
 11
154.088
 21
73.2384
 31
0.0
  0
LINE
  8
0
 62
     0
 10
154.088
 20
73.2384
 30
0.0
 11
154.42
 21
72.9065
 31
0.0
  0
LINE
  8
0
 62
     0
 10
154.42
 20
72.9065
 30
0.0
 11
154.632
 21
72.4888
 31
0.0
  0
LINE
  8
0
 62
     0
 10
154.632
 20
72.4888
 30
0.0
 11
154.707
 21
72.0245
 31
0.0
  0
LINE
  8
0
 62
     0
 10
154.707
 20
72.0245
 30
0.0
 11
154.632
 21
71.5617
 31
0.0
  0
LINE
  8
0
 62
     0
 10
154.632
 20
71.5617
 30
0.0
 11
154.42
 21
71.144
 31
0.0
  0
LINE
  8
0
 62
     0
 10
154.42
 20
71.144
 30
0.0
 11
154.088
 21
70.812
 31
0.0
  0
LINE
  8
0
 62
     0
 10
154.088
 20
70.812
 30
0.0
 11
153.669
 21
70.5982
 31
0.0
  0
LINE
  8
0
 62
     0
 10
153.669
 20
70.5982
 30
0.0
 11
153.206
 21
70.5238
 31
0.0
  0
LINE
  8
0
 62
     0
 10
153.206
 20
70.5238
 30
0.0
 11
152.743
 21
70.5982
 31
0.0
  0
LINE
  8
0
 62
     0
 10
152.743
 20
70.5982
 30
0.0
 11
152.324
 21
70.812
 31
0.0
  0
LINE
  8
0
 62
     0
 10
152.324
 20
70.812
 30
0.0
 11
151.992
 21
71.144
 31
0.0
  0
LINE
  8
0
 62
     0
 10
151.992
 20
71.144
 30
0.0
 11
151.78
 21
71.5617
 31
0.0
  0
LINE
  8
0
 62
     0
 10
151.78
 20
71.5617
 30
0.0
 11
151.705
 21
72.0245
 31
0.0
  0
LINE
  8
0
 62
     0
 10
151.705
 20
72.0245
 30
0.0
 11
151.78
 21
72.4888
 31
0.0
  0
LINE
  8
0
 62
     0
 10
151.78
 20
72.4888
 30
0.0
 11
151.992
 21
72.9065
 31
0.0
  0
LINE
  8
0
 62
     0
 10
151.992
 20
72.9065
 30
0.0
 11
152.324
 21
73.2384
 31
0.0
  0
LINE
  8
0
 62
     0
 10
152.324
 20
73.2384
 30
0.0
 11
152.743
 21
73.4508
 31
0.0
  0
LINE
  8
0
 62
     0
 10
152.743
 20
73.4508
 30
0.0
 11
153.206
 21
73.5238
 31
0.0
  0
LINE
  8
0
 62
     0
 10
153.206
 20
6.61183
 30
0.0
 11
153.669
 21
6.53881
 31
0.0
  0
LINE
  8
0
 62
     0
 10
153.669
 20
6.53881
 30
0.0
 11
154.088
 21
6.32658
 31
0.0
  0
LINE
  8
0
 62
     0
 10
154.088
 20
6.32658
 30
0.0
 11
154.42
 21
5.99447
 31
0.0
  0
LINE
  8
0
 62
     0
 10
154.42
 20
5.99447
 30
0.0
 11
154.632
 21
5.57692
 31
0.0
  0
LINE
  8
0
 62
     0
 10
154.632
 20
5.57692
 30
0.0
 11
154.707
 21
5.11253
 31
0.0
  0
LINE
  8
0
 62
     0
 10
154.707
 20
5.11253
 30
0.0
 11
154.632
 21
4.64813
 31
0.0
  0
LINE
  8
0
 62
     0
 10
154.632
 20
4.64813
 30
0.0
 11
154.42
 21
4.23058
 31
0.0
  0
LINE
  8
0
 62
     0
 10
154.42
 20
4.23058
 30
0.0
 11
154.088
 21
3.89848
 31
0.0
  0
LINE
  8
0
 62
     0
 10
154.088
 20
3.89848
 30
0.0
 11
153.669
 21
3.68487
 31
0.0
  0
LINE
  8
0
 62
     0
 10
153.669
 20
3.68487
 30
0.0
 11
153.206
 21
3.61184
 31
0.0
  0
LINE
  8
0
 62
     0
 10
153.206
 20
3.61184
 30
0.0
 11
152.743
 21
3.68487
 31
0.0
  0
LINE
  8
0
 62
     0
 10
152.743
 20
3.68487
 30
0.0
 11
152.324
 21
3.89848
 31
0.0
  0
LINE
  8
0
 62
     0
 10
152.324
 20
3.89848
 30
0.0
 11
151.992
 21
4.23058
 31
0.0
  0
LINE
  8
0
 62
     0
 10
151.992
 20
4.23058
 30
0.0
 11
151.78
 21
4.64813
 31
0.0
  0
LINE
  8
0
 62
     0
 10
151.78
 20
4.64813
 30
0.0
 11
151.705
 21
5.11253
 31
0.0
  0
LINE
  8
0
 62
     0
 10
151.705
 20
5.11253
 30
0.0
 11
151.78
 21
5.57692
 31
0.0
  0
LINE
  8
0
 62
     0
 10
151.78
 20
5.57692
 30
0.0
 11
151.992
 21
5.99447
 31
0.0
  0
LINE
  8
0
 62
     0
 10
151.992
 20
5.99447
 30
0.0
 11
152.324
 21
6.32658
 31
0.0
  0
LINE
  8
0
 62
     0
 10
152.324
 20
6.32658
 30
0.0
 11
152.743
 21
6.53881
 31
0.0
  0
LINE
  8
0
 62
     0
 10
152.743
 20
6.53881
 30
0.0
 11
153.206
 21
6.61183
 31
0.0
  0
LINE
  8
0
 62
     0
 10
79.1503
 20
6.61183
 30
0.0
 11
79.6135
 21
6.53881
 31
0.0
  0
LINE
  8
0
 62
     0
 10
79.6135
 20
6.53881
 30
0.0
 11
80.0322
 21
6.32658
 31
0.0
  0
LINE
  8
0
 62
     0
 10
80.0322
 20
6.32658
 30
0.0
 11
80.3645
 21
5.99447
 31
0.0
  0
LINE
  8
0
 62
     0
 10
80.3645
 20
5.99447
 30
0.0
 11
80.5766
 21
5.57692
 31
0.0
  0
LINE
  8
0
 62
     0
 10
80.5766
 20
5.57692
 30
0.0
 11
80.6496
 21
5.11253
 31
0.0
  0
LINE
  8
0
 62
     0
 10
80.6496
 20
5.11253
 30
0.0
 11
80.5766
 21
4.64813
 31
0.0
  0
LINE
  8
0
 62
     0
 10
80.5766
 20
4.64813
 30
0.0
 11
80.3645
 21
4.23058
 31
0.0
  0
LINE
  8
0
 62
     0
 10
80.3645
 20
4.23058
 30
0.0
 11
80.0322
 21
3.89848
 31
0.0
  0
LINE
  8
0
 62
     0
 10
80.0322
 20
3.89848
 30
0.0
 11
79.6135
 21
3.68487
 31
0.0
  0
LINE
  8
0
 62
     0
 10
79.6135
 20
3.68487
 30
0.0
 11
79.1503
 21
3.61184
 31
0.0
  0
LINE
  8
0
 62
     0
 10
79.1503
 20
3.61184
 30
0.0
 11
78.6874
 21
3.68487
 31
0.0
  0
LINE
  8
0
 62
     0
 10
78.6874
 20
3.68487
 30
0.0
 11
78.2683
 21
3.89848
 31
0.0
  0
LINE
  8
0
 62
     0
 10
78.2683
 20
3.89848
 30
0.0
 11
77.9364
 21
4.23058
 31
0.0
  0
LINE
  8
0
 62
     0
 10
77.9364
 20
4.23058
 30
0.0
 11
77.724
 21
4.64813
 31
0.0
  0
LINE
  8
0
 62
     0
 10
77.724
 20
4.64813
 30
0.0
 11
77.6496
 21
5.11253
 31
0.0
  0
LINE
  8
0
 62
     0
 10
77.6496
 20
5.11253
 30
0.0
 11
77.724
 21
5.57692
 31
0.0
  0
LINE
  8
0
 62
     0
 10
77.724
 20
5.57692
 30
0.0
 11
77.9364
 21
5.99447
 31
0.0
  0
LINE
  8
0
 62
     0
 10
77.9364
 20
5.99447
 30
0.0
 11
78.2683
 21
6.32658
 31
0.0
  0
LINE
  8
0
 62
     0
 10
78.2683
 20
6.32658
 30
0.0
 11
78.6874
 21
6.53881
 31
0.0
  0
LINE
  8
0
 62
     0
 10
78.6874
 20
6.53881
 30
0.0
 11
79.1503
 21
6.61183
 31
0.0
  0
LINE
  8
0
 62
     0
 10
5.09323
 20
6.61183
 30
0.0
 11
5.55763
 21
6.53881
 31
0.0
  0
LINE
  8
0
 62
     0
 10
5.55763
 20
6.53881
 30
0.0
 11
5.97517
 21
6.32658
 31
0.0
  0
LINE
  8
0
 62
     0
 10
5.97517
 20
6.32658
 30
0.0
 11
6.30728
 21
5.99447
 31
0.0
  0
LINE
  8
0
 62
     0
 10
6.30728
 20
5.99447
 30
0.0
 11
6.52089
 21
5.57692
 31
0.0
  0
LINE
  8
0
 62
     0
 10
6.52089
 20
5.57692
 30
0.0
 11
6.59391
 21
5.11253
 31
0.0
  0
LINE
  8
0
 62
     0
 10
6.59391
 20
5.11253
 30
0.0
 11
6.52089
 21
4.64813
 31
0.0
  0
LINE
  8
0
 62
     0
 10
6.52089
 20
4.64813
 30
0.0
 11
6.30728
 21
4.23058
 31
0.0
  0
LINE
  8
0
 62
     0
 10
6.30728
 20
4.23058
 30
0.0
 11
5.97517
 21
3.89848
 31
0.0
  0
LINE
  8
0
 62
     0
 10
5.97517
 20
3.89848
 30
0.0
 11
5.55763
 21
3.68487
 31
0.0
  0
LINE
  8
0
 62
     0
 10
5.55763
 20
3.68487
 30
0.0
 11
5.09323
 21
3.61184
 31
0.0
  0
LINE
  8
0
 62
     0
 10
5.09323
 20
3.61184
 30
0.0
 11
4.63021
 21
3.68487
 31
0.0
  0
LINE
  8
0
 62
     0
 10
4.63021
 20
3.68487
 30
0.0
 11
4.21128
 21
3.89848
 31
0.0
  0
LINE
  8
0
 62
     0
 10
4.21128
 20
3.89848
 30
0.0
 11
3.87918
 21
4.23058
 31
0.0
  0
LINE
  8
0
 62
     0
 10
3.87918
 20
4.23058
 30
0.0
 11
3.66695
 21
4.64813
 31
0.0
  0
LINE
  8
0
 62
     0
 10
3.66695
 20
4.64813
 30
0.0
 11
3.59392
 21
5.11253
 31
0.0
  0
LINE
  8
0
 62
     0
 10
3.59392
 20
5.11253
 30
0.0
 11
3.66695
 21
5.57692
 31
0.0
  0
LINE
  8
0
 62
     0
 10
3.66695
 20
5.57692
 30
0.0
 11
3.87918
 21
5.99447
 31
0.0
  0
LINE
  8
0
 62
     0
 10
3.87918
 20
5.99447
 30
0.0
 11
4.21128
 21
6.32658
 31
0.0
  0
LINE
  8
0
 62
     0
 10
4.21128
 20
6.32658
 30
0.0
 11
4.63021
 21
6.53881
 31
0.0
  0
LINE
  8
0
 62
     0
 10
4.63021
 20
6.53881
 30
0.0
 11
5.09323
 21
6.61183
 31
0.0
  0
LINE
  8
0
 62
     0
 10
5.09323
 20
73.5238
 30
0.0
 11
5.55763
 21
73.4508
 31
0.0
  0
LINE
  8
0
 62
     0
 10
5.55763
 20
73.4508
 30
0.0
 11
5.97517
 21
73.2384
 31
0.0
  0
LINE
  8
0
 62
     0
 10
5.97517
 20
73.2384
 30
0.0
 11
6.30728
 21
72.9065
 31
0.0
  0
LINE
  8
0
 62
     0
 10
6.30728
 20
72.9065
 30
0.0
 11
6.52089
 21
72.4888
 31
0.0
  0
LINE
  8
0
 62
     0
 10
6.52089
 20
72.4888
 30
0.0
 11
6.59391
 21
72.0245
 31
0.0
  0
LINE
  8
0
 62
     0
 10
6.59391
 20
72.0245
 30
0.0
 11
6.52089
 21
71.5617
 31
0.0
  0
LINE
  8
0
 62
     0
 10
6.52089
 20
71.5617
 30
0.0
 11
6.30728
 21
71.144
 31
0.0
  0
LINE
  8
0
 62
     0
 10
6.30728
 20
71.144
 30
0.0
 11
5.97517
 21
70.812
 31
0.0
  0
LINE
  8
0
 62
     0
 10
5.97517
 20
70.812
 30
0.0
 11
5.55763
 21
70.5982
 31
0.0
  0
LINE
  8
0
 62
     0
 10
5.55763
 20
70.5982
 30
0.0
 11
5.09323
 21
70.5238
 31
0.0
  0
LINE
  8
0
 62
     0
 10
5.09323
 20
70.5238
 30
0.0
 11
4.63021
 21
70.5982
 31
0.0
  0
LINE
  8
0
 62
     0
 10
4.63021
 20
70.5982
 30
0.0
 11
4.21128
 21
70.812
 31
0.0
  0
LINE
  8
0
 62
     0
 10
4.21128
 20
70.812
 30
0.0
 11
3.87918
 21
71.144
 31
0.0
  0
LINE
  8
0
 62
     0
 10
3.87918
 20
71.144
 30
0.0
 11
3.66695
 21
71.5617
 31
0.0
  0
LINE
  8
0
 62
     0
 10
3.66695
 20
71.5617
 30
0.0
 11
3.59392
 21
72.0245
 31
0.0
  0
LINE
  8
0
 62
     0
 10
3.59392
 20
72.0245
 30
0.0
 11
3.66695
 21
72.4888
 31
0.0
  0
LINE
  8
0
 62
     0
 10
3.66695
 20
72.4888
 30
0.0
 11
3.87918
 21
72.9065
 31
0.0
  0
LINE
  8
0
 62
     0
 10
3.87918
 20
72.9065
 30
0.0
 11
4.21128
 21
73.2384
 31
0.0
  0
LINE
  8
0
 62
     0
 10
4.21128
 20
73.2384
 30
0.0
 11
4.63021
 21
73.4508
 31
0.0
  0
LINE
  8
0
 62
     0
 10
4.63021
 20
73.4508
 30
0.0
 11
5.09323
 21
73.5238
 31
0.0
  0
LINE
  8
0
 62
     0
 10
5.09323
 20
140.437
 30
0.0
 11
5.55763
 21
140.364
 31
0.0
  0
LINE
  8
0
 62
     0
 10
5.55763
 20
140.364
 30
0.0
 11
5.97517
 21
140.152
 31
0.0
  0
LINE
  8
0
 62
     0
 10
5.97517
 20
140.152
 30
0.0
 11
6.30728
 21
139.82
 31
0.0
  0
LINE
  8
0
 62
     0
 10
6.30728
 20
139.82
 30
0.0
 11
6.52089
 21
139.401
 31
0.0
  0
LINE
  8
0
 62
     0
 10
6.52089
 20
139.401
 30
0.0
 11
6.59391
 21
138.938
 31
0.0
  0
LINE
  8
0
 62
     0
 10
6.59391
 20
138.938
 30
0.0
 11
6.52089
 21
138.473
 31
0.0
  0
LINE
  8
0
 62
     0
 10
6.52089
 20
138.473
 30
0.0
 11
6.30728
 21
138.056
 31
0.0
  0
LINE
  8
0
 62
     0
 10
6.30728
 20
138.056
 30
0.0
 11
5.97517
 21
137.724
 31
0.0
  0
LINE
  8
0
 62
     0
 10
5.97517
 20
137.724
 30
0.0
 11
5.55763
 21
137.51
 31
0.0
  0
LINE
  8
0
 62
     0
 10
5.55763
 20
137.51
 30
0.0
 11
5.09323
 21
137.437
 31
0.0
  0
LINE
  8
0
 62
     0
 10
5.09323
 20
137.437
 30
0.0
 11
4.63021
 21
137.51
 31
0.0
  0
LINE
  8
0
 62
     0
 10
4.63021
 20
137.51
 30
0.0
 11
4.21128
 21
137.724
 31
0.0
  0
LINE
  8
0
 62
     0
 10
4.21128
 20
137.724
 30
0.0
 11
3.87918
 21
138.056
 31
0.0
  0
LINE
  8
0
 62
     0
 10
3.87918
 20
138.056
 30
0.0
 11
3.66695
 21
138.473
 31
0.0
  0
LINE
  8
0
 62
     0
 10
3.66695
 20
138.473
 30
0.0
 11
3.59392
 21
138.938
 31
0.0
  0
LINE
  8
0
 62
     0
 10
3.59392
 20
138.938
 30
0.0
 11
3.66695
 21
139.401
 31
0.0
  0
LINE
  8
0
 62
     0
 10
3.66695
 20
139.401
 30
0.0
 11
3.87918
 21
139.82
 31
0.0
  0
LINE
  8
0
 62
     0
 10
3.87918
 20
139.82
 30
0.0
 11
4.21128
 21
140.152
 31
0.0
  0
LINE
  8
0
 62
     0
 10
4.21128
 20
140.152
 30
0.0
 11
4.63021
 21
140.364
 31
0.0
  0
LINE
  8
0
 62
     0
 10
4.63021
 20
140.364
 30
0.0
 11
5.09323
 21
140.437
 31
0.0
  0
LINE
  8
0
 62
     0
 10
26.6182
 20
118.412
 30
0.0
 11
26.6182
 21
117.413
 31
0.0
  0
LINE
  8
0
 62
     0
 10
26.6182
 20
117.413
 30
0.0
 11
12.6187
 21
117.413
 31
0.0
  0
LINE
  8
0
 62
     0
 10
12.6187
 20
117.413
 30
0.0
 11
12.6187
 21
118.412
 31
0.0
  0
LINE
  8
0
 62
     0
 10
12.6187
 20
118.412
 30
0.0
 11
11.8194
 21
118.412
 31
0.0
  0
LINE
  8
0
 62
     0
 10
11.8194
 20
118.412
 30
0.0
 11
11.8194
 21
121.513
 31
0.0
  0
LINE
  8
0
 62
     0
 10
11.8194
 20
121.513
 30
0.0
 11
12.6187
 21
121.513
 31
0.0
  0
LINE
  8
0
 62
     0
 10
12.6187
 20
121.513
 30
0.0
 11
12.6187
 21
127.313
 31
0.0
  0
LINE
  8
0
 62
     0
 10
12.6187
 20
127.313
 30
0.0
 11
11.8194
 21
127.313
 31
0.0
  0
LINE
  8
0
 62
     0
 10
11.8194
 20
127.313
 30
0.0
 11
11.8194
 21
130.412
 31
0.0
  0
LINE
  8
0
 62
     0
 10
11.8194
 20
130.412
 30
0.0
 11
12.6187
 21
130.412
 31
0.0
  0
LINE
  8
0
 62
     0
 10
12.6187
 20
130.412
 30
0.0
 11
12.6187
 21
131.413
 31
0.0
  0
LINE
  8
0
 62
     0
 10
12.6187
 20
131.413
 30
0.0
 11
26.6182
 21
131.413
 31
0.0
  0
LINE
  8
0
 62
     0
 10
26.6182
 20
131.413
 30
0.0
 11
26.6182
 21
130.412
 31
0.0
  0
LINE
  8
0
 62
     0
 10
26.6182
 20
130.412
 30
0.0
 11
27.4188
 21
130.412
 31
0.0
  0
LINE
  8
0
 62
     0
 10
27.4188
 20
130.412
 30
0.0
 11
27.4188
 21
127.313
 31
0.0
  0
LINE
  8
0
 62
     0
 10
27.4188
 20
127.313
 30
0.0
 11
26.6182
 21
127.313
 31
0.0
  0
LINE
  8
0
 62
     0
 10
26.6182
 20
127.313
 30
0.0
 11
26.6182
 21
121.513
 31
0.0
  0
LINE
  8
0
 62
     0
 10
26.6182
 20
121.513
 30
0.0
 11
27.4188
 21
121.513
 31
0.0
  0
LINE
  8
0
 62
     0
 10
27.4188
 20
121.513
 30
0.0
 11
27.4188
 21
118.412
 31
0.0
  0
LINE
  8
0
 62
     0
 10
27.4188
 20
118.412
 30
0.0
 11
26.6182
 21
118.412
 31
0.0
  0
LINE
  8
0
 62
     0
 10
26.6182
 20
89.837
 30
0.0
 11
26.6182
 21
88.8379
 31
0.0
  0
LINE
  8
0
 62
     0
 10
26.6182
 20
88.8379
 30
0.0
 11
12.6187
 21
88.8379
 31
0.0
  0
LINE
  8
0
 62
     0
 10
12.6187
 20
88.8379
 30
0.0
 11
12.6187
 21
89.837
 31
0.0
  0
LINE
  8
0
 62
     0
 10
12.6187
 20
89.837
 30
0.0
 11
11.8194
 21
89.837
 31
0.0
  0
LINE
  8
0
 62
     0
 10
11.8194
 20
89.837
 30
0.0
 11
11.8194
 21
92.9375
 31
0.0
  0
LINE
  8
0
 62
     0
 10
11.8194
 20
92.9375
 30
0.0
 11
12.6187
 21
92.9375
 31
0.0
  0
LINE
  8
0
 62
     0
 10
12.6187
 20
92.9375
 30
0.0
 11
12.6187
 21
98.7379
 31
0.0
  0
LINE
  8
0
 62
     0
 10
12.6187
 20
98.7379
 30
0.0
 11
11.8194
 21
98.7379
 31
0.0
  0
LINE
  8
0
 62
     0
 10
11.8194
 20
98.7379
 30
0.0
 11
11.8194
 21
101.837
 31
0.0
  0
LINE
  8
0
 62
     0
 10
11.8194
 20
101.837
 30
0.0
 11
12.6187
 21
101.837
 31
0.0
  0
LINE
  8
0
 62
     0
 10
12.6187
 20
101.837
 30
0.0
 11
12.6187
 21
102.838
 31
0.0
  0
LINE
  8
0
 62
     0
 10
12.6187
 20
102.838
 30
0.0
 11
26.6182
 21
102.838
 31
0.0
  0
LINE
  8
0
 62
     0
 10
26.6182
 20
102.838
 30
0.0
 11
26.6182
 21
101.837
 31
0.0
  0
LINE
  8
0
 62
     0
 10
26.6182
 20
101.837
 30
0.0
 11
27.4188
 21
101.837
 31
0.0
  0
LINE
  8
0
 62
     0
 10
27.4188
 20
101.837
 30
0.0
 11
27.4188
 21
98.7379
 31
0.0
  0
LINE
  8
0
 62
     0
 10
27.4188
 20
98.7379
 30
0.0
 11
26.6182
 21
98.7379
 31
0.0
  0
LINE
  8
0
 62
     0
 10
26.6182
 20
98.7379
 30
0.0
 11
26.6182
 21
92.9375
 31
0.0
  0
LINE
  8
0
 62
     0
 10
26.6182
 20
92.9375
 30
0.0
 11
27.4188
 21
92.9375
 31
0.0
  0
LINE
  8
0
 62
     0
 10
27.4188
 20
92.9375
 30
0.0
 11
27.4188
 21
89.837
 31
0.0
  0
LINE
  8
0
 62
     0
 10
27.4188
 20
89.837
 30
0.0
 11
26.6182
 21
89.837
 31
0.0
  0
LINE
  8
0
 62
     0
 10
28.9994
 20
13.6371
 30
0.0
 11
28.9994
 21
12.638
 31
0.0
  0
LINE
  8
0
 62
     0
 10
28.9994
 20
12.638
 30
0.0
 11
14.9999
 21
12.638
 31
0.0
  0
LINE
  8
0
 62
     0
 10
14.9999
 20
12.638
 30
0.0
 11
14.9999
 21
13.6371
 31
0.0
  0
LINE
  8
0
 62
     0
 10
14.9999
 20
13.6371
 30
0.0
 11
14.1993
 21
13.6371
 31
0.0
  0
LINE
  8
0
 62
     0
 10
14.1993
 20
13.6371
 30
0.0
 11
14.1993
 21
16.7376
 31
0.0
  0
LINE
  8
0
 62
     0
 10
14.1993
 20
16.7376
 30
0.0
 11
14.9999
 21
16.7376
 31
0.0
  0
LINE
  8
0
 62
     0
 10
14.9999
 20
16.7376
 30
0.0
 11
14.9999
 21
22.5378
 31
0.0
  0
LINE
  8
0
 62
     0
 10
14.9999
 20
22.5378
 30
0.0
 11
14.1993
 21
22.5378
 31
0.0
  0
LINE
  8
0
 62
     0
 10
14.1993
 20
22.5378
 30
0.0
 11
14.1993
 21
25.637
 31
0.0
  0
LINE
  8
0
 62
     0
 10
14.1993
 20
25.637
 30
0.0
 11
14.9999
 21
25.637
 31
0.0
  0
LINE
  8
0
 62
     0
 10
14.9999
 20
25.637
 30
0.0
 11
14.9999
 21
26.6375
 31
0.0
  0
LINE
  8
0
 62
     0
 10
14.9999
 20
26.6375
 30
0.0
 11
28.9994
 21
26.6375
 31
0.0
  0
LINE
  8
0
 62
     0
 10
28.9994
 20
26.6375
 30
0.0
 11
28.9994
 21
25.637
 31
0.0
  0
LINE
  8
0
 62
     0
 10
28.9994
 20
25.637
 30
0.0
 11
29.8001
 21
25.637
 31
0.0
  0
LINE
  8
0
 62
     0
 10
29.8001
 20
25.637
 30
0.0
 11
29.8001
 21
22.5378
 31
0.0
  0
LINE
  8
0
 62
     0
 10
29.8001
 20
22.5378
 30
0.0
 11
28.9994
 21
22.5378
 31
0.0
  0
LINE
  8
0
 62
     0
 10
28.9994
 20
22.5378
 30
0.0
 11
28.9994
 21
16.7376
 31
0.0
  0
LINE
  8
0
 62
     0
 10
28.9994
 20
16.7376
 30
0.0
 11
29.8001
 21
16.7376
 31
0.0
  0
LINE
  8
0
 62
     0
 10
29.8001
 20
16.7376
 30
0.0
 11
29.8001
 21
13.6371
 31
0.0
  0
LINE
  8
0
 62
     0
 10
29.8001
 20
13.6371
 30
0.0
 11
28.9994
 21
13.6371
 31
0.0
  0
LINE
  8
0
 62
     0
 10
31.3821
 20
70.787
 30
0.0
 11
31.3821
 21
69.7879
 31
0.0
  0
LINE
  8
0
 62
     0
 10
31.3821
 20
69.7879
 30
0.0
 11
17.3812
 21
69.7879
 31
0.0
  0
LINE
  8
0
 62
     0
 10
17.3812
 20
69.7879
 30
0.0
 11
17.3812
 21
70.787
 31
0.0
  0
LINE
  8
0
 62
     0
 10
17.3812
 20
70.787
 30
0.0
 11
16.5819
 21
70.787
 31
0.0
  0
LINE
  8
0
 62
     0
 10
16.5819
 20
70.787
 30
0.0
 11
16.5819
 21
73.8875
 31
0.0
  0
LINE
  8
0
 62
     0
 10
16.5819
 20
73.8875
 30
0.0
 11
17.3812
 21
73.8875
 31
0.0
  0
LINE
  8
0
 62
     0
 10
17.3812
 20
73.8875
 30
0.0
 11
17.3812
 21
79.6879
 31
0.0
  0
LINE
  8
0
 62
     0
 10
17.3812
 20
79.6879
 30
0.0
 11
16.5819
 21
79.6879
 31
0.0
  0
LINE
  8
0
 62
     0
 10
16.5819
 20
79.6879
 30
0.0
 11
16.5819
 21
82.7871
 31
0.0
  0
LINE
  8
0
 62
     0
 10
16.5819
 20
82.7871
 30
0.0
 11
17.3812
 21
82.7871
 31
0.0
  0
LINE
  8
0
 62
     0
 10
17.3812
 20
82.7871
 30
0.0
 11
17.3812
 21
83.7875
 31
0.0
  0
LINE
  8
0
 62
     0
 10
17.3812
 20
83.7875
 30
0.0
 11
31.3821
 21
83.7875
 31
0.0
  0
LINE
  8
0
 62
     0
 10
31.3821
 20
83.7875
 30
0.0
 11
31.3821
 21
82.7871
 31
0.0
  0
LINE
  8
0
 62
     0
 10
31.3821
 20
82.7871
 30
0.0
 11
32.1813
 21
82.7871
 31
0.0
  0
LINE
  8
0
 62
     0
 10
32.1813
 20
82.7871
 30
0.0
 11
32.1813
 21
79.6879
 31
0.0
  0
LINE
  8
0
 62
     0
 10
32.1813
 20
79.6879
 30
0.0
 11
31.3821
 21
79.6879
 31
0.0
  0
LINE
  8
0
 62
     0
 10
31.3821
 20
79.6879
 30
0.0
 11
31.3821
 21
73.8875
 31
0.0
  0
LINE
  8
0
 62
     0
 10
31.3821
 20
73.8875
 30
0.0
 11
32.1813
 21
73.8875
 31
0.0
  0
LINE
  8
0
 62
     0
 10
32.1813
 20
73.8875
 30
0.0
 11
32.1813
 21
70.787
 31
0.0
  0
LINE
  8
0
 62
     0
 10
32.1813
 20
70.787
 30
0.0
 11
31.3821
 21
70.787
 31
0.0
  0
LINE
  8
0
 62
     0
 10
33.7633
 20
51.737
 30
0.0
 11
33.7633
 21
50.7379
 31
0.0
  0
LINE
  8
0
 62
     0
 10
33.7633
 20
50.7379
 30
0.0
 11
19.7624
 21
50.7379
 31
0.0
  0
LINE
  8
0
 62
     0
 10
19.7624
 20
50.7379
 30
0.0
 11
19.7624
 21
51.737
 31
0.0
  0
LINE
  8
0
 62
     0
 10
19.7624
 20
51.737
 30
0.0
 11
18.9632
 21
51.737
 31
0.0
  0
LINE
  8
0
 62
     0
 10
18.9632
 20
51.737
 30
0.0
 11
18.9632
 21
54.8375
 31
0.0
  0
LINE
  8
0
 62
     0
 10
18.9632
 20
54.8375
 30
0.0
 11
19.7624
 21
54.8375
 31
0.0
  0
LINE
  8
0
 62
     0
 10
19.7624
 20
54.8375
 30
0.0
 11
19.7624
 21
60.6379
 31
0.0
  0
LINE
  8
0
 62
     0
 10
19.7624
 20
60.6379
 30
0.0
 11
18.9632
 21
60.6379
 31
0.0
  0
LINE
  8
0
 62
     0
 10
18.9632
 20
60.6379
 30
0.0
 11
18.9632
 21
63.7371
 31
0.0
  0
LINE
  8
0
 62
     0
 10
18.9632
 20
63.7371
 30
0.0
 11
19.7624
 21
63.7371
 31
0.0
  0
LINE
  8
0
 62
     0
 10
19.7624
 20
63.7371
 30
0.0
 11
19.7624
 21
64.7375
 31
0.0
  0
LINE
  8
0
 62
     0
 10
19.7624
 20
64.7375
 30
0.0
 11
33.7633
 21
64.7375
 31
0.0
  0
LINE
  8
0
 62
     0
 10
33.7633
 20
64.7375
 30
0.0
 11
33.7633
 21
63.7371
 31
0.0
  0
LINE
  8
0
 62
     0
 10
33.7633
 20
63.7371
 30
0.0
 11
34.5626
 21
63.7371
 31
0.0
  0
LINE
  8
0
 62
     0
 10
34.5626
 20
63.7371
 30
0.0
 11
34.5626
 21
60.6379
 31
0.0
  0
LINE
  8
0
 62
     0
 10
34.5626
 20
60.6379
 30
0.0
 11
33.7633
 21
60.6379
 31
0.0
  0
LINE
  8
0
 62
     0
 10
33.7633
 20
60.6379
 30
0.0
 11
33.7633
 21
54.8375
 31
0.0
  0
LINE
  8
0
 62
     0
 10
33.7633
 20
54.8375
 30
0.0
 11
34.5626
 21
54.8375
 31
0.0
  0
LINE
  8
0
 62
     0
 10
34.5626
 20
54.8375
 30
0.0
 11
34.5626
 21
51.737
 31
0.0
  0
LINE
  8
0
 62
     0
 10
34.5626
 20
51.737
 30
0.0
 11
33.7633
 21
51.737
 31
0.0
  0
LINE
  8
0
 62
     0
 10
45.6681
 20
89.837
 30
0.0
 11
45.6681
 21
88.8379
 31
0.0
  0
LINE
  8
0
 62
     0
 10
45.6681
 20
88.8379
 30
0.0
 11
31.6687
 21
88.8379
 31
0.0
  0
LINE
  8
0
 62
     0
 10
31.6687
 20
88.8379
 30
0.0
 11
31.6687
 21
89.837
 31
0.0
  0
LINE
  8
0
 62
     0
 10
31.6687
 20
89.837
 30
0.0
 11
30.8694
 21
89.837
 31
0.0
  0
LINE
  8
0
 62
     0
 10
30.8694
 20
89.837
 30
0.0
 11
30.8694
 21
92.9375
 31
0.0
  0
LINE
  8
0
 62
     0
 10
30.8694
 20
92.9375
 30
0.0
 11
31.6687
 21
92.9375
 31
0.0
  0
LINE
  8
0
 62
     0
 10
31.6687
 20
92.9375
 30
0.0
 11
31.6687
 21
98.7379
 31
0.0
  0
LINE
  8
0
 62
     0
 10
31.6687
 20
98.7379
 30
0.0
 11
30.8694
 21
98.7379
 31
0.0
  0
LINE
  8
0
 62
     0
 10
30.8694
 20
98.7379
 30
0.0
 11
30.8694
 21
101.837
 31
0.0
  0
LINE
  8
0
 62
     0
 10
30.8694
 20
101.837
 30
0.0
 11
31.6687
 21
101.837
 31
0.0
  0
LINE
  8
0
 62
     0
 10
31.6687
 20
101.837
 30
0.0
 11
31.6687
 21
102.838
 31
0.0
  0
LINE
  8
0
 62
     0
 10
31.6687
 20
102.838
 30
0.0
 11
45.6681
 21
102.838
 31
0.0
  0
LINE
  8
0
 62
     0
 10
45.6681
 20
102.838
 30
0.0
 11
45.6681
 21
101.837
 31
0.0
  0
LINE
  8
0
 62
     0
 10
45.6681
 20
101.837
 30
0.0
 11
46.4689
 21
101.837
 31
0.0
  0
LINE
  8
0
 62
     0
 10
46.4689
 20
101.837
 30
0.0
 11
46.4689
 21
98.7379
 31
0.0
  0
LINE
  8
0
 62
     0
 10
46.4689
 20
98.7379
 30
0.0
 11
45.6681
 21
98.7379
 31
0.0
  0
LINE
  8
0
 62
     0
 10
45.6681
 20
98.7379
 30
0.0
 11
45.6681
 21
92.9375
 31
0.0
  0
LINE
  8
0
 62
     0
 10
45.6681
 20
92.9375
 30
0.0
 11
46.4689
 21
92.9375
 31
0.0
  0
LINE
  8
0
 62
     0
 10
46.4689
 20
92.9375
 30
0.0
 11
46.4689
 21
89.837
 31
0.0
  0
LINE
  8
0
 62
     0
 10
46.4689
 20
89.837
 30
0.0
 11
45.6681
 21
89.837
 31
0.0
  0
LINE
  8
0
 62
     0
 10
46.7501
 20
38.1868
 30
0.0
 11
46.7501
 21
31.9168
 31
0.0
  0
LINE
  8
0
 62
     0
 10
46.7501
 20
31.9168
 30
0.0
 11
45.1252
 21
31.9168
 31
0.0
  0
LINE
  8
0
 62
     0
 10
45.1252
 20
31.9168
 30
0.0
 11
45.1252
 21
30.937
 31
0.0
  0
LINE
  8
0
 62
     0
 10
45.1252
 20
30.937
 30
0.0
 11
41.825
 21
30.937
 31
0.0
  0
LINE
  8
0
 62
     0
 10
41.825
 20
30.937
 30
0.0
 11
41.825
 21
31.9168
 31
0.0
  0
LINE
  8
0
 62
     0
 10
41.825
 20
31.9168
 30
0.0
 11
40.0995
 21
31.9168
 31
0.0
  0
LINE
  8
0
 62
     0
 10
40.0995
 20
31.9168
 30
0.0
 11
40.0995
 21
32.7174
 31
0.0
  0
LINE
  8
0
 62
     0
 10
40.0995
 20
32.7174
 30
0.0
 11
39.3252
 21
32.7174
 31
0.0
  0
LINE
  8
0
 62
     0
 10
39.3252
 20
32.7174
 30
0.0
 11
39.3252
 21
32.6871
 31
0.0
  0
LINE
  8
0
 62
     0
 10
39.3252
 20
32.6871
 30
0.0
 11
38.5244
 21
32.6871
 31
0.0
  0
LINE
  8
0
 62
     0
 10
38.5244
 20
32.6871
 30
0.0
 11
38.5244
 21
31.688
 31
0.0
  0
LINE
  8
0
 62
     0
 10
38.5244
 20
31.688
 30
0.0
 11
24.5249
 21
31.688
 31
0.0
  0
LINE
  8
0
 62
     0
 10
24.5249
 20
31.688
 30
0.0
 11
24.5249
 21
32.6871
 31
0.0
  0
LINE
  8
0
 62
     0
 10
24.5249
 20
32.6871
 30
0.0
 11
23.7243
 21
32.6871
 31
0.0
  0
LINE
  8
0
 62
     0
 10
23.7243
 20
32.6871
 30
0.0
 11
23.7243
 21
32.7174
 31
0.0
  0
LINE
  8
0
 62
     0
 10
23.7243
 20
32.7174
 30
0.0
 11
22.9499
 21
32.7174
 31
0.0
  0
LINE
  8
0
 62
     0
 10
22.9499
 20
32.7174
 30
0.0
 11
22.9499
 21
31.9168
 31
0.0
  0
LINE
  8
0
 62
     0
 10
22.9499
 20
31.9168
 30
0.0
 11
21.2246
 21
31.9168
 31
0.0
  0
LINE
  8
0
 62
     0
 10
21.2246
 20
31.9168
 30
0.0
 11
21.2246
 21
30.937
 31
0.0
  0
LINE
  8
0
 62
     0
 10
21.2246
 20
30.937
 30
0.0
 11
17.9241
 21
30.937
 31
0.0
  0
LINE
  8
0
 62
     0
 10
17.9241
 20
30.937
 30
0.0
 11
17.9241
 21
31.9168
 31
0.0
  0
LINE
  8
0
 62
     0
 10
17.9241
 20
31.9168
 30
0.0
 11
16.2994
 21
31.9168
 31
0.0
  0
LINE
  8
0
 62
     0
 10
16.2994
 20
31.9168
 30
0.0
 11
16.2994
 21
38.1868
 31
0.0
  0
LINE
  8
0
 62
     0
 10
16.2994
 20
38.1868
 30
0.0
 11
15.4244
 21
38.1868
 31
0.0
  0
LINE
  8
0
 62
     0
 10
15.4244
 20
38.1868
 30
0.0
 11
15.4244
 21
40.9871
 31
0.0
  0
LINE
  8
0
 62
     0
 10
15.4244
 20
40.9871
 30
0.0
 11
16.2994
 21
40.9871
 31
0.0
  0
LINE
  8
0
 62
     0
 10
16.2994
 20
40.9871
 30
0.0
 11
16.2994
 21
44.2172
 31
0.0
  0
LINE
  8
0
 62
     0
 10
16.2994
 20
44.2172
 30
0.0
 11
17.9241
 21
44.2172
 31
0.0
  0
LINE
  8
0
 62
     0
 10
17.9241
 20
44.2172
 30
0.0
 11
17.9241
 21
45.1376
 31
0.0
  0
LINE
  8
0
 62
     0
 10
17.9241
 20
45.1376
 30
0.0
 11
21.2246
 21
45.1376
 31
0.0
  0
LINE
  8
0
 62
     0
 10
21.2246
 20
45.1376
 30
0.0
 11
21.2246
 21
44.2172
 31
0.0
  0
LINE
  8
0
 62
     0
 10
21.2246
 20
44.2172
 30
0.0
 11
22.9499
 21
44.2172
 31
0.0
  0
LINE
  8
0
 62
     0
 10
22.9499
 20
44.2172
 30
0.0
 11
22.9499
 21
43.4178
 31
0.0
  0
LINE
  8
0
 62
     0
 10
22.9499
 20
43.4178
 30
0.0
 11
23.7243
 21
43.4178
 31
0.0
  0
LINE
  8
0
 62
     0
 10
23.7243
 20
43.4178
 30
0.0
 11
23.7243
 21
44.6871
 31
0.0
  0
LINE
  8
0
 62
     0
 10
23.7243
 20
44.6871
 30
0.0
 11
24.5249
 21
44.6871
 31
0.0
  0
LINE
  8
0
 62
     0
 10
24.5249
 20
44.6871
 30
0.0
 11
24.5249
 21
45.6875
 31
0.0
  0
LINE
  8
0
 62
     0
 10
24.5249
 20
45.6875
 30
0.0
 11
38.5244
 21
45.6875
 31
0.0
  0
LINE
  8
0
 62
     0
 10
38.5244
 20
45.6875
 30
0.0
 11
38.5244
 21
44.6871
 31
0.0
  0
LINE
  8
0
 62
     0
 10
38.5244
 20
44.6871
 30
0.0
 11
39.3252
 21
44.6871
 31
0.0
  0
LINE
  8
0
 62
     0
 10
39.3252
 20
44.6871
 30
0.0
 11
39.3252
 21
43.4178
 31
0.0
  0
LINE
  8
0
 62
     0
 10
39.3252
 20
43.4178
 30
0.0
 11
40.0995
 21
43.4178
 31
0.0
  0
LINE
  8
0
 62
     0
 10
40.0995
 20
43.4178
 30
0.0
 11
40.0995
 21
44.2172
 31
0.0
  0
LINE
  8
0
 62
     0
 10
40.0995
 20
44.2172
 30
0.0
 11
41.825
 21
44.2172
 31
0.0
  0
LINE
  8
0
 62
     0
 10
41.825
 20
44.2172
 30
0.0
 11
41.825
 21
45.1376
 31
0.0
  0
LINE
  8
0
 62
     0
 10
41.825
 20
45.1376
 30
0.0
 11
45.1252
 21
45.1376
 31
0.0
  0
LINE
  8
0
 62
     0
 10
45.1252
 20
45.1376
 30
0.0
 11
45.1252
 21
44.2172
 31
0.0
  0
LINE
  8
0
 62
     0
 10
45.1252
 20
44.2172
 30
0.0
 11
46.7501
 21
44.2172
 31
0.0
  0
LINE
  8
0
 62
     0
 10
46.7501
 20
44.2172
 30
0.0
 11
46.7501
 21
40.9871
 31
0.0
  0
LINE
  8
0
 62
     0
 10
46.7501
 20
40.9871
 30
0.0
 11
47.625
 21
40.9871
 31
0.0
  0
LINE
  8
0
 62
     0
 10
47.625
 20
40.9871
 30
0.0
 11
47.625
 21
38.1868
 31
0.0
  0
LINE
  8
0
 62
     0
 10
47.625
 20
38.1868
 30
0.0
 11
46.7501
 21
38.1868
 31
0.0
  0
LINE
  8
0
 62
     0
 10
52.8133
 20
13.6371
 30
0.0
 11
52.8133
 21
12.638
 31
0.0
  0
LINE
  8
0
 62
     0
 10
52.8133
 20
12.638
 30
0.0
 11
38.8126
 21
12.638
 31
0.0
  0
LINE
  8
0
 62
     0
 10
38.8126
 20
12.638
 30
0.0
 11
38.8126
 21
13.6371
 31
0.0
  0
LINE
  8
0
 62
     0
 10
38.8126
 20
13.6371
 30
0.0
 11
38.0132
 21
13.6371
 31
0.0
  0
LINE
  8
0
 62
     0
 10
38.0132
 20
13.6371
 30
0.0
 11
38.0132
 21
16.7376
 31
0.0
  0
LINE
  8
0
 62
     0
 10
38.0132
 20
16.7376
 30
0.0
 11
38.8126
 21
16.7376
 31
0.0
  0
LINE
  8
0
 62
     0
 10
38.8126
 20
16.7376
 30
0.0
 11
38.8126
 21
22.5378
 31
0.0
  0
LINE
  8
0
 62
     0
 10
38.8126
 20
22.5378
 30
0.0
 11
38.0132
 21
22.5378
 31
0.0
  0
LINE
  8
0
 62
     0
 10
38.0132
 20
22.5378
 30
0.0
 11
38.0132
 21
25.637
 31
0.0
  0
LINE
  8
0
 62
     0
 10
38.0132
 20
25.637
 30
0.0
 11
38.8126
 21
25.637
 31
0.0
  0
LINE
  8
0
 62
     0
 10
38.8126
 20
25.637
 30
0.0
 11
38.8126
 21
26.6375
 31
0.0
  0
LINE
  8
0
 62
     0
 10
38.8126
 20
26.6375
 30
0.0
 11
52.8133
 21
26.6375
 31
0.0
  0
LINE
  8
0
 62
     0
 10
52.8133
 20
26.6375
 30
0.0
 11
52.8133
 21
25.637
 31
0.0
  0
LINE
  8
0
 62
     0
 10
52.8133
 20
25.637
 30
0.0
 11
53.6127
 21
25.637
 31
0.0
  0
LINE
  8
0
 62
     0
 10
53.6127
 20
25.637
 30
0.0
 11
53.6127
 21
22.5378
 31
0.0
  0
LINE
  8
0
 62
     0
 10
53.6127
 20
22.5378
 30
0.0
 11
52.8133
 21
22.5378
 31
0.0
  0
LINE
  8
0
 62
     0
 10
52.8133
 20
22.5378
 30
0.0
 11
52.8133
 21
16.7376
 31
0.0
  0
LINE
  8
0
 62
     0
 10
52.8133
 20
16.7376
 30
0.0
 11
53.6127
 21
16.7376
 31
0.0
  0
LINE
  8
0
 62
     0
 10
53.6127
 20
16.7376
 30
0.0
 11
53.6127
 21
13.6371
 31
0.0
  0
LINE
  8
0
 62
     0
 10
53.6127
 20
13.6371
 30
0.0
 11
52.8133
 21
13.6371
 31
0.0
  0
LINE
  8
0
 62
     0
 10
55.1931
 20
70.787
 30
0.0
 11
55.1931
 21
69.7879
 31
0.0
  0
LINE
  8
0
 62
     0
 10
55.1931
 20
69.7879
 30
0.0
 11
41.1939
 21
69.7879
 31
0.0
  0
LINE
  8
0
 62
     0
 10
41.1939
 20
69.7879
 30
0.0
 11
41.1939
 21
70.787
 31
0.0
  0
LINE
  8
0
 62
     0
 10
41.1939
 20
70.787
 30
0.0
 11
40.3945
 21
70.787
 31
0.0
  0
LINE
  8
0
 62
     0
 10
40.3945
 20
70.787
 30
0.0
 11
40.3945
 21
73.8875
 31
0.0
  0
LINE
  8
0
 62
     0
 10
40.3945
 20
73.8875
 30
0.0
 11
41.1939
 21
73.8875
 31
0.0
  0
LINE
  8
0
 62
     0
 10
41.1939
 20
73.8875
 30
0.0
 11
41.1939
 21
79.6879
 31
0.0
  0
LINE
  8
0
 62
     0
 10
41.1939
 20
79.6879
 30
0.0
 11
40.3945
 21
79.6879
 31
0.0
  0
LINE
  8
0
 62
     0
 10
40.3945
 20
79.6879
 30
0.0
 11
40.3945
 21
82.7871
 31
0.0
  0
LINE
  8
0
 62
     0
 10
40.3945
 20
82.7871
 30
0.0
 11
41.1939
 21
82.7871
 31
0.0
  0
LINE
  8
0
 62
     0
 10
41.1939
 20
82.7871
 30
0.0
 11
41.1939
 21
83.7875
 31
0.0
  0
LINE
  8
0
 62
     0
 10
41.1939
 20
83.7875
 30
0.0
 11
55.1931
 21
83.7875
 31
0.0
  0
LINE
  8
0
 62
     0
 10
55.1931
 20
83.7875
 30
0.0
 11
55.1931
 21
82.7871
 31
0.0
  0
LINE
  8
0
 62
     0
 10
55.1931
 20
82.7871
 30
0.0
 11
55.9939
 21
82.7871
 31
0.0
  0
LINE
  8
0
 62
     0
 10
55.9939
 20
82.7871
 30
0.0
 11
55.9939
 21
79.6879
 31
0.0
  0
LINE
  8
0
 62
     0
 10
55.9939
 20
79.6879
 30
0.0
 11
55.1931
 21
79.6879
 31
0.0
  0
LINE
  8
0
 62
     0
 10
55.1931
 20
79.6879
 30
0.0
 11
55.1931
 21
73.8875
 31
0.0
  0
LINE
  8
0
 62
     0
 10
55.1931
 20
73.8875
 30
0.0
 11
55.9939
 21
73.8875
 31
0.0
  0
LINE
  8
0
 62
     0
 10
55.9939
 20
73.8875
 30
0.0
 11
55.9939
 21
70.787
 31
0.0
  0
LINE
  8
0
 62
     0
 10
55.9939
 20
70.787
 30
0.0
 11
55.1931
 21
70.787
 31
0.0
  0
LINE
  8
0
 62
     0
 10
59.9556
 20
51.737
 30
0.0
 11
59.9556
 21
50.7379
 31
0.0
  0
LINE
  8
0
 62
     0
 10
59.9556
 20
50.7379
 30
0.0
 11
45.9564
 21
50.7379
 31
0.0
  0
LINE
  8
0
 62
     0
 10
45.9564
 20
50.7379
 30
0.0
 11
45.9564
 21
51.737
 31
0.0
  0
LINE
  8
0
 62
     0
 10
45.9564
 20
51.737
 30
0.0
 11
45.1556
 21
51.737
 31
0.0
  0
LINE
  8
0
 62
     0
 10
45.1556
 20
51.737
 30
0.0
 11
45.1556
 21
54.8375
 31
0.0
  0
LINE
  8
0
 62
     0
 10
45.1556
 20
54.8375
 30
0.0
 11
45.9564
 21
54.8375
 31
0.0
  0
LINE
  8
0
 62
     0
 10
45.9564
 20
54.8375
 30
0.0
 11
45.9564
 21
60.6379
 31
0.0
  0
LINE
  8
0
 62
     0
 10
45.9564
 20
60.6379
 30
0.0
 11
45.1556
 21
60.6379
 31
0.0
  0
LINE
  8
0
 62
     0
 10
45.1556
 20
60.6379
 30
0.0
 11
45.1556
 21
63.7371
 31
0.0
  0
LINE
  8
0
 62
     0
 10
45.1556
 20
63.7371
 30
0.0
 11
45.9564
 21
63.7371
 31
0.0
  0
LINE
  8
0
 62
     0
 10
45.9564
 20
63.7371
 30
0.0
 11
45.9564
 21
64.7375
 31
0.0
  0
LINE
  8
0
 62
     0
 10
45.9564
 20
64.7375
 30
0.0
 11
59.9556
 21
64.7375
 31
0.0
  0
LINE
  8
0
 62
     0
 10
59.9556
 20
64.7375
 30
0.0
 11
59.9556
 21
63.7371
 31
0.0
  0
LINE
  8
0
 62
     0
 10
59.9556
 20
63.7371
 30
0.0
 11
60.7564
 21
63.7371
 31
0.0
  0
LINE
  8
0
 62
     0
 10
60.7564
 20
63.7371
 30
0.0
 11
60.7564
 21
60.6379
 31
0.0
  0
LINE
  8
0
 62
     0
 10
60.7564
 20
60.6379
 30
0.0
 11
59.9556
 21
60.6379
 31
0.0
  0
LINE
  8
0
 62
     0
 10
59.9556
 20
60.6379
 30
0.0
 11
59.9556
 21
54.8375
 31
0.0
  0
LINE
  8
0
 62
     0
 10
59.9556
 20
54.8375
 30
0.0
 11
60.7564
 21
54.8375
 31
0.0
  0
LINE
  8
0
 62
     0
 10
60.7564
 20
54.8375
 30
0.0
 11
60.7564
 21
51.737
 31
0.0
  0
LINE
  8
0
 62
     0
 10
60.7564
 20
51.737
 30
0.0
 11
59.9556
 21
51.737
 31
0.0
  0
LINE
  8
0
 62
     0
 10
64.7181
 20
118.412
 30
0.0
 11
64.7181
 21
117.413
 31
0.0
  0
LINE
  8
0
 62
     0
 10
64.7181
 20
117.413
 30
0.0
 11
50.7189
 21
117.413
 31
0.0
  0
LINE
  8
0
 62
     0
 10
50.7189
 20
117.413
 30
0.0
 11
50.7189
 21
118.412
 31
0.0
  0
LINE
  8
0
 62
     0
 10
50.7189
 20
118.412
 30
0.0
 11
49.9195
 21
118.412
 31
0.0
  0
LINE
  8
0
 62
     0
 10
49.9195
 20
118.412
 30
0.0
 11
49.9195
 21
121.513
 31
0.0
  0
LINE
  8
0
 62
     0
 10
49.9195
 20
121.513
 30
0.0
 11
50.7189
 21
121.513
 31
0.0
  0
LINE
  8
0
 62
     0
 10
50.7189
 20
121.513
 30
0.0
 11
50.7189
 21
127.313
 31
0.0
  0
LINE
  8
0
 62
     0
 10
50.7189
 20
127.313
 30
0.0
 11
49.9195
 21
127.313
 31
0.0
  0
LINE
  8
0
 62
     0
 10
49.9195
 20
127.313
 30
0.0
 11
49.9195
 21
130.412
 31
0.0
  0
LINE
  8
0
 62
     0
 10
49.9195
 20
130.412
 30
0.0
 11
50.7189
 21
130.412
 31
0.0
  0
LINE
  8
0
 62
     0
 10
50.7189
 20
130.412
 30
0.0
 11
50.7189
 21
131.413
 31
0.0
  0
LINE
  8
0
 62
     0
 10
50.7189
 20
131.413
 30
0.0
 11
64.7181
 21
131.413
 31
0.0
  0
LINE
  8
0
 62
     0
 10
64.7181
 20
131.413
 30
0.0
 11
64.7181
 21
130.412
 31
0.0
  0
LINE
  8
0
 62
     0
 10
64.7181
 20
130.412
 30
0.0
 11
65.519
 21
130.412
 31
0.0
  0
LINE
  8
0
 62
     0
 10
65.519
 20
130.412
 30
0.0
 11
65.519
 21
127.313
 31
0.0
  0
LINE
  8
0
 62
     0
 10
65.519
 20
127.313
 30
0.0
 11
64.7181
 21
127.313
 31
0.0
  0
LINE
  8
0
 62
     0
 10
64.7181
 20
127.313
 30
0.0
 11
64.7181
 21
121.513
 31
0.0
  0
LINE
  8
0
 62
     0
 10
64.7181
 20
121.513
 30
0.0
 11
65.519
 21
121.513
 31
0.0
  0
LINE
  8
0
 62
     0
 10
65.519
 20
121.513
 30
0.0
 11
65.519
 21
118.412
 31
0.0
  0
LINE
  8
0
 62
     0
 10
65.519
 20
118.412
 30
0.0
 11
64.7181
 21
118.412
 31
0.0
  0
LINE
  8
0
 62
     0
 10
64.7181
 20
89.837
 30
0.0
 11
64.7181
 21
88.8379
 31
0.0
  0
LINE
  8
0
 62
     0
 10
64.7181
 20
88.8379
 30
0.0
 11
50.7189
 21
88.8379
 31
0.0
  0
LINE
  8
0
 62
     0
 10
50.7189
 20
88.8379
 30
0.0
 11
50.7189
 21
89.837
 31
0.0
  0
LINE
  8
0
 62
     0
 10
50.7189
 20
89.837
 30
0.0
 11
49.9195
 21
89.837
 31
0.0
  0
LINE
  8
0
 62
     0
 10
49.9195
 20
89.837
 30
0.0
 11
49.9195
 21
92.9375
 31
0.0
  0
LINE
  8
0
 62
     0
 10
49.9195
 20
92.9375
 30
0.0
 11
50.7189
 21
92.9375
 31
0.0
  0
LINE
  8
0
 62
     0
 10
50.7189
 20
92.9375
 30
0.0
 11
50.7189
 21
98.7379
 31
0.0
  0
LINE
  8
0
 62
     0
 10
50.7189
 20
98.7379
 30
0.0
 11
49.9195
 21
98.7379
 31
0.0
  0
LINE
  8
0
 62
     0
 10
49.9195
 20
98.7379
 30
0.0
 11
49.9195
 21
101.837
 31
0.0
  0
LINE
  8
0
 62
     0
 10
49.9195
 20
101.837
 30
0.0
 11
50.7189
 21
101.837
 31
0.0
  0
LINE
  8
0
 62
     0
 10
50.7189
 20
101.837
 30
0.0
 11
50.7189
 21
102.838
 31
0.0
  0
LINE
  8
0
 62
     0
 10
50.7189
 20
102.838
 30
0.0
 11
64.7181
 21
102.838
 31
0.0
  0
LINE
  8
0
 62
     0
 10
64.7181
 20
102.838
 30
0.0
 11
64.7181
 21
101.837
 31
0.0
  0
LINE
  8
0
 62
     0
 10
64.7181
 20
101.837
 30
0.0
 11
65.519
 21
101.837
 31
0.0
  0
LINE
  8
0
 62
     0
 10
65.519
 20
101.837
 30
0.0
 11
65.519
 21
98.7379
 31
0.0
  0
LINE
  8
0
 62
     0
 10
65.519
 20
98.7379
 30
0.0
 11
64.7181
 21
98.7379
 31
0.0
  0
LINE
  8
0
 62
     0
 10
64.7181
 20
98.7379
 30
0.0
 11
64.7181
 21
92.9375
 31
0.0
  0
LINE
  8
0
 62
     0
 10
64.7181
 20
92.9375
 30
0.0
 11
65.519
 21
92.9375
 31
0.0
  0
LINE
  8
0
 62
     0
 10
65.519
 20
92.9375
 30
0.0
 11
65.519
 21
89.837
 31
0.0
  0
LINE
  8
0
 62
     0
 10
65.519
 20
89.837
 30
0.0
 11
64.7181
 21
89.837
 31
0.0
  0
LINE
  8
0
 62
     0
 10
69.4821
 20
32.6871
 30
0.0
 11
69.4821
 21
31.688
 31
0.0
  0
LINE
  8
0
 62
     0
 10
69.4821
 20
31.688
 30
0.0
 11
55.4814
 21
31.688
 31
0.0
  0
LINE
  8
0
 62
     0
 10
55.4814
 20
31.688
 30
0.0
 11
55.4814
 21
32.6871
 31
0.0
  0
LINE
  8
0
 62
     0
 10
55.4814
 20
32.6871
 30
0.0
 11
54.682
 21
32.6871
 31
0.0
  0
LINE
  8
0
 62
     0
 10
54.682
 20
32.6871
 30
0.0
 11
54.682
 21
35.7875
 31
0.0
  0
LINE
  8
0
 62
     0
 10
54.682
 20
35.7875
 30
0.0
 11
55.4814
 21
35.7875
 31
0.0
  0
LINE
  8
0
 62
     0
 10
55.4814
 20
35.7875
 30
0.0
 11
55.4814
 21
41.5879
 31
0.0
  0
LINE
  8
0
 62
     0
 10
55.4814
 20
41.5879
 30
0.0
 11
54.682
 21
41.5879
 31
0.0
  0
LINE
  8
0
 62
     0
 10
54.682
 20
41.5879
 30
0.0
 11
54.682
 21
44.6871
 31
0.0
  0
LINE
  8
0
 62
     0
 10
54.682
 20
44.6871
 30
0.0
 11
55.4814
 21
44.6871
 31
0.0
  0
LINE
  8
0
 62
     0
 10
55.4814
 20
44.6871
 30
0.0
 11
55.4814
 21
45.6875
 31
0.0
  0
LINE
  8
0
 62
     0
 10
55.4814
 20
45.6875
 30
0.0
 11
69.4821
 21
45.6875
 31
0.0
  0
LINE
  8
0
 62
     0
 10
69.4821
 20
45.6875
 30
0.0
 11
69.4821
 21
44.6871
 31
0.0
  0
LINE
  8
0
 62
     0
 10
69.4821
 20
44.6871
 30
0.0
 11
70.2815
 21
44.6871
 31
0.0
  0
LINE
  8
0
 62
     0
 10
70.2815
 20
44.6871
 30
0.0
 11
70.2815
 21
41.5879
 31
0.0
  0
LINE
  8
0
 62
     0
 10
70.2815
 20
41.5879
 30
0.0
 11
69.4821
 21
41.5879
 31
0.0
  0
LINE
  8
0
 62
     0
 10
69.4821
 20
41.5879
 30
0.0
 11
69.4821
 21
35.7875
 31
0.0
  0
LINE
  8
0
 62
     0
 10
69.4821
 20
35.7875
 30
0.0
 11
70.2815
 21
35.7875
 31
0.0
  0
LINE
  8
0
 62
     0
 10
70.2815
 20
35.7875
 30
0.0
 11
70.2815
 21
32.6871
 31
0.0
  0
LINE
  8
0
 62
     0
 10
70.2815
 20
32.6871
 30
0.0
 11
69.4821
 21
32.6871
 31
0.0
  0
LINE
  8
0
 62
     0
 10
74.2431
 20
70.787
 30
0.0
 11
74.2431
 21
69.7879
 31
0.0
  0
LINE
  8
0
 62
     0
 10
74.2431
 20
69.7879
 30
0.0
 11
60.2439
 21
69.7879
 31
0.0
  0
LINE
  8
0
 62
     0
 10
60.2439
 20
69.7879
 30
0.0
 11
60.2439
 21
70.787
 31
0.0
  0
LINE
  8
0
 62
     0
 10
60.2439
 20
70.787
 30
0.0
 11
59.4445
 21
70.787
 31
0.0
  0
LINE
  8
0
 62
     0
 10
59.4445
 20
70.787
 30
0.0
 11
59.4445
 21
73.8875
 31
0.0
  0
LINE
  8
0
 62
     0
 10
59.4445
 20
73.8875
 30
0.0
 11
60.2439
 21
73.8875
 31
0.0
  0
LINE
  8
0
 62
     0
 10
60.2439
 20
73.8875
 30
0.0
 11
60.2439
 21
79.6879
 31
0.0
  0
LINE
  8
0
 62
     0
 10
60.2439
 20
79.6879
 30
0.0
 11
59.4445
 21
79.6879
 31
0.0
  0
LINE
  8
0
 62
     0
 10
59.4445
 20
79.6879
 30
0.0
 11
59.4445
 21
82.7871
 31
0.0
  0
LINE
  8
0
 62
     0
 10
59.4445
 20
82.7871
 30
0.0
 11
60.2439
 21
82.7871
 31
0.0
  0
LINE
  8
0
 62
     0
 10
60.2439
 20
82.7871
 30
0.0
 11
60.2439
 21
83.7875
 31
0.0
  0
LINE
  8
0
 62
     0
 10
60.2439
 20
83.7875
 30
0.0
 11
74.2431
 21
83.7875
 31
0.0
  0
LINE
  8
0
 62
     0
 10
74.2431
 20
83.7875
 30
0.0
 11
74.2431
 21
82.7871
 31
0.0
  0
LINE
  8
0
 62
     0
 10
74.2431
 20
82.7871
 30
0.0
 11
75.044
 21
82.7871
 31
0.0
  0
LINE
  8
0
 62
     0
 10
75.044
 20
82.7871
 30
0.0
 11
75.044
 21
79.6879
 31
0.0
  0
LINE
  8
0
 62
     0
 10
75.044
 20
79.6879
 30
0.0
 11
74.2431
 21
79.6879
 31
0.0
  0
LINE
  8
0
 62
     0
 10
74.2431
 20
79.6879
 30
0.0
 11
74.2431
 21
73.8875
 31
0.0
  0
LINE
  8
0
 62
     0
 10
74.2431
 20
73.8875
 30
0.0
 11
75.044
 21
73.8875
 31
0.0
  0
LINE
  8
0
 62
     0
 10
75.044
 20
73.8875
 30
0.0
 11
75.044
 21
70.787
 31
0.0
  0
LINE
  8
0
 62
     0
 10
75.044
 20
70.787
 30
0.0
 11
74.2431
 21
70.787
 31
0.0
  0
LINE
  8
0
 62
     0
 10
76.6244
 20
13.6371
 30
0.0
 11
76.6244
 21
12.638
 31
0.0
  0
LINE
  8
0
 62
     0
 10
76.6244
 20
12.638
 30
0.0
 11
62.6251
 21
12.638
 31
0.0
  0
LINE
  8
0
 62
     0
 10
62.6251
 20
12.638
 30
0.0
 11
62.6251
 21
13.6371
 31
0.0
  0
LINE
  8
0
 62
     0
 10
62.6251
 20
13.6371
 30
0.0
 11
61.8243
 21
13.6371
 31
0.0
  0
LINE
  8
0
 62
     0
 10
61.8243
 20
13.6371
 30
0.0
 11
61.8243
 21
16.7376
 31
0.0
  0
LINE
  8
0
 62
     0
 10
61.8243
 20
16.7376
 30
0.0
 11
62.6251
 21
16.7376
 31
0.0
  0
LINE
  8
0
 62
     0
 10
62.6251
 20
16.7376
 30
0.0
 11
62.6251
 21
22.5378
 31
0.0
  0
LINE
  8
0
 62
     0
 10
62.6251
 20
22.5378
 30
0.0
 11
61.8243
 21
22.5378
 31
0.0
  0
LINE
  8
0
 62
     0
 10
61.8243
 20
22.5378
 30
0.0
 11
61.8243
 21
25.637
 31
0.0
  0
LINE
  8
0
 62
     0
 10
61.8243
 20
25.637
 30
0.0
 11
62.6251
 21
25.637
 31
0.0
  0
LINE
  8
0
 62
     0
 10
62.6251
 20
25.637
 30
0.0
 11
62.6251
 21
26.6375
 31
0.0
  0
LINE
  8
0
 62
     0
 10
62.6251
 20
26.6375
 30
0.0
 11
76.6244
 21
26.6375
 31
0.0
  0
LINE
  8
0
 62
     0
 10
76.6244
 20
26.6375
 30
0.0
 11
76.6244
 21
25.637
 31
0.0
  0
LINE
  8
0
 62
     0
 10
76.6244
 20
25.637
 30
0.0
 11
77.4252
 21
25.637
 31
0.0
  0
LINE
  8
0
 62
     0
 10
77.4252
 20
25.637
 30
0.0
 11
77.4252
 21
22.5378
 31
0.0
  0
LINE
  8
0
 62
     0
 10
77.4252
 20
22.5378
 30
0.0
 11
76.6244
 21
22.5378
 31
0.0
  0
LINE
  8
0
 62
     0
 10
76.6244
 20
22.5378
 30
0.0
 11
76.6244
 21
16.7376
 31
0.0
  0
LINE
  8
0
 62
     0
 10
76.6244
 20
16.7376
 30
0.0
 11
77.4252
 21
16.7376
 31
0.0
  0
LINE
  8
0
 62
     0
 10
77.4252
 20
16.7376
 30
0.0
 11
77.4252
 21
13.6371
 31
0.0
  0
LINE
  8
0
 62
     0
 10
77.4252
 20
13.6371
 30
0.0
 11
76.6244
 21
13.6371
 31
0.0
  0
LINE
  8
0
 62
     0
 10
79.0056
 20
51.737
 30
0.0
 11
79.0056
 21
50.7379
 31
0.0
  0
LINE
  8
0
 62
     0
 10
79.0056
 20
50.7379
 30
0.0
 11
65.0064
 21
50.7379
 31
0.0
  0
LINE
  8
0
 62
     0
 10
65.0064
 20
50.7379
 30
0.0
 11
65.0064
 21
51.737
 31
0.0
  0
LINE
  8
0
 62
     0
 10
65.0064
 20
51.737
 30
0.0
 11
64.2056
 21
51.737
 31
0.0
  0
LINE
  8
0
 62
     0
 10
64.2056
 20
51.737
 30
0.0
 11
64.2056
 21
54.8375
 31
0.0
  0
LINE
  8
0
 62
     0
 10
64.2056
 20
54.8375
 30
0.0
 11
65.0064
 21
54.8375
 31
0.0
  0
LINE
  8
0
 62
     0
 10
65.0064
 20
54.8375
 30
0.0
 11
65.0064
 21
60.6379
 31
0.0
  0
LINE
  8
0
 62
     0
 10
65.0064
 20
60.6379
 30
0.0
 11
64.2056
 21
60.6379
 31
0.0
  0
LINE
  8
0
 62
     0
 10
64.2056
 20
60.6379
 30
0.0
 11
64.2056
 21
63.7371
 31
0.0
  0
LINE
  8
0
 62
     0
 10
64.2056
 20
63.7371
 30
0.0
 11
65.0064
 21
63.7371
 31
0.0
  0
LINE
  8
0
 62
     0
 10
65.0064
 20
63.7371
 30
0.0
 11
65.0064
 21
64.7375
 31
0.0
  0
LINE
  8
0
 62
     0
 10
65.0064
 20
64.7375
 30
0.0
 11
79.0056
 21
64.7375
 31
0.0
  0
LINE
  8
0
 62
     0
 10
79.0056
 20
64.7375
 30
0.0
 11
79.0056
 21
63.7371
 31
0.0
  0
LINE
  8
0
 62
     0
 10
79.0056
 20
63.7371
 30
0.0
 11
79.8065
 21
63.7371
 31
0.0
  0
LINE
  8
0
 62
     0
 10
79.8065
 20
63.7371
 30
0.0
 11
79.8065
 21
60.6379
 31
0.0
  0
LINE
  8
0
 62
     0
 10
79.8065
 20
60.6379
 30
0.0
 11
79.0056
 21
60.6379
 31
0.0
  0
LINE
  8
0
 62
     0
 10
79.0056
 20
60.6379
 30
0.0
 11
79.0056
 21
54.8375
 31
0.0
  0
LINE
  8
0
 62
     0
 10
79.0056
 20
54.8375
 30
0.0
 11
79.8065
 21
54.8375
 31
0.0
  0
LINE
  8
0
 62
     0
 10
79.8065
 20
54.8375
 30
0.0
 11
79.8065
 21
51.737
 31
0.0
  0
LINE
  8
0
 62
     0
 10
79.8065
 20
51.737
 30
0.0
 11
79.0056
 21
51.737
 31
0.0
  0
LINE
  8
0
 62
     0
 10
83.7681
 20
118.412
 30
0.0
 11
83.7681
 21
117.413
 31
0.0
  0
LINE
  8
0
 62
     0
 10
83.7681
 20
117.413
 30
0.0
 11
69.7689
 21
117.413
 31
0.0
  0
LINE
  8
0
 62
     0
 10
69.7689
 20
117.413
 30
0.0
 11
69.7689
 21
118.412
 31
0.0
  0
LINE
  8
0
 62
     0
 10
69.7689
 20
118.412
 30
0.0
 11
68.9695
 21
118.412
 31
0.0
  0
LINE
  8
0
 62
     0
 10
68.9695
 20
118.412
 30
0.0
 11
68.9695
 21
121.513
 31
0.0
  0
LINE
  8
0
 62
     0
 10
68.9695
 20
121.513
 30
0.0
 11
69.7689
 21
121.513
 31
0.0
  0
LINE
  8
0
 62
     0
 10
69.7689
 20
121.513
 30
0.0
 11
69.7689
 21
127.313
 31
0.0
  0
LINE
  8
0
 62
     0
 10
69.7689
 20
127.313
 30
0.0
 11
68.9695
 21
127.313
 31
0.0
  0
LINE
  8
0
 62
     0
 10
68.9695
 20
127.313
 30
0.0
 11
68.9695
 21
130.412
 31
0.0
  0
LINE
  8
0
 62
     0
 10
68.9695
 20
130.412
 30
0.0
 11
69.7689
 21
130.412
 31
0.0
  0
LINE
  8
0
 62
     0
 10
69.7689
 20
130.412
 30
0.0
 11
69.7689
 21
131.413
 31
0.0
  0
LINE
  8
0
 62
     0
 10
69.7689
 20
131.413
 30
0.0
 11
83.7681
 21
131.413
 31
0.0
  0
LINE
  8
0
 62
     0
 10
83.7681
 20
131.413
 30
0.0
 11
83.7681
 21
130.412
 31
0.0
  0
LINE
  8
0
 62
     0
 10
83.7681
 20
130.412
 30
0.0
 11
84.569
 21
130.412
 31
0.0
  0
LINE
  8
0
 62
     0
 10
84.569
 20
130.412
 30
0.0
 11
84.569
 21
127.313
 31
0.0
  0
LINE
  8
0
 62
     0
 10
84.569
 20
127.313
 30
0.0
 11
83.7681
 21
127.313
 31
0.0
  0
LINE
  8
0
 62
     0
 10
83.7681
 20
127.313
 30
0.0
 11
83.7681
 21
121.513
 31
0.0
  0
LINE
  8
0
 62
     0
 10
83.7681
 20
121.513
 30
0.0
 11
84.569
 21
121.513
 31
0.0
  0
LINE
  8
0
 62
     0
 10
84.569
 20
121.513
 30
0.0
 11
84.569
 21
118.412
 31
0.0
  0
LINE
  8
0
 62
     0
 10
84.569
 20
118.412
 30
0.0
 11
83.7681
 21
118.412
 31
0.0
  0
LINE
  8
0
 62
     0
 10
83.7681
 20
89.837
 30
0.0
 11
83.7681
 21
88.8379
 31
0.0
  0
LINE
  8
0
 62
     0
 10
83.7681
 20
88.8379
 30
0.0
 11
69.7689
 21
88.8379
 31
0.0
  0
LINE
  8
0
 62
     0
 10
69.7689
 20
88.8379
 30
0.0
 11
69.7689
 21
89.837
 31
0.0
  0
LINE
  8
0
 62
     0
 10
69.7689
 20
89.837
 30
0.0
 11
68.9695
 21
89.837
 31
0.0
  0
LINE
  8
0
 62
     0
 10
68.9695
 20
89.837
 30
0.0
 11
68.9695
 21
92.9375
 31
0.0
  0
LINE
  8
0
 62
     0
 10
68.9695
 20
92.9375
 30
0.0
 11
69.7689
 21
92.9375
 31
0.0
  0
LINE
  8
0
 62
     0
 10
69.7689
 20
92.9375
 30
0.0
 11
69.7689
 21
98.7379
 31
0.0
  0
LINE
  8
0
 62
     0
 10
69.7689
 20
98.7379
 30
0.0
 11
68.9695
 21
98.7379
 31
0.0
  0
LINE
  8
0
 62
     0
 10
68.9695
 20
98.7379
 30
0.0
 11
68.9695
 21
101.837
 31
0.0
  0
LINE
  8
0
 62
     0
 10
68.9695
 20
101.837
 30
0.0
 11
69.7689
 21
101.837
 31
0.0
  0
LINE
  8
0
 62
     0
 10
69.7689
 20
101.837
 30
0.0
 11
69.7689
 21
102.838
 31
0.0
  0
LINE
  8
0
 62
     0
 10
69.7689
 20
102.838
 30
0.0
 11
83.7681
 21
102.838
 31
0.0
  0
LINE
  8
0
 62
     0
 10
83.7681
 20
102.838
 30
0.0
 11
83.7681
 21
101.837
 31
0.0
  0
LINE
  8
0
 62
     0
 10
83.7681
 20
101.837
 30
0.0
 11
84.569
 21
101.837
 31
0.0
  0
LINE
  8
0
 62
     0
 10
84.569
 20
101.837
 30
0.0
 11
84.569
 21
98.7379
 31
0.0
  0
LINE
  8
0
 62
     0
 10
84.569
 20
98.7379
 30
0.0
 11
83.7681
 21
98.7379
 31
0.0
  0
LINE
  8
0
 62
     0
 10
83.7681
 20
98.7379
 30
0.0
 11
83.7681
 21
92.9375
 31
0.0
  0
LINE
  8
0
 62
     0
 10
83.7681
 20
92.9375
 30
0.0
 11
84.569
 21
92.9375
 31
0.0
  0
LINE
  8
0
 62
     0
 10
84.569
 20
92.9375
 30
0.0
 11
84.569
 21
89.837
 31
0.0
  0
LINE
  8
0
 62
     0
 10
84.569
 20
89.837
 30
0.0
 11
83.7681
 21
89.837
 31
0.0
  0
LINE
  8
0
 62
     0
 10
88.5321
 20
32.6871
 30
0.0
 11
88.5321
 21
31.688
 31
0.0
  0
LINE
  8
0
 62
     0
 10
88.5321
 20
31.688
 30
0.0
 11
74.5314
 21
31.688
 31
0.0
  0
LINE
  8
0
 62
     0
 10
74.5314
 20
31.688
 30
0.0
 11
74.5314
 21
32.6871
 31
0.0
  0
LINE
  8
0
 62
     0
 10
74.5314
 20
32.6871
 30
0.0
 11
73.732
 21
32.6871
 31
0.0
  0
LINE
  8
0
 62
     0
 10
73.732
 20
32.6871
 30
0.0
 11
73.732
 21
35.7875
 31
0.0
  0
LINE
  8
0
 62
     0
 10
73.732
 20
35.7875
 30
0.0
 11
74.5314
 21
35.7875
 31
0.0
  0
LINE
  8
0
 62
     0
 10
74.5314
 20
35.7875
 30
0.0
 11
74.5314
 21
41.5879
 31
0.0
  0
LINE
  8
0
 62
     0
 10
74.5314
 20
41.5879
 30
0.0
 11
73.732
 21
41.5879
 31
0.0
  0
LINE
  8
0
 62
     0
 10
73.732
 20
41.5879
 30
0.0
 11
73.732
 21
44.6871
 31
0.0
  0
LINE
  8
0
 62
     0
 10
73.732
 20
44.6871
 30
0.0
 11
74.5314
 21
44.6871
 31
0.0
  0
LINE
  8
0
 62
     0
 10
74.5314
 20
44.6871
 30
0.0
 11
74.5314
 21
45.6875
 31
0.0
  0
LINE
  8
0
 62
     0
 10
74.5314
 20
45.6875
 30
0.0
 11
88.5321
 21
45.6875
 31
0.0
  0
LINE
  8
0
 62
     0
 10
88.5321
 20
45.6875
 30
0.0
 11
88.5321
 21
44.6871
 31
0.0
  0
LINE
  8
0
 62
     0
 10
88.5321
 20
44.6871
 30
0.0
 11
89.3315
 21
44.6871
 31
0.0
  0
LINE
  8
0
 62
     0
 10
89.3315
 20
44.6871
 30
0.0
 11
89.3315
 21
41.5879
 31
0.0
  0
LINE
  8
0
 62
     0
 10
89.3315
 20
41.5879
 30
0.0
 11
88.5321
 21
41.5879
 31
0.0
  0
LINE
  8
0
 62
     0
 10
88.5321
 20
41.5879
 30
0.0
 11
88.5321
 21
35.7875
 31
0.0
  0
LINE
  8
0
 62
     0
 10
88.5321
 20
35.7875
 30
0.0
 11
89.3315
 21
35.7875
 31
0.0
  0
LINE
  8
0
 62
     0
 10
89.3315
 20
35.7875
 30
0.0
 11
89.3315
 21
32.6871
 31
0.0
  0
LINE
  8
0
 62
     0
 10
89.3315
 20
32.6871
 30
0.0
 11
88.5321
 21
32.6871
 31
0.0
  0
LINE
  8
0
 62
     0
 10
93.2931
 20
70.787
 30
0.0
 11
93.2931
 21
69.7879
 31
0.0
  0
LINE
  8
0
 62
     0
 10
93.2931
 20
69.7879
 30
0.0
 11
79.2939
 21
69.7879
 31
0.0
  0
LINE
  8
0
 62
     0
 10
79.2939
 20
69.7879
 30
0.0
 11
79.2939
 21
70.787
 31
0.0
  0
LINE
  8
0
 62
     0
 10
79.2939
 20
70.787
 30
0.0
 11
78.4945
 21
70.787
 31
0.0
  0
LINE
  8
0
 62
     0
 10
78.4945
 20
70.787
 30
0.0
 11
78.4945
 21
73.8875
 31
0.0
  0
LINE
  8
0
 62
     0
 10
78.4945
 20
73.8875
 30
0.0
 11
79.2939
 21
73.8875
 31
0.0
  0
LINE
  8
0
 62
     0
 10
79.2939
 20
73.8875
 30
0.0
 11
79.2939
 21
79.6879
 31
0.0
  0
LINE
  8
0
 62
     0
 10
79.2939
 20
79.6879
 30
0.0
 11
78.4945
 21
79.6879
 31
0.0
  0
LINE
  8
0
 62
     0
 10
78.4945
 20
79.6879
 30
0.0
 11
78.4945
 21
82.7871
 31
0.0
  0
LINE
  8
0
 62
     0
 10
78.4945
 20
82.7871
 30
0.0
 11
79.2939
 21
82.7871
 31
0.0
  0
LINE
  8
0
 62
     0
 10
79.2939
 20
82.7871
 30
0.0
 11
79.2939
 21
83.7875
 31
0.0
  0
LINE
  8
0
 62
     0
 10
79.2939
 20
83.7875
 30
0.0
 11
93.2931
 21
83.7875
 31
0.0
  0
LINE
  8
0
 62
     0
 10
93.2931
 20
83.7875
 30
0.0
 11
93.2931
 21
82.7871
 31
0.0
  0
LINE
  8
0
 62
     0
 10
93.2931
 20
82.7871
 30
0.0
 11
94.0939
 21
82.7871
 31
0.0
  0
LINE
  8
0
 62
     0
 10
94.0939
 20
82.7871
 30
0.0
 11
94.0939
 21
79.6879
 31
0.0
  0
LINE
  8
0
 62
     0
 10
94.0939
 20
79.6879
 30
0.0
 11
93.2931
 21
79.6879
 31
0.0
  0
LINE
  8
0
 62
     0
 10
93.2931
 20
79.6879
 30
0.0
 11
93.2931
 21
73.8875
 31
0.0
  0
LINE
  8
0
 62
     0
 10
93.2931
 20
73.8875
 30
0.0
 11
94.0939
 21
73.8875
 31
0.0
  0
LINE
  8
0
 62
     0
 10
94.0939
 20
73.8875
 30
0.0
 11
94.0939
 21
70.787
 31
0.0
  0
LINE
  8
0
 62
     0
 10
94.0939
 20
70.787
 30
0.0
 11
93.2931
 21
70.787
 31
0.0
  0
LINE
  8
0
 62
     0
 10
98.0556
 20
51.737
 30
0.0
 11
98.0556
 21
50.7379
 31
0.0
  0
LINE
  8
0
 62
     0
 10
98.0556
 20
50.7379
 30
0.0
 11
84.0564
 21
50.7379
 31
0.0
  0
LINE
  8
0
 62
     0
 10
84.0564
 20
50.7379
 30
0.0
 11
84.0564
 21
51.737
 31
0.0
  0
LINE
  8
0
 62
     0
 10
84.0564
 20
51.737
 30
0.0
 11
83.2556
 21
51.737
 31
0.0
  0
LINE
  8
0
 62
     0
 10
83.2556
 20
51.737
 30
0.0
 11
83.2556
 21
54.8375
 31
0.0
  0
LINE
  8
0
 62
     0
 10
83.2556
 20
54.8375
 30
0.0
 11
84.0564
 21
54.8375
 31
0.0
  0
LINE
  8
0
 62
     0
 10
84.0564
 20
54.8375
 30
0.0
 11
84.0564
 21
60.6379
 31
0.0
  0
LINE
  8
0
 62
     0
 10
84.0564
 20
60.6379
 30
0.0
 11
83.2556
 21
60.6379
 31
0.0
  0
LINE
  8
0
 62
     0
 10
83.2556
 20
60.6379
 30
0.0
 11
83.2556
 21
63.7371
 31
0.0
  0
LINE
  8
0
 62
     0
 10
83.2556
 20
63.7371
 30
0.0
 11
84.0564
 21
63.7371
 31
0.0
  0
LINE
  8
0
 62
     0
 10
84.0564
 20
63.7371
 30
0.0
 11
84.0564
 21
64.7375
 31
0.0
  0
LINE
  8
0
 62
     0
 10
84.0564
 20
64.7375
 30
0.0
 11
98.0556
 21
64.7375
 31
0.0
  0
LINE
  8
0
 62
     0
 10
98.0556
 20
64.7375
 30
0.0
 11
98.0556
 21
63.7371
 31
0.0
  0
LINE
  8
0
 62
     0
 10
98.0556
 20
63.7371
 30
0.0
 11
98.8564
 21
63.7371
 31
0.0
  0
LINE
  8
0
 62
     0
 10
98.8564
 20
63.7371
 30
0.0
 11
98.8564
 21
60.6379
 31
0.0
  0
LINE
  8
0
 62
     0
 10
98.8564
 20
60.6379
 30
0.0
 11
98.0556
 21
60.6379
 31
0.0
  0
LINE
  8
0
 62
     0
 10
98.0556
 20
60.6379
 30
0.0
 11
98.0556
 21
54.8375
 31
0.0
  0
LINE
  8
0
 62
     0
 10
98.0556
 20
54.8375
 30
0.0
 11
98.8564
 21
54.8375
 31
0.0
  0
LINE
  8
0
 62
     0
 10
98.8564
 20
54.8375
 30
0.0
 11
98.8564
 21
51.737
 31
0.0
  0
LINE
  8
0
 62
     0
 10
98.8564
 20
51.737
 30
0.0
 11
98.0556
 21
51.737
 31
0.0
  0
LINE
  8
0
 62
     0
 10
102.818
 20
118.412
 30
0.0
 11
102.818
 21
117.413
 31
0.0
  0
LINE
  8
0
 62
     0
 10
102.818
 20
117.413
 30
0.0
 11
88.8189
 21
117.413
 31
0.0
  0
LINE
  8
0
 62
     0
 10
88.8189
 20
117.413
 30
0.0
 11
88.8189
 21
118.412
 31
0.0
  0
LINE
  8
0
 62
     0
 10
88.8189
 20
118.412
 30
0.0
 11
88.0195
 21
118.412
 31
0.0
  0
LINE
  8
0
 62
     0
 10
88.0195
 20
118.412
 30
0.0
 11
88.0195
 21
121.513
 31
0.0
  0
LINE
  8
0
 62
     0
 10
88.0195
 20
121.513
 30
0.0
 11
88.8189
 21
121.513
 31
0.0
  0
LINE
  8
0
 62
     0
 10
88.8189
 20
121.513
 30
0.0
 11
88.8189
 21
127.313
 31
0.0
  0
LINE
  8
0
 62
     0
 10
88.8189
 20
127.313
 30
0.0
 11
88.0195
 21
127.313
 31
0.0
  0
LINE
  8
0
 62
     0
 10
88.0195
 20
127.313
 30
0.0
 11
88.0195
 21
130.412
 31
0.0
  0
LINE
  8
0
 62
     0
 10
88.0195
 20
130.412
 30
0.0
 11
88.8189
 21
130.412
 31
0.0
  0
LINE
  8
0
 62
     0
 10
88.8189
 20
130.412
 30
0.0
 11
88.8189
 21
131.413
 31
0.0
  0
LINE
  8
0
 62
     0
 10
88.8189
 20
131.413
 30
0.0
 11
102.818
 21
131.413
 31
0.0
  0
LINE
  8
0
 62
     0
 10
102.818
 20
131.413
 30
0.0
 11
102.818
 21
130.412
 31
0.0
  0
LINE
  8
0
 62
     0
 10
102.818
 20
130.412
 30
0.0
 11
103.619
 21
130.412
 31
0.0
  0
LINE
  8
0
 62
     0
 10
103.619
 20
130.412
 30
0.0
 11
103.619
 21
127.313
 31
0.0
  0
LINE
  8
0
 62
     0
 10
103.619
 20
127.313
 30
0.0
 11
102.818
 21
127.313
 31
0.0
  0
LINE
  8
0
 62
     0
 10
102.818
 20
127.313
 30
0.0
 11
102.818
 21
121.513
 31
0.0
  0
LINE
  8
0
 62
     0
 10
102.818
 20
121.513
 30
0.0
 11
103.619
 21
121.513
 31
0.0
  0
LINE
  8
0
 62
     0
 10
103.619
 20
121.513
 30
0.0
 11
103.619
 21
118.412
 31
0.0
  0
LINE
  8
0
 62
     0
 10
103.619
 20
118.412
 30
0.0
 11
102.818
 21
118.412
 31
0.0
  0
LINE
  8
0
 62
     0
 10
102.818
 20
89.837
 30
0.0
 11
102.818
 21
88.8379
 31
0.0
  0
LINE
  8
0
 62
     0
 10
102.818
 20
88.8379
 30
0.0
 11
88.8189
 21
88.8379
 31
0.0
  0
LINE
  8
0
 62
     0
 10
88.8189
 20
88.8379
 30
0.0
 11
88.8189
 21
89.837
 31
0.0
  0
LINE
  8
0
 62
     0
 10
88.8189
 20
89.837
 30
0.0
 11
88.0195
 21
89.837
 31
0.0
  0
LINE
  8
0
 62
     0
 10
88.0195
 20
89.837
 30
0.0
 11
88.0195
 21
92.9375
 31
0.0
  0
LINE
  8
0
 62
     0
 10
88.0195
 20
92.9375
 30
0.0
 11
88.8189
 21
92.9375
 31
0.0
  0
LINE
  8
0
 62
     0
 10
88.8189
 20
92.9375
 30
0.0
 11
88.8189
 21
98.7379
 31
0.0
  0
LINE
  8
0
 62
     0
 10
88.8189
 20
98.7379
 30
0.0
 11
88.0195
 21
98.7379
 31
0.0
  0
LINE
  8
0
 62
     0
 10
88.0195
 20
98.7379
 30
0.0
 11
88.0195
 21
101.837
 31
0.0
  0
LINE
  8
0
 62
     0
 10
88.0195
 20
101.837
 30
0.0
 11
88.8189
 21
101.837
 31
0.0
  0
LINE
  8
0
 62
     0
 10
88.8189
 20
101.837
 30
0.0
 11
88.8189
 21
102.838
 31
0.0
  0
LINE
  8
0
 62
     0
 10
88.8189
 20
102.838
 30
0.0
 11
102.818
 21
102.838
 31
0.0
  0
LINE
  8
0
 62
     0
 10
102.818
 20
102.838
 30
0.0
 11
102.818
 21
101.837
 31
0.0
  0
LINE
  8
0
 62
     0
 10
102.818
 20
101.837
 30
0.0
 11
103.619
 21
101.837
 31
0.0
  0
LINE
  8
0
 62
     0
 10
103.619
 20
101.837
 30
0.0
 11
103.619
 21
98.7379
 31
0.0
  0
LINE
  8
0
 62
     0
 10
103.619
 20
98.7379
 30
0.0
 11
102.818
 21
98.7379
 31
0.0
  0
LINE
  8
0
 62
     0
 10
102.818
 20
98.7379
 30
0.0
 11
102.818
 21
92.9375
 31
0.0
  0
LINE
  8
0
 62
     0
 10
102.818
 20
92.9375
 30
0.0
 11
103.619
 21
92.9375
 31
0.0
  0
LINE
  8
0
 62
     0
 10
103.619
 20
92.9375
 30
0.0
 11
103.619
 21
89.837
 31
0.0
  0
LINE
  8
0
 62
     0
 10
103.619
 20
89.837
 30
0.0
 11
102.818
 21
89.837
 31
0.0
  0
LINE
  8
0
 62
     0
 10
107.582
 20
32.6871
 30
0.0
 11
107.582
 21
31.688
 31
0.0
  0
LINE
  8
0
 62
     0
 10
107.582
 20
31.688
 30
0.0
 11
93.5814
 21
31.688
 31
0.0
  0
LINE
  8
0
 62
     0
 10
93.5814
 20
31.688
 30
0.0
 11
93.5814
 21
32.6871
 31
0.0
  0
LINE
  8
0
 62
     0
 10
93.5814
 20
32.6871
 30
0.0
 11
92.782
 21
32.6871
 31
0.0
  0
LINE
  8
0
 62
     0
 10
92.782
 20
32.6871
 30
0.0
 11
92.782
 21
35.7875
 31
0.0
  0
LINE
  8
0
 62
     0
 10
92.782
 20
35.7875
 30
0.0
 11
93.5814
 21
35.7875
 31
0.0
  0
LINE
  8
0
 62
     0
 10
93.5814
 20
35.7875
 30
0.0
 11
93.5814
 21
41.5879
 31
0.0
  0
LINE
  8
0
 62
     0
 10
93.5814
 20
41.5879
 30
0.0
 11
92.782
 21
41.5879
 31
0.0
  0
LINE
  8
0
 62
     0
 10
92.782
 20
41.5879
 30
0.0
 11
92.782
 21
44.6871
 31
0.0
  0
LINE
  8
0
 62
     0
 10
92.782
 20
44.6871
 30
0.0
 11
93.5814
 21
44.6871
 31
0.0
  0
LINE
  8
0
 62
     0
 10
93.5814
 20
44.6871
 30
0.0
 11
93.5814
 21
45.6875
 31
0.0
  0
LINE
  8
0
 62
     0
 10
93.5814
 20
45.6875
 30
0.0
 11
107.582
 21
45.6875
 31
0.0
  0
LINE
  8
0
 62
     0
 10
107.582
 20
45.6875
 30
0.0
 11
107.582
 21
44.6871
 31
0.0
  0
LINE
  8
0
 62
     0
 10
107.582
 20
44.6871
 30
0.0
 11
108.381
 21
44.6871
 31
0.0
  0
LINE
  8
0
 62
     0
 10
108.381
 20
44.6871
 30
0.0
 11
108.381
 21
41.5879
 31
0.0
  0
LINE
  8
0
 62
     0
 10
108.381
 20
41.5879
 30
0.0
 11
107.582
 21
41.5879
 31
0.0
  0
LINE
  8
0
 62
     0
 10
107.582
 20
41.5879
 30
0.0
 11
107.582
 21
35.7875
 31
0.0
  0
LINE
  8
0
 62
     0
 10
107.582
 20
35.7875
 30
0.0
 11
108.381
 21
35.7875
 31
0.0
  0
LINE
  8
0
 62
     0
 10
108.381
 20
35.7875
 30
0.0
 11
108.381
 21
32.6871
 31
0.0
  0
LINE
  8
0
 62
     0
 10
108.381
 20
32.6871
 30
0.0
 11
107.582
 21
32.6871
 31
0.0
  0
LINE
  8
0
 62
     0
 10
112.343
 20
70.787
 30
0.0
 11
112.343
 21
69.7879
 31
0.0
  0
LINE
  8
0
 62
     0
 10
112.343
 20
69.7879
 30
0.0
 11
98.3439
 21
69.7879
 31
0.0
  0
LINE
  8
0
 62
     0
 10
98.3439
 20
69.7879
 30
0.0
 11
98.3439
 21
70.787
 31
0.0
  0
LINE
  8
0
 62
     0
 10
98.3439
 20
70.787
 30
0.0
 11
97.5445
 21
70.787
 31
0.0
  0
LINE
  8
0
 62
     0
 10
97.5445
 20
70.787
 30
0.0
 11
97.5445
 21
73.8875
 31
0.0
  0
LINE
  8
0
 62
     0
 10
97.5445
 20
73.8875
 30
0.0
 11
98.3439
 21
73.8875
 31
0.0
  0
LINE
  8
0
 62
     0
 10
98.3439
 20
73.8875
 30
0.0
 11
98.3439
 21
79.6879
 31
0.0
  0
LINE
  8
0
 62
     0
 10
98.3439
 20
79.6879
 30
0.0
 11
97.5445
 21
79.6879
 31
0.0
  0
LINE
  8
0
 62
     0
 10
97.5445
 20
79.6879
 30
0.0
 11
97.5445
 21
82.7871
 31
0.0
  0
LINE
  8
0
 62
     0
 10
97.5445
 20
82.7871
 30
0.0
 11
98.3439
 21
82.7871
 31
0.0
  0
LINE
  8
0
 62
     0
 10
98.3439
 20
82.7871
 30
0.0
 11
98.3439
 21
83.7875
 31
0.0
  0
LINE
  8
0
 62
     0
 10
98.3439
 20
83.7875
 30
0.0
 11
112.343
 21
83.7875
 31
0.0
  0
LINE
  8
0
 62
     0
 10
112.343
 20
83.7875
 30
0.0
 11
112.343
 21
82.7871
 31
0.0
  0
LINE
  8
0
 62
     0
 10
112.343
 20
82.7871
 30
0.0
 11
113.144
 21
82.7871
 31
0.0
  0
LINE
  8
0
 62
     0
 10
113.144
 20
82.7871
 30
0.0
 11
113.144
 21
79.6879
 31
0.0
  0
LINE
  8
0
 62
     0
 10
113.144
 20
79.6879
 30
0.0
 11
112.343
 21
79.6879
 31
0.0
  0
LINE
  8
0
 62
     0
 10
112.343
 20
79.6879
 30
0.0
 11
112.343
 21
73.8875
 31
0.0
  0
LINE
  8
0
 62
     0
 10
112.343
 20
73.8875
 30
0.0
 11
113.144
 21
73.8875
 31
0.0
  0
LINE
  8
0
 62
     0
 10
113.144
 20
73.8875
 30
0.0
 11
113.144
 21
70.787
 31
0.0
  0
LINE
  8
0
 62
     0
 10
113.144
 20
70.787
 30
0.0
 11
112.343
 21
70.787
 31
0.0
  0
LINE
  8
0
 62
     0
 10
117.106
 20
51.737
 30
0.0
 11
117.106
 21
50.7379
 31
0.0
  0
LINE
  8
0
 62
     0
 10
117.106
 20
50.7379
 30
0.0
 11
103.106
 21
50.7379
 31
0.0
  0
LINE
  8
0
 62
     0
 10
103.106
 20
50.7379
 30
0.0
 11
103.106
 21
51.737
 31
0.0
  0
LINE
  8
0
 62
     0
 10
103.106
 20
51.737
 30
0.0
 11
102.306
 21
51.737
 31
0.0
  0
LINE
  8
0
 62
     0
 10
102.306
 20
51.737
 30
0.0
 11
102.306
 21
54.8375
 31
0.0
  0
LINE
  8
0
 62
     0
 10
102.306
 20
54.8375
 30
0.0
 11
103.106
 21
54.8375
 31
0.0
  0
LINE
  8
0
 62
     0
 10
103.106
 20
54.8375
 30
0.0
 11
103.106
 21
60.6379
 31
0.0
  0
LINE
  8
0
 62
     0
 10
103.106
 20
60.6379
 30
0.0
 11
102.306
 21
60.6379
 31
0.0
  0
LINE
  8
0
 62
     0
 10
102.306
 20
60.6379
 30
0.0
 11
102.306
 21
63.7371
 31
0.0
  0
LINE
  8
0
 62
     0
 10
102.306
 20
63.7371
 30
0.0
 11
103.106
 21
63.7371
 31
0.0
  0
LINE
  8
0
 62
     0
 10
103.106
 20
63.7371
 30
0.0
 11
103.106
 21
64.7375
 31
0.0
  0
LINE
  8
0
 62
     0
 10
103.106
 20
64.7375
 30
0.0
 11
117.106
 21
64.7375
 31
0.0
  0
LINE
  8
0
 62
     0
 10
117.106
 20
64.7375
 30
0.0
 11
117.106
 21
63.7371
 31
0.0
  0
LINE
  8
0
 62
     0
 10
117.106
 20
63.7371
 30
0.0
 11
117.906
 21
63.7371
 31
0.0
  0
LINE
  8
0
 62
     0
 10
117.906
 20
63.7371
 30
0.0
 11
117.906
 21
60.6379
 31
0.0
  0
LINE
  8
0
 62
     0
 10
117.906
 20
60.6379
 30
0.0
 11
117.106
 21
60.6379
 31
0.0
  0
LINE
  8
0
 62
     0
 10
117.106
 20
60.6379
 30
0.0
 11
117.106
 21
54.8375
 31
0.0
  0
LINE
  8
0
 62
     0
 10
117.106
 20
54.8375
 30
0.0
 11
117.906
 21
54.8375
 31
0.0
  0
LINE
  8
0
 62
     0
 10
117.906
 20
54.8375
 30
0.0
 11
117.906
 21
51.737
 31
0.0
  0
LINE
  8
0
 62
     0
 10
117.906
 20
51.737
 30
0.0
 11
117.106
 21
51.737
 31
0.0
  0
LINE
  8
0
 62
     0
 10
121.868
 20
118.412
 30
0.0
 11
121.868
 21
117.413
 31
0.0
  0
LINE
  8
0
 62
     0
 10
121.868
 20
117.413
 30
0.0
 11
107.869
 21
117.413
 31
0.0
  0
LINE
  8
0
 62
     0
 10
107.869
 20
117.413
 30
0.0
 11
107.869
 21
118.412
 31
0.0
  0
LINE
  8
0
 62
     0
 10
107.869
 20
118.412
 30
0.0
 11
107.069
 21
118.412
 31
0.0
  0
LINE
  8
0
 62
     0
 10
107.069
 20
118.412
 30
0.0
 11
107.069
 21
121.513
 31
0.0
  0
LINE
  8
0
 62
     0
 10
107.069
 20
121.513
 30
0.0
 11
107.869
 21
121.513
 31
0.0
  0
LINE
  8
0
 62
     0
 10
107.869
 20
121.513
 30
0.0
 11
107.869
 21
127.313
 31
0.0
  0
LINE
  8
0
 62
     0
 10
107.869
 20
127.313
 30
0.0
 11
107.069
 21
127.313
 31
0.0
  0
LINE
  8
0
 62
     0
 10
107.069
 20
127.313
 30
0.0
 11
107.069
 21
130.412
 31
0.0
  0
LINE
  8
0
 62
     0
 10
107.069
 20
130.412
 30
0.0
 11
107.869
 21
130.412
 31
0.0
  0
LINE
  8
0
 62
     0
 10
107.869
 20
130.412
 30
0.0
 11
107.869
 21
131.413
 31
0.0
  0
LINE
  8
0
 62
     0
 10
107.869
 20
131.413
 30
0.0
 11
121.868
 21
131.413
 31
0.0
  0
LINE
  8
0
 62
     0
 10
121.868
 20
131.413
 30
0.0
 11
121.868
 21
130.412
 31
0.0
  0
LINE
  8
0
 62
     0
 10
121.868
 20
130.412
 30
0.0
 11
122.669
 21
130.412
 31
0.0
  0
LINE
  8
0
 62
     0
 10
122.669
 20
130.412
 30
0.0
 11
122.669
 21
127.313
 31
0.0
  0
LINE
  8
0
 62
     0
 10
122.669
 20
127.313
 30
0.0
 11
121.868
 21
127.313
 31
0.0
  0
LINE
  8
0
 62
     0
 10
121.868
 20
127.313
 30
0.0
 11
121.868
 21
121.513
 31
0.0
  0
LINE
  8
0
 62
     0
 10
121.868
 20
121.513
 30
0.0
 11
122.669
 21
121.513
 31
0.0
  0
LINE
  8
0
 62
     0
 10
122.669
 20
121.513
 30
0.0
 11
122.669
 21
118.412
 31
0.0
  0
LINE
  8
0
 62
     0
 10
122.669
 20
118.412
 30
0.0
 11
121.868
 21
118.412
 31
0.0
  0
LINE
  8
0
 62
     0
 10
121.868
 20
89.837
 30
0.0
 11
121.868
 21
88.8379
 31
0.0
  0
LINE
  8
0
 62
     0
 10
121.868
 20
88.8379
 30
0.0
 11
107.869
 21
88.8379
 31
0.0
  0
LINE
  8
0
 62
     0
 10
107.869
 20
88.8379
 30
0.0
 11
107.869
 21
89.837
 31
0.0
  0
LINE
  8
0
 62
     0
 10
107.869
 20
89.837
 30
0.0
 11
107.069
 21
89.837
 31
0.0
  0
LINE
  8
0
 62
     0
 10
107.069
 20
89.837
 30
0.0
 11
107.069
 21
92.9375
 31
0.0
  0
LINE
  8
0
 62
     0
 10
107.069
 20
92.9375
 30
0.0
 11
107.869
 21
92.9375
 31
0.0
  0
LINE
  8
0
 62
     0
 10
107.869
 20
92.9375
 30
0.0
 11
107.869
 21
98.7379
 31
0.0
  0
LINE
  8
0
 62
     0
 10
107.869
 20
98.7379
 30
0.0
 11
107.069
 21
98.7379
 31
0.0
  0
LINE
  8
0
 62
     0
 10
107.069
 20
98.7379
 30
0.0
 11
107.069
 21
101.837
 31
0.0
  0
LINE
  8
0
 62
     0
 10
107.069
 20
101.837
 30
0.0
 11
107.869
 21
101.837
 31
0.0
  0
LINE
  8
0
 62
     0
 10
107.869
 20
101.837
 30
0.0
 11
107.869
 21
102.838
 31
0.0
  0
LINE
  8
0
 62
     0
 10
107.869
 20
102.838
 30
0.0
 11
121.868
 21
102.838
 31
0.0
  0
LINE
  8
0
 62
     0
 10
121.868
 20
102.838
 30
0.0
 11
121.868
 21
101.837
 31
0.0
  0
LINE
  8
0
 62
     0
 10
121.868
 20
101.837
 30
0.0
 11
122.669
 21
101.837
 31
0.0
  0
LINE
  8
0
 62
     0
 10
122.669
 20
101.837
 30
0.0
 11
122.669
 21
98.7379
 31
0.0
  0
LINE
  8
0
 62
     0
 10
122.669
 20
98.7379
 30
0.0
 11
121.868
 21
98.7379
 31
0.0
  0
LINE
  8
0
 62
     0
 10
121.868
 20
98.7379
 30
0.0
 11
121.868
 21
92.9375
 31
0.0
  0
LINE
  8
0
 62
     0
 10
121.868
 20
92.9375
 30
0.0
 11
122.669
 21
92.9375
 31
0.0
  0
LINE
  8
0
 62
     0
 10
122.669
 20
92.9375
 30
0.0
 11
122.669
 21
89.837
 31
0.0
  0
LINE
  8
0
 62
     0
 10
122.669
 20
89.837
 30
0.0
 11
121.868
 21
89.837
 31
0.0
  0
LINE
  8
0
 62
     0
 10
126.632
 20
32.6871
 30
0.0
 11
126.632
 21
31.688
 31
0.0
  0
LINE
  8
0
 62
     0
 10
126.632
 20
31.688
 30
0.0
 11
112.631
 21
31.688
 31
0.0
  0
LINE
  8
0
 62
     0
 10
112.631
 20
31.688
 30
0.0
 11
112.631
 21
32.6871
 31
0.0
  0
LINE
  8
0
 62
     0
 10
112.631
 20
32.6871
 30
0.0
 11
111.832
 21
32.6871
 31
0.0
  0
LINE
  8
0
 62
     0
 10
111.832
 20
32.6871
 30
0.0
 11
111.832
 21
35.7875
 31
0.0
  0
LINE
  8
0
 62
     0
 10
111.832
 20
35.7875
 30
0.0
 11
112.631
 21
35.7875
 31
0.0
  0
LINE
  8
0
 62
     0
 10
112.631
 20
35.7875
 30
0.0
 11
112.631
 21
41.5879
 31
0.0
  0
LINE
  8
0
 62
     0
 10
112.631
 20
41.5879
 30
0.0
 11
111.832
 21
41.5879
 31
0.0
  0
LINE
  8
0
 62
     0
 10
111.832
 20
41.5879
 30
0.0
 11
111.832
 21
44.6871
 31
0.0
  0
LINE
  8
0
 62
     0
 10
111.832
 20
44.6871
 30
0.0
 11
112.631
 21
44.6871
 31
0.0
  0
LINE
  8
0
 62
     0
 10
112.631
 20
44.6871
 30
0.0
 11
112.631
 21
45.6875
 31
0.0
  0
LINE
  8
0
 62
     0
 10
112.631
 20
45.6875
 30
0.0
 11
126.632
 21
45.6875
 31
0.0
  0
LINE
  8
0
 62
     0
 10
126.632
 20
45.6875
 30
0.0
 11
126.632
 21
44.6871
 31
0.0
  0
LINE
  8
0
 62
     0
 10
126.632
 20
44.6871
 30
0.0
 11
127.431
 21
44.6871
 31
0.0
  0
LINE
  8
0
 62
     0
 10
127.431
 20
44.6871
 30
0.0
 11
127.431
 21
41.5879
 31
0.0
  0
LINE
  8
0
 62
     0
 10
127.431
 20
41.5879
 30
0.0
 11
126.632
 21
41.5879
 31
0.0
  0
LINE
  8
0
 62
     0
 10
126.632
 20
41.5879
 30
0.0
 11
126.632
 21
35.7875
 31
0.0
  0
LINE
  8
0
 62
     0
 10
126.632
 20
35.7875
 30
0.0
 11
127.431
 21
35.7875
 31
0.0
  0
LINE
  8
0
 62
     0
 10
127.431
 20
35.7875
 30
0.0
 11
127.431
 21
32.6871
 31
0.0
  0
LINE
  8
0
 62
     0
 10
127.431
 20
32.6871
 30
0.0
 11
126.632
 21
32.6871
 31
0.0
  0
LINE
  8
0
 62
     0
 10
131.393
 20
70.787
 30
0.0
 11
131.393
 21
69.7879
 31
0.0
  0
LINE
  8
0
 62
     0
 10
131.393
 20
69.7879
 30
0.0
 11
117.394
 21
69.7879
 31
0.0
  0
LINE
  8
0
 62
     0
 10
117.394
 20
69.7879
 30
0.0
 11
117.394
 21
70.787
 31
0.0
  0
LINE
  8
0
 62
     0
 10
117.394
 20
70.787
 30
0.0
 11
116.594
 21
70.787
 31
0.0
  0
LINE
  8
0
 62
     0
 10
116.594
 20
70.787
 30
0.0
 11
116.594
 21
73.8875
 31
0.0
  0
LINE
  8
0
 62
     0
 10
116.594
 20
73.8875
 30
0.0
 11
117.394
 21
73.8875
 31
0.0
  0
LINE
  8
0
 62
     0
 10
117.394
 20
73.8875
 30
0.0
 11
117.394
 21
79.6879
 31
0.0
  0
LINE
  8
0
 62
     0
 10
117.394
 20
79.6879
 30
0.0
 11
116.594
 21
79.6879
 31
0.0
  0
LINE
  8
0
 62
     0
 10
116.594
 20
79.6879
 30
0.0
 11
116.594
 21
82.7871
 31
0.0
  0
LINE
  8
0
 62
     0
 10
116.594
 20
82.7871
 30
0.0
 11
117.394
 21
82.7871
 31
0.0
  0
LINE
  8
0
 62
     0
 10
117.394
 20
82.7871
 30
0.0
 11
117.394
 21
83.7875
 31
0.0
  0
LINE
  8
0
 62
     0
 10
117.394
 20
83.7875
 30
0.0
 11
131.393
 21
83.7875
 31
0.0
  0
LINE
  8
0
 62
     0
 10
131.393
 20
83.7875
 30
0.0
 11
131.393
 21
82.7871
 31
0.0
  0
LINE
  8
0
 62
     0
 10
131.393
 20
82.7871
 30
0.0
 11
132.194
 21
82.7871
 31
0.0
  0
LINE
  8
0
 62
     0
 10
132.194
 20
82.7871
 30
0.0
 11
132.194
 21
79.6879
 31
0.0
  0
LINE
  8
0
 62
     0
 10
132.194
 20
79.6879
 30
0.0
 11
131.393
 21
79.6879
 31
0.0
  0
LINE
  8
0
 62
     0
 10
131.393
 20
79.6879
 30
0.0
 11
131.393
 21
73.8875
 31
0.0
  0
LINE
  8
0
 62
     0
 10
131.393
 20
73.8875
 30
0.0
 11
132.194
 21
73.8875
 31
0.0
  0
LINE
  8
0
 62
     0
 10
132.194
 20
73.8875
 30
0.0
 11
132.194
 21
70.787
 31
0.0
  0
LINE
  8
0
 62
     0
 10
132.194
 20
70.787
 30
0.0
 11
131.393
 21
70.787
 31
0.0
  0
LINE
  8
0
 62
     0
 10
136.156
 20
51.737
 30
0.0
 11
136.156
 21
50.7379
 31
0.0
  0
LINE
  8
0
 62
     0
 10
136.156
 20
50.7379
 30
0.0
 11
122.156
 21
50.7379
 31
0.0
  0
LINE
  8
0
 62
     0
 10
122.156
 20
50.7379
 30
0.0
 11
122.156
 21
51.737
 31
0.0
  0
LINE
  8
0
 62
     0
 10
122.156
 20
51.737
 30
0.0
 11
121.357
 21
51.737
 31
0.0
  0
LINE
  8
0
 62
     0
 10
121.357
 20
51.737
 30
0.0
 11
121.357
 21
54.8375
 31
0.0
  0
LINE
  8
0
 62
     0
 10
121.357
 20
54.8375
 30
0.0
 11
122.156
 21
54.8375
 31
0.0
  0
LINE
  8
0
 62
     0
 10
122.156
 20
54.8375
 30
0.0
 11
122.156
 21
60.6379
 31
0.0
  0
LINE
  8
0
 62
     0
 10
122.156
 20
60.6379
 30
0.0
 11
121.357
 21
60.6379
 31
0.0
  0
LINE
  8
0
 62
     0
 10
121.357
 20
60.6379
 30
0.0
 11
121.357
 21
63.7371
 31
0.0
  0
LINE
  8
0
 62
     0
 10
121.357
 20
63.7371
 30
0.0
 11
122.156
 21
63.7371
 31
0.0
  0
LINE
  8
0
 62
     0
 10
122.156
 20
63.7371
 30
0.0
 11
122.156
 21
64.7375
 31
0.0
  0
LINE
  8
0
 62
     0
 10
122.156
 20
64.7375
 30
0.0
 11
136.156
 21
64.7375
 31
0.0
  0
LINE
  8
0
 62
     0
 10
136.156
 20
64.7375
 30
0.0
 11
136.156
 21
63.7371
 31
0.0
  0
LINE
  8
0
 62
     0
 10
136.156
 20
63.7371
 30
0.0
 11
136.956
 21
63.7371
 31
0.0
  0
LINE
  8
0
 62
     0
 10
136.956
 20
63.7371
 30
0.0
 11
136.956
 21
60.6379
 31
0.0
  0
LINE
  8
0
 62
     0
 10
136.956
 20
60.6379
 30
0.0
 11
136.156
 21
60.6379
 31
0.0
  0
LINE
  8
0
 62
     0
 10
136.156
 20
60.6379
 30
0.0
 11
136.156
 21
54.8375
 31
0.0
  0
LINE
  8
0
 62
     0
 10
136.156
 20
54.8375
 30
0.0
 11
136.956
 21
54.8375
 31
0.0
  0
LINE
  8
0
 62
     0
 10
136.956
 20
54.8375
 30
0.0
 11
136.956
 21
51.737
 31
0.0
  0
LINE
  8
0
 62
     0
 10
136.956
 20
51.737
 30
0.0
 11
136.156
 21
51.737
 31
0.0
  0
LINE
  8
0
 62
     0
 10
140.918
 20
118.412
 30
0.0
 11
140.918
 21
117.413
 31
0.0
  0
LINE
  8
0
 62
     0
 10
140.918
 20
117.413
 30
0.0
 11
126.919
 21
117.413
 31
0.0
  0
LINE
  8
0
 62
     0
 10
126.919
 20
117.413
 30
0.0
 11
126.919
 21
118.412
 31
0.0
  0
LINE
  8
0
 62
     0
 10
126.919
 20
118.412
 30
0.0
 11
126.119
 21
118.412
 31
0.0
  0
LINE
  8
0
 62
     0
 10
126.119
 20
118.412
 30
0.0
 11
126.119
 21
121.513
 31
0.0
  0
LINE
  8
0
 62
     0
 10
126.119
 20
121.513
 30
0.0
 11
126.919
 21
121.513
 31
0.0
  0
LINE
  8
0
 62
     0
 10
126.919
 20
121.513
 30
0.0
 11
126.919
 21
127.313
 31
0.0
  0
LINE
  8
0
 62
     0
 10
126.919
 20
127.313
 30
0.0
 11
126.119
 21
127.313
 31
0.0
  0
LINE
  8
0
 62
     0
 10
126.119
 20
127.313
 30
0.0
 11
126.119
 21
130.412
 31
0.0
  0
LINE
  8
0
 62
     0
 10
126.119
 20
130.412
 30
0.0
 11
126.919
 21
130.412
 31
0.0
  0
LINE
  8
0
 62
     0
 10
126.919
 20
130.412
 30
0.0
 11
126.919
 21
131.413
 31
0.0
  0
LINE
  8
0
 62
     0
 10
126.919
 20
131.413
 30
0.0
 11
140.918
 21
131.413
 31
0.0
  0
LINE
  8
0
 62
     0
 10
140.918
 20
131.413
 30
0.0
 11
140.918
 21
130.412
 31
0.0
  0
LINE
  8
0
 62
     0
 10
140.918
 20
130.412
 30
0.0
 11
141.719
 21
130.412
 31
0.0
  0
LINE
  8
0
 62
     0
 10
141.719
 20
130.412
 30
0.0
 11
141.719
 21
127.313
 31
0.0
  0
LINE
  8
0
 62
     0
 10
141.719
 20
127.313
 30
0.0
 11
140.918
 21
127.313
 31
0.0
  0
LINE
  8
0
 62
     0
 10
140.918
 20
127.313
 30
0.0
 11
140.918
 21
121.513
 31
0.0
  0
LINE
  8
0
 62
     0
 10
140.918
 20
121.513
 30
0.0
 11
141.719
 21
121.513
 31
0.0
  0
LINE
  8
0
 62
     0
 10
141.719
 20
121.513
 30
0.0
 11
141.719
 21
118.412
 31
0.0
  0
LINE
  8
0
 62
     0
 10
141.719
 20
118.412
 30
0.0
 11
140.918
 21
118.412
 31
0.0
  0
LINE
  8
0
 62
     0
 10
140.918
 20
89.837
 30
0.0
 11
140.918
 21
88.8379
 31
0.0
  0
LINE
  8
0
 62
     0
 10
140.918
 20
88.8379
 30
0.0
 11
126.919
 21
88.8379
 31
0.0
  0
LINE
  8
0
 62
     0
 10
126.919
 20
88.8379
 30
0.0
 11
126.919
 21
89.837
 31
0.0
  0
LINE
  8
0
 62
     0
 10
126.919
 20
89.837
 30
0.0
 11
126.119
 21
89.837
 31
0.0
  0
LINE
  8
0
 62
     0
 10
126.119
 20
89.837
 30
0.0
 11
126.119
 21
92.9375
 31
0.0
  0
LINE
  8
0
 62
     0
 10
126.119
 20
92.9375
 30
0.0
 11
126.919
 21
92.9375
 31
0.0
  0
LINE
  8
0
 62
     0
 10
126.919
 20
92.9375
 30
0.0
 11
126.919
 21
98.7379
 31
0.0
  0
LINE
  8
0
 62
     0
 10
126.919
 20
98.7379
 30
0.0
 11
126.119
 21
98.7379
 31
0.0
  0
LINE
  8
0
 62
     0
 10
126.119
 20
98.7379
 30
0.0
 11
126.119
 21
101.837
 31
0.0
  0
LINE
  8
0
 62
     0
 10
126.119
 20
101.837
 30
0.0
 11
126.919
 21
101.837
 31
0.0
  0
LINE
  8
0
 62
     0
 10
126.919
 20
101.837
 30
0.0
 11
126.919
 21
102.838
 31
0.0
  0
LINE
  8
0
 62
     0
 10
126.919
 20
102.838
 30
0.0
 11
140.918
 21
102.838
 31
0.0
  0
LINE
  8
0
 62
     0
 10
140.918
 20
102.838
 30
0.0
 11
140.918
 21
101.837
 31
0.0
  0
LINE
  8
0
 62
     0
 10
140.918
 20
101.837
 30
0.0
 11
141.719
 21
101.837
 31
0.0
  0
LINE
  8
0
 62
     0
 10
141.719
 20
101.837
 30
0.0
 11
141.719
 21
98.7379
 31
0.0
  0
LINE
  8
0
 62
     0
 10
141.719
 20
98.7379
 30
0.0
 11
140.918
 21
98.7379
 31
0.0
  0
LINE
  8
0
 62
     0
 10
140.918
 20
98.7379
 30
0.0
 11
140.918
 21
92.9375
 31
0.0
  0
LINE
  8
0
 62
     0
 10
140.918
 20
92.9375
 30
0.0
 11
141.719
 21
92.9375
 31
0.0
  0
LINE
  8
0
 62
     0
 10
141.719
 20
92.9375
 30
0.0
 11
141.719
 21
89.837
 31
0.0
  0
LINE
  8
0
 62
     0
 10
141.719
 20
89.837
 30
0.0
 11
140.918
 21
89.837
 31
0.0
  0
LINE
  8
0
 62
     0
 10
145.682
 20
32.6871
 30
0.0
 11
145.682
 21
31.688
 31
0.0
  0
LINE
  8
0
 62
     0
 10
145.682
 20
31.688
 30
0.0
 11
131.681
 21
31.688
 31
0.0
  0
LINE
  8
0
 62
     0
 10
131.681
 20
31.688
 30
0.0
 11
131.681
 21
32.6871
 31
0.0
  0
LINE
  8
0
 62
     0
 10
131.681
 20
32.6871
 30
0.0
 11
130.881
 21
32.6871
 31
0.0
  0
LINE
  8
0
 62
     0
 10
130.881
 20
32.6871
 30
0.0
 11
130.881
 21
35.7875
 31
0.0
  0
LINE
  8
0
 62
     0
 10
130.881
 20
35.7875
 30
0.0
 11
131.681
 21
35.7875
 31
0.0
  0
LINE
  8
0
 62
     0
 10
131.681
 20
35.7875
 30
0.0
 11
131.681
 21
41.5879
 31
0.0
  0
LINE
  8
0
 62
     0
 10
131.681
 20
41.5879
 30
0.0
 11
130.881
 21
41.5879
 31
0.0
  0
LINE
  8
0
 62
     0
 10
130.881
 20
41.5879
 30
0.0
 11
130.881
 21
44.6871
 31
0.0
  0
LINE
  8
0
 62
     0
 10
130.881
 20
44.6871
 30
0.0
 11
131.681
 21
44.6871
 31
0.0
  0
LINE
  8
0
 62
     0
 10
131.681
 20
44.6871
 30
0.0
 11
131.681
 21
45.6875
 31
0.0
  0
LINE
  8
0
 62
     0
 10
131.681
 20
45.6875
 30
0.0
 11
145.682
 21
45.6875
 31
0.0
  0
LINE
  8
0
 62
     0
 10
145.682
 20
45.6875
 30
0.0
 11
145.682
 21
44.6871
 31
0.0
  0
LINE
  8
0
 62
     0
 10
145.682
 20
44.6871
 30
0.0
 11
146.481
 21
44.6871
 31
0.0
  0
LINE
  8
0
 62
     0
 10
146.481
 20
44.6871
 30
0.0
 11
146.481
 21
41.5879
 31
0.0
  0
LINE
  8
0
 62
     0
 10
146.481
 20
41.5879
 30
0.0
 11
145.682
 21
41.5879
 31
0.0
  0
LINE
  8
0
 62
     0
 10
145.682
 20
41.5879
 30
0.0
 11
145.682
 21
35.7875
 31
0.0
  0
LINE
  8
0
 62
     0
 10
145.682
 20
35.7875
 30
0.0
 11
146.481
 21
35.7875
 31
0.0
  0
LINE
  8
0
 62
     0
 10
146.481
 20
35.7875
 30
0.0
 11
146.481
 21
32.6871
 31
0.0
  0
LINE
  8
0
 62
     0
 10
146.481
 20
32.6871
 30
0.0
 11
145.682
 21
32.6871
 31
0.0
  0
ENDSEC
  0
EOF
