  0
SECTION
  2
HEADER
  9
$ACADVER
  1
AC1009
  9
$EXTMIN
 10
0.0
 20
0.0
 30
0.0
  9
$EXTMAX
 10
1000.0
 20
1000.0
 30
0.0
  9
$FILLMODE
 70
 0
  9
$SPLFRAME
 70
 1
  0
ENDSEC
  0
SECTION
  2
TABLES
  0
TABLE
  2
LAYER
 70
1
  0
LAYER
  2
0
 70
     0
 62
     7
  6
CONTINUOUS
  0
ENDTAB
  0
ENDSEC
  0
SECTION
  2
ENTITIES
  0
LINE
  8
0
 62
     0
 10
0.0937066
 20
143.938
 30
0.0
 11
77.2432
 21
143.938
 31
0.0
  0
LINE
  8
0
 62
     0
 10
77.2432
 20
143.938
 30
0.0
 11
77.2432
 21
0.112999
 31
0.0
  0
LINE
  8
0
 62
     0
 10
77.2432
 20
0.112999
 30
0.0
 11
0.0937066
 21
0.112999
 31
0.0
  0
LINE
  8
0
 62
     0
 10
0.0937066
 20
0.112999
 30
0.0
 11
0.0937066
 21
143.938
 31
0.0
  0
LINE
  8
0
 62
     0
 10
38.669
 20
140.437
 30
0.0
 11
39.1322
 21
140.364
 31
0.0
  0
LINE
  8
0
 62
     0
 10
39.1322
 20
140.364
 30
0.0
 11
39.551
 21
140.152
 31
0.0
  0
LINE
  8
0
 62
     0
 10
39.551
 20
140.152
 30
0.0
 11
39.8833
 21
139.82
 31
0.0
  0
LINE
  8
0
 62
     0
 10
39.8833
 20
139.82
 30
0.0
 11
40.0953
 21
139.401
 31
0.0
  0
LINE
  8
0
 62
     0
 10
40.0953
 20
139.401
 30
0.0
 11
40.1683
 21
138.938
 31
0.0
  0
LINE
  8
0
 62
     0
 10
40.1683
 20
138.938
 30
0.0
 11
40.0953
 21
138.473
 31
0.0
  0
LINE
  8
0
 62
     0
 10
40.0953
 20
138.473
 30
0.0
 11
39.8833
 21
138.056
 31
0.0
  0
LINE
  8
0
 62
     0
 10
39.8833
 20
138.056
 30
0.0
 11
39.551
 21
137.724
 31
0.0
  0
LINE
  8
0
 62
     0
 10
39.551
 20
137.724
 30
0.0
 11
39.1322
 21
137.51
 31
0.0
  0
LINE
  8
0
 62
     0
 10
39.1322
 20
137.51
 30
0.0
 11
38.669
 21
137.437
 31
0.0
  0
LINE
  8
0
 62
     0
 10
38.669
 20
137.437
 30
0.0
 11
38.2048
 21
137.51
 31
0.0
  0
LINE
  8
0
 62
     0
 10
38.2048
 20
137.51
 30
0.0
 11
37.7871
 21
137.724
 31
0.0
  0
LINE
  8
0
 62
     0
 10
37.7871
 20
137.724
 30
0.0
 11
37.4551
 21
138.056
 31
0.0
  0
LINE
  8
0
 62
     0
 10
37.4551
 20
138.056
 30
0.0
 11
37.2413
 21
138.473
 31
0.0
  0
LINE
  8
0
 62
     0
 10
37.2413
 20
138.473
 30
0.0
 11
37.1683
 21
138.938
 31
0.0
  0
LINE
  8
0
 62
     0
 10
37.1683
 20
138.938
 30
0.0
 11
37.2413
 21
139.401
 31
0.0
  0
LINE
  8
0
 62
     0
 10
37.2413
 20
139.401
 30
0.0
 11
37.4551
 21
139.82
 31
0.0
  0
LINE
  8
0
 62
     0
 10
37.4551
 20
139.82
 30
0.0
 11
37.7871
 21
140.152
 31
0.0
  0
LINE
  8
0
 62
     0
 10
37.7871
 20
140.152
 30
0.0
 11
38.2048
 21
140.364
 31
0.0
  0
LINE
  8
0
 62
     0
 10
38.2048
 20
140.364
 30
0.0
 11
38.669
 21
140.437
 31
0.0
  0
LINE
  8
0
 62
     0
 10
72.2436
 20
140.437
 30
0.0
 11
72.7082
 21
140.364
 31
0.0
  0
LINE
  8
0
 62
     0
 10
72.7082
 20
140.364
 30
0.0
 11
73.1255
 21
140.152
 31
0.0
  0
LINE
  8
0
 62
     0
 10
73.1255
 20
140.152
 30
0.0
 11
73.4579
 21
139.82
 31
0.0
  0
LINE
  8
0
 62
     0
 10
73.4579
 20
139.82
 30
0.0
 11
73.6713
 21
139.401
 31
0.0
  0
LINE
  8
0
 62
     0
 10
73.6713
 20
139.401
 30
0.0
 11
73.7443
 21
138.938
 31
0.0
  0
LINE
  8
0
 62
     0
 10
73.7443
 20
138.938
 30
0.0
 11
73.6713
 21
138.473
 31
0.0
  0
LINE
  8
0
 62
     0
 10
73.6713
 20
138.473
 30
0.0
 11
73.4579
 21
138.056
 31
0.0
  0
LINE
  8
0
 62
     0
 10
73.4579
 20
138.056
 30
0.0
 11
73.1255
 21
137.724
 31
0.0
  0
LINE
  8
0
 62
     0
 10
73.1255
 20
137.724
 30
0.0
 11
72.7082
 21
137.51
 31
0.0
  0
LINE
  8
0
 62
     0
 10
72.7082
 20
137.51
 30
0.0
 11
72.2436
 21
137.437
 31
0.0
  0
LINE
  8
0
 62
     0
 10
72.2436
 20
137.437
 30
0.0
 11
71.7793
 21
137.51
 31
0.0
  0
LINE
  8
0
 62
     0
 10
71.7793
 20
137.51
 30
0.0
 11
71.3617
 21
137.724
 31
0.0
  0
LINE
  8
0
 62
     0
 10
71.3617
 20
137.724
 30
0.0
 11
71.0297
 21
138.056
 31
0.0
  0
LINE
  8
0
 62
     0
 10
71.0297
 20
138.056
 30
0.0
 11
70.8173
 21
138.473
 31
0.0
  0
LINE
  8
0
 62
     0
 10
70.8173
 20
138.473
 30
0.0
 11
70.7443
 21
138.938
 31
0.0
  0
LINE
  8
0
 62
     0
 10
70.7443
 20
138.938
 30
0.0
 11
70.8173
 21
139.401
 31
0.0
  0
LINE
  8
0
 62
     0
 10
70.8173
 20
139.401
 30
0.0
 11
71.0297
 21
139.82
 31
0.0
  0
LINE
  8
0
 62
     0
 10
71.0297
 20
139.82
 30
0.0
 11
71.3617
 21
140.152
 31
0.0
  0
LINE
  8
0
 62
     0
 10
71.3617
 20
140.152
 30
0.0
 11
71.7793
 21
140.364
 31
0.0
  0
LINE
  8
0
 62
     0
 10
71.7793
 20
140.364
 30
0.0
 11
72.2436
 21
140.437
 31
0.0
  0
LINE
  8
0
 62
     0
 10
72.2436
 20
73.5238
 30
0.0
 11
72.7082
 21
73.4508
 31
0.0
  0
LINE
  8
0
 62
     0
 10
72.7082
 20
73.4508
 30
0.0
 11
73.1255
 21
73.2384
 31
0.0
  0
LINE
  8
0
 62
     0
 10
73.1255
 20
73.2384
 30
0.0
 11
73.4579
 21
72.9065
 31
0.0
  0
LINE
  8
0
 62
     0
 10
73.4579
 20
72.9065
 30
0.0
 11
73.6713
 21
72.4888
 31
0.0
  0
LINE
  8
0
 62
     0
 10
73.6713
 20
72.4888
 30
0.0
 11
73.7443
 21
72.0245
 31
0.0
  0
LINE
  8
0
 62
     0
 10
73.7443
 20
72.0245
 30
0.0
 11
73.6713
 21
71.5617
 31
0.0
  0
LINE
  8
0
 62
     0
 10
73.6713
 20
71.5617
 30
0.0
 11
73.4579
 21
71.144
 31
0.0
  0
LINE
  8
0
 62
     0
 10
73.4579
 20
71.144
 30
0.0
 11
73.1255
 21
70.812
 31
0.0
  0
LINE
  8
0
 62
     0
 10
73.1255
 20
70.812
 30
0.0
 11
72.7082
 21
70.5982
 31
0.0
  0
LINE
  8
0
 62
     0
 10
72.7082
 20
70.5982
 30
0.0
 11
72.2436
 21
70.5238
 31
0.0
  0
LINE
  8
0
 62
     0
 10
72.2436
 20
70.5238
 30
0.0
 11
71.7793
 21
70.5982
 31
0.0
  0
LINE
  8
0
 62
     0
 10
71.7793
 20
70.5982
 30
0.0
 11
71.3617
 21
70.812
 31
0.0
  0
LINE
  8
0
 62
     0
 10
71.3617
 20
70.812
 30
0.0
 11
71.0297
 21
71.144
 31
0.0
  0
LINE
  8
0
 62
     0
 10
71.0297
 20
71.144
 30
0.0
 11
70.8173
 21
71.5617
 31
0.0
  0
LINE
  8
0
 62
     0
 10
70.8173
 20
71.5617
 30
0.0
 11
70.7443
 21
72.0245
 31
0.0
  0
LINE
  8
0
 62
     0
 10
70.7443
 20
72.0245
 30
0.0
 11
70.8173
 21
72.4888
 31
0.0
  0
LINE
  8
0
 62
     0
 10
70.8173
 20
72.4888
 30
0.0
 11
71.0297
 21
72.9065
 31
0.0
  0
LINE
  8
0
 62
     0
 10
71.0297
 20
72.9065
 30
0.0
 11
71.3617
 21
73.2384
 31
0.0
  0
LINE
  8
0
 62
     0
 10
71.3617
 20
73.2384
 30
0.0
 11
71.7793
 21
73.4508
 31
0.0
  0
LINE
  8
0
 62
     0
 10
71.7793
 20
73.4508
 30
0.0
 11
72.2436
 21
73.5238
 31
0.0
  0
LINE
  8
0
 62
     0
 10
72.2436
 20
6.61183
 30
0.0
 11
72.7082
 21
6.53881
 31
0.0
  0
LINE
  8
0
 62
     0
 10
72.7082
 20
6.53881
 30
0.0
 11
73.1255
 21
6.32658
 31
0.0
  0
LINE
  8
0
 62
     0
 10
73.1255
 20
6.32658
 30
0.0
 11
73.4579
 21
5.99447
 31
0.0
  0
LINE
  8
0
 62
     0
 10
73.4579
 20
5.99447
 30
0.0
 11
73.6713
 21
5.57692
 31
0.0
  0
LINE
  8
0
 62
     0
 10
73.6713
 20
5.57692
 30
0.0
 11
73.7443
 21
5.11253
 31
0.0
  0
LINE
  8
0
 62
     0
 10
73.7443
 20
5.11253
 30
0.0
 11
73.6713
 21
4.64813
 31
0.0
  0
LINE
  8
0
 62
     0
 10
73.6713
 20
4.64813
 30
0.0
 11
73.4579
 21
4.23058
 31
0.0
  0
LINE
  8
0
 62
     0
 10
73.4579
 20
4.23058
 30
0.0
 11
73.1255
 21
3.89848
 31
0.0
  0
LINE
  8
0
 62
     0
 10
73.1255
 20
3.89848
 30
0.0
 11
72.7082
 21
3.68487
 31
0.0
  0
LINE
  8
0
 62
     0
 10
72.7082
 20
3.68487
 30
0.0
 11
72.2436
 21
3.61184
 31
0.0
  0
LINE
  8
0
 62
     0
 10
72.2436
 20
3.61184
 30
0.0
 11
71.7793
 21
3.68487
 31
0.0
  0
LINE
  8
0
 62
     0
 10
71.7793
 20
3.68487
 30
0.0
 11
71.3617
 21
3.89848
 31
0.0
  0
LINE
  8
0
 62
     0
 10
71.3617
 20
3.89848
 30
0.0
 11
71.0297
 21
4.23058
 31
0.0
  0
LINE
  8
0
 62
     0
 10
71.0297
 20
4.23058
 30
0.0
 11
70.8173
 21
4.64813
 31
0.0
  0
LINE
  8
0
 62
     0
 10
70.8173
 20
4.64813
 30
0.0
 11
70.7443
 21
5.11253
 31
0.0
  0
LINE
  8
0
 62
     0
 10
70.7443
 20
5.11253
 30
0.0
 11
70.8173
 21
5.57692
 31
0.0
  0
LINE
  8
0
 62
     0
 10
70.8173
 20
5.57692
 30
0.0
 11
71.0297
 21
5.99447
 31
0.0
  0
LINE
  8
0
 62
     0
 10
71.0297
 20
5.99447
 30
0.0
 11
71.3617
 21
6.32658
 31
0.0
  0
LINE
  8
0
 62
     0
 10
71.3617
 20
6.32658
 30
0.0
 11
71.7793
 21
6.53881
 31
0.0
  0
LINE
  8
0
 62
     0
 10
71.7793
 20
6.53881
 30
0.0
 11
72.2436
 21
6.61183
 31
0.0
  0
LINE
  8
0
 62
     0
 10
38.669
 20
6.61183
 30
0.0
 11
39.1322
 21
6.53881
 31
0.0
  0
LINE
  8
0
 62
     0
 10
39.1322
 20
6.53881
 30
0.0
 11
39.551
 21
6.32658
 31
0.0
  0
LINE
  8
0
 62
     0
 10
39.551
 20
6.32658
 30
0.0
 11
39.8833
 21
5.99447
 31
0.0
  0
LINE
  8
0
 62
     0
 10
39.8833
 20
5.99447
 30
0.0
 11
40.0953
 21
5.57692
 31
0.0
  0
LINE
  8
0
 62
     0
 10
40.0953
 20
5.57692
 30
0.0
 11
40.1683
 21
5.11253
 31
0.0
  0
LINE
  8
0
 62
     0
 10
40.1683
 20
5.11253
 30
0.0
 11
40.0953
 21
4.64813
 31
0.0
  0
LINE
  8
0
 62
     0
 10
40.0953
 20
4.64813
 30
0.0
 11
39.8833
 21
4.23058
 31
0.0
  0
LINE
  8
0
 62
     0
 10
39.8833
 20
4.23058
 30
0.0
 11
39.551
 21
3.89848
 31
0.0
  0
LINE
  8
0
 62
     0
 10
39.551
 20
3.89848
 30
0.0
 11
39.1322
 21
3.68487
 31
0.0
  0
LINE
  8
0
 62
     0
 10
39.1322
 20
3.68487
 30
0.0
 11
38.669
 21
3.61184
 31
0.0
  0
LINE
  8
0
 62
     0
 10
38.669
 20
3.61184
 30
0.0
 11
38.2048
 21
3.68487
 31
0.0
  0
LINE
  8
0
 62
     0
 10
38.2048
 20
3.68487
 30
0.0
 11
37.7871
 21
3.89848
 31
0.0
  0
LINE
  8
0
 62
     0
 10
37.7871
 20
3.89848
 30
0.0
 11
37.4551
 21
4.23058
 31
0.0
  0
LINE
  8
0
 62
     0
 10
37.4551
 20
4.23058
 30
0.0
 11
37.2413
 21
4.64813
 31
0.0
  0
LINE
  8
0
 62
     0
 10
37.2413
 20
4.64813
 30
0.0
 11
37.1683
 21
5.11253
 31
0.0
  0
LINE
  8
0
 62
     0
 10
37.1683
 20
5.11253
 30
0.0
 11
37.2413
 21
5.57692
 31
0.0
  0
LINE
  8
0
 62
     0
 10
37.2413
 20
5.57692
 30
0.0
 11
37.4551
 21
5.99447
 31
0.0
  0
LINE
  8
0
 62
     0
 10
37.4551
 20
5.99447
 30
0.0
 11
37.7871
 21
6.32658
 31
0.0
  0
LINE
  8
0
 62
     0
 10
37.7871
 20
6.32658
 30
0.0
 11
38.2048
 21
6.53881
 31
0.0
  0
LINE
  8
0
 62
     0
 10
38.2048
 20
6.53881
 30
0.0
 11
38.669
 21
6.61183
 31
0.0
  0
LINE
  8
0
 62
     0
 10
5.09323
 20
6.61183
 30
0.0
 11
5.55763
 21
6.53881
 31
0.0
  0
LINE
  8
0
 62
     0
 10
5.55763
 20
6.53881
 30
0.0
 11
5.97517
 21
6.32658
 31
0.0
  0
LINE
  8
0
 62
     0
 10
5.97517
 20
6.32658
 30
0.0
 11
6.30728
 21
5.99447
 31
0.0
  0
LINE
  8
0
 62
     0
 10
6.30728
 20
5.99447
 30
0.0
 11
6.52089
 21
5.57692
 31
0.0
  0
LINE
  8
0
 62
     0
 10
6.52089
 20
5.57692
 30
0.0
 11
6.59391
 21
5.11253
 31
0.0
  0
LINE
  8
0
 62
     0
 10
6.59391
 20
5.11253
 30
0.0
 11
6.52089
 21
4.64813
 31
0.0
  0
LINE
  8
0
 62
     0
 10
6.52089
 20
4.64813
 30
0.0
 11
6.30728
 21
4.23058
 31
0.0
  0
LINE
  8
0
 62
     0
 10
6.30728
 20
4.23058
 30
0.0
 11
5.97517
 21
3.89848
 31
0.0
  0
LINE
  8
0
 62
     0
 10
5.97517
 20
3.89848
 30
0.0
 11
5.55763
 21
3.68487
 31
0.0
  0
LINE
  8
0
 62
     0
 10
5.55763
 20
3.68487
 30
0.0
 11
5.09323
 21
3.61184
 31
0.0
  0
LINE
  8
0
 62
     0
 10
5.09323
 20
3.61184
 30
0.0
 11
4.63021
 21
3.68487
 31
0.0
  0
LINE
  8
0
 62
     0
 10
4.63021
 20
3.68487
 30
0.0
 11
4.21128
 21
3.89848
 31
0.0
  0
LINE
  8
0
 62
     0
 10
4.21128
 20
3.89848
 30
0.0
 11
3.87918
 21
4.23058
 31
0.0
  0
LINE
  8
0
 62
     0
 10
3.87918
 20
4.23058
 30
0.0
 11
3.66695
 21
4.64813
 31
0.0
  0
LINE
  8
0
 62
     0
 10
3.66695
 20
4.64813
 30
0.0
 11
3.59392
 21
5.11253
 31
0.0
  0
LINE
  8
0
 62
     0
 10
3.59392
 20
5.11253
 30
0.0
 11
3.66695
 21
5.57692
 31
0.0
  0
LINE
  8
0
 62
     0
 10
3.66695
 20
5.57692
 30
0.0
 11
3.87918
 21
5.99447
 31
0.0
  0
LINE
  8
0
 62
     0
 10
3.87918
 20
5.99447
 30
0.0
 11
4.21128
 21
6.32658
 31
0.0
  0
LINE
  8
0
 62
     0
 10
4.21128
 20
6.32658
 30
0.0
 11
4.63021
 21
6.53881
 31
0.0
  0
LINE
  8
0
 62
     0
 10
4.63021
 20
6.53881
 30
0.0
 11
5.09323
 21
6.61183
 31
0.0
  0
LINE
  8
0
 62
     0
 10
5.09323
 20
73.5238
 30
0.0
 11
5.55763
 21
73.4508
 31
0.0
  0
LINE
  8
0
 62
     0
 10
5.55763
 20
73.4508
 30
0.0
 11
5.97517
 21
73.2384
 31
0.0
  0
LINE
  8
0
 62
     0
 10
5.97517
 20
73.2384
 30
0.0
 11
6.30728
 21
72.9065
 31
0.0
  0
LINE
  8
0
 62
     0
 10
6.30728
 20
72.9065
 30
0.0
 11
6.52089
 21
72.4888
 31
0.0
  0
LINE
  8
0
 62
     0
 10
6.52089
 20
72.4888
 30
0.0
 11
6.59391
 21
72.0245
 31
0.0
  0
LINE
  8
0
 62
     0
 10
6.59391
 20
72.0245
 30
0.0
 11
6.52089
 21
71.5617
 31
0.0
  0
LINE
  8
0
 62
     0
 10
6.52089
 20
71.5617
 30
0.0
 11
6.30728
 21
71.144
 31
0.0
  0
LINE
  8
0
 62
     0
 10
6.30728
 20
71.144
 30
0.0
 11
5.97517
 21
70.812
 31
0.0
  0
LINE
  8
0
 62
     0
 10
5.97517
 20
70.812
 30
0.0
 11
5.55763
 21
70.5982
 31
0.0
  0
LINE
  8
0
 62
     0
 10
5.55763
 20
70.5982
 30
0.0
 11
5.09323
 21
70.5238
 31
0.0
  0
LINE
  8
0
 62
     0
 10
5.09323
 20
70.5238
 30
0.0
 11
4.63021
 21
70.5982
 31
0.0
  0
LINE
  8
0
 62
     0
 10
4.63021
 20
70.5982
 30
0.0
 11
4.21128
 21
70.812
 31
0.0
  0
LINE
  8
0
 62
     0
 10
4.21128
 20
70.812
 30
0.0
 11
3.87918
 21
71.144
 31
0.0
  0
LINE
  8
0
 62
     0
 10
3.87918
 20
71.144
 30
0.0
 11
3.66695
 21
71.5617
 31
0.0
  0
LINE
  8
0
 62
     0
 10
3.66695
 20
71.5617
 30
0.0
 11
3.59392
 21
72.0245
 31
0.0
  0
LINE
  8
0
 62
     0
 10
3.59392
 20
72.0245
 30
0.0
 11
3.66695
 21
72.4888
 31
0.0
  0
LINE
  8
0
 62
     0
 10
3.66695
 20
72.4888
 30
0.0
 11
3.87918
 21
72.9065
 31
0.0
  0
LINE
  8
0
 62
     0
 10
3.87918
 20
72.9065
 30
0.0
 11
4.21128
 21
73.2384
 31
0.0
  0
LINE
  8
0
 62
     0
 10
4.21128
 20
73.2384
 30
0.0
 11
4.63021
 21
73.4508
 31
0.0
  0
LINE
  8
0
 62
     0
 10
4.63021
 20
73.4508
 30
0.0
 11
5.09323
 21
73.5238
 31
0.0
  0
LINE
  8
0
 62
     0
 10
5.09323
 20
140.437
 30
0.0
 11
5.55763
 21
140.364
 31
0.0
  0
LINE
  8
0
 62
     0
 10
5.55763
 20
140.364
 30
0.0
 11
5.97517
 21
140.152
 31
0.0
  0
LINE
  8
0
 62
     0
 10
5.97517
 20
140.152
 30
0.0
 11
6.30728
 21
139.82
 31
0.0
  0
LINE
  8
0
 62
     0
 10
6.30728
 20
139.82
 30
0.0
 11
6.52089
 21
139.401
 31
0.0
  0
LINE
  8
0
 62
     0
 10
6.52089
 20
139.401
 30
0.0
 11
6.59391
 21
138.938
 31
0.0
  0
LINE
  8
0
 62
     0
 10
6.59391
 20
138.938
 30
0.0
 11
6.52089
 21
138.473
 31
0.0
  0
LINE
  8
0
 62
     0
 10
6.52089
 20
138.473
 30
0.0
 11
6.30728
 21
138.056
 31
0.0
  0
LINE
  8
0
 62
     0
 10
6.30728
 20
138.056
 30
0.0
 11
5.97517
 21
137.724
 31
0.0
  0
LINE
  8
0
 62
     0
 10
5.97517
 20
137.724
 30
0.0
 11
5.55763
 21
137.51
 31
0.0
  0
LINE
  8
0
 62
     0
 10
5.55763
 20
137.51
 30
0.0
 11
5.09323
 21
137.437
 31
0.0
  0
LINE
  8
0
 62
     0
 10
5.09323
 20
137.437
 30
0.0
 11
4.63021
 21
137.51
 31
0.0
  0
LINE
  8
0
 62
     0
 10
4.63021
 20
137.51
 30
0.0
 11
4.21128
 21
137.724
 31
0.0
  0
LINE
  8
0
 62
     0
 10
4.21128
 20
137.724
 30
0.0
 11
3.87918
 21
138.056
 31
0.0
  0
LINE
  8
0
 62
     0
 10
3.87918
 20
138.056
 30
0.0
 11
3.66695
 21
138.473
 31
0.0
  0
LINE
  8
0
 62
     0
 10
3.66695
 20
138.473
 30
0.0
 11
3.59392
 21
138.938
 31
0.0
  0
LINE
  8
0
 62
     0
 10
3.59392
 20
138.938
 30
0.0
 11
3.66695
 21
139.401
 31
0.0
  0
LINE
  8
0
 62
     0
 10
3.66695
 20
139.401
 30
0.0
 11
3.87918
 21
139.82
 31
0.0
  0
LINE
  8
0
 62
     0
 10
3.87918
 20
139.82
 30
0.0
 11
4.21128
 21
140.152
 31
0.0
  0
LINE
  8
0
 62
     0
 10
4.21128
 20
140.152
 30
0.0
 11
4.63021
 21
140.364
 31
0.0
  0
LINE
  8
0
 62
     0
 10
4.63021
 20
140.364
 30
0.0
 11
5.09323
 21
140.437
 31
0.0
  0
LINE
  8
0
 62
     0
 10
26.6182
 20
118.412
 30
0.0
 11
26.6182
 21
117.413
 31
0.0
  0
LINE
  8
0
 62
     0
 10
26.6182
 20
117.413
 30
0.0
 11
12.6187
 21
117.413
 31
0.0
  0
LINE
  8
0
 62
     0
 10
12.6187
 20
117.413
 30
0.0
 11
12.6187
 21
118.412
 31
0.0
  0
LINE
  8
0
 62
     0
 10
12.6187
 20
118.412
 30
0.0
 11
11.8194
 21
118.412
 31
0.0
  0
LINE
  8
0
 62
     0
 10
11.8194
 20
118.412
 30
0.0
 11
11.8194
 21
121.513
 31
0.0
  0
LINE
  8
0
 62
     0
 10
11.8194
 20
121.513
 30
0.0
 11
12.6187
 21
121.513
 31
0.0
  0
LINE
  8
0
 62
     0
 10
12.6187
 20
121.513
 30
0.0
 11
12.6187
 21
127.313
 31
0.0
  0
LINE
  8
0
 62
     0
 10
12.6187
 20
127.313
 30
0.0
 11
11.8194
 21
127.313
 31
0.0
  0
LINE
  8
0
 62
     0
 10
11.8194
 20
127.313
 30
0.0
 11
11.8194
 21
130.412
 31
0.0
  0
LINE
  8
0
 62
     0
 10
11.8194
 20
130.412
 30
0.0
 11
12.6187
 21
130.412
 31
0.0
  0
LINE
  8
0
 62
     0
 10
12.6187
 20
130.412
 30
0.0
 11
12.6187
 21
131.413
 31
0.0
  0
LINE
  8
0
 62
     0
 10
12.6187
 20
131.413
 30
0.0
 11
26.6182
 21
131.413
 31
0.0
  0
LINE
  8
0
 62
     0
 10
26.6182
 20
131.413
 30
0.0
 11
26.6182
 21
130.412
 31
0.0
  0
LINE
  8
0
 62
     0
 10
26.6182
 20
130.412
 30
0.0
 11
27.4188
 21
130.412
 31
0.0
  0
LINE
  8
0
 62
     0
 10
27.4188
 20
130.412
 30
0.0
 11
27.4188
 21
127.313
 31
0.0
  0
LINE
  8
0
 62
     0
 10
27.4188
 20
127.313
 30
0.0
 11
26.6182
 21
127.313
 31
0.0
  0
LINE
  8
0
 62
     0
 10
26.6182
 20
127.313
 30
0.0
 11
26.6182
 21
121.513
 31
0.0
  0
LINE
  8
0
 62
     0
 10
26.6182
 20
121.513
 30
0.0
 11
27.4188
 21
121.513
 31
0.0
  0
LINE
  8
0
 62
     0
 10
27.4188
 20
121.513
 30
0.0
 11
27.4188
 21
118.412
 31
0.0
  0
LINE
  8
0
 62
     0
 10
27.4188
 20
118.412
 30
0.0
 11
26.6182
 21
118.412
 31
0.0
  0
LINE
  8
0
 62
     0
 10
26.6182
 20
89.837
 30
0.0
 11
26.6182
 21
88.8379
 31
0.0
  0
LINE
  8
0
 62
     0
 10
26.6182
 20
88.8379
 30
0.0
 11
12.6187
 21
88.8379
 31
0.0
  0
LINE
  8
0
 62
     0
 10
12.6187
 20
88.8379
 30
0.0
 11
12.6187
 21
89.837
 31
0.0
  0
LINE
  8
0
 62
     0
 10
12.6187
 20
89.837
 30
0.0
 11
11.8194
 21
89.837
 31
0.0
  0
LINE
  8
0
 62
     0
 10
11.8194
 20
89.837
 30
0.0
 11
11.8194
 21
92.9375
 31
0.0
  0
LINE
  8
0
 62
     0
 10
11.8194
 20
92.9375
 30
0.0
 11
12.6187
 21
92.9375
 31
0.0
  0
LINE
  8
0
 62
     0
 10
12.6187
 20
92.9375
 30
0.0
 11
12.6187
 21
98.7379
 31
0.0
  0
LINE
  8
0
 62
     0
 10
12.6187
 20
98.7379
 30
0.0
 11
11.8194
 21
98.7379
 31
0.0
  0
LINE
  8
0
 62
     0
 10
11.8194
 20
98.7379
 30
0.0
 11
11.8194
 21
101.837
 31
0.0
  0
LINE
  8
0
 62
     0
 10
11.8194
 20
101.837
 30
0.0
 11
12.6187
 21
101.837
 31
0.0
  0
LINE
  8
0
 62
     0
 10
12.6187
 20
101.837
 30
0.0
 11
12.6187
 21
102.838
 31
0.0
  0
LINE
  8
0
 62
     0
 10
12.6187
 20
102.838
 30
0.0
 11
26.6182
 21
102.838
 31
0.0
  0
LINE
  8
0
 62
     0
 10
26.6182
 20
102.838
 30
0.0
 11
26.6182
 21
101.837
 31
0.0
  0
LINE
  8
0
 62
     0
 10
26.6182
 20
101.837
 30
0.0
 11
27.4188
 21
101.837
 31
0.0
  0
LINE
  8
0
 62
     0
 10
27.4188
 20
101.837
 30
0.0
 11
27.4188
 21
98.7379
 31
0.0
  0
LINE
  8
0
 62
     0
 10
27.4188
 20
98.7379
 30
0.0
 11
26.6182
 21
98.7379
 31
0.0
  0
LINE
  8
0
 62
     0
 10
26.6182
 20
98.7379
 30
0.0
 11
26.6182
 21
92.9375
 31
0.0
  0
LINE
  8
0
 62
     0
 10
26.6182
 20
92.9375
 30
0.0
 11
27.4188
 21
92.9375
 31
0.0
  0
LINE
  8
0
 62
     0
 10
27.4188
 20
92.9375
 30
0.0
 11
27.4188
 21
89.837
 31
0.0
  0
LINE
  8
0
 62
     0
 10
27.4188
 20
89.837
 30
0.0
 11
26.6182
 21
89.837
 31
0.0
  0
LINE
  8
0
 62
     0
 10
26.6182
 20
70.787
 30
0.0
 11
26.6182
 21
69.7879
 31
0.0
  0
LINE
  8
0
 62
     0
 10
26.6182
 20
69.7879
 30
0.0
 11
12.6187
 21
69.7879
 31
0.0
  0
LINE
  8
0
 62
     0
 10
12.6187
 20
69.7879
 30
0.0
 11
12.6187
 21
70.787
 31
0.0
  0
LINE
  8
0
 62
     0
 10
12.6187
 20
70.787
 30
0.0
 11
11.8194
 21
70.787
 31
0.0
  0
LINE
  8
0
 62
     0
 10
11.8194
 20
70.787
 30
0.0
 11
11.8194
 21
73.8875
 31
0.0
  0
LINE
  8
0
 62
     0
 10
11.8194
 20
73.8875
 30
0.0
 11
12.6187
 21
73.8875
 31
0.0
  0
LINE
  8
0
 62
     0
 10
12.6187
 20
73.8875
 30
0.0
 11
12.6187
 21
79.6879
 31
0.0
  0
LINE
  8
0
 62
     0
 10
12.6187
 20
79.6879
 30
0.0
 11
11.8194
 21
79.6879
 31
0.0
  0
LINE
  8
0
 62
     0
 10
11.8194
 20
79.6879
 30
0.0
 11
11.8194
 21
82.7871
 31
0.0
  0
LINE
  8
0
 62
     0
 10
11.8194
 20
82.7871
 30
0.0
 11
12.6187
 21
82.7871
 31
0.0
  0
LINE
  8
0
 62
     0
 10
12.6187
 20
82.7871
 30
0.0
 11
12.6187
 21
83.7875
 31
0.0
  0
LINE
  8
0
 62
     0
 10
12.6187
 20
83.7875
 30
0.0
 11
26.6182
 21
83.7875
 31
0.0
  0
LINE
  8
0
 62
     0
 10
26.6182
 20
83.7875
 30
0.0
 11
26.6182
 21
82.7871
 31
0.0
  0
LINE
  8
0
 62
     0
 10
26.6182
 20
82.7871
 30
0.0
 11
27.4188
 21
82.7871
 31
0.0
  0
LINE
  8
0
 62
     0
 10
27.4188
 20
82.7871
 30
0.0
 11
27.4188
 21
79.6879
 31
0.0
  0
LINE
  8
0
 62
     0
 10
27.4188
 20
79.6879
 30
0.0
 11
26.6182
 21
79.6879
 31
0.0
  0
LINE
  8
0
 62
     0
 10
26.6182
 20
79.6879
 30
0.0
 11
26.6182
 21
73.8875
 31
0.0
  0
LINE
  8
0
 62
     0
 10
26.6182
 20
73.8875
 30
0.0
 11
27.4188
 21
73.8875
 31
0.0
  0
LINE
  8
0
 62
     0
 10
27.4188
 20
73.8875
 30
0.0
 11
27.4188
 21
70.787
 31
0.0
  0
LINE
  8
0
 62
     0
 10
27.4188
 20
70.787
 30
0.0
 11
26.6182
 21
70.787
 31
0.0
  0
LINE
  8
0
 62
     0
 10
26.6182
 20
13.6371
 30
0.0
 11
26.6182
 21
12.638
 31
0.0
  0
LINE
  8
0
 62
     0
 10
26.6182
 20
12.638
 30
0.0
 11
12.6187
 21
12.638
 31
0.0
  0
LINE
  8
0
 62
     0
 10
12.6187
 20
12.638
 30
0.0
 11
12.6187
 21
13.6371
 31
0.0
  0
LINE
  8
0
 62
     0
 10
12.6187
 20
13.6371
 30
0.0
 11
11.8194
 21
13.6371
 31
0.0
  0
LINE
  8
0
 62
     0
 10
11.8194
 20
13.6371
 30
0.0
 11
11.8194
 21
16.7376
 31
0.0
  0
LINE
  8
0
 62
     0
 10
11.8194
 20
16.7376
 30
0.0
 11
12.6187
 21
16.7376
 31
0.0
  0
LINE
  8
0
 62
     0
 10
12.6187
 20
16.7376
 30
0.0
 11
12.6187
 21
22.5378
 31
0.0
  0
LINE
  8
0
 62
     0
 10
12.6187
 20
22.5378
 30
0.0
 11
11.8194
 21
22.5378
 31
0.0
  0
LINE
  8
0
 62
     0
 10
11.8194
 20
22.5378
 30
0.0
 11
11.8194
 21
25.637
 31
0.0
  0
LINE
  8
0
 62
     0
 10
11.8194
 20
25.637
 30
0.0
 11
12.6187
 21
25.637
 31
0.0
  0
LINE
  8
0
 62
     0
 10
12.6187
 20
25.637
 30
0.0
 11
12.6187
 21
26.6375
 31
0.0
  0
LINE
  8
0
 62
     0
 10
12.6187
 20
26.6375
 30
0.0
 11
26.6182
 21
26.6375
 31
0.0
  0
LINE
  8
0
 62
     0
 10
26.6182
 20
26.6375
 30
0.0
 11
26.6182
 21
25.637
 31
0.0
  0
LINE
  8
0
 62
     0
 10
26.6182
 20
25.637
 30
0.0
 11
27.4188
 21
25.637
 31
0.0
  0
LINE
  8
0
 62
     0
 10
27.4188
 20
25.637
 30
0.0
 11
27.4188
 21
22.5378
 31
0.0
  0
LINE
  8
0
 62
     0
 10
27.4188
 20
22.5378
 30
0.0
 11
26.6182
 21
22.5378
 31
0.0
  0
LINE
  8
0
 62
     0
 10
26.6182
 20
22.5378
 30
0.0
 11
26.6182
 21
16.7376
 31
0.0
  0
LINE
  8
0
 62
     0
 10
26.6182
 20
16.7376
 30
0.0
 11
27.4188
 21
16.7376
 31
0.0
  0
LINE
  8
0
 62
     0
 10
27.4188
 20
16.7376
 30
0.0
 11
27.4188
 21
13.6371
 31
0.0
  0
LINE
  8
0
 62
     0
 10
27.4188
 20
13.6371
 30
0.0
 11
26.6182
 21
13.6371
 31
0.0
  0
LINE
  8
0
 62
     0
 10
45.6681
 20
32.6871
 30
0.0
 11
45.6681
 21
31.688
 31
0.0
  0
LINE
  8
0
 62
     0
 10
45.6681
 20
31.688
 30
0.0
 11
31.6687
 21
31.688
 31
0.0
  0
LINE
  8
0
 62
     0
 10
31.6687
 20
31.688
 30
0.0
 11
31.6687
 21
32.6871
 31
0.0
  0
LINE
  8
0
 62
     0
 10
31.6687
 20
32.6871
 30
0.0
 11
30.8694
 21
32.6871
 31
0.0
  0
LINE
  8
0
 62
     0
 10
30.8694
 20
32.6871
 30
0.0
 11
30.8694
 21
35.7875
 31
0.0
  0
LINE
  8
0
 62
     0
 10
30.8694
 20
35.7875
 30
0.0
 11
31.6687
 21
35.7875
 31
0.0
  0
LINE
  8
0
 62
     0
 10
31.6687
 20
35.7875
 30
0.0
 11
31.6687
 21
41.5879
 31
0.0
  0
LINE
  8
0
 62
     0
 10
31.6687
 20
41.5879
 30
0.0
 11
30.8694
 21
41.5879
 31
0.0
  0
LINE
  8
0
 62
     0
 10
30.8694
 20
41.5879
 30
0.0
 11
30.8694
 21
44.6871
 31
0.0
  0
LINE
  8
0
 62
     0
 10
30.8694
 20
44.6871
 30
0.0
 11
31.6687
 21
44.6871
 31
0.0
  0
LINE
  8
0
 62
     0
 10
31.6687
 20
44.6871
 30
0.0
 11
31.6687
 21
45.6875
 31
0.0
  0
LINE
  8
0
 62
     0
 10
31.6687
 20
45.6875
 30
0.0
 11
45.6681
 21
45.6875
 31
0.0
  0
LINE
  8
0
 62
     0
 10
45.6681
 20
45.6875
 30
0.0
 11
45.6681
 21
44.6871
 31
0.0
  0
LINE
  8
0
 62
     0
 10
45.6681
 20
44.6871
 30
0.0
 11
46.4689
 21
44.6871
 31
0.0
  0
LINE
  8
0
 62
     0
 10
46.4689
 20
44.6871
 30
0.0
 11
46.4689
 21
41.5879
 31
0.0
  0
LINE
  8
0
 62
     0
 10
46.4689
 20
41.5879
 30
0.0
 11
45.6681
 21
41.5879
 31
0.0
  0
LINE
  8
0
 62
     0
 10
45.6681
 20
41.5879
 30
0.0
 11
45.6681
 21
35.7875
 31
0.0
  0
LINE
  8
0
 62
     0
 10
45.6681
 20
35.7875
 30
0.0
 11
46.4689
 21
35.7875
 31
0.0
  0
LINE
  8
0
 62
     0
 10
46.4689
 20
35.7875
 30
0.0
 11
46.4689
 21
32.6871
 31
0.0
  0
LINE
  8
0
 62
     0
 10
46.4689
 20
32.6871
 30
0.0
 11
45.6681
 21
32.6871
 31
0.0
  0
LINE
  8
0
 62
     0
 10
45.6681
 20
118.412
 30
0.0
 11
45.6681
 21
117.413
 31
0.0
  0
LINE
  8
0
 62
     0
 10
45.6681
 20
117.413
 30
0.0
 11
31.6687
 21
117.413
 31
0.0
  0
LINE
  8
0
 62
     0
 10
31.6687
 20
117.413
 30
0.0
 11
31.6687
 21
118.412
 31
0.0
  0
LINE
  8
0
 62
     0
 10
31.6687
 20
118.412
 30
0.0
 11
30.8694
 21
118.412
 31
0.0
  0
LINE
  8
0
 62
     0
 10
30.8694
 20
118.412
 30
0.0
 11
30.8694
 21
121.513
 31
0.0
  0
LINE
  8
0
 62
     0
 10
30.8694
 20
121.513
 30
0.0
 11
31.6687
 21
121.513
 31
0.0
  0
LINE
  8
0
 62
     0
 10
31.6687
 20
121.513
 30
0.0
 11
31.6687
 21
127.313
 31
0.0
  0
LINE
  8
0
 62
     0
 10
31.6687
 20
127.313
 30
0.0
 11
30.8694
 21
127.313
 31
0.0
  0
LINE
  8
0
 62
     0
 10
30.8694
 20
127.313
 30
0.0
 11
30.8694
 21
130.412
 31
0.0
  0
LINE
  8
0
 62
     0
 10
30.8694
 20
130.412
 30
0.0
 11
31.6687
 21
130.412
 31
0.0
  0
LINE
  8
0
 62
     0
 10
31.6687
 20
130.412
 30
0.0
 11
31.6687
 21
131.413
 31
0.0
  0
LINE
  8
0
 62
     0
 10
31.6687
 20
131.413
 30
0.0
 11
45.6681
 21
131.413
 31
0.0
  0
LINE
  8
0
 62
     0
 10
45.6681
 20
131.413
 30
0.0
 11
45.6681
 21
130.412
 31
0.0
  0
LINE
  8
0
 62
     0
 10
45.6681
 20
130.412
 30
0.0
 11
46.4689
 21
130.412
 31
0.0
  0
LINE
  8
0
 62
     0
 10
46.4689
 20
130.412
 30
0.0
 11
46.4689
 21
127.313
 31
0.0
  0
LINE
  8
0
 62
     0
 10
46.4689
 20
127.313
 30
0.0
 11
45.6681
 21
127.313
 31
0.0
  0
LINE
  8
0
 62
     0
 10
45.6681
 20
127.313
 30
0.0
 11
45.6681
 21
121.513
 31
0.0
  0
LINE
  8
0
 62
     0
 10
45.6681
 20
121.513
 30
0.0
 11
46.4689
 21
121.513
 31
0.0
  0
LINE
  8
0
 62
     0
 10
46.4689
 20
121.513
 30
0.0
 11
46.4689
 21
118.412
 31
0.0
  0
LINE
  8
0
 62
     0
 10
46.4689
 20
118.412
 30
0.0
 11
45.6681
 21
118.412
 31
0.0
  0
LINE
  8
0
 62
     0
 10
45.6681
 20
89.837
 30
0.0
 11
45.6681
 21
88.8379
 31
0.0
  0
LINE
  8
0
 62
     0
 10
45.6681
 20
88.8379
 30
0.0
 11
31.6687
 21
88.8379
 31
0.0
  0
LINE
  8
0
 62
     0
 10
31.6687
 20
88.8379
 30
0.0
 11
31.6687
 21
89.837
 31
0.0
  0
LINE
  8
0
 62
     0
 10
31.6687
 20
89.837
 30
0.0
 11
30.8694
 21
89.837
 31
0.0
  0
LINE
  8
0
 62
     0
 10
30.8694
 20
89.837
 30
0.0
 11
30.8694
 21
92.9375
 31
0.0
  0
LINE
  8
0
 62
     0
 10
30.8694
 20
92.9375
 30
0.0
 11
31.6687
 21
92.9375
 31
0.0
  0
LINE
  8
0
 62
     0
 10
31.6687
 20
92.9375
 30
0.0
 11
31.6687
 21
98.7379
 31
0.0
  0
LINE
  8
0
 62
     0
 10
31.6687
 20
98.7379
 30
0.0
 11
30.8694
 21
98.7379
 31
0.0
  0
LINE
  8
0
 62
     0
 10
30.8694
 20
98.7379
 30
0.0
 11
30.8694
 21
101.837
 31
0.0
  0
LINE
  8
0
 62
     0
 10
30.8694
 20
101.837
 30
0.0
 11
31.6687
 21
101.837
 31
0.0
  0
LINE
  8
0
 62
     0
 10
31.6687
 20
101.837
 30
0.0
 11
31.6687
 21
102.838
 31
0.0
  0
LINE
  8
0
 62
     0
 10
31.6687
 20
102.838
 30
0.0
 11
45.6681
 21
102.838
 31
0.0
  0
LINE
  8
0
 62
     0
 10
45.6681
 20
102.838
 30
0.0
 11
45.6681
 21
101.837
 31
0.0
  0
LINE
  8
0
 62
     0
 10
45.6681
 20
101.837
 30
0.0
 11
46.4689
 21
101.837
 31
0.0
  0
LINE
  8
0
 62
     0
 10
46.4689
 20
101.837
 30
0.0
 11
46.4689
 21
98.7379
 31
0.0
  0
LINE
  8
0
 62
     0
 10
46.4689
 20
98.7379
 30
0.0
 11
45.6681
 21
98.7379
 31
0.0
  0
LINE
  8
0
 62
     0
 10
45.6681
 20
98.7379
 30
0.0
 11
45.6681
 21
92.9375
 31
0.0
  0
LINE
  8
0
 62
     0
 10
45.6681
 20
92.9375
 30
0.0
 11
46.4689
 21
92.9375
 31
0.0
  0
LINE
  8
0
 62
     0
 10
46.4689
 20
92.9375
 30
0.0
 11
46.4689
 21
89.837
 31
0.0
  0
LINE
  8
0
 62
     0
 10
46.4689
 20
89.837
 30
0.0
 11
45.6681
 21
89.837
 31
0.0
  0
LINE
  8
0
 62
     0
 10
45.6681
 20
70.787
 30
0.0
 11
45.6681
 21
69.7879
 31
0.0
  0
LINE
  8
0
 62
     0
 10
45.6681
 20
69.7879
 30
0.0
 11
31.6687
 21
69.7879
 31
0.0
  0
LINE
  8
0
 62
     0
 10
31.6687
 20
69.7879
 30
0.0
 11
31.6687
 21
70.787
 31
0.0
  0
LINE
  8
0
 62
     0
 10
31.6687
 20
70.787
 30
0.0
 11
30.8694
 21
70.787
 31
0.0
  0
LINE
  8
0
 62
     0
 10
30.8694
 20
70.787
 30
0.0
 11
30.8694
 21
73.8875
 31
0.0
  0
LINE
  8
0
 62
     0
 10
30.8694
 20
73.8875
 30
0.0
 11
31.6687
 21
73.8875
 31
0.0
  0
LINE
  8
0
 62
     0
 10
31.6687
 20
73.8875
 30
0.0
 11
31.6687
 21
79.6879
 31
0.0
  0
LINE
  8
0
 62
     0
 10
31.6687
 20
79.6879
 30
0.0
 11
30.8694
 21
79.6879
 31
0.0
  0
LINE
  8
0
 62
     0
 10
30.8694
 20
79.6879
 30
0.0
 11
30.8694
 21
82.7871
 31
0.0
  0
LINE
  8
0
 62
     0
 10
30.8694
 20
82.7871
 30
0.0
 11
31.6687
 21
82.7871
 31
0.0
  0
LINE
  8
0
 62
     0
 10
31.6687
 20
82.7871
 30
0.0
 11
31.6687
 21
83.7875
 31
0.0
  0
LINE
  8
0
 62
     0
 10
31.6687
 20
83.7875
 30
0.0
 11
45.6681
 21
83.7875
 31
0.0
  0
LINE
  8
0
 62
     0
 10
45.6681
 20
83.7875
 30
0.0
 11
45.6681
 21
82.7871
 31
0.0
  0
LINE
  8
0
 62
     0
 10
45.6681
 20
82.7871
 30
0.0
 11
46.4689
 21
82.7871
 31
0.0
  0
LINE
  8
0
 62
     0
 10
46.4689
 20
82.7871
 30
0.0
 11
46.4689
 21
79.6879
 31
0.0
  0
LINE
  8
0
 62
     0
 10
46.4689
 20
79.6879
 30
0.0
 11
45.6681
 21
79.6879
 31
0.0
  0
LINE
  8
0
 62
     0
 10
45.6681
 20
79.6879
 30
0.0
 11
45.6681
 21
73.8875
 31
0.0
  0
LINE
  8
0
 62
     0
 10
45.6681
 20
73.8875
 30
0.0
 11
46.4689
 21
73.8875
 31
0.0
  0
LINE
  8
0
 62
     0
 10
46.4689
 20
73.8875
 30
0.0
 11
46.4689
 21
70.787
 31
0.0
  0
LINE
  8
0
 62
     0
 10
46.4689
 20
70.787
 30
0.0
 11
45.6681
 21
70.787
 31
0.0
  0
LINE
  8
0
 62
     0
 10
45.6681
 20
13.6371
 30
0.0
 11
45.6681
 21
12.638
 31
0.0
  0
LINE
  8
0
 62
     0
 10
45.6681
 20
12.638
 30
0.0
 11
31.6687
 21
12.638
 31
0.0
  0
LINE
  8
0
 62
     0
 10
31.6687
 20
12.638
 30
0.0
 11
31.6687
 21
13.6371
 31
0.0
  0
LINE
  8
0
 62
     0
 10
31.6687
 20
13.6371
 30
0.0
 11
30.8694
 21
13.6371
 31
0.0
  0
LINE
  8
0
 62
     0
 10
30.8694
 20
13.6371
 30
0.0
 11
30.8694
 21
16.7376
 31
0.0
  0
LINE
  8
0
 62
     0
 10
30.8694
 20
16.7376
 30
0.0
 11
31.6687
 21
16.7376
 31
0.0
  0
LINE
  8
0
 62
     0
 10
31.6687
 20
16.7376
 30
0.0
 11
31.6687
 21
22.5378
 31
0.0
  0
LINE
  8
0
 62
     0
 10
31.6687
 20
22.5378
 30
0.0
 11
30.8694
 21
22.5378
 31
0.0
  0
LINE
  8
0
 62
     0
 10
30.8694
 20
22.5378
 30
0.0
 11
30.8694
 21
25.637
 31
0.0
  0
LINE
  8
0
 62
     0
 10
30.8694
 20
25.637
 30
0.0
 11
31.6687
 21
25.637
 31
0.0
  0
LINE
  8
0
 62
     0
 10
31.6687
 20
25.637
 30
0.0
 11
31.6687
 21
26.6375
 31
0.0
  0
LINE
  8
0
 62
     0
 10
31.6687
 20
26.6375
 30
0.0
 11
45.6681
 21
26.6375
 31
0.0
  0
LINE
  8
0
 62
     0
 10
45.6681
 20
26.6375
 30
0.0
 11
45.6681
 21
25.637
 31
0.0
  0
LINE
  8
0
 62
     0
 10
45.6681
 20
25.637
 30
0.0
 11
46.4689
 21
25.637
 31
0.0
  0
LINE
  8
0
 62
     0
 10
46.4689
 20
25.637
 30
0.0
 11
46.4689
 21
22.5378
 31
0.0
  0
LINE
  8
0
 62
     0
 10
46.4689
 20
22.5378
 30
0.0
 11
45.6681
 21
22.5378
 31
0.0
  0
LINE
  8
0
 62
     0
 10
45.6681
 20
22.5378
 30
0.0
 11
45.6681
 21
16.7376
 31
0.0
  0
LINE
  8
0
 62
     0
 10
45.6681
 20
16.7376
 30
0.0
 11
46.4689
 21
16.7376
 31
0.0
  0
LINE
  8
0
 62
     0
 10
46.4689
 20
16.7376
 30
0.0
 11
46.4689
 21
13.6371
 31
0.0
  0
LINE
  8
0
 62
     0
 10
46.4689
 20
13.6371
 30
0.0
 11
45.6681
 21
13.6371
 31
0.0
  0
LINE
  8
0
 62
     0
 10
64.7181
 20
118.412
 30
0.0
 11
64.7181
 21
117.413
 31
0.0
  0
LINE
  8
0
 62
     0
 10
64.7181
 20
117.413
 30
0.0
 11
50.7189
 21
117.413
 31
0.0
  0
LINE
  8
0
 62
     0
 10
50.7189
 20
117.413
 30
0.0
 11
50.7189
 21
118.412
 31
0.0
  0
LINE
  8
0
 62
     0
 10
50.7189
 20
118.412
 30
0.0
 11
49.9195
 21
118.412
 31
0.0
  0
LINE
  8
0
 62
     0
 10
49.9195
 20
118.412
 30
0.0
 11
49.9195
 21
121.513
 31
0.0
  0
LINE
  8
0
 62
     0
 10
49.9195
 20
121.513
 30
0.0
 11
50.7189
 21
121.513
 31
0.0
  0
LINE
  8
0
 62
     0
 10
50.7189
 20
121.513
 30
0.0
 11
50.7189
 21
127.313
 31
0.0
  0
LINE
  8
0
 62
     0
 10
50.7189
 20
127.313
 30
0.0
 11
49.9195
 21
127.313
 31
0.0
  0
LINE
  8
0
 62
     0
 10
49.9195
 20
127.313
 30
0.0
 11
49.9195
 21
130.412
 31
0.0
  0
LINE
  8
0
 62
     0
 10
49.9195
 20
130.412
 30
0.0
 11
50.7189
 21
130.412
 31
0.0
  0
LINE
  8
0
 62
     0
 10
50.7189
 20
130.412
 30
0.0
 11
50.7189
 21
131.413
 31
0.0
  0
LINE
  8
0
 62
     0
 10
50.7189
 20
131.413
 30
0.0
 11
64.7181
 21
131.413
 31
0.0
  0
LINE
  8
0
 62
     0
 10
64.7181
 20
131.413
 30
0.0
 11
64.7181
 21
130.412
 31
0.0
  0
LINE
  8
0
 62
     0
 10
64.7181
 20
130.412
 30
0.0
 11
65.519
 21
130.412
 31
0.0
  0
LINE
  8
0
 62
     0
 10
65.519
 20
130.412
 30
0.0
 11
65.519
 21
127.313
 31
0.0
  0
LINE
  8
0
 62
     0
 10
65.519
 20
127.313
 30
0.0
 11
64.7181
 21
127.313
 31
0.0
  0
LINE
  8
0
 62
     0
 10
64.7181
 20
127.313
 30
0.0
 11
64.7181
 21
121.513
 31
0.0
  0
LINE
  8
0
 62
     0
 10
64.7181
 20
121.513
 30
0.0
 11
65.519
 21
121.513
 31
0.0
  0
LINE
  8
0
 62
     0
 10
65.519
 20
121.513
 30
0.0
 11
65.519
 21
118.412
 31
0.0
  0
LINE
  8
0
 62
     0
 10
65.519
 20
118.412
 30
0.0
 11
64.7181
 21
118.412
 31
0.0
  0
LINE
  8
0
 62
     0
 10
64.7181
 20
89.837
 30
0.0
 11
64.7181
 21
88.8379
 31
0.0
  0
LINE
  8
0
 62
     0
 10
64.7181
 20
88.8379
 30
0.0
 11
50.7189
 21
88.8379
 31
0.0
  0
LINE
  8
0
 62
     0
 10
50.7189
 20
88.8379
 30
0.0
 11
50.7189
 21
89.837
 31
0.0
  0
LINE
  8
0
 62
     0
 10
50.7189
 20
89.837
 30
0.0
 11
49.9195
 21
89.837
 31
0.0
  0
LINE
  8
0
 62
     0
 10
49.9195
 20
89.837
 30
0.0
 11
49.9195
 21
92.9375
 31
0.0
  0
LINE
  8
0
 62
     0
 10
49.9195
 20
92.9375
 30
0.0
 11
50.7189
 21
92.9375
 31
0.0
  0
LINE
  8
0
 62
     0
 10
50.7189
 20
92.9375
 30
0.0
 11
50.7189
 21
98.7379
 31
0.0
  0
LINE
  8
0
 62
     0
 10
50.7189
 20
98.7379
 30
0.0
 11
49.9195
 21
98.7379
 31
0.0
  0
LINE
  8
0
 62
     0
 10
49.9195
 20
98.7379
 30
0.0
 11
49.9195
 21
101.837
 31
0.0
  0
LINE
  8
0
 62
     0
 10
49.9195
 20
101.837
 30
0.0
 11
50.7189
 21
101.837
 31
0.0
  0
LINE
  8
0
 62
     0
 10
50.7189
 20
101.837
 30
0.0
 11
50.7189
 21
102.838
 31
0.0
  0
LINE
  8
0
 62
     0
 10
50.7189
 20
102.838
 30
0.0
 11
64.7181
 21
102.838
 31
0.0
  0
LINE
  8
0
 62
     0
 10
64.7181
 20
102.838
 30
0.0
 11
64.7181
 21
101.837
 31
0.0
  0
LINE
  8
0
 62
     0
 10
64.7181
 20
101.837
 30
0.0
 11
65.519
 21
101.837
 31
0.0
  0
LINE
  8
0
 62
     0
 10
65.519
 20
101.837
 30
0.0
 11
65.519
 21
98.7379
 31
0.0
  0
LINE
  8
0
 62
     0
 10
65.519
 20
98.7379
 30
0.0
 11
64.7181
 21
98.7379
 31
0.0
  0
LINE
  8
0
 62
     0
 10
64.7181
 20
98.7379
 30
0.0
 11
64.7181
 21
92.9375
 31
0.0
  0
LINE
  8
0
 62
     0
 10
64.7181
 20
92.9375
 30
0.0
 11
65.519
 21
92.9375
 31
0.0
  0
LINE
  8
0
 62
     0
 10
65.519
 20
92.9375
 30
0.0
 11
65.519
 21
89.837
 31
0.0
  0
LINE
  8
0
 62
     0
 10
65.519
 20
89.837
 30
0.0
 11
64.7181
 21
89.837
 31
0.0
  0
LINE
  8
0
 62
     0
 10
64.7181
 20
70.787
 30
0.0
 11
64.7181
 21
69.7879
 31
0.0
  0
LINE
  8
0
 62
     0
 10
64.7181
 20
69.7879
 30
0.0
 11
50.7189
 21
69.7879
 31
0.0
  0
LINE
  8
0
 62
     0
 10
50.7189
 20
69.7879
 30
0.0
 11
50.7189
 21
70.787
 31
0.0
  0
LINE
  8
0
 62
     0
 10
50.7189
 20
70.787
 30
0.0
 11
49.9195
 21
70.787
 31
0.0
  0
LINE
  8
0
 62
     0
 10
49.9195
 20
70.787
 30
0.0
 11
49.9195
 21
73.8875
 31
0.0
  0
LINE
  8
0
 62
     0
 10
49.9195
 20
73.8875
 30
0.0
 11
50.7189
 21
73.8875
 31
0.0
  0
LINE
  8
0
 62
     0
 10
50.7189
 20
73.8875
 30
0.0
 11
50.7189
 21
79.6879
 31
0.0
  0
LINE
  8
0
 62
     0
 10
50.7189
 20
79.6879
 30
0.0
 11
49.9195
 21
79.6879
 31
0.0
  0
LINE
  8
0
 62
     0
 10
49.9195
 20
79.6879
 30
0.0
 11
49.9195
 21
82.7871
 31
0.0
  0
LINE
  8
0
 62
     0
 10
49.9195
 20
82.7871
 30
0.0
 11
50.7189
 21
82.7871
 31
0.0
  0
LINE
  8
0
 62
     0
 10
50.7189
 20
82.7871
 30
0.0
 11
50.7189
 21
83.7875
 31
0.0
  0
LINE
  8
0
 62
     0
 10
50.7189
 20
83.7875
 30
0.0
 11
64.7181
 21
83.7875
 31
0.0
  0
LINE
  8
0
 62
     0
 10
64.7181
 20
83.7875
 30
0.0
 11
64.7181
 21
82.7871
 31
0.0
  0
LINE
  8
0
 62
     0
 10
64.7181
 20
82.7871
 30
0.0
 11
65.519
 21
82.7871
 31
0.0
  0
LINE
  8
0
 62
     0
 10
65.519
 20
82.7871
 30
0.0
 11
65.519
 21
79.6879
 31
0.0
  0
LINE
  8
0
 62
     0
 10
65.519
 20
79.6879
 30
0.0
 11
64.7181
 21
79.6879
 31
0.0
  0
LINE
  8
0
 62
     0
 10
64.7181
 20
79.6879
 30
0.0
 11
64.7181
 21
73.8875
 31
0.0
  0
LINE
  8
0
 62
     0
 10
64.7181
 20
73.8875
 30
0.0
 11
65.519
 21
73.8875
 31
0.0
  0
LINE
  8
0
 62
     0
 10
65.519
 20
73.8875
 30
0.0
 11
65.519
 21
70.787
 31
0.0
  0
LINE
  8
0
 62
     0
 10
65.519
 20
70.787
 30
0.0
 11
64.7181
 21
70.787
 31
0.0
  0
LINE
  8
0
 62
     0
 10
64.7181
 20
13.6371
 30
0.0
 11
64.7181
 21
12.638
 31
0.0
  0
LINE
  8
0
 62
     0
 10
64.7181
 20
12.638
 30
0.0
 11
50.7189
 21
12.638
 31
0.0
  0
LINE
  8
0
 62
     0
 10
50.7189
 20
12.638
 30
0.0
 11
50.7189
 21
13.6371
 31
0.0
  0
LINE
  8
0
 62
     0
 10
50.7189
 20
13.6371
 30
0.0
 11
49.9195
 21
13.6371
 31
0.0
  0
LINE
  8
0
 62
     0
 10
49.9195
 20
13.6371
 30
0.0
 11
49.9195
 21
16.7376
 31
0.0
  0
LINE
  8
0
 62
     0
 10
49.9195
 20
16.7376
 30
0.0
 11
50.7189
 21
16.7376
 31
0.0
  0
LINE
  8
0
 62
     0
 10
50.7189
 20
16.7376
 30
0.0
 11
50.7189
 21
22.5378
 31
0.0
  0
LINE
  8
0
 62
     0
 10
50.7189
 20
22.5378
 30
0.0
 11
49.9195
 21
22.5378
 31
0.0
  0
LINE
  8
0
 62
     0
 10
49.9195
 20
22.5378
 30
0.0
 11
49.9195
 21
25.637
 31
0.0
  0
LINE
  8
0
 62
     0
 10
49.9195
 20
25.637
 30
0.0
 11
50.7189
 21
25.637
 31
0.0
  0
LINE
  8
0
 62
     0
 10
50.7189
 20
25.637
 30
0.0
 11
50.7189
 21
26.6375
 31
0.0
  0
LINE
  8
0
 62
     0
 10
50.7189
 20
26.6375
 30
0.0
 11
64.7181
 21
26.6375
 31
0.0
  0
LINE
  8
0
 62
     0
 10
64.7181
 20
26.6375
 30
0.0
 11
64.7181
 21
25.637
 31
0.0
  0
LINE
  8
0
 62
     0
 10
64.7181
 20
25.637
 30
0.0
 11
65.519
 21
25.637
 31
0.0
  0
LINE
  8
0
 62
     0
 10
65.519
 20
25.637
 30
0.0
 11
65.519
 21
22.5378
 31
0.0
  0
LINE
  8
0
 62
     0
 10
65.519
 20
22.5378
 30
0.0
 11
64.7181
 21
22.5378
 31
0.0
  0
LINE
  8
0
 62
     0
 10
64.7181
 20
22.5378
 30
0.0
 11
64.7181
 21
16.7376
 31
0.0
  0
LINE
  8
0
 62
     0
 10
64.7181
 20
16.7376
 30
0.0
 11
65.519
 21
16.7376
 31
0.0
  0
LINE
  8
0
 62
     0
 10
65.519
 20
16.7376
 30
0.0
 11
65.519
 21
13.6371
 31
0.0
  0
LINE
  8
0
 62
     0
 10
65.519
 20
13.6371
 30
0.0
 11
64.7181
 21
13.6371
 31
0.0
  0
ENDSEC
  0
EOF
