  0
SECTION
  2
HEADER
  9
$ACADVER
  1
AC1009
  9
$EXTMIN
 10
0.0
 20
0.0
 30
0.0
  9
$EXTMAX
 10
1000.0
 20
1000.0
 30
0.0
  9
$FILLMODE
 70
 0
  9
$SPLFRAME
 70
 1
  0
ENDSEC
  0
SECTION
  2
TABLES
  0
TABLE
  2
LAYER
 70
1
  0
LAYER
  2
0
 70
     0
 62
     7
  6
CONTINUOUS
  0
ENDTAB
  0
ENDSEC
  0
SECTION
  2
ENTITIES
  0
LINE
  8
0
 62
     0
 10
0.0937066
 20
143.938
 30
0.0
 11
182.018
 21
143.938
 31
0.0
  0
LINE
  8
0
 62
     0
 10
182.018
 20
143.938
 30
0.0
 11
182.018
 21
0.112999
 31
0.0
  0
LINE
  8
0
 62
     0
 10
182.018
 20
0.112999
 30
0.0
 11
0.0937066
 21
0.112999
 31
0.0
  0
LINE
  8
0
 62
     0
 10
0.0937066
 20
0.112999
 30
0.0
 11
0.0937066
 21
143.938
 31
0.0
  0
LINE
  8
0
 62
     0
 10
91.0565
 20
140.437
 30
0.0
 11
91.5197
 21
140.364
 31
0.0
  0
LINE
  8
0
 62
     0
 10
91.5197
 20
140.364
 30
0.0
 11
91.9371
 21
140.152
 31
0.0
  0
LINE
  8
0
 62
     0
 10
91.9371
 20
140.152
 30
0.0
 11
92.2694
 21
139.82
 31
0.0
  0
LINE
  8
0
 62
     0
 10
92.2694
 20
139.82
 30
0.0
 11
92.4828
 21
139.401
 31
0.0
  0
LINE
  8
0
 62
     0
 10
92.4828
 20
139.401
 30
0.0
 11
92.5572
 21
138.938
 31
0.0
  0
LINE
  8
0
 62
     0
 10
92.5572
 20
138.938
 30
0.0
 11
92.4828
 21
138.473
 31
0.0
  0
LINE
  8
0
 62
     0
 10
92.4828
 20
138.473
 30
0.0
 11
92.2694
 21
138.056
 31
0.0
  0
LINE
  8
0
 62
     0
 10
92.2694
 20
138.056
 30
0.0
 11
91.9371
 21
137.724
 31
0.0
  0
LINE
  8
0
 62
     0
 10
91.9371
 20
137.724
 30
0.0
 11
91.5197
 21
137.51
 31
0.0
  0
LINE
  8
0
 62
     0
 10
91.5197
 20
137.51
 30
0.0
 11
91.0565
 21
137.437
 31
0.0
  0
LINE
  8
0
 62
     0
 10
91.0565
 20
137.437
 30
0.0
 11
90.5923
 21
137.51
 31
0.0
  0
LINE
  8
0
 62
     0
 10
90.5923
 20
137.51
 30
0.0
 11
90.1746
 21
137.724
 31
0.0
  0
LINE
  8
0
 62
     0
 10
90.1746
 20
137.724
 30
0.0
 11
89.8426
 21
138.056
 31
0.0
  0
LINE
  8
0
 62
     0
 10
89.8426
 20
138.056
 30
0.0
 11
89.6303
 21
138.473
 31
0.0
  0
LINE
  8
0
 62
     0
 10
89.6303
 20
138.473
 30
0.0
 11
89.5572
 21
138.938
 31
0.0
  0
LINE
  8
0
 62
     0
 10
89.5572
 20
138.938
 30
0.0
 11
89.6303
 21
139.401
 31
0.0
  0
LINE
  8
0
 62
     0
 10
89.6303
 20
139.401
 30
0.0
 11
89.8426
 21
139.82
 31
0.0
  0
LINE
  8
0
 62
     0
 10
89.8426
 20
139.82
 30
0.0
 11
90.1746
 21
140.152
 31
0.0
  0
LINE
  8
0
 62
     0
 10
90.1746
 20
140.152
 30
0.0
 11
90.5923
 21
140.364
 31
0.0
  0
LINE
  8
0
 62
     0
 10
90.5923
 20
140.364
 30
0.0
 11
91.0565
 21
140.437
 31
0.0
  0
LINE
  8
0
 62
     0
 10
177.019
 20
140.437
 30
0.0
 11
177.483
 21
140.364
 31
0.0
  0
LINE
  8
0
 62
     0
 10
177.483
 20
140.364
 30
0.0
 11
177.901
 21
140.152
 31
0.0
  0
LINE
  8
0
 62
     0
 10
177.901
 20
140.152
 30
0.0
 11
178.233
 21
139.82
 31
0.0
  0
LINE
  8
0
 62
     0
 10
178.233
 20
139.82
 30
0.0
 11
178.446
 21
139.401
 31
0.0
  0
LINE
  8
0
 62
     0
 10
178.446
 20
139.401
 30
0.0
 11
178.519
 21
138.938
 31
0.0
  0
LINE
  8
0
 62
     0
 10
178.519
 20
138.938
 30
0.0
 11
178.446
 21
138.473
 31
0.0
  0
LINE
  8
0
 62
     0
 10
178.446
 20
138.473
 30
0.0
 11
178.233
 21
138.056
 31
0.0
  0
LINE
  8
0
 62
     0
 10
178.233
 20
138.056
 30
0.0
 11
177.901
 21
137.724
 31
0.0
  0
LINE
  8
0
 62
     0
 10
177.901
 20
137.724
 30
0.0
 11
177.483
 21
137.51
 31
0.0
  0
LINE
  8
0
 62
     0
 10
177.483
 20
137.51
 30
0.0
 11
177.019
 21
137.437
 31
0.0
  0
LINE
  8
0
 62
     0
 10
177.019
 20
137.437
 30
0.0
 11
176.554
 21
137.51
 31
0.0
  0
LINE
  8
0
 62
     0
 10
176.554
 20
137.51
 30
0.0
 11
176.137
 21
137.724
 31
0.0
  0
LINE
  8
0
 62
     0
 10
176.137
 20
137.724
 30
0.0
 11
175.805
 21
138.056
 31
0.0
  0
LINE
  8
0
 62
     0
 10
175.805
 20
138.056
 30
0.0
 11
175.592
 21
138.473
 31
0.0
  0
LINE
  8
0
 62
     0
 10
175.592
 20
138.473
 30
0.0
 11
175.519
 21
138.938
 31
0.0
  0
LINE
  8
0
 62
     0
 10
175.519
 20
138.938
 30
0.0
 11
175.592
 21
139.401
 31
0.0
  0
LINE
  8
0
 62
     0
 10
175.592
 20
139.401
 30
0.0
 11
175.805
 21
139.82
 31
0.0
  0
LINE
  8
0
 62
     0
 10
175.805
 20
139.82
 30
0.0
 11
176.137
 21
140.152
 31
0.0
  0
LINE
  8
0
 62
     0
 10
176.137
 20
140.152
 30
0.0
 11
176.554
 21
140.364
 31
0.0
  0
LINE
  8
0
 62
     0
 10
176.554
 20
140.364
 30
0.0
 11
177.019
 21
140.437
 31
0.0
  0
LINE
  8
0
 62
     0
 10
177.019
 20
73.5238
 30
0.0
 11
177.483
 21
73.4508
 31
0.0
  0
LINE
  8
0
 62
     0
 10
177.483
 20
73.4508
 30
0.0
 11
177.901
 21
73.2384
 31
0.0
  0
LINE
  8
0
 62
     0
 10
177.901
 20
73.2384
 30
0.0
 11
178.233
 21
72.9065
 31
0.0
  0
LINE
  8
0
 62
     0
 10
178.233
 20
72.9065
 30
0.0
 11
178.446
 21
72.4888
 31
0.0
  0
LINE
  8
0
 62
     0
 10
178.446
 20
72.4888
 30
0.0
 11
178.519
 21
72.0245
 31
0.0
  0
LINE
  8
0
 62
     0
 10
178.519
 20
72.0245
 30
0.0
 11
178.446
 21
71.5617
 31
0.0
  0
LINE
  8
0
 62
     0
 10
178.446
 20
71.5617
 30
0.0
 11
178.233
 21
71.144
 31
0.0
  0
LINE
  8
0
 62
     0
 10
178.233
 20
71.144
 30
0.0
 11
177.901
 21
70.812
 31
0.0
  0
LINE
  8
0
 62
     0
 10
177.901
 20
70.812
 30
0.0
 11
177.483
 21
70.5982
 31
0.0
  0
LINE
  8
0
 62
     0
 10
177.483
 20
70.5982
 30
0.0
 11
177.019
 21
70.5238
 31
0.0
  0
LINE
  8
0
 62
     0
 10
177.019
 20
70.5238
 30
0.0
 11
176.554
 21
70.5982
 31
0.0
  0
LINE
  8
0
 62
     0
 10
176.554
 20
70.5982
 30
0.0
 11
176.137
 21
70.812
 31
0.0
  0
LINE
  8
0
 62
     0
 10
176.137
 20
70.812
 30
0.0
 11
175.805
 21
71.144
 31
0.0
  0
LINE
  8
0
 62
     0
 10
175.805
 20
71.144
 30
0.0
 11
175.592
 21
71.5617
 31
0.0
  0
LINE
  8
0
 62
     0
 10
175.592
 20
71.5617
 30
0.0
 11
175.519
 21
72.0245
 31
0.0
  0
LINE
  8
0
 62
     0
 10
175.519
 20
72.0245
 30
0.0
 11
175.592
 21
72.4888
 31
0.0
  0
LINE
  8
0
 62
     0
 10
175.592
 20
72.4888
 30
0.0
 11
175.805
 21
72.9065
 31
0.0
  0
LINE
  8
0
 62
     0
 10
175.805
 20
72.9065
 30
0.0
 11
176.137
 21
73.2384
 31
0.0
  0
LINE
  8
0
 62
     0
 10
176.137
 20
73.2384
 30
0.0
 11
176.554
 21
73.4508
 31
0.0
  0
LINE
  8
0
 62
     0
 10
176.554
 20
73.4508
 30
0.0
 11
177.019
 21
73.5238
 31
0.0
  0
LINE
  8
0
 62
     0
 10
177.019
 20
6.61183
 30
0.0
 11
177.483
 21
6.53881
 31
0.0
  0
LINE
  8
0
 62
     0
 10
177.483
 20
6.53881
 30
0.0
 11
177.901
 21
6.32658
 31
0.0
  0
LINE
  8
0
 62
     0
 10
177.901
 20
6.32658
 30
0.0
 11
178.233
 21
5.99447
 31
0.0
  0
LINE
  8
0
 62
     0
 10
178.233
 20
5.99447
 30
0.0
 11
178.446
 21
5.57692
 31
0.0
  0
LINE
  8
0
 62
     0
 10
178.446
 20
5.57692
 30
0.0
 11
178.519
 21
5.11253
 31
0.0
  0
LINE
  8
0
 62
     0
 10
178.519
 20
5.11253
 30
0.0
 11
178.446
 21
4.64813
 31
0.0
  0
LINE
  8
0
 62
     0
 10
178.446
 20
4.64813
 30
0.0
 11
178.233
 21
4.23058
 31
0.0
  0
LINE
  8
0
 62
     0
 10
178.233
 20
4.23058
 30
0.0
 11
177.901
 21
3.89848
 31
0.0
  0
LINE
  8
0
 62
     0
 10
177.901
 20
3.89848
 30
0.0
 11
177.483
 21
3.68487
 31
0.0
  0
LINE
  8
0
 62
     0
 10
177.483
 20
3.68487
 30
0.0
 11
177.019
 21
3.61184
 31
0.0
  0
LINE
  8
0
 62
     0
 10
177.019
 20
3.61184
 30
0.0
 11
176.554
 21
3.68487
 31
0.0
  0
LINE
  8
0
 62
     0
 10
176.554
 20
3.68487
 30
0.0
 11
176.137
 21
3.89848
 31
0.0
  0
LINE
  8
0
 62
     0
 10
176.137
 20
3.89848
 30
0.0
 11
175.805
 21
4.23058
 31
0.0
  0
LINE
  8
0
 62
     0
 10
175.805
 20
4.23058
 30
0.0
 11
175.592
 21
4.64813
 31
0.0
  0
LINE
  8
0
 62
     0
 10
175.592
 20
4.64813
 30
0.0
 11
175.519
 21
5.11253
 31
0.0
  0
LINE
  8
0
 62
     0
 10
175.519
 20
5.11253
 30
0.0
 11
175.592
 21
5.57692
 31
0.0
  0
LINE
  8
0
 62
     0
 10
175.592
 20
5.57692
 30
0.0
 11
175.805
 21
5.99447
 31
0.0
  0
LINE
  8
0
 62
     0
 10
175.805
 20
5.99447
 30
0.0
 11
176.137
 21
6.32658
 31
0.0
  0
LINE
  8
0
 62
     0
 10
176.137
 20
6.32658
 30
0.0
 11
176.554
 21
6.53881
 31
0.0
  0
LINE
  8
0
 62
     0
 10
176.554
 20
6.53881
 30
0.0
 11
177.019
 21
6.61183
 31
0.0
  0
LINE
  8
0
 62
     0
 10
91.0565
 20
6.61183
 30
0.0
 11
91.5197
 21
6.53881
 31
0.0
  0
LINE
  8
0
 62
     0
 10
91.5197
 20
6.53881
 30
0.0
 11
91.9371
 21
6.32658
 31
0.0
  0
LINE
  8
0
 62
     0
 10
91.9371
 20
6.32658
 30
0.0
 11
92.2694
 21
5.99447
 31
0.0
  0
LINE
  8
0
 62
     0
 10
92.2694
 20
5.99447
 30
0.0
 11
92.4828
 21
5.57692
 31
0.0
  0
LINE
  8
0
 62
     0
 10
92.4828
 20
5.57692
 30
0.0
 11
92.5572
 21
5.11253
 31
0.0
  0
LINE
  8
0
 62
     0
 10
92.5572
 20
5.11253
 30
0.0
 11
92.4828
 21
4.64813
 31
0.0
  0
LINE
  8
0
 62
     0
 10
92.4828
 20
4.64813
 30
0.0
 11
92.2694
 21
4.23058
 31
0.0
  0
LINE
  8
0
 62
     0
 10
92.2694
 20
4.23058
 30
0.0
 11
91.9371
 21
3.89848
 31
0.0
  0
LINE
  8
0
 62
     0
 10
91.9371
 20
3.89848
 30
0.0
 11
91.5197
 21
3.68487
 31
0.0
  0
LINE
  8
0
 62
     0
 10
91.5197
 20
3.68487
 30
0.0
 11
91.0565
 21
3.61184
 31
0.0
  0
LINE
  8
0
 62
     0
 10
91.0565
 20
3.61184
 30
0.0
 11
90.5923
 21
3.68487
 31
0.0
  0
LINE
  8
0
 62
     0
 10
90.5923
 20
3.68487
 30
0.0
 11
90.1746
 21
3.89848
 31
0.0
  0
LINE
  8
0
 62
     0
 10
90.1746
 20
3.89848
 30
0.0
 11
89.8426
 21
4.23058
 31
0.0
  0
LINE
  8
0
 62
     0
 10
89.8426
 20
4.23058
 30
0.0
 11
89.6303
 21
4.64813
 31
0.0
  0
LINE
  8
0
 62
     0
 10
89.6303
 20
4.64813
 30
0.0
 11
89.5572
 21
5.11253
 31
0.0
  0
LINE
  8
0
 62
     0
 10
89.5572
 20
5.11253
 30
0.0
 11
89.6303
 21
5.57692
 31
0.0
  0
LINE
  8
0
 62
     0
 10
89.6303
 20
5.57692
 30
0.0
 11
89.8426
 21
5.99447
 31
0.0
  0
LINE
  8
0
 62
     0
 10
89.8426
 20
5.99447
 30
0.0
 11
90.1746
 21
6.32658
 31
0.0
  0
LINE
  8
0
 62
     0
 10
90.1746
 20
6.32658
 30
0.0
 11
90.5923
 21
6.53881
 31
0.0
  0
LINE
  8
0
 62
     0
 10
90.5923
 20
6.53881
 30
0.0
 11
91.0565
 21
6.61183
 31
0.0
  0
LINE
  8
0
 62
     0
 10
5.09323
 20
6.61183
 30
0.0
 11
5.55763
 21
6.53881
 31
0.0
  0
LINE
  8
0
 62
     0
 10
5.55763
 20
6.53881
 30
0.0
 11
5.97517
 21
6.32658
 31
0.0
  0
LINE
  8
0
 62
     0
 10
5.97517
 20
6.32658
 30
0.0
 11
6.30728
 21
5.99447
 31
0.0
  0
LINE
  8
0
 62
     0
 10
6.30728
 20
5.99447
 30
0.0
 11
6.52089
 21
5.57692
 31
0.0
  0
LINE
  8
0
 62
     0
 10
6.52089
 20
5.57692
 30
0.0
 11
6.59391
 21
5.11253
 31
0.0
  0
LINE
  8
0
 62
     0
 10
6.59391
 20
5.11253
 30
0.0
 11
6.52089
 21
4.64813
 31
0.0
  0
LINE
  8
0
 62
     0
 10
6.52089
 20
4.64813
 30
0.0
 11
6.30728
 21
4.23058
 31
0.0
  0
LINE
  8
0
 62
     0
 10
6.30728
 20
4.23058
 30
0.0
 11
5.97517
 21
3.89848
 31
0.0
  0
LINE
  8
0
 62
     0
 10
5.97517
 20
3.89848
 30
0.0
 11
5.55763
 21
3.68487
 31
0.0
  0
LINE
  8
0
 62
     0
 10
5.55763
 20
3.68487
 30
0.0
 11
5.09323
 21
3.61184
 31
0.0
  0
LINE
  8
0
 62
     0
 10
5.09323
 20
3.61184
 30
0.0
 11
4.63021
 21
3.68487
 31
0.0
  0
LINE
  8
0
 62
     0
 10
4.63021
 20
3.68487
 30
0.0
 11
4.21128
 21
3.89848
 31
0.0
  0
LINE
  8
0
 62
     0
 10
4.21128
 20
3.89848
 30
0.0
 11
3.87918
 21
4.23058
 31
0.0
  0
LINE
  8
0
 62
     0
 10
3.87918
 20
4.23058
 30
0.0
 11
3.66695
 21
4.64813
 31
0.0
  0
LINE
  8
0
 62
     0
 10
3.66695
 20
4.64813
 30
0.0
 11
3.59392
 21
5.11253
 31
0.0
  0
LINE
  8
0
 62
     0
 10
3.59392
 20
5.11253
 30
0.0
 11
3.66695
 21
5.57692
 31
0.0
  0
LINE
  8
0
 62
     0
 10
3.66695
 20
5.57692
 30
0.0
 11
3.87918
 21
5.99447
 31
0.0
  0
LINE
  8
0
 62
     0
 10
3.87918
 20
5.99447
 30
0.0
 11
4.21128
 21
6.32658
 31
0.0
  0
LINE
  8
0
 62
     0
 10
4.21128
 20
6.32658
 30
0.0
 11
4.63021
 21
6.53881
 31
0.0
  0
LINE
  8
0
 62
     0
 10
4.63021
 20
6.53881
 30
0.0
 11
5.09323
 21
6.61183
 31
0.0
  0
LINE
  8
0
 62
     0
 10
5.09323
 20
73.5238
 30
0.0
 11
5.55763
 21
73.4508
 31
0.0
  0
LINE
  8
0
 62
     0
 10
5.55763
 20
73.4508
 30
0.0
 11
5.97517
 21
73.2384
 31
0.0
  0
LINE
  8
0
 62
     0
 10
5.97517
 20
73.2384
 30
0.0
 11
6.30728
 21
72.9065
 31
0.0
  0
LINE
  8
0
 62
     0
 10
6.30728
 20
72.9065
 30
0.0
 11
6.52089
 21
72.4888
 31
0.0
  0
LINE
  8
0
 62
     0
 10
6.52089
 20
72.4888
 30
0.0
 11
6.59391
 21
72.0245
 31
0.0
  0
LINE
  8
0
 62
     0
 10
6.59391
 20
72.0245
 30
0.0
 11
6.52089
 21
71.5617
 31
0.0
  0
LINE
  8
0
 62
     0
 10
6.52089
 20
71.5617
 30
0.0
 11
6.30728
 21
71.144
 31
0.0
  0
LINE
  8
0
 62
     0
 10
6.30728
 20
71.144
 30
0.0
 11
5.97517
 21
70.812
 31
0.0
  0
LINE
  8
0
 62
     0
 10
5.97517
 20
70.812
 30
0.0
 11
5.55763
 21
70.5982
 31
0.0
  0
LINE
  8
0
 62
     0
 10
5.55763
 20
70.5982
 30
0.0
 11
5.09323
 21
70.5238
 31
0.0
  0
LINE
  8
0
 62
     0
 10
5.09323
 20
70.5238
 30
0.0
 11
4.63021
 21
70.5982
 31
0.0
  0
LINE
  8
0
 62
     0
 10
4.63021
 20
70.5982
 30
0.0
 11
4.21128
 21
70.812
 31
0.0
  0
LINE
  8
0
 62
     0
 10
4.21128
 20
70.812
 30
0.0
 11
3.87918
 21
71.144
 31
0.0
  0
LINE
  8
0
 62
     0
 10
3.87918
 20
71.144
 30
0.0
 11
3.66695
 21
71.5617
 31
0.0
  0
LINE
  8
0
 62
     0
 10
3.66695
 20
71.5617
 30
0.0
 11
3.59392
 21
72.0245
 31
0.0
  0
LINE
  8
0
 62
     0
 10
3.59392
 20
72.0245
 30
0.0
 11
3.66695
 21
72.4888
 31
0.0
  0
LINE
  8
0
 62
     0
 10
3.66695
 20
72.4888
 30
0.0
 11
3.87918
 21
72.9065
 31
0.0
  0
LINE
  8
0
 62
     0
 10
3.87918
 20
72.9065
 30
0.0
 11
4.21128
 21
73.2384
 31
0.0
  0
LINE
  8
0
 62
     0
 10
4.21128
 20
73.2384
 30
0.0
 11
4.63021
 21
73.4508
 31
0.0
  0
LINE
  8
0
 62
     0
 10
4.63021
 20
73.4508
 30
0.0
 11
5.09323
 21
73.5238
 31
0.0
  0
LINE
  8
0
 62
     0
 10
5.09323
 20
140.437
 30
0.0
 11
5.55763
 21
140.364
 31
0.0
  0
LINE
  8
0
 62
     0
 10
5.55763
 20
140.364
 30
0.0
 11
5.97517
 21
140.152
 31
0.0
  0
LINE
  8
0
 62
     0
 10
5.97517
 20
140.152
 30
0.0
 11
6.30728
 21
139.82
 31
0.0
  0
LINE
  8
0
 62
     0
 10
6.30728
 20
139.82
 30
0.0
 11
6.52089
 21
139.401
 31
0.0
  0
LINE
  8
0
 62
     0
 10
6.52089
 20
139.401
 30
0.0
 11
6.59391
 21
138.938
 31
0.0
  0
LINE
  8
0
 62
     0
 10
6.59391
 20
138.938
 30
0.0
 11
6.52089
 21
138.473
 31
0.0
  0
LINE
  8
0
 62
     0
 10
6.52089
 20
138.473
 30
0.0
 11
6.30728
 21
138.056
 31
0.0
  0
LINE
  8
0
 62
     0
 10
6.30728
 20
138.056
 30
0.0
 11
5.97517
 21
137.724
 31
0.0
  0
LINE
  8
0
 62
     0
 10
5.97517
 20
137.724
 30
0.0
 11
5.55763
 21
137.51
 31
0.0
  0
LINE
  8
0
 62
     0
 10
5.55763
 20
137.51
 30
0.0
 11
5.09323
 21
137.437
 31
0.0
  0
LINE
  8
0
 62
     0
 10
5.09323
 20
137.437
 30
0.0
 11
4.63021
 21
137.51
 31
0.0
  0
LINE
  8
0
 62
     0
 10
4.63021
 20
137.51
 30
0.0
 11
4.21128
 21
137.724
 31
0.0
  0
LINE
  8
0
 62
     0
 10
4.21128
 20
137.724
 30
0.0
 11
3.87918
 21
138.056
 31
0.0
  0
LINE
  8
0
 62
     0
 10
3.87918
 20
138.056
 30
0.0
 11
3.66695
 21
138.473
 31
0.0
  0
LINE
  8
0
 62
     0
 10
3.66695
 20
138.473
 30
0.0
 11
3.59392
 21
138.938
 31
0.0
  0
LINE
  8
0
 62
     0
 10
3.59392
 20
138.938
 30
0.0
 11
3.66695
 21
139.401
 31
0.0
  0
LINE
  8
0
 62
     0
 10
3.66695
 20
139.401
 30
0.0
 11
3.87918
 21
139.82
 31
0.0
  0
LINE
  8
0
 62
     0
 10
3.87918
 20
139.82
 30
0.0
 11
4.21128
 21
140.152
 31
0.0
  0
LINE
  8
0
 62
     0
 10
4.21128
 20
140.152
 30
0.0
 11
4.63021
 21
140.364
 31
0.0
  0
LINE
  8
0
 62
     0
 10
4.63021
 20
140.364
 30
0.0
 11
5.09323
 21
140.437
 31
0.0
  0
LINE
  8
0
 62
     0
 10
26.6182
 20
70.787
 30
0.0
 11
26.6182
 21
69.7879
 31
0.0
  0
LINE
  8
0
 62
     0
 10
26.6182
 20
69.7879
 30
0.0
 11
12.6187
 21
69.7879
 31
0.0
  0
LINE
  8
0
 62
     0
 10
12.6187
 20
69.7879
 30
0.0
 11
12.6187
 21
70.787
 31
0.0
  0
LINE
  8
0
 62
     0
 10
12.6187
 20
70.787
 30
0.0
 11
11.8194
 21
70.787
 31
0.0
  0
LINE
  8
0
 62
     0
 10
11.8194
 20
70.787
 30
0.0
 11
11.8194
 21
73.8875
 31
0.0
  0
LINE
  8
0
 62
     0
 10
11.8194
 20
73.8875
 30
0.0
 11
12.6187
 21
73.8875
 31
0.0
  0
LINE
  8
0
 62
     0
 10
12.6187
 20
73.8875
 30
0.0
 11
12.6187
 21
79.6879
 31
0.0
  0
LINE
  8
0
 62
     0
 10
12.6187
 20
79.6879
 30
0.0
 11
11.8194
 21
79.6879
 31
0.0
  0
LINE
  8
0
 62
     0
 10
11.8194
 20
79.6879
 30
0.0
 11
11.8194
 21
82.7871
 31
0.0
  0
LINE
  8
0
 62
     0
 10
11.8194
 20
82.7871
 30
0.0
 11
12.6187
 21
82.7871
 31
0.0
  0
LINE
  8
0
 62
     0
 10
12.6187
 20
82.7871
 30
0.0
 11
12.6187
 21
83.7875
 31
0.0
  0
LINE
  8
0
 62
     0
 10
12.6187
 20
83.7875
 30
0.0
 11
26.6182
 21
83.7875
 31
0.0
  0
LINE
  8
0
 62
     0
 10
26.6182
 20
83.7875
 30
0.0
 11
26.6182
 21
82.7871
 31
0.0
  0
LINE
  8
0
 62
     0
 10
26.6182
 20
82.7871
 30
0.0
 11
27.4188
 21
82.7871
 31
0.0
  0
LINE
  8
0
 62
     0
 10
27.4188
 20
82.7871
 30
0.0
 11
27.4188
 21
79.6879
 31
0.0
  0
LINE
  8
0
 62
     0
 10
27.4188
 20
79.6879
 30
0.0
 11
26.6182
 21
79.6879
 31
0.0
  0
LINE
  8
0
 62
     0
 10
26.6182
 20
79.6879
 30
0.0
 11
26.6182
 21
73.8875
 31
0.0
  0
LINE
  8
0
 62
     0
 10
26.6182
 20
73.8875
 30
0.0
 11
27.4188
 21
73.8875
 31
0.0
  0
LINE
  8
0
 62
     0
 10
27.4188
 20
73.8875
 30
0.0
 11
27.4188
 21
70.787
 31
0.0
  0
LINE
  8
0
 62
     0
 10
27.4188
 20
70.787
 30
0.0
 11
26.6182
 21
70.787
 31
0.0
  0
LINE
  8
0
 62
     0
 10
31.3821
 20
51.737
 30
0.0
 11
31.3821
 21
50.7379
 31
0.0
  0
LINE
  8
0
 62
     0
 10
31.3821
 20
50.7379
 30
0.0
 11
17.3812
 21
50.7379
 31
0.0
  0
LINE
  8
0
 62
     0
 10
17.3812
 20
50.7379
 30
0.0
 11
17.3812
 21
51.737
 31
0.0
  0
LINE
  8
0
 62
     0
 10
17.3812
 20
51.737
 30
0.0
 11
16.5819
 21
51.737
 31
0.0
  0
LINE
  8
0
 62
     0
 10
16.5819
 20
51.737
 30
0.0
 11
16.5819
 21
54.8375
 31
0.0
  0
LINE
  8
0
 62
     0
 10
16.5819
 20
54.8375
 30
0.0
 11
17.3812
 21
54.8375
 31
0.0
  0
LINE
  8
0
 62
     0
 10
17.3812
 20
54.8375
 30
0.0
 11
17.3812
 21
60.6379
 31
0.0
  0
LINE
  8
0
 62
     0
 10
17.3812
 20
60.6379
 30
0.0
 11
16.5819
 21
60.6379
 31
0.0
  0
LINE
  8
0
 62
     0
 10
16.5819
 20
60.6379
 30
0.0
 11
16.5819
 21
63.7371
 31
0.0
  0
LINE
  8
0
 62
     0
 10
16.5819
 20
63.7371
 30
0.0
 11
17.3812
 21
63.7371
 31
0.0
  0
LINE
  8
0
 62
     0
 10
17.3812
 20
63.7371
 30
0.0
 11
17.3812
 21
64.7375
 31
0.0
  0
LINE
  8
0
 62
     0
 10
17.3812
 20
64.7375
 30
0.0
 11
31.3821
 21
64.7375
 31
0.0
  0
LINE
  8
0
 62
     0
 10
31.3821
 20
64.7375
 30
0.0
 11
31.3821
 21
63.7371
 31
0.0
  0
LINE
  8
0
 62
     0
 10
31.3821
 20
63.7371
 30
0.0
 11
32.1813
 21
63.7371
 31
0.0
  0
LINE
  8
0
 62
     0
 10
32.1813
 20
63.7371
 30
0.0
 11
32.1813
 21
60.6379
 31
0.0
  0
LINE
  8
0
 62
     0
 10
32.1813
 20
60.6379
 30
0.0
 11
31.3821
 21
60.6379
 31
0.0
  0
LINE
  8
0
 62
     0
 10
31.3821
 20
60.6379
 30
0.0
 11
31.3821
 21
54.8375
 31
0.0
  0
LINE
  8
0
 62
     0
 10
31.3821
 20
54.8375
 30
0.0
 11
32.1813
 21
54.8375
 31
0.0
  0
LINE
  8
0
 62
     0
 10
32.1813
 20
54.8375
 30
0.0
 11
32.1813
 21
51.737
 31
0.0
  0
LINE
  8
0
 62
     0
 10
32.1813
 20
51.737
 30
0.0
 11
31.3821
 21
51.737
 31
0.0
  0
LINE
  8
0
 62
     0
 10
36.1431
 20
118.412
 30
0.0
 11
36.1431
 21
117.413
 31
0.0
  0
LINE
  8
0
 62
     0
 10
36.1431
 20
117.413
 30
0.0
 11
22.1437
 21
117.413
 31
0.0
  0
LINE
  8
0
 62
     0
 10
22.1437
 20
117.413
 30
0.0
 11
22.1437
 21
118.412
 31
0.0
  0
LINE
  8
0
 62
     0
 10
22.1437
 20
118.412
 30
0.0
 11
21.3444
 21
118.412
 31
0.0
  0
LINE
  8
0
 62
     0
 10
21.3444
 20
118.412
 30
0.0
 11
21.3444
 21
121.513
 31
0.0
  0
LINE
  8
0
 62
     0
 10
21.3444
 20
121.513
 30
0.0
 11
22.1437
 21
121.513
 31
0.0
  0
LINE
  8
0
 62
     0
 10
22.1437
 20
121.513
 30
0.0
 11
22.1437
 21
127.313
 31
0.0
  0
LINE
  8
0
 62
     0
 10
22.1437
 20
127.313
 30
0.0
 11
21.3444
 21
127.313
 31
0.0
  0
LINE
  8
0
 62
     0
 10
21.3444
 20
127.313
 30
0.0
 11
21.3444
 21
130.412
 31
0.0
  0
LINE
  8
0
 62
     0
 10
21.3444
 20
130.412
 30
0.0
 11
22.1437
 21
130.412
 31
0.0
  0
LINE
  8
0
 62
     0
 10
22.1437
 20
130.412
 30
0.0
 11
22.1437
 21
131.413
 31
0.0
  0
LINE
  8
0
 62
     0
 10
22.1437
 20
131.413
 30
0.0
 11
36.1431
 21
131.413
 31
0.0
  0
LINE
  8
0
 62
     0
 10
36.1431
 20
131.413
 30
0.0
 11
36.1431
 21
130.412
 31
0.0
  0
LINE
  8
0
 62
     0
 10
36.1431
 20
130.412
 30
0.0
 11
36.9439
 21
130.412
 31
0.0
  0
LINE
  8
0
 62
     0
 10
36.9439
 20
130.412
 30
0.0
 11
36.9439
 21
127.313
 31
0.0
  0
LINE
  8
0
 62
     0
 10
36.9439
 20
127.313
 30
0.0
 11
36.1431
 21
127.313
 31
0.0
  0
LINE
  8
0
 62
     0
 10
36.1431
 20
127.313
 30
0.0
 11
36.1431
 21
121.513
 31
0.0
  0
LINE
  8
0
 62
     0
 10
36.1431
 20
121.513
 30
0.0
 11
36.9439
 21
121.513
 31
0.0
  0
LINE
  8
0
 62
     0
 10
36.9439
 20
121.513
 30
0.0
 11
36.9439
 21
118.412
 31
0.0
  0
LINE
  8
0
 62
     0
 10
36.9439
 20
118.412
 30
0.0
 11
36.1431
 21
118.412
 31
0.0
  0
LINE
  8
0
 62
     0
 10
36.1431
 20
89.837
 30
0.0
 11
36.1431
 21
88.8379
 31
0.0
  0
LINE
  8
0
 62
     0
 10
36.1431
 20
88.8379
 30
0.0
 11
22.1437
 21
88.8379
 31
0.0
  0
LINE
  8
0
 62
     0
 10
22.1437
 20
88.8379
 30
0.0
 11
22.1437
 21
89.837
 31
0.0
  0
LINE
  8
0
 62
     0
 10
22.1437
 20
89.837
 30
0.0
 11
21.3444
 21
89.837
 31
0.0
  0
LINE
  8
0
 62
     0
 10
21.3444
 20
89.837
 30
0.0
 11
21.3444
 21
92.9375
 31
0.0
  0
LINE
  8
0
 62
     0
 10
21.3444
 20
92.9375
 30
0.0
 11
22.1437
 21
92.9375
 31
0.0
  0
LINE
  8
0
 62
     0
 10
22.1437
 20
92.9375
 30
0.0
 11
22.1437
 21
98.7379
 31
0.0
  0
LINE
  8
0
 62
     0
 10
22.1437
 20
98.7379
 30
0.0
 11
21.3444
 21
98.7379
 31
0.0
  0
LINE
  8
0
 62
     0
 10
21.3444
 20
98.7379
 30
0.0
 11
21.3444
 21
101.837
 31
0.0
  0
LINE
  8
0
 62
     0
 10
21.3444
 20
101.837
 30
0.0
 11
22.1437
 21
101.837
 31
0.0
  0
LINE
  8
0
 62
     0
 10
22.1437
 20
101.837
 30
0.0
 11
22.1437
 21
102.838
 31
0.0
  0
LINE
  8
0
 62
     0
 10
22.1437
 20
102.838
 30
0.0
 11
36.1431
 21
102.838
 31
0.0
  0
LINE
  8
0
 62
     0
 10
36.1431
 20
102.838
 30
0.0
 11
36.1431
 21
101.837
 31
0.0
  0
LINE
  8
0
 62
     0
 10
36.1431
 20
101.837
 30
0.0
 11
36.9439
 21
101.837
 31
0.0
  0
LINE
  8
0
 62
     0
 10
36.9439
 20
101.837
 30
0.0
 11
36.9439
 21
98.7379
 31
0.0
  0
LINE
  8
0
 62
     0
 10
36.9439
 20
98.7379
 30
0.0
 11
36.1431
 21
98.7379
 31
0.0
  0
LINE
  8
0
 62
     0
 10
36.1431
 20
98.7379
 30
0.0
 11
36.1431
 21
92.9375
 31
0.0
  0
LINE
  8
0
 62
     0
 10
36.1431
 20
92.9375
 30
0.0
 11
36.9439
 21
92.9375
 31
0.0
  0
LINE
  8
0
 62
     0
 10
36.9439
 20
92.9375
 30
0.0
 11
36.9439
 21
89.837
 31
0.0
  0
LINE
  8
0
 62
     0
 10
36.9439
 20
89.837
 30
0.0
 11
36.1431
 21
89.837
 31
0.0
  0
LINE
  8
0
 62
     0
 10
40.9056
 20
32.6871
 30
0.0
 11
40.9056
 21
31.688
 31
0.0
  0
LINE
  8
0
 62
     0
 10
40.9056
 20
31.688
 30
0.0
 11
26.9062
 21
31.688
 31
0.0
  0
LINE
  8
0
 62
     0
 10
26.9062
 20
31.688
 30
0.0
 11
26.9062
 21
32.6871
 31
0.0
  0
LINE
  8
0
 62
     0
 10
26.9062
 20
32.6871
 30
0.0
 11
26.1056
 21
32.6871
 31
0.0
  0
LINE
  8
0
 62
     0
 10
26.1056
 20
32.6871
 30
0.0
 11
26.1056
 21
35.7875
 31
0.0
  0
LINE
  8
0
 62
     0
 10
26.1056
 20
35.7875
 30
0.0
 11
26.9062
 21
35.7875
 31
0.0
  0
LINE
  8
0
 62
     0
 10
26.9062
 20
35.7875
 30
0.0
 11
26.9062
 21
41.5879
 31
0.0
  0
LINE
  8
0
 62
     0
 10
26.9062
 20
41.5879
 30
0.0
 11
26.1056
 21
41.5879
 31
0.0
  0
LINE
  8
0
 62
     0
 10
26.1056
 20
41.5879
 30
0.0
 11
26.1056
 21
44.6871
 31
0.0
  0
LINE
  8
0
 62
     0
 10
26.1056
 20
44.6871
 30
0.0
 11
26.9062
 21
44.6871
 31
0.0
  0
LINE
  8
0
 62
     0
 10
26.9062
 20
44.6871
 30
0.0
 11
26.9062
 21
45.6875
 31
0.0
  0
LINE
  8
0
 62
     0
 10
26.9062
 20
45.6875
 30
0.0
 11
40.9056
 21
45.6875
 31
0.0
  0
LINE
  8
0
 62
     0
 10
40.9056
 20
45.6875
 30
0.0
 11
40.9056
 21
44.6871
 31
0.0
  0
LINE
  8
0
 62
     0
 10
40.9056
 20
44.6871
 30
0.0
 11
41.7064
 21
44.6871
 31
0.0
  0
LINE
  8
0
 62
     0
 10
41.7064
 20
44.6871
 30
0.0
 11
41.7064
 21
41.5879
 31
0.0
  0
LINE
  8
0
 62
     0
 10
41.7064
 20
41.5879
 30
0.0
 11
40.9056
 21
41.5879
 31
0.0
  0
LINE
  8
0
 62
     0
 10
40.9056
 20
41.5879
 30
0.0
 11
40.9056
 21
35.7875
 31
0.0
  0
LINE
  8
0
 62
     0
 10
40.9056
 20
35.7875
 30
0.0
 11
41.7064
 21
35.7875
 31
0.0
  0
LINE
  8
0
 62
     0
 10
41.7064
 20
35.7875
 30
0.0
 11
41.7064
 21
32.6871
 31
0.0
  0
LINE
  8
0
 62
     0
 10
41.7064
 20
32.6871
 30
0.0
 11
40.9056
 21
32.6871
 31
0.0
  0
LINE
  8
0
 62
     0
 10
45.6681
 20
70.787
 30
0.0
 11
45.6681
 21
69.7879
 31
0.0
  0
LINE
  8
0
 62
     0
 10
45.6681
 20
69.7879
 30
0.0
 11
31.6687
 21
69.7879
 31
0.0
  0
LINE
  8
0
 62
     0
 10
31.6687
 20
69.7879
 30
0.0
 11
31.6687
 21
70.787
 31
0.0
  0
LINE
  8
0
 62
     0
 10
31.6687
 20
70.787
 30
0.0
 11
30.8694
 21
70.787
 31
0.0
  0
LINE
  8
0
 62
     0
 10
30.8694
 20
70.787
 30
0.0
 11
30.8694
 21
73.8875
 31
0.0
  0
LINE
  8
0
 62
     0
 10
30.8694
 20
73.8875
 30
0.0
 11
31.6687
 21
73.8875
 31
0.0
  0
LINE
  8
0
 62
     0
 10
31.6687
 20
73.8875
 30
0.0
 11
31.6687
 21
79.6879
 31
0.0
  0
LINE
  8
0
 62
     0
 10
31.6687
 20
79.6879
 30
0.0
 11
30.8694
 21
79.6879
 31
0.0
  0
LINE
  8
0
 62
     0
 10
30.8694
 20
79.6879
 30
0.0
 11
30.8694
 21
82.7871
 31
0.0
  0
LINE
  8
0
 62
     0
 10
30.8694
 20
82.7871
 30
0.0
 11
31.6687
 21
82.7871
 31
0.0
  0
LINE
  8
0
 62
     0
 10
31.6687
 20
82.7871
 30
0.0
 11
31.6687
 21
83.7875
 31
0.0
  0
LINE
  8
0
 62
     0
 10
31.6687
 20
83.7875
 30
0.0
 11
45.6681
 21
83.7875
 31
0.0
  0
LINE
  8
0
 62
     0
 10
45.6681
 20
83.7875
 30
0.0
 11
45.6681
 21
82.7871
 31
0.0
  0
LINE
  8
0
 62
     0
 10
45.6681
 20
82.7871
 30
0.0
 11
46.4689
 21
82.7871
 31
0.0
  0
LINE
  8
0
 62
     0
 10
46.4689
 20
82.7871
 30
0.0
 11
46.4689
 21
79.6879
 31
0.0
  0
LINE
  8
0
 62
     0
 10
46.4689
 20
79.6879
 30
0.0
 11
45.6681
 21
79.6879
 31
0.0
  0
LINE
  8
0
 62
     0
 10
45.6681
 20
79.6879
 30
0.0
 11
45.6681
 21
73.8875
 31
0.0
  0
LINE
  8
0
 62
     0
 10
45.6681
 20
73.8875
 30
0.0
 11
46.4689
 21
73.8875
 31
0.0
  0
LINE
  8
0
 62
     0
 10
46.4689
 20
73.8875
 30
0.0
 11
46.4689
 21
70.787
 31
0.0
  0
LINE
  8
0
 62
     0
 10
46.4689
 20
70.787
 30
0.0
 11
45.6681
 21
70.787
 31
0.0
  0
LINE
  8
0
 62
     0
 10
50.4321
 20
51.737
 30
0.0
 11
50.4321
 21
50.7379
 31
0.0
  0
LINE
  8
0
 62
     0
 10
50.4321
 20
50.7379
 30
0.0
 11
36.4314
 21
50.7379
 31
0.0
  0
LINE
  8
0
 62
     0
 10
36.4314
 20
50.7379
 30
0.0
 11
36.4314
 21
51.737
 31
0.0
  0
LINE
  8
0
 62
     0
 10
36.4314
 20
51.737
 30
0.0
 11
35.632
 21
51.737
 31
0.0
  0
LINE
  8
0
 62
     0
 10
35.632
 20
51.737
 30
0.0
 11
35.632
 21
54.8375
 31
0.0
  0
LINE
  8
0
 62
     0
 10
35.632
 20
54.8375
 30
0.0
 11
36.4314
 21
54.8375
 31
0.0
  0
LINE
  8
0
 62
     0
 10
36.4314
 20
54.8375
 30
0.0
 11
36.4314
 21
60.6379
 31
0.0
  0
LINE
  8
0
 62
     0
 10
36.4314
 20
60.6379
 30
0.0
 11
35.632
 21
60.6379
 31
0.0
  0
LINE
  8
0
 62
     0
 10
35.632
 20
60.6379
 30
0.0
 11
35.632
 21
63.7371
 31
0.0
  0
LINE
  8
0
 62
     0
 10
35.632
 20
63.7371
 30
0.0
 11
36.4314
 21
63.7371
 31
0.0
  0
LINE
  8
0
 62
     0
 10
36.4314
 20
63.7371
 30
0.0
 11
36.4314
 21
64.7375
 31
0.0
  0
LINE
  8
0
 62
     0
 10
36.4314
 20
64.7375
 30
0.0
 11
50.4321
 21
64.7375
 31
0.0
  0
LINE
  8
0
 62
     0
 10
50.4321
 20
64.7375
 30
0.0
 11
50.4321
 21
63.7371
 31
0.0
  0
LINE
  8
0
 62
     0
 10
50.4321
 20
63.7371
 30
0.0
 11
51.2314
 21
63.7371
 31
0.0
  0
LINE
  8
0
 62
     0
 10
51.2314
 20
63.7371
 30
0.0
 11
51.2314
 21
60.6379
 31
0.0
  0
LINE
  8
0
 62
     0
 10
51.2314
 20
60.6379
 30
0.0
 11
50.4321
 21
60.6379
 31
0.0
  0
LINE
  8
0
 62
     0
 10
50.4321
 20
60.6379
 30
0.0
 11
50.4321
 21
54.8375
 31
0.0
  0
LINE
  8
0
 62
     0
 10
50.4321
 20
54.8375
 30
0.0
 11
51.2314
 21
54.8375
 31
0.0
  0
LINE
  8
0
 62
     0
 10
51.2314
 20
54.8375
 30
0.0
 11
51.2314
 21
51.737
 31
0.0
  0
LINE
  8
0
 62
     0
 10
51.2314
 20
51.737
 30
0.0
 11
50.4321
 21
51.737
 31
0.0
  0
LINE
  8
0
 62
     0
 10
55.1931
 20
118.412
 30
0.0
 11
55.1931
 21
117.413
 31
0.0
  0
LINE
  8
0
 62
     0
 10
55.1931
 20
117.413
 30
0.0
 11
41.1939
 21
117.413
 31
0.0
  0
LINE
  8
0
 62
     0
 10
41.1939
 20
117.413
 30
0.0
 11
41.1939
 21
118.412
 31
0.0
  0
LINE
  8
0
 62
     0
 10
41.1939
 20
118.412
 30
0.0
 11
40.3945
 21
118.412
 31
0.0
  0
LINE
  8
0
 62
     0
 10
40.3945
 20
118.412
 30
0.0
 11
40.3945
 21
121.513
 31
0.0
  0
LINE
  8
0
 62
     0
 10
40.3945
 20
121.513
 30
0.0
 11
41.1939
 21
121.513
 31
0.0
  0
LINE
  8
0
 62
     0
 10
41.1939
 20
121.513
 30
0.0
 11
41.1939
 21
127.313
 31
0.0
  0
LINE
  8
0
 62
     0
 10
41.1939
 20
127.313
 30
0.0
 11
40.3945
 21
127.313
 31
0.0
  0
LINE
  8
0
 62
     0
 10
40.3945
 20
127.313
 30
0.0
 11
40.3945
 21
130.412
 31
0.0
  0
LINE
  8
0
 62
     0
 10
40.3945
 20
130.412
 30
0.0
 11
41.1939
 21
130.412
 31
0.0
  0
LINE
  8
0
 62
     0
 10
41.1939
 20
130.412
 30
0.0
 11
41.1939
 21
131.413
 31
0.0
  0
LINE
  8
0
 62
     0
 10
41.1939
 20
131.413
 30
0.0
 11
55.1931
 21
131.413
 31
0.0
  0
LINE
  8
0
 62
     0
 10
55.1931
 20
131.413
 30
0.0
 11
55.1931
 21
130.412
 31
0.0
  0
LINE
  8
0
 62
     0
 10
55.1931
 20
130.412
 30
0.0
 11
55.9939
 21
130.412
 31
0.0
  0
LINE
  8
0
 62
     0
 10
55.9939
 20
130.412
 30
0.0
 11
55.9939
 21
127.313
 31
0.0
  0
LINE
  8
0
 62
     0
 10
55.9939
 20
127.313
 30
0.0
 11
55.1931
 21
127.313
 31
0.0
  0
LINE
  8
0
 62
     0
 10
55.1931
 20
127.313
 30
0.0
 11
55.1931
 21
121.513
 31
0.0
  0
LINE
  8
0
 62
     0
 10
55.1931
 20
121.513
 30
0.0
 11
55.9939
 21
121.513
 31
0.0
  0
LINE
  8
0
 62
     0
 10
55.9939
 20
121.513
 30
0.0
 11
55.9939
 21
118.412
 31
0.0
  0
LINE
  8
0
 62
     0
 10
55.9939
 20
118.412
 30
0.0
 11
55.1931
 21
118.412
 31
0.0
  0
LINE
  8
0
 62
     0
 10
55.1931
 20
89.837
 30
0.0
 11
55.1931
 21
88.8379
 31
0.0
  0
LINE
  8
0
 62
     0
 10
55.1931
 20
88.8379
 30
0.0
 11
41.1939
 21
88.8379
 31
0.0
  0
LINE
  8
0
 62
     0
 10
41.1939
 20
88.8379
 30
0.0
 11
41.1939
 21
89.837
 31
0.0
  0
LINE
  8
0
 62
     0
 10
41.1939
 20
89.837
 30
0.0
 11
40.3945
 21
89.837
 31
0.0
  0
LINE
  8
0
 62
     0
 10
40.3945
 20
89.837
 30
0.0
 11
40.3945
 21
92.9375
 31
0.0
  0
LINE
  8
0
 62
     0
 10
40.3945
 20
92.9375
 30
0.0
 11
41.1939
 21
92.9375
 31
0.0
  0
LINE
  8
0
 62
     0
 10
41.1939
 20
92.9375
 30
0.0
 11
41.1939
 21
98.7379
 31
0.0
  0
LINE
  8
0
 62
     0
 10
41.1939
 20
98.7379
 30
0.0
 11
40.3945
 21
98.7379
 31
0.0
  0
LINE
  8
0
 62
     0
 10
40.3945
 20
98.7379
 30
0.0
 11
40.3945
 21
101.837
 31
0.0
  0
LINE
  8
0
 62
     0
 10
40.3945
 20
101.837
 30
0.0
 11
41.1939
 21
101.837
 31
0.0
  0
LINE
  8
0
 62
     0
 10
41.1939
 20
101.837
 30
0.0
 11
41.1939
 21
102.838
 31
0.0
  0
LINE
  8
0
 62
     0
 10
41.1939
 20
102.838
 30
0.0
 11
55.1931
 21
102.838
 31
0.0
  0
LINE
  8
0
 62
     0
 10
55.1931
 20
102.838
 30
0.0
 11
55.1931
 21
101.837
 31
0.0
  0
LINE
  8
0
 62
     0
 10
55.1931
 20
101.837
 30
0.0
 11
55.9939
 21
101.837
 31
0.0
  0
LINE
  8
0
 62
     0
 10
55.9939
 20
101.837
 30
0.0
 11
55.9939
 21
98.7379
 31
0.0
  0
LINE
  8
0
 62
     0
 10
55.9939
 20
98.7379
 30
0.0
 11
55.1931
 21
98.7379
 31
0.0
  0
LINE
  8
0
 62
     0
 10
55.1931
 20
98.7379
 30
0.0
 11
55.1931
 21
92.9375
 31
0.0
  0
LINE
  8
0
 62
     0
 10
55.1931
 20
92.9375
 30
0.0
 11
55.9939
 21
92.9375
 31
0.0
  0
LINE
  8
0
 62
     0
 10
55.9939
 20
92.9375
 30
0.0
 11
55.9939
 21
89.837
 31
0.0
  0
LINE
  8
0
 62
     0
 10
55.9939
 20
89.837
 30
0.0
 11
55.1931
 21
89.837
 31
0.0
  0
LINE
  8
0
 62
     0
 10
59.9556
 20
32.6871
 30
0.0
 11
59.9556
 21
31.688
 31
0.0
  0
LINE
  8
0
 62
     0
 10
59.9556
 20
31.688
 30
0.0
 11
45.9564
 21
31.688
 31
0.0
  0
LINE
  8
0
 62
     0
 10
45.9564
 20
31.688
 30
0.0
 11
45.9564
 21
32.6871
 31
0.0
  0
LINE
  8
0
 62
     0
 10
45.9564
 20
32.6871
 30
0.0
 11
45.1556
 21
32.6871
 31
0.0
  0
LINE
  8
0
 62
     0
 10
45.1556
 20
32.6871
 30
0.0
 11
45.1556
 21
35.7875
 31
0.0
  0
LINE
  8
0
 62
     0
 10
45.1556
 20
35.7875
 30
0.0
 11
45.9564
 21
35.7875
 31
0.0
  0
LINE
  8
0
 62
     0
 10
45.9564
 20
35.7875
 30
0.0
 11
45.9564
 21
41.5879
 31
0.0
  0
LINE
  8
0
 62
     0
 10
45.9564
 20
41.5879
 30
0.0
 11
45.1556
 21
41.5879
 31
0.0
  0
LINE
  8
0
 62
     0
 10
45.1556
 20
41.5879
 30
0.0
 11
45.1556
 21
44.6871
 31
0.0
  0
LINE
  8
0
 62
     0
 10
45.1556
 20
44.6871
 30
0.0
 11
45.9564
 21
44.6871
 31
0.0
  0
LINE
  8
0
 62
     0
 10
45.9564
 20
44.6871
 30
0.0
 11
45.9564
 21
45.6875
 31
0.0
  0
LINE
  8
0
 62
     0
 10
45.9564
 20
45.6875
 30
0.0
 11
59.9556
 21
45.6875
 31
0.0
  0
LINE
  8
0
 62
     0
 10
59.9556
 20
45.6875
 30
0.0
 11
59.9556
 21
44.6871
 31
0.0
  0
LINE
  8
0
 62
     0
 10
59.9556
 20
44.6871
 30
0.0
 11
60.7564
 21
44.6871
 31
0.0
  0
LINE
  8
0
 62
     0
 10
60.7564
 20
44.6871
 30
0.0
 11
60.7564
 21
41.5879
 31
0.0
  0
LINE
  8
0
 62
     0
 10
60.7564
 20
41.5879
 30
0.0
 11
59.9556
 21
41.5879
 31
0.0
  0
LINE
  8
0
 62
     0
 10
59.9556
 20
41.5879
 30
0.0
 11
59.9556
 21
35.7875
 31
0.0
  0
LINE
  8
0
 62
     0
 10
59.9556
 20
35.7875
 30
0.0
 11
60.7564
 21
35.7875
 31
0.0
  0
LINE
  8
0
 62
     0
 10
60.7564
 20
35.7875
 30
0.0
 11
60.7564
 21
32.6871
 31
0.0
  0
LINE
  8
0
 62
     0
 10
60.7564
 20
32.6871
 30
0.0
 11
59.9556
 21
32.6871
 31
0.0
  0
LINE
  8
0
 62
     0
 10
64.7181
 20
70.787
 30
0.0
 11
64.7181
 21
69.7879
 31
0.0
  0
LINE
  8
0
 62
     0
 10
64.7181
 20
69.7879
 30
0.0
 11
50.7189
 21
69.7879
 31
0.0
  0
LINE
  8
0
 62
     0
 10
50.7189
 20
69.7879
 30
0.0
 11
50.7189
 21
70.787
 31
0.0
  0
LINE
  8
0
 62
     0
 10
50.7189
 20
70.787
 30
0.0
 11
49.9195
 21
70.787
 31
0.0
  0
LINE
  8
0
 62
     0
 10
49.9195
 20
70.787
 30
0.0
 11
49.9195
 21
73.8875
 31
0.0
  0
LINE
  8
0
 62
     0
 10
49.9195
 20
73.8875
 30
0.0
 11
50.7189
 21
73.8875
 31
0.0
  0
LINE
  8
0
 62
     0
 10
50.7189
 20
73.8875
 30
0.0
 11
50.7189
 21
79.6879
 31
0.0
  0
LINE
  8
0
 62
     0
 10
50.7189
 20
79.6879
 30
0.0
 11
49.9195
 21
79.6879
 31
0.0
  0
LINE
  8
0
 62
     0
 10
49.9195
 20
79.6879
 30
0.0
 11
49.9195
 21
82.7871
 31
0.0
  0
LINE
  8
0
 62
     0
 10
49.9195
 20
82.7871
 30
0.0
 11
50.7189
 21
82.7871
 31
0.0
  0
LINE
  8
0
 62
     0
 10
50.7189
 20
82.7871
 30
0.0
 11
50.7189
 21
83.7875
 31
0.0
  0
LINE
  8
0
 62
     0
 10
50.7189
 20
83.7875
 30
0.0
 11
64.7181
 21
83.7875
 31
0.0
  0
LINE
  8
0
 62
     0
 10
64.7181
 20
83.7875
 30
0.0
 11
64.7181
 21
82.7871
 31
0.0
  0
LINE
  8
0
 62
     0
 10
64.7181
 20
82.7871
 30
0.0
 11
65.519
 21
82.7871
 31
0.0
  0
LINE
  8
0
 62
     0
 10
65.519
 20
82.7871
 30
0.0
 11
65.519
 21
79.6879
 31
0.0
  0
LINE
  8
0
 62
     0
 10
65.519
 20
79.6879
 30
0.0
 11
64.7181
 21
79.6879
 31
0.0
  0
LINE
  8
0
 62
     0
 10
64.7181
 20
79.6879
 30
0.0
 11
64.7181
 21
73.8875
 31
0.0
  0
LINE
  8
0
 62
     0
 10
64.7181
 20
73.8875
 30
0.0
 11
65.519
 21
73.8875
 31
0.0
  0
LINE
  8
0
 62
     0
 10
65.519
 20
73.8875
 30
0.0
 11
65.519
 21
70.787
 31
0.0
  0
LINE
  8
0
 62
     0
 10
65.519
 20
70.787
 30
0.0
 11
64.7181
 21
70.787
 31
0.0
  0
LINE
  8
0
 62
     0
 10
69.4821
 20
51.737
 30
0.0
 11
69.4821
 21
50.7379
 31
0.0
  0
LINE
  8
0
 62
     0
 10
69.4821
 20
50.7379
 30
0.0
 11
55.4814
 21
50.7379
 31
0.0
  0
LINE
  8
0
 62
     0
 10
55.4814
 20
50.7379
 30
0.0
 11
55.4814
 21
51.737
 31
0.0
  0
LINE
  8
0
 62
     0
 10
55.4814
 20
51.737
 30
0.0
 11
54.682
 21
51.737
 31
0.0
  0
LINE
  8
0
 62
     0
 10
54.682
 20
51.737
 30
0.0
 11
54.682
 21
54.8375
 31
0.0
  0
LINE
  8
0
 62
     0
 10
54.682
 20
54.8375
 30
0.0
 11
55.4814
 21
54.8375
 31
0.0
  0
LINE
  8
0
 62
     0
 10
55.4814
 20
54.8375
 30
0.0
 11
55.4814
 21
60.6379
 31
0.0
  0
LINE
  8
0
 62
     0
 10
55.4814
 20
60.6379
 30
0.0
 11
54.682
 21
60.6379
 31
0.0
  0
LINE
  8
0
 62
     0
 10
54.682
 20
60.6379
 30
0.0
 11
54.682
 21
63.7371
 31
0.0
  0
LINE
  8
0
 62
     0
 10
54.682
 20
63.7371
 30
0.0
 11
55.4814
 21
63.7371
 31
0.0
  0
LINE
  8
0
 62
     0
 10
55.4814
 20
63.7371
 30
0.0
 11
55.4814
 21
64.7375
 31
0.0
  0
LINE
  8
0
 62
     0
 10
55.4814
 20
64.7375
 30
0.0
 11
69.4821
 21
64.7375
 31
0.0
  0
LINE
  8
0
 62
     0
 10
69.4821
 20
64.7375
 30
0.0
 11
69.4821
 21
63.7371
 31
0.0
  0
LINE
  8
0
 62
     0
 10
69.4821
 20
63.7371
 30
0.0
 11
70.2815
 21
63.7371
 31
0.0
  0
LINE
  8
0
 62
     0
 10
70.2815
 20
63.7371
 30
0.0
 11
70.2815
 21
60.6379
 31
0.0
  0
LINE
  8
0
 62
     0
 10
70.2815
 20
60.6379
 30
0.0
 11
69.4821
 21
60.6379
 31
0.0
  0
LINE
  8
0
 62
     0
 10
69.4821
 20
60.6379
 30
0.0
 11
69.4821
 21
54.8375
 31
0.0
  0
LINE
  8
0
 62
     0
 10
69.4821
 20
54.8375
 30
0.0
 11
70.2815
 21
54.8375
 31
0.0
  0
LINE
  8
0
 62
     0
 10
70.2815
 20
54.8375
 30
0.0
 11
70.2815
 21
51.737
 31
0.0
  0
LINE
  8
0
 62
     0
 10
70.2815
 20
51.737
 30
0.0
 11
69.4821
 21
51.737
 31
0.0
  0
LINE
  8
0
 62
     0
 10
74.2431
 20
118.412
 30
0.0
 11
74.2431
 21
117.413
 31
0.0
  0
LINE
  8
0
 62
     0
 10
74.2431
 20
117.413
 30
0.0
 11
60.2439
 21
117.413
 31
0.0
  0
LINE
  8
0
 62
     0
 10
60.2439
 20
117.413
 30
0.0
 11
60.2439
 21
118.412
 31
0.0
  0
LINE
  8
0
 62
     0
 10
60.2439
 20
118.412
 30
0.0
 11
59.4445
 21
118.412
 31
0.0
  0
LINE
  8
0
 62
     0
 10
59.4445
 20
118.412
 30
0.0
 11
59.4445
 21
121.513
 31
0.0
  0
LINE
  8
0
 62
     0
 10
59.4445
 20
121.513
 30
0.0
 11
60.2439
 21
121.513
 31
0.0
  0
LINE
  8
0
 62
     0
 10
60.2439
 20
121.513
 30
0.0
 11
60.2439
 21
127.313
 31
0.0
  0
LINE
  8
0
 62
     0
 10
60.2439
 20
127.313
 30
0.0
 11
59.4445
 21
127.313
 31
0.0
  0
LINE
  8
0
 62
     0
 10
59.4445
 20
127.313
 30
0.0
 11
59.4445
 21
130.412
 31
0.0
  0
LINE
  8
0
 62
     0
 10
59.4445
 20
130.412
 30
0.0
 11
60.2439
 21
130.412
 31
0.0
  0
LINE
  8
0
 62
     0
 10
60.2439
 20
130.412
 30
0.0
 11
60.2439
 21
131.413
 31
0.0
  0
LINE
  8
0
 62
     0
 10
60.2439
 20
131.413
 30
0.0
 11
74.2431
 21
131.413
 31
0.0
  0
LINE
  8
0
 62
     0
 10
74.2431
 20
131.413
 30
0.0
 11
74.2431
 21
130.412
 31
0.0
  0
LINE
  8
0
 62
     0
 10
74.2431
 20
130.412
 30
0.0
 11
75.044
 21
130.412
 31
0.0
  0
LINE
  8
0
 62
     0
 10
75.044
 20
130.412
 30
0.0
 11
75.044
 21
127.313
 31
0.0
  0
LINE
  8
0
 62
     0
 10
75.044
 20
127.313
 30
0.0
 11
74.2431
 21
127.313
 31
0.0
  0
LINE
  8
0
 62
     0
 10
74.2431
 20
127.313
 30
0.0
 11
74.2431
 21
121.513
 31
0.0
  0
LINE
  8
0
 62
     0
 10
74.2431
 20
121.513
 30
0.0
 11
75.044
 21
121.513
 31
0.0
  0
LINE
  8
0
 62
     0
 10
75.044
 20
121.513
 30
0.0
 11
75.044
 21
118.412
 31
0.0
  0
LINE
  8
0
 62
     0
 10
75.044
 20
118.412
 30
0.0
 11
74.2431
 21
118.412
 31
0.0
  0
LINE
  8
0
 62
     0
 10
74.2431
 20
89.837
 30
0.0
 11
74.2431
 21
88.8379
 31
0.0
  0
LINE
  8
0
 62
     0
 10
74.2431
 20
88.8379
 30
0.0
 11
60.2439
 21
88.8379
 31
0.0
  0
LINE
  8
0
 62
     0
 10
60.2439
 20
88.8379
 30
0.0
 11
60.2439
 21
89.837
 31
0.0
  0
LINE
  8
0
 62
     0
 10
60.2439
 20
89.837
 30
0.0
 11
59.4445
 21
89.837
 31
0.0
  0
LINE
  8
0
 62
     0
 10
59.4445
 20
89.837
 30
0.0
 11
59.4445
 21
92.9375
 31
0.0
  0
LINE
  8
0
 62
     0
 10
59.4445
 20
92.9375
 30
0.0
 11
60.2439
 21
92.9375
 31
0.0
  0
LINE
  8
0
 62
     0
 10
60.2439
 20
92.9375
 30
0.0
 11
60.2439
 21
98.7379
 31
0.0
  0
LINE
  8
0
 62
     0
 10
60.2439
 20
98.7379
 30
0.0
 11
59.4445
 21
98.7379
 31
0.0
  0
LINE
  8
0
 62
     0
 10
59.4445
 20
98.7379
 30
0.0
 11
59.4445
 21
101.837
 31
0.0
  0
LINE
  8
0
 62
     0
 10
59.4445
 20
101.837
 30
0.0
 11
60.2439
 21
101.837
 31
0.0
  0
LINE
  8
0
 62
     0
 10
60.2439
 20
101.837
 30
0.0
 11
60.2439
 21
102.838
 31
0.0
  0
LINE
  8
0
 62
     0
 10
60.2439
 20
102.838
 30
0.0
 11
74.2431
 21
102.838
 31
0.0
  0
LINE
  8
0
 62
     0
 10
74.2431
 20
102.838
 30
0.0
 11
74.2431
 21
101.837
 31
0.0
  0
LINE
  8
0
 62
     0
 10
74.2431
 20
101.837
 30
0.0
 11
75.044
 21
101.837
 31
0.0
  0
LINE
  8
0
 62
     0
 10
75.044
 20
101.837
 30
0.0
 11
75.044
 21
98.7379
 31
0.0
  0
LINE
  8
0
 62
     0
 10
75.044
 20
98.7379
 30
0.0
 11
74.2431
 21
98.7379
 31
0.0
  0
LINE
  8
0
 62
     0
 10
74.2431
 20
98.7379
 30
0.0
 11
74.2431
 21
92.9375
 31
0.0
  0
LINE
  8
0
 62
     0
 10
74.2431
 20
92.9375
 30
0.0
 11
75.044
 21
92.9375
 31
0.0
  0
LINE
  8
0
 62
     0
 10
75.044
 20
92.9375
 30
0.0
 11
75.044
 21
89.837
 31
0.0
  0
LINE
  8
0
 62
     0
 10
75.044
 20
89.837
 30
0.0
 11
74.2431
 21
89.837
 31
0.0
  0
LINE
  8
0
 62
     0
 10
79.0056
 20
32.6871
 30
0.0
 11
79.0056
 21
31.688
 31
0.0
  0
LINE
  8
0
 62
     0
 10
79.0056
 20
31.688
 30
0.0
 11
65.0064
 21
31.688
 31
0.0
  0
LINE
  8
0
 62
     0
 10
65.0064
 20
31.688
 30
0.0
 11
65.0064
 21
32.6871
 31
0.0
  0
LINE
  8
0
 62
     0
 10
65.0064
 20
32.6871
 30
0.0
 11
64.2056
 21
32.6871
 31
0.0
  0
LINE
  8
0
 62
     0
 10
64.2056
 20
32.6871
 30
0.0
 11
64.2056
 21
35.7875
 31
0.0
  0
LINE
  8
0
 62
     0
 10
64.2056
 20
35.7875
 30
0.0
 11
65.0064
 21
35.7875
 31
0.0
  0
LINE
  8
0
 62
     0
 10
65.0064
 20
35.7875
 30
0.0
 11
65.0064
 21
41.5879
 31
0.0
  0
LINE
  8
0
 62
     0
 10
65.0064
 20
41.5879
 30
0.0
 11
64.2056
 21
41.5879
 31
0.0
  0
LINE
  8
0
 62
     0
 10
64.2056
 20
41.5879
 30
0.0
 11
64.2056
 21
44.6871
 31
0.0
  0
LINE
  8
0
 62
     0
 10
64.2056
 20
44.6871
 30
0.0
 11
65.0064
 21
44.6871
 31
0.0
  0
LINE
  8
0
 62
     0
 10
65.0064
 20
44.6871
 30
0.0
 11
65.0064
 21
45.6875
 31
0.0
  0
LINE
  8
0
 62
     0
 10
65.0064
 20
45.6875
 30
0.0
 11
79.0056
 21
45.6875
 31
0.0
  0
LINE
  8
0
 62
     0
 10
79.0056
 20
45.6875
 30
0.0
 11
79.0056
 21
44.6871
 31
0.0
  0
LINE
  8
0
 62
     0
 10
79.0056
 20
44.6871
 30
0.0
 11
79.8065
 21
44.6871
 31
0.0
  0
LINE
  8
0
 62
     0
 10
79.8065
 20
44.6871
 30
0.0
 11
79.8065
 21
41.5879
 31
0.0
  0
LINE
  8
0
 62
     0
 10
79.8065
 20
41.5879
 30
0.0
 11
79.0056
 21
41.5879
 31
0.0
  0
LINE
  8
0
 62
     0
 10
79.0056
 20
41.5879
 30
0.0
 11
79.0056
 21
35.7875
 31
0.0
  0
LINE
  8
0
 62
     0
 10
79.0056
 20
35.7875
 30
0.0
 11
79.8065
 21
35.7875
 31
0.0
  0
LINE
  8
0
 62
     0
 10
79.8065
 20
35.7875
 30
0.0
 11
79.8065
 21
32.6871
 31
0.0
  0
LINE
  8
0
 62
     0
 10
79.8065
 20
32.6871
 30
0.0
 11
79.0056
 21
32.6871
 31
0.0
  0
LINE
  8
0
 62
     0
 10
83.7681
 20
70.787
 30
0.0
 11
83.7681
 21
69.7879
 31
0.0
  0
LINE
  8
0
 62
     0
 10
83.7681
 20
69.7879
 30
0.0
 11
69.7689
 21
69.7879
 31
0.0
  0
LINE
  8
0
 62
     0
 10
69.7689
 20
69.7879
 30
0.0
 11
69.7689
 21
70.787
 31
0.0
  0
LINE
  8
0
 62
     0
 10
69.7689
 20
70.787
 30
0.0
 11
68.9695
 21
70.787
 31
0.0
  0
LINE
  8
0
 62
     0
 10
68.9695
 20
70.787
 30
0.0
 11
68.9695
 21
73.8875
 31
0.0
  0
LINE
  8
0
 62
     0
 10
68.9695
 20
73.8875
 30
0.0
 11
69.7689
 21
73.8875
 31
0.0
  0
LINE
  8
0
 62
     0
 10
69.7689
 20
73.8875
 30
0.0
 11
69.7689
 21
79.6879
 31
0.0
  0
LINE
  8
0
 62
     0
 10
69.7689
 20
79.6879
 30
0.0
 11
68.9695
 21
79.6879
 31
0.0
  0
LINE
  8
0
 62
     0
 10
68.9695
 20
79.6879
 30
0.0
 11
68.9695
 21
82.7871
 31
0.0
  0
LINE
  8
0
 62
     0
 10
68.9695
 20
82.7871
 30
0.0
 11
69.7689
 21
82.7871
 31
0.0
  0
LINE
  8
0
 62
     0
 10
69.7689
 20
82.7871
 30
0.0
 11
69.7689
 21
83.7875
 31
0.0
  0
LINE
  8
0
 62
     0
 10
69.7689
 20
83.7875
 30
0.0
 11
83.7681
 21
83.7875
 31
0.0
  0
LINE
  8
0
 62
     0
 10
83.7681
 20
83.7875
 30
0.0
 11
83.7681
 21
82.7871
 31
0.0
  0
LINE
  8
0
 62
     0
 10
83.7681
 20
82.7871
 30
0.0
 11
84.569
 21
82.7871
 31
0.0
  0
LINE
  8
0
 62
     0
 10
84.569
 20
82.7871
 30
0.0
 11
84.569
 21
79.6879
 31
0.0
  0
LINE
  8
0
 62
     0
 10
84.569
 20
79.6879
 30
0.0
 11
83.7681
 21
79.6879
 31
0.0
  0
LINE
  8
0
 62
     0
 10
83.7681
 20
79.6879
 30
0.0
 11
83.7681
 21
73.8875
 31
0.0
  0
LINE
  8
0
 62
     0
 10
83.7681
 20
73.8875
 30
0.0
 11
84.569
 21
73.8875
 31
0.0
  0
LINE
  8
0
 62
     0
 10
84.569
 20
73.8875
 30
0.0
 11
84.569
 21
70.787
 31
0.0
  0
LINE
  8
0
 62
     0
 10
84.569
 20
70.787
 30
0.0
 11
83.7681
 21
70.787
 31
0.0
  0
LINE
  8
0
 62
     0
 10
88.5321
 20
51.737
 30
0.0
 11
88.5321
 21
50.7379
 31
0.0
  0
LINE
  8
0
 62
     0
 10
88.5321
 20
50.7379
 30
0.0
 11
74.5314
 21
50.7379
 31
0.0
  0
LINE
  8
0
 62
     0
 10
74.5314
 20
50.7379
 30
0.0
 11
74.5314
 21
51.737
 31
0.0
  0
LINE
  8
0
 62
     0
 10
74.5314
 20
51.737
 30
0.0
 11
73.732
 21
51.737
 31
0.0
  0
LINE
  8
0
 62
     0
 10
73.732
 20
51.737
 30
0.0
 11
73.732
 21
54.8375
 31
0.0
  0
LINE
  8
0
 62
     0
 10
73.732
 20
54.8375
 30
0.0
 11
74.5314
 21
54.8375
 31
0.0
  0
LINE
  8
0
 62
     0
 10
74.5314
 20
54.8375
 30
0.0
 11
74.5314
 21
60.6379
 31
0.0
  0
LINE
  8
0
 62
     0
 10
74.5314
 20
60.6379
 30
0.0
 11
73.732
 21
60.6379
 31
0.0
  0
LINE
  8
0
 62
     0
 10
73.732
 20
60.6379
 30
0.0
 11
73.732
 21
63.7371
 31
0.0
  0
LINE
  8
0
 62
     0
 10
73.732
 20
63.7371
 30
0.0
 11
74.5314
 21
63.7371
 31
0.0
  0
LINE
  8
0
 62
     0
 10
74.5314
 20
63.7371
 30
0.0
 11
74.5314
 21
64.7375
 31
0.0
  0
LINE
  8
0
 62
     0
 10
74.5314
 20
64.7375
 30
0.0
 11
88.5321
 21
64.7375
 31
0.0
  0
LINE
  8
0
 62
     0
 10
88.5321
 20
64.7375
 30
0.0
 11
88.5321
 21
63.7371
 31
0.0
  0
LINE
  8
0
 62
     0
 10
88.5321
 20
63.7371
 30
0.0
 11
89.3315
 21
63.7371
 31
0.0
  0
LINE
  8
0
 62
     0
 10
89.3315
 20
63.7371
 30
0.0
 11
89.3315
 21
60.6379
 31
0.0
  0
LINE
  8
0
 62
     0
 10
89.3315
 20
60.6379
 30
0.0
 11
88.5321
 21
60.6379
 31
0.0
  0
LINE
  8
0
 62
     0
 10
88.5321
 20
60.6379
 30
0.0
 11
88.5321
 21
54.8375
 31
0.0
  0
LINE
  8
0
 62
     0
 10
88.5321
 20
54.8375
 30
0.0
 11
89.3315
 21
54.8375
 31
0.0
  0
LINE
  8
0
 62
     0
 10
89.3315
 20
54.8375
 30
0.0
 11
89.3315
 21
51.737
 31
0.0
  0
LINE
  8
0
 62
     0
 10
89.3315
 20
51.737
 30
0.0
 11
88.5321
 21
51.737
 31
0.0
  0
LINE
  8
0
 62
     0
 10
93.2931
 20
118.412
 30
0.0
 11
93.2931
 21
117.413
 31
0.0
  0
LINE
  8
0
 62
     0
 10
93.2931
 20
117.413
 30
0.0
 11
79.2939
 21
117.413
 31
0.0
  0
LINE
  8
0
 62
     0
 10
79.2939
 20
117.413
 30
0.0
 11
79.2939
 21
118.412
 31
0.0
  0
LINE
  8
0
 62
     0
 10
79.2939
 20
118.412
 30
0.0
 11
78.4945
 21
118.412
 31
0.0
  0
LINE
  8
0
 62
     0
 10
78.4945
 20
118.412
 30
0.0
 11
78.4945
 21
121.513
 31
0.0
  0
LINE
  8
0
 62
     0
 10
78.4945
 20
121.513
 30
0.0
 11
79.2939
 21
121.513
 31
0.0
  0
LINE
  8
0
 62
     0
 10
79.2939
 20
121.513
 30
0.0
 11
79.2939
 21
127.313
 31
0.0
  0
LINE
  8
0
 62
     0
 10
79.2939
 20
127.313
 30
0.0
 11
78.4945
 21
127.313
 31
0.0
  0
LINE
  8
0
 62
     0
 10
78.4945
 20
127.313
 30
0.0
 11
78.4945
 21
130.412
 31
0.0
  0
LINE
  8
0
 62
     0
 10
78.4945
 20
130.412
 30
0.0
 11
79.2939
 21
130.412
 31
0.0
  0
LINE
  8
0
 62
     0
 10
79.2939
 20
130.412
 30
0.0
 11
79.2939
 21
131.413
 31
0.0
  0
LINE
  8
0
 62
     0
 10
79.2939
 20
131.413
 30
0.0
 11
93.2931
 21
131.413
 31
0.0
  0
LINE
  8
0
 62
     0
 10
93.2931
 20
131.413
 30
0.0
 11
93.2931
 21
130.412
 31
0.0
  0
LINE
  8
0
 62
     0
 10
93.2931
 20
130.412
 30
0.0
 11
94.0939
 21
130.412
 31
0.0
  0
LINE
  8
0
 62
     0
 10
94.0939
 20
130.412
 30
0.0
 11
94.0939
 21
127.313
 31
0.0
  0
LINE
  8
0
 62
     0
 10
94.0939
 20
127.313
 30
0.0
 11
93.2931
 21
127.313
 31
0.0
  0
LINE
  8
0
 62
     0
 10
93.2931
 20
127.313
 30
0.0
 11
93.2931
 21
121.513
 31
0.0
  0
LINE
  8
0
 62
     0
 10
93.2931
 20
121.513
 30
0.0
 11
94.0939
 21
121.513
 31
0.0
  0
LINE
  8
0
 62
     0
 10
94.0939
 20
121.513
 30
0.0
 11
94.0939
 21
118.412
 31
0.0
  0
LINE
  8
0
 62
     0
 10
94.0939
 20
118.412
 30
0.0
 11
93.2931
 21
118.412
 31
0.0
  0
LINE
  8
0
 62
     0
 10
93.2931
 20
89.837
 30
0.0
 11
93.2931
 21
88.8379
 31
0.0
  0
LINE
  8
0
 62
     0
 10
93.2931
 20
88.8379
 30
0.0
 11
79.2939
 21
88.8379
 31
0.0
  0
LINE
  8
0
 62
     0
 10
79.2939
 20
88.8379
 30
0.0
 11
79.2939
 21
89.837
 31
0.0
  0
LINE
  8
0
 62
     0
 10
79.2939
 20
89.837
 30
0.0
 11
78.4945
 21
89.837
 31
0.0
  0
LINE
  8
0
 62
     0
 10
78.4945
 20
89.837
 30
0.0
 11
78.4945
 21
92.9375
 31
0.0
  0
LINE
  8
0
 62
     0
 10
78.4945
 20
92.9375
 30
0.0
 11
79.2939
 21
92.9375
 31
0.0
  0
LINE
  8
0
 62
     0
 10
79.2939
 20
92.9375
 30
0.0
 11
79.2939
 21
98.7379
 31
0.0
  0
LINE
  8
0
 62
     0
 10
79.2939
 20
98.7379
 30
0.0
 11
78.4945
 21
98.7379
 31
0.0
  0
LINE
  8
0
 62
     0
 10
78.4945
 20
98.7379
 30
0.0
 11
78.4945
 21
101.837
 31
0.0
  0
LINE
  8
0
 62
     0
 10
78.4945
 20
101.837
 30
0.0
 11
79.2939
 21
101.837
 31
0.0
  0
LINE
  8
0
 62
     0
 10
79.2939
 20
101.837
 30
0.0
 11
79.2939
 21
102.838
 31
0.0
  0
LINE
  8
0
 62
     0
 10
79.2939
 20
102.838
 30
0.0
 11
93.2931
 21
102.838
 31
0.0
  0
LINE
  8
0
 62
     0
 10
93.2931
 20
102.838
 30
0.0
 11
93.2931
 21
101.837
 31
0.0
  0
LINE
  8
0
 62
     0
 10
93.2931
 20
101.837
 30
0.0
 11
94.0939
 21
101.837
 31
0.0
  0
LINE
  8
0
 62
     0
 10
94.0939
 20
101.837
 30
0.0
 11
94.0939
 21
98.7379
 31
0.0
  0
LINE
  8
0
 62
     0
 10
94.0939
 20
98.7379
 30
0.0
 11
93.2931
 21
98.7379
 31
0.0
  0
LINE
  8
0
 62
     0
 10
93.2931
 20
98.7379
 30
0.0
 11
93.2931
 21
92.9375
 31
0.0
  0
LINE
  8
0
 62
     0
 10
93.2931
 20
92.9375
 30
0.0
 11
94.0939
 21
92.9375
 31
0.0
  0
LINE
  8
0
 62
     0
 10
94.0939
 20
92.9375
 30
0.0
 11
94.0939
 21
89.837
 31
0.0
  0
LINE
  8
0
 62
     0
 10
94.0939
 20
89.837
 30
0.0
 11
93.2931
 21
89.837
 31
0.0
  0
LINE
  8
0
 62
     0
 10
95.6744
 20
13.6371
 30
0.0
 11
95.6744
 21
12.638
 31
0.0
  0
LINE
  8
0
 62
     0
 10
95.6744
 20
12.638
 30
0.0
 11
81.6751
 21
12.638
 31
0.0
  0
LINE
  8
0
 62
     0
 10
81.6751
 20
12.638
 30
0.0
 11
81.6751
 21
13.6371
 31
0.0
  0
LINE
  8
0
 62
     0
 10
81.6751
 20
13.6371
 30
0.0
 11
80.8743
 21
13.6371
 31
0.0
  0
LINE
  8
0
 62
     0
 10
80.8743
 20
13.6371
 30
0.0
 11
80.8743
 21
16.7376
 31
0.0
  0
LINE
  8
0
 62
     0
 10
80.8743
 20
16.7376
 30
0.0
 11
81.6751
 21
16.7376
 31
0.0
  0
LINE
  8
0
 62
     0
 10
81.6751
 20
16.7376
 30
0.0
 11
81.6751
 21
22.5378
 31
0.0
  0
LINE
  8
0
 62
     0
 10
81.6751
 20
22.5378
 30
0.0
 11
80.8743
 21
22.5378
 31
0.0
  0
LINE
  8
0
 62
     0
 10
80.8743
 20
22.5378
 30
0.0
 11
80.8743
 21
25.637
 31
0.0
  0
LINE
  8
0
 62
     0
 10
80.8743
 20
25.637
 30
0.0
 11
81.6751
 21
25.637
 31
0.0
  0
LINE
  8
0
 62
     0
 10
81.6751
 20
25.637
 30
0.0
 11
81.6751
 21
26.6375
 31
0.0
  0
LINE
  8
0
 62
     0
 10
81.6751
 20
26.6375
 30
0.0
 11
95.6744
 21
26.6375
 31
0.0
  0
LINE
  8
0
 62
     0
 10
95.6744
 20
26.6375
 30
0.0
 11
95.6744
 21
25.637
 31
0.0
  0
LINE
  8
0
 62
     0
 10
95.6744
 20
25.637
 30
0.0
 11
96.4752
 21
25.637
 31
0.0
  0
LINE
  8
0
 62
     0
 10
96.4752
 20
25.637
 30
0.0
 11
96.4752
 21
22.5378
 31
0.0
  0
LINE
  8
0
 62
     0
 10
96.4752
 20
22.5378
 30
0.0
 11
95.6744
 21
22.5378
 31
0.0
  0
LINE
  8
0
 62
     0
 10
95.6744
 20
22.5378
 30
0.0
 11
95.6744
 21
16.7376
 31
0.0
  0
LINE
  8
0
 62
     0
 10
95.6744
 20
16.7376
 30
0.0
 11
96.4752
 21
16.7376
 31
0.0
  0
LINE
  8
0
 62
     0
 10
96.4752
 20
16.7376
 30
0.0
 11
96.4752
 21
13.6371
 31
0.0
  0
LINE
  8
0
 62
     0
 10
96.4752
 20
13.6371
 30
0.0
 11
95.6744
 21
13.6371
 31
0.0
  0
LINE
  8
0
 62
     0
 10
98.0556
 20
32.6871
 30
0.0
 11
98.0556
 21
31.688
 31
0.0
  0
LINE
  8
0
 62
     0
 10
98.0556
 20
31.688
 30
0.0
 11
84.0564
 21
31.688
 31
0.0
  0
LINE
  8
0
 62
     0
 10
84.0564
 20
31.688
 30
0.0
 11
84.0564
 21
32.6871
 31
0.0
  0
LINE
  8
0
 62
     0
 10
84.0564
 20
32.6871
 30
0.0
 11
83.2556
 21
32.6871
 31
0.0
  0
LINE
  8
0
 62
     0
 10
83.2556
 20
32.6871
 30
0.0
 11
83.2556
 21
35.7875
 31
0.0
  0
LINE
  8
0
 62
     0
 10
83.2556
 20
35.7875
 30
0.0
 11
84.0564
 21
35.7875
 31
0.0
  0
LINE
  8
0
 62
     0
 10
84.0564
 20
35.7875
 30
0.0
 11
84.0564
 21
41.5879
 31
0.0
  0
LINE
  8
0
 62
     0
 10
84.0564
 20
41.5879
 30
0.0
 11
83.2556
 21
41.5879
 31
0.0
  0
LINE
  8
0
 62
     0
 10
83.2556
 20
41.5879
 30
0.0
 11
83.2556
 21
44.6871
 31
0.0
  0
LINE
  8
0
 62
     0
 10
83.2556
 20
44.6871
 30
0.0
 11
84.0564
 21
44.6871
 31
0.0
  0
LINE
  8
0
 62
     0
 10
84.0564
 20
44.6871
 30
0.0
 11
84.0564
 21
45.6875
 31
0.0
  0
LINE
  8
0
 62
     0
 10
84.0564
 20
45.6875
 30
0.0
 11
98.0556
 21
45.6875
 31
0.0
  0
LINE
  8
0
 62
     0
 10
98.0556
 20
45.6875
 30
0.0
 11
98.0556
 21
44.6871
 31
0.0
  0
LINE
  8
0
 62
     0
 10
98.0556
 20
44.6871
 30
0.0
 11
98.8564
 21
44.6871
 31
0.0
  0
LINE
  8
0
 62
     0
 10
98.8564
 20
44.6871
 30
0.0
 11
98.8564
 21
41.5879
 31
0.0
  0
LINE
  8
0
 62
     0
 10
98.8564
 20
41.5879
 30
0.0
 11
98.0556
 21
41.5879
 31
0.0
  0
LINE
  8
0
 62
     0
 10
98.0556
 20
41.5879
 30
0.0
 11
98.0556
 21
35.7875
 31
0.0
  0
LINE
  8
0
 62
     0
 10
98.0556
 20
35.7875
 30
0.0
 11
98.8564
 21
35.7875
 31
0.0
  0
LINE
  8
0
 62
     0
 10
98.8564
 20
35.7875
 30
0.0
 11
98.8564
 21
32.6871
 31
0.0
  0
LINE
  8
0
 62
     0
 10
98.8564
 20
32.6871
 30
0.0
 11
98.0556
 21
32.6871
 31
0.0
  0
LINE
  8
0
 62
     0
 10
102.818
 20
70.787
 30
0.0
 11
102.818
 21
69.7879
 31
0.0
  0
LINE
  8
0
 62
     0
 10
102.818
 20
69.7879
 30
0.0
 11
88.8189
 21
69.7879
 31
0.0
  0
LINE
  8
0
 62
     0
 10
88.8189
 20
69.7879
 30
0.0
 11
88.8189
 21
70.787
 31
0.0
  0
LINE
  8
0
 62
     0
 10
88.8189
 20
70.787
 30
0.0
 11
88.0195
 21
70.787
 31
0.0
  0
LINE
  8
0
 62
     0
 10
88.0195
 20
70.787
 30
0.0
 11
88.0195
 21
73.8875
 31
0.0
  0
LINE
  8
0
 62
     0
 10
88.0195
 20
73.8875
 30
0.0
 11
88.8189
 21
73.8875
 31
0.0
  0
LINE
  8
0
 62
     0
 10
88.8189
 20
73.8875
 30
0.0
 11
88.8189
 21
79.6879
 31
0.0
  0
LINE
  8
0
 62
     0
 10
88.8189
 20
79.6879
 30
0.0
 11
88.0195
 21
79.6879
 31
0.0
  0
LINE
  8
0
 62
     0
 10
88.0195
 20
79.6879
 30
0.0
 11
88.0195
 21
82.7871
 31
0.0
  0
LINE
  8
0
 62
     0
 10
88.0195
 20
82.7871
 30
0.0
 11
88.8189
 21
82.7871
 31
0.0
  0
LINE
  8
0
 62
     0
 10
88.8189
 20
82.7871
 30
0.0
 11
88.8189
 21
83.7875
 31
0.0
  0
LINE
  8
0
 62
     0
 10
88.8189
 20
83.7875
 30
0.0
 11
102.818
 21
83.7875
 31
0.0
  0
LINE
  8
0
 62
     0
 10
102.818
 20
83.7875
 30
0.0
 11
102.818
 21
82.7871
 31
0.0
  0
LINE
  8
0
 62
     0
 10
102.818
 20
82.7871
 30
0.0
 11
103.619
 21
82.7871
 31
0.0
  0
LINE
  8
0
 62
     0
 10
103.619
 20
82.7871
 30
0.0
 11
103.619
 21
79.6879
 31
0.0
  0
LINE
  8
0
 62
     0
 10
103.619
 20
79.6879
 30
0.0
 11
102.818
 21
79.6879
 31
0.0
  0
LINE
  8
0
 62
     0
 10
102.818
 20
79.6879
 30
0.0
 11
102.818
 21
73.8875
 31
0.0
  0
LINE
  8
0
 62
     0
 10
102.818
 20
73.8875
 30
0.0
 11
103.619
 21
73.8875
 31
0.0
  0
LINE
  8
0
 62
     0
 10
103.619
 20
73.8875
 30
0.0
 11
103.619
 21
70.787
 31
0.0
  0
LINE
  8
0
 62
     0
 10
103.619
 20
70.787
 30
0.0
 11
102.818
 21
70.787
 31
0.0
  0
LINE
  8
0
 62
     0
 10
107.581
 20
51.737
 30
0.0
 11
107.581
 21
50.7379
 31
0.0
  0
LINE
  8
0
 62
     0
 10
107.581
 20
50.7379
 30
0.0
 11
93.5814
 21
50.7379
 31
0.0
  0
LINE
  8
0
 62
     0
 10
93.5814
 20
50.7379
 30
0.0
 11
93.5814
 21
51.737
 31
0.0
  0
LINE
  8
0
 62
     0
 10
93.5814
 20
51.737
 30
0.0
 11
92.782
 21
51.737
 31
0.0
  0
LINE
  8
0
 62
     0
 10
92.782
 20
51.737
 30
0.0
 11
92.782
 21
54.8375
 31
0.0
  0
LINE
  8
0
 62
     0
 10
92.782
 20
54.8375
 30
0.0
 11
93.5814
 21
54.8375
 31
0.0
  0
LINE
  8
0
 62
     0
 10
93.5814
 20
54.8375
 30
0.0
 11
93.5814
 21
60.6379
 31
0.0
  0
LINE
  8
0
 62
     0
 10
93.5814
 20
60.6379
 30
0.0
 11
92.782
 21
60.6379
 31
0.0
  0
LINE
  8
0
 62
     0
 10
92.782
 20
60.6379
 30
0.0
 11
92.782
 21
63.7371
 31
0.0
  0
LINE
  8
0
 62
     0
 10
92.782
 20
63.7371
 30
0.0
 11
93.5814
 21
63.7371
 31
0.0
  0
LINE
  8
0
 62
     0
 10
93.5814
 20
63.7371
 30
0.0
 11
93.5814
 21
64.7375
 31
0.0
  0
LINE
  8
0
 62
     0
 10
93.5814
 20
64.7375
 30
0.0
 11
107.581
 21
64.7375
 31
0.0
  0
LINE
  8
0
 62
     0
 10
107.581
 20
64.7375
 30
0.0
 11
107.581
 21
63.7371
 31
0.0
  0
LINE
  8
0
 62
     0
 10
107.581
 20
63.7371
 30
0.0
 11
108.381
 21
63.7371
 31
0.0
  0
LINE
  8
0
 62
     0
 10
108.381
 20
63.7371
 30
0.0
 11
108.381
 21
60.6379
 31
0.0
  0
LINE
  8
0
 62
     0
 10
108.381
 20
60.6379
 30
0.0
 11
107.581
 21
60.6379
 31
0.0
  0
LINE
  8
0
 62
     0
 10
107.581
 20
60.6379
 30
0.0
 11
107.581
 21
54.8375
 31
0.0
  0
LINE
  8
0
 62
     0
 10
107.581
 20
54.8375
 30
0.0
 11
108.381
 21
54.8375
 31
0.0
  0
LINE
  8
0
 62
     0
 10
108.381
 20
54.8375
 30
0.0
 11
108.381
 21
51.737
 31
0.0
  0
LINE
  8
0
 62
     0
 10
108.381
 20
51.737
 30
0.0
 11
107.581
 21
51.737
 31
0.0
  0
LINE
  8
0
 62
     0
 10
112.343
 20
118.412
 30
0.0
 11
112.343
 21
117.413
 31
0.0
  0
LINE
  8
0
 62
     0
 10
112.343
 20
117.413
 30
0.0
 11
98.3439
 21
117.413
 31
0.0
  0
LINE
  8
0
 62
     0
 10
98.3439
 20
117.413
 30
0.0
 11
98.3439
 21
118.412
 31
0.0
  0
LINE
  8
0
 62
     0
 10
98.3439
 20
118.412
 30
0.0
 11
97.5445
 21
118.412
 31
0.0
  0
LINE
  8
0
 62
     0
 10
97.5445
 20
118.412
 30
0.0
 11
97.5445
 21
121.513
 31
0.0
  0
LINE
  8
0
 62
     0
 10
97.5445
 20
121.513
 30
0.0
 11
98.3439
 21
121.513
 31
0.0
  0
LINE
  8
0
 62
     0
 10
98.3439
 20
121.513
 30
0.0
 11
98.3439
 21
127.313
 31
0.0
  0
LINE
  8
0
 62
     0
 10
98.3439
 20
127.313
 30
0.0
 11
97.5445
 21
127.313
 31
0.0
  0
LINE
  8
0
 62
     0
 10
97.5445
 20
127.313
 30
0.0
 11
97.5445
 21
130.412
 31
0.0
  0
LINE
  8
0
 62
     0
 10
97.5445
 20
130.412
 30
0.0
 11
98.3439
 21
130.412
 31
0.0
  0
LINE
  8
0
 62
     0
 10
98.3439
 20
130.412
 30
0.0
 11
98.3439
 21
131.413
 31
0.0
  0
LINE
  8
0
 62
     0
 10
98.3439
 20
131.413
 30
0.0
 11
112.343
 21
131.413
 31
0.0
  0
LINE
  8
0
 62
     0
 10
112.343
 20
131.413
 30
0.0
 11
112.343
 21
130.412
 31
0.0
  0
LINE
  8
0
 62
     0
 10
112.343
 20
130.412
 30
0.0
 11
113.144
 21
130.412
 31
0.0
  0
LINE
  8
0
 62
     0
 10
113.144
 20
130.412
 30
0.0
 11
113.144
 21
127.313
 31
0.0
  0
LINE
  8
0
 62
     0
 10
113.144
 20
127.313
 30
0.0
 11
112.343
 21
127.313
 31
0.0
  0
LINE
  8
0
 62
     0
 10
112.343
 20
127.313
 30
0.0
 11
112.343
 21
121.513
 31
0.0
  0
LINE
  8
0
 62
     0
 10
112.343
 20
121.513
 30
0.0
 11
113.144
 21
121.513
 31
0.0
  0
LINE
  8
0
 62
     0
 10
113.144
 20
121.513
 30
0.0
 11
113.144
 21
118.412
 31
0.0
  0
LINE
  8
0
 62
     0
 10
113.144
 20
118.412
 30
0.0
 11
112.343
 21
118.412
 31
0.0
  0
LINE
  8
0
 62
     0
 10
112.343
 20
89.837
 30
0.0
 11
112.343
 21
88.8379
 31
0.0
  0
LINE
  8
0
 62
     0
 10
112.343
 20
88.8379
 30
0.0
 11
98.3439
 21
88.8379
 31
0.0
  0
LINE
  8
0
 62
     0
 10
98.3439
 20
88.8379
 30
0.0
 11
98.3439
 21
89.837
 31
0.0
  0
LINE
  8
0
 62
     0
 10
98.3439
 20
89.837
 30
0.0
 11
97.5445
 21
89.837
 31
0.0
  0
LINE
  8
0
 62
     0
 10
97.5445
 20
89.837
 30
0.0
 11
97.5445
 21
92.9375
 31
0.0
  0
LINE
  8
0
 62
     0
 10
97.5445
 20
92.9375
 30
0.0
 11
98.3439
 21
92.9375
 31
0.0
  0
LINE
  8
0
 62
     0
 10
98.3439
 20
92.9375
 30
0.0
 11
98.3439
 21
98.7379
 31
0.0
  0
LINE
  8
0
 62
     0
 10
98.3439
 20
98.7379
 30
0.0
 11
97.5445
 21
98.7379
 31
0.0
  0
LINE
  8
0
 62
     0
 10
97.5445
 20
98.7379
 30
0.0
 11
97.5445
 21
101.837
 31
0.0
  0
LINE
  8
0
 62
     0
 10
97.5445
 20
101.837
 30
0.0
 11
98.3439
 21
101.837
 31
0.0
  0
LINE
  8
0
 62
     0
 10
98.3439
 20
101.837
 30
0.0
 11
98.3439
 21
102.838
 31
0.0
  0
LINE
  8
0
 62
     0
 10
98.3439
 20
102.838
 30
0.0
 11
112.343
 21
102.838
 31
0.0
  0
LINE
  8
0
 62
     0
 10
112.343
 20
102.838
 30
0.0
 11
112.343
 21
101.837
 31
0.0
  0
LINE
  8
0
 62
     0
 10
112.343
 20
101.837
 30
0.0
 11
113.144
 21
101.837
 31
0.0
  0
LINE
  8
0
 62
     0
 10
113.144
 20
101.837
 30
0.0
 11
113.144
 21
98.7379
 31
0.0
  0
LINE
  8
0
 62
     0
 10
113.144
 20
98.7379
 30
0.0
 11
112.343
 21
98.7379
 31
0.0
  0
LINE
  8
0
 62
     0
 10
112.343
 20
98.7379
 30
0.0
 11
112.343
 21
92.9375
 31
0.0
  0
LINE
  8
0
 62
     0
 10
112.343
 20
92.9375
 30
0.0
 11
113.144
 21
92.9375
 31
0.0
  0
LINE
  8
0
 62
     0
 10
113.144
 20
92.9375
 30
0.0
 11
113.144
 21
89.837
 31
0.0
  0
LINE
  8
0
 62
     0
 10
113.144
 20
89.837
 30
0.0
 11
112.343
 21
89.837
 31
0.0
  0
LINE
  8
0
 62
     0
 10
117.106
 20
32.6871
 30
0.0
 11
117.106
 21
31.688
 31
0.0
  0
LINE
  8
0
 62
     0
 10
117.106
 20
31.688
 30
0.0
 11
103.106
 21
31.688
 31
0.0
  0
LINE
  8
0
 62
     0
 10
103.106
 20
31.688
 30
0.0
 11
103.106
 21
32.6871
 31
0.0
  0
LINE
  8
0
 62
     0
 10
103.106
 20
32.6871
 30
0.0
 11
102.306
 21
32.6871
 31
0.0
  0
LINE
  8
0
 62
     0
 10
102.306
 20
32.6871
 30
0.0
 11
102.306
 21
35.7875
 31
0.0
  0
LINE
  8
0
 62
     0
 10
102.306
 20
35.7875
 30
0.0
 11
103.106
 21
35.7875
 31
0.0
  0
LINE
  8
0
 62
     0
 10
103.106
 20
35.7875
 30
0.0
 11
103.106
 21
41.5879
 31
0.0
  0
LINE
  8
0
 62
     0
 10
103.106
 20
41.5879
 30
0.0
 11
102.306
 21
41.5879
 31
0.0
  0
LINE
  8
0
 62
     0
 10
102.306
 20
41.5879
 30
0.0
 11
102.306
 21
44.6871
 31
0.0
  0
LINE
  8
0
 62
     0
 10
102.306
 20
44.6871
 30
0.0
 11
103.106
 21
44.6871
 31
0.0
  0
LINE
  8
0
 62
     0
 10
103.106
 20
44.6871
 30
0.0
 11
103.106
 21
45.6875
 31
0.0
  0
LINE
  8
0
 62
     0
 10
103.106
 20
45.6875
 30
0.0
 11
117.106
 21
45.6875
 31
0.0
  0
LINE
  8
0
 62
     0
 10
117.106
 20
45.6875
 30
0.0
 11
117.106
 21
44.6871
 31
0.0
  0
LINE
  8
0
 62
     0
 10
117.106
 20
44.6871
 30
0.0
 11
117.906
 21
44.6871
 31
0.0
  0
LINE
  8
0
 62
     0
 10
117.906
 20
44.6871
 30
0.0
 11
117.906
 21
41.5879
 31
0.0
  0
LINE
  8
0
 62
     0
 10
117.906
 20
41.5879
 30
0.0
 11
117.106
 21
41.5879
 31
0.0
  0
LINE
  8
0
 62
     0
 10
117.106
 20
41.5879
 30
0.0
 11
117.106
 21
35.7875
 31
0.0
  0
LINE
  8
0
 62
     0
 10
117.106
 20
35.7875
 30
0.0
 11
117.906
 21
35.7875
 31
0.0
  0
LINE
  8
0
 62
     0
 10
117.906
 20
35.7875
 30
0.0
 11
117.906
 21
32.6871
 31
0.0
  0
LINE
  8
0
 62
     0
 10
117.906
 20
32.6871
 30
0.0
 11
117.106
 21
32.6871
 31
0.0
  0
LINE
  8
0
 62
     0
 10
119.488
 20
13.6371
 30
0.0
 11
119.488
 21
12.638
 31
0.0
  0
LINE
  8
0
 62
     0
 10
119.488
 20
12.638
 30
0.0
 11
105.488
 21
12.638
 31
0.0
  0
LINE
  8
0
 62
     0
 10
105.488
 20
12.638
 30
0.0
 11
105.488
 21
13.6371
 31
0.0
  0
LINE
  8
0
 62
     0
 10
105.488
 20
13.6371
 30
0.0
 11
104.688
 21
13.6371
 31
0.0
  0
LINE
  8
0
 62
     0
 10
104.688
 20
13.6371
 30
0.0
 11
104.688
 21
16.7376
 31
0.0
  0
LINE
  8
0
 62
     0
 10
104.688
 20
16.7376
 30
0.0
 11
105.488
 21
16.7376
 31
0.0
  0
LINE
  8
0
 62
     0
 10
105.488
 20
16.7376
 30
0.0
 11
105.488
 21
22.5378
 31
0.0
  0
LINE
  8
0
 62
     0
 10
105.488
 20
22.5378
 30
0.0
 11
104.688
 21
22.5378
 31
0.0
  0
LINE
  8
0
 62
     0
 10
104.688
 20
22.5378
 30
0.0
 11
104.688
 21
25.637
 31
0.0
  0
LINE
  8
0
 62
     0
 10
104.688
 20
25.637
 30
0.0
 11
105.488
 21
25.637
 31
0.0
  0
LINE
  8
0
 62
     0
 10
105.488
 20
25.637
 30
0.0
 11
105.488
 21
26.6375
 31
0.0
  0
LINE
  8
0
 62
     0
 10
105.488
 20
26.6375
 30
0.0
 11
119.488
 21
26.6375
 31
0.0
  0
LINE
  8
0
 62
     0
 10
119.488
 20
26.6375
 30
0.0
 11
119.488
 21
25.637
 31
0.0
  0
LINE
  8
0
 62
     0
 10
119.488
 20
25.637
 30
0.0
 11
120.288
 21
25.637
 31
0.0
  0
LINE
  8
0
 62
     0
 10
120.288
 20
25.637
 30
0.0
 11
120.288
 21
22.5378
 31
0.0
  0
LINE
  8
0
 62
     0
 10
120.288
 20
22.5378
 30
0.0
 11
119.488
 21
22.5378
 31
0.0
  0
LINE
  8
0
 62
     0
 10
119.488
 20
22.5378
 30
0.0
 11
119.488
 21
16.7376
 31
0.0
  0
LINE
  8
0
 62
     0
 10
119.488
 20
16.7376
 30
0.0
 11
120.288
 21
16.7376
 31
0.0
  0
LINE
  8
0
 62
     0
 10
120.288
 20
16.7376
 30
0.0
 11
120.288
 21
13.6371
 31
0.0
  0
LINE
  8
0
 62
     0
 10
120.288
 20
13.6371
 30
0.0
 11
119.488
 21
13.6371
 31
0.0
  0
LINE
  8
0
 62
     0
 10
121.868
 20
70.787
 30
0.0
 11
121.868
 21
69.7879
 31
0.0
  0
LINE
  8
0
 62
     0
 10
121.868
 20
69.7879
 30
0.0
 11
107.869
 21
69.7879
 31
0.0
  0
LINE
  8
0
 62
     0
 10
107.869
 20
69.7879
 30
0.0
 11
107.869
 21
70.787
 31
0.0
  0
LINE
  8
0
 62
     0
 10
107.869
 20
70.787
 30
0.0
 11
107.069
 21
70.787
 31
0.0
  0
LINE
  8
0
 62
     0
 10
107.069
 20
70.787
 30
0.0
 11
107.069
 21
73.8875
 31
0.0
  0
LINE
  8
0
 62
     0
 10
107.069
 20
73.8875
 30
0.0
 11
107.869
 21
73.8875
 31
0.0
  0
LINE
  8
0
 62
     0
 10
107.869
 20
73.8875
 30
0.0
 11
107.869
 21
79.6879
 31
0.0
  0
LINE
  8
0
 62
     0
 10
107.869
 20
79.6879
 30
0.0
 11
107.069
 21
79.6879
 31
0.0
  0
LINE
  8
0
 62
     0
 10
107.069
 20
79.6879
 30
0.0
 11
107.069
 21
82.7871
 31
0.0
  0
LINE
  8
0
 62
     0
 10
107.069
 20
82.7871
 30
0.0
 11
107.869
 21
82.7871
 31
0.0
  0
LINE
  8
0
 62
     0
 10
107.869
 20
82.7871
 30
0.0
 11
107.869
 21
83.7875
 31
0.0
  0
LINE
  8
0
 62
     0
 10
107.869
 20
83.7875
 30
0.0
 11
121.868
 21
83.7875
 31
0.0
  0
LINE
  8
0
 62
     0
 10
121.868
 20
83.7875
 30
0.0
 11
121.868
 21
82.7871
 31
0.0
  0
LINE
  8
0
 62
     0
 10
121.868
 20
82.7871
 30
0.0
 11
122.669
 21
82.7871
 31
0.0
  0
LINE
  8
0
 62
     0
 10
122.669
 20
82.7871
 30
0.0
 11
122.669
 21
79.6879
 31
0.0
  0
LINE
  8
0
 62
     0
 10
122.669
 20
79.6879
 30
0.0
 11
121.868
 21
79.6879
 31
0.0
  0
LINE
  8
0
 62
     0
 10
121.868
 20
79.6879
 30
0.0
 11
121.868
 21
73.8875
 31
0.0
  0
LINE
  8
0
 62
     0
 10
121.868
 20
73.8875
 30
0.0
 11
122.669
 21
73.8875
 31
0.0
  0
LINE
  8
0
 62
     0
 10
122.669
 20
73.8875
 30
0.0
 11
122.669
 21
70.787
 31
0.0
  0
LINE
  8
0
 62
     0
 10
122.669
 20
70.787
 30
0.0
 11
121.868
 21
70.787
 31
0.0
  0
LINE
  8
0
 62
     0
 10
126.631
 20
51.737
 30
0.0
 11
126.631
 21
50.7379
 31
0.0
  0
LINE
  8
0
 62
     0
 10
126.631
 20
50.7379
 30
0.0
 11
112.631
 21
50.7379
 31
0.0
  0
LINE
  8
0
 62
     0
 10
112.631
 20
50.7379
 30
0.0
 11
112.631
 21
51.737
 31
0.0
  0
LINE
  8
0
 62
     0
 10
112.631
 20
51.737
 30
0.0
 11
111.831
 21
51.737
 31
0.0
  0
LINE
  8
0
 62
     0
 10
111.831
 20
51.737
 30
0.0
 11
111.831
 21
54.8375
 31
0.0
  0
LINE
  8
0
 62
     0
 10
111.831
 20
54.8375
 30
0.0
 11
112.631
 21
54.8375
 31
0.0
  0
LINE
  8
0
 62
     0
 10
112.631
 20
54.8375
 30
0.0
 11
112.631
 21
60.6379
 31
0.0
  0
LINE
  8
0
 62
     0
 10
112.631
 20
60.6379
 30
0.0
 11
111.831
 21
60.6379
 31
0.0
  0
LINE
  8
0
 62
     0
 10
111.831
 20
60.6379
 30
0.0
 11
111.831
 21
63.7371
 31
0.0
  0
LINE
  8
0
 62
     0
 10
111.831
 20
63.7371
 30
0.0
 11
112.631
 21
63.7371
 31
0.0
  0
LINE
  8
0
 62
     0
 10
112.631
 20
63.7371
 30
0.0
 11
112.631
 21
64.7375
 31
0.0
  0
LINE
  8
0
 62
     0
 10
112.631
 20
64.7375
 30
0.0
 11
126.631
 21
64.7375
 31
0.0
  0
LINE
  8
0
 62
     0
 10
126.631
 20
64.7375
 30
0.0
 11
126.631
 21
63.7371
 31
0.0
  0
LINE
  8
0
 62
     0
 10
126.631
 20
63.7371
 30
0.0
 11
127.431
 21
63.7371
 31
0.0
  0
LINE
  8
0
 62
     0
 10
127.431
 20
63.7371
 30
0.0
 11
127.431
 21
60.6379
 31
0.0
  0
LINE
  8
0
 62
     0
 10
127.431
 20
60.6379
 30
0.0
 11
126.631
 21
60.6379
 31
0.0
  0
LINE
  8
0
 62
     0
 10
126.631
 20
60.6379
 30
0.0
 11
126.631
 21
54.8375
 31
0.0
  0
LINE
  8
0
 62
     0
 10
126.631
 20
54.8375
 30
0.0
 11
127.431
 21
54.8375
 31
0.0
  0
LINE
  8
0
 62
     0
 10
127.431
 20
54.8375
 30
0.0
 11
127.431
 21
51.737
 31
0.0
  0
LINE
  8
0
 62
     0
 10
127.431
 20
51.737
 30
0.0
 11
126.631
 21
51.737
 31
0.0
  0
LINE
  8
0
 62
     0
 10
131.393
 20
118.412
 30
0.0
 11
131.393
 21
117.413
 31
0.0
  0
LINE
  8
0
 62
     0
 10
131.393
 20
117.413
 30
0.0
 11
117.394
 21
117.413
 31
0.0
  0
LINE
  8
0
 62
     0
 10
117.394
 20
117.413
 30
0.0
 11
117.394
 21
118.412
 31
0.0
  0
LINE
  8
0
 62
     0
 10
117.394
 20
118.412
 30
0.0
 11
116.594
 21
118.412
 31
0.0
  0
LINE
  8
0
 62
     0
 10
116.594
 20
118.412
 30
0.0
 11
116.594
 21
121.513
 31
0.0
  0
LINE
  8
0
 62
     0
 10
116.594
 20
121.513
 30
0.0
 11
117.394
 21
121.513
 31
0.0
  0
LINE
  8
0
 62
     0
 10
117.394
 20
121.513
 30
0.0
 11
117.394
 21
127.313
 31
0.0
  0
LINE
  8
0
 62
     0
 10
117.394
 20
127.313
 30
0.0
 11
116.594
 21
127.313
 31
0.0
  0
LINE
  8
0
 62
     0
 10
116.594
 20
127.313
 30
0.0
 11
116.594
 21
130.412
 31
0.0
  0
LINE
  8
0
 62
     0
 10
116.594
 20
130.412
 30
0.0
 11
117.394
 21
130.412
 31
0.0
  0
LINE
  8
0
 62
     0
 10
117.394
 20
130.412
 30
0.0
 11
117.394
 21
131.413
 31
0.0
  0
LINE
  8
0
 62
     0
 10
117.394
 20
131.413
 30
0.0
 11
131.393
 21
131.413
 31
0.0
  0
LINE
  8
0
 62
     0
 10
131.393
 20
131.413
 30
0.0
 11
131.393
 21
130.412
 31
0.0
  0
LINE
  8
0
 62
     0
 10
131.393
 20
130.412
 30
0.0
 11
132.194
 21
130.412
 31
0.0
  0
LINE
  8
0
 62
     0
 10
132.194
 20
130.412
 30
0.0
 11
132.194
 21
127.313
 31
0.0
  0
LINE
  8
0
 62
     0
 10
132.194
 20
127.313
 30
0.0
 11
131.393
 21
127.313
 31
0.0
  0
LINE
  8
0
 62
     0
 10
131.393
 20
127.313
 30
0.0
 11
131.393
 21
121.513
 31
0.0
  0
LINE
  8
0
 62
     0
 10
131.393
 20
121.513
 30
0.0
 11
132.194
 21
121.513
 31
0.0
  0
LINE
  8
0
 62
     0
 10
132.194
 20
121.513
 30
0.0
 11
132.194
 21
118.412
 31
0.0
  0
LINE
  8
0
 62
     0
 10
132.194
 20
118.412
 30
0.0
 11
131.393
 21
118.412
 31
0.0
  0
LINE
  8
0
 62
     0
 10
131.393
 20
89.837
 30
0.0
 11
131.393
 21
88.8379
 31
0.0
  0
LINE
  8
0
 62
     0
 10
131.393
 20
88.8379
 30
0.0
 11
117.394
 21
88.8379
 31
0.0
  0
LINE
  8
0
 62
     0
 10
117.394
 20
88.8379
 30
0.0
 11
117.394
 21
89.837
 31
0.0
  0
LINE
  8
0
 62
     0
 10
117.394
 20
89.837
 30
0.0
 11
116.594
 21
89.837
 31
0.0
  0
LINE
  8
0
 62
     0
 10
116.594
 20
89.837
 30
0.0
 11
116.594
 21
92.9375
 31
0.0
  0
LINE
  8
0
 62
     0
 10
116.594
 20
92.9375
 30
0.0
 11
117.394
 21
92.9375
 31
0.0
  0
LINE
  8
0
 62
     0
 10
117.394
 20
92.9375
 30
0.0
 11
117.394
 21
98.7379
 31
0.0
  0
LINE
  8
0
 62
     0
 10
117.394
 20
98.7379
 30
0.0
 11
116.594
 21
98.7379
 31
0.0
  0
LINE
  8
0
 62
     0
 10
116.594
 20
98.7379
 30
0.0
 11
116.594
 21
101.837
 31
0.0
  0
LINE
  8
0
 62
     0
 10
116.594
 20
101.837
 30
0.0
 11
117.394
 21
101.837
 31
0.0
  0
LINE
  8
0
 62
     0
 10
117.394
 20
101.837
 30
0.0
 11
117.394
 21
102.838
 31
0.0
  0
LINE
  8
0
 62
     0
 10
117.394
 20
102.838
 30
0.0
 11
131.393
 21
102.838
 31
0.0
  0
LINE
  8
0
 62
     0
 10
131.393
 20
102.838
 30
0.0
 11
131.393
 21
101.837
 31
0.0
  0
LINE
  8
0
 62
     0
 10
131.393
 20
101.837
 30
0.0
 11
132.194
 21
101.837
 31
0.0
  0
LINE
  8
0
 62
     0
 10
132.194
 20
101.837
 30
0.0
 11
132.194
 21
98.7379
 31
0.0
  0
LINE
  8
0
 62
     0
 10
132.194
 20
98.7379
 30
0.0
 11
131.393
 21
98.7379
 31
0.0
  0
LINE
  8
0
 62
     0
 10
131.393
 20
98.7379
 30
0.0
 11
131.393
 21
92.9375
 31
0.0
  0
LINE
  8
0
 62
     0
 10
131.393
 20
92.9375
 30
0.0
 11
132.194
 21
92.9375
 31
0.0
  0
LINE
  8
0
 62
     0
 10
132.194
 20
92.9375
 30
0.0
 11
132.194
 21
89.837
 31
0.0
  0
LINE
  8
0
 62
     0
 10
132.194
 20
89.837
 30
0.0
 11
131.393
 21
89.837
 31
0.0
  0
LINE
  8
0
 62
     0
 10
140.918
 20
70.787
 30
0.0
 11
140.918
 21
69.7879
 31
0.0
  0
LINE
  8
0
 62
     0
 10
140.918
 20
69.7879
 30
0.0
 11
126.919
 21
69.7879
 31
0.0
  0
LINE
  8
0
 62
     0
 10
126.919
 20
69.7879
 30
0.0
 11
126.919
 21
70.787
 31
0.0
  0
LINE
  8
0
 62
     0
 10
126.919
 20
70.787
 30
0.0
 11
126.119
 21
70.787
 31
0.0
  0
LINE
  8
0
 62
     0
 10
126.119
 20
70.787
 30
0.0
 11
126.119
 21
73.8875
 31
0.0
  0
LINE
  8
0
 62
     0
 10
126.119
 20
73.8875
 30
0.0
 11
126.919
 21
73.8875
 31
0.0
  0
LINE
  8
0
 62
     0
 10
126.919
 20
73.8875
 30
0.0
 11
126.919
 21
79.6879
 31
0.0
  0
LINE
  8
0
 62
     0
 10
126.919
 20
79.6879
 30
0.0
 11
126.119
 21
79.6879
 31
0.0
  0
LINE
  8
0
 62
     0
 10
126.119
 20
79.6879
 30
0.0
 11
126.119
 21
82.7871
 31
0.0
  0
LINE
  8
0
 62
     0
 10
126.119
 20
82.7871
 30
0.0
 11
126.919
 21
82.7871
 31
0.0
  0
LINE
  8
0
 62
     0
 10
126.919
 20
82.7871
 30
0.0
 11
126.919
 21
83.7875
 31
0.0
  0
LINE
  8
0
 62
     0
 10
126.919
 20
83.7875
 30
0.0
 11
140.918
 21
83.7875
 31
0.0
  0
LINE
  8
0
 62
     0
 10
140.918
 20
83.7875
 30
0.0
 11
140.918
 21
82.7871
 31
0.0
  0
LINE
  8
0
 62
     0
 10
140.918
 20
82.7871
 30
0.0
 11
141.719
 21
82.7871
 31
0.0
  0
LINE
  8
0
 62
     0
 10
141.719
 20
82.7871
 30
0.0
 11
141.719
 21
79.6879
 31
0.0
  0
LINE
  8
0
 62
     0
 10
141.719
 20
79.6879
 30
0.0
 11
140.918
 21
79.6879
 31
0.0
  0
LINE
  8
0
 62
     0
 10
140.918
 20
79.6879
 30
0.0
 11
140.918
 21
73.8875
 31
0.0
  0
LINE
  8
0
 62
     0
 10
140.918
 20
73.8875
 30
0.0
 11
141.719
 21
73.8875
 31
0.0
  0
LINE
  8
0
 62
     0
 10
141.719
 20
73.8875
 30
0.0
 11
141.719
 21
70.787
 31
0.0
  0
LINE
  8
0
 62
     0
 10
141.719
 20
70.787
 30
0.0
 11
140.918
 21
70.787
 31
0.0
  0
LINE
  8
0
 62
     0
 10
143.299
 20
13.6371
 30
0.0
 11
143.299
 21
12.638
 31
0.0
  0
LINE
  8
0
 62
     0
 10
143.299
 20
12.638
 30
0.0
 11
129.3
 21
12.638
 31
0.0
  0
LINE
  8
0
 62
     0
 10
129.3
 20
12.638
 30
0.0
 11
129.3
 21
13.6371
 31
0.0
  0
LINE
  8
0
 62
     0
 10
129.3
 20
13.6371
 30
0.0
 11
128.499
 21
13.6371
 31
0.0
  0
LINE
  8
0
 62
     0
 10
128.499
 20
13.6371
 30
0.0
 11
128.499
 21
16.7376
 31
0.0
  0
LINE
  8
0
 62
     0
 10
128.499
 20
16.7376
 30
0.0
 11
129.3
 21
16.7376
 31
0.0
  0
LINE
  8
0
 62
     0
 10
129.3
 20
16.7376
 30
0.0
 11
129.3
 21
22.5378
 31
0.0
  0
LINE
  8
0
 62
     0
 10
129.3
 20
22.5378
 30
0.0
 11
128.499
 21
22.5378
 31
0.0
  0
LINE
  8
0
 62
     0
 10
128.499
 20
22.5378
 30
0.0
 11
128.499
 21
25.637
 31
0.0
  0
LINE
  8
0
 62
     0
 10
128.499
 20
25.637
 30
0.0
 11
129.3
 21
25.637
 31
0.0
  0
LINE
  8
0
 62
     0
 10
129.3
 20
25.637
 30
0.0
 11
129.3
 21
26.6375
 31
0.0
  0
LINE
  8
0
 62
     0
 10
129.3
 20
26.6375
 30
0.0
 11
143.299
 21
26.6375
 31
0.0
  0
LINE
  8
0
 62
     0
 10
143.299
 20
26.6375
 30
0.0
 11
143.299
 21
25.637
 31
0.0
  0
LINE
  8
0
 62
     0
 10
143.299
 20
25.637
 30
0.0
 11
144.1
 21
25.637
 31
0.0
  0
LINE
  8
0
 62
     0
 10
144.1
 20
25.637
 30
0.0
 11
144.1
 21
22.5378
 31
0.0
  0
LINE
  8
0
 62
     0
 10
144.1
 20
22.5378
 30
0.0
 11
143.299
 21
22.5378
 31
0.0
  0
LINE
  8
0
 62
     0
 10
143.299
 20
22.5378
 30
0.0
 11
143.299
 21
16.7376
 31
0.0
  0
LINE
  8
0
 62
     0
 10
143.299
 20
16.7376
 30
0.0
 11
144.1
 21
16.7376
 31
0.0
  0
LINE
  8
0
 62
     0
 10
144.1
 20
16.7376
 30
0.0
 11
144.1
 21
13.6371
 31
0.0
  0
LINE
  8
0
 62
     0
 10
144.1
 20
13.6371
 30
0.0
 11
143.299
 21
13.6371
 31
0.0
  0
LINE
  8
0
 62
     0
 10
150.443
 20
118.412
 30
0.0
 11
150.443
 21
117.413
 31
0.0
  0
LINE
  8
0
 62
     0
 10
150.443
 20
117.413
 30
0.0
 11
136.444
 21
117.413
 31
0.0
  0
LINE
  8
0
 62
     0
 10
136.444
 20
117.413
 30
0.0
 11
136.444
 21
118.412
 31
0.0
  0
LINE
  8
0
 62
     0
 10
136.444
 20
118.412
 30
0.0
 11
135.644
 21
118.412
 31
0.0
  0
LINE
  8
0
 62
     0
 10
135.644
 20
118.412
 30
0.0
 11
135.644
 21
121.513
 31
0.0
  0
LINE
  8
0
 62
     0
 10
135.644
 20
121.513
 30
0.0
 11
136.444
 21
121.513
 31
0.0
  0
LINE
  8
0
 62
     0
 10
136.444
 20
121.513
 30
0.0
 11
136.444
 21
127.313
 31
0.0
  0
LINE
  8
0
 62
     0
 10
136.444
 20
127.313
 30
0.0
 11
135.644
 21
127.313
 31
0.0
  0
LINE
  8
0
 62
     0
 10
135.644
 20
127.313
 30
0.0
 11
135.644
 21
130.412
 31
0.0
  0
LINE
  8
0
 62
     0
 10
135.644
 20
130.412
 30
0.0
 11
136.444
 21
130.412
 31
0.0
  0
LINE
  8
0
 62
     0
 10
136.444
 20
130.412
 30
0.0
 11
136.444
 21
131.413
 31
0.0
  0
LINE
  8
0
 62
     0
 10
136.444
 20
131.413
 30
0.0
 11
150.443
 21
131.413
 31
0.0
  0
LINE
  8
0
 62
     0
 10
150.443
 20
131.413
 30
0.0
 11
150.443
 21
130.412
 31
0.0
  0
LINE
  8
0
 62
     0
 10
150.443
 20
130.412
 30
0.0
 11
151.244
 21
130.412
 31
0.0
  0
LINE
  8
0
 62
     0
 10
151.244
 20
130.412
 30
0.0
 11
151.244
 21
127.313
 31
0.0
  0
LINE
  8
0
 62
     0
 10
151.244
 20
127.313
 30
0.0
 11
150.443
 21
127.313
 31
0.0
  0
LINE
  8
0
 62
     0
 10
150.443
 20
127.313
 30
0.0
 11
150.443
 21
121.513
 31
0.0
  0
LINE
  8
0
 62
     0
 10
150.443
 20
121.513
 30
0.0
 11
151.244
 21
121.513
 31
0.0
  0
LINE
  8
0
 62
     0
 10
151.244
 20
121.513
 30
0.0
 11
151.244
 21
118.412
 31
0.0
  0
LINE
  8
0
 62
     0
 10
151.244
 20
118.412
 30
0.0
 11
150.443
 21
118.412
 31
0.0
  0
LINE
  8
0
 62
     0
 10
161.05
 20
38.1868
 30
0.0
 11
161.05
 21
31.9168
 31
0.0
  0
LINE
  8
0
 62
     0
 10
161.05
 20
31.9168
 30
0.0
 11
159.425
 21
31.9168
 31
0.0
  0
LINE
  8
0
 62
     0
 10
159.425
 20
31.9168
 30
0.0
 11
159.425
 21
30.937
 31
0.0
  0
LINE
  8
0
 62
     0
 10
159.425
 20
30.937
 30
0.0
 11
156.125
 21
30.937
 31
0.0
  0
LINE
  8
0
 62
     0
 10
156.125
 20
30.937
 30
0.0
 11
156.125
 21
31.9168
 31
0.0
  0
LINE
  8
0
 62
     0
 10
156.125
 20
31.9168
 30
0.0
 11
154.4
 21
31.9168
 31
0.0
  0
LINE
  8
0
 62
     0
 10
154.4
 20
31.9168
 30
0.0
 11
154.4
 21
32.7174
 31
0.0
  0
LINE
  8
0
 62
     0
 10
154.4
 20
32.7174
 30
0.0
 11
153.625
 21
32.7174
 31
0.0
  0
LINE
  8
0
 62
     0
 10
153.625
 20
32.7174
 30
0.0
 11
153.625
 21
32.6871
 31
0.0
  0
LINE
  8
0
 62
     0
 10
153.625
 20
32.6871
 30
0.0
 11
152.824
 21
32.6871
 31
0.0
  0
LINE
  8
0
 62
     0
 10
152.824
 20
32.6871
 30
0.0
 11
152.824
 21
31.688
 31
0.0
  0
LINE
  8
0
 62
     0
 10
152.824
 20
31.688
 30
0.0
 11
138.825
 21
31.688
 31
0.0
  0
LINE
  8
0
 62
     0
 10
138.825
 20
31.688
 30
0.0
 11
138.825
 21
32.6871
 31
0.0
  0
LINE
  8
0
 62
     0
 10
138.825
 20
32.6871
 30
0.0
 11
138.024
 21
32.6871
 31
0.0
  0
LINE
  8
0
 62
     0
 10
138.024
 20
32.6871
 30
0.0
 11
138.024
 21
32.7174
 31
0.0
  0
LINE
  8
0
 62
     0
 10
138.024
 20
32.7174
 30
0.0
 11
137.25
 21
32.7174
 31
0.0
  0
LINE
  8
0
 62
     0
 10
137.25
 20
32.7174
 30
0.0
 11
137.25
 21
31.9168
 31
0.0
  0
LINE
  8
0
 62
     0
 10
137.25
 20
31.9168
 30
0.0
 11
135.525
 21
31.9168
 31
0.0
  0
LINE
  8
0
 62
     0
 10
135.525
 20
31.9168
 30
0.0
 11
135.525
 21
30.937
 31
0.0
  0
LINE
  8
0
 62
     0
 10
135.525
 20
30.937
 30
0.0
 11
132.224
 21
30.937
 31
0.0
  0
LINE
  8
0
 62
     0
 10
132.224
 20
30.937
 30
0.0
 11
132.224
 21
31.9168
 31
0.0
  0
LINE
  8
0
 62
     0
 10
132.224
 20
31.9168
 30
0.0
 11
130.599
 21
31.9168
 31
0.0
  0
LINE
  8
0
 62
     0
 10
130.599
 20
31.9168
 30
0.0
 11
130.599
 21
38.1868
 31
0.0
  0
LINE
  8
0
 62
     0
 10
130.599
 20
38.1868
 30
0.0
 11
129.725
 21
38.1868
 31
0.0
  0
LINE
  8
0
 62
     0
 10
129.725
 20
38.1868
 30
0.0
 11
129.725
 21
40.9871
 31
0.0
  0
LINE
  8
0
 62
     0
 10
129.725
 20
40.9871
 30
0.0
 11
130.599
 21
40.9871
 31
0.0
  0
LINE
  8
0
 62
     0
 10
130.599
 20
40.9871
 30
0.0
 11
130.599
 21
44.2172
 31
0.0
  0
LINE
  8
0
 62
     0
 10
130.599
 20
44.2172
 30
0.0
 11
132.224
 21
44.2172
 31
0.0
  0
LINE
  8
0
 62
     0
 10
132.224
 20
44.2172
 30
0.0
 11
132.224
 21
45.1376
 31
0.0
  0
LINE
  8
0
 62
     0
 10
132.224
 20
45.1376
 30
0.0
 11
135.525
 21
45.1376
 31
0.0
  0
LINE
  8
0
 62
     0
 10
135.525
 20
45.1376
 30
0.0
 11
135.525
 21
44.2172
 31
0.0
  0
LINE
  8
0
 62
     0
 10
135.525
 20
44.2172
 30
0.0
 11
137.25
 21
44.2172
 31
0.0
  0
LINE
  8
0
 62
     0
 10
137.25
 20
44.2172
 30
0.0
 11
137.25
 21
43.4178
 31
0.0
  0
LINE
  8
0
 62
     0
 10
137.25
 20
43.4178
 30
0.0
 11
138.024
 21
43.4178
 31
0.0
  0
LINE
  8
0
 62
     0
 10
138.024
 20
43.4178
 30
0.0
 11
138.024
 21
44.6871
 31
0.0
  0
LINE
  8
0
 62
     0
 10
138.024
 20
44.6871
 30
0.0
 11
138.825
 21
44.6871
 31
0.0
  0
LINE
  8
0
 62
     0
 10
138.825
 20
44.6871
 30
0.0
 11
138.825
 21
45.6875
 31
0.0
  0
LINE
  8
0
 62
     0
 10
138.825
 20
45.6875
 30
0.0
 11
152.824
 21
45.6875
 31
0.0
  0
LINE
  8
0
 62
     0
 10
152.824
 20
45.6875
 30
0.0
 11
152.824
 21
44.6871
 31
0.0
  0
LINE
  8
0
 62
     0
 10
152.824
 20
44.6871
 30
0.0
 11
153.625
 21
44.6871
 31
0.0
  0
LINE
  8
0
 62
     0
 10
153.625
 20
44.6871
 30
0.0
 11
153.625
 21
43.4178
 31
0.0
  0
LINE
  8
0
 62
     0
 10
153.625
 20
43.4178
 30
0.0
 11
154.4
 21
43.4178
 31
0.0
  0
LINE
  8
0
 62
     0
 10
154.4
 20
43.4178
 30
0.0
 11
154.4
 21
44.2172
 31
0.0
  0
LINE
  8
0
 62
     0
 10
154.4
 20
44.2172
 30
0.0
 11
156.125
 21
44.2172
 31
0.0
  0
LINE
  8
0
 62
     0
 10
156.125
 20
44.2172
 30
0.0
 11
156.125
 21
45.1376
 31
0.0
  0
LINE
  8
0
 62
     0
 10
156.125
 20
45.1376
 30
0.0
 11
159.425
 21
45.1376
 31
0.0
  0
LINE
  8
0
 62
     0
 10
159.425
 20
45.1376
 30
0.0
 11
159.425
 21
44.2172
 31
0.0
  0
LINE
  8
0
 62
     0
 10
159.425
 20
44.2172
 30
0.0
 11
161.05
 21
44.2172
 31
0.0
  0
LINE
  8
0
 62
     0
 10
161.05
 20
44.2172
 30
0.0
 11
161.05
 21
40.9871
 31
0.0
  0
LINE
  8
0
 62
     0
 10
161.05
 20
40.9871
 30
0.0
 11
161.925
 21
40.9871
 31
0.0
  0
LINE
  8
0
 62
     0
 10
161.925
 20
40.9871
 30
0.0
 11
161.925
 21
38.1868
 31
0.0
  0
LINE
  8
0
 62
     0
 10
161.925
 20
38.1868
 30
0.0
 11
161.05
 21
38.1868
 31
0.0
  0
LINE
  8
0
 62
     0
 10
164.731
 20
70.787
 30
0.0
 11
164.731
 21
69.7879
 31
0.0
  0
LINE
  8
0
 62
     0
 10
164.731
 20
69.7879
 30
0.0
 11
150.731
 21
69.7879
 31
0.0
  0
LINE
  8
0
 62
     0
 10
150.731
 20
69.7879
 30
0.0
 11
150.731
 21
70.787
 31
0.0
  0
LINE
  8
0
 62
     0
 10
150.731
 20
70.787
 30
0.0
 11
149.931
 21
70.787
 31
0.0
  0
LINE
  8
0
 62
     0
 10
149.931
 20
70.787
 30
0.0
 11
149.931
 21
73.8875
 31
0.0
  0
LINE
  8
0
 62
     0
 10
149.931
 20
73.8875
 30
0.0
 11
150.731
 21
73.8875
 31
0.0
  0
LINE
  8
0
 62
     0
 10
150.731
 20
73.8875
 30
0.0
 11
150.731
 21
79.6879
 31
0.0
  0
LINE
  8
0
 62
     0
 10
150.731
 20
79.6879
 30
0.0
 11
149.931
 21
79.6879
 31
0.0
  0
LINE
  8
0
 62
     0
 10
149.931
 20
79.6879
 30
0.0
 11
149.931
 21
82.7871
 31
0.0
  0
LINE
  8
0
 62
     0
 10
149.931
 20
82.7871
 30
0.0
 11
150.731
 21
82.7871
 31
0.0
  0
LINE
  8
0
 62
     0
 10
150.731
 20
82.7871
 30
0.0
 11
150.731
 21
83.7875
 31
0.0
  0
LINE
  8
0
 62
     0
 10
150.731
 20
83.7875
 30
0.0
 11
164.731
 21
83.7875
 31
0.0
  0
LINE
  8
0
 62
     0
 10
164.731
 20
83.7875
 30
0.0
 11
164.731
 21
82.7871
 31
0.0
  0
LINE
  8
0
 62
     0
 10
164.731
 20
82.7871
 30
0.0
 11
165.531
 21
82.7871
 31
0.0
  0
LINE
  8
0
 62
     0
 10
165.531
 20
82.7871
 30
0.0
 11
165.531
 21
79.6879
 31
0.0
  0
LINE
  8
0
 62
     0
 10
165.531
 20
79.6879
 30
0.0
 11
164.731
 21
79.6879
 31
0.0
  0
LINE
  8
0
 62
     0
 10
164.731
 20
79.6879
 30
0.0
 11
164.731
 21
73.8875
 31
0.0
  0
LINE
  8
0
 62
     0
 10
164.731
 20
73.8875
 30
0.0
 11
165.531
 21
73.8875
 31
0.0
  0
LINE
  8
0
 62
     0
 10
165.531
 20
73.8875
 30
0.0
 11
165.531
 21
70.787
 31
0.0
  0
LINE
  8
0
 62
     0
 10
165.531
 20
70.787
 30
0.0
 11
164.731
 21
70.787
 31
0.0
  0
LINE
  8
0
 62
     0
 10
165.813
 20
57.2368
 30
0.0
 11
165.813
 21
50.9669
 31
0.0
  0
LINE
  8
0
 62
     0
 10
165.813
 20
50.9669
 30
0.0
 11
164.188
 21
50.9669
 31
0.0
  0
LINE
  8
0
 62
     0
 10
164.188
 20
50.9669
 30
0.0
 11
164.188
 21
49.9868
 31
0.0
  0
LINE
  8
0
 62
     0
 10
164.188
 20
49.9868
 30
0.0
 11
160.887
 21
49.9868
 31
0.0
  0
LINE
  8
0
 62
     0
 10
160.887
 20
49.9868
 30
0.0
 11
160.887
 21
50.9669
 31
0.0
  0
LINE
  8
0
 62
     0
 10
160.887
 20
50.9669
 30
0.0
 11
159.163
 21
50.9669
 31
0.0
  0
LINE
  8
0
 62
     0
 10
159.163
 20
50.9669
 30
0.0
 11
159.163
 21
51.7673
 31
0.0
  0
LINE
  8
0
 62
     0
 10
159.163
 20
51.7673
 30
0.0
 11
158.388
 21
51.7673
 31
0.0
  0
LINE
  8
0
 62
     0
 10
158.388
 20
51.7673
 30
0.0
 11
158.388
 21
51.737
 31
0.0
  0
LINE
  8
0
 62
     0
 10
158.388
 20
51.737
 30
0.0
 11
157.588
 21
51.737
 31
0.0
  0
LINE
  8
0
 62
     0
 10
157.588
 20
51.737
 30
0.0
 11
157.588
 21
50.7379
 31
0.0
  0
LINE
  8
0
 62
     0
 10
157.588
 20
50.7379
 30
0.0
 11
143.588
 21
50.7379
 31
0.0
  0
LINE
  8
0
 62
     0
 10
143.588
 20
50.7379
 30
0.0
 11
143.588
 21
51.737
 31
0.0
  0
LINE
  8
0
 62
     0
 10
143.588
 20
51.737
 30
0.0
 11
142.788
 21
51.737
 31
0.0
  0
LINE
  8
0
 62
     0
 10
142.788
 20
51.737
 30
0.0
 11
142.788
 21
51.7673
 31
0.0
  0
LINE
  8
0
 62
     0
 10
142.788
 20
51.7673
 30
0.0
 11
142.012
 21
51.7673
 31
0.0
  0
LINE
  8
0
 62
     0
 10
142.012
 20
51.7673
 30
0.0
 11
142.012
 21
50.9669
 31
0.0
  0
LINE
  8
0
 62
     0
 10
142.012
 20
50.9669
 30
0.0
 11
140.288
 21
50.9669
 31
0.0
  0
LINE
  8
0
 62
     0
 10
140.288
 20
50.9669
 30
0.0
 11
140.288
 21
49.9868
 31
0.0
  0
LINE
  8
0
 62
     0
 10
140.288
 20
49.9868
 30
0.0
 11
136.988
 21
49.9868
 31
0.0
  0
LINE
  8
0
 62
     0
 10
136.988
 20
49.9868
 30
0.0
 11
136.988
 21
50.9669
 31
0.0
  0
LINE
  8
0
 62
     0
 10
136.988
 20
50.9669
 30
0.0
 11
135.363
 21
50.9669
 31
0.0
  0
LINE
  8
0
 62
     0
 10
135.363
 20
50.9669
 30
0.0
 11
135.363
 21
57.2368
 31
0.0
  0
LINE
  8
0
 62
     0
 10
135.363
 20
57.2368
 30
0.0
 11
134.488
 21
57.2368
 31
0.0
  0
LINE
  8
0
 62
     0
 10
134.488
 20
57.2368
 30
0.0
 11
134.488
 21
60.0371
 31
0.0
  0
LINE
  8
0
 62
     0
 10
134.488
 20
60.0371
 30
0.0
 11
135.363
 21
60.0371
 31
0.0
  0
LINE
  8
0
 62
     0
 10
135.363
 20
60.0371
 30
0.0
 11
135.363
 21
63.2672
 31
0.0
  0
LINE
  8
0
 62
     0
 10
135.363
 20
63.2672
 30
0.0
 11
136.988
 21
63.2672
 31
0.0
  0
LINE
  8
0
 62
     0
 10
136.988
 20
63.2672
 30
0.0
 11
136.988
 21
64.1876
 31
0.0
  0
LINE
  8
0
 62
     0
 10
136.988
 20
64.1876
 30
0.0
 11
140.288
 21
64.1876
 31
0.0
  0
LINE
  8
0
 62
     0
 10
140.288
 20
64.1876
 30
0.0
 11
140.288
 21
63.2672
 31
0.0
  0
LINE
  8
0
 62
     0
 10
140.288
 20
63.2672
 30
0.0
 11
142.012
 21
63.2672
 31
0.0
  0
LINE
  8
0
 62
     0
 10
142.012
 20
63.2672
 30
0.0
 11
142.012
 21
62.4678
 31
0.0
  0
LINE
  8
0
 62
     0
 10
142.012
 20
62.4678
 30
0.0
 11
142.788
 21
62.4678
 31
0.0
  0
LINE
  8
0
 62
     0
 10
142.788
 20
62.4678
 30
0.0
 11
142.788
 21
63.7371
 31
0.0
  0
LINE
  8
0
 62
     0
 10
142.788
 20
63.7371
 30
0.0
 11
143.588
 21
63.7371
 31
0.0
  0
LINE
  8
0
 62
     0
 10
143.588
 20
63.7371
 30
0.0
 11
143.588
 21
64.7375
 31
0.0
  0
LINE
  8
0
 62
     0
 10
143.588
 20
64.7375
 30
0.0
 11
157.588
 21
64.7375
 31
0.0
  0
LINE
  8
0
 62
     0
 10
157.588
 20
64.7375
 30
0.0
 11
157.588
 21
63.7371
 31
0.0
  0
LINE
  8
0
 62
     0
 10
157.588
 20
63.7371
 30
0.0
 11
158.388
 21
63.7371
 31
0.0
  0
LINE
  8
0
 62
     0
 10
158.388
 20
63.7371
 30
0.0
 11
158.388
 21
62.4678
 31
0.0
  0
LINE
  8
0
 62
     0
 10
158.388
 20
62.4678
 30
0.0
 11
159.163
 21
62.4678
 31
0.0
  0
LINE
  8
0
 62
     0
 10
159.163
 20
62.4678
 30
0.0
 11
159.163
 21
63.2672
 31
0.0
  0
LINE
  8
0
 62
     0
 10
159.163
 20
63.2672
 30
0.0
 11
160.887
 21
63.2672
 31
0.0
  0
LINE
  8
0
 62
     0
 10
160.887
 20
63.2672
 30
0.0
 11
160.887
 21
64.1876
 31
0.0
  0
LINE
  8
0
 62
     0
 10
160.887
 20
64.1876
 30
0.0
 11
164.188
 21
64.1876
 31
0.0
  0
LINE
  8
0
 62
     0
 10
164.188
 20
64.1876
 30
0.0
 11
164.188
 21
63.2672
 31
0.0
  0
LINE
  8
0
 62
     0
 10
164.188
 20
63.2672
 30
0.0
 11
165.813
 21
63.2672
 31
0.0
  0
LINE
  8
0
 62
     0
 10
165.813
 20
63.2672
 30
0.0
 11
165.813
 21
60.0371
 31
0.0
  0
LINE
  8
0
 62
     0
 10
165.813
 20
60.0371
 30
0.0
 11
166.688
 21
60.0371
 31
0.0
  0
LINE
  8
0
 62
     0
 10
166.688
 20
60.0371
 30
0.0
 11
166.688
 21
57.2368
 31
0.0
  0
LINE
  8
0
 62
     0
 10
166.688
 20
57.2368
 30
0.0
 11
165.813
 21
57.2368
 31
0.0
  0
LINE
  8
0
 62
     0
 10
167.113
 20
13.6371
 30
0.0
 11
167.113
 21
12.638
 31
0.0
  0
LINE
  8
0
 62
     0
 10
167.113
 20
12.638
 30
0.0
 11
153.113
 21
12.638
 31
0.0
  0
LINE
  8
0
 62
     0
 10
153.113
 20
12.638
 30
0.0
 11
153.113
 21
13.6371
 31
0.0
  0
LINE
  8
0
 62
     0
 10
153.113
 20
13.6371
 30
0.0
 11
152.313
 21
13.6371
 31
0.0
  0
LINE
  8
0
 62
     0
 10
152.313
 20
13.6371
 30
0.0
 11
152.313
 21
16.7376
 31
0.0
  0
LINE
  8
0
 62
     0
 10
152.313
 20
16.7376
 30
0.0
 11
153.113
 21
16.7376
 31
0.0
  0
LINE
  8
0
 62
     0
 10
153.113
 20
16.7376
 30
0.0
 11
153.113
 21
22.5378
 31
0.0
  0
LINE
  8
0
 62
     0
 10
153.113
 20
22.5378
 30
0.0
 11
152.313
 21
22.5378
 31
0.0
  0
LINE
  8
0
 62
     0
 10
152.313
 20
22.5378
 30
0.0
 11
152.313
 21
25.637
 31
0.0
  0
LINE
  8
0
 62
     0
 10
152.313
 20
25.637
 30
0.0
 11
153.113
 21
25.637
 31
0.0
  0
LINE
  8
0
 62
     0
 10
153.113
 20
25.637
 30
0.0
 11
153.113
 21
26.6375
 31
0.0
  0
LINE
  8
0
 62
     0
 10
153.113
 20
26.6375
 30
0.0
 11
167.113
 21
26.6375
 31
0.0
  0
LINE
  8
0
 62
     0
 10
167.113
 20
26.6375
 30
0.0
 11
167.113
 21
25.637
 31
0.0
  0
LINE
  8
0
 62
     0
 10
167.113
 20
25.637
 30
0.0
 11
167.913
 21
25.637
 31
0.0
  0
LINE
  8
0
 62
     0
 10
167.913
 20
25.637
 30
0.0
 11
167.913
 21
22.5378
 31
0.0
  0
LINE
  8
0
 62
     0
 10
167.913
 20
22.5378
 30
0.0
 11
167.113
 21
22.5378
 31
0.0
  0
LINE
  8
0
 62
     0
 10
167.113
 20
22.5378
 30
0.0
 11
167.113
 21
16.7376
 31
0.0
  0
LINE
  8
0
 62
     0
 10
167.113
 20
16.7376
 30
0.0
 11
167.913
 21
16.7376
 31
0.0
  0
LINE
  8
0
 62
     0
 10
167.913
 20
16.7376
 30
0.0
 11
167.913
 21
13.6371
 31
0.0
  0
LINE
  8
0
 62
     0
 10
167.913
 20
13.6371
 30
0.0
 11
167.113
 21
13.6371
 31
0.0
  0
LINE
  8
0
 62
     0
 10
168.194
 20
95.3368
 30
0.0
 11
168.194
 21
89.0669
 31
0.0
  0
LINE
  8
0
 62
     0
 10
168.194
 20
89.0669
 30
0.0
 11
166.569
 21
89.0669
 31
0.0
  0
LINE
  8
0
 62
     0
 10
166.569
 20
89.0669
 30
0.0
 11
166.569
 21
88.0869
 31
0.0
  0
LINE
  8
0
 62
     0
 10
166.569
 20
88.0869
 30
0.0
 11
163.269
 21
88.0869
 31
0.0
  0
LINE
  8
0
 62
     0
 10
163.269
 20
88.0869
 30
0.0
 11
163.269
 21
89.0669
 31
0.0
  0
LINE
  8
0
 62
     0
 10
163.269
 20
89.0669
 30
0.0
 11
161.543
 21
89.0669
 31
0.0
  0
LINE
  8
0
 62
     0
 10
161.543
 20
89.0669
 30
0.0
 11
161.543
 21
89.8673
 31
0.0
  0
LINE
  8
0
 62
     0
 10
161.543
 20
89.8673
 30
0.0
 11
160.769
 21
89.8673
 31
0.0
  0
LINE
  8
0
 62
     0
 10
160.769
 20
89.8673
 30
0.0
 11
160.769
 21
89.837
 31
0.0
  0
LINE
  8
0
 62
     0
 10
160.769
 20
89.837
 30
0.0
 11
159.968
 21
89.837
 31
0.0
  0
LINE
  8
0
 62
     0
 10
159.968
 20
89.837
 30
0.0
 11
159.968
 21
88.8379
 31
0.0
  0
LINE
  8
0
 62
     0
 10
159.968
 20
88.8379
 30
0.0
 11
145.969
 21
88.8379
 31
0.0
  0
LINE
  8
0
 62
     0
 10
145.969
 20
88.8379
 30
0.0
 11
145.969
 21
89.837
 31
0.0
  0
LINE
  8
0
 62
     0
 10
145.969
 20
89.837
 30
0.0
 11
145.169
 21
89.837
 31
0.0
  0
LINE
  8
0
 62
     0
 10
145.169
 20
89.837
 30
0.0
 11
145.169
 21
89.8673
 31
0.0
  0
LINE
  8
0
 62
     0
 10
145.169
 20
89.8673
 30
0.0
 11
144.394
 21
89.8673
 31
0.0
  0
LINE
  8
0
 62
     0
 10
144.394
 20
89.8673
 30
0.0
 11
144.394
 21
89.0669
 31
0.0
  0
LINE
  8
0
 62
     0
 10
144.394
 20
89.0669
 30
0.0
 11
142.668
 21
89.0669
 31
0.0
  0
LINE
  8
0
 62
     0
 10
142.668
 20
89.0669
 30
0.0
 11
142.668
 21
88.0869
 31
0.0
  0
LINE
  8
0
 62
     0
 10
142.668
 20
88.0869
 30
0.0
 11
139.369
 21
88.0869
 31
0.0
  0
LINE
  8
0
 62
     0
 10
139.369
 20
88.0869
 30
0.0
 11
139.369
 21
89.0669
 31
0.0
  0
LINE
  8
0
 62
     0
 10
139.369
 20
89.0669
 30
0.0
 11
137.743
 21
89.0669
 31
0.0
  0
LINE
  8
0
 62
     0
 10
137.743
 20
89.0669
 30
0.0
 11
137.743
 21
95.3368
 31
0.0
  0
LINE
  8
0
 62
     0
 10
137.743
 20
95.3368
 30
0.0
 11
136.868
 21
95.3368
 31
0.0
  0
LINE
  8
0
 62
     0
 10
136.868
 20
95.3368
 30
0.0
 11
136.868
 21
98.1371
 31
0.0
  0
LINE
  8
0
 62
     0
 10
136.868
 20
98.1371
 30
0.0
 11
137.743
 21
98.1371
 31
0.0
  0
LINE
  8
0
 62
     0
 10
137.743
 20
98.1371
 30
0.0
 11
137.743
 21
101.367
 31
0.0
  0
LINE
  8
0
 62
     0
 10
137.743
 20
101.367
 30
0.0
 11
139.369
 21
101.367
 31
0.0
  0
LINE
  8
0
 62
     0
 10
139.369
 20
101.367
 30
0.0
 11
139.369
 21
102.288
 31
0.0
  0
LINE
  8
0
 62
     0
 10
139.369
 20
102.288
 30
0.0
 11
142.668
 21
102.288
 31
0.0
  0
LINE
  8
0
 62
     0
 10
142.668
 20
102.288
 30
0.0
 11
142.668
 21
101.367
 31
0.0
  0
LINE
  8
0
 62
     0
 10
142.668
 20
101.367
 30
0.0
 11
144.394
 21
101.367
 31
0.0
  0
LINE
  8
0
 62
     0
 10
144.394
 20
101.367
 30
0.0
 11
144.394
 21
100.568
 31
0.0
  0
LINE
  8
0
 62
     0
 10
144.394
 20
100.568
 30
0.0
 11
145.169
 21
100.568
 31
0.0
  0
LINE
  8
0
 62
     0
 10
145.169
 20
100.568
 30
0.0
 11
145.169
 21
101.837
 31
0.0
  0
LINE
  8
0
 62
     0
 10
145.169
 20
101.837
 30
0.0
 11
145.969
 21
101.837
 31
0.0
  0
LINE
  8
0
 62
     0
 10
145.969
 20
101.837
 30
0.0
 11
145.969
 21
102.838
 31
0.0
  0
LINE
  8
0
 62
     0
 10
145.969
 20
102.838
 30
0.0
 11
159.968
 21
102.838
 31
0.0
  0
LINE
  8
0
 62
     0
 10
159.968
 20
102.838
 30
0.0
 11
159.968
 21
101.837
 31
0.0
  0
LINE
  8
0
 62
     0
 10
159.968
 20
101.837
 30
0.0
 11
160.769
 21
101.837
 31
0.0
  0
LINE
  8
0
 62
     0
 10
160.769
 20
101.837
 30
0.0
 11
160.769
 21
100.568
 31
0.0
  0
LINE
  8
0
 62
     0
 10
160.769
 20
100.568
 30
0.0
 11
161.543
 21
100.568
 31
0.0
  0
LINE
  8
0
 62
     0
 10
161.543
 20
100.568
 30
0.0
 11
161.543
 21
101.367
 31
0.0
  0
LINE
  8
0
 62
     0
 10
161.543
 20
101.367
 30
0.0
 11
163.269
 21
101.367
 31
0.0
  0
LINE
  8
0
 62
     0
 10
163.269
 20
101.367
 30
0.0
 11
163.269
 21
102.288
 31
0.0
  0
LINE
  8
0
 62
     0
 10
163.269
 20
102.288
 30
0.0
 11
166.569
 21
102.288
 31
0.0
  0
LINE
  8
0
 62
     0
 10
166.569
 20
102.288
 30
0.0
 11
166.569
 21
101.367
 31
0.0
  0
LINE
  8
0
 62
     0
 10
166.569
 20
101.367
 30
0.0
 11
168.194
 21
101.367
 31
0.0
  0
LINE
  8
0
 62
     0
 10
168.194
 20
101.367
 30
0.0
 11
168.194
 21
98.1371
 31
0.0
  0
LINE
  8
0
 62
     0
 10
168.194
 20
98.1371
 30
0.0
 11
169.069
 21
98.1371
 31
0.0
  0
LINE
  8
0
 62
     0
 10
169.069
 20
98.1371
 30
0.0
 11
169.069
 21
95.3368
 31
0.0
  0
LINE
  8
0
 62
     0
 10
169.069
 20
95.3368
 30
0.0
 11
168.194
 21
95.3368
 31
0.0
  0
ENDSEC
  0
EOF
