  0
SECTION
  2
HEADER
  9
$ACADVER
  1
AC1009
  9
$EXTMIN
 10
0.0
 20
0.0
 30
0.0
  9
$EXTMAX
 10
1000.0
 20
1000.0
 30
0.0
  9
$FILLMODE
 70
 0
  9
$SPLFRAME
 70
 1
  0
ENDSEC
  0
SECTION
  2
TABLES
  0
TABLE
  2
LAYER
 70
1
  0
LAYER
  2
0
 70
     0
 62
     7
  6
CONTINUOUS
  0
ENDTAB
  0
ENDSEC
  0
SECTION
  2
ENTITIES
  0
LINE
  8
0
 62
     0
 10
0.0937066
 20
46.4372
 30
0.0
 11
139.156
 21
46.4372
 31
0.0
  0
LINE
  8
0
 62
     0
 10
139.156
 20
46.4372
 30
0.0
 11
139.156
 21
7.38766
 31
0.0
  0
LINE
  8
0
 62
     0
 10
139.156
 20
7.38766
 30
0.0
 11
0.0937066
 21
7.38766
 31
0.0
  0
LINE
  8
0
 62
     0
 10
0.0937066
 20
7.38766
 30
0.0
 11
0.0937066
 21
46.4372
 31
0.0
  0
LINE
  8
0
 62
     0
 10
48.1143
 20
42.9369
 30
0.0
 11
48.5771
 21
42.8639
 31
0.0
  0
LINE
  8
0
 62
     0
 10
48.5771
 20
42.8639
 30
0.0
 11
48.9962
 21
42.6515
 31
0.0
  0
LINE
  8
0
 62
     0
 10
48.9962
 20
42.6515
 30
0.0
 11
49.3282
 21
42.3196
 31
0.0
  0
LINE
  8
0
 62
     0
 10
49.3282
 20
42.3196
 30
0.0
 11
49.5406
 21
41.9005
 31
0.0
  0
LINE
  8
0
 62
     0
 10
49.5406
 20
41.9005
 30
0.0
 11
49.615
 21
41.4376
 31
0.0
  0
LINE
  8
0
 62
     0
 10
49.615
 20
41.4376
 30
0.0
 11
49.5406
 21
40.9734
 31
0.0
  0
LINE
  8
0
 62
     0
 10
49.5406
 20
40.9734
 30
0.0
 11
49.3282
 21
40.5557
 31
0.0
  0
LINE
  8
0
 62
     0
 10
49.3282
 20
40.5557
 30
0.0
 11
48.9962
 21
40.2237
 31
0.0
  0
LINE
  8
0
 62
     0
 10
48.9962
 20
40.2237
 30
0.0
 11
48.5771
 21
40.0099
 31
0.0
  0
LINE
  8
0
 62
     0
 10
48.5771
 20
40.0099
 30
0.0
 11
48.1143
 21
39.9369
 31
0.0
  0
LINE
  8
0
 62
     0
 10
48.1143
 20
39.9369
 30
0.0
 11
47.6511
 21
40.0099
 31
0.0
  0
LINE
  8
0
 62
     0
 10
47.6511
 20
40.0099
 30
0.0
 11
47.2324
 21
40.2237
 31
0.0
  0
LINE
  8
0
 62
     0
 10
47.2324
 20
40.2237
 30
0.0
 11
46.9
 21
40.5557
 31
0.0
  0
LINE
  8
0
 62
     0
 10
46.9
 20
40.5557
 30
0.0
 11
46.688
 21
40.9734
 31
0.0
  0
LINE
  8
0
 62
     0
 10
46.688
 20
40.9734
 30
0.0
 11
46.615
 21
41.4376
 31
0.0
  0
LINE
  8
0
 62
     0
 10
46.615
 20
41.4376
 30
0.0
 11
46.688
 21
41.9005
 31
0.0
  0
LINE
  8
0
 62
     0
 10
46.688
 20
41.9005
 30
0.0
 11
46.9
 21
42.3196
 31
0.0
  0
LINE
  8
0
 62
     0
 10
46.9
 20
42.3196
 30
0.0
 11
47.2324
 21
42.6515
 31
0.0
  0
LINE
  8
0
 62
     0
 10
47.2324
 20
42.6515
 30
0.0
 11
47.6511
 21
42.8639
 31
0.0
  0
LINE
  8
0
 62
     0
 10
47.6511
 20
42.8639
 30
0.0
 11
48.1143
 21
42.9369
 31
0.0
  0
LINE
  8
0
 62
     0
 10
91.1352
 20
42.9369
 30
0.0
 11
91.598
 21
42.8639
 31
0.0
  0
LINE
  8
0
 62
     0
 10
91.598
 20
42.8639
 30
0.0
 11
92.0171
 21
42.6515
 31
0.0
  0
LINE
  8
0
 62
     0
 10
92.0171
 20
42.6515
 30
0.0
 11
92.3491
 21
42.3196
 31
0.0
  0
LINE
  8
0
 62
     0
 10
92.3491
 20
42.3196
 30
0.0
 11
92.5615
 21
41.9005
 31
0.0
  0
LINE
  8
0
 62
     0
 10
92.5615
 20
41.9005
 30
0.0
 11
92.6359
 21
41.4376
 31
0.0
  0
LINE
  8
0
 62
     0
 10
92.6359
 20
41.4376
 30
0.0
 11
92.5615
 21
40.9734
 31
0.0
  0
LINE
  8
0
 62
     0
 10
92.5615
 20
40.9734
 30
0.0
 11
92.3491
 21
40.5557
 31
0.0
  0
LINE
  8
0
 62
     0
 10
92.3491
 20
40.5557
 30
0.0
 11
92.0171
 21
40.2237
 31
0.0
  0
LINE
  8
0
 62
     0
 10
92.0171
 20
40.2237
 30
0.0
 11
91.598
 21
40.0099
 31
0.0
  0
LINE
  8
0
 62
     0
 10
91.598
 20
40.0099
 30
0.0
 11
91.1352
 21
39.9369
 31
0.0
  0
LINE
  8
0
 62
     0
 10
91.1352
 20
39.9369
 30
0.0
 11
90.672
 21
40.0099
 31
0.0
  0
LINE
  8
0
 62
     0
 10
90.672
 20
40.0099
 30
0.0
 11
90.2533
 21
40.2237
 31
0.0
  0
LINE
  8
0
 62
     0
 10
90.2533
 20
40.2237
 30
0.0
 11
89.9213
 21
40.5557
 31
0.0
  0
LINE
  8
0
 62
     0
 10
89.9213
 20
40.5557
 30
0.0
 11
89.7089
 21
40.9734
 31
0.0
  0
LINE
  8
0
 62
     0
 10
89.7089
 20
40.9734
 30
0.0
 11
89.6359
 21
41.4376
 31
0.0
  0
LINE
  8
0
 62
     0
 10
89.6359
 20
41.4376
 30
0.0
 11
89.7089
 21
41.9005
 31
0.0
  0
LINE
  8
0
 62
     0
 10
89.7089
 20
41.9005
 30
0.0
 11
89.9213
 21
42.3196
 31
0.0
  0
LINE
  8
0
 62
     0
 10
89.9213
 20
42.3196
 30
0.0
 11
90.2533
 21
42.6515
 31
0.0
  0
LINE
  8
0
 62
     0
 10
90.2533
 20
42.6515
 30
0.0
 11
90.672
 21
42.8639
 31
0.0
  0
LINE
  8
0
 62
     0
 10
90.672
 20
42.8639
 30
0.0
 11
91.1352
 21
42.9369
 31
0.0
  0
LINE
  8
0
 62
     0
 10
134.156
 20
42.9369
 30
0.0
 11
134.619
 21
42.8639
 31
0.0
  0
LINE
  8
0
 62
     0
 10
134.619
 20
42.8639
 30
0.0
 11
135.038
 21
42.6515
 31
0.0
  0
LINE
  8
0
 62
     0
 10
135.038
 20
42.6515
 30
0.0
 11
135.37
 21
42.3196
 31
0.0
  0
LINE
  8
0
 62
     0
 10
135.37
 20
42.3196
 30
0.0
 11
135.582
 21
41.9005
 31
0.0
  0
LINE
  8
0
 62
     0
 10
135.582
 20
41.9005
 30
0.0
 11
135.657
 21
41.4376
 31
0.0
  0
LINE
  8
0
 62
     0
 10
135.657
 20
41.4376
 30
0.0
 11
135.582
 21
40.9734
 31
0.0
  0
LINE
  8
0
 62
     0
 10
135.582
 20
40.9734
 30
0.0
 11
135.37
 21
40.5557
 31
0.0
  0
LINE
  8
0
 62
     0
 10
135.37
 20
40.5557
 30
0.0
 11
135.038
 21
40.2237
 31
0.0
  0
LINE
  8
0
 62
     0
 10
135.038
 20
40.2237
 30
0.0
 11
134.619
 21
40.0099
 31
0.0
  0
LINE
  8
0
 62
     0
 10
134.619
 20
40.0099
 30
0.0
 11
134.156
 21
39.9369
 31
0.0
  0
LINE
  8
0
 62
     0
 10
134.156
 20
39.9369
 30
0.0
 11
133.693
 21
40.0099
 31
0.0
  0
LINE
  8
0
 62
     0
 10
133.693
 20
40.0099
 30
0.0
 11
133.274
 21
40.2237
 31
0.0
  0
LINE
  8
0
 62
     0
 10
133.274
 20
40.2237
 30
0.0
 11
132.942
 21
40.5557
 31
0.0
  0
LINE
  8
0
 62
     0
 10
132.942
 20
40.5557
 30
0.0
 11
132.73
 21
40.9734
 31
0.0
  0
LINE
  8
0
 62
     0
 10
132.73
 20
40.9734
 30
0.0
 11
132.655
 21
41.4376
 31
0.0
  0
LINE
  8
0
 62
     0
 10
132.655
 20
41.4376
 30
0.0
 11
132.73
 21
41.9005
 31
0.0
  0
LINE
  8
0
 62
     0
 10
132.73
 20
41.9005
 30
0.0
 11
132.942
 21
42.3196
 31
0.0
  0
LINE
  8
0
 62
     0
 10
132.942
 20
42.3196
 30
0.0
 11
133.274
 21
42.6515
 31
0.0
  0
LINE
  8
0
 62
     0
 10
133.274
 20
42.6515
 30
0.0
 11
133.693
 21
42.8639
 31
0.0
  0
LINE
  8
0
 62
     0
 10
133.693
 20
42.8639
 30
0.0
 11
134.156
 21
42.9369
 31
0.0
  0
LINE
  8
0
 62
     0
 10
134.156
 20
13.8865
 30
0.0
 11
134.619
 21
13.8135
 31
0.0
  0
LINE
  8
0
 62
     0
 10
134.619
 20
13.8135
 30
0.0
 11
135.038
 21
13.6012
 31
0.0
  0
LINE
  8
0
 62
     0
 10
135.038
 20
13.6012
 30
0.0
 11
135.37
 21
13.2691
 31
0.0
  0
LINE
  8
0
 62
     0
 10
135.37
 20
13.2691
 30
0.0
 11
135.582
 21
12.8516
 31
0.0
  0
LINE
  8
0
 62
     0
 10
135.582
 20
12.8516
 30
0.0
 11
135.657
 21
12.3872
 31
0.0
  0
LINE
  8
0
 62
     0
 10
135.657
 20
12.3872
 30
0.0
 11
135.582
 21
11.9228
 31
0.0
  0
LINE
  8
0
 62
     0
 10
135.582
 20
11.9228
 30
0.0
 11
135.37
 21
11.5052
 31
0.0
  0
LINE
  8
0
 62
     0
 10
135.37
 20
11.5052
 30
0.0
 11
135.038
 21
11.1731
 31
0.0
  0
LINE
  8
0
 62
     0
 10
135.038
 20
11.1731
 30
0.0
 11
134.619
 21
10.9595
 31
0.0
  0
LINE
  8
0
 62
     0
 10
134.619
 20
10.9595
 30
0.0
 11
134.156
 21
10.8865
 31
0.0
  0
LINE
  8
0
 62
     0
 10
134.156
 20
10.8865
 30
0.0
 11
133.693
 21
10.9595
 31
0.0
  0
LINE
  8
0
 62
     0
 10
133.693
 20
10.9595
 30
0.0
 11
133.274
 21
11.1731
 31
0.0
  0
LINE
  8
0
 62
     0
 10
133.274
 20
11.1731
 30
0.0
 11
132.942
 21
11.5052
 31
0.0
  0
LINE
  8
0
 62
     0
 10
132.942
 20
11.5052
 30
0.0
 11
132.73
 21
11.9228
 31
0.0
  0
LINE
  8
0
 62
     0
 10
132.73
 20
11.9228
 30
0.0
 11
132.655
 21
12.3872
 31
0.0
  0
LINE
  8
0
 62
     0
 10
132.655
 20
12.3872
 30
0.0
 11
132.73
 21
12.8516
 31
0.0
  0
LINE
  8
0
 62
     0
 10
132.73
 20
12.8516
 30
0.0
 11
132.942
 21
13.2691
 31
0.0
  0
LINE
  8
0
 62
     0
 10
132.942
 20
13.2691
 30
0.0
 11
133.274
 21
13.6012
 31
0.0
  0
LINE
  8
0
 62
     0
 10
133.274
 20
13.6012
 30
0.0
 11
133.693
 21
13.8135
 31
0.0
  0
LINE
  8
0
 62
     0
 10
133.693
 20
13.8135
 30
0.0
 11
134.156
 21
13.8865
 31
0.0
  0
LINE
  8
0
 62
     0
 10
91.1352
 20
13.8865
 30
0.0
 11
91.598
 21
13.8135
 31
0.0
  0
LINE
  8
0
 62
     0
 10
91.598
 20
13.8135
 30
0.0
 11
92.0171
 21
13.6012
 31
0.0
  0
LINE
  8
0
 62
     0
 10
92.0171
 20
13.6012
 30
0.0
 11
92.3491
 21
13.2691
 31
0.0
  0
LINE
  8
0
 62
     0
 10
92.3491
 20
13.2691
 30
0.0
 11
92.5615
 21
12.8516
 31
0.0
  0
LINE
  8
0
 62
     0
 10
92.5615
 20
12.8516
 30
0.0
 11
92.6359
 21
12.3872
 31
0.0
  0
LINE
  8
0
 62
     0
 10
92.6359
 20
12.3872
 30
0.0
 11
92.5615
 21
11.9228
 31
0.0
  0
LINE
  8
0
 62
     0
 10
92.5615
 20
11.9228
 30
0.0
 11
92.3491
 21
11.5052
 31
0.0
  0
LINE
  8
0
 62
     0
 10
92.3491
 20
11.5052
 30
0.0
 11
92.0171
 21
11.1731
 31
0.0
  0
LINE
  8
0
 62
     0
 10
92.0171
 20
11.1731
 30
0.0
 11
91.598
 21
10.9595
 31
0.0
  0
LINE
  8
0
 62
     0
 10
91.598
 20
10.9595
 30
0.0
 11
91.1352
 21
10.8865
 31
0.0
  0
LINE
  8
0
 62
     0
 10
91.1352
 20
10.8865
 30
0.0
 11
90.672
 21
10.9595
 31
0.0
  0
LINE
  8
0
 62
     0
 10
90.672
 20
10.9595
 30
0.0
 11
90.2533
 21
11.1731
 31
0.0
  0
LINE
  8
0
 62
     0
 10
90.2533
 20
11.1731
 30
0.0
 11
89.9213
 21
11.5052
 31
0.0
  0
LINE
  8
0
 62
     0
 10
89.9213
 20
11.5052
 30
0.0
 11
89.7089
 21
11.9228
 31
0.0
  0
LINE
  8
0
 62
     0
 10
89.7089
 20
11.9228
 30
0.0
 11
89.6359
 21
12.3872
 31
0.0
  0
LINE
  8
0
 62
     0
 10
89.6359
 20
12.3872
 30
0.0
 11
89.7089
 21
12.8516
 31
0.0
  0
LINE
  8
0
 62
     0
 10
89.7089
 20
12.8516
 30
0.0
 11
89.9213
 21
13.2691
 31
0.0
  0
LINE
  8
0
 62
     0
 10
89.9213
 20
13.2691
 30
0.0
 11
90.2533
 21
13.6012
 31
0.0
  0
LINE
  8
0
 62
     0
 10
90.2533
 20
13.6012
 30
0.0
 11
90.672
 21
13.8135
 31
0.0
  0
LINE
  8
0
 62
     0
 10
90.672
 20
13.8135
 30
0.0
 11
91.1352
 21
13.8865
 31
0.0
  0
LINE
  8
0
 62
     0
 10
48.1143
 20
13.8865
 30
0.0
 11
48.5771
 21
13.8135
 31
0.0
  0
LINE
  8
0
 62
     0
 10
48.5771
 20
13.8135
 30
0.0
 11
48.9962
 21
13.6012
 31
0.0
  0
LINE
  8
0
 62
     0
 10
48.9962
 20
13.6012
 30
0.0
 11
49.3282
 21
13.2691
 31
0.0
  0
LINE
  8
0
 62
     0
 10
49.3282
 20
13.2691
 30
0.0
 11
49.5406
 21
12.8516
 31
0.0
  0
LINE
  8
0
 62
     0
 10
49.5406
 20
12.8516
 30
0.0
 11
49.615
 21
12.3872
 31
0.0
  0
LINE
  8
0
 62
     0
 10
49.615
 20
12.3872
 30
0.0
 11
49.5406
 21
11.9228
 31
0.0
  0
LINE
  8
0
 62
     0
 10
49.5406
 20
11.9228
 30
0.0
 11
49.3282
 21
11.5052
 31
0.0
  0
LINE
  8
0
 62
     0
 10
49.3282
 20
11.5052
 30
0.0
 11
48.9962
 21
11.1731
 31
0.0
  0
LINE
  8
0
 62
     0
 10
48.9962
 20
11.1731
 30
0.0
 11
48.5771
 21
10.9595
 31
0.0
  0
LINE
  8
0
 62
     0
 10
48.5771
 20
10.9595
 30
0.0
 11
48.1143
 21
10.8865
 31
0.0
  0
LINE
  8
0
 62
     0
 10
48.1143
 20
10.8865
 30
0.0
 11
47.6511
 21
10.9595
 31
0.0
  0
LINE
  8
0
 62
     0
 10
47.6511
 20
10.9595
 30
0.0
 11
47.2324
 21
11.1731
 31
0.0
  0
LINE
  8
0
 62
     0
 10
47.2324
 20
11.1731
 30
0.0
 11
46.9
 21
11.5052
 31
0.0
  0
LINE
  8
0
 62
     0
 10
46.9
 20
11.5052
 30
0.0
 11
46.688
 21
11.9228
 31
0.0
  0
LINE
  8
0
 62
     0
 10
46.688
 20
11.9228
 30
0.0
 11
46.615
 21
12.3872
 31
0.0
  0
LINE
  8
0
 62
     0
 10
46.615
 20
12.3872
 30
0.0
 11
46.688
 21
12.8516
 31
0.0
  0
LINE
  8
0
 62
     0
 10
46.688
 20
12.8516
 30
0.0
 11
46.9
 21
13.2691
 31
0.0
  0
LINE
  8
0
 62
     0
 10
46.9
 20
13.2691
 30
0.0
 11
47.2324
 21
13.6012
 31
0.0
  0
LINE
  8
0
 62
     0
 10
47.2324
 20
13.6012
 30
0.0
 11
47.6511
 21
13.8135
 31
0.0
  0
LINE
  8
0
 62
     0
 10
47.6511
 20
13.8135
 30
0.0
 11
48.1143
 21
13.8865
 31
0.0
  0
LINE
  8
0
 62
     0
 10
5.09323
 20
13.8865
 30
0.0
 11
5.55763
 21
13.8135
 31
0.0
  0
LINE
  8
0
 62
     0
 10
5.55763
 20
13.8135
 30
0.0
 11
5.97517
 21
13.6012
 31
0.0
  0
LINE
  8
0
 62
     0
 10
5.97517
 20
13.6012
 30
0.0
 11
6.30728
 21
13.2691
 31
0.0
  0
LINE
  8
0
 62
     0
 10
6.30728
 20
13.2691
 30
0.0
 11
6.52089
 21
12.8516
 31
0.0
  0
LINE
  8
0
 62
     0
 10
6.52089
 20
12.8516
 30
0.0
 11
6.59391
 21
12.3872
 31
0.0
  0
LINE
  8
0
 62
     0
 10
6.59391
 20
12.3872
 30
0.0
 11
6.52089
 21
11.9228
 31
0.0
  0
LINE
  8
0
 62
     0
 10
6.52089
 20
11.9228
 30
0.0
 11
6.30728
 21
11.5052
 31
0.0
  0
LINE
  8
0
 62
     0
 10
6.30728
 20
11.5052
 30
0.0
 11
5.97517
 21
11.1731
 31
0.0
  0
LINE
  8
0
 62
     0
 10
5.97517
 20
11.1731
 30
0.0
 11
5.55763
 21
10.9595
 31
0.0
  0
LINE
  8
0
 62
     0
 10
5.55763
 20
10.9595
 30
0.0
 11
5.09323
 21
10.8865
 31
0.0
  0
LINE
  8
0
 62
     0
 10
5.09323
 20
10.8865
 30
0.0
 11
4.63021
 21
10.9595
 31
0.0
  0
LINE
  8
0
 62
     0
 10
4.63021
 20
10.9595
 30
0.0
 11
4.21128
 21
11.1731
 31
0.0
  0
LINE
  8
0
 62
     0
 10
4.21128
 20
11.1731
 30
0.0
 11
3.87918
 21
11.5052
 31
0.0
  0
LINE
  8
0
 62
     0
 10
3.87918
 20
11.5052
 30
0.0
 11
3.66695
 21
11.9228
 31
0.0
  0
LINE
  8
0
 62
     0
 10
3.66695
 20
11.9228
 30
0.0
 11
3.59392
 21
12.3872
 31
0.0
  0
LINE
  8
0
 62
     0
 10
3.59392
 20
12.3872
 30
0.0
 11
3.66695
 21
12.8516
 31
0.0
  0
LINE
  8
0
 62
     0
 10
3.66695
 20
12.8516
 30
0.0
 11
3.87918
 21
13.2691
 31
0.0
  0
LINE
  8
0
 62
     0
 10
3.87918
 20
13.2691
 30
0.0
 11
4.21128
 21
13.6012
 31
0.0
  0
LINE
  8
0
 62
     0
 10
4.21128
 20
13.6012
 30
0.0
 11
4.63021
 21
13.8135
 31
0.0
  0
LINE
  8
0
 62
     0
 10
4.63021
 20
13.8135
 30
0.0
 11
5.09323
 21
13.8865
 31
0.0
  0
LINE
  8
0
 62
     0
 10
5.09323
 20
42.9369
 30
0.0
 11
5.55763
 21
42.8639
 31
0.0
  0
LINE
  8
0
 62
     0
 10
5.55763
 20
42.8639
 30
0.0
 11
5.97517
 21
42.6515
 31
0.0
  0
LINE
  8
0
 62
     0
 10
5.97517
 20
42.6515
 30
0.0
 11
6.30728
 21
42.3196
 31
0.0
  0
LINE
  8
0
 62
     0
 10
6.30728
 20
42.3196
 30
0.0
 11
6.52089
 21
41.9005
 31
0.0
  0
LINE
  8
0
 62
     0
 10
6.52089
 20
41.9005
 30
0.0
 11
6.59391
 21
41.4376
 31
0.0
  0
LINE
  8
0
 62
     0
 10
6.59391
 20
41.4376
 30
0.0
 11
6.52089
 21
40.9734
 31
0.0
  0
LINE
  8
0
 62
     0
 10
6.52089
 20
40.9734
 30
0.0
 11
6.30728
 21
40.5557
 31
0.0
  0
LINE
  8
0
 62
     0
 10
6.30728
 20
40.5557
 30
0.0
 11
5.97517
 21
40.2237
 31
0.0
  0
LINE
  8
0
 62
     0
 10
5.97517
 20
40.2237
 30
0.0
 11
5.55763
 21
40.0099
 31
0.0
  0
LINE
  8
0
 62
     0
 10
5.55763
 20
40.0099
 30
0.0
 11
5.09323
 21
39.9369
 31
0.0
  0
LINE
  8
0
 62
     0
 10
5.09323
 20
39.9369
 30
0.0
 11
4.63021
 21
40.0099
 31
0.0
  0
LINE
  8
0
 62
     0
 10
4.63021
 20
40.0099
 30
0.0
 11
4.21128
 21
40.2237
 31
0.0
  0
LINE
  8
0
 62
     0
 10
4.21128
 20
40.2237
 30
0.0
 11
3.87918
 21
40.5557
 31
0.0
  0
LINE
  8
0
 62
     0
 10
3.87918
 20
40.5557
 30
0.0
 11
3.66695
 21
40.9734
 31
0.0
  0
LINE
  8
0
 62
     0
 10
3.66695
 20
40.9734
 30
0.0
 11
3.59392
 21
41.4376
 31
0.0
  0
LINE
  8
0
 62
     0
 10
3.59392
 20
41.4376
 30
0.0
 11
3.66695
 21
41.9005
 31
0.0
  0
LINE
  8
0
 62
     0
 10
3.66695
 20
41.9005
 30
0.0
 11
3.87918
 21
42.3196
 31
0.0
  0
LINE
  8
0
 62
     0
 10
3.87918
 20
42.3196
 30
0.0
 11
4.21128
 21
42.6515
 31
0.0
  0
LINE
  8
0
 62
     0
 10
4.21128
 20
42.6515
 30
0.0
 11
4.63021
 21
42.8639
 31
0.0
  0
LINE
  8
0
 62
     0
 10
4.63021
 20
42.8639
 30
0.0
 11
5.09323
 21
42.9369
 31
0.0
  0
LINE
  8
0
 62
     0
 10
242.013
 20
7.36148
 30
0.0
 11
242.013
 21
1.09141
 31
0.0
  0
LINE
  8
0
 62
     0
 10
242.013
 20
1.09141
 30
0.0
 11
240.338
 21
1.09141
 31
0.0
  0
LINE
  8
0
 62
     0
 10
240.338
 20
1.09141
 30
0.0
 11
240.338
 21
0.111621
 31
0.0
  0
LINE
  8
0
 62
     0
 10
240.338
 20
0.111621
 30
0.0
 11
237.038
 21
0.111621
 31
0.0
  0
LINE
  8
0
 62
     0
 10
237.038
 20
0.111621
 30
0.0
 11
237.038
 21
1.09141
 31
0.0
  0
LINE
  8
0
 62
     0
 10
237.038
 20
1.09141
 30
0.0
 11
235.363
 21
1.09141
 31
0.0
  0
LINE
  8
0
 62
     0
 10
235.363
 20
1.09141
 30
0.0
 11
235.363
 21
5.56175
 31
0.0
  0
LINE
  8
0
 62
     0
 10
235.363
 20
5.56175
 30
0.0
 11
195.688
 21
5.56175
 31
0.0
  0
LINE
  8
0
 62
     0
 10
195.688
 20
5.56175
 30
0.0
 11
195.688
 21
4.96231
 31
0.0
  0
LINE
  8
0
 62
     0
 10
195.688
 20
4.96231
 30
0.0
 11
196.488
 21
4.96231
 31
0.0
  0
LINE
  8
0
 62
     0
 10
196.488
 20
4.96231
 30
0.0
 11
196.488
 21
1.86173
 31
0.0
  0
LINE
  8
0
 62
     0
 10
196.488
 20
1.86173
 30
0.0
 11
195.688
 21
1.86173
 31
0.0
  0
LINE
  8
0
 62
     0
 10
195.688
 20
1.86173
 30
0.0
 11
195.688
 21
0.862651
 31
0.0
  0
LINE
  8
0
 62
     0
 10
195.688
 20
0.862651
 30
0.0
 11
181.688
 21
0.862651
 31
0.0
  0
LINE
  8
0
 62
     0
 10
181.688
 20
0.862651
 30
0.0
 11
181.688
 21
1.86173
 31
0.0
  0
LINE
  8
0
 62
     0
 10
181.688
 20
1.86173
 30
0.0
 11
180.888
 21
1.86173
 31
0.0
  0
LINE
  8
0
 62
     0
 10
180.888
 20
1.86173
 30
0.0
 11
180.888
 21
4.96231
 31
0.0
  0
LINE
  8
0
 62
     0
 10
180.888
 20
4.96231
 30
0.0
 11
181.688
 21
4.96231
 31
0.0
  0
LINE
  8
0
 62
     0
 10
181.688
 20
4.96231
 30
0.0
 11
181.688
 21
5.56175
 31
0.0
  0
LINE
  8
0
 62
     0
 10
181.688
 20
5.56175
 30
0.0
 11
142.012
 21
5.56175
 31
0.0
  0
LINE
  8
0
 62
     0
 10
142.012
 20
5.56175
 30
0.0
 11
142.012
 21
1.09141
 31
0.0
  0
LINE
  8
0
 62
     0
 10
142.012
 20
1.09141
 30
0.0
 11
140.338
 21
1.09141
 31
0.0
  0
LINE
  8
0
 62
     0
 10
140.338
 20
1.09141
 30
0.0
 11
140.338
 21
0.111621
 31
0.0
  0
LINE
  8
0
 62
     0
 10
140.338
 20
0.111621
 30
0.0
 11
137.038
 21
0.111621
 31
0.0
  0
LINE
  8
0
 62
     0
 10
137.038
 20
0.111621
 30
0.0
 11
137.038
 21
1.09141
 31
0.0
  0
LINE
  8
0
 62
     0
 10
137.038
 20
1.09141
 30
0.0
 11
135.363
 21
1.09141
 31
0.0
  0
LINE
  8
0
 62
     0
 10
135.363
 20
1.09141
 30
0.0
 11
135.363
 21
7.36148
 31
0.0
  0
LINE
  8
0
 62
     0
 10
135.363
 20
7.36148
 30
0.0
 11
134.488
 21
7.36148
 31
0.0
  0
LINE
  8
0
 62
     0
 10
134.488
 20
7.36148
 30
0.0
 11
134.488
 21
10.1617
 31
0.0
  0
LINE
  8
0
 62
     0
 10
134.488
 20
10.1617
 30
0.0
 11
135.363
 21
10.1617
 31
0.0
  0
LINE
  8
0
 62
     0
 10
135.363
 20
10.1617
 30
0.0
 11
135.363
 21
13.3918
 31
0.0
  0
LINE
  8
0
 62
     0
 10
135.363
 20
13.3918
 30
0.0
 11
137.038
 21
13.3918
 31
0.0
  0
LINE
  8
0
 62
     0
 10
137.038
 20
13.3918
 30
0.0
 11
137.038
 21
14.3123
 31
0.0
  0
LINE
  8
0
 62
     0
 10
137.038
 20
14.3123
 30
0.0
 11
140.338
 21
14.3123
 31
0.0
  0
LINE
  8
0
 62
     0
 10
140.338
 20
14.3123
 30
0.0
 11
140.338
 21
13.3918
 31
0.0
  0
LINE
  8
0
 62
     0
 10
140.338
 20
13.3918
 30
0.0
 11
142.012
 21
13.3918
 31
0.0
  0
LINE
  8
0
 62
     0
 10
142.012
 20
13.3918
 30
0.0
 11
142.012
 21
10.1617
 31
0.0
  0
LINE
  8
0
 62
     0
 10
142.012
 20
10.1617
 30
0.0
 11
181.688
 21
10.1617
 31
0.0
  0
LINE
  8
0
 62
     0
 10
181.688
 20
10.1617
 30
0.0
 11
181.688
 21
10.7625
 31
0.0
  0
LINE
  8
0
 62
     0
 10
181.688
 20
10.7625
 30
0.0
 11
180.888
 21
10.7625
 31
0.0
  0
LINE
  8
0
 62
     0
 10
180.888
 20
10.7625
 30
0.0
 11
180.888
 21
13.8617
 31
0.0
  0
LINE
  8
0
 62
     0
 10
180.888
 20
13.8617
 30
0.0
 11
181.688
 21
13.8617
 31
0.0
  0
LINE
  8
0
 62
     0
 10
181.688
 20
13.8617
 30
0.0
 11
181.688
 21
14.8621
 31
0.0
  0
LINE
  8
0
 62
     0
 10
181.688
 20
14.8621
 30
0.0
 11
195.688
 21
14.8621
 31
0.0
  0
LINE
  8
0
 62
     0
 10
195.688
 20
14.8621
 30
0.0
 11
195.688
 21
13.8617
 31
0.0
  0
LINE
  8
0
 62
     0
 10
195.688
 20
13.8617
 30
0.0
 11
196.488
 21
13.8617
 31
0.0
  0
LINE
  8
0
 62
     0
 10
196.488
 20
13.8617
 30
0.0
 11
196.488
 21
10.7625
 31
0.0
  0
LINE
  8
0
 62
     0
 10
196.488
 20
10.7625
 30
0.0
 11
195.688
 21
10.7625
 31
0.0
  0
LINE
  8
0
 62
     0
 10
195.688
 20
10.7625
 30
0.0
 11
195.688
 21
10.1617
 31
0.0
  0
LINE
  8
0
 62
     0
 10
195.688
 20
10.1617
 30
0.0
 11
235.363
 21
10.1617
 31
0.0
  0
LINE
  8
0
 62
     0
 10
235.363
 20
10.1617
 30
0.0
 11
235.363
 21
13.3918
 31
0.0
  0
LINE
  8
0
 62
     0
 10
235.363
 20
13.3918
 30
0.0
 11
237.038
 21
13.3918
 31
0.0
  0
LINE
  8
0
 62
     0
 10
237.038
 20
13.3918
 30
0.0
 11
237.038
 21
14.3123
 31
0.0
  0
LINE
  8
0
 62
     0
 10
237.038
 20
14.3123
 30
0.0
 11
240.338
 21
14.3123
 31
0.0
  0
LINE
  8
0
 62
     0
 10
240.338
 20
14.3123
 30
0.0
 11
240.338
 21
13.3918
 31
0.0
  0
LINE
  8
0
 62
     0
 10
240.338
 20
13.3918
 30
0.0
 11
242.013
 21
13.3918
 31
0.0
  0
LINE
  8
0
 62
     0
 10
242.013
 20
13.3918
 30
0.0
 11
242.013
 21
10.1617
 31
0.0
  0
LINE
  8
0
 62
     0
 10
242.013
 20
10.1617
 30
0.0
 11
242.888
 21
10.1617
 31
0.0
  0
LINE
  8
0
 62
     0
 10
242.888
 20
10.1617
 30
0.0
 11
242.888
 21
7.36148
 31
0.0
  0
LINE
  8
0
 62
     0
 10
242.888
 20
7.36148
 30
0.0
 11
242.013
 21
7.36148
 31
0.0
  0
ENDSEC
  0
EOF
