  0
SECTION
  2
HEADER
  9
$ACADVER
  1
AC1009
  9
$EXTMIN
 10
0.0
 20
0.0
 30
0.0
  9
$EXTMAX
 10
1000.0
 20
1000.0
 30
0.0
  9
$FILLMODE
 70
 0
  9
$SPLFRAME
 70
 1
  0
ENDSEC
  0
SECTION
  2
TABLES
  0
TABLE
  2
LAYER
 70
1
  0
LAYER
  2
0
 70
     0
 62
     7
  6
CONTINUOUS
  0
ENDTAB
  0
ENDSEC
  0
SECTION
  2
ENTITIES
  0
LINE
  8
0
 62
     0
 10
238.694
 20
88.313
 30
0.0
 11
238.851
 21
88.3073
 31
0.0
  0
LINE
  8
0
 62
     0
 10
238.851
 20
88.3073
 30
0.0
 11
239.007
 21
88.2883
 31
0.0
  0
LINE
  8
0
 62
     0
 10
239.007
 20
88.2883
 30
0.0
 11
239.161
 21
88.2579
 31
0.0
  0
LINE
  8
0
 62
     0
 10
239.161
 20
88.2579
 30
0.0
 11
239.311
 21
88.2153
 31
0.0
  0
LINE
  8
0
 62
     0
 10
239.311
 20
88.2153
 30
0.0
 11
239.459
 21
88.1613
 31
0.0
  0
LINE
  8
0
 62
     0
 10
239.459
 20
88.1613
 30
0.0
 11
239.602
 21
88.0953
 31
0.0
  0
LINE
  8
0
 62
     0
 10
239.602
 20
88.0953
 30
0.0
 11
239.739
 21
88.0181
 31
0.0
  0
LINE
  8
0
 62
     0
 10
239.739
 20
88.0181
 30
0.0
 11
239.869
 21
87.9313
 31
0.0
  0
LINE
  8
0
 62
     0
 10
239.869
 20
87.9313
 30
0.0
 11
239.992
 21
87.8336
 31
0.0
  0
LINE
  8
0
 62
     0
 10
239.992
 20
87.8336
 30
0.0
 11
240.108
 21
87.7274
 31
0.0
  0
LINE
  8
0
 62
     0
 10
240.108
 20
87.7274
 30
0.0
 11
240.214
 21
87.6117
 31
0.0
  0
LINE
  8
0
 62
     0
 10
240.214
 20
87.6117
 30
0.0
 11
240.312
 21
87.4889
 31
0.0
  0
LINE
  8
0
 62
     0
 10
240.312
 20
87.4889
 30
0.0
 11
240.399
 21
87.358
 31
0.0
  0
LINE
  8
0
 62
     0
 10
240.399
 20
87.358
 30
0.0
 11
240.476
 21
87.2215
 31
0.0
  0
LINE
  8
0
 62
     0
 10
240.476
 20
87.2215
 30
0.0
 11
240.542
 21
87.0783
 31
0.0
  0
LINE
  8
0
 62
     0
 10
240.542
 20
87.0783
 30
0.0
 11
240.596
 21
86.9308
 31
0.0
  0
LINE
  8
0
 62
     0
 10
240.596
 20
86.9308
 30
0.0
 11
240.639
 21
86.7805
 31
0.0
  0
LINE
  8
0
 62
     0
 10
240.639
 20
86.7805
 30
0.0
 11
240.669
 21
86.6263
 31
0.0
  0
LINE
  8
0
 62
     0
 10
240.669
 20
86.6263
 30
0.0
 11
240.688
 21
86.4704
 31
0.0
  0
LINE
  8
0
 62
     0
 10
240.688
 20
86.4704
 30
0.0
 11
240.694
 21
86.3134
 31
0.0
  0
LINE
  8
0
 62
     0
 10
240.694
 20
86.3134
 30
0.0
 11
240.694
 21
2.11253
 31
0.0
  0
LINE
  8
0
 62
     0
 10
240.694
 20
2.11253
 30
0.0
 11
240.688
 21
1.95544
 31
0.0
  0
LINE
  8
0
 62
     0
 10
240.688
 20
1.95544
 30
0.0
 11
240.669
 21
1.79972
 31
0.0
  0
LINE
  8
0
 62
     0
 10
240.669
 20
1.79972
 30
0.0
 11
240.639
 21
1.64538
 31
0.0
  0
LINE
  8
0
 62
     0
 10
240.639
 20
1.64538
 30
0.0
 11
240.596
 21
1.49517
 31
0.0
  0
LINE
  8
0
 62
     0
 10
240.596
 20
1.49517
 30
0.0
 11
240.542
 21
1.34772
 31
0.0
  0
LINE
  8
0
 62
     0
 10
240.542
 20
1.34772
 30
0.0
 11
240.476
 21
1.2044
 31
0.0
  0
LINE
  8
0
 62
     0
 10
240.476
 20
1.2044
 30
0.0
 11
240.399
 21
1.06798
 31
0.0
  0
LINE
  8
0
 62
     0
 10
240.399
 20
1.06798
 30
0.0
 11
240.312
 21
0.937066
 31
0.0
  0
LINE
  8
0
 62
     0
 10
240.312
 20
0.937066
 30
0.0
 11
240.214
 21
0.814419
 31
0.0
  0
LINE
  8
0
 62
     0
 10
240.214
 20
0.814419
 30
0.0
 11
240.108
 21
0.698666
 31
0.0
  0
LINE
  8
0
 62
     0
 10
240.108
 20
0.698666
 30
0.0
 11
239.992
 21
0.592557
 31
0.0
  0
LINE
  8
0
 62
     0
 10
239.992
 20
0.592557
 30
0.0
 11
239.869
 21
0.494714
 31
0.0
  0
LINE
  8
0
 62
     0
 10
239.869
 20
0.494714
 30
0.0
 11
239.739
 21
0.407899
 31
0.0
  0
LINE
  8
0
 62
     0
 10
239.739
 20
0.407899
 30
0.0
 11
239.602
 21
0.330729
 31
0.0
  0
LINE
  8
0
 62
     0
 10
239.602
 20
0.330729
 30
0.0
 11
239.459
 21
0.264583
 31
0.0
  0
LINE
  8
0
 62
     0
 10
239.459
 20
0.264583
 30
0.0
 11
239.311
 21
0.21084
 31
0.0
  0
LINE
  8
0
 62
     0
 10
239.311
 20
0.21084
 30
0.0
 11
239.161
 21
0.168121
 31
0.0
  0
LINE
  8
0
 62
     0
 10
239.161
 20
0.168121
 30
0.0
 11
239.007
 21
0.137804
 31
0.0
  0
LINE
  8
0
 62
     0
 10
239.007
 20
0.137804
 30
0.0
 11
238.851
 21
0.118511
 31
0.0
  0
LINE
  8
0
 62
     0
 10
238.851
 20
0.118511
 30
0.0
 11
238.694
 21
0.112999
 31
0.0
  0
LINE
  8
0
 62
     0
 10
238.694
 20
0.112999
 30
0.0
 11
2.09324
 21
0.112999
 31
0.0
  0
LINE
  8
0
 62
     0
 10
2.09324
 20
0.112999
 30
0.0
 11
1.93614
 21
0.118511
 31
0.0
  0
LINE
  8
0
 62
     0
 10
1.93614
 20
0.118511
 30
0.0
 11
1.78043
 21
0.137804
 31
0.0
  0
LINE
  8
0
 62
     0
 10
1.78043
 20
0.137804
 30
0.0
 11
1.62609
 21
0.168121
 31
0.0
  0
LINE
  8
0
 62
     0
 10
1.62609
 20
0.168121
 30
0.0
 11
1.47588
 21
0.21084
 31
0.0
  0
LINE
  8
0
 62
     0
 10
1.47588
 20
0.21084
 30
0.0
 11
1.32843
 21
0.264583
 31
0.0
  0
LINE
  8
0
 62
     0
 10
1.32843
 20
0.264583
 30
0.0
 11
1.18511
 21
0.330729
 31
0.0
  0
LINE
  8
0
 62
     0
 10
1.18511
 20
0.330729
 30
0.0
 11
1.04869
 21
0.407899
 31
0.0
  0
LINE
  8
0
 62
     0
 10
1.04869
 20
0.407899
 30
0.0
 11
0.917773
 21
0.494714
 31
0.0
  0
LINE
  8
0
 62
     0
 10
0.917773
 20
0.494714
 30
0.0
 11
0.795129
 21
0.592557
 31
0.0
  0
LINE
  8
0
 62
     0
 10
0.795129
 20
0.592557
 30
0.0
 11
0.679372
 21
0.698666
 31
0.0
  0
LINE
  8
0
 62
     0
 10
0.679372
 20
0.698666
 30
0.0
 11
0.573264
 21
0.814419
 31
0.0
  0
LINE
  8
0
 62
     0
 10
0.573264
 20
0.814419
 30
0.0
 11
0.475424
 21
0.937066
 31
0.0
  0
LINE
  8
0
 62
     0
 10
0.475424
 20
0.937066
 30
0.0
 11
0.388606
 21
1.06798
 31
0.0
  0
LINE
  8
0
 62
     0
 10
0.388606
 20
1.06798
 30
0.0
 11
0.311437
 21
1.2044
 31
0.0
  0
LINE
  8
0
 62
     0
 10
0.311437
 20
1.2044
 30
0.0
 11
0.245291
 21
1.34772
 31
0.0
  0
LINE
  8
0
 62
     0
 10
0.245291
 20
1.34772
 30
0.0
 11
0.191547
 21
1.49517
 31
0.0
  0
LINE
  8
0
 62
     0
 10
0.191547
 20
1.49517
 30
0.0
 11
0.148828
 21
1.64538
 31
0.0
  0
LINE
  8
0
 62
     0
 10
0.148828
 20
1.64538
 30
0.0
 11
0.118511
 21
1.79972
 31
0.0
  0
LINE
  8
0
 62
     0
 10
0.118511
 20
1.79972
 30
0.0
 11
0.0992188
 21
1.95544
 31
0.0
  0
LINE
  8
0
 62
     0
 10
0.0992188
 20
1.95544
 30
0.0
 11
0.0937066
 21
2.11253
 31
0.0
  0
LINE
  8
0
 62
     0
 10
0.0937066
 20
2.11253
 30
0.0
 11
0.0937066
 21
86.3134
 31
0.0
  0
LINE
  8
0
 62
     0
 10
0.0937066
 20
86.3134
 30
0.0
 11
0.0992188
 21
86.4704
 31
0.0
  0
LINE
  8
0
 62
     0
 10
0.0992188
 20
86.4704
 30
0.0
 11
0.118511
 21
86.6263
 31
0.0
  0
LINE
  8
0
 62
     0
 10
0.118511
 20
86.6263
 30
0.0
 11
0.148828
 21
86.7805
 31
0.0
  0
LINE
  8
0
 62
     0
 10
0.148828
 20
86.7805
 30
0.0
 11
0.191547
 21
86.9308
 31
0.0
  0
LINE
  8
0
 62
     0
 10
0.191547
 20
86.9308
 30
0.0
 11
0.245291
 21
87.0783
 31
0.0
  0
LINE
  8
0
 62
     0
 10
0.245291
 20
87.0783
 30
0.0
 11
0.311437
 21
87.2215
 31
0.0
  0
LINE
  8
0
 62
     0
 10
0.311437
 20
87.2215
 30
0.0
 11
0.388606
 21
87.358
 31
0.0
  0
LINE
  8
0
 62
     0
 10
0.388606
 20
87.358
 30
0.0
 11
0.475424
 21
87.4889
 31
0.0
  0
LINE
  8
0
 62
     0
 10
0.475424
 20
87.4889
 30
0.0
 11
0.573264
 21
87.6117
 31
0.0
  0
LINE
  8
0
 62
     0
 10
0.573264
 20
87.6117
 30
0.0
 11
0.679372
 21
87.7274
 31
0.0
  0
LINE
  8
0
 62
     0
 10
0.679372
 20
87.7274
 30
0.0
 11
0.795129
 21
87.8336
 31
0.0
  0
LINE
  8
0
 62
     0
 10
0.795129
 20
87.8336
 30
0.0
 11
0.917773
 21
87.9313
 31
0.0
  0
LINE
  8
0
 62
     0
 10
0.917773
 20
87.9313
 30
0.0
 11
1.04869
 21
88.0181
 31
0.0
  0
LINE
  8
0
 62
     0
 10
1.04869
 20
88.0181
 30
0.0
 11
1.18511
 21
88.0953
 31
0.0
  0
LINE
  8
0
 62
     0
 10
1.18511
 20
88.0953
 30
0.0
 11
1.32843
 21
88.1613
 31
0.0
  0
LINE
  8
0
 62
     0
 10
1.32843
 20
88.1613
 30
0.0
 11
1.47588
 21
88.2153
 31
0.0
  0
LINE
  8
0
 62
     0
 10
1.47588
 20
88.2153
 30
0.0
 11
1.62609
 21
88.2579
 31
0.0
  0
LINE
  8
0
 62
     0
 10
1.62609
 20
88.2579
 30
0.0
 11
1.78043
 21
88.2883
 31
0.0
  0
LINE
  8
0
 62
     0
 10
1.78043
 20
88.2883
 30
0.0
 11
1.93614
 21
88.3073
 31
0.0
  0
LINE
  8
0
 62
     0
 10
1.93614
 20
88.3073
 30
0.0
 11
2.09324
 21
88.313
 31
0.0
  0
LINE
  8
0
 62
     0
 10
2.09324
 20
88.313
 30
0.0
 11
238.694
 21
88.313
 31
0.0
  0
LINE
  8
0
 62
     0
 10
81.2934
 20
86.8123
 30
0.0
 11
81.7577
 21
86.7392
 31
0.0
  0
LINE
  8
0
 62
     0
 10
81.7577
 20
86.7392
 30
0.0
 11
82.1754
 21
86.5269
 31
0.0
  0
LINE
  8
0
 62
     0
 10
82.1754
 20
86.5269
 30
0.0
 11
82.5073
 21
86.1949
 31
0.0
  0
LINE
  8
0
 62
     0
 10
82.5073
 20
86.1949
 30
0.0
 11
82.7207
 21
85.7772
 31
0.0
  0
LINE
  8
0
 62
     0
 10
82.7207
 20
85.7772
 30
0.0
 11
82.7938
 21
85.313
 31
0.0
  0
LINE
  8
0
 62
     0
 10
82.7938
 20
85.313
 30
0.0
 11
82.7207
 21
84.8487
 31
0.0
  0
LINE
  8
0
 62
     0
 10
82.7207
 20
84.8487
 30
0.0
 11
82.5073
 21
84.431
 31
0.0
  0
LINE
  8
0
 62
     0
 10
82.5073
 20
84.431
 30
0.0
 11
82.1754
 21
84.099
 31
0.0
  0
LINE
  8
0
 62
     0
 10
82.1754
 20
84.099
 30
0.0
 11
81.7577
 21
83.8853
 31
0.0
  0
LINE
  8
0
 62
     0
 10
81.7577
 20
83.8853
 30
0.0
 11
81.2934
 21
83.8122
 31
0.0
  0
LINE
  8
0
 62
     0
 10
81.2934
 20
83.8122
 30
0.0
 11
80.8302
 21
83.8853
 31
0.0
  0
LINE
  8
0
 62
     0
 10
80.8302
 20
83.8853
 30
0.0
 11
80.4115
 21
84.099
 31
0.0
  0
LINE
  8
0
 62
     0
 10
80.4115
 20
84.099
 30
0.0
 11
80.0791
 21
84.431
 31
0.0
  0
LINE
  8
0
 62
     0
 10
80.0791
 20
84.431
 30
0.0
 11
79.8671
 21
84.8487
 31
0.0
  0
LINE
  8
0
 62
     0
 10
79.8671
 20
84.8487
 30
0.0
 11
79.7941
 21
85.313
 31
0.0
  0
LINE
  8
0
 62
     0
 10
79.7941
 20
85.313
 30
0.0
 11
79.8671
 21
85.7772
 31
0.0
  0
LINE
  8
0
 62
     0
 10
79.8671
 20
85.7772
 30
0.0
 11
80.0791
 21
86.1949
 31
0.0
  0
LINE
  8
0
 62
     0
 10
80.0791
 20
86.1949
 30
0.0
 11
80.4115
 21
86.5269
 31
0.0
  0
LINE
  8
0
 62
     0
 10
80.4115
 20
86.5269
 30
0.0
 11
80.8302
 21
86.7392
 31
0.0
  0
LINE
  8
0
 62
     0
 10
80.8302
 20
86.7392
 30
0.0
 11
81.2934
 21
86.8123
 31
0.0
  0
LINE
  8
0
 62
     0
 10
159.494
 20
86.8123
 30
0.0
 11
159.957
 21
86.7392
 31
0.0
  0
LINE
  8
0
 62
     0
 10
159.957
 20
86.7392
 30
0.0
 11
160.376
 21
86.5269
 31
0.0
  0
LINE
  8
0
 62
     0
 10
160.376
 20
86.5269
 30
0.0
 11
160.708
 21
86.1949
 31
0.0
  0
LINE
  8
0
 62
     0
 10
160.708
 20
86.1949
 30
0.0
 11
160.92
 21
85.7772
 31
0.0
  0
LINE
  8
0
 62
     0
 10
160.92
 20
85.7772
 30
0.0
 11
160.993
 21
85.313
 31
0.0
  0
LINE
  8
0
 62
     0
 10
160.993
 20
85.313
 30
0.0
 11
160.92
 21
84.8487
 31
0.0
  0
LINE
  8
0
 62
     0
 10
160.92
 20
84.8487
 30
0.0
 11
160.708
 21
84.431
 31
0.0
  0
LINE
  8
0
 62
     0
 10
160.708
 20
84.431
 30
0.0
 11
160.376
 21
84.099
 31
0.0
  0
LINE
  8
0
 62
     0
 10
160.376
 20
84.099
 30
0.0
 11
159.957
 21
83.8853
 31
0.0
  0
LINE
  8
0
 62
     0
 10
159.957
 20
83.8853
 30
0.0
 11
159.494
 21
83.8122
 31
0.0
  0
LINE
  8
0
 62
     0
 10
159.494
 20
83.8122
 30
0.0
 11
159.03
 21
83.8853
 31
0.0
  0
LINE
  8
0
 62
     0
 10
159.03
 20
83.8853
 30
0.0
 11
158.612
 21
84.099
 31
0.0
  0
LINE
  8
0
 62
     0
 10
158.612
 20
84.099
 30
0.0
 11
158.28
 21
84.431
 31
0.0
  0
LINE
  8
0
 62
     0
 10
158.28
 20
84.431
 30
0.0
 11
158.067
 21
84.8487
 31
0.0
  0
LINE
  8
0
 62
     0
 10
158.067
 20
84.8487
 30
0.0
 11
157.993
 21
85.313
 31
0.0
  0
LINE
  8
0
 62
     0
 10
157.993
 20
85.313
 30
0.0
 11
158.067
 21
85.7772
 31
0.0
  0
LINE
  8
0
 62
     0
 10
158.067
 20
85.7772
 30
0.0
 11
158.28
 21
86.1949
 31
0.0
  0
LINE
  8
0
 62
     0
 10
158.28
 20
86.1949
 30
0.0
 11
158.612
 21
86.5269
 31
0.0
  0
LINE
  8
0
 62
     0
 10
158.612
 20
86.5269
 30
0.0
 11
159.03
 21
86.7392
 31
0.0
  0
LINE
  8
0
 62
     0
 10
159.03
 20
86.7392
 30
0.0
 11
159.494
 21
86.8123
 31
0.0
  0
LINE
  8
0
 62
     0
 10
237.694
 20
86.8123
 30
0.0
 11
238.158
 21
86.7392
 31
0.0
  0
LINE
  8
0
 62
     0
 10
238.158
 20
86.7392
 30
0.0
 11
238.575
 21
86.5269
 31
0.0
  0
LINE
  8
0
 62
     0
 10
238.575
 20
86.5269
 30
0.0
 11
238.908
 21
86.1949
 31
0.0
  0
LINE
  8
0
 62
     0
 10
238.908
 20
86.1949
 30
0.0
 11
239.121
 21
85.7772
 31
0.0
  0
LINE
  8
0
 62
     0
 10
239.121
 20
85.7772
 30
0.0
 11
239.194
 21
85.313
 31
0.0
  0
LINE
  8
0
 62
     0
 10
239.194
 20
85.313
 30
0.0
 11
239.121
 21
84.8487
 31
0.0
  0
LINE
  8
0
 62
     0
 10
239.121
 20
84.8487
 30
0.0
 11
238.908
 21
84.431
 31
0.0
  0
LINE
  8
0
 62
     0
 10
238.908
 20
84.431
 30
0.0
 11
238.575
 21
84.099
 31
0.0
  0
LINE
  8
0
 62
     0
 10
238.575
 20
84.099
 30
0.0
 11
238.158
 21
83.8853
 31
0.0
  0
LINE
  8
0
 62
     0
 10
238.158
 20
83.8853
 30
0.0
 11
237.694
 21
83.8122
 31
0.0
  0
LINE
  8
0
 62
     0
 10
237.694
 20
83.8122
 30
0.0
 11
237.229
 21
83.8853
 31
0.0
  0
LINE
  8
0
 62
     0
 10
237.229
 20
83.8853
 30
0.0
 11
236.812
 21
84.099
 31
0.0
  0
LINE
  8
0
 62
     0
 10
236.812
 20
84.099
 30
0.0
 11
236.48
 21
84.431
 31
0.0
  0
LINE
  8
0
 62
     0
 10
236.48
 20
84.431
 30
0.0
 11
236.267
 21
84.8487
 31
0.0
  0
LINE
  8
0
 62
     0
 10
236.267
 20
84.8487
 30
0.0
 11
236.194
 21
85.313
 31
0.0
  0
LINE
  8
0
 62
     0
 10
236.194
 20
85.313
 30
0.0
 11
236.267
 21
85.7772
 31
0.0
  0
LINE
  8
0
 62
     0
 10
236.267
 20
85.7772
 30
0.0
 11
236.48
 21
86.1949
 31
0.0
  0
LINE
  8
0
 62
     0
 10
236.48
 20
86.1949
 30
0.0
 11
236.812
 21
86.5269
 31
0.0
  0
LINE
  8
0
 62
     0
 10
236.812
 20
86.5269
 30
0.0
 11
237.229
 21
86.7392
 31
0.0
  0
LINE
  8
0
 62
     0
 10
237.229
 20
86.7392
 30
0.0
 11
237.694
 21
86.8123
 31
0.0
  0
LINE
  8
0
 62
     0
 10
237.694
 20
4.61229
 30
0.0
 11
238.158
 21
4.53926
 31
0.0
  0
LINE
  8
0
 62
     0
 10
238.158
 20
4.53926
 30
0.0
 11
238.575
 21
4.32703
 31
0.0
  0
LINE
  8
0
 62
     0
 10
238.575
 20
4.32703
 30
0.0
 11
238.908
 21
3.99493
 31
0.0
  0
LINE
  8
0
 62
     0
 10
238.908
 20
3.99493
 30
0.0
 11
239.121
 21
3.57738
 31
0.0
  0
LINE
  8
0
 62
     0
 10
239.121
 20
3.57738
 30
0.0
 11
239.194
 21
3.11299
 31
0.0
  0
LINE
  8
0
 62
     0
 10
239.194
 20
3.11299
 30
0.0
 11
239.121
 21
2.64859
 31
0.0
  0
LINE
  8
0
 62
     0
 10
239.121
 20
2.64859
 30
0.0
 11
238.908
 21
2.23104
 31
0.0
  0
LINE
  8
0
 62
     0
 10
238.908
 20
2.23104
 30
0.0
 11
238.575
 21
1.89894
 31
0.0
  0
LINE
  8
0
 62
     0
 10
238.575
 20
1.89894
 30
0.0
 11
238.158
 21
1.68534
 31
0.0
  0
LINE
  8
0
 62
     0
 10
238.158
 20
1.68534
 30
0.0
 11
237.694
 21
1.6123
 31
0.0
  0
LINE
  8
0
 62
     0
 10
237.694
 20
1.6123
 30
0.0
 11
237.229
 21
1.68534
 31
0.0
  0
LINE
  8
0
 62
     0
 10
237.229
 20
1.68534
 30
0.0
 11
236.812
 21
1.89894
 31
0.0
  0
LINE
  8
0
 62
     0
 10
236.812
 20
1.89894
 30
0.0
 11
236.48
 21
2.23104
 31
0.0
  0
LINE
  8
0
 62
     0
 10
236.48
 20
2.23104
 30
0.0
 11
236.267
 21
2.64859
 31
0.0
  0
LINE
  8
0
 62
     0
 10
236.267
 20
2.64859
 30
0.0
 11
236.194
 21
3.11299
 31
0.0
  0
LINE
  8
0
 62
     0
 10
236.194
 20
3.11299
 30
0.0
 11
236.267
 21
3.57738
 31
0.0
  0
LINE
  8
0
 62
     0
 10
236.267
 20
3.57738
 30
0.0
 11
236.48
 21
3.99493
 31
0.0
  0
LINE
  8
0
 62
     0
 10
236.48
 20
3.99493
 30
0.0
 11
236.812
 21
4.32703
 31
0.0
  0
LINE
  8
0
 62
     0
 10
236.812
 20
4.32703
 30
0.0
 11
237.229
 21
4.53926
 31
0.0
  0
LINE
  8
0
 62
     0
 10
237.229
 20
4.53926
 30
0.0
 11
237.694
 21
4.61229
 31
0.0
  0
LINE
  8
0
 62
     0
 10
159.494
 20
4.61229
 30
0.0
 11
159.957
 21
4.53926
 31
0.0
  0
LINE
  8
0
 62
     0
 10
159.957
 20
4.53926
 30
0.0
 11
160.376
 21
4.32703
 31
0.0
  0
LINE
  8
0
 62
     0
 10
160.376
 20
4.32703
 30
0.0
 11
160.708
 21
3.99493
 31
0.0
  0
LINE
  8
0
 62
     0
 10
160.708
 20
3.99493
 30
0.0
 11
160.92
 21
3.57738
 31
0.0
  0
LINE
  8
0
 62
     0
 10
160.92
 20
3.57738
 30
0.0
 11
160.993
 21
3.11299
 31
0.0
  0
LINE
  8
0
 62
     0
 10
160.993
 20
3.11299
 30
0.0
 11
160.92
 21
2.64859
 31
0.0
  0
LINE
  8
0
 62
     0
 10
160.92
 20
2.64859
 30
0.0
 11
160.708
 21
2.23104
 31
0.0
  0
LINE
  8
0
 62
     0
 10
160.708
 20
2.23104
 30
0.0
 11
160.376
 21
1.89894
 31
0.0
  0
LINE
  8
0
 62
     0
 10
160.376
 20
1.89894
 30
0.0
 11
159.957
 21
1.68534
 31
0.0
  0
LINE
  8
0
 62
     0
 10
159.957
 20
1.68534
 30
0.0
 11
159.494
 21
1.6123
 31
0.0
  0
LINE
  8
0
 62
     0
 10
159.494
 20
1.6123
 30
0.0
 11
159.03
 21
1.68534
 31
0.0
  0
LINE
  8
0
 62
     0
 10
159.03
 20
1.68534
 30
0.0
 11
158.612
 21
1.89894
 31
0.0
  0
LINE
  8
0
 62
     0
 10
158.612
 20
1.89894
 30
0.0
 11
158.28
 21
2.23104
 31
0.0
  0
LINE
  8
0
 62
     0
 10
158.28
 20
2.23104
 30
0.0
 11
158.067
 21
2.64859
 31
0.0
  0
LINE
  8
0
 62
     0
 10
158.067
 20
2.64859
 30
0.0
 11
157.993
 21
3.11299
 31
0.0
  0
LINE
  8
0
 62
     0
 10
157.993
 20
3.11299
 30
0.0
 11
158.067
 21
3.57738
 31
0.0
  0
LINE
  8
0
 62
     0
 10
158.067
 20
3.57738
 30
0.0
 11
158.28
 21
3.99493
 31
0.0
  0
LINE
  8
0
 62
     0
 10
158.28
 20
3.99493
 30
0.0
 11
158.612
 21
4.32703
 31
0.0
  0
LINE
  8
0
 62
     0
 10
158.612
 20
4.32703
 30
0.0
 11
159.03
 21
4.53926
 31
0.0
  0
LINE
  8
0
 62
     0
 10
159.03
 20
4.53926
 30
0.0
 11
159.494
 21
4.61229
 31
0.0
  0
LINE
  8
0
 62
     0
 10
81.2934
 20
4.61229
 30
0.0
 11
81.7577
 21
4.53926
 31
0.0
  0
LINE
  8
0
 62
     0
 10
81.7577
 20
4.53926
 30
0.0
 11
82.1754
 21
4.32703
 31
0.0
  0
LINE
  8
0
 62
     0
 10
82.1754
 20
4.32703
 30
0.0
 11
82.5073
 21
3.99493
 31
0.0
  0
LINE
  8
0
 62
     0
 10
82.5073
 20
3.99493
 30
0.0
 11
82.7207
 21
3.57738
 31
0.0
  0
LINE
  8
0
 62
     0
 10
82.7207
 20
3.57738
 30
0.0
 11
82.7938
 21
3.11299
 31
0.0
  0
LINE
  8
0
 62
     0
 10
82.7938
 20
3.11299
 30
0.0
 11
82.7207
 21
2.64859
 31
0.0
  0
LINE
  8
0
 62
     0
 10
82.7207
 20
2.64859
 30
0.0
 11
82.5073
 21
2.23104
 31
0.0
  0
LINE
  8
0
 62
     0
 10
82.5073
 20
2.23104
 30
0.0
 11
82.1754
 21
1.89894
 31
0.0
  0
LINE
  8
0
 62
     0
 10
82.1754
 20
1.89894
 30
0.0
 11
81.7577
 21
1.68534
 31
0.0
  0
LINE
  8
0
 62
     0
 10
81.7577
 20
1.68534
 30
0.0
 11
81.2934
 21
1.6123
 31
0.0
  0
LINE
  8
0
 62
     0
 10
81.2934
 20
1.6123
 30
0.0
 11
80.8302
 21
1.68534
 31
0.0
  0
LINE
  8
0
 62
     0
 10
80.8302
 20
1.68534
 30
0.0
 11
80.4115
 21
1.89894
 31
0.0
  0
LINE
  8
0
 62
     0
 10
80.4115
 20
1.89894
 30
0.0
 11
80.0791
 21
2.23104
 31
0.0
  0
LINE
  8
0
 62
     0
 10
80.0791
 20
2.23104
 30
0.0
 11
79.8671
 21
2.64859
 31
0.0
  0
LINE
  8
0
 62
     0
 10
79.8671
 20
2.64859
 30
0.0
 11
79.7941
 21
3.11299
 31
0.0
  0
LINE
  8
0
 62
     0
 10
79.7941
 20
3.11299
 30
0.0
 11
79.8671
 21
3.57738
 31
0.0
  0
LINE
  8
0
 62
     0
 10
79.8671
 20
3.57738
 30
0.0
 11
80.0791
 21
3.99493
 31
0.0
  0
LINE
  8
0
 62
     0
 10
80.0791
 20
3.99493
 30
0.0
 11
80.4115
 21
4.32703
 31
0.0
  0
LINE
  8
0
 62
     0
 10
80.4115
 20
4.32703
 30
0.0
 11
80.8302
 21
4.53926
 31
0.0
  0
LINE
  8
0
 62
     0
 10
80.8302
 20
4.53926
 30
0.0
 11
81.2934
 21
4.61229
 31
0.0
  0
LINE
  8
0
 62
     0
 10
3.0937
 20
4.61229
 30
0.0
 11
3.55808
 21
4.53926
 31
0.0
  0
LINE
  8
0
 62
     0
 10
3.55808
 20
4.53926
 30
0.0
 11
3.97563
 21
4.32703
 31
0.0
  0
LINE
  8
0
 62
     0
 10
3.97563
 20
4.32703
 30
0.0
 11
4.30773
 21
3.99493
 31
0.0
  0
LINE
  8
0
 62
     0
 10
4.30773
 20
3.99493
 30
0.0
 11
4.52134
 21
3.57738
 31
0.0
  0
LINE
  8
0
 62
     0
 10
4.52134
 20
3.57738
 30
0.0
 11
4.59437
 21
3.11299
 31
0.0
  0
LINE
  8
0
 62
     0
 10
4.59437
 20
3.11299
 30
0.0
 11
4.52134
 21
2.64859
 31
0.0
  0
LINE
  8
0
 62
     0
 10
4.52134
 20
2.64859
 30
0.0
 11
4.30773
 21
2.23104
 31
0.0
  0
LINE
  8
0
 62
     0
 10
4.30773
 20
2.23104
 30
0.0
 11
3.97563
 21
1.89894
 31
0.0
  0
LINE
  8
0
 62
     0
 10
3.97563
 20
1.89894
 30
0.0
 11
3.55808
 21
1.68534
 31
0.0
  0
LINE
  8
0
 62
     0
 10
3.55808
 20
1.68534
 30
0.0
 11
3.0937
 21
1.6123
 31
0.0
  0
LINE
  8
0
 62
     0
 10
3.0937
 20
1.6123
 30
0.0
 11
2.6293
 21
1.68534
 31
0.0
  0
LINE
  8
0
 62
     0
 10
2.6293
 20
1.68534
 30
0.0
 11
2.21175
 21
1.89894
 31
0.0
  0
LINE
  8
0
 62
     0
 10
2.21175
 20
1.89894
 30
0.0
 11
1.87965
 21
2.23104
 31
0.0
  0
LINE
  8
0
 62
     0
 10
1.87965
 20
2.23104
 30
0.0
 11
1.66743
 21
2.64859
 31
0.0
  0
LINE
  8
0
 62
     0
 10
1.66743
 20
2.64859
 30
0.0
 11
1.59439
 21
3.11299
 31
0.0
  0
LINE
  8
0
 62
     0
 10
1.59439
 20
3.11299
 30
0.0
 11
1.66743
 21
3.57738
 31
0.0
  0
LINE
  8
0
 62
     0
 10
1.66743
 20
3.57738
 30
0.0
 11
1.87965
 21
3.99493
 31
0.0
  0
LINE
  8
0
 62
     0
 10
1.87965
 20
3.99493
 30
0.0
 11
2.21175
 21
4.32703
 31
0.0
  0
LINE
  8
0
 62
     0
 10
2.21175
 20
4.32703
 30
0.0
 11
2.6293
 21
4.53926
 31
0.0
  0
LINE
  8
0
 62
     0
 10
2.6293
 20
4.53926
 30
0.0
 11
3.0937
 21
4.61229
 31
0.0
  0
LINE
  8
0
 62
     0
 10
3.0937
 20
86.8123
 30
0.0
 11
3.55808
 21
86.7392
 31
0.0
  0
LINE
  8
0
 62
     0
 10
3.55808
 20
86.7392
 30
0.0
 11
3.97563
 21
86.5269
 31
0.0
  0
LINE
  8
0
 62
     0
 10
3.97563
 20
86.5269
 30
0.0
 11
4.30773
 21
86.1949
 31
0.0
  0
LINE
  8
0
 62
     0
 10
4.30773
 20
86.1949
 30
0.0
 11
4.52134
 21
85.7772
 31
0.0
  0
LINE
  8
0
 62
     0
 10
4.52134
 20
85.7772
 30
0.0
 11
4.59437
 21
85.313
 31
0.0
  0
LINE
  8
0
 62
     0
 10
4.59437
 20
85.313
 30
0.0
 11
4.52134
 21
84.8487
 31
0.0
  0
LINE
  8
0
 62
     0
 10
4.52134
 20
84.8487
 30
0.0
 11
4.30773
 21
84.431
 31
0.0
  0
LINE
  8
0
 62
     0
 10
4.30773
 20
84.431
 30
0.0
 11
3.97563
 21
84.099
 31
0.0
  0
LINE
  8
0
 62
     0
 10
3.97563
 20
84.099
 30
0.0
 11
3.55808
 21
83.8853
 31
0.0
  0
LINE
  8
0
 62
     0
 10
3.55808
 20
83.8853
 30
0.0
 11
3.0937
 21
83.8122
 31
0.0
  0
LINE
  8
0
 62
     0
 10
3.0937
 20
83.8122
 30
0.0
 11
2.6293
 21
83.8853
 31
0.0
  0
LINE
  8
0
 62
     0
 10
2.6293
 20
83.8853
 30
0.0
 11
2.21175
 21
84.099
 31
0.0
  0
LINE
  8
0
 62
     0
 10
2.21175
 20
84.099
 30
0.0
 11
1.87965
 21
84.431
 31
0.0
  0
LINE
  8
0
 62
     0
 10
1.87965
 20
84.431
 30
0.0
 11
1.66743
 21
84.8487
 31
0.0
  0
LINE
  8
0
 62
     0
 10
1.66743
 20
84.8487
 30
0.0
 11
1.59439
 21
85.313
 31
0.0
  0
LINE
  8
0
 62
     0
 10
1.59439
 20
85.313
 30
0.0
 11
1.66743
 21
85.7772
 31
0.0
  0
LINE
  8
0
 62
     0
 10
1.66743
 20
85.7772
 30
0.0
 11
1.87965
 21
86.1949
 31
0.0
  0
LINE
  8
0
 62
     0
 10
1.87965
 20
86.1949
 30
0.0
 11
2.21175
 21
86.5269
 31
0.0
  0
LINE
  8
0
 62
     0
 10
2.21175
 20
86.5269
 30
0.0
 11
2.6293
 21
86.7392
 31
0.0
  0
LINE
  8
0
 62
     0
 10
2.6293
 20
86.7392
 30
0.0
 11
3.0937
 21
86.8123
 31
0.0
  0
ENDSEC
  0
EOF
