  0
SECTION
  2
HEADER
  9
$ACADVER
  1
AC1009
  9
$EXTMIN
 10
0.0
 20
0.0
 30
0.0
  9
$EXTMAX
 10
1000.0
 20
1000.0
 30
0.0
  9
$FILLMODE
 70
 0
  9
$SPLFRAME
 70
 1
  0
ENDSEC
  0
SECTION
  2
TABLES
  0
TABLE
  2
LAYER
 70
1
  0
LAYER
  2
0
 70
     0
 62
     7
  6
CONTINUOUS
  0
ENDTAB
  0
ENDSEC
  0
SECTION
  2
ENTITIES
  0
LINE
  8
0
 62
     0
 10
238.694
 20
88.313
 30
0.0
 11
238.851
 21
88.3073
 31
0.0
  0
LINE
  8
0
 62
     0
 10
238.851
 20
88.3073
 30
0.0
 11
239.007
 21
88.2883
 31
0.0
  0
LINE
  8
0
 62
     0
 10
239.007
 20
88.2883
 30
0.0
 11
239.161
 21
88.2579
 31
0.0
  0
LINE
  8
0
 62
     0
 10
239.161
 20
88.2579
 30
0.0
 11
239.311
 21
88.2153
 31
0.0
  0
LINE
  8
0
 62
     0
 10
239.311
 20
88.2153
 30
0.0
 11
239.459
 21
88.1613
 31
0.0
  0
LINE
  8
0
 62
     0
 10
239.459
 20
88.1613
 30
0.0
 11
239.602
 21
88.0953
 31
0.0
  0
LINE
  8
0
 62
     0
 10
239.602
 20
88.0953
 30
0.0
 11
239.739
 21
88.0181
 31
0.0
  0
LINE
  8
0
 62
     0
 10
239.739
 20
88.0181
 30
0.0
 11
239.869
 21
87.9313
 31
0.0
  0
LINE
  8
0
 62
     0
 10
239.869
 20
87.9313
 30
0.0
 11
239.992
 21
87.8336
 31
0.0
  0
LINE
  8
0
 62
     0
 10
239.992
 20
87.8336
 30
0.0
 11
240.108
 21
87.7274
 31
0.0
  0
LINE
  8
0
 62
     0
 10
240.108
 20
87.7274
 30
0.0
 11
240.214
 21
87.6117
 31
0.0
  0
LINE
  8
0
 62
     0
 10
240.214
 20
87.6117
 30
0.0
 11
240.312
 21
87.4889
 31
0.0
  0
LINE
  8
0
 62
     0
 10
240.312
 20
87.4889
 30
0.0
 11
240.399
 21
87.358
 31
0.0
  0
LINE
  8
0
 62
     0
 10
240.399
 20
87.358
 30
0.0
 11
240.476
 21
87.2215
 31
0.0
  0
LINE
  8
0
 62
     0
 10
240.476
 20
87.2215
 30
0.0
 11
240.542
 21
87.0783
 31
0.0
  0
LINE
  8
0
 62
     0
 10
240.542
 20
87.0783
 30
0.0
 11
240.596
 21
86.9308
 31
0.0
  0
LINE
  8
0
 62
     0
 10
240.596
 20
86.9308
 30
0.0
 11
240.639
 21
86.7805
 31
0.0
  0
LINE
  8
0
 62
     0
 10
240.639
 20
86.7805
 30
0.0
 11
240.669
 21
86.6263
 31
0.0
  0
LINE
  8
0
 62
     0
 10
240.669
 20
86.6263
 30
0.0
 11
240.688
 21
86.4704
 31
0.0
  0
LINE
  8
0
 62
     0
 10
240.688
 20
86.4704
 30
0.0
 11
240.694
 21
86.3134
 31
0.0
  0
LINE
  8
0
 62
     0
 10
240.694
 20
86.3134
 30
0.0
 11
240.694
 21
2.11253
 31
0.0
  0
LINE
  8
0
 62
     0
 10
240.694
 20
2.11253
 30
0.0
 11
240.688
 21
1.95544
 31
0.0
  0
LINE
  8
0
 62
     0
 10
240.688
 20
1.95544
 30
0.0
 11
240.669
 21
1.79972
 31
0.0
  0
LINE
  8
0
 62
     0
 10
240.669
 20
1.79972
 30
0.0
 11
240.639
 21
1.64538
 31
0.0
  0
LINE
  8
0
 62
     0
 10
240.639
 20
1.64538
 30
0.0
 11
240.596
 21
1.49517
 31
0.0
  0
LINE
  8
0
 62
     0
 10
240.596
 20
1.49517
 30
0.0
 11
240.542
 21
1.34772
 31
0.0
  0
LINE
  8
0
 62
     0
 10
240.542
 20
1.34772
 30
0.0
 11
240.476
 21
1.2044
 31
0.0
  0
LINE
  8
0
 62
     0
 10
240.476
 20
1.2044
 30
0.0
 11
240.399
 21
1.06798
 31
0.0
  0
LINE
  8
0
 62
     0
 10
240.399
 20
1.06798
 30
0.0
 11
240.312
 21
0.937066
 31
0.0
  0
LINE
  8
0
 62
     0
 10
240.312
 20
0.937066
 30
0.0
 11
240.214
 21
0.814419
 31
0.0
  0
LINE
  8
0
 62
     0
 10
240.214
 20
0.814419
 30
0.0
 11
240.108
 21
0.698666
 31
0.0
  0
LINE
  8
0
 62
     0
 10
240.108
 20
0.698666
 30
0.0
 11
239.992
 21
0.592557
 31
0.0
  0
LINE
  8
0
 62
     0
 10
239.992
 20
0.592557
 30
0.0
 11
239.869
 21
0.494714
 31
0.0
  0
LINE
  8
0
 62
     0
 10
239.869
 20
0.494714
 30
0.0
 11
239.739
 21
0.407899
 31
0.0
  0
LINE
  8
0
 62
     0
 10
239.739
 20
0.407899
 30
0.0
 11
239.602
 21
0.330729
 31
0.0
  0
LINE
  8
0
 62
     0
 10
239.602
 20
0.330729
 30
0.0
 11
239.459
 21
0.264583
 31
0.0
  0
LINE
  8
0
 62
     0
 10
239.459
 20
0.264583
 30
0.0
 11
239.311
 21
0.21084
 31
0.0
  0
LINE
  8
0
 62
     0
 10
239.311
 20
0.21084
 30
0.0
 11
239.161
 21
0.168121
 31
0.0
  0
LINE
  8
0
 62
     0
 10
239.161
 20
0.168121
 30
0.0
 11
239.007
 21
0.137804
 31
0.0
  0
LINE
  8
0
 62
     0
 10
239.007
 20
0.137804
 30
0.0
 11
238.851
 21
0.118511
 31
0.0
  0
LINE
  8
0
 62
     0
 10
238.851
 20
0.118511
 30
0.0
 11
238.694
 21
0.112999
 31
0.0
  0
LINE
  8
0
 62
     0
 10
238.694
 20
0.112999
 30
0.0
 11
2.09324
 21
0.112999
 31
0.0
  0
LINE
  8
0
 62
     0
 10
2.09324
 20
0.112999
 30
0.0
 11
1.93614
 21
0.118511
 31
0.0
  0
LINE
  8
0
 62
     0
 10
1.93614
 20
0.118511
 30
0.0
 11
1.78043
 21
0.137804
 31
0.0
  0
LINE
  8
0
 62
     0
 10
1.78043
 20
0.137804
 30
0.0
 11
1.62609
 21
0.168121
 31
0.0
  0
LINE
  8
0
 62
     0
 10
1.62609
 20
0.168121
 30
0.0
 11
1.47588
 21
0.21084
 31
0.0
  0
LINE
  8
0
 62
     0
 10
1.47588
 20
0.21084
 30
0.0
 11
1.32843
 21
0.264583
 31
0.0
  0
LINE
  8
0
 62
     0
 10
1.32843
 20
0.264583
 30
0.0
 11
1.18511
 21
0.330729
 31
0.0
  0
LINE
  8
0
 62
     0
 10
1.18511
 20
0.330729
 30
0.0
 11
1.04869
 21
0.407899
 31
0.0
  0
LINE
  8
0
 62
     0
 10
1.04869
 20
0.407899
 30
0.0
 11
0.917773
 21
0.494714
 31
0.0
  0
LINE
  8
0
 62
     0
 10
0.917773
 20
0.494714
 30
0.0
 11
0.795129
 21
0.592557
 31
0.0
  0
LINE
  8
0
 62
     0
 10
0.795129
 20
0.592557
 30
0.0
 11
0.679372
 21
0.698666
 31
0.0
  0
LINE
  8
0
 62
     0
 10
0.679372
 20
0.698666
 30
0.0
 11
0.573264
 21
0.814419
 31
0.0
  0
LINE
  8
0
 62
     0
 10
0.573264
 20
0.814419
 30
0.0
 11
0.475424
 21
0.937066
 31
0.0
  0
LINE
  8
0
 62
     0
 10
0.475424
 20
0.937066
 30
0.0
 11
0.388606
 21
1.06798
 31
0.0
  0
LINE
  8
0
 62
     0
 10
0.388606
 20
1.06798
 30
0.0
 11
0.311437
 21
1.2044
 31
0.0
  0
LINE
  8
0
 62
     0
 10
0.311437
 20
1.2044
 30
0.0
 11
0.245291
 21
1.34772
 31
0.0
  0
LINE
  8
0
 62
     0
 10
0.245291
 20
1.34772
 30
0.0
 11
0.191547
 21
1.49517
 31
0.0
  0
LINE
  8
0
 62
     0
 10
0.191547
 20
1.49517
 30
0.0
 11
0.148828
 21
1.64538
 31
0.0
  0
LINE
  8
0
 62
     0
 10
0.148828
 20
1.64538
 30
0.0
 11
0.118511
 21
1.79972
 31
0.0
  0
LINE
  8
0
 62
     0
 10
0.118511
 20
1.79972
 30
0.0
 11
0.0992188
 21
1.95544
 31
0.0
  0
LINE
  8
0
 62
     0
 10
0.0992188
 20
1.95544
 30
0.0
 11
0.0937066
 21
2.11253
 31
0.0
  0
LINE
  8
0
 62
     0
 10
0.0937066
 20
2.11253
 30
0.0
 11
0.0937066
 21
86.3134
 31
0.0
  0
LINE
  8
0
 62
     0
 10
0.0937066
 20
86.3134
 30
0.0
 11
0.0992188
 21
86.4704
 31
0.0
  0
LINE
  8
0
 62
     0
 10
0.0992188
 20
86.4704
 30
0.0
 11
0.118511
 21
86.6263
 31
0.0
  0
LINE
  8
0
 62
     0
 10
0.118511
 20
86.6263
 30
0.0
 11
0.148828
 21
86.7805
 31
0.0
  0
LINE
  8
0
 62
     0
 10
0.148828
 20
86.7805
 30
0.0
 11
0.191547
 21
86.9308
 31
0.0
  0
LINE
  8
0
 62
     0
 10
0.191547
 20
86.9308
 30
0.0
 11
0.245291
 21
87.0783
 31
0.0
  0
LINE
  8
0
 62
     0
 10
0.245291
 20
87.0783
 30
0.0
 11
0.311437
 21
87.2215
 31
0.0
  0
LINE
  8
0
 62
     0
 10
0.311437
 20
87.2215
 30
0.0
 11
0.388606
 21
87.358
 31
0.0
  0
LINE
  8
0
 62
     0
 10
0.388606
 20
87.358
 30
0.0
 11
0.475424
 21
87.4889
 31
0.0
  0
LINE
  8
0
 62
     0
 10
0.475424
 20
87.4889
 30
0.0
 11
0.573264
 21
87.6117
 31
0.0
  0
LINE
  8
0
 62
     0
 10
0.573264
 20
87.6117
 30
0.0
 11
0.679372
 21
87.7274
 31
0.0
  0
LINE
  8
0
 62
     0
 10
0.679372
 20
87.7274
 30
0.0
 11
0.795129
 21
87.8336
 31
0.0
  0
LINE
  8
0
 62
     0
 10
0.795129
 20
87.8336
 30
0.0
 11
0.917773
 21
87.9313
 31
0.0
  0
LINE
  8
0
 62
     0
 10
0.917773
 20
87.9313
 30
0.0
 11
1.04869
 21
88.0181
 31
0.0
  0
LINE
  8
0
 62
     0
 10
1.04869
 20
88.0181
 30
0.0
 11
1.18511
 21
88.0953
 31
0.0
  0
LINE
  8
0
 62
     0
 10
1.18511
 20
88.0953
 30
0.0
 11
1.32843
 21
88.1613
 31
0.0
  0
LINE
  8
0
 62
     0
 10
1.32843
 20
88.1613
 30
0.0
 11
1.47588
 21
88.2153
 31
0.0
  0
LINE
  8
0
 62
     0
 10
1.47588
 20
88.2153
 30
0.0
 11
1.62609
 21
88.2579
 31
0.0
  0
LINE
  8
0
 62
     0
 10
1.62609
 20
88.2579
 30
0.0
 11
1.78043
 21
88.2883
 31
0.0
  0
LINE
  8
0
 62
     0
 10
1.78043
 20
88.2883
 30
0.0
 11
1.93614
 21
88.3073
 31
0.0
  0
LINE
  8
0
 62
     0
 10
1.93614
 20
88.3073
 30
0.0
 11
2.09324
 21
88.313
 31
0.0
  0
LINE
  8
0
 62
     0
 10
2.09324
 20
88.313
 30
0.0
 11
238.694
 21
88.313
 31
0.0
  0
LINE
  8
0
 62
     0
 10
81.2934
 20
86.8123
 30
0.0
 11
81.7577
 21
86.7392
 31
0.0
  0
LINE
  8
0
 62
     0
 10
81.7577
 20
86.7392
 30
0.0
 11
82.1754
 21
86.5269
 31
0.0
  0
LINE
  8
0
 62
     0
 10
82.1754
 20
86.5269
 30
0.0
 11
82.5073
 21
86.1949
 31
0.0
  0
LINE
  8
0
 62
     0
 10
82.5073
 20
86.1949
 30
0.0
 11
82.7207
 21
85.7772
 31
0.0
  0
LINE
  8
0
 62
     0
 10
82.7207
 20
85.7772
 30
0.0
 11
82.7938
 21
85.313
 31
0.0
  0
LINE
  8
0
 62
     0
 10
82.7938
 20
85.313
 30
0.0
 11
82.7207
 21
84.8487
 31
0.0
  0
LINE
  8
0
 62
     0
 10
82.7207
 20
84.8487
 30
0.0
 11
82.5073
 21
84.431
 31
0.0
  0
LINE
  8
0
 62
     0
 10
82.5073
 20
84.431
 30
0.0
 11
82.1754
 21
84.099
 31
0.0
  0
LINE
  8
0
 62
     0
 10
82.1754
 20
84.099
 30
0.0
 11
81.7577
 21
83.8853
 31
0.0
  0
LINE
  8
0
 62
     0
 10
81.7577
 20
83.8853
 30
0.0
 11
81.2934
 21
83.8122
 31
0.0
  0
LINE
  8
0
 62
     0
 10
81.2934
 20
83.8122
 30
0.0
 11
80.8302
 21
83.8853
 31
0.0
  0
LINE
  8
0
 62
     0
 10
80.8302
 20
83.8853
 30
0.0
 11
80.4115
 21
84.099
 31
0.0
  0
LINE
  8
0
 62
     0
 10
80.4115
 20
84.099
 30
0.0
 11
80.0791
 21
84.431
 31
0.0
  0
LINE
  8
0
 62
     0
 10
80.0791
 20
84.431
 30
0.0
 11
79.8671
 21
84.8487
 31
0.0
  0
LINE
  8
0
 62
     0
 10
79.8671
 20
84.8487
 30
0.0
 11
79.7941
 21
85.313
 31
0.0
  0
LINE
  8
0
 62
     0
 10
79.7941
 20
85.313
 30
0.0
 11
79.8671
 21
85.7772
 31
0.0
  0
LINE
  8
0
 62
     0
 10
79.8671
 20
85.7772
 30
0.0
 11
80.0791
 21
86.1949
 31
0.0
  0
LINE
  8
0
 62
     0
 10
80.0791
 20
86.1949
 30
0.0
 11
80.4115
 21
86.5269
 31
0.0
  0
LINE
  8
0
 62
     0
 10
80.4115
 20
86.5269
 30
0.0
 11
80.8302
 21
86.7392
 31
0.0
  0
LINE
  8
0
 62
     0
 10
80.8302
 20
86.7392
 30
0.0
 11
81.2934
 21
86.8123
 31
0.0
  0
LINE
  8
0
 62
     0
 10
159.494
 20
86.8123
 30
0.0
 11
159.957
 21
86.7392
 31
0.0
  0
LINE
  8
0
 62
     0
 10
159.957
 20
86.7392
 30
0.0
 11
160.376
 21
86.5269
 31
0.0
  0
LINE
  8
0
 62
     0
 10
160.376
 20
86.5269
 30
0.0
 11
160.708
 21
86.1949
 31
0.0
  0
LINE
  8
0
 62
     0
 10
160.708
 20
86.1949
 30
0.0
 11
160.92
 21
85.7772
 31
0.0
  0
LINE
  8
0
 62
     0
 10
160.92
 20
85.7772
 30
0.0
 11
160.993
 21
85.313
 31
0.0
  0
LINE
  8
0
 62
     0
 10
160.993
 20
85.313
 30
0.0
 11
160.92
 21
84.8487
 31
0.0
  0
LINE
  8
0
 62
     0
 10
160.92
 20
84.8487
 30
0.0
 11
160.708
 21
84.431
 31
0.0
  0
LINE
  8
0
 62
     0
 10
160.708
 20
84.431
 30
0.0
 11
160.376
 21
84.099
 31
0.0
  0
LINE
  8
0
 62
     0
 10
160.376
 20
84.099
 30
0.0
 11
159.957
 21
83.8853
 31
0.0
  0
LINE
  8
0
 62
     0
 10
159.957
 20
83.8853
 30
0.0
 11
159.494
 21
83.8122
 31
0.0
  0
LINE
  8
0
 62
     0
 10
159.494
 20
83.8122
 30
0.0
 11
159.03
 21
83.8853
 31
0.0
  0
LINE
  8
0
 62
     0
 10
159.03
 20
83.8853
 30
0.0
 11
158.612
 21
84.099
 31
0.0
  0
LINE
  8
0
 62
     0
 10
158.612
 20
84.099
 30
0.0
 11
158.28
 21
84.431
 31
0.0
  0
LINE
  8
0
 62
     0
 10
158.28
 20
84.431
 30
0.0
 11
158.067
 21
84.8487
 31
0.0
  0
LINE
  8
0
 62
     0
 10
158.067
 20
84.8487
 30
0.0
 11
157.993
 21
85.313
 31
0.0
  0
LINE
  8
0
 62
     0
 10
157.993
 20
85.313
 30
0.0
 11
158.067
 21
85.7772
 31
0.0
  0
LINE
  8
0
 62
     0
 10
158.067
 20
85.7772
 30
0.0
 11
158.28
 21
86.1949
 31
0.0
  0
LINE
  8
0
 62
     0
 10
158.28
 20
86.1949
 30
0.0
 11
158.612
 21
86.5269
 31
0.0
  0
LINE
  8
0
 62
     0
 10
158.612
 20
86.5269
 30
0.0
 11
159.03
 21
86.7392
 31
0.0
  0
LINE
  8
0
 62
     0
 10
159.03
 20
86.7392
 30
0.0
 11
159.494
 21
86.8123
 31
0.0
  0
LINE
  8
0
 62
     0
 10
237.694
 20
86.8123
 30
0.0
 11
238.158
 21
86.7392
 31
0.0
  0
LINE
  8
0
 62
     0
 10
238.158
 20
86.7392
 30
0.0
 11
238.575
 21
86.5269
 31
0.0
  0
LINE
  8
0
 62
     0
 10
238.575
 20
86.5269
 30
0.0
 11
238.908
 21
86.1949
 31
0.0
  0
LINE
  8
0
 62
     0
 10
238.908
 20
86.1949
 30
0.0
 11
239.121
 21
85.7772
 31
0.0
  0
LINE
  8
0
 62
     0
 10
239.121
 20
85.7772
 30
0.0
 11
239.194
 21
85.313
 31
0.0
  0
LINE
  8
0
 62
     0
 10
239.194
 20
85.313
 30
0.0
 11
239.121
 21
84.8487
 31
0.0
  0
LINE
  8
0
 62
     0
 10
239.121
 20
84.8487
 30
0.0
 11
238.908
 21
84.431
 31
0.0
  0
LINE
  8
0
 62
     0
 10
238.908
 20
84.431
 30
0.0
 11
238.575
 21
84.099
 31
0.0
  0
LINE
  8
0
 62
     0
 10
238.575
 20
84.099
 30
0.0
 11
238.158
 21
83.8853
 31
0.0
  0
LINE
  8
0
 62
     0
 10
238.158
 20
83.8853
 30
0.0
 11
237.694
 21
83.8122
 31
0.0
  0
LINE
  8
0
 62
     0
 10
237.694
 20
83.8122
 30
0.0
 11
237.229
 21
83.8853
 31
0.0
  0
LINE
  8
0
 62
     0
 10
237.229
 20
83.8853
 30
0.0
 11
236.812
 21
84.099
 31
0.0
  0
LINE
  8
0
 62
     0
 10
236.812
 20
84.099
 30
0.0
 11
236.48
 21
84.431
 31
0.0
  0
LINE
  8
0
 62
     0
 10
236.48
 20
84.431
 30
0.0
 11
236.267
 21
84.8487
 31
0.0
  0
LINE
  8
0
 62
     0
 10
236.267
 20
84.8487
 30
0.0
 11
236.194
 21
85.313
 31
0.0
  0
LINE
  8
0
 62
     0
 10
236.194
 20
85.313
 30
0.0
 11
236.267
 21
85.7772
 31
0.0
  0
LINE
  8
0
 62
     0
 10
236.267
 20
85.7772
 30
0.0
 11
236.48
 21
86.1949
 31
0.0
  0
LINE
  8
0
 62
     0
 10
236.48
 20
86.1949
 30
0.0
 11
236.812
 21
86.5269
 31
0.0
  0
LINE
  8
0
 62
     0
 10
236.812
 20
86.5269
 30
0.0
 11
237.229
 21
86.7392
 31
0.0
  0
LINE
  8
0
 62
     0
 10
237.229
 20
86.7392
 30
0.0
 11
237.694
 21
86.8123
 31
0.0
  0
LINE
  8
0
 62
     0
 10
237.694
 20
4.61229
 30
0.0
 11
238.158
 21
4.53926
 31
0.0
  0
LINE
  8
0
 62
     0
 10
238.158
 20
4.53926
 30
0.0
 11
238.575
 21
4.32703
 31
0.0
  0
LINE
  8
0
 62
     0
 10
238.575
 20
4.32703
 30
0.0
 11
238.908
 21
3.99493
 31
0.0
  0
LINE
  8
0
 62
     0
 10
238.908
 20
3.99493
 30
0.0
 11
239.121
 21
3.57738
 31
0.0
  0
LINE
  8
0
 62
     0
 10
239.121
 20
3.57738
 30
0.0
 11
239.194
 21
3.11299
 31
0.0
  0
LINE
  8
0
 62
     0
 10
239.194
 20
3.11299
 30
0.0
 11
239.121
 21
2.64859
 31
0.0
  0
LINE
  8
0
 62
     0
 10
239.121
 20
2.64859
 30
0.0
 11
238.908
 21
2.23104
 31
0.0
  0
LINE
  8
0
 62
     0
 10
238.908
 20
2.23104
 30
0.0
 11
238.575
 21
1.89894
 31
0.0
  0
LINE
  8
0
 62
     0
 10
238.575
 20
1.89894
 30
0.0
 11
238.158
 21
1.68534
 31
0.0
  0
LINE
  8
0
 62
     0
 10
238.158
 20
1.68534
 30
0.0
 11
237.694
 21
1.6123
 31
0.0
  0
LINE
  8
0
 62
     0
 10
237.694
 20
1.6123
 30
0.0
 11
237.229
 21
1.68534
 31
0.0
  0
LINE
  8
0
 62
     0
 10
237.229
 20
1.68534
 30
0.0
 11
236.812
 21
1.89894
 31
0.0
  0
LINE
  8
0
 62
     0
 10
236.812
 20
1.89894
 30
0.0
 11
236.48
 21
2.23104
 31
0.0
  0
LINE
  8
0
 62
     0
 10
236.48
 20
2.23104
 30
0.0
 11
236.267
 21
2.64859
 31
0.0
  0
LINE
  8
0
 62
     0
 10
236.267
 20
2.64859
 30
0.0
 11
236.194
 21
3.11299
 31
0.0
  0
LINE
  8
0
 62
     0
 10
236.194
 20
3.11299
 30
0.0
 11
236.267
 21
3.57738
 31
0.0
  0
LINE
  8
0
 62
     0
 10
236.267
 20
3.57738
 30
0.0
 11
236.48
 21
3.99493
 31
0.0
  0
LINE
  8
0
 62
     0
 10
236.48
 20
3.99493
 30
0.0
 11
236.812
 21
4.32703
 31
0.0
  0
LINE
  8
0
 62
     0
 10
236.812
 20
4.32703
 30
0.0
 11
237.229
 21
4.53926
 31
0.0
  0
LINE
  8
0
 62
     0
 10
237.229
 20
4.53926
 30
0.0
 11
237.694
 21
4.61229
 31
0.0
  0
LINE
  8
0
 62
     0
 10
159.494
 20
4.61229
 30
0.0
 11
159.957
 21
4.53926
 31
0.0
  0
LINE
  8
0
 62
     0
 10
159.957
 20
4.53926
 30
0.0
 11
160.376
 21
4.32703
 31
0.0
  0
LINE
  8
0
 62
     0
 10
160.376
 20
4.32703
 30
0.0
 11
160.708
 21
3.99493
 31
0.0
  0
LINE
  8
0
 62
     0
 10
160.708
 20
3.99493
 30
0.0
 11
160.92
 21
3.57738
 31
0.0
  0
LINE
  8
0
 62
     0
 10
160.92
 20
3.57738
 30
0.0
 11
160.993
 21
3.11299
 31
0.0
  0
LINE
  8
0
 62
     0
 10
160.993
 20
3.11299
 30
0.0
 11
160.92
 21
2.64859
 31
0.0
  0
LINE
  8
0
 62
     0
 10
160.92
 20
2.64859
 30
0.0
 11
160.708
 21
2.23104
 31
0.0
  0
LINE
  8
0
 62
     0
 10
160.708
 20
2.23104
 30
0.0
 11
160.376
 21
1.89894
 31
0.0
  0
LINE
  8
0
 62
     0
 10
160.376
 20
1.89894
 30
0.0
 11
159.957
 21
1.68534
 31
0.0
  0
LINE
  8
0
 62
     0
 10
159.957
 20
1.68534
 30
0.0
 11
159.494
 21
1.6123
 31
0.0
  0
LINE
  8
0
 62
     0
 10
159.494
 20
1.6123
 30
0.0
 11
159.03
 21
1.68534
 31
0.0
  0
LINE
  8
0
 62
     0
 10
159.03
 20
1.68534
 30
0.0
 11
158.612
 21
1.89894
 31
0.0
  0
LINE
  8
0
 62
     0
 10
158.612
 20
1.89894
 30
0.0
 11
158.28
 21
2.23104
 31
0.0
  0
LINE
  8
0
 62
     0
 10
158.28
 20
2.23104
 30
0.0
 11
158.067
 21
2.64859
 31
0.0
  0
LINE
  8
0
 62
     0
 10
158.067
 20
2.64859
 30
0.0
 11
157.993
 21
3.11299
 31
0.0
  0
LINE
  8
0
 62
     0
 10
157.993
 20
3.11299
 30
0.0
 11
158.067
 21
3.57738
 31
0.0
  0
LINE
  8
0
 62
     0
 10
158.067
 20
3.57738
 30
0.0
 11
158.28
 21
3.99493
 31
0.0
  0
LINE
  8
0
 62
     0
 10
158.28
 20
3.99493
 30
0.0
 11
158.612
 21
4.32703
 31
0.0
  0
LINE
  8
0
 62
     0
 10
158.612
 20
4.32703
 30
0.0
 11
159.03
 21
4.53926
 31
0.0
  0
LINE
  8
0
 62
     0
 10
159.03
 20
4.53926
 30
0.0
 11
159.494
 21
4.61229
 31
0.0
  0
LINE
  8
0
 62
     0
 10
81.2934
 20
4.61229
 30
0.0
 11
81.7577
 21
4.53926
 31
0.0
  0
LINE
  8
0
 62
     0
 10
81.7577
 20
4.53926
 30
0.0
 11
82.1754
 21
4.32703
 31
0.0
  0
LINE
  8
0
 62
     0
 10
82.1754
 20
4.32703
 30
0.0
 11
82.5073
 21
3.99493
 31
0.0
  0
LINE
  8
0
 62
     0
 10
82.5073
 20
3.99493
 30
0.0
 11
82.7207
 21
3.57738
 31
0.0
  0
LINE
  8
0
 62
     0
 10
82.7207
 20
3.57738
 30
0.0
 11
82.7938
 21
3.11299
 31
0.0
  0
LINE
  8
0
 62
     0
 10
82.7938
 20
3.11299
 30
0.0
 11
82.7207
 21
2.64859
 31
0.0
  0
LINE
  8
0
 62
     0
 10
82.7207
 20
2.64859
 30
0.0
 11
82.5073
 21
2.23104
 31
0.0
  0
LINE
  8
0
 62
     0
 10
82.5073
 20
2.23104
 30
0.0
 11
82.1754
 21
1.89894
 31
0.0
  0
LINE
  8
0
 62
     0
 10
82.1754
 20
1.89894
 30
0.0
 11
81.7577
 21
1.68534
 31
0.0
  0
LINE
  8
0
 62
     0
 10
81.7577
 20
1.68534
 30
0.0
 11
81.2934
 21
1.6123
 31
0.0
  0
LINE
  8
0
 62
     0
 10
81.2934
 20
1.6123
 30
0.0
 11
80.8302
 21
1.68534
 31
0.0
  0
LINE
  8
0
 62
     0
 10
80.8302
 20
1.68534
 30
0.0
 11
80.4115
 21
1.89894
 31
0.0
  0
LINE
  8
0
 62
     0
 10
80.4115
 20
1.89894
 30
0.0
 11
80.0791
 21
2.23104
 31
0.0
  0
LINE
  8
0
 62
     0
 10
80.0791
 20
2.23104
 30
0.0
 11
79.8671
 21
2.64859
 31
0.0
  0
LINE
  8
0
 62
     0
 10
79.8671
 20
2.64859
 30
0.0
 11
79.7941
 21
3.11299
 31
0.0
  0
LINE
  8
0
 62
     0
 10
79.7941
 20
3.11299
 30
0.0
 11
79.8671
 21
3.57738
 31
0.0
  0
LINE
  8
0
 62
     0
 10
79.8671
 20
3.57738
 30
0.0
 11
80.0791
 21
3.99493
 31
0.0
  0
LINE
  8
0
 62
     0
 10
80.0791
 20
3.99493
 30
0.0
 11
80.4115
 21
4.32703
 31
0.0
  0
LINE
  8
0
 62
     0
 10
80.4115
 20
4.32703
 30
0.0
 11
80.8302
 21
4.53926
 31
0.0
  0
LINE
  8
0
 62
     0
 10
80.8302
 20
4.53926
 30
0.0
 11
81.2934
 21
4.61229
 31
0.0
  0
LINE
  8
0
 62
     0
 10
3.0937
 20
4.61229
 30
0.0
 11
3.55808
 21
4.53926
 31
0.0
  0
LINE
  8
0
 62
     0
 10
3.55808
 20
4.53926
 30
0.0
 11
3.97563
 21
4.32703
 31
0.0
  0
LINE
  8
0
 62
     0
 10
3.97563
 20
4.32703
 30
0.0
 11
4.30773
 21
3.99493
 31
0.0
  0
LINE
  8
0
 62
     0
 10
4.30773
 20
3.99493
 30
0.0
 11
4.52134
 21
3.57738
 31
0.0
  0
LINE
  8
0
 62
     0
 10
4.52134
 20
3.57738
 30
0.0
 11
4.59437
 21
3.11299
 31
0.0
  0
LINE
  8
0
 62
     0
 10
4.59437
 20
3.11299
 30
0.0
 11
4.52134
 21
2.64859
 31
0.0
  0
LINE
  8
0
 62
     0
 10
4.52134
 20
2.64859
 30
0.0
 11
4.30773
 21
2.23104
 31
0.0
  0
LINE
  8
0
 62
     0
 10
4.30773
 20
2.23104
 30
0.0
 11
3.97563
 21
1.89894
 31
0.0
  0
LINE
  8
0
 62
     0
 10
3.97563
 20
1.89894
 30
0.0
 11
3.55808
 21
1.68534
 31
0.0
  0
LINE
  8
0
 62
     0
 10
3.55808
 20
1.68534
 30
0.0
 11
3.0937
 21
1.6123
 31
0.0
  0
LINE
  8
0
 62
     0
 10
3.0937
 20
1.6123
 30
0.0
 11
2.6293
 21
1.68534
 31
0.0
  0
LINE
  8
0
 62
     0
 10
2.6293
 20
1.68534
 30
0.0
 11
2.21175
 21
1.89894
 31
0.0
  0
LINE
  8
0
 62
     0
 10
2.21175
 20
1.89894
 30
0.0
 11
1.87965
 21
2.23104
 31
0.0
  0
LINE
  8
0
 62
     0
 10
1.87965
 20
2.23104
 30
0.0
 11
1.66743
 21
2.64859
 31
0.0
  0
LINE
  8
0
 62
     0
 10
1.66743
 20
2.64859
 30
0.0
 11
1.59439
 21
3.11299
 31
0.0
  0
LINE
  8
0
 62
     0
 10
1.59439
 20
3.11299
 30
0.0
 11
1.66743
 21
3.57738
 31
0.0
  0
LINE
  8
0
 62
     0
 10
1.66743
 20
3.57738
 30
0.0
 11
1.87965
 21
3.99493
 31
0.0
  0
LINE
  8
0
 62
     0
 10
1.87965
 20
3.99493
 30
0.0
 11
2.21175
 21
4.32703
 31
0.0
  0
LINE
  8
0
 62
     0
 10
2.21175
 20
4.32703
 30
0.0
 11
2.6293
 21
4.53926
 31
0.0
  0
LINE
  8
0
 62
     0
 10
2.6293
 20
4.53926
 30
0.0
 11
3.0937
 21
4.61229
 31
0.0
  0
LINE
  8
0
 62
     0
 10
3.0937
 20
86.8123
 30
0.0
 11
3.55808
 21
86.7392
 31
0.0
  0
LINE
  8
0
 62
     0
 10
3.55808
 20
86.7392
 30
0.0
 11
3.97563
 21
86.5269
 31
0.0
  0
LINE
  8
0
 62
     0
 10
3.97563
 20
86.5269
 30
0.0
 11
4.30773
 21
86.1949
 31
0.0
  0
LINE
  8
0
 62
     0
 10
4.30773
 20
86.1949
 30
0.0
 11
4.52134
 21
85.7772
 31
0.0
  0
LINE
  8
0
 62
     0
 10
4.52134
 20
85.7772
 30
0.0
 11
4.59437
 21
85.313
 31
0.0
  0
LINE
  8
0
 62
     0
 10
4.59437
 20
85.313
 30
0.0
 11
4.52134
 21
84.8487
 31
0.0
  0
LINE
  8
0
 62
     0
 10
4.52134
 20
84.8487
 30
0.0
 11
4.30773
 21
84.431
 31
0.0
  0
LINE
  8
0
 62
     0
 10
4.30773
 20
84.431
 30
0.0
 11
3.97563
 21
84.099
 31
0.0
  0
LINE
  8
0
 62
     0
 10
3.97563
 20
84.099
 30
0.0
 11
3.55808
 21
83.8853
 31
0.0
  0
LINE
  8
0
 62
     0
 10
3.55808
 20
83.8853
 30
0.0
 11
3.0937
 21
83.8122
 31
0.0
  0
LINE
  8
0
 62
     0
 10
3.0937
 20
83.8122
 30
0.0
 11
2.6293
 21
83.8853
 31
0.0
  0
LINE
  8
0
 62
     0
 10
2.6293
 20
83.8853
 30
0.0
 11
2.21175
 21
84.099
 31
0.0
  0
LINE
  8
0
 62
     0
 10
2.21175
 20
84.099
 30
0.0
 11
1.87965
 21
84.431
 31
0.0
  0
LINE
  8
0
 62
     0
 10
1.87965
 20
84.431
 30
0.0
 11
1.66743
 21
84.8487
 31
0.0
  0
LINE
  8
0
 62
     0
 10
1.66743
 20
84.8487
 30
0.0
 11
1.59439
 21
85.313
 31
0.0
  0
LINE
  8
0
 62
     0
 10
1.59439
 20
85.313
 30
0.0
 11
1.66743
 21
85.7772
 31
0.0
  0
LINE
  8
0
 62
     0
 10
1.66743
 20
85.7772
 30
0.0
 11
1.87965
 21
86.1949
 31
0.0
  0
LINE
  8
0
 62
     0
 10
1.87965
 20
86.1949
 30
0.0
 11
2.21175
 21
86.5269
 31
0.0
  0
LINE
  8
0
 62
     0
 10
2.21175
 20
86.5269
 30
0.0
 11
2.6293
 21
86.7392
 31
0.0
  0
LINE
  8
0
 62
     0
 10
2.6293
 20
86.7392
 30
0.0
 11
3.0937
 21
86.8123
 31
0.0
  0
LINE
  8
0
 62
     0
 10
22.6191
 20
66.7879
 30
0.0
 11
22.6191
 21
65.7874
 31
0.0
  0
LINE
  8
0
 62
     0
 10
22.6191
 20
65.7874
 30
0.0
 11
8.61826
 21
65.7874
 31
0.0
  0
LINE
  8
0
 62
     0
 10
8.61826
 20
65.7874
 30
0.0
 11
8.61826
 21
66.7879
 31
0.0
  0
LINE
  8
0
 62
     0
 10
8.61826
 20
66.7879
 30
0.0
 11
7.819
 21
66.7879
 31
0.0
  0
LINE
  8
0
 62
     0
 10
7.819
 20
66.7879
 30
0.0
 11
7.819
 21
69.8885
 31
0.0
  0
LINE
  8
0
 62
     0
 10
7.819
 20
69.8885
 30
0.0
 11
8.61826
 21
69.8885
 31
0.0
  0
LINE
  8
0
 62
     0
 10
8.61826
 20
69.8885
 30
0.0
 11
8.61826
 21
75.6874
 31
0.0
  0
LINE
  8
0
 62
     0
 10
8.61826
 20
75.6874
 30
0.0
 11
7.819
 21
75.6874
 31
0.0
  0
LINE
  8
0
 62
     0
 10
7.819
 20
75.6874
 30
0.0
 11
7.819
 21
78.788
 31
0.0
  0
LINE
  8
0
 62
     0
 10
7.819
 20
78.788
 30
0.0
 11
8.61826
 21
78.788
 31
0.0
  0
LINE
  8
0
 62
     0
 10
8.61826
 20
78.788
 30
0.0
 11
8.61826
 21
79.7885
 31
0.0
  0
LINE
  8
0
 62
     0
 10
8.61826
 20
79.7885
 30
0.0
 11
22.6191
 21
79.7885
 31
0.0
  0
LINE
  8
0
 62
     0
 10
22.6191
 20
79.7885
 30
0.0
 11
22.6191
 21
78.788
 31
0.0
  0
LINE
  8
0
 62
     0
 10
22.6191
 20
78.788
 30
0.0
 11
23.4184
 21
78.788
 31
0.0
  0
LINE
  8
0
 62
     0
 10
23.4184
 20
78.788
 30
0.0
 11
23.4184
 21
75.6874
 31
0.0
  0
LINE
  8
0
 62
     0
 10
23.4184
 20
75.6874
 30
0.0
 11
22.6191
 21
75.6874
 31
0.0
  0
LINE
  8
0
 62
     0
 10
22.6191
 20
75.6874
 30
0.0
 11
22.6191
 21
69.8885
 31
0.0
  0
LINE
  8
0
 62
     0
 10
22.6191
 20
69.8885
 30
0.0
 11
23.4184
 21
69.8885
 31
0.0
  0
LINE
  8
0
 62
     0
 10
23.4184
 20
69.8885
 30
0.0
 11
23.4184
 21
66.7879
 31
0.0
  0
LINE
  8
0
 62
     0
 10
23.4184
 20
66.7879
 30
0.0
 11
22.6191
 21
66.7879
 31
0.0
  0
LINE
  8
0
 62
     0
 10
25.0004
 20
47.7379
 30
0.0
 11
25.0004
 21
46.7374
 31
0.0
  0
LINE
  8
0
 62
     0
 10
25.0004
 20
46.7374
 30
0.0
 11
10.9995
 21
46.7374
 31
0.0
  0
LINE
  8
0
 62
     0
 10
10.9995
 20
46.7374
 30
0.0
 11
10.9995
 21
47.7379
 31
0.0
  0
LINE
  8
0
 62
     0
 10
10.9995
 20
47.7379
 30
0.0
 11
10.2003
 21
47.7379
 31
0.0
  0
LINE
  8
0
 62
     0
 10
10.2003
 20
47.7379
 30
0.0
 11
10.2003
 21
50.8385
 31
0.0
  0
LINE
  8
0
 62
     0
 10
10.2003
 20
50.8385
 30
0.0
 11
10.9995
 21
50.8385
 31
0.0
  0
LINE
  8
0
 62
     0
 10
10.9995
 20
50.8385
 30
0.0
 11
10.9995
 21
56.6374
 31
0.0
  0
LINE
  8
0
 62
     0
 10
10.9995
 20
56.6374
 30
0.0
 11
10.2003
 21
56.6374
 31
0.0
  0
LINE
  8
0
 62
     0
 10
10.2003
 20
56.6374
 30
0.0
 11
10.2003
 21
59.738
 31
0.0
  0
LINE
  8
0
 62
     0
 10
10.2003
 20
59.738
 30
0.0
 11
10.9995
 21
59.738
 31
0.0
  0
LINE
  8
0
 62
     0
 10
10.9995
 20
59.738
 30
0.0
 11
10.9995
 21
60.7385
 31
0.0
  0
LINE
  8
0
 62
     0
 10
10.9995
 20
60.7385
 30
0.0
 11
25.0004
 21
60.7385
 31
0.0
  0
LINE
  8
0
 62
     0
 10
25.0004
 20
60.7385
 30
0.0
 11
25.0004
 21
59.738
 31
0.0
  0
LINE
  8
0
 62
     0
 10
25.0004
 20
59.738
 30
0.0
 11
25.7996
 21
59.738
 31
0.0
  0
LINE
  8
0
 62
     0
 10
25.7996
 20
59.738
 30
0.0
 11
25.7996
 21
56.6374
 31
0.0
  0
LINE
  8
0
 62
     0
 10
25.7996
 20
56.6374
 30
0.0
 11
25.0004
 21
56.6374
 31
0.0
  0
LINE
  8
0
 62
     0
 10
25.0004
 20
56.6374
 30
0.0
 11
25.0004
 21
50.8385
 31
0.0
  0
LINE
  8
0
 62
     0
 10
25.0004
 20
50.8385
 30
0.0
 11
25.7996
 21
50.8385
 31
0.0
  0
LINE
  8
0
 62
     0
 10
25.7996
 20
50.8385
 30
0.0
 11
25.7996
 21
47.7379
 31
0.0
  0
LINE
  8
0
 62
     0
 10
25.7996
 20
47.7379
 30
0.0
 11
25.0004
 21
47.7379
 31
0.0
  0
LINE
  8
0
 62
     0
 10
25.0004
 20
9.63799
 30
0.0
 11
25.0004
 21
8.63755
 31
0.0
  0
LINE
  8
0
 62
     0
 10
25.0004
 20
8.63755
 30
0.0
 11
10.9995
 21
8.63755
 31
0.0
  0
LINE
  8
0
 62
     0
 10
10.9995
 20
8.63755
 30
0.0
 11
10.9995
 21
9.63799
 31
0.0
  0
LINE
  8
0
 62
     0
 10
10.9995
 20
9.63799
 30
0.0
 11
10.2003
 21
9.63799
 31
0.0
  0
LINE
  8
0
 62
     0
 10
10.2003
 20
9.63799
 30
0.0
 11
10.2003
 21
12.7386
 31
0.0
  0
LINE
  8
0
 62
     0
 10
10.2003
 20
12.7386
 30
0.0
 11
10.9995
 21
12.7386
 31
0.0
  0
LINE
  8
0
 62
     0
 10
10.9995
 20
12.7386
 30
0.0
 11
10.9995
 21
18.5374
 31
0.0
  0
LINE
  8
0
 62
     0
 10
10.9995
 20
18.5374
 30
0.0
 11
10.2003
 21
18.5374
 31
0.0
  0
LINE
  8
0
 62
     0
 10
10.2003
 20
18.5374
 30
0.0
 11
10.2003
 21
21.6379
 31
0.0
  0
LINE
  8
0
 62
     0
 10
10.2003
 20
21.6379
 30
0.0
 11
10.9995
 21
21.6379
 31
0.0
  0
LINE
  8
0
 62
     0
 10
10.9995
 20
21.6379
 30
0.0
 11
10.9995
 21
22.6384
 31
0.0
  0
LINE
  8
0
 62
     0
 10
10.9995
 20
22.6384
 30
0.0
 11
25.0004
 21
22.6384
 31
0.0
  0
LINE
  8
0
 62
     0
 10
25.0004
 20
22.6384
 30
0.0
 11
25.0004
 21
21.6379
 31
0.0
  0
LINE
  8
0
 62
     0
 10
25.0004
 20
21.6379
 30
0.0
 11
25.7996
 21
21.6379
 31
0.0
  0
LINE
  8
0
 62
     0
 10
25.7996
 20
21.6379
 30
0.0
 11
25.7996
 21
18.5374
 31
0.0
  0
LINE
  8
0
 62
     0
 10
25.7996
 20
18.5374
 30
0.0
 11
25.0004
 21
18.5374
 31
0.0
  0
LINE
  8
0
 62
     0
 10
25.0004
 20
18.5374
 30
0.0
 11
25.0004
 21
12.7386
 31
0.0
  0
LINE
  8
0
 62
     0
 10
25.0004
 20
12.7386
 30
0.0
 11
25.7996
 21
12.7386
 31
0.0
  0
LINE
  8
0
 62
     0
 10
25.7996
 20
12.7386
 30
0.0
 11
25.7996
 21
9.63799
 31
0.0
  0
LINE
  8
0
 62
     0
 10
25.7996
 20
9.63799
 30
0.0
 11
25.0004
 21
9.63799
 31
0.0
  0
LINE
  8
0
 62
     0
 10
29.7629
 20
28.688
 30
0.0
 11
29.7629
 21
27.6876
 31
0.0
  0
LINE
  8
0
 62
     0
 10
29.7629
 20
27.6876
 30
0.0
 11
15.7634
 21
27.6876
 31
0.0
  0
LINE
  8
0
 62
     0
 10
15.7634
 20
27.6876
 30
0.0
 11
15.7634
 21
28.688
 31
0.0
  0
LINE
  8
0
 62
     0
 10
15.7634
 20
28.688
 30
0.0
 11
14.9628
 21
28.688
 31
0.0
  0
LINE
  8
0
 62
     0
 10
14.9628
 20
28.688
 30
0.0
 11
14.9628
 21
31.7886
 31
0.0
  0
LINE
  8
0
 62
     0
 10
14.9628
 20
31.7886
 30
0.0
 11
15.7634
 21
31.7886
 31
0.0
  0
LINE
  8
0
 62
     0
 10
15.7634
 20
31.7886
 30
0.0
 11
15.7634
 21
37.5874
 31
0.0
  0
LINE
  8
0
 62
     0
 10
15.7634
 20
37.5874
 30
0.0
 11
14.9628
 21
37.5874
 31
0.0
  0
LINE
  8
0
 62
     0
 10
14.9628
 20
37.5874
 30
0.0
 11
14.9628
 21
40.688
 31
0.0
  0
LINE
  8
0
 62
     0
 10
14.9628
 20
40.688
 30
0.0
 11
15.7634
 21
40.688
 31
0.0
  0
LINE
  8
0
 62
     0
 10
15.7634
 20
40.688
 30
0.0
 11
15.7634
 21
41.6885
 31
0.0
  0
LINE
  8
0
 62
     0
 10
15.7634
 20
41.6885
 30
0.0
 11
29.7629
 21
41.6885
 31
0.0
  0
LINE
  8
0
 62
     0
 10
29.7629
 20
41.6885
 30
0.0
 11
29.7629
 21
40.688
 31
0.0
  0
LINE
  8
0
 62
     0
 10
29.7629
 20
40.688
 30
0.0
 11
30.5621
 21
40.688
 31
0.0
  0
LINE
  8
0
 62
     0
 10
30.5621
 20
40.688
 30
0.0
 11
30.5621
 21
37.5874
 31
0.0
  0
LINE
  8
0
 62
     0
 10
30.5621
 20
37.5874
 30
0.0
 11
29.7629
 21
37.5874
 31
0.0
  0
LINE
  8
0
 62
     0
 10
29.7629
 20
37.5874
 30
0.0
 11
29.7629
 21
31.7886
 31
0.0
  0
LINE
  8
0
 62
     0
 10
29.7629
 20
31.7886
 30
0.0
 11
30.5621
 21
31.7886
 31
0.0
  0
LINE
  8
0
 62
     0
 10
30.5621
 20
31.7886
 30
0.0
 11
30.5621
 21
28.688
 31
0.0
  0
LINE
  8
0
 62
     0
 10
30.5621
 20
28.688
 30
0.0
 11
29.7629
 21
28.688
 31
0.0
  0
LINE
  8
0
 62
     0
 10
41.6691
 20
66.7879
 30
0.0
 11
41.6691
 21
65.7874
 31
0.0
  0
LINE
  8
0
 62
     0
 10
41.6691
 20
65.7874
 30
0.0
 11
27.6683
 21
65.7874
 31
0.0
  0
LINE
  8
0
 62
     0
 10
27.6683
 20
65.7874
 30
0.0
 11
27.6683
 21
66.7879
 31
0.0
  0
LINE
  8
0
 62
     0
 10
27.6683
 20
66.7879
 30
0.0
 11
26.869
 21
66.7879
 31
0.0
  0
LINE
  8
0
 62
     0
 10
26.869
 20
66.7879
 30
0.0
 11
26.869
 21
69.8885
 31
0.0
  0
LINE
  8
0
 62
     0
 10
26.869
 20
69.8885
 30
0.0
 11
27.6683
 21
69.8885
 31
0.0
  0
LINE
  8
0
 62
     0
 10
27.6683
 20
69.8885
 30
0.0
 11
27.6683
 21
75.6874
 31
0.0
  0
LINE
  8
0
 62
     0
 10
27.6683
 20
75.6874
 30
0.0
 11
26.869
 21
75.6874
 31
0.0
  0
LINE
  8
0
 62
     0
 10
26.869
 20
75.6874
 30
0.0
 11
26.869
 21
78.788
 31
0.0
  0
LINE
  8
0
 62
     0
 10
26.869
 20
78.788
 30
0.0
 11
27.6683
 21
78.788
 31
0.0
  0
LINE
  8
0
 62
     0
 10
27.6683
 20
78.788
 30
0.0
 11
27.6683
 21
79.7885
 31
0.0
  0
LINE
  8
0
 62
     0
 10
27.6683
 20
79.7885
 30
0.0
 11
41.6691
 21
79.7885
 31
0.0
  0
LINE
  8
0
 62
     0
 10
41.6691
 20
79.7885
 30
0.0
 11
41.6691
 21
78.788
 31
0.0
  0
LINE
  8
0
 62
     0
 10
41.6691
 20
78.788
 30
0.0
 11
42.4684
 21
78.788
 31
0.0
  0
LINE
  8
0
 62
     0
 10
42.4684
 20
78.788
 30
0.0
 11
42.4684
 21
75.6874
 31
0.0
  0
LINE
  8
0
 62
     0
 10
42.4684
 20
75.6874
 30
0.0
 11
41.6691
 21
75.6874
 31
0.0
  0
LINE
  8
0
 62
     0
 10
41.6691
 20
75.6874
 30
0.0
 11
41.6691
 21
69.8885
 31
0.0
  0
LINE
  8
0
 62
     0
 10
41.6691
 20
69.8885
 30
0.0
 11
42.4684
 21
69.8885
 31
0.0
  0
LINE
  8
0
 62
     0
 10
42.4684
 20
69.8885
 30
0.0
 11
42.4684
 21
66.7879
 31
0.0
  0
LINE
  8
0
 62
     0
 10
42.4684
 20
66.7879
 30
0.0
 11
41.6691
 21
66.7879
 31
0.0
  0
LINE
  8
0
 62
     0
 10
46.4301
 20
47.7379
 30
0.0
 11
46.4301
 21
46.7374
 31
0.0
  0
LINE
  8
0
 62
     0
 10
46.4301
 20
46.7374
 30
0.0
 11
32.4308
 21
46.7374
 31
0.0
  0
LINE
  8
0
 62
     0
 10
32.4308
 20
46.7374
 30
0.0
 11
32.4308
 21
47.7379
 31
0.0
  0
LINE
  8
0
 62
     0
 10
32.4308
 20
47.7379
 30
0.0
 11
31.6315
 21
47.7379
 31
0.0
  0
LINE
  8
0
 62
     0
 10
31.6315
 20
47.7379
 30
0.0
 11
31.6315
 21
50.8385
 31
0.0
  0
LINE
  8
0
 62
     0
 10
31.6315
 20
50.8385
 30
0.0
 11
32.4308
 21
50.8385
 31
0.0
  0
LINE
  8
0
 62
     0
 10
32.4308
 20
50.8385
 30
0.0
 11
32.4308
 21
56.6374
 31
0.0
  0
LINE
  8
0
 62
     0
 10
32.4308
 20
56.6374
 30
0.0
 11
31.6315
 21
56.6374
 31
0.0
  0
LINE
  8
0
 62
     0
 10
31.6315
 20
56.6374
 30
0.0
 11
31.6315
 21
59.738
 31
0.0
  0
LINE
  8
0
 62
     0
 10
31.6315
 20
59.738
 30
0.0
 11
32.4308
 21
59.738
 31
0.0
  0
LINE
  8
0
 62
     0
 10
32.4308
 20
59.738
 30
0.0
 11
32.4308
 21
60.7385
 31
0.0
  0
LINE
  8
0
 62
     0
 10
32.4308
 20
60.7385
 30
0.0
 11
46.4301
 21
60.7385
 31
0.0
  0
LINE
  8
0
 62
     0
 10
46.4301
 20
60.7385
 30
0.0
 11
46.4301
 21
59.738
 31
0.0
  0
LINE
  8
0
 62
     0
 10
46.4301
 20
59.738
 30
0.0
 11
47.2309
 21
59.738
 31
0.0
  0
LINE
  8
0
 62
     0
 10
47.2309
 20
59.738
 30
0.0
 11
47.2309
 21
56.6374
 31
0.0
  0
LINE
  8
0
 62
     0
 10
47.2309
 20
56.6374
 30
0.0
 11
46.4301
 21
56.6374
 31
0.0
  0
LINE
  8
0
 62
     0
 10
46.4301
 20
56.6374
 30
0.0
 11
46.4301
 21
50.8385
 31
0.0
  0
LINE
  8
0
 62
     0
 10
46.4301
 20
50.8385
 30
0.0
 11
47.2309
 21
50.8385
 31
0.0
  0
LINE
  8
0
 62
     0
 10
47.2309
 20
50.8385
 30
0.0
 11
47.2309
 21
47.7379
 31
0.0
  0
LINE
  8
0
 62
     0
 10
47.2309
 20
47.7379
 30
0.0
 11
46.4301
 21
47.7379
 31
0.0
  0
LINE
  8
0
 62
     0
 10
46.4301
 20
9.63799
 30
0.0
 11
46.4301
 21
8.63755
 31
0.0
  0
LINE
  8
0
 62
     0
 10
46.4301
 20
8.63755
 30
0.0
 11
32.4308
 21
8.63755
 31
0.0
  0
LINE
  8
0
 62
     0
 10
32.4308
 20
8.63755
 30
0.0
 11
32.4308
 21
9.63799
 31
0.0
  0
LINE
  8
0
 62
     0
 10
32.4308
 20
9.63799
 30
0.0
 11
31.6315
 21
9.63799
 31
0.0
  0
LINE
  8
0
 62
     0
 10
31.6315
 20
9.63799
 30
0.0
 11
31.6315
 21
12.7386
 31
0.0
  0
LINE
  8
0
 62
     0
 10
31.6315
 20
12.7386
 30
0.0
 11
32.4308
 21
12.7386
 31
0.0
  0
LINE
  8
0
 62
     0
 10
32.4308
 20
12.7386
 30
0.0
 11
32.4308
 21
18.5374
 31
0.0
  0
LINE
  8
0
 62
     0
 10
32.4308
 20
18.5374
 30
0.0
 11
31.6315
 21
18.5374
 31
0.0
  0
LINE
  8
0
 62
     0
 10
31.6315
 20
18.5374
 30
0.0
 11
31.6315
 21
21.6379
 31
0.0
  0
LINE
  8
0
 62
     0
 10
31.6315
 20
21.6379
 30
0.0
 11
32.4308
 21
21.6379
 31
0.0
  0
LINE
  8
0
 62
     0
 10
32.4308
 20
21.6379
 30
0.0
 11
32.4308
 21
22.6384
 31
0.0
  0
LINE
  8
0
 62
     0
 10
32.4308
 20
22.6384
 30
0.0
 11
46.4301
 21
22.6384
 31
0.0
  0
LINE
  8
0
 62
     0
 10
46.4301
 20
22.6384
 30
0.0
 11
46.4301
 21
21.6379
 31
0.0
  0
LINE
  8
0
 62
     0
 10
46.4301
 20
21.6379
 30
0.0
 11
47.2309
 21
21.6379
 31
0.0
  0
LINE
  8
0
 62
     0
 10
47.2309
 20
21.6379
 30
0.0
 11
47.2309
 21
18.5374
 31
0.0
  0
LINE
  8
0
 62
     0
 10
47.2309
 20
18.5374
 30
0.0
 11
46.4301
 21
18.5374
 31
0.0
  0
LINE
  8
0
 62
     0
 10
46.4301
 20
18.5374
 30
0.0
 11
46.4301
 21
12.7386
 31
0.0
  0
LINE
  8
0
 62
     0
 10
46.4301
 20
12.7386
 30
0.0
 11
47.2309
 21
12.7386
 31
0.0
  0
LINE
  8
0
 62
     0
 10
47.2309
 20
12.7386
 30
0.0
 11
47.2309
 21
9.63799
 31
0.0
  0
LINE
  8
0
 62
     0
 10
47.2309
 20
9.63799
 30
0.0
 11
46.4301
 21
9.63799
 31
0.0
  0
LINE
  8
0
 62
     0
 10
55.9551
 20
28.688
 30
0.0
 11
55.9551
 21
27.6876
 31
0.0
  0
LINE
  8
0
 62
     0
 10
55.9551
 20
27.6876
 30
0.0
 11
41.9559
 21
27.6876
 31
0.0
  0
LINE
  8
0
 62
     0
 10
41.9559
 20
27.6876
 30
0.0
 11
41.9559
 21
28.688
 31
0.0
  0
LINE
  8
0
 62
     0
 10
41.9559
 20
28.688
 30
0.0
 11
41.1551
 21
28.688
 31
0.0
  0
LINE
  8
0
 62
     0
 10
41.1551
 20
28.688
 30
0.0
 11
41.1551
 21
31.7886
 31
0.0
  0
LINE
  8
0
 62
     0
 10
41.1551
 20
31.7886
 30
0.0
 11
41.9559
 21
31.7886
 31
0.0
  0
LINE
  8
0
 62
     0
 10
41.9559
 20
31.7886
 30
0.0
 11
41.9559
 21
37.5874
 31
0.0
  0
LINE
  8
0
 62
     0
 10
41.9559
 20
37.5874
 30
0.0
 11
41.1551
 21
37.5874
 31
0.0
  0
LINE
  8
0
 62
     0
 10
41.1551
 20
37.5874
 30
0.0
 11
41.1551
 21
40.688
 31
0.0
  0
LINE
  8
0
 62
     0
 10
41.1551
 20
40.688
 30
0.0
 11
41.9559
 21
40.688
 31
0.0
  0
LINE
  8
0
 62
     0
 10
41.9559
 20
40.688
 30
0.0
 11
41.9559
 21
41.6885
 31
0.0
  0
LINE
  8
0
 62
     0
 10
41.9559
 20
41.6885
 30
0.0
 11
55.9551
 21
41.6885
 31
0.0
  0
LINE
  8
0
 62
     0
 10
55.9551
 20
41.6885
 30
0.0
 11
55.9551
 21
40.688
 31
0.0
  0
LINE
  8
0
 62
     0
 10
55.9551
 20
40.688
 30
0.0
 11
56.7559
 21
40.688
 31
0.0
  0
LINE
  8
0
 62
     0
 10
56.7559
 20
40.688
 30
0.0
 11
56.7559
 21
37.5874
 31
0.0
  0
LINE
  8
0
 62
     0
 10
56.7559
 20
37.5874
 30
0.0
 11
55.9551
 21
37.5874
 31
0.0
  0
LINE
  8
0
 62
     0
 10
55.9551
 20
37.5874
 30
0.0
 11
55.9551
 21
31.7886
 31
0.0
  0
LINE
  8
0
 62
     0
 10
55.9551
 20
31.7886
 30
0.0
 11
56.7559
 21
31.7886
 31
0.0
  0
LINE
  8
0
 62
     0
 10
56.7559
 20
31.7886
 30
0.0
 11
56.7559
 21
28.688
 31
0.0
  0
LINE
  8
0
 62
     0
 10
56.7559
 20
28.688
 30
0.0
 11
55.9551
 21
28.688
 31
0.0
  0
LINE
  8
0
 62
     0
 10
60.7191
 20
66.7879
 30
0.0
 11
60.7191
 21
65.7874
 31
0.0
  0
LINE
  8
0
 62
     0
 10
60.7191
 20
65.7874
 30
0.0
 11
46.7184
 21
65.7874
 31
0.0
  0
LINE
  8
0
 62
     0
 10
46.7184
 20
65.7874
 30
0.0
 11
46.7184
 21
66.7879
 31
0.0
  0
LINE
  8
0
 62
     0
 10
46.7184
 20
66.7879
 30
0.0
 11
45.919
 21
66.7879
 31
0.0
  0
LINE
  8
0
 62
     0
 10
45.919
 20
66.7879
 30
0.0
 11
45.919
 21
69.8885
 31
0.0
  0
LINE
  8
0
 62
     0
 10
45.919
 20
69.8885
 30
0.0
 11
46.7184
 21
69.8885
 31
0.0
  0
LINE
  8
0
 62
     0
 10
46.7184
 20
69.8885
 30
0.0
 11
46.7184
 21
75.6874
 31
0.0
  0
LINE
  8
0
 62
     0
 10
46.7184
 20
75.6874
 30
0.0
 11
45.919
 21
75.6874
 31
0.0
  0
LINE
  8
0
 62
     0
 10
45.919
 20
75.6874
 30
0.0
 11
45.919
 21
78.788
 31
0.0
  0
LINE
  8
0
 62
     0
 10
45.919
 20
78.788
 30
0.0
 11
46.7184
 21
78.788
 31
0.0
  0
LINE
  8
0
 62
     0
 10
46.7184
 20
78.788
 30
0.0
 11
46.7184
 21
79.7885
 31
0.0
  0
LINE
  8
0
 62
     0
 10
46.7184
 20
79.7885
 30
0.0
 11
60.7191
 21
79.7885
 31
0.0
  0
LINE
  8
0
 62
     0
 10
60.7191
 20
79.7885
 30
0.0
 11
60.7191
 21
78.788
 31
0.0
  0
LINE
  8
0
 62
     0
 10
60.7191
 20
78.788
 30
0.0
 11
61.5184
 21
78.788
 31
0.0
  0
LINE
  8
0
 62
     0
 10
61.5184
 20
78.788
 30
0.0
 11
61.5184
 21
75.6874
 31
0.0
  0
LINE
  8
0
 62
     0
 10
61.5184
 20
75.6874
 30
0.0
 11
60.7191
 21
75.6874
 31
0.0
  0
LINE
  8
0
 62
     0
 10
60.7191
 20
75.6874
 30
0.0
 11
60.7191
 21
69.8885
 31
0.0
  0
LINE
  8
0
 62
     0
 10
60.7191
 20
69.8885
 30
0.0
 11
61.5184
 21
69.8885
 31
0.0
  0
LINE
  8
0
 62
     0
 10
61.5184
 20
69.8885
 30
0.0
 11
61.5184
 21
66.7879
 31
0.0
  0
LINE
  8
0
 62
     0
 10
61.5184
 20
66.7879
 30
0.0
 11
60.7191
 21
66.7879
 31
0.0
  0
LINE
  8
0
 62
     0
 10
65.4816
 20
47.7379
 30
0.0
 11
65.4816
 21
46.7374
 31
0.0
  0
LINE
  8
0
 62
     0
 10
65.4816
 20
46.7374
 30
0.0
 11
51.4823
 21
46.7374
 31
0.0
  0
LINE
  8
0
 62
     0
 10
51.4823
 20
46.7374
 30
0.0
 11
51.4823
 21
47.7379
 31
0.0
  0
LINE
  8
0
 62
     0
 10
51.4823
 20
47.7379
 30
0.0
 11
50.6815
 21
47.7379
 31
0.0
  0
LINE
  8
0
 62
     0
 10
50.6815
 20
47.7379
 30
0.0
 11
50.6815
 21
50.8385
 31
0.0
  0
LINE
  8
0
 62
     0
 10
50.6815
 20
50.8385
 30
0.0
 11
51.4823
 21
50.8385
 31
0.0
  0
LINE
  8
0
 62
     0
 10
51.4823
 20
50.8385
 30
0.0
 11
51.4823
 21
56.6374
 31
0.0
  0
LINE
  8
0
 62
     0
 10
51.4823
 20
56.6374
 30
0.0
 11
50.6815
 21
56.6374
 31
0.0
  0
LINE
  8
0
 62
     0
 10
50.6815
 20
56.6374
 30
0.0
 11
50.6815
 21
59.738
 31
0.0
  0
LINE
  8
0
 62
     0
 10
50.6815
 20
59.738
 30
0.0
 11
51.4823
 21
59.738
 31
0.0
  0
LINE
  8
0
 62
     0
 10
51.4823
 20
59.738
 30
0.0
 11
51.4823
 21
60.7385
 31
0.0
  0
LINE
  8
0
 62
     0
 10
51.4823
 20
60.7385
 30
0.0
 11
65.4816
 21
60.7385
 31
0.0
  0
LINE
  8
0
 62
     0
 10
65.4816
 20
60.7385
 30
0.0
 11
65.4816
 21
59.738
 31
0.0
  0
LINE
  8
0
 62
     0
 10
65.4816
 20
59.738
 30
0.0
 11
66.2824
 21
59.738
 31
0.0
  0
LINE
  8
0
 62
     0
 10
66.2824
 20
59.738
 30
0.0
 11
66.2824
 21
56.6374
 31
0.0
  0
LINE
  8
0
 62
     0
 10
66.2824
 20
56.6374
 30
0.0
 11
65.4816
 21
56.6374
 31
0.0
  0
LINE
  8
0
 62
     0
 10
65.4816
 20
56.6374
 30
0.0
 11
65.4816
 21
50.8385
 31
0.0
  0
LINE
  8
0
 62
     0
 10
65.4816
 20
50.8385
 30
0.0
 11
66.2824
 21
50.8385
 31
0.0
  0
LINE
  8
0
 62
     0
 10
66.2824
 20
50.8385
 30
0.0
 11
66.2824
 21
47.7379
 31
0.0
  0
LINE
  8
0
 62
     0
 10
66.2824
 20
47.7379
 30
0.0
 11
65.4816
 21
47.7379
 31
0.0
  0
LINE
  8
0
 62
     0
 10
65.4816
 20
9.63799
 30
0.0
 11
65.4816
 21
8.63755
 31
0.0
  0
LINE
  8
0
 62
     0
 10
65.4816
 20
8.63755
 30
0.0
 11
51.4823
 21
8.63755
 31
0.0
  0
LINE
  8
0
 62
     0
 10
51.4823
 20
8.63755
 30
0.0
 11
51.4823
 21
9.63799
 31
0.0
  0
LINE
  8
0
 62
     0
 10
51.4823
 20
9.63799
 30
0.0
 11
50.6815
 21
9.63799
 31
0.0
  0
LINE
  8
0
 62
     0
 10
50.6815
 20
9.63799
 30
0.0
 11
50.6815
 21
12.7386
 31
0.0
  0
LINE
  8
0
 62
     0
 10
50.6815
 20
12.7386
 30
0.0
 11
51.4823
 21
12.7386
 31
0.0
  0
LINE
  8
0
 62
     0
 10
51.4823
 20
12.7386
 30
0.0
 11
51.4823
 21
18.5374
 31
0.0
  0
LINE
  8
0
 62
     0
 10
51.4823
 20
18.5374
 30
0.0
 11
50.6815
 21
18.5374
 31
0.0
  0
LINE
  8
0
 62
     0
 10
50.6815
 20
18.5374
 30
0.0
 11
50.6815
 21
21.6379
 31
0.0
  0
LINE
  8
0
 62
     0
 10
50.6815
 20
21.6379
 30
0.0
 11
51.4823
 21
21.6379
 31
0.0
  0
LINE
  8
0
 62
     0
 10
51.4823
 20
21.6379
 30
0.0
 11
51.4823
 21
22.6384
 31
0.0
  0
LINE
  8
0
 62
     0
 10
51.4823
 20
22.6384
 30
0.0
 11
65.4816
 21
22.6384
 31
0.0
  0
LINE
  8
0
 62
     0
 10
65.4816
 20
22.6384
 30
0.0
 11
65.4816
 21
21.6379
 31
0.0
  0
LINE
  8
0
 62
     0
 10
65.4816
 20
21.6379
 30
0.0
 11
66.2824
 21
21.6379
 31
0.0
  0
LINE
  8
0
 62
     0
 10
66.2824
 20
21.6379
 30
0.0
 11
66.2824
 21
18.5374
 31
0.0
  0
LINE
  8
0
 62
     0
 10
66.2824
 20
18.5374
 30
0.0
 11
65.4816
 21
18.5374
 31
0.0
  0
LINE
  8
0
 62
     0
 10
65.4816
 20
18.5374
 30
0.0
 11
65.4816
 21
12.7386
 31
0.0
  0
LINE
  8
0
 62
     0
 10
65.4816
 20
12.7386
 30
0.0
 11
66.2824
 21
12.7386
 31
0.0
  0
LINE
  8
0
 62
     0
 10
66.2824
 20
12.7386
 30
0.0
 11
66.2824
 21
9.63799
 31
0.0
  0
LINE
  8
0
 62
     0
 10
66.2824
 20
9.63799
 30
0.0
 11
65.4816
 21
9.63799
 31
0.0
  0
LINE
  8
0
 62
     0
 10
75.0051
 20
28.688
 30
0.0
 11
75.0051
 21
27.6876
 31
0.0
  0
LINE
  8
0
 62
     0
 10
75.0051
 20
27.6876
 30
0.0
 11
61.0059
 21
27.6876
 31
0.0
  0
LINE
  8
0
 62
     0
 10
61.0059
 20
27.6876
 30
0.0
 11
61.0059
 21
28.688
 31
0.0
  0
LINE
  8
0
 62
     0
 10
61.0059
 20
28.688
 30
0.0
 11
60.2051
 21
28.688
 31
0.0
  0
LINE
  8
0
 62
     0
 10
60.2051
 20
28.688
 30
0.0
 11
60.2051
 21
31.7886
 31
0.0
  0
LINE
  8
0
 62
     0
 10
60.2051
 20
31.7886
 30
0.0
 11
61.0059
 21
31.7886
 31
0.0
  0
LINE
  8
0
 62
     0
 10
61.0059
 20
31.7886
 30
0.0
 11
61.0059
 21
37.5874
 31
0.0
  0
LINE
  8
0
 62
     0
 10
61.0059
 20
37.5874
 30
0.0
 11
60.2051
 21
37.5874
 31
0.0
  0
LINE
  8
0
 62
     0
 10
60.2051
 20
37.5874
 30
0.0
 11
60.2051
 21
40.688
 31
0.0
  0
LINE
  8
0
 62
     0
 10
60.2051
 20
40.688
 30
0.0
 11
61.0059
 21
40.688
 31
0.0
  0
LINE
  8
0
 62
     0
 10
61.0059
 20
40.688
 30
0.0
 11
61.0059
 21
41.6885
 31
0.0
  0
LINE
  8
0
 62
     0
 10
61.0059
 20
41.6885
 30
0.0
 11
75.0051
 21
41.6885
 31
0.0
  0
LINE
  8
0
 62
     0
 10
75.0051
 20
41.6885
 30
0.0
 11
75.0051
 21
40.688
 31
0.0
  0
LINE
  8
0
 62
     0
 10
75.0051
 20
40.688
 30
0.0
 11
75.8059
 21
40.688
 31
0.0
  0
LINE
  8
0
 62
     0
 10
75.8059
 20
40.688
 30
0.0
 11
75.8059
 21
37.5874
 31
0.0
  0
LINE
  8
0
 62
     0
 10
75.8059
 20
37.5874
 30
0.0
 11
75.0051
 21
37.5874
 31
0.0
  0
LINE
  8
0
 62
     0
 10
75.0051
 20
37.5874
 30
0.0
 11
75.0051
 21
31.7886
 31
0.0
  0
LINE
  8
0
 62
     0
 10
75.0051
 20
31.7886
 30
0.0
 11
75.8059
 21
31.7886
 31
0.0
  0
LINE
  8
0
 62
     0
 10
75.8059
 20
31.7886
 30
0.0
 11
75.8059
 21
28.688
 31
0.0
  0
LINE
  8
0
 62
     0
 10
75.8059
 20
28.688
 30
0.0
 11
75.0051
 21
28.688
 31
0.0
  0
LINE
  8
0
 62
     0
 10
79.7691
 20
66.7879
 30
0.0
 11
79.7691
 21
65.7874
 31
0.0
  0
LINE
  8
0
 62
     0
 10
79.7691
 20
65.7874
 30
0.0
 11
65.7684
 21
65.7874
 31
0.0
  0
LINE
  8
0
 62
     0
 10
65.7684
 20
65.7874
 30
0.0
 11
65.7684
 21
66.7879
 31
0.0
  0
LINE
  8
0
 62
     0
 10
65.7684
 20
66.7879
 30
0.0
 11
64.969
 21
66.7879
 31
0.0
  0
LINE
  8
0
 62
     0
 10
64.969
 20
66.7879
 30
0.0
 11
64.969
 21
69.8885
 31
0.0
  0
LINE
  8
0
 62
     0
 10
64.969
 20
69.8885
 30
0.0
 11
65.7684
 21
69.8885
 31
0.0
  0
LINE
  8
0
 62
     0
 10
65.7684
 20
69.8885
 30
0.0
 11
65.7684
 21
75.6874
 31
0.0
  0
LINE
  8
0
 62
     0
 10
65.7684
 20
75.6874
 30
0.0
 11
64.969
 21
75.6874
 31
0.0
  0
LINE
  8
0
 62
     0
 10
64.969
 20
75.6874
 30
0.0
 11
64.969
 21
78.788
 31
0.0
  0
LINE
  8
0
 62
     0
 10
64.969
 20
78.788
 30
0.0
 11
65.7684
 21
78.788
 31
0.0
  0
LINE
  8
0
 62
     0
 10
65.7684
 20
78.788
 30
0.0
 11
65.7684
 21
79.7885
 31
0.0
  0
LINE
  8
0
 62
     0
 10
65.7684
 20
79.7885
 30
0.0
 11
79.7691
 21
79.7885
 31
0.0
  0
LINE
  8
0
 62
     0
 10
79.7691
 20
79.7885
 30
0.0
 11
79.7691
 21
78.788
 31
0.0
  0
LINE
  8
0
 62
     0
 10
79.7691
 20
78.788
 30
0.0
 11
80.5684
 21
78.788
 31
0.0
  0
LINE
  8
0
 62
     0
 10
80.5684
 20
78.788
 30
0.0
 11
80.5684
 21
75.6874
 31
0.0
  0
LINE
  8
0
 62
     0
 10
80.5684
 20
75.6874
 30
0.0
 11
79.7691
 21
75.6874
 31
0.0
  0
LINE
  8
0
 62
     0
 10
79.7691
 20
75.6874
 30
0.0
 11
79.7691
 21
69.8885
 31
0.0
  0
LINE
  8
0
 62
     0
 10
79.7691
 20
69.8885
 30
0.0
 11
80.5684
 21
69.8885
 31
0.0
  0
LINE
  8
0
 62
     0
 10
80.5684
 20
69.8885
 30
0.0
 11
80.5684
 21
66.7879
 31
0.0
  0
LINE
  8
0
 62
     0
 10
80.5684
 20
66.7879
 30
0.0
 11
79.7691
 21
66.7879
 31
0.0
  0
LINE
  8
0
 62
     0
 10
84.5316
 20
47.7379
 30
0.0
 11
84.5316
 21
46.7374
 31
0.0
  0
LINE
  8
0
 62
     0
 10
84.5316
 20
46.7374
 30
0.0
 11
70.5323
 21
46.7374
 31
0.0
  0
LINE
  8
0
 62
     0
 10
70.5323
 20
46.7374
 30
0.0
 11
70.5323
 21
47.7379
 31
0.0
  0
LINE
  8
0
 62
     0
 10
70.5323
 20
47.7379
 30
0.0
 11
69.7315
 21
47.7379
 31
0.0
  0
LINE
  8
0
 62
     0
 10
69.7315
 20
47.7379
 30
0.0
 11
69.7315
 21
50.8385
 31
0.0
  0
LINE
  8
0
 62
     0
 10
69.7315
 20
50.8385
 30
0.0
 11
70.5323
 21
50.8385
 31
0.0
  0
LINE
  8
0
 62
     0
 10
70.5323
 20
50.8385
 30
0.0
 11
70.5323
 21
56.6374
 31
0.0
  0
LINE
  8
0
 62
     0
 10
70.5323
 20
56.6374
 30
0.0
 11
69.7315
 21
56.6374
 31
0.0
  0
LINE
  8
0
 62
     0
 10
69.7315
 20
56.6374
 30
0.0
 11
69.7315
 21
59.738
 31
0.0
  0
LINE
  8
0
 62
     0
 10
69.7315
 20
59.738
 30
0.0
 11
70.5323
 21
59.738
 31
0.0
  0
LINE
  8
0
 62
     0
 10
70.5323
 20
59.738
 30
0.0
 11
70.5323
 21
60.7385
 31
0.0
  0
LINE
  8
0
 62
     0
 10
70.5323
 20
60.7385
 30
0.0
 11
84.5316
 21
60.7385
 31
0.0
  0
LINE
  8
0
 62
     0
 10
84.5316
 20
60.7385
 30
0.0
 11
84.5316
 21
59.738
 31
0.0
  0
LINE
  8
0
 62
     0
 10
84.5316
 20
59.738
 30
0.0
 11
85.3309
 21
59.738
 31
0.0
  0
LINE
  8
0
 62
     0
 10
85.3309
 20
59.738
 30
0.0
 11
85.3309
 21
56.6374
 31
0.0
  0
LINE
  8
0
 62
     0
 10
85.3309
 20
56.6374
 30
0.0
 11
84.5316
 21
56.6374
 31
0.0
  0
LINE
  8
0
 62
     0
 10
84.5316
 20
56.6374
 30
0.0
 11
84.5316
 21
50.8385
 31
0.0
  0
LINE
  8
0
 62
     0
 10
84.5316
 20
50.8385
 30
0.0
 11
85.3309
 21
50.8385
 31
0.0
  0
LINE
  8
0
 62
     0
 10
85.3309
 20
50.8385
 30
0.0
 11
85.3309
 21
47.7379
 31
0.0
  0
LINE
  8
0
 62
     0
 10
85.3309
 20
47.7379
 30
0.0
 11
84.5316
 21
47.7379
 31
0.0
  0
LINE
  8
0
 62
     0
 10
94.0551
 20
28.688
 30
0.0
 11
94.0551
 21
27.6876
 31
0.0
  0
LINE
  8
0
 62
     0
 10
94.0551
 20
27.6876
 30
0.0
 11
80.0559
 21
27.6876
 31
0.0
  0
LINE
  8
0
 62
     0
 10
80.0559
 20
27.6876
 30
0.0
 11
80.0559
 21
28.688
 31
0.0
  0
LINE
  8
0
 62
     0
 10
80.0559
 20
28.688
 30
0.0
 11
79.2551
 21
28.688
 31
0.0
  0
LINE
  8
0
 62
     0
 10
79.2551
 20
28.688
 30
0.0
 11
79.2551
 21
31.7886
 31
0.0
  0
LINE
  8
0
 62
     0
 10
79.2551
 20
31.7886
 30
0.0
 11
80.0559
 21
31.7886
 31
0.0
  0
LINE
  8
0
 62
     0
 10
80.0559
 20
31.7886
 30
0.0
 11
80.0559
 21
37.5874
 31
0.0
  0
LINE
  8
0
 62
     0
 10
80.0559
 20
37.5874
 30
0.0
 11
79.2551
 21
37.5874
 31
0.0
  0
LINE
  8
0
 62
     0
 10
79.2551
 20
37.5874
 30
0.0
 11
79.2551
 21
40.688
 31
0.0
  0
LINE
  8
0
 62
     0
 10
79.2551
 20
40.688
 30
0.0
 11
80.0559
 21
40.688
 31
0.0
  0
LINE
  8
0
 62
     0
 10
80.0559
 20
40.688
 30
0.0
 11
80.0559
 21
41.6885
 31
0.0
  0
LINE
  8
0
 62
     0
 10
80.0559
 20
41.6885
 30
0.0
 11
94.0551
 21
41.6885
 31
0.0
  0
LINE
  8
0
 62
     0
 10
94.0551
 20
41.6885
 30
0.0
 11
94.0551
 21
40.688
 31
0.0
  0
LINE
  8
0
 62
     0
 10
94.0551
 20
40.688
 30
0.0
 11
94.8559
 21
40.688
 31
0.0
  0
LINE
  8
0
 62
     0
 10
94.8559
 20
40.688
 30
0.0
 11
94.8559
 21
37.5874
 31
0.0
  0
LINE
  8
0
 62
     0
 10
94.8559
 20
37.5874
 30
0.0
 11
94.0551
 21
37.5874
 31
0.0
  0
LINE
  8
0
 62
     0
 10
94.0551
 20
37.5874
 30
0.0
 11
94.0551
 21
31.7886
 31
0.0
  0
LINE
  8
0
 62
     0
 10
94.0551
 20
31.7886
 30
0.0
 11
94.8559
 21
31.7886
 31
0.0
  0
LINE
  8
0
 62
     0
 10
94.8559
 20
31.7886
 30
0.0
 11
94.8559
 21
28.688
 31
0.0
  0
LINE
  8
0
 62
     0
 10
94.8559
 20
28.688
 30
0.0
 11
94.0551
 21
28.688
 31
0.0
  0
LINE
  8
0
 62
     0
 10
98.8191
 20
66.7879
 30
0.0
 11
98.8191
 21
65.7874
 31
0.0
  0
LINE
  8
0
 62
     0
 10
98.8191
 20
65.7874
 30
0.0
 11
84.8184
 21
65.7874
 31
0.0
  0
LINE
  8
0
 62
     0
 10
84.8184
 20
65.7874
 30
0.0
 11
84.8184
 21
66.7879
 31
0.0
  0
LINE
  8
0
 62
     0
 10
84.8184
 20
66.7879
 30
0.0
 11
84.019
 21
66.7879
 31
0.0
  0
LINE
  8
0
 62
     0
 10
84.019
 20
66.7879
 30
0.0
 11
84.019
 21
69.8885
 31
0.0
  0
LINE
  8
0
 62
     0
 10
84.019
 20
69.8885
 30
0.0
 11
84.8184
 21
69.8885
 31
0.0
  0
LINE
  8
0
 62
     0
 10
84.8184
 20
69.8885
 30
0.0
 11
84.8184
 21
75.6874
 31
0.0
  0
LINE
  8
0
 62
     0
 10
84.8184
 20
75.6874
 30
0.0
 11
84.019
 21
75.6874
 31
0.0
  0
LINE
  8
0
 62
     0
 10
84.019
 20
75.6874
 30
0.0
 11
84.019
 21
78.788
 31
0.0
  0
LINE
  8
0
 62
     0
 10
84.019
 20
78.788
 30
0.0
 11
84.8184
 21
78.788
 31
0.0
  0
LINE
  8
0
 62
     0
 10
84.8184
 20
78.788
 30
0.0
 11
84.8184
 21
79.7885
 31
0.0
  0
LINE
  8
0
 62
     0
 10
84.8184
 20
79.7885
 30
0.0
 11
98.8191
 21
79.7885
 31
0.0
  0
LINE
  8
0
 62
     0
 10
98.8191
 20
79.7885
 30
0.0
 11
98.8191
 21
78.788
 31
0.0
  0
LINE
  8
0
 62
     0
 10
98.8191
 20
78.788
 30
0.0
 11
99.6184
 21
78.788
 31
0.0
  0
LINE
  8
0
 62
     0
 10
99.6184
 20
78.788
 30
0.0
 11
99.6184
 21
75.6874
 31
0.0
  0
LINE
  8
0
 62
     0
 10
99.6184
 20
75.6874
 30
0.0
 11
98.8191
 21
75.6874
 31
0.0
  0
LINE
  8
0
 62
     0
 10
98.8191
 20
75.6874
 30
0.0
 11
98.8191
 21
69.8885
 31
0.0
  0
LINE
  8
0
 62
     0
 10
98.8191
 20
69.8885
 30
0.0
 11
99.6184
 21
69.8885
 31
0.0
  0
LINE
  8
0
 62
     0
 10
99.6184
 20
69.8885
 30
0.0
 11
99.6184
 21
66.7879
 31
0.0
  0
LINE
  8
0
 62
     0
 10
99.6184
 20
66.7879
 30
0.0
 11
98.8191
 21
66.7879
 31
0.0
  0
LINE
  8
0
 62
     0
 10
103.58
 20
47.7379
 30
0.0
 11
103.58
 21
46.7374
 31
0.0
  0
LINE
  8
0
 62
     0
 10
103.58
 20
46.7374
 30
0.0
 11
89.5809
 21
46.7374
 31
0.0
  0
LINE
  8
0
 62
     0
 10
89.5809
 20
46.7374
 30
0.0
 11
89.5809
 21
47.7379
 31
0.0
  0
LINE
  8
0
 62
     0
 10
89.5809
 20
47.7379
 30
0.0
 11
88.7815
 21
47.7379
 31
0.0
  0
LINE
  8
0
 62
     0
 10
88.7815
 20
47.7379
 30
0.0
 11
88.7815
 21
50.8385
 31
0.0
  0
LINE
  8
0
 62
     0
 10
88.7815
 20
50.8385
 30
0.0
 11
89.5809
 21
50.8385
 31
0.0
  0
LINE
  8
0
 62
     0
 10
89.5809
 20
50.8385
 30
0.0
 11
89.5809
 21
56.6374
 31
0.0
  0
LINE
  8
0
 62
     0
 10
89.5809
 20
56.6374
 30
0.0
 11
88.7815
 21
56.6374
 31
0.0
  0
LINE
  8
0
 62
     0
 10
88.7815
 20
56.6374
 30
0.0
 11
88.7815
 21
59.738
 31
0.0
  0
LINE
  8
0
 62
     0
 10
88.7815
 20
59.738
 30
0.0
 11
89.5809
 21
59.738
 31
0.0
  0
LINE
  8
0
 62
     0
 10
89.5809
 20
59.738
 30
0.0
 11
89.5809
 21
60.7385
 31
0.0
  0
LINE
  8
0
 62
     0
 10
89.5809
 20
60.7385
 30
0.0
 11
103.58
 21
60.7385
 31
0.0
  0
LINE
  8
0
 62
     0
 10
103.58
 20
60.7385
 30
0.0
 11
103.58
 21
59.738
 31
0.0
  0
LINE
  8
0
 62
     0
 10
103.58
 20
59.738
 30
0.0
 11
104.381
 21
59.738
 31
0.0
  0
LINE
  8
0
 62
     0
 10
104.381
 20
59.738
 30
0.0
 11
104.381
 21
56.6374
 31
0.0
  0
LINE
  8
0
 62
     0
 10
104.381
 20
56.6374
 30
0.0
 11
103.58
 21
56.6374
 31
0.0
  0
LINE
  8
0
 62
     0
 10
103.58
 20
56.6374
 30
0.0
 11
103.58
 21
50.8385
 31
0.0
  0
LINE
  8
0
 62
     0
 10
103.58
 20
50.8385
 30
0.0
 11
104.381
 21
50.8385
 31
0.0
  0
LINE
  8
0
 62
     0
 10
104.381
 20
50.8385
 30
0.0
 11
104.381
 21
47.7379
 31
0.0
  0
LINE
  8
0
 62
     0
 10
104.381
 20
47.7379
 30
0.0
 11
103.58
 21
47.7379
 31
0.0
  0
LINE
  8
0
 62
     0
 10
113.105
 20
28.688
 30
0.0
 11
113.105
 21
27.6876
 31
0.0
  0
LINE
  8
0
 62
     0
 10
113.105
 20
27.6876
 30
0.0
 11
99.1059
 21
27.6876
 31
0.0
  0
LINE
  8
0
 62
     0
 10
99.1059
 20
27.6876
 30
0.0
 11
99.1059
 21
28.688
 31
0.0
  0
LINE
  8
0
 62
     0
 10
99.1059
 20
28.688
 30
0.0
 11
98.3051
 21
28.688
 31
0.0
  0
LINE
  8
0
 62
     0
 10
98.3051
 20
28.688
 30
0.0
 11
98.3051
 21
31.7886
 31
0.0
  0
LINE
  8
0
 62
     0
 10
98.3051
 20
31.7886
 30
0.0
 11
99.1059
 21
31.7886
 31
0.0
  0
LINE
  8
0
 62
     0
 10
99.1059
 20
31.7886
 30
0.0
 11
99.1059
 21
37.5874
 31
0.0
  0
LINE
  8
0
 62
     0
 10
99.1059
 20
37.5874
 30
0.0
 11
98.3051
 21
37.5874
 31
0.0
  0
LINE
  8
0
 62
     0
 10
98.3051
 20
37.5874
 30
0.0
 11
98.3051
 21
40.688
 31
0.0
  0
LINE
  8
0
 62
     0
 10
98.3051
 20
40.688
 30
0.0
 11
99.1059
 21
40.688
 31
0.0
  0
LINE
  8
0
 62
     0
 10
99.1059
 20
40.688
 30
0.0
 11
99.1059
 21
41.6885
 31
0.0
  0
LINE
  8
0
 62
     0
 10
99.1059
 20
41.6885
 30
0.0
 11
113.105
 21
41.6885
 31
0.0
  0
LINE
  8
0
 62
     0
 10
113.105
 20
41.6885
 30
0.0
 11
113.105
 21
40.688
 31
0.0
  0
LINE
  8
0
 62
     0
 10
113.105
 20
40.688
 30
0.0
 11
113.906
 21
40.688
 31
0.0
  0
LINE
  8
0
 62
     0
 10
113.906
 20
40.688
 30
0.0
 11
113.906
 21
37.5874
 31
0.0
  0
LINE
  8
0
 62
     0
 10
113.906
 20
37.5874
 30
0.0
 11
113.105
 21
37.5874
 31
0.0
  0
LINE
  8
0
 62
     0
 10
113.105
 20
37.5874
 30
0.0
 11
113.105
 21
31.7886
 31
0.0
  0
LINE
  8
0
 62
     0
 10
113.105
 20
31.7886
 30
0.0
 11
113.906
 21
31.7886
 31
0.0
  0
LINE
  8
0
 62
     0
 10
113.906
 20
31.7886
 30
0.0
 11
113.906
 21
28.688
 31
0.0
  0
LINE
  8
0
 62
     0
 10
113.906
 20
28.688
 30
0.0
 11
113.105
 21
28.688
 31
0.0
  0
LINE
  8
0
 62
     0
 10
117.869
 20
66.7879
 30
0.0
 11
117.869
 21
65.7874
 31
0.0
  0
LINE
  8
0
 62
     0
 10
117.869
 20
65.7874
 30
0.0
 11
103.868
 21
65.7874
 31
0.0
  0
LINE
  8
0
 62
     0
 10
103.868
 20
65.7874
 30
0.0
 11
103.868
 21
66.7879
 31
0.0
  0
LINE
  8
0
 62
     0
 10
103.868
 20
66.7879
 30
0.0
 11
103.069
 21
66.7879
 31
0.0
  0
LINE
  8
0
 62
     0
 10
103.069
 20
66.7879
 30
0.0
 11
103.069
 21
69.8885
 31
0.0
  0
LINE
  8
0
 62
     0
 10
103.069
 20
69.8885
 30
0.0
 11
103.868
 21
69.8885
 31
0.0
  0
LINE
  8
0
 62
     0
 10
103.868
 20
69.8885
 30
0.0
 11
103.868
 21
75.6874
 31
0.0
  0
LINE
  8
0
 62
     0
 10
103.868
 20
75.6874
 30
0.0
 11
103.069
 21
75.6874
 31
0.0
  0
LINE
  8
0
 62
     0
 10
103.069
 20
75.6874
 30
0.0
 11
103.069
 21
78.788
 31
0.0
  0
LINE
  8
0
 62
     0
 10
103.069
 20
78.788
 30
0.0
 11
103.868
 21
78.788
 31
0.0
  0
LINE
  8
0
 62
     0
 10
103.868
 20
78.788
 30
0.0
 11
103.868
 21
79.7885
 31
0.0
  0
LINE
  8
0
 62
     0
 10
103.868
 20
79.7885
 30
0.0
 11
117.869
 21
79.7885
 31
0.0
  0
LINE
  8
0
 62
     0
 10
117.869
 20
79.7885
 30
0.0
 11
117.869
 21
78.788
 31
0.0
  0
LINE
  8
0
 62
     0
 10
117.869
 20
78.788
 30
0.0
 11
118.668
 21
78.788
 31
0.0
  0
LINE
  8
0
 62
     0
 10
118.668
 20
78.788
 30
0.0
 11
118.668
 21
75.6874
 31
0.0
  0
LINE
  8
0
 62
     0
 10
118.668
 20
75.6874
 30
0.0
 11
117.869
 21
75.6874
 31
0.0
  0
LINE
  8
0
 62
     0
 10
117.869
 20
75.6874
 30
0.0
 11
117.869
 21
69.8885
 31
0.0
  0
LINE
  8
0
 62
     0
 10
117.869
 20
69.8885
 30
0.0
 11
118.668
 21
69.8885
 31
0.0
  0
LINE
  8
0
 62
     0
 10
118.668
 20
69.8885
 30
0.0
 11
118.668
 21
66.7879
 31
0.0
  0
LINE
  8
0
 62
     0
 10
118.668
 20
66.7879
 30
0.0
 11
117.869
 21
66.7879
 31
0.0
  0
LINE
  8
0
 62
     0
 10
122.63
 20
47.7379
 30
0.0
 11
122.63
 21
46.7374
 31
0.0
  0
LINE
  8
0
 62
     0
 10
122.63
 20
46.7374
 30
0.0
 11
108.631
 21
46.7374
 31
0.0
  0
LINE
  8
0
 62
     0
 10
108.631
 20
46.7374
 30
0.0
 11
108.631
 21
47.7379
 31
0.0
  0
LINE
  8
0
 62
     0
 10
108.631
 20
47.7379
 30
0.0
 11
107.83
 21
47.7379
 31
0.0
  0
LINE
  8
0
 62
     0
 10
107.83
 20
47.7379
 30
0.0
 11
107.83
 21
50.8385
 31
0.0
  0
LINE
  8
0
 62
     0
 10
107.83
 20
50.8385
 30
0.0
 11
108.631
 21
50.8385
 31
0.0
  0
LINE
  8
0
 62
     0
 10
108.631
 20
50.8385
 30
0.0
 11
108.631
 21
56.6374
 31
0.0
  0
LINE
  8
0
 62
     0
 10
108.631
 20
56.6374
 30
0.0
 11
107.83
 21
56.6374
 31
0.0
  0
LINE
  8
0
 62
     0
 10
107.83
 20
56.6374
 30
0.0
 11
107.83
 21
59.738
 31
0.0
  0
LINE
  8
0
 62
     0
 10
107.83
 20
59.738
 30
0.0
 11
108.631
 21
59.738
 31
0.0
  0
LINE
  8
0
 62
     0
 10
108.631
 20
59.738
 30
0.0
 11
108.631
 21
60.7385
 31
0.0
  0
LINE
  8
0
 62
     0
 10
108.631
 20
60.7385
 30
0.0
 11
122.63
 21
60.7385
 31
0.0
  0
LINE
  8
0
 62
     0
 10
122.63
 20
60.7385
 30
0.0
 11
122.63
 21
59.738
 31
0.0
  0
LINE
  8
0
 62
     0
 10
122.63
 20
59.738
 30
0.0
 11
123.432
 21
59.738
 31
0.0
  0
LINE
  8
0
 62
     0
 10
123.432
 20
59.738
 30
0.0
 11
123.432
 21
56.6374
 31
0.0
  0
LINE
  8
0
 62
     0
 10
123.432
 20
56.6374
 30
0.0
 11
122.63
 21
56.6374
 31
0.0
  0
LINE
  8
0
 62
     0
 10
122.63
 20
56.6374
 30
0.0
 11
122.63
 21
50.8385
 31
0.0
  0
LINE
  8
0
 62
     0
 10
122.63
 20
50.8385
 30
0.0
 11
123.432
 21
50.8385
 31
0.0
  0
LINE
  8
0
 62
     0
 10
123.432
 20
50.8385
 30
0.0
 11
123.432
 21
47.7379
 31
0.0
  0
LINE
  8
0
 62
     0
 10
123.432
 20
47.7379
 30
0.0
 11
122.63
 21
47.7379
 31
0.0
  0
LINE
  8
0
 62
     0
 10
132.155
 20
28.688
 30
0.0
 11
132.155
 21
27.6876
 31
0.0
  0
LINE
  8
0
 62
     0
 10
132.155
 20
27.6876
 30
0.0
 11
118.156
 21
27.6876
 31
0.0
  0
LINE
  8
0
 62
     0
 10
118.156
 20
27.6876
 30
0.0
 11
118.156
 21
28.688
 31
0.0
  0
LINE
  8
0
 62
     0
 10
118.156
 20
28.688
 30
0.0
 11
117.356
 21
28.688
 31
0.0
  0
LINE
  8
0
 62
     0
 10
117.356
 20
28.688
 30
0.0
 11
117.356
 21
31.7886
 31
0.0
  0
LINE
  8
0
 62
     0
 10
117.356
 20
31.7886
 30
0.0
 11
118.156
 21
31.7886
 31
0.0
  0
LINE
  8
0
 62
     0
 10
118.156
 20
31.7886
 30
0.0
 11
118.156
 21
37.5874
 31
0.0
  0
LINE
  8
0
 62
     0
 10
118.156
 20
37.5874
 30
0.0
 11
117.356
 21
37.5874
 31
0.0
  0
LINE
  8
0
 62
     0
 10
117.356
 20
37.5874
 30
0.0
 11
117.356
 21
40.688
 31
0.0
  0
LINE
  8
0
 62
     0
 10
117.356
 20
40.688
 30
0.0
 11
118.156
 21
40.688
 31
0.0
  0
LINE
  8
0
 62
     0
 10
118.156
 20
40.688
 30
0.0
 11
118.156
 21
41.6885
 31
0.0
  0
LINE
  8
0
 62
     0
 10
118.156
 20
41.6885
 30
0.0
 11
132.155
 21
41.6885
 31
0.0
  0
LINE
  8
0
 62
     0
 10
132.155
 20
41.6885
 30
0.0
 11
132.155
 21
40.688
 31
0.0
  0
LINE
  8
0
 62
     0
 10
132.155
 20
40.688
 30
0.0
 11
132.957
 21
40.688
 31
0.0
  0
LINE
  8
0
 62
     0
 10
132.957
 20
40.688
 30
0.0
 11
132.957
 21
37.5874
 31
0.0
  0
LINE
  8
0
 62
     0
 10
132.957
 20
37.5874
 30
0.0
 11
132.155
 21
37.5874
 31
0.0
  0
LINE
  8
0
 62
     0
 10
132.155
 20
37.5874
 30
0.0
 11
132.155
 21
31.7886
 31
0.0
  0
LINE
  8
0
 62
     0
 10
132.155
 20
31.7886
 30
0.0
 11
132.957
 21
31.7886
 31
0.0
  0
LINE
  8
0
 62
     0
 10
132.957
 20
31.7886
 30
0.0
 11
132.957
 21
28.688
 31
0.0
  0
LINE
  8
0
 62
     0
 10
132.957
 20
28.688
 30
0.0
 11
132.155
 21
28.688
 31
0.0
  0
LINE
  8
0
 62
     0
 10
136.919
 20
66.7879
 30
0.0
 11
136.919
 21
65.7874
 31
0.0
  0
LINE
  8
0
 62
     0
 10
136.919
 20
65.7874
 30
0.0
 11
122.918
 21
65.7874
 31
0.0
  0
LINE
  8
0
 62
     0
 10
122.918
 20
65.7874
 30
0.0
 11
122.918
 21
66.7879
 31
0.0
  0
LINE
  8
0
 62
     0
 10
122.918
 20
66.7879
 30
0.0
 11
122.119
 21
66.7879
 31
0.0
  0
LINE
  8
0
 62
     0
 10
122.119
 20
66.7879
 30
0.0
 11
122.119
 21
69.8885
 31
0.0
  0
LINE
  8
0
 62
     0
 10
122.119
 20
69.8885
 30
0.0
 11
122.918
 21
69.8885
 31
0.0
  0
LINE
  8
0
 62
     0
 10
122.918
 20
69.8885
 30
0.0
 11
122.918
 21
75.6874
 31
0.0
  0
LINE
  8
0
 62
     0
 10
122.918
 20
75.6874
 30
0.0
 11
122.119
 21
75.6874
 31
0.0
  0
LINE
  8
0
 62
     0
 10
122.119
 20
75.6874
 30
0.0
 11
122.119
 21
78.788
 31
0.0
  0
LINE
  8
0
 62
     0
 10
122.119
 20
78.788
 30
0.0
 11
122.918
 21
78.788
 31
0.0
  0
LINE
  8
0
 62
     0
 10
122.918
 20
78.788
 30
0.0
 11
122.918
 21
79.7885
 31
0.0
  0
LINE
  8
0
 62
     0
 10
122.918
 20
79.7885
 30
0.0
 11
136.919
 21
79.7885
 31
0.0
  0
LINE
  8
0
 62
     0
 10
136.919
 20
79.7885
 30
0.0
 11
136.919
 21
78.788
 31
0.0
  0
LINE
  8
0
 62
     0
 10
136.919
 20
78.788
 30
0.0
 11
137.718
 21
78.788
 31
0.0
  0
LINE
  8
0
 62
     0
 10
137.718
 20
78.788
 30
0.0
 11
137.718
 21
75.6874
 31
0.0
  0
LINE
  8
0
 62
     0
 10
137.718
 20
75.6874
 30
0.0
 11
136.919
 21
75.6874
 31
0.0
  0
LINE
  8
0
 62
     0
 10
136.919
 20
75.6874
 30
0.0
 11
136.919
 21
69.8885
 31
0.0
  0
LINE
  8
0
 62
     0
 10
136.919
 20
69.8885
 30
0.0
 11
137.718
 21
69.8885
 31
0.0
  0
LINE
  8
0
 62
     0
 10
137.718
 20
69.8885
 30
0.0
 11
137.718
 21
66.7879
 31
0.0
  0
LINE
  8
0
 62
     0
 10
137.718
 20
66.7879
 30
0.0
 11
136.919
 21
66.7879
 31
0.0
  0
LINE
  8
0
 62
     0
 10
141.682
 20
47.7379
 30
0.0
 11
141.682
 21
46.7374
 31
0.0
  0
LINE
  8
0
 62
     0
 10
141.682
 20
46.7374
 30
0.0
 11
127.682
 21
46.7374
 31
0.0
  0
LINE
  8
0
 62
     0
 10
127.682
 20
46.7374
 30
0.0
 11
127.682
 21
47.7379
 31
0.0
  0
LINE
  8
0
 62
     0
 10
127.682
 20
47.7379
 30
0.0
 11
126.88
 21
47.7379
 31
0.0
  0
LINE
  8
0
 62
     0
 10
126.88
 20
47.7379
 30
0.0
 11
126.88
 21
50.8385
 31
0.0
  0
LINE
  8
0
 62
     0
 10
126.88
 20
50.8385
 30
0.0
 11
127.682
 21
50.8385
 31
0.0
  0
LINE
  8
0
 62
     0
 10
127.682
 20
50.8385
 30
0.0
 11
127.682
 21
56.6374
 31
0.0
  0
LINE
  8
0
 62
     0
 10
127.682
 20
56.6374
 30
0.0
 11
126.88
 21
56.6374
 31
0.0
  0
LINE
  8
0
 62
     0
 10
126.88
 20
56.6374
 30
0.0
 11
126.88
 21
59.738
 31
0.0
  0
LINE
  8
0
 62
     0
 10
126.88
 20
59.738
 30
0.0
 11
127.682
 21
59.738
 31
0.0
  0
LINE
  8
0
 62
     0
 10
127.682
 20
59.738
 30
0.0
 11
127.682
 21
60.7385
 31
0.0
  0
LINE
  8
0
 62
     0
 10
127.682
 20
60.7385
 30
0.0
 11
141.682
 21
60.7385
 31
0.0
  0
LINE
  8
0
 62
     0
 10
141.682
 20
60.7385
 30
0.0
 11
141.682
 21
59.738
 31
0.0
  0
LINE
  8
0
 62
     0
 10
141.682
 20
59.738
 30
0.0
 11
142.482
 21
59.738
 31
0.0
  0
LINE
  8
0
 62
     0
 10
142.482
 20
59.738
 30
0.0
 11
142.482
 21
56.6374
 31
0.0
  0
LINE
  8
0
 62
     0
 10
142.482
 20
56.6374
 30
0.0
 11
141.682
 21
56.6374
 31
0.0
  0
LINE
  8
0
 62
     0
 10
141.682
 20
56.6374
 30
0.0
 11
141.682
 21
50.8385
 31
0.0
  0
LINE
  8
0
 62
     0
 10
141.682
 20
50.8385
 30
0.0
 11
142.482
 21
50.8385
 31
0.0
  0
LINE
  8
0
 62
     0
 10
142.482
 20
50.8385
 30
0.0
 11
142.482
 21
47.7379
 31
0.0
  0
LINE
  8
0
 62
     0
 10
142.482
 20
47.7379
 30
0.0
 11
141.682
 21
47.7379
 31
0.0
  0
LINE
  8
0
 62
     0
 10
151.207
 20
28.688
 30
0.0
 11
151.207
 21
27.6876
 31
0.0
  0
LINE
  8
0
 62
     0
 10
151.207
 20
27.6876
 30
0.0
 11
137.207
 21
27.6876
 31
0.0
  0
LINE
  8
0
 62
     0
 10
137.207
 20
27.6876
 30
0.0
 11
137.207
 21
28.688
 31
0.0
  0
LINE
  8
0
 62
     0
 10
137.207
 20
28.688
 30
0.0
 11
136.405
 21
28.688
 31
0.0
  0
LINE
  8
0
 62
     0
 10
136.405
 20
28.688
 30
0.0
 11
136.405
 21
31.7886
 31
0.0
  0
LINE
  8
0
 62
     0
 10
136.405
 20
31.7886
 30
0.0
 11
137.207
 21
31.7886
 31
0.0
  0
LINE
  8
0
 62
     0
 10
137.207
 20
31.7886
 30
0.0
 11
137.207
 21
37.5874
 31
0.0
  0
LINE
  8
0
 62
     0
 10
137.207
 20
37.5874
 30
0.0
 11
136.405
 21
37.5874
 31
0.0
  0
LINE
  8
0
 62
     0
 10
136.405
 20
37.5874
 30
0.0
 11
136.405
 21
40.688
 31
0.0
  0
LINE
  8
0
 62
     0
 10
136.405
 20
40.688
 30
0.0
 11
137.207
 21
40.688
 31
0.0
  0
LINE
  8
0
 62
     0
 10
137.207
 20
40.688
 30
0.0
 11
137.207
 21
41.6885
 31
0.0
  0
LINE
  8
0
 62
     0
 10
137.207
 20
41.6885
 30
0.0
 11
151.207
 21
41.6885
 31
0.0
  0
LINE
  8
0
 62
     0
 10
151.207
 20
41.6885
 30
0.0
 11
151.207
 21
40.688
 31
0.0
  0
LINE
  8
0
 62
     0
 10
151.207
 20
40.688
 30
0.0
 11
152.007
 21
40.688
 31
0.0
  0
LINE
  8
0
 62
     0
 10
152.007
 20
40.688
 30
0.0
 11
152.007
 21
37.5874
 31
0.0
  0
LINE
  8
0
 62
     0
 10
152.007
 20
37.5874
 30
0.0
 11
151.207
 21
37.5874
 31
0.0
  0
LINE
  8
0
 62
     0
 10
151.207
 20
37.5874
 30
0.0
 11
151.207
 21
31.7886
 31
0.0
  0
LINE
  8
0
 62
     0
 10
151.207
 20
31.7886
 30
0.0
 11
152.007
 21
31.7886
 31
0.0
  0
LINE
  8
0
 62
     0
 10
152.007
 20
31.7886
 30
0.0
 11
152.007
 21
28.688
 31
0.0
  0
LINE
  8
0
 62
     0
 10
152.007
 20
28.688
 30
0.0
 11
151.207
 21
28.688
 31
0.0
  0
LINE
  8
0
 62
     0
 10
155.969
 20
66.7879
 30
0.0
 11
155.969
 21
65.7874
 31
0.0
  0
LINE
  8
0
 62
     0
 10
155.969
 20
65.7874
 30
0.0
 11
141.968
 21
65.7874
 31
0.0
  0
LINE
  8
0
 62
     0
 10
141.968
 20
65.7874
 30
0.0
 11
141.968
 21
66.7879
 31
0.0
  0
LINE
  8
0
 62
     0
 10
141.968
 20
66.7879
 30
0.0
 11
141.169
 21
66.7879
 31
0.0
  0
LINE
  8
0
 62
     0
 10
141.169
 20
66.7879
 30
0.0
 11
141.169
 21
69.8885
 31
0.0
  0
LINE
  8
0
 62
     0
 10
141.169
 20
69.8885
 30
0.0
 11
141.968
 21
69.8885
 31
0.0
  0
LINE
  8
0
 62
     0
 10
141.968
 20
69.8885
 30
0.0
 11
141.968
 21
75.6874
 31
0.0
  0
LINE
  8
0
 62
     0
 10
141.968
 20
75.6874
 30
0.0
 11
141.169
 21
75.6874
 31
0.0
  0
LINE
  8
0
 62
     0
 10
141.169
 20
75.6874
 30
0.0
 11
141.169
 21
78.788
 31
0.0
  0
LINE
  8
0
 62
     0
 10
141.169
 20
78.788
 30
0.0
 11
141.968
 21
78.788
 31
0.0
  0
LINE
  8
0
 62
     0
 10
141.968
 20
78.788
 30
0.0
 11
141.968
 21
79.7885
 31
0.0
  0
LINE
  8
0
 62
     0
 10
141.968
 20
79.7885
 30
0.0
 11
155.969
 21
79.7885
 31
0.0
  0
LINE
  8
0
 62
     0
 10
155.969
 20
79.7885
 30
0.0
 11
155.969
 21
78.788
 31
0.0
  0
LINE
  8
0
 62
     0
 10
155.969
 20
78.788
 30
0.0
 11
156.768
 21
78.788
 31
0.0
  0
LINE
  8
0
 62
     0
 10
156.768
 20
78.788
 30
0.0
 11
156.768
 21
75.6874
 31
0.0
  0
LINE
  8
0
 62
     0
 10
156.768
 20
75.6874
 30
0.0
 11
155.969
 21
75.6874
 31
0.0
  0
LINE
  8
0
 62
     0
 10
155.969
 20
75.6874
 30
0.0
 11
155.969
 21
69.8885
 31
0.0
  0
LINE
  8
0
 62
     0
 10
155.969
 20
69.8885
 30
0.0
 11
156.768
 21
69.8885
 31
0.0
  0
LINE
  8
0
 62
     0
 10
156.768
 20
69.8885
 30
0.0
 11
156.768
 21
66.7879
 31
0.0
  0
LINE
  8
0
 62
     0
 10
156.768
 20
66.7879
 30
0.0
 11
155.969
 21
66.7879
 31
0.0
  0
LINE
  8
0
 62
     0
 10
160.732
 20
47.7379
 30
0.0
 11
160.732
 21
46.7374
 31
0.0
  0
LINE
  8
0
 62
     0
 10
160.732
 20
46.7374
 30
0.0
 11
146.732
 21
46.7374
 31
0.0
  0
LINE
  8
0
 62
     0
 10
146.732
 20
46.7374
 30
0.0
 11
146.732
 21
47.7379
 31
0.0
  0
LINE
  8
0
 62
     0
 10
146.732
 20
47.7379
 30
0.0
 11
145.931
 21
47.7379
 31
0.0
  0
LINE
  8
0
 62
     0
 10
145.931
 20
47.7379
 30
0.0
 11
145.931
 21
50.8385
 31
0.0
  0
LINE
  8
0
 62
     0
 10
145.931
 20
50.8385
 30
0.0
 11
146.732
 21
50.8385
 31
0.0
  0
LINE
  8
0
 62
     0
 10
146.732
 20
50.8385
 30
0.0
 11
146.732
 21
56.6374
 31
0.0
  0
LINE
  8
0
 62
     0
 10
146.732
 20
56.6374
 30
0.0
 11
145.931
 21
56.6374
 31
0.0
  0
LINE
  8
0
 62
     0
 10
145.931
 20
56.6374
 30
0.0
 11
145.931
 21
59.738
 31
0.0
  0
LINE
  8
0
 62
     0
 10
145.931
 20
59.738
 30
0.0
 11
146.732
 21
59.738
 31
0.0
  0
LINE
  8
0
 62
     0
 10
146.732
 20
59.738
 30
0.0
 11
146.732
 21
60.7385
 31
0.0
  0
LINE
  8
0
 62
     0
 10
146.732
 20
60.7385
 30
0.0
 11
160.732
 21
60.7385
 31
0.0
  0
LINE
  8
0
 62
     0
 10
160.732
 20
60.7385
 30
0.0
 11
160.732
 21
59.738
 31
0.0
  0
LINE
  8
0
 62
     0
 10
160.732
 20
59.738
 30
0.0
 11
161.532
 21
59.738
 31
0.0
  0
LINE
  8
0
 62
     0
 10
161.532
 20
59.738
 30
0.0
 11
161.532
 21
56.6374
 31
0.0
  0
LINE
  8
0
 62
     0
 10
161.532
 20
56.6374
 30
0.0
 11
160.732
 21
56.6374
 31
0.0
  0
LINE
  8
0
 62
     0
 10
160.732
 20
56.6374
 30
0.0
 11
160.732
 21
50.8385
 31
0.0
  0
LINE
  8
0
 62
     0
 10
160.732
 20
50.8385
 30
0.0
 11
161.532
 21
50.8385
 31
0.0
  0
LINE
  8
0
 62
     0
 10
161.532
 20
50.8385
 30
0.0
 11
161.532
 21
47.7379
 31
0.0
  0
LINE
  8
0
 62
     0
 10
161.532
 20
47.7379
 30
0.0
 11
160.732
 21
47.7379
 31
0.0
  0
LINE
  8
0
 62
     0
 10
170.257
 20
28.688
 30
0.0
 11
170.257
 21
27.6876
 31
0.0
  0
LINE
  8
0
 62
     0
 10
170.257
 20
27.6876
 30
0.0
 11
156.257
 21
27.6876
 31
0.0
  0
LINE
  8
0
 62
     0
 10
156.257
 20
27.6876
 30
0.0
 11
156.257
 21
28.688
 31
0.0
  0
LINE
  8
0
 62
     0
 10
156.257
 20
28.688
 30
0.0
 11
155.456
 21
28.688
 31
0.0
  0
LINE
  8
0
 62
     0
 10
155.456
 20
28.688
 30
0.0
 11
155.456
 21
31.7886
 31
0.0
  0
LINE
  8
0
 62
     0
 10
155.456
 20
31.7886
 30
0.0
 11
156.257
 21
31.7886
 31
0.0
  0
LINE
  8
0
 62
     0
 10
156.257
 20
31.7886
 30
0.0
 11
156.257
 21
37.5874
 31
0.0
  0
LINE
  8
0
 62
     0
 10
156.257
 20
37.5874
 30
0.0
 11
155.456
 21
37.5874
 31
0.0
  0
LINE
  8
0
 62
     0
 10
155.456
 20
37.5874
 30
0.0
 11
155.456
 21
40.688
 31
0.0
  0
LINE
  8
0
 62
     0
 10
155.456
 20
40.688
 30
0.0
 11
156.257
 21
40.688
 31
0.0
  0
LINE
  8
0
 62
     0
 10
156.257
 20
40.688
 30
0.0
 11
156.257
 21
41.6885
 31
0.0
  0
LINE
  8
0
 62
     0
 10
156.257
 20
41.6885
 30
0.0
 11
170.257
 21
41.6885
 31
0.0
  0
LINE
  8
0
 62
     0
 10
170.257
 20
41.6885
 30
0.0
 11
170.257
 21
40.688
 31
0.0
  0
LINE
  8
0
 62
     0
 10
170.257
 20
40.688
 30
0.0
 11
171.057
 21
40.688
 31
0.0
  0
LINE
  8
0
 62
     0
 10
171.057
 20
40.688
 30
0.0
 11
171.057
 21
37.5874
 31
0.0
  0
LINE
  8
0
 62
     0
 10
171.057
 20
37.5874
 30
0.0
 11
170.257
 21
37.5874
 31
0.0
  0
LINE
  8
0
 62
     0
 10
170.257
 20
37.5874
 30
0.0
 11
170.257
 21
31.7886
 31
0.0
  0
LINE
  8
0
 62
     0
 10
170.257
 20
31.7886
 30
0.0
 11
171.057
 21
31.7886
 31
0.0
  0
LINE
  8
0
 62
     0
 10
171.057
 20
31.7886
 30
0.0
 11
171.057
 21
28.688
 31
0.0
  0
LINE
  8
0
 62
     0
 10
171.057
 20
28.688
 30
0.0
 11
170.257
 21
28.688
 31
0.0
  0
LINE
  8
0
 62
     0
 10
175.019
 20
66.7879
 30
0.0
 11
175.019
 21
65.7874
 31
0.0
  0
LINE
  8
0
 62
     0
 10
175.019
 20
65.7874
 30
0.0
 11
161.018
 21
65.7874
 31
0.0
  0
LINE
  8
0
 62
     0
 10
161.018
 20
65.7874
 30
0.0
 11
161.018
 21
66.7879
 31
0.0
  0
LINE
  8
0
 62
     0
 10
161.018
 20
66.7879
 30
0.0
 11
160.219
 21
66.7879
 31
0.0
  0
LINE
  8
0
 62
     0
 10
160.219
 20
66.7879
 30
0.0
 11
160.219
 21
69.8885
 31
0.0
  0
LINE
  8
0
 62
     0
 10
160.219
 20
69.8885
 30
0.0
 11
161.018
 21
69.8885
 31
0.0
  0
LINE
  8
0
 62
     0
 10
161.018
 20
69.8885
 30
0.0
 11
161.018
 21
75.6874
 31
0.0
  0
LINE
  8
0
 62
     0
 10
161.018
 20
75.6874
 30
0.0
 11
160.219
 21
75.6874
 31
0.0
  0
LINE
  8
0
 62
     0
 10
160.219
 20
75.6874
 30
0.0
 11
160.219
 21
78.788
 31
0.0
  0
LINE
  8
0
 62
     0
 10
160.219
 20
78.788
 30
0.0
 11
161.018
 21
78.788
 31
0.0
  0
LINE
  8
0
 62
     0
 10
161.018
 20
78.788
 30
0.0
 11
161.018
 21
79.7885
 31
0.0
  0
LINE
  8
0
 62
     0
 10
161.018
 20
79.7885
 30
0.0
 11
175.019
 21
79.7885
 31
0.0
  0
LINE
  8
0
 62
     0
 10
175.019
 20
79.7885
 30
0.0
 11
175.019
 21
78.788
 31
0.0
  0
LINE
  8
0
 62
     0
 10
175.019
 20
78.788
 30
0.0
 11
175.818
 21
78.788
 31
0.0
  0
LINE
  8
0
 62
     0
 10
175.818
 20
78.788
 30
0.0
 11
175.818
 21
75.6874
 31
0.0
  0
LINE
  8
0
 62
     0
 10
175.818
 20
75.6874
 30
0.0
 11
175.019
 21
75.6874
 31
0.0
  0
LINE
  8
0
 62
     0
 10
175.019
 20
75.6874
 30
0.0
 11
175.019
 21
69.8885
 31
0.0
  0
LINE
  8
0
 62
     0
 10
175.019
 20
69.8885
 30
0.0
 11
175.818
 21
69.8885
 31
0.0
  0
LINE
  8
0
 62
     0
 10
175.818
 20
69.8885
 30
0.0
 11
175.818
 21
66.7879
 31
0.0
  0
LINE
  8
0
 62
     0
 10
175.818
 20
66.7879
 30
0.0
 11
175.019
 21
66.7879
 31
0.0
  0
LINE
  8
0
 62
     0
 10
179.782
 20
47.7379
 30
0.0
 11
179.782
 21
46.7374
 31
0.0
  0
LINE
  8
0
 62
     0
 10
179.782
 20
46.7374
 30
0.0
 11
165.782
 21
46.7374
 31
0.0
  0
LINE
  8
0
 62
     0
 10
165.782
 20
46.7374
 30
0.0
 11
165.782
 21
47.7379
 31
0.0
  0
LINE
  8
0
 62
     0
 10
165.782
 20
47.7379
 30
0.0
 11
164.981
 21
47.7379
 31
0.0
  0
LINE
  8
0
 62
     0
 10
164.981
 20
47.7379
 30
0.0
 11
164.981
 21
50.8385
 31
0.0
  0
LINE
  8
0
 62
     0
 10
164.981
 20
50.8385
 30
0.0
 11
165.782
 21
50.8385
 31
0.0
  0
LINE
  8
0
 62
     0
 10
165.782
 20
50.8385
 30
0.0
 11
165.782
 21
56.6374
 31
0.0
  0
LINE
  8
0
 62
     0
 10
165.782
 20
56.6374
 30
0.0
 11
164.981
 21
56.6374
 31
0.0
  0
LINE
  8
0
 62
     0
 10
164.981
 20
56.6374
 30
0.0
 11
164.981
 21
59.738
 31
0.0
  0
LINE
  8
0
 62
     0
 10
164.981
 20
59.738
 30
0.0
 11
165.782
 21
59.738
 31
0.0
  0
LINE
  8
0
 62
     0
 10
165.782
 20
59.738
 30
0.0
 11
165.782
 21
60.7385
 31
0.0
  0
LINE
  8
0
 62
     0
 10
165.782
 20
60.7385
 30
0.0
 11
179.782
 21
60.7385
 31
0.0
  0
LINE
  8
0
 62
     0
 10
179.782
 20
60.7385
 30
0.0
 11
179.782
 21
59.738
 31
0.0
  0
LINE
  8
0
 62
     0
 10
179.782
 20
59.738
 30
0.0
 11
180.582
 21
59.738
 31
0.0
  0
LINE
  8
0
 62
     0
 10
180.582
 20
59.738
 30
0.0
 11
180.582
 21
56.6374
 31
0.0
  0
LINE
  8
0
 62
     0
 10
180.582
 20
56.6374
 30
0.0
 11
179.782
 21
56.6374
 31
0.0
  0
LINE
  8
0
 62
     0
 10
179.782
 20
56.6374
 30
0.0
 11
179.782
 21
50.8385
 31
0.0
  0
LINE
  8
0
 62
     0
 10
179.782
 20
50.8385
 30
0.0
 11
180.582
 21
50.8385
 31
0.0
  0
LINE
  8
0
 62
     0
 10
180.582
 20
50.8385
 30
0.0
 11
180.582
 21
47.7379
 31
0.0
  0
LINE
  8
0
 62
     0
 10
180.582
 20
47.7379
 30
0.0
 11
179.782
 21
47.7379
 31
0.0
  0
LINE
  8
0
 62
     0
 10
180.864
 20
15.1378
 30
0.0
 11
180.864
 21
8.86767
 31
0.0
  0
LINE
  8
0
 62
     0
 10
180.864
 20
8.86767
 30
0.0
 11
179.188
 21
8.86767
 31
0.0
  0
LINE
  8
0
 62
     0
 10
179.188
 20
8.86767
 30
0.0
 11
179.188
 21
7.8879
 31
0.0
  0
LINE
  8
0
 62
     0
 10
179.188
 20
7.8879
 30
0.0
 11
175.887
 21
7.8879
 31
0.0
  0
LINE
  8
0
 62
     0
 10
175.887
 20
7.8879
 30
0.0
 11
175.887
 21
8.86767
 31
0.0
  0
LINE
  8
0
 62
     0
 10
175.887
 20
8.86767
 30
0.0
 11
174.213
 21
8.86767
 31
0.0
  0
LINE
  8
0
 62
     0
 10
174.213
 20
8.86767
 30
0.0
 11
174.213
 21
13.338
 31
0.0
  0
LINE
  8
0
 62
     0
 10
174.213
 20
13.338
 30
0.0
 11
134.538
 21
13.338
 31
0.0
  0
LINE
  8
0
 62
     0
 10
134.538
 20
13.338
 30
0.0
 11
134.538
 21
12.7386
 31
0.0
  0
LINE
  8
0
 62
     0
 10
134.538
 20
12.7386
 30
0.0
 11
135.337
 21
12.7386
 31
0.0
  0
LINE
  8
0
 62
     0
 10
135.337
 20
12.7386
 30
0.0
 11
135.337
 21
9.63799
 31
0.0
  0
LINE
  8
0
 62
     0
 10
135.337
 20
9.63799
 30
0.0
 11
134.538
 21
9.63799
 31
0.0
  0
LINE
  8
0
 62
     0
 10
134.538
 20
9.63799
 30
0.0
 11
134.538
 21
8.63755
 31
0.0
  0
LINE
  8
0
 62
     0
 10
134.538
 20
8.63755
 30
0.0
 11
120.539
 21
8.63755
 31
0.0
  0
LINE
  8
0
 62
     0
 10
120.539
 20
8.63755
 30
0.0
 11
120.539
 21
9.63799
 31
0.0
  0
LINE
  8
0
 62
     0
 10
120.539
 20
9.63799
 30
0.0
 11
119.738
 21
9.63799
 31
0.0
  0
LINE
  8
0
 62
     0
 10
119.738
 20
9.63799
 30
0.0
 11
119.738
 21
12.7386
 31
0.0
  0
LINE
  8
0
 62
     0
 10
119.738
 20
12.7386
 30
0.0
 11
120.539
 21
12.7386
 31
0.0
  0
LINE
  8
0
 62
     0
 10
120.539
 20
12.7386
 30
0.0
 11
120.539
 21
13.338
 31
0.0
  0
LINE
  8
0
 62
     0
 10
120.539
 20
13.338
 30
0.0
 11
80.8634
 21
13.338
 31
0.0
  0
LINE
  8
0
 62
     0
 10
80.8634
 20
13.338
 30
0.0
 11
80.8634
 21
8.86767
 31
0.0
  0
LINE
  8
0
 62
     0
 10
80.8634
 20
8.86767
 30
0.0
 11
79.1877
 21
8.86767
 31
0.0
  0
LINE
  8
0
 62
     0
 10
79.1877
 20
8.86767
 30
0.0
 11
79.1877
 21
7.8879
 31
0.0
  0
LINE
  8
0
 62
     0
 10
79.1877
 20
7.8879
 30
0.0
 11
75.8871
 21
7.8879
 31
0.0
  0
LINE
  8
0
 62
     0
 10
75.8871
 20
7.8879
 30
0.0
 11
75.8871
 21
8.86767
 31
0.0
  0
LINE
  8
0
 62
     0
 10
75.8871
 20
8.86767
 30
0.0
 11
74.2128
 21
8.86767
 31
0.0
  0
LINE
  8
0
 62
     0
 10
74.2128
 20
8.86767
 30
0.0
 11
74.2128
 21
15.1378
 31
0.0
  0
LINE
  8
0
 62
     0
 10
74.2128
 20
15.1378
 30
0.0
 11
73.3379
 21
15.1378
 31
0.0
  0
LINE
  8
0
 62
     0
 10
73.3379
 20
15.1378
 30
0.0
 11
73.3379
 21
17.9379
 31
0.0
  0
LINE
  8
0
 62
     0
 10
73.3379
 20
17.9379
 30
0.0
 11
74.2128
 21
17.9379
 31
0.0
  0
LINE
  8
0
 62
     0
 10
74.2128
 20
17.9379
 30
0.0
 11
74.2128
 21
21.168
 31
0.0
  0
LINE
  8
0
 62
     0
 10
74.2128
 20
21.168
 30
0.0
 11
75.8871
 21
21.168
 31
0.0
  0
LINE
  8
0
 62
     0
 10
75.8871
 20
21.168
 30
0.0
 11
75.8871
 21
22.0886
 31
0.0
  0
LINE
  8
0
 62
     0
 10
75.8871
 20
22.0886
 30
0.0
 11
79.1877
 21
22.0886
 31
0.0
  0
LINE
  8
0
 62
     0
 10
79.1877
 20
22.0886
 30
0.0
 11
79.1877
 21
21.168
 31
0.0
  0
LINE
  8
0
 62
     0
 10
79.1877
 20
21.168
 30
0.0
 11
80.8634
 21
21.168
 31
0.0
  0
LINE
  8
0
 62
     0
 10
80.8634
 20
21.168
 30
0.0
 11
80.8634
 21
17.9379
 31
0.0
  0
LINE
  8
0
 62
     0
 10
80.8634
 20
17.9379
 30
0.0
 11
120.539
 21
17.9379
 31
0.0
  0
LINE
  8
0
 62
     0
 10
120.539
 20
17.9379
 30
0.0
 11
120.539
 21
18.5374
 31
0.0
  0
LINE
  8
0
 62
     0
 10
120.539
 20
18.5374
 30
0.0
 11
119.738
 21
18.5374
 31
0.0
  0
LINE
  8
0
 62
     0
 10
119.738
 20
18.5374
 30
0.0
 11
119.738
 21
21.6379
 31
0.0
  0
LINE
  8
0
 62
     0
 10
119.738
 20
21.6379
 30
0.0
 11
120.539
 21
21.6379
 31
0.0
  0
LINE
  8
0
 62
     0
 10
120.539
 20
21.6379
 30
0.0
 11
120.539
 21
22.6384
 31
0.0
  0
LINE
  8
0
 62
     0
 10
120.539
 20
22.6384
 30
0.0
 11
134.538
 21
22.6384
 31
0.0
  0
LINE
  8
0
 62
     0
 10
134.538
 20
22.6384
 30
0.0
 11
134.538
 21
21.6379
 31
0.0
  0
LINE
  8
0
 62
     0
 10
134.538
 20
21.6379
 30
0.0
 11
135.337
 21
21.6379
 31
0.0
  0
LINE
  8
0
 62
     0
 10
135.337
 20
21.6379
 30
0.0
 11
135.337
 21
18.5374
 31
0.0
  0
LINE
  8
0
 62
     0
 10
135.337
 20
18.5374
 30
0.0
 11
134.538
 21
18.5374
 31
0.0
  0
LINE
  8
0
 62
     0
 10
134.538
 20
18.5374
 30
0.0
 11
134.538
 21
17.9379
 31
0.0
  0
LINE
  8
0
 62
     0
 10
134.538
 20
17.9379
 30
0.0
 11
174.213
 21
17.9379
 31
0.0
  0
LINE
  8
0
 62
     0
 10
174.213
 20
17.9379
 30
0.0
 11
174.213
 21
21.168
 31
0.0
  0
LINE
  8
0
 62
     0
 10
174.213
 20
21.168
 30
0.0
 11
175.887
 21
21.168
 31
0.0
  0
LINE
  8
0
 62
     0
 10
175.887
 20
21.168
 30
0.0
 11
175.887
 21
22.0886
 31
0.0
  0
LINE
  8
0
 62
     0
 10
175.887
 20
22.0886
 30
0.0
 11
179.188
 21
22.0886
 31
0.0
  0
LINE
  8
0
 62
     0
 10
179.188
 20
22.0886
 30
0.0
 11
179.188
 21
21.168
 31
0.0
  0
LINE
  8
0
 62
     0
 10
179.188
 20
21.168
 30
0.0
 11
180.864
 21
21.168
 31
0.0
  0
LINE
  8
0
 62
     0
 10
180.864
 20
21.168
 30
0.0
 11
180.864
 21
17.9379
 31
0.0
  0
LINE
  8
0
 62
     0
 10
180.864
 20
17.9379
 30
0.0
 11
181.738
 21
17.9379
 31
0.0
  0
LINE
  8
0
 62
     0
 10
181.738
 20
17.9379
 30
0.0
 11
181.738
 21
15.1378
 31
0.0
  0
LINE
  8
0
 62
     0
 10
181.738
 20
15.1378
 30
0.0
 11
180.864
 21
15.1378
 31
0.0
  0
LINE
  8
0
 62
     0
 10
189.307
 20
28.688
 30
0.0
 11
189.307
 21
27.6876
 31
0.0
  0
LINE
  8
0
 62
     0
 10
189.307
 20
27.6876
 30
0.0
 11
175.307
 21
27.6876
 31
0.0
  0
LINE
  8
0
 62
     0
 10
175.307
 20
27.6876
 30
0.0
 11
175.307
 21
28.688
 31
0.0
  0
LINE
  8
0
 62
     0
 10
175.307
 20
28.688
 30
0.0
 11
174.506
 21
28.688
 31
0.0
  0
LINE
  8
0
 62
     0
 10
174.506
 20
28.688
 30
0.0
 11
174.506
 21
31.7886
 31
0.0
  0
LINE
  8
0
 62
     0
 10
174.506
 20
31.7886
 30
0.0
 11
175.307
 21
31.7886
 31
0.0
  0
LINE
  8
0
 62
     0
 10
175.307
 20
31.7886
 30
0.0
 11
175.307
 21
37.5874
 31
0.0
  0
LINE
  8
0
 62
     0
 10
175.307
 20
37.5874
 30
0.0
 11
174.506
 21
37.5874
 31
0.0
  0
LINE
  8
0
 62
     0
 10
174.506
 20
37.5874
 30
0.0
 11
174.506
 21
40.688
 31
0.0
  0
LINE
  8
0
 62
     0
 10
174.506
 20
40.688
 30
0.0
 11
175.307
 21
40.688
 31
0.0
  0
LINE
  8
0
 62
     0
 10
175.307
 20
40.688
 30
0.0
 11
175.307
 21
41.6885
 31
0.0
  0
LINE
  8
0
 62
     0
 10
175.307
 20
41.6885
 30
0.0
 11
189.307
 21
41.6885
 31
0.0
  0
LINE
  8
0
 62
     0
 10
189.307
 20
41.6885
 30
0.0
 11
189.307
 21
40.688
 31
0.0
  0
LINE
  8
0
 62
     0
 10
189.307
 20
40.688
 30
0.0
 11
190.107
 21
40.688
 31
0.0
  0
LINE
  8
0
 62
     0
 10
190.107
 20
40.688
 30
0.0
 11
190.107
 21
37.5874
 31
0.0
  0
LINE
  8
0
 62
     0
 10
190.107
 20
37.5874
 30
0.0
 11
189.307
 21
37.5874
 31
0.0
  0
LINE
  8
0
 62
     0
 10
189.307
 20
37.5874
 30
0.0
 11
189.307
 21
31.7886
 31
0.0
  0
LINE
  8
0
 62
     0
 10
189.307
 20
31.7886
 30
0.0
 11
190.107
 21
31.7886
 31
0.0
  0
LINE
  8
0
 62
     0
 10
190.107
 20
31.7886
 30
0.0
 11
190.107
 21
28.688
 31
0.0
  0
LINE
  8
0
 62
     0
 10
190.107
 20
28.688
 30
0.0
 11
189.307
 21
28.688
 31
0.0
  0
LINE
  8
0
 62
     0
 10
194.069
 20
66.7879
 30
0.0
 11
194.069
 21
65.7874
 31
0.0
  0
LINE
  8
0
 62
     0
 10
194.069
 20
65.7874
 30
0.0
 11
180.068
 21
65.7874
 31
0.0
  0
LINE
  8
0
 62
     0
 10
180.068
 20
65.7874
 30
0.0
 11
180.068
 21
66.7879
 31
0.0
  0
LINE
  8
0
 62
     0
 10
180.068
 20
66.7879
 30
0.0
 11
179.269
 21
66.7879
 31
0.0
  0
LINE
  8
0
 62
     0
 10
179.269
 20
66.7879
 30
0.0
 11
179.269
 21
69.8885
 31
0.0
  0
LINE
  8
0
 62
     0
 10
179.269
 20
69.8885
 30
0.0
 11
180.068
 21
69.8885
 31
0.0
  0
LINE
  8
0
 62
     0
 10
180.068
 20
69.8885
 30
0.0
 11
180.068
 21
75.6874
 31
0.0
  0
LINE
  8
0
 62
     0
 10
180.068
 20
75.6874
 30
0.0
 11
179.269
 21
75.6874
 31
0.0
  0
LINE
  8
0
 62
     0
 10
179.269
 20
75.6874
 30
0.0
 11
179.269
 21
78.788
 31
0.0
  0
LINE
  8
0
 62
     0
 10
179.269
 20
78.788
 30
0.0
 11
180.068
 21
78.788
 31
0.0
  0
LINE
  8
0
 62
     0
 10
180.068
 20
78.788
 30
0.0
 11
180.068
 21
79.7885
 31
0.0
  0
LINE
  8
0
 62
     0
 10
180.068
 20
79.7885
 30
0.0
 11
194.069
 21
79.7885
 31
0.0
  0
LINE
  8
0
 62
     0
 10
194.069
 20
79.7885
 30
0.0
 11
194.069
 21
78.788
 31
0.0
  0
LINE
  8
0
 62
     0
 10
194.069
 20
78.788
 30
0.0
 11
194.868
 21
78.788
 31
0.0
  0
LINE
  8
0
 62
     0
 10
194.868
 20
78.788
 30
0.0
 11
194.868
 21
75.6874
 31
0.0
  0
LINE
  8
0
 62
     0
 10
194.868
 20
75.6874
 30
0.0
 11
194.069
 21
75.6874
 31
0.0
  0
LINE
  8
0
 62
     0
 10
194.069
 20
75.6874
 30
0.0
 11
194.069
 21
69.8885
 31
0.0
  0
LINE
  8
0
 62
     0
 10
194.069
 20
69.8885
 30
0.0
 11
194.868
 21
69.8885
 31
0.0
  0
LINE
  8
0
 62
     0
 10
194.868
 20
69.8885
 30
0.0
 11
194.868
 21
66.7879
 31
0.0
  0
LINE
  8
0
 62
     0
 10
194.868
 20
66.7879
 30
0.0
 11
194.069
 21
66.7879
 31
0.0
  0
LINE
  8
0
 62
     0
 10
198.832
 20
47.7379
 30
0.0
 11
198.832
 21
46.7374
 31
0.0
  0
LINE
  8
0
 62
     0
 10
198.832
 20
46.7374
 30
0.0
 11
184.832
 21
46.7374
 31
0.0
  0
LINE
  8
0
 62
     0
 10
184.832
 20
46.7374
 30
0.0
 11
184.832
 21
47.7379
 31
0.0
  0
LINE
  8
0
 62
     0
 10
184.832
 20
47.7379
 30
0.0
 11
184.031
 21
47.7379
 31
0.0
  0
LINE
  8
0
 62
     0
 10
184.031
 20
47.7379
 30
0.0
 11
184.031
 21
50.8385
 31
0.0
  0
LINE
  8
0
 62
     0
 10
184.031
 20
50.8385
 30
0.0
 11
184.832
 21
50.8385
 31
0.0
  0
LINE
  8
0
 62
     0
 10
184.832
 20
50.8385
 30
0.0
 11
184.832
 21
56.6374
 31
0.0
  0
LINE
  8
0
 62
     0
 10
184.832
 20
56.6374
 30
0.0
 11
184.031
 21
56.6374
 31
0.0
  0
LINE
  8
0
 62
     0
 10
184.031
 20
56.6374
 30
0.0
 11
184.031
 21
59.738
 31
0.0
  0
LINE
  8
0
 62
     0
 10
184.031
 20
59.738
 30
0.0
 11
184.832
 21
59.738
 31
0.0
  0
LINE
  8
0
 62
     0
 10
184.832
 20
59.738
 30
0.0
 11
184.832
 21
60.7385
 31
0.0
  0
LINE
  8
0
 62
     0
 10
184.832
 20
60.7385
 30
0.0
 11
198.832
 21
60.7385
 31
0.0
  0
LINE
  8
0
 62
     0
 10
198.832
 20
60.7385
 30
0.0
 11
198.832
 21
59.738
 31
0.0
  0
LINE
  8
0
 62
     0
 10
198.832
 20
59.738
 30
0.0
 11
199.632
 21
59.738
 31
0.0
  0
LINE
  8
0
 62
     0
 10
199.632
 20
59.738
 30
0.0
 11
199.632
 21
56.6374
 31
0.0
  0
LINE
  8
0
 62
     0
 10
199.632
 20
56.6374
 30
0.0
 11
198.832
 21
56.6374
 31
0.0
  0
LINE
  8
0
 62
     0
 10
198.832
 20
56.6374
 30
0.0
 11
198.832
 21
50.8385
 31
0.0
  0
LINE
  8
0
 62
     0
 10
198.832
 20
50.8385
 30
0.0
 11
199.632
 21
50.8385
 31
0.0
  0
LINE
  8
0
 62
     0
 10
199.632
 20
50.8385
 30
0.0
 11
199.632
 21
47.7379
 31
0.0
  0
LINE
  8
0
 62
     0
 10
199.632
 20
47.7379
 30
0.0
 11
198.832
 21
47.7379
 31
0.0
  0
LINE
  8
0
 62
     0
 10
205.975
 20
9.63799
 30
0.0
 11
205.975
 21
8.63755
 31
0.0
  0
LINE
  8
0
 62
     0
 10
205.975
 20
8.63755
 30
0.0
 11
191.975
 21
8.63755
 31
0.0
  0
LINE
  8
0
 62
     0
 10
191.975
 20
8.63755
 30
0.0
 11
191.975
 21
9.63799
 31
0.0
  0
LINE
  8
0
 62
     0
 10
191.975
 20
9.63799
 30
0.0
 11
191.175
 21
9.63799
 31
0.0
  0
LINE
  8
0
 62
     0
 10
191.175
 20
9.63799
 30
0.0
 11
191.175
 21
12.7386
 31
0.0
  0
LINE
  8
0
 62
     0
 10
191.175
 20
12.7386
 30
0.0
 11
191.975
 21
12.7386
 31
0.0
  0
LINE
  8
0
 62
     0
 10
191.975
 20
12.7386
 30
0.0
 11
191.975
 21
18.5374
 31
0.0
  0
LINE
  8
0
 62
     0
 10
191.975
 20
18.5374
 30
0.0
 11
191.175
 21
18.5374
 31
0.0
  0
LINE
  8
0
 62
     0
 10
191.175
 20
18.5374
 30
0.0
 11
191.175
 21
21.6379
 31
0.0
  0
LINE
  8
0
 62
     0
 10
191.175
 20
21.6379
 30
0.0
 11
191.975
 21
21.6379
 31
0.0
  0
LINE
  8
0
 62
     0
 10
191.975
 20
21.6379
 30
0.0
 11
191.975
 21
22.6384
 31
0.0
  0
LINE
  8
0
 62
     0
 10
191.975
 20
22.6384
 30
0.0
 11
205.975
 21
22.6384
 31
0.0
  0
LINE
  8
0
 62
     0
 10
205.975
 20
22.6384
 30
0.0
 11
205.975
 21
21.6379
 31
0.0
  0
LINE
  8
0
 62
     0
 10
205.975
 20
21.6379
 30
0.0
 11
206.775
 21
21.6379
 31
0.0
  0
LINE
  8
0
 62
     0
 10
206.775
 20
21.6379
 30
0.0
 11
206.775
 21
18.5374
 31
0.0
  0
LINE
  8
0
 62
     0
 10
206.775
 20
18.5374
 30
0.0
 11
205.975
 21
18.5374
 31
0.0
  0
LINE
  8
0
 62
     0
 10
205.975
 20
18.5374
 30
0.0
 11
205.975
 21
12.7386
 31
0.0
  0
LINE
  8
0
 62
     0
 10
205.975
 20
12.7386
 30
0.0
 11
206.775
 21
12.7386
 31
0.0
  0
LINE
  8
0
 62
     0
 10
206.775
 20
12.7386
 30
0.0
 11
206.775
 21
9.63799
 31
0.0
  0
LINE
  8
0
 62
     0
 10
206.775
 20
9.63799
 30
0.0
 11
205.975
 21
9.63799
 31
0.0
  0
LINE
  8
0
 62
     0
 10
210.738
 20
28.688
 30
0.0
 11
210.738
 21
27.6876
 31
0.0
  0
LINE
  8
0
 62
     0
 10
210.738
 20
27.6876
 30
0.0
 11
196.739
 21
27.6876
 31
0.0
  0
LINE
  8
0
 62
     0
 10
196.739
 20
27.6876
 30
0.0
 11
196.739
 21
28.688
 31
0.0
  0
LINE
  8
0
 62
     0
 10
196.739
 20
28.688
 30
0.0
 11
195.938
 21
28.688
 31
0.0
  0
LINE
  8
0
 62
     0
 10
195.938
 20
28.688
 30
0.0
 11
195.938
 21
31.7886
 31
0.0
  0
LINE
  8
0
 62
     0
 10
195.938
 20
31.7886
 30
0.0
 11
196.739
 21
31.7886
 31
0.0
  0
LINE
  8
0
 62
     0
 10
196.739
 20
31.7886
 30
0.0
 11
196.739
 21
37.5874
 31
0.0
  0
LINE
  8
0
 62
     0
 10
196.739
 20
37.5874
 30
0.0
 11
195.938
 21
37.5874
 31
0.0
  0
LINE
  8
0
 62
     0
 10
195.938
 20
37.5874
 30
0.0
 11
195.938
 21
40.688
 31
0.0
  0
LINE
  8
0
 62
     0
 10
195.938
 20
40.688
 30
0.0
 11
196.739
 21
40.688
 31
0.0
  0
LINE
  8
0
 62
     0
 10
196.739
 20
40.688
 30
0.0
 11
196.739
 21
41.6885
 31
0.0
  0
LINE
  8
0
 62
     0
 10
196.739
 20
41.6885
 30
0.0
 11
210.738
 21
41.6885
 31
0.0
  0
LINE
  8
0
 62
     0
 10
210.738
 20
41.6885
 30
0.0
 11
210.738
 21
40.688
 31
0.0
  0
LINE
  8
0
 62
     0
 10
210.738
 20
40.688
 30
0.0
 11
211.537
 21
40.688
 31
0.0
  0
LINE
  8
0
 62
     0
 10
211.537
 20
40.688
 30
0.0
 11
211.537
 21
37.5874
 31
0.0
  0
LINE
  8
0
 62
     0
 10
211.537
 20
37.5874
 30
0.0
 11
210.738
 21
37.5874
 31
0.0
  0
LINE
  8
0
 62
     0
 10
210.738
 20
37.5874
 30
0.0
 11
210.738
 21
31.7886
 31
0.0
  0
LINE
  8
0
 62
     0
 10
210.738
 20
31.7886
 30
0.0
 11
211.537
 21
31.7886
 31
0.0
  0
LINE
  8
0
 62
     0
 10
211.537
 20
31.7886
 30
0.0
 11
211.537
 21
28.688
 31
0.0
  0
LINE
  8
0
 62
     0
 10
211.537
 20
28.688
 30
0.0
 11
210.738
 21
28.688
 31
0.0
  0
LINE
  8
0
 62
     0
 10
213.119
 20
66.7879
 30
0.0
 11
213.119
 21
65.7874
 31
0.0
  0
LINE
  8
0
 62
     0
 10
213.119
 20
65.7874
 30
0.0
 11
199.118
 21
65.7874
 31
0.0
  0
LINE
  8
0
 62
     0
 10
199.118
 20
65.7874
 30
0.0
 11
199.118
 21
66.7879
 31
0.0
  0
LINE
  8
0
 62
     0
 10
199.118
 20
66.7879
 30
0.0
 11
198.319
 21
66.7879
 31
0.0
  0
LINE
  8
0
 62
     0
 10
198.319
 20
66.7879
 30
0.0
 11
198.319
 21
69.8885
 31
0.0
  0
LINE
  8
0
 62
     0
 10
198.319
 20
69.8885
 30
0.0
 11
199.118
 21
69.8885
 31
0.0
  0
LINE
  8
0
 62
     0
 10
199.118
 20
69.8885
 30
0.0
 11
199.118
 21
75.6874
 31
0.0
  0
LINE
  8
0
 62
     0
 10
199.118
 20
75.6874
 30
0.0
 11
198.319
 21
75.6874
 31
0.0
  0
LINE
  8
0
 62
     0
 10
198.319
 20
75.6874
 30
0.0
 11
198.319
 21
78.788
 31
0.0
  0
LINE
  8
0
 62
     0
 10
198.319
 20
78.788
 30
0.0
 11
199.118
 21
78.788
 31
0.0
  0
LINE
  8
0
 62
     0
 10
199.118
 20
78.788
 30
0.0
 11
199.118
 21
79.7885
 31
0.0
  0
LINE
  8
0
 62
     0
 10
199.118
 20
79.7885
 30
0.0
 11
213.119
 21
79.7885
 31
0.0
  0
LINE
  8
0
 62
     0
 10
213.119
 20
79.7885
 30
0.0
 11
213.119
 21
78.788
 31
0.0
  0
LINE
  8
0
 62
     0
 10
213.119
 20
78.788
 30
0.0
 11
213.918
 21
78.788
 31
0.0
  0
LINE
  8
0
 62
     0
 10
213.918
 20
78.788
 30
0.0
 11
213.918
 21
75.6874
 31
0.0
  0
LINE
  8
0
 62
     0
 10
213.918
 20
75.6874
 30
0.0
 11
213.119
 21
75.6874
 31
0.0
  0
LINE
  8
0
 62
     0
 10
213.119
 20
75.6874
 30
0.0
 11
213.119
 21
69.8885
 31
0.0
  0
LINE
  8
0
 62
     0
 10
213.119
 20
69.8885
 30
0.0
 11
213.918
 21
69.8885
 31
0.0
  0
LINE
  8
0
 62
     0
 10
213.918
 20
69.8885
 30
0.0
 11
213.918
 21
66.7879
 31
0.0
  0
LINE
  8
0
 62
     0
 10
213.918
 20
66.7879
 30
0.0
 11
213.119
 21
66.7879
 31
0.0
  0
LINE
  8
0
 62
     0
 10
225.025
 20
47.7379
 30
0.0
 11
225.025
 21
46.7374
 31
0.0
  0
LINE
  8
0
 62
     0
 10
225.025
 20
46.7374
 30
0.0
 11
211.025
 21
46.7374
 31
0.0
  0
LINE
  8
0
 62
     0
 10
211.025
 20
46.7374
 30
0.0
 11
211.025
 21
47.7379
 31
0.0
  0
LINE
  8
0
 62
     0
 10
211.025
 20
47.7379
 30
0.0
 11
210.225
 21
47.7379
 31
0.0
  0
LINE
  8
0
 62
     0
 10
210.225
 20
47.7379
 30
0.0
 11
210.225
 21
50.8385
 31
0.0
  0
LINE
  8
0
 62
     0
 10
210.225
 20
50.8385
 30
0.0
 11
211.025
 21
50.8385
 31
0.0
  0
LINE
  8
0
 62
     0
 10
211.025
 20
50.8385
 30
0.0
 11
211.025
 21
56.6374
 31
0.0
  0
LINE
  8
0
 62
     0
 10
211.025
 20
56.6374
 30
0.0
 11
210.225
 21
56.6374
 31
0.0
  0
LINE
  8
0
 62
     0
 10
210.225
 20
56.6374
 30
0.0
 11
210.225
 21
59.738
 31
0.0
  0
LINE
  8
0
 62
     0
 10
210.225
 20
59.738
 30
0.0
 11
211.025
 21
59.738
 31
0.0
  0
LINE
  8
0
 62
     0
 10
211.025
 20
59.738
 30
0.0
 11
211.025
 21
60.7385
 31
0.0
  0
LINE
  8
0
 62
     0
 10
211.025
 20
60.7385
 30
0.0
 11
225.025
 21
60.7385
 31
0.0
  0
LINE
  8
0
 62
     0
 10
225.025
 20
60.7385
 30
0.0
 11
225.025
 21
59.738
 31
0.0
  0
LINE
  8
0
 62
     0
 10
225.025
 20
59.738
 30
0.0
 11
225.825
 21
59.738
 31
0.0
  0
LINE
  8
0
 62
     0
 10
225.825
 20
59.738
 30
0.0
 11
225.825
 21
56.6374
 31
0.0
  0
LINE
  8
0
 62
     0
 10
225.825
 20
56.6374
 30
0.0
 11
225.025
 21
56.6374
 31
0.0
  0
LINE
  8
0
 62
     0
 10
225.025
 20
56.6374
 30
0.0
 11
225.025
 21
50.8385
 31
0.0
  0
LINE
  8
0
 62
     0
 10
225.025
 20
50.8385
 30
0.0
 11
225.825
 21
50.8385
 31
0.0
  0
LINE
  8
0
 62
     0
 10
225.825
 20
50.8385
 30
0.0
 11
225.825
 21
47.7379
 31
0.0
  0
LINE
  8
0
 62
     0
 10
225.825
 20
47.7379
 30
0.0
 11
225.025
 21
47.7379
 31
0.0
  0
LINE
  8
0
 62
     0
 10
229.788
 20
9.63799
 30
0.0
 11
229.788
 21
8.63755
 31
0.0
  0
LINE
  8
0
 62
     0
 10
229.788
 20
8.63755
 30
0.0
 11
215.789
 21
8.63755
 31
0.0
  0
LINE
  8
0
 62
     0
 10
215.789
 20
8.63755
 30
0.0
 11
215.789
 21
9.63799
 31
0.0
  0
LINE
  8
0
 62
     0
 10
215.789
 20
9.63799
 30
0.0
 11
214.988
 21
9.63799
 31
0.0
  0
LINE
  8
0
 62
     0
 10
214.988
 20
9.63799
 30
0.0
 11
214.988
 21
12.7386
 31
0.0
  0
LINE
  8
0
 62
     0
 10
214.988
 20
12.7386
 30
0.0
 11
215.789
 21
12.7386
 31
0.0
  0
LINE
  8
0
 62
     0
 10
215.789
 20
12.7386
 30
0.0
 11
215.789
 21
18.5374
 31
0.0
  0
LINE
  8
0
 62
     0
 10
215.789
 20
18.5374
 30
0.0
 11
214.988
 21
18.5374
 31
0.0
  0
LINE
  8
0
 62
     0
 10
214.988
 20
18.5374
 30
0.0
 11
214.988
 21
21.6379
 31
0.0
  0
LINE
  8
0
 62
     0
 10
214.988
 20
21.6379
 30
0.0
 11
215.789
 21
21.6379
 31
0.0
  0
LINE
  8
0
 62
     0
 10
215.789
 20
21.6379
 30
0.0
 11
215.789
 21
22.6384
 31
0.0
  0
LINE
  8
0
 62
     0
 10
215.789
 20
22.6384
 30
0.0
 11
229.788
 21
22.6384
 31
0.0
  0
LINE
  8
0
 62
     0
 10
229.788
 20
22.6384
 30
0.0
 11
229.788
 21
21.6379
 31
0.0
  0
LINE
  8
0
 62
     0
 10
229.788
 20
21.6379
 30
0.0
 11
230.587
 21
21.6379
 31
0.0
  0
LINE
  8
0
 62
     0
 10
230.587
 20
21.6379
 30
0.0
 11
230.587
 21
18.5374
 31
0.0
  0
LINE
  8
0
 62
     0
 10
230.587
 20
18.5374
 30
0.0
 11
229.788
 21
18.5374
 31
0.0
  0
LINE
  8
0
 62
     0
 10
229.788
 20
18.5374
 30
0.0
 11
229.788
 21
12.7386
 31
0.0
  0
LINE
  8
0
 62
     0
 10
229.788
 20
12.7386
 30
0.0
 11
230.587
 21
12.7386
 31
0.0
  0
LINE
  8
0
 62
     0
 10
230.587
 20
12.7386
 30
0.0
 11
230.587
 21
9.63799
 31
0.0
  0
LINE
  8
0
 62
     0
 10
230.587
 20
9.63799
 30
0.0
 11
229.788
 21
9.63799
 31
0.0
  0
LINE
  8
0
 62
     0
 10
232.169
 20
66.7879
 30
0.0
 11
232.169
 21
65.7874
 31
0.0
  0
LINE
  8
0
 62
     0
 10
232.169
 20
65.7874
 30
0.0
 11
218.168
 21
65.7874
 31
0.0
  0
LINE
  8
0
 62
     0
 10
218.168
 20
65.7874
 30
0.0
 11
218.168
 21
66.7879
 31
0.0
  0
LINE
  8
0
 62
     0
 10
218.168
 20
66.7879
 30
0.0
 11
217.369
 21
66.7879
 31
0.0
  0
LINE
  8
0
 62
     0
 10
217.369
 20
66.7879
 30
0.0
 11
217.369
 21
69.8885
 31
0.0
  0
LINE
  8
0
 62
     0
 10
217.369
 20
69.8885
 30
0.0
 11
218.168
 21
69.8885
 31
0.0
  0
LINE
  8
0
 62
     0
 10
218.168
 20
69.8885
 30
0.0
 11
218.168
 21
75.6874
 31
0.0
  0
LINE
  8
0
 62
     0
 10
218.168
 20
75.6874
 30
0.0
 11
217.369
 21
75.6874
 31
0.0
  0
LINE
  8
0
 62
     0
 10
217.369
 20
75.6874
 30
0.0
 11
217.369
 21
78.788
 31
0.0
  0
LINE
  8
0
 62
     0
 10
217.369
 20
78.788
 30
0.0
 11
218.168
 21
78.788
 31
0.0
  0
LINE
  8
0
 62
     0
 10
218.168
 20
78.788
 30
0.0
 11
218.168
 21
79.7885
 31
0.0
  0
LINE
  8
0
 62
     0
 10
218.168
 20
79.7885
 30
0.0
 11
232.169
 21
79.7885
 31
0.0
  0
LINE
  8
0
 62
     0
 10
232.169
 20
79.7885
 30
0.0
 11
232.169
 21
78.788
 31
0.0
  0
LINE
  8
0
 62
     0
 10
232.169
 20
78.788
 30
0.0
 11
232.968
 21
78.788
 31
0.0
  0
LINE
  8
0
 62
     0
 10
232.968
 20
78.788
 30
0.0
 11
232.968
 21
75.6874
 31
0.0
  0
LINE
  8
0
 62
     0
 10
232.968
 20
75.6874
 30
0.0
 11
232.169
 21
75.6874
 31
0.0
  0
LINE
  8
0
 62
     0
 10
232.169
 20
75.6874
 30
0.0
 11
232.169
 21
69.8885
 31
0.0
  0
LINE
  8
0
 62
     0
 10
232.169
 20
69.8885
 30
0.0
 11
232.968
 21
69.8885
 31
0.0
  0
LINE
  8
0
 62
     0
 10
232.968
 20
69.8885
 30
0.0
 11
232.968
 21
66.7879
 31
0.0
  0
LINE
  8
0
 62
     0
 10
232.968
 20
66.7879
 30
0.0
 11
232.169
 21
66.7879
 31
0.0
  0
LINE
  8
0
 62
     0
 10
232.169
 20
28.688
 30
0.0
 11
232.169
 21
27.6876
 31
0.0
  0
LINE
  8
0
 62
     0
 10
232.169
 20
27.6876
 30
0.0
 11
218.168
 21
27.6876
 31
0.0
  0
LINE
  8
0
 62
     0
 10
218.168
 20
27.6876
 30
0.0
 11
218.168
 21
28.688
 31
0.0
  0
LINE
  8
0
 62
     0
 10
218.168
 20
28.688
 30
0.0
 11
217.369
 21
28.688
 31
0.0
  0
LINE
  8
0
 62
     0
 10
217.369
 20
28.688
 30
0.0
 11
217.369
 21
31.7886
 31
0.0
  0
LINE
  8
0
 62
     0
 10
217.369
 20
31.7886
 30
0.0
 11
218.168
 21
31.7886
 31
0.0
  0
LINE
  8
0
 62
     0
 10
218.168
 20
31.7886
 30
0.0
 11
218.168
 21
37.5874
 31
0.0
  0
LINE
  8
0
 62
     0
 10
218.168
 20
37.5874
 30
0.0
 11
217.369
 21
37.5874
 31
0.0
  0
LINE
  8
0
 62
     0
 10
217.369
 20
37.5874
 30
0.0
 11
217.369
 21
40.688
 31
0.0
  0
LINE
  8
0
 62
     0
 10
217.369
 20
40.688
 30
0.0
 11
218.168
 21
40.688
 31
0.0
  0
LINE
  8
0
 62
     0
 10
218.168
 20
40.688
 30
0.0
 11
218.168
 21
41.6885
 31
0.0
  0
LINE
  8
0
 62
     0
 10
218.168
 20
41.6885
 30
0.0
 11
232.169
 21
41.6885
 31
0.0
  0
LINE
  8
0
 62
     0
 10
232.169
 20
41.6885
 30
0.0
 11
232.169
 21
40.688
 31
0.0
  0
LINE
  8
0
 62
     0
 10
232.169
 20
40.688
 30
0.0
 11
232.968
 21
40.688
 31
0.0
  0
LINE
  8
0
 62
     0
 10
232.968
 20
40.688
 30
0.0
 11
232.968
 21
37.5874
 31
0.0
  0
LINE
  8
0
 62
     0
 10
232.968
 20
37.5874
 30
0.0
 11
232.169
 21
37.5874
 31
0.0
  0
LINE
  8
0
 62
     0
 10
232.169
 20
37.5874
 30
0.0
 11
232.169
 21
31.7886
 31
0.0
  0
LINE
  8
0
 62
     0
 10
232.169
 20
31.7886
 30
0.0
 11
232.968
 21
31.7886
 31
0.0
  0
LINE
  8
0
 62
     0
 10
232.968
 20
31.7886
 30
0.0
 11
232.968
 21
28.688
 31
0.0
  0
LINE
  8
0
 62
     0
 10
232.968
 20
28.688
 30
0.0
 11
232.169
 21
28.688
 31
0.0
  0
ENDSEC
  0
EOF
