  0
SECTION
  2
HEADER
  9
$ACADVER
  1
AC1009
  9
$EXTMIN
 10
0.0
 20
0.0
 30
0.0
  9
$EXTMAX
 10
1000.0
 20
1000.0
 30
0.0
  9
$FILLMODE
 70
 0
  9
$SPLFRAME
 70
 1
  0
ENDSEC
  0
SECTION
  2
TABLES
  0
TABLE
  2
LAYER
 70
1
  0
LAYER
  2
0
 70
     0
 62
     7
  6
CONTINUOUS
  0
ENDTAB
  0
ENDSEC
  0
SECTION
  2
ENTITIES
  0
LINE
  8
0
 62
     0
 10
231.694
 20
80.312
 30
0.0
 11
231.772
 21
80.3092
 31
0.0
  0
LINE
  8
0
 62
     0
 10
231.772
 20
80.3092
 30
0.0
 11
231.849
 21
80.2996
 31
0.0
  0
LINE
  8
0
 62
     0
 10
231.849
 20
80.2996
 30
0.0
 11
231.927
 21
80.2845
 31
0.0
  0
LINE
  8
0
 62
     0
 10
231.927
 20
80.2845
 30
0.0
 11
232.003
 21
80.2626
 31
0.0
  0
LINE
  8
0
 62
     0
 10
232.003
 20
80.2626
 30
0.0
 11
232.077
 21
80.2361
 31
0.0
  0
LINE
  8
0
 62
     0
 10
232.077
 20
80.2361
 30
0.0
 11
232.147
 21
80.2033
 31
0.0
  0
LINE
  8
0
 62
     0
 10
232.147
 20
80.2033
 30
0.0
 11
232.216
 21
80.1645
 31
0.0
  0
LINE
  8
0
 62
     0
 10
232.216
 20
80.1645
 30
0.0
 11
232.282
 21
80.1204
 31
0.0
  0
LINE
  8
0
 62
     0
 10
232.282
 20
80.1204
 30
0.0
 11
232.343
 21
80.0724
 31
0.0
  0
LINE
  8
0
 62
     0
 10
232.343
 20
80.0724
 30
0.0
 11
232.4
 21
80.0185
 31
0.0
  0
LINE
  8
0
 62
     0
 10
232.4
 20
80.0185
 30
0.0
 11
232.454
 21
79.9606
 31
0.0
  0
LINE
  8
0
 62
     0
 10
232.454
 20
79.9606
 30
0.0
 11
232.503
 21
79.8999
 31
0.0
  0
LINE
  8
0
 62
     0
 10
232.503
 20
79.8999
 30
0.0
 11
232.547
 21
79.834
 31
0.0
  0
LINE
  8
0
 62
     0
 10
232.547
 20
79.834
 30
0.0
 11
232.585
 21
79.7662
 31
0.0
  0
LINE
  8
0
 62
     0
 10
232.585
 20
79.7662
 30
0.0
 11
232.618
 21
79.6946
 31
0.0
  0
LINE
  8
0
 62
     0
 10
232.618
 20
79.6946
 30
0.0
 11
232.645
 21
79.6216
 31
0.0
  0
LINE
  8
0
 62
     0
 10
232.645
 20
79.6216
 30
0.0
 11
232.665
 21
79.5443
 31
0.0
  0
LINE
  8
0
 62
     0
 10
232.665
 20
79.5443
 30
0.0
 11
232.682
 21
79.4688
 31
0.0
  0
LINE
  8
0
 62
     0
 10
232.682
 20
79.4688
 30
0.0
 11
232.692
 21
79.3902
 31
0.0
  0
LINE
  8
0
 62
     0
 10
232.692
 20
79.3902
 30
0.0
 11
232.694
 21
79.3115
 31
0.0
  0
LINE
  8
0
 62
     0
 10
232.694
 20
79.3115
 30
0.0
 11
232.694
 21
1.11208
 31
0.0
  0
LINE
  8
0
 62
     0
 10
232.694
 20
1.11208
 30
0.0
 11
232.692
 21
1.03353
 31
0.0
  0
LINE
  8
0
 62
     0
 10
232.692
 20
1.03353
 30
0.0
 11
232.682
 21
0.956359
 31
0.0
  0
LINE
  8
0
 62
     0
 10
232.682
 20
0.956359
 30
0.0
 11
232.665
 21
0.879189
 31
0.0
  0
LINE
  8
0
 62
     0
 10
232.665
 20
0.879189
 30
0.0
 11
232.645
 21
0.803395
 31
0.0
  0
LINE
  8
0
 62
     0
 10
232.645
 20
0.803395
 30
0.0
 11
232.618
 21
0.728984
 31
0.0
  0
LINE
  8
0
 62
     0
 10
232.618
 20
0.728984
 30
0.0
 11
232.585
 21
0.658703
 31
0.0
  0
LINE
  8
0
 62
     0
 10
232.585
 20
0.658703
 30
0.0
 11
232.547
 21
0.589802
 31
0.0
  0
LINE
  8
0
 62
     0
 10
232.547
 20
0.589802
 30
0.0
 11
232.503
 21
0.523656
 31
0.0
  0
LINE
  8
0
 62
     0
 10
232.503
 20
0.523656
 30
0.0
 11
232.454
 21
0.463021
 31
0.0
  0
LINE
  8
0
 62
     0
 10
232.454
 20
0.463021
 30
0.0
 11
232.4
 21
0.405144
 31
0.0
  0
LINE
  8
0
 62
     0
 10
232.4
 20
0.405144
 30
0.0
 11
232.343
 21
0.3514
 31
0.0
  0
LINE
  8
0
 62
     0
 10
232.343
 20
0.3514
 30
0.0
 11
232.282
 21
0.303168
 31
0.0
  0
LINE
  8
0
 62
     0
 10
232.282
 20
0.303168
 30
0.0
 11
232.216
 21
0.259071
 31
0.0
  0
LINE
  8
0
 62
     0
 10
232.216
 20
0.259071
 30
0.0
 11
232.147
 21
0.220486
 31
0.0
  0
LINE
  8
0
 62
     0
 10
232.147
 20
0.220486
 30
0.0
 11
232.077
 21
0.187413
 31
0.0
  0
LINE
  8
0
 62
     0
 10
232.077
 20
0.187413
 30
0.0
 11
232.003
 21
0.16123
 31
0.0
  0
LINE
  8
0
 62
     0
 10
232.003
 20
0.16123
 30
0.0
 11
231.927
 21
0.14056
 31
0.0
  0
LINE
  8
0
 62
     0
 10
231.927
 20
0.14056
 30
0.0
 11
231.849
 21
0.124024
 31
0.0
  0
LINE
  8
0
 62
     0
 10
231.849
 20
0.124024
 30
0.0
 11
231.772
 21
0.114377
 31
0.0
  0
LINE
  8
0
 62
     0
 10
231.772
 20
0.114377
 30
0.0
 11
231.694
 21
0.111621
 31
0.0
  0
LINE
  8
0
 62
     0
 10
231.694
 20
0.111621
 30
0.0
 11
1.09416
 21
0.111621
 31
0.0
  0
LINE
  8
0
 62
     0
 10
1.09416
 20
0.111621
 30
0.0
 11
1.01562
 21
0.114377
 31
0.0
  0
LINE
  8
0
 62
     0
 10
1.01562
 20
0.114377
 30
0.0
 11
0.937066
 21
0.124024
 31
0.0
  0
LINE
  8
0
 62
     0
 10
0.937066
 20
0.124024
 30
0.0
 11
0.861275
 21
0.14056
 31
0.0
  0
LINE
  8
0
 62
     0
 10
0.861275
 20
0.14056
 30
0.0
 11
0.784105
 21
0.16123
 31
0.0
  0
LINE
  8
0
 62
     0
 10
0.784105
 20
0.16123
 30
0.0
 11
0.711069
 21
0.187413
 31
0.0
  0
LINE
  8
0
 62
     0
 10
0.711069
 20
0.187413
 30
0.0
 11
0.63941
 21
0.220486
 31
0.0
  0
LINE
  8
0
 62
     0
 10
0.63941
 20
0.220486
 30
0.0
 11
0.571885
 21
0.259071
 31
0.0
  0
LINE
  8
0
 62
     0
 10
0.571885
 20
0.259071
 30
0.0
 11
0.505739
 21
0.303168
 31
0.0
  0
LINE
  8
0
 62
     0
 10
0.505739
 20
0.303168
 30
0.0
 11
0.445107
 21
0.3514
 31
0.0
  0
LINE
  8
0
 62
     0
 10
0.445107
 20
0.3514
 30
0.0
 11
0.38723
 21
0.405144
 31
0.0
  0
LINE
  8
0
 62
     0
 10
0.38723
 20
0.405144
 30
0.0
 11
0.333485
 21
0.463021
 31
0.0
  0
LINE
  8
0
 62
     0
 10
0.333485
 20
0.463021
 30
0.0
 11
0.285254
 21
0.523656
 31
0.0
  0
LINE
  8
0
 62
     0
 10
0.285254
 20
0.523656
 30
0.0
 11
0.241157
 21
0.589802
 31
0.0
  0
LINE
  8
0
 62
     0
 10
0.241157
 20
0.589802
 30
0.0
 11
0.202572
 21
0.658703
 31
0.0
  0
LINE
  8
0
 62
     0
 10
0.202572
 20
0.658703
 30
0.0
 11
0.169499
 21
0.728984
 31
0.0
  0
LINE
  8
0
 62
     0
 10
0.169499
 20
0.728984
 30
0.0
 11
0.143316
 21
0.803395
 31
0.0
  0
LINE
  8
0
 62
     0
 10
0.143316
 20
0.803395
 30
0.0
 11
0.121267
 21
0.879189
 31
0.0
  0
LINE
  8
0
 62
     0
 10
0.121267
 20
0.879189
 30
0.0
 11
0.106109
 21
0.956359
 31
0.0
  0
LINE
  8
0
 62
     0
 10
0.106109
 20
0.956359
 30
0.0
 11
0.0964629
 21
1.03353
 31
0.0
  0
LINE
  8
0
 62
     0
 10
0.0964629
 20
1.03353
 30
0.0
 11
0.0937066
 21
1.11208
 31
0.0
  0
LINE
  8
0
 62
     0
 10
0.0937066
 20
1.11208
 30
0.0
 11
0.0937066
 21
79.3115
 31
0.0
  0
LINE
  8
0
 62
     0
 10
0.0937066
 20
79.3115
 30
0.0
 11
0.0964629
 21
79.3902
 31
0.0
  0
LINE
  8
0
 62
     0
 10
0.0964629
 20
79.3902
 30
0.0
 11
0.106109
 21
79.4688
 31
0.0
  0
LINE
  8
0
 62
     0
 10
0.106109
 20
79.4688
 30
0.0
 11
0.121267
 21
79.5443
 31
0.0
  0
LINE
  8
0
 62
     0
 10
0.121267
 20
79.5443
 30
0.0
 11
0.143316
 21
79.6216
 31
0.0
  0
LINE
  8
0
 62
     0
 10
0.143316
 20
79.6216
 30
0.0
 11
0.169499
 21
79.6946
 31
0.0
  0
LINE
  8
0
 62
     0
 10
0.169499
 20
79.6946
 30
0.0
 11
0.202572
 21
79.7662
 31
0.0
  0
LINE
  8
0
 62
     0
 10
0.202572
 20
79.7662
 30
0.0
 11
0.241157
 21
79.834
 31
0.0
  0
LINE
  8
0
 62
     0
 10
0.241157
 20
79.834
 30
0.0
 11
0.285254
 21
79.8999
 31
0.0
  0
LINE
  8
0
 62
     0
 10
0.285254
 20
79.8999
 30
0.0
 11
0.333485
 21
79.9606
 31
0.0
  0
LINE
  8
0
 62
     0
 10
0.333485
 20
79.9606
 30
0.0
 11
0.38723
 21
80.0185
 31
0.0
  0
LINE
  8
0
 62
     0
 10
0.38723
 20
80.0185
 30
0.0
 11
0.445107
 21
80.0724
 31
0.0
  0
LINE
  8
0
 62
     0
 10
0.445107
 20
80.0724
 30
0.0
 11
0.505739
 21
80.1204
 31
0.0
  0
LINE
  8
0
 62
     0
 10
0.505739
 20
80.1204
 30
0.0
 11
0.571885
 21
80.1645
 31
0.0
  0
LINE
  8
0
 62
     0
 10
0.571885
 20
80.1645
 30
0.0
 11
0.63941
 21
80.2033
 31
0.0
  0
LINE
  8
0
 62
     0
 10
0.63941
 20
80.2033
 30
0.0
 11
0.711069
 21
80.2361
 31
0.0
  0
LINE
  8
0
 62
     0
 10
0.711069
 20
80.2361
 30
0.0
 11
0.784105
 21
80.2626
 31
0.0
  0
LINE
  8
0
 62
     0
 10
0.784105
 20
80.2626
 30
0.0
 11
0.861275
 21
80.2845
 31
0.0
  0
LINE
  8
0
 62
     0
 10
0.861275
 20
80.2845
 30
0.0
 11
0.937066
 21
80.2996
 31
0.0
  0
LINE
  8
0
 62
     0
 10
0.937066
 20
80.2996
 30
0.0
 11
1.01562
 21
80.3092
 31
0.0
  0
LINE
  8
0
 62
     0
 10
1.01562
 20
80.3092
 30
0.0
 11
1.09416
 21
80.312
 31
0.0
  0
LINE
  8
0
 62
     0
 10
1.09416
 20
80.312
 30
0.0
 11
231.694
 21
80.312
 31
0.0
  0
LINE
  8
0
 62
     0
 10
4.6192
 20
75.7865
 30
0.0
 11
18.6187
 21
75.7865
 31
0.0
  0
LINE
  8
0
 62
     0
 10
18.6187
 20
75.7865
 30
0.0
 11
18.6187
 21
61.7873
 31
0.0
  0
LINE
  8
0
 62
     0
 10
18.6187
 20
61.7873
 30
0.0
 11
4.6192
 21
61.7873
 31
0.0
  0
LINE
  8
0
 62
     0
 10
4.6192
 20
61.7873
 30
0.0
 11
4.6192
 21
75.7865
 31
0.0
  0
LINE
  8
0
 62
     0
 10
4.6192
 20
18.6366
 30
0.0
 11
18.6187
 21
18.6366
 31
0.0
  0
LINE
  8
0
 62
     0
 10
18.6187
 20
18.6366
 30
0.0
 11
18.6187
 21
4.63709
 31
0.0
  0
LINE
  8
0
 62
     0
 10
18.6187
 20
4.63709
 30
0.0
 11
4.6192
 21
4.63709
 31
0.0
  0
LINE
  8
0
 62
     0
 10
4.6192
 20
4.63709
 30
0.0
 11
4.6192
 21
18.6366
 31
0.0
  0
LINE
  8
0
 62
     0
 10
7.00045
 20
56.7365
 30
0.0
 11
20.9999
 21
56.7365
 31
0.0
  0
LINE
  8
0
 62
     0
 10
20.9999
 20
56.7365
 30
0.0
 11
20.9999
 21
42.7373
 31
0.0
  0
LINE
  8
0
 62
     0
 10
20.9999
 20
42.7373
 30
0.0
 11
7.00045
 21
42.7373
 31
0.0
  0
LINE
  8
0
 62
     0
 10
7.00045
 20
42.7373
 30
0.0
 11
7.00045
 21
56.7365
 31
0.0
  0
LINE
  8
0
 62
     0
 10
11.763
 20
37.6865
 30
0.0
 11
25.7624
 21
37.6865
 31
0.0
  0
LINE
  8
0
 62
     0
 10
25.7624
 20
37.6865
 30
0.0
 11
25.7624
 21
23.6871
 31
0.0
  0
LINE
  8
0
 62
     0
 10
25.7624
 20
23.6871
 30
0.0
 11
11.763
 21
23.6871
 31
0.0
  0
LINE
  8
0
 62
     0
 10
11.763
 20
23.6871
 30
0.0
 11
11.763
 21
37.6865
 31
0.0
  0
LINE
  8
0
 62
     0
 10
23.6692
 20
75.7865
 30
0.0
 11
37.6686
 21
75.7865
 31
0.0
  0
LINE
  8
0
 62
     0
 10
37.6686
 20
75.7865
 30
0.0
 11
37.6686
 21
61.7873
 31
0.0
  0
LINE
  8
0
 62
     0
 10
37.6686
 20
61.7873
 30
0.0
 11
23.6692
 21
61.7873
 31
0.0
  0
LINE
  8
0
 62
     0
 10
23.6692
 20
61.7873
 30
0.0
 11
23.6692
 21
75.7865
 31
0.0
  0
LINE
  8
0
 62
     0
 10
23.6692
 20
18.6366
 30
0.0
 11
37.6686
 21
18.6366
 31
0.0
  0
LINE
  8
0
 62
     0
 10
37.6686
 20
18.6366
 30
0.0
 11
37.6686
 21
4.63709
 31
0.0
  0
LINE
  8
0
 62
     0
 10
37.6686
 20
4.63709
 30
0.0
 11
23.6692
 21
4.63709
 31
0.0
  0
LINE
  8
0
 62
     0
 10
23.6692
 20
4.63709
 30
0.0
 11
23.6692
 21
18.6366
 31
0.0
  0
LINE
  8
0
 62
     0
 10
28.4303
 20
56.7365
 30
0.0
 11
42.4311
 21
56.7365
 31
0.0
  0
LINE
  8
0
 62
     0
 10
42.4311
 20
56.7365
 30
0.0
 11
42.4311
 21
42.7373
 31
0.0
  0
LINE
  8
0
 62
     0
 10
42.4311
 20
42.7373
 30
0.0
 11
28.4303
 21
42.7373
 31
0.0
  0
LINE
  8
0
 62
     0
 10
28.4303
 20
42.7373
 30
0.0
 11
28.4303
 21
56.7365
 31
0.0
  0
LINE
  8
0
 62
     0
 10
37.9554
 20
37.6865
 30
0.0
 11
51.9561
 21
37.6865
 31
0.0
  0
LINE
  8
0
 62
     0
 10
51.9561
 20
37.6865
 30
0.0
 11
51.9561
 21
23.6871
 31
0.0
  0
LINE
  8
0
 62
     0
 10
51.9561
 20
23.6871
 30
0.0
 11
37.9554
 21
23.6871
 31
0.0
  0
LINE
  8
0
 62
     0
 10
37.9554
 20
23.6871
 30
0.0
 11
37.9554
 21
37.6865
 31
0.0
  0
LINE
  8
0
 62
     0
 10
42.7193
 20
75.7865
 30
0.0
 11
56.7186
 21
75.7865
 31
0.0
  0
LINE
  8
0
 62
     0
 10
56.7186
 20
75.7865
 30
0.0
 11
56.7186
 21
61.7873
 31
0.0
  0
LINE
  8
0
 62
     0
 10
56.7186
 20
61.7873
 30
0.0
 11
42.7193
 21
61.7873
 31
0.0
  0
LINE
  8
0
 62
     0
 10
42.7193
 20
61.7873
 30
0.0
 11
42.7193
 21
75.7865
 31
0.0
  0
LINE
  8
0
 62
     0
 10
42.7193
 20
18.6366
 30
0.0
 11
56.7186
 21
18.6366
 31
0.0
  0
LINE
  8
0
 62
     0
 10
56.7186
 20
18.6366
 30
0.0
 11
56.7186
 21
4.63709
 31
0.0
  0
LINE
  8
0
 62
     0
 10
56.7186
 20
4.63709
 30
0.0
 11
42.7193
 21
4.63709
 31
0.0
  0
LINE
  8
0
 62
     0
 10
42.7193
 20
4.63709
 30
0.0
 11
42.7193
 21
18.6366
 31
0.0
  0
LINE
  8
0
 62
     0
 10
47.4818
 20
56.7365
 30
0.0
 11
61.4811
 21
56.7365
 31
0.0
  0
LINE
  8
0
 62
     0
 10
61.4811
 20
56.7365
 30
0.0
 11
61.4811
 21
42.7373
 31
0.0
  0
LINE
  8
0
 62
     0
 10
61.4811
 20
42.7373
 30
0.0
 11
47.4818
 21
42.7373
 31
0.0
  0
LINE
  8
0
 62
     0
 10
47.4818
 20
42.7373
 30
0.0
 11
47.4818
 21
56.7365
 31
0.0
  0
LINE
  8
0
 62
     0
 10
57.0054
 20
37.6865
 30
0.0
 11
71.0061
 21
37.6865
 31
0.0
  0
LINE
  8
0
 62
     0
 10
71.0061
 20
37.6865
 30
0.0
 11
71.0061
 21
23.6871
 31
0.0
  0
LINE
  8
0
 62
     0
 10
71.0061
 20
23.6871
 30
0.0
 11
57.0054
 21
23.6871
 31
0.0
  0
LINE
  8
0
 62
     0
 10
57.0054
 20
23.6871
 30
0.0
 11
57.0054
 21
37.6865
 31
0.0
  0
LINE
  8
0
 62
     0
 10
61.7693
 20
75.7865
 30
0.0
 11
75.7686
 21
75.7865
 31
0.0
  0
LINE
  8
0
 62
     0
 10
75.7686
 20
75.7865
 30
0.0
 11
75.7686
 21
61.7873
 31
0.0
  0
LINE
  8
0
 62
     0
 10
75.7686
 20
61.7873
 30
0.0
 11
61.7693
 21
61.7873
 31
0.0
  0
LINE
  8
0
 62
     0
 10
61.7693
 20
61.7873
 30
0.0
 11
61.7693
 21
75.7865
 31
0.0
  0
LINE
  8
0
 62
     0
 10
64.1505
 20
18.6366
 30
0.0
 11
78.1498
 21
18.6366
 31
0.0
  0
LINE
  8
0
 62
     0
 10
78.1498
 20
18.6366
 30
0.0
 11
78.1498
 21
4.63709
 31
0.0
  0
LINE
  8
0
 62
     0
 10
78.1498
 20
4.63709
 30
0.0
 11
64.1505
 21
4.63709
 31
0.0
  0
LINE
  8
0
 62
     0
 10
64.1505
 20
4.63709
 30
0.0
 11
64.1505
 21
18.6366
 31
0.0
  0
LINE
  8
0
 62
     0
 10
66.5318
 20
56.7365
 30
0.0
 11
80.5311
 21
56.7365
 31
0.0
  0
LINE
  8
0
 62
     0
 10
80.5311
 20
56.7365
 30
0.0
 11
80.5311
 21
42.7373
 31
0.0
  0
LINE
  8
0
 62
     0
 10
80.5311
 20
42.7373
 30
0.0
 11
66.5318
 21
42.7373
 31
0.0
  0
LINE
  8
0
 62
     0
 10
66.5318
 20
42.7373
 30
0.0
 11
66.5318
 21
56.7365
 31
0.0
  0
LINE
  8
0
 62
     0
 10
76.0554
 20
37.6865
 30
0.0
 11
90.0561
 21
37.6865
 31
0.0
  0
LINE
  8
0
 62
     0
 10
90.0561
 20
37.6865
 30
0.0
 11
90.0561
 21
23.6871
 31
0.0
  0
LINE
  8
0
 62
     0
 10
90.0561
 20
23.6871
 30
0.0
 11
76.0554
 21
23.6871
 31
0.0
  0
LINE
  8
0
 62
     0
 10
76.0554
 20
23.6871
 30
0.0
 11
76.0554
 21
37.6865
 31
0.0
  0
LINE
  8
0
 62
     0
 10
80.8193
 20
75.7865
 30
0.0
 11
94.8186
 21
75.7865
 31
0.0
  0
LINE
  8
0
 62
     0
 10
94.8186
 20
75.7865
 30
0.0
 11
94.8186
 21
61.7873
 31
0.0
  0
LINE
  8
0
 62
     0
 10
94.8186
 20
61.7873
 30
0.0
 11
80.8193
 21
61.7873
 31
0.0
  0
LINE
  8
0
 62
     0
 10
80.8193
 20
61.7873
 30
0.0
 11
80.8193
 21
75.7865
 31
0.0
  0
LINE
  8
0
 62
     0
 10
85.5804
 20
56.7365
 30
0.0
 11
99.5811
 21
56.7365
 31
0.0
  0
LINE
  8
0
 62
     0
 10
99.5811
 20
56.7365
 30
0.0
 11
99.5811
 21
42.7373
 31
0.0
  0
LINE
  8
0
 62
     0
 10
99.5811
 20
42.7373
 30
0.0
 11
85.5804
 21
42.7373
 31
0.0
  0
LINE
  8
0
 62
     0
 10
85.5804
 20
42.7373
 30
0.0
 11
85.5804
 21
56.7365
 31
0.0
  0
LINE
  8
0
 62
     0
 10
92.7255
 20
18.6366
 30
0.0
 11
106.725
 21
18.6366
 31
0.0
  0
LINE
  8
0
 62
     0
 10
106.725
 20
18.6366
 30
0.0
 11
106.725
 21
4.63709
 31
0.0
  0
LINE
  8
0
 62
     0
 10
106.725
 20
4.63709
 30
0.0
 11
92.7255
 21
4.63709
 31
0.0
  0
LINE
  8
0
 62
     0
 10
92.7255
 20
4.63709
 30
0.0
 11
92.7255
 21
18.6366
 31
0.0
  0
LINE
  8
0
 62
     0
 10
95.1054
 20
37.6865
 30
0.0
 11
109.106
 21
37.6865
 31
0.0
  0
LINE
  8
0
 62
     0
 10
109.106
 20
37.6865
 30
0.0
 11
109.106
 21
23.6871
 31
0.0
  0
LINE
  8
0
 62
     0
 10
109.106
 20
23.6871
 30
0.0
 11
95.1054
 21
23.6871
 31
0.0
  0
LINE
  8
0
 62
     0
 10
95.1054
 20
23.6871
 30
0.0
 11
95.1054
 21
37.6865
 31
0.0
  0
LINE
  8
0
 62
     0
 10
99.8693
 20
75.7865
 30
0.0
 11
113.869
 21
75.7865
 31
0.0
  0
LINE
  8
0
 62
     0
 10
113.869
 20
75.7865
 30
0.0
 11
113.869
 21
61.7873
 31
0.0
  0
LINE
  8
0
 62
     0
 10
113.869
 20
61.7873
 30
0.0
 11
99.8693
 21
61.7873
 31
0.0
  0
LINE
  8
0
 62
     0
 10
99.8693
 20
61.7873
 30
0.0
 11
99.8693
 21
75.7865
 31
0.0
  0
LINE
  8
0
 62
     0
 10
104.63
 20
56.7365
 30
0.0
 11
118.631
 21
56.7365
 31
0.0
  0
LINE
  8
0
 62
     0
 10
118.631
 20
56.7365
 30
0.0
 11
118.631
 21
42.7373
 31
0.0
  0
LINE
  8
0
 62
     0
 10
118.631
 20
42.7373
 30
0.0
 11
104.63
 21
42.7373
 31
0.0
  0
LINE
  8
0
 62
     0
 10
104.63
 20
42.7373
 30
0.0
 11
104.63
 21
56.7365
 31
0.0
  0
LINE
  8
0
 62
     0
 10
114.155
 20
37.6865
 30
0.0
 11
128.156
 21
37.6865
 31
0.0
  0
LINE
  8
0
 62
     0
 10
128.156
 20
37.6865
 30
0.0
 11
128.156
 21
23.6871
 31
0.0
  0
LINE
  8
0
 62
     0
 10
128.156
 20
23.6871
 30
0.0
 11
114.155
 21
23.6871
 31
0.0
  0
LINE
  8
0
 62
     0
 10
114.155
 20
23.6871
 30
0.0
 11
114.155
 21
37.6865
 31
0.0
  0
LINE
  8
0
 62
     0
 10
118.919
 20
75.7865
 30
0.0
 11
132.919
 21
75.7865
 31
0.0
  0
LINE
  8
0
 62
     0
 10
132.919
 20
75.7865
 30
0.0
 11
132.919
 21
61.7873
 31
0.0
  0
LINE
  8
0
 62
     0
 10
132.919
 20
61.7873
 30
0.0
 11
118.919
 21
61.7873
 31
0.0
  0
LINE
  8
0
 62
     0
 10
118.919
 20
61.7873
 30
0.0
 11
118.919
 21
75.7865
 31
0.0
  0
LINE
  8
0
 62
     0
 10
123.682
 20
56.7365
 30
0.0
 11
137.681
 21
56.7365
 31
0.0
  0
LINE
  8
0
 62
     0
 10
137.681
 20
56.7365
 30
0.0
 11
137.681
 21
42.7373
 31
0.0
  0
LINE
  8
0
 62
     0
 10
137.681
 20
42.7373
 30
0.0
 11
123.682
 21
42.7373
 31
0.0
  0
LINE
  8
0
 62
     0
 10
123.682
 20
42.7373
 30
0.0
 11
123.682
 21
56.7365
 31
0.0
  0
LINE
  8
0
 62
     0
 10
126.063
 20
18.6366
 30
0.0
 11
140.062
 21
18.6366
 31
0.0
  0
LINE
  8
0
 62
     0
 10
140.062
 20
18.6366
 30
0.0
 11
140.062
 21
4.63709
 31
0.0
  0
LINE
  8
0
 62
     0
 10
140.062
 20
4.63709
 30
0.0
 11
126.063
 21
4.63709
 31
0.0
  0
LINE
  8
0
 62
     0
 10
126.063
 20
4.63709
 30
0.0
 11
126.063
 21
18.6366
 31
0.0
  0
LINE
  8
0
 62
     0
 10
133.205
 20
37.6865
 30
0.0
 11
147.206
 21
37.6865
 31
0.0
  0
LINE
  8
0
 62
     0
 10
147.206
 20
37.6865
 30
0.0
 11
147.206
 21
23.6871
 31
0.0
  0
LINE
  8
0
 62
     0
 10
147.206
 20
23.6871
 30
0.0
 11
133.205
 21
23.6871
 31
0.0
  0
LINE
  8
0
 62
     0
 10
133.205
 20
23.6871
 30
0.0
 11
133.205
 21
37.6865
 31
0.0
  0
LINE
  8
0
 62
     0
 10
137.969
 20
75.7865
 30
0.0
 11
151.969
 21
75.7865
 31
0.0
  0
LINE
  8
0
 62
     0
 10
151.969
 20
75.7865
 30
0.0
 11
151.969
 21
61.7873
 31
0.0
  0
LINE
  8
0
 62
     0
 10
151.969
 20
61.7873
 30
0.0
 11
137.969
 21
61.7873
 31
0.0
  0
LINE
  8
0
 62
     0
 10
137.969
 20
61.7873
 30
0.0
 11
137.969
 21
75.7865
 31
0.0
  0
LINE
  8
0
 62
     0
 10
142.732
 20
56.7365
 30
0.0
 11
156.731
 21
56.7365
 31
0.0
  0
LINE
  8
0
 62
     0
 10
156.731
 20
56.7365
 30
0.0
 11
156.731
 21
42.7373
 31
0.0
  0
LINE
  8
0
 62
     0
 10
156.731
 20
42.7373
 30
0.0
 11
142.732
 21
42.7373
 31
0.0
  0
LINE
  8
0
 62
     0
 10
142.732
 20
42.7373
 30
0.0
 11
142.732
 21
56.7365
 31
0.0
  0
LINE
  8
0
 62
     0
 10
152.255
 20
37.6865
 30
0.0
 11
166.256
 21
37.6865
 31
0.0
  0
LINE
  8
0
 62
     0
 10
166.256
 20
37.6865
 30
0.0
 11
166.256
 21
23.6871
 31
0.0
  0
LINE
  8
0
 62
     0
 10
166.256
 20
23.6871
 30
0.0
 11
152.255
 21
23.6871
 31
0.0
  0
LINE
  8
0
 62
     0
 10
152.255
 20
23.6871
 30
0.0
 11
152.255
 21
37.6865
 31
0.0
  0
LINE
  8
0
 62
     0
 10
154.638
 20
18.6366
 30
0.0
 11
168.637
 21
18.6366
 31
0.0
  0
LINE
  8
0
 62
     0
 10
168.637
 20
18.6366
 30
0.0
 11
168.637
 21
4.63709
 31
0.0
  0
LINE
  8
0
 62
     0
 10
168.637
 20
4.63709
 30
0.0
 11
154.638
 21
4.63709
 31
0.0
  0
LINE
  8
0
 62
     0
 10
154.638
 20
4.63709
 30
0.0
 11
154.638
 21
18.6366
 31
0.0
  0
LINE
  8
0
 62
     0
 10
157.019
 20
75.7865
 30
0.0
 11
171.019
 21
75.7865
 31
0.0
  0
LINE
  8
0
 62
     0
 10
171.019
 20
75.7865
 30
0.0
 11
171.019
 21
61.7873
 31
0.0
  0
LINE
  8
0
 62
     0
 10
171.019
 20
61.7873
 30
0.0
 11
157.019
 21
61.7873
 31
0.0
  0
LINE
  8
0
 62
     0
 10
157.019
 20
61.7873
 30
0.0
 11
157.019
 21
75.7865
 31
0.0
  0
LINE
  8
0
 62
     0
 10
161.782
 20
56.7365
 30
0.0
 11
175.781
 21
56.7365
 31
0.0
  0
LINE
  8
0
 62
     0
 10
175.781
 20
56.7365
 30
0.0
 11
175.781
 21
42.7373
 31
0.0
  0
LINE
  8
0
 62
     0
 10
175.781
 20
42.7373
 30
0.0
 11
161.782
 21
42.7373
 31
0.0
  0
LINE
  8
0
 62
     0
 10
161.782
 20
42.7373
 30
0.0
 11
161.782
 21
56.7365
 31
0.0
  0
LINE
  8
0
 62
     0
 10
171.307
 20
37.6865
 30
0.0
 11
185.306
 21
37.6865
 31
0.0
  0
LINE
  8
0
 62
     0
 10
185.306
 20
37.6865
 30
0.0
 11
185.306
 21
23.6871
 31
0.0
  0
LINE
  8
0
 62
     0
 10
185.306
 20
23.6871
 30
0.0
 11
171.307
 21
23.6871
 31
0.0
  0
LINE
  8
0
 62
     0
 10
171.307
 20
23.6871
 30
0.0
 11
171.307
 21
37.6865
 31
0.0
  0
LINE
  8
0
 62
     0
 10
176.069
 20
18.6366
 30
0.0
 11
190.069
 21
18.6366
 31
0.0
  0
LINE
  8
0
 62
     0
 10
190.069
 20
18.6366
 30
0.0
 11
190.069
 21
4.63709
 31
0.0
  0
LINE
  8
0
 62
     0
 10
190.069
 20
4.63709
 30
0.0
 11
176.069
 21
4.63709
 31
0.0
  0
LINE
  8
0
 62
     0
 10
176.069
 20
4.63709
 30
0.0
 11
176.069
 21
18.6366
 31
0.0
  0
LINE
  8
0
 62
     0
 10
176.069
 20
75.7865
 30
0.0
 11
190.069
 21
75.7865
 31
0.0
  0
LINE
  8
0
 62
     0
 10
190.069
 20
75.7865
 30
0.0
 11
190.069
 21
61.7873
 31
0.0
  0
LINE
  8
0
 62
     0
 10
190.069
 20
61.7873
 30
0.0
 11
176.069
 21
61.7873
 31
0.0
  0
LINE
  8
0
 62
     0
 10
176.069
 20
61.7873
 30
0.0
 11
176.069
 21
75.7865
 31
0.0
  0
LINE
  8
0
 62
     0
 10
180.832
 20
56.7365
 30
0.0
 11
194.831
 21
56.7365
 31
0.0
  0
LINE
  8
0
 62
     0
 10
194.831
 20
56.7365
 30
0.0
 11
194.831
 21
42.7373
 31
0.0
  0
LINE
  8
0
 62
     0
 10
194.831
 20
42.7373
 30
0.0
 11
180.832
 21
42.7373
 31
0.0
  0
LINE
  8
0
 62
     0
 10
180.832
 20
42.7373
 30
0.0
 11
180.832
 21
56.7365
 31
0.0
  0
LINE
  8
0
 62
     0
 10
192.738
 20
37.6865
 30
0.0
 11
206.737
 21
37.6865
 31
0.0
  0
LINE
  8
0
 62
     0
 10
206.737
 20
37.6865
 30
0.0
 11
206.737
 21
23.6871
 31
0.0
  0
LINE
  8
0
 62
     0
 10
206.737
 20
23.6871
 30
0.0
 11
192.738
 21
23.6871
 31
0.0
  0
LINE
  8
0
 62
     0
 10
192.738
 20
23.6871
 30
0.0
 11
192.738
 21
37.6865
 31
0.0
  0
LINE
  8
0
 62
     0
 10
195.119
 20
18.6366
 30
0.0
 11
209.119
 21
18.6366
 31
0.0
  0
LINE
  8
0
 62
     0
 10
209.119
 20
18.6366
 30
0.0
 11
209.119
 21
4.63709
 31
0.0
  0
LINE
  8
0
 62
     0
 10
209.119
 20
4.63709
 30
0.0
 11
195.119
 21
4.63709
 31
0.0
  0
LINE
  8
0
 62
     0
 10
195.119
 20
4.63709
 30
0.0
 11
195.119
 21
18.6366
 31
0.0
  0
LINE
  8
0
 62
     0
 10
195.119
 20
75.7865
 30
0.0
 11
209.119
 21
75.7865
 31
0.0
  0
LINE
  8
0
 62
     0
 10
209.119
 20
75.7865
 30
0.0
 11
209.119
 21
61.7873
 31
0.0
  0
LINE
  8
0
 62
     0
 10
209.119
 20
61.7873
 30
0.0
 11
195.119
 21
61.7873
 31
0.0
  0
LINE
  8
0
 62
     0
 10
195.119
 20
61.7873
 30
0.0
 11
195.119
 21
75.7865
 31
0.0
  0
LINE
  8
0
 62
     0
 10
207.026
 20
56.7365
 30
0.0
 11
221.025
 21
56.7365
 31
0.0
  0
LINE
  8
0
 62
     0
 10
221.025
 20
56.7365
 30
0.0
 11
221.025
 21
42.7373
 31
0.0
  0
LINE
  8
0
 62
     0
 10
221.025
 20
42.7373
 30
0.0
 11
207.026
 21
42.7373
 31
0.0
  0
LINE
  8
0
 62
     0
 10
207.026
 20
42.7373
 30
0.0
 11
207.026
 21
56.7365
 31
0.0
  0
LINE
  8
0
 62
     0
 10
214.169
 20
37.6865
 30
0.0
 11
228.169
 21
37.6865
 31
0.0
  0
LINE
  8
0
 62
     0
 10
228.169
 20
37.6865
 30
0.0
 11
228.169
 21
23.6871
 31
0.0
  0
LINE
  8
0
 62
     0
 10
228.169
 20
23.6871
 30
0.0
 11
214.169
 21
23.6871
 31
0.0
  0
LINE
  8
0
 62
     0
 10
214.169
 20
23.6871
 30
0.0
 11
214.169
 21
37.6865
 31
0.0
  0
LINE
  8
0
 62
     0
 10
214.169
 20
18.6366
 30
0.0
 11
228.169
 21
18.6366
 31
0.0
  0
LINE
  8
0
 62
     0
 10
228.169
 20
18.6366
 30
0.0
 11
228.169
 21
4.63709
 31
0.0
  0
LINE
  8
0
 62
     0
 10
228.169
 20
4.63709
 30
0.0
 11
214.169
 21
4.63709
 31
0.0
  0
LINE
  8
0
 62
     0
 10
214.169
 20
4.63709
 30
0.0
 11
214.169
 21
18.6366
 31
0.0
  0
LINE
  8
0
 62
     0
 10
214.169
 20
75.7865
 30
0.0
 11
228.169
 21
75.7865
 31
0.0
  0
LINE
  8
0
 62
     0
 10
228.169
 20
75.7865
 30
0.0
 11
228.169
 21
61.7873
 31
0.0
  0
LINE
  8
0
 62
     0
 10
228.169
 20
61.7873
 30
0.0
 11
214.169
 21
61.7873
 31
0.0
  0
LINE
  8
0
 62
     0
 10
214.169
 20
61.7873
 30
0.0
 11
214.169
 21
75.7865
 31
0.0
  0
ENDSEC
  0
EOF
