  0
SECTION
  2
HEADER
  9
$ACADVER
  1
AC1009
  9
$EXTMIN
 10
0.0
 20
0.0
 30
0.0
  9
$EXTMAX
 10
1000.0
 20
1000.0
 30
0.0
  9
$FILLMODE
 70
 0
  9
$SPLFRAME
 70
 1
  0
ENDSEC
  0
SECTION
  2
TABLES
  0
TABLE
  2
LAYER
 70
1
  0
LAYER
  2
0
 70
     0
 62
     7
  6
CONTINUOUS
  0
ENDTAB
  0
ENDSEC
  0
SECTION
  2
ENTITIES
  0
LINE
  8
0
 62
     0
 10
16.2443
 20
79.4879
 30
0.0
 11
16.2443
 21
78.4874
 31
0.0
  0
LINE
  8
0
 62
     0
 10
16.2443
 20
78.4874
 30
0.0
 11
2.24345
 21
78.4874
 31
0.0
  0
LINE
  8
0
 62
     0
 10
2.24345
 20
78.4874
 30
0.0
 11
2.24345
 21
79.4879
 31
0.0
  0
LINE
  8
0
 62
     0
 10
2.24345
 20
79.4879
 30
0.0
 11
1.44418
 21
79.4879
 31
0.0
  0
LINE
  8
0
 62
     0
 10
1.44418
 20
79.4879
 30
0.0
 11
1.44418
 21
82.587
 31
0.0
  0
LINE
  8
0
 62
     0
 10
1.44418
 20
82.587
 30
0.0
 11
2.24345
 21
82.587
 31
0.0
  0
LINE
  8
0
 62
     0
 10
2.24345
 20
82.587
 30
0.0
 11
2.24345
 21
88.3874
 31
0.0
  0
LINE
  8
0
 62
     0
 10
2.24345
 20
88.3874
 30
0.0
 11
1.44418
 21
88.3874
 31
0.0
  0
LINE
  8
0
 62
     0
 10
1.44418
 20
88.3874
 30
0.0
 11
1.44418
 21
91.488
 31
0.0
  0
LINE
  8
0
 62
     0
 10
1.44418
 20
91.488
 30
0.0
 11
2.24345
 21
91.488
 31
0.0
  0
LINE
  8
0
 62
     0
 10
2.24345
 20
91.488
 30
0.0
 11
2.24345
 21
92.487
 31
0.0
  0
LINE
  8
0
 62
     0
 10
2.24345
 20
92.487
 30
0.0
 11
16.2443
 21
92.487
 31
0.0
  0
LINE
  8
0
 62
     0
 10
16.2443
 20
92.487
 30
0.0
 11
16.2443
 21
91.488
 31
0.0
  0
LINE
  8
0
 62
     0
 10
16.2443
 20
91.488
 30
0.0
 11
17.0436
 21
91.488
 31
0.0
  0
LINE
  8
0
 62
     0
 10
17.0436
 20
91.488
 30
0.0
 11
17.0436
 21
88.3874
 31
0.0
  0
LINE
  8
0
 62
     0
 10
17.0436
 20
88.3874
 30
0.0
 11
16.2443
 21
88.3874
 31
0.0
  0
LINE
  8
0
 62
     0
 10
16.2443
 20
88.3874
 30
0.0
 11
16.2443
 21
82.587
 31
0.0
  0
LINE
  8
0
 62
     0
 10
16.2443
 20
82.587
 30
0.0
 11
17.0436
 21
82.587
 31
0.0
  0
LINE
  8
0
 62
     0
 10
17.0436
 20
82.587
 30
0.0
 11
17.0436
 21
79.4879
 31
0.0
  0
LINE
  8
0
 62
     0
 10
17.0436
 20
79.4879
 30
0.0
 11
16.2443
 21
79.4879
 31
0.0
  0
LINE
  8
0
 62
     0
 10
18.6242
 20
3.288
 30
0.0
 11
18.6242
 21
2.28755
 31
0.0
  0
LINE
  8
0
 62
     0
 10
18.6242
 20
2.28755
 30
0.0
 11
4.6247
 21
2.28755
 31
0.0
  0
LINE
  8
0
 62
     0
 10
4.6247
 20
2.28755
 30
0.0
 11
4.6247
 21
3.288
 31
0.0
  0
LINE
  8
0
 62
     0
 10
4.6247
 20
3.288
 30
0.0
 11
3.82545
 21
3.288
 31
0.0
  0
LINE
  8
0
 62
     0
 10
3.82545
 20
3.288
 30
0.0
 11
3.82545
 21
6.38722
 31
0.0
  0
LINE
  8
0
 62
     0
 10
3.82545
 20
6.38722
 30
0.0
 11
4.6247
 21
6.38722
 31
0.0
  0
LINE
  8
0
 62
     0
 10
4.6247
 20
6.38722
 30
0.0
 11
4.6247
 21
12.1874
 31
0.0
  0
LINE
  8
0
 62
     0
 10
4.6247
 20
12.1874
 30
0.0
 11
3.82545
 21
12.1874
 31
0.0
  0
LINE
  8
0
 62
     0
 10
3.82545
 20
12.1874
 30
0.0
 11
3.82545
 21
15.2879
 31
0.0
  0
LINE
  8
0
 62
     0
 10
3.82545
 20
15.2879
 30
0.0
 11
4.6247
 21
15.2879
 31
0.0
  0
LINE
  8
0
 62
     0
 10
4.6247
 20
15.2879
 30
0.0
 11
4.6247
 21
16.287
 31
0.0
  0
LINE
  8
0
 62
     0
 10
4.6247
 20
16.287
 30
0.0
 11
18.6242
 21
16.287
 31
0.0
  0
LINE
  8
0
 62
     0
 10
18.6242
 20
16.287
 30
0.0
 11
18.6242
 21
15.2879
 31
0.0
  0
LINE
  8
0
 62
     0
 10
18.6242
 20
15.2879
 30
0.0
 11
19.4248
 21
15.2879
 31
0.0
  0
LINE
  8
0
 62
     0
 10
19.4248
 20
15.2879
 30
0.0
 11
19.4248
 21
12.1874
 31
0.0
  0
LINE
  8
0
 62
     0
 10
19.4248
 20
12.1874
 30
0.0
 11
18.6242
 21
12.1874
 31
0.0
  0
LINE
  8
0
 62
     0
 10
18.6242
 20
12.1874
 30
0.0
 11
18.6242
 21
6.38722
 31
0.0
  0
LINE
  8
0
 62
     0
 10
18.6242
 20
6.38722
 30
0.0
 11
19.4248
 21
6.38722
 31
0.0
  0
LINE
  8
0
 62
     0
 10
19.4248
 20
6.38722
 30
0.0
 11
19.4248
 21
3.288
 31
0.0
  0
LINE
  8
0
 62
     0
 10
19.4248
 20
3.288
 30
0.0
 11
18.6242
 21
3.288
 31
0.0
  0
LINE
  8
0
 62
     0
 10
21.0068
 20
60.4379
 30
0.0
 11
21.0068
 21
59.4374
 31
0.0
  0
LINE
  8
0
 62
     0
 10
21.0068
 20
59.4374
 30
0.0
 11
7.00733
 21
59.4374
 31
0.0
  0
LINE
  8
0
 62
     0
 10
7.00733
 20
59.4374
 30
0.0
 11
7.00733
 21
60.4379
 31
0.0
  0
LINE
  8
0
 62
     0
 10
7.00733
 20
60.4379
 30
0.0
 11
6.2067
 21
60.4379
 31
0.0
  0
LINE
  8
0
 62
     0
 10
6.2067
 20
60.4379
 30
0.0
 11
6.2067
 21
63.537
 31
0.0
  0
LINE
  8
0
 62
     0
 10
6.2067
 20
63.537
 30
0.0
 11
7.00733
 21
63.537
 31
0.0
  0
LINE
  8
0
 62
     0
 10
7.00733
 20
63.537
 30
0.0
 11
7.00733
 21
69.3374
 31
0.0
  0
LINE
  8
0
 62
     0
 10
7.00733
 20
69.3374
 30
0.0
 11
6.2067
 21
69.3374
 31
0.0
  0
LINE
  8
0
 62
     0
 10
6.2067
 20
69.3374
 30
0.0
 11
6.2067
 21
72.438
 31
0.0
  0
LINE
  8
0
 62
     0
 10
6.2067
 20
72.438
 30
0.0
 11
7.00733
 21
72.438
 31
0.0
  0
LINE
  8
0
 62
     0
 10
7.00733
 20
72.438
 30
0.0
 11
7.00733
 21
73.437
 31
0.0
  0
LINE
  8
0
 62
     0
 10
7.00733
 20
73.437
 30
0.0
 11
21.0068
 21
73.437
 31
0.0
  0
LINE
  8
0
 62
     0
 10
21.0068
 20
73.437
 30
0.0
 11
21.0068
 21
72.438
 31
0.0
  0
LINE
  8
0
 62
     0
 10
21.0068
 20
72.438
 30
0.0
 11
21.8061
 21
72.438
 31
0.0
  0
LINE
  8
0
 62
     0
 10
21.8061
 20
72.438
 30
0.0
 11
21.8061
 21
69.3374
 31
0.0
  0
LINE
  8
0
 62
     0
 10
21.8061
 20
69.3374
 30
0.0
 11
21.0068
 21
69.3374
 31
0.0
  0
LINE
  8
0
 62
     0
 10
21.0068
 20
69.3374
 30
0.0
 11
21.0068
 21
63.537
 31
0.0
  0
LINE
  8
0
 62
     0
 10
21.0068
 20
63.537
 30
0.0
 11
21.8061
 21
63.537
 31
0.0
  0
LINE
  8
0
 62
     0
 10
21.8061
 20
63.537
 30
0.0
 11
21.8061
 21
60.4379
 31
0.0
  0
LINE
  8
0
 62
     0
 10
21.8061
 20
60.4379
 30
0.0
 11
21.0068
 21
60.4379
 31
0.0
  0
LINE
  8
0
 62
     0
 10
23.3881
 20
41.3879
 30
0.0
 11
23.3881
 21
40.3874
 31
0.0
  0
LINE
  8
0
 62
     0
 10
23.3881
 20
40.3874
 30
0.0
 11
9.3872
 21
40.3874
 31
0.0
  0
LINE
  8
0
 62
     0
 10
9.3872
 20
40.3874
 30
0.0
 11
9.3872
 21
41.3879
 31
0.0
  0
LINE
  8
0
 62
     0
 10
9.3872
 20
41.3879
 30
0.0
 11
8.58795
 21
41.3879
 31
0.0
  0
LINE
  8
0
 62
     0
 10
8.58795
 20
41.3879
 30
0.0
 11
8.58795
 21
44.487
 31
0.0
  0
LINE
  8
0
 62
     0
 10
8.58795
 20
44.487
 30
0.0
 11
9.3872
 21
44.487
 31
0.0
  0
LINE
  8
0
 62
     0
 10
9.3872
 20
44.487
 30
0.0
 11
9.3872
 21
50.2874
 31
0.0
  0
LINE
  8
0
 62
     0
 10
9.3872
 20
50.2874
 30
0.0
 11
8.58795
 21
50.2874
 31
0.0
  0
LINE
  8
0
 62
     0
 10
8.58795
 20
50.2874
 30
0.0
 11
8.58795
 21
53.388
 31
0.0
  0
LINE
  8
0
 62
     0
 10
8.58795
 20
53.388
 30
0.0
 11
9.3872
 21
53.388
 31
0.0
  0
LINE
  8
0
 62
     0
 10
9.3872
 20
53.388
 30
0.0
 11
9.3872
 21
54.387
 31
0.0
  0
LINE
  8
0
 62
     0
 10
9.3872
 20
54.387
 30
0.0
 11
23.3881
 21
54.387
 31
0.0
  0
LINE
  8
0
 62
     0
 10
23.3881
 20
54.387
 30
0.0
 11
23.3881
 21
53.388
 31
0.0
  0
LINE
  8
0
 62
     0
 10
23.3881
 20
53.388
 30
0.0
 11
24.1873
 21
53.388
 31
0.0
  0
LINE
  8
0
 62
     0
 10
24.1873
 20
53.388
 30
0.0
 11
24.1873
 21
50.2874
 31
0.0
  0
LINE
  8
0
 62
     0
 10
24.1873
 20
50.2874
 30
0.0
 11
23.3881
 21
50.2874
 31
0.0
  0
LINE
  8
0
 62
     0
 10
23.3881
 20
50.2874
 30
0.0
 11
23.3881
 21
44.487
 31
0.0
  0
LINE
  8
0
 62
     0
 10
23.3881
 20
44.487
 30
0.0
 11
24.1873
 21
44.487
 31
0.0
  0
LINE
  8
0
 62
     0
 10
24.1873
 20
44.487
 30
0.0
 11
24.1873
 21
41.3879
 31
0.0
  0
LINE
  8
0
 62
     0
 10
24.1873
 20
41.3879
 30
0.0
 11
23.3881
 21
41.3879
 31
0.0
  0
LINE
  8
0
 62
     0
 10
27.7937
 20
66.7879
 30
0.0
 11
27.6724
 21
67.5612
 31
0.0
  0
LINE
  8
0
 62
     0
 10
27.6724
 20
67.5612
 30
0.0
 11
27.3169
 21
68.2569
 31
0.0
  0
LINE
  8
0
 62
     0
 10
27.3169
 20
68.2569
 30
0.0
 11
26.7629
 21
68.8111
 31
0.0
  0
LINE
  8
0
 62
     0
 10
26.7629
 20
68.8111
 30
0.0
 11
26.067
 21
69.1653
 31
0.0
  0
LINE
  8
0
 62
     0
 10
26.067
 20
69.1653
 30
0.0
 11
25.2939
 21
69.2877
 31
0.0
  0
LINE
  8
0
 62
     0
 10
25.2939
 20
69.2877
 30
0.0
 11
24.5208
 21
69.1653
 31
0.0
  0
LINE
  8
0
 62
     0
 10
24.5208
 20
69.1653
 30
0.0
 11
23.8249
 21
68.8111
 31
0.0
  0
LINE
  8
0
 62
     0
 10
23.8249
 20
68.8111
 30
0.0
 11
23.2709
 21
68.2569
 31
0.0
  0
LINE
  8
0
 62
     0
 10
23.2709
 20
68.2569
 30
0.0
 11
22.9154
 21
67.5612
 31
0.0
  0
LINE
  8
0
 62
     0
 10
22.9154
 20
67.5612
 30
0.0
 11
22.7941
 21
66.7879
 31
0.0
  0
LINE
  8
0
 62
     0
 10
22.7941
 20
66.7879
 30
0.0
 11
22.9154
 21
66.015
 31
0.0
  0
LINE
  8
0
 62
     0
 10
22.9154
 20
66.015
 30
0.0
 11
23.2709
 21
65.3189
 31
0.0
  0
LINE
  8
0
 62
     0
 10
23.2709
 20
65.3189
 30
0.0
 11
23.8249
 21
64.7651
 31
0.0
  0
LINE
  8
0
 62
     0
 10
23.8249
 20
64.7651
 30
0.0
 11
24.5208
 21
64.4095
 31
0.0
  0
LINE
  8
0
 62
     0
 10
24.5208
 20
64.4095
 30
0.0
 11
25.2939
 21
64.2881
 31
0.0
  0
LINE
  8
0
 62
     0
 10
25.2939
 20
64.2881
 30
0.0
 11
26.067
 21
64.4095
 31
0.0
  0
LINE
  8
0
 62
     0
 10
26.067
 20
64.4095
 30
0.0
 11
26.7629
 21
64.7651
 31
0.0
  0
LINE
  8
0
 62
     0
 10
26.7629
 20
64.7651
 30
0.0
 11
27.3169
 21
65.3189
 31
0.0
  0
LINE
  8
0
 62
     0
 10
27.3169
 20
65.3189
 30
0.0
 11
27.6724
 21
66.015
 31
0.0
  0
LINE
  8
0
 62
     0
 10
27.6724
 20
66.015
 30
0.0
 11
27.7937
 21
66.7879
 31
0.0
  0
LINE
  8
0
 62
     0
 10
35.2944
 20
79.4879
 30
0.0
 11
35.2944
 21
78.4874
 31
0.0
  0
LINE
  8
0
 62
     0
 10
35.2944
 20
78.4874
 30
0.0
 11
21.2935
 21
78.4874
 31
0.0
  0
LINE
  8
0
 62
     0
 10
21.2935
 20
78.4874
 30
0.0
 11
21.2935
 21
79.4879
 31
0.0
  0
LINE
  8
0
 62
     0
 10
21.2935
 20
79.4879
 30
0.0
 11
20.4942
 21
79.4879
 31
0.0
  0
LINE
  8
0
 62
     0
 10
20.4942
 20
79.4879
 30
0.0
 11
20.4942
 21
82.587
 31
0.0
  0
LINE
  8
0
 62
     0
 10
20.4942
 20
82.587
 30
0.0
 11
21.2935
 21
82.587
 31
0.0
  0
LINE
  8
0
 62
     0
 10
21.2935
 20
82.587
 30
0.0
 11
21.2935
 21
88.3874
 31
0.0
  0
LINE
  8
0
 62
     0
 10
21.2935
 20
88.3874
 30
0.0
 11
20.4942
 21
88.3874
 31
0.0
  0
LINE
  8
0
 62
     0
 10
20.4942
 20
88.3874
 30
0.0
 11
20.4942
 21
91.488
 31
0.0
  0
LINE
  8
0
 62
     0
 10
20.4942
 20
91.488
 30
0.0
 11
21.2935
 21
91.488
 31
0.0
  0
LINE
  8
0
 62
     0
 10
21.2935
 20
91.488
 30
0.0
 11
21.2935
 21
92.487
 31
0.0
  0
LINE
  8
0
 62
     0
 10
21.2935
 20
92.487
 30
0.0
 11
35.2944
 21
92.487
 31
0.0
  0
LINE
  8
0
 62
     0
 10
35.2944
 20
92.487
 30
0.0
 11
35.2944
 21
91.488
 31
0.0
  0
LINE
  8
0
 62
     0
 10
35.2944
 20
91.488
 30
0.0
 11
36.0938
 21
91.488
 31
0.0
  0
LINE
  8
0
 62
     0
 10
36.0938
 20
91.488
 30
0.0
 11
36.0938
 21
88.3874
 31
0.0
  0
LINE
  8
0
 62
     0
 10
36.0938
 20
88.3874
 30
0.0
 11
35.2944
 21
88.3874
 31
0.0
  0
LINE
  8
0
 62
     0
 10
35.2944
 20
88.3874
 30
0.0
 11
35.2944
 21
82.587
 31
0.0
  0
LINE
  8
0
 62
     0
 10
35.2944
 20
82.587
 30
0.0
 11
36.0938
 21
82.587
 31
0.0
  0
LINE
  8
0
 62
     0
 10
36.0938
 20
82.587
 30
0.0
 11
36.0938
 21
79.4879
 31
0.0
  0
LINE
  8
0
 62
     0
 10
36.0938
 20
79.4879
 30
0.0
 11
35.2944
 21
79.4879
 31
0.0
  0
LINE
  8
0
 62
     0
 10
36.3746
 20
27.8378
 30
0.0
 11
36.3746
 21
21.5677
 31
0.0
  0
LINE
  8
0
 62
     0
 10
36.3746
 20
21.5677
 30
0.0
 11
34.75
 21
21.5677
 31
0.0
  0
LINE
  8
0
 62
     0
 10
34.75
 20
21.5677
 30
0.0
 11
34.75
 21
20.5879
 31
0.0
  0
LINE
  8
0
 62
     0
 10
34.75
 20
20.5879
 30
0.0
 11
31.4496
 21
20.5879
 31
0.0
  0
LINE
  8
0
 62
     0
 10
31.4496
 20
20.5879
 30
0.0
 11
31.4496
 21
21.5677
 31
0.0
  0
LINE
  8
0
 62
     0
 10
31.4496
 20
21.5677
 30
0.0
 11
29.7243
 21
21.5677
 31
0.0
  0
LINE
  8
0
 62
     0
 10
29.7243
 20
21.5677
 30
0.0
 11
29.7243
 21
22.3683
 31
0.0
  0
LINE
  8
0
 62
     0
 10
29.7243
 20
22.3683
 30
0.0
 11
28.9498
 21
22.3683
 31
0.0
  0
LINE
  8
0
 62
     0
 10
28.9498
 20
22.3683
 30
0.0
 11
28.9498
 21
22.338
 31
0.0
  0
LINE
  8
0
 62
     0
 10
28.9498
 20
22.338
 30
0.0
 11
28.1492
 21
22.338
 31
0.0
  0
LINE
  8
0
 62
     0
 10
28.1492
 20
22.338
 30
0.0
 11
28.1492
 21
21.3376
 31
0.0
  0
LINE
  8
0
 62
     0
 10
28.1492
 20
21.3376
 30
0.0
 11
14.1497
 21
21.3376
 31
0.0
  0
LINE
  8
0
 62
     0
 10
14.1497
 20
21.3376
 30
0.0
 11
14.1497
 21
22.338
 31
0.0
  0
LINE
  8
0
 62
     0
 10
14.1497
 20
22.338
 30
0.0
 11
13.3505
 21
22.338
 31
0.0
  0
LINE
  8
0
 62
     0
 10
13.3505
 20
22.338
 30
0.0
 11
13.3505
 21
22.3683
 31
0.0
  0
LINE
  8
0
 62
     0
 10
13.3505
 20
22.3683
 30
0.0
 11
12.5746
 21
22.3683
 31
0.0
  0
LINE
  8
0
 62
     0
 10
12.5746
 20
22.3683
 30
0.0
 11
12.5746
 21
21.5677
 31
0.0
  0
LINE
  8
0
 62
     0
 10
12.5746
 20
21.5677
 30
0.0
 11
10.8493
 21
21.5677
 31
0.0
  0
LINE
  8
0
 62
     0
 10
10.8493
 20
21.5677
 30
0.0
 11
10.8493
 21
20.5879
 31
0.0
  0
LINE
  8
0
 62
     0
 10
10.8493
 20
20.5879
 30
0.0
 11
7.55026
 21
20.5879
 31
0.0
  0
LINE
  8
0
 62
     0
 10
7.55026
 20
20.5879
 30
0.0
 11
7.55026
 21
21.5677
 31
0.0
  0
LINE
  8
0
 62
     0
 10
7.55026
 20
21.5677
 30
0.0
 11
5.9242
 21
21.5677
 31
0.0
  0
LINE
  8
0
 62
     0
 10
5.9242
 20
21.5677
 30
0.0
 11
5.9242
 21
27.8378
 31
0.0
  0
LINE
  8
0
 62
     0
 10
5.9242
 20
27.8378
 30
0.0
 11
5.04913
 21
27.8378
 31
0.0
  0
LINE
  8
0
 62
     0
 10
5.04913
 20
27.8378
 30
0.0
 11
5.04913
 21
30.6379
 31
0.0
  0
LINE
  8
0
 62
     0
 10
5.04913
 20
30.6379
 30
0.0
 11
5.9242
 21
30.6379
 31
0.0
  0
LINE
  8
0
 62
     0
 10
5.9242
 20
30.6379
 30
0.0
 11
5.9242
 21
33.868
 31
0.0
  0
LINE
  8
0
 62
     0
 10
5.9242
 20
33.868
 30
0.0
 11
7.55026
 21
33.868
 31
0.0
  0
LINE
  8
0
 62
     0
 10
7.55026
 20
33.868
 30
0.0
 11
7.55026
 21
34.7872
 31
0.0
  0
LINE
  8
0
 62
     0
 10
7.55026
 20
34.7872
 30
0.0
 11
10.8493
 21
34.7872
 31
0.0
  0
LINE
  8
0
 62
     0
 10
10.8493
 20
34.7872
 30
0.0
 11
10.8493
 21
33.868
 31
0.0
  0
LINE
  8
0
 62
     0
 10
10.8493
 20
33.868
 30
0.0
 11
12.5746
 21
33.868
 31
0.0
  0
LINE
  8
0
 62
     0
 10
12.5746
 20
33.868
 30
0.0
 11
12.5746
 21
33.0674
 31
0.0
  0
LINE
  8
0
 62
     0
 10
12.5746
 20
33.0674
 30
0.0
 11
13.3505
 21
33.0674
 31
0.0
  0
LINE
  8
0
 62
     0
 10
13.3505
 20
33.0674
 30
0.0
 11
13.3505
 21
34.3379
 31
0.0
  0
LINE
  8
0
 62
     0
 10
13.3505
 20
34.3379
 30
0.0
 11
14.1497
 21
34.3379
 31
0.0
  0
LINE
  8
0
 62
     0
 10
14.1497
 20
34.3379
 30
0.0
 11
14.1497
 21
35.337
 31
0.0
  0
LINE
  8
0
 62
     0
 10
14.1497
 20
35.337
 30
0.0
 11
28.1492
 21
35.337
 31
0.0
  0
LINE
  8
0
 62
     0
 10
28.1492
 20
35.337
 30
0.0
 11
28.1492
 21
34.3379
 31
0.0
  0
LINE
  8
0
 62
     0
 10
28.1492
 20
34.3379
 30
0.0
 11
28.9498
 21
34.3379
 31
0.0
  0
LINE
  8
0
 62
     0
 10
28.9498
 20
34.3379
 30
0.0
 11
28.9498
 21
33.0674
 31
0.0
  0
LINE
  8
0
 62
     0
 10
28.9498
 20
33.0674
 30
0.0
 11
29.7243
 21
33.0674
 31
0.0
  0
LINE
  8
0
 62
     0
 10
29.7243
 20
33.0674
 30
0.0
 11
29.7243
 21
33.868
 31
0.0
  0
LINE
  8
0
 62
     0
 10
29.7243
 20
33.868
 30
0.0
 11
31.4496
 21
33.868
 31
0.0
  0
LINE
  8
0
 62
     0
 10
31.4496
 20
33.868
 30
0.0
 11
31.4496
 21
34.7872
 31
0.0
  0
LINE
  8
0
 62
     0
 10
31.4496
 20
34.7872
 30
0.0
 11
34.75
 21
34.7872
 31
0.0
  0
LINE
  8
0
 62
     0
 10
34.75
 20
34.7872
 30
0.0
 11
34.75
 21
33.868
 31
0.0
  0
LINE
  8
0
 62
     0
 10
34.75
 20
33.868
 30
0.0
 11
36.3746
 21
33.868
 31
0.0
  0
LINE
  8
0
 62
     0
 10
36.3746
 20
33.868
 30
0.0
 11
36.3746
 21
30.6379
 31
0.0
  0
LINE
  8
0
 62
     0
 10
36.3746
 20
30.6379
 30
0.0
 11
37.2498
 21
30.6379
 31
0.0
  0
LINE
  8
0
 62
     0
 10
37.2498
 20
30.6379
 30
0.0
 11
37.2498
 21
27.8378
 31
0.0
  0
LINE
  8
0
 62
     0
 10
37.2498
 20
27.8378
 30
0.0
 11
36.3746
 21
27.8378
 31
0.0
  0
LINE
  8
0
 62
     0
 10
42.4381
 20
3.288
 30
0.0
 11
42.4381
 21
2.28755
 31
0.0
  0
LINE
  8
0
 62
     0
 10
42.4381
 20
2.28755
 30
0.0
 11
28.4372
 21
2.28755
 31
0.0
  0
LINE
  8
0
 62
     0
 10
28.4372
 20
2.28755
 30
0.0
 11
28.4372
 21
3.288
 31
0.0
  0
LINE
  8
0
 62
     0
 10
28.4372
 20
3.288
 30
0.0
 11
27.638
 21
3.288
 31
0.0
  0
LINE
  8
0
 62
     0
 10
27.638
 20
3.288
 30
0.0
 11
27.638
 21
6.38722
 31
0.0
  0
LINE
  8
0
 62
     0
 10
27.638
 20
6.38722
 30
0.0
 11
28.4372
 21
6.38722
 31
0.0
  0
LINE
  8
0
 62
     0
 10
28.4372
 20
6.38722
 30
0.0
 11
28.4372
 21
12.1874
 31
0.0
  0
LINE
  8
0
 62
     0
 10
28.4372
 20
12.1874
 30
0.0
 11
27.638
 21
12.1874
 31
0.0
  0
LINE
  8
0
 62
     0
 10
27.638
 20
12.1874
 30
0.0
 11
27.638
 21
15.2879
 31
0.0
  0
LINE
  8
0
 62
     0
 10
27.638
 20
15.2879
 30
0.0
 11
28.4372
 21
15.2879
 31
0.0
  0
LINE
  8
0
 62
     0
 10
28.4372
 20
15.2879
 30
0.0
 11
28.4372
 21
16.287
 31
0.0
  0
LINE
  8
0
 62
     0
 10
28.4372
 20
16.287
 30
0.0
 11
42.4381
 21
16.287
 31
0.0
  0
LINE
  8
0
 62
     0
 10
42.4381
 20
16.287
 30
0.0
 11
42.4381
 21
15.2879
 31
0.0
  0
LINE
  8
0
 62
     0
 10
42.4381
 20
15.2879
 30
0.0
 11
43.2375
 21
15.2879
 31
0.0
  0
LINE
  8
0
 62
     0
 10
43.2375
 20
15.2879
 30
0.0
 11
43.2375
 21
12.1874
 31
0.0
  0
LINE
  8
0
 62
     0
 10
43.2375
 20
12.1874
 30
0.0
 11
42.4381
 21
12.1874
 31
0.0
  0
LINE
  8
0
 62
     0
 10
42.4381
 20
12.1874
 30
0.0
 11
42.4381
 21
6.38722
 31
0.0
  0
LINE
  8
0
 62
     0
 10
42.4381
 20
6.38722
 30
0.0
 11
43.2375
 21
6.38722
 31
0.0
  0
LINE
  8
0
 62
     0
 10
43.2375
 20
6.38722
 30
0.0
 11
43.2375
 21
3.288
 31
0.0
  0
LINE
  8
0
 62
     0
 10
43.2375
 20
3.288
 30
0.0
 11
42.4381
 21
3.288
 31
0.0
  0
LINE
  8
0
 62
     0
 10
44.8194
 20
60.4379
 30
0.0
 11
44.8194
 21
59.4374
 31
0.0
  0
LINE
  8
0
 62
     0
 10
44.8194
 20
59.4374
 30
0.0
 11
30.8185
 21
59.4374
 31
0.0
  0
LINE
  8
0
 62
     0
 10
30.8185
 20
59.4374
 30
0.0
 11
30.8185
 21
60.4379
 31
0.0
  0
LINE
  8
0
 62
     0
 10
30.8185
 20
60.4379
 30
0.0
 11
30.0192
 21
60.4379
 31
0.0
  0
LINE
  8
0
 62
     0
 10
30.0192
 20
60.4379
 30
0.0
 11
30.0192
 21
63.537
 31
0.0
  0
LINE
  8
0
 62
     0
 10
30.0192
 20
63.537
 30
0.0
 11
30.8185
 21
63.537
 31
0.0
  0
LINE
  8
0
 62
     0
 10
30.8185
 20
63.537
 30
0.0
 11
30.8185
 21
69.3374
 31
0.0
  0
LINE
  8
0
 62
     0
 10
30.8185
 20
69.3374
 30
0.0
 11
30.0192
 21
69.3374
 31
0.0
  0
LINE
  8
0
 62
     0
 10
30.0192
 20
69.3374
 30
0.0
 11
30.0192
 21
72.438
 31
0.0
  0
LINE
  8
0
 62
     0
 10
30.0192
 20
72.438
 30
0.0
 11
30.8185
 21
72.438
 31
0.0
  0
LINE
  8
0
 62
     0
 10
30.8185
 20
72.438
 30
0.0
 11
30.8185
 21
73.437
 31
0.0
  0
LINE
  8
0
 62
     0
 10
30.8185
 20
73.437
 30
0.0
 11
44.8194
 21
73.437
 31
0.0
  0
LINE
  8
0
 62
     0
 10
44.8194
 20
73.437
 30
0.0
 11
44.8194
 21
72.438
 31
0.0
  0
LINE
  8
0
 62
     0
 10
44.8194
 20
72.438
 30
0.0
 11
45.6188
 21
72.438
 31
0.0
  0
LINE
  8
0
 62
     0
 10
45.6188
 20
72.438
 30
0.0
 11
45.6188
 21
69.3374
 31
0.0
  0
LINE
  8
0
 62
     0
 10
45.6188
 20
69.3374
 30
0.0
 11
44.8194
 21
69.3374
 31
0.0
  0
LINE
  8
0
 62
     0
 10
44.8194
 20
69.3374
 30
0.0
 11
44.8194
 21
63.537
 31
0.0
  0
LINE
  8
0
 62
     0
 10
44.8194
 20
63.537
 30
0.0
 11
45.6188
 21
63.537
 31
0.0
  0
LINE
  8
0
 62
     0
 10
45.6188
 20
63.537
 30
0.0
 11
45.6188
 21
60.4379
 31
0.0
  0
LINE
  8
0
 62
     0
 10
45.6188
 20
60.4379
 30
0.0
 11
44.8194
 21
60.4379
 31
0.0
  0
LINE
  8
0
 62
     0
 10
49.5804
 20
41.3879
 30
0.0
 11
49.5804
 21
40.3874
 31
0.0
  0
LINE
  8
0
 62
     0
 10
49.5804
 20
40.3874
 30
0.0
 11
35.5808
 21
40.3874
 31
0.0
  0
LINE
  8
0
 62
     0
 10
35.5808
 20
40.3874
 30
0.0
 11
35.5808
 21
41.3879
 31
0.0
  0
LINE
  8
0
 62
     0
 10
35.5808
 20
41.3879
 30
0.0
 11
34.7817
 21
41.3879
 31
0.0
  0
LINE
  8
0
 62
     0
 10
34.7817
 20
41.3879
 30
0.0
 11
34.7817
 21
44.487
 31
0.0
  0
LINE
  8
0
 62
     0
 10
34.7817
 20
44.487
 30
0.0
 11
35.5808
 21
44.487
 31
0.0
  0
LINE
  8
0
 62
     0
 10
35.5808
 20
44.487
 30
0.0
 11
35.5808
 21
50.2874
 31
0.0
  0
LINE
  8
0
 62
     0
 10
35.5808
 20
50.2874
 30
0.0
 11
34.7817
 21
50.2874
 31
0.0
  0
LINE
  8
0
 62
     0
 10
34.7817
 20
50.2874
 30
0.0
 11
34.7817
 21
53.388
 31
0.0
  0
LINE
  8
0
 62
     0
 10
34.7817
 20
53.388
 30
0.0
 11
35.5808
 21
53.388
 31
0.0
  0
LINE
  8
0
 62
     0
 10
35.5808
 20
53.388
 30
0.0
 11
35.5808
 21
54.387
 31
0.0
  0
LINE
  8
0
 62
     0
 10
35.5808
 20
54.387
 30
0.0
 11
49.5804
 21
54.387
 31
0.0
  0
LINE
  8
0
 62
     0
 10
49.5804
 20
54.387
 30
0.0
 11
49.5804
 21
53.388
 31
0.0
  0
LINE
  8
0
 62
     0
 10
49.5804
 20
53.388
 30
0.0
 11
50.3813
 21
53.388
 31
0.0
  0
LINE
  8
0
 62
     0
 10
50.3813
 20
53.388
 30
0.0
 11
50.3813
 21
50.2874
 31
0.0
  0
LINE
  8
0
 62
     0
 10
50.3813
 20
50.2874
 30
0.0
 11
49.5804
 21
50.2874
 31
0.0
  0
LINE
  8
0
 62
     0
 10
49.5804
 20
50.2874
 30
0.0
 11
49.5804
 21
44.487
 31
0.0
  0
LINE
  8
0
 62
     0
 10
49.5804
 20
44.487
 30
0.0
 11
50.3813
 21
44.487
 31
0.0
  0
LINE
  8
0
 62
     0
 10
50.3813
 20
44.487
 30
0.0
 11
50.3813
 21
41.3879
 31
0.0
  0
LINE
  8
0
 62
     0
 10
50.3813
 20
41.3879
 30
0.0
 11
49.5804
 21
41.3879
 31
0.0
  0
LINE
  8
0
 62
     0
 10
54.3444
 20
79.4879
 30
0.0
 11
54.3444
 21
78.4874
 31
0.0
  0
LINE
  8
0
 62
     0
 10
54.3444
 20
78.4874
 30
0.0
 11
40.3433
 21
78.4874
 31
0.0
  0
LINE
  8
0
 62
     0
 10
40.3433
 20
78.4874
 30
0.0
 11
40.3433
 21
79.4879
 31
0.0
  0
LINE
  8
0
 62
     0
 10
40.3433
 20
79.4879
 30
0.0
 11
39.5443
 21
79.4879
 31
0.0
  0
LINE
  8
0
 62
     0
 10
39.5443
 20
79.4879
 30
0.0
 11
39.5443
 21
82.587
 31
0.0
  0
LINE
  8
0
 62
     0
 10
39.5443
 20
82.587
 30
0.0
 11
40.3433
 21
82.587
 31
0.0
  0
LINE
  8
0
 62
     0
 10
40.3433
 20
82.587
 30
0.0
 11
40.3433
 21
88.3874
 31
0.0
  0
LINE
  8
0
 62
     0
 10
40.3433
 20
88.3874
 30
0.0
 11
39.5443
 21
88.3874
 31
0.0
  0
LINE
  8
0
 62
     0
 10
39.5443
 20
88.3874
 30
0.0
 11
39.5443
 21
91.488
 31
0.0
  0
LINE
  8
0
 62
     0
 10
39.5443
 20
91.488
 30
0.0
 11
40.3433
 21
91.488
 31
0.0
  0
LINE
  8
0
 62
     0
 10
40.3433
 20
91.488
 30
0.0
 11
40.3433
 21
92.487
 31
0.0
  0
LINE
  8
0
 62
     0
 10
40.3433
 20
92.487
 30
0.0
 11
54.3444
 21
92.487
 31
0.0
  0
LINE
  8
0
 62
     0
 10
54.3444
 20
92.487
 30
0.0
 11
54.3444
 21
91.488
 31
0.0
  0
LINE
  8
0
 62
     0
 10
54.3444
 20
91.488
 30
0.0
 11
55.1438
 21
91.488
 31
0.0
  0
LINE
  8
0
 62
     0
 10
55.1438
 20
91.488
 30
0.0
 11
55.1438
 21
88.3874
 31
0.0
  0
LINE
  8
0
 62
     0
 10
55.1438
 20
88.3874
 30
0.0
 11
54.3444
 21
88.3874
 31
0.0
  0
LINE
  8
0
 62
     0
 10
54.3444
 20
88.3874
 30
0.0
 11
54.3444
 21
82.587
 31
0.0
  0
LINE
  8
0
 62
     0
 10
54.3444
 20
82.587
 30
0.0
 11
55.1438
 21
82.587
 31
0.0
  0
LINE
  8
0
 62
     0
 10
55.1438
 20
82.587
 30
0.0
 11
55.1438
 21
79.4879
 31
0.0
  0
LINE
  8
0
 62
     0
 10
55.1438
 20
79.4879
 30
0.0
 11
54.3444
 21
79.4879
 31
0.0
  0
LINE
  8
0
 62
     0
 10
59.1069
 20
22.338
 30
0.0
 11
59.1069
 21
21.3376
 31
0.0
  0
LINE
  8
0
 62
     0
 10
59.1069
 20
21.3376
 30
0.0
 11
45.1072
 21
21.3376
 31
0.0
  0
LINE
  8
0
 62
     0
 10
45.1072
 20
21.3376
 30
0.0
 11
45.1072
 21
22.338
 31
0.0
  0
LINE
  8
0
 62
     0
 10
45.1072
 20
22.338
 30
0.0
 11
44.3068
 21
22.338
 31
0.0
  0
LINE
  8
0
 62
     0
 10
44.3068
 20
22.338
 30
0.0
 11
44.3068
 21
25.4372
 31
0.0
  0
LINE
  8
0
 62
     0
 10
44.3068
 20
25.4372
 30
0.0
 11
45.1072
 21
25.4372
 31
0.0
  0
LINE
  8
0
 62
     0
 10
45.1072
 20
25.4372
 30
0.0
 11
45.1072
 21
31.2374
 31
0.0
  0
LINE
  8
0
 62
     0
 10
45.1072
 20
31.2374
 30
0.0
 11
44.3068
 21
31.2374
 31
0.0
  0
LINE
  8
0
 62
     0
 10
44.3068
 20
31.2374
 30
0.0
 11
44.3068
 21
34.3379
 31
0.0
  0
LINE
  8
0
 62
     0
 10
44.3068
 20
34.3379
 30
0.0
 11
45.1072
 21
34.3379
 31
0.0
  0
LINE
  8
0
 62
     0
 10
45.1072
 20
34.3379
 30
0.0
 11
45.1072
 21
35.337
 31
0.0
  0
LINE
  8
0
 62
     0
 10
45.1072
 20
35.337
 30
0.0
 11
59.1069
 21
35.337
 31
0.0
  0
LINE
  8
0
 62
     0
 10
59.1069
 20
35.337
 30
0.0
 11
59.1069
 21
34.3379
 31
0.0
  0
LINE
  8
0
 62
     0
 10
59.1069
 20
34.3379
 30
0.0
 11
59.9063
 21
34.3379
 31
0.0
  0
LINE
  8
0
 62
     0
 10
59.9063
 20
34.3379
 30
0.0
 11
59.9063
 21
31.2374
 31
0.0
  0
LINE
  8
0
 62
     0
 10
59.9063
 20
31.2374
 30
0.0
 11
59.1069
 21
31.2374
 31
0.0
  0
LINE
  8
0
 62
     0
 10
59.1069
 20
31.2374
 30
0.0
 11
59.1069
 21
25.4372
 31
0.0
  0
LINE
  8
0
 62
     0
 10
59.1069
 20
25.4372
 30
0.0
 11
59.9063
 21
25.4372
 31
0.0
  0
LINE
  8
0
 62
     0
 10
59.9063
 20
25.4372
 30
0.0
 11
59.9063
 21
22.338
 31
0.0
  0
LINE
  8
0
 62
     0
 10
59.9063
 20
22.338
 30
0.0
 11
59.1069
 21
22.338
 31
0.0
  0
LINE
  8
0
 62
     0
 10
63.8694
 20
60.4379
 30
0.0
 11
63.8694
 21
59.4374
 31
0.0
  0
LINE
  8
0
 62
     0
 10
63.8694
 20
59.4374
 30
0.0
 11
49.8683
 21
59.4374
 31
0.0
  0
LINE
  8
0
 62
     0
 10
49.8683
 20
59.4374
 30
0.0
 11
49.8683
 21
60.4379
 31
0.0
  0
LINE
  8
0
 62
     0
 10
49.8683
 20
60.4379
 30
0.0
 11
49.0693
 21
60.4379
 31
0.0
  0
LINE
  8
0
 62
     0
 10
49.0693
 20
60.4379
 30
0.0
 11
49.0693
 21
63.537
 31
0.0
  0
LINE
  8
0
 62
     0
 10
49.0693
 20
63.537
 30
0.0
 11
49.8683
 21
63.537
 31
0.0
  0
LINE
  8
0
 62
     0
 10
49.8683
 20
63.537
 30
0.0
 11
49.8683
 21
69.3374
 31
0.0
  0
LINE
  8
0
 62
     0
 10
49.8683
 20
69.3374
 30
0.0
 11
49.0693
 21
69.3374
 31
0.0
  0
LINE
  8
0
 62
     0
 10
49.0693
 20
69.3374
 30
0.0
 11
49.0693
 21
72.438
 31
0.0
  0
LINE
  8
0
 62
     0
 10
49.0693
 20
72.438
 30
0.0
 11
49.8683
 21
72.438
 31
0.0
  0
LINE
  8
0
 62
     0
 10
49.8683
 20
72.438
 30
0.0
 11
49.8683
 21
73.437
 31
0.0
  0
LINE
  8
0
 62
     0
 10
49.8683
 20
73.437
 30
0.0
 11
63.8694
 21
73.437
 31
0.0
  0
LINE
  8
0
 62
     0
 10
63.8694
 20
73.437
 30
0.0
 11
63.8694
 21
72.438
 31
0.0
  0
LINE
  8
0
 62
     0
 10
63.8694
 20
72.438
 30
0.0
 11
64.6688
 21
72.438
 31
0.0
  0
LINE
  8
0
 62
     0
 10
64.6688
 20
72.438
 30
0.0
 11
64.6688
 21
69.3374
 31
0.0
  0
LINE
  8
0
 62
     0
 10
64.6688
 20
69.3374
 30
0.0
 11
63.8694
 21
69.3374
 31
0.0
  0
LINE
  8
0
 62
     0
 10
63.8694
 20
69.3374
 30
0.0
 11
63.8694
 21
63.537
 31
0.0
  0
LINE
  8
0
 62
     0
 10
63.8694
 20
63.537
 30
0.0
 11
64.6688
 21
63.537
 31
0.0
  0
LINE
  8
0
 62
     0
 10
64.6688
 20
63.537
 30
0.0
 11
64.6688
 21
60.4379
 31
0.0
  0
LINE
  8
0
 62
     0
 10
64.6688
 20
60.4379
 30
0.0
 11
63.8694
 21
60.4379
 31
0.0
  0
LINE
  8
0
 62
     0
 10
66.2492
 20
3.288
 30
0.0
 11
66.2492
 21
2.28755
 31
0.0
  0
LINE
  8
0
 62
     0
 10
66.2492
 20
2.28755
 30
0.0
 11
52.2496
 21
2.28755
 31
0.0
  0
LINE
  8
0
 62
     0
 10
52.2496
 20
2.28755
 30
0.0
 11
52.2496
 21
3.288
 31
0.0
  0
LINE
  8
0
 62
     0
 10
52.2496
 20
3.288
 30
0.0
 11
51.4505
 21
3.288
 31
0.0
  0
LINE
  8
0
 62
     0
 10
51.4505
 20
3.288
 30
0.0
 11
51.4505
 21
6.38722
 31
0.0
  0
LINE
  8
0
 62
     0
 10
51.4505
 20
6.38722
 30
0.0
 11
52.2496
 21
6.38722
 31
0.0
  0
LINE
  8
0
 62
     0
 10
52.2496
 20
6.38722
 30
0.0
 11
52.2496
 21
12.1874
 31
0.0
  0
LINE
  8
0
 62
     0
 10
52.2496
 20
12.1874
 30
0.0
 11
51.4505
 21
12.1874
 31
0.0
  0
LINE
  8
0
 62
     0
 10
51.4505
 20
12.1874
 30
0.0
 11
51.4505
 21
15.2879
 31
0.0
  0
LINE
  8
0
 62
     0
 10
51.4505
 20
15.2879
 30
0.0
 11
52.2496
 21
15.2879
 31
0.0
  0
LINE
  8
0
 62
     0
 10
52.2496
 20
15.2879
 30
0.0
 11
52.2496
 21
16.287
 31
0.0
  0
LINE
  8
0
 62
     0
 10
52.2496
 20
16.287
 30
0.0
 11
66.2492
 21
16.287
 31
0.0
  0
LINE
  8
0
 62
     0
 10
66.2492
 20
16.287
 30
0.0
 11
66.2492
 21
15.2879
 31
0.0
  0
LINE
  8
0
 62
     0
 10
66.2492
 20
15.2879
 30
0.0
 11
67.05
 21
15.2879
 31
0.0
  0
LINE
  8
0
 62
     0
 10
67.05
 20
15.2879
 30
0.0
 11
67.05
 21
12.1874
 31
0.0
  0
LINE
  8
0
 62
     0
 10
67.05
 20
12.1874
 30
0.0
 11
66.2492
 21
12.1874
 31
0.0
  0
LINE
  8
0
 62
     0
 10
66.2492
 20
12.1874
 30
0.0
 11
66.2492
 21
6.38722
 31
0.0
  0
LINE
  8
0
 62
     0
 10
66.2492
 20
6.38722
 30
0.0
 11
67.05
 21
6.38722
 31
0.0
  0
LINE
  8
0
 62
     0
 10
67.05
 20
6.38722
 30
0.0
 11
67.05
 21
3.288
 31
0.0
  0
LINE
  8
0
 62
     0
 10
67.05
 20
3.288
 30
0.0
 11
66.2492
 21
3.288
 31
0.0
  0
LINE
  8
0
 62
     0
 10
68.6304
 20
41.3879
 30
0.0
 11
68.6304
 21
40.3874
 31
0.0
  0
LINE
  8
0
 62
     0
 10
68.6304
 20
40.3874
 30
0.0
 11
54.6308
 21
40.3874
 31
0.0
  0
LINE
  8
0
 62
     0
 10
54.6308
 20
40.3874
 30
0.0
 11
54.6308
 21
41.3879
 31
0.0
  0
LINE
  8
0
 62
     0
 10
54.6308
 20
41.3879
 30
0.0
 11
53.8304
 21
41.3879
 31
0.0
  0
LINE
  8
0
 62
     0
 10
53.8304
 20
41.3879
 30
0.0
 11
53.8304
 21
44.487
 31
0.0
  0
LINE
  8
0
 62
     0
 10
53.8304
 20
44.487
 30
0.0
 11
54.6308
 21
44.487
 31
0.0
  0
LINE
  8
0
 62
     0
 10
54.6308
 20
44.487
 30
0.0
 11
54.6308
 21
50.2874
 31
0.0
  0
LINE
  8
0
 62
     0
 10
54.6308
 20
50.2874
 30
0.0
 11
53.8304
 21
50.2874
 31
0.0
  0
LINE
  8
0
 62
     0
 10
53.8304
 20
50.2874
 30
0.0
 11
53.8304
 21
53.388
 31
0.0
  0
LINE
  8
0
 62
     0
 10
53.8304
 20
53.388
 30
0.0
 11
54.6308
 21
53.388
 31
0.0
  0
LINE
  8
0
 62
     0
 10
54.6308
 20
53.388
 30
0.0
 11
54.6308
 21
54.387
 31
0.0
  0
LINE
  8
0
 62
     0
 10
54.6308
 20
54.387
 30
0.0
 11
68.6304
 21
54.387
 31
0.0
  0
LINE
  8
0
 62
     0
 10
68.6304
 20
54.387
 30
0.0
 11
68.6304
 21
53.388
 31
0.0
  0
LINE
  8
0
 62
     0
 10
68.6304
 20
53.388
 30
0.0
 11
69.4313
 21
53.388
 31
0.0
  0
LINE
  8
0
 62
     0
 10
69.4313
 20
53.388
 30
0.0
 11
69.4313
 21
50.2874
 31
0.0
  0
LINE
  8
0
 62
     0
 10
69.4313
 20
50.2874
 30
0.0
 11
68.6304
 21
50.2874
 31
0.0
  0
LINE
  8
0
 62
     0
 10
68.6304
 20
50.2874
 30
0.0
 11
68.6304
 21
44.487
 31
0.0
  0
LINE
  8
0
 62
     0
 10
68.6304
 20
44.487
 30
0.0
 11
69.4313
 21
44.487
 31
0.0
  0
LINE
  8
0
 62
     0
 10
69.4313
 20
44.487
 30
0.0
 11
69.4313
 21
41.3879
 31
0.0
  0
LINE
  8
0
 62
     0
 10
69.4313
 20
41.3879
 30
0.0
 11
68.6304
 21
41.3879
 31
0.0
  0
LINE
  8
0
 62
     0
 10
73.3944
 20
79.4879
 30
0.0
 11
73.3944
 21
78.4874
 31
0.0
  0
LINE
  8
0
 62
     0
 10
73.3944
 20
78.4874
 30
0.0
 11
59.3933
 21
78.4874
 31
0.0
  0
LINE
  8
0
 62
     0
 10
59.3933
 20
78.4874
 30
0.0
 11
59.3933
 21
79.4879
 31
0.0
  0
LINE
  8
0
 62
     0
 10
59.3933
 20
79.4879
 30
0.0
 11
58.5943
 21
79.4879
 31
0.0
  0
LINE
  8
0
 62
     0
 10
58.5943
 20
79.4879
 30
0.0
 11
58.5943
 21
82.587
 31
0.0
  0
LINE
  8
0
 62
     0
 10
58.5943
 20
82.587
 30
0.0
 11
59.3933
 21
82.587
 31
0.0
  0
LINE
  8
0
 62
     0
 10
59.3933
 20
82.587
 30
0.0
 11
59.3933
 21
88.3874
 31
0.0
  0
LINE
  8
0
 62
     0
 10
59.3933
 20
88.3874
 30
0.0
 11
58.5943
 21
88.3874
 31
0.0
  0
LINE
  8
0
 62
     0
 10
58.5943
 20
88.3874
 30
0.0
 11
58.5943
 21
91.488
 31
0.0
  0
LINE
  8
0
 62
     0
 10
58.5943
 20
91.488
 30
0.0
 11
59.3933
 21
91.488
 31
0.0
  0
LINE
  8
0
 62
     0
 10
59.3933
 20
91.488
 30
0.0
 11
59.3933
 21
92.487
 31
0.0
  0
LINE
  8
0
 62
     0
 10
59.3933
 20
92.487
 30
0.0
 11
73.3944
 21
92.487
 31
0.0
  0
LINE
  8
0
 62
     0
 10
73.3944
 20
92.487
 30
0.0
 11
73.3944
 21
91.488
 31
0.0
  0
LINE
  8
0
 62
     0
 10
73.3944
 20
91.488
 30
0.0
 11
74.1938
 21
91.488
 31
0.0
  0
LINE
  8
0
 62
     0
 10
74.1938
 20
91.488
 30
0.0
 11
74.1938
 21
88.3874
 31
0.0
  0
LINE
  8
0
 62
     0
 10
74.1938
 20
88.3874
 30
0.0
 11
73.3944
 21
88.3874
 31
0.0
  0
LINE
  8
0
 62
     0
 10
73.3944
 20
88.3874
 30
0.0
 11
73.3944
 21
82.587
 31
0.0
  0
LINE
  8
0
 62
     0
 10
73.3944
 20
82.587
 30
0.0
 11
74.1938
 21
82.587
 31
0.0
  0
LINE
  8
0
 62
     0
 10
74.1938
 20
82.587
 30
0.0
 11
74.1938
 21
79.4879
 31
0.0
  0
LINE
  8
0
 62
     0
 10
74.1938
 20
79.4879
 30
0.0
 11
73.3944
 21
79.4879
 31
0.0
  0
LINE
  8
0
 62
     0
 10
78.1554
 20
22.338
 30
0.0
 11
78.1554
 21
21.3376
 31
0.0
  0
LINE
  8
0
 62
     0
 10
78.1554
 20
21.3376
 30
0.0
 11
64.1558
 21
21.3376
 31
0.0
  0
LINE
  8
0
 62
     0
 10
64.1558
 20
21.3376
 30
0.0
 11
64.1558
 21
22.338
 31
0.0
  0
LINE
  8
0
 62
     0
 10
64.1558
 20
22.338
 30
0.0
 11
63.3568
 21
22.338
 31
0.0
  0
LINE
  8
0
 62
     0
 10
63.3568
 20
22.338
 30
0.0
 11
63.3568
 21
25.4372
 31
0.0
  0
LINE
  8
0
 62
     0
 10
63.3568
 20
25.4372
 30
0.0
 11
64.1558
 21
25.4372
 31
0.0
  0
LINE
  8
0
 62
     0
 10
64.1558
 20
25.4372
 30
0.0
 11
64.1558
 21
31.2374
 31
0.0
  0
LINE
  8
0
 62
     0
 10
64.1558
 20
31.2374
 30
0.0
 11
63.3568
 21
31.2374
 31
0.0
  0
LINE
  8
0
 62
     0
 10
63.3568
 20
31.2374
 30
0.0
 11
63.3568
 21
34.3379
 31
0.0
  0
LINE
  8
0
 62
     0
 10
63.3568
 20
34.3379
 30
0.0
 11
64.1558
 21
34.3379
 31
0.0
  0
LINE
  8
0
 62
     0
 10
64.1558
 20
34.3379
 30
0.0
 11
64.1558
 21
35.337
 31
0.0
  0
LINE
  8
0
 62
     0
 10
64.1558
 20
35.337
 30
0.0
 11
78.1554
 21
35.337
 31
0.0
  0
LINE
  8
0
 62
     0
 10
78.1554
 20
35.337
 30
0.0
 11
78.1554
 21
34.3379
 31
0.0
  0
LINE
  8
0
 62
     0
 10
78.1554
 20
34.3379
 30
0.0
 11
78.9563
 21
34.3379
 31
0.0
  0
LINE
  8
0
 62
     0
 10
78.9563
 20
34.3379
 30
0.0
 11
78.9563
 21
31.2374
 31
0.0
  0
LINE
  8
0
 62
     0
 10
78.9563
 20
31.2374
 30
0.0
 11
78.1554
 21
31.2374
 31
0.0
  0
LINE
  8
0
 62
     0
 10
78.1554
 20
31.2374
 30
0.0
 11
78.1554
 21
25.4372
 31
0.0
  0
LINE
  8
0
 62
     0
 10
78.1554
 20
25.4372
 30
0.0
 11
78.9563
 21
25.4372
 31
0.0
  0
LINE
  8
0
 62
     0
 10
78.9563
 20
25.4372
 30
0.0
 11
78.9563
 21
22.338
 31
0.0
  0
LINE
  8
0
 62
     0
 10
78.9563
 20
22.338
 30
0.0
 11
78.1554
 21
22.338
 31
0.0
  0
LINE
  8
0
 62
     0
 10
82.9194
 20
60.4379
 30
0.0
 11
82.9194
 21
59.4374
 31
0.0
  0
LINE
  8
0
 62
     0
 10
82.9194
 20
59.4374
 30
0.0
 11
68.9183
 21
59.4374
 31
0.0
  0
LINE
  8
0
 62
     0
 10
68.9183
 20
59.4374
 30
0.0
 11
68.9183
 21
60.4379
 31
0.0
  0
LINE
  8
0
 62
     0
 10
68.9183
 20
60.4379
 30
0.0
 11
68.1193
 21
60.4379
 31
0.0
  0
LINE
  8
0
 62
     0
 10
68.1193
 20
60.4379
 30
0.0
 11
68.1193
 21
63.537
 31
0.0
  0
LINE
  8
0
 62
     0
 10
68.1193
 20
63.537
 30
0.0
 11
68.9183
 21
63.537
 31
0.0
  0
LINE
  8
0
 62
     0
 10
68.9183
 20
63.537
 30
0.0
 11
68.9183
 21
69.3374
 31
0.0
  0
LINE
  8
0
 62
     0
 10
68.9183
 20
69.3374
 30
0.0
 11
68.1193
 21
69.3374
 31
0.0
  0
LINE
  8
0
 62
     0
 10
68.1193
 20
69.3374
 30
0.0
 11
68.1193
 21
72.438
 31
0.0
  0
LINE
  8
0
 62
     0
 10
68.1193
 20
72.438
 30
0.0
 11
68.9183
 21
72.438
 31
0.0
  0
LINE
  8
0
 62
     0
 10
68.9183
 20
72.438
 30
0.0
 11
68.9183
 21
73.437
 31
0.0
  0
LINE
  8
0
 62
     0
 10
68.9183
 20
73.437
 30
0.0
 11
82.9194
 21
73.437
 31
0.0
  0
LINE
  8
0
 62
     0
 10
82.9194
 20
73.437
 30
0.0
 11
82.9194
 21
72.438
 31
0.0
  0
LINE
  8
0
 62
     0
 10
82.9194
 20
72.438
 30
0.0
 11
83.7188
 21
72.438
 31
0.0
  0
LINE
  8
0
 62
     0
 10
83.7188
 20
72.438
 30
0.0
 11
83.7188
 21
69.3374
 31
0.0
  0
LINE
  8
0
 62
     0
 10
83.7188
 20
69.3374
 30
0.0
 11
82.9194
 21
69.3374
 31
0.0
  0
LINE
  8
0
 62
     0
 10
82.9194
 20
69.3374
 30
0.0
 11
82.9194
 21
63.537
 31
0.0
  0
LINE
  8
0
 62
     0
 10
82.9194
 20
63.537
 30
0.0
 11
83.7188
 21
63.537
 31
0.0
  0
LINE
  8
0
 62
     0
 10
83.7188
 20
63.537
 30
0.0
 11
83.7188
 21
60.4379
 31
0.0
  0
LINE
  8
0
 62
     0
 10
83.7188
 20
60.4379
 30
0.0
 11
82.9194
 21
60.4379
 31
0.0
  0
LINE
  8
0
 62
     0
 10
87.6804
 20
41.3879
 30
0.0
 11
87.6804
 21
40.3874
 31
0.0
  0
LINE
  8
0
 62
     0
 10
87.6804
 20
40.3874
 30
0.0
 11
73.6808
 21
40.3874
 31
0.0
  0
LINE
  8
0
 62
     0
 10
73.6808
 20
40.3874
 30
0.0
 11
73.6808
 21
41.3879
 31
0.0
  0
LINE
  8
0
 62
     0
 10
73.6808
 20
41.3879
 30
0.0
 11
72.8804
 21
41.3879
 31
0.0
  0
LINE
  8
0
 62
     0
 10
72.8804
 20
41.3879
 30
0.0
 11
72.8804
 21
44.487
 31
0.0
  0
LINE
  8
0
 62
     0
 10
72.8804
 20
44.487
 30
0.0
 11
73.6808
 21
44.487
 31
0.0
  0
LINE
  8
0
 62
     0
 10
73.6808
 20
44.487
 30
0.0
 11
73.6808
 21
50.2874
 31
0.0
  0
LINE
  8
0
 62
     0
 10
73.6808
 20
50.2874
 30
0.0
 11
72.8804
 21
50.2874
 31
0.0
  0
LINE
  8
0
 62
     0
 10
72.8804
 20
50.2874
 30
0.0
 11
72.8804
 21
53.388
 31
0.0
  0
LINE
  8
0
 62
     0
 10
72.8804
 20
53.388
 30
0.0
 11
73.6808
 21
53.388
 31
0.0
  0
LINE
  8
0
 62
     0
 10
73.6808
 20
53.388
 30
0.0
 11
73.6808
 21
54.387
 31
0.0
  0
LINE
  8
0
 62
     0
 10
73.6808
 20
54.387
 30
0.0
 11
87.6804
 21
54.387
 31
0.0
  0
LINE
  8
0
 62
     0
 10
87.6804
 20
54.387
 30
0.0
 11
87.6804
 21
53.388
 31
0.0
  0
LINE
  8
0
 62
     0
 10
87.6804
 20
53.388
 30
0.0
 11
88.4813
 21
53.388
 31
0.0
  0
LINE
  8
0
 62
     0
 10
88.4813
 20
53.388
 30
0.0
 11
88.4813
 21
50.2874
 31
0.0
  0
LINE
  8
0
 62
     0
 10
88.4813
 20
50.2874
 30
0.0
 11
87.6804
 21
50.2874
 31
0.0
  0
LINE
  8
0
 62
     0
 10
87.6804
 20
50.2874
 30
0.0
 11
87.6804
 21
44.487
 31
0.0
  0
LINE
  8
0
 62
     0
 10
87.6804
 20
44.487
 30
0.0
 11
88.4813
 21
44.487
 31
0.0
  0
LINE
  8
0
 62
     0
 10
88.4813
 20
44.487
 30
0.0
 11
88.4813
 21
41.3879
 31
0.0
  0
LINE
  8
0
 62
     0
 10
88.4813
 20
41.3879
 30
0.0
 11
87.6804
 21
41.3879
 31
0.0
  0
LINE
  8
0
 62
     0
 10
92.4444
 20
79.4879
 30
0.0
 11
92.4444
 21
78.4874
 31
0.0
  0
LINE
  8
0
 62
     0
 10
92.4444
 20
78.4874
 30
0.0
 11
78.4433
 21
78.4874
 31
0.0
  0
LINE
  8
0
 62
     0
 10
78.4433
 20
78.4874
 30
0.0
 11
78.4433
 21
79.4879
 31
0.0
  0
LINE
  8
0
 62
     0
 10
78.4433
 20
79.4879
 30
0.0
 11
77.6443
 21
79.4879
 31
0.0
  0
LINE
  8
0
 62
     0
 10
77.6443
 20
79.4879
 30
0.0
 11
77.6443
 21
82.587
 31
0.0
  0
LINE
  8
0
 62
     0
 10
77.6443
 20
82.587
 30
0.0
 11
78.4433
 21
82.587
 31
0.0
  0
LINE
  8
0
 62
     0
 10
78.4433
 20
82.587
 30
0.0
 11
78.4433
 21
88.3874
 31
0.0
  0
LINE
  8
0
 62
     0
 10
78.4433
 20
88.3874
 30
0.0
 11
77.6443
 21
88.3874
 31
0.0
  0
LINE
  8
0
 62
     0
 10
77.6443
 20
88.3874
 30
0.0
 11
77.6443
 21
91.488
 31
0.0
  0
LINE
  8
0
 62
     0
 10
77.6443
 20
91.488
 30
0.0
 11
78.4433
 21
91.488
 31
0.0
  0
LINE
  8
0
 62
     0
 10
78.4433
 20
91.488
 30
0.0
 11
78.4433
 21
92.487
 31
0.0
  0
LINE
  8
0
 62
     0
 10
78.4433
 20
92.487
 30
0.0
 11
92.4444
 21
92.487
 31
0.0
  0
LINE
  8
0
 62
     0
 10
92.4444
 20
92.487
 30
0.0
 11
92.4444
 21
91.488
 31
0.0
  0
LINE
  8
0
 62
     0
 10
92.4444
 20
91.488
 30
0.0
 11
93.2437
 21
91.488
 31
0.0
  0
LINE
  8
0
 62
     0
 10
93.2437
 20
91.488
 30
0.0
 11
93.2437
 21
88.3874
 31
0.0
  0
LINE
  8
0
 62
     0
 10
93.2437
 20
88.3874
 30
0.0
 11
92.4444
 21
88.3874
 31
0.0
  0
LINE
  8
0
 62
     0
 10
92.4444
 20
88.3874
 30
0.0
 11
92.4444
 21
82.587
 31
0.0
  0
LINE
  8
0
 62
     0
 10
92.4444
 20
82.587
 30
0.0
 11
93.2437
 21
82.587
 31
0.0
  0
LINE
  8
0
 62
     0
 10
93.2437
 20
82.587
 30
0.0
 11
93.2437
 21
79.4879
 31
0.0
  0
LINE
  8
0
 62
     0
 10
93.2437
 20
79.4879
 30
0.0
 11
92.4444
 21
79.4879
 31
0.0
  0
LINE
  8
0
 62
     0
 10
97.2054
 20
22.338
 30
0.0
 11
97.2054
 21
21.3376
 31
0.0
  0
LINE
  8
0
 62
     0
 10
97.2054
 20
21.3376
 30
0.0
 11
83.2058
 21
21.3376
 31
0.0
  0
LINE
  8
0
 62
     0
 10
83.2058
 20
21.3376
 30
0.0
 11
83.2058
 21
22.338
 31
0.0
  0
LINE
  8
0
 62
     0
 10
83.2058
 20
22.338
 30
0.0
 11
82.4054
 21
22.338
 31
0.0
  0
LINE
  8
0
 62
     0
 10
82.4054
 20
22.338
 30
0.0
 11
82.4054
 21
25.4372
 31
0.0
  0
LINE
  8
0
 62
     0
 10
82.4054
 20
25.4372
 30
0.0
 11
83.2058
 21
25.4372
 31
0.0
  0
LINE
  8
0
 62
     0
 10
83.2058
 20
25.4372
 30
0.0
 11
83.2058
 21
31.2374
 31
0.0
  0
LINE
  8
0
 62
     0
 10
83.2058
 20
31.2374
 30
0.0
 11
82.4054
 21
31.2374
 31
0.0
  0
LINE
  8
0
 62
     0
 10
82.4054
 20
31.2374
 30
0.0
 11
82.4054
 21
34.3379
 31
0.0
  0
LINE
  8
0
 62
     0
 10
82.4054
 20
34.3379
 30
0.0
 11
83.2058
 21
34.3379
 31
0.0
  0
LINE
  8
0
 62
     0
 10
83.2058
 20
34.3379
 30
0.0
 11
83.2058
 21
35.337
 31
0.0
  0
LINE
  8
0
 62
     0
 10
83.2058
 20
35.337
 30
0.0
 11
97.2054
 21
35.337
 31
0.0
  0
LINE
  8
0
 62
     0
 10
97.2054
 20
35.337
 30
0.0
 11
97.2054
 21
34.3379
 31
0.0
  0
LINE
  8
0
 62
     0
 10
97.2054
 20
34.3379
 30
0.0
 11
98.0062
 21
34.3379
 31
0.0
  0
LINE
  8
0
 62
     0
 10
98.0062
 20
34.3379
 30
0.0
 11
98.0062
 21
31.2374
 31
0.0
  0
LINE
  8
0
 62
     0
 10
98.0062
 20
31.2374
 30
0.0
 11
97.2054
 21
31.2374
 31
0.0
  0
LINE
  8
0
 62
     0
 10
97.2054
 20
31.2374
 30
0.0
 11
97.2054
 21
25.4372
 31
0.0
  0
LINE
  8
0
 62
     0
 10
97.2054
 20
25.4372
 30
0.0
 11
98.0062
 21
25.4372
 31
0.0
  0
LINE
  8
0
 62
     0
 10
98.0062
 20
25.4372
 30
0.0
 11
98.0062
 21
22.338
 31
0.0
  0
LINE
  8
0
 62
     0
 10
98.0062
 20
22.338
 30
0.0
 11
97.2054
 21
22.338
 31
0.0
  0
LINE
  8
0
 62
     0
 10
101.969
 20
60.4379
 30
0.0
 11
101.969
 21
59.4374
 31
0.0
  0
LINE
  8
0
 62
     0
 10
101.969
 20
59.4374
 30
0.0
 11
87.9683
 21
59.4374
 31
0.0
  0
LINE
  8
0
 62
     0
 10
87.9683
 20
59.4374
 30
0.0
 11
87.9683
 21
60.4379
 31
0.0
  0
LINE
  8
0
 62
     0
 10
87.9683
 20
60.4379
 30
0.0
 11
87.1693
 21
60.4379
 31
0.0
  0
LINE
  8
0
 62
     0
 10
87.1693
 20
60.4379
 30
0.0
 11
87.1693
 21
63.537
 31
0.0
  0
LINE
  8
0
 62
     0
 10
87.1693
 20
63.537
 30
0.0
 11
87.9683
 21
63.537
 31
0.0
  0
LINE
  8
0
 62
     0
 10
87.9683
 20
63.537
 30
0.0
 11
87.9683
 21
69.3374
 31
0.0
  0
LINE
  8
0
 62
     0
 10
87.9683
 20
69.3374
 30
0.0
 11
87.1693
 21
69.3374
 31
0.0
  0
LINE
  8
0
 62
     0
 10
87.1693
 20
69.3374
 30
0.0
 11
87.1693
 21
72.438
 31
0.0
  0
LINE
  8
0
 62
     0
 10
87.1693
 20
72.438
 30
0.0
 11
87.9683
 21
72.438
 31
0.0
  0
LINE
  8
0
 62
     0
 10
87.9683
 20
72.438
 30
0.0
 11
87.9683
 21
73.437
 31
0.0
  0
LINE
  8
0
 62
     0
 10
87.9683
 20
73.437
 30
0.0
 11
101.969
 21
73.437
 31
0.0
  0
LINE
  8
0
 62
     0
 10
101.969
 20
73.437
 30
0.0
 11
101.969
 21
72.438
 31
0.0
  0
LINE
  8
0
 62
     0
 10
101.969
 20
72.438
 30
0.0
 11
102.769
 21
72.438
 31
0.0
  0
LINE
  8
0
 62
     0
 10
102.769
 20
72.438
 30
0.0
 11
102.769
 21
69.3374
 31
0.0
  0
LINE
  8
0
 62
     0
 10
102.769
 20
69.3374
 30
0.0
 11
101.969
 21
69.3374
 31
0.0
  0
LINE
  8
0
 62
     0
 10
101.969
 20
69.3374
 30
0.0
 11
101.969
 21
63.537
 31
0.0
  0
LINE
  8
0
 62
     0
 10
101.969
 20
63.537
 30
0.0
 11
102.769
 21
63.537
 31
0.0
  0
LINE
  8
0
 62
     0
 10
102.769
 20
63.537
 30
0.0
 11
102.769
 21
60.4379
 31
0.0
  0
LINE
  8
0
 62
     0
 10
102.769
 20
60.4379
 30
0.0
 11
101.969
 21
60.4379
 31
0.0
  0
LINE
  8
0
 62
     0
 10
106.73
 20
41.3879
 30
0.0
 11
106.73
 21
40.3874
 31
0.0
  0
LINE
  8
0
 62
     0
 10
106.73
 20
40.3874
 30
0.0
 11
92.7308
 21
40.3874
 31
0.0
  0
LINE
  8
0
 62
     0
 10
92.7308
 20
40.3874
 30
0.0
 11
92.7308
 21
41.3879
 31
0.0
  0
LINE
  8
0
 62
     0
 10
92.7308
 20
41.3879
 30
0.0
 11
91.9304
 21
41.3879
 31
0.0
  0
LINE
  8
0
 62
     0
 10
91.9304
 20
41.3879
 30
0.0
 11
91.9304
 21
44.487
 31
0.0
  0
LINE
  8
0
 62
     0
 10
91.9304
 20
44.487
 30
0.0
 11
92.7308
 21
44.487
 31
0.0
  0
LINE
  8
0
 62
     0
 10
92.7308
 20
44.487
 30
0.0
 11
92.7308
 21
50.2874
 31
0.0
  0
LINE
  8
0
 62
     0
 10
92.7308
 20
50.2874
 30
0.0
 11
91.9304
 21
50.2874
 31
0.0
  0
LINE
  8
0
 62
     0
 10
91.9304
 20
50.2874
 30
0.0
 11
91.9304
 21
53.388
 31
0.0
  0
LINE
  8
0
 62
     0
 10
91.9304
 20
53.388
 30
0.0
 11
92.7308
 21
53.388
 31
0.0
  0
LINE
  8
0
 62
     0
 10
92.7308
 20
53.388
 30
0.0
 11
92.7308
 21
54.387
 31
0.0
  0
LINE
  8
0
 62
     0
 10
92.7308
 20
54.387
 30
0.0
 11
106.73
 21
54.387
 31
0.0
  0
LINE
  8
0
 62
     0
 10
106.73
 20
54.387
 30
0.0
 11
106.73
 21
53.388
 31
0.0
  0
LINE
  8
0
 62
     0
 10
106.73
 20
53.388
 30
0.0
 11
107.531
 21
53.388
 31
0.0
  0
LINE
  8
0
 62
     0
 10
107.531
 20
53.388
 30
0.0
 11
107.531
 21
50.2874
 31
0.0
  0
LINE
  8
0
 62
     0
 10
107.531
 20
50.2874
 30
0.0
 11
106.73
 21
50.2874
 31
0.0
  0
LINE
  8
0
 62
     0
 10
106.73
 20
50.2874
 30
0.0
 11
106.73
 21
44.487
 31
0.0
  0
LINE
  8
0
 62
     0
 10
106.73
 20
44.487
 30
0.0
 11
107.531
 21
44.487
 31
0.0
  0
LINE
  8
0
 62
     0
 10
107.531
 20
44.487
 30
0.0
 11
107.531
 21
41.3879
 31
0.0
  0
LINE
  8
0
 62
     0
 10
107.531
 20
41.3879
 30
0.0
 11
106.73
 21
41.3879
 31
0.0
  0
LINE
  8
0
 62
     0
 10
111.494
 20
79.4879
 30
0.0
 11
111.494
 21
78.4874
 31
0.0
  0
LINE
  8
0
 62
     0
 10
111.494
 20
78.4874
 30
0.0
 11
97.4933
 21
78.4874
 31
0.0
  0
LINE
  8
0
 62
     0
 10
97.4933
 20
78.4874
 30
0.0
 11
97.4933
 21
79.4879
 31
0.0
  0
LINE
  8
0
 62
     0
 10
97.4933
 20
79.4879
 30
0.0
 11
96.6943
 21
79.4879
 31
0.0
  0
LINE
  8
0
 62
     0
 10
96.6943
 20
79.4879
 30
0.0
 11
96.6943
 21
82.587
 31
0.0
  0
LINE
  8
0
 62
     0
 10
96.6943
 20
82.587
 30
0.0
 11
97.4933
 21
82.587
 31
0.0
  0
LINE
  8
0
 62
     0
 10
97.4933
 20
82.587
 30
0.0
 11
97.4933
 21
88.3874
 31
0.0
  0
LINE
  8
0
 62
     0
 10
97.4933
 20
88.3874
 30
0.0
 11
96.6943
 21
88.3874
 31
0.0
  0
LINE
  8
0
 62
     0
 10
96.6943
 20
88.3874
 30
0.0
 11
96.6943
 21
91.488
 31
0.0
  0
LINE
  8
0
 62
     0
 10
96.6943
 20
91.488
 30
0.0
 11
97.4933
 21
91.488
 31
0.0
  0
LINE
  8
0
 62
     0
 10
97.4933
 20
91.488
 30
0.0
 11
97.4933
 21
92.487
 31
0.0
  0
LINE
  8
0
 62
     0
 10
97.4933
 20
92.487
 30
0.0
 11
111.494
 21
92.487
 31
0.0
  0
LINE
  8
0
 62
     0
 10
111.494
 20
92.487
 30
0.0
 11
111.494
 21
91.488
 31
0.0
  0
LINE
  8
0
 62
     0
 10
111.494
 20
91.488
 30
0.0
 11
112.294
 21
91.488
 31
0.0
  0
LINE
  8
0
 62
     0
 10
112.294
 20
91.488
 30
0.0
 11
112.294
 21
88.3874
 31
0.0
  0
LINE
  8
0
 62
     0
 10
112.294
 20
88.3874
 30
0.0
 11
111.494
 21
88.3874
 31
0.0
  0
LINE
  8
0
 62
     0
 10
111.494
 20
88.3874
 30
0.0
 11
111.494
 21
82.587
 31
0.0
  0
LINE
  8
0
 62
     0
 10
111.494
 20
82.587
 30
0.0
 11
112.294
 21
82.587
 31
0.0
  0
LINE
  8
0
 62
     0
 10
112.294
 20
82.587
 30
0.0
 11
112.294
 21
79.4879
 31
0.0
  0
LINE
  8
0
 62
     0
 10
112.294
 20
79.4879
 30
0.0
 11
111.494
 21
79.4879
 31
0.0
  0
LINE
  8
0
 62
     0
 10
116.255
 20
22.338
 30
0.0
 11
116.255
 21
21.3376
 31
0.0
  0
LINE
  8
0
 62
     0
 10
116.255
 20
21.3376
 30
0.0
 11
102.256
 21
21.3376
 31
0.0
  0
LINE
  8
0
 62
     0
 10
102.256
 20
21.3376
 30
0.0
 11
102.256
 21
22.338
 31
0.0
  0
LINE
  8
0
 62
     0
 10
102.256
 20
22.338
 30
0.0
 11
101.455
 21
22.338
 31
0.0
  0
LINE
  8
0
 62
     0
 10
101.455
 20
22.338
 30
0.0
 11
101.455
 21
25.4372
 31
0.0
  0
LINE
  8
0
 62
     0
 10
101.455
 20
25.4372
 30
0.0
 11
102.256
 21
25.4372
 31
0.0
  0
LINE
  8
0
 62
     0
 10
102.256
 20
25.4372
 30
0.0
 11
102.256
 21
31.2374
 31
0.0
  0
LINE
  8
0
 62
     0
 10
102.256
 20
31.2374
 30
0.0
 11
101.455
 21
31.2374
 31
0.0
  0
LINE
  8
0
 62
     0
 10
101.455
 20
31.2374
 30
0.0
 11
101.455
 21
34.3379
 31
0.0
  0
LINE
  8
0
 62
     0
 10
101.455
 20
34.3379
 30
0.0
 11
102.256
 21
34.3379
 31
0.0
  0
LINE
  8
0
 62
     0
 10
102.256
 20
34.3379
 30
0.0
 11
102.256
 21
35.337
 31
0.0
  0
LINE
  8
0
 62
     0
 10
102.256
 20
35.337
 30
0.0
 11
116.255
 21
35.337
 31
0.0
  0
LINE
  8
0
 62
     0
 10
116.255
 20
35.337
 30
0.0
 11
116.255
 21
34.3379
 31
0.0
  0
LINE
  8
0
 62
     0
 10
116.255
 20
34.3379
 30
0.0
 11
117.056
 21
34.3379
 31
0.0
  0
LINE
  8
0
 62
     0
 10
117.056
 20
34.3379
 30
0.0
 11
117.056
 21
31.2374
 31
0.0
  0
LINE
  8
0
 62
     0
 10
117.056
 20
31.2374
 30
0.0
 11
116.255
 21
31.2374
 31
0.0
  0
LINE
  8
0
 62
     0
 10
116.255
 20
31.2374
 30
0.0
 11
116.255
 21
25.4372
 31
0.0
  0
LINE
  8
0
 62
     0
 10
116.255
 20
25.4372
 30
0.0
 11
117.056
 21
25.4372
 31
0.0
  0
LINE
  8
0
 62
     0
 10
117.056
 20
25.4372
 30
0.0
 11
117.056
 21
22.338
 31
0.0
  0
LINE
  8
0
 62
     0
 10
117.056
 20
22.338
 30
0.0
 11
116.255
 21
22.338
 31
0.0
  0
LINE
  8
0
 62
     0
 10
121.019
 20
60.4379
 30
0.0
 11
121.019
 21
59.4374
 31
0.0
  0
LINE
  8
0
 62
     0
 10
121.019
 20
59.4374
 30
0.0
 11
107.018
 21
59.4374
 31
0.0
  0
LINE
  8
0
 62
     0
 10
107.018
 20
59.4374
 30
0.0
 11
107.018
 21
60.4379
 31
0.0
  0
LINE
  8
0
 62
     0
 10
107.018
 20
60.4379
 30
0.0
 11
106.219
 21
60.4379
 31
0.0
  0
LINE
  8
0
 62
     0
 10
106.219
 20
60.4379
 30
0.0
 11
106.219
 21
63.537
 31
0.0
  0
LINE
  8
0
 62
     0
 10
106.219
 20
63.537
 30
0.0
 11
107.018
 21
63.537
 31
0.0
  0
LINE
  8
0
 62
     0
 10
107.018
 20
63.537
 30
0.0
 11
107.018
 21
69.3374
 31
0.0
  0
LINE
  8
0
 62
     0
 10
107.018
 20
69.3374
 30
0.0
 11
106.219
 21
69.3374
 31
0.0
  0
LINE
  8
0
 62
     0
 10
106.219
 20
69.3374
 30
0.0
 11
106.219
 21
72.438
 31
0.0
  0
LINE
  8
0
 62
     0
 10
106.219
 20
72.438
 30
0.0
 11
107.018
 21
72.438
 31
0.0
  0
LINE
  8
0
 62
     0
 10
107.018
 20
72.438
 30
0.0
 11
107.018
 21
73.437
 31
0.0
  0
LINE
  8
0
 62
     0
 10
107.018
 20
73.437
 30
0.0
 11
121.019
 21
73.437
 31
0.0
  0
LINE
  8
0
 62
     0
 10
121.019
 20
73.437
 30
0.0
 11
121.019
 21
72.438
 31
0.0
  0
LINE
  8
0
 62
     0
 10
121.019
 20
72.438
 30
0.0
 11
121.819
 21
72.438
 31
0.0
  0
LINE
  8
0
 62
     0
 10
121.819
 20
72.438
 30
0.0
 11
121.819
 21
69.3374
 31
0.0
  0
LINE
  8
0
 62
     0
 10
121.819
 20
69.3374
 30
0.0
 11
121.019
 21
69.3374
 31
0.0
  0
LINE
  8
0
 62
     0
 10
121.019
 20
69.3374
 30
0.0
 11
121.019
 21
63.537
 31
0.0
  0
LINE
  8
0
 62
     0
 10
121.019
 20
63.537
 30
0.0
 11
121.819
 21
63.537
 31
0.0
  0
LINE
  8
0
 62
     0
 10
121.819
 20
63.537
 30
0.0
 11
121.819
 21
60.4379
 31
0.0
  0
LINE
  8
0
 62
     0
 10
121.819
 20
60.4379
 30
0.0
 11
121.019
 21
60.4379
 31
0.0
  0
LINE
  8
0
 62
     0
 10
125.782
 20
41.3879
 30
0.0
 11
125.782
 21
40.3874
 31
0.0
  0
LINE
  8
0
 62
     0
 10
125.782
 20
40.3874
 30
0.0
 11
111.781
 21
40.3874
 31
0.0
  0
LINE
  8
0
 62
     0
 10
111.781
 20
40.3874
 30
0.0
 11
111.781
 21
41.3879
 31
0.0
  0
LINE
  8
0
 62
     0
 10
111.781
 20
41.3879
 30
0.0
 11
110.98
 21
41.3879
 31
0.0
  0
LINE
  8
0
 62
     0
 10
110.98
 20
41.3879
 30
0.0
 11
110.98
 21
44.487
 31
0.0
  0
LINE
  8
0
 62
     0
 10
110.98
 20
44.487
 30
0.0
 11
111.781
 21
44.487
 31
0.0
  0
LINE
  8
0
 62
     0
 10
111.781
 20
44.487
 30
0.0
 11
111.781
 21
50.2874
 31
0.0
  0
LINE
  8
0
 62
     0
 10
111.781
 20
50.2874
 30
0.0
 11
110.98
 21
50.2874
 31
0.0
  0
LINE
  8
0
 62
     0
 10
110.98
 20
50.2874
 30
0.0
 11
110.98
 21
53.388
 31
0.0
  0
LINE
  8
0
 62
     0
 10
110.98
 20
53.388
 30
0.0
 11
111.781
 21
53.388
 31
0.0
  0
LINE
  8
0
 62
     0
 10
111.781
 20
53.388
 30
0.0
 11
111.781
 21
54.387
 31
0.0
  0
LINE
  8
0
 62
     0
 10
111.781
 20
54.387
 30
0.0
 11
125.782
 21
54.387
 31
0.0
  0
LINE
  8
0
 62
     0
 10
125.782
 20
54.387
 30
0.0
 11
125.782
 21
53.388
 31
0.0
  0
LINE
  8
0
 62
     0
 10
125.782
 20
53.388
 30
0.0
 11
126.581
 21
53.388
 31
0.0
  0
LINE
  8
0
 62
     0
 10
126.581
 20
53.388
 30
0.0
 11
126.581
 21
50.2874
 31
0.0
  0
LINE
  8
0
 62
     0
 10
126.581
 20
50.2874
 30
0.0
 11
125.782
 21
50.2874
 31
0.0
  0
LINE
  8
0
 62
     0
 10
125.782
 20
50.2874
 30
0.0
 11
125.782
 21
44.487
 31
0.0
  0
LINE
  8
0
 62
     0
 10
125.782
 20
44.487
 30
0.0
 11
126.581
 21
44.487
 31
0.0
  0
LINE
  8
0
 62
     0
 10
126.581
 20
44.487
 30
0.0
 11
126.581
 21
41.3879
 31
0.0
  0
LINE
  8
0
 62
     0
 10
126.581
 20
41.3879
 30
0.0
 11
125.782
 21
41.3879
 31
0.0
  0
LINE
  8
0
 62
     0
 10
130.794
 20
47.3879
 30
0.0
 11
130.671
 21
48.1612
 31
0.0
  0
LINE
  8
0
 62
     0
 10
130.671
 20
48.1612
 30
0.0
 11
130.317
 21
48.8569
 31
0.0
  0
LINE
  8
0
 62
     0
 10
130.317
 20
48.8569
 30
0.0
 11
129.763
 21
49.4111
 31
0.0
  0
LINE
  8
0
 62
     0
 10
129.763
 20
49.4111
 30
0.0
 11
129.067
 21
49.7649
 31
0.0
  0
LINE
  8
0
 62
     0
 10
129.067
 20
49.7649
 30
0.0
 11
128.294
 21
49.8877
 31
0.0
  0
LINE
  8
0
 62
     0
 10
128.294
 20
49.8877
 30
0.0
 11
127.521
 21
49.7649
 31
0.0
  0
LINE
  8
0
 62
     0
 10
127.521
 20
49.7649
 30
0.0
 11
126.825
 21
49.4111
 31
0.0
  0
LINE
  8
0
 62
     0
 10
126.825
 20
49.4111
 30
0.0
 11
126.271
 21
48.8569
 31
0.0
  0
LINE
  8
0
 62
     0
 10
126.271
 20
48.8569
 30
0.0
 11
125.916
 21
48.1612
 31
0.0
  0
LINE
  8
0
 62
     0
 10
125.916
 20
48.1612
 30
0.0
 11
125.794
 21
47.3879
 31
0.0
  0
LINE
  8
0
 62
     0
 10
125.794
 20
47.3879
 30
0.0
 11
125.916
 21
46.615
 31
0.0
  0
LINE
  8
0
 62
     0
 10
125.916
 20
46.615
 30
0.0
 11
126.271
 21
45.919
 31
0.0
  0
LINE
  8
0
 62
     0
 10
126.271
 20
45.919
 30
0.0
 11
126.825
 21
45.3651
 31
0.0
  0
LINE
  8
0
 62
     0
 10
126.825
 20
45.3651
 30
0.0
 11
127.521
 21
45.0095
 31
0.0
  0
LINE
  8
0
 62
     0
 10
127.521
 20
45.0095
 30
0.0
 11
128.294
 21
44.8881
 31
0.0
  0
LINE
  8
0
 62
     0
 10
128.294
 20
44.8881
 30
0.0
 11
129.067
 21
45.0095
 31
0.0
  0
LINE
  8
0
 62
     0
 10
129.067
 20
45.0095
 30
0.0
 11
129.763
 21
45.3651
 31
0.0
  0
LINE
  8
0
 62
     0
 10
129.763
 20
45.3651
 30
0.0
 11
130.317
 21
45.919
 31
0.0
  0
LINE
  8
0
 62
     0
 10
130.317
 20
45.919
 30
0.0
 11
130.671
 21
46.615
 31
0.0
  0
LINE
  8
0
 62
     0
 10
130.671
 20
46.615
 30
0.0
 11
130.794
 21
47.3879
 31
0.0
  0
LINE
  8
0
 62
     0
 10
130.544
 20
79.4879
 30
0.0
 11
130.544
 21
78.4874
 31
0.0
  0
LINE
  8
0
 62
     0
 10
130.544
 20
78.4874
 30
0.0
 11
116.543
 21
78.4874
 31
0.0
  0
LINE
  8
0
 62
     0
 10
116.543
 20
78.4874
 30
0.0
 11
116.543
 21
79.4879
 31
0.0
  0
LINE
  8
0
 62
     0
 10
116.543
 20
79.4879
 30
0.0
 11
115.744
 21
79.4879
 31
0.0
  0
LINE
  8
0
 62
     0
 10
115.744
 20
79.4879
 30
0.0
 11
115.744
 21
82.587
 31
0.0
  0
LINE
  8
0
 62
     0
 10
115.744
 20
82.587
 30
0.0
 11
116.543
 21
82.587
 31
0.0
  0
LINE
  8
0
 62
     0
 10
116.543
 20
82.587
 30
0.0
 11
116.543
 21
88.3874
 31
0.0
  0
LINE
  8
0
 62
     0
 10
116.543
 20
88.3874
 30
0.0
 11
115.744
 21
88.3874
 31
0.0
  0
LINE
  8
0
 62
     0
 10
115.744
 20
88.3874
 30
0.0
 11
115.744
 21
91.488
 31
0.0
  0
LINE
  8
0
 62
     0
 10
115.744
 20
91.488
 30
0.0
 11
116.543
 21
91.488
 31
0.0
  0
LINE
  8
0
 62
     0
 10
116.543
 20
91.488
 30
0.0
 11
116.543
 21
92.487
 31
0.0
  0
LINE
  8
0
 62
     0
 10
116.543
 20
92.487
 30
0.0
 11
130.544
 21
92.487
 31
0.0
  0
LINE
  8
0
 62
     0
 10
130.544
 20
92.487
 30
0.0
 11
130.544
 21
91.488
 31
0.0
  0
LINE
  8
0
 62
     0
 10
130.544
 20
91.488
 30
0.0
 11
131.344
 21
91.488
 31
0.0
  0
LINE
  8
0
 62
     0
 10
131.344
 20
91.488
 30
0.0
 11
131.344
 21
88.3874
 31
0.0
  0
LINE
  8
0
 62
     0
 10
131.344
 20
88.3874
 30
0.0
 11
130.544
 21
88.3874
 31
0.0
  0
LINE
  8
0
 62
     0
 10
130.544
 20
88.3874
 30
0.0
 11
130.544
 21
82.587
 31
0.0
  0
LINE
  8
0
 62
     0
 10
130.544
 20
82.587
 30
0.0
 11
131.344
 21
82.587
 31
0.0
  0
LINE
  8
0
 62
     0
 10
131.344
 20
82.587
 30
0.0
 11
131.344
 21
79.4879
 31
0.0
  0
LINE
  8
0
 62
     0
 10
131.344
 20
79.4879
 30
0.0
 11
130.544
 21
79.4879
 31
0.0
  0
LINE
  8
0
 62
     0
 10
135.307
 20
22.338
 30
0.0
 11
135.307
 21
21.3376
 31
0.0
  0
LINE
  8
0
 62
     0
 10
135.307
 20
21.3376
 30
0.0
 11
121.307
 21
21.3376
 31
0.0
  0
LINE
  8
0
 62
     0
 10
121.307
 20
21.3376
 30
0.0
 11
121.307
 21
22.338
 31
0.0
  0
LINE
  8
0
 62
     0
 10
121.307
 20
22.338
 30
0.0
 11
120.507
 21
22.338
 31
0.0
  0
LINE
  8
0
 62
     0
 10
120.507
 20
22.338
 30
0.0
 11
120.507
 21
25.4372
 31
0.0
  0
LINE
  8
0
 62
     0
 10
120.507
 20
25.4372
 30
0.0
 11
121.307
 21
25.4372
 31
0.0
  0
LINE
  8
0
 62
     0
 10
121.307
 20
25.4372
 30
0.0
 11
121.307
 21
31.2374
 31
0.0
  0
LINE
  8
0
 62
     0
 10
121.307
 20
31.2374
 30
0.0
 11
120.507
 21
31.2374
 31
0.0
  0
LINE
  8
0
 62
     0
 10
120.507
 20
31.2374
 30
0.0
 11
120.507
 21
34.3379
 31
0.0
  0
LINE
  8
0
 62
     0
 10
120.507
 20
34.3379
 30
0.0
 11
121.307
 21
34.3379
 31
0.0
  0
LINE
  8
0
 62
     0
 10
121.307
 20
34.3379
 30
0.0
 11
121.307
 21
35.337
 31
0.0
  0
LINE
  8
0
 62
     0
 10
121.307
 20
35.337
 30
0.0
 11
135.307
 21
35.337
 31
0.0
  0
LINE
  8
0
 62
     0
 10
135.307
 20
35.337
 30
0.0
 11
135.307
 21
34.3379
 31
0.0
  0
LINE
  8
0
 62
     0
 10
135.307
 20
34.3379
 30
0.0
 11
136.106
 21
34.3379
 31
0.0
  0
LINE
  8
0
 62
     0
 10
136.106
 20
34.3379
 30
0.0
 11
136.106
 21
31.2374
 31
0.0
  0
LINE
  8
0
 62
     0
 10
136.106
 20
31.2374
 30
0.0
 11
135.307
 21
31.2374
 31
0.0
  0
LINE
  8
0
 62
     0
 10
135.307
 20
31.2374
 30
0.0
 11
135.307
 21
25.4372
 31
0.0
  0
LINE
  8
0
 62
     0
 10
135.307
 20
25.4372
 30
0.0
 11
136.106
 21
25.4372
 31
0.0
  0
LINE
  8
0
 62
     0
 10
136.106
 20
25.4372
 30
0.0
 11
136.106
 21
22.338
 31
0.0
  0
LINE
  8
0
 62
     0
 10
136.106
 20
22.338
 30
0.0
 11
135.307
 21
22.338
 31
0.0
  0
LINE
  8
0
 62
     0
 10
140.069
 20
60.4379
 30
0.0
 11
140.069
 21
59.4374
 31
0.0
  0
LINE
  8
0
 62
     0
 10
140.069
 20
59.4374
 30
0.0
 11
126.068
 21
59.4374
 31
0.0
  0
LINE
  8
0
 62
     0
 10
126.068
 20
59.4374
 30
0.0
 11
126.068
 21
60.4379
 31
0.0
  0
LINE
  8
0
 62
     0
 10
126.068
 20
60.4379
 30
0.0
 11
125.269
 21
60.4379
 31
0.0
  0
LINE
  8
0
 62
     0
 10
125.269
 20
60.4379
 30
0.0
 11
125.269
 21
63.537
 31
0.0
  0
LINE
  8
0
 62
     0
 10
125.269
 20
63.537
 30
0.0
 11
126.068
 21
63.537
 31
0.0
  0
LINE
  8
0
 62
     0
 10
126.068
 20
63.537
 30
0.0
 11
126.068
 21
69.3374
 31
0.0
  0
LINE
  8
0
 62
     0
 10
126.068
 20
69.3374
 30
0.0
 11
125.269
 21
69.3374
 31
0.0
  0
LINE
  8
0
 62
     0
 10
125.269
 20
69.3374
 30
0.0
 11
125.269
 21
72.438
 31
0.0
  0
LINE
  8
0
 62
     0
 10
125.269
 20
72.438
 30
0.0
 11
126.068
 21
72.438
 31
0.0
  0
LINE
  8
0
 62
     0
 10
126.068
 20
72.438
 30
0.0
 11
126.068
 21
73.437
 31
0.0
  0
LINE
  8
0
 62
     0
 10
126.068
 20
73.437
 30
0.0
 11
140.069
 21
73.437
 31
0.0
  0
LINE
  8
0
 62
     0
 10
140.069
 20
73.437
 30
0.0
 11
140.069
 21
72.438
 31
0.0
  0
LINE
  8
0
 62
     0
 10
140.069
 20
72.438
 30
0.0
 11
140.869
 21
72.438
 31
0.0
  0
LINE
  8
0
 62
     0
 10
140.869
 20
72.438
 30
0.0
 11
140.869
 21
69.3374
 31
0.0
  0
LINE
  8
0
 62
     0
 10
140.869
 20
69.3374
 30
0.0
 11
140.069
 21
69.3374
 31
0.0
  0
LINE
  8
0
 62
     0
 10
140.069
 20
69.3374
 30
0.0
 11
140.069
 21
63.537
 31
0.0
  0
LINE
  8
0
 62
     0
 10
140.069
 20
63.537
 30
0.0
 11
140.869
 21
63.537
 31
0.0
  0
LINE
  8
0
 62
     0
 10
140.869
 20
63.537
 30
0.0
 11
140.869
 21
60.4379
 31
0.0
  0
LINE
  8
0
 62
     0
 10
140.869
 20
60.4379
 30
0.0
 11
140.069
 21
60.4379
 31
0.0
  0
LINE
  8
0
 62
     0
 10
144.83
 20
41.3879
 30
0.0
 11
144.83
 21
40.3874
 31
0.0
  0
LINE
  8
0
 62
     0
 10
144.83
 20
40.3874
 30
0.0
 11
130.831
 21
40.3874
 31
0.0
  0
LINE
  8
0
 62
     0
 10
130.831
 20
40.3874
 30
0.0
 11
130.831
 21
41.3879
 31
0.0
  0
LINE
  8
0
 62
     0
 10
130.831
 20
41.3879
 30
0.0
 11
130.03
 21
41.3879
 31
0.0
  0
LINE
  8
0
 62
     0
 10
130.03
 20
41.3879
 30
0.0
 11
130.03
 21
44.487
 31
0.0
  0
LINE
  8
0
 62
     0
 10
130.03
 20
44.487
 30
0.0
 11
130.831
 21
44.487
 31
0.0
  0
LINE
  8
0
 62
     0
 10
130.831
 20
44.487
 30
0.0
 11
130.831
 21
50.2874
 31
0.0
  0
LINE
  8
0
 62
     0
 10
130.831
 20
50.2874
 30
0.0
 11
130.03
 21
50.2874
 31
0.0
  0
LINE
  8
0
 62
     0
 10
130.03
 20
50.2874
 30
0.0
 11
130.03
 21
53.388
 31
0.0
  0
LINE
  8
0
 62
     0
 10
130.03
 20
53.388
 30
0.0
 11
130.831
 21
53.388
 31
0.0
  0
LINE
  8
0
 62
     0
 10
130.831
 20
53.388
 30
0.0
 11
130.831
 21
54.387
 31
0.0
  0
LINE
  8
0
 62
     0
 10
130.831
 20
54.387
 30
0.0
 11
144.83
 21
54.387
 31
0.0
  0
LINE
  8
0
 62
     0
 10
144.83
 20
54.387
 30
0.0
 11
144.83
 21
53.388
 31
0.0
  0
LINE
  8
0
 62
     0
 10
144.83
 20
53.388
 30
0.0
 11
145.631
 21
53.388
 31
0.0
  0
LINE
  8
0
 62
     0
 10
145.631
 20
53.388
 30
0.0
 11
145.631
 21
50.2874
 31
0.0
  0
LINE
  8
0
 62
     0
 10
145.631
 20
50.2874
 30
0.0
 11
144.83
 21
50.2874
 31
0.0
  0
LINE
  8
0
 62
     0
 10
144.83
 20
50.2874
 30
0.0
 11
144.83
 21
44.487
 31
0.0
  0
LINE
  8
0
 62
     0
 10
144.83
 20
44.487
 30
0.0
 11
145.631
 21
44.487
 31
0.0
  0
LINE
  8
0
 62
     0
 10
145.631
 20
44.487
 30
0.0
 11
145.631
 21
41.3879
 31
0.0
  0
LINE
  8
0
 62
     0
 10
145.631
 20
41.3879
 30
0.0
 11
144.83
 21
41.3879
 31
0.0
  0
LINE
  8
0
 62
     0
 10
149.594
 20
79.4879
 30
0.0
 11
149.594
 21
78.4874
 31
0.0
  0
LINE
  8
0
 62
     0
 10
149.594
 20
78.4874
 30
0.0
 11
135.593
 21
78.4874
 31
0.0
  0
LINE
  8
0
 62
     0
 10
135.593
 20
78.4874
 30
0.0
 11
135.593
 21
79.4879
 31
0.0
  0
LINE
  8
0
 62
     0
 10
135.593
 20
79.4879
 30
0.0
 11
134.794
 21
79.4879
 31
0.0
  0
LINE
  8
0
 62
     0
 10
134.794
 20
79.4879
 30
0.0
 11
134.794
 21
82.587
 31
0.0
  0
LINE
  8
0
 62
     0
 10
134.794
 20
82.587
 30
0.0
 11
135.593
 21
82.587
 31
0.0
  0
LINE
  8
0
 62
     0
 10
135.593
 20
82.587
 30
0.0
 11
135.593
 21
88.3874
 31
0.0
  0
LINE
  8
0
 62
     0
 10
135.593
 20
88.3874
 30
0.0
 11
134.794
 21
88.3874
 31
0.0
  0
LINE
  8
0
 62
     0
 10
134.794
 20
88.3874
 30
0.0
 11
134.794
 21
91.488
 31
0.0
  0
LINE
  8
0
 62
     0
 10
134.794
 20
91.488
 30
0.0
 11
135.593
 21
91.488
 31
0.0
  0
LINE
  8
0
 62
     0
 10
135.593
 20
91.488
 30
0.0
 11
135.593
 21
92.487
 31
0.0
  0
LINE
  8
0
 62
     0
 10
135.593
 20
92.487
 30
0.0
 11
149.594
 21
92.487
 31
0.0
  0
LINE
  8
0
 62
     0
 10
149.594
 20
92.487
 30
0.0
 11
149.594
 21
91.488
 31
0.0
  0
LINE
  8
0
 62
     0
 10
149.594
 20
91.488
 30
0.0
 11
150.394
 21
91.488
 31
0.0
  0
LINE
  8
0
 62
     0
 10
150.394
 20
91.488
 30
0.0
 11
150.394
 21
88.3874
 31
0.0
  0
LINE
  8
0
 62
     0
 10
150.394
 20
88.3874
 30
0.0
 11
149.594
 21
88.3874
 31
0.0
  0
LINE
  8
0
 62
     0
 10
149.594
 20
88.3874
 30
0.0
 11
149.594
 21
82.587
 31
0.0
  0
LINE
  8
0
 62
     0
 10
149.594
 20
82.587
 30
0.0
 11
150.394
 21
82.587
 31
0.0
  0
LINE
  8
0
 62
     0
 10
150.394
 20
82.587
 30
0.0
 11
150.394
 21
79.4879
 31
0.0
  0
LINE
  8
0
 62
     0
 10
150.394
 20
79.4879
 30
0.0
 11
149.594
 21
79.4879
 31
0.0
  0
LINE
  8
0
 62
     0
 10
154.357
 20
22.338
 30
0.0
 11
154.357
 21
21.3376
 31
0.0
  0
LINE
  8
0
 62
     0
 10
154.357
 20
21.3376
 30
0.0
 11
140.357
 21
21.3376
 31
0.0
  0
LINE
  8
0
 62
     0
 10
140.357
 20
21.3376
 30
0.0
 11
140.357
 21
22.338
 31
0.0
  0
LINE
  8
0
 62
     0
 10
140.357
 20
22.338
 30
0.0
 11
139.557
 21
22.338
 31
0.0
  0
LINE
  8
0
 62
     0
 10
139.557
 20
22.338
 30
0.0
 11
139.557
 21
25.4372
 31
0.0
  0
LINE
  8
0
 62
     0
 10
139.557
 20
25.4372
 30
0.0
 11
140.357
 21
25.4372
 31
0.0
  0
LINE
  8
0
 62
     0
 10
140.357
 20
25.4372
 30
0.0
 11
140.357
 21
31.2374
 31
0.0
  0
LINE
  8
0
 62
     0
 10
140.357
 20
31.2374
 30
0.0
 11
139.557
 21
31.2374
 31
0.0
  0
LINE
  8
0
 62
     0
 10
139.557
 20
31.2374
 30
0.0
 11
139.557
 21
34.3379
 31
0.0
  0
LINE
  8
0
 62
     0
 10
139.557
 20
34.3379
 30
0.0
 11
140.357
 21
34.3379
 31
0.0
  0
LINE
  8
0
 62
     0
 10
140.357
 20
34.3379
 30
0.0
 11
140.357
 21
35.337
 31
0.0
  0
LINE
  8
0
 62
     0
 10
140.357
 20
35.337
 30
0.0
 11
154.357
 21
35.337
 31
0.0
  0
LINE
  8
0
 62
     0
 10
154.357
 20
35.337
 30
0.0
 11
154.357
 21
34.3379
 31
0.0
  0
LINE
  8
0
 62
     0
 10
154.357
 20
34.3379
 30
0.0
 11
155.156
 21
34.3379
 31
0.0
  0
LINE
  8
0
 62
     0
 10
155.156
 20
34.3379
 30
0.0
 11
155.156
 21
31.2374
 31
0.0
  0
LINE
  8
0
 62
     0
 10
155.156
 20
31.2374
 30
0.0
 11
154.357
 21
31.2374
 31
0.0
  0
LINE
  8
0
 62
     0
 10
154.357
 20
31.2374
 30
0.0
 11
154.357
 21
25.4372
 31
0.0
  0
LINE
  8
0
 62
     0
 10
154.357
 20
25.4372
 30
0.0
 11
155.156
 21
25.4372
 31
0.0
  0
LINE
  8
0
 62
     0
 10
155.156
 20
25.4372
 30
0.0
 11
155.156
 21
22.338
 31
0.0
  0
LINE
  8
0
 62
     0
 10
155.156
 20
22.338
 30
0.0
 11
154.357
 21
22.338
 31
0.0
  0
LINE
  8
0
 62
     0
 10
159.119
 20
60.4379
 30
0.0
 11
159.119
 21
59.4374
 31
0.0
  0
LINE
  8
0
 62
     0
 10
159.119
 20
59.4374
 30
0.0
 11
145.118
 21
59.4374
 31
0.0
  0
LINE
  8
0
 62
     0
 10
145.118
 20
59.4374
 30
0.0
 11
145.118
 21
60.4379
 31
0.0
  0
LINE
  8
0
 62
     0
 10
145.118
 20
60.4379
 30
0.0
 11
144.319
 21
60.4379
 31
0.0
  0
LINE
  8
0
 62
     0
 10
144.319
 20
60.4379
 30
0.0
 11
144.319
 21
63.537
 31
0.0
  0
LINE
  8
0
 62
     0
 10
144.319
 20
63.537
 30
0.0
 11
145.118
 21
63.537
 31
0.0
  0
LINE
  8
0
 62
     0
 10
145.118
 20
63.537
 30
0.0
 11
145.118
 21
69.3374
 31
0.0
  0
LINE
  8
0
 62
     0
 10
145.118
 20
69.3374
 30
0.0
 11
144.319
 21
69.3374
 31
0.0
  0
LINE
  8
0
 62
     0
 10
144.319
 20
69.3374
 30
0.0
 11
144.319
 21
72.438
 31
0.0
  0
LINE
  8
0
 62
     0
 10
144.319
 20
72.438
 30
0.0
 11
145.118
 21
72.438
 31
0.0
  0
LINE
  8
0
 62
     0
 10
145.118
 20
72.438
 30
0.0
 11
145.118
 21
73.437
 31
0.0
  0
LINE
  8
0
 62
     0
 10
145.118
 20
73.437
 30
0.0
 11
159.119
 21
73.437
 31
0.0
  0
LINE
  8
0
 62
     0
 10
159.119
 20
73.437
 30
0.0
 11
159.119
 21
72.438
 31
0.0
  0
LINE
  8
0
 62
     0
 10
159.119
 20
72.438
 30
0.0
 11
159.919
 21
72.438
 31
0.0
  0
LINE
  8
0
 62
     0
 10
159.919
 20
72.438
 30
0.0
 11
159.919
 21
69.3374
 31
0.0
  0
LINE
  8
0
 62
     0
 10
159.919
 20
69.3374
 30
0.0
 11
159.119
 21
69.3374
 31
0.0
  0
LINE
  8
0
 62
     0
 10
159.119
 20
69.3374
 30
0.0
 11
159.119
 21
63.537
 31
0.0
  0
LINE
  8
0
 62
     0
 10
159.119
 20
63.537
 30
0.0
 11
159.919
 21
63.537
 31
0.0
  0
LINE
  8
0
 62
     0
 10
159.919
 20
63.537
 30
0.0
 11
159.919
 21
60.4379
 31
0.0
  0
LINE
  8
0
 62
     0
 10
159.919
 20
60.4379
 30
0.0
 11
159.119
 21
60.4379
 31
0.0
  0
LINE
  8
0
 62
     0
 10
163.88
 20
41.3879
 30
0.0
 11
163.88
 21
40.3874
 31
0.0
  0
LINE
  8
0
 62
     0
 10
163.88
 20
40.3874
 30
0.0
 11
149.881
 21
40.3874
 31
0.0
  0
LINE
  8
0
 62
     0
 10
149.881
 20
40.3874
 30
0.0
 11
149.881
 21
41.3879
 31
0.0
  0
LINE
  8
0
 62
     0
 10
149.881
 20
41.3879
 30
0.0
 11
149.08
 21
41.3879
 31
0.0
  0
LINE
  8
0
 62
     0
 10
149.08
 20
41.3879
 30
0.0
 11
149.08
 21
44.487
 31
0.0
  0
LINE
  8
0
 62
     0
 10
149.08
 20
44.487
 30
0.0
 11
149.881
 21
44.487
 31
0.0
  0
LINE
  8
0
 62
     0
 10
149.881
 20
44.487
 30
0.0
 11
149.881
 21
50.2874
 31
0.0
  0
LINE
  8
0
 62
     0
 10
149.881
 20
50.2874
 30
0.0
 11
149.08
 21
50.2874
 31
0.0
  0
LINE
  8
0
 62
     0
 10
149.08
 20
50.2874
 30
0.0
 11
149.08
 21
53.388
 31
0.0
  0
LINE
  8
0
 62
     0
 10
149.08
 20
53.388
 30
0.0
 11
149.881
 21
53.388
 31
0.0
  0
LINE
  8
0
 62
     0
 10
149.881
 20
53.388
 30
0.0
 11
149.881
 21
54.387
 31
0.0
  0
LINE
  8
0
 62
     0
 10
149.881
 20
54.387
 30
0.0
 11
163.88
 21
54.387
 31
0.0
  0
LINE
  8
0
 62
     0
 10
163.88
 20
54.387
 30
0.0
 11
163.88
 21
53.388
 31
0.0
  0
LINE
  8
0
 62
     0
 10
163.88
 20
53.388
 30
0.0
 11
164.681
 21
53.388
 31
0.0
  0
LINE
  8
0
 62
     0
 10
164.681
 20
53.388
 30
0.0
 11
164.681
 21
50.2874
 31
0.0
  0
LINE
  8
0
 62
     0
 10
164.681
 20
50.2874
 30
0.0
 11
163.88
 21
50.2874
 31
0.0
  0
LINE
  8
0
 62
     0
 10
163.88
 20
50.2874
 30
0.0
 11
163.88
 21
44.487
 31
0.0
  0
LINE
  8
0
 62
     0
 10
163.88
 20
44.487
 30
0.0
 11
164.681
 21
44.487
 31
0.0
  0
LINE
  8
0
 62
     0
 10
164.681
 20
44.487
 30
0.0
 11
164.681
 21
41.3879
 31
0.0
  0
LINE
  8
0
 62
     0
 10
164.681
 20
41.3879
 30
0.0
 11
163.88
 21
41.3879
 31
0.0
  0
LINE
  8
0
 62
     0
 10
168.644
 20
79.4879
 30
0.0
 11
168.644
 21
78.4874
 31
0.0
  0
LINE
  8
0
 62
     0
 10
168.644
 20
78.4874
 30
0.0
 11
154.643
 21
78.4874
 31
0.0
  0
LINE
  8
0
 62
     0
 10
154.643
 20
78.4874
 30
0.0
 11
154.643
 21
79.4879
 31
0.0
  0
LINE
  8
0
 62
     0
 10
154.643
 20
79.4879
 30
0.0
 11
153.844
 21
79.4879
 31
0.0
  0
LINE
  8
0
 62
     0
 10
153.844
 20
79.4879
 30
0.0
 11
153.844
 21
82.587
 31
0.0
  0
LINE
  8
0
 62
     0
 10
153.844
 20
82.587
 30
0.0
 11
154.643
 21
82.587
 31
0.0
  0
LINE
  8
0
 62
     0
 10
154.643
 20
82.587
 30
0.0
 11
154.643
 21
88.3874
 31
0.0
  0
LINE
  8
0
 62
     0
 10
154.643
 20
88.3874
 30
0.0
 11
153.844
 21
88.3874
 31
0.0
  0
LINE
  8
0
 62
     0
 10
153.844
 20
88.3874
 30
0.0
 11
153.844
 21
91.488
 31
0.0
  0
LINE
  8
0
 62
     0
 10
153.844
 20
91.488
 30
0.0
 11
154.643
 21
91.488
 31
0.0
  0
LINE
  8
0
 62
     0
 10
154.643
 20
91.488
 30
0.0
 11
154.643
 21
92.487
 31
0.0
  0
LINE
  8
0
 62
     0
 10
154.643
 20
92.487
 30
0.0
 11
168.644
 21
92.487
 31
0.0
  0
LINE
  8
0
 62
     0
 10
168.644
 20
92.487
 30
0.0
 11
168.644
 21
91.488
 31
0.0
  0
LINE
  8
0
 62
     0
 10
168.644
 20
91.488
 30
0.0
 11
169.444
 21
91.488
 31
0.0
  0
LINE
  8
0
 62
     0
 10
169.444
 20
91.488
 30
0.0
 11
169.444
 21
88.3874
 31
0.0
  0
LINE
  8
0
 62
     0
 10
169.444
 20
88.3874
 30
0.0
 11
168.644
 21
88.3874
 31
0.0
  0
LINE
  8
0
 62
     0
 10
168.644
 20
88.3874
 30
0.0
 11
168.644
 21
82.587
 31
0.0
  0
LINE
  8
0
 62
     0
 10
168.644
 20
82.587
 30
0.0
 11
169.444
 21
82.587
 31
0.0
  0
LINE
  8
0
 62
     0
 10
169.444
 20
82.587
 30
0.0
 11
169.444
 21
79.4879
 31
0.0
  0
LINE
  8
0
 62
     0
 10
169.444
 20
79.4879
 30
0.0
 11
168.644
 21
79.4879
 31
0.0
  0
LINE
  8
0
 62
     0
 10
173.407
 20
22.338
 30
0.0
 11
173.407
 21
21.3376
 31
0.0
  0
LINE
  8
0
 62
     0
 10
173.407
 20
21.3376
 30
0.0
 11
159.407
 21
21.3376
 31
0.0
  0
LINE
  8
0
 62
     0
 10
159.407
 20
21.3376
 30
0.0
 11
159.407
 21
22.338
 31
0.0
  0
LINE
  8
0
 62
     0
 10
159.407
 20
22.338
 30
0.0
 11
158.607
 21
22.338
 31
0.0
  0
LINE
  8
0
 62
     0
 10
158.607
 20
22.338
 30
0.0
 11
158.607
 21
25.4372
 31
0.0
  0
LINE
  8
0
 62
     0
 10
158.607
 20
25.4372
 30
0.0
 11
159.407
 21
25.4372
 31
0.0
  0
LINE
  8
0
 62
     0
 10
159.407
 20
25.4372
 30
0.0
 11
159.407
 21
31.2374
 31
0.0
  0
LINE
  8
0
 62
     0
 10
159.407
 20
31.2374
 30
0.0
 11
158.607
 21
31.2374
 31
0.0
  0
LINE
  8
0
 62
     0
 10
158.607
 20
31.2374
 30
0.0
 11
158.607
 21
34.3379
 31
0.0
  0
LINE
  8
0
 62
     0
 10
158.607
 20
34.3379
 30
0.0
 11
159.407
 21
34.3379
 31
0.0
  0
LINE
  8
0
 62
     0
 10
159.407
 20
34.3379
 30
0.0
 11
159.407
 21
35.337
 31
0.0
  0
LINE
  8
0
 62
     0
 10
159.407
 20
35.337
 30
0.0
 11
173.407
 21
35.337
 31
0.0
  0
LINE
  8
0
 62
     0
 10
173.407
 20
35.337
 30
0.0
 11
173.407
 21
34.3379
 31
0.0
  0
LINE
  8
0
 62
     0
 10
173.407
 20
34.3379
 30
0.0
 11
174.206
 21
34.3379
 31
0.0
  0
LINE
  8
0
 62
     0
 10
174.206
 20
34.3379
 30
0.0
 11
174.206
 21
31.2374
 31
0.0
  0
LINE
  8
0
 62
     0
 10
174.206
 20
31.2374
 30
0.0
 11
173.407
 21
31.2374
 31
0.0
  0
LINE
  8
0
 62
     0
 10
173.407
 20
31.2374
 30
0.0
 11
173.407
 21
25.4372
 31
0.0
  0
LINE
  8
0
 62
     0
 10
173.407
 20
25.4372
 30
0.0
 11
174.206
 21
25.4372
 31
0.0
  0
LINE
  8
0
 62
     0
 10
174.206
 20
25.4372
 30
0.0
 11
174.206
 21
22.338
 31
0.0
  0
LINE
  8
0
 62
     0
 10
174.206
 20
22.338
 30
0.0
 11
173.407
 21
22.338
 31
0.0
  0
LINE
  8
0
 62
     0
 10
178.169
 20
60.4379
 30
0.0
 11
178.169
 21
59.4374
 31
0.0
  0
LINE
  8
0
 62
     0
 10
178.169
 20
59.4374
 30
0.0
 11
164.168
 21
59.4374
 31
0.0
  0
LINE
  8
0
 62
     0
 10
164.168
 20
59.4374
 30
0.0
 11
164.168
 21
60.4379
 31
0.0
  0
LINE
  8
0
 62
     0
 10
164.168
 20
60.4379
 30
0.0
 11
163.369
 21
60.4379
 31
0.0
  0
LINE
  8
0
 62
     0
 10
163.369
 20
60.4379
 30
0.0
 11
163.369
 21
63.537
 31
0.0
  0
LINE
  8
0
 62
     0
 10
163.369
 20
63.537
 30
0.0
 11
164.168
 21
63.537
 31
0.0
  0
LINE
  8
0
 62
     0
 10
164.168
 20
63.537
 30
0.0
 11
164.168
 21
69.3374
 31
0.0
  0
LINE
  8
0
 62
     0
 10
164.168
 20
69.3374
 30
0.0
 11
163.369
 21
69.3374
 31
0.0
  0
LINE
  8
0
 62
     0
 10
163.369
 20
69.3374
 30
0.0
 11
163.369
 21
72.438
 31
0.0
  0
LINE
  8
0
 62
     0
 10
163.369
 20
72.438
 30
0.0
 11
164.168
 21
72.438
 31
0.0
  0
LINE
  8
0
 62
     0
 10
164.168
 20
72.438
 30
0.0
 11
164.168
 21
73.437
 31
0.0
  0
LINE
  8
0
 62
     0
 10
164.168
 20
73.437
 30
0.0
 11
178.169
 21
73.437
 31
0.0
  0
LINE
  8
0
 62
     0
 10
178.169
 20
73.437
 30
0.0
 11
178.169
 21
72.438
 31
0.0
  0
LINE
  8
0
 62
     0
 10
178.169
 20
72.438
 30
0.0
 11
178.969
 21
72.438
 31
0.0
  0
LINE
  8
0
 62
     0
 10
178.969
 20
72.438
 30
0.0
 11
178.969
 21
69.3374
 31
0.0
  0
LINE
  8
0
 62
     0
 10
178.969
 20
69.3374
 30
0.0
 11
178.169
 21
69.3374
 31
0.0
  0
LINE
  8
0
 62
     0
 10
178.169
 20
69.3374
 30
0.0
 11
178.169
 21
63.537
 31
0.0
  0
LINE
  8
0
 62
     0
 10
178.169
 20
63.537
 30
0.0
 11
178.969
 21
63.537
 31
0.0
  0
LINE
  8
0
 62
     0
 10
178.969
 20
63.537
 30
0.0
 11
178.969
 21
60.4379
 31
0.0
  0
LINE
  8
0
 62
     0
 10
178.969
 20
60.4379
 30
0.0
 11
178.169
 21
60.4379
 31
0.0
  0
LINE
  8
0
 62
     0
 10
182.932
 20
41.3879
 30
0.0
 11
182.932
 21
40.3874
 31
0.0
  0
LINE
  8
0
 62
     0
 10
182.932
 20
40.3874
 30
0.0
 11
168.932
 21
40.3874
 31
0.0
  0
LINE
  8
0
 62
     0
 10
168.932
 20
40.3874
 30
0.0
 11
168.932
 21
41.3879
 31
0.0
  0
LINE
  8
0
 62
     0
 10
168.932
 20
41.3879
 30
0.0
 11
168.13
 21
41.3879
 31
0.0
  0
LINE
  8
0
 62
     0
 10
168.13
 20
41.3879
 30
0.0
 11
168.13
 21
44.487
 31
0.0
  0
LINE
  8
0
 62
     0
 10
168.13
 20
44.487
 30
0.0
 11
168.932
 21
44.487
 31
0.0
  0
LINE
  8
0
 62
     0
 10
168.932
 20
44.487
 30
0.0
 11
168.932
 21
50.2874
 31
0.0
  0
LINE
  8
0
 62
     0
 10
168.932
 20
50.2874
 30
0.0
 11
168.13
 21
50.2874
 31
0.0
  0
LINE
  8
0
 62
     0
 10
168.13
 20
50.2874
 30
0.0
 11
168.13
 21
53.388
 31
0.0
  0
LINE
  8
0
 62
     0
 10
168.13
 20
53.388
 30
0.0
 11
168.932
 21
53.388
 31
0.0
  0
LINE
  8
0
 62
     0
 10
168.932
 20
53.388
 30
0.0
 11
168.932
 21
54.387
 31
0.0
  0
LINE
  8
0
 62
     0
 10
168.932
 20
54.387
 30
0.0
 11
182.932
 21
54.387
 31
0.0
  0
LINE
  8
0
 62
     0
 10
182.932
 20
54.387
 30
0.0
 11
182.932
 21
53.388
 31
0.0
  0
LINE
  8
0
 62
     0
 10
182.932
 20
53.388
 30
0.0
 11
183.731
 21
53.388
 31
0.0
  0
LINE
  8
0
 62
     0
 10
183.731
 20
53.388
 30
0.0
 11
183.731
 21
50.2874
 31
0.0
  0
LINE
  8
0
 62
     0
 10
183.731
 20
50.2874
 30
0.0
 11
182.932
 21
50.2874
 31
0.0
  0
LINE
  8
0
 62
     0
 10
182.932
 20
50.2874
 30
0.0
 11
182.932
 21
44.487
 31
0.0
  0
LINE
  8
0
 62
     0
 10
182.932
 20
44.487
 30
0.0
 11
183.731
 21
44.487
 31
0.0
  0
LINE
  8
0
 62
     0
 10
183.731
 20
44.487
 30
0.0
 11
183.731
 21
41.3879
 31
0.0
  0
LINE
  8
0
 62
     0
 10
183.731
 20
41.3879
 30
0.0
 11
182.932
 21
41.3879
 31
0.0
  0
LINE
  8
0
 62
     0
 10
184.012
 20
8.78777
 30
0.0
 11
184.012
 21
2.51768
 31
0.0
  0
LINE
  8
0
 62
     0
 10
184.012
 20
2.51768
 30
0.0
 11
182.338
 21
2.51768
 31
0.0
  0
LINE
  8
0
 62
     0
 10
182.338
 20
2.51768
 30
0.0
 11
182.338
 21
1.53789
 31
0.0
  0
LINE
  8
0
 62
     0
 10
182.338
 20
1.53789
 30
0.0
 11
179.038
 21
1.53789
 31
0.0
  0
LINE
  8
0
 62
     0
 10
179.038
 20
1.53789
 30
0.0
 11
179.038
 21
2.51768
 31
0.0
  0
LINE
  8
0
 62
     0
 10
179.038
 20
2.51768
 30
0.0
 11
177.363
 21
2.51768
 31
0.0
  0
LINE
  8
0
 62
     0
 10
177.363
 20
2.51768
 30
0.0
 11
177.363
 21
6.98803
 31
0.0
  0
LINE
  8
0
 62
     0
 10
177.363
 20
6.98803
 30
0.0
 11
137.688
 21
6.98803
 31
0.0
  0
LINE
  8
0
 62
     0
 10
137.688
 20
6.98803
 30
0.0
 11
137.688
 21
6.38722
 31
0.0
  0
LINE
  8
0
 62
     0
 10
137.688
 20
6.38722
 30
0.0
 11
138.487
 21
6.38722
 31
0.0
  0
LINE
  8
0
 62
     0
 10
138.487
 20
6.38722
 30
0.0
 11
138.487
 21
3.288
 31
0.0
  0
LINE
  8
0
 62
     0
 10
138.487
 20
3.288
 30
0.0
 11
137.688
 21
3.288
 31
0.0
  0
LINE
  8
0
 62
     0
 10
137.688
 20
3.288
 30
0.0
 11
137.688
 21
2.28755
 31
0.0
  0
LINE
  8
0
 62
     0
 10
137.688
 20
2.28755
 30
0.0
 11
123.687
 21
2.28755
 31
0.0
  0
LINE
  8
0
 62
     0
 10
123.687
 20
2.28755
 30
0.0
 11
123.687
 21
3.288
 31
0.0
  0
LINE
  8
0
 62
     0
 10
123.687
 20
3.288
 30
0.0
 11
122.888
 21
3.288
 31
0.0
  0
LINE
  8
0
 62
     0
 10
122.888
 20
3.288
 30
0.0
 11
122.888
 21
6.38722
 31
0.0
  0
LINE
  8
0
 62
     0
 10
122.888
 20
6.38722
 30
0.0
 11
123.687
 21
6.38722
 31
0.0
  0
LINE
  8
0
 62
     0
 10
123.687
 20
6.38722
 30
0.0
 11
123.687
 21
6.98803
 31
0.0
  0
LINE
  8
0
 62
     0
 10
123.687
 20
6.98803
 30
0.0
 11
84.0123
 21
6.98803
 31
0.0
  0
LINE
  8
0
 62
     0
 10
84.0123
 20
6.98803
 30
0.0
 11
84.0123
 21
2.51768
 31
0.0
  0
LINE
  8
0
 62
     0
 10
84.0123
 20
2.51768
 30
0.0
 11
82.3376
 21
2.51768
 31
0.0
  0
LINE
  8
0
 62
     0
 10
82.3376
 20
2.51768
 30
0.0
 11
82.3376
 21
1.53789
 31
0.0
  0
LINE
  8
0
 62
     0
 10
82.3376
 20
1.53789
 30
0.0
 11
79.0374
 21
1.53789
 31
0.0
  0
LINE
  8
0
 62
     0
 10
79.0374
 20
1.53789
 30
0.0
 11
79.0374
 21
2.51768
 31
0.0
  0
LINE
  8
0
 62
     0
 10
79.0374
 20
2.51768
 30
0.0
 11
77.3631
 21
2.51768
 31
0.0
  0
LINE
  8
0
 62
     0
 10
77.3631
 20
2.51768
 30
0.0
 11
77.3631
 21
8.78777
 31
0.0
  0
LINE
  8
0
 62
     0
 10
77.3631
 20
8.78777
 30
0.0
 11
76.4879
 21
8.78777
 31
0.0
  0
LINE
  8
0
 62
     0
 10
76.4879
 20
8.78777
 30
0.0
 11
76.4879
 21
11.5879
 31
0.0
  0
LINE
  8
0
 62
     0
 10
76.4879
 20
11.5879
 30
0.0
 11
77.3631
 21
11.5879
 31
0.0
  0
LINE
  8
0
 62
     0
 10
77.3631
 20
11.5879
 30
0.0
 11
77.3631
 21
14.818
 31
0.0
  0
LINE
  8
0
 62
     0
 10
77.3631
 20
14.818
 30
0.0
 11
79.0374
 21
14.818
 31
0.0
  0
LINE
  8
0
 62
     0
 10
79.0374
 20
14.818
 30
0.0
 11
79.0374
 21
15.7372
 31
0.0
  0
LINE
  8
0
 62
     0
 10
79.0374
 20
15.7372
 30
0.0
 11
82.3376
 21
15.7372
 31
0.0
  0
LINE
  8
0
 62
     0
 10
82.3376
 20
15.7372
 30
0.0
 11
82.3376
 21
14.818
 31
0.0
  0
LINE
  8
0
 62
     0
 10
82.3376
 20
14.818
 30
0.0
 11
84.0123
 21
14.818
 31
0.0
  0
LINE
  8
0
 62
     0
 10
84.0123
 20
14.818
 30
0.0
 11
84.0123
 21
11.5879
 31
0.0
  0
LINE
  8
0
 62
     0
 10
84.0123
 20
11.5879
 30
0.0
 11
123.687
 21
11.5879
 31
0.0
  0
LINE
  8
0
 62
     0
 10
123.687
 20
11.5879
 30
0.0
 11
123.687
 21
12.1874
 31
0.0
  0
LINE
  8
0
 62
     0
 10
123.687
 20
12.1874
 30
0.0
 11
122.888
 21
12.1874
 31
0.0
  0
LINE
  8
0
 62
     0
 10
122.888
 20
12.1874
 30
0.0
 11
122.888
 21
15.2879
 31
0.0
  0
LINE
  8
0
 62
     0
 10
122.888
 20
15.2879
 30
0.0
 11
123.687
 21
15.2879
 31
0.0
  0
LINE
  8
0
 62
     0
 10
123.687
 20
15.2879
 30
0.0
 11
123.687
 21
16.287
 31
0.0
  0
LINE
  8
0
 62
     0
 10
123.687
 20
16.287
 30
0.0
 11
137.688
 21
16.287
 31
0.0
  0
LINE
  8
0
 62
     0
 10
137.688
 20
16.287
 30
0.0
 11
137.688
 21
15.2879
 31
0.0
  0
LINE
  8
0
 62
     0
 10
137.688
 20
15.2879
 30
0.0
 11
138.487
 21
15.2879
 31
0.0
  0
LINE
  8
0
 62
     0
 10
138.487
 20
15.2879
 30
0.0
 11
138.487
 21
12.1874
 31
0.0
  0
LINE
  8
0
 62
     0
 10
138.487
 20
12.1874
 30
0.0
 11
137.688
 21
12.1874
 31
0.0
  0
LINE
  8
0
 62
     0
 10
137.688
 20
12.1874
 30
0.0
 11
137.688
 21
11.5879
 31
0.0
  0
LINE
  8
0
 62
     0
 10
137.688
 20
11.5879
 30
0.0
 11
177.363
 21
11.5879
 31
0.0
  0
LINE
  8
0
 62
     0
 10
177.363
 20
11.5879
 30
0.0
 11
177.363
 21
14.818
 31
0.0
  0
LINE
  8
0
 62
     0
 10
177.363
 20
14.818
 30
0.0
 11
179.038
 21
14.818
 31
0.0
  0
LINE
  8
0
 62
     0
 10
179.038
 20
14.818
 30
0.0
 11
179.038
 21
15.7372
 31
0.0
  0
LINE
  8
0
 62
     0
 10
179.038
 20
15.7372
 30
0.0
 11
182.338
 21
15.7372
 31
0.0
  0
LINE
  8
0
 62
     0
 10
182.338
 20
15.7372
 30
0.0
 11
182.338
 21
14.818
 31
0.0
  0
LINE
  8
0
 62
     0
 10
182.338
 20
14.818
 30
0.0
 11
184.012
 21
14.818
 31
0.0
  0
LINE
  8
0
 62
     0
 10
184.012
 20
14.818
 30
0.0
 11
184.012
 21
11.5879
 31
0.0
  0
LINE
  8
0
 62
     0
 10
184.012
 20
11.5879
 30
0.0
 11
184.887
 21
11.5879
 31
0.0
  0
LINE
  8
0
 62
     0
 10
184.887
 20
11.5879
 30
0.0
 11
184.887
 21
8.78777
 31
0.0
  0
LINE
  8
0
 62
     0
 10
184.887
 20
8.78777
 30
0.0
 11
184.012
 21
8.78777
 31
0.0
  0
LINE
  8
0
 62
     0
 10
187.694
 20
79.4879
 30
0.0
 11
187.694
 21
78.4874
 31
0.0
  0
LINE
  8
0
 62
     0
 10
187.694
 20
78.4874
 30
0.0
 11
173.693
 21
78.4874
 31
0.0
  0
LINE
  8
0
 62
     0
 10
173.693
 20
78.4874
 30
0.0
 11
173.693
 21
79.4879
 31
0.0
  0
LINE
  8
0
 62
     0
 10
173.693
 20
79.4879
 30
0.0
 11
172.894
 21
79.4879
 31
0.0
  0
LINE
  8
0
 62
     0
 10
172.894
 20
79.4879
 30
0.0
 11
172.894
 21
82.587
 31
0.0
  0
LINE
  8
0
 62
     0
 10
172.894
 20
82.587
 30
0.0
 11
173.693
 21
82.587
 31
0.0
  0
LINE
  8
0
 62
     0
 10
173.693
 20
82.587
 30
0.0
 11
173.693
 21
88.3874
 31
0.0
  0
LINE
  8
0
 62
     0
 10
173.693
 20
88.3874
 30
0.0
 11
172.894
 21
88.3874
 31
0.0
  0
LINE
  8
0
 62
     0
 10
172.894
 20
88.3874
 30
0.0
 11
172.894
 21
91.488
 31
0.0
  0
LINE
  8
0
 62
     0
 10
172.894
 20
91.488
 30
0.0
 11
173.693
 21
91.488
 31
0.0
  0
LINE
  8
0
 62
     0
 10
173.693
 20
91.488
 30
0.0
 11
173.693
 21
92.487
 31
0.0
  0
LINE
  8
0
 62
     0
 10
173.693
 20
92.487
 30
0.0
 11
187.694
 21
92.487
 31
0.0
  0
LINE
  8
0
 62
     0
 10
187.694
 20
92.487
 30
0.0
 11
187.694
 21
91.488
 31
0.0
  0
LINE
  8
0
 62
     0
 10
187.694
 20
91.488
 30
0.0
 11
188.494
 21
91.488
 31
0.0
  0
LINE
  8
0
 62
     0
 10
188.494
 20
91.488
 30
0.0
 11
188.494
 21
88.3874
 31
0.0
  0
LINE
  8
0
 62
     0
 10
188.494
 20
88.3874
 30
0.0
 11
187.694
 21
88.3874
 31
0.0
  0
LINE
  8
0
 62
     0
 10
187.694
 20
88.3874
 30
0.0
 11
187.694
 21
82.587
 31
0.0
  0
LINE
  8
0
 62
     0
 10
187.694
 20
82.587
 30
0.0
 11
188.494
 21
82.587
 31
0.0
  0
LINE
  8
0
 62
     0
 10
188.494
 20
82.587
 30
0.0
 11
188.494
 21
79.4879
 31
0.0
  0
LINE
  8
0
 62
     0
 10
188.494
 20
79.4879
 30
0.0
 11
187.694
 21
79.4879
 31
0.0
  0
LINE
  8
0
 62
     0
 10
193.094
 20
9.48778
 30
0.0
 11
192.972
 21
10.2609
 31
0.0
  0
LINE
  8
0
 62
     0
 10
192.972
 20
10.2609
 30
0.0
 11
192.617
 21
10.9568
 31
0.0
  0
LINE
  8
0
 62
     0
 10
192.617
 20
10.9568
 30
0.0
 11
192.063
 21
11.5108
 31
0.0
  0
LINE
  8
0
 62
     0
 10
192.063
 20
11.5108
 30
0.0
 11
191.367
 21
11.8663
 31
0.0
  0
LINE
  8
0
 62
     0
 10
191.367
 20
11.8663
 30
0.0
 11
190.594
 21
11.9876
 31
0.0
  0
LINE
  8
0
 62
     0
 10
190.594
 20
11.9876
 30
0.0
 11
189.821
 21
11.8663
 31
0.0
  0
LINE
  8
0
 62
     0
 10
189.821
 20
11.8663
 30
0.0
 11
189.125
 21
11.5108
 31
0.0
  0
LINE
  8
0
 62
     0
 10
189.125
 20
11.5108
 30
0.0
 11
188.571
 21
10.9568
 31
0.0
  0
LINE
  8
0
 62
     0
 10
188.571
 20
10.9568
 30
0.0
 11
188.215
 21
10.2609
 31
0.0
  0
LINE
  8
0
 62
     0
 10
188.215
 20
10.2609
 30
0.0
 11
188.094
 21
9.48778
 31
0.0
  0
LINE
  8
0
 62
     0
 10
188.094
 20
9.48778
 30
0.0
 11
188.215
 21
8.7147
 31
0.0
  0
LINE
  8
0
 62
     0
 10
188.215
 20
8.7147
 30
0.0
 11
188.571
 21
8.01882
 31
0.0
  0
LINE
  8
0
 62
     0
 10
188.571
 20
8.01882
 30
0.0
 11
189.125
 21
7.46485
 31
0.0
  0
LINE
  8
0
 62
     0
 10
189.125
 20
7.46485
 30
0.0
 11
189.821
 21
7.10928
 31
0.0
  0
LINE
  8
0
 62
     0
 10
189.821
 20
7.10928
 30
0.0
 11
190.594
 21
6.98803
 31
0.0
  0
LINE
  8
0
 62
     0
 10
190.594
 20
6.98803
 30
0.0
 11
191.367
 21
7.10928
 31
0.0
  0
LINE
  8
0
 62
     0
 10
191.367
 20
7.10928
 30
0.0
 11
192.063
 21
7.46485
 31
0.0
  0
LINE
  8
0
 62
     0
 10
192.063
 20
7.46485
 30
0.0
 11
192.617
 21
8.01882
 31
0.0
  0
LINE
  8
0
 62
     0
 10
192.617
 20
8.01882
 30
0.0
 11
192.972
 21
8.7147
 31
0.0
  0
LINE
  8
0
 62
     0
 10
192.972
 20
8.7147
 30
0.0
 11
193.094
 21
9.48778
 31
0.0
  0
LINE
  8
0
 62
     0
 10
192.457
 20
22.338
 30
0.0
 11
192.457
 21
21.3376
 31
0.0
  0
LINE
  8
0
 62
     0
 10
192.457
 20
21.3376
 30
0.0
 11
178.457
 21
21.3376
 31
0.0
  0
LINE
  8
0
 62
     0
 10
178.457
 20
21.3376
 30
0.0
 11
178.457
 21
22.338
 31
0.0
  0
LINE
  8
0
 62
     0
 10
178.457
 20
22.338
 30
0.0
 11
177.657
 21
22.338
 31
0.0
  0
LINE
  8
0
 62
     0
 10
177.657
 20
22.338
 30
0.0
 11
177.657
 21
25.4372
 31
0.0
  0
LINE
  8
0
 62
     0
 10
177.657
 20
25.4372
 30
0.0
 11
178.457
 21
25.4372
 31
0.0
  0
LINE
  8
0
 62
     0
 10
178.457
 20
25.4372
 30
0.0
 11
178.457
 21
31.2374
 31
0.0
  0
LINE
  8
0
 62
     0
 10
178.457
 20
31.2374
 30
0.0
 11
177.657
 21
31.2374
 31
0.0
  0
LINE
  8
0
 62
     0
 10
177.657
 20
31.2374
 30
0.0
 11
177.657
 21
34.3379
 31
0.0
  0
LINE
  8
0
 62
     0
 10
177.657
 20
34.3379
 30
0.0
 11
178.457
 21
34.3379
 31
0.0
  0
LINE
  8
0
 62
     0
 10
178.457
 20
34.3379
 30
0.0
 11
178.457
 21
35.337
 31
0.0
  0
LINE
  8
0
 62
     0
 10
178.457
 20
35.337
 30
0.0
 11
192.457
 21
35.337
 31
0.0
  0
LINE
  8
0
 62
     0
 10
192.457
 20
35.337
 30
0.0
 11
192.457
 21
34.3379
 31
0.0
  0
LINE
  8
0
 62
     0
 10
192.457
 20
34.3379
 30
0.0
 11
193.256
 21
34.3379
 31
0.0
  0
LINE
  8
0
 62
     0
 10
193.256
 20
34.3379
 30
0.0
 11
193.256
 21
31.2374
 31
0.0
  0
LINE
  8
0
 62
     0
 10
193.256
 20
31.2374
 30
0.0
 11
192.457
 21
31.2374
 31
0.0
  0
LINE
  8
0
 62
     0
 10
192.457
 20
31.2374
 30
0.0
 11
192.457
 21
25.4372
 31
0.0
  0
LINE
  8
0
 62
     0
 10
192.457
 20
25.4372
 30
0.0
 11
193.256
 21
25.4372
 31
0.0
  0
LINE
  8
0
 62
     0
 10
193.256
 20
25.4372
 30
0.0
 11
193.256
 21
22.338
 31
0.0
  0
LINE
  8
0
 62
     0
 10
193.256
 20
22.338
 30
0.0
 11
192.457
 21
22.338
 31
0.0
  0
LINE
  8
0
 62
     0
 10
197.219
 20
60.4379
 30
0.0
 11
197.219
 21
59.4374
 31
0.0
  0
LINE
  8
0
 62
     0
 10
197.219
 20
59.4374
 30
0.0
 11
183.218
 21
59.4374
 31
0.0
  0
LINE
  8
0
 62
     0
 10
183.218
 20
59.4374
 30
0.0
 11
183.218
 21
60.4379
 31
0.0
  0
LINE
  8
0
 62
     0
 10
183.218
 20
60.4379
 30
0.0
 11
182.419
 21
60.4379
 31
0.0
  0
LINE
  8
0
 62
     0
 10
182.419
 20
60.4379
 30
0.0
 11
182.419
 21
63.537
 31
0.0
  0
LINE
  8
0
 62
     0
 10
182.419
 20
63.537
 30
0.0
 11
183.218
 21
63.537
 31
0.0
  0
LINE
  8
0
 62
     0
 10
183.218
 20
63.537
 30
0.0
 11
183.218
 21
69.3374
 31
0.0
  0
LINE
  8
0
 62
     0
 10
183.218
 20
69.3374
 30
0.0
 11
182.419
 21
69.3374
 31
0.0
  0
LINE
  8
0
 62
     0
 10
182.419
 20
69.3374
 30
0.0
 11
182.419
 21
72.438
 31
0.0
  0
LINE
  8
0
 62
     0
 10
182.419
 20
72.438
 30
0.0
 11
183.218
 21
72.438
 31
0.0
  0
LINE
  8
0
 62
     0
 10
183.218
 20
72.438
 30
0.0
 11
183.218
 21
73.437
 31
0.0
  0
LINE
  8
0
 62
     0
 10
183.218
 20
73.437
 30
0.0
 11
197.219
 21
73.437
 31
0.0
  0
LINE
  8
0
 62
     0
 10
197.219
 20
73.437
 30
0.0
 11
197.219
 21
72.438
 31
0.0
  0
LINE
  8
0
 62
     0
 10
197.219
 20
72.438
 30
0.0
 11
198.019
 21
72.438
 31
0.0
  0
LINE
  8
0
 62
     0
 10
198.019
 20
72.438
 30
0.0
 11
198.019
 21
69.3374
 31
0.0
  0
LINE
  8
0
 62
     0
 10
198.019
 20
69.3374
 30
0.0
 11
197.219
 21
69.3374
 31
0.0
  0
LINE
  8
0
 62
     0
 10
197.219
 20
69.3374
 30
0.0
 11
197.219
 21
63.537
 31
0.0
  0
LINE
  8
0
 62
     0
 10
197.219
 20
63.537
 30
0.0
 11
198.019
 21
63.537
 31
0.0
  0
LINE
  8
0
 62
     0
 10
198.019
 20
63.537
 30
0.0
 11
198.019
 21
60.4379
 31
0.0
  0
LINE
  8
0
 62
     0
 10
198.019
 20
60.4379
 30
0.0
 11
197.219
 21
60.4379
 31
0.0
  0
LINE
  8
0
 62
     0
 10
201.982
 20
41.3879
 30
0.0
 11
201.982
 21
40.3874
 31
0.0
  0
LINE
  8
0
 62
     0
 10
201.982
 20
40.3874
 30
0.0
 11
187.982
 21
40.3874
 31
0.0
  0
LINE
  8
0
 62
     0
 10
187.982
 20
40.3874
 30
0.0
 11
187.982
 21
41.3879
 31
0.0
  0
LINE
  8
0
 62
     0
 10
187.982
 20
41.3879
 30
0.0
 11
187.182
 21
41.3879
 31
0.0
  0
LINE
  8
0
 62
     0
 10
187.182
 20
41.3879
 30
0.0
 11
187.182
 21
44.487
 31
0.0
  0
LINE
  8
0
 62
     0
 10
187.182
 20
44.487
 30
0.0
 11
187.982
 21
44.487
 31
0.0
  0
LINE
  8
0
 62
     0
 10
187.982
 20
44.487
 30
0.0
 11
187.982
 21
50.2874
 31
0.0
  0
LINE
  8
0
 62
     0
 10
187.982
 20
50.2874
 30
0.0
 11
187.182
 21
50.2874
 31
0.0
  0
LINE
  8
0
 62
     0
 10
187.182
 20
50.2874
 30
0.0
 11
187.182
 21
53.388
 31
0.0
  0
LINE
  8
0
 62
     0
 10
187.182
 20
53.388
 30
0.0
 11
187.982
 21
53.388
 31
0.0
  0
LINE
  8
0
 62
     0
 10
187.982
 20
53.388
 30
0.0
 11
187.982
 21
54.387
 31
0.0
  0
LINE
  8
0
 62
     0
 10
187.982
 20
54.387
 30
0.0
 11
201.982
 21
54.387
 31
0.0
  0
LINE
  8
0
 62
     0
 10
201.982
 20
54.387
 30
0.0
 11
201.982
 21
53.388
 31
0.0
  0
LINE
  8
0
 62
     0
 10
201.982
 20
53.388
 30
0.0
 11
202.781
 21
53.388
 31
0.0
  0
LINE
  8
0
 62
     0
 10
202.781
 20
53.388
 30
0.0
 11
202.781
 21
50.2874
 31
0.0
  0
LINE
  8
0
 62
     0
 10
202.781
 20
50.2874
 30
0.0
 11
201.982
 21
50.2874
 31
0.0
  0
LINE
  8
0
 62
     0
 10
201.982
 20
50.2874
 30
0.0
 11
201.982
 21
44.487
 31
0.0
  0
LINE
  8
0
 62
     0
 10
201.982
 20
44.487
 30
0.0
 11
202.781
 21
44.487
 31
0.0
  0
LINE
  8
0
 62
     0
 10
202.781
 20
44.487
 30
0.0
 11
202.781
 21
41.3879
 31
0.0
  0
LINE
  8
0
 62
     0
 10
202.781
 20
41.3879
 30
0.0
 11
201.982
 21
41.3879
 31
0.0
  0
LINE
  8
0
 62
     0
 10
206.744
 20
79.4879
 30
0.0
 11
206.744
 21
78.4874
 31
0.0
  0
LINE
  8
0
 62
     0
 10
206.744
 20
78.4874
 30
0.0
 11
192.743
 21
78.4874
 31
0.0
  0
LINE
  8
0
 62
     0
 10
192.743
 20
78.4874
 30
0.0
 11
192.743
 21
79.4879
 31
0.0
  0
LINE
  8
0
 62
     0
 10
192.743
 20
79.4879
 30
0.0
 11
191.944
 21
79.4879
 31
0.0
  0
LINE
  8
0
 62
     0
 10
191.944
 20
79.4879
 30
0.0
 11
191.944
 21
82.587
 31
0.0
  0
LINE
  8
0
 62
     0
 10
191.944
 20
82.587
 30
0.0
 11
192.743
 21
82.587
 31
0.0
  0
LINE
  8
0
 62
     0
 10
192.743
 20
82.587
 30
0.0
 11
192.743
 21
88.3874
 31
0.0
  0
LINE
  8
0
 62
     0
 10
192.743
 20
88.3874
 30
0.0
 11
191.944
 21
88.3874
 31
0.0
  0
LINE
  8
0
 62
     0
 10
191.944
 20
88.3874
 30
0.0
 11
191.944
 21
91.488
 31
0.0
  0
LINE
  8
0
 62
     0
 10
191.944
 20
91.488
 30
0.0
 11
192.743
 21
91.488
 31
0.0
  0
LINE
  8
0
 62
     0
 10
192.743
 20
91.488
 30
0.0
 11
192.743
 21
92.487
 31
0.0
  0
LINE
  8
0
 62
     0
 10
192.743
 20
92.487
 30
0.0
 11
206.744
 21
92.487
 31
0.0
  0
LINE
  8
0
 62
     0
 10
206.744
 20
92.487
 30
0.0
 11
206.744
 21
91.488
 31
0.0
  0
LINE
  8
0
 62
     0
 10
206.744
 20
91.488
 30
0.0
 11
207.544
 21
91.488
 31
0.0
  0
LINE
  8
0
 62
     0
 10
207.544
 20
91.488
 30
0.0
 11
207.544
 21
88.3874
 31
0.0
  0
LINE
  8
0
 62
     0
 10
207.544
 20
88.3874
 30
0.0
 11
206.744
 21
88.3874
 31
0.0
  0
LINE
  8
0
 62
     0
 10
206.744
 20
88.3874
 30
0.0
 11
206.744
 21
82.587
 31
0.0
  0
LINE
  8
0
 62
     0
 10
206.744
 20
82.587
 30
0.0
 11
207.544
 21
82.587
 31
0.0
  0
LINE
  8
0
 62
     0
 10
207.544
 20
82.587
 30
0.0
 11
207.544
 21
79.4879
 31
0.0
  0
LINE
  8
0
 62
     0
 10
207.544
 20
79.4879
 30
0.0
 11
206.744
 21
79.4879
 31
0.0
  0
LINE
  8
0
 62
     0
 10
209.124
 20
3.288
 30
0.0
 11
209.124
 21
2.28755
 31
0.0
  0
LINE
  8
0
 62
     0
 10
209.124
 20
2.28755
 30
0.0
 11
195.125
 21
2.28755
 31
0.0
  0
LINE
  8
0
 62
     0
 10
195.125
 20
2.28755
 30
0.0
 11
195.125
 21
3.288
 31
0.0
  0
LINE
  8
0
 62
     0
 10
195.125
 20
3.288
 30
0.0
 11
194.326
 21
3.288
 31
0.0
  0
LINE
  8
0
 62
     0
 10
194.326
 20
3.288
 30
0.0
 11
194.326
 21
6.38722
 31
0.0
  0
LINE
  8
0
 62
     0
 10
194.326
 20
6.38722
 30
0.0
 11
195.125
 21
6.38722
 31
0.0
  0
LINE
  8
0
 62
     0
 10
195.125
 20
6.38722
 30
0.0
 11
195.125
 21
12.1874
 31
0.0
  0
LINE
  8
0
 62
     0
 10
195.125
 20
12.1874
 30
0.0
 11
194.326
 21
12.1874
 31
0.0
  0
LINE
  8
0
 62
     0
 10
194.326
 20
12.1874
 30
0.0
 11
194.326
 21
15.2879
 31
0.0
  0
LINE
  8
0
 62
     0
 10
194.326
 20
15.2879
 30
0.0
 11
195.125
 21
15.2879
 31
0.0
  0
LINE
  8
0
 62
     0
 10
195.125
 20
15.2879
 30
0.0
 11
195.125
 21
16.287
 31
0.0
  0
LINE
  8
0
 62
     0
 10
195.125
 20
16.287
 30
0.0
 11
209.124
 21
16.287
 31
0.0
  0
LINE
  8
0
 62
     0
 10
209.124
 20
16.287
 30
0.0
 11
209.124
 21
15.2879
 31
0.0
  0
LINE
  8
0
 62
     0
 10
209.124
 20
15.2879
 30
0.0
 11
209.925
 21
15.2879
 31
0.0
  0
LINE
  8
0
 62
     0
 10
209.925
 20
15.2879
 30
0.0
 11
209.925
 21
12.1874
 31
0.0
  0
LINE
  8
0
 62
     0
 10
209.925
 20
12.1874
 30
0.0
 11
209.124
 21
12.1874
 31
0.0
  0
LINE
  8
0
 62
     0
 10
209.124
 20
12.1874
 30
0.0
 11
209.124
 21
6.38722
 31
0.0
  0
LINE
  8
0
 62
     0
 10
209.124
 20
6.38722
 30
0.0
 11
209.925
 21
6.38722
 31
0.0
  0
LINE
  8
0
 62
     0
 10
209.925
 20
6.38722
 30
0.0
 11
209.925
 21
3.288
 31
0.0
  0
LINE
  8
0
 62
     0
 10
209.925
 20
3.288
 30
0.0
 11
209.124
 21
3.288
 31
0.0
  0
LINE
  8
0
 62
     0
 10
211.507
 20
22.338
 30
0.0
 11
211.507
 21
21.3376
 31
0.0
  0
LINE
  8
0
 62
     0
 10
211.507
 20
21.3376
 30
0.0
 11
197.507
 21
21.3376
 31
0.0
  0
LINE
  8
0
 62
     0
 10
197.507
 20
21.3376
 30
0.0
 11
197.507
 21
22.338
 31
0.0
  0
LINE
  8
0
 62
     0
 10
197.507
 20
22.338
 30
0.0
 11
196.707
 21
22.338
 31
0.0
  0
LINE
  8
0
 62
     0
 10
196.707
 20
22.338
 30
0.0
 11
196.707
 21
25.4372
 31
0.0
  0
LINE
  8
0
 62
     0
 10
196.707
 20
25.4372
 30
0.0
 11
197.507
 21
25.4372
 31
0.0
  0
LINE
  8
0
 62
     0
 10
197.507
 20
25.4372
 30
0.0
 11
197.507
 21
31.2374
 31
0.0
  0
LINE
  8
0
 62
     0
 10
197.507
 20
31.2374
 30
0.0
 11
196.707
 21
31.2374
 31
0.0
  0
LINE
  8
0
 62
     0
 10
196.707
 20
31.2374
 30
0.0
 11
196.707
 21
34.3379
 31
0.0
  0
LINE
  8
0
 62
     0
 10
196.707
 20
34.3379
 30
0.0
 11
197.507
 21
34.3379
 31
0.0
  0
LINE
  8
0
 62
     0
 10
197.507
 20
34.3379
 30
0.0
 11
197.507
 21
35.337
 31
0.0
  0
LINE
  8
0
 62
     0
 10
197.507
 20
35.337
 30
0.0
 11
211.507
 21
35.337
 31
0.0
  0
LINE
  8
0
 62
     0
 10
211.507
 20
35.337
 30
0.0
 11
211.507
 21
34.3379
 31
0.0
  0
LINE
  8
0
 62
     0
 10
211.507
 20
34.3379
 30
0.0
 11
212.306
 21
34.3379
 31
0.0
  0
LINE
  8
0
 62
     0
 10
212.306
 20
34.3379
 30
0.0
 11
212.306
 21
31.2374
 31
0.0
  0
LINE
  8
0
 62
     0
 10
212.306
 20
31.2374
 30
0.0
 11
211.507
 21
31.2374
 31
0.0
  0
LINE
  8
0
 62
     0
 10
211.507
 20
31.2374
 30
0.0
 11
211.507
 21
25.4372
 31
0.0
  0
LINE
  8
0
 62
     0
 10
211.507
 20
25.4372
 30
0.0
 11
212.306
 21
25.4372
 31
0.0
  0
LINE
  8
0
 62
     0
 10
212.306
 20
25.4372
 30
0.0
 11
212.306
 21
22.338
 31
0.0
  0
LINE
  8
0
 62
     0
 10
212.306
 20
22.338
 30
0.0
 11
211.507
 21
22.338
 31
0.0
  0
LINE
  8
0
 62
     0
 10
216.269
 20
60.4379
 30
0.0
 11
216.269
 21
59.4374
 31
0.0
  0
LINE
  8
0
 62
     0
 10
216.269
 20
59.4374
 30
0.0
 11
202.268
 21
59.4374
 31
0.0
  0
LINE
  8
0
 62
     0
 10
202.268
 20
59.4374
 30
0.0
 11
202.268
 21
60.4379
 31
0.0
  0
LINE
  8
0
 62
     0
 10
202.268
 20
60.4379
 30
0.0
 11
201.469
 21
60.4379
 31
0.0
  0
LINE
  8
0
 62
     0
 10
201.469
 20
60.4379
 30
0.0
 11
201.469
 21
63.537
 31
0.0
  0
LINE
  8
0
 62
     0
 10
201.469
 20
63.537
 30
0.0
 11
202.268
 21
63.537
 31
0.0
  0
LINE
  8
0
 62
     0
 10
202.268
 20
63.537
 30
0.0
 11
202.268
 21
69.3374
 31
0.0
  0
LINE
  8
0
 62
     0
 10
202.268
 20
69.3374
 30
0.0
 11
201.469
 21
69.3374
 31
0.0
  0
LINE
  8
0
 62
     0
 10
201.469
 20
69.3374
 30
0.0
 11
201.469
 21
72.438
 31
0.0
  0
LINE
  8
0
 62
     0
 10
201.469
 20
72.438
 30
0.0
 11
202.268
 21
72.438
 31
0.0
  0
LINE
  8
0
 62
     0
 10
202.268
 20
72.438
 30
0.0
 11
202.268
 21
73.437
 31
0.0
  0
LINE
  8
0
 62
     0
 10
202.268
 20
73.437
 30
0.0
 11
216.269
 21
73.437
 31
0.0
  0
LINE
  8
0
 62
     0
 10
216.269
 20
73.437
 30
0.0
 11
216.269
 21
72.438
 31
0.0
  0
LINE
  8
0
 62
     0
 10
216.269
 20
72.438
 30
0.0
 11
217.069
 21
72.438
 31
0.0
  0
LINE
  8
0
 62
     0
 10
217.069
 20
72.438
 30
0.0
 11
217.069
 21
69.3374
 31
0.0
  0
LINE
  8
0
 62
     0
 10
217.069
 20
69.3374
 30
0.0
 11
216.269
 21
69.3374
 31
0.0
  0
LINE
  8
0
 62
     0
 10
216.269
 20
69.3374
 30
0.0
 11
216.269
 21
63.537
 31
0.0
  0
LINE
  8
0
 62
     0
 10
216.269
 20
63.537
 30
0.0
 11
217.069
 21
63.537
 31
0.0
  0
LINE
  8
0
 62
     0
 10
217.069
 20
63.537
 30
0.0
 11
217.069
 21
60.4379
 31
0.0
  0
LINE
  8
0
 62
     0
 10
217.069
 20
60.4379
 30
0.0
 11
216.269
 21
60.4379
 31
0.0
  0
LINE
  8
0
 62
     0
 10
221.032
 20
41.3879
 30
0.0
 11
221.032
 21
40.3874
 31
0.0
  0
LINE
  8
0
 62
     0
 10
221.032
 20
40.3874
 30
0.0
 11
207.032
 21
40.3874
 31
0.0
  0
LINE
  8
0
 62
     0
 10
207.032
 20
40.3874
 30
0.0
 11
207.032
 21
41.3879
 31
0.0
  0
LINE
  8
0
 62
     0
 10
207.032
 20
41.3879
 30
0.0
 11
206.232
 21
41.3879
 31
0.0
  0
LINE
  8
0
 62
     0
 10
206.232
 20
41.3879
 30
0.0
 11
206.232
 21
44.487
 31
0.0
  0
LINE
  8
0
 62
     0
 10
206.232
 20
44.487
 30
0.0
 11
207.032
 21
44.487
 31
0.0
  0
LINE
  8
0
 62
     0
 10
207.032
 20
44.487
 30
0.0
 11
207.032
 21
50.2874
 31
0.0
  0
LINE
  8
0
 62
     0
 10
207.032
 20
50.2874
 30
0.0
 11
206.232
 21
50.2874
 31
0.0
  0
LINE
  8
0
 62
     0
 10
206.232
 20
50.2874
 30
0.0
 11
206.232
 21
53.388
 31
0.0
  0
LINE
  8
0
 62
     0
 10
206.232
 20
53.388
 30
0.0
 11
207.032
 21
53.388
 31
0.0
  0
LINE
  8
0
 62
     0
 10
207.032
 20
53.388
 30
0.0
 11
207.032
 21
54.387
 31
0.0
  0
LINE
  8
0
 62
     0
 10
207.032
 20
54.387
 30
0.0
 11
221.032
 21
54.387
 31
0.0
  0
LINE
  8
0
 62
     0
 10
221.032
 20
54.387
 30
0.0
 11
221.032
 21
53.388
 31
0.0
  0
LINE
  8
0
 62
     0
 10
221.032
 20
53.388
 30
0.0
 11
221.831
 21
53.388
 31
0.0
  0
LINE
  8
0
 62
     0
 10
221.831
 20
53.388
 30
0.0
 11
221.831
 21
50.2874
 31
0.0
  0
LINE
  8
0
 62
     0
 10
221.831
 20
50.2874
 30
0.0
 11
221.032
 21
50.2874
 31
0.0
  0
LINE
  8
0
 62
     0
 10
221.032
 20
50.2874
 30
0.0
 11
221.032
 21
44.487
 31
0.0
  0
LINE
  8
0
 62
     0
 10
221.032
 20
44.487
 30
0.0
 11
221.831
 21
44.487
 31
0.0
  0
LINE
  8
0
 62
     0
 10
221.831
 20
44.487
 30
0.0
 11
221.831
 21
41.3879
 31
0.0
  0
LINE
  8
0
 62
     0
 10
221.831
 20
41.3879
 30
0.0
 11
221.032
 21
41.3879
 31
0.0
  0
LINE
  8
0
 62
     0
 10
225.794
 20
79.4879
 30
0.0
 11
225.794
 21
78.4874
 31
0.0
  0
LINE
  8
0
 62
     0
 10
225.794
 20
78.4874
 30
0.0
 11
211.793
 21
78.4874
 31
0.0
  0
LINE
  8
0
 62
     0
 10
211.793
 20
78.4874
 30
0.0
 11
211.793
 21
79.4879
 31
0.0
  0
LINE
  8
0
 62
     0
 10
211.793
 20
79.4879
 30
0.0
 11
210.994
 21
79.4879
 31
0.0
  0
LINE
  8
0
 62
     0
 10
210.994
 20
79.4879
 30
0.0
 11
210.994
 21
82.587
 31
0.0
  0
LINE
  8
0
 62
     0
 10
210.994
 20
82.587
 30
0.0
 11
211.793
 21
82.587
 31
0.0
  0
LINE
  8
0
 62
     0
 10
211.793
 20
82.587
 30
0.0
 11
211.793
 21
88.3874
 31
0.0
  0
LINE
  8
0
 62
     0
 10
211.793
 20
88.3874
 30
0.0
 11
210.994
 21
88.3874
 31
0.0
  0
LINE
  8
0
 62
     0
 10
210.994
 20
88.3874
 30
0.0
 11
210.994
 21
91.488
 31
0.0
  0
LINE
  8
0
 62
     0
 10
210.994
 20
91.488
 30
0.0
 11
211.793
 21
91.488
 31
0.0
  0
LINE
  8
0
 62
     0
 10
211.793
 20
91.488
 30
0.0
 11
211.793
 21
92.487
 31
0.0
  0
LINE
  8
0
 62
     0
 10
211.793
 20
92.487
 30
0.0
 11
225.794
 21
92.487
 31
0.0
  0
LINE
  8
0
 62
     0
 10
225.794
 20
92.487
 30
0.0
 11
225.794
 21
91.488
 31
0.0
  0
LINE
  8
0
 62
     0
 10
225.794
 20
91.488
 30
0.0
 11
226.594
 21
91.488
 31
0.0
  0
LINE
  8
0
 62
     0
 10
226.594
 20
91.488
 30
0.0
 11
226.594
 21
88.3874
 31
0.0
  0
LINE
  8
0
 62
     0
 10
226.594
 20
88.3874
 30
0.0
 11
225.794
 21
88.3874
 31
0.0
  0
LINE
  8
0
 62
     0
 10
225.794
 20
88.3874
 30
0.0
 11
225.794
 21
82.587
 31
0.0
  0
LINE
  8
0
 62
     0
 10
225.794
 20
82.587
 30
0.0
 11
226.594
 21
82.587
 31
0.0
  0
LINE
  8
0
 62
     0
 10
226.594
 20
82.587
 30
0.0
 11
226.594
 21
79.4879
 31
0.0
  0
LINE
  8
0
 62
     0
 10
226.594
 20
79.4879
 30
0.0
 11
225.794
 21
79.4879
 31
0.0
  0
LINE
  8
0
 62
     0
 10
230.557
 20
22.338
 30
0.0
 11
230.557
 21
21.3376
 31
0.0
  0
LINE
  8
0
 62
     0
 10
230.557
 20
21.3376
 30
0.0
 11
216.557
 21
21.3376
 31
0.0
  0
LINE
  8
0
 62
     0
 10
216.557
 20
21.3376
 30
0.0
 11
216.557
 21
22.338
 31
0.0
  0
LINE
  8
0
 62
     0
 10
216.557
 20
22.338
 30
0.0
 11
215.757
 21
22.338
 31
0.0
  0
LINE
  8
0
 62
     0
 10
215.757
 20
22.338
 30
0.0
 11
215.757
 21
25.4372
 31
0.0
  0
LINE
  8
0
 62
     0
 10
215.757
 20
25.4372
 30
0.0
 11
216.557
 21
25.4372
 31
0.0
  0
LINE
  8
0
 62
     0
 10
216.557
 20
25.4372
 30
0.0
 11
216.557
 21
31.2374
 31
0.0
  0
LINE
  8
0
 62
     0
 10
216.557
 20
31.2374
 30
0.0
 11
215.757
 21
31.2374
 31
0.0
  0
LINE
  8
0
 62
     0
 10
215.757
 20
31.2374
 30
0.0
 11
215.757
 21
34.3379
 31
0.0
  0
LINE
  8
0
 62
     0
 10
215.757
 20
34.3379
 30
0.0
 11
216.557
 21
34.3379
 31
0.0
  0
LINE
  8
0
 62
     0
 10
216.557
 20
34.3379
 30
0.0
 11
216.557
 21
35.337
 31
0.0
  0
LINE
  8
0
 62
     0
 10
216.557
 20
35.337
 30
0.0
 11
230.557
 21
35.337
 31
0.0
  0
LINE
  8
0
 62
     0
 10
230.557
 20
35.337
 30
0.0
 11
230.557
 21
34.3379
 31
0.0
  0
LINE
  8
0
 62
     0
 10
230.557
 20
34.3379
 30
0.0
 11
231.356
 21
34.3379
 31
0.0
  0
LINE
  8
0
 62
     0
 10
231.356
 20
34.3379
 30
0.0
 11
231.356
 21
31.2374
 31
0.0
  0
LINE
  8
0
 62
     0
 10
231.356
 20
31.2374
 30
0.0
 11
230.557
 21
31.2374
 31
0.0
  0
LINE
  8
0
 62
     0
 10
230.557
 20
31.2374
 30
0.0
 11
230.557
 21
25.4372
 31
0.0
  0
LINE
  8
0
 62
     0
 10
230.557
 20
25.4372
 30
0.0
 11
231.356
 21
25.4372
 31
0.0
  0
LINE
  8
0
 62
     0
 10
231.356
 20
25.4372
 30
0.0
 11
231.356
 21
22.338
 31
0.0
  0
LINE
  8
0
 62
     0
 10
231.356
 20
22.338
 30
0.0
 11
230.557
 21
22.338
 31
0.0
  0
LINE
  8
0
 62
     0
 10
232.938
 20
3.288
 30
0.0
 11
232.938
 21
2.28755
 31
0.0
  0
LINE
  8
0
 62
     0
 10
232.938
 20
2.28755
 30
0.0
 11
218.937
 21
2.28755
 31
0.0
  0
LINE
  8
0
 62
     0
 10
218.937
 20
2.28755
 30
0.0
 11
218.937
 21
3.288
 31
0.0
  0
LINE
  8
0
 62
     0
 10
218.937
 20
3.288
 30
0.0
 11
218.138
 21
3.288
 31
0.0
  0
LINE
  8
0
 62
     0
 10
218.138
 20
3.288
 30
0.0
 11
218.138
 21
6.38722
 31
0.0
  0
LINE
  8
0
 62
     0
 10
218.138
 20
6.38722
 30
0.0
 11
218.937
 21
6.38722
 31
0.0
  0
LINE
  8
0
 62
     0
 10
218.937
 20
6.38722
 30
0.0
 11
218.937
 21
12.1874
 31
0.0
  0
LINE
  8
0
 62
     0
 10
218.937
 20
12.1874
 30
0.0
 11
218.138
 21
12.1874
 31
0.0
  0
LINE
  8
0
 62
     0
 10
218.138
 20
12.1874
 30
0.0
 11
218.138
 21
15.2879
 31
0.0
  0
LINE
  8
0
 62
     0
 10
218.138
 20
15.2879
 30
0.0
 11
218.937
 21
15.2879
 31
0.0
  0
LINE
  8
0
 62
     0
 10
218.937
 20
15.2879
 30
0.0
 11
218.937
 21
16.287
 31
0.0
  0
LINE
  8
0
 62
     0
 10
218.937
 20
16.287
 30
0.0
 11
232.938
 21
16.287
 31
0.0
  0
LINE
  8
0
 62
     0
 10
232.938
 20
16.287
 30
0.0
 11
232.938
 21
15.2879
 31
0.0
  0
LINE
  8
0
 62
     0
 10
232.938
 20
15.2879
 30
0.0
 11
233.737
 21
15.2879
 31
0.0
  0
LINE
  8
0
 62
     0
 10
233.737
 20
15.2879
 30
0.0
 11
233.737
 21
12.1874
 31
0.0
  0
LINE
  8
0
 62
     0
 10
233.737
 20
12.1874
 30
0.0
 11
232.938
 21
12.1874
 31
0.0
  0
LINE
  8
0
 62
     0
 10
232.938
 20
12.1874
 30
0.0
 11
232.938
 21
6.38722
 31
0.0
  0
LINE
  8
0
 62
     0
 10
232.938
 20
6.38722
 30
0.0
 11
233.737
 21
6.38722
 31
0.0
  0
LINE
  8
0
 62
     0
 10
233.737
 20
6.38722
 30
0.0
 11
233.737
 21
3.288
 31
0.0
  0
LINE
  8
0
 62
     0
 10
233.737
 20
3.288
 30
0.0
 11
232.938
 21
3.288
 31
0.0
  0
LINE
  8
0
 62
     0
 10
235.319
 20
60.4379
 30
0.0
 11
235.319
 21
59.4374
 31
0.0
  0
LINE
  8
0
 62
     0
 10
235.319
 20
59.4374
 30
0.0
 11
221.318
 21
59.4374
 31
0.0
  0
LINE
  8
0
 62
     0
 10
221.318
 20
59.4374
 30
0.0
 11
221.318
 21
60.4379
 31
0.0
  0
LINE
  8
0
 62
     0
 10
221.318
 20
60.4379
 30
0.0
 11
220.519
 21
60.4379
 31
0.0
  0
LINE
  8
0
 62
     0
 10
220.519
 20
60.4379
 30
0.0
 11
220.519
 21
63.537
 31
0.0
  0
LINE
  8
0
 62
     0
 10
220.519
 20
63.537
 30
0.0
 11
221.318
 21
63.537
 31
0.0
  0
LINE
  8
0
 62
     0
 10
221.318
 20
63.537
 30
0.0
 11
221.318
 21
69.3374
 31
0.0
  0
LINE
  8
0
 62
     0
 10
221.318
 20
69.3374
 30
0.0
 11
220.519
 21
69.3374
 31
0.0
  0
LINE
  8
0
 62
     0
 10
220.519
 20
69.3374
 30
0.0
 11
220.519
 21
72.438
 31
0.0
  0
LINE
  8
0
 62
     0
 10
220.519
 20
72.438
 30
0.0
 11
221.318
 21
72.438
 31
0.0
  0
LINE
  8
0
 62
     0
 10
221.318
 20
72.438
 30
0.0
 11
221.318
 21
73.437
 31
0.0
  0
LINE
  8
0
 62
     0
 10
221.318
 20
73.437
 30
0.0
 11
235.319
 21
73.437
 31
0.0
  0
LINE
  8
0
 62
     0
 10
235.319
 20
73.437
 30
0.0
 11
235.319
 21
72.438
 31
0.0
  0
LINE
  8
0
 62
     0
 10
235.319
 20
72.438
 30
0.0
 11
236.119
 21
72.438
 31
0.0
  0
LINE
  8
0
 62
     0
 10
236.119
 20
72.438
 30
0.0
 11
236.119
 21
69.3374
 31
0.0
  0
LINE
  8
0
 62
     0
 10
236.119
 20
69.3374
 30
0.0
 11
235.319
 21
69.3374
 31
0.0
  0
LINE
  8
0
 62
     0
 10
235.319
 20
69.3374
 30
0.0
 11
235.319
 21
63.537
 31
0.0
  0
LINE
  8
0
 62
     0
 10
235.319
 20
63.537
 30
0.0
 11
236.119
 21
63.537
 31
0.0
  0
LINE
  8
0
 62
     0
 10
236.119
 20
63.537
 30
0.0
 11
236.119
 21
60.4379
 31
0.0
  0
LINE
  8
0
 62
     0
 10
236.119
 20
60.4379
 30
0.0
 11
235.319
 21
60.4379
 31
0.0
  0
LINE
  8
0
 62
     0
 10
240.082
 20
41.3879
 30
0.0
 11
240.082
 21
40.3874
 31
0.0
  0
LINE
  8
0
 62
     0
 10
240.082
 20
40.3874
 30
0.0
 11
226.082
 21
40.3874
 31
0.0
  0
LINE
  8
0
 62
     0
 10
226.082
 20
40.3874
 30
0.0
 11
226.082
 21
41.3879
 31
0.0
  0
LINE
  8
0
 62
     0
 10
226.082
 20
41.3879
 30
0.0
 11
225.282
 21
41.3879
 31
0.0
  0
LINE
  8
0
 62
     0
 10
225.282
 20
41.3879
 30
0.0
 11
225.282
 21
44.487
 31
0.0
  0
LINE
  8
0
 62
     0
 10
225.282
 20
44.487
 30
0.0
 11
226.082
 21
44.487
 31
0.0
  0
LINE
  8
0
 62
     0
 10
226.082
 20
44.487
 30
0.0
 11
226.082
 21
50.2874
 31
0.0
  0
LINE
  8
0
 62
     0
 10
226.082
 20
50.2874
 30
0.0
 11
225.282
 21
50.2874
 31
0.0
  0
LINE
  8
0
 62
     0
 10
225.282
 20
50.2874
 30
0.0
 11
225.282
 21
53.388
 31
0.0
  0
LINE
  8
0
 62
     0
 10
225.282
 20
53.388
 30
0.0
 11
226.082
 21
53.388
 31
0.0
  0
LINE
  8
0
 62
     0
 10
226.082
 20
53.388
 30
0.0
 11
226.082
 21
54.387
 31
0.0
  0
LINE
  8
0
 62
     0
 10
226.082
 20
54.387
 30
0.0
 11
240.082
 21
54.387
 31
0.0
  0
LINE
  8
0
 62
     0
 10
240.082
 20
54.387
 30
0.0
 11
240.082
 21
53.388
 31
0.0
  0
LINE
  8
0
 62
     0
 10
240.082
 20
53.388
 30
0.0
 11
240.881
 21
53.388
 31
0.0
  0
LINE
  8
0
 62
     0
 10
240.881
 20
53.388
 30
0.0
 11
240.881
 21
50.2874
 31
0.0
  0
LINE
  8
0
 62
     0
 10
240.881
 20
50.2874
 30
0.0
 11
240.082
 21
50.2874
 31
0.0
  0
LINE
  8
0
 62
     0
 10
240.082
 20
50.2874
 30
0.0
 11
240.082
 21
44.487
 31
0.0
  0
LINE
  8
0
 62
     0
 10
240.082
 20
44.487
 30
0.0
 11
240.881
 21
44.487
 31
0.0
  0
LINE
  8
0
 62
     0
 10
240.881
 20
44.487
 30
0.0
 11
240.881
 21
41.3879
 31
0.0
  0
LINE
  8
0
 62
     0
 10
240.881
 20
41.3879
 30
0.0
 11
240.082
 21
41.3879
 31
0.0
  0
LINE
  8
0
 62
     0
 10
244.844
 20
79.4879
 30
0.0
 11
244.844
 21
78.4874
 31
0.0
  0
LINE
  8
0
 62
     0
 10
244.844
 20
78.4874
 30
0.0
 11
230.843
 21
78.4874
 31
0.0
  0
LINE
  8
0
 62
     0
 10
230.843
 20
78.4874
 30
0.0
 11
230.843
 21
79.4879
 31
0.0
  0
LINE
  8
0
 62
     0
 10
230.843
 20
79.4879
 30
0.0
 11
230.044
 21
79.4879
 31
0.0
  0
LINE
  8
0
 62
     0
 10
230.044
 20
79.4879
 30
0.0
 11
230.044
 21
82.587
 31
0.0
  0
LINE
  8
0
 62
     0
 10
230.044
 20
82.587
 30
0.0
 11
230.843
 21
82.587
 31
0.0
  0
LINE
  8
0
 62
     0
 10
230.843
 20
82.587
 30
0.0
 11
230.843
 21
88.3874
 31
0.0
  0
LINE
  8
0
 62
     0
 10
230.843
 20
88.3874
 30
0.0
 11
230.044
 21
88.3874
 31
0.0
  0
LINE
  8
0
 62
     0
 10
230.044
 20
88.3874
 30
0.0
 11
230.044
 21
91.488
 31
0.0
  0
LINE
  8
0
 62
     0
 10
230.044
 20
91.488
 30
0.0
 11
230.843
 21
91.488
 31
0.0
  0
LINE
  8
0
 62
     0
 10
230.843
 20
91.488
 30
0.0
 11
230.843
 21
92.487
 31
0.0
  0
LINE
  8
0
 62
     0
 10
230.843
 20
92.487
 30
0.0
 11
244.844
 21
92.487
 31
0.0
  0
LINE
  8
0
 62
     0
 10
244.844
 20
92.487
 30
0.0
 11
244.844
 21
91.488
 31
0.0
  0
LINE
  8
0
 62
     0
 10
244.844
 20
91.488
 30
0.0
 11
245.644
 21
91.488
 31
0.0
  0
LINE
  8
0
 62
     0
 10
245.644
 20
91.488
 30
0.0
 11
245.644
 21
88.3874
 31
0.0
  0
LINE
  8
0
 62
     0
 10
245.644
 20
88.3874
 30
0.0
 11
244.844
 21
88.3874
 31
0.0
  0
LINE
  8
0
 62
     0
 10
244.844
 20
88.3874
 30
0.0
 11
244.844
 21
82.587
 31
0.0
  0
LINE
  8
0
 62
     0
 10
244.844
 20
82.587
 30
0.0
 11
245.644
 21
82.587
 31
0.0
  0
LINE
  8
0
 62
     0
 10
245.644
 20
82.587
 30
0.0
 11
245.644
 21
79.4879
 31
0.0
  0
LINE
  8
0
 62
     0
 10
245.644
 20
79.4879
 30
0.0
 11
244.844
 21
79.4879
 31
0.0
  0
LINE
  8
0
 62
     0
 10
254.369
 20
60.4379
 30
0.0
 11
254.369
 21
59.4374
 31
0.0
  0
LINE
  8
0
 62
     0
 10
254.369
 20
59.4374
 30
0.0
 11
240.368
 21
59.4374
 31
0.0
  0
LINE
  8
0
 62
     0
 10
240.368
 20
59.4374
 30
0.0
 11
240.368
 21
60.4379
 31
0.0
  0
LINE
  8
0
 62
     0
 10
240.368
 20
60.4379
 30
0.0
 11
239.569
 21
60.4379
 31
0.0
  0
LINE
  8
0
 62
     0
 10
239.569
 20
60.4379
 30
0.0
 11
239.569
 21
63.537
 31
0.0
  0
LINE
  8
0
 62
     0
 10
239.569
 20
63.537
 30
0.0
 11
240.368
 21
63.537
 31
0.0
  0
LINE
  8
0
 62
     0
 10
240.368
 20
63.537
 30
0.0
 11
240.368
 21
69.3374
 31
0.0
  0
LINE
  8
0
 62
     0
 10
240.368
 20
69.3374
 30
0.0
 11
239.569
 21
69.3374
 31
0.0
  0
LINE
  8
0
 62
     0
 10
239.569
 20
69.3374
 30
0.0
 11
239.569
 21
72.438
 31
0.0
  0
LINE
  8
0
 62
     0
 10
239.569
 20
72.438
 30
0.0
 11
240.368
 21
72.438
 31
0.0
  0
LINE
  8
0
 62
     0
 10
240.368
 20
72.438
 30
0.0
 11
240.368
 21
73.437
 31
0.0
  0
LINE
  8
0
 62
     0
 10
240.368
 20
73.437
 30
0.0
 11
254.369
 21
73.437
 31
0.0
  0
LINE
  8
0
 62
     0
 10
254.369
 20
73.437
 30
0.0
 11
254.369
 21
72.438
 31
0.0
  0
LINE
  8
0
 62
     0
 10
254.369
 20
72.438
 30
0.0
 11
255.169
 21
72.438
 31
0.0
  0
LINE
  8
0
 62
     0
 10
255.169
 20
72.438
 30
0.0
 11
255.169
 21
69.3374
 31
0.0
  0
LINE
  8
0
 62
     0
 10
255.169
 20
69.3374
 30
0.0
 11
254.369
 21
69.3374
 31
0.0
  0
LINE
  8
0
 62
     0
 10
254.369
 20
69.3374
 30
0.0
 11
254.369
 21
63.537
 31
0.0
  0
LINE
  8
0
 62
     0
 10
254.369
 20
63.537
 30
0.0
 11
255.169
 21
63.537
 31
0.0
  0
LINE
  8
0
 62
     0
 10
255.169
 20
63.537
 30
0.0
 11
255.169
 21
60.4379
 31
0.0
  0
LINE
  8
0
 62
     0
 10
255.169
 20
60.4379
 30
0.0
 11
254.369
 21
60.4379
 31
0.0
  0
LINE
  8
0
 62
     0
 10
256.749
 20
3.288
 30
0.0
 11
256.749
 21
2.28755
 31
0.0
  0
LINE
  8
0
 62
     0
 10
256.749
 20
2.28755
 30
0.0
 11
242.75
 21
2.28755
 31
0.0
  0
LINE
  8
0
 62
     0
 10
242.75
 20
2.28755
 30
0.0
 11
242.75
 21
3.288
 31
0.0
  0
LINE
  8
0
 62
     0
 10
242.75
 20
3.288
 30
0.0
 11
241.949
 21
3.288
 31
0.0
  0
LINE
  8
0
 62
     0
 10
241.949
 20
3.288
 30
0.0
 11
241.949
 21
6.38722
 31
0.0
  0
LINE
  8
0
 62
     0
 10
241.949
 20
6.38722
 30
0.0
 11
242.75
 21
6.38722
 31
0.0
  0
LINE
  8
0
 62
     0
 10
242.75
 20
6.38722
 30
0.0
 11
242.75
 21
12.1874
 31
0.0
  0
LINE
  8
0
 62
     0
 10
242.75
 20
12.1874
 30
0.0
 11
241.949
 21
12.1874
 31
0.0
  0
LINE
  8
0
 62
     0
 10
241.949
 20
12.1874
 30
0.0
 11
241.949
 21
15.2879
 31
0.0
  0
LINE
  8
0
 62
     0
 10
241.949
 20
15.2879
 30
0.0
 11
242.75
 21
15.2879
 31
0.0
  0
LINE
  8
0
 62
     0
 10
242.75
 20
15.2879
 30
0.0
 11
242.75
 21
16.287
 31
0.0
  0
LINE
  8
0
 62
     0
 10
242.75
 20
16.287
 30
0.0
 11
256.749
 21
16.287
 31
0.0
  0
LINE
  8
0
 62
     0
 10
256.749
 20
16.287
 30
0.0
 11
256.749
 21
15.2879
 31
0.0
  0
LINE
  8
0
 62
     0
 10
256.749
 20
15.2879
 30
0.0
 11
257.55
 21
15.2879
 31
0.0
  0
LINE
  8
0
 62
     0
 10
257.55
 20
15.2879
 30
0.0
 11
257.55
 21
12.1874
 31
0.0
  0
LINE
  8
0
 62
     0
 10
257.55
 20
12.1874
 30
0.0
 11
256.749
 21
12.1874
 31
0.0
  0
LINE
  8
0
 62
     0
 10
256.749
 20
12.1874
 30
0.0
 11
256.749
 21
6.38722
 31
0.0
  0
LINE
  8
0
 62
     0
 10
256.749
 20
6.38722
 30
0.0
 11
257.55
 21
6.38722
 31
0.0
  0
LINE
  8
0
 62
     0
 10
257.55
 20
6.38722
 30
0.0
 11
257.55
 21
3.288
 31
0.0
  0
LINE
  8
0
 62
     0
 10
257.55
 20
3.288
 30
0.0
 11
256.749
 21
3.288
 31
0.0
  0
LINE
  8
0
 62
     0
 10
256.749
 20
22.338
 30
0.0
 11
256.749
 21
21.3376
 31
0.0
  0
LINE
  8
0
 62
     0
 10
256.749
 20
21.3376
 30
0.0
 11
242.75
 21
21.3376
 31
0.0
  0
LINE
  8
0
 62
     0
 10
242.75
 20
21.3376
 30
0.0
 11
242.75
 21
22.338
 31
0.0
  0
LINE
  8
0
 62
     0
 10
242.75
 20
22.338
 30
0.0
 11
241.949
 21
22.338
 31
0.0
  0
LINE
  8
0
 62
     0
 10
241.949
 20
22.338
 30
0.0
 11
241.949
 21
25.4372
 31
0.0
  0
LINE
  8
0
 62
     0
 10
241.949
 20
25.4372
 30
0.0
 11
242.75
 21
25.4372
 31
0.0
  0
LINE
  8
0
 62
     0
 10
242.75
 20
25.4372
 30
0.0
 11
242.75
 21
31.2374
 31
0.0
  0
LINE
  8
0
 62
     0
 10
242.75
 20
31.2374
 30
0.0
 11
241.949
 21
31.2374
 31
0.0
  0
LINE
  8
0
 62
     0
 10
241.949
 20
31.2374
 30
0.0
 11
241.949
 21
34.3379
 31
0.0
  0
LINE
  8
0
 62
     0
 10
241.949
 20
34.3379
 30
0.0
 11
242.75
 21
34.3379
 31
0.0
  0
LINE
  8
0
 62
     0
 10
242.75
 20
34.3379
 30
0.0
 11
242.75
 21
35.337
 31
0.0
  0
LINE
  8
0
 62
     0
 10
242.75
 20
35.337
 30
0.0
 11
256.749
 21
35.337
 31
0.0
  0
LINE
  8
0
 62
     0
 10
256.749
 20
35.337
 30
0.0
 11
256.749
 21
34.3379
 31
0.0
  0
LINE
  8
0
 62
     0
 10
256.749
 20
34.3379
 30
0.0
 11
257.55
 21
34.3379
 31
0.0
  0
LINE
  8
0
 62
     0
 10
257.55
 20
34.3379
 30
0.0
 11
257.55
 21
31.2374
 31
0.0
  0
LINE
  8
0
 62
     0
 10
257.55
 20
31.2374
 30
0.0
 11
256.749
 21
31.2374
 31
0.0
  0
LINE
  8
0
 62
     0
 10
256.749
 20
31.2374
 30
0.0
 11
256.749
 21
25.4372
 31
0.0
  0
LINE
  8
0
 62
     0
 10
256.749
 20
25.4372
 30
0.0
 11
257.55
 21
25.4372
 31
0.0
  0
LINE
  8
0
 62
     0
 10
257.55
 20
25.4372
 30
0.0
 11
257.55
 21
22.338
 31
0.0
  0
LINE
  8
0
 62
     0
 10
257.55
 20
22.338
 30
0.0
 11
256.749
 21
22.338
 31
0.0
  0
LINE
  8
0
 62
     0
 10
262.643
 20
66.7879
 30
0.0
 11
262.522
 21
67.5612
 31
0.0
  0
LINE
  8
0
 62
     0
 10
262.522
 20
67.5612
 30
0.0
 11
262.166
 21
68.2569
 31
0.0
  0
LINE
  8
0
 62
     0
 10
262.166
 20
68.2569
 30
0.0
 11
261.612
 21
68.8111
 31
0.0
  0
LINE
  8
0
 62
     0
 10
261.612
 20
68.8111
 30
0.0
 11
260.916
 21
69.1653
 31
0.0
  0
LINE
  8
0
 62
     0
 10
260.916
 20
69.1653
 30
0.0
 11
260.143
 21
69.2877
 31
0.0
  0
LINE
  8
0
 62
     0
 10
260.143
 20
69.2877
 30
0.0
 11
259.37
 21
69.1653
 31
0.0
  0
LINE
  8
0
 62
     0
 10
259.37
 20
69.1653
 30
0.0
 11
258.674
 21
68.8111
 31
0.0
  0
LINE
  8
0
 62
     0
 10
258.674
 20
68.8111
 30
0.0
 11
258.12
 21
68.2569
 31
0.0
  0
LINE
  8
0
 62
     0
 10
258.12
 20
68.2569
 30
0.0
 11
257.766
 21
67.5612
 31
0.0
  0
LINE
  8
0
 62
     0
 10
257.766
 20
67.5612
 30
0.0
 11
257.643
 21
66.7879
 31
0.0
  0
LINE
  8
0
 62
     0
 10
257.643
 20
66.7879
 30
0.0
 11
257.766
 21
66.015
 31
0.0
  0
LINE
  8
0
 62
     0
 10
257.766
 20
66.015
 30
0.0
 11
258.12
 21
65.3189
 31
0.0
  0
LINE
  8
0
 62
     0
 10
258.12
 20
65.3189
 30
0.0
 11
258.674
 21
64.7651
 31
0.0
  0
LINE
  8
0
 62
     0
 10
258.674
 20
64.7651
 30
0.0
 11
259.37
 21
64.4095
 31
0.0
  0
LINE
  8
0
 62
     0
 10
259.37
 20
64.4095
 30
0.0
 11
260.143
 21
64.2881
 31
0.0
  0
LINE
  8
0
 62
     0
 10
260.143
 20
64.2881
 30
0.0
 11
260.916
 21
64.4095
 31
0.0
  0
LINE
  8
0
 62
     0
 10
260.916
 20
64.4095
 30
0.0
 11
261.612
 21
64.7651
 31
0.0
  0
LINE
  8
0
 62
     0
 10
261.612
 20
64.7651
 30
0.0
 11
262.166
 21
65.3189
 31
0.0
  0
LINE
  8
0
 62
     0
 10
262.166
 20
65.3189
 30
0.0
 11
262.522
 21
66.015
 31
0.0
  0
LINE
  8
0
 62
     0
 10
262.522
 20
66.015
 30
0.0
 11
262.643
 21
66.7879
 31
0.0
  0
LINE
  8
0
 62
     0
 10
278.182
 20
60.4379
 30
0.0
 11
278.182
 21
59.4374
 31
0.0
  0
LINE
  8
0
 62
     0
 10
278.182
 20
59.4374
 30
0.0
 11
264.182
 21
59.4374
 31
0.0
  0
LINE
  8
0
 62
     0
 10
264.182
 20
59.4374
 30
0.0
 11
264.182
 21
60.4379
 31
0.0
  0
LINE
  8
0
 62
     0
 10
264.182
 20
60.4379
 30
0.0
 11
263.382
 21
60.4379
 31
0.0
  0
LINE
  8
0
 62
     0
 10
263.382
 20
60.4379
 30
0.0
 11
263.382
 21
63.537
 31
0.0
  0
LINE
  8
0
 62
     0
 10
263.382
 20
63.537
 30
0.0
 11
264.182
 21
63.537
 31
0.0
  0
LINE
  8
0
 62
     0
 10
264.182
 20
63.537
 30
0.0
 11
264.182
 21
69.3374
 31
0.0
  0
LINE
  8
0
 62
     0
 10
264.182
 20
69.3374
 30
0.0
 11
263.382
 21
69.3374
 31
0.0
  0
LINE
  8
0
 62
     0
 10
263.382
 20
69.3374
 30
0.0
 11
263.382
 21
72.438
 31
0.0
  0
LINE
  8
0
 62
     0
 10
263.382
 20
72.438
 30
0.0
 11
264.182
 21
72.438
 31
0.0
  0
LINE
  8
0
 62
     0
 10
264.182
 20
72.438
 30
0.0
 11
264.182
 21
73.437
 31
0.0
  0
LINE
  8
0
 62
     0
 10
264.182
 20
73.437
 30
0.0
 11
278.182
 21
73.437
 31
0.0
  0
LINE
  8
0
 62
     0
 10
278.182
 20
73.437
 30
0.0
 11
278.182
 21
72.438
 31
0.0
  0
LINE
  8
0
 62
     0
 10
278.182
 20
72.438
 30
0.0
 11
278.981
 21
72.438
 31
0.0
  0
LINE
  8
0
 62
     0
 10
278.981
 20
72.438
 30
0.0
 11
278.981
 21
69.3374
 31
0.0
  0
LINE
  8
0
 62
     0
 10
278.981
 20
69.3374
 30
0.0
 11
278.182
 21
69.3374
 31
0.0
  0
LINE
  8
0
 62
     0
 10
278.182
 20
69.3374
 30
0.0
 11
278.182
 21
63.537
 31
0.0
  0
LINE
  8
0
 62
     0
 10
278.182
 20
63.537
 30
0.0
 11
278.981
 21
63.537
 31
0.0
  0
LINE
  8
0
 62
     0
 10
278.981
 20
63.537
 30
0.0
 11
278.981
 21
60.4379
 31
0.0
  0
LINE
  8
0
 62
     0
 10
278.981
 20
60.4379
 30
0.0
 11
278.182
 21
60.4379
 31
0.0
  0
LINE
  8
0
 62
     0
 10
279.262
 20
46.8877
 30
0.0
 11
279.262
 21
40.6178
 31
0.0
  0
LINE
  8
0
 62
     0
 10
279.262
 20
40.6178
 30
0.0
 11
277.638
 21
40.6178
 31
0.0
  0
LINE
  8
0
 62
     0
 10
277.638
 20
40.6178
 30
0.0
 11
277.638
 21
39.6378
 31
0.0
  0
LINE
  8
0
 62
     0
 10
277.638
 20
39.6378
 30
0.0
 11
274.337
 21
39.6378
 31
0.0
  0
LINE
  8
0
 62
     0
 10
274.337
 20
39.6378
 30
0.0
 11
274.337
 21
40.6178
 31
0.0
  0
LINE
  8
0
 62
     0
 10
274.337
 20
40.6178
 30
0.0
 11
272.613
 21
40.6178
 31
0.0
  0
LINE
  8
0
 62
     0
 10
272.613
 20
40.6178
 30
0.0
 11
272.613
 21
41.4182
 31
0.0
  0
LINE
  8
0
 62
     0
 10
272.613
 20
41.4182
 30
0.0
 11
271.837
 21
41.4182
 31
0.0
  0
LINE
  8
0
 62
     0
 10
271.837
 20
41.4182
 30
0.0
 11
271.837
 21
41.3879
 31
0.0
  0
LINE
  8
0
 62
     0
 10
271.837
 20
41.3879
 30
0.0
 11
271.038
 21
41.3879
 31
0.0
  0
LINE
  8
0
 62
     0
 10
271.038
 20
41.3879
 30
0.0
 11
271.038
 21
40.3874
 31
0.0
  0
LINE
  8
0
 62
     0
 10
271.038
 20
40.3874
 30
0.0
 11
257.037
 21
40.3874
 31
0.0
  0
LINE
  8
0
 62
     0
 10
257.037
 20
40.3874
 30
0.0
 11
257.037
 21
41.3879
 31
0.0
  0
LINE
  8
0
 62
     0
 10
257.037
 20
41.3879
 30
0.0
 11
256.238
 21
41.3879
 31
0.0
  0
LINE
  8
0
 62
     0
 10
256.238
 20
41.3879
 30
0.0
 11
256.238
 21
41.4182
 31
0.0
  0
LINE
  8
0
 62
     0
 10
256.238
 20
41.4182
 30
0.0
 11
255.462
 21
41.4182
 31
0.0
  0
LINE
  8
0
 62
     0
 10
255.462
 20
41.4182
 30
0.0
 11
255.462
 21
40.6178
 31
0.0
  0
LINE
  8
0
 62
     0
 10
255.462
 20
40.6178
 30
0.0
 11
253.738
 21
40.6178
 31
0.0
  0
LINE
  8
0
 62
     0
 10
253.738
 20
40.6178
 30
0.0
 11
253.738
 21
39.6378
 31
0.0
  0
LINE
  8
0
 62
     0
 10
253.738
 20
39.6378
 30
0.0
 11
250.438
 21
39.6378
 31
0.0
  0
LINE
  8
0
 62
     0
 10
250.438
 20
39.6378
 30
0.0
 11
250.438
 21
40.6178
 31
0.0
  0
LINE
  8
0
 62
     0
 10
250.438
 20
40.6178
 30
0.0
 11
248.813
 21
40.6178
 31
0.0
  0
LINE
  8
0
 62
     0
 10
248.813
 20
40.6178
 30
0.0
 11
248.813
 21
46.8877
 31
0.0
  0
LINE
  8
0
 62
     0
 10
248.813
 20
46.8877
 30
0.0
 11
247.938
 21
46.8877
 31
0.0
  0
LINE
  8
0
 62
     0
 10
247.938
 20
46.8877
 30
0.0
 11
247.938
 21
49.688
 31
0.0
  0
LINE
  8
0
 62
     0
 10
247.938
 20
49.688
 30
0.0
 11
248.813
 21
49.688
 31
0.0
  0
LINE
  8
0
 62
     0
 10
248.813
 20
49.688
 30
0.0
 11
248.813
 21
52.9181
 31
0.0
  0
LINE
  8
0
 62
     0
 10
248.813
 20
52.9181
 30
0.0
 11
250.438
 21
52.9181
 31
0.0
  0
LINE
  8
0
 62
     0
 10
250.438
 20
52.9181
 30
0.0
 11
250.438
 21
53.8371
 31
0.0
  0
LINE
  8
0
 62
     0
 10
250.438
 20
53.8371
 30
0.0
 11
253.738
 21
53.8371
 31
0.0
  0
LINE
  8
0
 62
     0
 10
253.738
 20
53.8371
 30
0.0
 11
253.738
 21
52.9181
 31
0.0
  0
LINE
  8
0
 62
     0
 10
253.738
 20
52.9181
 30
0.0
 11
255.462
 21
52.9181
 31
0.0
  0
LINE
  8
0
 62
     0
 10
255.462
 20
52.9181
 30
0.0
 11
255.462
 21
52.1173
 31
0.0
  0
LINE
  8
0
 62
     0
 10
255.462
 20
52.1173
 30
0.0
 11
256.238
 21
52.1173
 31
0.0
  0
LINE
  8
0
 62
     0
 10
256.238
 20
52.1173
 30
0.0
 11
256.238
 21
53.388
 31
0.0
  0
LINE
  8
0
 62
     0
 10
256.238
 20
53.388
 30
0.0
 11
257.037
 21
53.388
 31
0.0
  0
LINE
  8
0
 62
     0
 10
257.037
 20
53.388
 30
0.0
 11
257.037
 21
54.387
 31
0.0
  0
LINE
  8
0
 62
     0
 10
257.037
 20
54.387
 30
0.0
 11
271.038
 21
54.387
 31
0.0
  0
LINE
  8
0
 62
     0
 10
271.038
 20
54.387
 30
0.0
 11
271.038
 21
53.388
 31
0.0
  0
LINE
  8
0
 62
     0
 10
271.038
 20
53.388
 30
0.0
 11
271.837
 21
53.388
 31
0.0
  0
LINE
  8
0
 62
     0
 10
271.837
 20
53.388
 30
0.0
 11
271.837
 21
52.1173
 31
0.0
  0
LINE
  8
0
 62
     0
 10
271.837
 20
52.1173
 30
0.0
 11
272.613
 21
52.1173
 31
0.0
  0
LINE
  8
0
 62
     0
 10
272.613
 20
52.1173
 30
0.0
 11
272.613
 21
52.9181
 31
0.0
  0
LINE
  8
0
 62
     0
 10
272.613
 20
52.9181
 30
0.0
 11
274.337
 21
52.9181
 31
0.0
  0
LINE
  8
0
 62
     0
 10
274.337
 20
52.9181
 30
0.0
 11
274.337
 21
53.8371
 31
0.0
  0
LINE
  8
0
 62
     0
 10
274.337
 20
53.8371
 30
0.0
 11
277.638
 21
53.8371
 31
0.0
  0
LINE
  8
0
 62
     0
 10
277.638
 20
53.8371
 30
0.0
 11
277.638
 21
52.9181
 31
0.0
  0
LINE
  8
0
 62
     0
 10
277.638
 20
52.9181
 30
0.0
 11
279.262
 21
52.9181
 31
0.0
  0
LINE
  8
0
 62
     0
 10
279.262
 20
52.9181
 30
0.0
 11
279.262
 21
49.688
 31
0.0
  0
LINE
  8
0
 62
     0
 10
279.262
 20
49.688
 30
0.0
 11
280.137
 21
49.688
 31
0.0
  0
LINE
  8
0
 62
     0
 10
280.137
 20
49.688
 30
0.0
 11
280.137
 21
46.8877
 31
0.0
  0
LINE
  8
0
 62
     0
 10
280.137
 20
46.8877
 30
0.0
 11
279.262
 21
46.8877
 31
0.0
  0
LINE
  8
0
 62
     0
 10
280.563
 20
3.288
 30
0.0
 11
280.563
 21
2.28755
 31
0.0
  0
LINE
  8
0
 62
     0
 10
280.563
 20
2.28755
 30
0.0
 11
266.562
 21
2.28755
 31
0.0
  0
LINE
  8
0
 62
     0
 10
266.562
 20
2.28755
 30
0.0
 11
266.562
 21
3.288
 31
0.0
  0
LINE
  8
0
 62
     0
 10
266.562
 20
3.288
 30
0.0
 11
265.763
 21
3.288
 31
0.0
  0
LINE
  8
0
 62
     0
 10
265.763
 20
3.288
 30
0.0
 11
265.763
 21
6.38722
 31
0.0
  0
LINE
  8
0
 62
     0
 10
265.763
 20
6.38722
 30
0.0
 11
266.562
 21
6.38722
 31
0.0
  0
LINE
  8
0
 62
     0
 10
266.562
 20
6.38722
 30
0.0
 11
266.562
 21
12.1874
 31
0.0
  0
LINE
  8
0
 62
     0
 10
266.562
 20
12.1874
 30
0.0
 11
265.763
 21
12.1874
 31
0.0
  0
LINE
  8
0
 62
     0
 10
265.763
 20
12.1874
 30
0.0
 11
265.763
 21
15.2879
 31
0.0
  0
LINE
  8
0
 62
     0
 10
265.763
 20
15.2879
 30
0.0
 11
266.562
 21
15.2879
 31
0.0
  0
LINE
  8
0
 62
     0
 10
266.562
 20
15.2879
 30
0.0
 11
266.562
 21
16.287
 31
0.0
  0
LINE
  8
0
 62
     0
 10
266.562
 20
16.287
 30
0.0
 11
280.563
 21
16.287
 31
0.0
  0
LINE
  8
0
 62
     0
 10
280.563
 20
16.287
 30
0.0
 11
280.563
 21
15.2879
 31
0.0
  0
LINE
  8
0
 62
     0
 10
280.563
 20
15.2879
 30
0.0
 11
281.362
 21
15.2879
 31
0.0
  0
LINE
  8
0
 62
     0
 10
281.362
 20
15.2879
 30
0.0
 11
281.362
 21
12.1874
 31
0.0
  0
LINE
  8
0
 62
     0
 10
281.362
 20
12.1874
 30
0.0
 11
280.563
 21
12.1874
 31
0.0
  0
LINE
  8
0
 62
     0
 10
280.563
 20
12.1874
 30
0.0
 11
280.563
 21
6.38722
 31
0.0
  0
LINE
  8
0
 62
     0
 10
280.563
 20
6.38722
 30
0.0
 11
281.362
 21
6.38722
 31
0.0
  0
LINE
  8
0
 62
     0
 10
281.362
 20
6.38722
 30
0.0
 11
281.362
 21
3.288
 31
0.0
  0
LINE
  8
0
 62
     0
 10
281.362
 20
3.288
 30
0.0
 11
280.563
 21
3.288
 31
0.0
  0
LINE
  8
0
 62
     0
 10
281.643
 20
84.9877
 30
0.0
 11
281.643
 21
78.7178
 31
0.0
  0
LINE
  8
0
 62
     0
 10
281.643
 20
78.7178
 30
0.0
 11
280.019
 21
78.7178
 31
0.0
  0
LINE
  8
0
 62
     0
 10
280.019
 20
78.7178
 30
0.0
 11
280.019
 21
77.7378
 31
0.0
  0
LINE
  8
0
 62
     0
 10
280.019
 20
77.7378
 30
0.0
 11
276.718
 21
77.7378
 31
0.0
  0
LINE
  8
0
 62
     0
 10
276.718
 20
77.7378
 30
0.0
 11
276.718
 21
78.7178
 31
0.0
  0
LINE
  8
0
 62
     0
 10
276.718
 20
78.7178
 30
0.0
 11
274.995
 21
78.7178
 31
0.0
  0
LINE
  8
0
 62
     0
 10
274.995
 20
78.7178
 30
0.0
 11
274.995
 21
79.5182
 31
0.0
  0
LINE
  8
0
 62
     0
 10
274.995
 20
79.5182
 30
0.0
 11
274.219
 21
79.5182
 31
0.0
  0
LINE
  8
0
 62
     0
 10
274.219
 20
79.5182
 30
0.0
 11
274.219
 21
79.4879
 31
0.0
  0
LINE
  8
0
 62
     0
 10
274.219
 20
79.4879
 30
0.0
 11
273.419
 21
79.4879
 31
0.0
  0
LINE
  8
0
 62
     0
 10
273.419
 20
79.4879
 30
0.0
 11
273.419
 21
78.4874
 31
0.0
  0
LINE
  8
0
 62
     0
 10
273.419
 20
78.4874
 30
0.0
 11
259.418
 21
78.4874
 31
0.0
  0
LINE
  8
0
 62
     0
 10
259.418
 20
78.4874
 30
0.0
 11
259.418
 21
79.4879
 31
0.0
  0
LINE
  8
0
 62
     0
 10
259.418
 20
79.4879
 30
0.0
 11
258.619
 21
79.4879
 31
0.0
  0
LINE
  8
0
 62
     0
 10
258.619
 20
79.4879
 30
0.0
 11
258.619
 21
79.5182
 31
0.0
  0
LINE
  8
0
 62
     0
 10
258.619
 20
79.5182
 30
0.0
 11
257.844
 21
79.5182
 31
0.0
  0
LINE
  8
0
 62
     0
 10
257.844
 20
79.5182
 30
0.0
 11
257.844
 21
78.7178
 31
0.0
  0
LINE
  8
0
 62
     0
 10
257.844
 20
78.7178
 30
0.0
 11
256.119
 21
78.7178
 31
0.0
  0
LINE
  8
0
 62
     0
 10
256.119
 20
78.7178
 30
0.0
 11
256.119
 21
77.7378
 31
0.0
  0
LINE
  8
0
 62
     0
 10
256.119
 20
77.7378
 30
0.0
 11
252.819
 21
77.7378
 31
0.0
  0
LINE
  8
0
 62
     0
 10
252.819
 20
77.7378
 30
0.0
 11
252.819
 21
78.7178
 31
0.0
  0
LINE
  8
0
 62
     0
 10
252.819
 20
78.7178
 30
0.0
 11
251.194
 21
78.7178
 31
0.0
  0
LINE
  8
0
 62
     0
 10
251.194
 20
78.7178
 30
0.0
 11
251.194
 21
84.9877
 31
0.0
  0
LINE
  8
0
 62
     0
 10
251.194
 20
84.9877
 30
0.0
 11
250.319
 21
84.9877
 31
0.0
  0
LINE
  8
0
 62
     0
 10
250.319
 20
84.9877
 30
0.0
 11
250.319
 21
87.788
 31
0.0
  0
LINE
  8
0
 62
     0
 10
250.319
 20
87.788
 30
0.0
 11
251.194
 21
87.788
 31
0.0
  0
LINE
  8
0
 62
     0
 10
251.194
 20
87.788
 30
0.0
 11
251.194
 21
91.0181
 31
0.0
  0
LINE
  8
0
 62
     0
 10
251.194
 20
91.0181
 30
0.0
 11
252.819
 21
91.0181
 31
0.0
  0
LINE
  8
0
 62
     0
 10
252.819
 20
91.0181
 30
0.0
 11
252.819
 21
91.9371
 31
0.0
  0
LINE
  8
0
 62
     0
 10
252.819
 20
91.9371
 30
0.0
 11
256.119
 21
91.9371
 31
0.0
  0
LINE
  8
0
 62
     0
 10
256.119
 20
91.9371
 30
0.0
 11
256.119
 21
91.0181
 31
0.0
  0
LINE
  8
0
 62
     0
 10
256.119
 20
91.0181
 30
0.0
 11
257.844
 21
91.0181
 31
0.0
  0
LINE
  8
0
 62
     0
 10
257.844
 20
91.0181
 30
0.0
 11
257.844
 21
90.2173
 31
0.0
  0
LINE
  8
0
 62
     0
 10
257.844
 20
90.2173
 30
0.0
 11
258.619
 21
90.2173
 31
0.0
  0
LINE
  8
0
 62
     0
 10
258.619
 20
90.2173
 30
0.0
 11
258.619
 21
91.488
 31
0.0
  0
LINE
  8
0
 62
     0
 10
258.619
 20
91.488
 30
0.0
 11
259.418
 21
91.488
 31
0.0
  0
LINE
  8
0
 62
     0
 10
259.418
 20
91.488
 30
0.0
 11
259.418
 21
92.487
 31
0.0
  0
LINE
  8
0
 62
     0
 10
259.418
 20
92.487
 30
0.0
 11
273.419
 21
92.487
 31
0.0
  0
LINE
  8
0
 62
     0
 10
273.419
 20
92.487
 30
0.0
 11
273.419
 21
91.488
 31
0.0
  0
LINE
  8
0
 62
     0
 10
273.419
 20
91.488
 30
0.0
 11
274.219
 21
91.488
 31
0.0
  0
LINE
  8
0
 62
     0
 10
274.219
 20
91.488
 30
0.0
 11
274.219
 21
90.2173
 31
0.0
  0
LINE
  8
0
 62
     0
 10
274.219
 20
90.2173
 30
0.0
 11
274.995
 21
90.2173
 31
0.0
  0
LINE
  8
0
 62
     0
 10
274.995
 20
90.2173
 30
0.0
 11
274.995
 21
91.0181
 31
0.0
  0
LINE
  8
0
 62
     0
 10
274.995
 20
91.0181
 30
0.0
 11
276.718
 21
91.0181
 31
0.0
  0
LINE
  8
0
 62
     0
 10
276.718
 20
91.0181
 30
0.0
 11
276.718
 21
91.9371
 31
0.0
  0
LINE
  8
0
 62
     0
 10
276.718
 20
91.9371
 30
0.0
 11
280.019
 21
91.9371
 31
0.0
  0
LINE
  8
0
 62
     0
 10
280.019
 20
91.9371
 30
0.0
 11
280.019
 21
91.0181
 31
0.0
  0
LINE
  8
0
 62
     0
 10
280.019
 20
91.0181
 30
0.0
 11
281.643
 21
91.0181
 31
0.0
  0
LINE
  8
0
 62
     0
 10
281.643
 20
91.0181
 30
0.0
 11
281.643
 21
87.788
 31
0.0
  0
LINE
  8
0
 62
     0
 10
281.643
 20
87.788
 30
0.0
 11
282.519
 21
87.788
 31
0.0
  0
LINE
  8
0
 62
     0
 10
282.519
 20
87.788
 30
0.0
 11
282.519
 21
84.9877
 31
0.0
  0
LINE
  8
0
 62
     0
 10
282.519
 20
84.9877
 30
0.0
 11
281.643
 21
84.9877
 31
0.0
  0
LINE
  8
0
 62
     0
 10
282.944
 20
22.338
 30
0.0
 11
282.944
 21
21.3376
 31
0.0
  0
LINE
  8
0
 62
     0
 10
282.944
 20
21.3376
 30
0.0
 11
268.943
 21
21.3376
 31
0.0
  0
LINE
  8
0
 62
     0
 10
268.943
 20
21.3376
 30
0.0
 11
268.943
 21
22.338
 31
0.0
  0
LINE
  8
0
 62
     0
 10
268.943
 20
22.338
 30
0.0
 11
268.144
 21
22.338
 31
0.0
  0
LINE
  8
0
 62
     0
 10
268.144
 20
22.338
 30
0.0
 11
268.144
 21
25.4372
 31
0.0
  0
LINE
  8
0
 62
     0
 10
268.144
 20
25.4372
 30
0.0
 11
268.943
 21
25.4372
 31
0.0
  0
LINE
  8
0
 62
     0
 10
268.943
 20
25.4372
 30
0.0
 11
268.943
 21
31.2374
 31
0.0
  0
LINE
  8
0
 62
     0
 10
268.943
 20
31.2374
 30
0.0
 11
268.144
 21
31.2374
 31
0.0
  0
LINE
  8
0
 62
     0
 10
268.144
 20
31.2374
 30
0.0
 11
268.144
 21
34.3379
 31
0.0
  0
LINE
  8
0
 62
     0
 10
268.144
 20
34.3379
 30
0.0
 11
268.943
 21
34.3379
 31
0.0
  0
LINE
  8
0
 62
     0
 10
268.943
 20
34.3379
 30
0.0
 11
268.943
 21
35.337
 31
0.0
  0
LINE
  8
0
 62
     0
 10
268.943
 20
35.337
 30
0.0
 11
282.944
 21
35.337
 31
0.0
  0
LINE
  8
0
 62
     0
 10
282.944
 20
35.337
 30
0.0
 11
282.944
 21
34.3379
 31
0.0
  0
LINE
  8
0
 62
     0
 10
282.944
 20
34.3379
 30
0.0
 11
283.744
 21
34.3379
 31
0.0
  0
LINE
  8
0
 62
     0
 10
283.744
 20
34.3379
 30
0.0
 11
283.744
 21
31.2374
 31
0.0
  0
LINE
  8
0
 62
     0
 10
283.744
 20
31.2374
 30
0.0
 11
282.944
 21
31.2374
 31
0.0
  0
LINE
  8
0
 62
     0
 10
282.944
 20
31.2374
 30
0.0
 11
282.944
 21
25.4372
 31
0.0
  0
LINE
  8
0
 62
     0
 10
282.944
 20
25.4372
 30
0.0
 11
283.744
 21
25.4372
 31
0.0
  0
LINE
  8
0
 62
     0
 10
283.744
 20
25.4372
 30
0.0
 11
283.744
 21
22.338
 31
0.0
  0
LINE
  8
0
 62
     0
 10
283.744
 20
22.338
 30
0.0
 11
282.944
 21
22.338
 31
0.0
  0
LINE
  8
0
 62
     0
 10
0.0937066
 20
0.0881944
 30
0.0
 11
0.0937066
 21
35.687
 31
0.0
  0
LINE
  8
0
 62
     0
 10
0.0937066
 20
35.687
 30
0.0
 11
3.5953
 21
35.687
 31
0.0
  0
LINE
  8
0
 62
     0
 10
3.5953
 20
35.687
 30
0.0
 11
4.367
 21
35.8098
 31
0.0
  0
LINE
  8
0
 62
     0
 10
4.367
 20
35.8098
 30
0.0
 11
5.0643
 21
36.1654
 31
0.0
  0
LINE
  8
0
 62
     0
 10
5.0643
 20
36.1654
 30
0.0
 11
5.61689
 21
36.7178
 31
0.0
  0
LINE
  8
0
 62
     0
 10
5.61689
 20
36.7178
 30
0.0
 11
5.97242
 21
37.4153
 31
0.0
  0
LINE
  8
0
 62
     0
 10
5.97242
 20
37.4153
 30
0.0
 11
6.09367
 21
38.1868
 31
0.0
  0
LINE
  8
0
 62
     0
 10
6.09367
 20
38.1868
 30
0.0
 11
6.09367
 21
38.1882
 31
0.0
  0
LINE
  8
0
 62
     0
 10
6.09367
 20
38.1882
 30
0.0
 11
5.97242
 21
38.9611
 31
0.0
  0
LINE
  8
0
 62
     0
 10
5.97242
 20
38.9611
 30
0.0
 11
5.61689
 21
39.6572
 31
0.0
  0
LINE
  8
0
 62
     0
 10
5.61689
 20
39.6572
 30
0.0
 11
5.0643
 21
40.211
 31
0.0
  0
LINE
  8
0
 62
     0
 10
5.0643
 20
40.211
 30
0.0
 11
4.367
 21
40.5652
 31
0.0
  0
LINE
  8
0
 62
     0
 10
4.367
 20
40.5652
 30
0.0
 11
3.5953
 21
40.688
 31
0.0
  0
LINE
  8
0
 62
     0
 10
3.5953
 20
40.688
 30
0.0
 11
0.0937066
 21
40.688
 31
0.0
  0
LINE
  8
0
 62
     0
 10
0.0937066
 20
40.688
 30
0.0
 11
0.0937066
 21
94.6877
 31
0.0
  0
LINE
  8
0
 62
     0
 10
0.0937066
 20
94.6877
 30
0.0
 11
285.094
 21
94.6877
 31
0.0
  0
LINE
  8
0
 62
     0
 10
285.094
 20
94.6877
 30
0.0
 11
285.094
 21
40.688
 31
0.0
  0
LINE
  8
0
 62
     0
 10
285.094
 20
40.688
 30
0.0
 11
281.593
 21
40.688
 31
0.0
  0
LINE
  8
0
 62
     0
 10
281.593
 20
40.688
 30
0.0
 11
280.821
 21
40.5652
 31
0.0
  0
LINE
  8
0
 62
     0
 10
280.821
 20
40.5652
 30
0.0
 11
280.124
 21
40.211
 31
0.0
  0
LINE
  8
0
 62
     0
 10
280.124
 20
40.211
 30
0.0
 11
279.571
 21
39.6572
 31
0.0
  0
LINE
  8
0
 62
     0
 10
279.571
 20
39.6572
 30
0.0
 11
279.215
 21
38.9611
 31
0.0
  0
LINE
  8
0
 62
     0
 10
279.215
 20
38.9611
 30
0.0
 11
279.094
 21
38.1882
 31
0.0
  0
LINE
  8
0
 62
     0
 10
279.094
 20
38.1882
 30
0.0
 11
279.094
 21
38.1868
 31
0.0
  0
LINE
  8
0
 62
     0
 10
279.094
 20
38.1868
 30
0.0
 11
279.215
 21
37.4153
 31
0.0
  0
LINE
  8
0
 62
     0
 10
279.215
 20
37.4153
 30
0.0
 11
279.571
 21
36.7178
 31
0.0
  0
LINE
  8
0
 62
     0
 10
279.571
 20
36.7178
 30
0.0
 11
280.124
 21
36.1654
 31
0.0
  0
LINE
  8
0
 62
     0
 10
280.124
 20
36.1654
 30
0.0
 11
280.821
 21
35.8098
 31
0.0
  0
LINE
  8
0
 62
     0
 10
280.821
 20
35.8098
 30
0.0
 11
281.593
 21
35.687
 31
0.0
  0
LINE
  8
0
 62
     0
 10
281.593
 20
35.687
 30
0.0
 11
285.094
 21
35.687
 31
0.0
  0
LINE
  8
0
 62
     0
 10
285.094
 20
35.687
 30
0.0
 11
285.094
 21
0.0881944
 31
0.0
  0
LINE
  8
0
 62
     0
 10
285.094
 20
0.0881944
 30
0.0
 11
0.0937066
 21
0.0881944
 31
0.0
  0
ENDSEC
  0
EOF
