  0
SECTION
  2
HEADER
  9
$ACADVER
  1
AC1009
  9
$EXTMIN
 10
0.0
 20
0.0
 30
0.0
  9
$EXTMAX
 10
1000.0
 20
1000.0
 30
0.0
  9
$FILLMODE
 70
 0
  9
$SPLFRAME
 70
 1
  0
ENDSEC
  0
SECTION
  2
TABLES
  0
TABLE
  2
LAYER
 70
1
  0
LAYER
  2
0
 70
     0
 62
     7
  6
CONTINUOUS
  0
ENDTAB
  0
ENDSEC
  0
SECTION
  2
ENTITIES
  0
LINE
  8
0
 62
     0
 10
232.494
 20
81.0934
 30
0.0
 11
232.572
 21
81.0906
 31
0.0
  0
LINE
  8
0
 62
     0
 10
232.572
 20
81.0906
 30
0.0
 11
232.65
 21
81.081
 31
0.0
  0
LINE
  8
0
 62
     0
 10
232.65
 20
81.081
 30
0.0
 11
232.727
 21
81.0659
 31
0.0
  0
LINE
  8
0
 62
     0
 10
232.727
 20
81.0659
 30
0.0
 11
232.803
 21
81.0436
 31
0.0
  0
LINE
  8
0
 62
     0
 10
232.803
 20
81.0436
 30
0.0
 11
232.877
 21
81.0175
 31
0.0
  0
LINE
  8
0
 62
     0
 10
232.877
 20
81.0175
 30
0.0
 11
232.948
 21
80.9847
 31
0.0
  0
LINE
  8
0
 62
     0
 10
232.948
 20
80.9847
 30
0.0
 11
233.015
 21
80.9459
 31
0.0
  0
LINE
  8
0
 62
     0
 10
233.015
 20
80.9459
 30
0.0
 11
233.081
 21
80.9018
 31
0.0
  0
LINE
  8
0
 62
     0
 10
233.081
 20
80.9018
 30
0.0
 11
233.143
 21
80.8535
 31
0.0
  0
LINE
  8
0
 62
     0
 10
233.143
 20
80.8535
 30
0.0
 11
233.201
 21
80.7999
 31
0.0
  0
LINE
  8
0
 62
     0
 10
233.201
 20
80.7999
 30
0.0
 11
233.253
 21
80.742
 31
0.0
  0
LINE
  8
0
 62
     0
 10
233.253
 20
80.742
 30
0.0
 11
233.303
 21
80.6813
 31
0.0
  0
LINE
  8
0
 62
     0
 10
233.303
 20
80.6813
 30
0.0
 11
233.347
 21
80.6154
 31
0.0
  0
LINE
  8
0
 62
     0
 10
233.347
 20
80.6154
 30
0.0
 11
233.385
 21
80.5476
 31
0.0
  0
LINE
  8
0
 62
     0
 10
233.385
 20
80.5476
 30
0.0
 11
233.418
 21
80.476
 31
0.0
  0
LINE
  8
0
 62
     0
 10
233.418
 20
80.476
 30
0.0
 11
233.445
 21
80.403
 31
0.0
  0
LINE
  8
0
 62
     0
 10
233.445
 20
80.403
 30
0.0
 11
233.466
 21
80.3257
 31
0.0
  0
LINE
  8
0
 62
     0
 10
233.466
 20
80.3257
 30
0.0
 11
233.482
 21
80.2499
 31
0.0
  0
LINE
  8
0
 62
     0
 10
233.482
 20
80.2499
 30
0.0
 11
233.491
 21
80.1716
 31
0.0
  0
LINE
  8
0
 62
     0
 10
233.491
 20
80.1716
 30
0.0
 11
233.493
 21
80.0929
 31
0.0
  0
LINE
  8
0
 62
     0
 10
233.493
 20
80.0929
 30
0.0
 11
233.493
 21
1.09279
 31
0.0
  0
LINE
  8
0
 62
     0
 10
233.493
 20
1.09279
 30
0.0
 11
233.491
 21
1.01562
 31
0.0
  0
LINE
  8
0
 62
     0
 10
233.491
 20
1.01562
 30
0.0
 11
233.482
 21
0.937066
 31
0.0
  0
LINE
  8
0
 62
     0
 10
233.482
 20
0.937066
 30
0.0
 11
233.466
 21
0.859896
 31
0.0
  0
LINE
  8
0
 62
     0
 10
233.466
 20
0.859896
 30
0.0
 11
233.445
 21
0.784105
 31
0.0
  0
LINE
  8
0
 62
     0
 10
233.445
 20
0.784105
 30
0.0
 11
233.418
 21
0.70969
 31
0.0
  0
LINE
  8
0
 62
     0
 10
233.418
 20
0.70969
 30
0.0
 11
233.385
 21
0.63941
 31
0.0
  0
LINE
  8
0
 62
     0
 10
233.385
 20
0.63941
 30
0.0
 11
233.347
 21
0.571885
 31
0.0
  0
LINE
  8
0
 62
     0
 10
233.347
 20
0.571885
 30
0.0
 11
233.303
 21
0.505739
 31
0.0
  0
LINE
  8
0
 62
     0
 10
233.303
 20
0.505739
 30
0.0
 11
233.253
 21
0.443727
 31
0.0
  0
LINE
  8
0
 62
     0
 10
233.253
 20
0.443727
 30
0.0
 11
233.201
 21
0.385851
 31
0.0
  0
LINE
  8
0
 62
     0
 10
233.201
 20
0.385851
 30
0.0
 11
233.143
 21
0.333485
 31
0.0
  0
LINE
  8
0
 62
     0
 10
233.143
 20
0.333485
 30
0.0
 11
233.081
 21
0.283876
 31
0.0
  0
LINE
  8
0
 62
     0
 10
233.081
 20
0.283876
 30
0.0
 11
233.015
 21
0.239779
 31
0.0
  0
LINE
  8
0
 62
     0
 10
233.015
 20
0.239779
 30
0.0
 11
232.948
 21
0.202572
 31
0.0
  0
LINE
  8
0
 62
     0
 10
232.948
 20
0.202572
 30
0.0
 11
232.877
 21
0.169499
 31
0.0
  0
LINE
  8
0
 62
     0
 10
232.877
 20
0.169499
 30
0.0
 11
232.803
 21
0.141938
 31
0.0
  0
LINE
  8
0
 62
     0
 10
232.803
 20
0.141938
 30
0.0
 11
232.727
 21
0.121267
 31
0.0
  0
LINE
  8
0
 62
     0
 10
232.727
 20
0.121267
 30
0.0
 11
232.65
 21
0.104731
 31
0.0
  0
LINE
  8
0
 62
     0
 10
232.65
 20
0.104731
 30
0.0
 11
232.572
 21
0.0964629
 31
0.0
  0
LINE
  8
0
 62
     0
 10
232.572
 20
0.0964629
 30
0.0
 11
232.494
 21
0.0937066
 31
0.0
  0
LINE
  8
0
 62
     0
 10
232.494
 20
0.0937066
 30
0.0
 11
1.09416
 21
0.0937066
 31
0.0
  0
LINE
  8
0
 62
     0
 10
1.09416
 20
0.0937066
 30
0.0
 11
1.01562
 21
0.0964629
 31
0.0
  0
LINE
  8
0
 62
     0
 10
1.01562
 20
0.0964629
 30
0.0
 11
0.937066
 21
0.104731
 31
0.0
  0
LINE
  8
0
 62
     0
 10
0.937066
 20
0.104731
 30
0.0
 11
0.861275
 21
0.121267
 31
0.0
  0
LINE
  8
0
 62
     0
 10
0.861275
 20
0.121267
 30
0.0
 11
0.784105
 21
0.141938
 31
0.0
  0
LINE
  8
0
 62
     0
 10
0.784105
 20
0.141938
 30
0.0
 11
0.711069
 21
0.169499
 31
0.0
  0
LINE
  8
0
 62
     0
 10
0.711069
 20
0.169499
 30
0.0
 11
0.63941
 21
0.202572
 31
0.0
  0
LINE
  8
0
 62
     0
 10
0.63941
 20
0.202572
 30
0.0
 11
0.571885
 21
0.239779
 31
0.0
  0
LINE
  8
0
 62
     0
 10
0.571885
 20
0.239779
 30
0.0
 11
0.505739
 21
0.283876
 31
0.0
  0
LINE
  8
0
 62
     0
 10
0.505739
 20
0.283876
 30
0.0
 11
0.445107
 21
0.333485
 31
0.0
  0
LINE
  8
0
 62
     0
 10
0.445107
 20
0.333485
 30
0.0
 11
0.38723
 21
0.385851
 31
0.0
  0
LINE
  8
0
 62
     0
 10
0.38723
 20
0.385851
 30
0.0
 11
0.333485
 21
0.443727
 31
0.0
  0
LINE
  8
0
 62
     0
 10
0.333485
 20
0.443727
 30
0.0
 11
0.285254
 21
0.505739
 31
0.0
  0
LINE
  8
0
 62
     0
 10
0.285254
 20
0.505739
 30
0.0
 11
0.241157
 21
0.571885
 31
0.0
  0
LINE
  8
0
 62
     0
 10
0.241157
 20
0.571885
 30
0.0
 11
0.202572
 21
0.63941
 31
0.0
  0
LINE
  8
0
 62
     0
 10
0.202572
 20
0.63941
 30
0.0
 11
0.169499
 21
0.70969
 31
0.0
  0
LINE
  8
0
 62
     0
 10
0.169499
 20
0.70969
 30
0.0
 11
0.143316
 21
0.784105
 31
0.0
  0
LINE
  8
0
 62
     0
 10
0.143316
 20
0.784105
 30
0.0
 11
0.121267
 21
0.859896
 31
0.0
  0
LINE
  8
0
 62
     0
 10
0.121267
 20
0.859896
 30
0.0
 11
0.106109
 21
0.937066
 31
0.0
  0
LINE
  8
0
 62
     0
 10
0.106109
 20
0.937066
 30
0.0
 11
0.0964629
 21
1.01562
 31
0.0
  0
LINE
  8
0
 62
     0
 10
0.0964629
 20
1.01562
 30
0.0
 11
0.0937066
 21
1.09279
 31
0.0
  0
LINE
  8
0
 62
     0
 10
0.0937066
 20
1.09279
 30
0.0
 11
0.0937066
 21
80.0929
 31
0.0
  0
LINE
  8
0
 62
     0
 10
0.0937066
 20
80.0929
 30
0.0
 11
0.0964629
 21
80.1716
 31
0.0
  0
LINE
  8
0
 62
     0
 10
0.0964629
 20
80.1716
 30
0.0
 11
0.106109
 21
80.2499
 31
0.0
  0
LINE
  8
0
 62
     0
 10
0.106109
 20
80.2499
 30
0.0
 11
0.121267
 21
80.3257
 31
0.0
  0
LINE
  8
0
 62
     0
 10
0.121267
 20
80.3257
 30
0.0
 11
0.143316
 21
80.403
 31
0.0
  0
LINE
  8
0
 62
     0
 10
0.143316
 20
80.403
 30
0.0
 11
0.169499
 21
80.476
 31
0.0
  0
LINE
  8
0
 62
     0
 10
0.169499
 20
80.476
 30
0.0
 11
0.202572
 21
80.5476
 31
0.0
  0
LINE
  8
0
 62
     0
 10
0.202572
 20
80.5476
 30
0.0
 11
0.241157
 21
80.6154
 31
0.0
  0
LINE
  8
0
 62
     0
 10
0.241157
 20
80.6154
 30
0.0
 11
0.285254
 21
80.6813
 31
0.0
  0
LINE
  8
0
 62
     0
 10
0.285254
 20
80.6813
 30
0.0
 11
0.333485
 21
80.742
 31
0.0
  0
LINE
  8
0
 62
     0
 10
0.333485
 20
80.742
 30
0.0
 11
0.38723
 21
80.7999
 31
0.0
  0
LINE
  8
0
 62
     0
 10
0.38723
 20
80.7999
 30
0.0
 11
0.445107
 21
80.8535
 31
0.0
  0
LINE
  8
0
 62
     0
 10
0.445107
 20
80.8535
 30
0.0
 11
0.505739
 21
80.9018
 31
0.0
  0
LINE
  8
0
 62
     0
 10
0.505739
 20
80.9018
 30
0.0
 11
0.571885
 21
80.9459
 31
0.0
  0
LINE
  8
0
 62
     0
 10
0.571885
 20
80.9459
 30
0.0
 11
0.63941
 21
80.9847
 31
0.0
  0
LINE
  8
0
 62
     0
 10
0.63941
 20
80.9847
 30
0.0
 11
0.711069
 21
81.0175
 31
0.0
  0
LINE
  8
0
 62
     0
 10
0.711069
 20
81.0175
 30
0.0
 11
0.784105
 21
81.0436
 31
0.0
  0
LINE
  8
0
 62
     0
 10
0.784105
 20
81.0436
 30
0.0
 11
0.861275
 21
81.0659
 31
0.0
  0
LINE
  8
0
 62
     0
 10
0.861275
 20
81.0659
 30
0.0
 11
0.937066
 21
81.081
 31
0.0
  0
LINE
  8
0
 62
     0
 10
0.937066
 20
81.081
 30
0.0
 11
1.01562
 21
81.0906
 31
0.0
  0
LINE
  8
0
 62
     0
 10
1.01562
 20
81.0906
 30
0.0
 11
1.09416
 21
81.0934
 31
0.0
  0
LINE
  8
0
 62
     0
 10
1.09416
 20
81.0934
 30
0.0
 11
232.494
 21
81.0934
 31
0.0
  0
LINE
  8
0
 62
     0
 10
232.293
 20
80.3935
 30
0.0
 11
232.449
 21
80.3698
 31
0.0
  0
LINE
  8
0
 62
     0
 10
232.449
 20
80.3698
 30
0.0
 11
232.588
 21
80.2982
 31
0.0
  0
LINE
  8
0
 62
     0
 10
232.588
 20
80.2982
 30
0.0
 11
232.698
 21
80.1882
 31
0.0
  0
LINE
  8
0
 62
     0
 10
232.698
 20
80.1882
 30
0.0
 11
232.77
 21
80.0488
 31
0.0
  0
LINE
  8
0
 62
     0
 10
232.77
 20
80.0488
 30
0.0
 11
232.793
 21
79.8932
 31
0.0
  0
LINE
  8
0
 62
     0
 10
232.793
 20
79.8932
 30
0.0
 11
232.77
 21
79.7387
 31
0.0
  0
LINE
  8
0
 62
     0
 10
232.77
 20
79.7387
 30
0.0
 11
232.698
 21
79.5997
 31
0.0
  0
LINE
  8
0
 62
     0
 10
232.698
 20
79.5997
 30
0.0
 11
232.588
 21
79.4879
 31
0.0
  0
LINE
  8
0
 62
     0
 10
232.588
 20
79.4879
 30
0.0
 11
232.449
 21
79.4177
 31
0.0
  0
LINE
  8
0
 62
     0
 10
232.449
 20
79.4177
 30
0.0
 11
232.293
 21
79.393
 31
0.0
  0
LINE
  8
0
 62
     0
 10
232.293
 20
79.393
 30
0.0
 11
232.139
 21
79.4177
 31
0.0
  0
LINE
  8
0
 62
     0
 10
232.139
 20
79.4177
 30
0.0
 11
232
 21
79.4879
 31
0.0
  0
LINE
  8
0
 62
     0
 10
232
 20
79.4879
 30
0.0
 11
231.889
 21
79.5997
 31
0.0
  0
LINE
  8
0
 62
     0
 10
231.889
 20
79.5997
 30
0.0
 11
231.818
 21
79.7387
 31
0.0
  0
LINE
  8
0
 62
     0
 10
231.818
 20
79.7387
 30
0.0
 11
231.794
 21
79.8932
 31
0.0
  0
LINE
  8
0
 62
     0
 10
231.794
 20
79.8932
 30
0.0
 11
231.818
 21
80.0488
 31
0.0
  0
LINE
  8
0
 62
     0
 10
231.818
 20
80.0488
 30
0.0
 11
231.889
 21
80.1882
 31
0.0
  0
LINE
  8
0
 62
     0
 10
231.889
 20
80.1882
 30
0.0
 11
232
 21
80.2982
 31
0.0
  0
LINE
  8
0
 62
     0
 10
232
 20
80.2982
 30
0.0
 11
232.139
 21
80.3698
 31
0.0
  0
LINE
  8
0
 62
     0
 10
232.139
 20
80.3698
 30
0.0
 11
232.293
 21
80.3935
 31
0.0
  0
LINE
  8
0
 62
     0
 10
232.293
 20
1.79283
 30
0.0
 11
232.449
 21
1.7694
 31
0.0
  0
LINE
  8
0
 62
     0
 10
232.449
 20
1.7694
 30
0.0
 11
232.588
 21
1.69774
 31
0.0
  0
LINE
  8
0
 62
     0
 10
232.588
 20
1.69774
 30
0.0
 11
232.698
 21
1.5875
 31
0.0
  0
LINE
  8
0
 62
     0
 10
232.698
 20
1.5875
 30
0.0
 11
232.77
 21
1.44832
 31
0.0
  0
LINE
  8
0
 62
     0
 10
232.77
 20
1.44832
 30
0.0
 11
232.793
 21
1.29398
 31
0.0
  0
LINE
  8
0
 62
     0
 10
232.793
 20
1.29398
 30
0.0
 11
232.77
 21
1.13826
 31
0.0
  0
LINE
  8
0
 62
     0
 10
232.77
 20
1.13826
 30
0.0
 11
232.698
 21
0.999077
 31
0.0
  0
LINE
  8
0
 62
     0
 10
232.698
 20
0.999077
 30
0.0
 11
232.588
 21
0.888834
 31
0.0
  0
LINE
  8
0
 62
     0
 10
232.588
 20
0.888834
 30
0.0
 11
232.449
 21
0.817178
 31
0.0
  0
LINE
  8
0
 62
     0
 10
232.449
 20
0.817178
 30
0.0
 11
232.293
 21
0.79375
 31
0.0
  0
LINE
  8
0
 62
     0
 10
232.293
 20
0.79375
 30
0.0
 11
232.139
 21
0.817178
 31
0.0
  0
LINE
  8
0
 62
     0
 10
232.139
 20
0.817178
 30
0.0
 11
232
 21
0.888834
 31
0.0
  0
LINE
  8
0
 62
     0
 10
232
 20
0.888834
 30
0.0
 11
231.889
 21
0.999077
 31
0.0
  0
LINE
  8
0
 62
     0
 10
231.889
 20
0.999077
 30
0.0
 11
231.818
 21
1.13826
 31
0.0
  0
LINE
  8
0
 62
     0
 10
231.818
 20
1.13826
 30
0.0
 11
231.794
 21
1.29398
 31
0.0
  0
LINE
  8
0
 62
     0
 10
231.794
 20
1.29398
 30
0.0
 11
231.818
 21
1.44832
 31
0.0
  0
LINE
  8
0
 62
     0
 10
231.818
 20
1.44832
 30
0.0
 11
231.889
 21
1.5875
 31
0.0
  0
LINE
  8
0
 62
     0
 10
231.889
 20
1.5875
 30
0.0
 11
232
 21
1.69774
 31
0.0
  0
LINE
  8
0
 62
     0
 10
232
 20
1.69774
 30
0.0
 11
232.139
 21
1.7694
 31
0.0
  0
LINE
  8
0
 62
     0
 10
232.139
 20
1.7694
 30
0.0
 11
232.293
 21
1.79283
 31
0.0
  0
LINE
  8
0
 62
     0
 10
1.29398
 20
1.79283
 30
0.0
 11
1.44832
 21
1.7694
 31
0.0
  0
LINE
  8
0
 62
     0
 10
1.44832
 20
1.7694
 30
0.0
 11
1.5875
 21
1.69774
 31
0.0
  0
LINE
  8
0
 62
     0
 10
1.5875
 20
1.69774
 30
0.0
 11
1.69912
 21
1.5875
 31
0.0
  0
LINE
  8
0
 62
     0
 10
1.69912
 20
1.5875
 30
0.0
 11
1.7694
 21
1.44832
 31
0.0
  0
LINE
  8
0
 62
     0
 10
1.7694
 20
1.44832
 30
0.0
 11
1.79421
 21
1.29398
 31
0.0
  0
LINE
  8
0
 62
     0
 10
1.79421
 20
1.29398
 30
0.0
 11
1.7694
 21
1.13826
 31
0.0
  0
LINE
  8
0
 62
     0
 10
1.7694
 20
1.13826
 30
0.0
 11
1.69912
 21
0.999077
 31
0.0
  0
LINE
  8
0
 62
     0
 10
1.69912
 20
0.999077
 30
0.0
 11
1.5875
 21
0.888834
 31
0.0
  0
LINE
  8
0
 62
     0
 10
1.5875
 20
0.888834
 30
0.0
 11
1.44832
 21
0.817178
 31
0.0
  0
LINE
  8
0
 62
     0
 10
1.44832
 20
0.817178
 30
0.0
 11
1.29398
 21
0.79375
 31
0.0
  0
LINE
  8
0
 62
     0
 10
1.29398
 20
0.79375
 30
0.0
 11
1.13826
 21
0.817178
 31
0.0
  0
LINE
  8
0
 62
     0
 10
1.13826
 20
0.817178
 30
0.0
 11
0.999077
 21
0.888834
 31
0.0
  0
LINE
  8
0
 62
     0
 10
0.999077
 20
0.888834
 30
0.0
 11
0.888834
 21
0.999077
 31
0.0
  0
LINE
  8
0
 62
     0
 10
0.888834
 20
0.999077
 30
0.0
 11
0.817178
 21
1.13826
 31
0.0
  0
LINE
  8
0
 62
     0
 10
0.817178
 20
1.13826
 30
0.0
 11
0.79375
 21
1.29398
 31
0.0
  0
LINE
  8
0
 62
     0
 10
0.79375
 20
1.29398
 30
0.0
 11
0.817178
 21
1.44832
 31
0.0
  0
LINE
  8
0
 62
     0
 10
0.817178
 20
1.44832
 30
0.0
 11
0.888834
 21
1.5875
 31
0.0
  0
LINE
  8
0
 62
     0
 10
0.888834
 20
1.5875
 30
0.0
 11
0.999077
 21
1.69774
 31
0.0
  0
LINE
  8
0
 62
     0
 10
0.999077
 20
1.69774
 30
0.0
 11
1.13826
 21
1.7694
 31
0.0
  0
LINE
  8
0
 62
     0
 10
1.13826
 20
1.7694
 30
0.0
 11
1.29398
 21
1.79283
 31
0.0
  0
LINE
  8
0
 62
     0
 10
1.29398
 20
80.3935
 30
0.0
 11
1.44832
 21
80.3698
 31
0.0
  0
LINE
  8
0
 62
     0
 10
1.44832
 20
80.3698
 30
0.0
 11
1.5875
 21
80.2982
 31
0.0
  0
LINE
  8
0
 62
     0
 10
1.5875
 20
80.2982
 30
0.0
 11
1.69912
 21
80.1882
 31
0.0
  0
LINE
  8
0
 62
     0
 10
1.69912
 20
80.1882
 30
0.0
 11
1.7694
 21
80.0488
 31
0.0
  0
LINE
  8
0
 62
     0
 10
1.7694
 20
80.0488
 30
0.0
 11
1.79421
 21
79.8932
 31
0.0
  0
LINE
  8
0
 62
     0
 10
1.79421
 20
79.8932
 30
0.0
 11
1.7694
 21
79.7387
 31
0.0
  0
LINE
  8
0
 62
     0
 10
1.7694
 20
79.7387
 30
0.0
 11
1.69912
 21
79.5997
 31
0.0
  0
LINE
  8
0
 62
     0
 10
1.69912
 20
79.5997
 30
0.0
 11
1.5875
 21
79.4879
 31
0.0
  0
LINE
  8
0
 62
     0
 10
1.5875
 20
79.4879
 30
0.0
 11
1.44832
 21
79.4177
 31
0.0
  0
LINE
  8
0
 62
     0
 10
1.44832
 20
79.4177
 30
0.0
 11
1.29398
 21
79.393
 31
0.0
  0
LINE
  8
0
 62
     0
 10
1.29398
 20
79.393
 30
0.0
 11
1.13826
 21
79.4177
 31
0.0
  0
LINE
  8
0
 62
     0
 10
1.13826
 20
79.4177
 30
0.0
 11
0.999077
 21
79.4879
 31
0.0
  0
LINE
  8
0
 62
     0
 10
0.999077
 20
79.4879
 30
0.0
 11
0.888834
 21
79.5997
 31
0.0
  0
LINE
  8
0
 62
     0
 10
0.888834
 20
79.5997
 30
0.0
 11
0.817178
 21
79.7387
 31
0.0
  0
LINE
  8
0
 62
     0
 10
0.817178
 20
79.7387
 30
0.0
 11
0.79375
 21
79.8932
 31
0.0
  0
LINE
  8
0
 62
     0
 10
0.79375
 20
79.8932
 30
0.0
 11
0.817178
 21
80.0488
 31
0.0
  0
LINE
  8
0
 62
     0
 10
0.817178
 20
80.0488
 30
0.0
 11
0.888834
 21
80.1882
 31
0.0
  0
LINE
  8
0
 62
     0
 10
0.888834
 20
80.1882
 30
0.0
 11
0.999077
 21
80.2982
 31
0.0
  0
LINE
  8
0
 62
     0
 10
0.999077
 20
80.2982
 30
0.0
 11
1.13826
 21
80.3698
 31
0.0
  0
LINE
  8
0
 62
     0
 10
1.13826
 20
80.3698
 30
0.0
 11
1.29398
 21
80.3935
 31
0.0
  0
ENDSEC
  0
EOF
