  0
SECTION
  2
HEADER
  9
$ACADVER
  1
AC1009
  9
$EXTMIN
 10
0.0
 20
0.0
 30
0.0
  9
$EXTMAX
 10
1000.0
 20
1000.0
 30
0.0
  9
$FILLMODE
 70
 0
  9
$SPLFRAME
 70
 1
  0
ENDSEC
  0
SECTION
  2
TABLES
  0
TABLE
  2
LAYER
 70
1
  0
LAYER
  2
0
 70
     0
 62
     7
  6
CONTINUOUS
  0
ENDTAB
  0
ENDSEC
  0
SECTION
  2
ENTITIES
  0
LINE
  8
0
 62
     0
 10
230.094
 20
78.6874
 30
0.0
 11
230.172
 21
78.6846
 31
0.0
  0
LINE
  8
0
 62
     0
 10
230.172
 20
78.6846
 30
0.0
 11
230.25
 21
78.6751
 31
0.0
  0
LINE
  8
0
 62
     0
 10
230.25
 20
78.6751
 30
0.0
 11
230.327
 21
78.6599
 31
0.0
  0
LINE
  8
0
 62
     0
 10
230.327
 20
78.6599
 30
0.0
 11
230.402
 21
78.6377
 31
0.0
  0
LINE
  8
0
 62
     0
 10
230.402
 20
78.6377
 30
0.0
 11
230.477
 21
78.6116
 31
0.0
  0
LINE
  8
0
 62
     0
 10
230.477
 20
78.6116
 30
0.0
 11
230.547
 21
78.5784
 31
0.0
  0
LINE
  8
0
 62
     0
 10
230.547
 20
78.5784
 30
0.0
 11
230.616
 21
78.54
 31
0.0
  0
LINE
  8
0
 62
     0
 10
230.616
 20
78.54
 30
0.0
 11
230.682
 21
78.4959
 31
0.0
  0
LINE
  8
0
 62
     0
 10
230.682
 20
78.4959
 30
0.0
 11
230.743
 21
78.4475
 31
0.0
  0
LINE
  8
0
 62
     0
 10
230.743
 20
78.4475
 30
0.0
 11
230.801
 21
78.3939
 31
0.0
  0
LINE
  8
0
 62
     0
 10
230.801
 20
78.3939
 30
0.0
 11
230.853
 21
78.3361
 31
0.0
  0
LINE
  8
0
 62
     0
 10
230.853
 20
78.3361
 30
0.0
 11
230.903
 21
78.2754
 31
0.0
  0
LINE
  8
0
 62
     0
 10
230.903
 20
78.2754
 30
0.0
 11
230.947
 21
78.2091
 31
0.0
  0
LINE
  8
0
 62
     0
 10
230.947
 20
78.2091
 30
0.0
 11
230.985
 21
78.1417
 31
0.0
  0
LINE
  8
0
 62
     0
 10
230.985
 20
78.1417
 30
0.0
 11
231.017
 21
78.0701
 31
0.0
  0
LINE
  8
0
 62
     0
 10
231.017
 20
78.0701
 30
0.0
 11
231.045
 21
77.997
 31
0.0
  0
LINE
  8
0
 62
     0
 10
231.045
 20
77.997
 30
0.0
 11
231.065
 21
77.9198
 31
0.0
  0
LINE
  8
0
 62
     0
 10
231.065
 20
77.9198
 30
0.0
 11
231.082
 21
77.8439
 31
0.0
  0
LINE
  8
0
 62
     0
 10
231.082
 20
77.8439
 30
0.0
 11
231.09
 21
77.7656
 31
0.0
  0
LINE
  8
0
 62
     0
 10
231.09
 20
77.7656
 30
0.0
 11
231.094
 21
77.687
 31
0.0
  0
LINE
  8
0
 62
     0
 10
231.094
 20
77.687
 30
0.0
 11
231.094
 21
1.08727
 31
0.0
  0
LINE
  8
0
 62
     0
 10
231.094
 20
1.08727
 30
0.0
 11
231.09
 21
1.00873
 31
0.0
  0
LINE
  8
0
 62
     0
 10
231.09
 20
1.00873
 30
0.0
 11
231.082
 21
0.931556
 31
0.0
  0
LINE
  8
0
 62
     0
 10
231.082
 20
0.931556
 30
0.0
 11
231.065
 21
0.854385
 31
0.0
  0
LINE
  8
0
 62
     0
 10
231.065
 20
0.854385
 30
0.0
 11
231.045
 21
0.778591
 31
0.0
  0
LINE
  8
0
 62
     0
 10
231.045
 20
0.778591
 30
0.0
 11
231.017
 21
0.704176
 31
0.0
  0
LINE
  8
0
 62
     0
 10
231.017
 20
0.704176
 30
0.0
 11
230.985
 21
0.633899
 31
0.0
  0
LINE
  8
0
 62
     0
 10
230.985
 20
0.633899
 30
0.0
 11
230.947
 21
0.564995
 31
0.0
  0
LINE
  8
0
 62
     0
 10
230.947
 20
0.564995
 30
0.0
 11
230.903
 21
0.498849
 31
0.0
  0
LINE
  8
0
 62
     0
 10
230.903
 20
0.498849
 30
0.0
 11
230.853
 21
0.438217
 31
0.0
  0
LINE
  8
0
 62
     0
 10
230.853
 20
0.438217
 30
0.0
 11
230.801
 21
0.38034
 31
0.0
  0
LINE
  8
0
 62
     0
 10
230.801
 20
0.38034
 30
0.0
 11
230.743
 21
0.327973
 31
0.0
  0
LINE
  8
0
 62
     0
 10
230.743
 20
0.327973
 30
0.0
 11
230.682
 21
0.278364
 31
0.0
  0
LINE
  8
0
 62
     0
 10
230.682
 20
0.278364
 30
0.0
 11
230.616
 21
0.234267
 31
0.0
  0
LINE
  8
0
 62
     0
 10
230.616
 20
0.234267
 30
0.0
 11
230.547
 21
0.195682
 31
0.0
  0
LINE
  8
0
 62
     0
 10
230.547
 20
0.195682
 30
0.0
 11
230.477
 21
0.163987
 31
0.0
  0
LINE
  8
0
 62
     0
 10
230.477
 20
0.163987
 30
0.0
 11
230.402
 21
0.136426
 31
0.0
  0
LINE
  8
0
 62
     0
 10
230.402
 20
0.136426
 30
0.0
 11
230.327
 21
0.115755
 31
0.0
  0
LINE
  8
0
 62
     0
 10
230.327
 20
0.115755
 30
0.0
 11
230.25
 21
0.0992188
 31
0.0
  0
LINE
  8
0
 62
     0
 10
230.25
 20
0.0992188
 30
0.0
 11
230.172
 21
0.0909507
 31
0.0
  0
LINE
  8
0
 62
     0
 10
230.172
 20
0.0909507
 30
0.0
 11
230.094
 21
0.0868165
 31
0.0
  0
LINE
  8
0
 62
     0
 10
230.094
 20
0.0868165
 30
0.0
 11
1.09416
 21
0.0868165
 31
0.0
  0
LINE
  8
0
 62
     0
 10
1.09416
 20
0.0868165
 30
0.0
 11
1.01562
 21
0.0909507
 31
0.0
  0
LINE
  8
0
 62
     0
 10
1.01562
 20
0.0909507
 30
0.0
 11
0.937066
 21
0.0992188
 31
0.0
  0
LINE
  8
0
 62
     0
 10
0.937066
 20
0.0992188
 30
0.0
 11
0.861275
 21
0.115755
 31
0.0
  0
LINE
  8
0
 62
     0
 10
0.861275
 20
0.115755
 30
0.0
 11
0.784105
 21
0.136426
 31
0.0
  0
LINE
  8
0
 62
     0
 10
0.784105
 20
0.136426
 30
0.0
 11
0.711069
 21
0.163987
 31
0.0
  0
LINE
  8
0
 62
     0
 10
0.711069
 20
0.163987
 30
0.0
 11
0.63941
 21
0.195682
 31
0.0
  0
LINE
  8
0
 62
     0
 10
0.63941
 20
0.195682
 30
0.0
 11
0.571885
 21
0.234267
 31
0.0
  0
LINE
  8
0
 62
     0
 10
0.571885
 20
0.234267
 30
0.0
 11
0.505739
 21
0.278364
 31
0.0
  0
LINE
  8
0
 62
     0
 10
0.505739
 20
0.278364
 30
0.0
 11
0.445107
 21
0.327973
 31
0.0
  0
LINE
  8
0
 62
     0
 10
0.445107
 20
0.327973
 30
0.0
 11
0.38723
 21
0.38034
 31
0.0
  0
LINE
  8
0
 62
     0
 10
0.38723
 20
0.38034
 30
0.0
 11
0.333485
 21
0.438217
 31
0.0
  0
LINE
  8
0
 62
     0
 10
0.333485
 20
0.438217
 30
0.0
 11
0.285254
 21
0.498849
 31
0.0
  0
LINE
  8
0
 62
     0
 10
0.285254
 20
0.498849
 30
0.0
 11
0.241157
 21
0.564995
 31
0.0
  0
LINE
  8
0
 62
     0
 10
0.241157
 20
0.564995
 30
0.0
 11
0.202572
 21
0.633899
 31
0.0
  0
LINE
  8
0
 62
     0
 10
0.202572
 20
0.633899
 30
0.0
 11
0.169499
 21
0.704176
 31
0.0
  0
LINE
  8
0
 62
     0
 10
0.169499
 20
0.704176
 30
0.0
 11
0.143316
 21
0.778591
 31
0.0
  0
LINE
  8
0
 62
     0
 10
0.143316
 20
0.778591
 30
0.0
 11
0.121267
 21
0.854385
 31
0.0
  0
LINE
  8
0
 62
     0
 10
0.121267
 20
0.854385
 30
0.0
 11
0.106109
 21
0.931556
 31
0.0
  0
LINE
  8
0
 62
     0
 10
0.106109
 20
0.931556
 30
0.0
 11
0.0964629
 21
1.00873
 31
0.0
  0
LINE
  8
0
 62
     0
 10
0.0964629
 20
1.00873
 30
0.0
 11
0.0937066
 21
1.08727
 31
0.0
  0
LINE
  8
0
 62
     0
 10
0.0937066
 20
1.08727
 30
0.0
 11
0.0937066
 21
77.687
 31
0.0
  0
LINE
  8
0
 62
     0
 10
0.0937066
 20
77.687
 30
0.0
 11
0.0964629
 21
77.7656
 31
0.0
  0
LINE
  8
0
 62
     0
 10
0.0964629
 20
77.7656
 30
0.0
 11
0.106109
 21
77.8439
 31
0.0
  0
LINE
  8
0
 62
     0
 10
0.106109
 20
77.8439
 30
0.0
 11
0.121267
 21
77.9198
 31
0.0
  0
LINE
  8
0
 62
     0
 10
0.121267
 20
77.9198
 30
0.0
 11
0.143316
 21
77.997
 31
0.0
  0
LINE
  8
0
 62
     0
 10
0.143316
 20
77.997
 30
0.0
 11
0.169499
 21
78.0701
 31
0.0
  0
LINE
  8
0
 62
     0
 10
0.169499
 20
78.0701
 30
0.0
 11
0.202572
 21
78.1417
 31
0.0
  0
LINE
  8
0
 62
     0
 10
0.202572
 20
78.1417
 30
0.0
 11
0.241157
 21
78.2091
 31
0.0
  0
LINE
  8
0
 62
     0
 10
0.241157
 20
78.2091
 30
0.0
 11
0.285254
 21
78.2754
 31
0.0
  0
LINE
  8
0
 62
     0
 10
0.285254
 20
78.2754
 30
0.0
 11
0.333485
 21
78.3361
 31
0.0
  0
LINE
  8
0
 62
     0
 10
0.333485
 20
78.3361
 30
0.0
 11
0.38723
 21
78.3939
 31
0.0
  0
LINE
  8
0
 62
     0
 10
0.38723
 20
78.3939
 30
0.0
 11
0.445107
 21
78.4475
 31
0.0
  0
LINE
  8
0
 62
     0
 10
0.445107
 20
78.4475
 30
0.0
 11
0.505739
 21
78.4959
 31
0.0
  0
LINE
  8
0
 62
     0
 10
0.505739
 20
78.4959
 30
0.0
 11
0.571885
 21
78.54
 31
0.0
  0
LINE
  8
0
 62
     0
 10
0.571885
 20
78.54
 30
0.0
 11
0.63941
 21
78.5784
 31
0.0
  0
LINE
  8
0
 62
     0
 10
0.63941
 20
78.5784
 30
0.0
 11
0.711069
 21
78.6116
 31
0.0
  0
LINE
  8
0
 62
     0
 10
0.711069
 20
78.6116
 30
0.0
 11
0.784105
 21
78.6377
 31
0.0
  0
LINE
  8
0
 62
     0
 10
0.784105
 20
78.6377
 30
0.0
 11
0.861275
 21
78.6599
 31
0.0
  0
LINE
  8
0
 62
     0
 10
0.861275
 20
78.6599
 30
0.0
 11
0.937066
 21
78.6751
 31
0.0
  0
LINE
  8
0
 62
     0
 10
0.937066
 20
78.6751
 30
0.0
 11
1.01562
 21
78.6846
 31
0.0
  0
LINE
  8
0
 62
     0
 10
1.01562
 20
78.6846
 30
0.0
 11
1.09416
 21
78.6874
 31
0.0
  0
LINE
  8
0
 62
     0
 10
1.09416
 20
78.6874
 30
0.0
 11
230.094
 21
78.6874
 31
0.0
  0
LINE
  8
0
 62
     0
 10
1.29398
 20
77.4869
 30
0.0
 11
229.894
 21
77.4869
 31
0.0
  0
LINE
  8
0
 62
     0
 10
229.894
 20
77.4869
 30
0.0
 11
229.894
 21
1.28709
 31
0.0
  0
LINE
  8
0
 62
     0
 10
229.894
 20
1.28709
 30
0.0
 11
1.29398
 21
1.28709
 31
0.0
  0
LINE
  8
0
 62
     0
 10
1.29398
 20
1.28709
 30
0.0
 11
1.29398
 21
77.4869
 31
0.0
  0
LINE
  8
0
 62
     0
 10
230.493
 20
78.5869
 30
0.0
 11
230.649
 21
78.5633
 31
0.0
  0
LINE
  8
0
 62
     0
 10
230.649
 20
78.5633
 30
0.0
 11
230.788
 21
78.4916
 31
0.0
  0
LINE
  8
0
 62
     0
 10
230.788
 20
78.4916
 30
0.0
 11
230.899
 21
78.3816
 31
0.0
  0
LINE
  8
0
 62
     0
 10
230.899
 20
78.3816
 30
0.0
 11
230.97
 21
78.2422
 31
0.0
  0
LINE
  8
0
 62
     0
 10
230.97
 20
78.2422
 30
0.0
 11
230.994
 21
78.0881
 31
0.0
  0
LINE
  8
0
 62
     0
 10
230.994
 20
78.0881
 30
0.0
 11
230.97
 21
77.9321
 31
0.0
  0
LINE
  8
0
 62
     0
 10
230.97
 20
77.9321
 30
0.0
 11
230.899
 21
77.7931
 31
0.0
  0
LINE
  8
0
 62
     0
 10
230.899
 20
77.7931
 30
0.0
 11
230.788
 21
77.6827
 31
0.0
  0
LINE
  8
0
 62
     0
 10
230.788
 20
77.6827
 30
0.0
 11
230.649
 21
77.6111
 31
0.0
  0
LINE
  8
0
 62
     0
 10
230.649
 20
77.6111
 30
0.0
 11
230.493
 21
77.5878
 31
0.0
  0
LINE
  8
0
 62
     0
 10
230.493
 20
77.5878
 30
0.0
 11
230.339
 21
77.6111
 31
0.0
  0
LINE
  8
0
 62
     0
 10
230.339
 20
77.6111
 30
0.0
 11
230.2
 21
77.6827
 31
0.0
  0
LINE
  8
0
 62
     0
 10
230.2
 20
77.6827
 30
0.0
 11
230.088
 21
77.7931
 31
0.0
  0
LINE
  8
0
 62
     0
 10
230.088
 20
77.7931
 30
0.0
 11
230.018
 21
77.9321
 31
0.0
  0
LINE
  8
0
 62
     0
 10
230.018
 20
77.9321
 30
0.0
 11
229.993
 21
78.0881
 31
0.0
  0
LINE
  8
0
 62
     0
 10
229.993
 20
78.0881
 30
0.0
 11
230.018
 21
78.2422
 31
0.0
  0
LINE
  8
0
 62
     0
 10
230.018
 20
78.2422
 30
0.0
 11
230.088
 21
78.3816
 31
0.0
  0
LINE
  8
0
 62
     0
 10
230.088
 20
78.3816
 30
0.0
 11
230.2
 21
78.4916
 31
0.0
  0
LINE
  8
0
 62
     0
 10
230.2
 20
78.4916
 30
0.0
 11
230.339
 21
78.5633
 31
0.0
  0
LINE
  8
0
 62
     0
 10
230.339
 20
78.5633
 30
0.0
 11
230.493
 21
78.5869
 31
0.0
  0
LINE
  8
0
 62
     0
 10
230.493
 20
1.18787
 30
0.0
 11
230.649
 21
1.16307
 31
0.0
  0
LINE
  8
0
 62
     0
 10
230.649
 20
1.16307
 30
0.0
 11
230.788
 21
1.09279
 31
0.0
  0
LINE
  8
0
 62
     0
 10
230.788
 20
1.09279
 30
0.0
 11
230.899
 21
0.981163
 31
0.0
  0
LINE
  8
0
 62
     0
 10
230.899
 20
0.981163
 30
0.0
 11
230.97
 21
0.841982
 31
0.0
  0
LINE
  8
0
 62
     0
 10
230.97
 20
0.841982
 30
0.0
 11
230.994
 21
0.687641
 31
0.0
  0
LINE
  8
0
 62
     0
 10
230.994
 20
0.687641
 30
0.0
 11
230.97
 21
0.531922
 31
0.0
  0
LINE
  8
0
 62
     0
 10
230.97
 20
0.531922
 30
0.0
 11
230.899
 21
0.39274
 31
0.0
  0
LINE
  8
0
 62
     0
 10
230.899
 20
0.39274
 30
0.0
 11
230.788
 21
0.282498
 31
0.0
  0
LINE
  8
0
 62
     0
 10
230.788
 20
0.282498
 30
0.0
 11
230.649
 21
0.21084
 31
0.0
  0
LINE
  8
0
 62
     0
 10
230.649
 20
0.21084
 30
0.0
 11
230.493
 21
0.187413
 31
0.0
  0
LINE
  8
0
 62
     0
 10
230.493
 20
0.187413
 30
0.0
 11
230.339
 21
0.21084
 31
0.0
  0
LINE
  8
0
 62
     0
 10
230.339
 20
0.21084
 30
0.0
 11
230.2
 21
0.282498
 31
0.0
  0
LINE
  8
0
 62
     0
 10
230.2
 20
0.282498
 30
0.0
 11
230.088
 21
0.39274
 31
0.0
  0
LINE
  8
0
 62
     0
 10
230.088
 20
0.39274
 30
0.0
 11
230.018
 21
0.531922
 31
0.0
  0
LINE
  8
0
 62
     0
 10
230.018
 20
0.531922
 30
0.0
 11
229.993
 21
0.687641
 31
0.0
  0
LINE
  8
0
 62
     0
 10
229.993
 20
0.687641
 30
0.0
 11
230.018
 21
0.841982
 31
0.0
  0
LINE
  8
0
 62
     0
 10
230.018
 20
0.841982
 30
0.0
 11
230.088
 21
0.981163
 31
0.0
  0
LINE
  8
0
 62
     0
 10
230.088
 20
0.981163
 30
0.0
 11
230.2
 21
1.09279
 31
0.0
  0
LINE
  8
0
 62
     0
 10
230.2
 20
1.09279
 30
0.0
 11
230.339
 21
1.16307
 31
0.0
  0
LINE
  8
0
 62
     0
 10
230.339
 20
1.16307
 30
0.0
 11
230.493
 21
1.18787
 31
0.0
  0
LINE
  8
0
 62
     0
 10
0.693152
 20
1.18787
 30
0.0
 11
0.848872
 21
1.16307
 31
0.0
  0
LINE
  8
0
 62
     0
 10
0.848872
 20
1.16307
 30
0.0
 11
0.988053
 21
1.09279
 31
0.0
  0
LINE
  8
0
 62
     0
 10
0.988053
 20
1.09279
 30
0.0
 11
1.0983
 21
0.981163
 31
0.0
  0
LINE
  8
0
 62
     0
 10
1.0983
 20
0.981163
 30
0.0
 11
1.16996
 21
0.841982
 31
0.0
  0
LINE
  8
0
 62
     0
 10
1.16996
 20
0.841982
 30
0.0
 11
1.19338
 21
0.687641
 31
0.0
  0
LINE
  8
0
 62
     0
 10
1.19338
 20
0.687641
 30
0.0
 11
1.16996
 21
0.531922
 31
0.0
  0
LINE
  8
0
 62
     0
 10
1.16996
 20
0.531922
 30
0.0
 11
1.0983
 21
0.39274
 31
0.0
  0
LINE
  8
0
 62
     0
 10
1.0983
 20
0.39274
 30
0.0
 11
0.988053
 21
0.282498
 31
0.0
  0
LINE
  8
0
 62
     0
 10
0.988053
 20
0.282498
 30
0.0
 11
0.848872
 21
0.21084
 31
0.0
  0
LINE
  8
0
 62
     0
 10
0.848872
 20
0.21084
 30
0.0
 11
0.693152
 21
0.187413
 31
0.0
  0
LINE
  8
0
 62
     0
 10
0.693152
 20
0.187413
 30
0.0
 11
0.538812
 21
0.21084
 31
0.0
  0
LINE
  8
0
 62
     0
 10
0.538812
 20
0.21084
 30
0.0
 11
0.39963
 21
0.282498
 31
0.0
  0
LINE
  8
0
 62
     0
 10
0.39963
 20
0.282498
 30
0.0
 11
0.289388
 21
0.39274
 31
0.0
  0
LINE
  8
0
 62
     0
 10
0.289388
 20
0.39274
 30
0.0
 11
0.21773
 21
0.531922
 31
0.0
  0
LINE
  8
0
 62
     0
 10
0.21773
 20
0.531922
 30
0.0
 11
0.194303
 21
0.687641
 31
0.0
  0
LINE
  8
0
 62
     0
 10
0.194303
 20
0.687641
 30
0.0
 11
0.21773
 21
0.841982
 31
0.0
  0
LINE
  8
0
 62
     0
 10
0.21773
 20
0.841982
 30
0.0
 11
0.289388
 21
0.981163
 31
0.0
  0
LINE
  8
0
 62
     0
 10
0.289388
 20
0.981163
 30
0.0
 11
0.39963
 21
1.09279
 31
0.0
  0
LINE
  8
0
 62
     0
 10
0.39963
 20
1.09279
 30
0.0
 11
0.538812
 21
1.16307
 31
0.0
  0
LINE
  8
0
 62
     0
 10
0.538812
 20
1.16307
 30
0.0
 11
0.693152
 21
1.18787
 31
0.0
  0
LINE
  8
0
 62
     0
 10
0.693152
 20
78.5869
 30
0.0
 11
0.848872
 21
78.5633
 31
0.0
  0
LINE
  8
0
 62
     0
 10
0.848872
 20
78.5633
 30
0.0
 11
0.988053
 21
78.4916
 31
0.0
  0
LINE
  8
0
 62
     0
 10
0.988053
 20
78.4916
 30
0.0
 11
1.0983
 21
78.3816
 31
0.0
  0
LINE
  8
0
 62
     0
 10
1.0983
 20
78.3816
 30
0.0
 11
1.16996
 21
78.2422
 31
0.0
  0
LINE
  8
0
 62
     0
 10
1.16996
 20
78.2422
 30
0.0
 11
1.19338
 21
78.0881
 31
0.0
  0
LINE
  8
0
 62
     0
 10
1.19338
 20
78.0881
 30
0.0
 11
1.16996
 21
77.9321
 31
0.0
  0
LINE
  8
0
 62
     0
 10
1.16996
 20
77.9321
 30
0.0
 11
1.0983
 21
77.7931
 31
0.0
  0
LINE
  8
0
 62
     0
 10
1.0983
 20
77.7931
 30
0.0
 11
0.988053
 21
77.6827
 31
0.0
  0
LINE
  8
0
 62
     0
 10
0.988053
 20
77.6827
 30
0.0
 11
0.848872
 21
77.6111
 31
0.0
  0
LINE
  8
0
 62
     0
 10
0.848872
 20
77.6111
 30
0.0
 11
0.693152
 21
77.5878
 31
0.0
  0
LINE
  8
0
 62
     0
 10
0.693152
 20
77.5878
 30
0.0
 11
0.538812
 21
77.6111
 31
0.0
  0
LINE
  8
0
 62
     0
 10
0.538812
 20
77.6111
 30
0.0
 11
0.39963
 21
77.6827
 31
0.0
  0
LINE
  8
0
 62
     0
 10
0.39963
 20
77.6827
 30
0.0
 11
0.289388
 21
77.7931
 31
0.0
  0
LINE
  8
0
 62
     0
 10
0.289388
 20
77.7931
 30
0.0
 11
0.21773
 21
77.9321
 31
0.0
  0
LINE
  8
0
 62
     0
 10
0.21773
 20
77.9321
 30
0.0
 11
0.194303
 21
78.0881
 31
0.0
  0
LINE
  8
0
 62
     0
 10
0.194303
 20
78.0881
 30
0.0
 11
0.21773
 21
78.2422
 31
0.0
  0
LINE
  8
0
 62
     0
 10
0.21773
 20
78.2422
 30
0.0
 11
0.289388
 21
78.3816
 31
0.0
  0
LINE
  8
0
 62
     0
 10
0.289388
 20
78.3816
 30
0.0
 11
0.39963
 21
78.4916
 31
0.0
  0
LINE
  8
0
 62
     0
 10
0.39963
 20
78.4916
 30
0.0
 11
0.538812
 21
78.5633
 31
0.0
  0
LINE
  8
0
 62
     0
 10
0.538812
 20
78.5633
 30
0.0
 11
0.693152
 21
78.5869
 31
0.0
  0
ENDSEC
  0
EOF
