0
SECTION
2
HEADER
9
$INSUNITS
70
4
9
$ACADVER
1
AC1014
9
$HANDSEED
5
FFFF
0
ENDSEC
0
SECTION
2
TABLES
0
TABLE
2
VPORT
5
8
100
AcDbSymbolTable
0
ENDTAB
0
TABLE
2
LTYPE
5
5
100
AcDbSymbolTable
0
LTYPE
5
14
100
AcDbSymbolTableRecord
100
AcDbLinetypeTableRecord
2
BYBLOCK
70
0
0
LTYPE
5
15
100
AcDbSymbolTableRecord
100
AcDbLinetypeTableRecord
2
BYLAYER
70
0
0
ENDTAB
0
TABLE
2
LAYER
5
2
100
AcDbSymbolTable
70
2
0
LAYER
5
50
100
AcDbSymbolTableRecord
100
AcDbLayerTableRecord
2
0
70
0
6
CONTINUOUS
0
ENDTAB
0
TABLE
2
STYLE
5
3
100
AcDbSymbolTable
70
1
0
STYLE
5
11
100
AcDbSymbolTableRecord
100
AcDbTextStyleTableRecord
2
STANDARD
70
0
0
ENDTAB
0
TABLE
2
VIEW
5
6
100
AcDbSymbolTable
70
0
0
ENDTAB
0
TABLE
2
UCS
5
7
100
AcDbSymbolTable
70
0
0
ENDTAB
0
TABLE
2
APPID
5
9
100
AcDbSymbolTable
70
2
0
APPID
5
12
100
AcDbSymbolTableRecord
100
AcDbRegAppTableRecord
2
ACAD
70
0
0
ENDTAB
0
TABLE
2
DIMSTYLE
5
A
100
AcDbSymbolTable
70
1
0
ENDTAB
0
TABLE
2
BLOCK_RECORD
5
1
100
AcDbSymbolTable
70
1
0
BLOCK_RECORD
5
1F
100
AcDbSymbolTableRecord
100
AcDbBlockTableRecord
2
*MODEL_SPACE
0
BLOCK_RECORD
5
1B
100
AcDbSymbolTableRecord
100
AcDbBlockTableRecord
2
*PAPER_SPACE
0
ENDTAB
0
ENDSEC
0
SECTION
2
BLOCKS
0
BLOCK
5
20
100
AcDbEntity
100
AcDbBlockBegin
2
*MODEL_SPACE
0
ENDBLK
5
21
100
AcDbEntity
100
AcDbBlockEnd
0
BLOCK
5
1C
100
AcDbEntity
100
AcDbBlockBegin
2
*PAPER_SPACE
0
ENDBLK
5
1D
100
AcDbEntity
100
AcDbBlockEnd
0
ENDSEC
0
SECTION
2
ENTITIES
0
CIRCLE
5
100
100
AcDbEntity
8
0
100
AcDbCircle
10
1.2700000000001033
20
-43.179999999999978
30
0
40
0.49999999999994604
210
0
220
0
230
1
0
CIRCLE
5
101
100
AcDbEntity
8
0
100
AcDbCircle
10
-5.0799999999997425
20
-38.099999999999987
30
0
40
0.8499999999998975
210
0
220
0
230
1
0
CIRCLE
5
102
100
AcDbEntity
8
0
100
AcDbCircle
10
5.0800000000002044
20
-38.099999999999987
30
0
40
0.8499999999998975
210
0
220
0
230
1
0
CIRCLE
5
103
100
AcDbEntity
8
0
100
AcDbCircle
10
2.5400000000000973
20
-33.019999999999989
30
0
40
0.75000000000014
210
0
220
0
230
1
0
CIRCLE
5
104
100
AcDbEntity
8
0
100
AcDbCircle
10
23.620000000000093
20
-78.340000000000003
30
0
40
1.9999999999997728
210
0
220
0
230
1
0
CIRCLE
5
105
100
AcDbEntity
8
0
100
AcDbCircle
10
19.809999999999985
20
-75.800000000000026
30
0
40
0.75000000000025935
210
0
220
0
230
1
0
CIRCLE
5
106
100
AcDbEntity
8
0
100
AcDbCircle
10
24.88999999999994
20
-83.419999999999959
30
0
40
0.49999999999997158
210
0
220
0
230
1
0
CIRCLE
5
107
100
AcDbEntity
8
0
100
AcDbCircle
10
22.349999999999955
20
-83.419999999999959
30
0
40
0.49999999999997158
210
0
220
0
230
1
0
CIRCLE
5
108
100
AcDbEntity
8
0
100
AcDbCircle
10
28.700000000000074
20
-78.339999999999975
30
0
40
0.85000000000000508
210
0
220
0
230
1
0
CIRCLE
5
109
100
AcDbEntity
8
0
100
AcDbCircle
10
18.540000000000127
20
-78.339999999999975
30
0
40
0.85000000000000508
210
0
220
0
230
1
0
CIRCLE
5
110
100
AcDbEntity
8
0
100
AcDbCircle
10
26.160000000000085
20
-73.259999999999934
30
0
40
0.75000000000001787
210
0
220
0
230
1
0
CIRCLE
5
111
100
AcDbEntity
8
0
100
AcDbCircle
10
4.4200000000000896
20
2.5399999999999108
30
0
40
0.75000000000014044
210
0
220
0
230
1
0
CIRCLE
5
112
100
AcDbEntity
8
0
100
AcDbCircle
10
8.2300000000000626
20
4.2558549277297669e-16
30
0
40
1.9999999999998987
210
0
220
0
230
1
0
CIRCLE
5
113
100
AcDbEntity
8
0
100
AcDbCircle
10
6.960000000000079
20
-5.0800000000000605
30
0
40
0.49999999999983219
210
0
220
0
230
1
0
CIRCLE
5
114
100
AcDbEntity
8
0
100
AcDbCircle
10
9.5000000000000604
20
-5.0800000000000134
30
0
40
0.49999999999995026
210
0
220
0
230
1
0
CIRCLE
5
115
100
AcDbEntity
8
0
100
AcDbCircle
10
13.310000000000157
20
-4.2241732752876758e-14
30
0
40
0.84999999999990372
210
0
220
0
230
1
0
CIRCLE
5
116
100
AcDbEntity
8
0
100
AcDbCircle
10
10.770000000000055
20
5.0799999999999557
30
0
40
0.75000000000014222
210
0
220
0
230
1
0
CIRCLE
5
117
100
AcDbEntity
8
0
100
AcDbCircle
10
3.1500000000002104
20
-3.8859563435862444e-14
30
0
40
0.84999999999990472
210
0
220
0
230
1
0
CIRCLE
5
118
100
AcDbEntity
8
0
100
AcDbCircle
10
86.2413533358813
20
-0.68336155212054728
30
0
40
0.75000000000014222
210
0
220
0
230
1
0
CIRCLE
5
119
100
AcDbEntity
8
0
100
AcDbCircle
10
87.141561157713852
20
-8.6649419643892394
30
0
40
0.49999999999984368
210
0
220
0
230
1
0
CIRCLE
5
120
100
AcDbEntity
8
0
100
AcDbCircle
10
89.626056063577721
20
-9.1930376590663556
30
0
40
0.49999999999991473
210
0
220
0
230
1
0
CIRCLE
5
121
100
AcDbEntity
8
0
100
AcDbCircle
10
84.471010188272388
20
-2.9038086106458967
30
0
40
0.84999999999990916
210
0
220
0
230
1
0
CIRCLE
5
122
100
AcDbEntity
8
0
100
AcDbCircle
10
94.408989811727793
20
-5.0161913893542458
30
0
40
0.84999999999990916
210
0
220
0
230
1
0
CIRCLE
5
123
100
AcDbEntity
8
0
100
AcDbCircle
10
92.980686295218064
20
0.48089411705057072
30
0
40
0.75000000000014222
210
0
220
0
230
1
0
CIRCLE
5
124
100
AcDbEntity
8
0
100
AcDbCircle
10
76.160000000000039
20
-20.610000000000031
30
0
40
1.9999999999999007
210
0
220
0
230
1
0
CIRCLE
5
125
100
AcDbEntity
8
0
100
AcDbCircle
10
72.96135333588137
20
-17.33336155212055
30
0
40
0.75000000000014222
210
0
220
0
230
1
0
CIRCLE
5
126
100
AcDbEntity
8
0
100
AcDbCircle
10
76.346056063577748
20
-25.84303765906634
30
0
40
0.49999999999994321
210
0
220
0
230
1
0
CIRCLE
5
127
100
AcDbEntity
8
0
100
AcDbCircle
10
73.861561157713894
20
-25.314941964389241
30
0
40
0.49999999999984368
210
0
220
0
230
1
0
CIRCLE
5
128
100
AcDbEntity
8
0
100
AcDbCircle
10
81.128989811727877
20
-21.666191389354267
30
0
40
0.84999999999990916
210
0
220
0
230
1
0
CIRCLE
5
129
100
AcDbEntity
8
0
100
AcDbCircle
10
71.191010188272429
20
-19.553808610645898
30
0
40
0.84999999999990916
210
0
220
0
230
1
0
CIRCLE
5
130
100
AcDbEntity
8
0
100
AcDbCircle
10
79.700686295218105
20
-16.169105882949417
30
0
40
0.75000000000014222
210
0
220
0
230
1
0
CIRCLE
5
131
100
AcDbEntity
8
0
100
AcDbCircle
10
73.661353335881344
20
-36.963361552120539
30
0
40
0.75000000000009948
210
0
220
0
230
1
0
CIRCLE
5
132
100
AcDbEntity
8
0
100
AcDbCircle
10
76.859999999999999
20
-40.240000000000038
30
0
40
1.9999999999998863
210
0
220
0
230
1
0
CIRCLE
5
133
100
AcDbEntity
8
0
100
AcDbCircle
10
74.561561157713825
20
-44.94494196438928
30
0
40
0.49999999999985789
210
0
220
0
230
1
0
CIRCLE
5
134
100
AcDbEntity
8
0
100
AcDbCircle
10
77.046056063577723
20
-45.473037659066293
30
0
40
0.49999999999992895
210
0
220
0
230
1
0
CIRCLE
5
135
100
AcDbEntity
8
0
100
AcDbCircle
10
81.828989811727823
20
-41.296191389354348
30
0
40
0.84999999999990916
210
0
220
0
230
1
0
CIRCLE
5
136
100
AcDbEntity
8
0
100
AcDbCircle
10
80.400686295218051
20
-35.799105882949426
30
0
40
0.75000000000014222
210
0
220
0
230
1
0
CIRCLE
5
137
100
AcDbEntity
8
0
100
AcDbCircle
10
71.891010188272418
20
-39.183808610645833
30
0
40
0.84999999999989484
210
0
220
0
230
1
0
CIRCLE
5
138
100
AcDbEntity
8
0
100
AcDbCircle
10
79.01135333588131
20
-57.573361552120559
30
0
40
0.75000000000014222
210
0
220
0
230
1
0
CIRCLE
5
139
100
AcDbEntity
8
0
100
AcDbCircle
10
82.20999999999998
20
-60.850000000000037
30
0
40
1.9999999999998863
210
0
220
0
230
1
0
CIRCLE
5
140
100
AcDbEntity
8
0
100
AcDbCircle
10
79.911561157713834
20
-65.554941964389272
30
0
40
0.49999999999984368
210
0
220
0
230
1
0
CIRCLE
5
141
100
AcDbEntity
8
0
100
AcDbCircle
10
82.396056063577689
20
-66.083037659066278
30
0
40
0.49999999999995742
210
0
220
0
230
1
0
CIRCLE
5
142
100
AcDbEntity
8
0
100
AcDbCircle
10
87.178989811727831
20
-61.906191389354277
30
0
40
0.84999999999988074
210
0
220
0
230
1
0
CIRCLE
5
143
100
AcDbEntity
8
0
100
AcDbCircle
10
85.75068629521806
20
-56.409105882949419
30
0
40
0.75000000000014222
210
0
220
0
230
1
0
CIRCLE
5
144
100
AcDbEntity
8
0
100
AcDbCircle
10
77.241010188272384
20
-59.79380861064584
30
0
40
0.84999999999992326
210
0
220
0
230
1
0
CIRCLE
5
145
100
AcDbEntity
8
0
100
AcDbCircle
10
293.04500000000007
20
-59.289999999999843
30
0
40
1.9999999999998863
210
0
220
0
230
1
0
CIRCLE
5
146
100
AcDbEntity
8
0
100
AcDbCircle
10
291.77500000000003
20
-64.369999999999948
30
0
40
0.49999999999982947
210
0
220
0
230
1
0
CIRCLE
5
147
100
AcDbEntity
8
0
100
AcDbCircle
10
289.23500000000007
20
-56.750000000000114
30
0
40
0.7500000000001138
210
0
220
0
230
1
0
CIRCLE
5
148
100
AcDbEntity
8
0
100
AcDbCircle
10
294.315
20
-64.369999999999976
30
0
40
0.49999999999994321
210
0
220
0
230
1
0
CIRCLE
5
149
100
AcDbEntity
8
0
100
AcDbCircle
10
295.58500000000004
20
-54.210000000000065
30
0
40
0.7500000000001138
210
0
220
0
230
1
0
CIRCLE
5
150
100
AcDbEntity
8
0
100
AcDbCircle
10
287.96500000000015
20
-59.290000000000006
30
0
40
0.84999999999990916
210
0
220
0
230
1
0
CIRCLE
5
151
100
AcDbEntity
8
0
100
AcDbCircle
10
74.201353335881365
20
-77.563361552120526
30
0
40
0.75000000000009948
210
0
220
0
230
1
0
CIRCLE
5
152
100
AcDbEntity
8
0
100
AcDbCircle
10
77.400000000000006
20
-80.840000000000018
30
0
40
1.9999999999999007
210
0
220
0
230
1
0
CIRCLE
5
153
100
AcDbEntity
8
0
100
AcDbCircle
10
77.586056063577701
20
-86.073037659066372
30
0
40
0.49999999999995742
210
0
220
0
230
1
0
CIRCLE
5
154
100
AcDbEntity
8
0
100
AcDbCircle
10
75.101561157713874
20
-85.544941964389295
30
0
40
0.49999999999981531
210
0
220
0
230
1
0
CIRCLE
5
155
100
AcDbEntity
8
0
100
AcDbCircle
10
82.368989811727843
20
-81.896191389354257
30
0
40
0.84999999999990916
210
0
220
0
230
1
0
CIRCLE
5
156
100
AcDbEntity
8
0
100
AcDbCircle
10
72.431010188272396
20
-79.783808610645821
30
0
40
0.84999999999990916
210
0
220
0
230
1
0
CIRCLE
5
157
100
AcDbEntity
8
0
100
AcDbCircle
10
80.940686295218086
20
-76.399105882949399
30
0
40
0.7500000000001138
210
0
220
0
230
1
0
CIRCLE
5
158
100
AcDbEntity
8
0
100
AcDbCircle
10
143.43605606357769
20
-98.533037659066295
30
0
40
0.49999999999997158
210
0
220
0
230
1
0
CIRCLE
5
159
100
AcDbEntity
8
0
100
AcDbCircle
10
140.05135333588137
20
-90.023361552120491
30
0
40
0.75000000000014222
210
0
220
0
230
1
0
CIRCLE
5
160
100
AcDbEntity
8
0
100
AcDbCircle
10
146.79068629521808
20
-88.859105882949308
30
0
40
0.75000000000014222
210
0
220
0
230
1
0
CIRCLE
5
161
100
AcDbEntity
8
0
100
AcDbCircle
10
148.21898981172788
20
-94.356191389354208
30
0
40
0.84999999999993747
210
0
220
0
230
1
0
CIRCLE
5
162
100
AcDbEntity
8
0
100
AcDbCircle
10
137.73637355139635
20
-89.531297408794913
30
0
40
0.75000000000014222
210
0
220
0
230
1
0
CIRCLE
5
163
100
AcDbEntity
8
0
100
AcDbCircle
10
138.63658137322889
20
-97.512877821063512
30
0
40
0.4999999999998011
210
0
220
0
230
1
0
CIRCLE
5
164
100
AcDbEntity
8
0
100
AcDbCircle
10
135.96603040378741
20
-91.751744467320009
30
0
40
0.84999999999993747
210
0
220
0
230
1
0
CIRCLE
5
165
100
AcDbEntity
8
0
100
AcDbCircle
10
306.63000000000005
20
-2.1400000000000925
30
0
40
1.9999999999998863
210
0
220
0
230
1
0
CIRCLE
5
166
100
AcDbEntity
8
0
100
AcDbCircle
10
144.47570651073309
20
-88.367041739623659
30
0
40
0.7500000000001138
210
0
220
0
230
1
0
CIRCLE
5
167
100
AcDbEntity
8
0
100
AcDbCircle
10
302.82000000000005
20
0.39999999999988772
30
0
40
0.75000000000017053
210
0
220
0
230
1
0
CIRCLE
5
168
100
AcDbEntity
8
0
100
AcDbCircle
10
305.36000000000007
20
-7.2199999999998665
30
0
40
0.49999999999982947
210
0
220
0
230
1
0
CIRCLE
5
169
100
AcDbEntity
8
0
100
AcDbCircle
10
307.90000000000009
20
-7.2199999999998834
30
0
40
0.49999999999994321
210
0
220
0
230
1
0
CIRCLE
5
170
100
AcDbEntity
8
0
100
AcDbCircle
10
287.57999999999998
20
-2.1400000000001
30
0
40
1.9999999999998863
210
0
220
0
230
1
0
CIRCLE
5
171
100
AcDbEntity
8
0
100
AcDbCircle
10
311.71000000000009
20
-2.1399999999999828
30
0
40
0.84999999999996589
210
0
220
0
230
1
0
CIRCLE
5
172
100
AcDbEntity
8
0
100
AcDbCircle
10
283.76999999999998
20
0.39999999999988828
30
0
40
0.75000000000017053
210
0
220
0
230
1
0
CIRCLE
5
173
100
AcDbEntity
8
0
100
AcDbCircle
10
286.31
20
-7.2199999999998745
30
0
40
0.49999999999982947
210
0
220
0
230
1
0
CIRCLE
5
174
100
AcDbEntity
8
0
100
AcDbCircle
10
288.85000000000002
20
-7.2199999999998896
30
0
40
0.49999999999994321
210
0
220
0
230
1
0
CIRCLE
5
175
100
AcDbEntity
8
0
100
AcDbCircle
10
290.11999999999995
20
2.9399999999999302
30
0
40
0.75000000000017053
210
0
220
0
230
1
0
CIRCLE
5
176
100
AcDbEntity
8
0
100
AcDbCircle
10
282.50000000000017
20
-2.1400000000001325
30
0
40
0.84999999999985221
210
0
220
0
230
1
0
CIRCLE
5
177
100
AcDbEntity
8
0
100
AcDbCircle
10
249.90000000000003
20
-3.4564943499996538e-14
30
0
40
1.9999999999998863
210
0
220
0
230
1
0
CIRCLE
5
178
100
AcDbEntity
8
0
100
AcDbCircle
10
246.09000000000006
20
2.539999999999996
30
0
40
0.75000000000014222
210
0
220
0
230
1
0
CIRCLE
5
179
100
AcDbEntity
8
0
100
AcDbCircle
10
248.63000000000002
20
-5.0799999999999947
30
0
40
0.49999999999982947
210
0
220
0
230
1
0
CIRCLE
5
180
100
AcDbEntity
8
0
100
AcDbCircle
10
254.98000000000013
20
4.8093988262939597e-14
30
0
40
0.84999999999990916
210
0
220
0
230
1
0
CIRCLE
5
181
100
AcDbEntity
8
0
100
AcDbCircle
10
251.17000000000002
20
-5.0799999999999423
30
0
40
0.49999999999997158
210
0
220
0
230
1
0
CIRCLE
5
182
100
AcDbEntity
8
0
100
AcDbCircle
10
244.82000000000016
20
-2.3256344786303805e-14
30
0
40
0.84999999999988074
210
0
220
0
230
1
0
CIRCLE
5
183
100
AcDbEntity
8
0
100
AcDbCircle
10
252.44
20
5.0799999999999237
30
0
40
0.75000000000017053
210
0
220
0
230
1
0
CIRCLE
5
184
100
AcDbEntity
8
0
100
AcDbCircle
10
268.52999999999997
20
-2.1400000000002728
30
0
40
1.9999999999998863
210
0
220
0
230
1
0
CIRCLE
5
185
100
AcDbEntity
8
0
100
AcDbCircle
10
267.25999999999999
20
-7.2200000000000379
30
0
40
0.49999999999982947
210
0
220
0
230
1
0
CIRCLE
5
186
100
AcDbEntity
8
0
100
AcDbCircle
10
264.72000000000003
20
0.39999999999990909
30
0
40
0.7500000000001138
210
0
220
0
230
1
0
CIRCLE
5
187
100
AcDbEntity
8
0
100
AcDbCircle
10
269.79999999999995
20
-7.220000000000053
30
0
40
0.5
210
0
220
0
230
1
0
CIRCLE
5
188
100
AcDbEntity
8
0
100
AcDbCircle
10
273.61000000000007
20
-2.1399999999999686
30
0
40
0.84999999999990916
210
0
220
0
230
1
0
CIRCLE
5
189
100
AcDbEntity
8
0
100
AcDbCircle
10
263.45000000000016
20
-2.140000000000112
30
0
40
0.84999999999990916
210
0
220
0
230
1
0
CIRCLE
5
190
100
AcDbEntity
8
0
100
AcDbCircle
10
271.06999999999994
20
2.9399999999999511
30
0
40
0.75000000000017053
210
0
220
0
230
1
0
CIRCLE
5
191
100
AcDbEntity
8
0
100
AcDbCircle
10
244.53999999999996
20
-20.12999999999991
30
0
40
1.9999999999999432
210
0
220
0
230
1
0
CIRCLE
5
192
100
AcDbEntity
8
0
100
AcDbCircle
10
240.73000000000005
20
-17.590000000000131
30
0
40
0.75000000000014222
210
0
220
0
230
1
0
CIRCLE
5
193
100
AcDbEntity
8
0
100
AcDbCircle
10
243.27000000000001
20
-25.210000000000079
30
0
40
0.49999999999982947
210
0
220
0
230
1
0
CIRCLE
5
194
100
AcDbEntity
8
0
100
AcDbCircle
10
249.62000000000012
20
-20.130000000000081
30
0
40
0.84999999999988074
210
0
220
0
230
1
0
CIRCLE
5
195
100
AcDbEntity
8
0
100
AcDbCircle
10
245.81
20
-25.209999999999965
30
0
40
0.49999999999997158
210
0
220
0
230
1
0
CIRCLE
5
196
100
AcDbEntity
8
0
100
AcDbCircle
10
239.46000000000015
20
-20.129999999999963
30
0
40
0.84999999999990916
210
0
220
0
230
1
0
CIRCLE
5
197
100
AcDbEntity
8
0
100
AcDbCircle
10
247.07999999999998
20
-15.05000000000009
30
0
40
0.75000000000017053
210
0
220
0
230
1
0
CIRCLE
5
198
100
AcDbEntity
8
0
100
AcDbCircle
10
263.17000000000002
20
-21.189999999999824
30
0
40
1.9999999999998863
210
0
220
0
230
1
0
CIRCLE
5
199
100
AcDbEntity
8
0
100
AcDbCircle
10
261.90000000000003
20
-26.26999999999984
30
0
40
0.49999999999982947
210
0
220
0
230
1
0
CIRCLE
5
200
100
AcDbEntity
8
0
100
AcDbCircle
10
259.36000000000007
20
-18.650000000000084
30
0
40
0.7500000000001138
210
0
220
0
230
1
0
CIRCLE
5
201
100
AcDbEntity
8
0
100
AcDbCircle
10
264.44000000000005
20
-26.269999999999953
30
0
40
0.49999999999994321
210
0
220
0
230
1
0
CIRCLE
5
202
100
AcDbEntity
8
0
100
AcDbCircle
10
268.25000000000006
20
-21.189999999999959
30
0
40
0.84999999999996589
210
0
220
0
230
1
0
CIRCLE
5
203
100
AcDbEntity
8
0
100
AcDbCircle
10
258.09000000000015
20
-21.189999999999959
30
0
40
0.84999999999990916
210
0
220
0
230
1
0
CIRCLE
5
204
100
AcDbEntity
8
0
100
AcDbCircle
10
282.22000000000003
20
-21.190000000000214
30
0
40
1.9999999999998863
210
0
220
0
230
1
0
CIRCLE
5
205
100
AcDbEntity
8
0
100
AcDbCircle
10
265.71000000000004
20
-16.110000000000039
30
0
40
0.7500000000001138
210
0
220
0
230
1
0
CIRCLE
5
206
100
AcDbEntity
8
0
100
AcDbCircle
10
278.41000000000008
20
-18.650000000000084
30
0
40
0.7500000000001138
210
0
220
0
230
1
0
CIRCLE
5
207
100
AcDbEntity
8
0
100
AcDbCircle
10
280.95000000000005
20
-26.270000000000024
30
0
40
0.49999999999982947
210
0
220
0
230
1
0
CIRCLE
5
208
100
AcDbEntity
8
0
100
AcDbCircle
10
283.49000000000007
20
-26.269999999999953
30
0
40
0.49999999999988637
210
0
220
0
230
1
0
CIRCLE
5
209
100
AcDbEntity
8
0
100
AcDbCircle
10
277.14000000000016
20
-21.189999999999959
30
0
40
0.84999999999990916
210
0
220
0
230
1
0
CIRCLE
5
210
100
AcDbEntity
8
0
100
AcDbCircle
10
287.30000000000013
20
-21.189999999999959
30
0
40
0.84999999999990916
210
0
220
0
230
1
0
CIRCLE
5
211
100
AcDbEntity
8
0
100
AcDbCircle
10
284.76000000000005
20
-16.110000000000039
30
0
40
0.7500000000001138
210
0
220
0
230
1
0
CIRCLE
5
212
100
AcDbEntity
8
0
100
AcDbCircle
10
306.04000000000002
20
-21.190000000000072
30
0
40
1.9999999999998863
210
0
220
0
230
1
0
CIRCLE
5
213
100
AcDbEntity
8
0
100
AcDbCircle
10
302.23000000000002
20
-18.650000000000084
30
0
40
0.75000000000017053
210
0
220
0
230
1
0
CIRCLE
5
214
100
AcDbEntity
8
0
100
AcDbCircle
10
307.31
20
-26.270000000000095
30
0
40
0.49999999999994321
210
0
220
0
230
1
0
CIRCLE
5
215
100
AcDbEntity
8
0
100
AcDbCircle
10
304.77000000000004
20
-26.26999999999984
30
0
40
0.49999999999982947
210
0
220
0
230
1
0
CIRCLE
5
216
100
AcDbEntity
8
0
100
AcDbCircle
10
311.12000000000012
20
-21.189999999999959
30
0
40
0.84999999999990916
210
0
220
0
230
1
0
CIRCLE
5
217
100
AcDbEntity
8
0
100
AcDbCircle
10
300.96000000000021
20
-21.190000000000001
30
0
40
0.84999999999985221
210
0
220
0
230
1
0
CIRCLE
5
218
100
AcDbEntity
8
0
100
AcDbCircle
10
308.57999999999998
20
-16.110000000000039
30
0
40
0.75000000000017053
210
0
220
0
230
1
0
CIRCLE
5
219
100
AcDbEntity
8
0
100
AcDbCircle
10
249.35000000000002
20
-37.700000000000095
30
0
40
0.7500000000001138
210
0
220
0
230
1
0
CIRCLE
5
220
100
AcDbEntity
8
0
100
AcDbCircle
10
253.15999999999997
20
-40.240000000000066
30
0
40
1.9999999999998863
210
0
220
0
230
1
0
CIRCLE
5
221
100
AcDbEntity
8
0
100
AcDbCircle
10
251.88999999999996
20
-45.319999999999993
30
0
40
0.49999999999982947
210
0
220
0
230
1
0
CIRCLE
5
222
100
AcDbEntity
8
0
100
AcDbCircle
10
258.24000000000001
20
-40.240000000000038
30
0
40
0.84999999999990916
210
0
220
0
230
1
0
CIRCLE
5
223
100
AcDbEntity
8
0
100
AcDbCircle
10
254.42999999999998
20
-45.319999999999972
30
0
40
0.49999999999994321
210
0
220
0
230
1
0
CIRCLE
5
224
100
AcDbEntity
8
0
100
AcDbCircle
10
248.08000000000007
20
-40.240000000000009
30
0
40
0.84999999999993747
210
0
220
0
230
1
0
CIRCLE
5
225
100
AcDbEntity
8
0
100
AcDbCircle
10
272.21000000000004
20
-40.240000000000137
30
0
40
1.9999999999998863
210
0
220
0
230
1
0
CIRCLE
5
226
100
AcDbEntity
8
0
100
AcDbCircle
10
255.69999999999993
20
-35.160000000000196
30
0
40
0.7500000000001138
210
0
220
0
230
1
0
CIRCLE
5
227
100
AcDbEntity
8
0
100
AcDbCircle
10
268.40000000000003
20
-37.700000000000337
30
0
40
0.7500000000001138
210
0
220
0
230
1
0
CIRCLE
5
228
100
AcDbEntity
8
0
100
AcDbCircle
10
273.48000000000008
20
-45.319999999999972
30
0
40
0.49999999999988637
210
0
220
0
230
1
0
CIRCLE
5
229
100
AcDbEntity
8
0
100
AcDbCircle
10
270.94000000000005
20
-45.320000000000093
30
0
40
0.49999999999977263
210
0
220
0
230
1
0
CIRCLE
5
230
100
AcDbEntity
8
0
100
AcDbCircle
10
277.29000000000013
20
-40.240000000000038
30
0
40
0.84999999999985221
210
0
220
0
230
1
0
CIRCLE
5
231
100
AcDbEntity
8
0
100
AcDbCircle
10
274.75
20
-35.16000000000011
30
0
40
0.7500000000001138
210
0
220
0
230
1
0
CIRCLE
5
232
100
AcDbEntity
8
0
100
AcDbCircle
10
267.13000000000017
20
-40.239999999999995
30
0
40
0.84999999999990916
210
0
220
0
230
1
0
CIRCLE
5
233
100
AcDbEntity
8
0
100
AcDbCircle
10
319.23875000000004
20
-59.289999999999942
30
0
40
1.9999999999998863
210
0
220
0
230
1
0
CIRCLE
5
234
100
AcDbEntity
8
0
100
AcDbCircle
10
315.42875000000004
20
-56.750000000000256
30
0
40
0.7500000000001138
210
0
220
0
230
1
0
CIRCLE
5
235
100
AcDbEntity
8
0
100
AcDbCircle
10
317.96875
20
-64.370000000000118
30
0
40
0.49999999999982947
210
0
220
0
230
1
0
CIRCLE
5
236
100
AcDbEntity
8
0
100
AcDbCircle
10
324.31875000000014
20
-59.290000000000241
30
0
40
0.84999999999985221
210
0
220
0
230
1
0
CIRCLE
5
237
100
AcDbEntity
8
0
100
AcDbCircle
10
320.50875000000008
20
-64.36999999999999
30
0
40
0.49999999999994321
210
0
220
0
230
1
0
CIRCLE
5
238
100
AcDbEntity
8
0
100
AcDbCircle
10
314.15875000000017
20
-59.290000000000006
30
0
40
0.84999999999996589
210
0
220
0
230
1
0
CIRCLE
5
239
100
AcDbEntity
8
0
100
AcDbCircle
10
321.77875
20
-54.210000000000235
30
0
40
0.7500000000001138
210
0
220
0
230
1
0
CIRCLE
5
240
100
AcDbEntity
8
0
100
AcDbCircle
10
310.79560000000009
20
-78.387999999999934
30
0
40
1.9999999999998863
210
0
220
0
230
1
0
CIRCLE
5
241
100
AcDbEntity
8
0
100
AcDbCircle
10
309.5256
20
-83.468000000000131
30
0
40
0.49999999999988637
210
0
220
0
230
1
0
CIRCLE
5
242
100
AcDbEntity
8
0
100
AcDbCircle
10
306.98560000000003
20
-75.84800000000017
30
0
40
0.75000000000017053
210
0
220
0
230
1
0
CIRCLE
5
243
100
AcDbEntity
8
0
100
AcDbCircle
10
312.06560000000013
20
-83.468000000000004
30
0
40
0.49999999999994321
210
0
220
0
230
1
0
CIRCLE
5
244
100
AcDbEntity
8
0
100
AcDbCircle
10
305.71560000000022
20
-78.387999999999991
30
0
40
0.84999999999990916
210
0
220
0
230
1
0
CIRCLE
5
245
100
AcDbEntity
8
0
100
AcDbCircle
10
315.87560000000013
20
-78.387999999999991
30
0
40
0.84999999999990916
210
0
220
0
230
1
0
CIRCLE
5
246
100
AcDbEntity
8
0
100
AcDbCircle
10
313.33560000000006
20
-73.30800000000032
30
0
40
0.7500000000001138
210
0
220
0
230
1
0
CIRCLE
5
247
100
AcDbEntity
8
0
100
AcDbCircle
10
247.80000000000004
20
-59.290000000000049
30
0
40
1.9999999999998579
210
0
220
0
230
1
0
CIRCLE
5
248
100
AcDbEntity
8
0
100
AcDbCircle
10
243.99000000000004
20
-56.750000000000071
30
0
40
0.75000000000014222
210
0
220
0
230
1
0
CIRCLE
5
249
100
AcDbEntity
8
0
100
AcDbCircle
10
249.07000000000005
20
-64.36999999999999
30
0
40
0.49999999999994321
210
0
220
0
230
1
0
CIRCLE
5
250
100
AcDbEntity
8
0
100
AcDbCircle
10
246.53000000000003
20
-64.370000000000047
30
0
40
0.49999999999985789
210
0
220
0
230
1
0
CIRCLE
5
251
100
AcDbEntity
8
0
100
AcDbCircle
10
252.88000000000011
20
-59.290000000000006
30
0
40
0.84999999999990916
210
0
220
0
230
1
0
CIRCLE
5
252
100
AcDbEntity
8
0
100
AcDbCircle
10
242.72000000000017
20
-59.29000000000012
30
0
40
0.84999999999990916
210
0
220
0
230
1
0
CIRCLE
5
253
100
AcDbEntity
8
0
100
AcDbCircle
10
266.84999999999997
20
-59.290000000000234
30
0
40
1.9999999999999432
210
0
220
0
230
1
0
CIRCLE
5
254
100
AcDbEntity
8
0
100
AcDbCircle
10
250.34000000000003
20
-54.2100000000001
30
0
40
0.75000000000014222
210
0
220
0
230
1
0
CIRCLE
5
255
100
AcDbEntity
8
0
100
AcDbCircle
10
263.04000000000002
20
-56.750000000000114
30
0
40
0.75000000000017053
210
0
220
0
230
1
0
CIRCLE
5
256
100
AcDbEntity
8
0
100
AcDbCircle
10
265.57999999999998
20
-64.37000000000009
30
0
40
0.49999999999988637
210
0
220
0
230
1
0
CIRCLE
5
257
100
AcDbEntity
8
0
100
AcDbCircle
10
271.93000000000012
20
-59.290000000000006
30
0
40
0.84999999999990916
210
0
220
0
230
1
0
CIRCLE
5
258
100
AcDbEntity
8
0
100
AcDbCircle
10
268.12000000000006
20
-64.370000000000118
30
0
40
0.49999999999988637
210
0
220
0
230
1
0
CIRCLE
5
259
100
AcDbEntity
8
0
100
AcDbCircle
10
261.77000000000021
20
-59.290000000000241
30
0
40
0.84999999999985221
210
0
220
0
230
1
0
CIRCLE
5
260
100
AcDbEntity
8
0
100
AcDbCircle
10
269.38999999999999
20
-54.210000000000072
30
0
40
0.75000000000017053
210
0
220
0
230
1
0
CIRCLE
5
261
100
AcDbEntity
8
0
100
AcDbCircle
10
108.07371179397899
20
-7.9207177100783444
30
0
40
1.9999999999998863
210
0
220
0
230
1
0
CIRCLE
5
262
100
AcDbEntity
8
0
100
AcDbCircle
10
105.77527295169284
20
-12.625659674467578
30
0
40
0.49999999999984368
210
0
220
0
230
1
0
CIRCLE
5
263
100
AcDbEntity
8
0
100
AcDbCircle
10
104.8750651298603
20
-4.6440792621988596
30
0
40
0.75000000000014222
210
0
220
0
230
1
0
CIRCLE
5
264
100
AcDbEntity
8
0
100
AcDbCircle
10
108.25976785755671
20
-13.153755369144662
30
0
40
0.49999999999992895
210
0
220
0
230
1
0
CIRCLE
5
265
100
AcDbEntity
8
0
100
AcDbCircle
10
113.04270160570681
20
-8.9769090994325573
30
0
40
0.84999999999989484
210
0
220
0
230
1
0
CIRCLE
5
266
100
AcDbEntity
8
0
100
AcDbCircle
10
103.10472198225136
20
-6.8645263207241412
30
0
40
0.84999999999992326
210
0
220
0
230
1
0
CIRCLE
5
267
100
AcDbEntity
8
0
100
AcDbCircle
10
94.793711793979071
20
-24.570717710078341
30
0
40
1.9999999999998863
210
0
220
0
230
1
0
CIRCLE
5
268
100
AcDbEntity
8
0
100
AcDbCircle
10
111.61439808919707
20
-3.4798235930277337
30
0
40
0.75000000000014222
210
0
220
0
230
1
0
CIRCLE
5
269
100
AcDbEntity
8
0
100
AcDbCircle
10
91.595065129860401
20
-21.294079262198839
30
0
40
0.75000000000009948
210
0
220
0
230
1
0
CIRCLE
5
270
100
AcDbEntity
8
0
100
AcDbCircle
10
92.495272951692883
20
-29.275659674467526
30
0
40
0.49999999999984368
210
0
220
0
230
1
0
CIRCLE
5
271
100
AcDbEntity
8
0
100
AcDbCircle
10
94.979767857556737
20
-29.803755369144671
30
0
40
0.49999999999995742
210
0
220
0
230
1
0
CIRCLE
5
272
100
AcDbEntity
8
0
100
AcDbCircle
10
89.824721982251447
20
-23.514526320724126
30
0
40
0.84999999999990916
210
0
220
0
230
1
0
CIRCLE
5
273
100
AcDbEntity
8
0
100
AcDbCircle
10
99.762701605706852
20
-25.626909099432581
30
0
40
0.84999999999990916
210
0
220
0
230
1
0
CIRCLE
5
274
100
AcDbEntity
8
0
100
AcDbCircle
10
98.334398089197137
20
-20.129823593027698
30
0
40
0.7500000000001138
210
0
220
0
230
1
0
CIRCLE
5
275
100
AcDbEntity
8
0
100
AcDbCircle
10
95.493711793979017
20
-44.200717710078365
30
0
40
1.9999999999998721
210
0
220
0
230
1
0
CIRCLE
5
276
100
AcDbEntity
8
0
100
AcDbCircle
10
93.195272951692814
20
-48.905659674467586
30
0
40
0.49999999999985789
210
0
220
0
230
1
0
CIRCLE
5
277
100
AcDbEntity
8
0
100
AcDbCircle
10
92.295065129860333
20
-40.924079262198909
30
0
40
0.7500000000001138
210
0
220
0
230
1
0
CIRCLE
5
278
100
AcDbEntity
8
0
100
AcDbCircle
10
95.679767857556683
20
-49.433755369144627
30
0
40
0.49999999999997158
210
0
220
0
230
1
0
CIRCLE
5
279
100
AcDbEntity
8
0
100
AcDbCircle
10
100.46270160570678
20
-45.256909099432654
30
0
40
0.84999999999992326
210
0
220
0
230
1
0
CIRCLE
5
280
100
AcDbEntity
8
0
100
AcDbCircle
10
90.524721982251393
20
-43.144526320724161
30
0
40
0.84999999999990916
210
0
220
0
230
1
0
CIRCLE
5
281
100
AcDbEntity
8
0
100
AcDbCircle
10
100.84371179397903
20
-64.81071771007835
30
0
40
1.9999999999998439
210
0
220
0
230
1
0
CIRCLE
5
282
100
AcDbEntity
8
0
100
AcDbCircle
10
99.034398089197069
20
-39.759823593027782
30
0
40
0.7500000000001138
210
0
220
0
230
1
0
CIRCLE
5
283
100
AcDbEntity
8
0
100
AcDbCircle
10
97.645065129860285
20
-61.53407926219888
30
0
40
0.75000000000017053
210
0
220
0
230
1
0
CIRCLE
5
284
100
AcDbEntity
8
0
100
AcDbCircle
10
98.545272951692837
20
-69.515659674467557
30
0
40
0.49999999999984368
210
0
220
0
230
1
0
CIRCLE
5
285
100
AcDbEntity
8
0
100
AcDbCircle
10
105.81270160570682
20
-65.866909099432633
30
0
40
0.84999999999989484
210
0
220
0
230
1
0
CIRCLE
5
286
100
AcDbEntity
8
0
100
AcDbCircle
10
101.02976785755669
20
-70.043755369144606
30
0
40
0.49999999999997158
210
0
220
0
230
1
0
CIRCLE
5
287
100
AcDbEntity
8
0
100
AcDbCircle
10
95.874721982251401
20
-63.754526320724132
30
0
40
0.84999999999990916
210
0
220
0
230
1
0
CIRCLE
5
288
100
AcDbEntity
8
0
100
AcDbCircle
10
104.38439808919703
20
-60.369823593027725
30
0
40
0.75000000000015632
210
0
220
0
230
1
0
CIRCLE
5
289
100
AcDbEntity
8
0
100
AcDbCircle
10
126.70742358795803
20
-11.881435420156555
30
0
40
1.9999999999998721
210
0
220
0
230
1
0
CIRCLE
5
290
100
AcDbEntity
8
0
100
AcDbCircle
10
124.40898474567184
20
-16.586377384545884
30
0
40
0.49999999999984368
210
0
220
0
230
1
0
CIRCLE
5
291
100
AcDbEntity
8
0
100
AcDbCircle
10
123.50877692383932
20
-8.6047969722771409
30
0
40
0.7500000000001138
210
0
220
0
230
1
0
CIRCLE
5
292
100
AcDbEntity
8
0
100
AcDbCircle
10
126.89347965153571
20
-17.114473079222936
30
0
40
0.49999999999992895
210
0
220
0
230
1
0
CIRCLE
5
293
100
AcDbEntity
8
0
100
AcDbCircle
10
131.67641339968577
20
-12.937626809510856
30
0
40
0.84999999999990916
210
0
220
0
230
1
0
CIRCLE
5
294
100
AcDbEntity
8
0
100
AcDbCircle
10
121.73843377623041
20
-10.825244030802432
30
0
40
0.84999999999989484
210
0
220
0
230
1
0
CIRCLE
5
295
100
AcDbEntity
8
0
100
AcDbCircle
10
113.42742358795805
20
-28.53143542015664
30
0
40
1.9999999999998863
210
0
220
0
230
1
0
CIRCLE
5
296
100
AcDbEntity
8
0
100
AcDbCircle
10
130.24810988317603
20
-7.4405413031061123
30
0
40
0.75000000000014222
210
0
220
0
230
1
0
CIRCLE
5
297
100
AcDbEntity
8
0
100
AcDbCircle
10
110.22877692383936
20
-25.254796972277145
30
0
40
0.7500000000001279
210
0
220
0
230
1
0
CIRCLE
5
298
100
AcDbEntity
8
0
100
AcDbCircle
10
111.12898474567189
20
-33.236377384545875
30
0
40
0.49999999999985789
210
0
220
0
230
1
0
CIRCLE
5
299
100
AcDbEntity
8
0
100
AcDbCircle
10
113.61347965153573
20
-33.764473079222952
30
0
40
0.49999999999995742
210
0
220
0
230
1
0
CIRCLE
5
300
100
AcDbEntity
8
0
100
AcDbCircle
10
108.45843377623046
20
-27.475244030802433
30
0
40
0.84999999999989484
210
0
220
0
230
1
0
CIRCLE
5
301
100
AcDbEntity
8
0
100
AcDbCircle
10
118.39641339968587
20
-29.58762680951088
30
0
40
0.84999999999990916
210
0
220
0
230
1
0
CIRCLE
5
302
100
AcDbEntity
8
0
100
AcDbCircle
10
116.96810988317611
20
-24.090541303106026
30
0
40
0.7500000000001279
210
0
220
0
230
1
0
CIRCLE
5
303
100
AcDbEntity
8
0
100
AcDbCircle
10
114.12742358795799
20
-48.161435420156664
30
0
40
1.9999999999998863
210
0
220
0
230
1
0
CIRCLE
5
304
100
AcDbEntity
8
0
100
AcDbCircle
10
110.92877692383934
20
-44.884796972277201
30
0
40
0.7500000000001138
210
0
220
0
230
1
0
CIRCLE
5
305
100
AcDbEntity
8
0
100
AcDbCircle
10
114.3134796515357
20
-53.394473079222976
30
0
40
0.49999999999994321
210
0
220
0
230
1
0
CIRCLE
5
306
100
AcDbEntity
8
0
100
AcDbCircle
10
111.82898474567185
20
-52.866377384545828
30
0
40
0.49999999999984368
210
0
220
0
230
1
0
CIRCLE
5
307
100
AcDbEntity
8
0
100
AcDbCircle
10
119.09641339968584
20
-49.21762680951089
30
0
40
0.84999999999988074
210
0
220
0
230
1
0
CIRCLE
5
308
100
AcDbEntity
8
0
100
AcDbCircle
10
109.15843377623037
20
-47.105244030802481
30
0
40
0.84999999999992326
210
0
220
0
230
1
0
CIRCLE
5
309
100
AcDbEntity
8
0
100
AcDbCircle
10
117.66810988317604
20
-43.720541303106081
30
0
40
0.75000000000014222
210
0
220
0
230
1
0
CIRCLE
5
310
100
AcDbEntity
8
0
100
AcDbCircle
10
116.27877692383932
20
-65.494796972277229
30
0
40
0.75000000000014222
210
0
220
0
230
1
0
CIRCLE
5
311
100
AcDbEntity
8
0
100
AcDbCircle
10
119.47742358795799
20
-68.771435420156664
30
0
40
1.9999999999998863
210
0
220
0
230
1
0
CIRCLE
5
312
100
AcDbEntity
8
0
100
AcDbCircle
10
117.17898474567184
20
-73.476377384545813
30
0
40
0.49999999999985789
210
0
220
0
230
1
0
CIRCLE
5
313
100
AcDbEntity
8
0
100
AcDbCircle
10
119.66347965153568
20
-74.004473079222961
30
0
40
0.49999999999995742
210
0
220
0
230
1
0
CIRCLE
5
314
100
AcDbEntity
8
0
100
AcDbCircle
10
124.44641339968582
20
-69.827626809510946
30
0
40
0.84999999999990916
210
0
220
0
230
1
0
CIRCLE
5
315
100
AcDbEntity
8
0
100
AcDbCircle
10
123.01810988317607
20
-64.330541303106088
30
0
40
0.7500000000001138
210
0
220
0
230
1
0
CIRCLE
5
316
100
AcDbEntity
8
0
100
AcDbCircle
10
114.50843377623039
20
-67.715244030802424
30
0
40
0.84999999999990916
210
0
220
0
230
1
0
CIRCLE
5
317
100
AcDbEntity
8
0
100
AcDbCircle
10
145.34113538193702
20
-15.842153130234934
30
0
40
1.9999999999998863
210
0
220
0
230
1
0
CIRCLE
5
318
100
AcDbEntity
8
0
100
AcDbCircle
10
142.14248871781831
20
-12.565514682355499
30
0
40
0.7500000000001138
210
0
220
0
230
1
0
CIRCLE
5
319
100
AcDbEntity
8
0
100
AcDbCircle
10
143.04269653965082
20
-20.547095094624204
30
0
40
0.49999999999982947
210
0
220
0
230
1
0
CIRCLE
5
320
100
AcDbEntity
8
0
100
AcDbCircle
10
150.31012519366479
20
-16.898344519589269
30
0
40
0.84999999999990916
210
0
220
0
230
1
0
CIRCLE
5
321
100
AcDbEntity
8
0
100
AcDbCircle
10
145.52719144551472
20
-21.075190789301189
30
0
40
0.49999999999994321
210
0
220
0
230
1
0
CIRCLE
5
322
100
AcDbEntity
8
0
100
AcDbCircle
10
140.3721455702094
20
-14.785961740880744
30
0
40
0.84999999999988074
210
0
220
0
230
1
0
CIRCLE
5
323
100
AcDbEntity
8
0
100
AcDbCircle
10
148.88182167715507
20
-11.401259013184324
30
0
40
0.75000000000014222
210
0
220
0
230
1
0
CIRCLE
5
324
100
AcDbEntity
8
0
100
AcDbCircle
10
132.06113538193699
20
-32.492153130234847
30
0
40
1.9999999999999432
210
0
220
0
230
1
0
CIRCLE
5
325
100
AcDbEntity
8
0
100
AcDbCircle
10
129.7626965396509
20
-37.197095094624075
30
0
40
0.49999999999982947
210
0
220
0
230
1
0
CIRCLE
5
326
100
AcDbEntity
8
0
100
AcDbCircle
10
128.86248871781839
20
-29.215514682355472
30
0
40
0.7500000000001138
210
0
220
0
230
1
0
CIRCLE
5
327
100
AcDbEntity
8
0
100
AcDbCircle
10
132.24719144551474
20
-37.725190789301259
30
0
40
0.49999999999994321
210
0
220
0
230
1
0
CIRCLE
5
328
100
AcDbEntity
8
0
100
AcDbCircle
10
137.0301251936649
20
-33.548344519589136
30
0
40
0.84999999999990916
210
0
220
0
230
1
0
CIRCLE
5
329
100
AcDbEntity
8
0
100
AcDbCircle
10
127.09214557020942
20
-31.435961740880728
30
0
40
0.84999999999992326
210
0
220
0
230
1
0
CIRCLE
5
330
100
AcDbEntity
8
0
100
AcDbCircle
10
132.76113538193701
20
-52.122153130234977
30
0
40
1.9999999999998579
210
0
220
0
230
1
0
CIRCLE
5
331
100
AcDbEntity
8
0
100
AcDbCircle
10
135.60182167715507
20
-28.051259013184303
30
0
40
0.75000000000017053
210
0
220
0
230
1
0
CIRCLE
5
332
100
AcDbEntity
8
0
100
AcDbCircle
10
129.56248871781833
20
-48.845514682355528
30
0
40
0.7500000000001138
210
0
220
0
230
1
0
CIRCLE
5
333
100
AcDbEntity
8
0
100
AcDbCircle
10
130.46269653965084
20
-56.827095094624212
30
0
40
0.49999999999982947
210
0
220
0
230
1
0
CIRCLE
5
334
100
AcDbEntity
8
0
100
AcDbCircle
10
132.9471914455147
20
-57.35519078930119
30
0
40
0.49999999999994321
210
0
220
0
230
1
0
CIRCLE
5
335
100
AcDbEntity
8
0
100
AcDbCircle
10
127.79214557020937
20
-51.065961740880745
30
0
40
0.84999999999992326
210
0
220
0
230
1
0
CIRCLE
5
336
100
AcDbEntity
8
0
100
AcDbCircle
10
137.73012519366483
20
-53.178344519589274
30
0
40
0.84999999999990916
210
0
220
0
230
1
0
CIRCLE
5
337
100
AcDbEntity
8
0
100
AcDbCircle
10
136.301821677155
20
-47.681259013184444
30
0
40
0.75000000000017053
210
0
220
0
230
1
0
CIRCLE
5
338
100
AcDbEntity
8
0
100
AcDbCircle
10
138.11113538193695
20
-72.732153130234963
30
0
40
1.999999999999915
210
0
220
0
230
1
0
CIRCLE
5
339
100
AcDbEntity
8
0
100
AcDbCircle
10
134.91248871781829
20
-69.45551468235557
30
0
40
0.75000000000014222
210
0
220
0
230
1
0
CIRCLE
5
340
100
AcDbEntity
8
0
100
AcDbCircle
10
135.81269653965083
20
-77.437095094624183
30
0
40
0.49999999999982947
210
0
220
0
230
1
0
CIRCLE
5
341
100
AcDbEntity
8
0
100
AcDbCircle
10
143.0801251936648
20
-73.78834451958916
30
0
40
0.84999999999990916
210
0
220
0
230
1
0
CIRCLE
5
342
100
AcDbEntity
8
0
100
AcDbCircle
10
138.2971914455147
20
-77.965190789301175
30
0
40
0.49999999999994321
210
0
220
0
230
1
0
CIRCLE
5
343
100
AcDbEntity
8
0
100
AcDbCircle
10
133.14214557020941
20
-71.675961740880723
30
0
40
0.84999999999990916
210
0
220
0
230
1
0
CIRCLE
5
344
100
AcDbEntity
8
0
100
AcDbCircle
10
141.65182167715508
20
-68.291259013184387
30
0
40
0.75000000000008527
210
0
220
0
230
1
0
CIRCLE
5
345
100
AcDbEntity
8
0
100
AcDbCircle
10
229.21394393642231
20
-7.2130376590663285
30
0
40
0.49999999999982947
210
0
220
0
230
1
0
CIRCLE
5
346
100
AcDbEntity
8
0
100
AcDbCircle
10
234.36898981172783
20
-0.92380861064576192
30
0
40
0.84999999999990916
210
0
220
0
230
1
0
CIRCLE
5
347
100
AcDbEntity
8
0
100
AcDbCircle
10
231.69843884228612
20
-6.684941964389175
30
0
40
0.49999999999997158
210
0
220
0
230
1
0
CIRCLE
5
348
100
AcDbEntity
8
0
100
AcDbCircle
10
224.43101018827238
20
-3.0361913893543062
30
0
40
0.84999999999990916
210
0
220
0
230
1
0
CIRCLE
5
349
100
AcDbEntity
8
0
100
AcDbCircle
10
230.82830351650969
20
3.517085506404884
30
0
40
0.7500000000001138
210
0
220
0
230
1
0
CIRCLE
5
350
100
AcDbEntity
8
0
100
AcDbCircle
10
224.04000000000008
20
-22.589999999999947
30
0
40
1.999999999999915
210
0
220
0
230
1
0
CIRCLE
5
351
100
AcDbEntity
8
0
100
AcDbCircle
10
223.85394393642244
20
-27.823037659066387
30
0
40
0.49999999999977263
210
0
220
0
230
1
0
CIRCLE
5
352
100
AcDbEntity
8
0
100
AcDbCircle
10
219.78516194652718
20
-20.897648636151995
30
0
40
0.75000000000014222
210
0
220
0
230
1
0
CIRCLE
5
353
100
AcDbEntity
8
0
100
AcDbCircle
10
226.33843884228625
20
-27.294941964389171
30
0
40
0.49999999999994321
210
0
220
0
230
1
0
CIRCLE
5
354
100
AcDbEntity
8
0
100
AcDbCircle
10
219.07101018827248
20
-23.646191389354204
30
0
40
0.84999999999990916
210
0
220
0
230
1
0
CIRCLE
5
355
100
AcDbEntity
8
0
100
AcDbCircle
10
229.00898981172787
20
-21.533808610645877
30
0
40
0.84999999999990916
210
0
220
0
230
1
0
CIRCLE
5
356
100
AcDbEntity
8
0
100
AcDbCircle
10
225.46830351650979
20
-17.09291449359511
30
0
40
0.75000000000008527
210
0
220
0
230
1
0
CIRCLE
5
357
100
AcDbEntity
8
0
100
AcDbCircle
10
232.66000000000005
20
-40.240000000000045
30
0
40
1.9999999999998579
210
0
220
0
230
1
0
CIRCLE
5
358
100
AcDbEntity
8
0
100
AcDbCircle
10
228.40516194652719
20
-38.547648636151813
30
0
40
0.75000000000014222
210
0
220
0
230
1
0
CIRCLE
5
359
100
AcDbEntity
8
0
100
AcDbCircle
10
234.95843884228617
20
-44.944941964389223
30
0
40
0.49999999999997158
210
0
220
0
230
1
0
CIRCLE
5
360
100
AcDbEntity
8
0
100
AcDbCircle
10
232.47394393642239
20
-45.4730376590663
30
0
40
0.49999999999977263
210
0
220
0
230
1
0
CIRCLE
5
361
100
AcDbEntity
8
0
100
AcDbCircle
10
237.62898981172782
20
-39.183808610645741
30
0
40
0.84999999999990916
210
0
220
0
230
1
0
CIRCLE
5
362
100
AcDbEntity
8
0
100
AcDbCircle
10
227.69101018827246
20
-41.296191389354171
30
0
40
0.84999999999988074
210
0
220
0
230
1
0
CIRCLE
5
363
100
AcDbEntity
8
0
100
AcDbCircle
10
234.08830351650971
20
-34.742914493595158
30
0
40
0.7500000000001138
210
0
220
0
230
1
0
CIRCLE
5
364
100
AcDbEntity
8
0
100
AcDbCircle
10
223.04516194652717
20
-59.157648636151833
30
0
40
0.75000000000005684
210
0
220
0
230
1
0
CIRCLE
5
365
100
AcDbEntity
8
0
100
AcDbCircle
10
227.29999999999995
20
-60.849999999999937
30
0
40
1.9999999999999432
210
0
220
0
230
1
0
CIRCLE
5
366
100
AcDbEntity
8
0
100
AcDbCircle
10
227.11394393642226
20
-66.083037659066306
30
0
40
0.49999999999985789
210
0
220
0
230
1
0
CIRCLE
5
367
100
AcDbEntity
8
0
100
AcDbCircle
10
229.59843884228616
20
-65.554941964389116
30
0
40
0.5
210
0
220
0
230
1
0
CIRCLE
5
368
100
AcDbEntity
8
0
100
AcDbCircle
10
232.26898981172783
20
-59.793808610645733
30
0
40
0.84999999999990916
210
0
220
0
230
1
0
CIRCLE
5
369
100
AcDbEntity
8
0
100
AcDbCircle
10
228.72830351650964
20
-55.352914493595158
30
0
40
0.75000000000014222
210
0
220
0
230
1
0
CIRCLE
5
370
100
AcDbEntity
8
0
100
AcDbCircle
10
222.33101018827242
20
-61.906191389354213
30
0
40
0.84999999999988074
210
0
220
0
230
1
0
CIRCLE
5
371
100
AcDbEntity
8
0
100
AcDbCircle
10
232.10999999999987
20
-80.840000000000089
30
0
40
1.9999999999998863
210
0
220
0
230
1
0
CIRCLE
5
372
100
AcDbEntity
8
0
100
AcDbCircle
10
227.85516194652701
20
-79.147648636151771
30
0
40
0.75000000000008527
210
0
220
0
230
1
0
CIRCLE
5
373
100
AcDbEntity
8
0
100
AcDbCircle
10
231.92394393642215
20
-86.073037659066415
30
0
40
0.49999999999985789
210
0
220
0
230
1
0
CIRCLE
5
374
100
AcDbEntity
8
0
100
AcDbCircle
10
237.07898981172769
20
-79.783808610645778
30
0
40
0.84999999999993747
210
0
220
0
230
1
0
CIRCLE
5
375
100
AcDbEntity
8
0
100
AcDbCircle
10
234.40843884228602
20
-85.544941964389238
30
0
40
0.49999999999997158
210
0
220
0
230
1
0
CIRCLE
5
376
100
AcDbEntity
8
0
100
AcDbCircle
10
227.14101018827228
20
-81.896191389354243
30
0
40
0.84999999999988074
210
0
220
0
230
1
0
CIRCLE
5
377
100
AcDbEntity
8
0
100
AcDbCircle
10
233.53830351650953
20
-75.342914493595217
30
0
40
0.75000000000014222
210
0
220
0
230
1
0
CIRCLE
5
378
100
AcDbEntity
8
0
100
AcDbCircle
10
210.76628820602107
20
-5.9407177100783386
30
0
40
1.9999999999998579
210
0
220
0
230
1
0
CIRCLE
5
379
100
AcDbEntity
8
0
100
AcDbCircle
10
210.58023214244329
20
-11.173755369144644
30
0
40
0.49999999999985789
210
0
220
0
230
1
0
CIRCLE
5
380
100
AcDbEntity
8
0
100
AcDbCircle
10
206.51145015254812
20
-4.2483663462302177
30
0
40
0.7500000000001138
210
0
220
0
230
1
0
CIRCLE
5
381
100
AcDbEntity
8
0
100
AcDbCircle
10
213.06472704830711
20
-10.645659674467565
30
0
40
0.49999999999997158
210
0
220
0
230
1
0
CIRCLE
5
382
100
AcDbEntity
8
0
100
AcDbCircle
10
215.73527801774884
20
-4.8845263207240874
30
0
40
0.84999999999990916
210
0
220
0
230
1
0
CIRCLE
5
383
100
AcDbEntity
8
0
100
AcDbCircle
10
205.79729839429345
20
-6.9969090994326333
30
0
40
0.84999999999988074
210
0
220
0
230
1
0
CIRCLE
5
384
100
AcDbEntity
8
0
100
AcDbCircle
10
205.40628820602109
20
-26.550717710078274
30
0
40
1.999999999999915
210
0
220
0
230
1
0
CIRCLE
5
385
100
AcDbEntity
8
0
100
AcDbCircle
10
212.19459172253067
20
-0.44363220367343503
30
0
40
0.75000000000014222
210
0
220
0
230
1
0
CIRCLE
5
386
100
AcDbEntity
8
0
100
AcDbCircle
10
201.15145015254819
20
-24.858366346230319
30
0
40
0.75000000000017053
210
0
220
0
230
1
0
CIRCLE
5
387
100
AcDbEntity
8
0
100
AcDbCircle
10
207.70472704830723
20
-31.255659674467498
30
0
40
0.49999999999997158
210
0
220
0
230
1
0
CIRCLE
5
388
100
AcDbEntity
8
0
100
AcDbCircle
10
205.22023214244342
20
-31.783755369144707
30
0
40
0.4999999999998011
210
0
220
0
230
1
0
CIRCLE
5
389
100
AcDbEntity
8
0
100
AcDbCircle
10
210.37527801774885
20
-25.494526320724201
30
0
40
0.84999999999990916
210
0
220
0
230
1
0
CIRCLE
5
390
100
AcDbEntity
8
0
100
AcDbCircle
10
206.83459172253077
20
-21.053632203673427
30
0
40
0.7500000000001138
210
0
220
0
230
1
0
CIRCLE
5
391
100
AcDbEntity
8
0
100
AcDbCircle
10
200.43729839429346
20
-27.606909099432535
30
0
40
0.84999999999993747
210
0
220
0
230
1
0
CIRCLE
5
392
100
AcDbEntity
8
0
100
AcDbCircle
10
214.02628820602104
20
-44.200717710078372
30
0
40
1.9999999999998863
210
0
220
0
230
1
0
CIRCLE
5
393
100
AcDbEntity
8
0
100
AcDbCircle
10
209.77145015254817
20
-42.508366346230133
30
0
40
0.75000000000017053
210
0
220
0
230
1
0
CIRCLE
5
394
100
AcDbEntity
8
0
100
AcDbCircle
10
213.84023214244337
20
-49.433755369144627
30
0
40
0.4999999999998011
210
0
220
0
230
1
0
CIRCLE
5
395
100
AcDbEntity
8
0
100
AcDbCircle
10
218.9952780177488
20
-43.14452632072409
30
0
40
0.84999999999990916
210
0
220
0
230
1
0
CIRCLE
5
396
100
AcDbEntity
8
0
100
AcDbCircle
10
216.32472704830718
20
-48.90565967446755
30
0
40
0.49999999999994321
210
0
220
0
230
1
0
CIRCLE
5
397
100
AcDbEntity
8
0
100
AcDbCircle
10
209.05729839429344
20
-45.256909099432491
30
0
40
0.84999999999990916
210
0
220
0
230
1
0
CIRCLE
5
398
100
AcDbEntity
8
0
100
AcDbCircle
10
215.45459172253075
20
-38.703632203673493
30
0
40
0.75000000000008527
210
0
220
0
230
1
0
CIRCLE
5
399
100
AcDbEntity
8
0
100
AcDbCircle
10
208.66628820602102
20
-64.810717710078265
30
0
40
1.999999999999915
210
0
220
0
230
1
0
CIRCLE
5
400
100
AcDbEntity
8
0
100
AcDbCircle
10
208.48023214244324
20
-70.043755369144634
30
0
40
0.49999999999988637
210
0
220
0
230
1
0
CIRCLE
5
401
100
AcDbEntity
8
0
100
AcDbCircle
10
204.41145015254816
20
-63.118366346230147
30
0
40
0.75000000000008527
210
0
220
0
230
1
0
CIRCLE
5
402
100
AcDbEntity
8
0
100
AcDbCircle
10
210.96472704830717
20
-69.515659674467372
30
0
40
0.49999999999997158
210
0
220
0
230
1
0
CIRCLE
5
403
100
AcDbEntity
8
0
100
AcDbCircle
10
203.6972983942934
20
-65.866909099432505
30
0
40
0.84999999999990916
210
0
220
0
230
1
0
CIRCLE
5
404
100
AcDbEntity
8
0
100
AcDbCircle
10
213.63527801774887
20
-63.754526320724061
30
0
40
0.84999999999990916
210
0
220
0
230
1
0
CIRCLE
5
405
100
AcDbEntity
8
0
100
AcDbCircle
10
210.09459172253062
20
-59.313632203673478
30
0
40
0.75000000000017053
210
0
220
0
230
1
0
CIRCLE
5
406
100
AcDbEntity
8
0
100
AcDbCircle
10
192.13257641204206
20
-9.9014354201566679
30
0
40
1.9999999999998863
210
0
220
0
230
1
0
CIRCLE
5
407
100
AcDbEntity
8
0
100
AcDbCircle
10
187.87773835856913
20
-8.2090840563085852
30
0
40
0.75000000000008527
210
0
220
0
230
1
0
CIRCLE
5
408
100
AcDbEntity
8
0
100
AcDbCircle
10
194.43101525432814
20
-14.60637738454589
30
0
40
0.49999999999994321
210
0
220
0
230
1
0
CIRCLE
5
409
100
AcDbEntity
8
0
100
AcDbCircle
10
191.94652034846425
20
-15.134473079222975
30
0
40
0.49999999999988637
210
0
220
0
230
1
0
CIRCLE
5
410
100
AcDbEntity
8
0
100
AcDbCircle
10
197.10156622376979
20
-8.8452440308024105
30
0
40
0.84999999999993747
210
0
220
0
230
1
0
CIRCLE
5
411
100
AcDbEntity
8
0
100
AcDbCircle
10
187.16358660031443
20
-10.957626809510961
30
0
40
0.84999999999990916
210
0
220
0
230
1
0
CIRCLE
5
412
100
AcDbEntity
8
0
100
AcDbCircle
10
193.56087992855166
20
-4.4043499137519362
30
0
40
0.7500000000001138
210
0
220
0
230
1
0
CIRCLE
5
413
100
AcDbEntity
8
0
100
AcDbCircle
10
182.5177383585692
20
-28.819084056308597
30
0
40
0.75000000000014222
210
0
220
0
230
1
0
CIRCLE
5
414
100
AcDbEntity
8
0
100
AcDbCircle
10
186.77257641204207
20
-30.511435420156602
30
0
40
1.999999999999915
210
0
220
0
230
1
0
CIRCLE
5
415
100
AcDbEntity
8
0
100
AcDbCircle
10
186.5865203484644
20
-35.744473079222921
30
0
40
0.4999999999998011
210
0
220
0
230
1
0
CIRCLE
5
416
100
AcDbEntity
8
0
100
AcDbCircle
10
191.74156622376987
20
-29.455244030802529
30
0
40
0.84999999999990916
210
0
220
0
230
1
0
CIRCLE
5
417
100
AcDbEntity
8
0
100
AcDbCircle
10
189.07101525432824
20
-35.216377384545815
30
0
40
0.49999999999994321
210
0
220
0
230
1
0
CIRCLE
5
418
100
AcDbEntity
8
0
100
AcDbCircle
10
181.80358660031447
20
-31.567626809510855
30
0
40
0.84999999999990916
210
0
220
0
230
1
0
CIRCLE
5
419
100
AcDbEntity
8
0
100
AcDbCircle
10
195.3925764120421
20
-48.161435420156693
30
0
40
1.9999999999998579
210
0
220
0
230
1
0
CIRCLE
5
420
100
AcDbEntity
8
0
100
AcDbCircle
10
188.20087992855179
20
-25.014349913751751
30
0
40
0.75000000000008527
210
0
220
0
230
1
0
CIRCLE
5
421
100
AcDbEntity
8
0
100
AcDbCircle
10
191.13773835856918
20
-46.469084056308454
30
0
40
0.75000000000014222
210
0
220
0
230
1
0
CIRCLE
5
422
100
AcDbEntity
8
0
100
AcDbCircle
10
197.69101525432816
20
-52.866377384545871
30
0
40
0.49999999999997158
210
0
220
0
230
1
0
CIRCLE
5
423
100
AcDbEntity
8
0
100
AcDbCircle
10
195.20652034846444
20
-53.394473079222934
30
0
40
0.49999999999977263
210
0
220
0
230
1
0
CIRCLE
5
424
100
AcDbEntity
8
0
100
AcDbCircle
10
200.36156622376984
20
-47.105244030802453
30
0
40
0.84999999999988074
210
0
220
0
230
1
0
CIRCLE
5
425
100
AcDbEntity
8
0
100
AcDbCircle
10
196.82087992855176
20
-42.664349913751806
30
0
40
0.75000000000005684
210
0
220
0
230
1
0
CIRCLE
5
426
100
AcDbEntity
8
0
100
AcDbCircle
10
190.42358660031448
20
-49.217626809510826
30
0
40
0.84999999999990916
210
0
220
0
230
1
0
CIRCLE
5
427
100
AcDbEntity
8
0
100
AcDbCircle
10
190.032576412042
20
-68.771435420156592
30
0
40
1.999999999999915
210
0
220
0
230
1
0
CIRCLE
5
428
100
AcDbEntity
8
0
100
AcDbCircle
10
185.77773835856917
20
-67.079084056308474
30
0
40
0.75000000000005684
210
0
220
0
230
1
0
CIRCLE
5
429
100
AcDbEntity
8
0
100
AcDbCircle
10
192.33101525432815
20
-73.476377384545771
30
0
40
0.5
210
0
220
0
230
1
0
CIRCLE
5
430
100
AcDbEntity
8
0
100
AcDbCircle
10
189.84652034846431
20
-74.004473079222976
30
0
40
0.49999999999985789
210
0
220
0
230
1
0
CIRCLE
5
431
100
AcDbEntity
8
0
100
AcDbCircle
10
195.00156622376988
20
-67.715244030802367
30
0
40
0.84999999999990916
210
0
220
0
230
1
0
CIRCLE
5
432
100
AcDbEntity
8
0
100
AcDbCircle
10
185.06358660031447
20
-69.827626809510832
30
0
40
0.84999999999988074
210
0
220
0
230
1
0
CIRCLE
5
433
100
AcDbEntity
8
0
100
AcDbCircle
10
191.46087992855169
20
-63.274349913751806
30
0
40
0.75000000000014222
210
0
220
0
230
1
0
CIRCLE
5
434
100
AcDbEntity
8
0
100
AcDbCircle
10
169.24402656459017
20
-12.16980176638687
30
0
40
0.75000000000008527
210
0
220
0
230
1
0
CIRCLE
5
435
100
AcDbEntity
8
0
100
AcDbCircle
10
173.49886461806295
20
-13.862153130234923
30
0
40
1.9999999999999432
210
0
220
0
230
1
0
CIRCLE
5
436
100
AcDbEntity
8
0
100
AcDbCircle
10
173.31280855448526
20
-19.095190789301245
30
0
40
0.49999999999985789
210
0
220
0
230
1
0
CIRCLE
5
437
100
AcDbEntity
8
0
100
AcDbCircle
10
175.79730346034916
20
-18.567095094624221
30
0
40
0.49999999999997158
210
0
220
0
230
1
0
CIRCLE
5
438
100
AcDbEntity
8
0
100
AcDbCircle
10
178.4678544297908
20
-12.805961740880733
30
0
40
0.84999999999990916
210
0
220
0
230
1
0
CIRCLE
5
439
100
AcDbEntity
8
0
100
AcDbCircle
10
174.92716813457264
20
-8.365067623830253
30
0
40
0.7500000000001138
210
0
220
0
230
1
0
CIRCLE
5
440
100
AcDbEntity
8
0
100
AcDbCircle
10
168.52987480633539
20
-14.918344519589157
30
0
40
0.84999999999993747
210
0
220
0
230
1
0
CIRCLE
5
441
100
AcDbEntity
8
0
100
AcDbCircle
10
168.13886461806308
20
-34.472153130234979
30
0
40
1.9999999999998863
210
0
220
0
230
1
0
CIRCLE
5
442
100
AcDbEntity
8
0
100
AcDbCircle
10
163.88402656459019
20
-32.779801766386818
30
0
40
0.75000000000014222
210
0
220
0
230
1
0
CIRCLE
5
443
100
AcDbEntity
8
0
100
AcDbCircle
10
170.43730346034923
20
-39.177095094624143
30
0
40
0.49999999999994321
210
0
220
0
230
1
0
CIRCLE
5
444
100
AcDbEntity
8
0
100
AcDbCircle
10
167.95280855448539
20
-39.705190789301319
30
0
40
0.4999999999998011
210
0
220
0
230
1
0
CIRCLE
5
445
100
AcDbEntity
8
0
100
AcDbCircle
10
173.10785442979082
20
-33.415961740880739
30
0
40
0.84999999999993747
210
0
220
0
230
1
0
CIRCLE
5
446
100
AcDbEntity
8
0
100
AcDbCircle
10
163.16987480633546
20
-35.528344519589268
30
0
40
0.84999999999990916
210
0
220
0
230
1
0
CIRCLE
5
447
100
AcDbEntity
8
0
100
AcDbCircle
10
176.75886461806303
20
-52.122153130235006
30
0
40
1.9999999999998863
210
0
220
0
230
1
0
CIRCLE
5
448
100
AcDbEntity
8
0
100
AcDbCircle
10
169.56716813457277
20
-28.975067623830171
30
0
40
0.75000000000008527
210
0
220
0
230
1
0
CIRCLE
5
449
100
AcDbEntity
8
0
100
AcDbCircle
10
172.50402656459016
20
-50.429801766386788
30
0
40
0.75000000000014222
210
0
220
0
230
1
0
CIRCLE
5
450
100
AcDbEntity
8
0
100
AcDbCircle
10
176.57280855448536
20
-57.355190789301282
30
0
40
0.4999999999998011
210
0
220
0
230
1
0
CIRCLE
5
451
100
AcDbEntity
8
0
100
AcDbCircle
10
179.05730346034917
20
-56.827095094624198
30
0
40
0.49999999999994321
210
0
220
0
230
1
0
CIRCLE
5
452
100
AcDbEntity
8
0
100
AcDbCircle
10
181.7278544297908
20
-51.065961740880788
30
0
40
0.84999999999990916
210
0
220
0
230
1
0
CIRCLE
5
453
100
AcDbEntity
8
0
100
AcDbCircle
10
178.18716813457272
20
-46.625067623830233
30
0
40
0.75000000000008527
210
0
220
0
230
1
0
CIRCLE
5
454
100
AcDbEntity
8
0
100
AcDbCircle
10
171.78987480633543
20
-53.178344519589132
30
0
40
0.84999999999990916
210
0
220
0
230
1
0
CIRCLE
5
455
100
AcDbEntity
8
0
100
AcDbCircle
10
171.39886461806304
20
-72.732153130234963
30
0
40
1.9999999999998579
210
0
220
0
230
1
0
CIRCLE
5
456
100
AcDbEntity
8
0
100
AcDbCircle
10
167.14402656459012
20
-71.039801766386887
30
0
40
0.75000000000008527
210
0
220
0
230
1
0
CIRCLE
5
457
100
AcDbEntity
8
0
100
AcDbCircle
10
173.6973034603491
20
-77.437095094624198
30
0
40
0.5
210
0
220
0
230
1
0
CIRCLE
5
458
100
AcDbEntity
8
0
100
AcDbCircle
10
171.21280855448529
20
-77.965190789301261
30
0
40
0.49999999999985789
210
0
220
0
230
1
0
CIRCLE
5
459
100
AcDbEntity
8
0
100
AcDbCircle
10
176.36785442979084
20
-71.67596174088068
30
0
40
0.84999999999993747
210
0
220
0
230
1
0
CIRCLE
5
460
100
AcDbEntity
8
0
100
AcDbCircle
10
166.42987480633539
20
-73.788344519589245
30
0
40
0.84999999999990916
210
0
220
0
230
1
0
CIRCLE
5
461
100
AcDbEntity
8
0
100
AcDbCircle
10
172.82716813457267
20
-67.235067623830119
30
0
40
0.75000000000014222
210
0
220
0
230
1
0
CIRCLE
5
462
100
AcDbEntity
8
0
100
AcDbCircle
10
160.16999999999953
20
9.4300000000000921
30
0
40
0.27500000000006253
210
0
220
0
230
1
0
CIRCLE
5
463
100
AcDbEntity
8
0
100
AcDbCircle
10
158.56999999999951
20
9.4300000000000725
30
0
40
0.27500000000003411
210
0
220
0
230
1
0
CIRCLE
5
464
100
AcDbEntity
8
0
100
AcDbCircle
10
5.3400000000000061
20
-24.130000000000017
30
0
40
0.49999999999995026
210
0
220
0
230
1
0
LWPOLYLINE
5
465
100
AcDbEntity
8
0
100
AcDbPolyline
90
21
70
1
43
0.0
10
-8.9999999999999076
20
-85.402055052820543
42
-4.3588989434854106
10
-8.9999999999998934
20
-85.837944947179551
10
-8.9999999999998987
20
-86.339999999999975
42
0.41421356237307977
10
-7.999999999999865
20
-87.339999999999947
10
64.692486608910698
20
-87.339999999999947
10
159.36999999999878
20
-107.46432671387667
10
254.04751339108697
20
-87.339999999999932
10
327.2387500000001
20
-87.339999999999932
42
0.41421356237306384
10
328.2387500000001
20
-86.339999999999918
10
328.2387500000001
20
7.9999999999999725
42
0.41421356237306156
10
327.2387500000001
20
8.9999999999999858
10
164.14519999999951
20
8.9999999999999734
10
164.14519999999951
20
15.171897333300119
10
154.59479999999954
20
15.171901333300058
10
154.59479999999957
20
8.9999999999999734
10
-7.999999999999897
20
8.9999999999999734
42
0.41421356237308232
10
-8.9999999999998987
20
7.9999999999999716
10
-8.9999999999999005
20
-76.402055052820529
42
-4.3588989434854106
10
-8.9999999999998934
20
-76.837944947179537
10
-8.9999999999999076
20
-80.902055052820543
42
-4.3588989434854106
10
-8.9999999999998934
20
-81.337944947179537
0
ARC
5
466
100
AcDbEntity
8
0
100
AcDbCircle
10
26.35232000000012
20
-37.700000000000053
30
0
40
0.75000000000002465
210
0
220
0
230
1
100
AcDbArc
50
-95.05320236996684
51
233.9482315808616
0
ARC
5
467
100
AcDbEntity
8
0
100
AcDbCircle
10
25.399999999999995
20
-40.239999999999995
30
0
40
2.0000000000000142
210
0
220
0
230
1
100
AcDbArc
50
-104.80122959787293
51
243.69625880876637
0
ARC
5
468
100
AcDbEntity
8
0
100
AcDbCircle
10
120.86042603507758
20
-95.6871098988656
30
0
40
1.4999999999998561
210
0
220
-0
230
1
100
AcDbArc
50
26.516121269663408
51
309.25837820660712
0
ARC
5
469
100
AcDbEntity
8
0
100
AcDbCircle
10
123.15186704354255
20
-96.178885670730097
30
0
40
1.4999999999997926
210
0
220
0
230
1
100
AcDbArc
50
-153.48387873033417
51
129.25837820660294
0
ARC
5
470
100
AcDbEntity
8
0
100
AcDbCircle
10
126.32044121160521
20
-81.271916235546939
30
0
40
2.0000000000000253
210
0
220
0
230
1
100
AcDbArc
50
-137.97966468815252
51
113.7541641644216
0
ARC
5
471
100
AcDbEntity
8
0
100
AcDbCircle
10
124.02900020314024
20
-80.780140463682443
30
0
40
1.9999999999999942
210
0
220
-0
230
1
100
AcDbArc
50
42.020335311847731
51
293.75416416442124
0
ARC
5
472
100
AcDbEntity
8
0
100
AcDbCircle
10
99.79761492842222
20
-91.214786140765213
30
0
40
1.4999999999998561
210
0
220
0
230
1
100
AcDbArc
50
-153.48387873033249
51
129.25837820660399
0
ARC
5
473
100
AcDbEntity
8
0
100
AcDbCircle
10
97.506173919957249
20
-90.723010368900759
30
0
40
1.4999999999998481
210
0
220
-0
230
1
100
AcDbArc
50
26.516121269667529
51
309.25837820660274
0
ARC
5
474
100
AcDbEntity
8
0
100
AcDbCircle
10
100.67474808801987
20
-75.816040933717602
30
0
40
1.9999999999999059
210
0
220
-0
230
1
100
AcDbArc
50
42.02033531184091
51
293.75416416442977
0
LWPOLYLINE
5
475
100
AcDbEntity
8
0
100
AcDbPolyline
90
6
70
1
43
0.0
10
114.78021663687947
20
-87.619406608223727
42
-0.55239610873275014
10
111.44418541583565
20
-88.198788639585658
42
-0.5500144949104675
10
108.63923665239116
20
-86.316164798633466
42
-4.4801237501711944
10
108.7883423546557
20
-85.608817619911093
42
-0.55239610873264744
10
112.12437357569952
20
-85.029435588549859
42
-0.55001449491052279
10
114.92932233914375
20
-86.912059429502634
42
-4.4801237501791018
0
ARC
5
476
100
AcDbEntity
8
0
100
AcDbCircle
10
102.96618909648488
20
-76.307816705582098
30
0
40
1.9999999999997948
210
0
220
0
230
1
100
AcDbArc
50
-137.97966468815383
51
113.75416416442378
0
ARC
5
477
100
AcDbEntity
8
0
100
AcDbCircle
10
110.6315611577138
20
-91.564941964389163
30
0
40
0.49999999999994527
210
0
220
-0
230
1
100
AcDbArc
50
68.016382706123508
51
270.67417651321881
0
ARC
5
478
100
AcDbEntity
8
0
100
AcDbCircle
10
110.82461505511276
20
-91.601261887201829
30
0
40
0.49999999999985123
210
0
220
0
230
1
100
AcDbArc
50
-111.98361729381362
51
90.674176513157093
0
ARC
5
479
100
AcDbEntity
8
0
100
AcDbCircle
10
297.49000000000001
20
-59.289999999999992
30
0
40
0.8500000000001996
210
0
220
-0
230
1
100
AcDbArc
50
68.06654936639535
51
291.9334506336084
0
ARC
5
480
100
AcDbEntity
8
0
100
AcDbCircle
10
298.12500000000006
20
-59.289999999999992
30
0
40
0.84999999999865528
210
0
220
0
230
1
100
AcDbArc
50
-111.93345063334183
51
111.93345063334519
0
ARC
5
481
100
AcDbEntity
8
0
100
AcDbCircle
10
141.12107627909273
20
-98.040973515740575
30
0
40
0.49999999999997347
210
0
220
0
230
1
100
AcDbArc
50
-111.97987118020558
51
87.979871180200703
0
LWPOLYLINE
5
482
100
AcDbEntity
8
0
100
AcDbPolyline
90
6
70
1
43
0.0
10
145.24988618724734
20
-93.321336308420499
42
-4.0581460691335556
10
145.08566520062462
20
-94.093935306694263
42
-0.54797849336383542
10
141.75728286478937
20
-94.631088109122715
42
-0.54797849336379367
10
138.93513402826775
20
-92.786599548254017
42
-4.0581460691302933
10
139.09935501489062
20
-92.01400054997977
42
-0.54797849336378246
10
142.42773735072572
20
-91.476847747551517
42
-0.54797849336384996
0
ARC
5
483
100
AcDbEntity
8
0
100
AcDbCircle
10
140.95156115771388
20
-98.004941964389204
30
0
40
0.49999999999984562
210
0
220
-0
230
1
100
AcDbArc
50
68.02012881988388
51
267.97987118011207
0
ARC
5
484
100
AcDbEntity
8
0
100
AcDbCircle
10
301.55000000000018
20
-2.1400000000000032
30
0
40
0.84999999999860743
210
0
220
-0
230
1
100
AcDbArc
50
68.066549366649511
51
291.93345063335414
0
ARC
5
485
100
AcDbEntity
8
0
100
AcDbCircle
10
302.18500000000017
20
-2.1400000000000032
30
0
40
0.85000000000010156
210
0
220
0
230
1
100
AcDbArc
50
-111.93345063359587
51
111.93345063359931
0
LWPOLYLINE
5
486
100
AcDbEntity
8
0
100
AcDbPolyline
90
2
70
1
43
0.0
10
308.59255751343738
20
3.4186023137349393
42
-5.3282542194522691
10
309.67784300081468
20
3.4919017000551271
42
-2.328506682151481
0
ARC
5
487
100
AcDbEntity
8
0
100
AcDbCircle
10
292.66000000000008
20
-2.1400000000000032
30
0
40
0.84999999999864639
210
0
220
0
230
1
100
AcDbArc
50
-111.93345063334121
51
111.93345063334139
0
LWPOLYLINE
5
488
100
AcDbEntity
8
0
100
AcDbPolyline
90
4
70
1
43
0.0
10
162.63899999999953
20
13.918000000000006
42
-0.99999999999999989
10
163.40099999999953
20
13.918000000000113
10
163.40099999999953
20
12.642000000000056
42
-0.99999999999999989
10
162.63899999999953
20
12.642000000000113
0
ARC
5
489
100
AcDbEntity
8
0
100
AcDbCircle
10
292.02500000000009
20
-2.1400000000000032
30
0
40
0.85000000000020459
210
0
220
-0
230
1
100
AcDbArc
50
68.066549366395606
51
291.93345063360425
0
LWPOLYLINE
5
490
100
AcDbEntity
8
0
100
AcDbPolyline
90
4
70
1
43
0.0
10
156.10099999999949
20
12.642000000000158
42
-0.99999999999999989
10
155.33899999999949
20
12.642000000000046
10
155.33899999999954
20
13.918000000000138
42
-0.99999999999999989
10
156.10099999999954
20
13.918000000000074
0
CIRCLE
5
491
100
AcDbEntity
8
0
100
AcDbCircle
10
118.23774861921629
20
3.2418593181071214
30
0
40
2.5
210
0
220
0
230
1
0
CIRCLE
5
492
100
AcDbEntity
8
0
100
AcDbCircle
10
199.18304833616628
20
4.9223239642488501
30
0
40
2.4999999999999716
210
0
220
0
230
1
0
CIRCLE
5
493
100
AcDbEntity
8
0
100
AcDbCircle
10
-6.01000000000115
20
-85.620000000000061
30
0
40
0.49999999999994049
210
0
220
0
230
1
0
CIRCLE
5
494
100
AcDbEntity
8
0
100
AcDbCircle
10
-6.010000000001142
20
-81.120000000000061
30
0
40
0.49999999999993339
210
0
220
0
230
1
0
CIRCLE
5
495
100
AcDbEntity
8
0
100
AcDbCircle
10
28.892320000000087
20
-45.320000000000071
30
0
40
0.49999999999971934
210
0
220
0
230
1
0
CIRCLE
5
496
100
AcDbEntity
8
0
100
AcDbCircle
10
-6.0100000000011358
20
-76.620000000000047
30
0
40
0.49999999999992634
210
0
220
0
230
1
0
CIRCLE
5
497
100
AcDbEntity
8
0
100
AcDbCircle
10
35.242320000000177
20
-40.239999999999995
30
0
40
0.84999999999980258
210
0
220
0
230
1
0
CIRCLE
5
498
100
AcDbEntity
8
0
100
AcDbCircle
10
32.702319999999951
20
-35.160000000000018
30
0
40
0.7500000000002488
210
0
220
0
230
1
0
CIRCLE
5
499
100
AcDbEntity
8
0
100
AcDbCircle
10
30.162319999999983
20
-40.240000000000066
30
0
40
1.999999999999986
210
0
220
0
230
1
0
CIRCLE
5
500
100
AcDbEntity
8
0
100
AcDbCircle
10
31.432320000000086
20
-45.319999999999993
30
0
40
0.49999999999995742
210
0
220
0
230
1
0
CIRCLE
5
501
100
AcDbEntity
8
0
100
AcDbCircle
10
157.76999999999953
20
8.2300000000000626
30
0
40
0.27500000000003411
210
0
220
0
230
1
0
CIRCLE
5
502
100
AcDbEntity
8
0
100
AcDbCircle
10
159.36999999999952
20
8.2300000000000058
30
0
40
0.27500000000003411
210
0
220
0
230
1
0
CIRCLE
5
503
100
AcDbEntity
8
0
100
AcDbCircle
10
160.96999999999957
20
8.2300000000000892
30
0
40
0.27500000000003411
210
0
220
0
230
1
0
CIRCLE
5
504
100
AcDbEntity
8
0
100
AcDbCircle
10
25.680000000000035
20
-59.289999999999942
30
0
40
0.8500000000001009
210
0
220
0
230
1
0
CIRCLE
5
505
100
AcDbEntity
8
0
100
AcDbCircle
10
309.04100000000017
20
-10.389999999999944
30
0
40
1.9999999999999432
210
0
220
0
230
1
0
CIRCLE
5
506
100
AcDbEntity
8
0
100
AcDbCircle
10
42.696000000000076
20
-67.539999999999893
30
0
40
1.9999999999999929
210
0
220
0
230
1
0
CIRCLE
5
507
100
AcDbEntity
8
0
100
AcDbCircle
10
314.50600000000009
20
-67.539999999999822
30
0
40
2
210
0
220
0
230
1
0
CIRCLE
5
508
100
AcDbEntity
8
0
100
AcDbCircle
10
291.22000000000008
20
-31.990000000000194
30
0
40
1.9999999999998863
210
0
220
0
230
1
0
CIRCLE
5
509
100
AcDbEntity
8
0
100
AcDbCircle
10
298.0800000000001
20
-40.239999999999753
30
0
40
0.85000000000013642
210
0
220
0
230
1
0
CIRCLE
5
510
100
AcDbEntity
8
0
100
AcDbCircle
10
117.89898981172774
20
-87.916191389354296
30
0
40
0.84999999999998022
210
0
220
0
230
1
0
CIRCLE
5
511
100
AcDbEntity
8
0
100
AcDbCircle
10
191.51394393642227
20
-93.133037659065963
30
0
40
0.5
210
0
220
0
230
1
0
CIRCLE
5
512
100
AcDbEntity
8
0
100
AcDbCircle
10
193.9984388422863
20
-92.604941964388857
30
0
40
0.4999999999998011
210
0
220
0
230
1
0
CIRCLE
5
513
100
AcDbEntity
8
0
100
AcDbCircle
10
191.70000000000005
20
-87.899999999999693
30
0
40
1.9999999999998579
210
0
220
0
230
1
0
CIRCLE
5
514
100
AcDbEntity
8
0
100
AcDbCircle
10
187.44516194652715
20
-86.207648636151532
30
0
40
0.75000000000028433
210
0
220
0
230
1
0
CIRCLE
5
515
100
AcDbEntity
8
0
100
AcDbCircle
10
196.6689898117279
20
-86.843808610645468
30
0
40
0.84999999999996589
210
0
220
0
230
1
0
CIRCLE
5
516
100
AcDbEntity
8
0
100
AcDbCircle
10
193.12830351650976
20
-82.402914493594821
30
0
40
0.75000000000028433
210
0
220
0
230
1
0
CIRCLE
5
517
100
AcDbEntity
8
0
100
AcDbCircle
10
204.82847248117494
20
-92.255617787528195
30
0
40
1.4999999999998579
210
0
220
0
230
1
0
CIRCLE
5
518
100
AcDbEntity
8
0
100
AcDbCircle
10
201.65989831311222
20
-77.348648352345094
30
0
40
2.0000000000000284
210
0
220
0
230
1
0
CIRCLE
5
519
100
AcDbEntity
8
0
100
AcDbCircle
10
89.440000000000012
20
-3.9600000000000328
30
0
40
1.9999999999998721
210
0
220
0
230
1
0
CIRCLE
5
520
100
AcDbEntity
8
0
100
AcDbCircle
10
181.47422036605457
20
-97.219717317493121
30
0
40
1.4999999999998579
210
0
220
0
230
1
0
CIRCLE
5
521
100
AcDbEntity
8
0
100
AcDbCircle
10
108.3401201492488
20
-91.07316619252471
30
0
40
0.49999999999994321
210
0
220
0
230
1
0
CIRCLE
5
522
100
AcDbEntity
8
0
100
AcDbCircle
10
114.17924528675314
20
-81.927330111084927
30
0
40
0.75000000000025591
210
0
220
0
230
1
0
CIRCLE
5
523
100
AcDbEntity
8
0
100
AcDbCircle
10
107.43991232741628
20
-83.091585780256025
30
0
40
0.75000000000024158
210
0
220
0
230
1
0
CIRCLE
5
524
100
AcDbEntity
8
0
100
AcDbCircle
10
105.66956917980725
20
-85.312032838781292
30
0
40
0.85000000000017906
210
0
220
0
230
1
0
CIRCLE
5
525
100
AcDbEntity
8
0
100
AcDbCircle
10
178.3056461979919
20
-82.312747882309907
30
0
40
1.9999999999998863
210
0
220
0
230
1
0
CIRCLE
5
526
100
AcDbEntity
8
0
100
AcDbCircle
10
297.10500000000013
20
-2.1400000000001764
30
0
40
1.9999999999998863
210
0
220
0
230
1
0
CIRCLE
5
527
100
AcDbEntity
8
0
100
AcDbCircle
10
186.73101018827231
20
-88.956191389353933
30
0
40
0.85000000000007958
210
0
220
0
230
1
0
CIRCLE
5
528
100
AcDbEntity
8
0
100
AcDbCircle
10
109.73135333588124
20
-83.583361552120564
30
0
40
0.75000000000027001
210
0
220
0
230
1
0
CIRCLE
5
529
100
AcDbEntity
8
0
100
AcDbCircle
10
116.47068629521812
20
-82.419105882949481
30
0
40
0.75000000000024158
210
0
220
0
230
1
0
CIRCLE
5
530
100
AcDbEntity
8
0
100
AcDbCircle
10
113.11605606357786
20
-92.093037659066312
30
0
40
0.49999999999973005
210
0
220
0
230
1
0
CIRCLE
5
531
100
AcDbEntity
8
0
100
AcDbCircle
10
315.09600000000023
20
-31.990000000000162
30
0
40
1.9999999999999432
210
0
220
0
230
1
0
CIRCLE
5
532
100
AcDbEntity
8
0
100
AcDbCircle
10
291.22000000000008
20
-47.22999999999999
30
0
40
1.4999999999998295
210
0
220
0
230
1
0
CIRCLE
5
533
100
AcDbEntity
8
0
100
AcDbCircle
10
315.09600000000012
20
-47.230000000000054
30
0
40
1.4999999999998295
210
0
220
0
230
1
0
CIRCLE
5
534
100
AcDbEntity
8
0
100
AcDbCircle
10
305.7000000000001
20
-35.159999999999933
30
0
40
0.75000000000028433
210
0
220
0
230
1
0
CIRCLE
5
535
100
AcDbEntity
8
0
100
AcDbCircle
10
308.24000000000018
20
-40.239999999999995
30
0
40
0.85000000000002285
210
0
220
0
230
1
0
CIRCLE
5
536
100
AcDbEntity
8
0
100
AcDbCircle
10
299.35000000000002
20
-37.699999999999953
30
0
40
0.75000000000028433
210
0
220
0
230
1
0
CIRCLE
5
537
100
AcDbEntity
8
0
100
AcDbCircle
10
301.8900000000001
20
-45.319999999999972
30
0
40
0.49999999999994321
210
0
220
0
230
1
0
CIRCLE
5
538
100
AcDbEntity
8
0
100
AcDbCircle
10
303.16000000000003
20
-40.240000000000073
30
0
40
1.9999999999998863
210
0
220
0
230
1
0
CIRCLE
5
539
100
AcDbEntity
8
0
100
AcDbCircle
10
304.43000000000018
20
-45.319999999999951
30
0
40
0.49999999999982947
210
0
220
0
230
1
0
CIRCLE
5
540
100
AcDbEntity
8
0
100
AcDbCircle
10
290.63000000000005
20
-52.30000000000004
30
0
40
1.4999999999998295
210
0
220
0
230
1
0
CIRCLE
5
541
100
AcDbEntity
8
0
100
AcDbCircle
10
290.63000000000005
20
-67.539999999999793
30
0
40
1.9999999999998863
210
0
220
0
230
1
0
CIRCLE
5
542
100
AcDbEntity
8
0
100
AcDbCircle
10
314.50600000000009
20
-52.299999999999969
30
0
40
1.4999999999998295
210
0
220
0
230
1
0
CIRCLE
5
543
100
AcDbEntity
8
0
100
AcDbCircle
10
305.11000000000013
20
-54.209999999999923
30
0
40
0.75000000000028433
210
0
220
0
230
1
0
CIRCLE
5
544
100
AcDbEntity
8
0
100
AcDbCircle
10
307.65000000000009
20
-59.290000000000006
30
0
40
0.84999999999996589
210
0
220
0
230
1
0
CIRCLE
5
545
100
AcDbEntity
8
0
100
AcDbCircle
10
298.75999999999999
20
-56.75
30
0
40
0.75000000000028433
210
0
220
0
230
1
0
CIRCLE
5
546
100
AcDbEntity
8
0
100
AcDbCircle
10
302.56999999999999
20
-59.289999999999807
30
0
40
1.9999999999998863
210
0
220
0
230
1
0
CIRCLE
5
547
100
AcDbEntity
8
0
100
AcDbCircle
10
303.84000000000015
20
-64.370000000000061
30
0
40
0.49999999999977263
210
0
220
0
230
1
0
CIRCLE
5
548
100
AcDbEntity
8
0
100
AcDbCircle
10
301.29999999999995
20
-64.369999999999948
30
0
40
0.5
210
0
220
0
230
1
0
CIRCLE
5
549
100
AcDbEntity
8
0
100
AcDbCircle
10
285.16500000000013
20
-10.389999999999899
30
0
40
1.9999999999998863
210
0
220
0
230
1
0
CIRCLE
5
550
100
AcDbEntity
8
0
100
AcDbCircle
10
299.64500000000021
20
2.9400000000000723
30
0
40
0.75000000000022737
210
0
220
0
230
1
0
CIRCLE
5
551
100
AcDbEntity
8
0
100
AcDbCircle
10
285.16500000000013
20
4.8500000000001293
30
0
40
1.4999999999998295
210
0
220
0
230
1
0
CIRCLE
5
552
100
AcDbEntity
8
0
100
AcDbCircle
10
293.29500000000007
20
0.40000000000003022
30
0
40
0.75000000000028433
210
0
220
0
230
1
0
CIRCLE
5
553
100
AcDbEntity
8
0
100
AcDbCircle
10
298.37500000000023
20
-7.2199999999998461
30
0
40
0.49999999999982947
210
0
220
0
230
1
0
CIRCLE
5
554
100
AcDbEntity
8
0
100
AcDbCircle
10
295.83500000000004
20
-7.2199999999999598
30
0
40
0.5
210
0
220
0
230
1
0
CIRCLE
5
555
100
AcDbEntity
8
0
100
AcDbCircle
10
18.820000000000078
20
-67.539999999999878
30
0
40
1.9999999999998757
210
0
220
0
230
1
0
CIRCLE
5
556
100
AcDbEntity
8
0
100
AcDbCircle
10
42.696000000000069
20
-52.299999999999962
30
0
40
1.4999999999998368
210
0
220
0
230
1
0
CIRCLE
5
557
100
AcDbEntity
8
0
100
AcDbCircle
10
18.820000000000061
20
-52.300000000000011
30
0
40
1.499999999999833
210
0
220
0
230
1
0
CIRCLE
5
558
100
AcDbEntity
8
0
100
AcDbCircle
10
35.840000000000096
20
-59.289999999999949
30
0
40
0.84999999999998732
210
0
220
0
230
1
0
CIRCLE
5
559
100
AcDbEntity
8
0
100
AcDbCircle
10
26.950000000000035
20
-56.75000000000005
30
0
40
0.7500000000002488
210
0
220
0
230
1
0
CIRCLE
5
560
100
AcDbEntity
8
0
100
AcDbCircle
10
33.300000000000111
20
-54.209999999999958
30
0
40
0.7500000000002488
210
0
220
0
230
1
0
CIRCLE
5
561
100
AcDbEntity
8
0
100
AcDbCircle
10
30.760000000000005
20
-59.289999999999914
30
0
40
1.9999999999998972
210
0
220
0
230
1
0
CIRCLE
5
562
100
AcDbEntity
8
0
100
AcDbCircle
10
32.030000000000108
20
-64.369999999999962
30
0
40
0.49999999999983663
210
0
220
0
230
1
0
CIRCLE
5
563
100
AcDbEntity
8
0
100
AcDbCircle
10
29.490000000000013
20
-64.369999999999919
30
0
40
0.49999999999995026
210
0
220
0
230
1
0
CIRCLE
5
564
100
AcDbEntity
8
0
100
AcDbCircle
10
229.40000000000001
20
-1.9800000000000129
30
0
40
1.9999999999998863
210
0
220
0
230
1
0
CIRCLE
5
565
100
AcDbEntity
8
0
100
AcDbCircle
10
61.710000000000036
20
-59.289999999999935
30
0
40
1.9999999999999007
210
0
220
0
230
1
0
CIRCLE
5
566
100
AcDbEntity
8
0
100
AcDbCircle
10
225.14516194652714
20
-0.28764863615190034
30
0
40
0.7500000000001138
210
0
220
0
230
1
0
CIRCLE
5
567
100
AcDbEntity
8
0
100
AcDbCircle
10
57.900000000000063
20
-56.750000000000007
30
0
40
0.75000000000014222
210
0
220
0
230
1
0
CIRCLE
5
568
100
AcDbEntity
8
0
100
AcDbCircle
10
60.440000000000055
20
-64.369999999999962
30
0
40
0.49999999999982947
210
0
220
0
230
1
0
CIRCLE
5
569
100
AcDbEntity
8
0
100
AcDbCircle
10
66.790000000000134
20
-59.289999999999914
30
0
40
0.84999999999989484
210
0
220
0
230
1
0
CIRCLE
5
570
100
AcDbEntity
8
0
100
AcDbCircle
10
62.980000000000018
20
-64.36999999999999
30
0
40
0.49999999999996447
210
0
220
0
230
1
0
CIRCLE
5
571
100
AcDbEntity
8
0
100
AcDbCircle
10
56.630000000000187
20
-59.289999999999942
30
0
40
0.84999999999990195
210
0
220
0
230
1
0
CIRCLE
5
572
100
AcDbEntity
8
0
100
AcDbCircle
10
56.36000000000007
20
-40.239999999999966
30
0
40
1.9999999999997868
210
0
220
0
230
1
0
CIRCLE
5
573
100
AcDbEntity
8
0
100
AcDbCircle
10
64.250000000000014
20
-54.20999999999998
30
0
40
0.75000000000015632
210
0
220
0
230
1
0
CIRCLE
5
574
100
AcDbEntity
8
0
100
AcDbCircle
10
52.54999999999999
20
-37.700000000000074
30
0
40
0.7500000000002488
210
0
220
0
230
1
0
CIRCLE
5
575
100
AcDbEntity
8
0
100
AcDbCircle
10
57.629999999999967
20
-45.320000000000029
30
0
40
0.49999999999994321
210
0
220
0
230
1
0
CIRCLE
5
576
100
AcDbEntity
8
0
100
AcDbCircle
10
55.089999999999975
20
-45.32
30
0
40
0.49999999999994321
210
0
220
0
230
1
0
CIRCLE
5
577
100
AcDbEntity
8
0
100
AcDbCircle
10
61.440000000000055
20
-40.239999999999974
30
0
40
0.85000000000001574
210
0
220
0
230
1
0
CIRCLE
5
578
100
AcDbEntity
8
0
100
AcDbCircle
10
58.90000000000007
20
-35.159999999999997
30
0
40
0.75000000000002842
210
0
220
0
230
1
0
CIRCLE
5
579
100
AcDbEntity
8
0
100
AcDbCircle
10
51.280000000000101
20
-40.239999999999974
30
0
40
0.85000000000002984
210
0
220
0
230
1
0
CIRCLE
5
580
100
AcDbEntity
8
0
100
AcDbCircle
10
55.660000000000053
20
-21.189999999999941
30
0
40
1.9999999999998863
210
0
220
0
230
1
0
CIRCLE
5
581
100
AcDbEntity
8
0
100
AcDbCircle
10
54.390000000000057
20
-26.269999999999996
30
0
40
0.49999999999983663
210
0
220
0
230
1
0
CIRCLE
5
582
100
AcDbEntity
8
0
100
AcDbCircle
10
51.850000000000058
20
-18.650000000000031
30
0
40
0.75000000000014222
210
0
220
0
230
1
0
CIRCLE
5
583
100
AcDbEntity
8
0
100
AcDbCircle
10
56.930000000000042
20
-26.270000000000003
30
0
40
0.49999999999994321
210
0
220
0
230
1
0
CIRCLE
5
584
100
AcDbEntity
8
0
100
AcDbCircle
10
50.580000000000183
20
-21.189999999999969
30
0
40
0.84999999999990195
210
0
220
0
230
1
0
CIRCLE
5
585
100
AcDbEntity
8
0
100
AcDbCircle
10
60.740000000000123
20
-21.189999999999994
30
0
40
0.84999999999990916
210
0
220
0
230
1
0
CIRCLE
5
586
100
AcDbEntity
8
0
100
AcDbCircle
10
58.200000000000031
20
-16.109999999999989
30
0
40
0.75000000000014222
210
0
220
0
230
1
0
CIRCLE
5
587
100
AcDbEntity
8
0
100
AcDbCircle
10
65.130000000000024
20
2.5399999999999618
30
0
40
0.75000000000014222
210
0
220
0
230
1
0
CIRCLE
5
588
100
AcDbEntity
8
0
100
AcDbCircle
10
68.939999999999998
20
6.5688195623655101e-15
30
0
40
1.9999999999999007
210
0
220
0
230
1
0
CIRCLE
5
589
100
AcDbEntity
8
0
100
AcDbCircle
10
67.670000000000016
20
-5.0799999999999459
30
0
40
0.49999999999982947
210
0
220
0
230
1
0
CIRCLE
5
590
100
AcDbEntity
8
0
100
AcDbCircle
10
74.020000000000081
20
2.6629676453519906e-14
30
0
40
0.84999999999990916
210
0
220
0
230
1
0
CIRCLE
5
591
100
AcDbEntity
8
0
100
AcDbCircle
10
70.209999999999994
20
-5.0800000000000134
30
0
40
0.49999999999994321
210
0
220
0
230
1
0
CIRCLE
5
592
100
AcDbEntity
8
0
100
AcDbCircle
10
63.860000000000134
20
1.5195722193424909e-14
30
0
40
0.84999999999991627
210
0
220
0
230
1
0
CIRCLE
5
593
100
AcDbEntity
8
0
100
AcDbCircle
10
50.300000000000011
20
-2.1399999999999655
30
0
40
1.9999999999998934
210
0
220
0
230
1
0
CIRCLE
5
594
100
AcDbEntity
8
0
100
AcDbCircle
10
71.47999999999999
20
5.0800000000000045
30
0
40
0.75000000000014222
210
0
220
0
230
1
0
CIRCLE
5
595
100
AcDbEntity
8
0
100
AcDbCircle
10
46.490000000000038
20
0.39999999999996988
30
0
40
0.75000000000014222
210
0
220
0
230
1
0
CIRCLE
5
596
100
AcDbEntity
8
0
100
AcDbCircle
10
51.570000000000022
20
-7.2200000000000113
30
0
40
0.49999999999993605
210
0
220
0
230
1
0
CIRCLE
5
597
100
AcDbEntity
8
0
100
AcDbCircle
10
49.030000000000022
20
-7.2200000000000397
30
0
40
0.49999999999982947
210
0
220
0
230
1
0
CIRCLE
5
598
100
AcDbEntity
8
0
100
AcDbCircle
10
55.380000000000109
20
-2.1399999999999904
30
0
40
0.84999999999990195
210
0
220
0
230
1
0
CIRCLE
5
599
100
AcDbEntity
8
0
100
AcDbCircle
10
52.839999999999996
20
2.9400000000000053
30
0
40
0.75000000000014222
210
0
220
0
230
1
0
CIRCLE
5
600
100
AcDbEntity
8
0
100
AcDbCircle
10
45.220000000000162
20
-2.1399999999999788
30
0
40
0.84999999999989484
210
0
220
0
230
1
0
CIRCLE
5
601
100
AcDbEntity
8
0
100
AcDbCircle
10
21.590000000000103
20
-37.700000000000017
30
0
40
0.75000000000003564
210
0
220
0
230
1
0
CIRCLE
5
602
100
AcDbEntity
8
0
100
AcDbCircle
10
26.67000000000008
20
-45.319999999999972
30
0
40
0.49999999999995026
210
0
220
0
230
1
0
CIRCLE
5
603
100
AcDbEntity
8
0
100
AcDbCircle
10
24.130000000000095
20
-45.319999999999993
30
0
40
0.49999999999972289
210
0
220
0
230
1
0
CIRCLE
5
604
100
AcDbEntity
8
0
100
AcDbCircle
10
20.320000000000217
20
-40.239999999999966
30
0
40
0.84999999999980602
210
0
220
0
230
1
0
CIRCLE
5
605
100
AcDbEntity
8
0
100
AcDbCircle
10
31.850000000000041
20
-21.189999999999955
30
0
40
1.9999999999998972
210
0
220
0
230
1
0
CIRCLE
5
606
100
AcDbEntity
8
0
100
AcDbCircle
10
27.939999999999969
20
-35.160000000000004
30
0
40
0.75000000000024514
210
0
220
0
230
1
0
CIRCLE
5
607
100
AcDbEntity
8
0
100
AcDbCircle
10
28.040000000000063
20
-18.650000000000034
30
0
40
0.75000000000014222
210
0
220
0
230
1
0
CIRCLE
5
608
100
AcDbEntity
8
0
100
AcDbCircle
10
33.120000000000033
20
-26.270000000000007
30
0
40
0.49999999999995026
210
0
220
0
230
1
0
CIRCLE
5
609
100
AcDbEntity
8
0
100
AcDbCircle
10
30.580000000000055
20
-26.270000000000039
30
0
40
0.49999999999982947
210
0
220
0
230
1
0
CIRCLE
5
610
100
AcDbEntity
8
0
100
AcDbCircle
10
36.930000000000128
20
-21.189999999999966
30
0
40
0.84999999999990916
210
0
220
0
230
1
0
CIRCLE
5
611
100
AcDbEntity
8
0
100
AcDbCircle
10
34.390000000000029
20
-16.109999999999999
30
0
40
0.75000000000014222
210
0
220
0
230
1
0
CIRCLE
5
612
100
AcDbEntity
8
0
100
AcDbCircle
10
26.770000000000181
20
-21.189999999999991
30
0
40
0.84999999999990916
210
0
220
0
230
1
0
CIRCLE
5
613
100
AcDbEntity
8
0
100
AcDbCircle
10
31.25
20
-2.1399999999999473
30
0
40
1.9999999999998972
210
0
220
0
230
1
0
CIRCLE
5
614
100
AcDbEntity
8
0
100
AcDbCircle
10
29.980000000000011
20
-7.2200000000000308
30
0
40
0.49999999999983308
210
0
220
0
230
1
0
CIRCLE
5
615
100
AcDbEntity
8
0
100
AcDbCircle
10
27.440000000000015
20
0.39999999999995806
30
0
40
0.75000000000014566
210
0
220
0
230
1
0
CIRCLE
5
616
100
AcDbEntity
8
0
100
AcDbCircle
10
32.519999999999989
20
-7.2199999999999642
30
0
40
0.49999999999995026
210
0
220
0
230
1
0
CIRCLE
5
617
100
AcDbEntity
8
0
100
AcDbCircle
10
26.170000000000144
20
-2.1399999999999992
30
0
40
0.8499999999999055
210
0
220
0
230
1
0
CIRCLE
5
618
100
AcDbEntity
8
0
100
AcDbCircle
10
36.330000000000091
20
-2.1399999999999904
30
0
40
0.84999999999990195
210
0
220
0
230
1
0
CIRCLE
5
619
100
AcDbEntity
8
0
100
AcDbCircle
10
33.789999999999985
20
2.9400000000000053
30
0
40
0.75000000000014222
210
0
220
0
230
1
0
CIRCLE
5
620
100
AcDbEntity
8
0
100
AcDbCircle
10
2.8000000000000256
20
-24.13000000000007
30
0
40
0.49999999999983308
210
0
220
0
230
1
0
CIRCLE
5
621
100
AcDbEntity
8
0
100
AcDbCircle
10
9.1500000000001034
20
-19.050000000000026
30
0
40
0.8499999999999055
210
0
220
0
230
1
0
CIRCLE
5
622
100
AcDbEntity
8
0
100
AcDbCircle
10
0.26000000000003815
20
-16.510000000000066
30
0
40
0.75000000000013933
210
0
220
0
230
1
0
CIRCLE
5
623
100
AcDbEntity
8
0
100
AcDbCircle
10
6.610000000000003
20
-13.970000000000034
30
0
40
0.75000000000014222
210
0
220
0
230
1
0
CIRCLE
5
624
100
AcDbEntity
8
0
100
AcDbCircle
10
4.0700000000000172
20
-19.049999999999983
30
0
40
1.9999999999998919
210
0
220
0
230
1
0
CIRCLE
5
625
100
AcDbEntity
8
0
100
AcDbCircle
10
-1.0099999999998428
20
-19.050000000000026
30
0
40
0.84999999999990483
210
0
220
0
230
1
0
CIRCLE
5
626
100
AcDbEntity
8
0
100
AcDbCircle
10
-3.8099999999998695
20
-35.560000000000031
30
0
40
0.75000000000014
210
0
220
0
230
1
0
CIRCLE
5
627
100
AcDbEntity
8
0
100
AcDbCircle
10
-1.2699999999998799
20
-43.180000000000014
30
0
40
0.49999999999983147
210
0
220
0
230
1
0
CIRCLE
5
628
100
AcDbEntity
8
0
100
AcDbCircle
10
9.874046025259986e-14
20
-38.099999999999952
30
0
40
1.999999999999903
210
0
220
0
230
1
0
ENDSEC
0
SECTION
2
OBJECTS
0
DICTIONARY
5
C
100
AcDbDictionary
3
ACAD_GROUP
350
D
3
ACAD_MLINESTYLE
350
17
0
DICTIONARY
5
D
100
AcDbDictionary
0
DICTIONARY
5
1A
330
C
100
AcDbDictionary
0
DICTIONARY
5
17
100
AcDbDictionary
0
ENDSEC
0
EOF
