0
SECTION
2
HEADER
9
$INSUNITS
70
4
9
$ACADVER
1
AC1014
9
$HANDSEED
5
FFFF
0
ENDSEC
0
SECTION
2
TABLES
0
TABLE
2
VPORT
5
8
100
AcDbSymbolTable
0
ENDTAB
0
TABLE
2
LTYPE
5
5
100
AcDbSymbolTable
0
LTYPE
5
14
100
AcDbSymbolTableRecord
100
AcDbLinetypeTableRecord
2
BYBLOCK
70
0
0
LTYPE
5
15
100
AcDbSymbolTableRecord
100
AcDbLinetypeTableRecord
2
BYLAYER
70
0
0
ENDTAB
0
TABLE
2
LAYER
5
2
100
AcDbSymbolTable
70
2
0
LAYER
5
50
100
AcDbSymbolTableRecord
100
AcDbLayerTableRecord
2
0
70
0
6
CONTINUOUS
0
ENDTAB
0
TABLE
2
STYLE
5
3
100
AcDbSymbolTable
70
1
0
STYLE
5
11
100
AcDbSymbolTableRecord
100
AcDbTextStyleTableRecord
2
STANDARD
70
0
0
ENDTAB
0
TABLE
2
VIEW
5
6
100
AcDbSymbolTable
70
0
0
ENDTAB
0
TABLE
2
UCS
5
7
100
AcDbSymbolTable
70
0
0
ENDTAB
0
TABLE
2
APPID
5
9
100
AcDbSymbolTable
70
2
0
APPID
5
12
100
AcDbSymbolTableRecord
100
AcDbRegAppTableRecord
2
ACAD
70
0
0
ENDTAB
0
TABLE
2
DIMSTYLE
5
A
100
AcDbSymbolTable
70
1
0
ENDTAB
0
TABLE
2
BLOCK_RECORD
5
1
100
AcDbSymbolTable
70
1
0
BLOCK_RECORD
5
1F
100
AcDbSymbolTableRecord
100
AcDbBlockTableRecord
2
*MODEL_SPACE
0
BLOCK_RECORD
5
1B
100
AcDbSymbolTableRecord
100
AcDbBlockTableRecord
2
*PAPER_SPACE
0
ENDTAB
0
ENDSEC
0
SECTION
2
BLOCKS
0
BLOCK
5
20
100
AcDbEntity
100
AcDbBlockBegin
2
*MODEL_SPACE
0
ENDBLK
5
21
100
AcDbEntity
100
AcDbBlockEnd
0
BLOCK
5
1C
100
AcDbEntity
100
AcDbBlockBegin
2
*PAPER_SPACE
0
ENDBLK
5
1D
100
AcDbEntity
100
AcDbBlockEnd
0
ENDSEC
0
SECTION
2
ENTITIES
0
LWPOLYLINE
5
100
100
AcDbEntity
8
0
100
AcDbPolyline
90
77
70
1
43
0.0
10
-3.5299999999999221
20
-88.120000000000033
42
-0.41421356237309132
10
-4.5299999999999594
20
-87.120000000000047
10
-4.5299999999999372
20
-74.870000000000033
42
0.41421356237308299
10
-5.5299999999999514
20
-73.870000000000019
10
-8.779999999999955
20
-73.870000000000019
42
-0.4142135623730866
10
-9.7799999999999851
20
-72.870000000000047
10
-9.7799999999999851
20
4.3657864376268822
42
-0.19891236737962545
10
-9.4871067811865277
20
5.0728932188134346
10
-5.0728932188133236
20
9.4871067811865437
42
-0.19891236737963791
10
-4.3657864376267783
20
9.7799999999999851
10
3.4800000000000391
20
9.7799999999999816
42
0.33333333333333398
10
4.4400000000000359
20
10.500000000000018
10
5.3500000000000227
20
13.61999999999999
42
-0.74999999999999578
10
11.110000000000039
20
13.619999999999987
10
12.020000000000039
20
10.499999999999957
42
0.3333333333333432
10
12.980000000000054
20
9.7799999999999834
10
72.943907837680129
20
9.779999999999978
42
-0.052407779283082247
10
73.15181952849791
20
9.7581476007337837
10
112.96781244327867
20
1.2949970472900096
42
0.33333333333332987
10
114.05653055737189
20
1.7996680966333389
10
115.59532934939102
20
4.6622889722786454
42
-0.74999999999999523
10
121.22945952961778
20
3.4647176331683438
10
121.47088937093413
20
0.2236974802346739
42
0.33333333333332277
10
122.26021465024985
20
-0.68016401547870697
10
154.54950450079872
20
-7.5434644448781052
42
0.10510423526569372
10
154.96532788243431
20
-7.5434644448780688
10
195.16058230513525
20
1.0003006306629794
42
0.33333333333331444
10
195.94990758445084
20
1.9041621263764041
10
196.19133742576713
20
5.1451822793100028
42
-0.750000000000006
10
201.82546760599391
20
6.3427536184203142
10
203.36426639801303
20
3.4801327427749529
42
0.33333333333337345
10
204.45298451210633
20
2.9754616934317046
10
236.4658203102868
20
9.7799999999999621
10
306.25875000000002
20
9.7799999999999407
42
0.33333333333333787
10
307.21875000000006
20
10.499999999999988
10
308.12874999999991
20
13.620000000000045
42
-0.74999999999996925
10
313.88875000000013
20
13.620000000000021
10
314.7987500000001
20
10.49999999999992
42
0.33333333333337928
10
315.75875000000002
20
9.7799999999999603
10
323.6045364376269
20
9.7799999999999336
42
-0.19891236737971155
10
324.31164321881334
20
9.4871067811865597
10
328.72585678118674
20
5.0728932188132898
42
-0.19891236737965881
10
329.01875000000013
20
4.3657864376267597
10
329.01875000000007
20
-82.753786437626999
42
-0.19891236737963652
10
328.72585678118668
20
-83.460893218813524
10
324.31164321881346
20
-87.875106781186616
42
-0.19891236737967646
10
323.60453643762696
20
-88.168000000000021
10
315.74475000000007
20
-88.167999999999978
42
0.3333333333333065
10
314.78475000000003
20
-88.888000000000019
10
313.8887500000003
20
-91.959999999999951
42
-0.74999999999999667
10
308.12875000000008
20
-91.960000000000093
10
307.23275000000007
20
-88.888000000000034
42
0.33333333333331122
10
306.27275000000003
20
-88.167999999999978
10
254.42919362566846
20
-88.168000000000021
42
0.052407779283050779
10
253.38963517157967
20
-88.277261996330992
10
211.39594845078295
20
-97.203295657551422
42
0.3333333333333181
10
210.60662317146728
20
-98.107157153264865
10
210.36519333015096
20
-101.34817730619832
42
-0.75000000000000278
10
204.73106314992432
20
-102.54574864530881
10
203.19226435790515
20
-99.683127769663429
42
0.33333333333335269
10
202.10354624381182
20
-99.178456720320071
10
160.40955845408888
20
-108.04078740721533
42
-0.10510423526567043
10
158.33044154591141
20
-108.04078740721538
10
116.63645375618816
20
-99.178456720320071
42
0.33333333333334575
10
115.54773564209486
20
-99.683127769663372
10
114.00893685007574
20
-102.54574864530861
42
-0.74999999999999789
10
108.37480666984901
20
-101.34817730619849
10
108.13337682853265
20
-98.107157153264794
42
0.33333333333332849
10
107.344051549217
20
-97.203295657551379
10
65.124542583165592
20
-88.229261996331005
42
0.052407779283047837
10
64.084984129076815
20
-88.120000000000033
10
12.979999999999992
20
-88.120000000000033
42
0.33333333333333498
10
12.020000000000003
20
-88.840000000000032
10
11.110000000000067
20
-91.959999999999894
42
-0.74999999999999512
10
5.3500000000000414
20
-91.960000000000051
10
4.4400000000000341
20
-88.840000000000032
42
0.33333333333335136
10
3.4800000000000391
20
-88.120000000000033
0
LWPOLYLINE
5
101
100
AcDbEntity
8
0
100
AcDbPolyline
90
8
70
1
43
0.0
10
135.32244565002335
20
-85.480902735726545
42
-0.41421356237307361
10
136.50850494157493
20
-84.710666825810478
10
150.57426744012713
20
-87.700436939769901
42
-0.41421356237311141
10
151.34450335004317
20
-88.886496231321459
10
148.84956306023011
20
-100.62426744012713
42
-0.41421356237312662
10
147.66350376867857
20
-101.39450335004319
10
133.59774127012631
20
-98.404733236083814
42
-0.4142135623731063
10
132.82750536021024
20
-97.21867394453227
0
LWPOLYLINE
5
102
100
AcDbEntity
8
0
100
AcDbPolyline
90
35
70
1
43
0.0
10
102.54402503865239
20
-90.781872023991909
42
-0.023636216218980818
10
102.45077286136699
20
-90.766614774749357
10
97.560034857701851
20
-89.727056320661433
42
-0.029842482062461841
10
97.445063590935803
20
-89.695347622183078
10
95.27400436648216
20
-89.233874738251217
42
-0.41421356237231849
10
94.503768456565425
20
-88.047815446699772
10
97.206620437196293
20
-75.331896637160412
42
-0.41421356237347001
10
98.392679728748249
20
-74.561660727244458
10
103.28341773241806
20
-75.601219181333477
42
-0.029842482058916965
10
103.39838899917076
20
-75.632927879807866
10
105.56944822363454
20
-76.094400763741874
42
-0.41421356237282975
10
106.33968413355041
20
-77.280460055293133
10
106.13180305638858
20
-78.258463630098262
42
-0.023636213495552023
10
106.22505522285655
20
-78.27372087809222
10
117.96282643166101
20
-80.768661167905194
42
-0.024024055624667508
10
118.05570125477811
20
-80.793117270808139
10
120.25426744012718
20
-81.260436939769889
42
-0.024892862965455977
10
120.35045275743261
20
-81.285943469769038
10
120.56087255231722
20
-80.295996167125182
42
-0.41421356237403129
10
121.7469318438699
20
-79.52576025720974
10
126.63766984754832
20
-80.565318711300591
42
-0.029842482053664379
10
126.7526411143034
20
-80.597027409775166
10
128.92370033875622
20
-81.058500293706828
42
-0.41421356237279194
10
129.69393624867206
20
-82.244559585258088
10
126.99108426804099
20
-94.960478394797519
42
-0.41421356237315937
10
125.80502497648972
20
-95.730714304713587
10
120.91428697282191
20
-94.691155850625108
42
-0.029842482052012783
10
120.79931570608014
20
-94.659447152154584
10
118.62825648160151
20
-94.197974268217436
42
-0.024892862965009168
10
118.53207116429655
20
-94.172467738218515
10
118.5295630602301
20
-94.184267440127115
42
-0.41421356237308377
10
117.34350376867859
20
-94.954503350043197
10
105.60573255987288
20
-92.459563060230039
42
-0.02402405562552987
10
105.51285773675538
20
-92.435106957327008
10
103.31429155140782
20
-91.967787288365557
42
-0.41417043669292153
0
LWPOLYLINE
5
103
100
AcDbEntity
8
0
100
AcDbPolyline
90
8
70
1
43
0.0
10
311.5979999999974
20
-32.23999970176807
42
-0.4142135623735802
10
312.59799999999677
20
-31.239999701768046
10
317.59799999999575
20
-31.239999701767953
42
-0.41421356237275814
10
318.59799999999558
20
-32.239999701767779
10
318.59799999999547
20
-45.2399997017678
42
-0.41421356237316009
10
317.59799999999564
20
-46.239999701767815
10
312.59799999999694
20
-46.239999701767786
42
-0.41421356237303519
10
311.59799999999728
20
-45.239999701768085
0
LWPOLYLINE
5
104
100
AcDbEntity
8
0
100
AcDbPolyline
90
20
70
1
43
0.0
10
288.6670000000027
20
-10.140000298231959
42
-0.41421356237360102
10
287.66700000000327
20
-11.140000298231982
10
282.66700000000429
20
-11.14000029823201
42
-0.41421356237278351
10
281.66700000000458
20
-10.140000298232207
10
281.6670000000048
20
-9.1400000000000023
10
281.58000000000004
20
-9.1400000000000201
42
-0.41421356237307583
10
280.57999999999998
20
-8.1400000000000343
10
280.57999999999998
20
3.8600000000000021
42
-0.41421356237308399
10
281.58000000000004
20
4.8600000000000216
10
312.63
20
4.8600000000000199
42
-0.41421356237314011
10
313.63000000000005
20
3.8600000000000301
10
313.63000000000005
20
-8.1400000000000023
42
-0.41421356237314899
10
312.63
20
-9.1400000000000219
10
312.54300000000404
20
-9.1400000000000023
10
312.5430000000041
20
-10.140000298231929
42
-0.41421356237203627
10
311.54300000000285
20
-11.140000298231964
10
306.54300000000563
20
-11.14000029823201
42
-0.41421356237278351
10
305.54300000000592
20
-10.140000298232207
10
305.54300000000615
20
-9.1400000000000023
10
288.66700000000299
20
-9.1400000000000023
0
LWPOLYLINE
5
105
100
AcDbEntity
8
0
100
AcDbPolyline
90
8
70
1
43
0.0
10
287.72199999999606
20
-32.239999701768213
42
-0.41421356237202062
10
288.72199999999725
20
-31.239999701768191
10
293.72199999999441
20
-31.239999701768113
42
-0.41421356237275947
10
294.72199999999424
20
-32.239999701767942
10
294.72199999999407
20
-45.239999701767957
42
-0.41421356237315748
10
293.72199999999339
20
-46.239999701768852
10
288.72199999999737
20
-46.239999701768852
42
-0.4142135623733994
10
287.72199999999634
20
-45.239999701768227
0
LWPOLYLINE
5
106
100
AcDbEntity
8
0
100
AcDbPolyline
90
8
70
1
43
0.0
10
203.95128978002475
20
-76.094842309654709
42
-0.41421356237279255
10
205.13734907157601
20
-76.865078219570592
10
207.84020105220665
20
-89.58099702911035
42
-0.41421356237313284
10
207.06996514229093
20
-90.767056320661595
10
202.17922713862311
20
-91.806614774750216
42
-0.41421356237294715
10
200.99316784707196
20
-91.03637886483439
10
198.2903158664412
20
-78.320460055294888
42
-0.41421356237358231
10
199.06055177635665
20
-77.134400763743372
0
LWPOLYLINE
5
107
100
AcDbEntity
8
0
100
AcDbPolyline
90
8
70
1
43
0.0
10
174.93606375131952
20
-83.284559585260126
42
-0.41421356237199397
10
175.70629966123676
20
-82.098500293708241
10
180.59703766490316
20
-81.05894183961999
42
-0.41421356237277673
10
181.78309695645441
20
-81.829177749535916
10
184.48594893708503
20
-94.545096559075645
42
-0.41421356237313794
10
183.71571302716862
20
-95.731155850627943
10
178.82497502350338
20
-96.77071430471598
42
-0.41421356237339918
10
177.63891573195079
20
-96.000478394799558
0
LWPOLYLINE
5
108
100
AcDbEntity
8
0
100
AcDbPolyline
90
8
70
1
43
0.0
10
22.322000000003786
20
-67.290000298231874
42
-0.41421356237308982
10
21.322000000004092
20
-68.29000029823159
10
16.322000000005083
20
-68.290000298231604
42
-0.41421356237314966
10
15.322000000004639
20
-67.29000029823213
10
15.322000000004778
20
-54.290000298232101
42
-0.4142135623731763
10
16.3220000000045
20
-53.290000298232123
10
21.322000000003236
20
-53.290000298232115
42
-0.41421356237341372
10
22.322000000003786
20
-54.290000298231824
0
LWPOLYLINE
5
109
100
AcDbEntity
8
0
100
AcDbPolyline
90
8
70
1
43
0.0
10
46.198000000003418
20
-67.290000298230993
42
-0.41421356237332918
10
45.198000000002821
20
-68.290000298231888
10
40.198000000005592
20
-68.290000298231902
42
-0.41421356237278806
10
39.198000000005834
20
-67.29000029823213
10
39.198000000006125
20
-54.290000298232101
42
-0.41421356237316787
10
40.198000000006729
20
-53.29000029823122
10
45.1980000000028
20
-53.29000029823122
42
-0.41421356237283491
10
46.198000000003404
20
-54.290000298230964
0
LWPOLYLINE
5
110
100
AcDbEntity
8
0
100
AcDbPolyline
90
14
70
1
43
0.0
10
287.04500000000002
20
-66.290000000000092
42
-0.41421356237310802
10
286.04500000000002
20
-65.290000000000035
10
286.04500000000002
20
-53.290000000000049
42
-0.41421356237314966
10
287.04500000000002
20
-52.289999999999999
10
308.56999999999999
20
-52.289999999999992
42
-0.41421356237313145
10
309.56999999999999
20
-53.289999999999992
10
309.56999999999999
20
-65.290000000000035
42
-0.41421356237310802
10
308.56999999999999
20
-66.290000000000092
10
294.13200000000307
20
-66.29000000000002
10
294.13200000000279
20
-67.290000298231945
42
-0.41421356237353985
10
293.13200000000347
20
-68.290000298231959
10
288.13200000000438
20
-68.290000298231973
42
-0.41421356237271523
10
287.13200000000461
20
-67.290000298232187
10
287.13200000000489
20
-66.29000000000002
0
LWPOLYLINE
5
111
100
AcDbEntity
8
0
100
AcDbPolyline
90
13
70
1
43
0.0
10
312.23874999999998
20
-53.290000298231362
42
-0.41421364972294172
10
313.23874999999998
20
-52.289999999999949
10
325.23875000000004
20
-52.289999999999964
42
-0.41421356237306123
10
326.23875000000004
20
-53.290000000000006
10
326.23875000000004
20
-65.289999999999992
42
-0.41421356237306639
10
325.23875000000004
20
-66.29000000000002
10
318.00800000000413
20
-66.29000000000002
10
318.00800000000424
20
-67.290000298231917
42
-0.41421356237207785
10
317.00800000000294
20
-68.290000298231945
10
312.00800000000572
20
-68.290000298231973
42
-0.41421356237271523
10
311.00800000000595
20
-67.290000298232187
10
311.00800000000618
20
-54.290000298232201
42
-0.41421356237325629
10
312.00800000000692
20
-53.290000298231341
0
LWPOLYLINE
5
112
100
AcDbEntity
8
0
100
AcDbPolyline
90
8
70
1
43
0.0
10
-7.0000000000000107
20
-32.100000000000037
42
-0.4142135623731103
10
-6.0000000000000062
20
-31.100000000000001
10
6.0000000000000053
20
-31.100000000000001
42
-0.41421356237308071
10
7.0000000000000115
20
-32.100000000000001
10
7.0000000000000098
20
-44.099999999999994
42
-0.41421356237308105
10
6.0000000000000338
20
-45.100000000000016
10
-5.9999999999999769
20
-45.100000000000016
42
-0.41421356237308493
10
-7.0000000000000089
20
-44.100000000000037
0
LWPOLYLINE
5
113
100
AcDbEntity
8
0
100
AcDbPolyline
90
8
70
1
43
0.0
10
23.760000000000005
20
-53.290000000000049
42
-0.41421356237312101
10
24.760000000000009
20
-52.290000000000006
10
36.759999999999984
20
-52.290000000000006
42
-0.41421356237310153
10
37.759999999999998
20
-53.289999999999999
10
37.760000000000019
20
-65.290000000000006
42
-0.41421356237308204
10
36.760000000000026
20
-66.290000000000035
10
24.760000000000041
20
-66.290000000000035
42
-0.41421356237310414
10
23.760000000000009
20
-65.290000000000035
0
LWPOLYLINE
5
114
100
AcDbEntity
8
0
100
AcDbPolyline
90
8
70
1
43
0.0
10
-2.9300000000000166
20
-13.050000000000029
42
-0.41421356237309037
10
-1.9299999999999873
20
-12.050000000000027
10
10.069999999999995
20
-12.050000000000026
42
-0.41421356237308204
10
11.069999999999997
20
-13.050000000000029
10
11.07
20
-25.050000000000022
42
-0.41421356237309115
10
10.070000000000025
20
-26.050000000000026
10
-1.9299999999999589
20
-26.050000000000033
42
-0.41421356237311402
10
-2.9299999999999922
20
-25.050000000000026
0
LWPOLYLINE
5
115
100
AcDbEntity
8
0
100
AcDbPolyline
90
8
70
1
43
0.0
10
14.230000000000018
20
6.9999999999999716
42
-0.4142135623730947
10
15.230000000000022
20
5.9999999999999858
10
15.230000000000024
20
-6.0000000000000266
42
-0.41421356237308948
10
14.23000000000005
20
-7.0000000000000275
10
2.2300000000000657
20
-7.0000000000000275
42
-0.41421356237312246
10
1.2300000000000364
20
-6.0000000000000266
10
1.2300000000000089
20
5.9999999999999707
42
-0.41421356237309548
10
2.2300000000000386
20
6.9999999999999716
0
LWPOLYLINE
5
116
100
AcDbEntity
8
0
100
AcDbPolyline
90
8
70
1
43
0.0
10
16.619999999999997
20
-72.34000000000006
42
-0.41421356237311452
10
17.619999999999997
20
-71.340000000000003
10
29.620000000000012
20
-71.340000000000003
42
-0.41421356237308721
10
30.620000000000015
20
-72.340000000000003
10
30.620000000000026
20
-84.339999999999975
42
-0.41421356237307683
10
29.620000000000037
20
-85.340000000000046
10
17.620000000000026
20
-85.340000000000032
42
-0.41421356237307227
10
16.620000000000001
20
-84.34000000000006
0
LWPOLYLINE
5
117
100
AcDbEntity
8
0
100
AcDbPolyline
90
8
70
1
43
0.0
10
259.85000000000002
20
-53.290000000000006
42
-0.41421356237306123
10
260.85000000000002
20
-52.289999999999992
10
272.85000000000002
20
-52.289999999999999
42
-0.41421356237312623
10
273.85000000000002
20
-53.289999999999978
10
273.85000000000002
20
-65.290000000000035
42
-0.41421356237311846
10
272.85000000000008
20
-66.29000000000002
10
260.85000000000002
20
-66.29000000000002
42
-0.41421356237305601
10
259.85000000000002
20
-65.290000000000063
0
LWPOLYLINE
5
118
100
AcDbEntity
8
0
100
AcDbPolyline
90
8
70
1
43
0.0
10
303.79559999999998
20
-72.388000000000019
42
-0.41421356237305079
10
304.79559999999998
20
-71.387999999999948
10
316.79560000000015
20
-71.388000000000005
42
-0.41421356237306123
10
317.79560000000009
20
-72.388000000000005
10
317.79560000000009
20
-84.388000000000005
42
-0.414213562373069
10
316.79560000000015
20
-85.388000000000034
10
304.79559999999998
20
-85.388000000000034
42
-0.41421356237307422
10
303.79559999999992
20
-84.388000000000062
0
LWPOLYLINE
5
119
100
AcDbEntity
8
0
100
AcDbPolyline
90
8
70
1
43
0.0
10
278.21000000000015
20
-33.239999999999995
42
-0.41421356237306123
10
279.21000000000009
20
-34.240000000000002
10
279.21000000000009
20
-46.239999999999988
42
-0.41421356237307161
10
278.21000000000015
20
-47.240000000000038
10
266.21000000000004
20
-47.24000000000003
42
-0.41421356237306639
10
265.21000000000004
20
-46.240000000000038
10
265.21000000000004
20
-34.240000000000002
42
-0.41421356237306123
10
266.20999999999998
20
-33.239999999999988
0
LWPOLYLINE
5
120
100
AcDbEntity
8
0
100
AcDbPolyline
90
8
70
1
43
0.0
10
296.16000000000003
20
-34.240000000000002
42
-0.41421356237306123
10
297.16000000000003
20
-33.239999999999988
10
309.16000000000003
20
-33.239999999999988
42
-0.41421356237312884
10
310.16000000000008
20
-34.239999999999981
10
310.16000000000008
20
-46.240000000000009
42
-0.41421356237312884
10
309.16000000000008
20
-47.24000000000003
10
297.16000000000003
20
-47.24000000000003
42
-0.41421356237306639
10
296.16000000000003
20
-46.240000000000038
0
LWPOLYLINE
5
121
100
AcDbEntity
8
0
100
AcDbPolyline
90
8
70
1
43
0.0
10
253.80000000000001
20
-52.290000000000006
42
-0.414213562373069
10
254.80000000000004
20
-53.290000000000006
10
254.80000000000007
20
-65.289999999999992
42
-0.41421356237307683
10
253.80000000000001
20
-66.290000000000049
10
241.80000000000007
20
-66.290000000000035
42
-0.414213562373069
10
240.80000000000001
20
-65.290000000000077
10
240.80000000000007
20
-53.290000000000006
42
-0.41421356237307944
10
241.80000000000004
20
-52.289999999999992
0
LWPOLYLINE
5
122
100
AcDbEntity
8
0
100
AcDbPolyline
90
8
70
1
43
0.0
10
269.17000000000002
20
-14.189999999999985
42
-0.4142135623730846
10
270.17000000000007
20
-15.19
10
270.17000000000007
20
-27.18999999999998
42
-0.4142135623730937
10
269.17000000000002
20
-28.190000000000033
10
257.17000000000002
20
-28.190000000000044
42
-0.41421356237310153
10
256.17000000000002
20
-27.190000000000008
10
256.17000000000002
20
-15.190000000000023
42
-0.41421356237310869
10
257.17000000000002
20
-14.189999999999976
0
LWPOLYLINE
5
123
100
AcDbEntity
8
0
100
AcDbPolyline
90
8
70
1
43
0.0
10
259.16000000000008
20
-33.239999999999995
42
-0.41421356237308204
10
260.16000000000014
20
-34.240000000000002
10
260.16000000000014
20
-46.239999999999981
42
-0.41421356237308982
10
259.16000000000008
20
-47.240000000000023
10
247.16000000000003
20
-47.240000000000023
42
-0.41421356237309503
10
246.16
20
-46.240000000000009
10
246.15999999999997
20
-34.240000000000002
42
-0.41421356237310542
10
247.16000000000003
20
-33.240000000000002
0
LWPOLYLINE
5
124
100
AcDbEntity
8
0
100
AcDbPolyline
90
8
70
1
43
0.0
10
275.21999999999997
20
-15.190000000000023
42
-0.41421356237312951
10
276.22000000000008
20
-14.189999999999976
10
288.22000000000008
20
-14.189999999999985
42
-0.41421356237306384
10
289.22000000000003
20
-15.19
10
289.22000000000003
20
-27.18999999999998
42
-0.41421356237307294
10
288.22000000000008
20
-28.190000000000033
10
276.22000000000008
20
-28.190000000000044
42
-0.41421356237312235
10
275.21999999999997
20
-27.190000000000008
0
LWPOLYLINE
5
125
100
AcDbEntity
8
0
100
AcDbPolyline
90
8
70
1
43
0.0
10
237.54000000000002
20
-14.129999999999999
42
-0.4142135623730599
10
238.53999999999999
20
-13.12999999999999
10
250.54000000000002
20
-13.129999999999992
42
-0.41421356237309243
10
251.54000000000002
20
-14.129999999999999
10
251.54000000000002
20
-26.129999999999988
42
-0.41421356237309764
10
250.54000000000002
20
-27.130000000000024
10
238.54000000000002
20
-27.130000000000031
42
-0.41421356237307033
10
237.54000000000002
20
-26.130000000000031
0
LWPOLYLINE
5
126
100
AcDbEntity
8
0
100
AcDbPolyline
90
8
70
1
43
0.0
10
299.04000000000002
20
-15.19
42
-0.4142135623730846
10
300.04000000000008
20
-14.189999999999978
10
312.04000000000002
20
-14.189999999999978
42
-0.41421356237312951
10
313.04000000000002
20
-15.189999999999968
10
313.04000000000002
20
-27.190000000000008
42
-0.41421356237312756
10
312.04000000000002
20
-28.190000000000026
10
300.04000000000008
20
-28.190000000000026
42
-0.4142135623730781
10
299.04000000000002
20
-27.190000000000033
0
LWPOLYLINE
5
127
100
AcDbEntity
8
0
100
AcDbPolyline
90
8
70
1
43
0.0
10
261.52999999999997
20
3.8599999999999959
42
-0.41421356237306184
10
262.52999999999997
20
4.8600000000000101
10
274.52999999999997
20
4.8600000000000101
42
-0.41421356237313894
10
275.53000000000003
20
3.8600000000000234
10
275.52999999999997
20
-8.1400000000000166
42
-0.41421356237312557
10
274.52999999999997
20
-9.140000000000029
10
262.52999999999997
20
-9.1400000000000201
42
-0.4142135623730635
10
261.52999999999997
20
-8.1400000000000414
0
LWPOLYLINE
5
128
100
AcDbEntity
8
0
100
AcDbPolyline
90
8
70
1
43
0.0
10
242.89999999999998
20
6.0000000000000133
42
-0.41421356237308948
10
243.90000000000001
20
7.0000000000000231
10
255.90000000000003
20
7.000000000000024
42
-0.41421356237308399
10
256.90000000000009
20
6.0000000000000124
10
256.90000000000003
20
-5.9999999999999769
42
-0.41421356237309437
10
255.90000000000003
20
-7.0000000000000062
10
243.90000000000001
20
-7.0000000000000098
42
-0.41421356237308365
10
242.89999999999998
20
-6.0000000000000329
0
LWPOLYLINE
5
129
100
AcDbEntity
8
0
100
AcDbPolyline
90
8
70
1
43
0.0
10
67.709999999999994
20
-52.289999999999999
42
-0.41421356237309503
10
68.709999999999994
20
-53.289999999999999
10
68.709999999999994
20
-65.290000000000006
42
-0.41421356237308204
10
67.710000000000022
20
-66.29000000000002
10
55.710000000000015
20
-66.290000000000035
42
-0.41421356237308204
10
54.70999999999998
20
-65.290000000000063
10
54.70999999999998
20
-53.290000000000049
42
-0.41421356237310802
10
55.70999999999998
20
-52.290000000000006
0
LWPOLYLINE
5
130
100
AcDbEntity
8
0
100
AcDbPolyline
90
8
70
1
43
0.0
10
37.250000000000007
20
4.8600000000000074
42
-0.41421356237309243
10
38.250000000000007
20
3.8600000000000021
10
38.250000000000014
20
-8.1399999999999952
42
-0.41421356237308787
10
37.250000000000036
20
-9.140000000000013
10
25.250000000000021
20
-9.140000000000013
42
-0.41421356237310802
10
24.249999999999989
20
-8.1400000000000077
10
24.249999999999993
20
3.8599999999999741
42
-0.41421356237310758
10
25.249999999999993
20
4.8600000000000083
0
LWPOLYLINE
5
131
100
AcDbEntity
8
0
100
AcDbPolyline
90
8
70
1
43
0.0
10
43.29999999999999
20
3.8599999999999741
42
-0.4142135623731063
10
44.29999999999999
20
4.8600000000000119
10
56.300000000000011
20
4.8600000000000119
42
-0.41421356237309731
10
57.300000000000011
20
3.8600000000000168
10
57.300000000000011
20
-8.1400000000000077
42
-0.41421356237309148
10
56.300000000000033
20
-9.140000000000013
10
44.300000000000011
20
-9.1400000000000059
42
-0.41421356237310347
10
43.29999999999999
20
-8.1400000000000077
0
LWPOLYLINE
5
132
100
AcDbEntity
8
0
100
AcDbPolyline
90
8
70
1
43
0.0
10
61.939999999999998
20
6.0000000000000133
42
-0.41421356237309404
10
62.940000000000005
20
7.0000000000000124
10
74.940000000000012
20
7.0000000000000115
42
-0.41421356237308526
10
75.940000000000012
20
6.0000000000000133
10
75.940000000000012
20
-5.999999999999992
42
-0.41421356237308204
10
74.940000000000055
20
-7.0000000000000151
10
62.940000000000033
20
-7.0000000000000071
42
-0.41421356237310447
10
61.940000000000012
20
-6.0000000000000062
0
LWPOLYLINE
5
133
100
AcDbEntity
8
0
100
AcDbPolyline
90
8
70
1
43
0.0
10
48.659999999999982
20
-15.19
42
-0.41421356237309243
10
49.659999999999982
20
-14.189999999999989
10
61.659999999999982
20
-14.189999999999998
42
-0.4142135623730937
10
62.659999999999997
20
-15.19
10
62.660000000000011
20
-27.189999999999991
42
-0.41421356237308982
10
61.660000000000025
20
-28.190000000000012
10
49.660000000000011
20
-28.190000000000019
42
-0.41421356237309115
10
48.659999999999982
20
-27.190000000000033
0
LWPOLYLINE
5
134
100
AcDbEntity
8
0
100
AcDbPolyline
90
8
70
1
43
0.0
10
18.399999999999995
20
-34.240000000000002
42
-0.41421356237308399
10
19.400000000000006
20
-33.240000000000009
10
31.400000000000013
20
-33.240000000000002
42
-0.41421356237308854
10
32.40000000000002
20
-34.240000000000002
10
32.400000000000027
20
-46.239999999999966
42
-0.41421356237308593
10
31.400000000000041
20
-47.240000000000009
10
19.400000000000031
20
-47.240000000000002
42
-0.41421356237308138
10
18.399999999999995
20
-46.24000000000003
0
LWPOLYLINE
5
135
100
AcDbEntity
8
0
100
AcDbPolyline
90
8
70
1
43
0.0
10
37.849999999999994
20
-14.189999999999994
42
-0.41421356237309503
10
38.850000000000001
20
-15.19
10
38.850000000000001
20
-27.190000000000008
42
-0.41421356237308854
10
37.850000000000023
20
-28.190000000000019
10
25.850000000000012
20
-28.190000000000012
42
-0.41421356237310802
10
24.84999999999998
20
-27.190000000000008
10
24.849999999999987
20
-15.190000000000023
42
-0.41421356237310936
10
25.849999999999987
20
-14.189999999999991
0
LWPOLYLINE
5
136
100
AcDbEntity
8
0
100
AcDbPolyline
90
8
70
1
43
0.0
10
49.359999999999992
20
-34.240000000000009
42
-0.41421356237308982
10
50.359999999999985
20
-33.240000000000009
10
62.359999999999999
20
-33.240000000000009
42
-0.41421356237309503
10
63.359999999999999
20
-34.239999999999995
10
63.359999999999999
20
-46.240000000000016
42
-0.4142135623730846
10
62.360000000000035
20
-47.240000000000023
10
50.360000000000014
20
-47.240000000000023
42
-0.41421356237308721
10
49.359999999999985
20
-46.240000000000052
0
LWPOLYLINE
5
137
100
AcDbEntity
8
0
100
AcDbPolyline
90
8
70
1
43
0.0
10
83.840436939769916
20
3.3642674401271675
42
-0.41421356237311613
10
85.026496231321488
20
4.1345033500432145
10
96.764267440127156
20
1.6395630602300981
42
-0.41421356237313228
10
97.534503350043195
20
0.45350376867853814
10
95.03956306023008
20
-11.284267440127124
42
-0.41421356237313667
10
93.85350376867855
20
-12.054503350043221
10
82.115732559872868
20
-9.5595630602300989
42
-0.41421356237309492
10
81.345496649956772
20
-8.3735037686785123
0
LWPOLYLINE
5
138
100
AcDbEntity
8
0
100
AcDbPolyline
90
8
70
1
43
0.0
10
70.560436939769914
20
-13.285732559872827
42
-0.41421356237311691
10
71.746496231321515
20
-12.515496649956773
10
83.484267440127155
20
-15.01043693976991
42
-0.41421356237315282
10
84.254503350043194
20
-16.196496231321465
10
81.75956306023005
20
-27.93426744012713
42
-0.41421356237313001
10
80.573503768678577
20
-28.704503350043208
10
68.835732559872881
20
-26.209563060230103
42
-0.41421356237310553
10
68.065496649956799
20
-25.023503768678523
0
LWPOLYLINE
5
139
100
AcDbEntity
8
0
100
AcDbPolyline
90
8
70
1
43
0.0
10
71.800436939769952
20
-73.515732559872845
42
-0.41421356237315066
10
72.986496231321482
20
-72.745496649956806
10
84.724267440127164
20
-75.240436939769921
42
-0.41421356237311652
10
85.494503350043217
20
-76.426496231321451
10
82.999563060230074
20
-88.164267440127162
42
-0.41421356237311652
10
81.813503768678558
20
-88.934503350043229
10
70.075732559872876
20
-86.439563060230157
42
-0.41421356237306345
10
69.305496649956822
20
-85.25350376867857
0
LWPOLYLINE
5
140
100
AcDbEntity
8
0
100
AcDbPolyline
90
8
70
1
43
0.0
10
89.534267440127152
20
-55.250436939769912
42
-0.41421356237311902
10
90.304503350043191
20
-56.436496231321421
10
87.80956306023009
20
-68.174267440127153
42
-0.41421356237311652
10
86.623503768678546
20
-68.944503350043206
10
74.885732559872835
20
-66.449563060230105
42
-0.41421356237305529
10
74.115496649956754
20
-65.263503768678504
10
76.610436939769912
20
-53.525732559872836
42
-0.41421356237311902
10
77.796496231321456
20
-52.75549664995679
0
LWPOLYLINE
5
141
100
AcDbEntity
8
0
100
AcDbPolyline
90
8
70
1
43
0.0
10
71.260436939769903
20
-32.915732559872829
42
-0.4142135623731073
10
72.446496231321461
20
-32.14549664995679
10
84.18426744012713
20
-34.640436939769906
42
-0.41421356237312129
10
84.954503350043197
20
-35.826496231321471
10
82.459563060230067
20
-47.564267440127139
42
-0.41421356237311396
10
81.273503768678552
20
-48.334503350043228
10
69.535732559872841
20
-45.839563060230091
42
-0.41421356237307921
10
68.765496649956759
20
-44.653503768678519
0
LWPOLYLINE
5
142
100
AcDbEntity
8
0
100
AcDbPolyline
90
8
70
1
43
0.0
10
102.47414873374892
20
-0.59645026995113526
42
-0.41421356237310275
10
103.66020802530048
20
0.17378563996492041
10
115.39797923410617
20
-2.3211546498482121
42
-0.41421356237313561
10
116.1682151440222
20
-3.5072139413997672
10
113.67327485420908
20
-15.244985150205428
42
-0.41421356237310897
10
112.48721556265758
20
-16.015221060121529
10
100.74944435385186
20
-13.520280770308396
42
-0.41421356237310181
10
99.979208443935775
20
-12.33422147875682
0
LWPOLYLINE
5
143
100
AcDbEntity
8
0
100
AcDbPolyline
90
8
70
1
43
0.0
10
89.194148733748932
20
-17.246450269951133
42
-0.41421356237311163
10
90.380208025300504
20
-16.476214360035094
10
102.11797923410617
20
-18.971154649848213
42
-0.41421356237314505
10
102.88821514402221
20
-20.157213941399771
10
100.39327485420907
20
-31.894985150205422
42
-0.41421356237312362
10
99.207215562657609
20
-32.665221060121532
10
87.469444353851856
20
-30.170280770308402
42
-0.41421356237308149
10
86.699208443935802
20
-28.984221478756815
0
LWPOLYLINE
5
144
100
AcDbEntity
8
0
100
AcDbPolyline
90
8
70
1
43
0.0
10
102.8179792341062
20
-38.601154649848212
42
-0.41421356237311852
10
103.58821514402221
20
-39.78721394139977
10
101.09327485420906
20
-51.524985150205431
42
-0.41421356237313284
10
99.907215562657555
20
-52.295221060121513
10
88.169444353851844
20
-49.800280770308404
42
-0.4142135623730609
10
87.399208443935805
20
-48.614221478756818
10
89.894148733748949
20
-36.876450269951135
42
-0.41421356237312873
10
91.080208025300465
20
-36.106214360035096
0
LWPOLYLINE
5
145
100
AcDbEntity
8
0
100
AcDbPolyline
90
8
70
1
43
0.0
10
95.244148733748887
20
-57.486450269951142
42
-0.41421356237310886
10
96.430208025300473
20
-56.71621436003511
10
108.16797923410617
20
-59.211154649848218
42
-0.41421356237308488
10
108.93821514402221
20
-60.397213941399755
10
106.44327485420908
20
-72.134985150205409
42
-0.41421356237311396
10
105.25721556265756
20
-72.905221060121534
10
93.519444353851853
20
-70.410280770308418
42
-0.41421356237306595
10
92.749208443935757
20
-69.224221478756817
0
LWPOLYLINE
5
146
100
AcDbEntity
8
0
100
AcDbPolyline
90
8
70
1
43
0.0
10
121.10786052772795
20
-4.5571679800294334
42
-0.41421356237313117
10
122.29391981927949
20
-3.7869320701133939
10
134.03169102808516
20
-6.2818723599265089
42
-0.41421356237309848
10
134.80192693800123
20
-7.4679316514780725
10
132.30698664818811
20
-19.205702860283729
42
-0.41421356237312196
10
131.12092735663654
20
-19.975938770199853
10
119.38315614783087
20
-17.480998480386695
42
-0.41421356237307017
10
118.61292023791481
20
-16.294939188835123
0
LWPOLYLINE
5
147
100
AcDbEntity
8
0
100
AcDbPolyline
90
8
70
1
43
0.0
10
107.82786052772794
20
-21.207167980029439
42
-0.41421356237311902
10
109.01391981927951
20
-20.436932070113386
10
120.75169102808516
20
-22.931872359926523
42
-0.41421356237314327
10
121.52192693800119
20
-24.117931651478074
10
119.02698664818811
20
-35.855702860283728
42
-0.41421356237313578
10
117.84092735663657
20
-36.625938770199824
10
106.10315614783087
20
-34.130998480386701
42
-0.41421356237308027
10
105.33292023791481
20
-32.944939188835122
0
LWPOLYLINE
5
148
100
AcDbEntity
8
0
100
AcDbPolyline
90
8
70
1
43
0.0
10
108.52786052772788
20
-40.837167980029434
42
-0.4142135623731007
10
109.71391981927948
20
-40.066932070113396
10
121.45169102808516
20
-42.561872359926511
42
-0.41421356237311086
10
122.22192693800119
20
-43.747931651478069
10
119.72698664818806
20
-55.48570286028373
42
-0.41421356237313028
10
118.54092735663656
20
-56.255938770199819
10
106.80315614783086
20
-53.760998480386696
42
-0.41421356237313789
10
106.03292023791475
20
-52.574939188835117
0
LWPOLYLINE
5
149
100
AcDbEntity
8
0
100
AcDbPolyline
90
8
70
1
43
0.0
10
113.87786052772789
20
-61.447167980029434
42
-0.41421356237310886
10
115.06391981927948
20
-60.676932070113395
10
126.80169102808517
20
-63.171872359926496
42
-0.41421356237310525
10
127.57192693800123
20
-64.357931651478083
10
125.07698664818807
20
-76.095702860283737
42
-0.41421356237312468
10
123.89092735663654
20
-76.865938770199833
10
112.15315614783083
20
-74.370998480386717
42
-0.41421356237307616
10
111.38292023791476
20
-73.184939188835116
0
LWPOLYLINE
5
150
100
AcDbEntity
8
0
100
AcDbPolyline
90
8
70
1
43
0.0
10
139.74157232170694
20
-8.5178856901077378
42
-0.41421356237313983
10
140.92763161325848
20
-7.7476497801916908
10
152.66540282206415
20
-10.242590070004805
42
-0.41421356237314655
10
153.43563873198019
20
-11.428649361556369
10
150.94069844216708
20
-23.166420570362032
42
-0.41421356237311596
10
149.75463915061556
20
-23.936656480278124
10
138.01686794180989
20
-21.441716190464994
42
-0.41421356237307921
10
137.24663203189382
20
-20.255656898913422
0
LWPOLYLINE
5
151
100
AcDbEntity
8
0
100
AcDbPolyline
90
8
70
1
43
0.0
10
139.38540282206415
20
-26.892590070004815
42
-0.41421356237316898
10
140.15563873198022
20
-28.078649361556383
10
137.66069844216707
20
-39.816420570362048
42
-0.41421356237315221
10
136.47463915061553
20
-40.586656480278123
10
124.73686794180986
20
-38.091716190465007
42
-0.41421356237306795
10
123.96663203189379
20
-36.905656898913435
10
126.46157232170694
20
-25.167885690107742
42
-0.41421356237310986
10
127.64763161325848
20
-24.397649780191696
0
LWPOLYLINE
5
152
100
AcDbEntity
8
0
100
AcDbPolyline
90
8
70
1
43
0.0
10
127.16157232170687
20
-44.797885690107748
42
-0.41421356237313484
10
128.3476316132585
20
-44.027649780191702
10
140.08540282206414
20
-46.522590070004817
42
-0.4142135623731405
10
140.85563873198021
20
-47.708649361556382
10
138.36069844216709
20
-59.446420570362044
42
-0.41421356237308121
10
137.17463915061555
20
-60.216656480278118
10
125.43686794180988
20
-57.721716190464996
42
-0.41421356237311652
10
124.66663203189381
20
-56.53565689891343
0
LWPOLYLINE
5
153
100
AcDbEntity
8
0
100
AcDbPolyline
90
8
70
1
43
0.0
10
132.51157232170695
20
-65.407885690107747
42
-0.41421356237315682
10
133.69763161325852
20
-64.637649780191708
10
145.43540282206413
20
-67.132590070004824
42
-0.41421356237311086
10
146.2056387319802
20
-68.318649361556382
10
143.71069844216706
20
-80.056420570362036
42
-0.41421356237309304
10
142.5246391506156
20
-80.826656480278132
10
130.78686794180985
20
-78.331716190465016
42
-0.41421356237305018
10
130.01663203189381
20
-77.14565689891343
0
LWPOLYLINE
5
154
100
AcDbEntity
8
0
100
AcDbPolyline
90
8
70
1
43
0.0
10
215.94549664995679
20
-18.176496231321501
42
-0.4142135623730524
10
216.71573255987286
20
-16.990436939769886
10
228.45350376867856
20
-14.49549664995682
42
-0.41421356237305113
10
229.63956306023019
20
-15.265732559872824
10
232.1345033500433
20
-27.003503768678513
42
-0.41421356237297768
10
231.36426744012726
20
-28.189563060230117
10
219.62649623132154
20
-30.684503350043222
42
-0.4142135623731053
10
218.44043693976988
20
-29.91426744012719
0
LWPOLYLINE
5
155
100
AcDbEntity
8
0
100
AcDbPolyline
90
8
70
1
43
0.0
10
221.30549664995681
20
2.4335037686785057
42
-0.41421356237307733
10
222.07573255987285
20
3.6195630602300772
10
233.81350376867854
20
6.1145033500432078
42
-0.41421356237305557
10
234.99956306023017
20
5.3442674401271928
10
237.49450335004323
20
-6.3935037686784941
42
-0.41421356237308266
10
236.72426744012716
20
-7.5795630602300808
10
224.98649623132152
20
-10.074503350043248
42
-0.4142135623731088
10
223.80043693976987
20
-9.3042674401272052
0
LWPOLYLINE
5
156
100
AcDbEntity
8
0
100
AcDbPolyline
90
8
70
1
43
0.0
10
224.5654966499568
20
-35.826496231321535
42
-0.41421356237309331
10
225.33573255987289
20
-34.640436939769941
10
237.07350376867853
20
-32.145496649956819
42
-0.41421356237302792
10
238.25956306023016
20
-32.915732559872836
10
240.75450335004331
20
-44.653503768678497
42
-0.41421356237305473
10
239.98426744012718
20
-45.839563060230091
10
228.24649623132154
20
-48.334503350043207
42
-0.41421356237312101
10
227.06043693976989
20
-47.564267440127196
0
LWPOLYLINE
5
157
100
AcDbEntity
8
0
100
AcDbPolyline
90
8
70
1
43
0.0
10
219.20549664995684
20
-56.436496231321499
42
-0.41421356237307722
10
219.97573255987282
20
-55.250436939769905
10
231.71350376867855
20
-52.755496649956811
42
-0.41421356237308177
10
232.89956306023012
20
-53.525732559872822
10
235.39450335004324
20
-65.263503768678504
42
-0.41421356237310214
10
234.62426744012717
20
-66.449563060230105
10
222.88649623132156
20
-68.944503350043249
42
-0.4142135623731043
10
221.70043693976993
20
-68.174267440127181
0
LWPOLYLINE
5
158
100
AcDbEntity
8
0
100
AcDbPolyline
90
8
70
1
43
0.0
10
224.0154966499567
20
-76.426496231321593
42
-0.41421356237307921
10
224.78573255987274
20
-75.24043693976995
10
236.52350376867841
20
-72.745496649956706
42
-0.41421356237311396
10
237.70956306022998
20
-73.51573255987276
10
240.20450335004324
20
-85.253503768678414
42
-0.41421356237307361
10
239.43426744012729
20
-86.439563060229986
10
227.69649623132153
20
-88.934503350043229
42
-0.41421356237308593
10
226.51043693976993
20
-88.164267440127176
0
LWPOLYLINE
5
159
100
AcDbEntity
8
0
100
AcDbPolyline
90
8
70
1
43
0.0
10
183.60549664995648
20
-83.48649623132161
42
-0.4142135623731103
10
184.37573255987246
20
-82.300436939770009
10
196.11350376867816
20
-79.805496649956552
42
-0.41421356237310525
10
197.2995630602297
20
-80.575732559872563
10
199.79450335004316
20
-92.313503768678174
42
-0.41421356237307871
10
199.02426744012723
20
-93.499563060229761
10
187.28649623132156
20
-95.994503350043232
42
-0.41421356237303686
10
186.10043693976991
20
-95.224267440127207
0
LWPOLYLINE
5
160
100
AcDbEntity
8
0
100
AcDbPolyline
90
8
70
1
43
0.0
10
202.67178485597779
20
-1.5272139413998334
42
-0.41421356237306795
10
203.44202076589386
20
-0.34115464984824262
10
215.17979197469955
20
2.1537856399648763
42
-0.41421356237303519
10
216.36585126625124
20
1.3835497300488475
10
218.86079155606427
20
-10.354221478756836
42
-0.41421356237304774
10
218.0905556461482
20
-11.540280770308442
10
206.35278443734254
20
-14.035221060121552
42
-0.41421356237311424
10
205.16672514579091
20
-13.264985150205529
0
LWPOLYLINE
5
161
100
AcDbEntity
8
0
100
AcDbPolyline
90
8
70
1
43
0.0
10
197.31178485597783
20
-22.137213941399846
42
-0.41421356237308898
10
198.0820207658939
20
-20.951154649848242
10
209.81979197469954
20
-18.456214360035148
42
-0.41421356237306961
10
211.00585126625111
20
-19.226450269951165
10
213.50079155606437
20
-30.964221478756837
42
-0.41421356237304374
10
212.73055564614825
20
-32.150280770308449
10
200.99278443734255
20
-34.645221060121557
42
-0.41421356237308948
10
199.80672514579095
20
-33.874985150205525
0
LWPOLYLINE
5
162
100
AcDbEntity
8
0
100
AcDbPolyline
90
8
70
1
43
0.0
10
218.43979197469949
20
-36.106214360035153
42
-0.41421356237305473
10
219.62585126625112
20
-36.876450269951164
10
222.12079155606432
20
-48.614221478756825
42
-0.4142135623730685
10
221.35055564614819
20
-49.800280770308447
10
209.6127844373425
20
-52.295221060121541
42
-0.41421356237311396
10
208.4267251457909
20
-51.524985150205524
10
205.93178485597775
20
-39.787213941399862
42
-0.41421356237306656
10
206.70202076589385
20
-38.601154649848269
0
LWPOLYLINE
5
163
100
AcDbEntity
8
0
100
AcDbPolyline
90
8
70
1
43
0.0
10
200.57178485597785
20
-60.397213941399848
42
-0.41421356237313683
10
201.34202076589389
20
-59.211154649848282
10
213.07979197469959
20
-56.716214360035131
42
-0.41421356237306239
10
214.26585126625113
20
-57.48645026995117
10
216.76079155606428
20
-69.224221478756846
42
-0.41421356237309248
10
215.99055564614818
20
-70.410280770308418
10
204.25278443734257
20
-72.905221060121548
42
-0.41421356237307982
10
203.066725145791
20
-72.134985150205509
0
LWPOLYLINE
5
164
100
AcDbEntity
8
0
100
AcDbPolyline
90
8
70
1
43
0.0
10
184.03807306199883
20
-5.4879316514781671
42
-0.41421356237311296
10
184.80830897191493
20
-4.3018723599265947
10
196.54608018072057
20
-1.8069320701134695
42
-0.41421356237304569
10
197.73213947227217
20
-2.5771679800294933
10
200.22707976208528
20
-14.314939188835163
42
-0.4142135623730947
10
199.45684385216921
20
-15.500998480386754
10
187.71907264336357
20
-17.995938770199885
42
-0.41421356237311424
10
186.53301335181195
20
-17.22570286028386
0
LWPOLYLINE
5
165
100
AcDbEntity
8
0
100
AcDbPolyline
90
8
70
1
43
0.0
10
191.18608018072055
20
-22.416932070113504
42
-0.41421356237305951
10
192.37213947227215
20
-23.187167980029496
10
194.86707976208533
20
-34.924939188835175
42
-0.4142135623730458
10
194.09684385216929
20
-36.110998480386741
10
182.35907264336356
20
-38.605938770199877
42
-0.41421356237308898
10
181.17301335181196
20
-37.835702860283881
10
178.67807306199882
20
-26.097931651478177
42
-0.41421356237308771
10
179.44830897191486
20
-24.91187235992658
0
LWPOLYLINE
5
166
100
AcDbEntity
8
0
100
AcDbPolyline
90
8
70
1
43
0.0
10
199.80608018072053
20
-40.066932070113467
42
-0.41421356237302875
10
200.99213947227213
20
-40.83716798002952
10
203.48707976208527
20
-52.574939188835181
42
-0.41421356237308377
10
202.71684385216915
20
-53.760998480386746
10
190.97907264336357
20
-56.25593877019989
42
-0.41421356237311446
10
189.79301335181194
20
-55.485702860283872
10
187.29807306199882
20
-43.747931651478197
42
-0.41421356237305473
10
188.06830897191486
20
-42.561872359926596
0
LWPOLYLINE
5
167
100
AcDbEntity
8
0
100
AcDbPolyline
90
8
70
1
43
0.0
10
181.93807306199886
20
-64.357931651478168
42
-0.4142135623731083
10
182.70830897191487
20
-63.17187235992661
10
194.44608018072057
20
-60.67693207011348
42
-0.41421356237307161
10
195.63213947227223
20
-61.447167980029498
10
198.12707976208532
20
-73.184939188835159
42
-0.41421356237309614
10
197.35684385216922
20
-74.37099848038676
10
185.61907264336355
20
-76.865938770199875
42
-0.41421356237304652
10
184.43301335181195
20
-76.095702860283851
0
LWPOLYLINE
5
168
100
AcDbEntity
8
0
100
AcDbPolyline
90
8
70
1
43
0.0
10
165.40436126801984
20
-9.4486493615565088
42
-0.41421356237312273
10
166.17459717793594
20
-8.2625900700049257
10
177.91236838674152
20
-5.7676497801917996
42
-0.41421356237306012
10
179.09842767829315
20
-6.5378856901078253
10
181.59336796810632
20
-18.275656898913496
42
-0.41421356237306878
10
180.82313205819023
20
-19.461716190465111
10
169.08536084938453
20
-21.95665648027822
42
-0.41421356237309842
10
167.89930155783287
20
-21.186420570362205
0
LWPOLYLINE
5
169
100
AcDbEntity
8
0
100
AcDbPolyline
90
8
70
1
43
0.0
10
160.04436126801988
20
-30.058649361556512
42
-0.41421356237312568
10
160.81459717793592
20
-28.872590070004907
10
172.55236838674153
20
-26.37764978019181
42
-0.41421356237307316
10
173.73842767829319
20
-27.147885690107827
10
176.23336796810628
20
-38.885656898913503
42
-0.41421356237308132
10
175.46313205819021
20
-40.071716190465089
10
163.7253608493846
20
-42.566656480278212
42
-0.41421356237311197
10
162.53930155783291
20
-41.796420570362194
0
LWPOLYLINE
5
170
100
AcDbEntity
8
0
100
AcDbPolyline
90
8
70
1
43
0.0
10
168.66436126801983
20
-47.708649361556525
42
-0.41421356237307216
10
169.43459717793584
20
-46.522590070004945
10
181.17236838674157
20
-44.027649780191823
42
-0.41421356237306745
10
182.35842767829314
20
-44.797885690107833
10
184.85336796810628
20
-56.535656898913501
42
-0.41421356237308887
10
184.08313205819016
20
-57.721716190465088
10
172.34536084938455
20
-60.216656480278218
42
-0.41421356237306595
10
171.15930155783292
20
-59.446420570362186
0
LWPOLYLINE
5
171
100
AcDbEntity
8
0
100
AcDbPolyline
90
8
70
1
43
0.0
10
163.30436126801985
20
-68.31864936155651
42
-0.41421356237313739
10
164.07459717793589
20
-67.132590070004937
10
175.81236838674153
20
-64.637649780191836
42
-0.41421356237307616
10
176.99842767829321
20
-65.407885690107832
10
179.49336796810627
20
-77.145656898913501
42
-0.41421356237309559
10
178.72313205819017
20
-78.331716190465102
10
166.98536084938462
20
-80.826656480278217
42
-0.41421356237309104
10
165.79930155783296
20
-80.056420570362192
0
CIRCLE
5
172
100
AcDbEntity
8
0
100
AcDbCircle
10
199.18304833616742
20
4.9223239642487346
30
0
40
1.7500000000000002
210
0
220
0
230
1
0
CIRCLE
5
173
100
AcDbEntity
8
0
100
AcDbCircle
10
118.23774861921748
20
3.2418593181070725
30
0
40
1.7500000000000002
210
0
220
0
230
1
0
CIRCLE
5
174
100
AcDbEntity
8
0
100
AcDbCircle
10
8.2300000000000182
20
12.779999999999996
30
0
40
1.7500000000000002
210
0
220
0
230
1
0
CIRCLE
5
175
100
AcDbEntity
8
0
100
AcDbCircle
10
8.2300000000000182
20
-91.119999999999962
30
0
40
1.7500000000000047
210
0
220
0
230
1
0
CIRCLE
5
176
100
AcDbEntity
8
0
100
AcDbCircle
10
311.00875000000002
20
12.779999999999967
30
0
40
1.7500000000000002
210
0
220
0
230
1
0
CIRCLE
5
177
100
AcDbEntity
8
0
100
AcDbCircle
10
311.00875000000008
20
-91.119999999999948
30
0
40
1.7500000000000002
210
0
220
0
230
1
0
CIRCLE
5
178
100
AcDbEntity
8
0
100
AcDbCircle
10
111.36651758024932
20
-101.12531899113716
30
0
40
1.7499999999999574
210
0
220
0
230
1
0
CIRCLE
5
179
100
AcDbEntity
8
0
100
AcDbCircle
10
207.37348241975067
20
-101.12531899113712
30
0
40
1.7500000000000002
210
0
220
0
230
1
0
ENDSEC
0
SECTION
2
OBJECTS
0
DICTIONARY
5
C
100
AcDbDictionary
3
ACAD_GROUP
350
D
3
ACAD_MLINESTYLE
350
17
0
DICTIONARY
5
D
100
AcDbDictionary
0
DICTIONARY
5
1A
330
C
100
AcDbDictionary
0
DICTIONARY
5
17
100
AcDbDictionary
0
ENDSEC
0
EOF
