0
SECTION
2
HEADER
9
$INSUNITS
70
4
9
$ACADVER
1
AC1014
9
$HANDSEED
5
FFFF
0
ENDSEC
0
SECTION
2
TABLES
0
TABLE
2
VPORT
5
8
100
AcDbSymbolTable
0
ENDTAB
0
TABLE
2
LTYPE
5
5
100
AcDbSymbolTable
0
LTYPE
5
14
100
AcDbSymbolTableRecord
100
AcDbLinetypeTableRecord
2
BYBLOCK
70
0
0
LTYPE
5
15
100
AcDbSymbolTableRecord
100
AcDbLinetypeTableRecord
2
BYLAYER
70
0
0
ENDTAB
0
TABLE
2
LAYER
5
2
100
AcDbSymbolTable
70
2
0
LAYER
5
50
100
AcDbSymbolTableRecord
100
AcDbLayerTableRecord
2
0
70
0
6
CONTINUOUS
0
ENDTAB
0
TABLE
2
STYLE
5
3
100
AcDbSymbolTable
70
1
0
STYLE
5
11
100
AcDbSymbolTableRecord
100
AcDbTextStyleTableRecord
2
STANDARD
70
0
0
ENDTAB
0
TABLE
2
VIEW
5
6
100
AcDbSymbolTable
70
0
0
ENDTAB
0
TABLE
2
UCS
5
7
100
AcDbSymbolTable
70
0
0
ENDTAB
0
TABLE
2
APPID
5
9
100
AcDbSymbolTable
70
2
0
APPID
5
12
100
AcDbSymbolTableRecord
100
AcDbRegAppTableRecord
2
ACAD
70
0
0
ENDTAB
0
TABLE
2
DIMSTYLE
5
A
100
AcDbSymbolTable
70
1
0
ENDTAB
0
TABLE
2
BLOCK_RECORD
5
1
100
AcDbSymbolTable
70
1
0
BLOCK_RECORD
5
1F
100
AcDbSymbolTableRecord
100
AcDbBlockTableRecord
2
*MODEL_SPACE
0
BLOCK_RECORD
5
1B
100
AcDbSymbolTableRecord
100
AcDbBlockTableRecord
2
*PAPER_SPACE
0
ENDTAB
0
ENDSEC
0
SECTION
2
BLOCKS
0
BLOCK
5
20
100
AcDbEntity
100
AcDbBlockBegin
2
*MODEL_SPACE
0
ENDBLK
5
21
100
AcDbEntity
100
AcDbBlockEnd
0
BLOCK
5
1C
100
AcDbEntity
100
AcDbBlockBegin
2
*PAPER_SPACE
0
ENDBLK
5
1D
100
AcDbEntity
100
AcDbBlockEnd
0
ENDSEC
0
SECTION
2
ENTITIES
0
LWPOLYLINE
5
100
100
AcDbEntity
8
0
100
AcDbPolyline
90
140
70
1
43
0.0
10
281.89734233732514
20
115.58685012837921
10
284.26447844100261
20
119.68685012837923
42
-0.2679491924311212
10
285.99652924857162
20
120.68685012837911
10
287.45729876403033
20
120.68685012837921
10
287.45729876403027
20
117.78685012837917
42
0.99999999999999989
10
289.45729876403021
20
117.7868501283792
10
289.45729876403021
20
120.68685012837911
10
290.91806827948881
20
120.68685012837911
42
-0.26794919243110787
10
292.65011908705776
20
119.68685012837931
10
295.01725519073517
20
115.5868501283793
42
0.26794919243114584
10
296.74930599830407
20
114.5868501283793
10
350.07829152975614
20
114.58685012837934
42
0.26794919243115106
10
351.81034233732521
20
115.58685012837921
10
354.17747844100285
20
119.68685012837926
42
-0.26794919243109361
10
355.90952924857163
20
120.68685012837911
10
357.37029876403028
20
120.68685012837921
10
357.37029876403028
20
117.7868501283791
42
0.99999999999999989
10
359.37029876403017
20
117.7868501283792
10
359.37029876403017
20
120.68685012837911
10
360.83106827948893
20
120.68685012837911
42
-0.26794919243111348
10
362.56311908705783
20
119.68685012837931
10
364.93025519073518
20
115.58685012837925
42
0.26794919243112536
10
366.66230599830396
20
114.5868501283793
10
375.8076054599249
20
114.58685012837933
42
-0.41421356237297613
10
376.50760545992483
20
113.88685012837911
10
376.50760545992546
20
0.63685012837931387
42
-0.41421356237318796
10
375.80760545992518
20
-0.063149871620618026
10
366.66230653668333
20
-0.063149871620717946
42
0.2679491924310819
10
364.93025572911461
20
-1.0631498716206189
10
362.56311962543703
20
-5.1631498716206936
42
-0.26794919243114773
10
360.83106881786819
20
-6.1631498716208117
10
359.37029930240965
20
-6.1631498716208117
10
359.37029930240953
20
-3.2631498716208762
42
0.99999999999999989
10
357.37029930240965
20
-3.2631498716208052
10
357.37029930240965
20
-6.1631498716208117
10
355.909529786951
20
-6.1631498716208588
42
-0.26794919243112381
10
354.17747897938216
20
-5.1631498716206963
10
351.81034287570441
20
-1.0631498716206909
42
0.26794919243113691
10
350.07829206813568
20
-0.063149871620709064
10
296.74930653668332
20
-0.063149871620708786
42
0.26794919243108406
10
295.01725572911448
20
-1.0631498716206189
10
292.65011962543679
20
-5.1631498716206945
42
-0.26794919243109905
10
290.91806881786812
20
-6.1631498716208117
10
289.45729930240935
20
-6.1631498716207549
10
289.45729930240952
20
-3.2631498716208229
42
0.99999999999999989
10
287.45729930240952
20
-3.2631498716208052
10
287.45729930240935
20
-6.1631498716208117
10
285.99652978695082
20
-6.1631498716208029
42
-0.26794919243111082
10
284.26447897938203
20
-5.1631498716206963
10
281.8973428757044
20
-1.0631498716206185
42
0.26794919243111215
10
280.16529206813539
20
-0.063149871620709064
10
226.83630653668337
20
-0.063149871620721276
42
0.26794919243111653
10
225.10425572911441
20
-1.06314987162071
10
222.737119625437
20
-5.1631498716206909
42
-0.26794919243112442
10
221.00506881786805
20
-6.1631498716208117
10
219.54429930240951
20
-6.1631498716208117
10
219.54429930240948
20
-3.2631498716207519
42
0.99999999999999989
10
217.54429930240951
20
-3.2631498716208052
10
217.54429930240951
20
-6.1631498716208117
10
216.08352978695081
20
-6.1631498716208029
42
-0.26794919243111082
10
214.35147897938202
20
-5.1631498716206963
10
211.98434287570444
20
-1.063149871620616
42
0.26794919243111093
10
210.25229206813549
20
-0.063149871620709064
10
200.44541741349911
20
-0.063149871620709064
10
200.24541741349918
20
0.13685012837929111
10
200.24541741349921
20
17.536850128379321
42
-0.41421356237309503
10
201.74541741349918
20
19.036850128379321
10
208.27069649027317
20
19.036850128379292
42
0.41421356237308293
10
209.77069649027317
20
20.536850128379321
10
209.77069649027314
20
36.836850128379297
42
0.41421356237309681
10
208.27069649027317
20
38.336850128379304
10
201.74510488772023
20
38.336850128379332
42
-0.41421356237311935
10
200.24510488772017
20
39.836850128379297
10
200.24510488772017
20
55.886850128379173
42
0.41421356237310197
10
198.74510488772017
20
57.38685012837918
10
196.98260507845501
20
57.386850128379194
42
-0.41421356237310197
10
195.48260507845501
20
58.886850128379287
10
195.48260507845504
20
74.686850128379206
42
-0.41421356237308815
10
196.98260507845501
20
76.186850128379206
10
203.50760545992466
20
76.186850128379234
42
0.41421356237311241
10
205.00760545992472
20
77.686850128379206
10
205.007605459925
20
114.38685012837929
10
205.20760545992499
20
114.5868501283793
10
210.25229152975635
20
114.5868501283793
42
0.26794919243114285
10
211.9843423373251
20
115.58685012837921
10
214.35147844100271
20
119.68685012837921
42
-0.26794919243112691
10
216.08352924857149
20
120.68685012837911
10
217.5442987640302
20
120.68685012837911
10
217.54429876403023
20
117.78685012837917
42
0.99999999999999989
10
219.5442987640302
20
117.7868501283792
10
219.5442987640302
20
120.68685012837911
10
221.00506827948891
20
120.68685012837911
42
-0.26794919243112525
10
222.73711908705769
20
119.68685012837931
10
225.10425519073519
20
115.58685012837928
42
0.26794919243110954
10
226.836305998304
20
114.5868501283793
10
233.72430545992506
20
114.5868501283793
10
233.72430545992506
20
111.88200000000002
10
226.45600000000002
20
111.88200000000002
10
226.45600000000002
20
110.881
10
225.655
20
110.881
10
225.655
20
107.78100000000002
10
226.45600000000002
20
107.78100000000002
10
226.45600000000002
20
101.982
10
225.655
20
101.982
10
225.655
20
98.881100000000004
10
226.45600000000002
20
98.881100000000004
10
226.45600000000002
20
97.880700000000033
10
240.45500000000004
20
97.880700000000033
10
240.45500000000004
20
98.881100000000004
10
241.25600000000003
20
98.881100000000004
10
241.25600000000003
20
101.982
10
240.45500000000004
20
101.982
10
240.45500000000004
20
107.78100000000002
10
241.25600000000003
20
107.78100000000002
10
241.25600000000003
20
110.881
10
240.45500000000004
20
110.881
10
240.45500000000004
20
111.88200000000002
10
245.506
20
111.88200000000002
10
245.506
20
110.881
10
244.70500000000001
20
110.881
10
244.70500000000001
20
107.78100000000002
10
245.506
20
107.78100000000002
10
245.506
20
101.982
10
244.70500000000001
20
101.982
10
244.70500000000001
20
98.881100000000004
10
245.506
20
98.881100000000004
10
245.506
20
97.880700000000033
10
259.505
20
97.880700000000033
10
259.505
20
98.881100000000004
10
260.30599999999998
20
98.881100000000004
10
260.30599999999998
20
101.982
10
259.505
20
101.982
10
259.505
20
107.78100000000002
10
260.30599999999998
20
107.78100000000002
10
260.30599999999998
20
110.881
10
259.505
20
110.881
10
259.505
20
111.88200000000002
10
251.66430545992529
20
111.88200000000002
10
251.66430545992529
20
114.5868501283793
10
280.1652915297563
20
114.58685012837927
42
0.2679491924311187
0
LWPOLYLINE
5
101
100
AcDbEntity
8
0
100
AcDbPolyline
90
152
70
1
43
0.0
10
79.673405684484607
20
114.58685012837921
42
0.26794919243111037
10
81.405456492053389
20
115.58685012837911
10
83.77259259573097
20
119.68685012837922
42
-0.26794919243111953
10
85.504643403299795
20
120.68685012837911
10
86.965412918758489
20
120.68685012837911
10
86.965412918758489
20
117.7868501283792
42
0.99999999999999989
10
88.965412918758489
20
117.7868501283792
10
88.965412918758489
20
120.68685012837921
10
90.426182434217139
20
120.68685012837909
42
-0.26794919243110238
10
92.15823324178595
20
119.68685012837922
10
94.525369345463432
20
115.58685012837921
42
0.26794919243110693
10
96.257420153032399
20
114.58685012837921
10
129.52086356479609
20
114.58685012837921
10
129.52086356479609
20
111.88200000000002
10
121.68100000000001
20
111.88200000000002
10
121.68100000000001
20
110.881
10
120.88000000000001
20
110.881
10
120.88000000000001
20
107.78100000000002
10
121.68100000000001
20
107.78100000000002
10
121.68100000000001
20
101.982
10
120.88000000000001
20
101.982
10
120.88000000000001
20
98.881100000000004
10
121.68100000000001
20
98.881100000000004
10
121.68100000000001
20
97.880700000000033
10
135.68000000000001
20
97.880700000000033
10
135.68000000000001
20
98.881100000000004
10
136.48099999999999
20
98.881100000000004
10
136.48099999999999
20
101.982
10
135.68000000000001
20
101.982
10
135.68000000000001
20
107.78100000000002
10
136.48099999999999
20
107.78100000000002
10
136.48099999999999
20
110.881
10
135.68000000000001
20
110.881
10
135.68000000000001
20
111.88200000000002
10
140.73099999999999
20
111.88200000000002
10
140.73099999999999
20
110.881
10
139.93000000000001
20
110.881
10
139.93000000000001
20
107.78100000000002
10
140.73099999999999
20
107.78100000000002
10
140.73099999999999
20
101.982
10
139.93000000000001
20
101.982
10
139.93000000000001
20
98.881100000000004
10
140.73099999999999
20
98.881100000000004
10
140.73099999999999
20
97.880700000000033
10
154.72999999999999
20
97.880700000000033
10
154.72999999999999
20
98.881100000000004
10
155.53100000000001
20
98.881100000000004
10
155.53100000000001
20
101.982
10
154.72999999999999
20
101.982
10
154.72999999999999
20
107.78100000000002
10
155.53100000000001
20
107.78100000000002
10
155.53100000000001
20
110.881
10
154.72999999999999
20
110.881
10
154.72999999999999
20
111.88200000000002
10
147.46086356479611
20
111.88200000000001
10
147.46086356479611
20
114.58685012837921
10
149.58640568448462
20
114.58685012837921
42
0.26794919243110654
10
151.31845649205343
20
115.58685012837911
10
153.68559259573101
20
119.68685012837921
42
-0.26794919243112691
10
155.41764340329982
20
120.68685012837911
10
156.8784129187585
20
120.68685012837911
10
156.8784129187585
20
117.7868501283792
42
0.99999999999999989
10
158.87841291875853
20
117.7868501283792
10
158.87841291875853
20
120.68685012837911
10
160.33918243421709
20
120.68685012837911
42
-0.26794919243110954
10
162.07123324178588
20
119.68685012837922
10
164.43836934546351
20
115.58685012837921
42
0.26794919243109977
10
166.17042015303241
20
114.58685012837921
10
175.97760545992452
20
114.58685012837921
10
176.17760545992454
20
114.38685012837922
10
176.17760545992445
20
77.936850128379206
42
-0.41421356237310897
10
174.67760545992439
20
76.436850128379206
10
168.15260507845471
20
76.43685012837922
42
0.41421356237308815
10
166.65260507845466
20
74.936850128379206
10
166.65260507845474
20
58.63685012837918
42
0.41421356237309503
10
168.15260507845471
20
57.136850128379173
10
169.91510488771979
20
57.136850128379137
42
-0.41421356237309159
10
171.41510488771979
20
55.636850128379166
10
171.41510488771985
20
39.586850128379304
42
0.41421356237309681
10
172.91510488771985
20
38.086850128379297
10
179.4406964902729
20
38.086850128379261
42
-0.41421356237308982
10
180.9406964902729
20
36.586850128379304
10
180.94069649027293
20
20.786850128379214
42
-0.41421356237309331
10
179.4406964902729
20
19.286850128379214
10
172.9154174134988
20
19.28685012837915
42
0.41421356237311324
10
171.41541741349883
20
17.786850128379214
10
171.41541741349883
20
0.13685012837929111
10
171.21541741349881
20
-0.063149871620709064
10
166.17042069141155
20
-0.063149871620808984
42
0.26794919243111665
10
164.43836988384263
20
-1.0631498716208188
10
162.07123378016522
20
-5.1631498716209343
42
-0.26794919243112097
10
160.3391829725964
20
-6.1631498716208117
10
158.87841345713761
20
-6.1631498716208117
10
158.87841345713758
20
-3.2631498716208229
42
0.99999999999999989
10
156.8784134571377
20
-3.2631498716208052
10
156.87841345713758
20
-6.1631498716208117
10
155.41764394167902
20
-6.1631498716208206
42
-0.26794919243112453
10
153.68559313411021
20
-5.1631498716206963
10
151.31845703043271
20
-1.0631498716207139
42
0.26794919243111642
10
149.58640622286379
20
-0.063149871620709064
10
96.257420691411596
20
-0.063149871620701847
42
0.2679491924311212
10
94.525369883842799
20
-1.06314987162071
10
92.15823378016529
20
-5.1631498716206883
42
-0.26794919243110799
10
90.426182972596436
20
-6.1631498716208117
10
88.965413457137686
20
-6.1770612354981953
10
88.965413457137714
20
-3.2631498716208318
42
0.99999999999999989
10
86.965413457137714
20
-3.2631498716208052
10
86.965413457137714
20
-6.1631498716208117
10
85.504643941679149
20
-6.1631498716208064
42
-0.26794919243112097
10
83.772593134110238
20
-5.1631498716206963
10
81.4054570304327
20
-1.0631498716206191
42
0.26794919243111714
10
79.673406222863832
20
-0.063149871620709064
10
26.344420691411621
20
-0.063149871620705456
42
0.26794919243111653
10
24.612369883842735
20
-1.06314987162071
10
22.245233780165286
20
-5.1631498716206963
42
-0.26794919243111487
10
20.513182972596425
20
-6.1631498716208117
10
19.05241291875852
20
-6.1631498716208117
10
19.052412918758517
20
-3.2631498716208074
42
0.99999999999999989
10
17.052412918758524
20
-3.2631498716208052
10
17.052412918758524
20
-6.1631498716208108
10
15.59164394167912
20
-6.16314987162081
42
-0.26794919243111665
10
13.859593134110231
20
-5.1631498716206963
10
11.492457030432712
20
-1.0631498716206185
42
0.26794919243111193
10
9.7604062228638391
20
-0.063149871620709064
10
0.61510622286386163
20
-0.063149871620818976
42
-0.41421356237308715
10
-0.084893777136145765
20
0.63685012837931154
10
-0.084893777136149096
20
97.686891089031604
42
-0.41421356237309698
10
0.91510622286385401
20
98.686891089031604
10
7.3851062133270933
20
98.686891089031604
42
0.41421356237307488
10
8.3851062133270915
20
99.686891089031604
10
8.3851062133270879
20
113.58685012837923
42
-0.41421356237309437
10
9.3851062133270808
20
114.58685012837921
10
9.7604056844845992
20
114.58685012837921
42
0.2679491924311212
10
11.492456492053442
20
115.58685012837911
10
13.859592595730968
20
119.68685012837922
42
-0.26794919243111287
10
15.591643403299869
20
120.68685012837911
10
17.052412918758463
20
120.68685012837911
10
17.052412918758463
20
117.7868501283792
42
0.99999999999999989
10
19.052412918758463
20
117.7868501283792
10
19.052412918758463
20
120.68685012837911
10
20.513182434217114
20
120.68685012837911
42
-0.26794919243110477
10
22.24523324178595
20
119.68685012837922
10
24.612369345463531
20
115.58685012837921
42
0.26794919243112131
10
26.344420153032374
20
114.58685012837921
10
27.813406241110862
20
114.58685012837924
42
-0.41421356162035106
10
28.813406241110876
20
113.58685013094922
10
28.813406247278884
20
111.1868501552855
42
0.4142135623730846
10
29.813406249848896
20
110.1868501578553
10
37.81340624984886
20
110.1868501784155
42
0.41421356237310025
10
38.813406247278863
20
111.18685018098552
10
38.81340624111084
20
113.58685012580908
42
-0.4142135631258273
10
39.813406241110847
20
114.58685012837921
0
LWPOLYLINE
5
102
100
AcDbEntity
8
0
100
AcDbPolyline
90
20
70
1
43
0.0
10
230.93000000000004
20
69.680700000000002
10
231.73100000000002
20
69.680700000000002
10
231.73100000000002
20
72.781199999999998
10
230.93000000000004
20
72.781199999999998
10
230.93000000000004
20
73.781700000000001
10
216.93100000000001
20
73.781700000000001
10
216.93100000000001
20
72.781199999999998
10
216.13
20
72.781199999999998
10
216.13
20
69.680700000000002
10
216.93100000000001
20
69.680700000000002
10
216.93100000000001
20
63.881700000000016
10
216.13
20
63.881700000000016
10
216.13
20
60.781100000000016
10
216.93100000000001
20
60.781100000000016
10
216.93100000000001
20
59.780700000000017
10
230.93000000000004
20
59.780700000000017
10
230.93000000000004
20
60.781100000000016
10
231.73100000000002
20
60.781100000000016
10
231.73100000000002
20
63.881700000000016
10
230.93000000000004
20
63.881700000000016
0
LWPOLYLINE
5
103
100
AcDbEntity
8
0
100
AcDbPolyline
90
20
70
1
43
0.0
10
146.006
20
60.781100000000016
10
146.006
20
63.881700000000016
10
145.20500000000001
20
63.881700000000016
10
145.20500000000001
20
69.680700000000002
10
146.006
20
69.680700000000002
10
146.006
20
72.781199999999998
10
145.20500000000001
20
72.781199999999998
10
145.20500000000001
20
73.781700000000001
10
131.20600000000002
20
73.781700000000001
10
131.20600000000002
20
72.781199999999998
10
130.40500000000003
20
72.781199999999998
10
130.40500000000003
20
69.680700000000002
10
131.20600000000002
20
69.680700000000002
10
131.20600000000002
20
63.881700000000016
10
130.40500000000003
20
63.881700000000016
10
130.40500000000003
20
60.781100000000016
10
131.20600000000002
20
60.781100000000016
10
131.20600000000002
20
59.780700000000017
10
145.20500000000001
20
59.780700000000017
10
145.20500000000001
20
60.781100000000016
0
LWPOLYLINE
5
104
100
AcDbEntity
8
0
100
AcDbPolyline
90
20
70
1
43
0.0
10
197.881
20
63.881700000000016
10
197.08000000000001
20
63.881700000000016
10
197.08000000000001
20
60.781100000000016
10
197.881
20
60.781100000000016
10
197.881
20
59.780700000000017
10
211.88000000000002
20
59.780700000000017
10
211.88000000000002
20
60.781100000000016
10
212.68100000000004
20
60.781100000000016
10
212.68100000000004
20
63.881700000000016
10
211.88000000000002
20
63.881700000000016
10
211.88000000000002
20
69.680700000000002
10
212.68100000000004
20
69.680700000000002
10
212.68100000000004
20
72.781199999999998
10
211.88000000000002
20
72.781199999999998
10
211.88000000000002
20
73.781700000000001
10
197.881
20
73.781700000000001
10
197.881
20
72.781199999999998
10
197.08000000000001
20
72.781199999999998
10
197.08000000000001
20
69.680700000000002
10
197.881
20
69.680700000000002
0
LWPOLYLINE
5
105
100
AcDbEntity
8
0
100
AcDbPolyline
90
20
70
1
43
0.0
10
254.23000000000002
20
60.781100000000016
10
255.03100000000003
20
60.781100000000016
10
255.03100000000003
20
59.780700000000017
10
269.02999999999997
20
59.780700000000017
10
269.02999999999997
20
60.781100000000016
10
269.83100000000002
20
60.781100000000016
10
269.83100000000002
20
63.881700000000016
10
269.02999999999997
20
63.881700000000016
10
269.02999999999997
20
69.680700000000002
10
269.83100000000002
20
69.680700000000002
10
269.83100000000002
20
72.781199999999998
10
269.02999999999997
20
72.781199999999998
10
269.02999999999997
20
73.781700000000001
10
255.03100000000003
20
73.781700000000001
10
255.03100000000003
20
72.781199999999998
10
254.23000000000002
20
72.781199999999998
10
254.23000000000002
20
69.680700000000002
10
255.03100000000003
20
69.680700000000002
10
255.03100000000003
20
63.881700000000016
10
254.23000000000002
20
63.881700000000016
0
LWPOLYLINE
5
106
100
AcDbEntity
8
0
100
AcDbPolyline
90
20
70
1
43
0.0
10
288.88099999999997
20
69.680700000000002
10
288.88099999999997
20
72.781199999999998
10
288.07999999999998
20
72.781199999999998
10
288.07999999999998
20
73.781700000000001
10
274.08100000000002
20
73.781700000000001
10
274.08100000000002
20
72.781199999999998
10
273.27999999999997
20
72.781199999999998
10
273.27999999999997
20
69.680700000000002
10
274.08100000000002
20
69.680700000000002
10
274.08100000000002
20
63.881700000000016
10
273.27999999999997
20
63.881700000000016
10
273.27999999999997
20
60.781100000000016
10
274.08100000000002
20
60.781100000000016
10
274.08100000000002
20
59.780700000000017
10
288.07999999999998
20
59.780700000000017
10
288.07999999999998
20
60.781100000000016
10
288.88099999999997
20
60.781100000000016
10
288.88099999999997
20
63.881700000000016
10
288.07999999999998
20
63.881700000000016
10
288.07999999999998
20
69.680700000000002
0
LWPOLYLINE
5
107
100
AcDbEntity
8
0
100
AcDbPolyline
90
20
70
1
43
0.0
10
307.13
20
63.881700000000016
10
307.13
20
69.680700000000002
10
307.93099999999998
20
69.680700000000002
10
307.93099999999998
20
72.781199999999998
10
307.13
20
72.781199999999998
10
307.13
20
73.781700000000001
10
293.13099999999997
20
73.781700000000001
10
293.13099999999997
20
72.781199999999998
10
292.32999999999998
20
72.781199999999998
10
292.32999999999998
20
69.680700000000002
10
293.13099999999997
20
69.680700000000002
10
293.13099999999997
20
63.881700000000016
10
292.32999999999998
20
63.881700000000016
10
292.32999999999998
20
60.781100000000016
10
293.13099999999997
20
60.781100000000016
10
293.13099999999997
20
59.780700000000017
10
307.13
20
59.780700000000017
10
307.13
20
60.781100000000016
10
307.93099999999998
20
60.781100000000016
10
307.93099999999998
20
63.881700000000016
0
LWPOLYLINE
5
108
100
AcDbEntity
8
0
100
AcDbPolyline
90
20
70
1
43
0.0
10
235.98100000000002
20
72.781199999999998
10
235.18000000000001
20
72.781199999999998
10
235.18000000000001
20
69.680700000000002
10
235.98100000000002
20
69.680700000000002
10
235.98100000000002
20
63.881700000000016
10
235.18000000000001
20
63.881700000000016
10
235.18000000000001
20
60.781100000000016
10
235.98100000000002
20
60.781100000000016
10
235.98100000000002
20
59.780700000000017
10
249.98000000000002
20
59.780700000000017
10
249.98000000000002
20
60.781100000000016
10
250.78100000000003
20
60.781100000000016
10
250.78100000000003
20
63.881700000000016
10
249.98000000000002
20
63.881700000000016
10
249.98000000000002
20
69.680700000000002
10
250.78100000000003
20
69.680700000000002
10
250.78100000000003
20
72.781199999999998
10
249.98000000000002
20
72.781199999999998
10
249.98000000000002
20
73.781700000000001
10
235.98100000000002
20
73.781700000000001
0
LWPOLYLINE
5
109
100
AcDbEntity
8
0
100
AcDbPolyline
90
20
70
1
43
0.0
10
326.98100000000005
20
63.881700000000016
10
326.18000000000001
20
63.881700000000016
10
326.18000000000001
20
69.680700000000002
10
326.98100000000005
20
69.680700000000002
10
326.98100000000005
20
72.781199999999998
10
326.18000000000001
20
72.781199999999998
10
326.18000000000001
20
73.781700000000001
10
312.18099999999998
20
73.781700000000001
10
312.18099999999998
20
72.781199999999998
10
311.38
20
72.781199999999998
10
311.38
20
69.680700000000002
10
312.18099999999998
20
69.680700000000002
10
312.18099999999998
20
63.881700000000016
10
311.38
20
63.881700000000016
10
311.38
20
60.781100000000016
10
312.18099999999998
20
60.781100000000016
10
312.18099999999998
20
59.780700000000017
10
326.18000000000001
20
59.780700000000017
10
326.18000000000001
20
60.781100000000016
10
326.98100000000005
20
60.781100000000016
0
LWPOLYLINE
5
110
100
AcDbEntity
8
0
100
AcDbPolyline
90
20
70
1
43
0.0
10
350.79300000000001
20
69.680700000000002
10
350.79300000000001
20
72.781199999999998
10
349.99400000000009
20
72.781199999999998
10
349.99400000000009
20
73.781700000000001
10
335.99300000000005
20
73.781700000000001
10
335.99300000000005
20
72.781199999999998
10
335.19400000000013
20
72.781199999999998
10
335.19400000000013
20
69.680700000000002
10
335.99300000000005
20
69.680700000000002
10
335.99300000000005
20
63.881700000000016
10
335.19400000000013
20
63.881700000000016
10
335.19400000000013
20
60.781100000000016
10
335.99300000000005
20
60.781100000000016
10
335.99300000000005
20
59.780700000000017
10
349.99400000000009
20
59.780700000000017
10
349.99400000000009
20
60.781100000000016
10
350.79300000000001
20
60.781100000000016
10
350.79300000000001
20
63.881700000000016
10
349.99400000000009
20
63.881700000000016
10
349.99400000000009
20
69.680700000000002
0
LWPOLYLINE
5
111
100
AcDbEntity
8
0
100
AcDbPolyline
90
20
70
1
43
0.0
10
359.80500000000001
20
63.881700000000016
10
359.00400000000002
20
63.881700000000016
10
359.00400000000002
20
60.781100000000016
10
359.80500000000001
20
60.781100000000016
10
359.80500000000001
20
59.780700000000017
10
373.80700000000002
20
59.780700000000017
10
373.80700000000002
20
60.781100000000016
10
374.608
20
60.781100000000016
10
374.608
20
63.881700000000016
10
373.80700000000002
20
63.881700000000016
10
373.80700000000002
20
69.680700000000002
10
374.608
20
69.680700000000002
10
374.608
20
72.781199999999998
10
373.80700000000002
20
72.781199999999998
10
373.80700000000002
20
73.781700000000001
10
359.80500000000001
20
73.781700000000001
10
359.80500000000001
20
72.781199999999998
10
359.00400000000002
20
72.781199999999998
10
359.00400000000002
20
69.680700000000002
10
359.80500000000001
20
69.680700000000002
0
LWPOLYLINE
5
112
100
AcDbEntity
8
0
100
AcDbPolyline
90
32
70
1
43
0.0
10
354.32999999999998
20
85.3309
10
354.32999999999998
20
88.130900000000025
10
353.4550000000001
20
88.130900000000025
10
353.4550000000001
20
91.3613
10
351.77999999999997
20
91.3613
10
351.77999999999997
20
92.281700000000001
10
348.48099999999999
20
92.281700000000001
10
348.48100000000039
20
91.821500000000086
10
345.23000000000002
20
91.83120000000001
10
345.23000000000002
20
92.831699999999998
10
331.23099999999999
20
92.831699999999998
10
331.23099999999999
20
91.83120000000001
10
327.98100000000062
20
91.821500000000142
10
327.98099999999999
20
92.281700000000001
10
324.68099999999998
20
92.281700000000001
10
324.68099999999998
20
91.3613
10
323.005
20
91.3613
10
323.005
20
88.130900000000025
10
322.13
20
88.130900000000025
10
322.13
20
85.3309
10
323.005
20
85.3309
10
323.005
20
79.060699999999983
10
324.68099999999998
20
79.060699999999983
10
324.68099999999998
20
78.081000000000003
10
327.98099999999999
20
78.081000000000003
10
327.98099999999999
20
78.830700000000007
10
348.48099999999999
20
78.830700000000007
10
348.48099999999999
20
78.081000000000003
10
351.77999999999997
20
78.081000000000003
10
351.77999999999997
20
79.060699999999983
10
353.4550000000001
20
79.060699999999983
10
353.4550000000001
20
85.3309
0
LWPOLYLINE
5
113
100
AcDbEntity
8
0
100
AcDbPolyline
90
20
70
1
43
0.0
10
2.6182699999999999
20
91.83120000000001
10
1.81901
20
91.83120000000001
10
1.81901
20
88.730699999999999
10
2.6182699999999999
20
88.730699999999999
10
2.6182699999999999
20
82.931700000000021
10
1.81901
20
82.931700000000021
10
1.81901
20
79.831100000000006
10
2.6182699999999999
20
79.831100000000006
10
2.6182700000000003
20
78.830700000000007
10
16.619199999999999
20
78.830700000000007
10
16.619199999999999
20
79.831100000000006
10
17.418399999999998
20
79.831100000000006
10
17.418399999999998
20
82.931700000000021
10
16.619199999999999
20
82.931700000000021
10
16.619199999999999
20
88.730699999999999
10
17.418399999999998
20
88.730699999999999
10
17.418399999999998
20
91.83120000000001
10
16.619199999999999
20
91.83120000000001
10
16.619199999999999
20
92.831699999999998
10
2.6182700000000003
20
92.831699999999998
0
LWPOLYLINE
5
114
100
AcDbEntity
8
0
100
AcDbPolyline
90
20
70
1
43
0.0
10
64.530799999999999
20
82.931700000000021
10
63.730000000000004
20
82.931700000000021
10
63.730000000000004
20
79.831100000000006
10
64.530799999999999
20
79.831100000000006
10
64.530799999999999
20
78.830700000000007
10
78.530100000000004
20
78.830700000000007
10
78.530100000000004
20
79.831100000000006
10
79.3309
20
79.831100000000006
10
79.3309
20
82.931700000000021
10
78.530100000000004
20
82.931700000000021
10
78.530100000000004
20
88.730699999999999
10
79.3309
20
88.730699999999999
10
79.3309
20
91.83120000000001
10
78.530100000000004
20
91.83120000000001
10
78.530100000000004
20
92.831699999999998
10
64.530799999999999
20
92.831699999999998
10
64.530799999999999
20
91.83120000000001
10
63.730000000000004
20
91.83120000000001
10
63.730000000000004
20
88.730699999999999
10
64.530799999999999
20
88.730699999999999
0
LWPOLYLINE
5
115
100
AcDbEntity
8
0
100
AcDbPolyline
90
20
70
1
43
0.0
10
36.468400000000003
20
82.931700000000021
10
35.669000000000011
20
82.931700000000021
10
35.669000000000011
20
88.730699999999999
10
36.468400000000003
20
88.730699999999999
10
36.468400000000003
20
91.83120000000001
10
35.669000000000011
20
91.83120000000001
10
35.669000000000011
20
92.831699999999998
10
21.668300000000002
20
92.831699999999998
10
21.668300000000002
20
91.83120000000001
10
20.869
20
91.83120000000001
10
20.869
20
88.730699999999999
10
21.668300000000002
20
88.730699999999999
10
21.668300000000002
20
82.931700000000021
10
20.869
20
82.931700000000021
10
20.869
20
79.831100000000006
10
21.668300000000002
20
79.831100000000006
10
21.668300000000002
20
78.830700000000007
10
35.669000000000011
20
78.830700000000007
10
35.669000000000011
20
79.831100000000006
10
36.468400000000003
20
79.831100000000006
0
LWPOLYLINE
5
116
100
AcDbEntity
8
0
100
AcDbPolyline
90
20
70
1
43
0.0
10
60.280900000000003
20
91.83120000000001
10
59.4801
20
91.83120000000001
10
59.4801
20
92.831699999999998
10
45.480800000000002
20
92.831699999999998
10
45.480800000000002
20
91.83120000000001
10
44.68
20
91.83120000000001
10
44.68
20
88.730699999999999
10
45.480800000000002
20
88.730699999999999
10
45.480800000000002
20
82.931700000000021
10
44.68
20
82.931700000000021
10
44.68
20
79.831100000000006
10
45.480800000000002
20
79.831100000000006
10
45.480800000000002
20
78.830700000000007
10
59.4801
20
78.830700000000007
10
59.4801
20
79.831100000000006
10
60.280900000000003
20
79.831100000000006
10
60.280900000000003
20
82.931700000000021
10
59.4801
20
82.931700000000021
10
59.4801
20
88.730699999999999
10
60.280900000000003
20
88.730699999999999
0
LWPOLYLINE
5
117
100
AcDbEntity
8
0
100
AcDbPolyline
90
20
70
1
43
0.0
10
155.53100000000001
20
91.83120000000001
10
154.72999999999999
20
91.83120000000001
10
154.72999999999999
20
92.831699999999998
10
140.73099999999999
20
92.831699999999998
10
140.73099999999999
20
91.83120000000001
10
139.93000000000001
20
91.83120000000001
10
139.93000000000001
20
88.730699999999999
10
140.73099999999999
20
88.730699999999999
10
140.73099999999999
20
82.931700000000021
10
139.93000000000001
20
82.931700000000021
10
139.93000000000001
20
79.831100000000006
10
140.73099999999999
20
79.831100000000006
10
140.73099999999999
20
78.830700000000007
10
154.72999999999999
20
78.830700000000007
10
154.72999999999999
20
79.831100000000006
10
155.53100000000001
20
79.831100000000006
10
155.53100000000001
20
82.931700000000021
10
154.72999999999999
20
82.931700000000021
10
154.72999999999999
20
88.730699999999999
10
155.53100000000001
20
88.730699999999999
0
LWPOLYLINE
5
118
100
AcDbEntity
8
0
100
AcDbPolyline
90
20
70
1
43
0.0
10
97.580100000000002
20
82.931700000000021
10
97.580100000000002
20
88.730699999999999
10
98.380900000000011
20
88.730699999999999
10
98.380900000000011
20
91.83120000000001
10
97.580100000000002
20
91.83120000000001
10
97.580100000000002
20
92.831699999999998
10
83.580799999999996
20
92.831699999999998
10
83.580799999999996
20
91.83120000000001
10
82.780000000000001
20
91.83120000000001
10
82.780000000000001
20
88.730699999999999
10
83.580799999999996
20
88.730699999999999
10
83.580799999999996
20
82.931700000000021
10
82.780000000000001
20
82.931700000000021
10
82.780000000000001
20
79.831100000000006
10
83.580799999999996
20
79.831100000000006
10
83.580799999999996
20
78.830700000000007
10
97.580100000000002
20
78.830700000000007
10
97.580100000000002
20
79.831100000000006
10
98.380900000000011
20
79.831100000000006
10
98.380900000000011
20
82.931700000000021
0
LWPOLYLINE
5
119
100
AcDbEntity
8
0
100
AcDbPolyline
90
20
70
1
43
0.0
10
117.431
20
88.730699999999999
10
117.431
20
91.83120000000001
10
116.63
20
91.83120000000001
10
116.63
20
92.831699999999998
10
102.63100000000001
20
92.831699999999998
10
102.63100000000001
20
91.83120000000001
10
101.83
20
91.83120000000001
10
101.83
20
88.730699999999999
10
102.63100000000001
20
88.730699999999999
10
102.63100000000001
20
82.931700000000021
10
101.83
20
82.931700000000021
10
101.83
20
79.831100000000006
10
102.63100000000001
20
79.831100000000006
10
102.63100000000001
20
78.830700000000007
10
116.63
20
78.830700000000007
10
116.63
20
79.831100000000006
10
117.431
20
79.831100000000006
10
117.431
20
82.931700000000021
10
116.63
20
82.931700000000021
10
116.63
20
88.730699999999999
0
LWPOLYLINE
5
120
100
AcDbEntity
8
0
100
AcDbPolyline
90
20
70
1
43
0.0
10
300.27499999999998
20
6.7317100000000005
10
299.47500000000002
20
6.7317100000000005
10
299.47500000000002
20
3.6325200000000004
10
300.27499999999998
20
3.6325200000000004
10
300.27499999999998
20
2.6320500000000009
10
314.27499999999998
20
2.6320500000000009
10
314.27499999999998
20
3.6325200000000004
10
315.07499999999999
20
3.6325200000000004
10
315.07499999999999
20
6.7317100000000005
10
314.27499999999998
20
6.7317100000000005
10
314.27499999999998
20
12.5319
10
315.07499999999999
20
12.5319
10
315.07499999999999
20
15.6325
10
314.27499999999998
20
15.6325
10
314.27499999999998
20
16.631499999999999
10
300.27499999999998
20
16.631499999999999
10
300.27499999999998
20
15.6325
10
299.47500000000002
20
15.6325
10
299.47500000000002
20
12.5319
10
300.27499999999998
20
12.5319
0
LWPOLYLINE
5
121
100
AcDbEntity
8
0
100
AcDbPolyline
90
20
70
1
43
0.0
10
335.7050000000001
20
2.6320500000000009
10
335.7050000000001
20
3.6325200000000004
10
336.50599999999997
20
3.6325200000000004
10
336.50599999999997
20
6.7317100000000005
10
335.7050000000001
20
6.7317100000000005
10
335.7050000000001
20
12.5319
10
336.50599999999997
20
12.5319
10
336.50599999999997
20
15.6325
10
335.7050000000001
20
15.6325
10
335.7050000000001
20
16.631499999999999
10
321.70600000000002
20
16.631499999999999
10
321.70600000000002
20
15.6325
10
320.90499999999997
20
15.6325
10
320.90499999999997
20
12.5319
10
321.70600000000002
20
12.5319
10
321.70600000000002
20
6.7317100000000005
10
320.90499999999997
20
6.7317100000000005
10
320.90499999999997
20
3.6325200000000004
10
321.70600000000002
20
3.6325200000000004
10
321.70600000000002
20
2.6320500000000009
0
LWPOLYLINE
5
122
100
AcDbEntity
8
0
100
AcDbPolyline
90
20
70
1
43
0.0
10
373.80700000000002
20
110.881
10
373.80700000000002
20
111.88200000000002
10
359.80500000000001
20
111.88200000000002
10
359.80500000000001
20
110.881
10
359.00400000000002
20
110.881
10
359.00400000000002
20
107.78100000000002
10
359.80500000000001
20
107.78100000000002
10
359.80500000000001
20
101.982
10
359.00400000000002
20
101.982
10
359.00400000000002
20
98.881100000000004
10
359.80500000000001
20
98.881100000000004
10
359.80500000000001
20
97.880700000000033
10
373.80700000000002
20
97.880700000000033
10
373.80700000000002
20
98.881100000000004
10
374.608
20
98.881100000000004
10
374.608
20
101.982
10
373.80700000000002
20
101.982
10
373.80700000000002
20
107.78100000000002
10
374.608
20
107.78100000000002
10
374.608
20
110.881
0
LWPOLYLINE
5
123
100
AcDbEntity
8
0
100
AcDbPolyline
90
20
70
1
43
0.0
10
340.75600000000009
20
12.5319
10
340.75600000000009
20
6.7317100000000005
10
339.95499999999998
20
6.7317100000000005
10
339.95499999999998
20
3.6325200000000004
10
340.75600000000009
20
3.6325200000000004
10
340.75600000000009
20
2.6320500000000009
10
354.75699999999995
20
2.6320500000000009
10
354.75699999999995
20
3.6325200000000004
10
355.55800000000005
20
3.6325200000000004
10
355.55800000000005
20
6.7317100000000005
10
354.75699999999995
20
6.7317100000000005
10
354.75699999999995
20
12.5319
10
355.55800000000005
20
12.5319
10
355.55800000000005
20
15.6325
10
354.75699999999995
20
15.6325
10
354.75699999999995
20
16.631499999999999
10
340.75600000000009
20
16.631499999999999
10
340.75600000000009
20
15.6325
10
339.95499999999998
20
15.6325
10
339.95499999999998
20
12.5319
0
LWPOLYLINE
5
124
100
AcDbEntity
8
0
100
AcDbPolyline
90
20
70
1
43
0.0
10
354.75699999999995
20
111.88200000000002
10
340.75600000000009
20
111.88200000000002
10
340.75600000000009
20
110.881
10
339.95499999999998
20
110.881
10
339.95499999999998
20
107.78100000000002
10
340.75600000000009
20
107.78100000000002
10
340.75600000000009
20
101.982
10
339.95499999999998
20
101.982
10
339.95499999999998
20
98.881100000000004
10
340.75600000000009
20
98.881100000000004
10
340.75600000000009
20
97.880700000000033
10
354.75699999999995
20
97.880700000000033
10
354.75699999999995
20
98.881100000000004
10
355.55800000000005
20
98.881100000000004
10
355.55800000000005
20
101.982
10
354.75699999999995
20
101.982
10
354.75699999999995
20
107.78100000000002
10
355.55800000000005
20
107.78100000000002
10
355.55800000000005
20
110.881
10
354.75699999999995
20
110.881
0
LWPOLYLINE
5
125
100
AcDbEntity
8
0
100
AcDbPolyline
90
20
70
1
43
0.0
10
298.40600000000001
20
101.982
10
297.60500000000002
20
101.982
10
297.60500000000002
20
107.78100000000002
10
298.40600000000001
20
107.78100000000002
10
298.40600000000001
20
110.881
10
297.60500000000002
20
110.881
10
297.60500000000002
20
111.88200000000002
10
283.60599999999999
20
111.88200000000002
10
283.60599999999999
20
110.881
10
282.80500000000006
20
110.881
10
282.80500000000006
20
107.78100000000002
10
283.60599999999999
20
107.78100000000002
10
283.60599999999999
20
101.982
10
282.80500000000006
20
101.982
10
282.80500000000006
20
98.881100000000004
10
283.60599999999999
20
98.881100000000004
10
283.60599999999999
20
97.880700000000033
10
297.60500000000002
20
97.880700000000033
10
297.60500000000002
20
98.881100000000004
10
298.40600000000001
20
98.881100000000004
0
LWPOLYLINE
5
126
100
AcDbEntity
8
0
100
AcDbPolyline
90
20
70
1
43
0.0
10
335.7050000000001
20
101.982
10
335.7050000000001
20
107.78100000000002
10
336.50599999999997
20
107.78100000000002
10
336.50599999999997
20
110.881
10
335.7050000000001
20
110.881
10
335.7050000000001
20
111.88200000000002
10
321.70600000000002
20
111.88200000000002
10
321.70600000000002
20
110.881
10
320.90499999999997
20
110.881
10
320.90499999999997
20
107.78100000000002
10
321.70600000000002
20
107.78100000000002
10
321.70600000000002
20
101.982
10
320.90499999999997
20
101.982
10
320.90499999999997
20
98.881100000000004
10
321.70600000000002
20
98.881100000000004
10
321.70600000000002
20
97.880700000000033
10
335.7050000000001
20
97.880700000000033
10
335.7050000000001
20
98.881100000000004
10
336.50599999999997
20
98.881100000000004
10
336.50599999999997
20
101.982
0
LWPOLYLINE
5
127
100
AcDbEntity
8
0
100
AcDbPolyline
90
20
70
1
43
0.0
10
264.55599999999998
20
101.982
10
263.755
20
101.982
10
263.755
20
98.881100000000004
10
264.55599999999998
20
98.881100000000004
10
264.55599999999998
20
97.880700000000033
10
278.55500000000001
20
97.880700000000033
10
278.55500000000001
20
98.881100000000004
10
279.35599999999999
20
98.881100000000004
10
279.35599999999999
20
101.982
10
278.55500000000001
20
101.982
10
278.55500000000001
20
107.78100000000002
10
279.35599999999999
20
107.78100000000002
10
279.35599999999999
20
110.881
10
278.55500000000001
20
110.881
10
278.55500000000001
20
111.88200000000002
10
264.55599999999998
20
111.88200000000002
10
264.55599999999998
20
110.881
10
263.755
20
110.881
10
263.755
20
107.78100000000002
10
264.55599999999998
20
107.78100000000002
0
LWPOLYLINE
5
128
100
AcDbEntity
8
0
100
AcDbPolyline
90
20
70
1
43
0.0
10
302.65600000000001
20
110.881
10
301.85500000000002
20
110.881
10
301.85500000000002
20
107.78100000000002
10
302.65600000000001
20
107.78100000000002
10
302.65600000000001
20
101.982
10
301.85500000000002
20
101.982
10
301.85500000000002
20
98.881100000000004
10
302.65600000000001
20
98.881100000000004
10
302.65600000000001
20
97.880700000000033
10
316.65499999999997
20
97.880700000000033
10
316.65499999999997
20
98.881100000000004
10
317.45600000000002
20
98.881100000000004
10
317.45600000000002
20
101.982
10
316.65499999999997
20
101.982
10
316.65499999999997
20
107.78100000000002
10
317.45600000000002
20
107.78100000000002
10
317.45600000000002
20
110.881
10
316.65499999999997
20
110.881
10
316.65499999999997
20
111.88200000000002
10
302.65600000000001
20
111.88200000000002
0
LWPOLYLINE
5
129
100
AcDbEntity
8
0
100
AcDbPolyline
90
33
70
1
43
0.0
10
49.161299999999997
20
28.180900000000001
10
49.161299999999997
20
21.912199999999999
10
50.837000000000003
20
21.912199999999999
10
50.837000000000003
20
20.931000000000001
10
54.139485579217357
20
20.931000000000001
10
54.139471911829304
20
21.684240640161434
10
74.637200000000007
20
21.68461256699225
10
74.637200000000007
20
20.931000000000001
10
77.936400000000006
20
20.931000000000001
10
77.936400000000006
20
21.912199999999999
10
79.612099999999998
20
21.912199999999999
10
79.612099999999998
20
28.180900000000001
10
80.486999999999981
20
28.180900000000001
10
80.486999999999981
20
30.981000000000005
10
79.612099999999998
20
30.981000000000005
10
79.612099999999998
20
34.211200000000005
10
77.936400000000006
20
34.211200000000005
10
77.936400000000006
20
35.131700000000009
10
74.637200000000007
20
35.131700000000009
10
74.637200000000007
20
34.681100000000001
10
71.386300000000034
20
34.681100000000001
10
71.386300000000034
20
35.681700000000006
10
57.387100000000004
20
35.681700000000006
10
57.387100000000004
20
34.681100000000001
10
56.586300000000016
20
34.681100000000001
10
54.136200000000017
20
34.681100000000001
10
54.136200000000017
20
35.131700000000009
10
50.837000000000003
20
35.131700000000009
10
50.837000000000003
20
34.211200000000005
10
49.161299999999997
20
34.211200000000005
10
49.161299999999997
20
30.981000000000005
10
48.286499999999997
20
30.981000000000005
10
48.286499999999997
20
28.180900000000001
0
LWPOLYLINE
5
130
100
AcDbEntity
8
0
100
AcDbPolyline
90
20
70
1
43
0.0
10
359.80500000000001
20
2.6320500000000009
10
373.80700000000002
20
2.6320500000000009
10
373.80700000000002
20
3.6325200000000004
10
374.608
20
3.6325200000000004
10
374.608
20
6.7317100000000005
10
373.80700000000002
20
6.7317100000000005
10
373.80700000000002
20
12.5319
10
374.608
20
12.5319
10
374.608
20
15.6325
10
373.80700000000002
20
15.6325
10
373.80700000000002
20
16.631499999999999
10
359.80500000000001
20
16.631499999999999
10
359.80500000000001
20
15.6325
10
359.00400000000002
20
15.6325
10
359.00400000000002
20
12.5319
10
359.80500000000001
20
12.5319
10
359.80500000000001
20
6.7317100000000005
10
359.00400000000002
20
6.7317100000000005
10
359.00400000000002
20
3.6325200000000004
10
359.80500000000001
20
3.6325200000000004
0
LWPOLYLINE
5
131
100
AcDbEntity
8
0
100
AcDbPolyline
90
20
70
1
43
0.0
10
2.6182700000000003
20
35.681700000000006
10
2.6182699999999999
20
34.681100000000001
10
1.81901
20
34.681100000000001
10
1.81901
20
31.581900000000008
10
2.6182699999999999
20
31.581900000000008
10
2.6182699999999999
20
25.781700000000001
10
1.81901
20
25.781700000000001
10
1.81901
20
22.681100000000001
10
2.6182699999999999
20
22.681100000000001
10
2.6182700000000003
20
21.680700000000002
10
16.619199999999999
20
21.680700000000002
10
16.619199999999999
20
22.681100000000001
10
17.418399999999998
20
22.681100000000001
10
17.418399999999998
20
25.781700000000001
10
16.619199999999999
20
25.781700000000001
10
16.619199999999999
20
31.581900000000008
10
17.418399999999998
20
31.581900000000008
10
17.418399999999998
20
34.681100000000001
10
16.619199999999999
20
34.681100000000001
10
16.619199999999999
20
35.681700000000006
0
LWPOLYLINE
5
132
100
AcDbEntity
8
0
100
AcDbPolyline
90
20
70
1
43
0.0
10
21.668300000000002
20
34.681100000000001
10
20.869
20
34.681100000000001
10
20.869
20
31.581900000000008
10
21.668300000000002
20
31.581900000000008
10
21.668300000000002
20
25.781700000000001
10
20.869
20
25.781700000000001
10
20.869
20
22.681100000000001
10
21.668300000000002
20
22.681100000000001
10
21.668300000000002
20
21.680700000000002
10
35.669000000000011
20
21.680700000000002
10
35.669000000000011
20
22.681100000000001
10
36.468400000000003
20
22.681100000000001
10
36.468400000000003
20
25.781700000000001
10
35.669000000000011
20
25.781700000000001
10
35.669000000000011
20
31.581900000000008
10
36.468400000000003
20
31.581900000000008
10
36.468400000000003
20
34.681100000000001
10
35.669000000000011
20
34.681100000000001
10
35.669000000000011
20
35.681700000000006
10
21.668300000000002
20
35.681700000000006
0
LWPOLYLINE
5
133
100
AcDbEntity
8
0
100
AcDbPolyline
90
20
70
1
43
0.0
10
87.543899999999994
20
25.781700000000001
10
87.543899999999994
20
22.681100000000001
10
88.343299999999999
20
22.681100000000001
10
88.343299999999999
20
21.680700000000002
10
102.34400000000001
20
21.680700000000002
10
102.34400000000001
20
22.681100000000001
10
103.143
20
22.681100000000001
10
103.143
20
25.781700000000001
10
102.34400000000001
20
25.781700000000001
10
102.34400000000001
20
31.581900000000008
10
103.143
20
31.581900000000008
10
103.143
20
34.681100000000001
10
102.34400000000001
20
34.681100000000001
10
102.34400000000001
20
35.681700000000006
10
88.343299999999999
20
35.681700000000006
10
88.343299999999999
20
34.681100000000001
10
87.543899999999994
20
34.681100000000001
10
87.543899999999994
20
31.581900000000008
10
88.343299999999999
20
31.581900000000008
10
88.343299999999999
20
25.781700000000001
0
LWPOLYLINE
5
134
100
AcDbEntity
8
0
100
AcDbPolyline
90
20
70
1
43
0.0
10
141.24299999999999
20
22.681100000000001
10
141.24299999999999
20
25.781700000000001
10
140.44399999999999
20
25.781700000000001
10
140.44399999999999
20
31.581900000000008
10
141.24299999999999
20
31.581900000000008
10
141.24299999999999
20
34.681100000000001
10
140.44399999999999
20
34.681100000000001
10
140.44399999999999
20
35.681700000000006
10
126.44300000000001
20
35.681700000000006
10
126.44300000000001
20
34.681100000000001
10
125.643
20
34.681100000000001
10
125.643
20
31.581900000000008
10
126.44300000000001
20
31.581900000000008
10
126.44300000000001
20
25.781700000000001
10
125.643
20
25.781700000000001
10
125.643
20
22.681100000000001
10
126.44300000000001
20
22.681100000000001
10
126.44300000000001
20
21.680700000000002
10
140.44399999999999
20
21.680700000000002
10
140.44399999999999
20
22.681100000000001
0
LWPOLYLINE
5
135
100
AcDbEntity
8
0
100
AcDbPolyline
90
20
70
1
43
0.0
10
145.49299999999999
20
35.681700000000006
10
145.49299999999999
20
34.681100000000001
10
144.69400000000005
20
34.681100000000001
10
144.69400000000005
20
31.581900000000008
10
145.49299999999999
20
31.581900000000008
10
145.49299999999999
20
25.781700000000001
10
144.69400000000005
20
25.781700000000001
10
144.69400000000005
20
22.681100000000001
10
145.49299999999999
20
22.681100000000001
10
145.49299999999999
20
21.680700000000002
10
159.494
20
21.680700000000002
10
159.494
20
22.681100000000001
10
160.29300000000003
20
22.681100000000001
10
160.29300000000003
20
25.781700000000001
10
159.494
20
25.781700000000001
10
159.494
20
31.581900000000008
10
160.29300000000003
20
31.581900000000008
10
160.29300000000003
20
34.681100000000001
10
159.494
20
34.681100000000001
10
159.494
20
35.681700000000006
0
LWPOLYLINE
5
136
100
AcDbEntity
8
0
100
AcDbPolyline
90
20
70
1
43
0.0
10
121.39400000000002
20
21.680700000000002
10
121.39400000000002
20
22.681100000000001
10
122.19300000000001
20
22.681100000000001
10
122.19300000000001
20
25.781700000000001
10
121.39400000000002
20
25.781700000000001
10
121.39400000000002
20
31.581900000000008
10
122.19300000000001
20
31.581900000000008
10
122.19300000000001
20
34.681100000000001
10
121.39400000000002
20
34.681100000000001
10
121.39400000000002
20
35.681700000000006
10
107.393
20
35.681700000000006
10
107.393
20
34.681100000000001
10
106.59399999999999
20
34.681100000000001
10
106.59399999999999
20
31.581900000000008
10
107.393
20
31.581900000000008
10
107.393
20
25.781700000000001
10
106.59399999999999
20
25.781700000000001
10
106.59399999999999
20
22.681100000000001
10
107.393
20
22.681100000000001
10
107.393
20
21.680700000000002
0
LWPOLYLINE
5
137
100
AcDbEntity
8
0
100
AcDbPolyline
90
20
70
1
43
0.0
10
250.26800000000006
20
35.681700000000006
10
250.26800000000006
20
34.681100000000001
10
249.46899999999999
20
34.681100000000001
10
249.46899999999999
20
31.581900000000008
10
250.26800000000006
20
31.581900000000008
10
250.26800000000006
20
25.781700000000001
10
249.46899999999999
20
25.781700000000001
10
249.46899999999999
20
22.681100000000001
10
250.26800000000006
20
22.681100000000001
10
250.26800000000006
20
21.680700000000002
10
264.26900000000001
20
21.680700000000002
10
264.26900000000001
20
22.681100000000001
10
265.06799999999998
20
22.681100000000001
10
265.06799999999998
20
25.781700000000001
10
264.26900000000001
20
25.781700000000001
10
264.26900000000001
20
31.581900000000008
10
265.06799999999998
20
31.581900000000008
10
265.06799999999998
20
34.681100000000001
10
264.26900000000001
20
34.681100000000001
10
264.26900000000001
20
35.681700000000006
0
LWPOLYLINE
5
138
100
AcDbEntity
8
0
100
AcDbPolyline
90
20
70
1
43
0.0
10
179.34300000000005
20
34.681100000000001
10
178.54400000000001
20
34.681100000000001
10
178.54400000000001
20
35.681700000000006
10
164.54300000000001
20
35.681700000000006
10
164.54300000000001
20
34.681100000000001
10
163.74400000000006
20
34.681100000000001
10
163.74400000000006
20
31.581900000000008
10
164.54300000000001
20
31.581900000000008
10
164.54300000000001
20
25.781700000000001
10
163.74400000000006
20
25.781700000000001
10
163.74400000000006
20
22.681100000000001
10
164.54300000000001
20
22.681100000000001
10
164.54300000000001
20
21.680700000000002
10
178.54400000000001
20
21.680700000000002
10
178.54400000000001
20
22.681100000000001
10
179.34300000000005
20
22.681100000000001
10
179.34300000000005
20
25.781700000000001
10
178.54400000000001
20
25.781700000000001
10
178.54400000000001
20
31.581900000000008
10
179.34300000000005
20
31.581900000000008
0
LWPOLYLINE
5
139
100
AcDbEntity
8
0
100
AcDbPolyline
90
20
70
1
43
0.0
10
226.16900000000001
20
25.781700000000001
10
226.16900000000001
20
31.581900000000008
10
226.96799999999999
20
31.581900000000008
10
226.96799999999999
20
34.681100000000001
10
226.16900000000001
20
34.681100000000001
10
226.16900000000001
20
35.681700000000006
10
212.16800000000006
20
35.681700000000006
10
212.16800000000006
20
34.681100000000001
10
211.36900000000003
20
34.681100000000001
10
211.36900000000003
20
31.581900000000008
10
212.16800000000006
20
31.581900000000008
10
212.16800000000006
20
25.781700000000001
10
211.36900000000003
20
25.781700000000001
10
211.36900000000003
20
22.681100000000001
10
212.16800000000006
20
22.681100000000001
10
212.16800000000006
20
21.680700000000002
10
226.16900000000001
20
21.680700000000002
10
226.16900000000001
20
22.681100000000001
10
226.96799999999999
20
22.681100000000001
10
226.96799999999999
20
25.781700000000001
0
LWPOLYLINE
5
140
100
AcDbEntity
8
0
100
AcDbPolyline
90
20
70
1
43
0.0
10
268.51900000000001
20
22.681100000000001
10
269.31799999999998
20
22.681100000000001
10
269.31799999999998
20
21.680700000000002
10
283.31900000000007
20
21.680700000000002
10
283.31900000000007
20
22.681100000000001
10
284.11799999999999
20
22.681100000000001
10
284.11799999999999
20
25.781700000000001
10
283.31900000000007
20
25.781700000000001
10
283.31900000000007
20
31.581900000000008
10
284.11799999999999
20
31.581900000000008
10
284.11799999999999
20
34.681100000000001
10
283.31900000000007
20
34.681100000000001
10
283.31900000000007
20
35.681700000000006
10
269.31799999999998
20
35.681700000000006
10
269.31799999999998
20
34.681100000000001
10
268.51900000000001
20
34.681100000000001
10
268.51900000000001
20
31.581900000000008
10
269.31799999999998
20
31.581900000000008
10
269.31799999999998
20
25.781700000000001
10
268.51900000000001
20
25.781700000000001
0
LWPOLYLINE
5
141
100
AcDbEntity
8
0
100
AcDbPolyline
90
20
70
1
43
0.0
10
230.41900000000001
20
34.681100000000001
10
230.41900000000001
20
31.581900000000008
10
231.21800000000002
20
31.581900000000008
10
231.21800000000002
20
25.781700000000001
10
230.41900000000001
20
25.781700000000001
10
230.41900000000001
20
22.681100000000001
10
231.21800000000002
20
22.681100000000001
10
231.21800000000002
20
21.680700000000002
10
245.21900000000002
20
21.680700000000002
10
245.21900000000002
20
22.681100000000001
10
246.018
20
22.681100000000001
10
246.018
20
25.781700000000001
10
245.21900000000002
20
25.781700000000001
10
245.21900000000002
20
31.581900000000008
10
246.018
20
31.581900000000008
10
246.018
20
34.681100000000001
10
245.21900000000002
20
34.681100000000001
10
245.21900000000002
20
35.681700000000006
10
231.21800000000002
20
35.681700000000006
10
231.21800000000002
20
34.681100000000001
0
LWPOLYLINE
5
142
100
AcDbEntity
8
0
100
AcDbPolyline
90
20
70
1
43
0.0
10
287.56900000000002
20
22.681100000000001
10
288.36799999999999
20
22.681100000000001
10
288.36799999999999
20
21.680700000000002
10
302.36900000000009
20
21.680700000000002
10
302.36900000000009
20
22.681100000000001
10
303.16800000000001
20
22.681100000000001
10
303.16800000000001
20
25.781700000000001
10
302.36900000000009
20
25.781700000000001
10
302.36900000000009
20
31.581900000000008
10
303.16800000000001
20
31.581900000000008
10
303.16800000000001
20
34.681100000000001
10
302.36900000000009
20
34.681100000000001
10
302.36900000000009
20
35.681700000000006
10
288.36799999999999
20
35.681700000000006
10
288.36799999999999
20
34.681100000000001
10
287.56900000000002
20
34.681100000000001
10
287.56900000000002
20
31.581900000000008
10
288.36799999999999
20
31.581900000000008
10
288.36799999999999
20
25.781700000000001
10
287.56900000000002
20
25.781700000000001
0
LWPOLYLINE
5
143
100
AcDbEntity
8
0
100
AcDbPolyline
90
20
70
1
43
0.0
10
339.95499999999998
20
25.781700000000001
10
339.95499999999998
20
22.681100000000001
10
340.75600000000009
20
22.681100000000001
10
340.75600000000009
20
21.680700000000002
10
354.75699999999995
20
21.680700000000002
10
354.75699999999995
20
22.681100000000001
10
355.55800000000005
20
22.681100000000001
10
355.55800000000005
20
25.781700000000001
10
354.75699999999995
20
25.781700000000001
10
354.75699999999995
20
31.581900000000008
10
355.55800000000005
20
31.581900000000008
10
355.55800000000005
20
34.681100000000001
10
354.75699999999995
20
34.681100000000001
10
354.75699999999995
20
35.681700000000006
10
340.75600000000009
20
35.681700000000006
10
340.75600000000009
20
34.681100000000001
10
339.95499999999998
20
34.681100000000001
10
339.95499999999998
20
31.581900000000008
10
340.75600000000009
20
31.581900000000008
10
340.75600000000009
20
25.781700000000001
0
LWPOLYLINE
5
144
100
AcDbEntity
8
0
100
AcDbPolyline
90
20
70
1
43
0.0
10
328.56099999999998
20
21.680700000000002
10
328.56099999999998
20
22.681100000000001
10
329.36200000000008
20
22.681100000000001
10
329.36200000000008
20
25.781700000000001
10
328.56099999999998
20
25.781700000000001
10
328.56099999999998
20
31.581900000000008
10
329.36200000000008
20
31.581900000000008
10
329.36200000000008
20
34.681100000000001
10
328.56099999999998
20
34.681100000000001
10
328.56099999999998
20
35.681700000000006
10
314.56200000000001
20
35.681700000000006
10
314.56200000000001
20
34.681100000000001
10
313.76100000000002
20
34.681100000000001
10
313.76100000000002
20
31.581900000000008
10
314.56200000000001
20
31.581900000000008
10
314.56200000000001
20
25.781700000000001
10
313.76100000000002
20
25.781700000000001
10
313.76100000000002
20
22.681100000000001
10
314.56200000000001
20
22.681100000000001
10
314.56200000000001
20
21.680700000000002
0
LWPOLYLINE
5
145
100
AcDbEntity
8
0
100
AcDbPolyline
90
32
70
1
43
0.0
10
349.39999999999998
20
54.181699999999999
10
346.10000000000008
20
54.181699999999999
10
346.10000000000008
20
53.721499999999992
10
342.85000000000002
20
53.731200000000001
10
342.85000000000002
20
54.731699999999996
10
328.85000000000002
20
54.731699999999996
10
328.85000000000002
20
53.731200000000001
10
325.59999272227287
20
53.731200000000001
10
325.60000000000002
20
54.181699999999999
10
322.30000000000013
20
54.181699999999999
10
322.30000000000013
20
53.261299999999999
10
320.625
20
53.261299999999999
10
320.625
20
50.030900000000003
10
319.75
20
50.030900000000003
10
319.75
20
47.230899999999998
10
320.625
20
47.230899999999998
10
320.625
20
40.960700000000003
10
322.30000000000013
20
40.960700000000003
10
322.30000000000013
20
39.981000000000002
10
325.60000000000002
20
39.981000000000002
10
325.60000000000002
20
40.730700000000013
10
346.10000000000008
20
40.730700000000013
10
346.10000000000008
20
39.981000000000002
10
349.39999999999998
20
39.981000000000002
10
349.39999999999998
20
40.960700000000003
10
351.0750000000001
20
40.960700000000003
10
351.0750000000001
20
47.230899999999998
10
351.94900000000013
20
47.230899999999998
10
351.94900000000013
20
50.030900000000003
10
351.0750000000001
20
50.030900000000003
10
351.0750000000001
20
53.261299999999999
10
349.39999999999998
20
53.261299999999999
0
LWPOLYLINE
5
146
100
AcDbEntity
8
0
100
AcDbPolyline
90
20
70
1
43
0.0
10
359.80500000000001
20
31.581900000000008
10
359.80500000000001
20
25.781700000000001
10
359.00400000000002
20
25.781700000000001
10
359.00400000000002
20
22.681100000000001
10
359.80500000000001
20
22.681100000000001
10
359.80500000000001
20
21.680700000000002
10
373.80700000000002
20
21.680700000000002
10
373.80700000000002
20
22.681100000000001
10
374.608
20
22.681100000000001
10
374.608
20
25.781700000000001
10
373.80700000000002
20
25.781700000000001
10
373.80700000000002
20
31.581900000000008
10
374.608
20
31.581900000000008
10
374.608
20
34.681100000000001
10
373.80700000000002
20
34.681100000000001
10
373.80700000000002
20
35.681700000000006
10
359.80500000000001
20
35.681700000000006
10
359.80500000000001
20
34.681100000000001
10
359.00400000000002
20
34.681100000000001
10
359.00400000000002
20
31.581900000000008
0
LWPOLYLINE
5
147
100
AcDbEntity
8
0
100
AcDbPolyline
90
20
70
1
43
0.0
10
16.619199999999999
20
50.631700000000002
10
17.418399999999998
20
50.631700000000002
10
17.418399999999998
20
53.731200000000001
10
16.619199999999999
20
53.731200000000001
10
16.619199999999999
20
54.731699999999996
10
2.6182700000000003
20
54.731699999999996
10
2.6182699999999999
20
53.731200000000001
10
1.81901
20
53.731200000000001
10
1.81901
20
50.631700000000002
10
2.6182699999999999
20
50.631700000000002
10
2.6182699999999999
20
44.831700000000012
10
1.81901
20
44.831700000000012
10
1.81901
20
41.731100000000012
10
2.6182699999999999
20
41.731100000000012
10
2.6182700000000003
20
40.730700000000013
10
16.619199999999999
20
40.730700000000013
10
16.619199999999999
20
41.731100000000012
10
17.418399999999998
20
41.731100000000012
10
17.418399999999998
20
44.831700000000012
10
16.619199999999999
20
44.831700000000012
0
LWPOLYLINE
5
148
100
AcDbEntity
8
0
100
AcDbPolyline
90
20
70
1
43
0.0
10
52.624600000000008
20
41.731100000000012
10
52.624600000000008
20
40.730700000000013
10
66.62530000000001
20
40.730700000000013
10
66.62530000000001
20
41.731100000000012
10
67.424700000000001
20
41.731100000000012
10
67.424700000000001
20
44.831700000000012
10
66.62530000000001
20
44.831700000000012
10
66.62530000000001
20
50.631700000000002
10
67.424700000000001
20
50.631700000000002
10
67.424700000000001
20
53.731200000000001
10
66.62530000000001
20
53.731200000000001
10
66.62530000000001
20
54.731699999999996
10
52.624600000000008
20
54.731699999999996
10
52.624600000000008
20
53.731200000000001
10
51.825200000000002
20
53.731200000000001
10
51.825200000000002
20
50.631700000000002
10
52.624600000000008
20
50.631700000000002
10
52.624600000000008
20
44.831700000000012
10
51.825200000000002
20
44.831700000000012
10
51.825200000000002
20
41.731100000000012
0
LWPOLYLINE
5
149
100
AcDbEntity
8
0
100
AcDbPolyline
90
20
70
1
43
0.0
10
97.068900000000014
20
44.831700000000012
10
97.068900000000014
20
41.731100000000012
10
97.868300000000019
20
41.731100000000012
10
97.868300000000019
20
40.730700000000013
10
111.86799999999999
20
40.730700000000013
10
111.86799999999999
20
41.731100000000012
10
112.66800000000002
20
41.731100000000012
10
112.66800000000002
20
44.831700000000012
10
111.86799999999999
20
44.831700000000012
10
111.86799999999999
20
50.631700000000002
10
112.66800000000002
20
50.631700000000002
10
112.66800000000002
20
53.731200000000001
10
111.86799999999999
20
53.731200000000001
10
111.86799999999999
20
54.731699999999996
10
97.868300000000019
20
54.731699999999996
10
97.868300000000019
20
53.731200000000001
10
97.068900000000014
20
53.731200000000001
10
97.068900000000014
20
50.631700000000002
10
97.868300000000019
20
50.631700000000002
10
97.868300000000019
20
44.831700000000012
0
LWPOLYLINE
5
150
100
AcDbEntity
8
0
100
AcDbPolyline
90
20
70
1
43
0.0
10
93.618399999999994
20
44.831700000000012
10
92.819000000000003
20
44.831700000000012
10
92.819000000000003
20
50.631700000000002
10
93.618399999999994
20
50.631700000000002
10
93.618399999999994
20
53.731200000000001
10
92.819000000000003
20
53.731200000000001
10
92.819000000000003
20
54.731699999999996
10
78.818299999999979
20
54.731699999999996
10
78.818299999999979
20
53.731200000000001
10
78.018900000000002
20
53.731200000000001
10
78.018900000000002
20
50.631700000000002
10
78.818299999999979
20
50.631700000000002
10
78.818299999999979
20
44.831700000000012
10
78.018900000000002
20
44.831700000000012
10
78.018900000000002
20
41.731100000000012
10
78.818299999999979
20
41.731100000000012
10
78.818299999999979
20
40.730700000000013
10
92.819000000000003
20
40.730700000000013
10
92.819000000000003
20
41.731100000000012
10
93.618399999999994
20
41.731100000000012
0
LWPOLYLINE
5
151
100
AcDbEntity
8
0
100
AcDbPolyline
90
20
70
1
43
0.0
10
116.11800000000001
20
41.731100000000012
10
116.91800000000001
20
41.731100000000012
10
116.91800000000001
20
40.730700000000013
10
130.91899999999998
20
40.730700000000013
10
130.91899999999998
20
41.731100000000012
10
131.71799999999999
20
41.731100000000012
10
131.71799999999999
20
44.831700000000012
10
130.91899999999998
20
44.831700000000012
10
130.91899999999998
20
50.631700000000002
10
131.71799999999999
20
50.631700000000002
10
131.71799999999999
20
53.731200000000001
10
130.91899999999998
20
53.731200000000001
10
130.91899999999998
20
54.731699999999996
10
116.91800000000001
20
54.731699999999996
10
116.91800000000001
20
53.731200000000001
10
116.11800000000001
20
53.731200000000001
10
116.11800000000001
20
50.631700000000002
10
116.91800000000001
20
50.631700000000002
10
116.91800000000001
20
44.831700000000012
10
116.11800000000001
20
44.831700000000012
0
LWPOLYLINE
5
152
100
AcDbEntity
8
0
100
AcDbPolyline
90
20
70
1
43
0.0
10
135.96799999999999
20
50.631700000000002
10
135.96799999999999
20
44.831700000000012
10
135.16899999999998
20
44.831700000000012
10
135.16899999999998
20
41.731100000000012
10
135.96799999999999
20
41.731100000000012
10
135.96799999999999
20
40.730700000000013
10
149.96899999999999
20
40.730700000000013
10
149.96899999999999
20
41.731100000000012
10
150.768
20
41.731100000000012
10
150.768
20
44.831700000000012
10
149.96899999999999
20
44.831700000000012
10
149.96899999999999
20
50.631700000000002
10
150.768
20
50.631700000000002
10
150.768
20
53.731200000000001
10
149.96899999999999
20
53.731200000000001
10
149.96899999999999
20
54.731699999999996
10
135.96799999999999
20
54.731699999999996
10
135.96799999999999
20
53.731200000000001
10
135.16899999999998
20
53.731200000000001
10
135.16899999999998
20
50.631700000000002
0
LWPOLYLINE
5
153
100
AcDbEntity
8
0
100
AcDbPolyline
90
20
70
1
43
0.0
10
20.869
20
44.831700000000012
10
20.869
20
41.731100000000012
10
21.668300000000002
20
41.731100000000012
10
21.668300000000002
20
40.730700000000013
10
35.669000000000011
20
40.730700000000013
10
35.669000000000011
20
41.731100000000012
10
36.468400000000003
20
41.731100000000012
10
36.468400000000003
20
44.831700000000012
10
35.669000000000011
20
44.831700000000012
10
35.669000000000011
20
50.631700000000002
10
36.468400000000003
20
50.631700000000002
10
36.468400000000003
20
53.731200000000001
10
35.669000000000011
20
53.731200000000001
10
35.669000000000011
20
54.731699999999996
10
21.668300000000002
20
54.731699999999996
10
21.668300000000002
20
53.731200000000001
10
20.869
20
53.731200000000001
10
20.869
20
50.631700000000002
10
21.668300000000002
20
50.631700000000002
10
21.668300000000002
20
44.831700000000012
0
LWPOLYLINE
5
154
100
AcDbEntity
8
0
100
AcDbPolyline
90
20
70
1
43
0.0
10
169.01900000000001
20
53.731200000000001
10
169.01900000000001
20
54.731699999999996
10
155.018
20
54.731699999999996
10
155.018
20
53.731200000000001
10
154.21899999999999
20
53.731200000000001
10
154.21899999999999
20
50.631700000000002
10
155.018
20
50.631700000000002
10
155.018
20
44.831700000000012
10
154.21899999999999
20
44.831700000000012
10
154.21899999999999
20
41.731100000000012
10
155.018
20
41.731100000000012
10
155.018
20
40.730700000000013
10
169.01900000000001
20
40.730700000000013
10
169.01900000000001
20
41.731100000000012
10
169.81799999999996
20
41.731100000000012
10
169.81799999999996
20
44.831700000000012
10
169.01900000000001
20
44.831700000000012
10
169.01900000000001
20
50.631700000000002
10
169.81799999999996
20
50.631700000000002
10
169.81799999999996
20
53.731200000000001
0
LWPOLYLINE
5
155
100
AcDbEntity
8
0
100
AcDbPolyline
90
20
70
1
43
0.0
10
217.44300000000004
20
53.731200000000001
10
216.64400000000001
20
53.731200000000001
10
216.64400000000001
20
54.731699999999996
10
202.64300000000006
20
54.731699999999996
10
202.64300000000006
20
53.731200000000001
10
201.84400000000008
20
53.731200000000001
10
201.84400000000008
20
50.631700000000002
10
202.64300000000006
20
50.631700000000002
10
202.64300000000006
20
44.831700000000012
10
201.84400000000008
20
44.831700000000012
10
201.84400000000008
20
41.731100000000012
10
202.64300000000006
20
41.731100000000012
10
202.64300000000006
20
40.730700000000013
10
216.64400000000001
20
40.730700000000013
10
216.64400000000001
20
41.731100000000012
10
217.44300000000004
20
41.731100000000012
10
217.44300000000004
20
44.831700000000012
10
216.64400000000001
20
44.831700000000012
10
216.64400000000001
20
50.631700000000002
10
217.44300000000004
20
50.631700000000002
0
LWPOLYLINE
5
156
100
AcDbEntity
8
0
100
AcDbPolyline
90
20
70
1
43
0.0
10
220.89400000000001
20
53.731200000000001
10
220.89400000000001
20
50.631700000000002
10
221.69300000000004
20
50.631700000000002
10
221.69300000000004
20
44.831700000000012
10
220.89400000000001
20
44.831700000000012
10
220.89400000000001
20
41.731100000000012
10
221.69300000000004
20
41.731100000000012
10
221.69300000000004
20
40.730700000000013
10
235.69400000000002
20
40.730700000000013
10
235.69400000000002
20
41.731100000000012
10
236.49299999999999
20
41.731100000000012
10
236.49299999999999
20
44.831700000000012
10
235.69400000000002
20
44.831700000000012
10
235.69400000000002
20
50.631700000000002
10
236.49299999999999
20
50.631700000000002
10
236.49299999999999
20
53.731200000000001
10
235.69400000000002
20
53.731200000000001
10
235.69400000000002
20
54.731699999999996
10
221.69300000000004
20
54.731699999999996
10
221.69300000000004
20
53.731200000000001
0
LWPOLYLINE
5
157
100
AcDbEntity
8
0
100
AcDbPolyline
90
20
70
1
43
0.0
10
259.79300000000001
20
40.730700000000013
10
273.79400000000004
20
40.730700000000013
10
273.79400000000004
20
41.731100000000012
10
274.59300000000002
20
41.731100000000012
10
274.59300000000002
20
44.831700000000012
10
273.79400000000004
20
44.831700000000012
10
273.79400000000004
20
50.631700000000002
10
274.59300000000002
20
50.631700000000002
10
274.59300000000002
20
53.731200000000001
10
273.79400000000004
20
53.731200000000001
10
273.79400000000004
20
54.731699999999996
10
259.79300000000001
20
54.731699999999996
10
259.79300000000001
20
53.731200000000001
10
258.99400000000003
20
53.731200000000001
10
258.99400000000003
20
50.631700000000002
10
259.79300000000001
20
50.631700000000002
10
259.79300000000001
20
44.831700000000012
10
258.99400000000003
20
44.831700000000012
10
258.99400000000003
20
41.731100000000012
10
259.79300000000001
20
41.731100000000012
0
LWPOLYLINE
5
158
100
AcDbEntity
8
0
100
AcDbPolyline
90
20
70
1
43
0.0
10
240.74299999999999
20
44.831700000000012
10
239.94399999999999
20
44.831700000000012
10
239.94399999999999
20
41.731100000000012
10
240.74299999999999
20
41.731100000000012
10
240.74299999999999
20
40.730700000000013
10
254.74299999999999
20
40.730700000000013
10
254.74299999999999
20
41.731100000000012
10
255.54300000000001
20
41.731100000000012
10
255.54300000000001
20
44.831700000000012
10
254.74299999999999
20
44.831700000000012
10
254.74299999999999
20
50.631700000000002
10
255.54300000000001
20
50.631700000000002
10
255.54300000000001
20
53.731200000000001
10
254.74299999999999
20
53.731200000000001
10
254.74299999999999
20
54.731699999999996
10
240.74299999999999
20
54.731699999999996
10
240.74299999999999
20
53.731200000000001
10
239.94399999999999
20
53.731200000000001
10
239.94399999999999
20
50.631700000000002
10
240.74299999999999
20
50.631700000000002
0
LWPOLYLINE
5
159
100
AcDbEntity
8
0
100
AcDbPolyline
90
20
70
1
43
0.0
10
278.84300000000002
20
44.831700000000012
10
278.04400000000004
20
44.831700000000012
10
278.04400000000004
20
41.731100000000012
10
278.84300000000002
20
41.731100000000012
10
278.84300000000002
20
40.730700000000013
10
292.84399999999999
20
40.730700000000013
10
292.84399999999999
20
41.731100000000012
10
293.64300000000009
20
41.731100000000012
10
293.64300000000009
20
44.831700000000012
10
292.84399999999999
20
44.831700000000012
10
292.84399999999999
20
50.631700000000002
10
293.64300000000009
20
50.631700000000002
10
293.64300000000009
20
53.731200000000001
10
292.84399999999999
20
53.731200000000001
10
292.84399999999999
20
54.731699999999996
10
278.84300000000002
20
54.731699999999996
10
278.84300000000002
20
53.731200000000001
10
278.04400000000004
20
53.731200000000001
10
278.04400000000004
20
50.631700000000002
10
278.84300000000002
20
50.631700000000002
0
LWPOLYLINE
5
160
100
AcDbEntity
8
0
100
AcDbPolyline
90
20
70
1
43
0.0
10
359.80500000000001
20
53.731200000000001
10
359.00400000000002
20
53.731200000000001
10
359.00400000000002
20
50.631700000000002
10
359.80500000000001
20
50.631700000000002
10
359.80500000000001
20
44.831700000000012
10
359.00400000000002
20
44.831700000000012
10
359.00400000000002
20
41.731100000000012
10
359.80500000000001
20
41.731100000000012
10
359.80500000000001
20
40.730700000000013
10
373.80700000000002
20
40.730700000000013
10
373.80700000000002
20
41.731100000000012
10
374.608
20
41.731100000000012
10
374.608
20
44.831700000000012
10
373.80700000000002
20
44.831700000000012
10
373.80700000000002
20
50.631700000000002
10
374.608
20
50.631700000000002
10
374.608
20
53.731200000000001
10
373.80700000000002
20
53.731200000000001
10
373.80700000000002
20
54.731699999999996
10
359.80500000000001
20
54.731699999999996
0
LWPOLYLINE
5
161
100
AcDbEntity
8
0
100
AcDbPolyline
90
20
70
1
43
0.0
10
311.89400000000001
20
53.731200000000001
10
311.89400000000001
20
54.731699999999996
10
297.89299999999997
20
54.731699999999996
10
297.89299999999997
20
53.731200000000001
10
297.09400000000005
20
53.731200000000001
10
297.09400000000005
20
50.631700000000002
10
297.89299999999997
20
50.631700000000002
10
297.89299999999997
20
44.831700000000012
10
297.09400000000005
20
44.831700000000012
10
297.09400000000005
20
41.731100000000012
10
297.89299999999997
20
41.731100000000012
10
297.89299999999997
20
40.730700000000013
10
311.89400000000001
20
40.730700000000013
10
311.89400000000001
20
41.731100000000012
10
312.69299999999998
20
41.731100000000012
10
312.69299999999998
20
44.831700000000012
10
311.89400000000001
20
44.831700000000012
10
311.89400000000001
20
50.631700000000002
10
312.69299999999998
20
50.631700000000002
10
312.69299999999998
20
53.731200000000001
0
LWPOLYLINE
5
162
100
AcDbEntity
8
0
100
AcDbPolyline
90
20
70
1
43
0.0
10
35.669000000000011
20
60.781100000000016
10
36.468400000000003
20
60.781100000000016
10
36.468400000000003
20
63.881700000000016
10
35.669000000000011
20
63.881700000000016
10
35.669000000000011
20
69.680700000000002
10
36.468400000000003
20
69.680700000000002
10
36.468400000000003
20
72.781199999999998
10
35.669000000000011
20
72.781199999999998
10
35.669000000000011
20
73.781700000000001
10
21.668300000000002
20
73.781700000000001
10
21.668300000000002
20
72.781199999999998
10
20.869
20
72.781199999999998
10
20.869
20
69.680700000000002
10
21.668300000000002
20
69.680700000000002
10
21.668300000000002
20
63.881700000000016
10
20.869
20
63.881700000000016
10
20.869
20
60.781100000000016
10
21.668300000000002
20
60.781100000000016
10
21.668300000000002
20
59.780700000000017
10
35.669000000000011
20
59.780700000000017
0
LWPOLYLINE
5
163
100
AcDbEntity
8
0
100
AcDbPolyline
90
20
70
1
43
0.0
10
17.418399999999998
20
60.781100000000016
10
17.418399999999998
20
63.881700000000016
10
16.619199999999999
20
63.881700000000016
10
16.619199999999999
20
69.680700000000002
10
17.418399999999998
20
69.680700000000002
10
17.418399999999998
20
72.781199999999998
10
16.619199999999999
20
72.781199999999998
10
16.619199999999999
20
73.781700000000001
10
2.6182700000000003
20
73.781700000000001
10
2.6182699999999999
20
72.781199999999998
10
1.81901
20
72.781199999999998
10
1.81901
20
69.680700000000002
10
2.6182699999999999
20
69.680700000000002
10
2.6182699999999999
20
63.881700000000016
10
1.81901
20
63.881700000000016
10
1.81901
20
60.781100000000016
10
2.6182699999999999
20
60.781100000000016
10
2.6182700000000003
20
59.780700000000017
10
16.619199999999999
20
59.780700000000017
10
16.619199999999999
20
60.781100000000016
0
LWPOLYLINE
5
164
100
AcDbEntity
8
0
100
AcDbPolyline
90
20
70
1
43
0.0
10
73.254999999999981
20
60.781100000000016
10
74.055800000000005
20
60.781100000000016
10
74.055800000000005
20
59.780700000000017
10
88.055099999999982
20
59.780700000000017
10
88.055099999999982
20
60.781100000000016
10
88.855900000000005
20
60.781100000000016
10
88.855900000000005
20
63.881700000000016
10
88.055099999999982
20
63.881700000000016
10
88.055099999999982
20
69.680700000000002
10
88.855900000000005
20
69.680700000000002
10
88.855900000000005
20
72.781199999999998
10
88.055099999999982
20
72.781199999999998
10
88.055099999999982
20
73.781700000000001
10
74.055800000000005
20
73.781700000000001
10
74.055800000000005
20
72.781199999999998
10
73.254999999999981
20
72.781199999999998
10
73.254999999999981
20
69.680700000000002
10
74.055800000000005
20
69.680700000000002
10
74.055800000000005
20
63.881700000000016
10
73.254999999999981
20
63.881700000000016
0
LWPOLYLINE
5
165
100
AcDbEntity
8
0
100
AcDbPolyline
90
20
70
1
43
0.0
10
93.105800000000002
20
60.781100000000016
10
93.105800000000002
20
59.780700000000017
10
107.10500000000003
20
59.780700000000017
10
107.10500000000003
20
60.781100000000016
10
107.90600000000001
20
60.781100000000016
10
107.90600000000001
20
63.881700000000016
10
107.10500000000003
20
63.881700000000016
10
107.10500000000003
20
69.680700000000002
10
107.90600000000001
20
69.680700000000002
10
107.90600000000001
20
72.781199999999998
10
107.10500000000003
20
72.781199999999998
10
107.10500000000003
20
73.781700000000001
10
93.105800000000002
20
73.781700000000001
10
93.105800000000002
20
72.781199999999998
10
92.305000000000007
20
72.781199999999998
10
92.305000000000007
20
69.680700000000002
10
93.105800000000002
20
69.680700000000002
10
93.105800000000002
20
63.881700000000016
10
92.305000000000007
20
63.881700000000016
10
92.305000000000007
20
60.781100000000016
0
LWPOLYLINE
5
166
100
AcDbEntity
8
0
100
AcDbPolyline
90
20
70
1
43
0.0
10
112.15600000000002
20
72.781199999999998
10
111.355
20
72.781199999999998
10
111.355
20
69.680700000000002
10
112.15600000000002
20
69.680700000000002
10
112.15600000000002
20
63.881700000000016
10
111.355
20
63.881700000000016
10
111.355
20
60.781100000000016
10
112.15600000000002
20
60.781100000000016
10
112.15600000000002
20
59.780700000000017
10
126.155
20
59.780700000000017
10
126.155
20
60.781100000000016
10
126.956
20
60.781100000000016
10
126.956
20
63.881700000000016
10
126.155
20
63.881700000000016
10
126.155
20
69.680700000000002
10
126.956
20
69.680700000000002
10
126.956
20
72.781199999999998
10
126.155
20
72.781199999999998
10
126.155
20
73.781700000000001
10
112.15600000000002
20
73.781700000000001
0
LWPOLYLINE
5
167
100
AcDbEntity
8
0
100
AcDbPolyline
90
20
70
1
43
0.0
10
64.244
20
59.780700000000017
10
64.244
20
60.781100000000016
10
65.043400000000005
20
60.781100000000016
10
65.043400000000005
20
63.881700000000016
10
64.244
20
63.881700000000016
10
64.244
20
69.680700000000002
10
65.043400000000005
20
69.680700000000002
10
65.043400000000005
20
72.781199999999998
10
64.244
20
72.781199999999998
10
64.244
20
73.781700000000001
10
50.243299999999998
20
73.781700000000001
10
50.243299999999998
20
72.781199999999998
10
49.443899999999999
20
72.781199999999998
10
49.443899999999999
20
69.680700000000002
10
50.243299999999998
20
69.680700000000002
10
50.243299999999998
20
63.881700000000016
10
49.443899999999999
20
63.881700000000016
10
49.443899999999999
20
60.781100000000016
10
50.243299999999998
20
60.781100000000016
10
50.243299999999998
20
59.780700000000017
0
LWPOLYLINE
5
168
100
AcDbEntity
8
0
100
AcDbPolyline
90
20
70
1
43
0.0
10
165.05599999999998
20
72.781199999999998
10
164.255
20
72.781199999999998
10
164.255
20
73.781700000000001
10
150.256
20
73.781700000000001
10
150.256
20
72.781199999999998
10
149.45500000000004
20
72.781199999999998
10
149.45500000000004
20
69.680700000000002
10
150.256
20
69.680700000000002
10
150.256
20
63.881700000000016
10
149.45500000000004
20
63.881700000000016
10
149.45500000000004
20
60.781100000000016
10
150.256
20
60.781100000000016
10
150.256
20
59.780700000000017
10
164.255
20
59.780700000000017
10
164.255
20
60.781100000000016
10
165.05599999999998
20
60.781100000000016
10
165.05599999999998
20
63.881700000000016
10
164.255
20
63.881700000000016
10
164.255
20
69.680700000000002
10
165.05599999999998
20
69.680700000000002
0
LWPOLYLINE
5
169
100
AcDbEntity
8
0
100
AcDbPolyline
90
20
70
1
43
0.0
10
135.68000000000001
20
92.831699999999998
10
121.68100000000001
20
92.831699999999998
10
121.68100000000001
20
91.83120000000001
10
120.88000000000001
20
91.83120000000001
10
120.88000000000001
20
88.730699999999999
10
121.68100000000001
20
88.730699999999999
10
121.68100000000001
20
82.931700000000021
10
120.88000000000001
20
82.931700000000021
10
120.88000000000001
20
79.831100000000006
10
121.68100000000001
20
79.831100000000006
10
121.68100000000001
20
78.830700000000007
10
135.68000000000001
20
78.830700000000007
10
135.68000000000001
20
79.831100000000006
10
136.48099999999999
20
79.831100000000006
10
136.48099999999999
20
82.931700000000021
10
135.68000000000001
20
82.931700000000021
10
135.68000000000001
20
88.730699999999999
10
136.48099999999999
20
88.730699999999999
10
136.48099999999999
20
91.83120000000001
10
135.68000000000001
20
91.83120000000001
0
LWPOLYLINE
5
170
100
AcDbEntity
8
0
100
AcDbPolyline
90
20
70
1
43
0.0
10
173.78
20
82.931700000000021
10
173.78
20
88.730699999999999
10
174.58099999999999
20
88.730699999999999
10
174.58099999999999
20
91.83120000000001
10
173.78
20
91.83120000000001
10
173.78
20
92.831699999999998
10
159.78100000000001
20
92.831699999999998
10
159.78100000000001
20
91.83120000000001
10
158.97999999999999
20
91.83120000000001
10
158.97999999999999
20
88.730699999999999
10
159.78100000000001
20
88.730699999999999
10
159.78100000000001
20
82.931700000000021
10
158.97999999999999
20
82.931700000000021
10
158.97999999999999
20
79.831100000000006
10
159.78100000000001
20
79.831100000000006
10
159.78100000000001
20
78.830700000000007
10
173.78
20
78.830700000000007
10
173.78
20
79.831100000000006
10
174.58099999999999
20
79.831100000000006
10
174.58099999999999
20
82.931700000000021
0
LWPOLYLINE
5
171
100
AcDbEntity
8
0
100
AcDbPolyline
90
20
70
1
43
0.0
10
207.40600000000001
20
82.931700000000021
10
206.60499999999999
20
82.931700000000021
10
206.60499999999999
20
79.831100000000006
10
207.40600000000001
20
79.831100000000006
10
207.40600000000001
20
78.830700000000007
10
221.40500000000003
20
78.830700000000007
10
221.40500000000003
20
79.831100000000006
10
222.20600000000002
20
79.831100000000006
10
222.20600000000002
20
82.931700000000021
10
221.40500000000003
20
82.931700000000021
10
221.40500000000003
20
88.730699999999999
10
222.20600000000002
20
88.730699999999999
10
222.20600000000002
20
91.83120000000001
10
221.40500000000003
20
91.83120000000001
10
221.40500000000003
20
92.831699999999998
10
207.40600000000001
20
92.831699999999998
10
207.40600000000001
20
91.83120000000001
10
206.60499999999999
20
91.83120000000001
10
206.60499999999999
20
88.730699999999999
10
207.40600000000001
20
88.730699999999999
0
LWPOLYLINE
5
172
100
AcDbEntity
8
0
100
AcDbPolyline
90
20
70
1
43
0.0
10
173.78
20
107.78100000000002
10
174.58099999999999
20
107.78100000000002
10
174.58099999999999
20
110.881
10
173.78
20
110.881
10
173.78
20
111.88200000000002
10
159.78100000000001
20
111.88200000000002
10
159.78100000000001
20
110.881
10
158.97999999999999
20
110.881
10
158.97999999999999
20
107.78100000000002
10
159.78100000000001
20
107.78100000000002
10
159.78100000000001
20
101.982
10
158.97999999999999
20
101.982
10
158.97999999999999
20
98.881100000000004
10
159.78100000000001
20
98.881100000000004
10
159.78100000000001
20
97.880700000000033
10
173.78
20
97.880700000000033
10
173.78
20
98.881100000000004
10
174.58099999999999
20
98.881100000000004
10
174.58099999999999
20
101.982
10
173.78
20
101.982
0
LWPOLYLINE
5
173
100
AcDbEntity
8
0
100
AcDbPolyline
90
20
70
1
43
0.0
10
207.40600000000001
20
107.78100000000002
10
207.40600000000001
20
101.982
10
206.60499999999999
20
101.982
10
206.60499999999999
20
98.881100000000004
10
207.40600000000001
20
98.881100000000004
10
207.40600000000001
20
97.880700000000033
10
221.40500000000003
20
97.880700000000033
10
221.40500000000003
20
98.881100000000004
10
222.20600000000002
20
98.881100000000004
10
222.20600000000002
20
101.982
10
221.40500000000003
20
101.982
10
221.40500000000003
20
107.78100000000002
10
222.20600000000002
20
107.78100000000002
10
222.20600000000002
20
110.881
10
221.40500000000003
20
110.881
10
221.40500000000003
20
111.88200000000002
10
207.40600000000001
20
111.88200000000002
10
207.40600000000001
20
110.881
10
206.60499999999999
20
110.881
10
206.60499999999999
20
107.78100000000002
0
LWPOLYLINE
5
174
100
AcDbEntity
8
0
100
AcDbPolyline
90
20
70
1
43
0.0
10
116.63
20
107.78100000000002
10
117.431
20
107.78100000000002
10
117.431
20
110.881
10
116.63
20
110.881
10
116.63
20
111.88200000000002
10
102.63100000000001
20
111.88200000000002
10
102.63100000000001
20
110.881
10
101.83
20
110.881
10
101.83
20
107.78100000000002
10
102.63100000000001
20
107.78100000000002
10
102.63100000000001
20
101.982
10
101.83
20
101.982
10
101.83
20
98.881100000000004
10
102.63100000000001
20
98.881100000000004
10
102.63100000000001
20
97.880700000000033
10
116.63
20
97.880700000000033
10
116.63
20
98.881100000000004
10
117.431
20
98.881100000000004
10
117.431
20
101.982
10
116.63
20
101.982
0
LWPOLYLINE
5
175
100
AcDbEntity
8
0
100
AcDbPolyline
90
20
70
1
43
0.0
10
244.70500000000001
20
79.831100000000006
10
245.506
20
79.831100000000006
10
245.506
20
78.830700000000007
10
259.505
20
78.830700000000007
10
259.505
20
79.831100000000006
10
260.30599999999998
20
79.831100000000006
10
260.30599999999998
20
82.931700000000021
10
259.505
20
82.931700000000021
10
259.505
20
88.730699999999999
10
260.30599999999998
20
88.730699999999999
10
260.30599999999998
20
91.83120000000001
10
259.505
20
91.83120000000001
10
259.505
20
92.831699999999998
10
245.506
20
92.831699999999998
10
245.506
20
91.83120000000001
10
244.70500000000001
20
91.83120000000001
10
244.70500000000001
20
88.730699999999999
10
245.506
20
88.730699999999999
10
245.506
20
82.931700000000021
10
244.70500000000001
20
82.931700000000021
0
LWPOLYLINE
5
176
100
AcDbEntity
8
0
100
AcDbPolyline
90
20
70
1
43
0.0
10
241.25600000000003
20
88.730699999999999
10
241.25600000000003
20
91.83120000000001
10
240.45500000000004
20
91.83120000000001
10
240.45500000000004
20
92.831699999999998
10
226.45600000000002
20
92.831699999999998
10
226.45600000000002
20
91.83120000000001
10
225.655
20
91.83120000000001
10
225.655
20
88.730699999999999
10
226.45600000000002
20
88.730699999999999
10
226.45600000000002
20
82.931700000000021
10
225.655
20
82.931700000000021
10
225.655
20
79.831100000000006
10
226.45600000000002
20
79.831100000000006
10
226.45600000000002
20
78.830700000000007
10
240.45500000000004
20
78.830700000000007
10
240.45500000000004
20
79.831100000000006
10
241.25600000000003
20
79.831100000000006
10
241.25600000000003
20
82.931700000000021
10
240.45500000000004
20
82.931700000000021
10
240.45500000000004
20
88.730699999999999
0
LWPOLYLINE
5
177
100
AcDbEntity
8
0
100
AcDbPolyline
90
20
70
1
43
0.0
10
283.60599999999999
20
92.831699999999998
10
283.60599999999999
20
91.83120000000001
10
282.80500000000006
20
91.83120000000001
10
282.80500000000006
20
88.730699999999999
10
283.60599999999999
20
88.730699999999999
10
283.60599999999999
20
82.931700000000021
10
282.80500000000006
20
82.931700000000021
10
282.80500000000006
20
79.831100000000006
10
283.60599999999999
20
79.831100000000006
10
283.60599999999999
20
78.830700000000007
10
297.60500000000002
20
78.830700000000007
10
297.60500000000002
20
79.831100000000006
10
298.40600000000001
20
79.831100000000006
10
298.40600000000001
20
82.931700000000021
10
297.60500000000002
20
82.931700000000021
10
297.60500000000002
20
88.730699999999999
10
298.40600000000001
20
88.730699999999999
10
298.40600000000001
20
91.83120000000001
10
297.60500000000002
20
91.83120000000001
10
297.60500000000002
20
92.831699999999998
0
LWPOLYLINE
5
178
100
AcDbEntity
8
0
100
AcDbPolyline
90
20
70
1
43
0.0
10
264.55599999999998
20
79.831100000000006
10
264.55599999999998
20
78.830700000000007
10
278.55500000000001
20
78.830700000000007
10
278.55500000000001
20
79.831100000000006
10
279.35599999999999
20
79.831100000000006
10
279.35599999999999
20
82.931700000000021
10
278.55500000000001
20
82.931700000000021
10
278.55500000000001
20
88.730699999999999
10
279.35599999999999
20
88.730699999999999
10
279.35599999999999
20
91.83120000000001
10
278.55500000000001
20
91.83120000000001
10
278.55500000000001
20
92.831699999999998
10
264.55599999999998
20
92.831699999999998
10
264.55599999999998
20
91.83120000000001
10
263.755
20
91.83120000000001
10
263.755
20
88.730699999999999
10
264.55599999999998
20
88.730699999999999
10
264.55599999999998
20
82.931700000000021
10
263.755
20
82.931700000000021
10
263.755
20
79.831100000000006
0
LWPOLYLINE
5
179
100
AcDbEntity
8
0
100
AcDbPolyline
90
20
70
1
43
0.0
10
316.65499999999997
20
78.830700000000007
10
316.65499999999997
20
79.831100000000006
10
317.45600000000002
20
79.831100000000006
10
317.45600000000002
20
82.931700000000021
10
316.65499999999997
20
82.931700000000021
10
316.65499999999997
20
88.730699999999999
10
317.45600000000002
20
88.730699999999999
10
317.45600000000002
20
91.83120000000001
10
316.65499999999997
20
91.83120000000001
10
316.65499999999997
20
92.831699999999998
10
302.65600000000001
20
92.831699999999998
10
302.65600000000001
20
91.83120000000001
10
301.85500000000002
20
91.83120000000001
10
301.85500000000002
20
88.730699999999999
10
302.65600000000001
20
88.730699999999999
10
302.65600000000001
20
82.931700000000021
10
301.85500000000002
20
82.931700000000021
10
301.85500000000002
20
79.831100000000006
10
302.65600000000001
20
79.831100000000006
10
302.65600000000001
20
78.830700000000007
0
LWPOLYLINE
5
180
100
AcDbEntity
8
0
100
AcDbPolyline
90
20
70
1
43
0.0
10
359.00400000000002
20
91.83120000000001
10
359.00400000000002
20
88.730699999999999
10
359.80500000000001
20
88.730699999999999
10
359.80500000000001
20
82.931700000000021
10
359.00400000000002
20
82.931700000000021
10
359.00400000000002
20
79.831100000000006
10
359.80500000000001
20
79.831100000000006
10
359.80500000000001
20
78.830700000000007
10
373.80700000000002
20
78.830700000000007
10
373.80700000000002
20
79.831100000000006
10
374.608
20
79.831100000000006
10
374.608
20
82.931700000000021
10
373.80700000000002
20
82.931700000000021
10
373.80700000000002
20
88.730699999999999
10
374.608
20
88.730699999999999
10
374.608
20
91.83120000000001
10
373.80700000000002
20
91.83120000000001
10
373.80700000000002
20
92.831699999999998
10
359.80500000000001
20
92.831699999999998
10
359.80500000000001
20
91.83120000000001
0
LWPOLYLINE
5
181
100
AcDbEntity
8
0
100
AcDbPolyline
90
20
70
1
43
0.0
10
59.4801
20
101.982
10
59.4801
20
107.78100000000002
10
60.280900000000003
20
107.78100000000002
10
60.280900000000003
20
110.881
10
59.4801
20
110.881
10
59.4801
20
111.88200000000002
10
45.480800000000002
20
111.88200000000002
10
45.480800000000002
20
110.881
10
44.68
20
110.881
10
44.68
20
107.78100000000002
10
45.480800000000002
20
107.78100000000002
10
45.480800000000002
20
101.982
10
44.68
20
101.982
10
44.68
20
98.881100000000004
10
45.480800000000002
20
98.881100000000004
10
45.480800000000002
20
97.880700000000033
10
59.4801
20
97.880700000000033
10
59.4801
20
98.881100000000004
10
60.280900000000003
20
98.881100000000004
10
60.280900000000003
20
101.982
0
LWPOLYLINE
5
182
100
AcDbEntity
8
0
100
AcDbPolyline
90
20
70
1
43
0.0
10
79.3309
20
98.881100000000004
10
79.3309
20
101.982
10
78.530100000000004
20
101.982
10
78.530100000000004
20
107.78100000000002
10
79.3309
20
107.78100000000002
10
79.3309
20
110.881
10
78.530100000000004
20
110.881
10
78.530100000000004
20
111.88200000000002
10
64.530799999999999
20
111.88200000000002
10
64.530799999999999
20
110.881
10
63.730000000000004
20
110.881
10
63.730000000000004
20
107.78100000000002
10
64.530799999999999
20
107.78100000000002
10
64.530799999999999
20
101.982
10
63.730000000000004
20
101.982
10
63.730000000000004
20
98.881100000000004
10
64.530799999999999
20
98.881100000000004
10
64.530799999999999
20
97.880700000000033
10
78.530100000000004
20
97.880700000000033
10
78.530100000000004
20
98.881100000000004
0
LWPOLYLINE
5
183
100
AcDbEntity
8
0
100
AcDbPolyline
90
32
70
1
43
0.0
10
118.21899999999999
20
15.162599999999999
10
118.21899999999999
20
11.931100000000001
10
117.34400000000001
20
11.931100000000001
10
117.34400000000001
20
9.1322500000000026
10
118.21899999999999
20
9.1322500000000026
10
118.21899999999999
20
2.86219
10
119.893
20
2.86219
10
119.893
20
1.8824000000000001
10
123.19400000000002
20
1.8824000000000001
10
123.19400000000002
20
2.6320500000000009
10
143.69000682490878
20
2.6320500000000018
10
143.69000682490878
20
1.8824000000000001
10
146.994
20
1.8824000000000001
10
146.994
20
2.86219
10
148.66800000000001
20
2.86219
10
148.66800000000001
20
9.1322500000000026
10
149.54300000000001
20
9.1322500000000026
10
149.54300000000001
20
11.931100000000001
10
148.66800000000001
20
11.931100000000001
10
148.66800000000001
20
15.162599999999999
10
146.994
20
15.162599999999999
10
146.994
20
16.081700000000005
10
143.69299999999996
20
16.081700000000005
10
143.6930164854152
20
15.6325
10
140.44399999999999
20
15.6325
10
140.44399999999999
20
16.631499999999999
10
126.44300000000001
20
16.631499999999999
10
126.44300000000001
20
15.6325
10
123.19398351458477
20
15.6325
10
123.19400000000002
20
16.081700000000005
10
119.893
20
16.081700000000005
10
119.893
20
15.162599999999999
0
LWPOLYLINE
5
184
100
AcDbEntity
8
0
100
AcDbPolyline
90
20
70
1
43
0.0
10
98.380900000000011
20
110.881
10
97.580100000000002
20
110.881
10
97.580100000000002
20
111.88200000000002
10
83.580799999999996
20
111.88200000000002
10
83.580799999999996
20
110.881
10
82.780000000000001
20
110.881
10
82.780000000000001
20
107.78100000000002
10
83.580799999999996
20
107.78100000000002
10
83.580799999999996
20
101.982
10
82.780000000000001
20
101.982
10
82.780000000000001
20
98.881100000000004
10
83.580799999999996
20
98.881100000000004
10
83.580799999999996
20
97.880700000000033
10
97.580100000000002
20
97.880700000000033
10
97.580100000000002
20
98.881100000000004
10
98.380900000000011
20
98.881100000000004
10
98.380900000000011
20
101.982
10
97.580100000000002
20
101.982
10
97.580100000000002
20
107.78100000000002
10
98.380900000000011
20
107.78100000000002
0
LINE
5
185
100
AcDbEntity
8
0
100
AcDbLine
10
210.21100000000004
20
9.1322500000000026
30
0
11
210.21100000000004
21
11.931100000000001
31
0
0
LINE
5
186
100
AcDbEntity
8
0
100
AcDbLine
10
210.21100000000004
20
11.931100000000001
30
0
11
211.08600000000001
21
11.931100000000001
31
0
0
LINE
5
187
100
AcDbEntity
8
0
100
AcDbLine
10
212.76200000000003
20
15.162599999999999
30
0
11
212.76200000000003
21
16.081700000000005
31
0
0
LINE
5
188
100
AcDbEntity
8
0
100
AcDbLine
10
233.31100000000004
20
15.6325
30
0
11
236.56200000000001
21
15.622150000000001
31
0
0
LINE
5
189
100
AcDbEntity
8
0
100
AcDbLine
10
216.0680692363525
20
1.8824000000000001
30
0
11
212.76200000000003
21
1.8824000000000001
31
0
0
LINE
5
190
100
AcDbEntity
8
0
100
AcDbLine
10
219.31200000000004
20
15.6325
30
0
11
219.31200000000004
21
16.631499999999999
31
0
0
LINE
5
191
100
AcDbEntity
8
0
100
AcDbLine
10
216.06100000000001
20
15.622150000000001
30
0
11
219.31200000000004
21
15.6325
31
0
0
LINE
5
192
100
AcDbEntity
8
0
100
AcDbLine
10
212.76200000000003
20
16.081700000000005
30
0
11
216.06100000000001
21
16.081700000000005
31
0
0
LWPOLYLINE
5
193
100
AcDbEntity
8
0
100
AcDbPolyline
90
20
70
1
43
0.0
10
36.468400000000003
20
12.5319
10
36.468400000000003
20
15.6325
10
35.669000000000011
20
15.6325
10
35.669000000000011
20
16.631499999999999
10
21.668300000000002
20
16.631499999999999
10
21.668300000000002
20
15.6325
10
20.869
20
15.6325
10
20.869
20
12.5319
10
21.668300000000002
20
12.5319
10
21.668300000000002
20
6.7317100000000005
10
20.869
20
6.7317100000000005
10
20.869
20
3.6325200000000004
10
21.668300000000002
20
3.6325200000000004
10
21.668300000000002
20
2.6320500000000009
10
35.669000000000011
20
2.6320500000000009
10
35.669000000000011
20
3.6325200000000004
10
36.468400000000003
20
3.6325200000000004
10
36.468400000000003
20
6.7317100000000005
10
35.669000000000011
20
6.7317100000000005
10
35.669000000000011
20
12.5319
0
LINE
5
194
100
AcDbEntity
8
0
100
AcDbLine
10
236.56200000000001
20
2.6320500000000009
30
0
11
216.0680692363525
21
2.6320500000000018
31
0
0
LINE
5
195
100
AcDbEntity
8
0
100
AcDbLine
10
211.08600000000001
20
9.1322500000000026
30
0
11
210.21100000000004
21
9.1322500000000026
31
0
0
LWPOLYLINE
5
196
100
AcDbEntity
8
0
100
AcDbPolyline
90
20
70
1
43
0.0
10
2.6182699999999999
20
6.7317100000000005
10
1.81901
20
6.7317100000000005
10
1.81901
20
3.6325200000000004
10
2.6182699999999999
20
3.6325200000000004
10
2.6182700000000003
20
2.6320500000000009
10
16.619199999999999
20
2.6320500000000009
10
16.619199999999999
20
3.6325200000000004
10
17.418399999999998
20
3.6325200000000004
10
17.418399999999998
20
6.7317100000000005
10
16.619199999999999
20
6.7317100000000005
10
16.619199999999999
20
12.5319
10
17.418399999999998
20
12.5319
10
17.418399999999998
20
15.6325
10
16.619199999999999
20
15.6325
10
16.619199999999999
20
16.631499999999999
10
2.6182700000000003
20
16.631499999999999
10
2.6182699999999999
20
15.6325
10
1.81901
20
15.6325
10
1.81901
20
12.5319
10
2.6182699999999999
20
12.5319
0
LINE
5
197
100
AcDbEntity
8
0
100
AcDbLine
10
236.56200000000001
20
1.8824000000000001
30
0
11
236.56200000000001
21
2.6320500000000009
31
0
0
LINE
5
198
100
AcDbEntity
8
0
100
AcDbLine
10
212.76200000000003
20
1.8824000000000001
30
0
11
212.76200000000003
21
2.86219
31
0
0
LINE
5
199
100
AcDbEntity
8
0
100
AcDbLine
10
236.56200000000001
20
16.081700000000005
30
0
11
239.86099999999999
21
16.081700000000005
31
0
0
LINE
5
200
100
AcDbEntity
8
0
100
AcDbLine
10
211.08600000000001
20
11.931100000000001
30
0
11
211.08600000000001
21
15.162599999999999
31
0
0
LINE
5
201
100
AcDbEntity
8
0
100
AcDbLine
10
216.0680692363525
20
2.6320500000000018
30
0
11
216.0680692363525
21
1.8824000000000001
31
0
0
LINE
5
202
100
AcDbEntity
8
0
100
AcDbLine
10
239.86099999999999
20
2.86219
30
0
11
239.86099999999999
21
1.8824000000000001
31
0
0
LINE
5
203
100
AcDbEntity
8
0
100
AcDbLine
10
211.08600000000001
20
15.162599999999999
30
0
11
212.76200000000003
21
15.162599999999999
31
0
0
LINE
5
204
100
AcDbEntity
8
0
100
AcDbLine
10
219.31200000000004
20
16.631499999999999
30
0
11
233.31100000000004
21
16.631499999999999
31
0
0
LINE
5
205
100
AcDbEntity
8
0
100
AcDbLine
10
212.76200000000003
20
2.86219
30
0
11
211.08600000000001
21
2.86219
31
0
0
LINE
5
206
100
AcDbEntity
8
0
100
AcDbLine
10
211.08600000000001
20
2.86219
30
0
11
211.08600000000001
21
9.1322500000000026
31
0
0
LINE
5
207
100
AcDbEntity
8
0
100
AcDbLine
10
233.31100000000004
20
16.631499999999999
30
0
11
233.31100000000004
21
15.6325
31
0
0
LINE
5
208
100
AcDbEntity
8
0
100
AcDbLine
10
241.53700000000001
20
11.931100000000001
30
0
11
242.41200000000006
21
11.931100000000001
31
0
0
LWPOLYLINE
5
209
100
AcDbEntity
8
0
100
AcDbPolyline
90
20
70
1
43
0.0
10
61.8613
20
15.6325
10
61.8613
20
16.631499999999999
10
47.862099999999998
20
16.631499999999999
10
47.862099999999998
20
15.6325
10
47.06130000000001
20
15.6325
10
47.06130000000001
20
12.5319
10
47.862099999999998
20
12.5319
10
47.862099999999998
20
6.7317100000000005
10
47.06130000000001
20
6.7317100000000005
10
47.06130000000001
20
3.6325200000000004
10
47.862099999999998
20
3.6325200000000004
10
47.862099999999998
20
2.6320500000000009
10
61.8613
20
2.6320500000000009
10
61.8613
20
3.6325200000000004
10
62.662200000000013
20
3.6325200000000004
10
62.662200000000013
20
6.7317100000000005
10
61.8613
20
6.7317100000000005
10
61.8613
20
12.5319
10
62.662200000000013
20
12.5319
10
62.662200000000013
20
15.6325
0
LWPOLYLINE
5
210
100
AcDbEntity
8
0
100
AcDbPolyline
90
20
70
1
43
0.0
10
169.01900000000001
20
3.6325200000000004
10
169.81799999999996
20
3.6325200000000004
10
169.81799999999996
20
6.7317100000000005
10
169.01900000000001
20
6.7317100000000005
10
169.01900000000001
20
12.5319
10
169.81799999999996
20
12.5319
10
169.81799999999996
20
15.6325
10
169.01900000000001
20
15.6325
10
169.01900000000001
20
16.631499999999999
10
155.018
20
16.631499999999999
10
155.018
20
15.6325
10
154.21899999999999
20
15.6325
10
154.21899999999999
20
12.5319
10
155.018
20
12.5319
10
155.018
20
6.7317100000000005
10
154.21899999999999
20
6.7317100000000005
10
154.21899999999999
20
3.6325200000000004
10
155.018
20
3.6325200000000004
10
155.018
20
2.6320500000000009
10
169.01900000000001
20
2.6320500000000009
0
LWPOLYLINE
5
211
100
AcDbEntity
8
0
100
AcDbPolyline
90
20
70
1
43
0.0
10
95.487099999999998
20
3.6325200000000004
10
95.487099999999998
20
2.6320500000000009
10
109.486
20
2.6320500000000009
10
109.486
20
3.6325200000000004
10
110.28700000000001
20
3.6325200000000004
10
110.28700000000001
20
6.7317100000000005
10
109.486
20
6.7317100000000005
10
109.486
20
12.5319
10
110.28700000000001
20
12.5319
10
110.28700000000001
20
15.6325
10
109.486
20
15.6325
10
109.486
20
16.631499999999999
10
95.487099999999998
20
16.631499999999999
10
95.487099999999998
20
15.6325
10
94.686300000000017
20
15.6325
10
94.686300000000017
20
12.5319
10
95.487099999999998
20
12.5319
10
95.487099999999998
20
6.7317100000000005
10
94.686300000000017
20
6.7317100000000005
10
94.686300000000017
20
3.6325200000000004
0
LINE
5
212
100
AcDbEntity
8
0
100
AcDbLine
10
239.86099999999999
20
1.8824000000000001
30
0
11
236.56200000000001
21
1.8824000000000001
31
0
0
LINE
5
213
100
AcDbEntity
8
0
100
AcDbLine
10
239.86099999999999
20
15.162599999999999
30
0
11
241.53700000000001
21
15.162599999999999
31
0
0
LINE
5
214
100
AcDbEntity
8
0
100
AcDbLine
10
242.41200000000006
20
11.931100000000001
30
0
11
242.41200000000006
21
9.1322500000000026
31
0
0
LINE
5
215
100
AcDbEntity
8
0
100
AcDbLine
10
241.53700000000001
20
2.86219
30
0
11
239.86099999999999
21
2.86219
31
0
0
LINE
5
216
100
AcDbEntity
8
0
100
AcDbLine
10
241.53700000000001
20
9.1322500000000026
30
0
11
241.53700000000001
21
2.86219
31
0
0
LINE
5
217
100
AcDbEntity
8
0
100
AcDbLine
10
239.86099999999999
20
16.081700000000005
30
0
11
239.86099999999999
21
15.162599999999999
31
0
0
LINE
5
218
100
AcDbEntity
8
0
100
AcDbLine
10
241.53700000000001
20
15.162599999999999
30
0
11
241.53700000000001
21
11.931100000000001
31
0
0
LINE
5
219
100
AcDbEntity
8
0
100
AcDbLine
10
242.41200000000006
20
9.1322500000000026
30
0
11
241.53700000000001
21
9.1322500000000026
31
0
0
LWPOLYLINE
5
220
100
AcDbEntity
8
0
100
AcDbPolyline
90
20
70
1
43
0.0
10
86.474699999999999
20
6.7317100000000005
10
85.675299999999979
20
6.7317100000000005
10
85.675299999999979
20
12.5319
10
86.474699999999999
20
12.5319
10
86.474699999999999
20
15.6325
10
85.675299999999979
20
15.6325
10
85.675299999999979
20
16.631499999999999
10
71.674599999999998
20
16.631499999999999
10
71.674599999999998
20
15.6325
10
70.875200000000021
20
15.6325
10
70.875200000000021
20
12.5319
10
71.674599999999998
20
12.5319
10
71.674599999999998
20
6.7317100000000005
10
70.875200000000021
20
6.7317100000000005
10
70.875200000000021
20
3.6325200000000004
10
71.674599999999998
20
3.6325200000000004
10
71.674599999999998
20
2.6320500000000009
10
85.675299999999979
20
2.6320500000000009
10
85.675299999999979
20
3.6325200000000004
10
86.474699999999999
20
3.6325200000000004
0
LWPOLYLINE
5
221
100
AcDbEntity
8
0
100
AcDbPolyline
90
20
70
1
43
0.0
10
278.84300000000002
20
6.7317100000000005
10
278.04400000000004
20
6.7317100000000005
10
278.04400000000004
20
3.6325200000000004
10
278.84300000000002
20
3.6325200000000004
10
278.84300000000002
20
2.6320500000000009
10
292.84399999999999
20
2.6320500000000009
10
292.84399999999999
20
3.6325200000000004
10
293.64300000000009
20
3.6325200000000004
10
293.64300000000009
20
6.7317100000000005
10
292.84399999999999
20
6.7317100000000005
10
292.84399999999999
20
12.5319
10
293.64300000000009
20
12.5319
10
293.64300000000009
20
15.6325
10
292.84399999999999
20
15.6325
10
292.84399999999999
20
16.631499999999999
10
278.84300000000002
20
16.631499999999999
10
278.84300000000002
20
15.6325
10
278.04400000000004
20
15.6325
10
278.04400000000004
20
12.5319
10
278.84300000000002
20
12.5319
0
LWPOLYLINE
5
222
100
AcDbEntity
8
0
100
AcDbPolyline
90
20
70
1
43
0.0
10
256.61099999999999
20
3.6325200000000004
10
257.41200000000003
20
3.6325200000000004
10
257.41200000000003
20
2.6320500000000009
10
271.411
20
2.6320500000000009
10
271.411
20
3.6325200000000004
10
272.21199999999999
20
3.6325200000000004
10
272.21199999999999
20
6.7317100000000005
10
271.411
20
6.7317100000000005
10
271.411
20
12.5319
10
272.21199999999999
20
12.5319
10
272.21199999999999
20
15.6325
10
271.411
20
15.6325
10
271.411
20
16.631499999999999
10
257.41200000000003
20
16.631499999999999
10
257.41200000000003
20
15.6325
10
256.61099999999999
20
15.6325
10
256.61099999999999
20
12.5319
10
257.41200000000003
20
12.5319
10
257.41200000000003
20
6.7317100000000005
10
256.61099999999999
20
6.7317100000000005
0
LINE
5
223
100
AcDbEntity
8
0
100
AcDbLine
10
216.06100000000001
20
15.622150000000001
30
0
11
216.06100000000001
21
16.081700000000005
31
0
0
LINE
5
224
100
AcDbEntity
8
0
100
AcDbLine
10
236.56200000000001
20
15.622150000000001
30
0
11
236.56200000000001
21
16.081700000000005
31
0
0
ENDSEC
0
SECTION
2
OBJECTS
0
DICTIONARY
5
C
100
AcDbDictionary
3
ACAD_GROUP
350
D
3
ACAD_MLINESTYLE
350
17
0
DICTIONARY
5
D
100
AcDbDictionary
0
DICTIONARY
5
1A
330
C
100
AcDbDictionary
0
DICTIONARY
5
17
100
AcDbDictionary
0
ENDSEC
0
EOF
