<?xml version="1.0"?>
<!-- Generated by SVGo -->
<svg width="307.750mm" height="117.250mm"
     viewBox="0.000 0.000 307.750 117.250"
     xmlns="http://www.w3.org/2000/svg" 
     xmlns:xlink="http://www.w3.org/1999/xlink">
<polygon points="300.750,5.000 300.907,5.006 301.063,5.025 301.217,5.055 301.368,5.098 301.515,5.152 301.658,5.218 301.795,5.295 301.926,5.382 302.049,5.479 302.164,5.586 302.271,5.701 302.368,5.824 302.455,5.955 302.532,6.092 302.598,6.235 302.652,6.382 302.695,6.533 302.725,6.687 302.744,6.843 302.750,7.000 302.750,110.250 302.744,110.407 302.725,110.563 302.695,110.717 302.652,110.868 302.598,111.015 302.532,111.158 302.455,111.295 302.368,111.426 302.271,111.549 302.164,111.664 302.049,111.771 301.926,111.868 301.795,111.955 301.658,112.032 301.515,112.098 301.368,112.152 301.217,112.195 301.063,112.225 300.907,112.244 300.750,112.250 7.000,112.250 6.843,112.244 6.687,112.225 6.533,112.195 6.382,112.152 6.235,112.098 6.092,112.032 5.955,111.955 5.824,111.868 5.701,111.771 5.586,111.664 5.479,111.549 5.382,111.426 5.295,111.295 5.218,111.158 5.152,111.015 5.098,110.868 5.055,110.717 5.025,110.563 5.006,110.407 5.000,110.250 5.000,7.000 5.006,6.843 5.025,6.687 5.055,6.533 5.098,6.382 5.152,6.235 5.218,6.092 5.295,5.955 5.382,5.824 5.479,5.701 5.586,5.586 5.701,5.479 5.824,5.382 5.955,5.295 6.092,5.218 6.235,5.152 6.382,5.098 6.533,5.055 6.687,5.025 6.843,5.006 7.000,5.000" style="fill:none;stroke-width:0.2;stroke:black"/>
<rect x="11.000" y="11.000" width="285.750" height="95.250" style="fill:none;stroke-width:0.2;stroke:black"/>
<polygon points="105.250,7.000 105.559,7.049 105.838,7.191 106.059,7.412 106.201,7.691 106.250,8.000 106.201,8.309 106.059,8.588 105.838,8.809 105.559,8.951 105.250,9.000 104.941,8.951 104.662,8.809 104.441,8.588 104.299,8.309 104.250,8.000 104.299,7.691 104.441,7.412 104.662,7.191 104.941,7.049" style="fill:none;stroke-width:0.2;stroke:black"/>
<polygon points="202.500,7.000 202.809,7.049 203.088,7.191 203.309,7.412 203.451,7.691 203.500,8.000 203.451,8.309 203.309,8.588 203.088,8.809 202.809,8.951 202.500,9.000 202.191,8.951 201.912,8.809 201.691,8.588 201.549,8.309 201.500,8.000 201.549,7.691 201.691,7.412 201.912,7.191 202.191,7.049" style="fill:none;stroke-width:0.2;stroke:black"/>
<polygon points="299.750,7.000 300.059,7.049 300.338,7.191 300.559,7.412 300.701,7.691 300.750,8.000 300.701,8.309 300.559,8.588 300.338,8.809 300.059,8.951 299.750,9.000 299.441,8.951 299.162,8.809 298.941,8.588 298.799,8.309 298.750,8.000 298.799,7.691 298.941,7.412 299.162,7.191 299.441,7.049" style="fill:none;stroke-width:0.2;stroke:black"/>
<polygon points="299.750,57.625 300.059,57.674 300.338,57.816 300.559,58.037 300.701,58.316 300.750,58.625 300.701,58.934 300.559,59.213 300.338,59.434 300.059,59.576 299.750,59.625 299.441,59.576 299.162,59.434 298.941,59.213 298.799,58.934 298.750,58.625 298.799,58.316 298.941,58.037 299.162,57.816 299.441,57.674" style="fill:none;stroke-width:0.2;stroke:black"/>
<polygon points="299.750,108.250 300.059,108.299 300.338,108.441 300.559,108.662 300.701,108.941 300.750,109.250 300.701,109.559 300.559,109.838 300.338,110.059 300.059,110.201 299.750,110.250 299.441,110.201 299.162,110.059 298.941,109.838 298.799,109.559 298.750,109.250 298.799,108.941 298.941,108.662 299.162,108.441 299.441,108.299" style="fill:none;stroke-width:0.2;stroke:black"/>
<polygon points="202.500,108.250 202.809,108.299 203.088,108.441 203.309,108.662 203.451,108.941 203.500,109.250 203.451,109.559 203.309,109.838 203.088,110.059 202.809,110.201 202.500,110.250 202.191,110.201 201.912,110.059 201.691,109.838 201.549,109.559 201.500,109.250 201.549,108.941 201.691,108.662 201.912,108.441 202.191,108.299" style="fill:none;stroke-width:0.2;stroke:black"/>
<polygon points="105.250,108.250 105.559,108.299 105.838,108.441 106.059,108.662 106.201,108.941 106.250,109.250 106.201,109.559 106.059,109.838 105.838,110.059 105.559,110.201 105.250,110.250 104.941,110.201 104.662,110.059 104.441,109.838 104.299,109.559 104.250,109.250 104.299,108.941 104.441,108.662 104.662,108.441 104.941,108.299" style="fill:none;stroke-width:0.2;stroke:black"/>
<polygon points="8.000,108.250 8.309,108.299 8.588,108.441 8.809,108.662 8.951,108.941 9.000,109.250 8.951,109.559 8.809,109.838 8.588,110.059 8.309,110.201 8.000,110.250 7.691,110.201 7.412,110.059 7.191,109.838 7.049,109.559 7.000,109.250 7.049,108.941 7.191,108.662 7.412,108.441 7.691,108.299" style="fill:none;stroke-width:0.2;stroke:black"/>
<polygon points="8.000,57.625 8.309,57.674 8.588,57.816 8.809,58.037 8.951,58.316 9.000,58.625 8.951,58.934 8.809,59.213 8.588,59.434 8.309,59.576 8.000,59.625 7.691,59.576 7.412,59.434 7.191,59.213 7.049,58.934 7.000,58.625 7.049,58.316 7.191,58.037 7.412,57.816 7.691,57.674" style="fill:none;stroke-width:0.2;stroke:black"/>
<polygon points="8.000,7.000 8.309,7.049 8.588,7.191 8.809,7.412 8.951,7.691 9.000,8.000 8.951,8.309 8.809,8.588 8.588,8.809 8.309,8.951 8.000,9.000 7.691,8.951 7.412,8.809 7.191,8.588 7.049,8.309 7.000,8.000 7.049,7.691 7.191,7.412 7.412,7.191 7.691,7.049" style="fill:none;stroke-width:0.2;stroke:black"/>
</svg>
