<?xml version="1.0"?>
<!-- Generated by SVGo -->
<svg width="307.750mm" height="117.250mm"
     viewBox="0.000 0.000 307.750 117.250"
     xmlns="http://www.w3.org/2000/svg" 
     xmlns:xlink="http://www.w3.org/1999/xlink">
<polygon points="300.750,5.000 300.907,5.006 301.063,5.025 301.217,5.055 301.368,5.098 301.515,5.152 301.658,5.218 301.795,5.295 301.926,5.382 302.049,5.479 302.164,5.586 302.271,5.701 302.368,5.824 302.455,5.955 302.532,6.092 302.598,6.235 302.652,6.382 302.695,6.533 302.725,6.687 302.744,6.843 302.750,7.000 302.750,110.250 302.744,110.407 302.725,110.563 302.695,110.717 302.652,110.868 302.598,111.015 302.532,111.158 302.455,111.295 302.368,111.426 302.271,111.549 302.164,111.664 302.049,111.771 301.926,111.868 301.795,111.955 301.658,112.032 301.515,112.098 301.368,112.152 301.217,112.195 301.063,112.225 300.907,112.244 300.750,112.250 7.000,112.250 6.843,112.244 6.687,112.225 6.533,112.195 6.382,112.152 6.235,112.098 6.092,112.032 5.955,111.955 5.824,111.868 5.701,111.771 5.586,111.664 5.479,111.549 5.382,111.426 5.295,111.295 5.218,111.158 5.152,111.015 5.098,110.868 5.055,110.717 5.025,110.563 5.006,110.407 5.000,110.250 5.000,7.000 5.006,6.843 5.025,6.687 5.055,6.533 5.098,6.382 5.152,6.235 5.218,6.092 5.295,5.955 5.382,5.824 5.479,5.701 5.586,5.586 5.701,5.479 5.824,5.382 5.955,5.295 6.092,5.218 6.235,5.152 6.382,5.098 6.533,5.055 6.687,5.025 6.843,5.006 7.000,5.000" style="fill:none;stroke-width:0.2;stroke:black"/>
<polygon points="105.250,7.000 105.559,7.049 105.838,7.191 106.059,7.412 106.201,7.691 106.250,8.000 106.201,8.309 106.059,8.588 105.838,8.809 105.559,8.951 105.250,9.000 104.941,8.951 104.662,8.809 104.441,8.588 104.299,8.309 104.250,8.000 104.299,7.691 104.441,7.412 104.662,7.191 104.941,7.049" style="fill:none;stroke-width:0.2;stroke:black"/>
<polygon points="202.500,7.000 202.809,7.049 203.088,7.191 203.309,7.412 203.451,7.691 203.500,8.000 203.451,8.309 203.309,8.588 203.088,8.809 202.809,8.951 202.500,9.000 202.191,8.951 201.912,8.809 201.691,8.588 201.549,8.309 201.500,8.000 201.549,7.691 201.691,7.412 201.912,7.191 202.191,7.049" style="fill:none;stroke-width:0.2;stroke:black"/>
<polygon points="299.750,7.000 300.059,7.049 300.338,7.191 300.559,7.412 300.701,7.691 300.750,8.000 300.701,8.309 300.559,8.588 300.338,8.809 300.059,8.951 299.750,9.000 299.441,8.951 299.162,8.809 298.941,8.588 298.799,8.309 298.750,8.000 298.799,7.691 298.941,7.412 299.162,7.191 299.441,7.049" style="fill:none;stroke-width:0.2;stroke:black"/>
<polygon points="299.750,57.625 300.059,57.674 300.338,57.816 300.559,58.037 300.701,58.316 300.750,58.625 300.701,58.934 300.559,59.213 300.338,59.434 300.059,59.576 299.750,59.625 299.441,59.576 299.162,59.434 298.941,59.213 298.799,58.934 298.750,58.625 298.799,58.316 298.941,58.037 299.162,57.816 299.441,57.674" style="fill:none;stroke-width:0.2;stroke:black"/>
<polygon points="299.750,108.250 300.059,108.299 300.338,108.441 300.559,108.662 300.701,108.941 300.750,109.250 300.701,109.559 300.559,109.838 300.338,110.059 300.059,110.201 299.750,110.250 299.441,110.201 299.162,110.059 298.941,109.838 298.799,109.559 298.750,109.250 298.799,108.941 298.941,108.662 299.162,108.441 299.441,108.299" style="fill:none;stroke-width:0.2;stroke:black"/>
<polygon points="202.500,108.250 202.809,108.299 203.088,108.441 203.309,108.662 203.451,108.941 203.500,109.250 203.451,109.559 203.309,109.838 203.088,110.059 202.809,110.201 202.500,110.250 202.191,110.201 201.912,110.059 201.691,109.838 201.549,109.559 201.500,109.250 201.549,108.941 201.691,108.662 201.912,108.441 202.191,108.299" style="fill:none;stroke-width:0.2;stroke:black"/>
<polygon points="105.250,108.250 105.559,108.299 105.838,108.441 106.059,108.662 106.201,108.941 106.250,109.250 106.201,109.559 106.059,109.838 105.838,110.059 105.559,110.201 105.250,110.250 104.941,110.201 104.662,110.059 104.441,109.838 104.299,109.559 104.250,109.250 104.299,108.941 104.441,108.662 104.662,108.441 104.941,108.299" style="fill:none;stroke-width:0.2;stroke:black"/>
<polygon points="8.000,108.250 8.309,108.299 8.588,108.441 8.809,108.662 8.951,108.941 9.000,109.250 8.951,109.559 8.809,109.838 8.588,110.059 8.309,110.201 8.000,110.250 7.691,110.201 7.412,110.059 7.191,109.838 7.049,109.559 7.000,109.250 7.049,108.941 7.191,108.662 7.412,108.441 7.691,108.299" style="fill:none;stroke-width:0.2;stroke:black"/>
<polygon points="8.000,57.625 8.309,57.674 8.588,57.816 8.809,58.037 8.951,58.316 9.000,58.625 8.951,58.934 8.809,59.213 8.588,59.434 8.309,59.576 8.000,59.625 7.691,59.576 7.412,59.434 7.191,59.213 7.049,58.934 7.000,58.625 7.049,58.316 7.191,58.037 7.412,57.816 7.691,57.674" style="fill:none;stroke-width:0.2;stroke:black"/>
<polygon points="8.000,7.000 8.309,7.049 8.588,7.191 8.809,7.412 8.951,7.691 9.000,8.000 8.951,8.309 8.809,8.588 8.588,8.809 8.309,8.951 8.000,9.000 7.691,8.951 7.412,8.809 7.191,8.588 7.049,8.309 7.000,8.000 7.049,7.691 7.191,7.412 7.412,7.191 7.691,7.049" style="fill:none;stroke-width:0.2;stroke:black"/>
<polygon points="27.525,26.525 27.525,27.525 13.525,27.525 13.525,26.525 12.725,26.525 12.725,23.425 13.525,23.425 13.525,17.625 12.725,17.625 12.725,14.525 13.525,14.525 13.525,13.525 27.525,13.525 27.525,14.525 28.325,14.525 28.325,17.625 27.525,17.625 27.525,23.425 28.325,23.425 28.325,26.525" style="fill:none;stroke-width:0.2;stroke:black"/>
<polygon points="29.906,102.725 29.906,103.725 15.906,103.725 15.906,102.725 15.106,102.725 15.106,99.625 15.906,99.625 15.906,93.825 15.106,93.825 15.106,90.725 15.906,90.725 15.906,89.725 29.906,89.725 29.906,90.725 30.706,90.725 30.706,93.825 29.906,93.825 29.906,99.625 30.706,99.625 30.706,102.725" style="fill:none;stroke-width:0.2;stroke:black"/>
<polygon points="32.288,45.575 32.288,46.575 18.288,46.575 18.288,45.575 17.488,45.575 17.488,42.475 18.288,42.475 18.288,36.675 17.488,36.675 17.488,33.575 18.288,33.575 18.288,32.575 32.288,32.575 32.288,33.575 33.087,33.575 33.087,36.675 32.288,36.675 32.288,42.475 33.087,42.475 33.087,45.575" style="fill:none;stroke-width:0.2;stroke:black"/>
<polygon points="34.669,64.625 34.669,65.625 20.669,65.625 20.669,64.625 19.869,64.625 19.869,61.525 20.669,61.525 20.669,55.725 19.869,55.725 19.869,52.625 20.669,52.625 20.669,51.625 34.669,51.625 34.669,52.625 35.469,52.625 35.469,55.725 34.669,55.725 34.669,61.525 35.469,61.525 35.469,64.625" style="fill:none;stroke-width:0.2;stroke:black"/>
<polygon points="46.575,26.525 46.575,27.525 32.575,27.525 32.575,26.525 31.775,26.525 31.775,23.425 32.575,23.425 32.575,17.625 31.775,17.625 31.775,14.525 32.575,14.525 32.575,13.525 46.575,13.525 46.575,14.525 47.375,14.525 47.375,17.625 46.575,17.625 46.575,23.425 47.375,23.425 47.375,26.525" style="fill:none;stroke-width:0.2;stroke:black"/>
<polygon points="47.656,78.175 47.656,84.445 46.031,84.445 46.031,85.645 42.731,85.645 42.731,84.445 41.006,84.445 41.006,83.645 40.231,83.645 40.231,83.675 39.431,83.675 39.431,84.675 25.431,84.675 25.431,83.675 24.631,83.675 24.631,83.645 23.856,83.645 23.856,84.445 22.131,84.445 22.131,85.645 18.831,85.645 18.831,84.445 17.206,84.445 17.206,78.175 16.331,78.175 16.331,75.375 17.206,75.375 17.206,72.145 23.856,72.145 23.856,72.945 24.631,72.945 24.631,71.675 25.431,71.675 25.431,70.675 39.431,70.675 39.431,71.675 40.231,71.675 40.231,72.945 41.006,72.945 41.006,72.145 47.656,72.145 47.656,75.375 48.531,75.375 48.531,78.175" style="fill:none;stroke-width:0.2;stroke:black"/>
<polygon points="53.719,102.725 53.719,103.725 39.719,103.725 39.719,102.725 38.919,102.725 38.919,99.625 39.719,99.625 39.719,93.825 38.919,93.825 38.919,90.725 39.719,90.725 39.719,89.725 53.719,89.725 53.719,90.725 54.519,90.725 54.519,93.825 53.719,93.825 53.719,99.625 54.519,99.625 54.519,102.725" style="fill:none;stroke-width:0.2;stroke:black"/>
<polygon points="56.100,45.575 56.100,46.575 42.100,46.575 42.100,45.575 41.300,45.575 41.300,42.475 42.100,42.475 42.100,36.675 41.300,36.675 41.300,33.575 42.100,33.575 42.100,32.575 56.100,32.575 56.100,33.575 56.900,33.575 56.900,36.675 56.100,36.675 56.100,42.475 56.900,42.475 56.900,45.575" style="fill:none;stroke-width:0.2;stroke:black"/>
<polygon points="60.862,64.625 60.862,65.625 46.862,65.625 46.862,64.625 46.062,64.625 46.062,61.525 46.862,61.525 46.862,55.725 46.062,55.725 46.062,52.625 46.862,52.625 46.862,51.625 60.862,51.625 60.862,52.625 61.662,52.625 61.662,55.725 60.862,55.725 60.862,61.525 61.662,61.525 61.662,64.625" style="fill:none;stroke-width:0.2;stroke:black"/>
<polygon points="65.625,26.525 65.625,27.525 51.625,27.525 51.625,26.525 50.825,26.525 50.825,23.425 51.625,23.425 51.625,17.625 50.825,17.625 50.825,14.525 51.625,14.525 51.625,13.525 65.625,13.525 65.625,14.525 66.425,14.525 66.425,17.625 65.625,17.625 65.625,23.425 66.425,23.425 66.425,26.525" style="fill:none;stroke-width:0.2;stroke:black"/>
<polygon points="70.388,83.675 70.388,84.675 56.388,84.675 56.388,83.675 55.588,83.675 55.588,80.575 56.388,80.575 56.388,74.775 55.588,74.775 55.588,71.675 56.388,71.675 56.388,70.675 70.388,70.675 70.388,71.675 71.188,71.675 71.188,74.775 70.388,74.775 70.388,80.575 71.188,80.575 71.188,83.675" style="fill:none;stroke-width:0.2;stroke:black"/>
<polygon points="75.150,45.575 75.150,46.575 61.150,46.575 61.150,45.575 60.350,45.575 60.350,42.475 61.150,42.475 61.150,36.675 60.350,36.675 60.350,33.575 61.150,33.575 61.150,32.575 75.150,32.575 75.150,33.575 75.950,33.575 75.950,36.675 75.150,36.675 75.150,42.475 75.950,42.475 75.950,45.575" style="fill:none;stroke-width:0.2;stroke:black"/>
<polygon points="77.531,102.725 77.531,103.725 63.531,103.725 63.531,102.725 62.731,102.725 62.731,99.625 63.531,99.625 63.531,93.825 62.731,93.825 62.731,90.725 63.531,90.725 63.531,89.725 77.531,89.725 77.531,90.725 78.331,90.725 78.331,93.825 77.531,93.825 77.531,99.625 78.331,99.625 78.331,102.725" style="fill:none;stroke-width:0.2;stroke:black"/>
<polygon points="79.912,64.625 79.912,65.625 65.912,65.625 65.912,64.625 65.112,64.625 65.112,61.525 65.912,61.525 65.912,55.725 65.112,55.725 65.112,52.625 65.912,52.625 65.912,51.625 79.912,51.625 79.912,52.625 80.712,52.625 80.712,55.725 79.912,55.725 79.912,61.525 80.712,61.525 80.712,64.625" style="fill:none;stroke-width:0.2;stroke:black"/>
<polygon points="84.675,26.525 84.675,27.525 70.675,27.525 70.675,26.525 69.875,26.525 69.875,23.425 70.675,23.425 70.675,17.625 69.875,17.625 69.875,14.525 70.675,14.525 70.675,13.525 84.675,13.525 84.675,14.525 85.475,14.525 85.475,17.625 84.675,17.625 84.675,23.425 85.475,23.425 85.475,26.525" style="fill:none;stroke-width:0.2;stroke:black"/>
<polygon points="89.438,83.675 89.438,84.675 75.438,84.675 75.438,83.675 74.638,83.675 74.638,80.575 75.438,80.575 75.438,74.775 74.638,74.775 74.638,71.675 75.438,71.675 75.438,70.675 89.438,70.675 89.438,71.675 90.238,71.675 90.238,74.775 89.438,74.775 89.438,80.575 90.238,80.575 90.238,83.675" style="fill:none;stroke-width:0.2;stroke:black"/>
<polygon points="94.200,45.575 94.200,46.575 80.200,46.575 80.200,45.575 79.400,45.575 79.400,42.475 80.200,42.475 80.200,36.675 79.400,36.675 79.400,33.575 80.200,33.575 80.200,32.575 94.200,32.575 94.200,33.575 95.000,33.575 95.000,36.675 94.200,36.675 94.200,42.475 95.000,42.475 95.000,45.575" style="fill:none;stroke-width:0.2;stroke:black"/>
<polygon points="98.962,64.625 98.962,65.625 84.962,65.625 84.962,64.625 84.162,64.625 84.162,61.525 84.962,61.525 84.962,55.725 84.162,55.725 84.162,52.625 84.962,52.625 84.962,51.625 98.962,51.625 98.962,52.625 99.762,52.625 99.762,55.725 98.962,55.725 98.962,61.525 99.762,61.525 99.762,64.625" style="fill:none;stroke-width:0.2;stroke:black"/>
<polygon points="103.725,26.525 103.725,27.525 89.725,27.525 89.725,26.525 88.925,26.525 88.925,23.425 89.725,23.425 89.725,17.625 88.925,17.625 88.925,14.525 89.725,14.525 89.725,13.525 103.725,13.525 103.725,14.525 104.525,14.525 104.525,17.625 103.725,17.625 103.725,23.425 104.525,23.425 104.525,26.525" style="fill:none;stroke-width:0.2;stroke:black"/>
<polygon points="108.488,83.675 108.488,84.675 94.488,84.675 94.488,83.675 93.688,83.675 93.688,80.575 94.488,80.575 94.488,74.775 93.688,74.775 93.688,71.675 94.488,71.675 94.488,70.675 108.488,70.675 108.488,71.675 109.288,71.675 109.288,74.775 108.488,74.775 108.488,80.575 109.288,80.575 109.288,83.675" style="fill:none;stroke-width:0.2;stroke:black"/>
<polygon points="113.250,45.575 113.250,46.575 99.250,46.575 99.250,45.575 98.450,45.575 98.450,42.475 99.250,42.475 99.250,36.675 98.450,36.675 98.450,33.575 99.250,33.575 99.250,32.575 113.250,32.575 113.250,33.575 114.050,33.575 114.050,36.675 113.250,36.675 113.250,42.475 114.050,42.475 114.050,45.575" style="fill:none;stroke-width:0.2;stroke:black"/>
<polygon points="118.012,64.625 118.012,65.625 104.012,65.625 104.012,64.625 103.212,64.625 103.212,61.525 104.012,61.525 104.012,55.725 103.212,55.725 103.212,52.625 104.012,52.625 104.012,51.625 118.012,51.625 118.012,52.625 118.812,52.625 118.812,55.725 118.012,55.725 118.012,61.525 118.812,61.525 118.812,64.625" style="fill:none;stroke-width:0.2;stroke:black"/>
<polygon points="122.775,26.525 122.775,27.525 108.775,27.525 108.775,26.525 107.975,26.525 107.975,23.425 108.775,23.425 108.775,17.625 107.975,17.625 107.975,14.525 108.775,14.525 108.775,13.525 122.775,13.525 122.775,14.525 123.575,14.525 123.575,17.625 122.775,17.625 122.775,23.425 123.575,23.425 123.575,26.525" style="fill:none;stroke-width:0.2;stroke:black"/>
<polygon points="127.538,83.675 127.538,84.675 113.538,84.675 113.538,83.675 112.738,83.675 112.738,80.575 113.538,80.575 113.538,74.775 112.738,74.775 112.738,71.675 113.538,71.675 113.538,70.675 127.538,70.675 127.538,71.675 128.338,71.675 128.338,74.775 127.538,74.775 127.538,80.575 128.338,80.575 128.338,83.675" style="fill:none;stroke-width:0.2;stroke:black"/>
<polygon points="132.300,45.575 132.300,46.575 118.300,46.575 118.300,45.575 117.500,45.575 117.500,42.475 118.300,42.475 118.300,36.675 117.500,36.675 117.500,33.575 118.300,33.575 118.300,32.575 132.300,32.575 132.300,33.575 133.100,33.575 133.100,36.675 132.300,36.675 132.300,42.475 133.100,42.475 133.100,45.575" style="fill:none;stroke-width:0.2;stroke:black"/>
<polygon points="137.062,64.625 137.062,65.625 123.062,65.625 123.062,64.625 122.263,64.625 122.263,61.525 123.062,61.525 123.062,55.725 122.263,55.725 122.263,52.625 123.062,52.625 123.062,51.625 137.062,51.625 137.062,52.625 137.863,52.625 137.863,55.725 137.062,55.725 137.062,61.525 137.863,61.525 137.863,64.625" style="fill:none;stroke-width:0.2;stroke:black"/>
<polygon points="141.825,26.525 141.825,27.525 127.825,27.525 127.825,26.525 127.025,26.525 127.025,23.425 127.825,23.425 127.825,17.625 127.025,17.625 127.025,14.525 127.825,14.525 127.825,13.525 141.825,13.525 141.825,14.525 142.625,14.525 142.625,17.625 141.825,17.625 141.825,23.425 142.625,23.425 142.625,26.525" style="fill:none;stroke-width:0.2;stroke:black"/>
<polygon points="146.588,83.675 146.588,84.675 132.588,84.675 132.588,83.675 131.787,83.675 131.787,80.575 132.588,80.575 132.588,74.775 131.787,74.775 131.787,71.675 132.588,71.675 132.588,70.675 146.588,70.675 146.588,71.675 147.388,71.675 147.388,74.775 146.588,74.775 146.588,80.575 147.388,80.575 147.388,83.675" style="fill:none;stroke-width:0.2;stroke:black"/>
<polygon points="151.350,45.575 151.350,46.575 137.350,46.575 137.350,45.575 136.550,45.575 136.550,42.475 137.350,42.475 137.350,36.675 136.550,36.675 136.550,33.575 137.350,33.575 137.350,32.575 151.350,32.575 151.350,33.575 152.150,33.575 152.150,36.675 151.350,36.675 151.350,42.475 152.150,42.475 152.150,45.575" style="fill:none;stroke-width:0.2;stroke:black"/>
<polygon points="156.113,64.625 156.113,65.625 142.113,65.625 142.113,64.625 141.312,64.625 141.312,61.525 142.113,61.525 142.113,55.725 141.312,55.725 141.312,52.625 142.113,52.625 142.113,51.625 156.113,51.625 156.113,52.625 156.913,52.625 156.913,55.725 156.113,55.725 156.113,61.525 156.913,61.525 156.913,64.625" style="fill:none;stroke-width:0.2;stroke:black"/>
<polygon points="160.875,26.525 160.875,27.525 146.875,27.525 146.875,26.525 146.075,26.525 146.075,23.425 146.875,23.425 146.875,17.625 146.075,17.625 146.075,14.525 146.875,14.525 146.875,13.525 160.875,13.525 160.875,14.525 161.675,14.525 161.675,17.625 160.875,17.625 160.875,23.425 161.675,23.425 161.675,26.525" style="fill:none;stroke-width:0.2;stroke:black"/>
<polygon points="165.638,83.675 165.638,84.675 151.638,84.675 151.638,83.675 150.838,83.675 150.838,80.575 151.638,80.575 151.638,74.775 150.838,74.775 150.838,71.675 151.638,71.675 151.638,70.675 165.638,70.675 165.638,71.675 166.438,71.675 166.438,74.775 165.638,74.775 165.638,80.575 166.438,80.575 166.438,83.675" style="fill:none;stroke-width:0.2;stroke:black"/>
<polygon points="170.400,45.575 170.400,46.575 156.400,46.575 156.400,45.575 155.600,45.575 155.600,42.475 156.400,42.475 156.400,36.675 155.600,36.675 155.600,33.575 156.400,33.575 156.400,32.575 170.400,32.575 170.400,33.575 171.200,33.575 171.200,36.675 170.400,36.675 170.400,42.475 171.200,42.475 171.200,45.575" style="fill:none;stroke-width:0.2;stroke:black"/>
<polygon points="175.163,64.625 175.163,65.625 161.163,65.625 161.163,64.625 160.363,64.625 160.363,61.525 161.163,61.525 161.163,55.725 160.363,55.725 160.363,52.625 161.163,52.625 161.163,51.625 175.163,51.625 175.163,52.625 175.963,52.625 175.963,55.725 175.163,55.725 175.163,61.525 175.963,61.525 175.963,64.625" style="fill:none;stroke-width:0.2;stroke:black"/>
<polygon points="179.925,26.525 179.925,27.525 165.925,27.525 165.925,26.525 165.125,26.525 165.125,23.425 165.925,23.425 165.925,17.625 165.125,17.625 165.125,14.525 165.925,14.525 165.925,13.525 179.925,13.525 179.925,14.525 180.725,14.525 180.725,17.625 179.925,17.625 179.925,23.425 180.725,23.425 180.725,26.525" style="fill:none;stroke-width:0.2;stroke:black"/>
<polygon points="184.688,83.675 184.688,84.675 170.688,84.675 170.688,83.675 169.888,83.675 169.888,80.575 170.688,80.575 170.688,74.775 169.888,74.775 169.888,71.675 170.688,71.675 170.688,70.675 184.688,70.675 184.688,71.675 185.488,71.675 185.488,74.775 184.688,74.775 184.688,80.575 185.488,80.575 185.488,83.675" style="fill:none;stroke-width:0.2;stroke:black"/>
<polygon points="189.450,45.575 189.450,46.575 175.450,46.575 175.450,45.575 174.650,45.575 174.650,42.475 175.450,42.475 175.450,36.675 174.650,36.675 174.650,33.575 175.450,33.575 175.450,32.575 189.450,32.575 189.450,33.575 190.250,33.575 190.250,36.675 189.450,36.675 189.450,42.475 190.250,42.475 190.250,45.575" style="fill:none;stroke-width:0.2;stroke:black"/>
<polygon points="194.213,64.625 194.213,65.625 180.213,65.625 180.213,64.625 179.413,64.625 179.413,61.525 180.213,61.525 180.213,55.725 179.413,55.725 179.413,52.625 180.213,52.625 180.213,51.625 194.213,51.625 194.213,52.625 195.013,52.625 195.013,55.725 194.213,55.725 194.213,61.525 195.013,61.525 195.013,64.625" style="fill:none;stroke-width:0.2;stroke:black"/>
<polygon points="195.294,97.225 195.294,103.495 193.619,103.495 193.619,104.695 190.319,104.695 190.319,103.495 188.644,103.495 188.644,99.025 148.969,99.025 148.969,99.625 149.769,99.625 149.769,102.725 148.969,102.725 148.969,103.725 134.969,103.725 134.969,102.725 134.169,102.725 134.169,99.625 134.969,99.625 134.969,99.025 95.294,99.025 95.294,103.495 93.619,103.495 93.619,104.695 90.319,104.695 90.319,103.495 88.644,103.495 88.644,97.225 87.769,97.225 87.769,94.425 88.644,94.425 88.644,91.195 95.294,91.195 95.294,94.425 134.969,94.425 134.969,93.825 134.169,93.825 134.169,90.725 134.969,90.725 134.969,89.725 148.969,89.725 148.969,90.725 149.769,90.725 149.769,93.825 148.969,93.825 148.969,94.425 188.644,94.425 188.644,91.195 195.294,91.195 195.294,94.425 196.169,94.425 196.169,97.225" style="fill:none;stroke-width:0.2;stroke:black"/>
<polygon points="198.975,26.525 198.975,27.525 184.975,27.525 184.975,26.525 184.175,26.525 184.175,23.425 184.975,23.425 184.975,17.625 184.175,17.625 184.175,14.525 184.975,14.525 184.975,13.525 198.975,13.525 198.975,14.525 199.775,14.525 199.775,17.625 198.975,17.625 198.975,23.425 199.775,23.425 199.775,26.525" style="fill:none;stroke-width:0.2;stroke:black"/>
<polygon points="203.738,83.675 203.738,84.675 189.738,84.675 189.738,83.675 188.938,83.675 188.938,80.575 189.738,80.575 189.738,74.775 188.938,74.775 188.938,71.675 189.738,71.675 189.738,70.675 203.738,70.675 203.738,71.675 204.538,71.675 204.538,74.775 203.738,74.775 203.738,80.575 204.538,80.575 204.538,83.675" style="fill:none;stroke-width:0.2;stroke:black"/>
<polygon points="208.500,45.575 208.500,46.575 194.500,46.575 194.500,45.575 193.700,45.575 193.700,42.475 194.500,42.475 194.500,36.675 193.700,36.675 193.700,33.575 194.500,33.575 194.500,32.575 208.500,32.575 208.500,33.575 209.300,33.575 209.300,36.675 208.500,36.675 208.500,42.475 209.300,42.475 209.300,45.575" style="fill:none;stroke-width:0.2;stroke:black"/>
<polygon points="213.263,64.625 213.263,65.625 199.263,65.625 199.263,64.625 198.463,64.625 198.463,61.525 199.263,61.525 199.263,55.725 198.463,55.725 198.463,52.625 199.263,52.625 199.263,51.625 213.263,51.625 213.263,52.625 214.063,52.625 214.063,55.725 213.263,55.725 213.263,61.525 214.063,61.525 214.063,64.625" style="fill:none;stroke-width:0.2;stroke:black"/>
<polygon points="218.025,26.525 218.025,27.525 204.025,27.525 204.025,26.525 203.225,26.525 203.225,23.425 204.025,23.425 204.025,17.625 203.225,17.625 203.225,14.525 204.025,14.525 204.025,13.525 218.025,13.525 218.025,14.525 218.825,14.525 218.825,17.625 218.025,17.625 218.025,23.425 218.825,23.425 218.825,26.525" style="fill:none;stroke-width:0.2;stroke:black"/>
<polygon points="220.406,102.725 220.406,103.725 206.406,103.725 206.406,102.725 205.606,102.725 205.606,99.625 206.406,99.625 206.406,93.825 205.606,93.825 205.606,90.725 206.406,90.725 206.406,89.725 220.406,89.725 220.406,90.725 221.206,90.725 221.206,93.825 220.406,93.825 220.406,99.625 221.206,99.625 221.206,102.725" style="fill:none;stroke-width:0.2;stroke:black"/>
<polygon points="222.788,83.675 222.788,84.675 208.788,84.675 208.788,83.675 207.988,83.675 207.988,80.575 208.788,80.575 208.788,74.775 207.988,74.775 207.988,71.675 208.788,71.675 208.788,70.675 222.788,70.675 222.788,71.675 223.588,71.675 223.588,74.775 222.788,74.775 222.788,80.575 223.588,80.575 223.588,83.675" style="fill:none;stroke-width:0.2;stroke:black"/>
<polygon points="227.550,45.575 227.550,46.575 213.550,46.575 213.550,45.575 212.750,45.575 212.750,42.475 213.550,42.475 213.550,36.675 212.750,36.675 212.750,33.575 213.550,33.575 213.550,32.575 227.550,32.575 227.550,33.575 228.350,33.575 228.350,36.675 227.550,36.675 227.550,42.475 228.350,42.475 228.350,45.575" style="fill:none;stroke-width:0.2;stroke:black"/>
<polygon points="232.313,64.625 232.313,65.625 218.313,65.625 218.313,64.625 217.513,64.625 217.513,61.525 218.313,61.525 218.313,55.725 217.513,55.725 217.513,52.625 218.313,52.625 218.313,51.625 232.313,51.625 232.313,52.625 233.113,52.625 233.113,55.725 232.313,55.725 232.313,61.525 233.113,61.525 233.113,64.625" style="fill:none;stroke-width:0.2;stroke:black"/>
<polygon points="237.075,26.525 237.075,27.525 223.075,27.525 223.075,26.525 222.275,26.525 222.275,23.425 223.075,23.425 223.075,17.625 222.275,17.625 222.275,14.525 223.075,14.525 223.075,13.525 237.075,13.525 237.075,14.525 237.875,14.525 237.875,17.625 237.075,17.625 237.075,23.425 237.875,23.425 237.875,26.525" style="fill:none;stroke-width:0.2;stroke:black"/>
<polygon points="241.838,83.675 241.838,84.675 227.838,84.675 227.838,83.675 227.038,83.675 227.038,80.575 227.838,80.575 227.838,74.775 227.038,74.775 227.038,71.675 227.838,71.675 227.838,70.675 241.838,70.675 241.838,71.675 242.638,71.675 242.638,74.775 241.838,74.775 241.838,80.575 242.638,80.575 242.638,83.675" style="fill:none;stroke-width:0.2;stroke:black"/>
<polygon points="244.219,102.725 244.219,103.725 230.219,103.725 230.219,102.725 229.419,102.725 229.419,99.625 230.219,99.625 230.219,93.825 229.419,93.825 229.419,90.725 230.219,90.725 230.219,89.725 244.219,89.725 244.219,90.725 245.019,90.725 245.019,93.825 244.219,93.825 244.219,99.625 245.019,99.625 245.019,102.725" style="fill:none;stroke-width:0.2;stroke:black"/>
<polygon points="246.600,45.575 246.600,46.575 232.600,46.575 232.600,45.575 231.800,45.575 231.800,42.475 232.600,42.475 232.600,36.675 231.800,36.675 231.800,33.575 232.600,33.575 232.600,32.575 246.600,32.575 246.600,33.575 247.400,33.575 247.400,36.675 246.600,36.675 246.600,42.475 247.400,42.475 247.400,45.575" style="fill:none;stroke-width:0.2;stroke:black"/>
<polygon points="251.363,64.625 251.363,65.625 237.363,65.625 237.363,64.625 236.563,64.625 236.563,61.525 237.363,61.525 237.363,55.725 236.563,55.725 236.563,52.625 237.363,52.625 237.363,51.625 251.363,51.625 251.363,52.625 252.163,52.625 252.163,55.725 251.363,55.725 251.363,61.525 252.163,61.525 252.163,64.625" style="fill:none;stroke-width:0.2;stroke:black"/>
<polygon points="256.125,26.525 256.125,27.525 242.125,27.525 242.125,26.525 241.325,26.525 241.325,23.425 242.125,23.425 242.125,17.625 241.325,17.625 241.325,14.525 242.125,14.525 242.125,13.525 256.125,13.525 256.125,14.525 256.925,14.525 256.925,17.625 256.125,17.625 256.125,23.425 256.925,23.425 256.925,26.525" style="fill:none;stroke-width:0.2;stroke:black"/>
<polygon points="265.650,45.575 265.650,46.575 251.650,46.575 251.650,45.575 250.850,45.575 250.850,42.475 251.650,42.475 251.650,36.675 250.850,36.675 250.850,33.575 251.650,33.575 251.650,32.575 265.650,32.575 265.650,33.575 266.450,33.575 266.450,36.675 265.650,36.675 265.650,42.475 266.450,42.475 266.450,45.575" style="fill:none;stroke-width:0.2;stroke:black"/>
<polygon points="268.031,102.725 268.031,103.725 254.031,103.725 254.031,102.725 253.231,102.725 253.231,99.625 254.031,99.625 254.031,93.825 253.231,93.825 253.231,90.725 254.031,90.725 254.031,89.725 268.031,89.725 268.031,90.725 268.831,90.725 268.831,93.825 268.031,93.825 268.031,99.625 268.831,99.625 268.831,102.725" style="fill:none;stroke-width:0.2;stroke:black"/>
<polygon points="268.031,83.675 268.031,84.675 254.031,84.675 254.031,83.675 253.231,83.675 253.231,80.575 254.031,80.575 254.031,74.775 253.231,74.775 253.231,71.675 254.031,71.675 254.031,70.675 268.031,70.675 268.031,71.675 268.831,71.675 268.831,74.775 268.031,74.775 268.031,80.575 268.831,80.575 268.831,83.675" style="fill:none;stroke-width:0.2;stroke:black"/>
<polygon points="289.463,45.575 289.463,46.575 275.463,46.575 275.463,45.575 274.663,45.575 274.663,42.475 275.463,42.475 275.463,36.675 274.663,36.675 274.663,33.575 275.463,33.575 275.463,32.575 289.463,32.575 289.463,33.575 290.263,33.575 290.263,36.675 289.463,36.675 289.463,42.475 290.263,42.475 290.263,45.575" style="fill:none;stroke-width:0.2;stroke:black"/>
<polygon points="290.544,59.125 290.544,65.395 288.919,65.395 288.919,66.595 285.619,66.595 285.619,65.395 283.894,65.395 283.894,64.595 283.119,64.595 283.119,64.625 282.319,64.625 282.319,65.625 268.319,65.625 268.319,64.625 267.519,64.625 267.519,64.595 266.744,64.595 266.744,65.395 265.019,65.395 265.019,66.595 261.719,66.595 261.719,65.395 260.094,65.395 260.094,59.125 259.219,59.125 259.219,56.325 260.094,56.325 260.094,53.095 266.744,53.095 266.744,53.895 267.519,53.895 267.519,52.625 268.319,52.625 268.319,51.625 282.319,51.625 282.319,52.625 283.119,52.625 283.119,53.895 283.894,53.895 283.894,53.095 290.544,53.095 290.544,56.325 291.419,56.325 291.419,59.125" style="fill:none;stroke-width:0.2;stroke:black"/>
<polygon points="291.844,102.725 291.844,103.725 277.844,103.725 277.844,102.725 277.044,102.725 277.044,99.625 277.844,99.625 277.844,93.825 277.044,93.825 277.044,90.725 277.844,90.725 277.844,89.725 291.844,89.725 291.844,90.725 292.644,90.725 292.644,93.825 291.844,93.825 291.844,99.625 292.644,99.625 292.644,102.725" style="fill:none;stroke-width:0.2;stroke:black"/>
<polygon points="292.925,21.025 292.925,27.295 291.300,27.295 291.300,28.495 288.000,28.495 288.000,27.295 286.275,27.295 286.275,26.495 285.500,26.495 285.500,26.525 284.700,26.525 284.700,27.525 270.700,27.525 270.700,26.525 269.900,26.525 269.900,26.495 269.125,26.495 269.125,27.295 267.400,27.295 267.400,28.495 264.100,28.495 264.100,27.295 262.475,27.295 262.475,21.025 261.600,21.025 261.600,18.225 262.475,18.225 262.475,14.995 269.125,14.995 269.125,15.795 269.900,15.795 269.900,14.525 270.700,14.525 270.700,13.525 284.700,13.525 284.700,14.525 285.500,14.525 285.500,15.795 286.275,15.795 286.275,14.995 292.925,14.995 292.925,18.225 293.800,18.225 293.800,21.025" style="fill:none;stroke-width:0.2;stroke:black"/>
<polygon points="294.225,83.675 294.225,84.675 280.225,84.675 280.225,83.675 279.425,83.675 279.425,80.575 280.225,80.575 280.225,74.775 279.425,74.775 279.425,71.675 280.225,71.675 280.225,70.675 294.225,70.675 294.225,71.675 295.025,71.675 295.025,74.775 294.225,74.775 294.225,80.575 295.025,80.575 295.025,83.675" style="fill:none;stroke-width:0.2;stroke:black"/>
</svg>
