  0
SECTION
  2
HEADER
  9
$ACADVER
  1
AC1014
  9
$HANDSEED
  5
FFFF
  9
$MEASUREMENT
 70
     1
  0
ENDSEC
  0
SECTION
  2
TABLES
  0
TABLE
  2
VPORT
  5
8
330
0
100
AcDbSymbolTable
 70
     4
  0
VPORT
  5
2E
330
8
100
AcDbSymbolTableRecord
100
AcDbViewportTableRecord
  2
*ACTIVE
 70
     0
 10
0.0
 20
0.0
 11
1.0
 21
1.0
 12
210.0
 22
148.5
 13
0.0
 23
0.0
 14
10.0
 24
10.0
 15
10.0
 25
10.0
 16
0.0
 26
0.0
 36
1.0
 17
0.0
 27
0.0
 37
0.0
 40
341.0
 41
1.24
 42
50.0
 43
0.0
 44
0.0
 50
0.0
 51
0.0
 71
     0
 72
   100
 73
     1
 74
     3
 75
     0
 76
     0
 77
     0
 78
     0
  0
ENDTAB
  0
TABLE
  2
LTYPE
  5
5
330
0
100
AcDbSymbolTable
 70
     1
  0
LTYPE
  5
14
330
5
100
AcDbSymbolTableRecord
100
AcDbLinetypeTableRecord
  2
BYBLOCK
 70
     0
  3

 72
    65
 73
     0
 40
0.0
  0
LTYPE
  5
15
330
5
100
AcDbSymbolTableRecord
100
AcDbLinetypeTableRecord
  2
BYLAYER
 70
     0
  3

 72
    65
 73
     0
 40
0.0
  0
LTYPE
  5
16
330
5
100
AcDbSymbolTableRecord
100
AcDbLinetypeTableRecord
  2
CONTINUOUS
 70
     0
  3
Solid line
 72
    65
 73
     0
 40
0.0
  0
ENDTAB
  0
TABLE
  2
LAYER
  5
2
100
AcDbSymbolTable
 70
2
  0
LAYER
  5
50
100
AcDbSymbolTableRecord
100
AcDbLayerTableRecord
  2
0
 70
0
  6
CONTINUOUS
  0
LAYER
  5
51
100
AcDbSymbolTableRecord
100
AcDbLayerTableRecord
  2
Layer_1
 70
0
  6
CONTINUOUS
  0
ENDTAB
  0
TABLE
  2
STYLE
  5
3
330
0
100
AcDbSymbolTable
 70
     1
  0
STYLE
  5
11
330
3
100
AcDbSymbolTableRecord
100
AcDbTextStyleTableRecord
  2
STANDARD
 70
     0
 40
0.0
 41
1.0
 50
0.0
 71
     0
 42
2.5
  3
txt
  4

  0
ENDTAB
  0
TABLE
  2
VIEW
  5
6
330
0
100
AcDbSymbolTable
 70
     0
  0
ENDTAB
  0
TABLE
  2
UCS
  5
7
330
0
100
AcDbSymbolTable
 70
     0
  0
ENDTAB
  0
TABLE
  2
APPID
  5
9
330
0
100
AcDbSymbolTable
 70
     2
  0
APPID
  5
12
330
9
100
AcDbSymbolTableRecord
100
AcDbRegAppTableRecord
  2
ACAD
 70
     0
  0
ENDTAB
  0
TABLE
  2
DIMSTYLE
  5
A
330
0
100
AcDbSymbolTable
 70
     1
  0
DIMSTYLE
105
27
330
A
100
AcDbSymbolTableRecord
100
AcDbDimStyleTableRecord
  2
ISO-25
 70
     0
  3

  4

  5

  6

  7

 40
1.0
 41
2.5
 42
0.625
 43
3.75
 44
1.25
 45
0.0
 46
0.0
 47
0.0
 48
0.0
140
2.5
141
2.5
142
0.0
143
0.03937007874016
144
1.0
145
0.0
146
1.0
147
0.625
 71
     0
 72
     0
 73
     0
 74
     0
 75
     0
 76
     0
 77
     1
 78
     8
170
     0
171
     3
172
     1
173
     0
174
     0
175
     0
176
     0
177
     0
178
     0
270
     2
271
     2
272
     2
273
     2
274
     3
340
11
275
     0
280
     0
281
     0
282
     0
283
     0
284
     8
285
     0
286
     0
287
     3
288
     0
  0
ENDTAB
  0
TABLE
  2
BLOCK_RECORD
  5
1
330
0
100
AcDbSymbolTable
 70
     1
  0
BLOCK_RECORD
  5
1F
330
1
100
AcDbSymbolTableRecord
100
AcDbBlockTableRecord
  2
*MODEL_SPACE
  0
BLOCK_RECORD
  5
1B
330
1
100
AcDbSymbolTableRecord
100
AcDbBlockTableRecord
  2
*PAPER_SPACE
  0
ENDTAB
  0
ENDSEC
  0
SECTION
  2
BLOCKS
  0
BLOCK
  5
20
330
1F
100
AcDbEntity
  8
0
100
AcDbBlockBegin
  2
*MODEL_SPACE
 70
     0
 10
0.0
 20
0.0
 30
0.0
  3
*MODEL_SPACE
  1

  0
ENDBLK
  5
21
330
1F
100
AcDbEntity
  8
0
100
AcDbBlockEnd
  0
BLOCK
  5
1C
330
1B
100
AcDbEntity
 67
     1
  8
0
100
AcDbBlockBegin
  2
*PAPER_SPACE
  1

  0
ENDBLK
  5
1D
330
1B
100
AcDbEntity
 67
     1
  8
0
100
AcDbBlockEnd
  0
ENDSEC
  0
SECTION
  2
ENTITIES
  0
LWPOLYLINE
  5
100
100
AcDbEntity
  8
Layer_1
 62
7
100
AcDbPolyline
 90
85
 70
1
 10
11.722520
 20
13.164194
 30
0.0
 10
11.724213
 20
13.158250
 30
0.0
 10
11.725394
 20
13.152187
 30
0.0
 10
11.726142
 20
13.146045
 30
0.0
 10
11.726378
 20
13.139864
 30
0.0
 10
11.726378
 20
9.074903
 30
0.0
 10
11.726142
 20
9.068722
 30
0.0
 10
11.725394
 20
9.062580
 30
0.0
 10
11.724213
 20
9.056517
 30
0.0
 10
11.722520
 20
9.050572
 30
0.0
 10
11.720394
 20
9.044785
 30
0.0
 10
11.717795
 20
9.039155
 30
0.0
 10
11.714764
 20
9.033761
 30
0.0
 10
11.711339
 20
9.028604
 30
0.0
 10
11.707520
 20
9.023761
 30
0.0
 10
11.703307
 20
9.019234
 30
0.0
 10
11.698780
 20
9.015021
 30
0.0
 10
11.693937
 20
9.011202
 30
0.0
 10
11.688780
 20
9.007777
 30
0.0
 10
11.683386
 20
9.004746
 30
0.0
 10
11.677756
 20
9.002147
 30
0.0
 10
11.671969
 20
9.000021
 30
0.0
 10
11.666024
 20
8.998328
 30
0.0
 10
11.659961
 20
8.997147
 30
0.0
 10
11.653819
 20
8.996399
 30
0.0
 10
11.647638
 20
8.996163
 30
0.0
 10
0.082677
 20
8.996163
 30
0.0
 10
0.076496
 20
8.996399
 30
0.0
 10
0.070354
 20
8.997147
 30
0.0
 10
0.064291
 20
8.998328
 30
0.0
 10
0.058346
 20
9.000021
 30
0.0
 10
0.052559
 20
9.002147
 30
0.0
 10
0.046929
 20
9.004746
 30
0.0
 10
0.041535
 20
9.007777
 30
0.0
 10
0.036378
 20
9.011202
 30
0.0
 10
0.031535
 20
9.015021
 30
0.0
 10
0.027008
 20
9.019234
 30
0.0
 10
0.022795
 20
9.023761
 30
0.0
 10
0.018976
 20
9.028604
 30
0.0
 10
0.015551
 20
9.033761
 30
0.0
 10
0.012520
 20
9.039155
 30
0.0
 10
0.009921
 20
9.044785
 30
0.0
 10
0.007795
 20
9.050572
 30
0.0
 10
0.006102
 20
9.056517
 30
0.0
 10
0.004921
 20
9.062580
 30
0.0
 10
0.004173
 20
9.068722
 30
0.0
 10
0.003937
 20
9.074903
 30
0.0
 10
0.003937
 20
13.139864
 30
0.0
 10
0.004173
 20
13.146045
 30
0.0
 10
0.004921
 20
13.152187
 30
0.0
 10
0.006102
 20
13.158250
 30
0.0
 10
0.007795
 20
13.164194
 30
0.0
 10
0.009921
 20
13.169982
 30
0.0
 10
0.012520
 20
13.175612
 30
0.0
 10
0.015551
 20
13.181005
 30
0.0
 10
0.018976
 20
13.186163
 30
0.0
 10
0.022795
 20
13.191005
 30
0.0
 10
0.027008
 20
13.195533
 30
0.0
 10
0.031535
 20
13.199746
 30
0.0
 10
0.036378
 20
13.203565
 30
0.0
 10
0.041535
 20
13.206990
 30
0.0
 10
0.046929
 20
13.210021
 30
0.0
 10
0.052559
 20
13.212620
 30
0.0
 10
0.058346
 20
13.214746
 30
0.0
 10
0.064291
 20
13.216439
 30
0.0
 10
0.070354
 20
13.217620
 30
0.0
 10
0.076496
 20
13.218368
 30
0.0
 10
0.082677
 20
13.218604
 30
0.0
 10
11.647638
 20
13.218604
 30
0.0
 10
11.653819
 20
13.218368
 30
0.0
 10
11.659961
 20
13.217620
 30
0.0
 10
11.666024
 20
13.216439
 30
0.0
 10
11.671969
 20
13.214746
 30
0.0
 10
11.677756
 20
13.212620
 30
0.0
 10
11.683386
 20
13.210021
 30
0.0
 10
11.688780
 20
13.206990
 30
0.0
 10
11.693937
 20
13.203565
 30
0.0
 10
11.698780
 20
13.199746
 30
0.0
 10
11.703307
 20
13.195533
 30
0.0
 10
11.707520
 20
13.191005
 30
0.0
 10
11.711339
 20
13.186163
 30
0.0
 10
11.714764
 20
13.181005
 30
0.0
 10
11.717795
 20
13.175612
 30
0.0
 10
11.720394
 20
13.169982
 30
0.0
 10
11.722520
 20
13.164194
 30
0.0
  0
LWPOLYLINE
  5
101
100
AcDbEntity
  8
Layer_1
 62
7
100
AcDbPolyline
 90
21
 70
1
 10
2.956142
 20
13.112659
 30
0.0
 10
2.961732
 20
13.123643
 30
0.0
 10
2.970472
 20
13.132344
 30
0.0
 10
2.981417
 20
13.137935
 30
0.0
 10
2.993622
 20
13.139864
 30
0.0
 10
3.005787
 20
13.137935
 30
0.0
 10
3.016732
 20
13.132344
 30
0.0
 10
3.025472
 20
13.123643
 30
0.0
 10
3.031063
 20
13.112659
 30
0.0
 10
3.032992
 20
13.100494
 30
0.0
 10
3.031063
 20
13.088328
 30
0.0
 10
3.025472
 20
13.077344
 30
0.0
 10
3.016732
 20
13.068643
 30
0.0
 10
3.005787
 20
13.063053
 30
0.0
 10
2.993622
 20
13.061124
 30
0.0
 10
2.981417
 20
13.063053
 30
0.0
 10
2.970472
 20
13.068643
 30
0.0
 10
2.961732
 20
13.077344
 30
0.0
 10
2.956142
 20
13.088328
 30
0.0
 10
2.954252
 20
13.100494
 30
0.0
 10
2.956142
 20
13.112659
 30
0.0
  0
LWPOLYLINE
  5
102
100
AcDbEntity
  8
Layer_1
 62
7
100
AcDbPolyline
 90
21
 70
1
 10
5.827717
 20
13.112659
 30
0.0
 10
5.833307
 20
13.123643
 30
0.0
 10
5.842008
 20
13.132344
 30
0.0
 10
5.852992
 20
13.137935
 30
0.0
 10
5.865158
 20
13.139864
 30
0.0
 10
5.877323
 20
13.137935
 30
0.0
 10
5.888307
 20
13.132344
 30
0.0
 10
5.897008
 20
13.123643
 30
0.0
 10
5.902598
 20
13.112659
 30
0.0
 10
5.904528
 20
13.100494
 30
0.0
 10
5.902598
 20
13.088328
 30
0.0
 10
5.897008
 20
13.077344
 30
0.0
 10
5.888307
 20
13.068643
 30
0.0
 10
5.877323
 20
13.063053
 30
0.0
 10
5.865158
 20
13.061124
 30
0.0
 10
5.852992
 20
13.063053
 30
0.0
 10
5.842008
 20
13.068643
 30
0.0
 10
5.833307
 20
13.077344
 30
0.0
 10
5.827717
 20
13.088328
 30
0.0
 10
5.825787
 20
13.100494
 30
0.0
 10
5.827717
 20
13.112659
 30
0.0
  0
LWPOLYLINE
  5
103
100
AcDbEntity
  8
Layer_1
 62
7
100
AcDbPolyline
 90
21
 70
1
 10
8.699252
 20
13.112659
 30
0.0
 10
8.704843
 20
13.123643
 30
0.0
 10
8.713583
 20
13.132344
 30
0.0
 10
8.724528
 20
13.137935
 30
0.0
 10
8.736732
 20
13.139864
 30
0.0
 10
8.748898
 20
13.137935
 30
0.0
 10
8.759843
 20
13.132344
 30
0.0
 10
8.768583
 20
13.123643
 30
0.0
 10
8.774173
 20
13.112659
 30
0.0
 10
8.776102
 20
13.100494
 30
0.0
 10
8.774173
 20
13.088328
 30
0.0
 10
8.768583
 20
13.077344
 30
0.0
 10
8.759843
 20
13.068643
 30
0.0
 10
8.748898
 20
13.063053
 30
0.0
 10
8.736732
 20
13.061124
 30
0.0
 10
8.724528
 20
13.063053
 30
0.0
 10
8.713583
 20
13.068643
 30
0.0
 10
8.704843
 20
13.077344
 30
0.0
 10
8.699252
 20
13.088328
 30
0.0
 10
8.697362
 20
13.100494
 30
0.0
 10
8.699252
 20
13.112659
 30
0.0
  0
LWPOLYLINE
  5
104
100
AcDbEntity
  8
Layer_1
 62
7
100
AcDbPolyline
 90
21
 70
1
 10
11.570827
 20
13.112659
 30
0.0
 10
11.576417
 20
13.123643
 30
0.0
 10
11.585118
 20
13.132344
 30
0.0
 10
11.596102
 20
13.137935
 30
0.0
 10
11.608268
 20
13.139864
 30
0.0
 10
11.620433
 20
13.137935
 30
0.0
 10
11.631417
 20
13.132344
 30
0.0
 10
11.640118
 20
13.123643
 30
0.0
 10
11.645709
 20
13.112659
 30
0.0
 10
11.647638
 20
13.100494
 30
0.0
 10
11.645709
 20
13.088328
 30
0.0
 10
11.640118
 20
13.077344
 30
0.0
 10
11.631417
 20
13.068643
 30
0.0
 10
11.620433
 20
13.063053
 30
0.0
 10
11.608268
 20
13.061124
 30
0.0
 10
11.596102
 20
13.063053
 30
0.0
 10
11.585118
 20
13.068643
 30
0.0
 10
11.576417
 20
13.077344
 30
0.0
 10
11.570827
 20
13.088328
 30
0.0
 10
11.568898
 20
13.100494
 30
0.0
 10
11.570827
 20
13.112659
 30
0.0
  0
LWPOLYLINE
  5
105
100
AcDbEntity
  8
Layer_1
 62
7
100
AcDbPolyline
 90
21
 70
1
 10
11.570827
 20
11.119549
 30
0.0
 10
11.576417
 20
11.130533
 30
0.0
 10
11.585118
 20
11.139234
 30
0.0
 10
11.596102
 20
11.144824
 30
0.0
 10
11.608268
 20
11.146753
 30
0.0
 10
11.620433
 20
11.144824
 30
0.0
 10
11.631417
 20
11.139234
 30
0.0
 10
11.640118
 20
11.130533
 30
0.0
 10
11.645709
 20
11.119549
 30
0.0
 10
11.647638
 20
11.107383
 30
0.0
 10
11.645709
 20
11.095218
 30
0.0
 10
11.640118
 20
11.084234
 30
0.0
 10
11.631417
 20
11.075533
 30
0.0
 10
11.620433
 20
11.069942
 30
0.0
 10
11.608268
 20
11.068013
 30
0.0
 10
11.596102
 20
11.069942
 30
0.0
 10
11.585118
 20
11.075533
 30
0.0
 10
11.576417
 20
11.084234
 30
0.0
 10
11.570827
 20
11.095218
 30
0.0
 10
11.568898
 20
11.107383
 30
0.0
 10
11.570827
 20
11.119549
 30
0.0
  0
LWPOLYLINE
  5
106
100
AcDbEntity
  8
Layer_1
 62
7
100
AcDbPolyline
 90
21
 70
1
 10
11.570827
 20
9.126439
 30
0.0
 10
11.576417
 20
9.137423
 30
0.0
 10
11.585118
 20
9.146124
 30
0.0
 10
11.596102
 20
9.151714
 30
0.0
 10
11.608268
 20
9.153643
 30
0.0
 10
11.620433
 20
9.151714
 30
0.0
 10
11.631417
 20
9.146124
 30
0.0
 10
11.640118
 20
9.137423
 30
0.0
 10
11.645709
 20
9.126439
 30
0.0
 10
11.647638
 20
9.114273
 30
0.0
 10
11.645709
 20
9.102108
 30
0.0
 10
11.640118
 20
9.091124
 30
0.0
 10
11.631417
 20
9.082423
 30
0.0
 10
11.620433
 20
9.076832
 30
0.0
 10
11.608268
 20
9.074903
 30
0.0
 10
11.596102
 20
9.076832
 30
0.0
 10
11.585118
 20
9.082423
 30
0.0
 10
11.576417
 20
9.091124
 30
0.0
 10
11.570827
 20
9.102108
 30
0.0
 10
11.568898
 20
9.114273
 30
0.0
 10
11.570827
 20
9.126439
 30
0.0
  0
LWPOLYLINE
  5
107
100
AcDbEntity
  8
Layer_1
 62
7
100
AcDbPolyline
 90
21
 70
1
 10
8.699252
 20
9.126439
 30
0.0
 10
8.704843
 20
9.137423
 30
0.0
 10
8.713583
 20
9.146124
 30
0.0
 10
8.724528
 20
9.151714
 30
0.0
 10
8.736732
 20
9.153643
 30
0.0
 10
8.748898
 20
9.151714
 30
0.0
 10
8.759843
 20
9.146124
 30
0.0
 10
8.768583
 20
9.137423
 30
0.0
 10
8.774173
 20
9.126439
 30
0.0
 10
8.776102
 20
9.114273
 30
0.0
 10
8.774173
 20
9.102108
 30
0.0
 10
8.768583
 20
9.091124
 30
0.0
 10
8.759843
 20
9.082423
 30
0.0
 10
8.748898
 20
9.076832
 30
0.0
 10
8.736732
 20
9.074903
 30
0.0
 10
8.724528
 20
9.076832
 30
0.0
 10
8.713583
 20
9.082423
 30
0.0
 10
8.704843
 20
9.091124
 30
0.0
 10
8.699252
 20
9.102108
 30
0.0
 10
8.697362
 20
9.114273
 30
0.0
 10
8.699252
 20
9.126439
 30
0.0
  0
LWPOLYLINE
  5
108
100
AcDbEntity
  8
Layer_1
 62
7
100
AcDbPolyline
 90
21
 70
1
 10
5.827717
 20
9.126439
 30
0.0
 10
5.833307
 20
9.137423
 30
0.0
 10
5.842008
 20
9.146124
 30
0.0
 10
5.852992
 20
9.151714
 30
0.0
 10
5.865158
 20
9.153643
 30
0.0
 10
5.877323
 20
9.151714
 30
0.0
 10
5.888307
 20
9.146124
 30
0.0
 10
5.897008
 20
9.137423
 30
0.0
 10
5.902598
 20
9.126439
 30
0.0
 10
5.904528
 20
9.114273
 30
0.0
 10
5.902598
 20
9.102108
 30
0.0
 10
5.897008
 20
9.091124
 30
0.0
 10
5.888307
 20
9.082423
 30
0.0
 10
5.877323
 20
9.076832
 30
0.0
 10
5.865158
 20
9.074903
 30
0.0
 10
5.852992
 20
9.076832
 30
0.0
 10
5.842008
 20
9.082423
 30
0.0
 10
5.833307
 20
9.091124
 30
0.0
 10
5.827717
 20
9.102108
 30
0.0
 10
5.825787
 20
9.114273
 30
0.0
 10
5.827717
 20
9.126439
 30
0.0
  0
LWPOLYLINE
  5
109
100
AcDbEntity
  8
Layer_1
 62
7
100
AcDbPolyline
 90
21
 70
1
 10
2.956142
 20
9.126439
 30
0.0
 10
2.961732
 20
9.137423
 30
0.0
 10
2.970472
 20
9.146124
 30
0.0
 10
2.981417
 20
9.151714
 30
0.0
 10
2.993622
 20
9.153643
 30
0.0
 10
3.005787
 20
9.151714
 30
0.0
 10
3.016732
 20
9.146124
 30
0.0
 10
3.025472
 20
9.137423
 30
0.0
 10
3.031063
 20
9.126439
 30
0.0
 10
3.032992
 20
9.114273
 30
0.0
 10
3.031063
 20
9.102108
 30
0.0
 10
3.025472
 20
9.091124
 30
0.0
 10
3.016732
 20
9.082423
 30
0.0
 10
3.005787
 20
9.076832
 30
0.0
 10
2.993622
 20
9.074903
 30
0.0
 10
2.981417
 20
9.076832
 30
0.0
 10
2.970472
 20
9.082423
 30
0.0
 10
2.961732
 20
9.091124
 30
0.0
 10
2.956142
 20
9.102108
 30
0.0
 10
2.954252
 20
9.114273
 30
0.0
 10
2.956142
 20
9.126439
 30
0.0
  0
LWPOLYLINE
  5
10a
100
AcDbEntity
  8
Layer_1
 62
7
100
AcDbPolyline
 90
21
 70
1
 10
0.084606
 20
9.126439
 30
0.0
 10
0.090197
 20
9.137423
 30
0.0
 10
0.098898
 20
9.146124
 30
0.0
 10
0.109882
 20
9.151714
 30
0.0
 10
0.122047
 20
9.153643
 30
0.0
 10
0.134213
 20
9.151714
 30
0.0
 10
0.145197
 20
9.146124
 30
0.0
 10
0.153898
 20
9.137423
 30
0.0
 10
0.159488
 20
9.126439
 30
0.0
 10
0.161417
 20
9.114273
 30
0.0
 10
0.159488
 20
9.102108
 30
0.0
 10
0.153898
 20
9.091124
 30
0.0
 10
0.145197
 20
9.082423
 30
0.0
 10
0.134213
 20
9.076832
 30
0.0
 10
0.122047
 20
9.074903
 30
0.0
 10
0.109882
 20
9.076832
 30
0.0
 10
0.098898
 20
9.082423
 30
0.0
 10
0.090197
 20
9.091124
 30
0.0
 10
0.084606
 20
9.102108
 30
0.0
 10
0.082677
 20
9.114273
 30
0.0
 10
0.084606
 20
9.126439
 30
0.0
  0
LWPOLYLINE
  5
10b
100
AcDbEntity
  8
Layer_1
 62
7
100
AcDbPolyline
 90
21
 70
1
 10
0.084606
 20
11.119549
 30
0.0
 10
0.090197
 20
11.130533
 30
0.0
 10
0.098898
 20
11.139234
 30
0.0
 10
0.109882
 20
11.144824
 30
0.0
 10
0.122047
 20
11.146753
 30
0.0
 10
0.134213
 20
11.144824
 30
0.0
 10
0.145197
 20
11.139234
 30
0.0
 10
0.153898
 20
11.130533
 30
0.0
 10
0.159488
 20
11.119549
 30
0.0
 10
0.161417
 20
11.107383
 30
0.0
 10
0.159488
 20
11.095218
 30
0.0
 10
0.153898
 20
11.084234
 30
0.0
 10
0.145197
 20
11.075533
 30
0.0
 10
0.134213
 20
11.069942
 30
0.0
 10
0.122047
 20
11.068013
 30
0.0
 10
0.109882
 20
11.069942
 30
0.0
 10
0.098898
 20
11.075533
 30
0.0
 10
0.090197
 20
11.084234
 30
0.0
 10
0.084606
 20
11.095218
 30
0.0
 10
0.082677
 20
11.107383
 30
0.0
 10
0.084606
 20
11.119549
 30
0.0
  0
LWPOLYLINE
  5
10c
100
AcDbEntity
  8
Layer_1
 62
7
100
AcDbPolyline
 90
21
 70
1
 10
0.084606
 20
13.112659
 30
0.0
 10
0.090197
 20
13.123643
 30
0.0
 10
0.098898
 20
13.132344
 30
0.0
 10
0.109882
 20
13.137935
 30
0.0
 10
0.122047
 20
13.139864
 30
0.0
 10
0.134213
 20
13.137935
 30
0.0
 10
0.145197
 20
13.132344
 30
0.0
 10
0.153898
 20
13.123643
 30
0.0
 10
0.159488
 20
13.112659
 30
0.0
 10
0.161417
 20
13.100494
 30
0.0
 10
0.159488
 20
13.088328
 30
0.0
 10
0.153898
 20
13.077344
 30
0.0
 10
0.145197
 20
13.068643
 30
0.0
 10
0.134213
 20
13.063053
 30
0.0
 10
0.122047
 20
13.061124
 30
0.0
 10
0.109882
 20
13.063053
 30
0.0
 10
0.098898
 20
13.068643
 30
0.0
 10
0.090197
 20
13.077344
 30
0.0
 10
0.084606
 20
13.088328
 30
0.0
 10
0.082677
 20
13.100494
 30
0.0
 10
0.084606
 20
13.112659
 30
0.0
  0
ENDSEC
  0
SECTION
  2
OBJECTS
  0
DICTIONARY
  5
C
330
0
100
AcDbDictionary
  3
ACAD_GROUP
350
D
  3
ACAD_MLINESTYLE
350
17
  0
DICTIONARY
  5
D
330
C
100
AcDbDictionary
  0
DICTIONARY
  5
1A
330
C
100
AcDbDictionary
  0
DICTIONARY
  5
17
330
C
100
AcDbDictionary
  3
STANDARD
350
18
  0
DICTIONARY
  5
19
330
C
100
AcDbDictionary
  0
ENDSEC
  0
EOF
