<?xml version="1.0"?>
<!-- Generated by SVGo -->
<svg width="307.750mm" height="117.250mm"
     viewBox="0.000 0.000 307.750 117.250"
     xmlns="http://www.w3.org/2000/svg" 
     xmlns:xlink="http://www.w3.org/1999/xlink">
<polygon points="300.750,5.000 300.907,5.006 301.063,5.025 301.217,5.055 301.368,5.098 301.515,5.152 301.658,5.218 301.795,5.295 301.926,5.382 302.049,5.479 302.164,5.586 302.271,5.701 302.368,5.824 302.455,5.955 302.532,6.092 302.598,6.235 302.652,6.382 302.695,6.533 302.725,6.687 302.744,6.843 302.750,7.000 302.750,110.250 302.744,110.407 302.725,110.563 302.695,110.717 302.652,110.868 302.598,111.015 302.532,111.158 302.455,111.295 302.368,111.426 302.271,111.549 302.164,111.664 302.049,111.771 301.926,111.868 301.795,111.955 301.658,112.032 301.515,112.098 301.368,112.152 301.217,112.195 301.063,112.225 300.907,112.244 300.750,112.250 7.000,112.250 6.843,112.244 6.687,112.225 6.533,112.195 6.382,112.152 6.235,112.098 6.092,112.032 5.955,111.955 5.824,111.868 5.701,111.771 5.586,111.664 5.479,111.549 5.382,111.426 5.295,111.295 5.218,111.158 5.152,111.015 5.098,110.868 5.055,110.717 5.025,110.563 5.006,110.407 5.000,110.250 5.000,7.000 5.006,6.843 5.025,6.687 5.055,6.533 5.098,6.382 5.152,6.235 5.218,6.092 5.295,5.955 5.382,5.824 5.479,5.701 5.586,5.586 5.701,5.479 5.824,5.382 5.955,5.295 6.092,5.218 6.235,5.152 6.382,5.098 6.533,5.055 6.687,5.025 6.843,5.006 7.000,5.000" style="fill:none;stroke-width:0.2;stroke:black"/>
<polygon points="80.938,7.000 81.247,7.049 81.525,7.191 81.747,7.412 81.889,7.691 81.938,8.000 81.889,8.309 81.747,8.588 81.525,8.809 81.247,8.951 80.938,9.000 80.628,8.951 80.350,8.809 80.128,8.588 79.986,8.309 79.938,8.000 79.986,7.691 80.128,7.412 80.350,7.191 80.628,7.049" style="fill:none;stroke-width:0.2;stroke:black"/>
<polygon points="153.875,7.000 154.184,7.049 154.463,7.191 154.684,7.412 154.826,7.691 154.875,8.000 154.826,8.309 154.684,8.588 154.463,8.809 154.184,8.951 153.875,9.000 153.566,8.951 153.287,8.809 153.066,8.588 152.924,8.309 152.875,8.000 152.924,7.691 153.066,7.412 153.287,7.191 153.566,7.049" style="fill:none;stroke-width:0.2;stroke:black"/>
<polygon points="226.813,7.000 227.122,7.049 227.400,7.191 227.622,7.412 227.764,7.691 227.813,8.000 227.764,8.309 227.622,8.588 227.400,8.809 227.122,8.951 226.813,9.000 226.503,8.951 226.225,8.809 226.003,8.588 225.861,8.309 225.813,8.000 225.861,7.691 226.003,7.412 226.225,7.191 226.503,7.049" style="fill:none;stroke-width:0.2;stroke:black"/>
<polygon points="299.750,7.000 300.059,7.049 300.338,7.191 300.559,7.412 300.701,7.691 300.750,8.000 300.701,8.309 300.559,8.588 300.338,8.809 300.059,8.951 299.750,9.000 299.441,8.951 299.162,8.809 298.941,8.588 298.799,8.309 298.750,8.000 298.799,7.691 298.941,7.412 299.162,7.191 299.441,7.049" style="fill:none;stroke-width:0.2;stroke:black"/>
<polygon points="299.750,57.625 300.059,57.674 300.338,57.816 300.559,58.037 300.701,58.316 300.750,58.625 300.701,58.934 300.559,59.213 300.338,59.434 300.059,59.576 299.750,59.625 299.441,59.576 299.162,59.434 298.941,59.213 298.799,58.934 298.750,58.625 298.799,58.316 298.941,58.037 299.162,57.816 299.441,57.674" style="fill:none;stroke-width:0.2;stroke:black"/>
<polygon points="299.750,108.250 300.059,108.299 300.338,108.441 300.559,108.662 300.701,108.941 300.750,109.250 300.701,109.559 300.559,109.838 300.338,110.059 300.059,110.201 299.750,110.250 299.441,110.201 299.162,110.059 298.941,109.838 298.799,109.559 298.750,109.250 298.799,108.941 298.941,108.662 299.162,108.441 299.441,108.299" style="fill:none;stroke-width:0.2;stroke:black"/>
<polygon points="226.813,108.250 227.122,108.299 227.400,108.441 227.622,108.662 227.764,108.941 227.813,109.250 227.764,109.559 227.622,109.838 227.400,110.059 227.122,110.201 226.813,110.250 226.503,110.201 226.225,110.059 226.003,109.838 225.861,109.559 225.813,109.250 225.861,108.941 226.003,108.662 226.225,108.441 226.503,108.299" style="fill:none;stroke-width:0.2;stroke:black"/>
<polygon points="153.875,108.250 154.184,108.299 154.463,108.441 154.684,108.662 154.826,108.941 154.875,109.250 154.826,109.559 154.684,109.838 154.463,110.059 154.184,110.201 153.875,110.250 153.566,110.201 153.287,110.059 153.066,109.838 152.924,109.559 152.875,109.250 152.924,108.941 153.066,108.662 153.287,108.441 153.566,108.299" style="fill:none;stroke-width:0.2;stroke:black"/>
<polygon points="80.938,108.250 81.247,108.299 81.525,108.441 81.747,108.662 81.889,108.941 81.938,109.250 81.889,109.559 81.747,109.838 81.525,110.059 81.247,110.201 80.938,110.250 80.628,110.201 80.350,110.059 80.128,109.838 79.986,109.559 79.938,109.250 79.986,108.941 80.128,108.662 80.350,108.441 80.628,108.299" style="fill:none;stroke-width:0.2;stroke:black"/>
<polygon points="8.000,108.250 8.309,108.299 8.588,108.441 8.809,108.662 8.951,108.941 9.000,109.250 8.951,109.559 8.809,109.838 8.588,110.059 8.309,110.201 8.000,110.250 7.691,110.201 7.412,110.059 7.191,109.838 7.049,109.559 7.000,109.250 7.049,108.941 7.191,108.662 7.412,108.441 7.691,108.299" style="fill:none;stroke-width:0.2;stroke:black"/>
<polygon points="8.000,57.625 8.309,57.674 8.588,57.816 8.809,58.037 8.951,58.316 9.000,58.625 8.951,58.934 8.809,59.213 8.588,59.434 8.309,59.576 8.000,59.625 7.691,59.576 7.412,59.434 7.191,59.213 7.049,58.934 7.000,58.625 7.049,58.316 7.191,58.037 7.412,57.816 7.691,57.674" style="fill:none;stroke-width:0.2;stroke:black"/>
<polygon points="8.000,7.000 8.309,7.049 8.588,7.191 8.809,7.412 8.951,7.691 9.000,8.000 8.951,8.309 8.809,8.588 8.588,8.809 8.309,8.951 8.000,9.000 7.691,8.951 7.412,8.809 7.191,8.588 7.049,8.309 7.000,8.000 7.049,7.691 7.191,7.412 7.412,7.191 7.691,7.049" style="fill:none;stroke-width:0.2;stroke:black"/>
</svg>
