  0
SECTION
  2
HEADER
  9
$ACADVER
  1
AC1009
  9
$EXTMIN
 10
0.0
 20
0.0
 30
0.0
  9
$EXTMAX
 10
1000.0
 20
1000.0
 30
0.0
  9
$FILLMODE
 70
 0
  9
$SPLFRAME
 70
 1
  0
ENDSEC
  0
SECTION
  2
TABLES
  0
TABLE
  2
LAYER
 70
1
  0
LAYER
  2
0
 70
     0
 62
     7
  6
CONTINUOUS
  0
ENDTAB
  0
ENDSEC
  0
SECTION
  2
ENTITIES
  0
LINE
  8
0
 62
     0
 10
295.844
 20
107.344
 30
0.0
 11
296.001
 21
107.338
 31
0.0
  0
LINE
  8
0
 62
     0
 10
296.001
 20
107.338
 30
0.0
 11
296.157
 21
107.319
 31
0.0
  0
LINE
  8
0
 62
     0
 10
296.157
 20
107.319
 30
0.0
 11
296.311
 21
107.289
 31
0.0
  0
LINE
  8
0
 62
     0
 10
296.311
 20
107.289
 30
0.0
 11
296.461
 21
107.246
 31
0.0
  0
LINE
  8
0
 62
     0
 10
296.461
 20
107.246
 30
0.0
 11
296.609
 21
107.192
 31
0.0
  0
LINE
  8
0
 62
     0
 10
296.609
 20
107.192
 30
0.0
 11
296.752
 21
107.126
 31
0.0
  0
LINE
  8
0
 62
     0
 10
296.752
 20
107.126
 30
0.0
 11
296.889
 21
107.049
 31
0.0
  0
LINE
  8
0
 62
     0
 10
296.889
 20
107.049
 30
0.0
 11
297.019
 21
106.962
 31
0.0
  0
LINE
  8
0
 62
     0
 10
297.019
 20
106.962
 30
0.0
 11
297.142
 21
106.864
 31
0.0
  0
LINE
  8
0
 62
     0
 10
297.142
 20
106.864
 30
0.0
 11
297.258
 21
106.758
 31
0.0
  0
LINE
  8
0
 62
     0
 10
297.258
 20
106.758
 30
0.0
 11
297.364
 21
106.642
 31
0.0
  0
LINE
  8
0
 62
     0
 10
297.364
 20
106.642
 30
0.0
 11
297.462
 21
106.519
 31
0.0
  0
LINE
  8
0
 62
     0
 10
297.462
 20
106.519
 30
0.0
 11
297.549
 21
106.389
 31
0.0
  0
LINE
  8
0
 62
     0
 10
297.549
 20
106.389
 30
0.0
 11
297.626
 21
106.252
 31
0.0
  0
LINE
  8
0
 62
     0
 10
297.626
 20
106.252
 30
0.0
 11
297.692
 21
106.109
 31
0.0
  0
LINE
  8
0
 62
     0
 10
297.692
 20
106.109
 30
0.0
 11
297.746
 21
105.961
 31
0.0
  0
LINE
  8
0
 62
     0
 10
297.746
 20
105.961
 30
0.0
 11
297.789
 21
105.811
 31
0.0
  0
LINE
  8
0
 62
     0
 10
297.789
 20
105.811
 30
0.0
 11
297.819
 21
105.657
 31
0.0
  0
LINE
  8
0
 62
     0
 10
297.819
 20
105.657
 30
0.0
 11
297.838
 21
105.501
 31
0.0
  0
LINE
  8
0
 62
     0
 10
297.838
 20
105.501
 30
0.0
 11
297.844
 21
105.344
 31
0.0
  0
LINE
  8
0
 62
     0
 10
297.844
 20
105.344
 30
0.0
 11
297.844
 21
2.09324
 31
0.0
  0
LINE
  8
0
 62
     0
 10
297.844
 20
2.09324
 30
0.0
 11
297.838
 21
1.93614
 31
0.0
  0
LINE
  8
0
 62
     0
 10
297.838
 20
1.93614
 30
0.0
 11
297.819
 21
1.78043
 31
0.0
  0
LINE
  8
0
 62
     0
 10
297.819
 20
1.78043
 30
0.0
 11
297.789
 21
1.62609
 31
0.0
  0
LINE
  8
0
 62
     0
 10
297.789
 20
1.62609
 30
0.0
 11
297.746
 21
1.47588
 31
0.0
  0
LINE
  8
0
 62
     0
 10
297.746
 20
1.47588
 30
0.0
 11
297.692
 21
1.32843
 31
0.0
  0
LINE
  8
0
 62
     0
 10
297.692
 20
1.32843
 30
0.0
 11
297.626
 21
1.18511
 31
0.0
  0
LINE
  8
0
 62
     0
 10
297.626
 20
1.18511
 30
0.0
 11
297.549
 21
1.04869
 31
0.0
  0
LINE
  8
0
 62
     0
 10
297.549
 20
1.04869
 30
0.0
 11
297.462
 21
0.917773
 31
0.0
  0
LINE
  8
0
 62
     0
 10
297.462
 20
0.917773
 30
0.0
 11
297.364
 21
0.795129
 31
0.0
  0
LINE
  8
0
 62
     0
 10
297.364
 20
0.795129
 30
0.0
 11
297.258
 21
0.679372
 31
0.0
  0
LINE
  8
0
 62
     0
 10
297.258
 20
0.679372
 30
0.0
 11
297.142
 21
0.573264
 31
0.0
  0
LINE
  8
0
 62
     0
 10
297.142
 20
0.573264
 30
0.0
 11
297.019
 21
0.475424
 31
0.0
  0
LINE
  8
0
 62
     0
 10
297.019
 20
0.475424
 30
0.0
 11
296.889
 21
0.388606
 31
0.0
  0
LINE
  8
0
 62
     0
 10
296.889
 20
0.388606
 30
0.0
 11
296.752
 21
0.311437
 31
0.0
  0
LINE
  8
0
 62
     0
 10
296.752
 20
0.311437
 30
0.0
 11
296.609
 21
0.245291
 31
0.0
  0
LINE
  8
0
 62
     0
 10
296.609
 20
0.245291
 30
0.0
 11
296.461
 21
0.191547
 31
0.0
  0
LINE
  8
0
 62
     0
 10
296.461
 20
0.191547
 30
0.0
 11
296.311
 21
0.148828
 31
0.0
  0
LINE
  8
0
 62
     0
 10
296.311
 20
0.148828
 30
0.0
 11
296.157
 21
0.118511
 31
0.0
  0
LINE
  8
0
 62
     0
 10
296.157
 20
0.118511
 30
0.0
 11
296.001
 21
0.0992188
 31
0.0
  0
LINE
  8
0
 62
     0
 10
296.001
 20
0.0992188
 30
0.0
 11
295.844
 21
0.0937066
 31
0.0
  0
LINE
  8
0
 62
     0
 10
295.844
 20
0.0937066
 30
0.0
 11
2.09324
 21
0.0937066
 31
0.0
  0
LINE
  8
0
 62
     0
 10
2.09324
 20
0.0937066
 30
0.0
 11
1.93614
 21
0.0992188
 31
0.0
  0
LINE
  8
0
 62
     0
 10
1.93614
 20
0.0992188
 30
0.0
 11
1.78043
 21
0.118511
 31
0.0
  0
LINE
  8
0
 62
     0
 10
1.78043
 20
0.118511
 30
0.0
 11
1.62609
 21
0.148828
 31
0.0
  0
LINE
  8
0
 62
     0
 10
1.62609
 20
0.148828
 30
0.0
 11
1.47588
 21
0.191547
 31
0.0
  0
LINE
  8
0
 62
     0
 10
1.47588
 20
0.191547
 30
0.0
 11
1.32843
 21
0.245291
 31
0.0
  0
LINE
  8
0
 62
     0
 10
1.32843
 20
0.245291
 30
0.0
 11
1.18511
 21
0.311437
 31
0.0
  0
LINE
  8
0
 62
     0
 10
1.18511
 20
0.311437
 30
0.0
 11
1.04869
 21
0.388606
 31
0.0
  0
LINE
  8
0
 62
     0
 10
1.04869
 20
0.388606
 30
0.0
 11
0.917773
 21
0.475424
 31
0.0
  0
LINE
  8
0
 62
     0
 10
0.917773
 20
0.475424
 30
0.0
 11
0.795129
 21
0.573264
 31
0.0
  0
LINE
  8
0
 62
     0
 10
0.795129
 20
0.573264
 30
0.0
 11
0.679372
 21
0.679372
 31
0.0
  0
LINE
  8
0
 62
     0
 10
0.679372
 20
0.679372
 30
0.0
 11
0.573264
 21
0.795129
 31
0.0
  0
LINE
  8
0
 62
     0
 10
0.573264
 20
0.795129
 30
0.0
 11
0.475424
 21
0.917773
 31
0.0
  0
LINE
  8
0
 62
     0
 10
0.475424
 20
0.917773
 30
0.0
 11
0.388606
 21
1.04869
 31
0.0
  0
LINE
  8
0
 62
     0
 10
0.388606
 20
1.04869
 30
0.0
 11
0.311437
 21
1.18511
 31
0.0
  0
LINE
  8
0
 62
     0
 10
0.311437
 20
1.18511
 30
0.0
 11
0.245291
 21
1.32843
 31
0.0
  0
LINE
  8
0
 62
     0
 10
0.245291
 20
1.32843
 30
0.0
 11
0.191547
 21
1.47588
 31
0.0
  0
LINE
  8
0
 62
     0
 10
0.191547
 20
1.47588
 30
0.0
 11
0.148828
 21
1.62609
 31
0.0
  0
LINE
  8
0
 62
     0
 10
0.148828
 20
1.62609
 30
0.0
 11
0.118511
 21
1.78043
 31
0.0
  0
LINE
  8
0
 62
     0
 10
0.118511
 20
1.78043
 30
0.0
 11
0.0992188
 21
1.93614
 31
0.0
  0
LINE
  8
0
 62
     0
 10
0.0992188
 20
1.93614
 30
0.0
 11
0.0937066
 21
2.09324
 31
0.0
  0
LINE
  8
0
 62
     0
 10
0.0937066
 20
2.09324
 30
0.0
 11
0.0937066
 21
105.344
 31
0.0
  0
LINE
  8
0
 62
     0
 10
0.0937066
 20
105.344
 30
0.0
 11
0.0992188
 21
105.501
 31
0.0
  0
LINE
  8
0
 62
     0
 10
0.0992188
 20
105.501
 30
0.0
 11
0.118511
 21
105.657
 31
0.0
  0
LINE
  8
0
 62
     0
 10
0.118511
 20
105.657
 30
0.0
 11
0.148828
 21
105.811
 31
0.0
  0
LINE
  8
0
 62
     0
 10
0.148828
 20
105.811
 30
0.0
 11
0.191547
 21
105.961
 31
0.0
  0
LINE
  8
0
 62
     0
 10
0.191547
 20
105.961
 30
0.0
 11
0.245291
 21
106.109
 31
0.0
  0
LINE
  8
0
 62
     0
 10
0.245291
 20
106.109
 30
0.0
 11
0.311437
 21
106.252
 31
0.0
  0
LINE
  8
0
 62
     0
 10
0.311437
 20
106.252
 30
0.0
 11
0.388606
 21
106.389
 31
0.0
  0
LINE
  8
0
 62
     0
 10
0.388606
 20
106.389
 30
0.0
 11
0.475424
 21
106.519
 31
0.0
  0
LINE
  8
0
 62
     0
 10
0.475424
 20
106.519
 30
0.0
 11
0.573264
 21
106.642
 31
0.0
  0
LINE
  8
0
 62
     0
 10
0.573264
 20
106.642
 30
0.0
 11
0.679372
 21
106.758
 31
0.0
  0
LINE
  8
0
 62
     0
 10
0.679372
 20
106.758
 30
0.0
 11
0.795129
 21
106.864
 31
0.0
  0
LINE
  8
0
 62
     0
 10
0.795129
 20
106.864
 30
0.0
 11
0.917773
 21
106.962
 31
0.0
  0
LINE
  8
0
 62
     0
 10
0.917773
 20
106.962
 30
0.0
 11
1.04869
 21
107.049
 31
0.0
  0
LINE
  8
0
 62
     0
 10
1.04869
 20
107.049
 30
0.0
 11
1.18511
 21
107.126
 31
0.0
  0
LINE
  8
0
 62
     0
 10
1.18511
 20
107.126
 30
0.0
 11
1.32843
 21
107.192
 31
0.0
  0
LINE
  8
0
 62
     0
 10
1.32843
 20
107.192
 30
0.0
 11
1.47588
 21
107.246
 31
0.0
  0
LINE
  8
0
 62
     0
 10
1.47588
 20
107.246
 30
0.0
 11
1.62609
 21
107.289
 31
0.0
  0
LINE
  8
0
 62
     0
 10
1.62609
 20
107.289
 30
0.0
 11
1.78043
 21
107.319
 31
0.0
  0
LINE
  8
0
 62
     0
 10
1.78043
 20
107.319
 30
0.0
 11
1.93614
 21
107.338
 31
0.0
  0
LINE
  8
0
 62
     0
 10
1.93614
 20
107.338
 30
0.0
 11
2.09324
 21
107.344
 31
0.0
  0
LINE
  8
0
 62
     0
 10
2.09324
 20
107.344
 30
0.0
 11
295.844
 21
107.344
 31
0.0
  0
LINE
  8
0
 62
     0
 10
6.09367
 20
101.344
 30
0.0
 11
291.844
 21
101.344
 31
0.0
  0
LINE
  8
0
 62
     0
 10
291.844
 20
101.344
 30
0.0
 11
291.844
 21
6.09367
 31
0.0
  0
LINE
  8
0
 62
     0
 10
291.844
 20
6.09367
 30
0.0
 11
6.09367
 21
6.09367
 31
0.0
  0
LINE
  8
0
 62
     0
 10
6.09367
 20
6.09367
 30
0.0
 11
6.09367
 21
101.344
 31
0.0
  0
LINE
  8
0
 62
     0
 10
76.0317
 20
105.344
 30
0.0
 11
76.3404
 21
105.295
 31
0.0
  0
LINE
  8
0
 62
     0
 10
76.3404
 20
105.295
 30
0.0
 11
76.6191
 21
105.152
 31
0.0
  0
LINE
  8
0
 62
     0
 10
76.6191
 20
105.152
 30
0.0
 11
76.8406
 21
104.932
 31
0.0
  0
LINE
  8
0
 62
     0
 10
76.8406
 20
104.932
 30
0.0
 11
76.9828
 21
104.652
 31
0.0
  0
LINE
  8
0
 62
     0
 10
76.9828
 20
104.652
 30
0.0
 11
77.0322
 21
104.344
 31
0.0
  0
LINE
  8
0
 62
     0
 10
77.0322
 20
104.344
 30
0.0
 11
76.9828
 21
104.035
 31
0.0
  0
LINE
  8
0
 62
     0
 10
76.9828
 20
104.035
 30
0.0
 11
76.8406
 21
103.755
 31
0.0
  0
LINE
  8
0
 62
     0
 10
76.8406
 20
103.755
 30
0.0
 11
76.6191
 21
103.535
 31
0.0
  0
LINE
  8
0
 62
     0
 10
76.6191
 20
103.535
 30
0.0
 11
76.3404
 21
103.393
 31
0.0
  0
LINE
  8
0
 62
     0
 10
76.3404
 20
103.393
 30
0.0
 11
76.0317
 21
103.343
 31
0.0
  0
LINE
  8
0
 62
     0
 10
76.0317
 20
103.343
 30
0.0
 11
75.722
 21
103.393
 31
0.0
  0
LINE
  8
0
 62
     0
 10
75.722
 20
103.393
 30
0.0
 11
75.4433
 21
103.535
 31
0.0
  0
LINE
  8
0
 62
     0
 10
75.4433
 20
103.535
 30
0.0
 11
75.2217
 21
103.755
 31
0.0
  0
LINE
  8
0
 62
     0
 10
75.2217
 20
103.755
 30
0.0
 11
75.0796
 21
104.035
 31
0.0
  0
LINE
  8
0
 62
     0
 10
75.0796
 20
104.035
 30
0.0
 11
75.0316
 21
104.344
 31
0.0
  0
LINE
  8
0
 62
     0
 10
75.0316
 20
104.344
 30
0.0
 11
75.0796
 21
104.652
 31
0.0
  0
LINE
  8
0
 62
     0
 10
75.0796
 20
104.652
 30
0.0
 11
75.2217
 21
104.932
 31
0.0
  0
LINE
  8
0
 62
     0
 10
75.2217
 20
104.932
 30
0.0
 11
75.4433
 21
105.152
 31
0.0
  0
LINE
  8
0
 62
     0
 10
75.4433
 20
105.152
 30
0.0
 11
75.722
 21
105.295
 31
0.0
  0
LINE
  8
0
 62
     0
 10
75.722
 20
105.295
 30
0.0
 11
76.0317
 21
105.344
 31
0.0
  0
LINE
  8
0
 62
     0
 10
148.969
 20
105.344
 30
0.0
 11
149.277
 21
105.295
 31
0.0
  0
LINE
  8
0
 62
     0
 10
149.277
 20
105.295
 30
0.0
 11
149.557
 21
105.152
 31
0.0
  0
LINE
  8
0
 62
     0
 10
149.557
 20
105.152
 30
0.0
 11
149.777
 21
104.932
 31
0.0
  0
LINE
  8
0
 62
     0
 10
149.777
 20
104.932
 30
0.0
 11
149.92
 21
104.652
 31
0.0
  0
LINE
  8
0
 62
     0
 10
149.92
 20
104.652
 30
0.0
 11
149.969
 21
104.344
 31
0.0
  0
LINE
  8
0
 62
     0
 10
149.969
 20
104.344
 30
0.0
 11
149.92
 21
104.035
 31
0.0
  0
LINE
  8
0
 62
     0
 10
149.92
 20
104.035
 30
0.0
 11
149.777
 21
103.755
 31
0.0
  0
LINE
  8
0
 62
     0
 10
149.777
 20
103.755
 30
0.0
 11
149.557
 21
103.535
 31
0.0
  0
LINE
  8
0
 62
     0
 10
149.557
 20
103.535
 30
0.0
 11
149.277
 21
103.393
 31
0.0
  0
LINE
  8
0
 62
     0
 10
149.277
 20
103.393
 30
0.0
 11
148.969
 21
103.343
 31
0.0
  0
LINE
  8
0
 62
     0
 10
148.969
 20
103.343
 30
0.0
 11
148.66
 21
103.393
 31
0.0
  0
LINE
  8
0
 62
     0
 10
148.66
 20
103.393
 30
0.0
 11
148.38
 21
103.535
 31
0.0
  0
LINE
  8
0
 62
     0
 10
148.38
 20
103.535
 30
0.0
 11
148.16
 21
103.755
 31
0.0
  0
LINE
  8
0
 62
     0
 10
148.16
 20
103.755
 30
0.0
 11
148.018
 21
104.035
 31
0.0
  0
LINE
  8
0
 62
     0
 10
148.018
 20
104.035
 30
0.0
 11
147.968
 21
104.344
 31
0.0
  0
LINE
  8
0
 62
     0
 10
147.968
 20
104.344
 30
0.0
 11
148.018
 21
104.652
 31
0.0
  0
LINE
  8
0
 62
     0
 10
148.018
 20
104.652
 30
0.0
 11
148.16
 21
104.932
 31
0.0
  0
LINE
  8
0
 62
     0
 10
148.16
 20
104.932
 30
0.0
 11
148.38
 21
105.152
 31
0.0
  0
LINE
  8
0
 62
     0
 10
148.38
 20
105.152
 30
0.0
 11
148.66
 21
105.295
 31
0.0
  0
LINE
  8
0
 62
     0
 10
148.66
 20
105.295
 30
0.0
 11
148.969
 21
105.344
 31
0.0
  0
LINE
  8
0
 62
     0
 10
221.907
 20
105.344
 30
0.0
 11
222.215
 21
105.295
 31
0.0
  0
LINE
  8
0
 62
     0
 10
222.215
 20
105.295
 30
0.0
 11
222.494
 21
105.152
 31
0.0
  0
LINE
  8
0
 62
     0
 10
222.494
 20
105.152
 30
0.0
 11
222.716
 21
104.932
 31
0.0
  0
LINE
  8
0
 62
     0
 10
222.716
 20
104.932
 30
0.0
 11
222.858
 21
104.652
 31
0.0
  0
LINE
  8
0
 62
     0
 10
222.858
 20
104.652
 30
0.0
 11
222.907
 21
104.344
 31
0.0
  0
LINE
  8
0
 62
     0
 10
222.907
 20
104.344
 30
0.0
 11
222.858
 21
104.035
 31
0.0
  0
LINE
  8
0
 62
     0
 10
222.858
 20
104.035
 30
0.0
 11
222.716
 21
103.755
 31
0.0
  0
LINE
  8
0
 62
     0
 10
222.716
 20
103.755
 30
0.0
 11
222.494
 21
103.535
 31
0.0
  0
LINE
  8
0
 62
     0
 10
222.494
 20
103.535
 30
0.0
 11
222.215
 21
103.393
 31
0.0
  0
LINE
  8
0
 62
     0
 10
222.215
 20
103.393
 30
0.0
 11
221.907
 21
103.343
 31
0.0
  0
LINE
  8
0
 62
     0
 10
221.907
 20
103.343
 30
0.0
 11
221.597
 21
103.393
 31
0.0
  0
LINE
  8
0
 62
     0
 10
221.597
 20
103.393
 30
0.0
 11
221.318
 21
103.535
 31
0.0
  0
LINE
  8
0
 62
     0
 10
221.318
 20
103.535
 30
0.0
 11
221.096
 21
103.755
 31
0.0
  0
LINE
  8
0
 62
     0
 10
221.096
 20
103.755
 30
0.0
 11
220.955
 21
104.035
 31
0.0
  0
LINE
  8
0
 62
     0
 10
220.955
 20
104.035
 30
0.0
 11
220.906
 21
104.344
 31
0.0
  0
LINE
  8
0
 62
     0
 10
220.906
 20
104.344
 30
0.0
 11
220.955
 21
104.652
 31
0.0
  0
LINE
  8
0
 62
     0
 10
220.955
 20
104.652
 30
0.0
 11
221.096
 21
104.932
 31
0.0
  0
LINE
  8
0
 62
     0
 10
221.096
 20
104.932
 30
0.0
 11
221.318
 21
105.152
 31
0.0
  0
LINE
  8
0
 62
     0
 10
221.318
 20
105.152
 30
0.0
 11
221.597
 21
105.295
 31
0.0
  0
LINE
  8
0
 62
     0
 10
221.597
 20
105.295
 30
0.0
 11
221.907
 21
105.344
 31
0.0
  0
LINE
  8
0
 62
     0
 10
294.844
 20
105.344
 30
0.0
 11
295.152
 21
105.295
 31
0.0
  0
LINE
  8
0
 62
     0
 10
295.152
 20
105.295
 30
0.0
 11
295.432
 21
105.152
 31
0.0
  0
LINE
  8
0
 62
     0
 10
295.432
 20
105.152
 30
0.0
 11
295.652
 21
104.932
 31
0.0
  0
LINE
  8
0
 62
     0
 10
295.652
 20
104.932
 30
0.0
 11
295.795
 21
104.652
 31
0.0
  0
LINE
  8
0
 62
     0
 10
295.795
 20
104.652
 30
0.0
 11
295.844
 21
104.344
 31
0.0
  0
LINE
  8
0
 62
     0
 10
295.844
 20
104.344
 30
0.0
 11
295.795
 21
104.035
 31
0.0
  0
LINE
  8
0
 62
     0
 10
295.795
 20
104.035
 30
0.0
 11
295.652
 21
103.755
 31
0.0
  0
LINE
  8
0
 62
     0
 10
295.652
 20
103.755
 30
0.0
 11
295.432
 21
103.535
 31
0.0
  0
LINE
  8
0
 62
     0
 10
295.432
 20
103.535
 30
0.0
 11
295.152
 21
103.393
 31
0.0
  0
LINE
  8
0
 62
     0
 10
295.152
 20
103.393
 30
0.0
 11
294.844
 21
103.343
 31
0.0
  0
LINE
  8
0
 62
     0
 10
294.844
 20
103.343
 30
0.0
 11
294.535
 21
103.393
 31
0.0
  0
LINE
  8
0
 62
     0
 10
294.535
 20
103.393
 30
0.0
 11
294.255
 21
103.535
 31
0.0
  0
LINE
  8
0
 62
     0
 10
294.255
 20
103.535
 30
0.0
 11
294.035
 21
103.755
 31
0.0
  0
LINE
  8
0
 62
     0
 10
294.035
 20
103.755
 30
0.0
 11
293.893
 21
104.035
 31
0.0
  0
LINE
  8
0
 62
     0
 10
293.893
 20
104.035
 30
0.0
 11
293.843
 21
104.344
 31
0.0
  0
LINE
  8
0
 62
     0
 10
293.843
 20
104.344
 30
0.0
 11
293.893
 21
104.652
 31
0.0
  0
LINE
  8
0
 62
     0
 10
293.893
 20
104.652
 30
0.0
 11
294.035
 21
104.932
 31
0.0
  0
LINE
  8
0
 62
     0
 10
294.035
 20
104.932
 30
0.0
 11
294.255
 21
105.152
 31
0.0
  0
LINE
  8
0
 62
     0
 10
294.255
 20
105.152
 30
0.0
 11
294.535
 21
105.295
 31
0.0
  0
LINE
  8
0
 62
     0
 10
294.535
 20
105.295
 30
0.0
 11
294.844
 21
105.344
 31
0.0
  0
LINE
  8
0
 62
     0
 10
294.844
 20
54.719
 30
0.0
 11
295.152
 21
54.6696
 31
0.0
  0
LINE
  8
0
 62
     0
 10
295.152
 20
54.6696
 30
0.0
 11
295.432
 21
54.5274
 31
0.0
  0
LINE
  8
0
 62
     0
 10
295.432
 20
54.5274
 30
0.0
 11
295.652
 21
54.307
 31
0.0
  0
LINE
  8
0
 62
     0
 10
295.652
 20
54.307
 30
0.0
 11
295.795
 21
54.0272
 31
0.0
  0
LINE
  8
0
 62
     0
 10
295.795
 20
54.0272
 30
0.0
 11
295.844
 21
53.7185
 31
0.0
  0
LINE
  8
0
 62
     0
 10
295.844
 20
53.7185
 30
0.0
 11
295.795
 21
53.4098
 31
0.0
  0
LINE
  8
0
 62
     0
 10
295.795
 20
53.4098
 30
0.0
 11
295.652
 21
53.1301
 31
0.0
  0
LINE
  8
0
 62
     0
 10
295.652
 20
53.1301
 30
0.0
 11
295.432
 21
52.9096
 31
0.0
  0
LINE
  8
0
 62
     0
 10
295.432
 20
52.9096
 30
0.0
 11
295.152
 21
52.7678
 31
0.0
  0
LINE
  8
0
 62
     0
 10
295.152
 20
52.7678
 30
0.0
 11
294.844
 21
52.7184
 31
0.0
  0
LINE
  8
0
 62
     0
 10
294.844
 20
52.7184
 30
0.0
 11
294.535
 21
52.7678
 31
0.0
  0
LINE
  8
0
 62
     0
 10
294.535
 20
52.7678
 30
0.0
 11
294.255
 21
52.9096
 31
0.0
  0
LINE
  8
0
 62
     0
 10
294.255
 20
52.9096
 30
0.0
 11
294.035
 21
53.1301
 31
0.0
  0
LINE
  8
0
 62
     0
 10
294.035
 20
53.1301
 30
0.0
 11
293.893
 21
53.4098
 31
0.0
  0
LINE
  8
0
 62
     0
 10
293.893
 20
53.4098
 30
0.0
 11
293.843
 21
53.7185
 31
0.0
  0
LINE
  8
0
 62
     0
 10
293.843
 20
53.7185
 30
0.0
 11
293.893
 21
54.0272
 31
0.0
  0
LINE
  8
0
 62
     0
 10
293.893
 20
54.0272
 30
0.0
 11
294.035
 21
54.307
 31
0.0
  0
LINE
  8
0
 62
     0
 10
294.035
 20
54.307
 30
0.0
 11
294.255
 21
54.5274
 31
0.0
  0
LINE
  8
0
 62
     0
 10
294.255
 20
54.5274
 30
0.0
 11
294.535
 21
54.6696
 31
0.0
  0
LINE
  8
0
 62
     0
 10
294.535
 20
54.6696
 30
0.0
 11
294.844
 21
54.719
 31
0.0
  0
LINE
  8
0
 62
     0
 10
294.844
 20
4.09416
 30
0.0
 11
295.152
 21
4.04453
 31
0.0
  0
LINE
  8
0
 62
     0
 10
295.152
 20
4.04453
 30
0.0
 11
295.432
 21
3.9026
 31
0.0
  0
LINE
  8
0
 62
     0
 10
295.432
 20
3.9026
 30
0.0
 11
295.652
 21
3.68212
 31
0.0
  0
LINE
  8
0
 62
     0
 10
295.652
 20
3.68212
 30
0.0
 11
295.795
 21
3.40238
 31
0.0
  0
LINE
  8
0
 62
     0
 10
295.795
 20
3.40238
 30
0.0
 11
295.844
 21
3.0937
 31
0.0
  0
LINE
  8
0
 62
     0
 10
295.844
 20
3.0937
 30
0.0
 11
295.795
 21
2.78501
 31
0.0
  0
LINE
  8
0
 62
     0
 10
295.795
 20
2.78501
 30
0.0
 11
295.652
 21
2.50527
 31
0.0
  0
LINE
  8
0
 62
     0
 10
295.652
 20
2.50527
 30
0.0
 11
295.432
 21
2.28479
 31
0.0
  0
LINE
  8
0
 62
     0
 10
295.432
 20
2.28479
 30
0.0
 11
295.152
 21
2.14285
 31
0.0
  0
LINE
  8
0
 62
     0
 10
295.152
 20
2.14285
 30
0.0
 11
294.844
 21
2.09324
 31
0.0
  0
LINE
  8
0
 62
     0
 10
294.844
 20
2.09324
 30
0.0
 11
294.535
 21
2.14285
 31
0.0
  0
LINE
  8
0
 62
     0
 10
294.535
 20
2.14285
 30
0.0
 11
294.255
 21
2.28479
 31
0.0
  0
LINE
  8
0
 62
     0
 10
294.255
 20
2.28479
 30
0.0
 11
294.035
 21
2.50527
 31
0.0
  0
LINE
  8
0
 62
     0
 10
294.035
 20
2.50527
 30
0.0
 11
293.893
 21
2.78501
 31
0.0
  0
LINE
  8
0
 62
     0
 10
293.893
 20
2.78501
 30
0.0
 11
293.843
 21
3.0937
 31
0.0
  0
LINE
  8
0
 62
     0
 10
293.843
 20
3.0937
 30
0.0
 11
293.893
 21
3.40238
 31
0.0
  0
LINE
  8
0
 62
     0
 10
293.893
 20
3.40238
 30
0.0
 11
294.035
 21
3.68212
 31
0.0
  0
LINE
  8
0
 62
     0
 10
294.035
 20
3.68212
 30
0.0
 11
294.255
 21
3.9026
 31
0.0
  0
LINE
  8
0
 62
     0
 10
294.255
 20
3.9026
 30
0.0
 11
294.535
 21
4.04453
 31
0.0
  0
LINE
  8
0
 62
     0
 10
294.535
 20
4.04453
 30
0.0
 11
294.844
 21
4.09416
 31
0.0
  0
LINE
  8
0
 62
     0
 10
221.907
 20
4.09416
 30
0.0
 11
222.215
 21
4.04453
 31
0.0
  0
LINE
  8
0
 62
     0
 10
222.215
 20
4.04453
 30
0.0
 11
222.494
 21
3.9026
 31
0.0
  0
LINE
  8
0
 62
     0
 10
222.494
 20
3.9026
 30
0.0
 11
222.716
 21
3.68212
 31
0.0
  0
LINE
  8
0
 62
     0
 10
222.716
 20
3.68212
 30
0.0
 11
222.858
 21
3.40238
 31
0.0
  0
LINE
  8
0
 62
     0
 10
222.858
 20
3.40238
 30
0.0
 11
222.907
 21
3.0937
 31
0.0
  0
LINE
  8
0
 62
     0
 10
222.907
 20
3.0937
 30
0.0
 11
222.858
 21
2.78501
 31
0.0
  0
LINE
  8
0
 62
     0
 10
222.858
 20
2.78501
 30
0.0
 11
222.716
 21
2.50527
 31
0.0
  0
LINE
  8
0
 62
     0
 10
222.716
 20
2.50527
 30
0.0
 11
222.494
 21
2.28479
 31
0.0
  0
LINE
  8
0
 62
     0
 10
222.494
 20
2.28479
 30
0.0
 11
222.215
 21
2.14285
 31
0.0
  0
LINE
  8
0
 62
     0
 10
222.215
 20
2.14285
 30
0.0
 11
221.907
 21
2.09324
 31
0.0
  0
LINE
  8
0
 62
     0
 10
221.907
 20
2.09324
 30
0.0
 11
221.597
 21
2.14285
 31
0.0
  0
LINE
  8
0
 62
     0
 10
221.597
 20
2.14285
 30
0.0
 11
221.318
 21
2.28479
 31
0.0
  0
LINE
  8
0
 62
     0
 10
221.318
 20
2.28479
 30
0.0
 11
221.096
 21
2.50527
 31
0.0
  0
LINE
  8
0
 62
     0
 10
221.096
 20
2.50527
 30
0.0
 11
220.955
 21
2.78501
 31
0.0
  0
LINE
  8
0
 62
     0
 10
220.955
 20
2.78501
 30
0.0
 11
220.906
 21
3.0937
 31
0.0
  0
LINE
  8
0
 62
     0
 10
220.906
 20
3.0937
 30
0.0
 11
220.955
 21
3.40238
 31
0.0
  0
LINE
  8
0
 62
     0
 10
220.955
 20
3.40238
 30
0.0
 11
221.096
 21
3.68212
 31
0.0
  0
LINE
  8
0
 62
     0
 10
221.096
 20
3.68212
 30
0.0
 11
221.318
 21
3.9026
 31
0.0
  0
LINE
  8
0
 62
     0
 10
221.318
 20
3.9026
 30
0.0
 11
221.597
 21
4.04453
 31
0.0
  0
LINE
  8
0
 62
     0
 10
221.597
 20
4.04453
 30
0.0
 11
221.907
 21
4.09416
 31
0.0
  0
LINE
  8
0
 62
     0
 10
148.969
 20
4.09416
 30
0.0
 11
149.277
 21
4.04453
 31
0.0
  0
LINE
  8
0
 62
     0
 10
149.277
 20
4.04453
 30
0.0
 11
149.557
 21
3.9026
 31
0.0
  0
LINE
  8
0
 62
     0
 10
149.557
 20
3.9026
 30
0.0
 11
149.777
 21
3.68212
 31
0.0
  0
LINE
  8
0
 62
     0
 10
149.777
 20
3.68212
 30
0.0
 11
149.92
 21
3.40238
 31
0.0
  0
LINE
  8
0
 62
     0
 10
149.92
 20
3.40238
 30
0.0
 11
149.969
 21
3.0937
 31
0.0
  0
LINE
  8
0
 62
     0
 10
149.969
 20
3.0937
 30
0.0
 11
149.92
 21
2.78501
 31
0.0
  0
LINE
  8
0
 62
     0
 10
149.92
 20
2.78501
 30
0.0
 11
149.777
 21
2.50527
 31
0.0
  0
LINE
  8
0
 62
     0
 10
149.777
 20
2.50527
 30
0.0
 11
149.557
 21
2.28479
 31
0.0
  0
LINE
  8
0
 62
     0
 10
149.557
 20
2.28479
 30
0.0
 11
149.277
 21
2.14285
 31
0.0
  0
LINE
  8
0
 62
     0
 10
149.277
 20
2.14285
 30
0.0
 11
148.969
 21
2.09324
 31
0.0
  0
LINE
  8
0
 62
     0
 10
148.969
 20
2.09324
 30
0.0
 11
148.66
 21
2.14285
 31
0.0
  0
LINE
  8
0
 62
     0
 10
148.66
 20
2.14285
 30
0.0
 11
148.38
 21
2.28479
 31
0.0
  0
LINE
  8
0
 62
     0
 10
148.38
 20
2.28479
 30
0.0
 11
148.16
 21
2.50527
 31
0.0
  0
LINE
  8
0
 62
     0
 10
148.16
 20
2.50527
 30
0.0
 11
148.018
 21
2.78501
 31
0.0
  0
LINE
  8
0
 62
     0
 10
148.018
 20
2.78501
 30
0.0
 11
147.968
 21
3.0937
 31
0.0
  0
LINE
  8
0
 62
     0
 10
147.968
 20
3.0937
 30
0.0
 11
148.018
 21
3.40238
 31
0.0
  0
LINE
  8
0
 62
     0
 10
148.018
 20
3.40238
 30
0.0
 11
148.16
 21
3.68212
 31
0.0
  0
LINE
  8
0
 62
     0
 10
148.16
 20
3.68212
 30
0.0
 11
148.38
 21
3.9026
 31
0.0
  0
LINE
  8
0
 62
     0
 10
148.38
 20
3.9026
 30
0.0
 11
148.66
 21
4.04453
 31
0.0
  0
LINE
  8
0
 62
     0
 10
148.66
 20
4.04453
 30
0.0
 11
148.969
 21
4.09416
 31
0.0
  0
LINE
  8
0
 62
     0
 10
76.0317
 20
4.09416
 30
0.0
 11
76.3404
 21
4.04453
 31
0.0
  0
LINE
  8
0
 62
     0
 10
76.3404
 20
4.04453
 30
0.0
 11
76.6191
 21
3.9026
 31
0.0
  0
LINE
  8
0
 62
     0
 10
76.6191
 20
3.9026
 30
0.0
 11
76.8406
 21
3.68212
 31
0.0
  0
LINE
  8
0
 62
     0
 10
76.8406
 20
3.68212
 30
0.0
 11
76.9828
 21
3.40238
 31
0.0
  0
LINE
  8
0
 62
     0
 10
76.9828
 20
3.40238
 30
0.0
 11
77.0322
 21
3.0937
 31
0.0
  0
LINE
  8
0
 62
     0
 10
77.0322
 20
3.0937
 30
0.0
 11
76.9828
 21
2.78501
 31
0.0
  0
LINE
  8
0
 62
     0
 10
76.9828
 20
2.78501
 30
0.0
 11
76.8406
 21
2.50527
 31
0.0
  0
LINE
  8
0
 62
     0
 10
76.8406
 20
2.50527
 30
0.0
 11
76.6191
 21
2.28479
 31
0.0
  0
LINE
  8
0
 62
     0
 10
76.6191
 20
2.28479
 30
0.0
 11
76.3404
 21
2.14285
 31
0.0
  0
LINE
  8
0
 62
     0
 10
76.3404
 20
2.14285
 30
0.0
 11
76.0317
 21
2.09324
 31
0.0
  0
LINE
  8
0
 62
     0
 10
76.0317
 20
2.09324
 30
0.0
 11
75.722
 21
2.14285
 31
0.0
  0
LINE
  8
0
 62
     0
 10
75.722
 20
2.14285
 30
0.0
 11
75.4433
 21
2.28479
 31
0.0
  0
LINE
  8
0
 62
     0
 10
75.4433
 20
2.28479
 30
0.0
 11
75.2217
 21
2.50527
 31
0.0
  0
LINE
  8
0
 62
     0
 10
75.2217
 20
2.50527
 30
0.0
 11
75.0796
 21
2.78501
 31
0.0
  0
LINE
  8
0
 62
     0
 10
75.0796
 20
2.78501
 30
0.0
 11
75.0316
 21
3.0937
 31
0.0
  0
LINE
  8
0
 62
     0
 10
75.0316
 20
3.0937
 30
0.0
 11
75.0796
 21
3.40238
 31
0.0
  0
LINE
  8
0
 62
     0
 10
75.0796
 20
3.40238
 30
0.0
 11
75.2217
 21
3.68212
 31
0.0
  0
LINE
  8
0
 62
     0
 10
75.2217
 20
3.68212
 30
0.0
 11
75.4433
 21
3.9026
 31
0.0
  0
LINE
  8
0
 62
     0
 10
75.4433
 20
3.9026
 30
0.0
 11
75.722
 21
4.04453
 31
0.0
  0
LINE
  8
0
 62
     0
 10
75.722
 20
4.04453
 30
0.0
 11
76.0317
 21
4.09416
 31
0.0
  0
LINE
  8
0
 62
     0
 10
3.0937
 20
4.09416
 30
0.0
 11
3.40238
 21
4.04453
 31
0.0
  0
LINE
  8
0
 62
     0
 10
3.40238
 20
4.04453
 30
0.0
 11
3.68212
 21
3.9026
 31
0.0
  0
LINE
  8
0
 62
     0
 10
3.68212
 20
3.9026
 30
0.0
 11
3.9026
 21
3.68212
 31
0.0
  0
LINE
  8
0
 62
     0
 10
3.9026
 20
3.68212
 30
0.0
 11
4.04453
 21
3.40238
 31
0.0
  0
LINE
  8
0
 62
     0
 10
4.04453
 20
3.40238
 30
0.0
 11
4.09416
 21
3.0937
 31
0.0
  0
LINE
  8
0
 62
     0
 10
4.09416
 20
3.0937
 30
0.0
 11
4.04453
 21
2.78501
 31
0.0
  0
LINE
  8
0
 62
     0
 10
4.04453
 20
2.78501
 30
0.0
 11
3.9026
 21
2.50527
 31
0.0
  0
LINE
  8
0
 62
     0
 10
3.9026
 20
2.50527
 30
0.0
 11
3.68212
 21
2.28479
 31
0.0
  0
LINE
  8
0
 62
     0
 10
3.68212
 20
2.28479
 30
0.0
 11
3.40238
 21
2.14285
 31
0.0
  0
LINE
  8
0
 62
     0
 10
3.40238
 20
2.14285
 30
0.0
 11
3.0937
 21
2.09324
 31
0.0
  0
LINE
  8
0
 62
     0
 10
3.0937
 20
2.09324
 30
0.0
 11
2.78501
 21
2.14285
 31
0.0
  0
LINE
  8
0
 62
     0
 10
2.78501
 20
2.14285
 30
0.0
 11
2.50527
 21
2.28479
 31
0.0
  0
LINE
  8
0
 62
     0
 10
2.50527
 20
2.28479
 30
0.0
 11
2.28479
 21
2.50527
 31
0.0
  0
LINE
  8
0
 62
     0
 10
2.28479
 20
2.50527
 30
0.0
 11
2.14285
 21
2.78501
 31
0.0
  0
LINE
  8
0
 62
     0
 10
2.14285
 20
2.78501
 30
0.0
 11
2.09324
 21
3.0937
 31
0.0
  0
LINE
  8
0
 62
     0
 10
2.09324
 20
3.0937
 30
0.0
 11
2.14285
 21
3.40238
 31
0.0
  0
LINE
  8
0
 62
     0
 10
2.14285
 20
3.40238
 30
0.0
 11
2.28479
 21
3.68212
 31
0.0
  0
LINE
  8
0
 62
     0
 10
2.28479
 20
3.68212
 30
0.0
 11
2.50527
 21
3.9026
 31
0.0
  0
LINE
  8
0
 62
     0
 10
2.50527
 20
3.9026
 30
0.0
 11
2.78501
 21
4.04453
 31
0.0
  0
LINE
  8
0
 62
     0
 10
2.78501
 20
4.04453
 30
0.0
 11
3.0937
 21
4.09416
 31
0.0
  0
LINE
  8
0
 62
     0
 10
3.0937
 20
54.719
 30
0.0
 11
3.40238
 21
54.6696
 31
0.0
  0
LINE
  8
0
 62
     0
 10
3.40238
 20
54.6696
 30
0.0
 11
3.68212
 21
54.5274
 31
0.0
  0
LINE
  8
0
 62
     0
 10
3.68212
 20
54.5274
 30
0.0
 11
3.9026
 21
54.307
 31
0.0
  0
LINE
  8
0
 62
     0
 10
3.9026
 20
54.307
 30
0.0
 11
4.04453
 21
54.0272
 31
0.0
  0
LINE
  8
0
 62
     0
 10
4.04453
 20
54.0272
 30
0.0
 11
4.09416
 21
53.7185
 31
0.0
  0
LINE
  8
0
 62
     0
 10
4.09416
 20
53.7185
 30
0.0
 11
4.04453
 21
53.4098
 31
0.0
  0
LINE
  8
0
 62
     0
 10
4.04453
 20
53.4098
 30
0.0
 11
3.9026
 21
53.1301
 31
0.0
  0
LINE
  8
0
 62
     0
 10
3.9026
 20
53.1301
 30
0.0
 11
3.68212
 21
52.9096
 31
0.0
  0
LINE
  8
0
 62
     0
 10
3.68212
 20
52.9096
 30
0.0
 11
3.40238
 21
52.7678
 31
0.0
  0
LINE
  8
0
 62
     0
 10
3.40238
 20
52.7678
 30
0.0
 11
3.0937
 21
52.7184
 31
0.0
  0
LINE
  8
0
 62
     0
 10
3.0937
 20
52.7184
 30
0.0
 11
2.78501
 21
52.7678
 31
0.0
  0
LINE
  8
0
 62
     0
 10
2.78501
 20
52.7678
 30
0.0
 11
2.50527
 21
52.9096
 31
0.0
  0
LINE
  8
0
 62
     0
 10
2.50527
 20
52.9096
 30
0.0
 11
2.28479
 21
53.1301
 31
0.0
  0
LINE
  8
0
 62
     0
 10
2.28479
 20
53.1301
 30
0.0
 11
2.14285
 21
53.4098
 31
0.0
  0
LINE
  8
0
 62
     0
 10
2.14285
 20
53.4098
 30
0.0
 11
2.09324
 21
53.7185
 31
0.0
  0
LINE
  8
0
 62
     0
 10
2.09324
 20
53.7185
 30
0.0
 11
2.14285
 21
54.0272
 31
0.0
  0
LINE
  8
0
 62
     0
 10
2.14285
 20
54.0272
 30
0.0
 11
2.28479
 21
54.307
 31
0.0
  0
LINE
  8
0
 62
     0
 10
2.28479
 20
54.307
 30
0.0
 11
2.50527
 21
54.5274
 31
0.0
  0
LINE
  8
0
 62
     0
 10
2.50527
 20
54.5274
 30
0.0
 11
2.78501
 21
54.6696
 31
0.0
  0
LINE
  8
0
 62
     0
 10
2.78501
 20
54.6696
 30
0.0
 11
3.0937
 21
54.719
 31
0.0
  0
LINE
  8
0
 62
     0
 10
3.0937
 20
105.344
 30
0.0
 11
3.40238
 21
105.295
 31
0.0
  0
LINE
  8
0
 62
     0
 10
3.40238
 20
105.295
 30
0.0
 11
3.68212
 21
105.152
 31
0.0
  0
LINE
  8
0
 62
     0
 10
3.68212
 20
105.152
 30
0.0
 11
3.9026
 21
104.932
 31
0.0
  0
LINE
  8
0
 62
     0
 10
3.9026
 20
104.932
 30
0.0
 11
4.04453
 21
104.652
 31
0.0
  0
LINE
  8
0
 62
     0
 10
4.04453
 20
104.652
 30
0.0
 11
4.09416
 21
104.344
 31
0.0
  0
LINE
  8
0
 62
     0
 10
4.09416
 20
104.344
 30
0.0
 11
4.04453
 21
104.035
 31
0.0
  0
LINE
  8
0
 62
     0
 10
4.04453
 20
104.035
 30
0.0
 11
3.9026
 21
103.755
 31
0.0
  0
LINE
  8
0
 62
     0
 10
3.9026
 20
103.755
 30
0.0
 11
3.68212
 21
103.535
 31
0.0
  0
LINE
  8
0
 62
     0
 10
3.68212
 20
103.535
 30
0.0
 11
3.40238
 21
103.393
 31
0.0
  0
LINE
  8
0
 62
     0
 10
3.40238
 20
103.393
 30
0.0
 11
3.0937
 21
103.343
 31
0.0
  0
LINE
  8
0
 62
     0
 10
3.0937
 20
103.343
 30
0.0
 11
2.78501
 21
103.393
 31
0.0
  0
LINE
  8
0
 62
     0
 10
2.78501
 20
103.393
 30
0.0
 11
2.50527
 21
103.535
 31
0.0
  0
LINE
  8
0
 62
     0
 10
2.50527
 20
103.535
 30
0.0
 11
2.28479
 21
103.755
 31
0.0
  0
LINE
  8
0
 62
     0
 10
2.28479
 20
103.755
 30
0.0
 11
2.14285
 21
104.035
 31
0.0
  0
LINE
  8
0
 62
     0
 10
2.14285
 20
104.035
 30
0.0
 11
2.09324
 21
104.344
 31
0.0
  0
LINE
  8
0
 62
     0
 10
2.09324
 20
104.344
 30
0.0
 11
2.14285
 21
104.652
 31
0.0
  0
LINE
  8
0
 62
     0
 10
2.14285
 20
104.652
 30
0.0
 11
2.28479
 21
104.932
 31
0.0
  0
LINE
  8
0
 62
     0
 10
2.28479
 20
104.932
 30
0.0
 11
2.50527
 21
105.152
 31
0.0
  0
LINE
  8
0
 62
     0
 10
2.50527
 20
105.152
 30
0.0
 11
2.78501
 21
105.295
 31
0.0
  0
LINE
  8
0
 62
     0
 10
2.78501
 20
105.295
 30
0.0
 11
3.0937
 21
105.344
 31
0.0
  0
ENDSEC
  0
EOF
