  0
SECTION
  2
HEADER
  9
$ACADVER
  1
AC1014
  9
$HANDSEED
  5
FFFF
  9
$MEASUREMENT
 70
     1
  0
ENDSEC
  0
SECTION
  2
TABLES
  0
TABLE
  2
VPORT
  5
8
330
0
100
AcDbSymbolTable
 70
     4
  0
VPORT
  5
2E
330
8
100
AcDbSymbolTableRecord
100
AcDbViewportTableRecord
  2
*ACTIVE
 70
     0
 10
0.0
 20
0.0
 11
1.0
 21
1.0
 12
210.0
 22
148.5
 13
0.0
 23
0.0
 14
10.0
 24
10.0
 15
10.0
 25
10.0
 16
0.0
 26
0.0
 36
1.0
 17
0.0
 27
0.0
 37
0.0
 40
341.0
 41
1.24
 42
50.0
 43
0.0
 44
0.0
 50
0.0
 51
0.0
 71
     0
 72
   100
 73
     1
 74
     3
 75
     0
 76
     0
 77
     0
 78
     0
  0
ENDTAB
  0
TABLE
  2
LTYPE
  5
5
330
0
100
AcDbSymbolTable
 70
     1
  0
LTYPE
  5
14
330
5
100
AcDbSymbolTableRecord
100
AcDbLinetypeTableRecord
  2
BYBLOCK
 70
     0
  3

 72
    65
 73
     0
 40
0.0
  0
LTYPE
  5
15
330
5
100
AcDbSymbolTableRecord
100
AcDbLinetypeTableRecord
  2
BYLAYER
 70
     0
  3

 72
    65
 73
     0
 40
0.0
  0
LTYPE
  5
16
330
5
100
AcDbSymbolTableRecord
100
AcDbLinetypeTableRecord
  2
CONTINUOUS
 70
     0
  3
Solid line
 72
    65
 73
     0
 40
0.0
  0
ENDTAB
  0
TABLE
  2
LAYER
  5
2
100
AcDbSymbolTable
 70
2
  0
LAYER
  5
50
100
AcDbSymbolTableRecord
100
AcDbLayerTableRecord
  2
0
 70
0
  6
CONTINUOUS
  0
LAYER
  5
51
100
AcDbSymbolTableRecord
100
AcDbLayerTableRecord
  2
Layer_1
 70
0
  6
CONTINUOUS
  0
ENDTAB
  0
TABLE
  2
STYLE
  5
3
330
0
100
AcDbSymbolTable
 70
     1
  0
STYLE
  5
11
330
3
100
AcDbSymbolTableRecord
100
AcDbTextStyleTableRecord
  2
STANDARD
 70
     0
 40
0.0
 41
1.0
 50
0.0
 71
     0
 42
2.5
  3
txt
  4

  0
ENDTAB
  0
TABLE
  2
VIEW
  5
6
330
0
100
AcDbSymbolTable
 70
     0
  0
ENDTAB
  0
TABLE
  2
UCS
  5
7
330
0
100
AcDbSymbolTable
 70
     0
  0
ENDTAB
  0
TABLE
  2
APPID
  5
9
330
0
100
AcDbSymbolTable
 70
     2
  0
APPID
  5
12
330
9
100
AcDbSymbolTableRecord
100
AcDbRegAppTableRecord
  2
ACAD
 70
     0
  0
ENDTAB
  0
TABLE
  2
DIMSTYLE
  5
A
330
0
100
AcDbSymbolTable
 70
     1
  0
DIMSTYLE
105
27
330
A
100
AcDbSymbolTableRecord
100
AcDbDimStyleTableRecord
  2
ISO-25
 70
     0
  3

  4

  5

  6

  7

 40
1.0
 41
2.5
 42
0.625
 43
3.75
 44
1.25
 45
0.0
 46
0.0
 47
0.0
 48
0.0
140
2.5
141
2.5
142
0.0
143
0.03937007874016
144
1.0
145
0.0
146
1.0
147
0.625
 71
     0
 72
     0
 73
     0
 74
     0
 75
     0
 76
     0
 77
     1
 78
     8
170
     0
171
     3
172
     1
173
     0
174
     0
175
     0
176
     0
177
     0
178
     0
270
     2
271
     2
272
     2
273
     2
274
     3
340
11
275
     0
280
     0
281
     0
282
     0
283
     0
284
     8
285
     0
286
     0
287
     3
288
     0
  0
ENDTAB
  0
TABLE
  2
BLOCK_RECORD
  5
1
330
0
100
AcDbSymbolTable
 70
     1
  0
BLOCK_RECORD
  5
1F
330
1
100
AcDbSymbolTableRecord
100
AcDbBlockTableRecord
  2
*MODEL_SPACE
  0
BLOCK_RECORD
  5
1B
330
1
100
AcDbSymbolTableRecord
100
AcDbBlockTableRecord
  2
*PAPER_SPACE
  0
ENDTAB
  0
ENDSEC
  0
SECTION
  2
BLOCKS
  0
BLOCK
  5
20
330
1F
100
AcDbEntity
  8
0
100
AcDbBlockBegin
  2
*MODEL_SPACE
 70
     0
 10
0.0
 20
0.0
 30
0.0
  3
*MODEL_SPACE
  1

  0
ENDBLK
  5
21
330
1F
100
AcDbEntity
  8
0
100
AcDbBlockEnd
  0
BLOCK
  5
1C
330
1B
100
AcDbEntity
 67
     1
  8
0
100
AcDbBlockBegin
  2
*PAPER_SPACE
  1

  0
ENDBLK
  5
1D
330
1B
100
AcDbEntity
 67
     1
  8
0
100
AcDbBlockEnd
  0
ENDSEC
  0
SECTION
  2
ENTITIES
  0
LWPOLYLINE
  5
100
100
AcDbEntity
  8
Layer_1
 62
7
100
AcDbPolyline
 90
85
 70
1
 10
11.724213
 20
8.662137
 30
0.0
 10
11.725394
 20
8.656074
 30
0.0
 10
11.726142
 20
8.649932
 30
0.0
 10
11.726378
 20
8.643751
 30
0.0
 10
11.726378
 20
4.578790
 30
0.0
 10
11.726142
 20
4.572609
 30
0.0
 10
11.725394
 20
4.566468
 30
0.0
 10
11.724213
 20
4.560405
 30
0.0
 10
11.722520
 20
4.554460
 30
0.0
 10
11.720394
 20
4.548672
 30
0.0
 10
11.717795
 20
4.543042
 30
0.0
 10
11.714764
 20
4.537649
 30
0.0
 10
11.711339
 20
4.532491
 30
0.0
 10
11.707520
 20
4.527649
 30
0.0
 10
11.703307
 20
4.523121
 30
0.0
 10
11.698780
 20
4.518909
 30
0.0
 10
11.693937
 20
4.515090
 30
0.0
 10
11.688780
 20
4.511664
 30
0.0
 10
11.683386
 20
4.508633
 30
0.0
 10
11.677756
 20
4.506035
 30
0.0
 10
11.671969
 20
4.503909
 30
0.0
 10
11.666024
 20
4.502216
 30
0.0
 10
11.659961
 20
4.501035
 30
0.0
 10
11.653819
 20
4.500286
 30
0.0
 10
11.647638
 20
4.500050
 30
0.0
 10
0.082677
 20
4.500050
 30
0.0
 10
0.076496
 20
4.500286
 30
0.0
 10
0.070354
 20
4.501035
 30
0.0
 10
0.064291
 20
4.502216
 30
0.0
 10
0.058346
 20
4.503909
 30
0.0
 10
0.052559
 20
4.506035
 30
0.0
 10
0.046929
 20
4.508633
 30
0.0
 10
0.041535
 20
4.511664
 30
0.0
 10
0.036378
 20
4.515090
 30
0.0
 10
0.031535
 20
4.518909
 30
0.0
 10
0.027008
 20
4.523121
 30
0.0
 10
0.022795
 20
4.527649
 30
0.0
 10
0.018976
 20
4.532491
 30
0.0
 10
0.015551
 20
4.537649
 30
0.0
 10
0.012520
 20
4.543042
 30
0.0
 10
0.009921
 20
4.548672
 30
0.0
 10
0.007795
 20
4.554460
 30
0.0
 10
0.006102
 20
4.560405
 30
0.0
 10
0.004921
 20
4.566468
 30
0.0
 10
0.004173
 20
4.572609
 30
0.0
 10
0.003937
 20
4.578790
 30
0.0
 10
0.003937
 20
8.643751
 30
0.0
 10
0.004173
 20
8.649932
 30
0.0
 10
0.004921
 20
8.656074
 30
0.0
 10
0.006102
 20
8.662137
 30
0.0
 10
0.007795
 20
8.668082
 30
0.0
 10
0.009921
 20
8.673869
 30
0.0
 10
0.012520
 20
8.679499
 30
0.0
 10
0.015551
 20
8.684893
 30
0.0
 10
0.018976
 20
8.690050
 30
0.0
 10
0.022795
 20
8.694893
 30
0.0
 10
0.027008
 20
8.699420
 30
0.0
 10
0.031535
 20
8.703633
 30
0.0
 10
0.036378
 20
8.707452
 30
0.0
 10
0.041535
 20
8.710877
 30
0.0
 10
0.046929
 20
8.713909
 30
0.0
 10
0.052559
 20
8.716507
 30
0.0
 10
0.058346
 20
8.718633
 30
0.0
 10
0.064291
 20
8.720326
 30
0.0
 10
0.070354
 20
8.721507
 30
0.0
 10
0.076496
 20
8.722255
 30
0.0
 10
0.082677
 20
8.722491
 30
0.0
 10
11.647638
 20
8.722491
 30
0.0
 10
11.653819
 20
8.722255
 30
0.0
 10
11.659961
 20
8.721507
 30
0.0
 10
11.666024
 20
8.720326
 30
0.0
 10
11.671969
 20
8.718633
 30
0.0
 10
11.677756
 20
8.716507
 30
0.0
 10
11.683386
 20
8.713909
 30
0.0
 10
11.688780
 20
8.710877
 30
0.0
 10
11.693937
 20
8.707452
 30
0.0
 10
11.698780
 20
8.703633
 30
0.0
 10
11.703307
 20
8.699420
 30
0.0
 10
11.707520
 20
8.694893
 30
0.0
 10
11.711339
 20
8.690050
 30
0.0
 10
11.714764
 20
8.684893
 30
0.0
 10
11.717795
 20
8.679499
 30
0.0
 10
11.720394
 20
8.673869
 30
0.0
 10
11.722520
 20
8.668082
 30
0.0
 10
11.724213
 20
8.662137
 30
0.0
  0
LWPOLYLINE
  5
101
100
AcDbEntity
  8
Layer_1
 62
7
100
AcDbPolyline
 90
5
 70
1
 10
0.240158
 20
8.486271
 30
0.0
 10
11.490158
 20
8.486271
 30
0.0
 10
11.490158
 20
4.736271
 30
0.0
 10
0.240157
 20
4.736271
 30
0.0
 10
0.240158
 20
8.486271
 30
0.0
  0
LWPOLYLINE
  5
102
100
AcDbEntity
  8
Layer_1
 62
7
100
AcDbPolyline
 90
21
 70
1
 10
2.961732
 20
8.627531
 30
0.0
 10
2.970472
 20
8.636231
 30
0.0
 10
2.981417
 20
8.641822
 30
0.0
 10
2.993622
 20
8.643751
 30
0.0
 10
3.005787
 20
8.641822
 30
0.0
 10
3.016732
 20
8.636231
 30
0.0
 10
3.025472
 20
8.627531
 30
0.0
 10
3.031063
 20
8.616546
 30
0.0
 10
3.032992
 20
8.604381
 30
0.0
 10
3.031063
 20
8.592216
 30
0.0
 10
3.025472
 20
8.581231
 30
0.0
 10
3.016732
 20
8.572531
 30
0.0
 10
3.005787
 20
8.566940
 30
0.0
 10
2.993622
 20
8.565011
 30
0.0
 10
2.981417
 20
8.566940
 30
0.0
 10
2.970472
 20
8.572531
 30
0.0
 10
2.961732
 20
8.581231
 30
0.0
 10
2.956142
 20
8.592216
 30
0.0
 10
2.954252
 20
8.604381
 30
0.0
 10
2.956142
 20
8.616546
 30
0.0
 10
2.961732
 20
8.627531
 30
0.0
  0
LWPOLYLINE
  5
103
100
AcDbEntity
  8
Layer_1
 62
7
100
AcDbPolyline
 90
21
 70
1
 10
5.833307
 20
8.627531
 30
0.0
 10
5.842008
 20
8.636231
 30
0.0
 10
5.852992
 20
8.641822
 30
0.0
 10
5.865158
 20
8.643751
 30
0.0
 10
5.877323
 20
8.641822
 30
0.0
 10
5.888307
 20
8.636231
 30
0.0
 10
5.897008
 20
8.627531
 30
0.0
 10
5.902598
 20
8.616546
 30
0.0
 10
5.904528
 20
8.604381
 30
0.0
 10
5.902598
 20
8.592216
 30
0.0
 10
5.897008
 20
8.581231
 30
0.0
 10
5.888307
 20
8.572531
 30
0.0
 10
5.877323
 20
8.566940
 30
0.0
 10
5.865158
 20
8.565011
 30
0.0
 10
5.852992
 20
8.566940
 30
0.0
 10
5.842008
 20
8.572531
 30
0.0
 10
5.833307
 20
8.581231
 30
0.0
 10
5.827717
 20
8.592216
 30
0.0
 10
5.825787
 20
8.604381
 30
0.0
 10
5.827717
 20
8.616546
 30
0.0
 10
5.833307
 20
8.627531
 30
0.0
  0
LWPOLYLINE
  5
104
100
AcDbEntity
  8
Layer_1
 62
7
100
AcDbPolyline
 90
21
 70
1
 10
8.704843
 20
8.627531
 30
0.0
 10
8.713583
 20
8.636231
 30
0.0
 10
8.724528
 20
8.641822
 30
0.0
 10
8.736732
 20
8.643751
 30
0.0
 10
8.748898
 20
8.641822
 30
0.0
 10
8.759843
 20
8.636231
 30
0.0
 10
8.768583
 20
8.627531
 30
0.0
 10
8.774173
 20
8.616546
 30
0.0
 10
8.776102
 20
8.604381
 30
0.0
 10
8.774173
 20
8.592216
 30
0.0
 10
8.768583
 20
8.581231
 30
0.0
 10
8.759843
 20
8.572531
 30
0.0
 10
8.748898
 20
8.566940
 30
0.0
 10
8.736732
 20
8.565011
 30
0.0
 10
8.724528
 20
8.566940
 30
0.0
 10
8.713583
 20
8.572531
 30
0.0
 10
8.704843
 20
8.581231
 30
0.0
 10
8.699252
 20
8.592216
 30
0.0
 10
8.697362
 20
8.604381
 30
0.0
 10
8.699252
 20
8.616546
 30
0.0
 10
8.704843
 20
8.627531
 30
0.0
  0
LWPOLYLINE
  5
105
100
AcDbEntity
  8
Layer_1
 62
7
100
AcDbPolyline
 90
21
 70
1
 10
11.576417
 20
8.627531
 30
0.0
 10
11.585118
 20
8.636231
 30
0.0
 10
11.596102
 20
8.641822
 30
0.0
 10
11.608268
 20
8.643751
 30
0.0
 10
11.620433
 20
8.641822
 30
0.0
 10
11.631417
 20
8.636231
 30
0.0
 10
11.640118
 20
8.627531
 30
0.0
 10
11.645709
 20
8.616546
 30
0.0
 10
11.647638
 20
8.604381
 30
0.0
 10
11.645709
 20
8.592216
 30
0.0
 10
11.640118
 20
8.581231
 30
0.0
 10
11.631417
 20
8.572531
 30
0.0
 10
11.620433
 20
8.566940
 30
0.0
 10
11.608268
 20
8.565011
 30
0.0
 10
11.596102
 20
8.566940
 30
0.0
 10
11.585118
 20
8.572531
 30
0.0
 10
11.576417
 20
8.581231
 30
0.0
 10
11.570827
 20
8.592216
 30
0.0
 10
11.568898
 20
8.604381
 30
0.0
 10
11.570827
 20
8.616546
 30
0.0
 10
11.576417
 20
8.627531
 30
0.0
  0
LWPOLYLINE
  5
106
100
AcDbEntity
  8
Layer_1
 62
7
100
AcDbPolyline
 90
21
 70
1
 10
11.576417
 20
6.634420
 30
0.0
 10
11.585118
 20
6.643121
 30
0.0
 10
11.596102
 20
6.648712
 30
0.0
 10
11.608268
 20
6.650641
 30
0.0
 10
11.620433
 20
6.648712
 30
0.0
 10
11.631417
 20
6.643121
 30
0.0
 10
11.640118
 20
6.634420
 30
0.0
 10
11.645709
 20
6.623436
 30
0.0
 10
11.647638
 20
6.611271
 30
0.0
 10
11.645709
 20
6.599105
 30
0.0
 10
11.640118
 20
6.588121
 30
0.0
 10
11.631417
 20
6.579420
 30
0.0
 10
11.620433
 20
6.573830
 30
0.0
 10
11.608268
 20
6.571901
 30
0.0
 10
11.596102
 20
6.573830
 30
0.0
 10
11.585118
 20
6.579420
 30
0.0
 10
11.576417
 20
6.588121
 30
0.0
 10
11.570827
 20
6.599105
 30
0.0
 10
11.568898
 20
6.611271
 30
0.0
 10
11.570827
 20
6.623436
 30
0.0
 10
11.576417
 20
6.634420
 30
0.0
  0
LWPOLYLINE
  5
107
100
AcDbEntity
  8
Layer_1
 62
7
100
AcDbPolyline
 90
21
 70
1
 10
11.576417
 20
4.641310
 30
0.0
 10
11.585118
 20
4.650011
 30
0.0
 10
11.596102
 20
4.655601
 30
0.0
 10
11.608268
 20
4.657531
 30
0.0
 10
11.620433
 20
4.655601
 30
0.0
 10
11.631417
 20
4.650011
 30
0.0
 10
11.640118
 20
4.641310
 30
0.0
 10
11.645709
 20
4.630326
 30
0.0
 10
11.647638
 20
4.618160
 30
0.0
 10
11.645709
 20
4.605995
 30
0.0
 10
11.640118
 20
4.595011
 30
0.0
 10
11.631417
 20
4.586310
 30
0.0
 10
11.620433
 20
4.580720
 30
0.0
 10
11.608268
 20
4.578790
 30
0.0
 10
11.596102
 20
4.580720
 30
0.0
 10
11.585118
 20
4.586310
 30
0.0
 10
11.576417
 20
4.595011
 30
0.0
 10
11.570827
 20
4.605995
 30
0.0
 10
11.568898
 20
4.618160
 30
0.0
 10
11.570827
 20
4.630326
 30
0.0
 10
11.576417
 20
4.641310
 30
0.0
  0
LWPOLYLINE
  5
108
100
AcDbEntity
  8
Layer_1
 62
7
100
AcDbPolyline
 90
21
 70
1
 10
8.704843
 20
4.641310
 30
0.0
 10
8.713583
 20
4.650011
 30
0.0
 10
8.724528
 20
4.655601
 30
0.0
 10
8.736732
 20
4.657531
 30
0.0
 10
8.748898
 20
4.655601
 30
0.0
 10
8.759843
 20
4.650011
 30
0.0
 10
8.768583
 20
4.641310
 30
0.0
 10
8.774173
 20
4.630326
 30
0.0
 10
8.776102
 20
4.618160
 30
0.0
 10
8.774173
 20
4.605995
 30
0.0
 10
8.768583
 20
4.595011
 30
0.0
 10
8.759843
 20
4.586310
 30
0.0
 10
8.748898
 20
4.580720
 30
0.0
 10
8.736732
 20
4.578790
 30
0.0
 10
8.724528
 20
4.580720
 30
0.0
 10
8.713583
 20
4.586310
 30
0.0
 10
8.704843
 20
4.595011
 30
0.0
 10
8.699252
 20
4.605995
 30
0.0
 10
8.697362
 20
4.618160
 30
0.0
 10
8.699252
 20
4.630326
 30
0.0
 10
8.704843
 20
4.641310
 30
0.0
  0
LWPOLYLINE
  5
109
100
AcDbEntity
  8
Layer_1
 62
7
100
AcDbPolyline
 90
21
 70
1
 10
5.833307
 20
4.641310
 30
0.0
 10
5.842008
 20
4.650011
 30
0.0
 10
5.852992
 20
4.655601
 30
0.0
 10
5.865158
 20
4.657531
 30
0.0
 10
5.877323
 20
4.655601
 30
0.0
 10
5.888307
 20
4.650011
 30
0.0
 10
5.897008
 20
4.641310
 30
0.0
 10
5.902598
 20
4.630326
 30
0.0
 10
5.904528
 20
4.618160
 30
0.0
 10
5.902598
 20
4.605995
 30
0.0
 10
5.897008
 20
4.595011
 30
0.0
 10
5.888307
 20
4.586310
 30
0.0
 10
5.877323
 20
4.580720
 30
0.0
 10
5.865158
 20
4.578790
 30
0.0
 10
5.852992
 20
4.580720
 30
0.0
 10
5.842008
 20
4.586310
 30
0.0
 10
5.833307
 20
4.595011
 30
0.0
 10
5.827717
 20
4.605995
 30
0.0
 10
5.825787
 20
4.618160
 30
0.0
 10
5.827717
 20
4.630326
 30
0.0
 10
5.833307
 20
4.641310
 30
0.0
  0
LWPOLYLINE
  5
10a
100
AcDbEntity
  8
Layer_1
 62
7
100
AcDbPolyline
 90
21
 70
1
 10
2.961732
 20
4.641310
 30
0.0
 10
2.970472
 20
4.650011
 30
0.0
 10
2.981417
 20
4.655601
 30
0.0
 10
2.993622
 20
4.657531
 30
0.0
 10
3.005787
 20
4.655601
 30
0.0
 10
3.016732
 20
4.650011
 30
0.0
 10
3.025472
 20
4.641310
 30
0.0
 10
3.031063
 20
4.630326
 30
0.0
 10
3.032992
 20
4.618160
 30
0.0
 10
3.031063
 20
4.605995
 30
0.0
 10
3.025472
 20
4.595011
 30
0.0
 10
3.016732
 20
4.586310
 30
0.0
 10
3.005787
 20
4.580720
 30
0.0
 10
2.993622
 20
4.578790
 30
0.0
 10
2.981417
 20
4.580720
 30
0.0
 10
2.970472
 20
4.586310
 30
0.0
 10
2.961732
 20
4.595011
 30
0.0
 10
2.956142
 20
4.605995
 30
0.0
 10
2.954252
 20
4.618160
 30
0.0
 10
2.956142
 20
4.630326
 30
0.0
 10
2.961732
 20
4.641310
 30
0.0
  0
LWPOLYLINE
  5
10b
100
AcDbEntity
  8
Layer_1
 62
7
100
AcDbPolyline
 90
21
 70
1
 10
0.090197
 20
4.641310
 30
0.0
 10
0.098898
 20
4.650011
 30
0.0
 10
0.109882
 20
4.655601
 30
0.0
 10
0.122047
 20
4.657531
 30
0.0
 10
0.134213
 20
4.655601
 30
0.0
 10
0.145197
 20
4.650011
 30
0.0
 10
0.153898
 20
4.641310
 30
0.0
 10
0.159488
 20
4.630326
 30
0.0
 10
0.161417
 20
4.618160
 30
0.0
 10
0.159488
 20
4.605995
 30
0.0
 10
0.153898
 20
4.595011
 30
0.0
 10
0.145197
 20
4.586310
 30
0.0
 10
0.134213
 20
4.580720
 30
0.0
 10
0.122047
 20
4.578790
 30
0.0
 10
0.109882
 20
4.580720
 30
0.0
 10
0.098898
 20
4.586310
 30
0.0
 10
0.090197
 20
4.595011
 30
0.0
 10
0.084606
 20
4.605995
 30
0.0
 10
0.082677
 20
4.618160
 30
0.0
 10
0.084606
 20
4.630326
 30
0.0
 10
0.090197
 20
4.641310
 30
0.0
  0
LWPOLYLINE
  5
10c
100
AcDbEntity
  8
Layer_1
 62
7
100
AcDbPolyline
 90
21
 70
1
 10
0.090197
 20
6.634420
 30
0.0
 10
0.098898
 20
6.643121
 30
0.0
 10
0.109882
 20
6.648712
 30
0.0
 10
0.122047
 20
6.650641
 30
0.0
 10
0.134213
 20
6.648712
 30
0.0
 10
0.145197
 20
6.643121
 30
0.0
 10
0.153898
 20
6.634420
 30
0.0
 10
0.159488
 20
6.623436
 30
0.0
 10
0.161417
 20
6.611271
 30
0.0
 10
0.159488
 20
6.599105
 30
0.0
 10
0.153898
 20
6.588121
 30
0.0
 10
0.145197
 20
6.579420
 30
0.0
 10
0.134213
 20
6.573830
 30
0.0
 10
0.122047
 20
6.571901
 30
0.0
 10
0.109882
 20
6.573830
 30
0.0
 10
0.098898
 20
6.579420
 30
0.0
 10
0.090197
 20
6.588121
 30
0.0
 10
0.084606
 20
6.599105
 30
0.0
 10
0.082677
 20
6.611271
 30
0.0
 10
0.084606
 20
6.623436
 30
0.0
 10
0.090197
 20
6.634420
 30
0.0
  0
LWPOLYLINE
  5
10d
100
AcDbEntity
  8
Layer_1
 62
7
100
AcDbPolyline
 90
21
 70
1
 10
0.090197
 20
8.627531
 30
0.0
 10
0.098898
 20
8.636231
 30
0.0
 10
0.109882
 20
8.641822
 30
0.0
 10
0.122047
 20
8.643751
 30
0.0
 10
0.134213
 20
8.641822
 30
0.0
 10
0.145197
 20
8.636231
 30
0.0
 10
0.153898
 20
8.627531
 30
0.0
 10
0.159488
 20
8.616546
 30
0.0
 10
0.161417
 20
8.604381
 30
0.0
 10
0.159488
 20
8.592216
 30
0.0
 10
0.153898
 20
8.581231
 30
0.0
 10
0.145197
 20
8.572531
 30
0.0
 10
0.134213
 20
8.566940
 30
0.0
 10
0.122047
 20
8.565011
 30
0.0
 10
0.109882
 20
8.566940
 30
0.0
 10
0.098898
 20
8.572531
 30
0.0
 10
0.090197
 20
8.581231
 30
0.0
 10
0.084606
 20
8.592216
 30
0.0
 10
0.082677
 20
8.604381
 30
0.0
 10
0.084606
 20
8.616546
 30
0.0
 10
0.090197
 20
8.627531
 30
0.0
  0
LWPOLYLINE
  5
10e
100
AcDbEntity
  8
Layer_1
 62
7
100
AcDbPolyline
 90
85
 70
1
 10
11.725394
 20
0.070354
 30
0.0
 10
11.724213
 20
0.064291
 30
0.0
 10
11.722520
 20
0.058346
 30
0.0
 10
11.720394
 20
0.052559
 30
0.0
 10
11.717795
 20
0.046929
 30
0.0
 10
11.714764
 20
0.041535
 30
0.0
 10
11.711339
 20
0.036378
 30
0.0
 10
11.707520
 20
0.031535
 30
0.0
 10
11.703307
 20
0.027008
 30
0.0
 10
11.698780
 20
0.022795
 30
0.0
 10
11.693937
 20
0.018976
 30
0.0
 10
11.688780
 20
0.015551
 30
0.0
 10
11.683386
 20
0.012519
 30
0.0
 10
11.677756
 20
0.009921
 30
0.0
 10
11.671969
 20
0.007795
 30
0.0
 10
11.666024
 20
0.006102
 30
0.0
 10
11.659961
 20
0.004921
 30
0.0
 10
11.653819
 20
0.004173
 30
0.0
 10
11.647638
 20
0.003937
 30
0.0
 10
0.082677
 20
0.003937
 30
0.0
 10
0.076496
 20
0.004173
 30
0.0
 10
0.070354
 20
0.004921
 30
0.0
 10
0.064291
 20
0.006102
 30
0.0
 10
0.058346
 20
0.007795
 30
0.0
 10
0.052559
 20
0.009921
 30
0.0
 10
0.046929
 20
0.012519
 30
0.0
 10
0.041535
 20
0.015551
 30
0.0
 10
0.036378
 20
0.018976
 30
0.0
 10
0.031535
 20
0.022795
 30
0.0
 10
0.027008
 20
0.027008
 30
0.0
 10
0.022795
 20
0.031535
 30
0.0
 10
0.018976
 20
0.036378
 30
0.0
 10
0.015551
 20
0.041535
 30
0.0
 10
0.012520
 20
0.046929
 30
0.0
 10
0.009921
 20
0.052559
 30
0.0
 10
0.007795
 20
0.058346
 30
0.0
 10
0.006102
 20
0.064291
 30
0.0
 10
0.004921
 20
0.070354
 30
0.0
 10
0.004173
 20
0.076496
 30
0.0
 10
0.003937
 20
0.082677
 30
0.0
 10
0.003937
 20
4.147638
 30
0.0
 10
0.004173
 20
4.153819
 30
0.0
 10
0.004921
 20
4.159960
 30
0.0
 10
0.006102
 20
4.166023
 30
0.0
 10
0.007795
 20
4.171968
 30
0.0
 10
0.009921
 20
4.177756
 30
0.0
 10
0.012520
 20
4.183386
 30
0.0
 10
0.015551
 20
4.188779
 30
0.0
 10
0.018976
 20
4.193937
 30
0.0
 10
0.022795
 20
4.198779
 30
0.0
 10
0.027008
 20
4.203307
 30
0.0
 10
0.031535
 20
4.207520
 30
0.0
 10
0.036378
 20
4.211338
 30
0.0
 10
0.041535
 20
4.214764
 30
0.0
 10
0.046929
 20
4.217795
 30
0.0
 10
0.052559
 20
4.220394
 30
0.0
 10
0.058346
 20
4.222520
 30
0.0
 10
0.064291
 20
4.224212
 30
0.0
 10
0.070354
 20
4.225394
 30
0.0
 10
0.076496
 20
4.226142
 30
0.0
 10
0.082677
 20
4.226378
 30
0.0
 10
11.647638
 20
4.226378
 30
0.0
 10
11.653819
 20
4.226142
 30
0.0
 10
11.659961
 20
4.225394
 30
0.0
 10
11.666024
 20
4.224212
 30
0.0
 10
11.671969
 20
4.222520
 30
0.0
 10
11.677756
 20
4.220394
 30
0.0
 10
11.683386
 20
4.217795
 30
0.0
 10
11.688780
 20
4.214764
 30
0.0
 10
11.693937
 20
4.211338
 30
0.0
 10
11.698780
 20
4.207520
 30
0.0
 10
11.703307
 20
4.203307
 30
0.0
 10
11.707520
 20
4.198779
 30
0.0
 10
11.711339
 20
4.193937
 30
0.0
 10
11.714764
 20
4.188779
 30
0.0
 10
11.717795
 20
4.183386
 30
0.0
 10
11.720394
 20
4.177756
 30
0.0
 10
11.722520
 20
4.171968
 30
0.0
 10
11.724213
 20
4.166023
 30
0.0
 10
11.725394
 20
4.159960
 30
0.0
 10
11.726142
 20
4.153819
 30
0.0
 10
11.726378
 20
4.147638
 30
0.0
 10
11.726378
 20
0.082677
 30
0.0
 10
11.726142
 20
0.076496
 30
0.0
 10
11.725394
 20
0.070354
 30
0.0
  0
LWPOLYLINE
  5
10f
100
AcDbEntity
  8
Layer_1
 62
7
100
AcDbPolyline
 90
5
 70
1
 10
0.240158
 20
3.990157
 30
0.0
 10
11.490158
 20
3.990157
 30
0.0
 10
11.490158
 20
0.240157
 30
0.0
 10
0.240157
 20
0.240157
 30
0.0
 10
0.240158
 20
3.990157
 30
0.0
  0
LWPOLYLINE
  5
110
100
AcDbEntity
  8
Layer_1
 62
7
100
AcDbPolyline
 90
21
 70
1
 10
3.025472
 20
4.131417
 30
0.0
 10
3.031063
 20
4.120433
 30
0.0
 10
3.032992
 20
4.108268
 30
0.0
 10
3.031063
 20
4.096102
 30
0.0
 10
3.025472
 20
4.085118
 30
0.0
 10
3.016732
 20
4.076417
 30
0.0
 10
3.005787
 20
4.070827
 30
0.0
 10
2.993622
 20
4.068897
 30
0.0
 10
2.981417
 20
4.070827
 30
0.0
 10
2.970472
 20
4.076417
 30
0.0
 10
2.961732
 20
4.085118
 30
0.0
 10
2.956142
 20
4.096102
 30
0.0
 10
2.954252
 20
4.108268
 30
0.0
 10
2.956142
 20
4.120433
 30
0.0
 10
2.961732
 20
4.131417
 30
0.0
 10
2.970472
 20
4.140118
 30
0.0
 10
2.981417
 20
4.145708
 30
0.0
 10
2.993622
 20
4.147638
 30
0.0
 10
3.005787
 20
4.145708
 30
0.0
 10
3.016732
 20
4.140118
 30
0.0
 10
3.025472
 20
4.131417
 30
0.0
  0
LWPOLYLINE
  5
111
100
AcDbEntity
  8
Layer_1
 62
7
100
AcDbPolyline
 90
21
 70
1
 10
5.897008
 20
4.131417
 30
0.0
 10
5.902598
 20
4.120433
 30
0.0
 10
5.904528
 20
4.108268
 30
0.0
 10
5.902598
 20
4.096102
 30
0.0
 10
5.897008
 20
4.085118
 30
0.0
 10
5.888307
 20
4.076417
 30
0.0
 10
5.877323
 20
4.070827
 30
0.0
 10
5.865158
 20
4.068897
 30
0.0
 10
5.852992
 20
4.070827
 30
0.0
 10
5.842008
 20
4.076417
 30
0.0
 10
5.833307
 20
4.085118
 30
0.0
 10
5.827717
 20
4.096102
 30
0.0
 10
5.825787
 20
4.108268
 30
0.0
 10
5.827717
 20
4.120433
 30
0.0
 10
5.833307
 20
4.131417
 30
0.0
 10
5.842008
 20
4.140118
 30
0.0
 10
5.852992
 20
4.145708
 30
0.0
 10
5.865158
 20
4.147638
 30
0.0
 10
5.877323
 20
4.145708
 30
0.0
 10
5.888307
 20
4.140118
 30
0.0
 10
5.897008
 20
4.131417
 30
0.0
  0
LWPOLYLINE
  5
112
100
AcDbEntity
  8
Layer_1
 62
7
100
AcDbPolyline
 90
21
 70
1
 10
8.768583
 20
4.131417
 30
0.0
 10
8.774173
 20
4.120433
 30
0.0
 10
8.776102
 20
4.108268
 30
0.0
 10
8.774173
 20
4.096102
 30
0.0
 10
8.768583
 20
4.085118
 30
0.0
 10
8.759843
 20
4.076417
 30
0.0
 10
8.748898
 20
4.070827
 30
0.0
 10
8.736732
 20
4.068897
 30
0.0
 10
8.724528
 20
4.070827
 30
0.0
 10
8.713583
 20
4.076417
 30
0.0
 10
8.704843
 20
4.085118
 30
0.0
 10
8.699252
 20
4.096102
 30
0.0
 10
8.697362
 20
4.108268
 30
0.0
 10
8.699252
 20
4.120433
 30
0.0
 10
8.704843
 20
4.131417
 30
0.0
 10
8.713583
 20
4.140118
 30
0.0
 10
8.724528
 20
4.145708
 30
0.0
 10
8.736732
 20
4.147638
 30
0.0
 10
8.748898
 20
4.145708
 30
0.0
 10
8.759843
 20
4.140118
 30
0.0
 10
8.768583
 20
4.131417
 30
0.0
  0
LWPOLYLINE
  5
113
100
AcDbEntity
  8
Layer_1
 62
7
100
AcDbPolyline
 90
21
 70
1
 10
11.640118
 20
4.131417
 30
0.0
 10
11.645709
 20
4.120433
 30
0.0
 10
11.647638
 20
4.108268
 30
0.0
 10
11.645709
 20
4.096102
 30
0.0
 10
11.640118
 20
4.085118
 30
0.0
 10
11.631417
 20
4.076417
 30
0.0
 10
11.620433
 20
4.070827
 30
0.0
 10
11.608268
 20
4.068897
 30
0.0
 10
11.596102
 20
4.070827
 30
0.0
 10
11.585118
 20
4.076417
 30
0.0
 10
11.576417
 20
4.085118
 30
0.0
 10
11.570827
 20
4.096102
 30
0.0
 10
11.568898
 20
4.108268
 30
0.0
 10
11.570827
 20
4.120433
 30
0.0
 10
11.576417
 20
4.131417
 30
0.0
 10
11.585118
 20
4.140118
 30
0.0
 10
11.596102
 20
4.145708
 30
0.0
 10
11.608268
 20
4.147638
 30
0.0
 10
11.620433
 20
4.145708
 30
0.0
 10
11.631417
 20
4.140118
 30
0.0
 10
11.640118
 20
4.131417
 30
0.0
  0
LWPOLYLINE
  5
114
100
AcDbEntity
  8
Layer_1
 62
7
100
AcDbPolyline
 90
21
 70
1
 10
11.640118
 20
2.138307
 30
0.0
 10
11.645709
 20
2.127323
 30
0.0
 10
11.647638
 20
2.115157
 30
0.0
 10
11.645709
 20
2.102992
 30
0.0
 10
11.640118
 20
2.092008
 30
0.0
 10
11.631417
 20
2.083307
 30
0.0
 10
11.620433
 20
2.077716
 30
0.0
 10
11.608268
 20
2.075787
 30
0.0
 10
11.596102
 20
2.077716
 30
0.0
 10
11.585118
 20
2.083307
 30
0.0
 10
11.576417
 20
2.092008
 30
0.0
 10
11.570827
 20
2.102992
 30
0.0
 10
11.568898
 20
2.115157
 30
0.0
 10
11.570827
 20
2.127323
 30
0.0
 10
11.576417
 20
2.138307
 30
0.0
 10
11.585118
 20
2.147008
 30
0.0
 10
11.596102
 20
2.152598
 30
0.0
 10
11.608268
 20
2.154527
 30
0.0
 10
11.620433
 20
2.152598
 30
0.0
 10
11.631417
 20
2.147008
 30
0.0
 10
11.640118
 20
2.138307
 30
0.0
  0
LWPOLYLINE
  5
115
100
AcDbEntity
  8
Layer_1
 62
7
100
AcDbPolyline
 90
21
 70
1
 10
11.640118
 20
0.145197
 30
0.0
 10
11.645709
 20
0.134212
 30
0.0
 10
11.647638
 20
0.122047
 30
0.0
 10
11.645709
 20
0.109882
 30
0.0
 10
11.640118
 20
0.098897
 30
0.0
 10
11.631417
 20
0.090197
 30
0.0
 10
11.620433
 20
0.084606
 30
0.0
 10
11.608268
 20
0.082677
 30
0.0
 10
11.596102
 20
0.084606
 30
0.0
 10
11.585118
 20
0.090197
 30
0.0
 10
11.576417
 20
0.098897
 30
0.0
 10
11.570827
 20
0.109882
 30
0.0
 10
11.568898
 20
0.122047
 30
0.0
 10
11.570827
 20
0.134212
 30
0.0
 10
11.576417
 20
0.145197
 30
0.0
 10
11.585118
 20
0.153897
 30
0.0
 10
11.596102
 20
0.159488
 30
0.0
 10
11.608268
 20
0.161417
 30
0.0
 10
11.620433
 20
0.159488
 30
0.0
 10
11.631417
 20
0.153897
 30
0.0
 10
11.640118
 20
0.145197
 30
0.0
  0
LWPOLYLINE
  5
116
100
AcDbEntity
  8
Layer_1
 62
7
100
AcDbPolyline
 90
21
 70
1
 10
8.768583
 20
0.145197
 30
0.0
 10
8.774173
 20
0.134212
 30
0.0
 10
8.776102
 20
0.122047
 30
0.0
 10
8.774173
 20
0.109882
 30
0.0
 10
8.768583
 20
0.098897
 30
0.0
 10
8.759843
 20
0.090197
 30
0.0
 10
8.748898
 20
0.084606
 30
0.0
 10
8.736732
 20
0.082677
 30
0.0
 10
8.724528
 20
0.084606
 30
0.0
 10
8.713583
 20
0.090197
 30
0.0
 10
8.704843
 20
0.098897
 30
0.0
 10
8.699252
 20
0.109882
 30
0.0
 10
8.697362
 20
0.122047
 30
0.0
 10
8.699252
 20
0.134212
 30
0.0
 10
8.704843
 20
0.145197
 30
0.0
 10
8.713583
 20
0.153897
 30
0.0
 10
8.724528
 20
0.159488
 30
0.0
 10
8.736732
 20
0.161417
 30
0.0
 10
8.748898
 20
0.159488
 30
0.0
 10
8.759843
 20
0.153897
 30
0.0
 10
8.768583
 20
0.145197
 30
0.0
  0
LWPOLYLINE
  5
117
100
AcDbEntity
  8
Layer_1
 62
7
100
AcDbPolyline
 90
21
 70
1
 10
5.897008
 20
0.145197
 30
0.0
 10
5.902598
 20
0.134212
 30
0.0
 10
5.904528
 20
0.122047
 30
0.0
 10
5.902598
 20
0.109882
 30
0.0
 10
5.897008
 20
0.098897
 30
0.0
 10
5.888307
 20
0.090197
 30
0.0
 10
5.877323
 20
0.084606
 30
0.0
 10
5.865158
 20
0.082677
 30
0.0
 10
5.852992
 20
0.084606
 30
0.0
 10
5.842008
 20
0.090197
 30
0.0
 10
5.833307
 20
0.098897
 30
0.0
 10
5.827717
 20
0.109882
 30
0.0
 10
5.825787
 20
0.122047
 30
0.0
 10
5.827717
 20
0.134212
 30
0.0
 10
5.833307
 20
0.145197
 30
0.0
 10
5.842008
 20
0.153897
 30
0.0
 10
5.852992
 20
0.159488
 30
0.0
 10
5.865158
 20
0.161417
 30
0.0
 10
5.877323
 20
0.159488
 30
0.0
 10
5.888307
 20
0.153897
 30
0.0
 10
5.897008
 20
0.145197
 30
0.0
  0
LWPOLYLINE
  5
118
100
AcDbEntity
  8
Layer_1
 62
7
100
AcDbPolyline
 90
21
 70
1
 10
3.025472
 20
0.145197
 30
0.0
 10
3.031063
 20
0.134212
 30
0.0
 10
3.032992
 20
0.122047
 30
0.0
 10
3.031063
 20
0.109882
 30
0.0
 10
3.025472
 20
0.098897
 30
0.0
 10
3.016732
 20
0.090197
 30
0.0
 10
3.005787
 20
0.084606
 30
0.0
 10
2.993622
 20
0.082677
 30
0.0
 10
2.981417
 20
0.084606
 30
0.0
 10
2.970472
 20
0.090197
 30
0.0
 10
2.961732
 20
0.098897
 30
0.0
 10
2.956142
 20
0.109882
 30
0.0
 10
2.954252
 20
0.122047
 30
0.0
 10
2.956142
 20
0.134212
 30
0.0
 10
2.961732
 20
0.145197
 30
0.0
 10
2.970472
 20
0.153897
 30
0.0
 10
2.981417
 20
0.159488
 30
0.0
 10
2.993622
 20
0.161417
 30
0.0
 10
3.005787
 20
0.159488
 30
0.0
 10
3.016732
 20
0.153897
 30
0.0
 10
3.025472
 20
0.145197
 30
0.0
  0
LWPOLYLINE
  5
119
100
AcDbEntity
  8
Layer_1
 62
7
100
AcDbPolyline
 90
21
 70
1
 10
0.153898
 20
0.145197
 30
0.0
 10
0.159488
 20
0.134212
 30
0.0
 10
0.161417
 20
0.122047
 30
0.0
 10
0.159488
 20
0.109882
 30
0.0
 10
0.153898
 20
0.098897
 30
0.0
 10
0.145197
 20
0.090197
 30
0.0
 10
0.134213
 20
0.084606
 30
0.0
 10
0.122047
 20
0.082677
 30
0.0
 10
0.109882
 20
0.084606
 30
0.0
 10
0.098898
 20
0.090197
 30
0.0
 10
0.090197
 20
0.098897
 30
0.0
 10
0.084606
 20
0.109882
 30
0.0
 10
0.082677
 20
0.122047
 30
0.0
 10
0.084606
 20
0.134212
 30
0.0
 10
0.090197
 20
0.145197
 30
0.0
 10
0.098898
 20
0.153897
 30
0.0
 10
0.109882
 20
0.159488
 30
0.0
 10
0.122047
 20
0.161417
 30
0.0
 10
0.134213
 20
0.159488
 30
0.0
 10
0.145197
 20
0.153897
 30
0.0
 10
0.153898
 20
0.145197
 30
0.0
  0
LWPOLYLINE
  5
11a
100
AcDbEntity
  8
Layer_1
 62
7
100
AcDbPolyline
 90
21
 70
1
 10
0.153898
 20
2.138307
 30
0.0
 10
0.159488
 20
2.127323
 30
0.0
 10
0.161417
 20
2.115157
 30
0.0
 10
0.159488
 20
2.102992
 30
0.0
 10
0.153898
 20
2.092008
 30
0.0
 10
0.145197
 20
2.083307
 30
0.0
 10
0.134213
 20
2.077716
 30
0.0
 10
0.122047
 20
2.075787
 30
0.0
 10
0.109882
 20
2.077716
 30
0.0
 10
0.098898
 20
2.083307
 30
0.0
 10
0.090197
 20
2.092008
 30
0.0
 10
0.084606
 20
2.102992
 30
0.0
 10
0.082677
 20
2.115157
 30
0.0
 10
0.084606
 20
2.127323
 30
0.0
 10
0.090197
 20
2.138307
 30
0.0
 10
0.098898
 20
2.147008
 30
0.0
 10
0.109882
 20
2.152598
 30
0.0
 10
0.122047
 20
2.154527
 30
0.0
 10
0.134213
 20
2.152598
 30
0.0
 10
0.145197
 20
2.147008
 30
0.0
 10
0.153898
 20
2.138307
 30
0.0
  0
LWPOLYLINE
  5
11b
100
AcDbEntity
  8
Layer_1
 62
7
100
AcDbPolyline
 90
21
 70
1
 10
0.153898
 20
4.131417
 30
0.0
 10
0.159488
 20
4.120433
 30
0.0
 10
0.161417
 20
4.108268
 30
0.0
 10
0.159488
 20
4.096102
 30
0.0
 10
0.153898
 20
4.085118
 30
0.0
 10
0.145197
 20
4.076417
 30
0.0
 10
0.134213
 20
4.070827
 30
0.0
 10
0.122047
 20
4.068897
 30
0.0
 10
0.109882
 20
4.070827
 30
0.0
 10
0.098898
 20
4.076417
 30
0.0
 10
0.090197
 20
4.085118
 30
0.0
 10
0.084606
 20
4.096102
 30
0.0
 10
0.082677
 20
4.108268
 30
0.0
 10
0.084606
 20
4.120433
 30
0.0
 10
0.090197
 20
4.131417
 30
0.0
 10
0.098898
 20
4.140118
 30
0.0
 10
0.109882
 20
4.145708
 30
0.0
 10
0.122047
 20
4.147638
 30
0.0
 10
0.134213
 20
4.145708
 30
0.0
 10
0.145197
 20
4.140118
 30
0.0
 10
0.153898
 20
4.131417
 30
0.0
  0
ENDSEC
  0
SECTION
  2
OBJECTS
  0
DICTIONARY
  5
C
330
0
100
AcDbDictionary
  3
ACAD_GROUP
350
D
  3
ACAD_MLINESTYLE
350
17
  0
DICTIONARY
  5
D
330
C
100
AcDbDictionary
  0
DICTIONARY
  5
1A
330
C
100
AcDbDictionary
  0
DICTIONARY
  5
17
330
C
100
AcDbDictionary
  3
STANDARD
350
18
  0
DICTIONARY
  5
19
330
C
100
AcDbDictionary
  0
ENDSEC
  0
EOF
