  0
SECTION
  2
HEADER
  9
$ACADVER
  1
AC1009
  9
$EXTMIN
 10
0.0
 20
0.0
 30
0.0
  9
$EXTMAX
 10
1000.0
 20
1000.0
 30
0.0
  9
$FILLMODE
 70
 0
  9
$SPLFRAME
 70
 1
  0
ENDSEC
  0
SECTION
  2
TABLES
  0
TABLE
  2
LAYER
 70
1
  0
LAYER
  2
0
 70
     0
 62
     7
  6
CONTINUOUS
  0
ENDTAB
  0
ENDSEC
  0
SECTION
  2
ENTITIES
  0
LINE
  8
0
 62
     0
 10
295.844
 20
107.344
 30
0.0
 11
296.001
 21
107.338
 31
0.0
  0
LINE
  8
0
 62
     0
 10
296.001
 20
107.338
 30
0.0
 11
296.157
 21
107.319
 31
0.0
  0
LINE
  8
0
 62
     0
 10
296.157
 20
107.319
 30
0.0
 11
296.311
 21
107.289
 31
0.0
  0
LINE
  8
0
 62
     0
 10
296.311
 20
107.289
 30
0.0
 11
296.461
 21
107.246
 31
0.0
  0
LINE
  8
0
 62
     0
 10
296.461
 20
107.246
 30
0.0
 11
296.609
 21
107.192
 31
0.0
  0
LINE
  8
0
 62
     0
 10
296.609
 20
107.192
 30
0.0
 11
296.752
 21
107.126
 31
0.0
  0
LINE
  8
0
 62
     0
 10
296.752
 20
107.126
 30
0.0
 11
296.889
 21
107.049
 31
0.0
  0
LINE
  8
0
 62
     0
 10
296.889
 20
107.049
 30
0.0
 11
297.019
 21
106.962
 31
0.0
  0
LINE
  8
0
 62
     0
 10
297.019
 20
106.962
 30
0.0
 11
297.142
 21
106.864
 31
0.0
  0
LINE
  8
0
 62
     0
 10
297.142
 20
106.864
 30
0.0
 11
297.258
 21
106.758
 31
0.0
  0
LINE
  8
0
 62
     0
 10
297.258
 20
106.758
 30
0.0
 11
297.364
 21
106.642
 31
0.0
  0
LINE
  8
0
 62
     0
 10
297.364
 20
106.642
 30
0.0
 11
297.462
 21
106.519
 31
0.0
  0
LINE
  8
0
 62
     0
 10
297.462
 20
106.519
 30
0.0
 11
297.549
 21
106.389
 31
0.0
  0
LINE
  8
0
 62
     0
 10
297.549
 20
106.389
 30
0.0
 11
297.626
 21
106.252
 31
0.0
  0
LINE
  8
0
 62
     0
 10
297.626
 20
106.252
 30
0.0
 11
297.692
 21
106.109
 31
0.0
  0
LINE
  8
0
 62
     0
 10
297.692
 20
106.109
 30
0.0
 11
297.746
 21
105.961
 31
0.0
  0
LINE
  8
0
 62
     0
 10
297.746
 20
105.961
 30
0.0
 11
297.789
 21
105.811
 31
0.0
  0
LINE
  8
0
 62
     0
 10
297.789
 20
105.811
 30
0.0
 11
297.819
 21
105.657
 31
0.0
  0
LINE
  8
0
 62
     0
 10
297.819
 20
105.657
 30
0.0
 11
297.838
 21
105.501
 31
0.0
  0
LINE
  8
0
 62
     0
 10
297.838
 20
105.501
 30
0.0
 11
297.844
 21
105.344
 31
0.0
  0
LINE
  8
0
 62
     0
 10
297.844
 20
105.344
 30
0.0
 11
297.844
 21
2.09324
 31
0.0
  0
LINE
  8
0
 62
     0
 10
297.844
 20
2.09324
 30
0.0
 11
297.838
 21
1.93614
 31
0.0
  0
LINE
  8
0
 62
     0
 10
297.838
 20
1.93614
 30
0.0
 11
297.819
 21
1.78043
 31
0.0
  0
LINE
  8
0
 62
     0
 10
297.819
 20
1.78043
 30
0.0
 11
297.789
 21
1.62609
 31
0.0
  0
LINE
  8
0
 62
     0
 10
297.789
 20
1.62609
 30
0.0
 11
297.746
 21
1.47588
 31
0.0
  0
LINE
  8
0
 62
     0
 10
297.746
 20
1.47588
 30
0.0
 11
297.692
 21
1.32843
 31
0.0
  0
LINE
  8
0
 62
     0
 10
297.692
 20
1.32843
 30
0.0
 11
297.626
 21
1.18511
 31
0.0
  0
LINE
  8
0
 62
     0
 10
297.626
 20
1.18511
 30
0.0
 11
297.549
 21
1.04869
 31
0.0
  0
LINE
  8
0
 62
     0
 10
297.549
 20
1.04869
 30
0.0
 11
297.462
 21
0.917773
 31
0.0
  0
LINE
  8
0
 62
     0
 10
297.462
 20
0.917773
 30
0.0
 11
297.364
 21
0.795129
 31
0.0
  0
LINE
  8
0
 62
     0
 10
297.364
 20
0.795129
 30
0.0
 11
297.258
 21
0.679372
 31
0.0
  0
LINE
  8
0
 62
     0
 10
297.258
 20
0.679372
 30
0.0
 11
297.142
 21
0.573264
 31
0.0
  0
LINE
  8
0
 62
     0
 10
297.142
 20
0.573264
 30
0.0
 11
297.019
 21
0.475424
 31
0.0
  0
LINE
  8
0
 62
     0
 10
297.019
 20
0.475424
 30
0.0
 11
296.889
 21
0.388606
 31
0.0
  0
LINE
  8
0
 62
     0
 10
296.889
 20
0.388606
 30
0.0
 11
296.752
 21
0.311437
 31
0.0
  0
LINE
  8
0
 62
     0
 10
296.752
 20
0.311437
 30
0.0
 11
296.609
 21
0.245291
 31
0.0
  0
LINE
  8
0
 62
     0
 10
296.609
 20
0.245291
 30
0.0
 11
296.461
 21
0.191547
 31
0.0
  0
LINE
  8
0
 62
     0
 10
296.461
 20
0.191547
 30
0.0
 11
296.311
 21
0.148828
 31
0.0
  0
LINE
  8
0
 62
     0
 10
296.311
 20
0.148828
 30
0.0
 11
296.157
 21
0.118511
 31
0.0
  0
LINE
  8
0
 62
     0
 10
296.157
 20
0.118511
 30
0.0
 11
296.001
 21
0.0992188
 31
0.0
  0
LINE
  8
0
 62
     0
 10
296.001
 20
0.0992188
 30
0.0
 11
295.844
 21
0.0937066
 31
0.0
  0
LINE
  8
0
 62
     0
 10
295.844
 20
0.0937066
 30
0.0
 11
2.09324
 21
0.0937066
 31
0.0
  0
LINE
  8
0
 62
     0
 10
2.09324
 20
0.0937066
 30
0.0
 11
1.93614
 21
0.0992188
 31
0.0
  0
LINE
  8
0
 62
     0
 10
1.93614
 20
0.0992188
 30
0.0
 11
1.78043
 21
0.118511
 31
0.0
  0
LINE
  8
0
 62
     0
 10
1.78043
 20
0.118511
 30
0.0
 11
1.62609
 21
0.148828
 31
0.0
  0
LINE
  8
0
 62
     0
 10
1.62609
 20
0.148828
 30
0.0
 11
1.47588
 21
0.191547
 31
0.0
  0
LINE
  8
0
 62
     0
 10
1.47588
 20
0.191547
 30
0.0
 11
1.32843
 21
0.245291
 31
0.0
  0
LINE
  8
0
 62
     0
 10
1.32843
 20
0.245291
 30
0.0
 11
1.18511
 21
0.311437
 31
0.0
  0
LINE
  8
0
 62
     0
 10
1.18511
 20
0.311437
 30
0.0
 11
1.04869
 21
0.388606
 31
0.0
  0
LINE
  8
0
 62
     0
 10
1.04869
 20
0.388606
 30
0.0
 11
0.917773
 21
0.475424
 31
0.0
  0
LINE
  8
0
 62
     0
 10
0.917773
 20
0.475424
 30
0.0
 11
0.795129
 21
0.573264
 31
0.0
  0
LINE
  8
0
 62
     0
 10
0.795129
 20
0.573264
 30
0.0
 11
0.679372
 21
0.679372
 31
0.0
  0
LINE
  8
0
 62
     0
 10
0.679372
 20
0.679372
 30
0.0
 11
0.573264
 21
0.795129
 31
0.0
  0
LINE
  8
0
 62
     0
 10
0.573264
 20
0.795129
 30
0.0
 11
0.475424
 21
0.917773
 31
0.0
  0
LINE
  8
0
 62
     0
 10
0.475424
 20
0.917773
 30
0.0
 11
0.388606
 21
1.04869
 31
0.0
  0
LINE
  8
0
 62
     0
 10
0.388606
 20
1.04869
 30
0.0
 11
0.311437
 21
1.18511
 31
0.0
  0
LINE
  8
0
 62
     0
 10
0.311437
 20
1.18511
 30
0.0
 11
0.245291
 21
1.32843
 31
0.0
  0
LINE
  8
0
 62
     0
 10
0.245291
 20
1.32843
 30
0.0
 11
0.191547
 21
1.47588
 31
0.0
  0
LINE
  8
0
 62
     0
 10
0.191547
 20
1.47588
 30
0.0
 11
0.148828
 21
1.62609
 31
0.0
  0
LINE
  8
0
 62
     0
 10
0.148828
 20
1.62609
 30
0.0
 11
0.118511
 21
1.78043
 31
0.0
  0
LINE
  8
0
 62
     0
 10
0.118511
 20
1.78043
 30
0.0
 11
0.0992188
 21
1.93614
 31
0.0
  0
LINE
  8
0
 62
     0
 10
0.0992188
 20
1.93614
 30
0.0
 11
0.0937066
 21
2.09324
 31
0.0
  0
LINE
  8
0
 62
     0
 10
0.0937066
 20
2.09324
 30
0.0
 11
0.0937066
 21
105.344
 31
0.0
  0
LINE
  8
0
 62
     0
 10
0.0937066
 20
105.344
 30
0.0
 11
0.0992188
 21
105.501
 31
0.0
  0
LINE
  8
0
 62
     0
 10
0.0992188
 20
105.501
 30
0.0
 11
0.118511
 21
105.657
 31
0.0
  0
LINE
  8
0
 62
     0
 10
0.118511
 20
105.657
 30
0.0
 11
0.148828
 21
105.811
 31
0.0
  0
LINE
  8
0
 62
     0
 10
0.148828
 20
105.811
 30
0.0
 11
0.191547
 21
105.961
 31
0.0
  0
LINE
  8
0
 62
     0
 10
0.191547
 20
105.961
 30
0.0
 11
0.245291
 21
106.109
 31
0.0
  0
LINE
  8
0
 62
     0
 10
0.245291
 20
106.109
 30
0.0
 11
0.311437
 21
106.252
 31
0.0
  0
LINE
  8
0
 62
     0
 10
0.311437
 20
106.252
 30
0.0
 11
0.388606
 21
106.389
 31
0.0
  0
LINE
  8
0
 62
     0
 10
0.388606
 20
106.389
 30
0.0
 11
0.475424
 21
106.519
 31
0.0
  0
LINE
  8
0
 62
     0
 10
0.475424
 20
106.519
 30
0.0
 11
0.573264
 21
106.642
 31
0.0
  0
LINE
  8
0
 62
     0
 10
0.573264
 20
106.642
 30
0.0
 11
0.679372
 21
106.758
 31
0.0
  0
LINE
  8
0
 62
     0
 10
0.679372
 20
106.758
 30
0.0
 11
0.795129
 21
106.864
 31
0.0
  0
LINE
  8
0
 62
     0
 10
0.795129
 20
106.864
 30
0.0
 11
0.917773
 21
106.962
 31
0.0
  0
LINE
  8
0
 62
     0
 10
0.917773
 20
106.962
 30
0.0
 11
1.04869
 21
107.049
 31
0.0
  0
LINE
  8
0
 62
     0
 10
1.04869
 20
107.049
 30
0.0
 11
1.18511
 21
107.126
 31
0.0
  0
LINE
  8
0
 62
     0
 10
1.18511
 20
107.126
 30
0.0
 11
1.32843
 21
107.192
 31
0.0
  0
LINE
  8
0
 62
     0
 10
1.32843
 20
107.192
 30
0.0
 11
1.47588
 21
107.246
 31
0.0
  0
LINE
  8
0
 62
     0
 10
1.47588
 20
107.246
 30
0.0
 11
1.62609
 21
107.289
 31
0.0
  0
LINE
  8
0
 62
     0
 10
1.62609
 20
107.289
 30
0.0
 11
1.78043
 21
107.319
 31
0.0
  0
LINE
  8
0
 62
     0
 10
1.78043
 20
107.319
 30
0.0
 11
1.93614
 21
107.338
 31
0.0
  0
LINE
  8
0
 62
     0
 10
1.93614
 20
107.338
 30
0.0
 11
2.09324
 21
107.344
 31
0.0
  0
LINE
  8
0
 62
     0
 10
2.09324
 20
107.344
 30
0.0
 11
295.844
 21
107.344
 31
0.0
  0
LINE
  8
0
 62
     0
 10
76.0317
 20
105.344
 30
0.0
 11
76.3404
 21
105.295
 31
0.0
  0
LINE
  8
0
 62
     0
 10
76.3404
 20
105.295
 30
0.0
 11
76.6191
 21
105.152
 31
0.0
  0
LINE
  8
0
 62
     0
 10
76.6191
 20
105.152
 30
0.0
 11
76.8406
 21
104.932
 31
0.0
  0
LINE
  8
0
 62
     0
 10
76.8406
 20
104.932
 30
0.0
 11
76.9828
 21
104.652
 31
0.0
  0
LINE
  8
0
 62
     0
 10
76.9828
 20
104.652
 30
0.0
 11
77.0322
 21
104.344
 31
0.0
  0
LINE
  8
0
 62
     0
 10
77.0322
 20
104.344
 30
0.0
 11
76.9828
 21
104.035
 31
0.0
  0
LINE
  8
0
 62
     0
 10
76.9828
 20
104.035
 30
0.0
 11
76.8406
 21
103.755
 31
0.0
  0
LINE
  8
0
 62
     0
 10
76.8406
 20
103.755
 30
0.0
 11
76.6191
 21
103.535
 31
0.0
  0
LINE
  8
0
 62
     0
 10
76.6191
 20
103.535
 30
0.0
 11
76.3404
 21
103.393
 31
0.0
  0
LINE
  8
0
 62
     0
 10
76.3404
 20
103.393
 30
0.0
 11
76.0317
 21
103.343
 31
0.0
  0
LINE
  8
0
 62
     0
 10
76.0317
 20
103.343
 30
0.0
 11
75.722
 21
103.393
 31
0.0
  0
LINE
  8
0
 62
     0
 10
75.722
 20
103.393
 30
0.0
 11
75.4433
 21
103.535
 31
0.0
  0
LINE
  8
0
 62
     0
 10
75.4433
 20
103.535
 30
0.0
 11
75.2217
 21
103.755
 31
0.0
  0
LINE
  8
0
 62
     0
 10
75.2217
 20
103.755
 30
0.0
 11
75.0796
 21
104.035
 31
0.0
  0
LINE
  8
0
 62
     0
 10
75.0796
 20
104.035
 30
0.0
 11
75.0316
 21
104.344
 31
0.0
  0
LINE
  8
0
 62
     0
 10
75.0316
 20
104.344
 30
0.0
 11
75.0796
 21
104.652
 31
0.0
  0
LINE
  8
0
 62
     0
 10
75.0796
 20
104.652
 30
0.0
 11
75.2217
 21
104.932
 31
0.0
  0
LINE
  8
0
 62
     0
 10
75.2217
 20
104.932
 30
0.0
 11
75.4433
 21
105.152
 31
0.0
  0
LINE
  8
0
 62
     0
 10
75.4433
 20
105.152
 30
0.0
 11
75.722
 21
105.295
 31
0.0
  0
LINE
  8
0
 62
     0
 10
75.722
 20
105.295
 30
0.0
 11
76.0317
 21
105.344
 31
0.0
  0
LINE
  8
0
 62
     0
 10
148.969
 20
105.344
 30
0.0
 11
149.277
 21
105.295
 31
0.0
  0
LINE
  8
0
 62
     0
 10
149.277
 20
105.295
 30
0.0
 11
149.557
 21
105.152
 31
0.0
  0
LINE
  8
0
 62
     0
 10
149.557
 20
105.152
 30
0.0
 11
149.777
 21
104.932
 31
0.0
  0
LINE
  8
0
 62
     0
 10
149.777
 20
104.932
 30
0.0
 11
149.92
 21
104.652
 31
0.0
  0
LINE
  8
0
 62
     0
 10
149.92
 20
104.652
 30
0.0
 11
149.969
 21
104.344
 31
0.0
  0
LINE
  8
0
 62
     0
 10
149.969
 20
104.344
 30
0.0
 11
149.92
 21
104.035
 31
0.0
  0
LINE
  8
0
 62
     0
 10
149.92
 20
104.035
 30
0.0
 11
149.777
 21
103.755
 31
0.0
  0
LINE
  8
0
 62
     0
 10
149.777
 20
103.755
 30
0.0
 11
149.557
 21
103.535
 31
0.0
  0
LINE
  8
0
 62
     0
 10
149.557
 20
103.535
 30
0.0
 11
149.277
 21
103.393
 31
0.0
  0
LINE
  8
0
 62
     0
 10
149.277
 20
103.393
 30
0.0
 11
148.969
 21
103.343
 31
0.0
  0
LINE
  8
0
 62
     0
 10
148.969
 20
103.343
 30
0.0
 11
148.66
 21
103.393
 31
0.0
  0
LINE
  8
0
 62
     0
 10
148.66
 20
103.393
 30
0.0
 11
148.38
 21
103.535
 31
0.0
  0
LINE
  8
0
 62
     0
 10
148.38
 20
103.535
 30
0.0
 11
148.16
 21
103.755
 31
0.0
  0
LINE
  8
0
 62
     0
 10
148.16
 20
103.755
 30
0.0
 11
148.018
 21
104.035
 31
0.0
  0
LINE
  8
0
 62
     0
 10
148.018
 20
104.035
 30
0.0
 11
147.968
 21
104.344
 31
0.0
  0
LINE
  8
0
 62
     0
 10
147.968
 20
104.344
 30
0.0
 11
148.018
 21
104.652
 31
0.0
  0
LINE
  8
0
 62
     0
 10
148.018
 20
104.652
 30
0.0
 11
148.16
 21
104.932
 31
0.0
  0
LINE
  8
0
 62
     0
 10
148.16
 20
104.932
 30
0.0
 11
148.38
 21
105.152
 31
0.0
  0
LINE
  8
0
 62
     0
 10
148.38
 20
105.152
 30
0.0
 11
148.66
 21
105.295
 31
0.0
  0
LINE
  8
0
 62
     0
 10
148.66
 20
105.295
 30
0.0
 11
148.969
 21
105.344
 31
0.0
  0
LINE
  8
0
 62
     0
 10
221.907
 20
105.344
 30
0.0
 11
222.215
 21
105.295
 31
0.0
  0
LINE
  8
0
 62
     0
 10
222.215
 20
105.295
 30
0.0
 11
222.494
 21
105.152
 31
0.0
  0
LINE
  8
0
 62
     0
 10
222.494
 20
105.152
 30
0.0
 11
222.716
 21
104.932
 31
0.0
  0
LINE
  8
0
 62
     0
 10
222.716
 20
104.932
 30
0.0
 11
222.858
 21
104.652
 31
0.0
  0
LINE
  8
0
 62
     0
 10
222.858
 20
104.652
 30
0.0
 11
222.907
 21
104.344
 31
0.0
  0
LINE
  8
0
 62
     0
 10
222.907
 20
104.344
 30
0.0
 11
222.858
 21
104.035
 31
0.0
  0
LINE
  8
0
 62
     0
 10
222.858
 20
104.035
 30
0.0
 11
222.716
 21
103.755
 31
0.0
  0
LINE
  8
0
 62
     0
 10
222.716
 20
103.755
 30
0.0
 11
222.494
 21
103.535
 31
0.0
  0
LINE
  8
0
 62
     0
 10
222.494
 20
103.535
 30
0.0
 11
222.215
 21
103.393
 31
0.0
  0
LINE
  8
0
 62
     0
 10
222.215
 20
103.393
 30
0.0
 11
221.907
 21
103.343
 31
0.0
  0
LINE
  8
0
 62
     0
 10
221.907
 20
103.343
 30
0.0
 11
221.597
 21
103.393
 31
0.0
  0
LINE
  8
0
 62
     0
 10
221.597
 20
103.393
 30
0.0
 11
221.318
 21
103.535
 31
0.0
  0
LINE
  8
0
 62
     0
 10
221.318
 20
103.535
 30
0.0
 11
221.096
 21
103.755
 31
0.0
  0
LINE
  8
0
 62
     0
 10
221.096
 20
103.755
 30
0.0
 11
220.955
 21
104.035
 31
0.0
  0
LINE
  8
0
 62
     0
 10
220.955
 20
104.035
 30
0.0
 11
220.906
 21
104.344
 31
0.0
  0
LINE
  8
0
 62
     0
 10
220.906
 20
104.344
 30
0.0
 11
220.955
 21
104.652
 31
0.0
  0
LINE
  8
0
 62
     0
 10
220.955
 20
104.652
 30
0.0
 11
221.096
 21
104.932
 31
0.0
  0
LINE
  8
0
 62
     0
 10
221.096
 20
104.932
 30
0.0
 11
221.318
 21
105.152
 31
0.0
  0
LINE
  8
0
 62
     0
 10
221.318
 20
105.152
 30
0.0
 11
221.597
 21
105.295
 31
0.0
  0
LINE
  8
0
 62
     0
 10
221.597
 20
105.295
 30
0.0
 11
221.907
 21
105.344
 31
0.0
  0
LINE
  8
0
 62
     0
 10
294.844
 20
105.344
 30
0.0
 11
295.152
 21
105.295
 31
0.0
  0
LINE
  8
0
 62
     0
 10
295.152
 20
105.295
 30
0.0
 11
295.432
 21
105.152
 31
0.0
  0
LINE
  8
0
 62
     0
 10
295.432
 20
105.152
 30
0.0
 11
295.652
 21
104.932
 31
0.0
  0
LINE
  8
0
 62
     0
 10
295.652
 20
104.932
 30
0.0
 11
295.795
 21
104.652
 31
0.0
  0
LINE
  8
0
 62
     0
 10
295.795
 20
104.652
 30
0.0
 11
295.844
 21
104.344
 31
0.0
  0
LINE
  8
0
 62
     0
 10
295.844
 20
104.344
 30
0.0
 11
295.795
 21
104.035
 31
0.0
  0
LINE
  8
0
 62
     0
 10
295.795
 20
104.035
 30
0.0
 11
295.652
 21
103.755
 31
0.0
  0
LINE
  8
0
 62
     0
 10
295.652
 20
103.755
 30
0.0
 11
295.432
 21
103.535
 31
0.0
  0
LINE
  8
0
 62
     0
 10
295.432
 20
103.535
 30
0.0
 11
295.152
 21
103.393
 31
0.0
  0
LINE
  8
0
 62
     0
 10
295.152
 20
103.393
 30
0.0
 11
294.844
 21
103.343
 31
0.0
  0
LINE
  8
0
 62
     0
 10
294.844
 20
103.343
 30
0.0
 11
294.535
 21
103.393
 31
0.0
  0
LINE
  8
0
 62
     0
 10
294.535
 20
103.393
 30
0.0
 11
294.255
 21
103.535
 31
0.0
  0
LINE
  8
0
 62
     0
 10
294.255
 20
103.535
 30
0.0
 11
294.035
 21
103.755
 31
0.0
  0
LINE
  8
0
 62
     0
 10
294.035
 20
103.755
 30
0.0
 11
293.893
 21
104.035
 31
0.0
  0
LINE
  8
0
 62
     0
 10
293.893
 20
104.035
 30
0.0
 11
293.843
 21
104.344
 31
0.0
  0
LINE
  8
0
 62
     0
 10
293.843
 20
104.344
 30
0.0
 11
293.893
 21
104.652
 31
0.0
  0
LINE
  8
0
 62
     0
 10
293.893
 20
104.652
 30
0.0
 11
294.035
 21
104.932
 31
0.0
  0
LINE
  8
0
 62
     0
 10
294.035
 20
104.932
 30
0.0
 11
294.255
 21
105.152
 31
0.0
  0
LINE
  8
0
 62
     0
 10
294.255
 20
105.152
 30
0.0
 11
294.535
 21
105.295
 31
0.0
  0
LINE
  8
0
 62
     0
 10
294.535
 20
105.295
 30
0.0
 11
294.844
 21
105.344
 31
0.0
  0
LINE
  8
0
 62
     0
 10
294.844
 20
54.719
 30
0.0
 11
295.152
 21
54.6696
 31
0.0
  0
LINE
  8
0
 62
     0
 10
295.152
 20
54.6696
 30
0.0
 11
295.432
 21
54.5274
 31
0.0
  0
LINE
  8
0
 62
     0
 10
295.432
 20
54.5274
 30
0.0
 11
295.652
 21
54.307
 31
0.0
  0
LINE
  8
0
 62
     0
 10
295.652
 20
54.307
 30
0.0
 11
295.795
 21
54.0272
 31
0.0
  0
LINE
  8
0
 62
     0
 10
295.795
 20
54.0272
 30
0.0
 11
295.844
 21
53.7185
 31
0.0
  0
LINE
  8
0
 62
     0
 10
295.844
 20
53.7185
 30
0.0
 11
295.795
 21
53.4098
 31
0.0
  0
LINE
  8
0
 62
     0
 10
295.795
 20
53.4098
 30
0.0
 11
295.652
 21
53.1301
 31
0.0
  0
LINE
  8
0
 62
     0
 10
295.652
 20
53.1301
 30
0.0
 11
295.432
 21
52.9096
 31
0.0
  0
LINE
  8
0
 62
     0
 10
295.432
 20
52.9096
 30
0.0
 11
295.152
 21
52.7678
 31
0.0
  0
LINE
  8
0
 62
     0
 10
295.152
 20
52.7678
 30
0.0
 11
294.844
 21
52.7184
 31
0.0
  0
LINE
  8
0
 62
     0
 10
294.844
 20
52.7184
 30
0.0
 11
294.535
 21
52.7678
 31
0.0
  0
LINE
  8
0
 62
     0
 10
294.535
 20
52.7678
 30
0.0
 11
294.255
 21
52.9096
 31
0.0
  0
LINE
  8
0
 62
     0
 10
294.255
 20
52.9096
 30
0.0
 11
294.035
 21
53.1301
 31
0.0
  0
LINE
  8
0
 62
     0
 10
294.035
 20
53.1301
 30
0.0
 11
293.893
 21
53.4098
 31
0.0
  0
LINE
  8
0
 62
     0
 10
293.893
 20
53.4098
 30
0.0
 11
293.843
 21
53.7185
 31
0.0
  0
LINE
  8
0
 62
     0
 10
293.843
 20
53.7185
 30
0.0
 11
293.893
 21
54.0272
 31
0.0
  0
LINE
  8
0
 62
     0
 10
293.893
 20
54.0272
 30
0.0
 11
294.035
 21
54.307
 31
0.0
  0
LINE
  8
0
 62
     0
 10
294.035
 20
54.307
 30
0.0
 11
294.255
 21
54.5274
 31
0.0
  0
LINE
  8
0
 62
     0
 10
294.255
 20
54.5274
 30
0.0
 11
294.535
 21
54.6696
 31
0.0
  0
LINE
  8
0
 62
     0
 10
294.535
 20
54.6696
 30
0.0
 11
294.844
 21
54.719
 31
0.0
  0
LINE
  8
0
 62
     0
 10
294.844
 20
4.09416
 30
0.0
 11
295.152
 21
4.04453
 31
0.0
  0
LINE
  8
0
 62
     0
 10
295.152
 20
4.04453
 30
0.0
 11
295.432
 21
3.9026
 31
0.0
  0
LINE
  8
0
 62
     0
 10
295.432
 20
3.9026
 30
0.0
 11
295.652
 21
3.68212
 31
0.0
  0
LINE
  8
0
 62
     0
 10
295.652
 20
3.68212
 30
0.0
 11
295.795
 21
3.40238
 31
0.0
  0
LINE
  8
0
 62
     0
 10
295.795
 20
3.40238
 30
0.0
 11
295.844
 21
3.0937
 31
0.0
  0
LINE
  8
0
 62
     0
 10
295.844
 20
3.0937
 30
0.0
 11
295.795
 21
2.78501
 31
0.0
  0
LINE
  8
0
 62
     0
 10
295.795
 20
2.78501
 30
0.0
 11
295.652
 21
2.50527
 31
0.0
  0
LINE
  8
0
 62
     0
 10
295.652
 20
2.50527
 30
0.0
 11
295.432
 21
2.28479
 31
0.0
  0
LINE
  8
0
 62
     0
 10
295.432
 20
2.28479
 30
0.0
 11
295.152
 21
2.14285
 31
0.0
  0
LINE
  8
0
 62
     0
 10
295.152
 20
2.14285
 30
0.0
 11
294.844
 21
2.09324
 31
0.0
  0
LINE
  8
0
 62
     0
 10
294.844
 20
2.09324
 30
0.0
 11
294.535
 21
2.14285
 31
0.0
  0
LINE
  8
0
 62
     0
 10
294.535
 20
2.14285
 30
0.0
 11
294.255
 21
2.28479
 31
0.0
  0
LINE
  8
0
 62
     0
 10
294.255
 20
2.28479
 30
0.0
 11
294.035
 21
2.50527
 31
0.0
  0
LINE
  8
0
 62
     0
 10
294.035
 20
2.50527
 30
0.0
 11
293.893
 21
2.78501
 31
0.0
  0
LINE
  8
0
 62
     0
 10
293.893
 20
2.78501
 30
0.0
 11
293.843
 21
3.0937
 31
0.0
  0
LINE
  8
0
 62
     0
 10
293.843
 20
3.0937
 30
0.0
 11
293.893
 21
3.40238
 31
0.0
  0
LINE
  8
0
 62
     0
 10
293.893
 20
3.40238
 30
0.0
 11
294.035
 21
3.68212
 31
0.0
  0
LINE
  8
0
 62
     0
 10
294.035
 20
3.68212
 30
0.0
 11
294.255
 21
3.9026
 31
0.0
  0
LINE
  8
0
 62
     0
 10
294.255
 20
3.9026
 30
0.0
 11
294.535
 21
4.04453
 31
0.0
  0
LINE
  8
0
 62
     0
 10
294.535
 20
4.04453
 30
0.0
 11
294.844
 21
4.09416
 31
0.0
  0
LINE
  8
0
 62
     0
 10
221.907
 20
4.09416
 30
0.0
 11
222.215
 21
4.04453
 31
0.0
  0
LINE
  8
0
 62
     0
 10
222.215
 20
4.04453
 30
0.0
 11
222.494
 21
3.9026
 31
0.0
  0
LINE
  8
0
 62
     0
 10
222.494
 20
3.9026
 30
0.0
 11
222.716
 21
3.68212
 31
0.0
  0
LINE
  8
0
 62
     0
 10
222.716
 20
3.68212
 30
0.0
 11
222.858
 21
3.40238
 31
0.0
  0
LINE
  8
0
 62
     0
 10
222.858
 20
3.40238
 30
0.0
 11
222.907
 21
3.0937
 31
0.0
  0
LINE
  8
0
 62
     0
 10
222.907
 20
3.0937
 30
0.0
 11
222.858
 21
2.78501
 31
0.0
  0
LINE
  8
0
 62
     0
 10
222.858
 20
2.78501
 30
0.0
 11
222.716
 21
2.50527
 31
0.0
  0
LINE
  8
0
 62
     0
 10
222.716
 20
2.50527
 30
0.0
 11
222.494
 21
2.28479
 31
0.0
  0
LINE
  8
0
 62
     0
 10
222.494
 20
2.28479
 30
0.0
 11
222.215
 21
2.14285
 31
0.0
  0
LINE
  8
0
 62
     0
 10
222.215
 20
2.14285
 30
0.0
 11
221.907
 21
2.09324
 31
0.0
  0
LINE
  8
0
 62
     0
 10
221.907
 20
2.09324
 30
0.0
 11
221.597
 21
2.14285
 31
0.0
  0
LINE
  8
0
 62
     0
 10
221.597
 20
2.14285
 30
0.0
 11
221.318
 21
2.28479
 31
0.0
  0
LINE
  8
0
 62
     0
 10
221.318
 20
2.28479
 30
0.0
 11
221.096
 21
2.50527
 31
0.0
  0
LINE
  8
0
 62
     0
 10
221.096
 20
2.50527
 30
0.0
 11
220.955
 21
2.78501
 31
0.0
  0
LINE
  8
0
 62
     0
 10
220.955
 20
2.78501
 30
0.0
 11
220.906
 21
3.0937
 31
0.0
  0
LINE
  8
0
 62
     0
 10
220.906
 20
3.0937
 30
0.0
 11
220.955
 21
3.40238
 31
0.0
  0
LINE
  8
0
 62
     0
 10
220.955
 20
3.40238
 30
0.0
 11
221.096
 21
3.68212
 31
0.0
  0
LINE
  8
0
 62
     0
 10
221.096
 20
3.68212
 30
0.0
 11
221.318
 21
3.9026
 31
0.0
  0
LINE
  8
0
 62
     0
 10
221.318
 20
3.9026
 30
0.0
 11
221.597
 21
4.04453
 31
0.0
  0
LINE
  8
0
 62
     0
 10
221.597
 20
4.04453
 30
0.0
 11
221.907
 21
4.09416
 31
0.0
  0
LINE
  8
0
 62
     0
 10
148.969
 20
4.09416
 30
0.0
 11
149.277
 21
4.04453
 31
0.0
  0
LINE
  8
0
 62
     0
 10
149.277
 20
4.04453
 30
0.0
 11
149.557
 21
3.9026
 31
0.0
  0
LINE
  8
0
 62
     0
 10
149.557
 20
3.9026
 30
0.0
 11
149.777
 21
3.68212
 31
0.0
  0
LINE
  8
0
 62
     0
 10
149.777
 20
3.68212
 30
0.0
 11
149.92
 21
3.40238
 31
0.0
  0
LINE
  8
0
 62
     0
 10
149.92
 20
3.40238
 30
0.0
 11
149.969
 21
3.0937
 31
0.0
  0
LINE
  8
0
 62
     0
 10
149.969
 20
3.0937
 30
0.0
 11
149.92
 21
2.78501
 31
0.0
  0
LINE
  8
0
 62
     0
 10
149.92
 20
2.78501
 30
0.0
 11
149.777
 21
2.50527
 31
0.0
  0
LINE
  8
0
 62
     0
 10
149.777
 20
2.50527
 30
0.0
 11
149.557
 21
2.28479
 31
0.0
  0
LINE
  8
0
 62
     0
 10
149.557
 20
2.28479
 30
0.0
 11
149.277
 21
2.14285
 31
0.0
  0
LINE
  8
0
 62
     0
 10
149.277
 20
2.14285
 30
0.0
 11
148.969
 21
2.09324
 31
0.0
  0
LINE
  8
0
 62
     0
 10
148.969
 20
2.09324
 30
0.0
 11
148.66
 21
2.14285
 31
0.0
  0
LINE
  8
0
 62
     0
 10
148.66
 20
2.14285
 30
0.0
 11
148.38
 21
2.28479
 31
0.0
  0
LINE
  8
0
 62
     0
 10
148.38
 20
2.28479
 30
0.0
 11
148.16
 21
2.50527
 31
0.0
  0
LINE
  8
0
 62
     0
 10
148.16
 20
2.50527
 30
0.0
 11
148.018
 21
2.78501
 31
0.0
  0
LINE
  8
0
 62
     0
 10
148.018
 20
2.78501
 30
0.0
 11
147.968
 21
3.0937
 31
0.0
  0
LINE
  8
0
 62
     0
 10
147.968
 20
3.0937
 30
0.0
 11
148.018
 21
3.40238
 31
0.0
  0
LINE
  8
0
 62
     0
 10
148.018
 20
3.40238
 30
0.0
 11
148.16
 21
3.68212
 31
0.0
  0
LINE
  8
0
 62
     0
 10
148.16
 20
3.68212
 30
0.0
 11
148.38
 21
3.9026
 31
0.0
  0
LINE
  8
0
 62
     0
 10
148.38
 20
3.9026
 30
0.0
 11
148.66
 21
4.04453
 31
0.0
  0
LINE
  8
0
 62
     0
 10
148.66
 20
4.04453
 30
0.0
 11
148.969
 21
4.09416
 31
0.0
  0
LINE
  8
0
 62
     0
 10
76.0317
 20
4.09416
 30
0.0
 11
76.3404
 21
4.04453
 31
0.0
  0
LINE
  8
0
 62
     0
 10
76.3404
 20
4.04453
 30
0.0
 11
76.6191
 21
3.9026
 31
0.0
  0
LINE
  8
0
 62
     0
 10
76.6191
 20
3.9026
 30
0.0
 11
76.8406
 21
3.68212
 31
0.0
  0
LINE
  8
0
 62
     0
 10
76.8406
 20
3.68212
 30
0.0
 11
76.9828
 21
3.40238
 31
0.0
  0
LINE
  8
0
 62
     0
 10
76.9828
 20
3.40238
 30
0.0
 11
77.0322
 21
3.0937
 31
0.0
  0
LINE
  8
0
 62
     0
 10
77.0322
 20
3.0937
 30
0.0
 11
76.9828
 21
2.78501
 31
0.0
  0
LINE
  8
0
 62
     0
 10
76.9828
 20
2.78501
 30
0.0
 11
76.8406
 21
2.50527
 31
0.0
  0
LINE
  8
0
 62
     0
 10
76.8406
 20
2.50527
 30
0.0
 11
76.6191
 21
2.28479
 31
0.0
  0
LINE
  8
0
 62
     0
 10
76.6191
 20
2.28479
 30
0.0
 11
76.3404
 21
2.14285
 31
0.0
  0
LINE
  8
0
 62
     0
 10
76.3404
 20
2.14285
 30
0.0
 11
76.0317
 21
2.09324
 31
0.0
  0
LINE
  8
0
 62
     0
 10
76.0317
 20
2.09324
 30
0.0
 11
75.722
 21
2.14285
 31
0.0
  0
LINE
  8
0
 62
     0
 10
75.722
 20
2.14285
 30
0.0
 11
75.4433
 21
2.28479
 31
0.0
  0
LINE
  8
0
 62
     0
 10
75.4433
 20
2.28479
 30
0.0
 11
75.2217
 21
2.50527
 31
0.0
  0
LINE
  8
0
 62
     0
 10
75.2217
 20
2.50527
 30
0.0
 11
75.0796
 21
2.78501
 31
0.0
  0
LINE
  8
0
 62
     0
 10
75.0796
 20
2.78501
 30
0.0
 11
75.0316
 21
3.0937
 31
0.0
  0
LINE
  8
0
 62
     0
 10
75.0316
 20
3.0937
 30
0.0
 11
75.0796
 21
3.40238
 31
0.0
  0
LINE
  8
0
 62
     0
 10
75.0796
 20
3.40238
 30
0.0
 11
75.2217
 21
3.68212
 31
0.0
  0
LINE
  8
0
 62
     0
 10
75.2217
 20
3.68212
 30
0.0
 11
75.4433
 21
3.9026
 31
0.0
  0
LINE
  8
0
 62
     0
 10
75.4433
 20
3.9026
 30
0.0
 11
75.722
 21
4.04453
 31
0.0
  0
LINE
  8
0
 62
     0
 10
75.722
 20
4.04453
 30
0.0
 11
76.0317
 21
4.09416
 31
0.0
  0
LINE
  8
0
 62
     0
 10
3.0937
 20
4.09416
 30
0.0
 11
3.40238
 21
4.04453
 31
0.0
  0
LINE
  8
0
 62
     0
 10
3.40238
 20
4.04453
 30
0.0
 11
3.68212
 21
3.9026
 31
0.0
  0
LINE
  8
0
 62
     0
 10
3.68212
 20
3.9026
 30
0.0
 11
3.9026
 21
3.68212
 31
0.0
  0
LINE
  8
0
 62
     0
 10
3.9026
 20
3.68212
 30
0.0
 11
4.04453
 21
3.40238
 31
0.0
  0
LINE
  8
0
 62
     0
 10
4.04453
 20
3.40238
 30
0.0
 11
4.09416
 21
3.0937
 31
0.0
  0
LINE
  8
0
 62
     0
 10
4.09416
 20
3.0937
 30
0.0
 11
4.04453
 21
2.78501
 31
0.0
  0
LINE
  8
0
 62
     0
 10
4.04453
 20
2.78501
 30
0.0
 11
3.9026
 21
2.50527
 31
0.0
  0
LINE
  8
0
 62
     0
 10
3.9026
 20
2.50527
 30
0.0
 11
3.68212
 21
2.28479
 31
0.0
  0
LINE
  8
0
 62
     0
 10
3.68212
 20
2.28479
 30
0.0
 11
3.40238
 21
2.14285
 31
0.0
  0
LINE
  8
0
 62
     0
 10
3.40238
 20
2.14285
 30
0.0
 11
3.0937
 21
2.09324
 31
0.0
  0
LINE
  8
0
 62
     0
 10
3.0937
 20
2.09324
 30
0.0
 11
2.78501
 21
2.14285
 31
0.0
  0
LINE
  8
0
 62
     0
 10
2.78501
 20
2.14285
 30
0.0
 11
2.50527
 21
2.28479
 31
0.0
  0
LINE
  8
0
 62
     0
 10
2.50527
 20
2.28479
 30
0.0
 11
2.28479
 21
2.50527
 31
0.0
  0
LINE
  8
0
 62
     0
 10
2.28479
 20
2.50527
 30
0.0
 11
2.14285
 21
2.78501
 31
0.0
  0
LINE
  8
0
 62
     0
 10
2.14285
 20
2.78501
 30
0.0
 11
2.09324
 21
3.0937
 31
0.0
  0
LINE
  8
0
 62
     0
 10
2.09324
 20
3.0937
 30
0.0
 11
2.14285
 21
3.40238
 31
0.0
  0
LINE
  8
0
 62
     0
 10
2.14285
 20
3.40238
 30
0.0
 11
2.28479
 21
3.68212
 31
0.0
  0
LINE
  8
0
 62
     0
 10
2.28479
 20
3.68212
 30
0.0
 11
2.50527
 21
3.9026
 31
0.0
  0
LINE
  8
0
 62
     0
 10
2.50527
 20
3.9026
 30
0.0
 11
2.78501
 21
4.04453
 31
0.0
  0
LINE
  8
0
 62
     0
 10
2.78501
 20
4.04453
 30
0.0
 11
3.0937
 21
4.09416
 31
0.0
  0
LINE
  8
0
 62
     0
 10
3.0937
 20
54.719
 30
0.0
 11
3.40238
 21
54.6696
 31
0.0
  0
LINE
  8
0
 62
     0
 10
3.40238
 20
54.6696
 30
0.0
 11
3.68212
 21
54.5274
 31
0.0
  0
LINE
  8
0
 62
     0
 10
3.68212
 20
54.5274
 30
0.0
 11
3.9026
 21
54.307
 31
0.0
  0
LINE
  8
0
 62
     0
 10
3.9026
 20
54.307
 30
0.0
 11
4.04453
 21
54.0272
 31
0.0
  0
LINE
  8
0
 62
     0
 10
4.04453
 20
54.0272
 30
0.0
 11
4.09416
 21
53.7185
 31
0.0
  0
LINE
  8
0
 62
     0
 10
4.09416
 20
53.7185
 30
0.0
 11
4.04453
 21
53.4098
 31
0.0
  0
LINE
  8
0
 62
     0
 10
4.04453
 20
53.4098
 30
0.0
 11
3.9026
 21
53.1301
 31
0.0
  0
LINE
  8
0
 62
     0
 10
3.9026
 20
53.1301
 30
0.0
 11
3.68212
 21
52.9096
 31
0.0
  0
LINE
  8
0
 62
     0
 10
3.68212
 20
52.9096
 30
0.0
 11
3.40238
 21
52.7678
 31
0.0
  0
LINE
  8
0
 62
     0
 10
3.40238
 20
52.7678
 30
0.0
 11
3.0937
 21
52.7184
 31
0.0
  0
LINE
  8
0
 62
     0
 10
3.0937
 20
52.7184
 30
0.0
 11
2.78501
 21
52.7678
 31
0.0
  0
LINE
  8
0
 62
     0
 10
2.78501
 20
52.7678
 30
0.0
 11
2.50527
 21
52.9096
 31
0.0
  0
LINE
  8
0
 62
     0
 10
2.50527
 20
52.9096
 30
0.0
 11
2.28479
 21
53.1301
 31
0.0
  0
LINE
  8
0
 62
     0
 10
2.28479
 20
53.1301
 30
0.0
 11
2.14285
 21
53.4098
 31
0.0
  0
LINE
  8
0
 62
     0
 10
2.14285
 20
53.4098
 30
0.0
 11
2.09324
 21
53.7185
 31
0.0
  0
LINE
  8
0
 62
     0
 10
2.09324
 20
53.7185
 30
0.0
 11
2.14285
 21
54.0272
 31
0.0
  0
LINE
  8
0
 62
     0
 10
2.14285
 20
54.0272
 30
0.0
 11
2.28479
 21
54.307
 31
0.0
  0
LINE
  8
0
 62
     0
 10
2.28479
 20
54.307
 30
0.0
 11
2.50527
 21
54.5274
 31
0.0
  0
LINE
  8
0
 62
     0
 10
2.50527
 20
54.5274
 30
0.0
 11
2.78501
 21
54.6696
 31
0.0
  0
LINE
  8
0
 62
     0
 10
2.78501
 20
54.6696
 30
0.0
 11
3.0937
 21
54.719
 31
0.0
  0
LINE
  8
0
 62
     0
 10
3.0937
 20
105.344
 30
0.0
 11
3.40238
 21
105.295
 31
0.0
  0
LINE
  8
0
 62
     0
 10
3.40238
 20
105.295
 30
0.0
 11
3.68212
 21
105.152
 31
0.0
  0
LINE
  8
0
 62
     0
 10
3.68212
 20
105.152
 30
0.0
 11
3.9026
 21
104.932
 31
0.0
  0
LINE
  8
0
 62
     0
 10
3.9026
 20
104.932
 30
0.0
 11
4.04453
 21
104.652
 31
0.0
  0
LINE
  8
0
 62
     0
 10
4.04453
 20
104.652
 30
0.0
 11
4.09416
 21
104.344
 31
0.0
  0
LINE
  8
0
 62
     0
 10
4.09416
 20
104.344
 30
0.0
 11
4.04453
 21
104.035
 31
0.0
  0
LINE
  8
0
 62
     0
 10
4.04453
 20
104.035
 30
0.0
 11
3.9026
 21
103.755
 31
0.0
  0
LINE
  8
0
 62
     0
 10
3.9026
 20
103.755
 30
0.0
 11
3.68212
 21
103.535
 31
0.0
  0
LINE
  8
0
 62
     0
 10
3.68212
 20
103.535
 30
0.0
 11
3.40238
 21
103.393
 31
0.0
  0
LINE
  8
0
 62
     0
 10
3.40238
 20
103.393
 30
0.0
 11
3.0937
 21
103.343
 31
0.0
  0
LINE
  8
0
 62
     0
 10
3.0937
 20
103.343
 30
0.0
 11
2.78501
 21
103.393
 31
0.0
  0
LINE
  8
0
 62
     0
 10
2.78501
 20
103.393
 30
0.0
 11
2.50527
 21
103.535
 31
0.0
  0
LINE
  8
0
 62
     0
 10
2.50527
 20
103.535
 30
0.0
 11
2.28479
 21
103.755
 31
0.0
  0
LINE
  8
0
 62
     0
 10
2.28479
 20
103.755
 30
0.0
 11
2.14285
 21
104.035
 31
0.0
  0
LINE
  8
0
 62
     0
 10
2.14285
 20
104.035
 30
0.0
 11
2.09324
 21
104.344
 31
0.0
  0
LINE
  8
0
 62
     0
 10
2.09324
 20
104.344
 30
0.0
 11
2.14285
 21
104.652
 31
0.0
  0
LINE
  8
0
 62
     0
 10
2.14285
 20
104.652
 30
0.0
 11
2.28479
 21
104.932
 31
0.0
  0
LINE
  8
0
 62
     0
 10
2.28479
 20
104.932
 30
0.0
 11
2.50527
 21
105.152
 31
0.0
  0
LINE
  8
0
 62
     0
 10
2.50527
 20
105.152
 30
0.0
 11
2.78501
 21
105.295
 31
0.0
  0
LINE
  8
0
 62
     0
 10
2.78501
 20
105.295
 30
0.0
 11
3.0937
 21
105.344
 31
0.0
  0
LINE
  8
0
 62
     0
 10
8.61826
 20
98.8191
 30
0.0
 11
22.6191
 21
98.8191
 31
0.0
  0
LINE
  8
0
 62
     0
 10
22.6191
 20
98.8191
 30
0.0
 11
22.6191
 21
84.8184
 31
0.0
  0
LINE
  8
0
 62
     0
 10
22.6191
 20
84.8184
 30
0.0
 11
8.61826
 21
84.8184
 31
0.0
  0
LINE
  8
0
 62
     0
 10
8.61826
 20
84.8184
 30
0.0
 11
8.61826
 21
98.8191
 31
0.0
  0
LINE
  8
0
 62
     0
 10
10.9995
 20
22.6191
 30
0.0
 11
25.0004
 21
22.6191
 31
0.0
  0
LINE
  8
0
 62
     0
 10
25.0004
 20
22.6191
 30
0.0
 11
25.0004
 21
8.61826
 31
0.0
  0
LINE
  8
0
 62
     0
 10
25.0004
 20
8.61826
 30
0.0
 11
10.9995
 21
8.61826
 31
0.0
  0
LINE
  8
0
 62
     0
 10
10.9995
 20
8.61826
 30
0.0
 11
10.9995
 21
22.6191
 31
0.0
  0
LINE
  8
0
 62
     0
 10
13.3821
 20
79.7691
 30
0.0
 11
27.3816
 21
79.7691
 31
0.0
  0
LINE
  8
0
 62
     0
 10
27.3816
 20
79.7691
 30
0.0
 11
27.3816
 21
65.7684
 31
0.0
  0
LINE
  8
0
 62
     0
 10
27.3816
 20
65.7684
 30
0.0
 11
13.3821
 21
65.7684
 31
0.0
  0
LINE
  8
0
 62
     0
 10
13.3821
 20
65.7684
 30
0.0
 11
13.3821
 21
79.7691
 31
0.0
  0
LINE
  8
0
 62
     0
 10
15.7634
 20
60.7191
 30
0.0
 11
29.7629
 21
60.7191
 31
0.0
  0
LINE
  8
0
 62
     0
 10
29.7629
 20
60.7191
 30
0.0
 11
29.7629
 21
46.7184
 31
0.0
  0
LINE
  8
0
 62
     0
 10
29.7629
 20
46.7184
 30
0.0
 11
15.7634
 21
46.7184
 31
0.0
  0
LINE
  8
0
 62
     0
 10
15.7634
 20
46.7184
 30
0.0
 11
15.7634
 21
60.7191
 31
0.0
  0
LINE
  8
0
 62
     0
 10
27.6683
 20
98.8191
 30
0.0
 11
41.6691
 21
98.8191
 31
0.0
  0
LINE
  8
0
 62
     0
 10
41.6691
 20
98.8191
 30
0.0
 11
41.6691
 21
84.8184
 31
0.0
  0
LINE
  8
0
 62
     0
 10
41.6691
 20
84.8184
 30
0.0
 11
27.6683
 21
84.8184
 31
0.0
  0
LINE
  8
0
 62
     0
 10
27.6683
 20
84.8184
 30
0.0
 11
27.6683
 21
98.8191
 31
0.0
  0
LINE
  8
0
 62
     0
 10
42.7496
 20
34.1685
 30
0.0
 11
42.7496
 21
27.8984
 31
0.0
  0
LINE
  8
0
 62
     0
 10
42.7496
 20
27.8984
 30
0.0
 11
41.1247
 21
27.8984
 31
0.0
  0
LINE
  8
0
 62
     0
 10
41.1247
 20
27.8984
 30
0.0
 11
41.1247
 21
26.9186
 31
0.0
  0
LINE
  8
0
 62
     0
 10
41.1247
 20
26.9186
 30
0.0
 11
37.8245
 21
26.9186
 31
0.0
  0
LINE
  8
0
 62
     0
 10
37.8245
 20
26.9186
 30
0.0
 11
37.8245
 21
27.8984
 31
0.0
  0
LINE
  8
0
 62
     0
 10
37.8245
 20
27.8984
 30
0.0
 11
36.099
 21
27.8984
 31
0.0
  0
LINE
  8
0
 62
     0
 10
36.099
 20
27.8984
 30
0.0
 11
36.099
 21
28.699
 31
0.0
  0
LINE
  8
0
 62
     0
 10
36.099
 20
28.699
 30
0.0
 11
34.5254
 21
28.699
 31
0.0
  0
LINE
  8
0
 62
     0
 10
34.5254
 20
28.699
 30
0.0
 11
34.5254
 21
27.6683
 31
0.0
  0
LINE
  8
0
 62
     0
 10
34.5254
 20
27.6683
 30
0.0
 11
20.5245
 21
27.6683
 31
0.0
  0
LINE
  8
0
 62
     0
 10
20.5245
 20
27.6683
 30
0.0
 11
20.5245
 21
28.699
 31
0.0
  0
LINE
  8
0
 62
     0
 10
20.5245
 20
28.699
 30
0.0
 11
18.9494
 21
28.699
 31
0.0
  0
LINE
  8
0
 62
     0
 10
18.9494
 20
28.699
 30
0.0
 11
18.9494
 21
27.8984
 31
0.0
  0
LINE
  8
0
 62
     0
 10
18.9494
 20
27.8984
 30
0.0
 11
17.2241
 21
27.8984
 31
0.0
  0
LINE
  8
0
 62
     0
 10
17.2241
 20
27.8984
 30
0.0
 11
17.2241
 21
26.9186
 31
0.0
  0
LINE
  8
0
 62
     0
 10
17.2241
 20
26.9186
 30
0.0
 11
13.9251
 21
26.9186
 31
0.0
  0
LINE
  8
0
 62
     0
 10
13.9251
 20
26.9186
 30
0.0
 11
13.9251
 21
27.8984
 31
0.0
  0
LINE
  8
0
 62
     0
 10
13.9251
 20
27.8984
 30
0.0
 11
12.3004
 21
27.8984
 31
0.0
  0
LINE
  8
0
 62
     0
 10
12.3004
 20
27.8984
 30
0.0
 11
12.3004
 21
34.1685
 31
0.0
  0
LINE
  8
0
 62
     0
 10
12.3004
 20
34.1685
 30
0.0
 11
11.4253
 21
34.1685
 31
0.0
  0
LINE
  8
0
 62
     0
 10
11.4253
 20
34.1685
 30
0.0
 11
11.4253
 21
36.9686
 31
0.0
  0
LINE
  8
0
 62
     0
 10
11.4253
 20
36.9686
 30
0.0
 11
12.3004
 21
36.9686
 31
0.0
  0
LINE
  8
0
 62
     0
 10
12.3004
 20
36.9686
 30
0.0
 11
12.3004
 21
40.1987
 31
0.0
  0
LINE
  8
0
 62
     0
 10
12.3004
 20
40.1987
 30
0.0
 11
13.9251
 21
40.1987
 31
0.0
  0
LINE
  8
0
 62
     0
 10
13.9251
 20
40.1987
 30
0.0
 11
13.9251
 21
41.1194
 31
0.0
  0
LINE
  8
0
 62
     0
 10
13.9251
 20
41.1194
 30
0.0
 11
17.2241
 21
41.1194
 31
0.0
  0
LINE
  8
0
 62
     0
 10
17.2241
 20
41.1194
 30
0.0
 11
17.2241
 21
40.1987
 31
0.0
  0
LINE
  8
0
 62
     0
 10
17.2241
 20
40.1987
 30
0.0
 11
18.9494
 21
40.1987
 31
0.0
  0
LINE
  8
0
 62
     0
 10
18.9494
 20
40.1987
 30
0.0
 11
18.9494
 21
39.3982
 31
0.0
  0
LINE
  8
0
 62
     0
 10
18.9494
 20
39.3982
 30
0.0
 11
20.5245
 21
39.3982
 31
0.0
  0
LINE
  8
0
 62
     0
 10
20.5245
 20
39.3982
 30
0.0
 11
20.5245
 21
41.6691
 31
0.0
  0
LINE
  8
0
 62
     0
 10
20.5245
 20
41.6691
 30
0.0
 11
34.5254
 21
41.6691
 31
0.0
  0
LINE
  8
0
 62
     0
 10
34.5254
 20
41.6691
 30
0.0
 11
34.5254
 21
39.3982
 31
0.0
  0
LINE
  8
0
 62
     0
 10
34.5254
 20
39.3982
 30
0.0
 11
36.099
 21
39.3982
 31
0.0
  0
LINE
  8
0
 62
     0
 10
36.099
 20
39.3982
 30
0.0
 11
36.099
 21
40.1987
 31
0.0
  0
LINE
  8
0
 62
     0
 10
36.099
 20
40.1987
 30
0.0
 11
37.8245
 21
40.1987
 31
0.0
  0
LINE
  8
0
 62
     0
 10
37.8245
 20
40.1987
 30
0.0
 11
37.8245
 21
41.1194
 31
0.0
  0
LINE
  8
0
 62
     0
 10
37.8245
 20
41.1194
 30
0.0
 11
41.1247
 21
41.1194
 31
0.0
  0
LINE
  8
0
 62
     0
 10
41.1247
 20
41.1194
 30
0.0
 11
41.1247
 21
40.1987
 31
0.0
  0
LINE
  8
0
 62
     0
 10
41.1247
 20
40.1987
 30
0.0
 11
42.7496
 21
40.1987
 31
0.0
  0
LINE
  8
0
 62
     0
 10
42.7496
 20
40.1987
 30
0.0
 11
42.7496
 21
36.9686
 31
0.0
  0
LINE
  8
0
 62
     0
 10
42.7496
 20
36.9686
 30
0.0
 11
43.6245
 21
36.9686
 31
0.0
  0
LINE
  8
0
 62
     0
 10
43.6245
 20
36.9686
 30
0.0
 11
43.6245
 21
34.1685
 31
0.0
  0
LINE
  8
0
 62
     0
 10
43.6245
 20
34.1685
 30
0.0
 11
42.7496
 21
34.1685
 31
0.0
  0
LINE
  8
0
 62
     0
 10
34.8134
 20
22.6191
 30
0.0
 11
48.8128
 21
22.6191
 31
0.0
  0
LINE
  8
0
 62
     0
 10
48.8128
 20
22.6191
 30
0.0
 11
48.8128
 21
8.61826
 31
0.0
  0
LINE
  8
0
 62
     0
 10
48.8128
 20
8.61826
 30
0.0
 11
34.8134
 21
8.61826
 31
0.0
  0
LINE
  8
0
 62
     0
 10
34.8134
 20
8.61826
 30
0.0
 11
34.8134
 21
22.6191
 31
0.0
  0
LINE
  8
0
 62
     0
 10
37.1934
 20
79.7691
 30
0.0
 11
51.1941
 21
79.7691
 31
0.0
  0
LINE
  8
0
 62
     0
 10
51.1941
 20
79.7691
 30
0.0
 11
51.1941
 21
65.7684
 31
0.0
  0
LINE
  8
0
 62
     0
 10
51.1941
 20
65.7684
 30
0.0
 11
37.1934
 21
65.7684
 31
0.0
  0
LINE
  8
0
 62
     0
 10
37.1934
 20
65.7684
 30
0.0
 11
37.1934
 21
79.7691
 31
0.0
  0
LINE
  8
0
 62
     0
 10
41.9559
 20
60.7191
 30
0.0
 11
55.9551
 21
60.7191
 31
0.0
  0
LINE
  8
0
 62
     0
 10
55.9551
 20
60.7191
 30
0.0
 11
55.9551
 21
46.7184
 31
0.0
  0
LINE
  8
0
 62
     0
 10
55.9551
 20
46.7184
 30
0.0
 11
41.9559
 21
46.7184
 31
0.0
  0
LINE
  8
0
 62
     0
 10
41.9559
 20
46.7184
 30
0.0
 11
41.9559
 21
60.7191
 31
0.0
  0
LINE
  8
0
 62
     0
 10
46.7184
 20
98.8191
 30
0.0
 11
60.7191
 21
98.8191
 31
0.0
  0
LINE
  8
0
 62
     0
 10
60.7191
 20
98.8191
 30
0.0
 11
60.7191
 21
84.8184
 31
0.0
  0
LINE
  8
0
 62
     0
 10
60.7191
 20
84.8184
 30
0.0
 11
46.7184
 21
84.8184
 31
0.0
  0
LINE
  8
0
 62
     0
 10
46.7184
 20
84.8184
 30
0.0
 11
46.7184
 21
98.8191
 31
0.0
  0
LINE
  8
0
 62
     0
 10
51.4823
 20
41.6691
 30
0.0
 11
65.4816
 21
41.6691
 31
0.0
  0
LINE
  8
0
 62
     0
 10
65.4816
 20
41.6691
 30
0.0
 11
65.4816
 21
27.6683
 31
0.0
  0
LINE
  8
0
 62
     0
 10
65.4816
 20
27.6683
 30
0.0
 11
51.4823
 21
27.6683
 31
0.0
  0
LINE
  8
0
 62
     0
 10
51.4823
 20
27.6683
 30
0.0
 11
51.4823
 21
41.6691
 31
0.0
  0
LINE
  8
0
 62
     0
 10
56.2434
 20
79.7691
 30
0.0
 11
70.2441
 21
79.7691
 31
0.0
  0
LINE
  8
0
 62
     0
 10
70.2441
 20
79.7691
 30
0.0
 11
70.2441
 21
65.7684
 31
0.0
  0
LINE
  8
0
 62
     0
 10
70.2441
 20
65.7684
 30
0.0
 11
56.2434
 21
65.7684
 31
0.0
  0
LINE
  8
0
 62
     0
 10
56.2434
 20
65.7684
 30
0.0
 11
56.2434
 21
79.7691
 31
0.0
  0
LINE
  8
0
 62
     0
 10
58.6246
 20
22.6191
 30
0.0
 11
72.6253
 21
22.6191
 31
0.0
  0
LINE
  8
0
 62
     0
 10
72.6253
 20
22.6191
 30
0.0
 11
72.6253
 21
8.61826
 31
0.0
  0
LINE
  8
0
 62
     0
 10
72.6253
 20
8.61826
 30
0.0
 11
58.6246
 21
8.61826
 31
0.0
  0
LINE
  8
0
 62
     0
 10
58.6246
 20
8.61826
 30
0.0
 11
58.6246
 21
22.6191
 31
0.0
  0
LINE
  8
0
 62
     0
 10
61.0059
 20
60.7191
 30
0.0
 11
75.0051
 21
60.7191
 31
0.0
  0
LINE
  8
0
 62
     0
 10
75.0051
 20
60.7191
 30
0.0
 11
75.0051
 21
46.7184
 31
0.0
  0
LINE
  8
0
 62
     0
 10
75.0051
 20
46.7184
 30
0.0
 11
61.0059
 21
46.7184
 31
0.0
  0
LINE
  8
0
 62
     0
 10
61.0059
 20
46.7184
 30
0.0
 11
61.0059
 21
60.7191
 31
0.0
  0
LINE
  8
0
 62
     0
 10
65.7684
 20
98.8191
 30
0.0
 11
79.7691
 21
98.8191
 31
0.0
  0
LINE
  8
0
 62
     0
 10
79.7691
 20
98.8191
 30
0.0
 11
79.7691
 21
84.8184
 31
0.0
  0
LINE
  8
0
 62
     0
 10
79.7691
 20
84.8184
 30
0.0
 11
65.7684
 21
84.8184
 31
0.0
  0
LINE
  8
0
 62
     0
 10
65.7684
 20
84.8184
 30
0.0
 11
65.7684
 21
98.8191
 31
0.0
  0
LINE
  8
0
 62
     0
 10
70.5323
 20
41.6691
 30
0.0
 11
84.5316
 21
41.6691
 31
0.0
  0
LINE
  8
0
 62
     0
 10
84.5316
 20
41.6691
 30
0.0
 11
84.5316
 21
27.6683
 31
0.0
  0
LINE
  8
0
 62
     0
 10
84.5316
 20
27.6683
 30
0.0
 11
70.5323
 21
27.6683
 31
0.0
  0
LINE
  8
0
 62
     0
 10
70.5323
 20
27.6683
 30
0.0
 11
70.5323
 21
41.6691
 31
0.0
  0
LINE
  8
0
 62
     0
 10
75.2934
 20
79.7691
 30
0.0
 11
89.2941
 21
79.7691
 31
0.0
  0
LINE
  8
0
 62
     0
 10
89.2941
 20
79.7691
 30
0.0
 11
89.2941
 21
65.7684
 31
0.0
  0
LINE
  8
0
 62
     0
 10
89.2941
 20
65.7684
 30
0.0
 11
75.2934
 21
65.7684
 31
0.0
  0
LINE
  8
0
 62
     0
 10
75.2934
 20
65.7684
 30
0.0
 11
75.2934
 21
79.7691
 31
0.0
  0
LINE
  8
0
 62
     0
 10
80.0559
 20
60.7191
 30
0.0
 11
94.0551
 21
60.7191
 31
0.0
  0
LINE
  8
0
 62
     0
 10
94.0551
 20
60.7191
 30
0.0
 11
94.0551
 21
46.7184
 31
0.0
  0
LINE
  8
0
 62
     0
 10
94.0551
 20
46.7184
 30
0.0
 11
80.0559
 21
46.7184
 31
0.0
  0
LINE
  8
0
 62
     0
 10
80.0559
 20
46.7184
 30
0.0
 11
80.0559
 21
60.7191
 31
0.0
  0
LINE
  8
0
 62
     0
 10
84.8184
 20
98.8191
 30
0.0
 11
98.8191
 21
98.8191
 31
0.0
  0
LINE
  8
0
 62
     0
 10
98.8191
 20
98.8191
 30
0.0
 11
98.8191
 21
84.8184
 31
0.0
  0
LINE
  8
0
 62
     0
 10
98.8191
 20
84.8184
 30
0.0
 11
84.8184
 21
84.8184
 31
0.0
  0
LINE
  8
0
 62
     0
 10
84.8184
 20
84.8184
 30
0.0
 11
84.8184
 21
98.8191
 31
0.0
  0
LINE
  8
0
 62
     0
 10
89.5823
 20
41.6691
 30
0.0
 11
103.582
 21
41.6691
 31
0.0
  0
LINE
  8
0
 62
     0
 10
103.582
 20
41.6691
 30
0.0
 11
103.582
 21
27.6683
 31
0.0
  0
LINE
  8
0
 62
     0
 10
103.582
 20
27.6683
 30
0.0
 11
89.5823
 21
27.6683
 31
0.0
  0
LINE
  8
0
 62
     0
 10
89.5823
 20
27.6683
 30
0.0
 11
89.5823
 21
41.6691
 31
0.0
  0
LINE
  8
0
 62
     0
 10
94.3434
 20
79.7691
 30
0.0
 11
108.344
 21
79.7691
 31
0.0
  0
LINE
  8
0
 62
     0
 10
108.344
 20
79.7691
 30
0.0
 11
108.344
 21
65.7684
 31
0.0
  0
LINE
  8
0
 62
     0
 10
108.344
 20
65.7684
 30
0.0
 11
94.3434
 21
65.7684
 31
0.0
  0
LINE
  8
0
 62
     0
 10
94.3434
 20
65.7684
 30
0.0
 11
94.3434
 21
79.7691
 31
0.0
  0
LINE
  8
0
 62
     0
 10
99.1059
 20
60.7191
 30
0.0
 11
113.105
 21
60.7191
 31
0.0
  0
LINE
  8
0
 62
     0
 10
113.105
 20
60.7191
 30
0.0
 11
113.105
 21
46.7184
 31
0.0
  0
LINE
  8
0
 62
     0
 10
113.105
 20
46.7184
 30
0.0
 11
99.1059
 21
46.7184
 31
0.0
  0
LINE
  8
0
 62
     0
 10
99.1059
 20
46.7184
 30
0.0
 11
99.1059
 21
60.7191
 31
0.0
  0
LINE
  8
0
 62
     0
 10
103.868
 20
98.8191
 30
0.0
 11
117.869
 21
98.8191
 31
0.0
  0
LINE
  8
0
 62
     0
 10
117.869
 20
98.8191
 30
0.0
 11
117.869
 21
84.8184
 31
0.0
  0
LINE
  8
0
 62
     0
 10
117.869
 20
84.8184
 30
0.0
 11
103.868
 21
84.8184
 31
0.0
  0
LINE
  8
0
 62
     0
 10
103.868
 20
84.8184
 30
0.0
 11
103.868
 21
98.8191
 31
0.0
  0
LINE
  8
0
 62
     0
 10
108.632
 20
41.6691
 30
0.0
 11
122.632
 21
41.6691
 31
0.0
  0
LINE
  8
0
 62
     0
 10
122.632
 20
41.6691
 30
0.0
 11
122.632
 21
27.6683
 31
0.0
  0
LINE
  8
0
 62
     0
 10
122.632
 20
27.6683
 30
0.0
 11
108.632
 21
27.6683
 31
0.0
  0
LINE
  8
0
 62
     0
 10
108.632
 20
27.6683
 30
0.0
 11
108.632
 21
41.6691
 31
0.0
  0
LINE
  8
0
 62
     0
 10
113.393
 20
79.7691
 30
0.0
 11
127.394
 21
79.7691
 31
0.0
  0
LINE
  8
0
 62
     0
 10
127.394
 20
79.7691
 30
0.0
 11
127.394
 21
65.7684
 31
0.0
  0
LINE
  8
0
 62
     0
 10
127.394
 20
65.7684
 30
0.0
 11
113.393
 21
65.7684
 31
0.0
  0
LINE
  8
0
 62
     0
 10
113.393
 20
65.7684
 30
0.0
 11
113.393
 21
79.7691
 31
0.0
  0
LINE
  8
0
 62
     0
 10
118.156
 20
60.7191
 30
0.0
 11
132.155
 21
60.7191
 31
0.0
  0
LINE
  8
0
 62
     0
 10
132.155
 20
60.7191
 30
0.0
 11
132.155
 21
46.7184
 31
0.0
  0
LINE
  8
0
 62
     0
 10
132.155
 20
46.7184
 30
0.0
 11
118.156
 21
46.7184
 31
0.0
  0
LINE
  8
0
 62
     0
 10
118.156
 20
46.7184
 30
0.0
 11
118.156
 21
60.7191
 31
0.0
  0
LINE
  8
0
 62
     0
 10
122.918
 20
98.8191
 30
0.0
 11
136.919
 21
98.8191
 31
0.0
  0
LINE
  8
0
 62
     0
 10
136.919
 20
98.8191
 30
0.0
 11
136.919
 21
84.8184
 31
0.0
  0
LINE
  8
0
 62
     0
 10
136.919
 20
84.8184
 30
0.0
 11
122.918
 21
84.8184
 31
0.0
  0
LINE
  8
0
 62
     0
 10
122.918
 20
84.8184
 30
0.0
 11
122.918
 21
98.8191
 31
0.0
  0
LINE
  8
0
 62
     0
 10
127.682
 20
41.6691
 30
0.0
 11
141.682
 21
41.6691
 31
0.0
  0
LINE
  8
0
 62
     0
 10
141.682
 20
41.6691
 30
0.0
 11
141.682
 21
27.6683
 31
0.0
  0
LINE
  8
0
 62
     0
 10
141.682
 20
27.6683
 30
0.0
 11
127.682
 21
27.6683
 31
0.0
  0
LINE
  8
0
 62
     0
 10
127.682
 20
27.6683
 30
0.0
 11
127.682
 21
41.6691
 31
0.0
  0
LINE
  8
0
 62
     0
 10
132.443
 20
79.7691
 30
0.0
 11
146.444
 21
79.7691
 31
0.0
  0
LINE
  8
0
 62
     0
 10
146.444
 20
79.7691
 30
0.0
 11
146.444
 21
65.7684
 31
0.0
  0
LINE
  8
0
 62
     0
 10
146.444
 20
65.7684
 30
0.0
 11
132.443
 21
65.7684
 31
0.0
  0
LINE
  8
0
 62
     0
 10
132.443
 20
65.7684
 30
0.0
 11
132.443
 21
79.7691
 31
0.0
  0
LINE
  8
0
 62
     0
 10
137.207
 20
60.7191
 30
0.0
 11
151.207
 21
60.7191
 31
0.0
  0
LINE
  8
0
 62
     0
 10
151.207
 20
60.7191
 30
0.0
 11
151.207
 21
46.7184
 31
0.0
  0
LINE
  8
0
 62
     0
 10
151.207
 20
46.7184
 30
0.0
 11
137.207
 21
46.7184
 31
0.0
  0
LINE
  8
0
 62
     0
 10
137.207
 20
46.7184
 30
0.0
 11
137.207
 21
60.7191
 31
0.0
  0
LINE
  8
0
 62
     0
 10
141.968
 20
98.8191
 30
0.0
 11
155.969
 21
98.8191
 31
0.0
  0
LINE
  8
0
 62
     0
 10
155.969
 20
98.8191
 30
0.0
 11
155.969
 21
84.8184
 31
0.0
  0
LINE
  8
0
 62
     0
 10
155.969
 20
84.8184
 30
0.0
 11
141.968
 21
84.8184
 31
0.0
  0
LINE
  8
0
 62
     0
 10
141.968
 20
84.8184
 30
0.0
 11
141.968
 21
98.8191
 31
0.0
  0
LINE
  8
0
 62
     0
 10
146.732
 20
41.6691
 30
0.0
 11
160.732
 21
41.6691
 31
0.0
  0
LINE
  8
0
 62
     0
 10
160.732
 20
41.6691
 30
0.0
 11
160.732
 21
27.6683
 31
0.0
  0
LINE
  8
0
 62
     0
 10
160.732
 20
27.6683
 30
0.0
 11
146.732
 21
27.6683
 31
0.0
  0
LINE
  8
0
 62
     0
 10
146.732
 20
27.6683
 30
0.0
 11
146.732
 21
41.6691
 31
0.0
  0
LINE
  8
0
 62
     0
 10
151.493
 20
79.7691
 30
0.0
 11
165.494
 21
79.7691
 31
0.0
  0
LINE
  8
0
 62
     0
 10
165.494
 20
79.7691
 30
0.0
 11
165.494
 21
65.7684
 31
0.0
  0
LINE
  8
0
 62
     0
 10
165.494
 20
65.7684
 30
0.0
 11
151.493
 21
65.7684
 31
0.0
  0
LINE
  8
0
 62
     0
 10
151.493
 20
65.7684
 30
0.0
 11
151.493
 21
79.7691
 31
0.0
  0
LINE
  8
0
 62
     0
 10
156.257
 20
60.7191
 30
0.0
 11
170.257
 21
60.7191
 31
0.0
  0
LINE
  8
0
 62
     0
 10
170.257
 20
60.7191
 30
0.0
 11
170.257
 21
46.7184
 31
0.0
  0
LINE
  8
0
 62
     0
 10
170.257
 20
46.7184
 30
0.0
 11
156.257
 21
46.7184
 31
0.0
  0
LINE
  8
0
 62
     0
 10
156.257
 20
46.7184
 30
0.0
 11
156.257
 21
60.7191
 31
0.0
  0
LINE
  8
0
 62
     0
 10
161.018
 20
98.8191
 30
0.0
 11
175.019
 21
98.8191
 31
0.0
  0
LINE
  8
0
 62
     0
 10
175.019
 20
98.8191
 30
0.0
 11
175.019
 21
84.8184
 31
0.0
  0
LINE
  8
0
 62
     0
 10
175.019
 20
84.8184
 30
0.0
 11
161.018
 21
84.8184
 31
0.0
  0
LINE
  8
0
 62
     0
 10
161.018
 20
84.8184
 30
0.0
 11
161.018
 21
98.8191
 31
0.0
  0
LINE
  8
0
 62
     0
 10
165.782
 20
41.6691
 30
0.0
 11
179.782
 21
41.6691
 31
0.0
  0
LINE
  8
0
 62
     0
 10
179.782
 20
41.6691
 30
0.0
 11
179.782
 21
27.6683
 31
0.0
  0
LINE
  8
0
 62
     0
 10
179.782
 20
27.6683
 30
0.0
 11
165.782
 21
27.6683
 31
0.0
  0
LINE
  8
0
 62
     0
 10
165.782
 20
27.6683
 30
0.0
 11
165.782
 21
41.6691
 31
0.0
  0
LINE
  8
0
 62
     0
 10
170.543
 20
79.7691
 30
0.0
 11
184.544
 21
79.7691
 31
0.0
  0
LINE
  8
0
 62
     0
 10
184.544
 20
79.7691
 30
0.0
 11
184.544
 21
65.7684
 31
0.0
  0
LINE
  8
0
 62
     0
 10
184.544
 20
65.7684
 30
0.0
 11
170.543
 21
65.7684
 31
0.0
  0
LINE
  8
0
 62
     0
 10
170.543
 20
65.7684
 30
0.0
 11
170.543
 21
79.7691
 31
0.0
  0
LINE
  8
0
 62
     0
 10
175.307
 20
60.7191
 30
0.0
 11
189.307
 21
60.7191
 31
0.0
  0
LINE
  8
0
 62
     0
 10
189.307
 20
60.7191
 30
0.0
 11
189.307
 21
46.7184
 31
0.0
  0
LINE
  8
0
 62
     0
 10
189.307
 20
46.7184
 30
0.0
 11
175.307
 21
46.7184
 31
0.0
  0
LINE
  8
0
 62
     0
 10
175.307
 20
46.7184
 30
0.0
 11
175.307
 21
60.7191
 31
0.0
  0
LINE
  8
0
 62
     0
 10
190.389
 20
15.1185
 30
0.0
 11
190.389
 21
8.84837
 31
0.0
  0
LINE
  8
0
 62
     0
 10
190.389
 20
8.84837
 30
0.0
 11
188.713
 21
8.84837
 31
0.0
  0
LINE
  8
0
 62
     0
 10
188.713
 20
8.84837
 30
0.0
 11
188.713
 21
7.8686
 31
0.0
  0
LINE
  8
0
 62
     0
 10
188.713
 20
7.8686
 30
0.0
 11
185.412
 21
7.8686
 31
0.0
  0
LINE
  8
0
 62
     0
 10
185.412
 20
7.8686
 30
0.0
 11
185.412
 21
8.84837
 31
0.0
  0
LINE
  8
0
 62
     0
 10
185.412
 20
8.84837
 30
0.0
 11
183.738
 21
8.84837
 31
0.0
  0
LINE
  8
0
 62
     0
 10
183.738
 20
8.84837
 30
0.0
 11
183.738
 21
13.3187
 31
0.0
  0
LINE
  8
0
 62
     0
 10
183.738
 20
13.3187
 30
0.0
 11
144.063
 21
13.3187
 31
0.0
  0
LINE
  8
0
 62
     0
 10
144.063
 20
13.3187
 30
0.0
 11
144.063
 21
8.61826
 31
0.0
  0
LINE
  8
0
 62
     0
 10
144.063
 20
8.61826
 30
0.0
 11
130.064
 21
8.61826
 31
0.0
  0
LINE
  8
0
 62
     0
 10
130.064
 20
8.61826
 30
0.0
 11
130.064
 21
13.3187
 31
0.0
  0
LINE
  8
0
 62
     0
 10
130.064
 20
13.3187
 30
0.0
 11
90.3884
 21
13.3187
 31
0.0
  0
LINE
  8
0
 62
     0
 10
90.3884
 20
13.3187
 30
0.0
 11
90.3884
 21
8.84837
 31
0.0
  0
LINE
  8
0
 62
     0
 10
90.3884
 20
8.84837
 30
0.0
 11
88.7127
 21
8.84837
 31
0.0
  0
LINE
  8
0
 62
     0
 10
88.7127
 20
8.84837
 30
0.0
 11
88.7127
 21
7.8686
 31
0.0
  0
LINE
  8
0
 62
     0
 10
88.7127
 20
7.8686
 30
0.0
 11
85.4121
 21
7.8686
 31
0.0
  0
LINE
  8
0
 62
     0
 10
85.4121
 20
7.8686
 30
0.0
 11
85.4121
 21
8.84837
 31
0.0
  0
LINE
  8
0
 62
     0
 10
85.4121
 20
8.84837
 30
0.0
 11
83.7378
 21
8.84837
 31
0.0
  0
LINE
  8
0
 62
     0
 10
83.7378
 20
8.84837
 30
0.0
 11
83.7378
 21
15.1185
 31
0.0
  0
LINE
  8
0
 62
     0
 10
83.7378
 20
15.1185
 30
0.0
 11
82.8629
 21
15.1185
 31
0.0
  0
LINE
  8
0
 62
     0
 10
82.8629
 20
15.1185
 30
0.0
 11
82.8629
 21
17.9186
 31
0.0
  0
LINE
  8
0
 62
     0
 10
82.8629
 20
17.9186
 30
0.0
 11
83.7378
 21
17.9186
 31
0.0
  0
LINE
  8
0
 62
     0
 10
83.7378
 20
17.9186
 30
0.0
 11
83.7378
 21
21.1487
 31
0.0
  0
LINE
  8
0
 62
     0
 10
83.7378
 20
21.1487
 30
0.0
 11
85.4121
 21
21.1487
 31
0.0
  0
LINE
  8
0
 62
     0
 10
85.4121
 20
21.1487
 30
0.0
 11
85.4121
 21
22.0693
 31
0.0
  0
LINE
  8
0
 62
     0
 10
85.4121
 20
22.0693
 30
0.0
 11
88.7127
 21
22.0693
 31
0.0
  0
LINE
  8
0
 62
     0
 10
88.7127
 20
22.0693
 30
0.0
 11
88.7127
 21
21.1487
 31
0.0
  0
LINE
  8
0
 62
     0
 10
88.7127
 20
21.1487
 30
0.0
 11
90.3884
 21
21.1487
 31
0.0
  0
LINE
  8
0
 62
     0
 10
90.3884
 20
21.1487
 30
0.0
 11
90.3884
 21
17.9186
 31
0.0
  0
LINE
  8
0
 62
     0
 10
90.3884
 20
17.9186
 30
0.0
 11
130.064
 21
17.9186
 31
0.0
  0
LINE
  8
0
 62
     0
 10
130.064
 20
17.9186
 30
0.0
 11
130.064
 21
22.6191
 31
0.0
  0
LINE
  8
0
 62
     0
 10
130.064
 20
22.6191
 30
0.0
 11
144.063
 21
22.6191
 31
0.0
  0
LINE
  8
0
 62
     0
 10
144.063
 20
22.6191
 30
0.0
 11
144.063
 21
17.9186
 31
0.0
  0
LINE
  8
0
 62
     0
 10
144.063
 20
17.9186
 30
0.0
 11
183.738
 21
17.9186
 31
0.0
  0
LINE
  8
0
 62
     0
 10
183.738
 20
17.9186
 30
0.0
 11
183.738
 21
21.1487
 31
0.0
  0
LINE
  8
0
 62
     0
 10
183.738
 20
21.1487
 30
0.0
 11
185.412
 21
21.1487
 31
0.0
  0
LINE
  8
0
 62
     0
 10
185.412
 20
21.1487
 30
0.0
 11
185.412
 21
22.0693
 31
0.0
  0
LINE
  8
0
 62
     0
 10
185.412
 20
22.0693
 30
0.0
 11
188.713
 21
22.0693
 31
0.0
  0
LINE
  8
0
 62
     0
 10
188.713
 20
22.0693
 30
0.0
 11
188.713
 21
21.1487
 31
0.0
  0
LINE
  8
0
 62
     0
 10
188.713
 20
21.1487
 30
0.0
 11
190.389
 21
21.1487
 31
0.0
  0
LINE
  8
0
 62
     0
 10
190.389
 20
21.1487
 30
0.0
 11
190.389
 21
17.9186
 31
0.0
  0
LINE
  8
0
 62
     0
 10
190.389
 20
17.9186
 30
0.0
 11
191.263
 21
17.9186
 31
0.0
  0
LINE
  8
0
 62
     0
 10
191.263
 20
17.9186
 30
0.0
 11
191.263
 21
15.1185
 31
0.0
  0
LINE
  8
0
 62
     0
 10
191.263
 20
15.1185
 30
0.0
 11
190.389
 21
15.1185
 31
0.0
  0
LINE
  8
0
 62
     0
 10
180.068
 20
98.8191
 30
0.0
 11
194.069
 21
98.8191
 31
0.0
  0
LINE
  8
0
 62
     0
 10
194.069
 20
98.8191
 30
0.0
 11
194.069
 21
84.8184
 31
0.0
  0
LINE
  8
0
 62
     0
 10
194.069
 20
84.8184
 30
0.0
 11
180.068
 21
84.8184
 31
0.0
  0
LINE
  8
0
 62
     0
 10
180.068
 20
84.8184
 30
0.0
 11
180.068
 21
98.8191
 31
0.0
  0
LINE
  8
0
 62
     0
 10
184.832
 20
41.6691
 30
0.0
 11
198.832
 21
41.6691
 31
0.0
  0
LINE
  8
0
 62
     0
 10
198.832
 20
41.6691
 30
0.0
 11
198.832
 21
27.6683
 31
0.0
  0
LINE
  8
0
 62
     0
 10
198.832
 20
27.6683
 30
0.0
 11
184.832
 21
27.6683
 31
0.0
  0
LINE
  8
0
 62
     0
 10
184.832
 20
27.6683
 30
0.0
 11
184.832
 21
41.6691
 31
0.0
  0
LINE
  8
0
 62
     0
 10
189.593
 20
79.7691
 30
0.0
 11
203.594
 21
79.7691
 31
0.0
  0
LINE
  8
0
 62
     0
 10
203.594
 20
79.7691
 30
0.0
 11
203.594
 21
65.7684
 31
0.0
  0
LINE
  8
0
 62
     0
 10
203.594
 20
65.7684
 30
0.0
 11
189.593
 21
65.7684
 31
0.0
  0
LINE
  8
0
 62
     0
 10
189.593
 20
65.7684
 30
0.0
 11
189.593
 21
79.7691
 31
0.0
  0
LINE
  8
0
 62
     0
 10
194.357
 20
60.7191
 30
0.0
 11
208.357
 21
60.7191
 31
0.0
  0
LINE
  8
0
 62
     0
 10
208.357
 20
60.7191
 30
0.0
 11
208.357
 21
46.7184
 31
0.0
  0
LINE
  8
0
 62
     0
 10
208.357
 20
46.7184
 30
0.0
 11
194.357
 21
46.7184
 31
0.0
  0
LINE
  8
0
 62
     0
 10
194.357
 20
46.7184
 30
0.0
 11
194.357
 21
60.7191
 31
0.0
  0
LINE
  8
0
 62
     0
 10
199.118
 20
98.8191
 30
0.0
 11
213.119
 21
98.8191
 31
0.0
  0
LINE
  8
0
 62
     0
 10
213.119
 20
98.8191
 30
0.0
 11
213.119
 21
84.8184
 31
0.0
  0
LINE
  8
0
 62
     0
 10
213.119
 20
84.8184
 30
0.0
 11
199.118
 21
84.8184
 31
0.0
  0
LINE
  8
0
 62
     0
 10
199.118
 20
84.8184
 30
0.0
 11
199.118
 21
98.8191
 31
0.0
  0
LINE
  8
0
 62
     0
 10
201.5
 20
22.6191
 30
0.0
 11
215.5
 21
22.6191
 31
0.0
  0
LINE
  8
0
 62
     0
 10
215.5
 20
22.6191
 30
0.0
 11
215.5
 21
8.61826
 31
0.0
  0
LINE
  8
0
 62
     0
 10
215.5
 20
8.61826
 30
0.0
 11
201.5
 21
8.61826
 31
0.0
  0
LINE
  8
0
 62
     0
 10
201.5
 20
8.61826
 30
0.0
 11
201.5
 21
22.6191
 31
0.0
  0
LINE
  8
0
 62
     0
 10
203.882
 20
41.6691
 30
0.0
 11
217.882
 21
41.6691
 31
0.0
  0
LINE
  8
0
 62
     0
 10
217.882
 20
41.6691
 30
0.0
 11
217.882
 21
27.6683
 31
0.0
  0
LINE
  8
0
 62
     0
 10
217.882
 20
27.6683
 30
0.0
 11
203.882
 21
27.6683
 31
0.0
  0
LINE
  8
0
 62
     0
 10
203.882
 20
27.6683
 30
0.0
 11
203.882
 21
41.6691
 31
0.0
  0
LINE
  8
0
 62
     0
 10
208.643
 20
79.7691
 30
0.0
 11
222.644
 21
79.7691
 31
0.0
  0
LINE
  8
0
 62
     0
 10
222.644
 20
79.7691
 30
0.0
 11
222.644
 21
65.7684
 31
0.0
  0
LINE
  8
0
 62
     0
 10
222.644
 20
65.7684
 30
0.0
 11
208.643
 21
65.7684
 31
0.0
  0
LINE
  8
0
 62
     0
 10
208.643
 20
65.7684
 30
0.0
 11
208.643
 21
79.7691
 31
0.0
  0
LINE
  8
0
 62
     0
 10
213.407
 20
60.7191
 30
0.0
 11
227.407
 21
60.7191
 31
0.0
  0
LINE
  8
0
 62
     0
 10
227.407
 20
60.7191
 30
0.0
 11
227.407
 21
46.7184
 31
0.0
  0
LINE
  8
0
 62
     0
 10
227.407
 20
46.7184
 30
0.0
 11
213.407
 21
46.7184
 31
0.0
  0
LINE
  8
0
 62
     0
 10
213.407
 20
46.7184
 30
0.0
 11
213.407
 21
60.7191
 31
0.0
  0
LINE
  8
0
 62
     0
 10
218.168
 20
98.8191
 30
0.0
 11
232.169
 21
98.8191
 31
0.0
  0
LINE
  8
0
 62
     0
 10
232.169
 20
98.8191
 30
0.0
 11
232.169
 21
84.8184
 31
0.0
  0
LINE
  8
0
 62
     0
 10
232.169
 20
84.8184
 30
0.0
 11
218.168
 21
84.8184
 31
0.0
  0
LINE
  8
0
 62
     0
 10
218.168
 20
84.8184
 30
0.0
 11
218.168
 21
98.8191
 31
0.0
  0
LINE
  8
0
 62
     0
 10
222.932
 20
41.6691
 30
0.0
 11
236.932
 21
41.6691
 31
0.0
  0
LINE
  8
0
 62
     0
 10
236.932
 20
41.6691
 30
0.0
 11
236.932
 21
27.6683
 31
0.0
  0
LINE
  8
0
 62
     0
 10
236.932
 20
27.6683
 30
0.0
 11
222.932
 21
27.6683
 31
0.0
  0
LINE
  8
0
 62
     0
 10
222.932
 20
27.6683
 30
0.0
 11
222.932
 21
41.6691
 31
0.0
  0
LINE
  8
0
 62
     0
 10
225.314
 20
22.6191
 30
0.0
 11
239.313
 21
22.6191
 31
0.0
  0
LINE
  8
0
 62
     0
 10
239.313
 20
22.6191
 30
0.0
 11
239.313
 21
8.61826
 31
0.0
  0
LINE
  8
0
 62
     0
 10
239.313
 20
8.61826
 30
0.0
 11
225.314
 21
8.61826
 31
0.0
  0
LINE
  8
0
 62
     0
 10
225.314
 20
8.61826
 30
0.0
 11
225.314
 21
22.6191
 31
0.0
  0
LINE
  8
0
 62
     0
 10
227.693
 20
79.7691
 30
0.0
 11
241.694
 21
79.7691
 31
0.0
  0
LINE
  8
0
 62
     0
 10
241.694
 20
79.7691
 30
0.0
 11
241.694
 21
65.7684
 31
0.0
  0
LINE
  8
0
 62
     0
 10
241.694
 20
65.7684
 30
0.0
 11
227.693
 21
65.7684
 31
0.0
  0
LINE
  8
0
 62
     0
 10
227.693
 20
65.7684
 30
0.0
 11
227.693
 21
79.7691
 31
0.0
  0
LINE
  8
0
 62
     0
 10
232.457
 20
60.7191
 30
0.0
 11
246.457
 21
60.7191
 31
0.0
  0
LINE
  8
0
 62
     0
 10
246.457
 20
60.7191
 30
0.0
 11
246.457
 21
46.7184
 31
0.0
  0
LINE
  8
0
 62
     0
 10
246.457
 20
46.7184
 30
0.0
 11
232.457
 21
46.7184
 31
0.0
  0
LINE
  8
0
 62
     0
 10
232.457
 20
46.7184
 30
0.0
 11
232.457
 21
60.7191
 31
0.0
  0
LINE
  8
0
 62
     0
 10
237.218
 20
98.8191
 30
0.0
 11
251.219
 21
98.8191
 31
0.0
  0
LINE
  8
0
 62
     0
 10
251.219
 20
98.8191
 30
0.0
 11
251.219
 21
84.8184
 31
0.0
  0
LINE
  8
0
 62
     0
 10
251.219
 20
84.8184
 30
0.0
 11
237.218
 21
84.8184
 31
0.0
  0
LINE
  8
0
 62
     0
 10
237.218
 20
84.8184
 30
0.0
 11
237.218
 21
98.8191
 31
0.0
  0
LINE
  8
0
 62
     0
 10
246.743
 20
79.7691
 30
0.0
 11
260.744
 21
79.7691
 31
0.0
  0
LINE
  8
0
 62
     0
 10
260.744
 20
79.7691
 30
0.0
 11
260.744
 21
65.7684
 31
0.0
  0
LINE
  8
0
 62
     0
 10
260.744
 20
65.7684
 30
0.0
 11
246.743
 21
65.7684
 31
0.0
  0
LINE
  8
0
 62
     0
 10
246.743
 20
65.7684
 30
0.0
 11
246.743
 21
79.7691
 31
0.0
  0
LINE
  8
0
 62
     0
 10
249.125
 20
22.6191
 30
0.0
 11
263.125
 21
22.6191
 31
0.0
  0
LINE
  8
0
 62
     0
 10
263.125
 20
22.6191
 30
0.0
 11
263.125
 21
8.61826
 31
0.0
  0
LINE
  8
0
 62
     0
 10
263.125
 20
8.61826
 30
0.0
 11
249.125
 21
8.61826
 31
0.0
  0
LINE
  8
0
 62
     0
 10
249.125
 20
8.61826
 30
0.0
 11
249.125
 21
22.6191
 31
0.0
  0
LINE
  8
0
 62
     0
 10
249.125
 20
41.6691
 30
0.0
 11
263.125
 21
41.6691
 31
0.0
  0
LINE
  8
0
 62
     0
 10
263.125
 20
41.6691
 30
0.0
 11
263.125
 21
27.6683
 31
0.0
  0
LINE
  8
0
 62
     0
 10
263.125
 20
27.6683
 30
0.0
 11
249.125
 21
27.6683
 31
0.0
  0
LINE
  8
0
 62
     0
 10
249.125
 20
27.6683
 30
0.0
 11
249.125
 21
41.6691
 31
0.0
  0
LINE
  8
0
 62
     0
 10
270.557
 20
79.7691
 30
0.0
 11
284.557
 21
79.7691
 31
0.0
  0
LINE
  8
0
 62
     0
 10
284.557
 20
79.7691
 30
0.0
 11
284.557
 21
65.7684
 31
0.0
  0
LINE
  8
0
 62
     0
 10
284.557
 20
65.7684
 30
0.0
 11
270.557
 21
65.7684
 31
0.0
  0
LINE
  8
0
 62
     0
 10
270.557
 20
65.7684
 30
0.0
 11
270.557
 21
79.7691
 31
0.0
  0
LINE
  8
0
 62
     0
 10
285.639
 20
53.2183
 30
0.0
 11
285.639
 21
46.9484
 31
0.0
  0
LINE
  8
0
 62
     0
 10
285.639
 20
46.9484
 30
0.0
 11
284.012
 21
46.9484
 31
0.0
  0
LINE
  8
0
 62
     0
 10
284.012
 20
46.9484
 30
0.0
 11
284.012
 21
45.9687
 31
0.0
  0
LINE
  8
0
 62
     0
 10
284.012
 20
45.9687
 30
0.0
 11
280.713
 21
45.9687
 31
0.0
  0
LINE
  8
0
 62
     0
 10
280.713
 20
45.9687
 30
0.0
 11
280.713
 21
46.9484
 31
0.0
  0
LINE
  8
0
 62
     0
 10
280.713
 20
46.9484
 30
0.0
 11
278.988
 21
46.9484
 31
0.0
  0
LINE
  8
0
 62
     0
 10
278.988
 20
46.9484
 30
0.0
 11
278.988
 21
47.7492
 31
0.0
  0
LINE
  8
0
 62
     0
 10
278.988
 20
47.7492
 30
0.0
 11
277.413
 21
47.7492
 31
0.0
  0
LINE
  8
0
 62
     0
 10
277.413
 20
47.7492
 30
0.0
 11
277.413
 21
46.7184
 31
0.0
  0
LINE
  8
0
 62
     0
 10
277.413
 20
46.7184
 30
0.0
 11
263.414
 21
46.7184
 31
0.0
  0
LINE
  8
0
 62
     0
 10
263.414
 20
46.7184
 30
0.0
 11
263.414
 21
47.7492
 31
0.0
  0
LINE
  8
0
 62
     0
 10
263.414
 20
47.7492
 30
0.0
 11
261.838
 21
47.7492
 31
0.0
  0
LINE
  8
0
 62
     0
 10
261.838
 20
47.7492
 30
0.0
 11
261.838
 21
46.9484
 31
0.0
  0
LINE
  8
0
 62
     0
 10
261.838
 20
46.9484
 30
0.0
 11
260.113
 21
46.9484
 31
0.0
  0
LINE
  8
0
 62
     0
 10
260.113
 20
46.9484
 30
0.0
 11
260.113
 21
45.9687
 31
0.0
  0
LINE
  8
0
 62
     0
 10
260.113
 20
45.9687
 30
0.0
 11
256.813
 21
45.9687
 31
0.0
  0
LINE
  8
0
 62
     0
 10
256.813
 20
45.9687
 30
0.0
 11
256.813
 21
46.9484
 31
0.0
  0
LINE
  8
0
 62
     0
 10
256.813
 20
46.9484
 30
0.0
 11
255.188
 21
46.9484
 31
0.0
  0
LINE
  8
0
 62
     0
 10
255.188
 20
46.9484
 30
0.0
 11
255.188
 21
53.2183
 31
0.0
  0
LINE
  8
0
 62
     0
 10
255.188
 20
53.2183
 30
0.0
 11
254.313
 21
53.2183
 31
0.0
  0
LINE
  8
0
 62
     0
 10
254.313
 20
53.2183
 30
0.0
 11
254.313
 21
56.0186
 31
0.0
  0
LINE
  8
0
 62
     0
 10
254.313
 20
56.0186
 30
0.0
 11
255.188
 21
56.0186
 31
0.0
  0
LINE
  8
0
 62
     0
 10
255.188
 20
56.0186
 30
0.0
 11
255.188
 21
59.2487
 31
0.0
  0
LINE
  8
0
 62
     0
 10
255.188
 20
59.2487
 30
0.0
 11
256.813
 21
59.2487
 31
0.0
  0
LINE
  8
0
 62
     0
 10
256.813
 20
59.2487
 30
0.0
 11
256.813
 21
60.1694
 31
0.0
  0
LINE
  8
0
 62
     0
 10
256.813
 20
60.1694
 30
0.0
 11
260.113
 21
60.1694
 31
0.0
  0
LINE
  8
0
 62
     0
 10
260.113
 20
60.1694
 30
0.0
 11
260.113
 21
59.2487
 31
0.0
  0
LINE
  8
0
 62
     0
 10
260.113
 20
59.2487
 30
0.0
 11
261.838
 21
59.2487
 31
0.0
  0
LINE
  8
0
 62
     0
 10
261.838
 20
59.2487
 30
0.0
 11
261.838
 21
58.4482
 31
0.0
  0
LINE
  8
0
 62
     0
 10
261.838
 20
58.4482
 30
0.0
 11
263.414
 21
58.4482
 31
0.0
  0
LINE
  8
0
 62
     0
 10
263.414
 20
58.4482
 30
0.0
 11
263.414
 21
60.7191
 31
0.0
  0
LINE
  8
0
 62
     0
 10
263.414
 20
60.7191
 30
0.0
 11
277.413
 21
60.7191
 31
0.0
  0
LINE
  8
0
 62
     0
 10
277.413
 20
60.7191
 30
0.0
 11
277.413
 21
58.4482
 31
0.0
  0
LINE
  8
0
 62
     0
 10
277.413
 20
58.4482
 30
0.0
 11
278.988
 21
58.4482
 31
0.0
  0
LINE
  8
0
 62
     0
 10
278.988
 20
58.4482
 30
0.0
 11
278.988
 21
59.2487
 31
0.0
  0
LINE
  8
0
 62
     0
 10
278.988
 20
59.2487
 30
0.0
 11
280.713
 21
59.2487
 31
0.0
  0
LINE
  8
0
 62
     0
 10
280.713
 20
59.2487
 30
0.0
 11
280.713
 21
60.1694
 31
0.0
  0
LINE
  8
0
 62
     0
 10
280.713
 20
60.1694
 30
0.0
 11
284.012
 21
60.1694
 31
0.0
  0
LINE
  8
0
 62
     0
 10
284.012
 20
60.1694
 30
0.0
 11
284.012
 21
59.2487
 31
0.0
  0
LINE
  8
0
 62
     0
 10
284.012
 20
59.2487
 30
0.0
 11
285.639
 21
59.2487
 31
0.0
  0
LINE
  8
0
 62
     0
 10
285.639
 20
59.2487
 30
0.0
 11
285.639
 21
56.0186
 31
0.0
  0
LINE
  8
0
 62
     0
 10
285.639
 20
56.0186
 30
0.0
 11
286.513
 21
56.0186
 31
0.0
  0
LINE
  8
0
 62
     0
 10
286.513
 20
56.0186
 30
0.0
 11
286.513
 21
53.2183
 31
0.0
  0
LINE
  8
0
 62
     0
 10
286.513
 20
53.2183
 30
0.0
 11
285.639
 21
53.2183
 31
0.0
  0
LINE
  8
0
 62
     0
 10
272.939
 20
22.6191
 30
0.0
 11
286.938
 21
22.6191
 31
0.0
  0
LINE
  8
0
 62
     0
 10
286.938
 20
22.6191
 30
0.0
 11
286.938
 21
8.61826
 31
0.0
  0
LINE
  8
0
 62
     0
 10
286.938
 20
8.61826
 30
0.0
 11
272.939
 21
8.61826
 31
0.0
  0
LINE
  8
0
 62
     0
 10
272.939
 20
8.61826
 30
0.0
 11
272.939
 21
22.6191
 31
0.0
  0
LINE
  8
0
 62
     0
 10
288.018
 20
91.3183
 30
0.0
 11
288.018
 21
85.0484
 31
0.0
  0
LINE
  8
0
 62
     0
 10
288.018
 20
85.0484
 30
0.0
 11
286.393
 21
85.0484
 31
0.0
  0
LINE
  8
0
 62
     0
 10
286.393
 20
85.0484
 30
0.0
 11
286.393
 21
84.0687
 31
0.0
  0
LINE
  8
0
 62
     0
 10
286.393
 20
84.0687
 30
0.0
 11
283.093
 21
84.0687
 31
0.0
  0
LINE
  8
0
 62
     0
 10
283.093
 20
84.0687
 30
0.0
 11
283.093
 21
85.0484
 31
0.0
  0
LINE
  8
0
 62
     0
 10
283.093
 20
85.0484
 30
0.0
 11
281.369
 21
85.0484
 31
0.0
  0
LINE
  8
0
 62
     0
 10
281.369
 20
85.0484
 30
0.0
 11
281.369
 21
85.8492
 31
0.0
  0
LINE
  8
0
 62
     0
 10
281.369
 20
85.8492
 30
0.0
 11
279.794
 21
85.8492
 31
0.0
  0
LINE
  8
0
 62
     0
 10
279.794
 20
85.8492
 30
0.0
 11
279.794
 21
84.8184
 31
0.0
  0
LINE
  8
0
 62
     0
 10
279.794
 20
84.8184
 30
0.0
 11
265.793
 21
84.8184
 31
0.0
  0
LINE
  8
0
 62
     0
 10
265.793
 20
84.8184
 30
0.0
 11
265.793
 21
85.8492
 31
0.0
  0
LINE
  8
0
 62
     0
 10
265.793
 20
85.8492
 30
0.0
 11
264.218
 21
85.8492
 31
0.0
  0
LINE
  8
0
 62
     0
 10
264.218
 20
85.8492
 30
0.0
 11
264.218
 21
85.0484
 31
0.0
  0
LINE
  8
0
 62
     0
 10
264.218
 20
85.0484
 30
0.0
 11
262.494
 21
85.0484
 31
0.0
  0
LINE
  8
0
 62
     0
 10
262.494
 20
85.0484
 30
0.0
 11
262.494
 21
84.0687
 31
0.0
  0
LINE
  8
0
 62
     0
 10
262.494
 20
84.0687
 30
0.0
 11
259.194
 21
84.0687
 31
0.0
  0
LINE
  8
0
 62
     0
 10
259.194
 20
84.0687
 30
0.0
 11
259.194
 21
85.0484
 31
0.0
  0
LINE
  8
0
 62
     0
 10
259.194
 20
85.0484
 30
0.0
 11
257.569
 21
85.0484
 31
0.0
  0
LINE
  8
0
 62
     0
 10
257.569
 20
85.0484
 30
0.0
 11
257.569
 21
91.3183
 31
0.0
  0
LINE
  8
0
 62
     0
 10
257.569
 20
91.3183
 30
0.0
 11
256.694
 21
91.3183
 31
0.0
  0
LINE
  8
0
 62
     0
 10
256.694
 20
91.3183
 30
0.0
 11
256.694
 21
94.1186
 31
0.0
  0
LINE
  8
0
 62
     0
 10
256.694
 20
94.1186
 30
0.0
 11
257.569
 21
94.1186
 31
0.0
  0
LINE
  8
0
 62
     0
 10
257.569
 20
94.1186
 30
0.0
 11
257.569
 21
97.3487
 31
0.0
  0
LINE
  8
0
 62
     0
 10
257.569
 20
97.3487
 30
0.0
 11
259.194
 21
97.3487
 31
0.0
  0
LINE
  8
0
 62
     0
 10
259.194
 20
97.3487
 30
0.0
 11
259.194
 21
98.2694
 31
0.0
  0
LINE
  8
0
 62
     0
 10
259.194
 20
98.2694
 30
0.0
 11
262.494
 21
98.2694
 31
0.0
  0
LINE
  8
0
 62
     0
 10
262.494
 20
98.2694
 30
0.0
 11
262.494
 21
97.3487
 31
0.0
  0
LINE
  8
0
 62
     0
 10
262.494
 20
97.3487
 30
0.0
 11
264.218
 21
97.3487
 31
0.0
  0
LINE
  8
0
 62
     0
 10
264.218
 20
97.3487
 30
0.0
 11
264.218
 21
96.5482
 31
0.0
  0
LINE
  8
0
 62
     0
 10
264.218
 20
96.5482
 30
0.0
 11
265.793
 21
96.5482
 31
0.0
  0
LINE
  8
0
 62
     0
 10
265.793
 20
96.5482
 30
0.0
 11
265.793
 21
98.8191
 31
0.0
  0
LINE
  8
0
 62
     0
 10
265.793
 20
98.8191
 30
0.0
 11
279.794
 21
98.8191
 31
0.0
  0
LINE
  8
0
 62
     0
 10
279.794
 20
98.8191
 30
0.0
 11
279.794
 21
96.5482
 31
0.0
  0
LINE
  8
0
 62
     0
 10
279.794
 20
96.5482
 30
0.0
 11
281.369
 21
96.5482
 31
0.0
  0
LINE
  8
0
 62
     0
 10
281.369
 20
96.5482
 30
0.0
 11
281.369
 21
97.3487
 31
0.0
  0
LINE
  8
0
 62
     0
 10
281.369
 20
97.3487
 30
0.0
 11
283.093
 21
97.3487
 31
0.0
  0
LINE
  8
0
 62
     0
 10
283.093
 20
97.3487
 30
0.0
 11
283.093
 21
98.2694
 31
0.0
  0
LINE
  8
0
 62
     0
 10
283.093
 20
98.2694
 30
0.0
 11
286.393
 21
98.2694
 31
0.0
  0
LINE
  8
0
 62
     0
 10
286.393
 20
98.2694
 30
0.0
 11
286.393
 21
97.3487
 31
0.0
  0
LINE
  8
0
 62
     0
 10
286.393
 20
97.3487
 30
0.0
 11
288.018
 21
97.3487
 31
0.0
  0
LINE
  8
0
 62
     0
 10
288.018
 20
97.3487
 30
0.0
 11
288.018
 21
94.1186
 31
0.0
  0
LINE
  8
0
 62
     0
 10
288.018
 20
94.1186
 30
0.0
 11
288.893
 21
94.1186
 31
0.0
  0
LINE
  8
0
 62
     0
 10
288.893
 20
94.1186
 30
0.0
 11
288.893
 21
91.3183
 31
0.0
  0
LINE
  8
0
 62
     0
 10
288.893
 20
91.3183
 30
0.0
 11
288.018
 21
91.3183
 31
0.0
  0
LINE
  8
0
 62
     0
 10
275.318
 20
41.6691
 30
0.0
 11
289.319
 21
41.6691
 31
0.0
  0
LINE
  8
0
 62
     0
 10
289.319
 20
41.6691
 30
0.0
 11
289.319
 21
27.6683
 31
0.0
  0
LINE
  8
0
 62
     0
 10
289.319
 20
27.6683
 30
0.0
 11
275.318
 21
27.6683
 31
0.0
  0
LINE
  8
0
 62
     0
 10
275.318
 20
27.6683
 30
0.0
 11
275.318
 21
41.6691
 31
0.0
  0
ENDSEC
  0
EOF
