  0
SECTION
  2
HEADER
  9
$ACADVER
  1
AC1009
  9
$EXTMIN
 10
0.0
 20
0.0
 30
0.0
  9
$EXTMAX
 10
1000.0
 20
1000.0
 30
0.0
  9
$FILLMODE
 70
 0
  9
$SPLFRAME
 70
 1
  0
ENDSEC
  0
SECTION
  2
TABLES
  0
TABLE
  2
LAYER
 70
1
  0
LAYER
  2
0
 70
     0
 62
     7
  6
CONTINUOUS
  0
ENDTAB
  0
ENDSEC
  0
SECTION
  2
ENTITIES
  0
LINE
  8
0
 62
     0
 10
7.55026
 20
34.7872
 30
0.0
 11
10.8493
 21
34.7872
 31
0.0
  0
LINE
  8
0
 62
     0
 10
10.8493
 20
34.7872
 30
0.0
 11
10.8493
 21
20.5879
 31
0.0
  0
LINE
  8
0
 62
     0
 10
10.8493
 20
20.5879
 30
0.0
 11
7.55026
 21
20.5879
 31
0.0
  0
LINE
  8
0
 62
     0
 10
7.55026
 20
20.5879
 30
0.0
 11
7.55026
 21
34.7872
 31
0.0
  0
LINE
  8
0
 62
     0
 10
1.44418
 20
91.8877
 30
0.0
 11
17.0436
 21
91.8877
 31
0.0
  0
LINE
  8
0
 62
     0
 10
17.0436
 20
91.8877
 30
0.0
 11
17.0436
 21
79.0885
 31
0.0
  0
LINE
  8
0
 62
     0
 10
17.0436
 20
79.0885
 30
0.0
 11
1.44418
 21
79.0885
 31
0.0
  0
LINE
  8
0
 62
     0
 10
1.44418
 20
79.0885
 30
0.0
 11
1.44418
 21
91.8877
 31
0.0
  0
LINE
  8
0
 62
     0
 10
3.82545
 20
15.6876
 30
0.0
 11
19.4248
 21
15.6876
 31
0.0
  0
LINE
  8
0
 62
     0
 10
19.4248
 20
15.6876
 30
0.0
 11
19.4248
 21
2.88837
 31
0.0
  0
LINE
  8
0
 62
     0
 10
19.4248
 20
2.88837
 30
0.0
 11
3.82545
 21
2.88837
 31
0.0
  0
LINE
  8
0
 62
     0
 10
3.82545
 20
2.88837
 30
0.0
 11
3.82545
 21
15.6876
 31
0.0
  0
LINE
  8
0
 62
     0
 10
6.2067
 20
72.8377
 30
0.0
 11
21.8061
 21
72.8377
 31
0.0
  0
LINE
  8
0
 62
     0
 10
21.8061
 20
72.8377
 30
0.0
 11
21.8061
 21
60.0385
 31
0.0
  0
LINE
  8
0
 62
     0
 10
21.8061
 20
60.0385
 30
0.0
 11
6.2067
 21
60.0385
 31
0.0
  0
LINE
  8
0
 62
     0
 10
6.2067
 20
60.0385
 30
0.0
 11
6.2067
 21
72.8377
 31
0.0
  0
LINE
  8
0
 62
     0
 10
8.58795
 20
53.7877
 30
0.0
 11
24.1873
 21
53.7877
 31
0.0
  0
LINE
  8
0
 62
     0
 10
24.1873
 20
53.7877
 30
0.0
 11
24.1873
 21
40.9885
 31
0.0
  0
LINE
  8
0
 62
     0
 10
24.1873
 20
40.9885
 30
0.0
 11
8.58795
 21
40.9885
 31
0.0
  0
LINE
  8
0
 62
     0
 10
8.58795
 20
40.9885
 30
0.0
 11
8.58795
 21
53.7877
 31
0.0
  0
LINE
  8
0
 62
     0
 10
27.7937
 20
66.7879
 30
0.0
 11
27.6724
 21
67.5612
 31
0.0
  0
LINE
  8
0
 62
     0
 10
27.6724
 20
67.5612
 30
0.0
 11
27.3169
 21
68.2569
 31
0.0
  0
LINE
  8
0
 62
     0
 10
27.3169
 20
68.2569
 30
0.0
 11
26.7629
 21
68.8111
 31
0.0
  0
LINE
  8
0
 62
     0
 10
26.7629
 20
68.8111
 30
0.0
 11
26.067
 21
69.1653
 31
0.0
  0
LINE
  8
0
 62
     0
 10
26.067
 20
69.1653
 30
0.0
 11
25.2939
 21
69.2877
 31
0.0
  0
LINE
  8
0
 62
     0
 10
25.2939
 20
69.2877
 30
0.0
 11
24.5208
 21
69.1653
 31
0.0
  0
LINE
  8
0
 62
     0
 10
24.5208
 20
69.1653
 30
0.0
 11
23.8249
 21
68.8111
 31
0.0
  0
LINE
  8
0
 62
     0
 10
23.8249
 20
68.8111
 30
0.0
 11
23.2709
 21
68.2569
 31
0.0
  0
LINE
  8
0
 62
     0
 10
23.2709
 20
68.2569
 30
0.0
 11
22.9154
 21
67.5612
 31
0.0
  0
LINE
  8
0
 62
     0
 10
22.9154
 20
67.5612
 30
0.0
 11
22.7941
 21
66.7879
 31
0.0
  0
LINE
  8
0
 62
     0
 10
22.7941
 20
66.7879
 30
0.0
 11
22.9154
 21
66.015
 31
0.0
  0
LINE
  8
0
 62
     0
 10
22.9154
 20
66.015
 30
0.0
 11
23.2709
 21
65.3189
 31
0.0
  0
LINE
  8
0
 62
     0
 10
23.2709
 20
65.3189
 30
0.0
 11
23.8249
 21
64.7651
 31
0.0
  0
LINE
  8
0
 62
     0
 10
23.8249
 20
64.7651
 30
0.0
 11
24.5208
 21
64.4095
 31
0.0
  0
LINE
  8
0
 62
     0
 10
24.5208
 20
64.4095
 30
0.0
 11
25.2939
 21
64.2881
 31
0.0
  0
LINE
  8
0
 62
     0
 10
25.2939
 20
64.2881
 30
0.0
 11
26.067
 21
64.4095
 31
0.0
  0
LINE
  8
0
 62
     0
 10
26.067
 20
64.4095
 30
0.0
 11
26.7629
 21
64.7651
 31
0.0
  0
LINE
  8
0
 62
     0
 10
26.7629
 20
64.7651
 30
0.0
 11
27.3169
 21
65.3189
 31
0.0
  0
LINE
  8
0
 62
     0
 10
27.3169
 20
65.3189
 30
0.0
 11
27.6724
 21
66.015
 31
0.0
  0
LINE
  8
0
 62
     0
 10
27.6724
 20
66.015
 30
0.0
 11
27.7937
 21
66.7879
 31
0.0
  0
LINE
  8
0
 62
     0
 10
13.3505
 20
34.7376
 30
0.0
 11
28.9498
 21
34.7376
 31
0.0
  0
LINE
  8
0
 62
     0
 10
28.9498
 20
34.7376
 30
0.0
 11
28.9498
 21
21.9384
 31
0.0
  0
LINE
  8
0
 62
     0
 10
28.9498
 20
21.9384
 30
0.0
 11
13.3505
 21
21.9384
 31
0.0
  0
LINE
  8
0
 62
     0
 10
13.3505
 20
21.9384
 30
0.0
 11
13.3505
 21
34.7376
 31
0.0
  0
LINE
  8
0
 62
     0
 10
31.4496
 20
34.7872
 30
0.0
 11
34.75
 21
34.7872
 31
0.0
  0
LINE
  8
0
 62
     0
 10
34.75
 20
34.7872
 30
0.0
 11
34.75
 21
20.5879
 31
0.0
  0
LINE
  8
0
 62
     0
 10
34.75
 20
20.5879
 30
0.0
 11
31.4496
 21
20.5879
 31
0.0
  0
LINE
  8
0
 62
     0
 10
31.4496
 20
20.5879
 30
0.0
 11
31.4496
 21
34.7872
 31
0.0
  0
LINE
  8
0
 62
     0
 10
20.4942
 20
91.8877
 30
0.0
 11
36.0938
 21
91.8877
 31
0.0
  0
LINE
  8
0
 62
     0
 10
36.0938
 20
91.8877
 30
0.0
 11
36.0938
 21
79.0885
 31
0.0
  0
LINE
  8
0
 62
     0
 10
36.0938
 20
79.0885
 30
0.0
 11
20.4942
 21
79.0885
 31
0.0
  0
LINE
  8
0
 62
     0
 10
20.4942
 20
79.0885
 30
0.0
 11
20.4942
 21
91.8877
 31
0.0
  0
LINE
  8
0
 62
     0
 10
27.638
 20
15.6876
 30
0.0
 11
43.2375
 21
15.6876
 31
0.0
  0
LINE
  8
0
 62
     0
 10
43.2375
 20
15.6876
 30
0.0
 11
43.2375
 21
2.88837
 31
0.0
  0
LINE
  8
0
 62
     0
 10
43.2375
 20
2.88837
 30
0.0
 11
27.638
 21
2.88837
 31
0.0
  0
LINE
  8
0
 62
     0
 10
27.638
 20
2.88837
 30
0.0
 11
27.638
 21
15.6876
 31
0.0
  0
LINE
  8
0
 62
     0
 10
30.0192
 20
72.8377
 30
0.0
 11
45.6188
 21
72.8377
 31
0.0
  0
LINE
  8
0
 62
     0
 10
45.6188
 20
72.8377
 30
0.0
 11
45.6188
 21
60.0385
 31
0.0
  0
LINE
  8
0
 62
     0
 10
45.6188
 20
60.0385
 30
0.0
 11
30.0192
 21
60.0385
 31
0.0
  0
LINE
  8
0
 62
     0
 10
30.0192
 20
60.0385
 30
0.0
 11
30.0192
 21
72.8377
 31
0.0
  0
LINE
  8
0
 62
     0
 10
34.7817
 20
53.7877
 30
0.0
 11
50.3813
 21
53.7877
 31
0.0
  0
LINE
  8
0
 62
     0
 10
50.3813
 20
53.7877
 30
0.0
 11
50.3813
 21
40.9885
 31
0.0
  0
LINE
  8
0
 62
     0
 10
50.3813
 20
40.9885
 30
0.0
 11
34.7817
 21
40.9885
 31
0.0
  0
LINE
  8
0
 62
     0
 10
34.7817
 20
40.9885
 30
0.0
 11
34.7817
 21
53.7877
 31
0.0
  0
LINE
  8
0
 62
     0
 10
39.5443
 20
91.8877
 30
0.0
 11
55.1438
 21
91.8877
 31
0.0
  0
LINE
  8
0
 62
     0
 10
55.1438
 20
91.8877
 30
0.0
 11
55.1438
 21
79.0885
 31
0.0
  0
LINE
  8
0
 62
     0
 10
55.1438
 20
79.0885
 30
0.0
 11
39.5443
 21
79.0885
 31
0.0
  0
LINE
  8
0
 62
     0
 10
39.5443
 20
79.0885
 30
0.0
 11
39.5443
 21
91.8877
 31
0.0
  0
LINE
  8
0
 62
     0
 10
44.3068
 20
34.7376
 30
0.0
 11
59.9063
 21
34.7376
 31
0.0
  0
LINE
  8
0
 62
     0
 10
59.9063
 20
34.7376
 30
0.0
 11
59.9063
 21
21.9384
 31
0.0
  0
LINE
  8
0
 62
     0
 10
59.9063
 20
21.9384
 30
0.0
 11
44.3068
 21
21.9384
 31
0.0
  0
LINE
  8
0
 62
     0
 10
44.3068
 20
21.9384
 30
0.0
 11
44.3068
 21
34.7376
 31
0.0
  0
LINE
  8
0
 62
     0
 10
49.0693
 20
72.8377
 30
0.0
 11
64.6688
 21
72.8377
 31
0.0
  0
LINE
  8
0
 62
     0
 10
64.6688
 20
72.8377
 30
0.0
 11
64.6688
 21
60.0385
 31
0.0
  0
LINE
  8
0
 62
     0
 10
64.6688
 20
60.0385
 30
0.0
 11
49.0693
 21
60.0385
 31
0.0
  0
LINE
  8
0
 62
     0
 10
49.0693
 20
60.0385
 30
0.0
 11
49.0693
 21
72.8377
 31
0.0
  0
LINE
  8
0
 62
     0
 10
51.4505
 20
15.6876
 30
0.0
 11
67.05
 21
15.6876
 31
0.0
  0
LINE
  8
0
 62
     0
 10
67.05
 20
15.6876
 30
0.0
 11
67.05
 21
2.88837
 31
0.0
  0
LINE
  8
0
 62
     0
 10
67.05
 20
2.88837
 30
0.0
 11
51.4505
 21
2.88837
 31
0.0
  0
LINE
  8
0
 62
     0
 10
51.4505
 20
2.88837
 30
0.0
 11
51.4505
 21
15.6876
 31
0.0
  0
LINE
  8
0
 62
     0
 10
53.8304
 20
53.7877
 30
0.0
 11
69.4313
 21
53.7877
 31
0.0
  0
LINE
  8
0
 62
     0
 10
69.4313
 20
53.7877
 30
0.0
 11
69.4313
 21
40.9885
 31
0.0
  0
LINE
  8
0
 62
     0
 10
69.4313
 20
40.9885
 30
0.0
 11
53.8304
 21
40.9885
 31
0.0
  0
LINE
  8
0
 62
     0
 10
53.8304
 20
40.9885
 30
0.0
 11
53.8304
 21
53.7877
 31
0.0
  0
LINE
  8
0
 62
     0
 10
58.5943
 20
91.8877
 30
0.0
 11
74.1938
 21
91.8877
 31
0.0
  0
LINE
  8
0
 62
     0
 10
74.1938
 20
91.8877
 30
0.0
 11
74.1938
 21
79.0885
 31
0.0
  0
LINE
  8
0
 62
     0
 10
74.1938
 20
79.0885
 30
0.0
 11
58.5943
 21
79.0885
 31
0.0
  0
LINE
  8
0
 62
     0
 10
58.5943
 20
79.0885
 30
0.0
 11
58.5943
 21
91.8877
 31
0.0
  0
LINE
  8
0
 62
     0
 10
63.3568
 20
34.7376
 30
0.0
 11
78.9563
 21
34.7376
 31
0.0
  0
LINE
  8
0
 62
     0
 10
78.9563
 20
34.7376
 30
0.0
 11
78.9563
 21
21.9384
 31
0.0
  0
LINE
  8
0
 62
     0
 10
78.9563
 20
21.9384
 30
0.0
 11
63.3568
 21
21.9384
 31
0.0
  0
LINE
  8
0
 62
     0
 10
63.3568
 20
21.9384
 30
0.0
 11
63.3568
 21
34.7376
 31
0.0
  0
LINE
  8
0
 62
     0
 10
79.0374
 20
15.7372
 30
0.0
 11
82.3376
 21
15.7372
 31
0.0
  0
LINE
  8
0
 62
     0
 10
82.3376
 20
15.7372
 30
0.0
 11
82.3376
 21
1.53789
 31
0.0
  0
LINE
  8
0
 62
     0
 10
82.3376
 20
1.53789
 30
0.0
 11
79.0374
 21
1.53789
 31
0.0
  0
LINE
  8
0
 62
     0
 10
79.0374
 20
1.53789
 30
0.0
 11
79.0374
 21
15.7372
 31
0.0
  0
LINE
  8
0
 62
     0
 10
68.1193
 20
72.8377
 30
0.0
 11
83.7188
 21
72.8377
 31
0.0
  0
LINE
  8
0
 62
     0
 10
83.7188
 20
72.8377
 30
0.0
 11
83.7188
 21
60.0385
 31
0.0
  0
LINE
  8
0
 62
     0
 10
83.7188
 20
60.0385
 30
0.0
 11
68.1193
 21
60.0385
 31
0.0
  0
LINE
  8
0
 62
     0
 10
68.1193
 20
60.0385
 30
0.0
 11
68.1193
 21
72.8377
 31
0.0
  0
LINE
  8
0
 62
     0
 10
72.8804
 20
53.7877
 30
0.0
 11
88.4813
 21
53.7877
 31
0.0
  0
LINE
  8
0
 62
     0
 10
88.4813
 20
53.7877
 30
0.0
 11
88.4813
 21
40.9885
 31
0.0
  0
LINE
  8
0
 62
     0
 10
88.4813
 20
40.9885
 30
0.0
 11
72.8804
 21
40.9885
 31
0.0
  0
LINE
  8
0
 62
     0
 10
72.8804
 20
40.9885
 30
0.0
 11
72.8804
 21
53.7877
 31
0.0
  0
LINE
  8
0
 62
     0
 10
77.6443
 20
91.8877
 30
0.0
 11
93.2437
 21
91.8877
 31
0.0
  0
LINE
  8
0
 62
     0
 10
93.2437
 20
91.8877
 30
0.0
 11
93.2437
 21
79.0885
 31
0.0
  0
LINE
  8
0
 62
     0
 10
93.2437
 20
79.0885
 30
0.0
 11
77.6443
 21
79.0885
 31
0.0
  0
LINE
  8
0
 62
     0
 10
77.6443
 20
79.0885
 30
0.0
 11
77.6443
 21
91.8877
 31
0.0
  0
LINE
  8
0
 62
     0
 10
82.4054
 20
34.7376
 30
0.0
 11
98.0062
 21
34.7376
 31
0.0
  0
LINE
  8
0
 62
     0
 10
98.0062
 20
34.7376
 30
0.0
 11
98.0062
 21
21.9384
 31
0.0
  0
LINE
  8
0
 62
     0
 10
98.0062
 20
21.9384
 30
0.0
 11
82.4054
 21
21.9384
 31
0.0
  0
LINE
  8
0
 62
     0
 10
82.4054
 20
21.9384
 30
0.0
 11
82.4054
 21
34.7376
 31
0.0
  0
LINE
  8
0
 62
     0
 10
87.1693
 20
72.8377
 30
0.0
 11
102.769
 21
72.8377
 31
0.0
  0
LINE
  8
0
 62
     0
 10
102.769
 20
72.8377
 30
0.0
 11
102.769
 21
60.0385
 31
0.0
  0
LINE
  8
0
 62
     0
 10
102.769
 20
60.0385
 30
0.0
 11
87.1693
 21
60.0385
 31
0.0
  0
LINE
  8
0
 62
     0
 10
87.1693
 20
60.0385
 30
0.0
 11
87.1693
 21
72.8377
 31
0.0
  0
LINE
  8
0
 62
     0
 10
91.9304
 20
53.7877
 30
0.0
 11
107.531
 21
53.7877
 31
0.0
  0
LINE
  8
0
 62
     0
 10
107.531
 20
53.7877
 30
0.0
 11
107.531
 21
40.9885
 31
0.0
  0
LINE
  8
0
 62
     0
 10
107.531
 20
40.9885
 30
0.0
 11
91.9304
 21
40.9885
 31
0.0
  0
LINE
  8
0
 62
     0
 10
91.9304
 20
40.9885
 30
0.0
 11
91.9304
 21
53.7877
 31
0.0
  0
LINE
  8
0
 62
     0
 10
96.6943
 20
91.8877
 30
0.0
 11
112.294
 21
91.8877
 31
0.0
  0
LINE
  8
0
 62
     0
 10
112.294
 20
91.8877
 30
0.0
 11
112.294
 21
79.0885
 31
0.0
  0
LINE
  8
0
 62
     0
 10
112.294
 20
79.0885
 30
0.0
 11
96.6943
 21
79.0885
 31
0.0
  0
LINE
  8
0
 62
     0
 10
96.6943
 20
79.0885
 30
0.0
 11
96.6943
 21
91.8877
 31
0.0
  0
LINE
  8
0
 62
     0
 10
101.455
 20
34.7376
 30
0.0
 11
117.056
 21
34.7376
 31
0.0
  0
LINE
  8
0
 62
     0
 10
117.056
 20
34.7376
 30
0.0
 11
117.056
 21
21.9384
 31
0.0
  0
LINE
  8
0
 62
     0
 10
117.056
 20
21.9384
 30
0.0
 11
101.455
 21
21.9384
 31
0.0
  0
LINE
  8
0
 62
     0
 10
101.455
 20
21.9384
 30
0.0
 11
101.455
 21
34.7376
 31
0.0
  0
LINE
  8
0
 62
     0
 10
106.219
 20
72.8377
 30
0.0
 11
121.819
 21
72.8377
 31
0.0
  0
LINE
  8
0
 62
     0
 10
121.819
 20
72.8377
 30
0.0
 11
121.819
 21
60.0385
 31
0.0
  0
LINE
  8
0
 62
     0
 10
121.819
 20
60.0385
 30
0.0
 11
106.219
 21
60.0385
 31
0.0
  0
LINE
  8
0
 62
     0
 10
106.219
 20
60.0385
 30
0.0
 11
106.219
 21
72.8377
 31
0.0
  0
LINE
  8
0
 62
     0
 10
115.744
 20
91.8877
 30
0.0
 11
131.344
 21
91.8877
 31
0.0
  0
LINE
  8
0
 62
     0
 10
131.344
 20
91.8877
 30
0.0
 11
131.344
 21
79.0885
 31
0.0
  0
LINE
  8
0
 62
     0
 10
131.344
 20
79.0885
 30
0.0
 11
115.744
 21
79.0885
 31
0.0
  0
LINE
  8
0
 62
     0
 10
115.744
 20
79.0885
 30
0.0
 11
115.744
 21
91.8877
 31
0.0
  0
LINE
  8
0
 62
     0
 10
120.507
 20
34.7376
 30
0.0
 11
136.106
 21
34.7376
 31
0.0
  0
LINE
  8
0
 62
     0
 10
136.106
 20
34.7376
 30
0.0
 11
136.106
 21
21.9384
 31
0.0
  0
LINE
  8
0
 62
     0
 10
136.106
 20
21.9384
 30
0.0
 11
120.507
 21
21.9384
 31
0.0
  0
LINE
  8
0
 62
     0
 10
120.507
 20
21.9384
 30
0.0
 11
120.507
 21
34.7376
 31
0.0
  0
LINE
  8
0
 62
     0
 10
122.888
 20
15.6876
 30
0.0
 11
138.487
 21
15.6876
 31
0.0
  0
LINE
  8
0
 62
     0
 10
138.487
 20
15.6876
 30
0.0
 11
138.487
 21
2.88837
 31
0.0
  0
LINE
  8
0
 62
     0
 10
138.487
 20
2.88837
 30
0.0
 11
122.888
 21
2.88837
 31
0.0
  0
LINE
  8
0
 62
     0
 10
122.888
 20
2.88837
 30
0.0
 11
122.888
 21
15.6876
 31
0.0
  0
LINE
  8
0
 62
     0
 10
125.269
 20
72.8377
 30
0.0
 11
140.869
 21
72.8377
 31
0.0
  0
LINE
  8
0
 62
     0
 10
140.869
 20
72.8377
 30
0.0
 11
140.869
 21
60.0385
 31
0.0
  0
LINE
  8
0
 62
     0
 10
140.869
 20
60.0385
 30
0.0
 11
125.269
 21
60.0385
 31
0.0
  0
LINE
  8
0
 62
     0
 10
125.269
 20
60.0385
 30
0.0
 11
125.269
 21
72.8377
 31
0.0
  0
LINE
  8
0
 62
     0
 10
130.03
 20
40.9885
 30
0.0
 11
130.03
 21
45.6325
 31
0.0
  0
LINE
  8
0
 62
     0
 10
130.03
 20
45.6325
 30
0.0
 11
129.763
 21
45.3651
 31
0.0
  0
LINE
  8
0
 62
     0
 10
129.763
 20
45.3651
 30
0.0
 11
129.067
 21
45.0095
 31
0.0
  0
LINE
  8
0
 62
     0
 10
129.067
 20
45.0095
 30
0.0
 11
128.294
 21
44.8881
 31
0.0
  0
LINE
  8
0
 62
     0
 10
128.294
 20
44.8881
 30
0.0
 11
127.521
 21
45.0095
 31
0.0
  0
LINE
  8
0
 62
     0
 10
127.521
 20
45.0095
 30
0.0
 11
126.825
 21
45.3651
 31
0.0
  0
LINE
  8
0
 62
     0
 10
126.825
 20
45.3651
 30
0.0
 11
126.581
 21
45.6075
 31
0.0
  0
LINE
  8
0
 62
     0
 10
126.581
 20
45.6075
 30
0.0
 11
126.581
 21
40.9885
 31
0.0
  0
LINE
  8
0
 62
     0
 10
126.581
 20
40.9885
 30
0.0
 11
110.98
 21
40.9885
 31
0.0
  0
LINE
  8
0
 62
     0
 10
110.98
 20
40.9885
 30
0.0
 11
110.98
 21
53.7877
 31
0.0
  0
LINE
  8
0
 62
     0
 10
110.98
 20
53.7877
 30
0.0
 11
126.581
 21
53.7877
 31
0.0
  0
LINE
  8
0
 62
     0
 10
126.581
 20
53.7877
 30
0.0
 11
126.581
 21
49.1684
 31
0.0
  0
LINE
  8
0
 62
     0
 10
126.581
 20
49.1684
 30
0.0
 11
126.825
 21
49.4111
 31
0.0
  0
LINE
  8
0
 62
     0
 10
126.825
 20
49.4111
 30
0.0
 11
127.521
 21
49.7649
 31
0.0
  0
LINE
  8
0
 62
     0
 10
127.521
 20
49.7649
 30
0.0
 11
128.294
 21
49.8877
 31
0.0
  0
LINE
  8
0
 62
     0
 10
128.294
 20
49.8877
 30
0.0
 11
129.067
 21
49.7649
 31
0.0
  0
LINE
  8
0
 62
     0
 10
129.067
 20
49.7649
 30
0.0
 11
129.763
 21
49.4111
 31
0.0
  0
LINE
  8
0
 62
     0
 10
129.763
 20
49.4111
 30
0.0
 11
130.03
 21
49.1423
 31
0.0
  0
LINE
  8
0
 62
     0
 10
130.03
 20
49.1423
 30
0.0
 11
130.03
 21
53.7877
 31
0.0
  0
LINE
  8
0
 62
     0
 10
130.03
 20
53.7877
 30
0.0
 11
145.631
 21
53.7877
 31
0.0
  0
LINE
  8
0
 62
     0
 10
145.631
 20
53.7877
 30
0.0
 11
145.631
 21
40.9885
 31
0.0
  0
LINE
  8
0
 62
     0
 10
145.631
 20
40.9885
 30
0.0
 11
130.03
 21
40.9885
 31
0.0
  0
LINE
  8
0
 62
     0
 10
134.794
 20
91.8877
 30
0.0
 11
150.394
 21
91.8877
 31
0.0
  0
LINE
  8
0
 62
     0
 10
150.394
 20
91.8877
 30
0.0
 11
150.394
 21
79.0885
 31
0.0
  0
LINE
  8
0
 62
     0
 10
150.394
 20
79.0885
 30
0.0
 11
134.794
 21
79.0885
 31
0.0
  0
LINE
  8
0
 62
     0
 10
134.794
 20
79.0885
 30
0.0
 11
134.794
 21
91.8877
 31
0.0
  0
LINE
  8
0
 62
     0
 10
139.557
 20
34.7376
 30
0.0
 11
155.156
 21
34.7376
 31
0.0
  0
LINE
  8
0
 62
     0
 10
155.156
 20
34.7376
 30
0.0
 11
155.156
 21
21.9384
 31
0.0
  0
LINE
  8
0
 62
     0
 10
155.156
 20
21.9384
 30
0.0
 11
139.557
 21
21.9384
 31
0.0
  0
LINE
  8
0
 62
     0
 10
139.557
 20
21.9384
 30
0.0
 11
139.557
 21
34.7376
 31
0.0
  0
LINE
  8
0
 62
     0
 10
144.319
 20
72.8377
 30
0.0
 11
159.919
 21
72.8377
 31
0.0
  0
LINE
  8
0
 62
     0
 10
159.919
 20
72.8377
 30
0.0
 11
159.919
 21
60.0385
 31
0.0
  0
LINE
  8
0
 62
     0
 10
159.919
 20
60.0385
 30
0.0
 11
144.319
 21
60.0385
 31
0.0
  0
LINE
  8
0
 62
     0
 10
144.319
 20
60.0385
 30
0.0
 11
144.319
 21
72.8377
 31
0.0
  0
LINE
  8
0
 62
     0
 10
149.08
 20
53.7877
 30
0.0
 11
164.681
 21
53.7877
 31
0.0
  0
LINE
  8
0
 62
     0
 10
164.681
 20
53.7877
 30
0.0
 11
164.681
 21
40.9885
 31
0.0
  0
LINE
  8
0
 62
     0
 10
164.681
 20
40.9885
 30
0.0
 11
149.08
 21
40.9885
 31
0.0
  0
LINE
  8
0
 62
     0
 10
149.08
 20
40.9885
 30
0.0
 11
149.08
 21
53.7877
 31
0.0
  0
LINE
  8
0
 62
     0
 10
153.844
 20
91.8877
 30
0.0
 11
169.444
 21
91.8877
 31
0.0
  0
LINE
  8
0
 62
     0
 10
169.444
 20
91.8877
 30
0.0
 11
169.444
 21
79.0885
 31
0.0
  0
LINE
  8
0
 62
     0
 10
169.444
 20
79.0885
 30
0.0
 11
153.844
 21
79.0885
 31
0.0
  0
LINE
  8
0
 62
     0
 10
153.844
 20
79.0885
 30
0.0
 11
153.844
 21
91.8877
 31
0.0
  0
LINE
  8
0
 62
     0
 10
158.607
 20
34.7376
 30
0.0
 11
174.206
 21
34.7376
 31
0.0
  0
LINE
  8
0
 62
     0
 10
174.206
 20
34.7376
 30
0.0
 11
174.206
 21
21.9384
 31
0.0
  0
LINE
  8
0
 62
     0
 10
174.206
 20
21.9384
 30
0.0
 11
158.607
 21
21.9384
 31
0.0
  0
LINE
  8
0
 62
     0
 10
158.607
 20
21.9384
 30
0.0
 11
158.607
 21
34.7376
 31
0.0
  0
LINE
  8
0
 62
     0
 10
163.369
 20
72.8377
 30
0.0
 11
178.969
 21
72.8377
 31
0.0
  0
LINE
  8
0
 62
     0
 10
178.969
 20
72.8377
 30
0.0
 11
178.969
 21
60.0385
 31
0.0
  0
LINE
  8
0
 62
     0
 10
178.969
 20
60.0385
 30
0.0
 11
163.369
 21
60.0385
 31
0.0
  0
LINE
  8
0
 62
     0
 10
163.369
 20
60.0385
 30
0.0
 11
163.369
 21
72.8377
 31
0.0
  0
LINE
  8
0
 62
     0
 10
179.038
 20
15.7372
 30
0.0
 11
182.338
 21
15.7372
 31
0.0
  0
LINE
  8
0
 62
     0
 10
182.338
 20
15.7372
 30
0.0
 11
182.338
 21
1.53789
 31
0.0
  0
LINE
  8
0
 62
     0
 10
182.338
 20
1.53789
 30
0.0
 11
179.038
 21
1.53789
 31
0.0
  0
LINE
  8
0
 62
     0
 10
179.038
 20
1.53789
 30
0.0
 11
179.038
 21
15.7372
 31
0.0
  0
LINE
  8
0
 62
     0
 10
168.13
 20
53.7877
 30
0.0
 11
183.731
 21
53.7877
 31
0.0
  0
LINE
  8
0
 62
     0
 10
183.731
 20
53.7877
 30
0.0
 11
183.731
 21
40.9885
 31
0.0
  0
LINE
  8
0
 62
     0
 10
183.731
 20
40.9885
 30
0.0
 11
168.13
 21
40.9885
 31
0.0
  0
LINE
  8
0
 62
     0
 10
168.13
 20
40.9885
 30
0.0
 11
168.13
 21
53.7877
 31
0.0
  0
LINE
  8
0
 62
     0
 10
172.894
 20
91.8877
 30
0.0
 11
188.494
 21
91.8877
 31
0.0
  0
LINE
  8
0
 62
     0
 10
188.494
 20
91.8877
 30
0.0
 11
188.494
 21
79.0885
 31
0.0
  0
LINE
  8
0
 62
     0
 10
188.494
 20
79.0885
 30
0.0
 11
172.894
 21
79.0885
 31
0.0
  0
LINE
  8
0
 62
     0
 10
172.894
 20
79.0885
 30
0.0
 11
172.894
 21
91.8877
 31
0.0
  0
LINE
  8
0
 62
     0
 10
193.094
 20
9.48778
 30
0.0
 11
192.972
 21
10.2609
 31
0.0
  0
LINE
  8
0
 62
     0
 10
192.972
 20
10.2609
 30
0.0
 11
192.617
 21
10.9568
 31
0.0
  0
LINE
  8
0
 62
     0
 10
192.617
 20
10.9568
 30
0.0
 11
192.063
 21
11.5108
 31
0.0
  0
LINE
  8
0
 62
     0
 10
192.063
 20
11.5108
 30
0.0
 11
191.367
 21
11.8663
 31
0.0
  0
LINE
  8
0
 62
     0
 10
191.367
 20
11.8663
 30
0.0
 11
190.594
 21
11.9876
 31
0.0
  0
LINE
  8
0
 62
     0
 10
190.594
 20
11.9876
 30
0.0
 11
189.821
 21
11.8663
 31
0.0
  0
LINE
  8
0
 62
     0
 10
189.821
 20
11.8663
 30
0.0
 11
189.125
 21
11.5108
 31
0.0
  0
LINE
  8
0
 62
     0
 10
189.125
 20
11.5108
 30
0.0
 11
188.571
 21
10.9568
 31
0.0
  0
LINE
  8
0
 62
     0
 10
188.571
 20
10.9568
 30
0.0
 11
188.215
 21
10.2609
 31
0.0
  0
LINE
  8
0
 62
     0
 10
188.215
 20
10.2609
 30
0.0
 11
188.094
 21
9.48778
 31
0.0
  0
LINE
  8
0
 62
     0
 10
188.094
 20
9.48778
 30
0.0
 11
188.215
 21
8.7147
 31
0.0
  0
LINE
  8
0
 62
     0
 10
188.215
 20
8.7147
 30
0.0
 11
188.571
 21
8.01882
 31
0.0
  0
LINE
  8
0
 62
     0
 10
188.571
 20
8.01882
 30
0.0
 11
189.125
 21
7.46485
 31
0.0
  0
LINE
  8
0
 62
     0
 10
189.125
 20
7.46485
 30
0.0
 11
189.821
 21
7.10928
 31
0.0
  0
LINE
  8
0
 62
     0
 10
189.821
 20
7.10928
 30
0.0
 11
190.594
 21
6.98803
 31
0.0
  0
LINE
  8
0
 62
     0
 10
190.594
 20
6.98803
 30
0.0
 11
191.367
 21
7.10928
 31
0.0
  0
LINE
  8
0
 62
     0
 10
191.367
 20
7.10928
 30
0.0
 11
192.063
 21
7.46485
 31
0.0
  0
LINE
  8
0
 62
     0
 10
192.063
 20
7.46485
 30
0.0
 11
192.617
 21
8.01882
 31
0.0
  0
LINE
  8
0
 62
     0
 10
192.617
 20
8.01882
 30
0.0
 11
192.972
 21
8.7147
 31
0.0
  0
LINE
  8
0
 62
     0
 10
192.972
 20
8.7147
 30
0.0
 11
193.094
 21
9.48778
 31
0.0
  0
LINE
  8
0
 62
     0
 10
177.657
 20
34.7376
 30
0.0
 11
193.256
 21
34.7376
 31
0.0
  0
LINE
  8
0
 62
     0
 10
193.256
 20
34.7376
 30
0.0
 11
193.256
 21
21.9384
 31
0.0
  0
LINE
  8
0
 62
     0
 10
193.256
 20
21.9384
 30
0.0
 11
177.657
 21
21.9384
 31
0.0
  0
LINE
  8
0
 62
     0
 10
177.657
 20
21.9384
 30
0.0
 11
177.657
 21
34.7376
 31
0.0
  0
LINE
  8
0
 62
     0
 10
182.419
 20
72.8377
 30
0.0
 11
198.019
 21
72.8377
 31
0.0
  0
LINE
  8
0
 62
     0
 10
198.019
 20
72.8377
 30
0.0
 11
198.019
 21
60.0385
 31
0.0
  0
LINE
  8
0
 62
     0
 10
198.019
 20
60.0385
 30
0.0
 11
182.419
 21
60.0385
 31
0.0
  0
LINE
  8
0
 62
     0
 10
182.419
 20
60.0385
 30
0.0
 11
182.419
 21
72.8377
 31
0.0
  0
LINE
  8
0
 62
     0
 10
187.182
 20
53.7877
 30
0.0
 11
202.781
 21
53.7877
 31
0.0
  0
LINE
  8
0
 62
     0
 10
202.781
 20
53.7877
 30
0.0
 11
202.781
 21
40.9885
 31
0.0
  0
LINE
  8
0
 62
     0
 10
202.781
 20
40.9885
 30
0.0
 11
187.182
 21
40.9885
 31
0.0
  0
LINE
  8
0
 62
     0
 10
187.182
 20
40.9885
 30
0.0
 11
187.182
 21
53.7877
 31
0.0
  0
LINE
  8
0
 62
     0
 10
191.944
 20
91.8877
 30
0.0
 11
207.544
 21
91.8877
 31
0.0
  0
LINE
  8
0
 62
     0
 10
207.544
 20
91.8877
 30
0.0
 11
207.544
 21
79.0885
 31
0.0
  0
LINE
  8
0
 62
     0
 10
207.544
 20
79.0885
 30
0.0
 11
191.944
 21
79.0885
 31
0.0
  0
LINE
  8
0
 62
     0
 10
191.944
 20
79.0885
 30
0.0
 11
191.944
 21
91.8877
 31
0.0
  0
LINE
  8
0
 62
     0
 10
194.326
 20
15.6876
 30
0.0
 11
209.925
 21
15.6876
 31
0.0
  0
LINE
  8
0
 62
     0
 10
209.925
 20
15.6876
 30
0.0
 11
209.925
 21
2.88837
 31
0.0
  0
LINE
  8
0
 62
     0
 10
209.925
 20
2.88837
 30
0.0
 11
194.326
 21
2.88837
 31
0.0
  0
LINE
  8
0
 62
     0
 10
194.326
 20
2.88837
 30
0.0
 11
194.326
 21
15.6876
 31
0.0
  0
LINE
  8
0
 62
     0
 10
196.707
 20
34.7376
 30
0.0
 11
212.306
 21
34.7376
 31
0.0
  0
LINE
  8
0
 62
     0
 10
212.306
 20
34.7376
 30
0.0
 11
212.306
 21
21.9384
 31
0.0
  0
LINE
  8
0
 62
     0
 10
212.306
 20
21.9384
 30
0.0
 11
196.707
 21
21.9384
 31
0.0
  0
LINE
  8
0
 62
     0
 10
196.707
 20
21.9384
 30
0.0
 11
196.707
 21
34.7376
 31
0.0
  0
LINE
  8
0
 62
     0
 10
201.469
 20
72.8377
 30
0.0
 11
217.069
 21
72.8377
 31
0.0
  0
LINE
  8
0
 62
     0
 10
217.069
 20
72.8377
 30
0.0
 11
217.069
 21
60.0385
 31
0.0
  0
LINE
  8
0
 62
     0
 10
217.069
 20
60.0385
 30
0.0
 11
201.469
 21
60.0385
 31
0.0
  0
LINE
  8
0
 62
     0
 10
201.469
 20
60.0385
 30
0.0
 11
201.469
 21
72.8377
 31
0.0
  0
LINE
  8
0
 62
     0
 10
206.232
 20
53.7877
 30
0.0
 11
221.831
 21
53.7877
 31
0.0
  0
LINE
  8
0
 62
     0
 10
221.831
 20
53.7877
 30
0.0
 11
221.831
 21
40.9885
 31
0.0
  0
LINE
  8
0
 62
     0
 10
221.831
 20
40.9885
 30
0.0
 11
206.232
 21
40.9885
 31
0.0
  0
LINE
  8
0
 62
     0
 10
206.232
 20
40.9885
 30
0.0
 11
206.232
 21
53.7877
 31
0.0
  0
LINE
  8
0
 62
     0
 10
210.994
 20
91.8877
 30
0.0
 11
226.594
 21
91.8877
 31
0.0
  0
LINE
  8
0
 62
     0
 10
226.594
 20
91.8877
 30
0.0
 11
226.594
 21
79.0885
 31
0.0
  0
LINE
  8
0
 62
     0
 10
226.594
 20
79.0885
 30
0.0
 11
210.994
 21
79.0885
 31
0.0
  0
LINE
  8
0
 62
     0
 10
210.994
 20
79.0885
 30
0.0
 11
210.994
 21
91.8877
 31
0.0
  0
LINE
  8
0
 62
     0
 10
215.757
 20
34.7376
 30
0.0
 11
231.356
 21
34.7376
 31
0.0
  0
LINE
  8
0
 62
     0
 10
231.356
 20
34.7376
 30
0.0
 11
231.356
 21
21.9384
 31
0.0
  0
LINE
  8
0
 62
     0
 10
231.356
 20
21.9384
 30
0.0
 11
215.757
 21
21.9384
 31
0.0
  0
LINE
  8
0
 62
     0
 10
215.757
 20
21.9384
 30
0.0
 11
215.757
 21
34.7376
 31
0.0
  0
LINE
  8
0
 62
     0
 10
218.138
 20
15.6876
 30
0.0
 11
233.737
 21
15.6876
 31
0.0
  0
LINE
  8
0
 62
     0
 10
233.737
 20
15.6876
 30
0.0
 11
233.737
 21
2.88837
 31
0.0
  0
LINE
  8
0
 62
     0
 10
233.737
 20
2.88837
 30
0.0
 11
218.138
 21
2.88837
 31
0.0
  0
LINE
  8
0
 62
     0
 10
218.138
 20
2.88837
 30
0.0
 11
218.138
 21
15.6876
 31
0.0
  0
LINE
  8
0
 62
     0
 10
220.519
 20
72.8377
 30
0.0
 11
236.119
 21
72.8377
 31
0.0
  0
LINE
  8
0
 62
     0
 10
236.119
 20
72.8377
 30
0.0
 11
236.119
 21
60.0385
 31
0.0
  0
LINE
  8
0
 62
     0
 10
236.119
 20
60.0385
 30
0.0
 11
220.519
 21
60.0385
 31
0.0
  0
LINE
  8
0
 62
     0
 10
220.519
 20
60.0385
 30
0.0
 11
220.519
 21
72.8377
 31
0.0
  0
LINE
  8
0
 62
     0
 10
225.282
 20
53.7877
 30
0.0
 11
240.881
 21
53.7877
 31
0.0
  0
LINE
  8
0
 62
     0
 10
240.881
 20
53.7877
 30
0.0
 11
240.881
 21
40.9885
 31
0.0
  0
LINE
  8
0
 62
     0
 10
240.881
 20
40.9885
 30
0.0
 11
225.282
 21
40.9885
 31
0.0
  0
LINE
  8
0
 62
     0
 10
225.282
 20
40.9885
 30
0.0
 11
225.282
 21
53.7877
 31
0.0
  0
LINE
  8
0
 62
     0
 10
230.044
 20
91.8877
 30
0.0
 11
245.644
 21
91.8877
 31
0.0
  0
LINE
  8
0
 62
     0
 10
245.644
 20
91.8877
 30
0.0
 11
245.644
 21
79.0885
 31
0.0
  0
LINE
  8
0
 62
     0
 10
245.644
 20
79.0885
 30
0.0
 11
230.044
 21
79.0885
 31
0.0
  0
LINE
  8
0
 62
     0
 10
230.044
 20
79.0885
 30
0.0
 11
230.044
 21
91.8877
 31
0.0
  0
LINE
  8
0
 62
     0
 10
250.438
 20
53.8371
 30
0.0
 11
253.738
 21
53.8371
 31
0.0
  0
LINE
  8
0
 62
     0
 10
253.738
 20
53.8371
 30
0.0
 11
253.738
 21
39.6378
 31
0.0
  0
LINE
  8
0
 62
     0
 10
253.738
 20
39.6378
 30
0.0
 11
250.438
 21
39.6378
 31
0.0
  0
LINE
  8
0
 62
     0
 10
250.438
 20
39.6378
 30
0.0
 11
250.438
 21
53.8371
 31
0.0
  0
LINE
  8
0
 62
     0
 10
239.569
 20
72.8377
 30
0.0
 11
255.169
 21
72.8377
 31
0.0
  0
LINE
  8
0
 62
     0
 10
255.169
 20
72.8377
 30
0.0
 11
255.169
 21
60.0385
 31
0.0
  0
LINE
  8
0
 62
     0
 10
255.169
 20
60.0385
 30
0.0
 11
239.569
 21
60.0385
 31
0.0
  0
LINE
  8
0
 62
     0
 10
239.569
 20
60.0385
 30
0.0
 11
239.569
 21
72.8377
 31
0.0
  0
LINE
  8
0
 62
     0
 10
252.819
 20
91.9371
 30
0.0
 11
256.119
 21
91.9371
 31
0.0
  0
LINE
  8
0
 62
     0
 10
256.119
 20
91.9371
 30
0.0
 11
256.119
 21
77.7378
 31
0.0
  0
LINE
  8
0
 62
     0
 10
256.119
 20
77.7378
 30
0.0
 11
252.819
 21
77.7378
 31
0.0
  0
LINE
  8
0
 62
     0
 10
252.819
 20
77.7378
 30
0.0
 11
252.819
 21
91.9371
 31
0.0
  0
LINE
  8
0
 62
     0
 10
241.949
 20
15.6876
 30
0.0
 11
257.55
 21
15.6876
 31
0.0
  0
LINE
  8
0
 62
     0
 10
257.55
 20
15.6876
 30
0.0
 11
257.55
 21
2.88837
 31
0.0
  0
LINE
  8
0
 62
     0
 10
257.55
 20
2.88837
 30
0.0
 11
241.949
 21
2.88837
 31
0.0
  0
LINE
  8
0
 62
     0
 10
241.949
 20
2.88837
 30
0.0
 11
241.949
 21
15.6876
 31
0.0
  0
LINE
  8
0
 62
     0
 10
241.949
 20
34.7376
 30
0.0
 11
257.55
 21
34.7376
 31
0.0
  0
LINE
  8
0
 62
     0
 10
257.55
 20
34.7376
 30
0.0
 11
257.55
 21
21.9384
 31
0.0
  0
LINE
  8
0
 62
     0
 10
257.55
 20
21.9384
 30
0.0
 11
241.949
 21
21.9384
 31
0.0
  0
LINE
  8
0
 62
     0
 10
241.949
 20
21.9384
 30
0.0
 11
241.949
 21
34.7376
 31
0.0
  0
LINE
  8
0
 62
     0
 10
262.643
 20
66.7879
 30
0.0
 11
262.522
 21
67.5612
 31
0.0
  0
LINE
  8
0
 62
     0
 10
262.522
 20
67.5612
 30
0.0
 11
262.166
 21
68.2569
 31
0.0
  0
LINE
  8
0
 62
     0
 10
262.166
 20
68.2569
 30
0.0
 11
261.612
 21
68.8111
 31
0.0
  0
LINE
  8
0
 62
     0
 10
261.612
 20
68.8111
 30
0.0
 11
260.916
 21
69.1653
 31
0.0
  0
LINE
  8
0
 62
     0
 10
260.916
 20
69.1653
 30
0.0
 11
260.143
 21
69.2877
 31
0.0
  0
LINE
  8
0
 62
     0
 10
260.143
 20
69.2877
 30
0.0
 11
259.37
 21
69.1653
 31
0.0
  0
LINE
  8
0
 62
     0
 10
259.37
 20
69.1653
 30
0.0
 11
258.674
 21
68.8111
 31
0.0
  0
LINE
  8
0
 62
     0
 10
258.674
 20
68.8111
 30
0.0
 11
258.12
 21
68.2569
 31
0.0
  0
LINE
  8
0
 62
     0
 10
258.12
 20
68.2569
 30
0.0
 11
257.766
 21
67.5612
 31
0.0
  0
LINE
  8
0
 62
     0
 10
257.766
 20
67.5612
 30
0.0
 11
257.643
 21
66.7879
 31
0.0
  0
LINE
  8
0
 62
     0
 10
257.643
 20
66.7879
 30
0.0
 11
257.766
 21
66.015
 31
0.0
  0
LINE
  8
0
 62
     0
 10
257.766
 20
66.015
 30
0.0
 11
258.12
 21
65.3189
 31
0.0
  0
LINE
  8
0
 62
     0
 10
258.12
 20
65.3189
 30
0.0
 11
258.674
 21
64.7651
 31
0.0
  0
LINE
  8
0
 62
     0
 10
258.674
 20
64.7651
 30
0.0
 11
259.37
 21
64.4095
 31
0.0
  0
LINE
  8
0
 62
     0
 10
259.37
 20
64.4095
 30
0.0
 11
260.143
 21
64.2881
 31
0.0
  0
LINE
  8
0
 62
     0
 10
260.143
 20
64.2881
 30
0.0
 11
260.916
 21
64.4095
 31
0.0
  0
LINE
  8
0
 62
     0
 10
260.916
 20
64.4095
 30
0.0
 11
261.612
 21
64.7651
 31
0.0
  0
LINE
  8
0
 62
     0
 10
261.612
 20
64.7651
 30
0.0
 11
262.166
 21
65.3189
 31
0.0
  0
LINE
  8
0
 62
     0
 10
262.166
 20
65.3189
 30
0.0
 11
262.522
 21
66.015
 31
0.0
  0
LINE
  8
0
 62
     0
 10
262.522
 20
66.015
 30
0.0
 11
262.643
 21
66.7879
 31
0.0
  0
LINE
  8
0
 62
     0
 10
256.238
 20
53.7877
 30
0.0
 11
271.837
 21
53.7877
 31
0.0
  0
LINE
  8
0
 62
     0
 10
271.837
 20
53.7877
 30
0.0
 11
271.837
 21
40.9885
 31
0.0
  0
LINE
  8
0
 62
     0
 10
271.837
 20
40.9885
 30
0.0
 11
256.238
 21
40.9885
 31
0.0
  0
LINE
  8
0
 62
     0
 10
256.238
 20
40.9885
 30
0.0
 11
256.238
 21
53.7877
 31
0.0
  0
LINE
  8
0
 62
     0
 10
258.619
 20
91.8877
 30
0.0
 11
274.219
 21
91.8877
 31
0.0
  0
LINE
  8
0
 62
     0
 10
274.219
 20
91.8877
 30
0.0
 11
274.219
 21
79.0885
 31
0.0
  0
LINE
  8
0
 62
     0
 10
274.219
 20
79.0885
 30
0.0
 11
258.619
 21
79.0885
 31
0.0
  0
LINE
  8
0
 62
     0
 10
258.619
 20
79.0885
 30
0.0
 11
258.619
 21
91.8877
 31
0.0
  0
LINE
  8
0
 62
     0
 10
274.337
 20
53.8371
 30
0.0
 11
277.638
 21
53.8371
 31
0.0
  0
LINE
  8
0
 62
     0
 10
277.638
 20
53.8371
 30
0.0
 11
277.638
 21
39.6378
 31
0.0
  0
LINE
  8
0
 62
     0
 10
277.638
 20
39.6378
 30
0.0
 11
274.337
 21
39.6378
 31
0.0
  0
LINE
  8
0
 62
     0
 10
274.337
 20
39.6378
 30
0.0
 11
274.337
 21
53.8371
 31
0.0
  0
LINE
  8
0
 62
     0
 10
263.382
 20
72.8377
 30
0.0
 11
278.981
 21
72.8377
 31
0.0
  0
LINE
  8
0
 62
     0
 10
278.981
 20
72.8377
 30
0.0
 11
278.981
 21
60.0385
 31
0.0
  0
LINE
  8
0
 62
     0
 10
278.981
 20
60.0385
 30
0.0
 11
263.382
 21
60.0385
 31
0.0
  0
LINE
  8
0
 62
     0
 10
263.382
 20
60.0385
 30
0.0
 11
263.382
 21
72.8377
 31
0.0
  0
LINE
  8
0
 62
     0
 10
276.718
 20
91.9371
 30
0.0
 11
280.019
 21
91.9371
 31
0.0
  0
LINE
  8
0
 62
     0
 10
280.019
 20
91.9371
 30
0.0
 11
280.019
 21
77.7378
 31
0.0
  0
LINE
  8
0
 62
     0
 10
280.019
 20
77.7378
 30
0.0
 11
276.718
 21
77.7378
 31
0.0
  0
LINE
  8
0
 62
     0
 10
276.718
 20
77.7378
 30
0.0
 11
276.718
 21
91.9371
 31
0.0
  0
LINE
  8
0
 62
     0
 10
265.763
 20
15.6876
 30
0.0
 11
281.362
 21
15.6876
 31
0.0
  0
LINE
  8
0
 62
     0
 10
281.362
 20
15.6876
 30
0.0
 11
281.362
 21
2.88837
 31
0.0
  0
LINE
  8
0
 62
     0
 10
281.362
 20
2.88837
 30
0.0
 11
265.763
 21
2.88837
 31
0.0
  0
LINE
  8
0
 62
     0
 10
265.763
 20
2.88837
 30
0.0
 11
265.763
 21
15.6876
 31
0.0
  0
LINE
  8
0
 62
     0
 10
268.144
 20
34.7376
 30
0.0
 11
283.744
 21
34.7376
 31
0.0
  0
LINE
  8
0
 62
     0
 10
283.744
 20
34.7376
 30
0.0
 11
283.744
 21
21.9384
 31
0.0
  0
LINE
  8
0
 62
     0
 10
283.744
 20
21.9384
 30
0.0
 11
268.144
 21
21.9384
 31
0.0
  0
LINE
  8
0
 62
     0
 10
268.144
 20
21.9384
 30
0.0
 11
268.144
 21
34.7376
 31
0.0
  0
LINE
  8
0
 62
     0
 10
0.0937066
 20
0.0881944
 30
0.0
 11
0.0937066
 21
35.687
 31
0.0
  0
LINE
  8
0
 62
     0
 10
0.0937066
 20
35.687
 30
0.0
 11
3.5953
 21
35.687
 31
0.0
  0
LINE
  8
0
 62
     0
 10
3.5953
 20
35.687
 30
0.0
 11
4.367
 21
35.8098
 31
0.0
  0
LINE
  8
0
 62
     0
 10
4.367
 20
35.8098
 30
0.0
 11
5.0643
 21
36.1654
 31
0.0
  0
LINE
  8
0
 62
     0
 10
5.0643
 20
36.1654
 30
0.0
 11
5.61689
 21
36.7178
 31
0.0
  0
LINE
  8
0
 62
     0
 10
5.61689
 20
36.7178
 30
0.0
 11
5.97242
 21
37.4153
 31
0.0
  0
LINE
  8
0
 62
     0
 10
5.97242
 20
37.4153
 30
0.0
 11
6.09367
 21
38.1868
 31
0.0
  0
LINE
  8
0
 62
     0
 10
6.09367
 20
38.1868
 30
0.0
 11
6.09367
 21
38.1882
 31
0.0
  0
LINE
  8
0
 62
     0
 10
6.09367
 20
38.1882
 30
0.0
 11
5.97242
 21
38.9611
 31
0.0
  0
LINE
  8
0
 62
     0
 10
5.97242
 20
38.9611
 30
0.0
 11
5.61689
 21
39.6572
 31
0.0
  0
LINE
  8
0
 62
     0
 10
5.61689
 20
39.6572
 30
0.0
 11
5.0643
 21
40.211
 31
0.0
  0
LINE
  8
0
 62
     0
 10
5.0643
 20
40.211
 30
0.0
 11
4.367
 21
40.5652
 31
0.0
  0
LINE
  8
0
 62
     0
 10
4.367
 20
40.5652
 30
0.0
 11
3.5953
 21
40.688
 31
0.0
  0
LINE
  8
0
 62
     0
 10
3.5953
 20
40.688
 30
0.0
 11
0.0937066
 21
40.688
 31
0.0
  0
LINE
  8
0
 62
     0
 10
0.0937066
 20
40.688
 30
0.0
 11
0.0937066
 21
94.6877
 31
0.0
  0
LINE
  8
0
 62
     0
 10
0.0937066
 20
94.6877
 30
0.0
 11
285.094
 21
94.6877
 31
0.0
  0
LINE
  8
0
 62
     0
 10
285.094
 20
94.6877
 30
0.0
 11
285.094
 21
40.688
 31
0.0
  0
LINE
  8
0
 62
     0
 10
285.094
 20
40.688
 30
0.0
 11
281.593
 21
40.688
 31
0.0
  0
LINE
  8
0
 62
     0
 10
281.593
 20
40.688
 30
0.0
 11
280.821
 21
40.5652
 31
0.0
  0
LINE
  8
0
 62
     0
 10
280.821
 20
40.5652
 30
0.0
 11
280.124
 21
40.211
 31
0.0
  0
LINE
  8
0
 62
     0
 10
280.124
 20
40.211
 30
0.0
 11
279.571
 21
39.6572
 31
0.0
  0
LINE
  8
0
 62
     0
 10
279.571
 20
39.6572
 30
0.0
 11
279.215
 21
38.9611
 31
0.0
  0
LINE
  8
0
 62
     0
 10
279.215
 20
38.9611
 30
0.0
 11
279.094
 21
38.1882
 31
0.0
  0
LINE
  8
0
 62
     0
 10
279.094
 20
38.1882
 30
0.0
 11
279.094
 21
38.1868
 31
0.0
  0
LINE
  8
0
 62
     0
 10
279.094
 20
38.1868
 30
0.0
 11
279.215
 21
37.4153
 31
0.0
  0
LINE
  8
0
 62
     0
 10
279.215
 20
37.4153
 30
0.0
 11
279.571
 21
36.7178
 31
0.0
  0
LINE
  8
0
 62
     0
 10
279.571
 20
36.7178
 30
0.0
 11
280.124
 21
36.1654
 31
0.0
  0
LINE
  8
0
 62
     0
 10
280.124
 20
36.1654
 30
0.0
 11
280.821
 21
35.8098
 31
0.0
  0
LINE
  8
0
 62
     0
 10
280.821
 20
35.8098
 30
0.0
 11
281.593
 21
35.687
 31
0.0
  0
LINE
  8
0
 62
     0
 10
281.593
 20
35.687
 30
0.0
 11
285.094
 21
35.687
 31
0.0
  0
LINE
  8
0
 62
     0
 10
285.094
 20
35.687
 30
0.0
 11
285.094
 21
0.0881944
 31
0.0
  0
LINE
  8
0
 62
     0
 10
285.094
 20
0.0881944
 30
0.0
 11
0.0937066
 21
0.0881944
 31
0.0
  0
ENDSEC
  0
EOF
