0
SECTION
2
HEADER
9
$INSUNITS
70
4
9
$ACADVER
1
AC1014
9
$HANDSEED
5
FFFF
0
ENDSEC
0
SECTION
2
TABLES
0
TABLE
2
VPORT
5
8
100
AcDbSymbolTable
0
ENDTAB
0
TABLE
2
LTYPE
5
5
100
AcDbSymbolTable
0
LTYPE
5
14
100
AcDbSymbolTableRecord
100
AcDbLinetypeTableRecord
2
BYBLOCK
70
0
0
LTYPE
5
15
100
AcDbSymbolTableRecord
100
AcDbLinetypeTableRecord
2
BYLAYER
70
0
0
ENDTAB
0
TABLE
2
LAYER
5
2
100
AcDbSymbolTable
70
2
0
LAYER
5
50
100
AcDbSymbolTableRecord
100
AcDbLayerTableRecord
2
0
70
0
6
CONTINUOUS
0
ENDTAB
0
TABLE
2
STYLE
5
3
100
AcDbSymbolTable
70
1
0
STYLE
5
11
100
AcDbSymbolTableRecord
100
AcDbTextStyleTableRecord
2
STANDARD
70
0
0
ENDTAB
0
TABLE
2
VIEW
5
6
100
AcDbSymbolTable
70
0
0
ENDTAB
0
TABLE
2
UCS
5
7
100
AcDbSymbolTable
70
0
0
ENDTAB
0
TABLE
2
APPID
5
9
100
AcDbSymbolTable
70
2
0
APPID
5
12
100
AcDbSymbolTableRecord
100
AcDbRegAppTableRecord
2
ACAD
70
0
0
ENDTAB
0
TABLE
2
DIMSTYLE
5
A
100
AcDbSymbolTable
70
1
0
ENDTAB
0
TABLE
2
BLOCK_RECORD
5
1
100
AcDbSymbolTable
70
1
0
BLOCK_RECORD
5
1F
100
AcDbSymbolTableRecord
100
AcDbBlockTableRecord
2
*MODEL_SPACE
0
BLOCK_RECORD
5
1B
100
AcDbSymbolTableRecord
100
AcDbBlockTableRecord
2
*PAPER_SPACE
0
ENDTAB
0
ENDSEC
0
SECTION
2
BLOCKS
0
BLOCK
5
20
100
AcDbEntity
100
AcDbBlockBegin
2
*MODEL_SPACE
0
ENDBLK
5
21
100
AcDbEntity
100
AcDbBlockEnd
0
BLOCK
5
1C
100
AcDbEntity
100
AcDbBlockBegin
2
*PAPER_SPACE
0
ENDBLK
5
1D
100
AcDbEntity
100
AcDbBlockEnd
0
ENDSEC
0
SECTION
2
ENTITIES
0
LWPOLYLINE
5
100
100
AcDbEntity
8
0
100
AcDbPolyline
90
32
70
1
43
0.0
10
163.57722650923751
20
66.367630565925012
42
-0.41421353410480011
10
164.07722646098094
20
66.867630565924671
10
170.22072613451826
20
66.867631158853854
42
0.41421353369585262
10
170.72072608626166
20
67.367631158155362
10
170.72072611249024
20
86.142658315590452
42
-0.41421353369585262
10
171.22072606423362
20
86.64265831489196
10
185.15547395224354
20
86.642659659779895
42
0.41421353866962152
10
185.65547390398694
20
87.142659667572133
10
185.65547364528362
20
103.74267687807557
42
0.414213586076569
10
185.15547359702703
20
104.2426768702833
10
174.79273698764831
20
104.24267587014177
42
-0.41421359064120838
10
174.29273693939169
20
104.74267587014177
10
174.29273693939169
20
125.89889292525424
42
0.41421356237309503
10
173.79273693939169
20
126.39889292525424
10
-54.350774730326172
20
126.39889292525524
42
0.41421356237309503
10
-54.850774730326165
20
125.89889292525524
10
-54.850774730326172
20
105.46764382309568
42
0.41421356237309503
10
-54.350774730326172
20
104.96764382309567
10
-48.207027370824953
20
104.96764382309567
42
-0.41421356237310542
10
-47.70702737082496
20
104.46764382309567
10
-47.707027370824953
20
86.417641427251681
42
0.41421356237309503
10
-47.20702737082496
20
85.917641427251681
10
-41.49126902561639
20
85.917641427251695
42
-0.41421356237310542
10
-40.991269025616376
20
85.417641427251681
10
-40.99126902561639
20
67.36764142328694
42
0.41421356237307422
10
-40.491269025616425
20
66.867641423286955
10
-33.27251980608041
20
66.867641423286571
42
-0.41421356237308721
10
-32.772519806080439
20
66.367641423286571
10
-32.772519806080439
20
49.04264226843744
42
0.41421356237308982
10
-32.272519806080453
20
48.542642268437447
10
163.0772265092258
20
48.542642268437454
42
0.4142135623728973
10
163.5772265092258
20
49.042642268437113
0
LINE
5
101
100
AcDbEntity
8
0
100
AcDbLine
10
-47.343768837861745
20
73.722429121641312
30
0
11
-47.343768837861752
21
79.062431598810349
31
0
0
ARC
5
102
100
AcDbEntity
8
0
100
AcDbCircle
10
-47.043768142752512
20
79.062432061937514
30
0
40
0.30000000000019988
100
AcDbArc
50
89.999874347635469
51
180.00008845111458
0
LINE
5
103
100
AcDbEntity
8
0
100
AcDbLine
10
-47.043767484836323
20
79.3624329518358
30
0
11
-44.243768515996678
21
79.3624329518358
31
0
0
ARC
5
104
100
AcDbEntity
8
0
100
AcDbCircle
10
-44.243768142753055
20
79.062432061937315
30
0
40
0.30000000000019122
100
AcDbArc
50
-8.8451114550197612e-05
51
90.000071284069335
0
LINE
5
105
100
AcDbEntity
8
0
100
AcDbLine
10
-43.94376902561639
20
79.062431598810349
30
0
11
-43.94376902561639
21
73.722429121641312
31
0
0
ARC
5
106
100
AcDbEntity
8
0
100
AcDbCircle
10
-44.243768142752344
20
73.722432061936843
30
0
40
0.29999999999908888
100
AcDbArc
50
269.99992871571897
51
359.9994384434051
0
LINE
5
107
100
AcDbEntity
8
0
100
AcDbLine
10
-44.243768515996678
20
73.422431493906174
30
0
11
-47.043767484836323
21
73.422431493906174
31
0
0
ARC
5
108
100
AcDbEntity
8
0
100
AcDbCircle
10
-47.043768142752683
20
73.72243206193717
30
0
40
0.30000000000002025
100
AcDbArc
50
180
51
270.00012565253144
0
LWPOLYLINE
5
109
100
AcDbEntity
8
0
100
AcDbPolyline
90
8
70
1
43
0.0
10
252.18672512192288
20
50.768766009323144
10
252.18672512192288
20
63.768766009323159
42
0.41421356237309503
10
251.68672512192288
20
64.268766009323159
10
238.6867251219229
20
64.268766009323159
42
0.41421356237309503
10
238.1867251219229
20
63.768766009323166
10
238.1867251219229
20
50.768766009323151
42
0.41421356237309503
10
238.6867251219229
20
50.268766009323151
10
251.68672512192288
20
50.268766009323144
42
0.41421356237309503
0
LWPOLYLINE
5
110
100
AcDbEntity
8
0
100
AcDbPolyline
90
8
70
1
43
0.0
10
219.67362747931867
20
31.29264142328875
10
232.63673476595432
20
31.29264142328875
42
0.41421356237308982
10
233.13673476595432
20
31.792641423288739
10
233.13673476595432
20
44.718766009323154
42
0.41421356237309503
10
232.63673476595432
20
45.218766009323154
10
219.67362747931867
20
45.218766009323154
42
0.41421356237309503
10
219.17362747931864
20
44.718766009323154
10
219.17362747931864
20
31.79264142328875
42
0.41421356237309503
0
LWPOLYLINE
5
111
100
AcDbEntity
8
0
100
AcDbPolyline
90
8
70
1
43
0.0
10
170.72422584909935
20
145.30514275169179
10
157.72422584909941
20
145.30514275169179
42
0.41421356237309503
10
157.22422584909938
20
144.80514275169179
10
157.22422584909938
20
131.80514138823563
42
0.41421356237309503
10
157.72422584909941
20
131.30514138823563
10
170.72422584909935
20
131.30514138823563
42
0.41421356237309503
10
171.22422584909938
20
131.80514138823563
10
171.22422584909938
20
144.80514275169179
42
0.41421356237309503
0
LWPOLYLINE
5
112
100
AcDbEntity
8
0
100
AcDbPolyline
90
8
70
1
43
0.0
10
84.999216839857326
20
145.30514275169179
10
71.99921683985734
20
145.30514275169179
42
0.41421356237310025
10
71.49921683985734
20
144.80514275169179
10
71.49921683985734
20
131.80514138823563
42
0.4142135623730846
10
71.999216839857326
20
131.30514138823563
10
84.999216839857326
20
131.30514138823563
42
0.41421356237309503
10
85.499216839857326
20
131.80514138823563
10
85.499216839857326
20
144.80514275169179
42
0.41421356237309503
0
LWPOLYLINE
5
113
100
AcDbEntity
8
0
100
AcDbPolyline
90
8
70
1
43
0.0
10
-0.72578316014269006
20
145.30514275169179
10
-13.725783160142662
20
145.30514275169179
42
0.41421356237309503
10
-14.225783160142669
20
144.80514275169179
10
-14.225783160142671
20
131.80514138823563
42
0.41421356237310025
10
-13.725783160142662
20
131.30514138823563
10
-0.72578316014269018
20
131.30514138823563
42
0.41421356237309775
10
-0.22578316014268518
20
131.80514138823563
10
-0.22578316014269018
20
144.80514275169179
42
0.41421356237309503
0
LWPOLYLINE
5
114
100
AcDbEntity
8
0
100
AcDbPolyline
90
8
70
1
43
0.0
10
18.324216839857314
20
145.30514275169179
10
5.3242168398573142
20
145.30514275169179
42
0.41421356237309503
10
4.8242168398573151
20
144.80514275169179
10
4.8242168398573142
20
131.80514138823563
42
0.41421356237309503
10
5.3242168398573142
20
131.30514138823563
10
18.324216839857321
20
131.30514138823563
42
0.41421356237309764
10
18.824216839857332
20
131.80514138823563
10
18.824216839857321
20
144.80514275169179
42
0.41421356237310025
0
LWPOLYLINE
5
115
100
AcDbEntity
8
0
100
AcDbPolyline
90
8
70
1
43
0.0
10
104.04921683985734
20
145.30514275169179
10
91.049216839857365
20
145.30514275169179
42
0.41421356237310542
10
90.549216839857337
20
144.80514275169179
10
90.549216839857323
20
131.80514138823563
42
0.41421356237309503
10
91.049216839857337
20
131.30514138823563
10
104.04921683985734
20
131.30514138823563
42
0.41421356237309503
10
104.54921683985734
20
131.80514138823563
10
104.54921683985734
20
144.80514275169179
42
0.41421356237309503
0
LWPOLYLINE
5
116
100
AcDbEntity
8
0
100
AcDbPolyline
90
8
70
1
43
0.0
10
189.77422584909934
20
145.30514275169179
10
176.77422584909937
20
145.30514275169179
42
0.41421356237309503
10
176.27422584909937
20
144.80514275169179
10
176.27422584909937
20
131.80514138823563
42
0.41421356237309503
10
176.77422584909937
20
131.30514138823563
10
189.77422584909934
20
131.30514138823563
42
0.41421356237309503
10
190.27422584909937
20
131.80514138823563
10
190.27422584909937
20
144.80514275169179
42
0.41421356237309503
0
LWPOLYLINE
5
117
100
AcDbEntity
8
0
100
AcDbPolyline
90
8
70
1
43
0.0
10
232.63673476595432
20
145.30514275169179
10
219.63673476595434
20
145.30514275169179
42
0.41421356237309503
10
219.13673476595434
20
144.80514275169179
10
219.13673476595432
20
131.80514138823563
42
0.41421356237309503
10
219.63673476595432
20
131.30514138823563
10
232.63673476595432
20
131.30514138823563
42
0.41421356237309503
10
233.13673476595432
20
131.80514138823563
10
233.13673476595432
20
144.80514275169179
42
0.41421356237309503
0
LWPOLYLINE
5
118
100
AcDbEntity
8
0
100
AcDbPolyline
90
8
70
1
43
0.0
10
195.82422584909935
20
131.30514138823563
10
208.82422551530155
20
131.30514138823563
42
0.41421356237309503
10
209.32422551530155
20
131.80514138823563
10
209.32422551530155
20
144.80514275169179
42
0.41421356237309503
10
208.82422551530155
20
145.30514275169179
10
195.82422584909935
20
145.30514275169179
42
0.41421356237309503
10
195.32422584909935
20
144.80514275169179
10
195.32422584909935
20
131.80514138823563
42
0.41421356237309503
0
LWPOLYLINE
5
119
100
AcDbEntity
8
0
100
AcDbPolyline
90
8
70
1
43
0.0
10
271.23672512192286
20
88.942641789821849
10
271.23672512192286
20
101.94264178982183
42
0.41421356237309503
10
270.73672512192286
20
102.44264178982185
10
257.73672512192286
20
102.44264178982185
42
0.41421356237309503
10
257.23672512192286
20
101.94264178982183
10
257.23672512192286
20
88.942641789821835
42
0.41421356237309503
10
257.73672512192286
20
88.442641789821849
10
270.73672512192286
20
88.442641789821849
42
0.41421356237309503
0
LWPOLYLINE
5
120
100
AcDbEntity
8
0
100
AcDbPolyline
90
8
70
1
43
0.0
10
257.73672512192286
20
107.49264178982186
42
-0.41421356237309503
10
257.23672512192286
20
107.99264178982186
10
257.23672512192286
20
120.99264178982185
42
-0.41421356237309503
10
257.73672512192286
20
121.49264178982186
10
270.73672512192286
20
121.49264178982186
42
-0.41421356237309503
10
271.23672512192292
20
120.99264178982185
10
271.2367251219228
20
107.99264178982186
42
-0.41421356237309503
10
270.7367251219228
20
107.49264178982186
0
LWPOLYLINE
5
121
100
AcDbEntity
8
0
100
AcDbPolyline
90
8
70
1
43
0.0
10
257.73672512192286
20
131.30514138823563
10
270.7367251219228
20
131.30514138823563
42
0.41421356237309503
10
271.23672512192286
20
131.80514138823563
10
271.23672512192286
20
144.80514275169179
42
0.41421356237309503
10
270.73672512192286
20
145.30514275169179
10
257.73672512192286
20
145.30514275169179
42
0.41421356237309503
10
257.23672512192286
20
144.80514275169179
10
257.23672512192286
20
131.80514138823563
42
0.41421356237309503
0
LWPOLYLINE
5
122
100
AcDbEntity
8
0
100
AcDbPolyline
90
8
70
1
43
0.0
10
252.18672512192288
20
131.80514138823563
10
252.18672512192288
20
144.80514275169179
42
0.41421356237307422
10
251.6867251219229
20
145.30514275169179
10
238.68672512192285
20
145.30514275169179
42
0.41421356237309503
10
238.18672512192282
20
144.80514275169179
10
238.18672512192285
20
131.80514138823563
42
0.41421356237309503
10
238.68672512192288
20
131.30514138823563
10
251.68672512192288
20
131.30514138823563
42
0.41421356237309503
0
LWPOLYLINE
5
123
100
AcDbEntity
8
0
100
AcDbPolyline
90
8
70
1
43
0.0
10
232.63673476595437
20
121.49264178982186
10
219.63673476595437
20
121.49264178982186
42
0.41421356237309503
10
219.13673476595434
20
120.99264178982185
10
219.13673476595432
20
107.99264178982186
42
0.41421356237309503
10
219.63673476595432
20
107.49264178982186
10
232.63673476595432
20
107.49264178982186
42
0.41421356237309503
10
233.13673476595432
20
107.99264178982186
10
233.13673476595437
20
120.99264178982185
42
0.41421356237309503
0
LWPOLYLINE
5
124
100
AcDbEntity
8
0
100
AcDbPolyline
90
8
70
1
43
0.0
10
232.63673476595437
20
102.44264178982185
10
219.63673476595437
20
102.44264178982185
42
0.41421356237309503
10
219.13673476595434
20
101.94264178982183
10
219.13673476595432
20
88.942641789821849
42
0.41421356237309503
10
219.63673476595432
20
88.442641789821849
10
232.63673476595432
20
88.442641789821849
42
0.41421356237309503
10
233.13673476595432
20
88.942641789821849
10
233.13673476595437
20
101.94264178982183
42
0.41421356237309503
0
LWPOLYLINE
5
125
100
AcDbEntity
8
0
100
AcDbPolyline
90
8
70
1
43
0.0
10
238.68672512192285
20
107.49264178982186
10
251.68672512192288
20
107.49264178982186
42
0.41421356237309503
10
252.18672512192288
20
107.99264178982186
10
252.18672512192288
20
120.99264178982185
42
0.41421356237309503
10
251.68672512192288
20
121.49264178982186
10
238.68672512192285
20
121.49264178982186
42
0.41421356237309503
10
238.18672512192282
20
120.99264178982185
10
238.18672512192282
20
107.99264178982186
42
0.41421356237309503
0
LWPOLYLINE
5
126
100
AcDbEntity
8
0
100
AcDbPolyline
90
8
70
1
43
0.0
10
270.73673753160995
20
45.218766009323154
10
257.73672512192286
20
45.218766009323154
42
0.41421356237309503
10
257.23672512192286
20
44.718766009323154
10
257.23672512192286
20
31.79264142328875
42
0.41421356237309503
10
257.73672512192286
20
31.29264142328875
10
270.73673753160995
20
31.29264142328875
42
0.41421356237309503
10
271.23673753160995
20
31.79264142328875
10
271.23673753160995
20
44.718766009323154
42
0.41421356237309503
0
LWPOLYLINE
5
127
100
AcDbEntity
8
0
100
AcDbPolyline
90
8
70
1
43
0.0
10
152.17422584909937
20
131.80514138823563
10
152.17422584909937
20
144.80514275169179
42
0.4142135623730846
10
151.6742258490994
20
145.30514275169179
10
138.6742258490994
20
145.30514275169179
42
0.41421356237309503
10
138.17422584909937
20
144.80514275169179
10
138.17422584909937
20
131.80514138823563
42
0.41421356237309503
10
138.6742258490994
20
131.30514138823563
10
151.6742258490994
20
131.30514138823563
42
0.41421356237309503
0
LWPOLYLINE
5
128
100
AcDbEntity
8
0
100
AcDbPolyline
90
8
70
1
43
0.0
10
66.449216839857343
20
131.80514138823563
10
66.449216839857343
20
144.80514275169179
42
0.41421356237310025
10
65.949216839857343
20
145.30514275169179
10
52.949216839857336
20
145.30514275169179
42
0.41421356237308982
10
52.449216839857336
20
144.80514275169179
10
52.449216839857343
20
131.80514138823563
42
0.41421356237309503
10
52.949216839857343
20
131.30514138823563
10
65.949216839857343
20
131.30514138823563
42
0.41421356237309503
0
LWPOLYLINE
5
129
100
AcDbEntity
8
0
100
AcDbPolyline
90
8
70
1
43
0.0
10
-19.275783160142687
20
131.80514138823563
10
-19.275783160142687
20
144.80514275169179
42
0.41421356237309503
10
-19.775783160142684
20
145.30514275169179
10
-32.775783160143135
20
145.30514275169179
42
0.41421356237309503
10
-33.275783160143128
20
144.80514275169179
10
-33.275783160143092
20
131.80514138823563
42
0.41421356237308982
10
-32.775783160143099
20
131.30514138823563
10
-19.775783160142701
20
131.30514138823563
42
0.41421356237310281
0
LWPOLYLINE
5
130
100
AcDbEntity
8
0
100
AcDbPolyline
90
8
70
1
43
0.0
10
37.874216839857311
20
131.80514138823563
10
37.874216839857311
20
144.80514275169179
42
0.41421356237308982
10
37.374216839857326
20
145.30514275169179
10
24.374216839857318
20
145.30514275169179
42
0.41421356237310025
10
23.874216839857315
20
144.80514275169179
10
23.874216839857318
20
131.80514138823563
42
0.41421356237310025
10
24.374216839857326
20
131.30514138823563
10
37.374216839857333
20
131.30514138823563
42
0.4142135623730846
0
LWPOLYLINE
5
131
100
AcDbEntity
8
0
100
AcDbPolyline
90
8
70
1
43
0.0
10
110.09921683985735
20
131.30514138823563
10
123.09922127146268
20
131.30514138823563
42
0.41421356237309503
10
123.5992212714627
20
131.80514138823563
10
123.5992212714627
20
144.80514275169179
42
0.41421356237309503
10
123.09922127146268
20
145.30514275169179
10
110.09921683985738
20
145.30514275169179
42
0.41421356237310542
10
109.59921683985735
20
144.80514275169179
10
109.59921683985733
20
131.80514138823563
42
0.41421356237309503
0
LWPOLYLINE
5
132
100
AcDbEntity
8
0
100
AcDbPolyline
90
8
70
1
43
0.0
10
238.18672512192285
20
101.94264178982183
10
238.18672512192285
20
88.942641789821835
42
0.41421356237309503
10
238.68672512192288
20
88.442641789821849
10
251.68672512192288
20
88.442641789821849
42
0.41421356237309503
10
252.18672512192288
20
88.942641789821849
10
252.18672512192288
20
101.94264178982183
42
0.41421356237309503
10
251.68672512192288
20
102.44264178982185
10
238.68672512192288
20
102.44264178982185
42
0.41421356237309503
0
LWPOLYLINE
5
133
100
AcDbEntity
8
0
100
AcDbPolyline
90
8
70
1
43
0.0
10
238.1867251219229
20
44.718766009323154
10
238.1867251219229
20
31.79264142328875
42
0.41421356237309503
10
238.6867251219229
20
31.29264142328875
10
251.68672512192288
20
31.29264142328875
42
0.41421356237310025
10
252.18672512192288
20
31.792641423288757
10
252.18672512192288
20
44.718766009323154
42
0.41421356237309503
10
251.68672512192288
20
45.218766009323154
10
238.6867251219229
20
45.218766009323154
42
0.41421356237309503
0
LWPOLYLINE
5
134
100
AcDbEntity
8
0
100
AcDbPolyline
90
8
70
1
43
0.0
10
-57.375783160142689
20
131.80514138823563
10
-57.375783160142689
20
144.80514275169179
42
0.41421356237309503
10
-57.875783160142703
20
145.30514275169179
10
-70.875783160142703
20
145.30514275169179
42
0.41421356237309503
10
-71.375783160142689
20
144.80514275169179
10
-71.375783160142689
20
131.80514138823563
42
0.41421356237309503
10
-70.875783160142703
20
131.30514138823563
10
-57.875783160142724
20
131.30514138823563
42
0.41421356237311585
0
LWPOLYLINE
5
135
100
AcDbEntity
8
0
100
AcDbPolyline
90
8
70
1
43
0.0
10
196.91797266621134
20
83.392641354707848
10
183.91797266621137
20
83.392641354708147
42
0.41421356237309503
10
183.41797266621137
20
82.892641354708147
10
183.41797266621137
20
69.89264341702858
42
0.41421356237309503
10
183.91797266621137
20
69.39264341702858
10
196.91797266621134
20
69.39264341702858
42
0.41421356237309503
10
197.41797266621134
20
69.89264341702858
10
197.41797266621134
20
82.892641354707848
42
0.41421356237309503
0
LINE
5
136
100
AcDbEntity
8
0
100
AcDbLine
10
129.7242318572535
20
46.792645240930753
30
0
11
129.72423185725356
21
45.792644787793684
31
0
0
ARC
5
137
100
AcDbEntity
8
0
100
AcDbCircle
10
130.22423185725356
20
45.792644787793684
30
0
40
0.50000000000000711
100
AcDbArc
50
180
51
269.99994807429482
0
LINE
5
138
100
AcDbEntity
8
0
100
AcDbLine
10
130.2242314041163
20
45.292644787793883
30
0
11
135.00547733923167
21
45.292640454672757
31
0
0
ARC
5
139
100
AcDbEntity
8
0
100
AcDbCircle
10
135.00547733922329
20
44.792642278579997
30
0
40
0.49999817609277492
100
AcDbArc
50
0.00022334790386376426
51
89.999999999039218
0
LINE
5
140
100
AcDbEntity
8
0
100
AcDbLine
10
135.50547258276481
20
44.792644066719305
30
0
11
135.50547258276481
21
31.792640234139252
31
0
0
ARC
5
141
100
AcDbEntity
8
0
100
AcDbCircle
10
135.0054773392317
20
31.792640454672227
30
0
40
0.49999817609240438
100
AcDbArc
50
270
51
359.99997474503499
0
LINE
5
142
100
AcDbEntity
8
0
100
AcDbLine
10
135.0054773392317
20
31.292642278579823
30
0
11
122.00547733922932
21
31.292641169930938
31
0
0
ARC
5
143
100
AcDbEntity
8
0
100
AcDbCircle
10
122.00547623057352
20
31.792642278583138
30
0
40
0.50000110865342595
100
AcDbArc
50
179.99982583226875
51
270.0001270423142
0
LINE
5
144
100
AcDbEntity
8
0
100
AcDbLine
10
121.50547401327658
20
31.792643798486793
30
0
11
121.50547512192253
21
44.792645283570934
31
0
0
ARC
5
145
100
AcDbEntity
8
0
100
AcDbCircle
10
122.00547512192253
20
44.792645240930717
30
0
40
0.49999999999999822
100
AcDbArc
50
90
51
179.99999517032694
0
LINE
5
146
100
AcDbEntity
8
0
100
AcDbLine
10
122.00547512192253
20
45.292645240930717
30
0
11
122.0242366017773
21
45.292645240930717
31
0
0
ARC
5
147
100
AcDbEntity
8
0
100
AcDbCircle
10
122.02423660177729
20
45.792645240930753
30
0
40
0.50000000000003375
100
AcDbArc
50
270.00000000000159
51
360
0
LINE
5
148
100
AcDbEntity
8
0
100
AcDbLine
10
122.52423660177733
20
45.792645240930725
30
0
11
122.52423660177729
21
46.79264524093071
31
0
0
ARC
5
149
100
AcDbEntity
8
0
100
AcDbCircle
10
123.0242366017773
20
46.792645240930717
30
0
40
0.49999999999999822
100
AcDbArc
50
90
51
180
0
LINE
5
150
100
AcDbEntity
8
0
100
AcDbLine
10
123.0242366017773
20
47.292645240930717
30
0
11
129.2242318572535
21
47.292645240930725
31
0
0
ARC
5
151
100
AcDbEntity
8
0
100
AcDbCircle
10
129.2242318572535
20
46.792645240930725
30
0
40
0.50000000000000711
100
AcDbArc
50
0
51
90
0
LWPOLYLINE
5
152
100
AcDbEntity
8
0
100
AcDbPolyline
90
8
70
1
43
0.0
10
-37.031519806080439
20
48.84264131894507
10
-37.031519806080439
20
63.842641466621515
42
0.41421355292459944
10
-37.531519789950842
20
64.342641466621515
10
-43.531518126623027
20
64.342641660176582
42
0.4142135718215933
10
-44.031518142752759
20
63.842641660176589
10
-44.031518142752617
20
48.842641318945084
42
0.41421356237309503
10
-43.531518142752617
20
48.342641318945127
10
-37.531519806080439
20
48.34264131894507
42
0.41421356237309503
0
ARC
5
153
100
AcDbEntity
8
0
100
AcDbCircle
10
-66.113273769426812
20
101.94264227858383
30
0
40
0.50000110865380842
100
AcDbArc
50
89.99987078228969
51
179.99979509610364
0
LINE
5
154
100
AcDbEntity
8
0
100
AcDbLine
10
-66.113272641787063
20
102.44264338723637
30
0
11
-53.11327266077118
21
102.44264338723637
31
0
0
ARC
5
155
100
AcDbEntity
8
0
100
AcDbCircle
10
-53.113272660790152
20
101.9426452111436
30
0
40
0.49999817609280806
100
AcDbArc
50
-0.00013113974322590316
51
89.999999997826023
0
LINE
5
156
100
AcDbEntity
8
0
100
AcDbLine
10
-52.61327448469865
20
101.9426440667376
30
0
11
-52.613274852745278
21
88.942642803100753
31
0
0
ARC
5
157
100
AcDbEntity
8
0
100
AcDbCircle
10
-53.113272660771159
20
88.942639346023427
30
0
40
0.49999817609233332
100
AcDbArc
50
-90.000000000001634
51
0.00039615281188666547
0
LINE
5
158
100
AcDbEntity
8
0
100
AcDbLine
10
-53.113272660771173
20
88.442641169931093
30
0
11
-66.113272660770548
21
88.442641169931093
31
0
0
ARC
5
159
100
AcDbEntity
8
0
100
AcDbCircle
10
-66.113273769426328
20
88.942642278583278
30
0
40
0.50000110865341707
100
AcDbArc
50
179.99982583226875
51
270.00012704231256
0
LINE
5
160
100
AcDbEntity
8
0
100
AcDbLine
10
-66.613274878077434
20
88.942643798486841
30
0
11
-66.613274878077419
21
101.94264406671921
31
0
0
ARC
5
161
100
AcDbEntity
8
0
100
AcDbCircle
10
167.24922597727317
20
31.792642278583891
30
0
40
0.50000085535312966
100
AcDbArc
50
179.99982583226875
51
270.00087186792604
0
LINE
5
162
100
AcDbEntity
8
0
100
AcDbLine
10
166.74922899622459
20
31.792640234140549
30
0
11
166.74922899622459
21
44.792644227666855
31
0
0
ARC
5
163
100
AcDbEntity
8
0
100
AcDbCircle
10
167.24922576865652
20
44.792642278585362
30
0
40
0.50000064673734745
100
AcDbArc
50
89.999104221753896
51
179.9997950943249
0
LINE
5
164
100
AcDbEntity
8
0
100
AcDbLine
10
167.24923358580651
20
45.292642925261603
30
0
11
182.63048012871275
21
45.292642925261632
31
0
0
ARC
5
165
100
AcDbEntity
8
0
100
AcDbCircle
10
182.63047754784242
20
44.792645211107676
30
0
40
0.49999771416064437
100
AcDbArc
50
-0.00013113696398088918
51
89.999704252693192
0
LINE
5
166
100
AcDbEntity
8
0
100
AcDbLine
10
183.13047782797361
20
44.792644227656801
30
0
11
183.13047782797361
21
31.792640234135998
31
0
0
ARC
5
167
100
AcDbEntity
8
0
100
AcDbCircle
10
182.63047733924506
20
31.792639346057353
30
0
40
0.49999792277648125
100
AcDbArc
50
-89.999680350647509
51
0.00010176752659760443
0
LINE
5
168
100
AcDbEntity
8
0
100
AcDbLine
10
182.63048426524463
20
31.292639220861588
30
0
11
167.24923746003353
21
31.292639220861588
31
0
0
ARC
5
169
100
AcDbEntity
8
0
100
AcDbCircle
10
-20.869524231342989
20
44.792642278585397
30
0
40
0.50000064673732081
100
AcDbArc
50
89.999104221755104
51
179.99979509610364
0
LINE
5
170
100
AcDbEntity
8
0
100
AcDbLine
10
-20.869516414193008
20
45.29264292526161
30
0
11
-5.4882698712869171
21
45.292642925261632
31
0
0
ARC
5
171
100
AcDbEntity
8
0
100
AcDbCircle
10
-5.4882724521571857
20
44.792645211107647
30
0
40
0.49999771416063554
100
AcDbArc
50
-0.00011269488726632141
51
89.999704252700212
0
LINE
5
172
100
AcDbEntity
8
0
100
AcDbLine
10
-4.988274737997517
20
44.792644227663729
30
0
11
-4.9882747379788306
21
31.792640234142844
31
0
0
ARC
5
173
100
AcDbEntity
8
0
100
AcDbCircle
10
-5.4882726607544896
20
31.792639346057335
30
0
40
0.49999792277645472
100
AcDbArc
50
-89.999680349235035
51
0.00010176752659760443
0
LINE
5
174
100
AcDbEntity
8
0
100
AcDbLine
10
-5.488269871286926
20
31.292641423288661
30
0
11
-20.869516414196827
21
31.292641423288671
31
0
0
ARC
5
175
100
AcDbEntity
8
0
100
AcDbCircle
10
-20.869524022726278
20
31.792642278583937
30
0
40
0.5000008553531563
100
AcDbArc
50
180.00023427648418
51
270.00087187176018
0
LINE
5
176
100
AcDbEntity
8
0
100
AcDbLine
10
-21.369523095898369
20
31.792643798498229
30
0
11
-21.369524878077112
21
44.792644066711532
31
0
0
ARC
5
177
100
AcDbEntity
8
0
100
AcDbCircle
10
-68.494523769426436
20
44.792642278583763
30
0
40
0.50000110865378378
100
AcDbArc
50
89.999872957625499
51
179.99979509610364
0
LINE
5
178
100
AcDbEntity
8
0
100
AcDbLine
10
-68.494522660770116
20
45.292643387236318
30
0
11
-53.113272660770861
21
45.292643387236353
31
0
0
ARC
5
179
100
AcDbEntity
8
0
100
AcDbCircle
10
-53.113272660789789
20
44.792645211143586
30
0
40
0.49999817609276365
100
AcDbArc
50
-0.00013113974322590316
51
89.999999997830912
0
LINE
5
180
100
AcDbEntity
8
0
100
AcDbLine
10
-52.613274484698337
20
44.792644066737608
30
0
11
-52.613274852745278
21
31.792640234140549
31
0
0
ARC
5
181
100
AcDbEntity
8
0
100
AcDbCircle
10
-53.113272660770861
20
31.792639346023307
30
0
40
0.49999817609235586
100
AcDbArc
50
-90.000047129852248
51
0.00010177110788054319
0
LINE
5
182
100
AcDbEntity
8
0
100
AcDbLine
10
-53.113273072054909
20
31.292641169931123
30
0
11
-68.494522660770116
21
31.29264116993096
31
0
0
ARC
5
183
100
AcDbEntity
8
0
100
AcDbCircle
10
-68.494523769425896
20
31.792642278583152
30
0
40
0.50000110865341263
100
AcDbArc
50
180.00023427492849
51
270.00012704231256
0
LINE
5
184
100
AcDbEntity
8
0
100
AcDbLine
10
-68.994525081478102
20
31.792643798498226
30
0
11
-68.994524878077016
21
44.792644066711546
31
0
0
ARC
5
185
100
AcDbEntity
8
0
100
AcDbCircle
10
-44.682024231342901
20
44.792612278585409
30
0
40
0.50000064673730238
100
AcDbArc
50
89.99910422625571
51
179.99979509610364
0
LINE
5
186
100
AcDbEntity
8
0
100
AcDbLine
10
-44.68201725467825
20
45.29261543860833
30
0
11
-29.300770449462217
21
45.29261543860833
31
0
0
ARC
5
187
100
AcDbEntity
8
0
100
AcDbCircle
10
-29.300772452157172
20
44.792615211107652
30
0
40
0.49999771416062661
100
AcDbArc
50
-0.00013113696398088918
51
89.999704254189737
0
LINE
5
188
100
AcDbEntity
8
0
100
AcDbLine
10
-28.800774737997855
20
44.792614066726983
30
0
11
-28.800774737979218
21
31.792610431818176
31
0
0
ARC
5
189
100
AcDbEntity
8
0
100
AcDbCircle
10
-29.300772660754486
20
31.792609346057322
30
0
40
0.49999792277645028
100
AcDbArc
50
-89.999680349236044
51
0.00012441975123253404
0
LINE
5
190
100
AcDbEntity
8
0
100
AcDbLine
10
-29.300769871286931
20
31.292611423288651
30
0
11
-44.682017254643185
21
31.292611423276576
31
0
0
ARC
5
191
100
AcDbEntity
8
0
100
AcDbCircle
10
-44.682024022726154
20
31.792612278583935
30
0
40
0.50000085535316419
100
AcDbArc
50
180.00021162222677
51
270.0007755638523
0
LINE
5
192
100
AcDbEntity
8
0
100
AcDbLine
10
-45.182025718502743
20
31.792613798498213
30
0
11
-45.182024878077016
21
44.792614066711536
31
0
0
ARC
5
193
100
AcDbEntity
8
0
100
AcDbCircle
10
-68.494523769427232
20
82.892642278583963
30
0
40
0.50000110865379621
100
AcDbArc
50
89.999874154105797
51
179.99972269568659
0
LINE
5
194
100
AcDbEntity
8
0
100
AcDbLine
10
-68.494522671212195
20
83.392643387236546
30
0
11
-50.731241478609235
21
83.392642463364524
31
0
0
ARC
5
195
100
AcDbEntity
8
0
100
AcDbCircle
10
-50.73220266077081
20
82.892642278579984
30
0
40
0.50000110865449088
100
AcDbArc
50
0
51
89.889856813979804
0
LINE
5
196
100
AcDbEntity
8
0
100
AcDbLine
10
-50.232201552116322
20
82.89264227857997
30
0
11
-50.232201552123179
21
69.892642278579956
31
0
0
ARC
5
197
100
AcDbEntity
8
0
100
AcDbCircle
10
-50.732202660770838
20
69.892642278579956
30
0
40
0.50000110864764724
100
AcDbArc
50
-89.918435488105061
51
0
0
LINE
5
198
100
AcDbEntity
8
0
100
AcDbLine
10
-50.731490874790339
20
69.392641676570733
30
0
11
-68.494522671215279
21
69.39264341702858
31
0
0
ARC
5
199
100
AcDbEntity
8
0
100
AcDbCircle
10
-68.494523769426721
20
69.892642278583338
30
0
40
0.50000110865340086
100
AcDbArc
50
179.99975343229951
51
270.0001258460473
0
LINE
5
200
100
AcDbEntity
8
0
100
AcDbLine
10
-68.994524878075495
20
69.892644430297196
30
0
11
-68.994524878075168
21
82.892644698525956
31
0
0
ARC
5
201
100
AcDbEntity
8
0
100
AcDbCircle
10
191.06172623057353
20
31.792642278583156
30
0
40
0.50000110865344372
100
AcDbArc
50
179.99982583226875
51
269.99987978890198
0
LINE
5
202
100
AcDbEntity
8
0
100
AcDbLine
10
190.56173161882901
20
31.792640234140549
30
0
11
190.56173161882901
21
44.792644227677066
31
0
0
ARC
5
203
100
AcDbEntity
8
0
100
AcDbCircle
10
191.06172623057304
20
44.79264227858372
30
0
40
0.50000110865382819
100
AcDbArc
50
89.999872957627119
51
179.99979509254624
0
LINE
5
204
100
AcDbEntity
8
0
100
AcDbLine
10
191.06172733922935
20
45.292643387236318
30
0
11
206.44297198673829
21
45.292645240930717
31
0
0
ARC
5
205
100
AcDbEntity
8
0
100
AcDbCircle
10
206.4429773392099
20
44.792645211143586
30
0
40
0.49999817609275488
100
AcDbArc
50
-0.00013113974322590316
51
89.999999997850452
0
LINE
5
206
100
AcDbEntity
8
0
100
AcDbLine
10
206.94296554941673
20
44.792644227632152
30
0
11
206.94296554941673
21
31.792640234158252
31
0
0
ARC
5
207
100
AcDbEntity
8
0
100
AcDbCircle
10
206.44297733922869
20
31.7926393460233
30
0
40
0.4999981760923955
100
AcDbArc
50
-89.999999999996746
51
0.00010177110788054319
0
LINE
5
208
100
AcDbEntity
8
0
100
AcDbLine
10
206.44297198673928
20
31.292639220861588
30
0
11
191.06172518152729
21
31.292639220861588
31
0
0
ARC
5
209
100
AcDbEntity
8
0
100
AcDbCircle
10
158.81797754784228
20
44.79264521110764
30
0
40
0.49999771416067995
100
AcDbArc
50
-0.00013113696398088918
51
89.999530765068428
0
LINE
5
210
100
AcDbEntity
8
0
100
AcDbLine
10
159.31797526200165
20
44.792644066719134
30
0
11
159.3179752620207
21
31.792640234142809
31
0
0
ARC
5
211
100
AcDbEntity
8
0
100
AcDbCircle
10
158.81797733924503
20
31.792639346057292
30
0
40
0.49999792277644589
100
AcDbArc
50
-89.999506863854052
51
0.00010176752659760443
0
LINE
5
212
100
AcDbEntity
8
0
100
AcDbLine
10
158.81798164267082
20
31.292639220861588
30
0
11
143.43673358580264
21
31.292641423288636
31
0
0
ARC
5
213
100
AcDbEntity
8
0
100
AcDbCircle
10
143.43672597727317
20
31.792642278583884
30
0
40
0.5000008553531341
100
AcDbArc
50
180.00023427648418
51
270.00087187176263
0
LINE
5
214
100
AcDbEntity
8
0
100
AcDbLine
10
142.93672637362019
20
31.792643798498204
30
0
11
142.93672512192239
21
44.79264406671912
31
0
0
ARC
5
215
100
AcDbEntity
8
0
100
AcDbCircle
10
143.43672576865657
20
44.792642278585355
30
0
40
0.50000064673738298
100
AcDbArc
50
89.99910422175715
51
179.99979509610364
0
LINE
5
216
100
AcDbEntity
8
0
100
AcDbLine
10
143.43673358580654
20
45.292642925261632
30
0
11
158.81798164267082
21
45.292642925251556
31
0
0
ARC
5
217
100
AcDbEntity
8
0
100
AcDbCircle
10
-70.875774022726446
20
107.99264227858401
30
0
40
0.50000085535312899
100
AcDbArc
50
179.99991291508809
51
270.00087187043545
0
LINE
5
218
100
AcDbEntity
8
0
100
AcDbLine
10
-71.375774878079
20
107.99264303854454
30
0
11
-71.375774878079426
21
120.99264330675993
31
0
0
ARC
5
219
100
AcDbEntity
8
0
100
AcDbCircle
10
-70.875774231343115
20
120.99264227858546
30
0
40
0.50000064673737388
100
AcDbArc
50
89.999104223732431
51
179.99988218233025
0
LINE
5
220
100
AcDbEntity
8
0
100
AcDbLine
10
-70.875766414217708
20
121.49264245739374
30
0
11
-57.87576987128709
21
121.49264245739374
31
0
0
ARC
5
221
100
AcDbEntity
8
0
100
AcDbCircle
10
-57.875772452157371
20
120.99264521110776
30
0
40
0.49999771416066097
100
AcDbArc
50
-0.00021822227257733162
51
89.999704252422873
0
LINE
5
222
100
AcDbEntity
8
0
100
AcDbLine
10
-57.375774738000338
20
120.99264330676786
30
0
11
-57.375774737991833
21
107.99264303853958
31
0
0
ARC
5
223
100
AcDbEntity
8
0
100
AcDbCircle
10
-57.875772660754677
20
107.99263934605746
30
0
40
0.49999792277649469
100
AcDbArc
50
-89.999680348849708
51
0.0004231290476407916
0
LINE
5
224
100
AcDbEntity
8
0
100
AcDbLine
10
-57.875769871283751
20
107.49264142328875
30
0
11
-70.875766414217708
21
107.49264202526008
31
0
0
LINE
5
225
100
AcDbEntity
8
0
100
AcDbLine
10
204.06173018831751
20
88.442641789821792
30
0
11
191.06172518152729
21
88.442641789821792
31
0
0
ARC
5
226
100
AcDbEntity
8
0
100
AcDbCircle
10
191.06172733922406
20
88.942642531880182
30
0
40
0.49999974669993485
100
AcDbArc
50
180.00002902830397
51
269.99975274653303
0
LINE
5
227
100
AcDbEntity
8
0
100
AcDbLine
10
190.56173161882901
20
88.942642803102927
30
0
11
190.56173161882901
21
101.9426430713319
31
0
0
ARC
5
228
100
AcDbEntity
8
0
100
AcDbCircle
10
191.06172623057333
20
101.9426422785838
30
0
40
0.50000110865389036
100
AcDbArc
50
89.999872957630373
51
179.99979509254624
0
LINE
5
229
100
AcDbEntity
8
0
100
AcDbLine
10
191.06172733922961
20
102.44264338723646
30
0
11
204.06173662560616
21
102.44264338715128
31
0
0
ARC
5
230
100
AcDbEntity
8
0
100
AcDbCircle
10
204.06172733922887
20
101.94264338723627
30
0
40
0.50000000000127176
100
AcDbArc
50
-0.00012703738731177254
51
89.998935859548354
0
LINE
5
231
100
AcDbEntity
8
0
100
AcDbLine
10
204.56173018831748
20
101.94264307132343
30
0
11
204.56173018831748
21
88.942641789821806
31
0
0
ARC
5
232
100
AcDbEntity
8
0
100
AcDbCircle
10
204.06173018831751
20
88.942641789821806
30
0
40
0.50000000000000711
100
AcDbArc
50
-90
51
0
0
LWPOLYLINE
5
233
100
AcDbEntity
8
0
100
AcDbPolyline
90
8
70
1
43
0.0
10
-67.407519742647878
20
48.342641318945113
10
-61.407519806079748
20
48.342641318945105
42
0.41421356237309503
10
-60.907519806079755
20
48.842641318945113
10
-60.907519806079755
20
63.842642236841904
42
0.41421355292459683
10
-61.407519789950157
20
64.342642236841897
10
-67.407519726518288
20
64.342642430397035
42
0.4142135718215933
10
-67.907519742647878
20
63.842642430397028
10
-67.907519742647878
20
48.842641318945113
42
0.41421356237309503
0
LINE
5
234
100
AcDbEntity
8
0
100
AcDbLine
10
103.50603185724731
20
31.337642069963643
30
0
11
103.50603185724731
21
46.792645240930717
31
0
0
ARC
5
235
100
AcDbEntity
8
0
100
AcDbCircle
10
104.00603185724734
20
46.792645240930696
30
0
40
0.50000000000002487
100
AcDbArc
50
90.000000000001634
51
180
0
LINE
5
236
100
AcDbEntity
8
0
100
AcDbLine
10
104.00603185724732
20
47.292645240930717
30
0
11
110.20603185724704
21
47.292645240930725
31
0
0
ARC
5
237
100
AcDbEntity
8
0
100
AcDbCircle
10
110.20603185724703
20
46.792645240930703
30
0
40
0.50000000000002487
100
AcDbArc
50
0
51
89.99999999999838
0
LINE
5
238
100
AcDbEntity
8
0
100
AcDbLine
10
110.70603185724705
20
46.792645240930717
30
0
11
110.70603185724704
21
31.337642069963394
31
0
0
ARC
5
239
100
AcDbEntity
8
0
100
AcDbCircle
10
110.20603185724707
20
31.337642069963373
30
0
40
0.49999999999997158
100
AcDbArc
50
-90.000000000004889
51
0
0
LINE
5
240
100
AcDbEntity
8
0
100
AcDbLine
10
110.20602778812638
20
30.837640060094991
30
0
11
104.0060271443798
21
30.837640060094991
31
0
0
ARC
5
241
100
AcDbEntity
8
0
100
AcDbCircle
10
104.00603185724735
20
31.337642069963628
30
0
40
0.50000000000004263
100
AcDbArc
50
180
51
269.999459947329
0
LINE
5
242
100
AcDbEntity
8
0
100
AcDbLine
10
15.392481857247109
20
46.792645240930717
30
0
11
15.392481857247109
21
31.337642069963398
31
0
0
ARC
5
243
100
AcDbEntity
8
0
100
AcDbCircle
10
14.892481857247109
20
31.337642069963394
30
0
40
0.49999999999999822
100
AcDbArc
50
-89.999999999998778
51
0
0
LINE
5
244
100
AcDbEntity
8
0
100
AcDbLine
10
14.892478746374486
20
30.837640060094991
30
0
11
3.9299850286787974
21
30.837640060094991
31
0
0
ARC
5
245
100
AcDbEntity
8
0
100
AcDbCircle
10
3.9299818572473662
20
31.337642069963625
30
0
40
0.49999999999999878
100
AcDbArc
50
180
51
270.00000000000074
0
LINE
5
246
100
AcDbEntity
8
0
100
AcDbLine
10
3.429981857247367
20
31.337642069963628
30
0
11
3.429981857247375
21
46.792645240930717
31
0
0
ARC
5
247
100
AcDbEntity
8
0
100
AcDbCircle
10
3.9299818572473697
20
46.792645240930717
30
0
40
0.49999999999999822
100
AcDbArc
50
90.000000000000099
51
180
0
LINE
5
248
100
AcDbEntity
8
0
100
AcDbLine
10
3.9299818572473688
20
47.292645240930717
30
0
11
14.89248185724712
21
47.292645240930717
31
0
0
ARC
5
249
100
AcDbEntity
8
0
100
AcDbCircle
10
14.892481857247116
20
46.792645240930717
30
0
40
0.49999999999999378
100
AcDbArc
50
0
51
89.999999999999588
0
LINE
5
250
100
AcDbEntity
8
0
100
AcDbLine
10
75.974230927415149
20
44.792642920406472
30
0
11
75.974230927415149
21
31.792640234161354
31
0
0
ARC
5
251
100
AcDbEntity
8
0
100
AcDbCircle
10
75.474225515320697
20
31.792642278574206
30
0
40
0.50000136452356225
100
AcDbArc
50
270.08161200923013
51
359.99976572973873
0
LINE
5
252
100
AcDbEntity
8
0
100
AcDbLine
10
75.474937719292882
20
31.292639220861588
30
0
11
50.568034213967579
21
31.292639220861588
31
0
0
ARC
5
253
100
AcDbEntity
8
0
100
AcDbCircle
10
50.568025977273045
20
31.792642278583916
30
0
40
0.50000085535315186
100
AcDbArc
50
180.00023427492849
51
270.0009438498966
0
LINE
5
254
100
AcDbEntity
8
0
100
AcDbLine
10
50.068025750108191
20
31.792640234146017
30
0
11
50.068025121922261
21
44.792642901100606
31
0
0
ARC
5
255
100
AcDbEntity
8
0
100
AcDbCircle
10
50.568025121922268
20
44.792642925261603
30
0
40
0.49999999999999822
100
AcDbArc
50
89.99999998883132
51
180.00000269986933
0
LINE
5
256
100
AcDbEntity
8
0
100
AcDbLine
10
50.568025122019733
20
45.292643235525212
30
0
11
75.474230927512622
21
45.292643451330441
31
0
0
ARC
5
257
100
AcDbEntity
8
0
100
AcDbCircle
10
75.474230927415149
20
44.792642920406472
30
0
40
0.49999999999999822
100
AcDbArc
50
0
51
89.99999998883051
0
LWPOLYLINE
5
258
100
AcDbEntity
8
0
100
AcDbPolyline
90
8
70
1
43
0.0
10
-59.469517259179511
20
63.842642174323522
10
-59.469517678548982
20
50.842641460226183
42
0.41421359921770756
10
-58.969517631780889
20
50.342641444096586
10
-45.969524027550563
20
50.342642660066382
42
0.41421356237309503
10
-45.469524074318656
20
50.842642706834475
10
-45.469525290288956
20
63.842641785592811
42
0.41421352552848345
10
-45.969525274159359
20
64.342641738824724
10
-58.969517243049914
20
64.342642158193925
42
0.41421356237309503
0
LWPOLYLINE
5
259
100
AcDbEntity
8
0
100
AcDbPolyline
90
128
70
1
43
0.0
10
218.73048185724755
20
147.10514125487023
42
-0.41421356237310542
10
219.73048185724758
20
148.10514125487023
10
245.69629596574481
20
148.1051416765718
42
0.22169466264275181
10
247.22838485198182
20
148.81956645719765
10
250.41070711226217
20
152.61211088181875
42
-0.22181916402521037
10
252.32700509443916
20
153.5051416765728
10
252.70406695608642
20
153.5051416765728
42
-0.41421356237308982
10
253.70406695608642
20
152.5051416765728
10
253.70406695608642
20
150.70514167657308
42
1.0000006539558002
10
257.10406695608719
20
150.70514167660255
10
257.10406695608697
20
152.5051416765719
42
-0.41421356237338119
10
258.10406695608691
20
153.5051416765728
10
258.48231547637448
20
153.5051416765728
42
-0.22169466264316212
10
260.39742658417333
20
152.61211070078761
10
263.57974906018524
20
148.81956645720086
42
0.22169466264290158
10
265.11183794642233
20
148.10514167657271
10
272.03672532457864
20
148.1051412548702
42
-0.41421356237311846
10
274.0367253245787
20
146.10514125487023
10
274.0367253245787
20
30.492643977312266
42
-0.4142135623730937
10
272.0367253245787
20
28.492643977312269
10
265.11183794642227
20
28.492643555609799
42
0.22169466264289822
10
263.57974906018524
20
27.778218774981642
10
260.39742658417333
20
23.985674531394899
42
-0.22169466264316864
10
258.48231547637442
20
23.09264355560968
10
258.10406695608691
20
23.092643555609715
42
-0.41421356237334994
10
257.10406695608697
20
24.0926435556106
10
257.10406695608719
20
25.892643555579955
42
1.0000006539558002
10
253.70406695608642
20
25.892643555609425
10
253.70406695608642
20
24.092643555609694
42
-0.41421356237309503
10
252.70406695608642
20
23.092643555609698
10
252.32700509443919
20
23.092643555609691
42
-0.22181916402519675
10
250.41070711226214
20
23.985674350363748
10
247.22838485198182
20
27.778218774984826
42
0.22169466264275495
10
245.69629596574481
20
28.492643555610684
10
167.15683794642229
20
28.492643555609799
42
0.22169466264288823
10
165.62474906018525
20
27.778218774981642
10
162.44242658417332
20
23.985674531394899
42
-0.22169466264316864
10
160.52731547637444
20
23.09264355560968
10
160.14906695608693
20
23.092643555609715
42
-0.41421356237334994
10
159.14906695608695
20
24.0926435556106
10
159.14906695608715
20
25.892643555579955
42
1.0000006539558002
10
155.74906695608641
20
25.892643555609425
10
155.74906695608641
20
24.092643555609694
42
-0.41421356237309503
10
154.74906695608641
20
23.092643555609698
10
154.37200509443915
20
23.092643555609701
42
-0.22181916402519372
10
152.45570711226213
20
23.985674350363748
10
149.2733848519818
20
27.778218774984826
42
0.22169466264275495
10
147.7412959657448
20
28.492643555610684
10
69.156837946422286
20
28.492643555609799
42
0.22169466264289775
10
67.624749060185238
20
27.778218774981642
10
64.44242658417329
20
23.985674531394885
42
-0.2216946626431642
10
62.527315476374412
20
23.09264355560968
10
62.149066956086891
20
23.092643555609698
42
-0.41421356237334739
10
61.149066956086941
20
24.0926435556106
10
61.149066956087132
20
25.892643555579955
42
1.0000006539558002
10
57.749066956086388
20
25.892643555609425
10
57.749066956086388
20
24.092643555609694
42
-0.41421356237309503
10
56.749066956086395
20
23.092643555609698
10
56.372005094439139
20
23.092643555609705
42
-0.22181916402519394
10
54.455707112262132
20
23.985674350363748
10
51.273384851981795
20
27.778218774984836
42
0.2216946626427525
10
49.741295965744769
20
28.492643555610684
10
-45.835162053577733
20
28.492643555609799
42
0.22169466264289775
10
-47.367250939814781
20
27.778218774981642
10
-50.549573415826728
20
23.985674531394885
42
-0.2216946626431642
10
-52.464684523625607
20
23.09264355560968
10
-52.842933043913128
20
23.092643555609698
42
-0.41421356237334739
10
-53.842933043913078
20
24.0926435556106
10
-53.842933043912886
20
25.892643555579955
42
1.0000006539558002
10
-57.242933043913631
20
25.892643555609425
10
-57.242933043913631
20
24.092643555609694
42
-0.41421356237309503
10
-58.242933043913624
20
23.092643555609698
10
-58.61999490556088
20
23.092643555609705
42
-0.22181916402519394
10
-60.536292887737886
20
23.985674350363748
10
-63.718615148018223
20
27.778218774984836
42
0.2216946626427525
10
-65.25070403425525
20
28.492643555610684
10
-72.175783160142714
20
28.492643977312287
42
-0.41421356237309048
10
-74.1757831601427
20
30.492643977312266
10
-74.1757831601427
20
146.10514125487023
42
-0.41421356237309503
10
-72.1757831601427
20
148.10514125487023
10
-65.25070403425525
20
148.1051416765718
42
0.22169466264275298
10
-63.718615148018223
20
148.81956645719765
10
-60.536292887737908
20
152.61211088181875
42
-0.22181916402519627
10
-58.61999490556088
20
153.5051416765728
10
-58.242933043913624
20
153.5051416765728
42
-0.41421356237309503
10
-57.242933043913631
20
152.5051416765728
10
-57.242933043913631
20
150.70514167657308
42
1.0000006539558002
10
-53.842933043912886
20
150.70514167660255
10
-53.842933043913092
20
152.5051416765719
42
-0.41421356237334994
10
-52.842933043913128
20
153.5051416765728
10
-52.4646845236256
20
153.5051416765728
42
-0.22169466264316443
10
-50.549573415826728
20
152.61211070078761
10
-47.367250939814781
20
148.81956645720086
42
0.22169466264289775
10
-45.835162053577733
20
148.10514167657271
10
49.741295965744769
20
148.1051416765718
42
0.22169466264275298
10
51.273384851981795
20
148.81956645719765
10
54.455707112262111
20
152.61211088181875
42
-0.22181916402519627
10
56.372005094439139
20
153.5051416765728
10
56.749066956086395
20
153.5051416765728
42
-0.41421356237309503
10
57.749066956086388
20
152.5051416765728
10
57.749066956086388
20
150.70514167657308
42
1.0000006539558002
10
61.149066956087132
20
150.70514167660255
10
61.149066956086926
20
152.5051416765719
42
-0.41421356237334994
10
62.149066956086891
20
153.5051416765728
10
62.527315476374419
20
153.5051416765728
42
-0.22169466264316443
10
64.44242658417329
20
152.61211070078761
10
67.624749060185238
20
148.81956645720086
42
0.22169466264289775
10
69.156837946422286
20
148.10514167657271
10
147.7412959657448
20
148.1051416765718
42
0.22169466264275181
10
149.2733848519818
20
148.81956645719765
10
152.45570711226213
20
152.61211088181875
42
-0.22181916402520852
10
154.37200509443915
20
153.5051416765728
10
154.74906695608641
20
153.5051416765728
42
-0.41421356237309503
10
155.74906695608641
20
152.5051416765728
10
155.74906695608641
20
150.70514167657308
42
1.0000006539558002
10
159.14906695608715
20
150.70514167660255
10
159.14906695608695
20
152.5051416765719
42
-0.41421356237334994
10
160.1490669560869
20
153.5051416765728
10
160.5273154763745
20
153.50514167657278
42
-0.22169466264315629
10
162.44242658417332
20
152.61211070078761
10
165.62474906018522
20
148.81956645720086
42
0.22169466264290158
10
167.15683794642231
20
148.10514167657271
10
208.73048185724755
20
148.1051412548702
42
-0.41421356237310542
10
209.73048185724758
20
147.10514125487023
10
209.73048185724758
20
145.90514185836722
42
0.41421356237309503
10
210.73048185724758
20
144.90514185836724
10
217.73048185724753
20
144.90514185836724
42
0.41421356237309503
10
218.73048185724755
20
145.90514185836722
0
LWPOLYLINE
5
260
100
AcDbEntity
8
0
100
AcDbPolyline
90
8
70
1
43
0.0
10
192.65548310894513
20
50.842643181590233
10
192.65548310894513
20
63.84264267495076
42
0.41421356237309503
10
192.15548310894513
20
64.342642674950753
10
179.15548310894513
20
64.342642674950767
42
0.41421356237309503
10
178.65548310894513
20
63.842642674950767
10
178.65548310894513
20
50.842643181590248
42
0.41421356237309503
10
179.15548310894513
20
50.342643181590248
10
192.15548310894513
20
50.34264318159024
42
0.41421356237309503
0
LWPOLYLINE
5
261
100
AcDbEntity
8
0
100
AcDbPolyline
90
8
70
1
43
0.0
10
199.29923185724661
20
121.48967320336361
10
186.29923185724664
20
121.48967320336361
42
0.41421356237309503
10
185.79923185724664
20
120.98967320336359
10
185.79923185724664
20
107.99264202525274
42
0.41421356237149254
10
186.29923185724391
20
107.49264202525274
10
199.29923185724388
20
107.49264202518135
42
0.41421356237469747
10
199.79923185724661
20
107.99264202518137
10
199.79923185724661
20
120.98967320336359
42
0.41421356237309503
0
LWPOLYLINE
5
262
100
AcDbEntity
8
0
100
AcDbPolyline
90
8
70
1
43
0.0
10
201.2372318572466
20
120.98967320336359
10
201.2372318572466
20
105.98967320336362
42
0.41421356237309503
10
201.73723185724663
20
105.48967320336361
10
207.73723185724663
20
105.48967320336361
42
0.41421356237309503
10
208.2372318572466
20
105.98967320336362
10
208.2372318572466
20
120.98967320336359
42
0.41421356237309503
10
207.7372318572466
20
121.48967320336361
10
201.73723185724663
20
121.48967320336361
42
0.41421356237309503
0
LWPOLYLINE
5
263
100
AcDbEntity
8
0
100
AcDbPolyline
90
8
70
1
43
0.0
10
177.86123185724662
20
105.48967320336361
10
183.86123185724665
20
105.48967320336361
42
0.41421356237309503
10
184.36123185724665
20
105.98967320336362
10
184.36123185724665
20
120.98967320336359
42
0.41421356237309503
10
183.86123185724665
20
121.48967320336361
10
177.86123185724665
20
121.48967320336361
42
0.41421356237309503
10
177.36123185724665
20
120.98967320336359
10
177.36123185724662
20
105.98967320336362
42
0.41421356237309503
0
LWPOLYLINE
5
264
100
AcDbEntity
8
0
100
AcDbPolyline
90
8
70
1
43
0.0
10
194.09348310894512
20
63.842642674950802
10
194.09348310894512
20
48.842642674950795
42
0.41421356237309503
10
194.59348310894512
20
48.342642674950795
10
200.59348310894509
20
48.342642674950788
42
0.41421356237309503
10
201.09348310894512
20
48.842642674950781
10
201.09348310894512
20
63.842642674950795
42
0.41421356237309503
10
200.59348310894509
20
64.342642674950795
10
194.59348310894512
20
64.342642674950795
42
0.41421356237309503
0
LWPOLYLINE
5
265
100
AcDbEntity
8
0
100
AcDbPolyline
90
8
70
1
43
0.0
10
170.71748310894517
20
48.342642674950739
10
176.71748310894515
20
48.342642674950739
42
0.41421356237309503
10
177.21748310894515
20
48.842642674950795
10
177.21748310894515
20
63.842642674950739
42
0.41421356237309503
10
176.71748310894515
20
64.342642674950739
10
170.71748310894517
20
64.342642674950724
42
0.41421356237309503
10
170.21748310894515
20
63.842642674950731
10
170.21748310894515
20
48.842642674950795
42
0.41421356237309503
0
LWPOLYLINE
5
266
100
AcDbEntity
8
0
100
AcDbPolyline
90
8
70
1
43
0.0
10
181.97997266621138
20
69.89264341702858
10
181.97997266621138
20
84.89264341702858
42
0.41421356237309503
10
181.47997266621138
20
85.392643417028594
10
175.47997266621138
20
85.392643417028594
42
0.41421356237309503
10
174.97997266621138
20
84.89264341702858
10
174.97997266621138
20
69.89264341702858
42
0.41421356237309503
10
175.47997266621138
20
69.39264341702858
10
181.47997266621135
20
69.39264341702858
42
0.41421356237309503
0
LWPOLYLINE
5
267
100
AcDbEntity
8
0
100
AcDbPolyline
90
8
70
1
43
0.0
10
205.3559726662113
20
85.392643417028594
10
199.35597266621136
20
85.392643417028594
42
0.41421356237309503
10
198.85597266621133
20
84.89264341702858
10
198.85597266621133
20
69.89264341702858
42
0.41421356237309503
10
199.35597266621133
20
69.39264341702858
10
205.3559726662113
20
69.39264341702858
42
0.41421356237309503
10
205.85597266621133
20
69.89264341702858
10
205.85597266621133
20
84.89264341702858
42
0.41421356237309503
0
ENDSEC
0
SECTION
2
OBJECTS
0
DICTIONARY
5
C
100
AcDbDictionary
3
ACAD_GROUP
350
D
3
ACAD_MLINESTYLE
350
17
0
DICTIONARY
5
D
100
AcDbDictionary
0
DICTIONARY
5
1A
330
C
100
AcDbDictionary
0
DICTIONARY
5
17
100
AcDbDictionary
0
ENDSEC
0
EOF
