0
SECTION
2
HEADER
9
$INSUNITS
70
4
9
$ACADVER
1
AC1014
9
$HANDSEED
5
FFFF
0
ENDSEC
0
SECTION
2
TABLES
0
TABLE
2
VPORT
5
8
100
AcDbSymbolTable
0
ENDTAB
0
TABLE
2
LTYPE
5
5
100
AcDbSymbolTable
0
LTYPE
5
14
100
AcDbSymbolTableRecord
100
AcDbLinetypeTableRecord
2
BYBLOCK
70
0
0
LTYPE
5
15
100
AcDbSymbolTableRecord
100
AcDbLinetypeTableRecord
2
BYLAYER
70
0
0
ENDTAB
0
TABLE
2
LAYER
5
2
100
AcDbSymbolTable
70
2
0
LAYER
5
50
100
AcDbSymbolTableRecord
100
AcDbLayerTableRecord
2
0
70
0
6
CONTINUOUS
0
ENDTAB
0
TABLE
2
STYLE
5
3
100
AcDbSymbolTable
70
1
0
STYLE
5
11
100
AcDbSymbolTableRecord
100
AcDbTextStyleTableRecord
2
STANDARD
70
0
0
ENDTAB
0
TABLE
2
VIEW
5
6
100
AcDbSymbolTable
70
0
0
ENDTAB
0
TABLE
2
UCS
5
7
100
AcDbSymbolTable
70
0
0
ENDTAB
0
TABLE
2
APPID
5
9
100
AcDbSymbolTable
70
2
0
APPID
5
12
100
AcDbSymbolTableRecord
100
AcDbRegAppTableRecord
2
ACAD
70
0
0
ENDTAB
0
TABLE
2
DIMSTYLE
5
A
100
AcDbSymbolTable
70
1
0
ENDTAB
0
TABLE
2
BLOCK_RECORD
5
1
100
AcDbSymbolTable
70
1
0
BLOCK_RECORD
5
1F
100
AcDbSymbolTableRecord
100
AcDbBlockTableRecord
2
*MODEL_SPACE
0
BLOCK_RECORD
5
1B
100
AcDbSymbolTableRecord
100
AcDbBlockTableRecord
2
*PAPER_SPACE
0
ENDTAB
0
ENDSEC
0
SECTION
2
BLOCKS
0
BLOCK
5
20
100
AcDbEntity
100
AcDbBlockBegin
2
*MODEL_SPACE
0
ENDBLK
5
21
100
AcDbEntity
100
AcDbBlockEnd
0
BLOCK
5
1C
100
AcDbEntity
100
AcDbBlockBegin
2
*PAPER_SPACE
0
ENDBLK
5
1D
100
AcDbEntity
100
AcDbBlockEnd
0
ENDSEC
0
SECTION
2
ENTITIES
0
LINE
5
100
100
AcDbEntity
8
0
100
AcDbLine
10
133.4117253245785
20
69.892644430307541
30
0
11
133.4117253245785
21
82.892644698528443
31
0
0
LINE
5
101
100
AcDbEntity
8
0
100
AcDbLine
10
147.41172389406699
20
69.892644430307541
30
0
11
147.41172389406699
21
82.892644698528443
31
0
0
LINE
5
102
100
AcDbEntity
8
0
100
AcDbLine
10
133.911733788438
20
69.39264341702858
30
0
11
146.9117303313686
21
69.39264341702858
31
0
0
ARC
5
103
100
AcDbEntity
8
0
100
AcDbCircle
10
133.91172623057329
20
69.892642278583324
30
0
40
0.50000110865344372
100
AcDbArc
50
179.99982583226875
51
270.00012704231096
0
LINE
5
104
100
AcDbEntity
8
0
100
AcDbLine
10
124.38673273939631
20
64.342639888433609
30
0
11
137.38672928232691
21
64.342639888433609
31
0
0
ARC
5
105
100
AcDbEntity
8
0
100
AcDbCircle
10
152.9617262305735
20
69.892642278583324
30
0
40
0.50000110865344372
100
AcDbArc
50
179.99982583226875
51
270.0001270423142
0
LINE
5
106
100
AcDbEntity
8
0
100
AcDbLine
10
104.83672217745321
20
50.842642332224052
30
0
11
104.83672217745321
21
63.842646325735259
31
0
0
ARC
5
107
100
AcDbEntity
8
0
100
AcDbCircle
10
191.0617262305735
20
31.792642278583145
30
0
40
0.50000110865344372
100
AcDbArc
50
179.99982583226875
51
270.0001270423142
0
ARC
5
108
100
AcDbEntity
8
0
100
AcDbCircle
10
108.8117273392289
20
69.892639346023472
30
0
40
0.49999817609235109
100
AcDbArc
50
-90
51
0.00051021958843493914
0
LINE
5
109
100
AcDbEntity
8
0
100
AcDbLine
10
114.86173169035452
20
69.39264341702858
30
0
11
127.86172823328512
21
69.39264341702858
31
0
0
LINE
5
110
100
AcDbEntity
8
0
100
AcDbLine
10
128.3617217959835
20
69.892644430307541
30
0
11
128.3617217959835
21
82.892644698528443
31
0
0
LINE
5
111
100
AcDbEntity
8
0
100
AcDbLine
10
191.06172518152732
20
31.292639220861588
30
0
11
206.44297198671842
21
31.292639220861588
31
0
0
LINE
5
112
100
AcDbEntity
8
0
100
AcDbLine
10
129.14923326391721
20
88.442641789821778
30
0
11
142.14922980684781
21
88.442641789821778
31
0
0
ARC
5
113
100
AcDbEntity
8
0
100
AcDbCircle
10
182.63047733924503
20
31.792639346057321
30
0
40
0.49999792277645028
100
AcDbArc
50
-89.999680349237281
51
0.00051021601677674077
0
ARC
5
114
100
AcDbEntity
8
0
100
AcDbCircle
10
137.38672754784241
20
63.842645211107651
30
0
40
0.49999771416064442
100
AcDbArc
50
-0.00013113696398088918
51
89.999704252702969
0
ARC
5
115
100
AcDbEntity
8
0
100
AcDbCircle
10
127.86172733922922
20
69.892639346023472
30
0
40
0.49999817609235109
100
AcDbArc
50
-90
51
0.00051021958843493914
0
ARC
5
116
100
AcDbEntity
8
0
100
AcDbCircle
10
118.3367275478422
20
63.842645211107651
30
0
40
0.49999771416064442
100
AcDbArc
50
-0.00013113696398088918
51
89.999704252699715
0
ARC
5
117
100
AcDbEntity
8
0
100
AcDbCircle
10
152.96172623057291
20
82.892642278583935
30
0
40
0.5000011086538193
100
AcDbArc
50
89.999872957623865
51
179.99979509610364
0
LINE
5
118
100
AcDbEntity
8
0
100
AcDbLine
10
147.69922689814109
20
88.942642803100739
30
0
11
147.69922689814109
21
101.9426430713216
31
0
0
ARC
5
119
100
AcDbEntity
8
0
100
AcDbCircle
10
156.43672754784259
20
63.842645211107651
30
0
40
0.49999771416066219
100
AcDbArc
50
-0.00013113696398088918
51
89.999704252693192
0
LINE
5
120
100
AcDbEntity
8
0
100
AcDbLine
10
137.8867228450253
20
50.842642332224052
30
0
11
137.8867228450253
21
63.842646325735259
31
0
0
LINE
5
121
100
AcDbEntity
8
0
100
AcDbLine
10
152.96172098536033
20
83.392641986517106
30
0
11
165.9617324294521
21
83.392641986517106
31
0
0
LINE
5
122
100
AcDbEntity
8
0
100
AcDbLine
10
114.361723226495
20
69.892644430307541
30
0
11
114.361723226495
21
82.892644698528443
31
0
0
LINE
5
123
100
AcDbEntity
8
0
100
AcDbLine
10
148.19923536200071
20
88.442641789821778
30
0
11
161.19923190493131
21
88.442641789821778
31
0
0
LINE
5
124
100
AcDbEntity
8
0
100
AcDbLine
10
105.33673064131278
20
64.342639888433609
30
0
11
118.33672718424341
21
64.342639888433609
31
0
0
ARC
5
125
100
AcDbEntity
8
0
100
AcDbCircle
10
105.33672576865652
20
63.842642278585402
30
0
40
0.50000064673732969
100
AcDbArc
50
89.999104221755516
51
179.99979509610364
0
ARC
5
126
100
AcDbEntity
8
0
100
AcDbCircle
10
137.38672733924511
20
50.842639346057304
30
0
40
0.49999792277644139
100
AcDbArc
50
-89.999680349237281
51
0.00051021601677674077
0
LINE
5
127
100
AcDbEntity
8
0
100
AcDbLine
10
152.96172098536033
20
69.39264341702858
30
0
11
165.9617324294521
21
69.39264341702858
31
0
0
LINE
5
128
100
AcDbEntity
8
0
100
AcDbLine
10
129.14923326391721
20
102.44264408460052
30
0
11
142.14922980684781
21
102.44264408460052
31
0
0
ARC
5
129
100
AcDbEntity
8
0
100
AcDbCircle
10
143.43672576865691
20
63.842642278585402
30
0
40
0.50000064673734745
100
AcDbArc
50
89.999104221753896
51
179.99979509610364
0
LINE
5
130
100
AcDbEntity
8
0
100
AcDbLine
10
123.88672427553672
20
50.842642332224052
30
0
11
123.88672427553672
21
63.842646325735259
31
0
0
LINE
5
131
100
AcDbEntity
8
0
100
AcDbLine
10
143.43673483747983
20
64.342639888433609
30
0
11
156.43673138041041
21
64.342639888433609
31
0
0
ARC
5
132
100
AcDbEntity
8
0
100
AcDbCircle
10
105.3367259772732
20
50.842642278583909
30
0
40
0.50000085535314742
100
AcDbArc
50
179.99982583226875
51
270.00087187176263
0
LINE
5
133
100
AcDbEntity
8
0
100
AcDbLine
10
109.3117196979
20
69.892644430307541
30
0
11
109.3117196979
21
82.892644698528443
31
0
0
ARC
5
134
100
AcDbEntity
8
0
100
AcDbCircle
10
124.38672576865662
20
63.842642278585402
30
0
40
0.50000064673733857
100
AcDbArc
50
89.999104221755516
51
179.99979509610364
0
LINE
5
135
100
AcDbEntity
8
0
100
AcDbLine
10
143.43673483747983
20
50.342641318945098
30
0
11
156.43673138041041
21
50.342641318945098
31
0
0
LINE
5
136
100
AcDbEntity
8
0
100
AcDbLine
10
156.93672494310869
20
50.842642332224052
30
0
11
156.93672494310869
21
63.842646325735259
31
0
0
LINE
5
137
100
AcDbEntity
8
0
100
AcDbLine
10
148.19923536200071
20
102.44264408460052
30
0
11
161.19923190493131
21
102.44264408460052
31
0
0
ARC
5
138
100
AcDbEntity
8
0
100
AcDbCircle
10
206.44297733922872
20
31.792639346023286
30
0
40
0.49999817609237773
100
AcDbArc
50
-90
51
0.00051021958843493914
0
ARC
5
139
100
AcDbEntity
8
0
100
AcDbCircle
10
158.8179775478423
20
44.792645211107633
30
0
40
0.49999771416066219
100
AcDbArc
50
-0.00013113696398088918
51
89.999704252696446
0
LINE
5
140
100
AcDbEntity
8
0
100
AcDbLine
10
123.59922127146261
20
88.942642803100739
30
0
11
123.59922127146261
21
101.9426430713216
31
0
0
ARC
5
141
100
AcDbEntity
8
0
100
AcDbCircle
10
143.43672597727351
20
50.842642278583909
30
0
40
0.50000085535314742
100
AcDbArc
50
179.99982583226875
51
270.00087187176263
0
LINE
5
142
100
AcDbEntity
8
0
100
AcDbLine
10
105.33673064131278
20
50.342641318945098
30
0
11
118.33672718424341
21
50.342641318945098
31
0
0
ARC
5
143
100
AcDbEntity
8
0
100
AcDbCircle
10
206.44297733920982
20
44.792645211143579
30
0
40
0.49999817609275488
100
AcDbArc
50
-0.00013113974322590316
51
89.999999997837435
0
ARC
5
144
100
AcDbEntity
8
0
100
AcDbCircle
10
124.3867259772733
20
50.842642278583909
30
0
40
0.50000085535316519
100
AcDbArc
50
179.99982583226875
51
270.00087187175939
0
ARC
5
145
100
AcDbEntity
8
0
100
AcDbCircle
10
129.14922576865649
20
101.94264227858551
30
0
40
0.50000064673732081
100
AcDbArc
50
89.999104221753896
51
179.99979509610364
0
ARC
5
146
100
AcDbEntity
8
0
100
AcDbCircle
10
114.86172623057399
20
69.892642278583324
30
0
40
0.50000110865340819
100
AcDbArc
50
179.99982583226875
51
270.00012704231256
0
LINE
5
147
100
AcDbEntity
8
0
100
AcDbLine
10
143.43673483747983
20
45.292645240930717
30
0
11
158.81798164267082
21
45.292645240930717
31
0
0
LINE
5
148
100
AcDbEntity
8
0
100
AcDbLine
10
124.38673273939631
20
50.342641318945098
30
0
11
137.38672928232691
21
50.342641318945098
31
0
0
ARC
5
149
100
AcDbEntity
8
0
100
AcDbCircle
10
146.91172733922841
20
69.892639346023472
30
0
40
0.49999817609235109
100
AcDbArc
50
-90
51
0.00051021958843493914
0
LINE
5
150
100
AcDbEntity
8
0
100
AcDbLine
10
118.83672074694181
20
50.842642332224052
30
0
11
118.83672074694181
21
63.842646325735259
31
0
0
ARC
5
151
100
AcDbEntity
8
0
100
AcDbCircle
10
156.43672733924532
20
50.842639346057332
30
0
40
0.49999792277645028
100
AcDbArc
50
-89.999680349234026
51
0.00051021601677674077
0
LINE
5
152
100
AcDbEntity
8
0
100
AcDbLine
10
166.74922899622459
20
88.942642803100739
30
0
11
166.74922899622459
21
101.9426430713216
31
0
0
ARC
5
153
100
AcDbEntity
8
0
100
AcDbCircle
10
133.9117262305727
20
82.892642278583935
30
0
40
0.5000011086538193
100
AcDbArc
50
89.999872957623865
51
179.99979509610364
0
ARC
5
154
100
AcDbEntity
8
0
100
AcDbCircle
10
165.96172733920963
20
82.892645211143744
30
0
40
0.4999981760927904
100
AcDbArc
50
-0.00013113974322590316
51
89.999999997827658
0
ARC
5
155
100
AcDbEntity
8
0
100
AcDbCircle
10
110.09922623057329
20
88.942642278583293
30
0
40
0.50000110865342595
100
AcDbArc
50
179.99982583226875
51
270.00012704231256
0
LINE
5
156
100
AcDbEntity
8
0
100
AcDbLine
10
114.86173169035452
20
83.392641986517106
30
0
11
127.86172823328512
21
83.392641986517106
31
0
0
ARC
5
157
100
AcDbEntity
8
0
100
AcDbCircle
10
129.1492259772732
20
88.94264227858406
30
0
40
0.50000085535312966
100
AcDbArc
50
179.99982583226875
51
270.00087187176263
0
LINE
5
158
100
AcDbEntity
8
0
100
AcDbLine
10
138.6742343129589
20
107.49264202526008
30
0
11
151.6742308558895
21
107.49264202526008
31
0
0
LINE
5
159
100
AcDbEntity
8
0
100
AcDbLine
10
166.46172599215049
20
69.892644430307541
30
0
11
166.46172599215049
21
82.892644698528443
31
0
0
LINE
5
160
100
AcDbEntity
8
0
100
AcDbLine
10
109.5992227019741
20
88.942642803100739
30
0
11
109.5992227019741
21
101.9426430713216
31
0
0
ARC
5
161
100
AcDbEntity
8
0
100
AcDbCircle
10
123.09922733922841
20
88.942639346023441
30
0
40
0.49999817609235109
100
AcDbArc
50
-90
51
0.00051021958843493914
0
LINE
5
162
100
AcDbEntity
8
0
100
AcDbLine
10
161.69922546762959
20
88.942642803100739
30
0
11
161.69922546762959
21
101.9426430713216
31
0
0
ARC
5
163
100
AcDbEntity
8
0
100
AcDbCircle
10
123.09922733920951
20
101.9426452111436
30
0
40
0.49999817609277264
100
AcDbArc
50
-0.00013113974322590316
51
89.999999997829292
0
ARC
5
164
100
AcDbEntity
8
0
100
AcDbCircle
10
191.06172623057302
20
44.792642278583727
30
0
40
0.5000011086538193
100
AcDbArc
50
89.999872957630373
51
179.99979509610364
0
LINE
5
165
100
AcDbEntity
8
0
100
AcDbLine
10
119.62423221487541
20
107.49264202526008
30
0
11
132.62422875780601
21
107.49264202526008
31
0
0
ARC
5
166
100
AcDbEntity
8
0
100
AcDbCircle
10
148.19922576865659
20
101.94264227858551
30
0
40
0.50000064673732081
100
AcDbArc
50
89.999104221753896
51
179.99979509610364
0
ARC
5
167
100
AcDbEntity
8
0
100
AcDbCircle
10
146.91172733920939
20
82.892645211143744
30
0
40
0.4999981760927904
100
AcDbArc
50
-0.00013113974322590316
51
89.999999997827658
0
ARC
5
168
100
AcDbEntity
8
0
100
AcDbCircle
10
161.19922733924508
20
88.942639346057476
30
0
40
0.49999792277645916
100
AcDbArc
50
-89.999680349234026
51
0.00051021601677674077
0
ARC
5
169
100
AcDbEntity
8
0
100
AcDbCircle
10
114.8617262305735
20
82.892642278583935
30
0
40
0.5000011086538193
100
AcDbArc
50
89.999872957625499
51
179.99979509610364
0
ARC
5
170
100
AcDbEntity
8
0
100
AcDbCircle
10
110.0992262305728
20
101.9426422785838
30
0
40
0.5000011086538193
100
AcDbArc
50
89.999872957628753
51
179.99979509610364
0
LINE
5
171
100
AcDbEntity
8
0
100
AcDbLine
10
128.6492248000576
20
88.942642803100739
30
0
11
128.6492248000576
21
101.9426430713216
31
0
0
ARC
5
172
100
AcDbEntity
8
0
100
AcDbCircle
10
104.04922733922909
20
88.942639346023441
30
0
40
0.49999817609235109
100
AcDbArc
50
-90
51
0.00051021958843493914
0
ARC
5
173
100
AcDbEntity
8
0
100
AcDbCircle
10
142.1492275478422
20
101.94264521110773
30
0
40
0.49999771416064442
100
AcDbArc
50
-0.00013113696398088918
51
89.999704252699715
0
ARC
5
174
100
AcDbEntity
8
0
100
AcDbCircle
10
182.63047754784236
20
44.792645211107633
30
0
40
0.49999771416064442
100
AcDbArc
50
-0.00013113696398088918
51
89.999704252696446
0
LINE
5
175
100
AcDbEntity
8
0
100
AcDbLine
10
191.06172518152732
20
45.292645240930717
30
0
11
206.44297198671842
21
45.292645240930717
31
0
0
LINE
5
176
100
AcDbEntity
8
0
100
AcDbLine
10
167.24923746008412
20
88.442641789821778
30
0
11
180.24923400301486
21
88.442641789821778
31
0
0
LINE
5
177
100
AcDbEntity
8
0
100
AcDbLine
10
110.09923116583371
20
88.442641789821778
30
0
11
123.09922770876432
21
88.442641789821778
31
0
0
LINE
5
178
100
AcDbEntity
8
0
100
AcDbLine
10
180.74922756571308
20
88.942642803100739
30
0
11
180.74922756571308
21
101.9426430713216
31
0
0
LINE
5
179
100
AcDbEntity
8
0
100
AcDbLine
10
104.54921917337911
20
88.942642803100739
30
0
11
104.54921917337911
21
101.9426430713216
31
0
0
ARC
5
180
100
AcDbEntity
8
0
100
AcDbCircle
10
142.1492273392449
20
88.942639346057476
30
0
40
0.49999792277645916
100
AcDbArc
50
-89.999680349234026
51
0.00051021601677674077
0
LINE
5
181
100
AcDbEntity
8
0
100
AcDbLine
10
133.911733788438
20
83.392641986517106
30
0
11
146.9117303313686
21
83.392641986517106
31
0
0
LINE
5
182
100
AcDbEntity
8
0
100
AcDbLine
10
167.24923746008412
20
45.292645240930717
30
0
11
182.63048426527519
21
45.292645240930717
31
0
0
ARC
5
183
100
AcDbEntity
8
0
100
AcDbCircle
10
167.24922576865652
20
44.79264227858539
30
0
40
0.50000064673732081
100
AcDbArc
50
89.999104221753896
51
179.99979509610364
0
LINE
5
184
100
AcDbEntity
8
0
100
AcDbLine
10
142.64922336954609
20
88.942642803100739
30
0
11
142.64922336954609
21
101.9426430713216
31
0
0
ARC
5
185
100
AcDbEntity
8
0
100
AcDbCircle
10
108.81172733920999
20
82.892645211143744
30
0
40
0.49999817609277264
100
AcDbArc
50
-0.00013113974322590316
51
89.999999997829292
0
ARC
5
186
100
AcDbEntity
8
0
100
AcDbCircle
10
127.8617273392102
20
82.892645211143744
30
0
40
0.49999817609277264
100
AcDbArc
50
-0.00013113974322590316
51
89.999999997830912
0
LINE
5
187
100
AcDbEntity
8
0
100
AcDbLine
10
110.09923116583371
20
102.44264408460052
30
0
11
123.09922770876432
21
102.44264408460052
31
0
0
ARC
5
188
100
AcDbEntity
8
0
100
AcDbCircle
10
165.96172733922859
20
69.892639346023472
30
0
40
0.49999817609235109
100
AcDbArc
50
-90
51
0.00051021958843493914
0
ARC
5
189
100
AcDbEntity
8
0
100
AcDbCircle
10
104.0492273392102
20
101.9426452111436
30
0
40
0.49999817609277264
100
AcDbArc
50
-0.00013113974322590316
51
89.999999997829292
0
ARC
5
190
100
AcDbEntity
8
0
100
AcDbCircle
10
180.24922754784259
20
101.94264521110773
30
0
40
0.49999771416064442
100
AcDbArc
50
-0.00013113696398088918
51
89.999704252699715
0
ARC
5
191
100
AcDbEntity
8
0
100
AcDbCircle
10
167.24922597727354
20
88.94264227858406
30
0
40
0.50000085535312966
100
AcDbArc
50
179.99982583226875
51
270.00087187176263
0
LINE
5
192
100
AcDbEntity
8
0
100
AcDbLine
10
157.7242364110424
20
107.49264202526008
30
0
11
170.724232953973
21
107.49264202526008
31
0
0
ARC
5
193
100
AcDbEntity
8
0
100
AcDbCircle
10
167.2492257686568
20
101.94264227858551
30
0
40
0.50000064673732081
100
AcDbArc
50
89.999104221753896
51
179.99979509610364
0
ARC
5
194
100
AcDbEntity
8
0
100
AcDbCircle
10
148.1992259772733
20
88.94264227858406
30
0
40
0.50000085535312966
100
AcDbArc
50
179.99982583226875
51
270.00087187176263
0
LINE
5
195
100
AcDbEntity
8
0
100
AcDbLine
10
123.59922127146261
20
131.80514379849831
30
0
11
123.59922127146261
21
144.80514406671918
31
0
0
LINE
5
196
100
AcDbEntity
8
0
100
AcDbLine
10
167.24923746008412
20
102.44264408460052
30
0
11
180.24923400301486
21
102.44264408460052
31
0
0
ARC
5
197
100
AcDbEntity
8
0
100
AcDbCircle
10
180.24922733924529
20
88.942639346057476
30
0
40
0.49999792277647692
100
AcDbArc
50
-89.999680349230772
51
0.00051021601677674077
0
ARC
5
198
100
AcDbEntity
8
0
100
AcDbCircle
10
161.19922754784241
20
101.94264521110773
30
0
40
0.49999771416064442
100
AcDbArc
50
-0.00013113696398088918
51
89.999704252699715
0
ARC
5
199
100
AcDbEntity
8
0
100
AcDbCircle
10
151.6742273392455
20
131.80513934605742
30
0
40
0.49999792277645916
100
AcDbArc
50
-89.999680349234026
51
0.00051021601677674077
0
LINE
5
200
100
AcDbEntity
8
0
100
AcDbLine
10
190.27422861475492
20
131.80514379849831
30
0
11
190.27422861475492
21
144.80514406671918
31
0
0
ARC
5
201
100
AcDbEntity
8
0
100
AcDbCircle
10
157.72422576865631
20
120.99264227858549
30
0
40
0.50000064673735634
100
AcDbArc
50
89.99910422175715
51
179.99979509610364
0
LINE
5
202
100
AcDbEntity
8
0
100
AcDbLine
10
171.22422651667142
20
107.99264303853903
30
0
11
171.22422651667142
21
120.99264330675993
31
0
0
LINE
5
203
100
AcDbEntity
8
0
100
AcDbLine
10
109.5992227019741
20
131.80514379849831
30
0
11
109.5992227019741
21
144.80514406671918
31
0
0
ARC
5
204
100
AcDbEntity
8
0
100
AcDbCircle
10
151.6742275478428
20
144.80514521110769
30
0
40
0.49999771416064442
100
AcDbArc
50
-0.00013113696398088918
51
89.999704252699715
0
LINE
5
205
100
AcDbEntity
8
0
100
AcDbLine
10
104.54921917337911
20
131.80514379849831
30
0
11
104.54921917337911
21
144.80514406671918
31
0
0
ARC
5
206
100
AcDbEntity
8
0
100
AcDbCircle
10
104.0492273392102
20
144.80514521114358
30
0
40
0.49999817609275488
100
AcDbArc
50
-0.00013113974322590316
51
89.999999997829292
0
LINE
5
207
100
AcDbEntity
8
0
100
AcDbLine
10
138.6742343129589
20
121.49264245739371
30
0
11
151.6742308558895
21
121.49264245739371
31
0
0
LINE
5
208
100
AcDbEntity
8
0
100
AcDbLine
10
171.22422651667142
20
131.80514379849831
30
0
11
171.22422651667142
21
144.80514406671918
31
0
0
ARC
5
209
100
AcDbEntity
8
0
100
AcDbCircle
10
132.62422754784262
20
120.99264521110771
30
0
40
0.49999771416066219
100
AcDbArc
50
-0.00013113696398088918
51
89.999704252699715
0
LINE
5
210
100
AcDbEntity
8
0
100
AcDbLine
10
138.17422584909929
20
107.99264303853903
30
0
11
138.17422584909929
21
120.99264330675993
31
0
0
ARC
5
211
100
AcDbEntity
8
0
100
AcDbCircle
10
170.72422733924481
20
131.80513934605742
30
0
40
0.49999792277645916
100
AcDbArc
50
-89.999680349234026
51
0.00051021601677674077
0
LINE
5
212
100
AcDbEntity
8
0
100
AcDbLine
10
119.62423221487541
20
121.49264245739371
30
0
11
132.62422875780601
21
121.49264245739371
31
0
0
LINE
5
213
100
AcDbEntity
8
0
100
AcDbLine
10
176.27423004526631
20
131.80514379849831
30
0
11
176.27423004526631
21
144.80514406671918
31
0
0
LINE
5
214
100
AcDbEntity
8
0
100
AcDbLine
10
114.07422022242091
20
107.99264303853903
30
0
11
114.07422022242091
21
120.99264330675993
31
0
0
LINE
5
215
100
AcDbEntity
8
0
100
AcDbLine
10
138.6742343129589
20
131.30514138823548
30
0
11
151.6742308558895
21
131.30514138823548
31
0
0
ARC
5
216
100
AcDbEntity
8
0
100
AcDbCircle
10
123.09922733920951
20
144.80514521114358
30
0
40
0.49999817609275488
100
AcDbArc
50
-0.00013113974322590316
51
89.999999997829292
0
LINE
5
217
100
AcDbEntity
8
0
100
AcDbLine
10
157.22422794718281
20
107.99264303853903
30
0
11
157.22422794718281
21
120.99264330675993
31
0
0
LINE
5
218
100
AcDbEntity
8
0
100
AcDbLine
10
195.32423214334983
20
131.80514379849831
30
0
11
195.32423214334983
21
144.80514406671918
31
0
0
ARC
5
219
100
AcDbEntity
8
0
100
AcDbCircle
10
138.67422576865701
20
120.99264227858549
30
0
40
0.50000064673735634
100
AcDbArc
50
89.999104221753896
51
179.99979509610364
0
LINE
5
220
100
AcDbEntity
8
0
100
AcDbLine
10
157.22422794718281
20
131.80514379849831
30
0
11
157.22422794718281
21
144.80514406671918
31
0
0
ARC
5
221
100
AcDbEntity
8
0
100
AcDbCircle
10
119.62422576865679
20
120.99264227858549
30
0
40
0.50000064673733857
100
AcDbArc
50
89.999104221753896
51
179.99979509610364
0
LINE
5
222
100
AcDbEntity
8
0
100
AcDbLine
10
157.7242364110424
20
121.49264245739371
30
0
11
170.724232953973
21
121.49264245739371
31
0
0
ARC
5
223
100
AcDbEntity
8
0
100
AcDbCircle
10
138.67422576865701
20
144.80514227858544
30
0
40
0.50000064673735634
100
AcDbArc
50
89.999104221753896
51
179.99979509610364
0
ARC
5
224
100
AcDbEntity
8
0
100
AcDbCircle
10
113.57422754784241
20
120.99264521110771
30
0
40
0.49999771416064442
100
AcDbArc
50
-0.00013113696398088918
51
89.999704252696446
0
ARC
5
225
100
AcDbEntity
8
0
100
AcDbCircle
10
138.67422597727372
20
131.80514227858401
30
0
40
0.50000085535314742
100
AcDbArc
50
179.99982583226875
51
270.00087187176263
0
LINE
5
226
100
AcDbEntity
8
0
100
AcDbLine
10
176.7742236079647
20
131.30514138823548
30
0
11
189.7742350520565
21
131.30514138823548
31
0
0
ARC
5
227
100
AcDbEntity
8
0
100
AcDbCircle
10
104.04922733922909
20
131.8051393460234
30
0
40
0.49999817609236885
100
AcDbArc
50
-90
51
0.00051021958843493914
0
LINE
5
228
100
AcDbEntity
8
0
100
AcDbLine
10
110.09923116583371
20
145.30514321735299
30
0
11
123.09922770876432
21
145.30514321735299
31
0
0
LINE
5
229
100
AcDbEntity
8
0
100
AcDbLine
10
209.32423071283841
20
131.80514379849831
30
0
11
209.32423071283841
21
144.80514406671918
31
0
0
ARC
5
230
100
AcDbEntity
8
0
100
AcDbCircle
10
123.09922733922841
20
131.8051393460234
30
0
40
0.49999817609236885
100
AcDbArc
50
-90
51
0.00051021958843493914
0
ARC
5
231
100
AcDbEntity
8
0
100
AcDbCircle
10
110.0992262305728
20
144.80514227858382
30
0
40
0.50000110865378378
100
AcDbArc
50
89.999872957628753
51
179.99979509610364
0
LINE
5
232
100
AcDbEntity
8
0
100
AcDbLine
10
133.1242223205044
20
107.99264303853903
30
0
11
133.1242223205044
21
120.99264330675993
31
0
0
LINE
5
233
100
AcDbEntity
8
0
100
AcDbLine
10
138.17422584909929
20
131.80514379849831
30
0
11
138.17422584909929
21
144.80514406671918
31
0
0
LINE
5
234
100
AcDbEntity
8
0
100
AcDbLine
10
152.17422441858793
20
107.99264303853903
30
0
11
152.17422441858793
21
120.99264330675993
31
0
0
ARC
5
235
100
AcDbEntity
8
0
100
AcDbCircle
10
151.6742275478428
20
120.99264521110771
30
0
40
0.49999771416064442
100
AcDbArc
50
-0.00013113696398088918
51
89.999704252699715
0
LINE
5
236
100
AcDbEntity
8
0
100
AcDbLine
10
119.12422375101592
20
107.99264303853903
30
0
11
119.12422375101592
21
120.99264330675993
31
0
0
ARC
5
237
100
AcDbEntity
8
0
100
AcDbCircle
10
170.72422754784202
20
120.99264521110771
30
0
40
0.49999771416064442
100
AcDbArc
50
-0.00013113696398088918
51
89.999704252693192
0
ARC
5
238
100
AcDbEntity
8
0
100
AcDbCircle
10
110.09922623057329
20
131.80514227858319
30
0
40
0.50000110865344372
100
AcDbArc
50
179.99982583226875
51
270.00012704231256
0
LINE
5
239
100
AcDbEntity
8
0
100
AcDbLine
10
110.09923116583371
20
131.30514138823548
30
0
11
123.09922770876432
21
131.30514138823548
31
0
0
LINE
5
240
100
AcDbEntity
8
0
100
AcDbLine
10
138.6742343129589
20
145.30514275169168
30
0
11
151.6742308558895
21
145.30514275169168
31
0
0
LINE
5
241
100
AcDbEntity
8
0
100
AcDbLine
10
152.17422441858793
20
131.80514379849831
30
0
11
152.17422441858793
21
144.80514406671918
31
0
0
ARC
5
242
100
AcDbEntity
8
0
100
AcDbCircle
10
176.7742262305735
20
131.80514227858319
30
0
40
0.50000110865344372
100
AcDbArc
50
179.99982583226875
51
270.0001270423142
0
ARC
5
243
100
AcDbEntity
8
0
100
AcDbCircle
10
208.82422733922883
20
131.8051393460234
30
0
40
0.49999817609238661
100
AcDbArc
50
-90
51
0.00051021958843493914
0
ARC
5
244
100
AcDbEntity
8
0
100
AcDbCircle
10
157.72422576865631
20
144.80514227858544
30
0
40
0.50000064673735634
100
AcDbArc
50
89.99910422175715
51
179.99979509610364
0
LINE
5
245
100
AcDbEntity
8
0
100
AcDbLine
10
157.7242364110424
20
131.30514138823548
30
0
11
170.724232953973
21
131.30514138823548
31
0
0
LINE
5
246
100
AcDbEntity
8
0
100
AcDbLine
10
195.8242257060482
20
131.30514138823548
30
0
11
208.82423715013999
21
131.30514138823548
31
0
0
LINE
5
247
100
AcDbEntity
8
0
100
AcDbLine
10
195.8242257060482
20
145.30514321735299
30
0
11
208.82423715013999
21
145.30514321735299
31
0
0
ARC
5
248
100
AcDbEntity
8
0
100
AcDbCircle
10
195.82422623057357
20
131.80514227858319
30
0
40
0.50000110865347924
100
AcDbArc
50
179.99982583226875
51
270.0001270423142
0
ARC
5
249
100
AcDbEntity
8
0
100
AcDbCircle
10
157.72422597727299
20
131.80514227858401
30
0
40
0.50000085535312966
100
AcDbArc
50
179.99982583226875
51
270.00087187176263
0
LINE
5
250
100
AcDbEntity
8
0
100
AcDbLine
10
176.7742236079647
20
145.30514321735299
30
0
11
189.7742350520565
21
145.30514321735299
31
0
0
ARC
5
251
100
AcDbEntity
8
0
100
AcDbCircle
10
195.82422623057312
20
144.80514227858382
30
0
40
0.5000011086538193
100
AcDbArc
50
89.999872957630373
51
179.99979509610364
0
ARC
5
252
100
AcDbEntity
8
0
100
AcDbCircle
10
189.77422733920969
20
144.80514521114358
30
0
40
0.49999817609275488
100
AcDbArc
50
-0.00013113974322590316
51
89.999999997830912
0
ARC
5
253
100
AcDbEntity
8
0
100
AcDbCircle
10
208.8242273392099
20
144.80514521114358
30
0
40
0.49999817609275488
100
AcDbArc
50
-0.00013113974322590316
51
89.999999997837435
0
ARC
5
254
100
AcDbEntity
8
0
100
AcDbCircle
10
189.77422733922862
20
131.8051393460234
30
0
40
0.49999817609236885
100
AcDbArc
50
-90
51
0.00051021958843493914
0
LINE
5
255
100
AcDbEntity
8
0
100
AcDbLine
10
157.7242364110424
20
145.30514275169168
30
0
11
170.724232953973
21
145.30514275169168
31
0
0
ARC
5
256
100
AcDbEntity
8
0
100
AcDbCircle
10
176.77422623057288
20
144.80514227858382
30
0
40
0.50000110865378378
100
AcDbArc
50
89.999872957623865
51
179.99979509610364
0
ARC
5
257
100
AcDbEntity
8
0
100
AcDbCircle
10
170.72422754784202
20
144.80514521110769
30
0
40
0.49999771416064442
100
AcDbArc
50
-0.00013113696398088918
51
89.999704252693192
0
LINE
5
258
100
AcDbEntity
8
0
100
AcDbLine
10
91.049229067750218
20
88.442641789821778
30
0
11
104.04922561068079
21
88.442641789821778
31
0
0
LINE
5
259
100
AcDbEntity
8
0
100
AcDbLine
10
91.049229067750218
20
145.30514321735299
30
0
11
104.04922561068079
21
145.30514321735299
31
0
0
LINE
5
260
100
AcDbEntity
8
0
100
AcDbLine
10
100.57423011679191
20
107.49264202526008
30
0
11
113.57422665972251
21
107.49264202526008
31
0
0
ARC
5
261
100
AcDbEntity
8
0
100
AcDbCircle
10
37.374227339245358
20
107.99263934605742
30
0
40
0.49999792277644139
100
AcDbArc
50
-89.999680349236471
51
0.00051021601677674077
0
ARC
5
262
100
AcDbEntity
8
0
100
AcDbCircle
10
-19.775772660755191
20
107.99263934605742
30
0
40
0.49999792277644139
100
AcDbArc
50
-89.999680349235234
51
0.00051021601677674077
0
ARC
5
263
100
AcDbEntity
8
0
100
AcDbCircle
10
-57.875772660754649
20
107.99263934605742
30
0
40
0.49999792277645916
100
AcDbArc
50
-89.999680349235646
51
0.00051021601677674077
0
ARC
5
264
100
AcDbEntity
8
0
100
AcDbCircle
10
-51.825774022726236
20
107.99264227858401
30
0
40
0.5000008553531563
100
AcDbArc
50
179.99982583226875
51
270.00087187176018
0
ARC
5
265
100
AcDbEntity
8
0
100
AcDbCircle
10
-32.775774022726964
20
107.99264227858401
30
0
40
0.5000008553531341
100
AcDbArc
50
179.99982583226875
51
270.00087187176018
0
ARC
5
266
100
AcDbEntity
8
0
100
AcDbCircle
10
18.324227339245162
20
107.99263934605742
30
0
40
0.49999792277644139
100
AcDbArc
50
-89.999680349235234
51
0.00051021601677674077
0
LINE
5
267
100
AcDbEntity
8
0
100
AcDbLine
10
95.811729592271092
20
69.39264341702858
30
0
11
108.81172613520158
21
69.39264341702858
31
0
0
ARC
5
268
100
AcDbEntity
8
0
100
AcDbCircle
10
-70.875774022726446
20
107.99264227858401
30
0
40
0.50000085535312966
100
AcDbArc
50
179.99982583226875
51
270.00087187176263
0
LINE
5
269
100
AcDbEntity
8
0
100
AcDbLine
10
91.049229067750218
20
102.44264408460052
30
0
11
104.04922561068079
21
102.44264408460052
31
0
0
LINE
5
270
100
AcDbEntity
8
0
100
AcDbLine
10
100.57423011679191
20
121.49264245739371
30
0
11
113.57422665972251
21
121.49264245739371
31
0
0
ARC
5
271
100
AcDbEntity
8
0
100
AcDbCircle
10
-38.82577266075446
20
107.99263934605742
30
0
40
0.49999792277644139
100
AcDbArc
50
-89.999680349236471
51
0.00051021601677674077
0
ARC
5
272
100
AcDbEntity
8
0
100
AcDbCircle
10
24.374225977273582
20
107.99264227858401
30
0
40
0.50000085535313854
100
AcDbArc
50
179.99982583226875
51
270.00087187176058
0
LINE
5
273
100
AcDbEntity
8
0
100
AcDbLine
10
95.811729592271092
20
83.392641986517106
30
0
11
108.81172613520158
21
83.392641986517106
31
0
0
ARC
5
274
100
AcDbEntity
8
0
100
AcDbCircle
10
-0.72577266075501257
20
107.99263934605742
30
0
40
0.49999792277644139
100
AcDbArc
50
-89.999680349236471
51
0.00051021530244210061
0
ARC
5
275
100
AcDbEntity
8
0
100
AcDbCircle
10
-13.72577402272678
20
107.99264227858401
30
0
40
0.50000085535312966
100
AcDbArc
50
179.99982583226875
51
270.00087187176143
0
LINE
5
276
100
AcDbEntity
8
0
100
AcDbLine
10
91.049229067750218
20
131.30514138823548
30
0
11
104.04922561068079
21
131.30514138823548
31
0
0
ARC
5
277
100
AcDbEntity
8
0
100
AcDbCircle
10
5.3242259772734002
20
107.99264227858401
30
0
40
0.50000085535314187
100
AcDbArc
50
179.99982583226875
51
270.00087187176007
0
ARC
5
278
100
AcDbEntity
8
0
100
AcDbCircle
10
-68.494523769426408
20
44.792642278583756
30
0
40
0.50000110865380154
100
AcDbArc
50
89.999872957628753
51
179.99979509610364
0
ARC
5
279
100
AcDbEntity
8
0
100
AcDbCircle
10
-68.494523769426692
20
69.892642278583324
30
0
40
0.50000110865342595
100
AcDbArc
50
179.99982583226875
51
270.00012704231256
0
LINE
5
280
100
AcDbEntity
8
0
100
AcDbLine
10
-44.682017254643185
20
31.2926094185392
30
0
11
-29.300770449452145
21
31.2926094185392
31
0
0
LINE
5
281
100
AcDbEntity
8
0
100
AcDbLine
10
-68.994525081478102
20
69.892644430307541
30
0
11
-68.994525081478102
21
82.892644698528443
31
0
0
LINE
5
282
100
AcDbEntity
8
0
100
AcDbLine
10
-52.613274852745278
20
31.792640234140549
30
0
11
-52.613274852745278
21
44.792644227651756
31
0
0
ARC
5
283
100
AcDbEntity
8
0
100
AcDbCircle
10
-20.869524022726292
20
31.792642278583926
30
0
40
0.50000085535314298
100
AcDbArc
50
179.99982583226875
51
270.00087187176183
0
LINE
5
284
100
AcDbEntity
8
0
100
AcDbLine
10
-66.613274819217651
20
88.942642803100739
30
0
11
-66.613274819217651
21
101.9426430713216
31
0
0
ARC
5
285
100
AcDbEntity
8
0
100
AcDbCircle
10
56.424227339245533
20
107.99263934605742
30
0
40
0.49999792277644139
100
AcDbArc
50
-89.999680349236471
51
0.00051021601677674077
0
ARC
5
286
100
AcDbEntity
8
0
100
AcDbCircle
10
75.47422733924482
20
107.99263934605742
30
0
40
0.49999792277644139
100
AcDbArc
50
-89.999680349232392
51
0.00051021601677674077
0
LINE
5
287
100
AcDbEntity
8
0
100
AcDbLine
10
-68.494522671215279
20
31.292639220861588
30
0
11
-53.113273072056508
21
31.292639220861588
31
0
0
LINE
5
288
100
AcDbEntity
8
0
100
AcDbLine
10
-68.494522671215279
20
69.39264341702858
30
0
11
-50.731491024605972
21
69.39264341702858
31
0
0
LINE
5
289
100
AcDbEntity
8
0
100
AcDbLine
10
-21.369523095898369
20
31.792640234140549
30
0
11
-21.369523095898369
21
44.792644227651756
31
0
0
LINE
5
290
100
AcDbEntity
8
0
100
AcDbLine
10
-45.182025718502743
20
31.792610431818176
30
0
11
-45.182025718502743
21
44.792614425329369
31
0
0
LINE
5
291
100
AcDbEntity
8
0
100
AcDbLine
10
-66.113272641785485
20
102.44264408460052
30
0
11
-53.113273072056508
21
102.44264408460052
31
0
0
ARC
5
292
100
AcDbEntity
8
0
100
AcDbCircle
10
-68.494523769425882
20
31.792642278583152
30
0
40
0.50000110865342595
100
AcDbArc
50
179.99982583226875
51
270.00012704231096
0
LINE
5
293
100
AcDbEntity
8
0
100
AcDbLine
10
-18.488268095068673
20
69.39264341702858
30
0
11
-5.4882715521380732
21
69.39264341702858
31
0
0
ARC
5
294
100
AcDbEntity
8
0
100
AcDbCircle
10
62.474225977273022
20
107.99264227858401
30
0
40
0.50000085535312966
100
AcDbArc
50
179.99982583226875
51
270.00087187176342
0
LINE
5
295
100
AcDbEntity
8
0
100
AcDbLine
10
-18.988276558928231
20
69.892644430307541
30
0
11
-18.988276558928231
21
82.892644698528443
31
0
0
ARC
5
296
100
AcDbEntity
8
0
100
AcDbCircle
10
81.524225977273218
20
107.99264227858401
30
0
40
0.50000085535312966
100
AcDbArc
50
179.99982583226875
51
270.00087187176428
0
ARC
5
297
100
AcDbEntity
8
0
100
AcDbCircle
10
-8.963273769426678
20
50.842642278583163
30
0
40
0.50000110865342817
100
AcDbArc
50
179.99982583226875
51
270.00012704231318
0
LINE
5
298
100
AcDbEntity
8
0
100
AcDbLine
10
-70.875766414217694
20
107.49264202526008
30
0
11
-57.875769871287098
21
107.49264202526008
31
0
0
ARC
5
299
100
AcDbEntity
8
0
100
AcDbCircle
10
94.524227339244987
20
107.99263934605742
30
0
40
0.49999792277645916
100
AcDbArc
50
-89.999680349232392
51
0.00051021601677674077
0
ARC
5
300
100
AcDbEntity
8
0
100
AcDbCircle
10
-29.300772660754483
20
31.792609346057322
30
0
40
0.49999792277645028
100
AcDbArc
50
-89.999680349236471
51
0.00051021601677674077
0
ARC
5
301
100
AcDbEntity
8
0
100
AcDbCircle
10
-44.682024022726161
20
31.79261227858391
30
0
40
0.5000008553531563
100
AcDbArc
50
179.99982583226875
51
270.00087187176018
0
ARC
5
302
100
AcDbEntity
8
0
100
AcDbCircle
10
100.5742259772733
20
107.99264227858401
30
0
40
0.50000085535312966
100
AcDbArc
50
179.99982583226875
51
270.00087187176263
0
LINE
5
303
100
AcDbEntity
8
0
100
AcDbLine
10
-9.4632755098864862
20
50.842642332224052
30
0
11
-9.4632755098864862
21
63.842646325735259
31
0
0
ARC
5
304
100
AcDbEntity
8
0
100
AcDbCircle
10
-53.113272660789775
20
44.792645211143579
30
0
40
0.49999817609276376
100
AcDbArc
50
-0.00013113974322590316
51
89.999999997831722
0
ARC
5
305
100
AcDbEntity
8
0
100
AcDbCircle
10
43.42422597727375
20
107.99264227858401
30
0
40
0.50000085535314742
100
AcDbArc
50
179.99982583226875
51
270.00087187176018
0
LINE
5
306
100
AcDbEntity
8
0
100
AcDbLine
10
-68.494522671215279
20
83.392641986517106
30
0
11
-50.731241430155976
21
83.392641986517106
31
0
0
LINE
5
307
100
AcDbEntity
8
0
100
AcDbLine
10
-20.869514632038811
20
31.292639220861588
30
0
11
-5.4882715521380732
21
31.292639220861588
31
0
0
LINE
5
308
100
AcDbEntity
8
0
100
AcDbLine
10
-13.725767570547802
20
107.49264202526008
30
0
11
-0.72577102761719914
21
107.49264202526008
31
0
0
LINE
5
309
100
AcDbEntity
8
0
100
AcDbLine
10
-68.494522671215279
20
45.292645240930717
30
0
11
-53.113273072056508
21
45.292645240930717
31
0
0
ARC
5
310
100
AcDbEntity
8
0
100
AcDbCircle
10
-8.9632737694272038
20
63.842642278583746
30
0
40
0.50000110865380154
100
AcDbArc
50
89.999872957628753
51
179.99979509610364
0
ARC
5
311
100
AcDbEntity
8
0
100
AcDbCircle
10
-53.113272660770861
20
31.792639346023304
30
0
40
0.49999817609235109
100
AcDbArc
50
-89.99999999999919
51
0.00051021958843493914
0
LINE
5
312
100
AcDbEntity
8
0
100
AcDbLine
10
-8.9632744966075251
20
64.342639888433609
30
0
11
4.0367294969036749
21
64.342639888433609
31
0
0
LINE
5
313
100
AcDbEntity
8
0
100
AcDbLine
10
-28.800773161463482
20
31.792610431818176
30
0
11
-28.800773161463482
21
44.792614425329369
31
0
0
LINE
5
314
100
AcDbEntity
8
0
100
AcDbLine
10
-28.013265418820122
20
50.342641318945098
30
0
11
-15.013272601179821
21
50.342641318945098
31
0
0
LINE
5
315
100
AcDbEntity
8
0
100
AcDbLine
10
-66.113272641785485
20
88.442641789821778
30
0
11
-53.113273072056508
21
88.442641789821778
31
0
0
LINE
5
316
100
AcDbEntity
8
0
100
AcDbLine
10
-18.488268095068673
20
83.392641986517106
30
0
11
-5.4882715521380732
21
83.392641986517106
31
0
0
LINE
5
317
100
AcDbEntity
8
0
100
AcDbLine
10
-20.869514632038811
20
45.292645240930717
30
0
11
-5.4882715521380732
21
45.292645240930717
31
0
0
ARC
5
318
100
AcDbEntity
8
0
100
AcDbCircle
10
-28.013274022726243
20
50.842642278583909
30
0
40
0.50000085535312966
100
AcDbArc
50
179.99982583226875
51
270.00087187176018
0
ARC
5
319
100
AcDbEntity
8
0
100
AcDbCircle
10
-28.013274231342944
20
63.842642278585402
30
0
40
0.50000064673731193
100
AcDbArc
50
89.999104221755914
51
179.99979509610364
0
LINE
5
320
100
AcDbEntity
8
0
100
AcDbLine
10
-38.038274931721432
20
69.892644430307541
30
0
11
-38.038274931721432
21
82.892644698528443
31
0
0
ARC
5
321
100
AcDbEntity
8
0
100
AcDbCircle
10
-66.113273769426314
20
88.942642278583293
30
0
40
0.50000110865342595
100
AcDbArc
50
179.99982583226875
51
270.00012704231256
0
LINE
5
322
100
AcDbEntity
8
0
100
AcDbLine
10
-68.994525081478102
20
31.792640234140549
30
0
11
-68.994525081478102
21
44.792644227651756
31
0
0
ARC
5
323
100
AcDbEntity
8
0
100
AcDbCircle
10
-44.682024231342879
20
44.792612278585395
30
0
40
0.50000064673732969
100
AcDbArc
50
89.999104221755516
51
179.99979509610364
0
LINE
5
324
100
AcDbEntity
8
0
100
AcDbLine
10
-8.9632744966075251
20
50.342641318945098
30
0
11
4.0367294969036749
21
50.342641318945098
31
0
0
LINE
5
325
100
AcDbEntity
8
0
100
AcDbLine
10
-28.013265418820122
20
64.342639888433609
30
0
11
-15.013272601179821
21
64.342647339014221
31
0
0
ARC
5
326
100
AcDbEntity
8
0
100
AcDbCircle
10
-42.300774231343283
20
101.94264227858551
30
0
40
0.50000064673733857
100
AcDbArc
50
89.999104221755516
51
179.99979509610364
0
ARC
5
327
100
AcDbEntity
8
0
100
AcDbCircle
10
-24.538272660755013
20
69.892639346057507
30
0
40
0.49999792277645028
100
AcDbArc
50
-89.999680349236471
51
0.00051021601677674077
0
LINE
5
328
100
AcDbEntity
8
0
100
AcDbLine
10
-42.300766992382741
20
88.442641789821778
30
0
11
-29.300770449452145
21
88.442641789821778
31
0
0
LINE
5
329
100
AcDbEntity
8
0
100
AcDbLine
10
14.06172410864378
20
69.892644430307541
30
0
11
14.06172410864378
21
82.892644698528443
31
0
0
ARC
5
330
100
AcDbEntity
8
0
100
AcDbCircle
10
-68.49452376942719
20
82.892642278583935
30
0
40
0.5000011086538193
100
AcDbArc
50
89.999872957630373
51
179.99979509610364
0
LINE
5
331
100
AcDbEntity
8
0
100
AcDbLine
10
38.16172228474165
20
69.892644430307541
30
0
11
38.16172228474165
21
82.892644698528443
31
0
0
LINE
5
332
100
AcDbEntity
8
0
100
AcDbLine
10
-44.682017254643185
20
45.29261543860833
30
0
11
-29.300770449452145
21
45.29261543860833
31
0
0
LINE
5
333
100
AcDbEntity
8
0
100
AcDbLine
10
33.111726206727283
20
69.892644430307541
30
0
11
33.111726206727283
21
82.892644698528443
31
0
0
LINE
5
334
100
AcDbEntity
8
0
100
AcDbLine
10
-37.538266467861867
20
83.392641986517106
30
0
11
-24.538269924931271
21
83.392641986517106
31
0
0
ARC
5
335
100
AcDbEntity
8
0
100
AcDbCircle
10
-37.538274022726775
20
69.892642278584105
30
0
40
0.5000008553531563
100
AcDbArc
50
179.99982583226875
51
270.00087187176018
0
LINE
5
336
100
AcDbEntity
8
0
100
AcDbLine
10
-42.300766992382741
20
102.44264408460052
30
0
11
-29.300770449452145
21
102.44264408460052
31
0
0
LINE
5
337
100
AcDbEntity
8
0
100
AcDbLine
10
-52.613274852745278
20
88.942642803100739
30
0
11
-52.613274852745278
21
101.9426430713216
31
0
0
ARC
5
338
100
AcDbEntity
8
0
100
AcDbCircle
10
-5.4882726607544887
20
31.792639346057328
30
0
40
0.49999792277645028
100
AcDbArc
50
-89.999680349234922
51
0.00051021601677674077
0
LINE
5
339
100
AcDbEntity
8
0
100
AcDbLine
10
10.086727601475971
20
50.342641318945098
30
0
11
23.086724144406571
21
50.342641318945098
31
0
0
LINE
5
340
100
AcDbEntity
8
0
100
AcDbLine
10
-28.513273882679684
20
50.842642332224052
30
0
11
-28.513273882679684
21
63.842646325735259
31
0
0
LINE
5
341
100
AcDbEntity
8
0
100
AcDbLine
10
-24.038276362232903
20
69.892644430307541
30
0
11
-24.038276362232903
21
82.892644698528443
31
0
0
ARC
5
342
100
AcDbEntity
8
0
100
AcDbCircle
10
-29.300772452157172
20
44.792615211107638
30
0
40
0.4999977141606311
100
AcDbArc
50
-0.00013113696398088918
51
89.999704252703381
0
ARC
5
343
100
AcDbEntity
8
0
100
AcDbCircle
10
-44.243768142752337
20
73.722432061936843
30
0
40
0.29999999999907878
100
AcDbArc
50
270
51
360
0
ARC
5
344
100
AcDbEntity
8
0
100
AcDbCircle
10
-20.869524231342989
20
44.792642278585397
30
0
40
0.50000064673732081
100
AcDbArc
50
89.999104221754706
51
179.99979509610364
0
LINE
5
345
100
AcDbEntity
8
0
100
AcDbLine
10
-4.9882742641494104
20
69.892644430307541
30
0
11
-4.9882742641494104
21
82.892644698528443
31
0
0
LINE
5
346
100
AcDbEntity
8
0
100
AcDbLine
10
-47.343768837861752
20
73.722429121641312
30
0
11
-47.343768837861752
21
79.062431598810349
31
0
0
ARC
5
347
100
AcDbEntity
8
0
100
AcDbCircle
10
-50.732202660770831
20
69.892642278579956
30
0
40
0.50000110864765612
100
AcDbArc
50
-89.918435488105899
51
0
0
LINE
5
348
100
AcDbEntity
8
0
100
AcDbLine
10
10.086727601475971
20
64.342639888433609
30
0
11
23.086724144406571
21
64.342639888433609
31
0
0
ARC
5
349
100
AcDbEntity
8
0
100
AcDbCircle
10
-23.250773769426132
20
88.942642278583293
30
0
40
0.50000110865343039
100
AcDbArc
50
179.99982583226875
51
270.00012704231301
0
ARC
5
350
100
AcDbEntity
8
0
100
AcDbCircle
10
-47.043768142752675
20
73.722432061937184
30
0
40
0.30000000000002913
100
AcDbArc
50
180
51
270.00000000003257
0
LINE
5
351
100
AcDbEntity
8
0
100
AcDbLine
10
-43.94376902561639
20
79.062431598810349
30
0
11
-43.94376902561639
21
73.722429121641312
31
0
0
LINE
5
352
100
AcDbEntity
8
0
100
AcDbLine
10
0.061725539155261799
20
69.892644430307541
30
0
11
0.061725539155261799
21
82.892644698528443
31
0
0
LINE
5
353
100
AcDbEntity
8
0
100
AcDbLine
10
-14.51327531319115
20
50.842642332224052
30
0
11
-14.51327531319115
21
63.842646325735259
31
0
0
ARC
5
354
100
AcDbEntity
8
0
100
AcDbCircle
10
-18.488274022726607
20
69.892642278584105
30
0
40
0.50000085535315408
100
AcDbArc
50
179.99982583226875
51
270.00087187176098
0
ARC
5
355
100
AcDbEntity
8
0
100
AcDbCircle
10
-15.01327266077082
20
50.842639092741422
30
0
40
0.49999817609235997
100
AcDbArc
50
-90.000000000005699
51
0.00053924373236232206
0
LINE
5
356
100
AcDbEntity
8
0
100
AcDbLine
10
-47.043767484836323
20
73.422431493906174
30
0
11
-44.243768515996678
21
73.422431493906174
31
0
0
LINE
5
357
100
AcDbEntity
8
0
100
AcDbLine
10
-50.232202473096592
20
69.892644430307541
30
0
11
-50.232202473096592
21
82.892640973238144
31
0
0
LINE
5
358
100
AcDbEntity
8
0
100
AcDbLine
10
38.661730748601215
20
83.392641986517106
30
0
11
51.661727291531818
21
83.392641986517106
31
0
0
ARC
5
359
100
AcDbEntity
8
0
100
AcDbCircle
10
-53.11327266077118
20
88.942639346023441
30
0
40
0.49999817609235109
100
AcDbArc
50
-89.99999999999919
51
0.00051021958843493914
0
ARC
5
360
100
AcDbEntity
8
0
100
AcDbCircle
10
19.61172597727375
20
69.892642278584105
30
0
40
0.5000008553531452
100
AcDbArc
50
179.99982583226875
51
270.00087187176018
0
LINE
5
361
100
AcDbEntity
8
0
100
AcDbLine
10
-37.538266467861867
20
69.39264341702858
30
0
11
-24.538269924931271
21
69.39264341702858
31
0
0
ARC
5
362
100
AcDbEntity
8
0
100
AcDbCircle
10
-66.113273769426826
20
101.9426422785838
30
0
40
0.5000011086538193
100
AcDbArc
50
89.999872957630373
51
179.99979509610364
0
LINE
5
363
100
AcDbEntity
8
0
100
AcDbLine
10
-51.825766178779347
20
107.49264202526008
30
0
11
-38.825769635848744
21
107.49264202526008
31
0
0
ARC
5
364
100
AcDbEntity
8
0
100
AcDbCircle
10
-15.01327266079079
20
63.842645673040892
30
0
40
0.49999817609276642
100
AcDbArc
50
-0.00018406892528126118
51
89.999999997724245
0
ARC
5
365
100
AcDbEntity
8
0
100
AcDbCircle
10
23.086727339209698
20
63.842645211143569
30
0
40
0.49999817609275932
100
AcDbArc
50
-0.00013113974322590316
51
89.99999999783131
0
ARC
5
366
100
AcDbEntity
8
0
100
AcDbCircle
10
-47.043768142752526
20
79.062432061937514
30
0
40
0.300000000000189
100
AcDbArc
50
90
51
180
0
ARC
5
367
100
AcDbEntity
8
0
100
AcDbCircle
10
-44.243768142753048
20
79.062432061937329
30
0
40
0.30000000000018012
100
AcDbArc
50
0
51
89.999999999862936
0
LINE
5
368
100
AcDbEntity
8
0
100
AcDbLine
10
-23.250772344879845
20
102.44264408460052
30
0
11
-10.250772076658938
21
102.44264408460052
31
0
0
ARC
5
369
100
AcDbEntity
8
0
100
AcDbCircle
10
-5.4882724521575312
20
82.892645211107862
30
0
40
0.49999771416062666
100
AcDbArc
50
-0.00013113696398088918
51
89.999704252703381
0
LINE
5
370
100
AcDbEntity
8
0
100
AcDbLine
10
33.899230224080341
20
102.44264408460052
30
0
11
46.899226767010937
21
102.44264408460052
31
0
0
LINE
5
371
100
AcDbEntity
8
0
100
AcDbLine
10
43.424231273122082
20
107.49264202526008
30
0
11
56.424227816052685
21
107.49264202526008
31
0
0
ARC
5
372
100
AcDbEntity
8
0
100
AcDbCircle
10
10.086726230572971
20
63.842642278583746
30
0
40
0.50000110865380154
100
AcDbArc
50
89.999872957628753
51
179.99979509610364
0
ARC
5
373
100
AcDbEntity
8
0
100
AcDbCircle
10
-24.538272452157695
20
82.892645211107862
30
0
40
0.49999771416062666
100
AcDbArc
50
-0.00013113696398088918
51
89.999704252703381
0
ARC
5
374
100
AcDbEntity
8
0
100
AcDbCircle
10
42.136727547842476
20
63.842645211107651
30
0
40
0.49999771416064442
100
AcDbArc
50
-0.00013113696398088918
51
89.999704252699715
0
ARC
5
375
100
AcDbEntity
8
0
100
AcDbCircle
10
-5.4882724521571902
20
44.792645211107647
30
0
40
0.49999771416064109
100
AcDbArc
50
-0.00013113696398088918
51
89.999704252700212
0
ARC
5
376
100
AcDbEntity
8
0
100
AcDbCircle
10
-50.732202660770831
20
82.89264227857997
30
0
40
0.50000110865450864
100
AcDbArc
50
0
51
89.889856813978199
0
ARC
5
377
100
AcDbEntity
8
0
100
AcDbCircle
10
-53.113272660790116
20
101.9426452111436
30
0
40
0.49999817609277264
100
AcDbArc
50
-0.00013113974322590316
51
89.999999997830912
0
ARC
5
378
100
AcDbEntity
8
0
100
AcDbCircle
10
4.036727339228448
20
50.842639346023297
30
0
40
0.49999817609235109
100
AcDbArc
50
-89.99999999999919
51
0.00051021958843493914
0
ARC
5
379
100
AcDbEntity
8
0
100
AcDbCircle
10
-42.300774022726614
20
88.94264227858406
30
0
40
0.50000085535312966
100
AcDbArc
50
179.99982583226875
51
270.00087187176342
0
LINE
5
380
100
AcDbEntity
8
0
100
AcDbLine
10
90.261732500977757
20
69.892644430307541
30
0
11
90.261732500977757
21
82.892644698528443
31
0
0
ARC
5
381
100
AcDbEntity
8
0
100
AcDbCircle
10
-23.250773769426651
20
101.9426422785838
30
0
40
0.5000011086538193
100
AcDbArc
50
89.999872957628753
51
179.99979509610364
0
LINE
5
382
100
AcDbEntity
8
0
100
AcDbLine
10
-23.250772344879845
20
88.442641789821778
30
0
11
-10.250772076658938
21
88.442641789821778
31
0
0
ARC
5
383
100
AcDbEntity
8
0
100
AcDbCircle
10
-29.300772660754841
20
88.942639346057447
30
0
40
0.49999792277644139
100
AcDbArc
50
-89.99968034923279
51
0.00051021601677674077
0
LINE
5
384
100
AcDbEntity
8
0
100
AcDbLine
10
-23.750773358158806
20
88.942642803100739
30
0
11
-23.750773358158806
21
101.9426430713216
31
0
0
ARC
5
385
100
AcDbEntity
8
0
100
AcDbCircle
10
-4.2007737694264611
20
101.9426422785838
30
0
40
0.5000011086538193
100
AcDbArc
50
89.999872957630373
51
179.99979509610364
0
LINE
5
386
100
AcDbEntity
8
0
100
AcDbLine
10
19.111727637238751
20
69.892644430307541
30
0
11
19.111727637238751
21
82.892644698528443
31
0
0
LINE
5
387
100
AcDbEntity
8
0
100
AcDbLine
10
14.849228125996841
20
102.44264408460052
30
0
11
27.849224668927445
21
102.44264408460052
31
0
0
LINE
5
388
100
AcDbEntity
8
0
100
AcDbLine
10
-47.043767484836323
20
79.3624329518358
30
0
11
-44.243768515996678
21
79.3624329518358
31
0
0
ARC
5
389
100
AcDbEntity
8
0
100
AcDbCircle
10
-29.300772452157542
20
101.94264521110773
30
0
40
0.49999771416063998
100
AcDbArc
50
-0.00013113696398088918
51
89.999704252700127
0
LINE
5
390
100
AcDbEntity
8
0
100
AcDbLine
10
-32.775765943340986
20
107.49264202526008
30
0
11
-19.77576940041039
21
107.49264202526008
31
0
0
LINE
5
391
100
AcDbEntity
8
0
100
AcDbLine
10
33.899230224080341
20
88.442641789821778
30
0
11
46.899226767010937
21
88.442641789821778
31
0
0
ARC
5
392
100
AcDbEntity
8
0
100
AcDbCircle
10
-37.538274231343472
20
82.892642278585555
30
0
40
0.50000064673733857
100
AcDbArc
50
89.999104221754706
51
179.99979509610364
0
LINE
5
393
100
AcDbEntity
8
0
100
AcDbLine
10
-9.750771063379986
20
88.942642803100739
30
0
11
-9.750771063379986
21
101.9426430713216
31
0
0
LINE
5
394
100
AcDbEntity
8
0
100
AcDbLine
10
-28.800773161463482
20
88.942642803100739
30
0
11
-28.800773161463482
21
101.9426430713216
31
0
0
LINE
5
395
100
AcDbEntity
8
0
100
AcDbLine
10
-4.9882742641494104
20
31.792640234140549
30
0
11
-4.9882742641494104
21
44.792644227651756
31
0
0
ARC
5
396
100
AcDbEntity
8
0
100
AcDbCircle
10
-10.250772660771011
20
88.942641169931193
30
0
40
0.50000000000011369
100
AcDbArc
50
-89.99999999999919
51
0.00012704025625624613
0
LINE
5
397
100
AcDbEntity
8
0
100
AcDbLine
10
38.661730748601215
20
69.39264341702858
30
0
11
51.661727291531818
21
69.39264341702858
31
0
0
LINE
5
398
100
AcDbEntity
8
0
100
AcDbLine
10
-42.800775456242299
20
88.942642803100739
30
0
11
-42.800775456242299
21
101.9426430713216
31
0
0
LINE
5
399
100
AcDbEntity
8
0
100
AcDbLine
10
57.211724382825146
20
69.892644430307541
30
0
11
57.211724382825146
21
82.892644698528443
31
0
0
ARC
5
400
100
AcDbEntity
8
0
100
AcDbCircle
10
14.849226230572812
20
101.9426422785838
30
0
40
0.5000011086538193
100
AcDbArc
50
89.999872957630373
51
179.99979509610364
0
ARC
5
401
100
AcDbEntity
8
0
100
AcDbCircle
10
0.56172576865687085
20
82.892642278585555
30
0
40
0.50000064673732081
100
AcDbArc
50
89.999104221754664
51
179.99979509610364
0
ARC
5
402
100
AcDbEntity
8
0
100
AcDbCircle
10
32.611727547842854
20
82.892645211107862
30
0
40
0.49999771416062222
100
AcDbArc
50
-0.00013113696398088918
51
89.999704252702969
0
ARC
5
403
100
AcDbEntity
8
0
100
AcDbCircle
10
27.849227339228449
20
88.942639346023441
30
0
40
0.49999817609235109
100
AcDbArc
50
-89.999999999998778
51
0.00051021958843493914
0
LINE
5
404
100
AcDbEntity
8
0
100
AcDbLine
10
5.3242345275356939
20
107.49264202526008
30
0
11
18.32423107046629
21
107.49264202526008
31
0
0
ARC
5
405
100
AcDbEntity
8
0
100
AcDbCircle
10
-18.488274231343308
20
82.892642278585555
30
0
40
0.50000064673733857
100
AcDbArc
50
89.999104221754706
51
179.99979509610364
0
ARC
5
406
100
AcDbEntity
8
0
100
AcDbCircle
10
32.611727339245526
20
69.892639346057493
30
0
40
0.49999792277644139
100
AcDbArc
50
-89.999680349236471
51
0.00051021601677674077
0
LINE
5
407
100
AcDbEntity
8
0
100
AcDbLine
10
-4.200773972086651
20
88.442641789821778
30
0
11
8.7992300214245489
21
88.442641789821778
31
0
0
ARC
5
408
100
AcDbEntity
8
0
100
AcDbCircle
10
-10.250772660770931
20
101.94264338723629
30
0
40
0.50000000000005718
100
AcDbArc
50
-0.00012704312513419565
51
90.000000000009578
0
ARC
5
409
100
AcDbEntity
8
0
100
AcDbCircle
10
19.611725768657049
20
82.892642278585555
30
0
40
0.50000064673732081
100
AcDbArc
50
89.999104221755516
51
179.99979509610364
0
LINE
5
410
100
AcDbEntity
8
0
100
AcDbLine
10
66.73671798128629
20
50.842642332224052
30
0
11
66.73671798128629
21
63.842646325735259
31
0
0
LINE
5
411
100
AcDbEntity
8
0
100
AcDbLine
10
0.5617340030148199
20
83.392641986517106
30
0
11
13.561730545945421
21
83.392641986517106
31
0
0
ARC
5
412
100
AcDbEntity
8
0
100
AcDbCircle
10
33.899226230572985
20
101.9426422785838
30
0
40
0.5000011086538193
100
AcDbArc
50
89.999872957628753
51
179.99979509610364
0
ARC
5
413
100
AcDbEntity
8
0
100
AcDbCircle
10
13.561727339245362
20
69.892639346057493
30
0
40
0.49999792277645028
100
AcDbArc
50
-89.999680349236471
51
0.00051021601677674077
0
ARC
5
414
100
AcDbEntity
8
0
100
AcDbCircle
10
8.7992273392102476
20
101.9426452111436
30
0
40
0.49999817609275932
100
AcDbArc
50
-0.00013113974322590316
51
89.999999997830713
0
LINE
5
415
100
AcDbEntity
8
0
100
AcDbLine
10
-4.200773972086651
20
102.44264408460052
30
0
11
8.7992300214245489
21
102.44264408460052
31
0
0
LINE
5
416
100
AcDbEntity
8
0
100
AcDbLine
10
28.349225682206402
20
88.942642803100739
30
0
11
28.349225682206402
21
101.9426430713216
31
0
0
ARC
5
417
100
AcDbEntity
8
0
100
AcDbCircle
10
95.811726230573896
20
69.892642278583324
30
0
40
0.50000110865342595
100
AcDbArc
50
179.99982583226875
51
270.00012704231256
0
LINE
5
418
100
AcDbEntity
8
0
100
AcDbLine
10
42.636727255769031
20
50.842642332224052
30
0
11
42.636727255769031
21
63.842646325735259
31
0
0
LINE
5
419
100
AcDbEntity
8
0
100
AcDbLine
10
23.586725157685532
20
50.842642332224052
30
0
11
23.586725157685532
21
63.842646325735259
31
0
0
LINE
5
420
100
AcDbEntity
8
0
100
AcDbLine
10
-4.7007749853656122
20
88.942642803100739
30
0
11
-4.7007749853656122
21
101.9426430713216
31
0
0
LINE
5
421
100
AcDbEntity
8
0
100
AcDbLine
10
9.5867265881970081
20
50.842642332224052
30
0
11
9.5867265881970081
21
63.842646325735259
31
0
0
LINE
5
422
100
AcDbEntity
8
0
100
AcDbLine
10
52.161728304810779
20
69.892644430307541
30
0
11
52.161728304810779
21
82.892644698528443
31
0
0
LINE
5
423
100
AcDbEntity
8
0
100
AcDbLine
10
95.311721128411534
20
69.892644430307541
30
0
11
95.311721128411534
21
82.892644698528443
31
0
0
ARC
5
424
100
AcDbEntity
8
0
100
AcDbCircle
10
10.08672623057349
20
50.842642278583163
30
0
40
0.50000110865342817
100
AcDbArc
50
179.99982583226875
51
270.00012704231341
0
LINE
5
425
100
AcDbEntity
8
0
100
AcDbLine
10
0.5617340030148199
20
69.39264341702858
30
0
11
13.561730545945421
21
69.39264341702858
31
0
0
LINE
5
426
100
AcDbEntity
8
0
100
AcDbLine
10
9.2992235841229114
20
88.942642803100739
30
0
11
9.2992235841229114
21
101.9426430713216
31
0
0
ARC
5
427
100
AcDbEntity
8
0
100
AcDbCircle
10
76.761726230573686
20
69.892642278583324
30
0
40
0.50000110865342595
100
AcDbArc
50
179.99982583226875
51
270.0001270423142
0
ARC
5
428
100
AcDbEntity
8
0
100
AcDbCircle
10
29.136725768656699
20
63.842642278585402
30
0
40
0.50000064673732081
100
AcDbArc
50
89.999104221755914
51
179.99979509610364
0
LINE
5
429
100
AcDbEntity
8
0
100
AcDbLine
10
99.786718648858326
20
50.842642332224052
30
0
11
99.786718648858326
21
63.842646325735259
31
0
0
LINE
5
430
100
AcDbEntity
8
0
100
AcDbLine
10
33.399221760220783
20
88.942642803100739
30
0
11
33.399221760220783
21
101.9426430713216
31
0
0
ARC
5
431
100
AcDbEntity
8
0
100
AcDbCircle
10
38.661725768656318
20
82.892642278585555
30
0
40
0.50000064673732081
100
AcDbArc
50
89.999104221754706
51
179.99979509610364
0
LINE
5
432
100
AcDbEntity
8
0
100
AcDbLine
10
28.636728686280502
20
50.842642332224052
30
0
11
28.636728686280502
21
63.842646325735259
31
0
0
ARC
5
433
100
AcDbEntity
8
0
100
AcDbCircle
10
8.7992273392291764
20
88.942639346023441
30
0
40
0.49999817609235109
100
AcDbArc
50
-89.99999999999919
51
0.00051021958843493914
0
LINE
5
434
100
AcDbEntity
8
0
100
AcDbLine
10
62.474240821786182
20
107.49264202526008
30
0
11
75.474237364716771
21
107.49264202526008
31
0
0
ARC
5
435
100
AcDbEntity
8
0
100
AcDbCircle
10
0.56172597727358209
20
69.892642278584105
30
0
40
0.50000085535314454
100
AcDbArc
50
179.99982583226875
51
270.00087187176001
0
LINE
5
436
100
AcDbEntity
8
0
100
AcDbLine
10
71.211730402894261
20
69.892644430307541
30
0
11
71.211730402894261
21
82.892644698528443
31
0
0
ARC
5
437
100
AcDbEntity
8
0
100
AcDbCircle
10
42.136727339245176
20
50.842639346057332
30
0
40
0.49999792277645028
100
AcDbArc
50
-89.999680349234836
51
0.00051021601677674077
0
ARC
5
438
100
AcDbEntity
8
0
100
AcDbCircle
10
29.136725977273397
20
50.842642278583909
30
0
40
0.50000085535314298
100
AcDbArc
50
179.99982583226875
51
270.00087187176058
0
LINE
5
439
100
AcDbEntity
8
0
100
AcDbLine
10
14.349227112717882
20
88.942642803100739
30
0
11
14.349227112717882
21
101.9426430713216
31
0
0
ARC
5
440
100
AcDbEntity
8
0
100
AcDbCircle
10
14.84922623057332
20
88.942642278583293
30
0
40
0.50000110865342595
100
AcDbArc
50
179.99982583226875
51
270.00012704231159
0
LINE
5
441
100
AcDbEntity
8
0
100
AcDbLine
10
66.449229878373387
20
88.942642803100739
30
0
11
66.449229878373387
21
101.9426430713216
31
0
0
LINE
5
442
100
AcDbEntity
8
0
100
AcDbLine
10
4.5367230596020391
20
50.842642332224052
30
0
11
4.5367230596020391
21
63.842646325735259
31
0
0
ARC
5
443
100
AcDbEntity
8
0
100
AcDbCircle
10
46.899227339228631
20
88.942639346023441
30
0
40
0.49999817609235109
100
AcDbArc
50
-89.99999999999919
51
0.00051021958843493914
0
LINE
5
444
100
AcDbEntity
8
0
100
AcDbLine
10
57.711732846684711
20
69.39264341702858
30
0
11
70.711736840195897
21
69.39264341702858
31
0
0
ARC
5
445
100
AcDbEntity
8
0
100
AcDbCircle
10
38.661725977273022
20
69.892642278584105
30
0
40
0.50000085535314298
100
AcDbArc
50
179.99982583226875
51
270.00087187176098
0
LINE
5
446
100
AcDbEntity
8
0
100
AcDbLine
10
76.261719030328038
20
69.892644430307541
30
0
11
76.261719030328038
21
82.892644698528443
31
0
0
ARC
5
447
100
AcDbEntity
8
0
100
AcDbCircle
10
33.899226230573504
20
88.942642278583293
30
0
40
0.50000110865343039
100
AcDbArc
50
179.99982583226875
51
270.00012704231256
0
LINE
5
448
100
AcDbEntity
8
0
100
AcDbLine
10
47.399227780289898
20
88.942642803100739
30
0
11
47.399227780289898
21
101.9426430713216
31
0
0
ARC
5
449
100
AcDbEntity
8
0
100
AcDbCircle
10
52.949226230573686
20
88.942642278583293
30
0
40
0.50000110865342595
100
AcDbArc
50
179.99982583226875
51
270.00012704231176
0
LINE
5
450
100
AcDbEntity
8
0
100
AcDbLine
10
19.611736101098309
20
69.39264341702858
30
0
11
32.611732644028912
21
69.39264341702858
31
0
0
LINE
5
451
100
AcDbEntity
8
0
100
AcDbLine
10
29.13673715014006
20
64.342639888433609
30
0
11
42.13673369307066
21
64.342639888433609
31
0
0
LINE
5
452
100
AcDbEntity
8
0
100
AcDbLine
10
14.849228125996841
20
88.442641789821778
30
0
11
27.849224668927445
21
88.442641789821778
31
0
0
ARC
5
453
100
AcDbEntity
8
0
100
AcDbCircle
10
4.0367273392095182
20
63.842645211143569
30
0
40
0.49999817609275987
100
AcDbArc
50
-0.00013113974322590316
51
89.999999997830912
0
LINE
5
454
100
AcDbEntity
8
0
100
AcDbLine
10
61.68672935385252
20
50.842642332224052
30
0
11
61.68672935385252
21
63.842646325735259
31
0
0
ARC
5
455
100
AcDbEntity
8
0
100
AcDbCircle
10
65.949227339243748
20
88.942639599339358
30
0
40
0.49999792277645916
100
AcDbArc
50
-89.999680349066296
51
0.00048119140187649661
0
ARC
5
456
100
AcDbEntity
8
0
100
AcDbCircle
10
70.711727547842258
20
82.892645211107862
30
0
40
0.49999771416066219
100
AcDbArc
50
-0.00013113696398088918
51
89.999704252694826
0
ARC
5
457
100
AcDbEntity
8
0
100
AcDbCircle
10
67.236725768657095
20
63.842642278585402
30
0
40
0.50000064673732969
100
AcDbArc
50
89.999104221755516
51
179.99979509610364
0
ARC
5
458
100
AcDbEntity
8
0
100
AcDbCircle
10
89.761727339228827
20
69.892639346023458
30
0
40
0.49999817609233332
100
AcDbArc
50
-90
51
0.00051021958843493914
0
LINE
5
459
100
AcDbEntity
8
0
100
AcDbLine
10
71.49921850580715
20
88.942642803100739
30
0
11
71.49921850580715
21
101.9426430713216
31
0
0
LINE
5
460
100
AcDbEntity
8
0
100
AcDbLine
10
52.94922487158324
20
88.442641789821778
30
0
11
65.949236315675023
21
88.442641789821778
31
0
0
ARC
5
461
100
AcDbEntity
8
0
100
AcDbCircle
10
13.561727547842661
20
82.892645211107862
30
0
40
0.49999771416062666
100
AcDbArc
50
-0.00013113696398088918
51
89.99970425270358
0
ARC
5
462
100
AcDbEntity
8
0
100
AcDbCircle
10
-4.2007737694259637
20
88.942642278583293
30
0
40
0.50000110865342595
100
AcDbArc
50
179.99982583226875
51
270.0001270423133
0
ARC
5
463
100
AcDbEntity
8
0
100
AcDbCircle
10
23.08672733922862
20
50.842639346023297
30
0
40
0.49999817609235109
100
AcDbArc
50
-89.999999999998778
51
0.00051021958843493914
0
LINE
5
464
100
AcDbEntity
8
0
100
AcDbLine
10
29.13673715014006
20
50.342641318945098
30
0
11
42.13673369307066
21
50.342641318945098
31
0
0
LINE
5
465
100
AcDbEntity
8
0
100
AcDbLine
10
24.374236625619194
20
107.49264202526008
30
0
11
37.374233168549793
21
107.49264202526008
31
0
0
ARC
5
466
100
AcDbEntity
8
0
100
AcDbCircle
10
27.849227339209524
20
101.9426452111436
30
0
40
0.49999817609275932
100
AcDbArc
50
-0.00013113974322590316
51
89.99999999783131
0
ARC
5
467
100
AcDbEntity
8
0
100
AcDbCircle
10
-5.4882726607548307
20
69.892639346057507
30
0
40
0.49999792277645028
100
AcDbArc
50
-89.999680349236471
51
0.00051021601677674077
0
LINE
5
468
100
AcDbEntity
8
0
100
AcDbLine
10
19.611736101098309
20
83.392641986517106
30
0
11
32.611732644028912
21
83.392641986517106
31
0
0
LINE
5
469
100
AcDbEntity
8
0
100
AcDbLine
10
57.711732846684711
20
83.392641986517106
30
0
11
70.711736840195897
21
83.392641986517106
31
0
0
LINE
5
470
100
AcDbEntity
8
0
100
AcDbLine
10
48.186731797642963
20
50.342641318945098
30
0
11
61.186735791154156
21
50.342641318945098
31
0
0
ARC
5
471
100
AcDbEntity
8
0
100
AcDbCircle
10
71.999226230573868
20
88.942642278583293
30
0
40
0.50000110865342595
100
AcDbArc
50
179.99982583226875
51
270.0001270423142
0
ARC
5
472
100
AcDbEntity
8
0
100
AcDbCircle
10
67.23672597727375
20
50.842642278583909
30
0
40
0.50000085535314742
100
AcDbArc
50
179.99982583226875
51
270.00087187176428
0
LINE
5
473
100
AcDbEntity
8
0
100
AcDbLine
10
85.786720079369786
20
50.842642332224052
30
0
11
85.786720079369786
21
63.842646325735259
31
0
0
ARC
5
474
100
AcDbEntity
8
0
100
AcDbCircle
10
84.999227339228995
20
88.942639346023441
30
0
40
0.49999817609235109
100
AcDbArc
50
-90
51
0.00051021958843493914
0
ARC
5
475
100
AcDbEntity
8
0
100
AcDbCircle
10
86.286725768656368
20
63.842642278585402
30
0
40
0.50000064673732969
100
AcDbArc
50
89.999104221755516
51
179.99979509610364
0
LINE
5
476
100
AcDbEntity
8
0
100
AcDbLine
10
52.449223858304279
20
88.942642803100739
30
0
11
52.449223858304279
21
101.9426430713216
31
0
0
LINE
5
477
100
AcDbEntity
8
0
100
AcDbLine
10
48.186731797642963
20
64.342639888433609
30
0
11
61.186735791154156
21
64.342639888433609
31
0
0
LINE
5
478
100
AcDbEntity
8
0
100
AcDbLine
10
76.761727494187596
20
69.39264341702858
30
0
11
89.761724037118199
21
69.39264341702858
31
0
0
LINE
5
479
100
AcDbEntity
8
0
100
AcDbLine
10
85.499231976456883
20
88.942642803100739
30
0
11
85.499231976456883
21
101.9426430713216
31
0
0
ARC
5
480
100
AcDbEntity
8
0
100
AcDbCircle
10
80.236727547842804
20
63.842645211107651
30
0
40
0.49999771416066219
100
AcDbArc
50
-0.00013113696398088918
51
89.999704252694826
0
LINE
5
481
100
AcDbEntity
8
0
100
AcDbLine
10
37.87422673124815
20
131.80514379849831
30
0
11
37.87422673124815
21
144.80514406671918
31
0
0
LINE
5
482
100
AcDbEntity
8
0
100
AcDbLine
10
86.286728543229344
20
50.342641318945098
30
0
11
99.286725086159962
21
50.342641318945098
31
0
0
ARC
5
483
100
AcDbEntity
8
0
100
AcDbCircle
10
-38.825772452157146
20
120.99264521110771
30
0
40
0.49999771416063998
100
AcDbArc
50
-0.00013113696398088918
51
89.999704252703779
0
ARC
5
484
100
AcDbEntity
8
0
100
AcDbCircle
10
48.186725977273582
20
50.842642278583909
30
0
40
0.50000085535314742
100
AcDbArc
50
179.99982583226875
51
270.00087187176098
0
ARC
5
485
100
AcDbEntity
8
0
100
AcDbCircle
10
91.04922623057405
20
88.942642278583293
30
0
40
0.50000110865340819
100
AcDbArc
50
179.99982583226875
51
270.00012704231256
0
ARC
5
486
100
AcDbEntity
8
0
100
AcDbCircle
10
95.811726230573385
20
82.892642278583935
30
0
40
0.5000011086538193
100
AcDbArc
50
89.999872957627119
51
179.99979509610364
0
ARC
5
487
100
AcDbEntity
8
0
100
AcDbCircle
10
-57.875772452157364
20
120.99264521110771
30
0
40
0.49999771416066219
100
AcDbArc
50
-0.00013113696398088918
51
89.999704252699715
0
ARC
5
488
100
AcDbEntity
8
0
100
AcDbCircle
10
46.899227339209702
20
101.9426452111436
30
0
40
0.49999817609276376
100
AcDbArc
50
-0.00013113974322590316
51
89.999999997830912
0
LINE
5
489
100
AcDbEntity
8
0
100
AcDbLine
10
-19.275775837712029
20
131.80514379849831
30
0
11
-19.275775837712029
21
144.80514406671918
31
0
0
LINE
5
490
100
AcDbEntity
8
0
100
AcDbLine
10
-52.325774642638905
20
107.99264303853903
30
0
11
-52.325774642638905
21
120.99264330675993
31
0
0
ARC
5
491
100
AcDbEntity
8
0
100
AcDbCircle
10
71.999226230573356
20
101.9426422785838
30
0
40
0.5000011086538193
100
AcDbArc
50
89.999872957627119
51
179.99979509610364
0
ARC
5
492
100
AcDbEntity
8
0
100
AcDbCircle
10
-19.775772452157891
20
120.99264521110771
30
0
40
0.49999771416063776
100
AcDbArc
50
-0.00013113696398088918
51
89.999704252701747
0
ARC
5
493
100
AcDbEntity
8
0
100
AcDbCircle
10
51.661727339244798
20
69.892639346057493
30
0
40
0.49999792277645028
100
AcDbArc
50
-89.999680349236471
51
0.00051021601677674077
0
ARC
5
494
100
AcDbEntity
8
0
100
AcDbCircle
10
-32.775774231343668
20
144.80514227858544
30
0
40
0.50000064673735634
100
AcDbArc
50
89.99910422175634
51
179.99979509610364
0
ARC
5
495
100
AcDbEntity
8
0
100
AcDbCircle
10
-70.875774231343129
20
120.99264227858549
30
0
40
0.50000064673733857
100
AcDbArc
50
89.999104221755516
51
179.99979509610364
0
LINE
5
496
100
AcDbEntity
8
0
100
AcDbLine
10
52.94922487158324
20
102.44264408460052
30
0
11
65.949236315675023
21
102.44264408460052
31
0
0
ARC
5
497
100
AcDbEntity
8
0
100
AcDbCircle
10
57.711725768656493
20
82.892642278585555
30
0
40
0.50000064673732081
100
AcDbArc
50
89.999104221754706
51
179.99979509610364
0
LINE
5
498
100
AcDbEntity
8
0
100
AcDbLine
10
67.236726445145848
20
64.342639888433609
30
0
11
80.236722988076451
21
64.342639888433609
31
0
0
LINE
5
499
100
AcDbEntity
8
0
100
AcDbLine
10
4.8242260636761349
20
131.80514379849831
30
0
11
4.8242260636761349
21
144.80514406671918
31
0
0
ARC
5
500
100
AcDbEntity
8
0
100
AcDbCircle
10
48.186725768656871
20
63.842642278585402
30
0
40
0.50000064673732081
100
AcDbArc
50
89.999104221754706
51
179.99979509610364
0
LINE
5
501
100
AcDbEntity
8
0
100
AcDbLine
10
90.54922060389066
20
88.942642803100739
30
0
11
90.54922060389066
21
101.9426430713216
31
0
0
ARC
5
502
100
AcDbEntity
8
0
100
AcDbCircle
10
86.286725977273008
20
50.842642278583909
30
0
40
0.50000085535314742
100
AcDbArc
50
179.99982583226875
51
270.00087187176098
0
LINE
5
503
100
AcDbEntity
8
0
100
AcDbLine
10
76.761727494187596
20
83.392641986517106
30
0
11
89.761724037118199
21
83.392641986517106
31
0
0
ARC
5
504
100
AcDbEntity
8
0
100
AcDbCircle
10
61.186727339245351
20
50.842639346057332
30
0
40
0.49999792277645028
100
AcDbArc
50
-89.999680349232392
51
0.00051021601677674077
0
ARC
5
505
100
AcDbEntity
8
0
100
AcDbCircle
10
57.711725977273211
20
69.892642278584105
30
0
40
0.50000085535314742
100
AcDbArc
50
179.99982583226875
51
270.00087187176018
0
LINE
5
506
100
AcDbEntity
8
0
100
AcDbLine
10
-13.725767570547802
20
145.30514275169168
30
0
11
-0.72577102761719914
21
145.30514275169168
31
0
0
ARC
5
507
100
AcDbEntity
8
0
100
AcDbCircle
10
-70.875774022726446
20
131.80514227858401
30
0
40
0.50000085535312966
100
AcDbArc
50
179.99982583226875
51
270.00087187176263
0
LINE
5
508
100
AcDbEntity
8
0
100
AcDbLine
10
67.236726445145848
20
50.342641318945098
30
0
11
80.236722988076451
21
50.342641318945098
31
0
0
LINE
5
509
100
AcDbEntity
8
0
100
AcDbLine
10
80.736731451936009
20
50.842642332224052
30
0
11
80.736731451936009
21
63.842646325735259
31
0
0
ARC
5
510
100
AcDbEntity
8
0
100
AcDbCircle
10
80.236727339245547
20
50.842639346057332
30
0
40
0.49999792277645028
100
AcDbArc
50
-89.999680349234026
51
0.00051021601677674077
0
ARC
5
511
100
AcDbEntity
8
0
100
AcDbCircle
10
61.186727547842622
20
63.842645211107651
30
0
40
0.49999771416065331
100
AcDbArc
50
-0.00013113696398088918
51
89.999704252697271
0
ARC
5
512
100
AcDbEntity
8
0
100
AcDbCircle
10
-19.775772452157891
20
144.80514521110769
30
0
40
0.49999771416066663
100
AcDbArc
50
-0.00013113696398088918
51
89.999704252701747
0
LINE
5
513
100
AcDbEntity
8
0
100
AcDbLine
10
-32.775765943340986
20
121.49264245739371
30
0
11
-19.77576940041039
21
121.49264245739371
31
0
0
ARC
5
514
100
AcDbEntity
8
0
100
AcDbCircle
10
89.761727339209955
20
82.892645211143744
30
0
40
0.49999817609275488
100
AcDbArc
50
-0.00013113974322590316
51
89.999999997834166
0
LINE
5
515
100
AcDbEntity
8
0
100
AcDbLine
10
86.286728543229344
20
64.342639888433609
30
0
11
99.286725086159962
21
64.342639888433609
31
0
0
LINE
5
516
100
AcDbEntity
8
0
100
AcDbLine
10
81.524228018708442
20
107.49264202526008
30
0
11
94.524224561639073
21
107.49264202526008
31
0
0
ARC
5
517
100
AcDbEntity
8
0
100
AcDbCircle
10
52.949226230573174
20
101.9426422785838
30
0
40
0.5000011086538193
100
AcDbArc
50
89.999872957630373
51
179.99979509610364
0
LINE
5
518
100
AcDbEntity
8
0
100
AcDbLine
10
47.686723333783398
20
50.842642332224052
30
0
11
47.686723333783398
21
63.842646325735259
31
0
0
LINE
5
519
100
AcDbEntity
8
0
100
AcDbLine
10
71.999226969666722
20
88.442641789821778
30
0
11
84.999223512597325
21
88.442641789821778
31
0
0
LINE
5
520
100
AcDbEntity
8
0
100
AcDbLine
10
23.874228161759628
20
131.80514379849831
30
0
11
23.874228161759628
21
144.80514406671918
31
0
0
ARC
5
521
100
AcDbEntity
8
0
100
AcDbCircle
10
99.286727339244806
20
50.842639346057332
30
0
40
0.49999792277645028
100
AcDbArc
50
-89.999680349234026
51
0.00051021601677674077
0
ARC
5
522
100
AcDbEntity
8
0
100
AcDbCircle
10
51.661727547842126
20
82.892645211107862
30
0
40
0.49999771416062666
100
AcDbArc
50
-0.00013113696398088918
51
89.999704252702969
0
ARC
5
523
100
AcDbEntity
8
0
100
AcDbCircle
10
65.94922754784244
20
101.94264474921049
30
0
40
0.49999771416063549
100
AcDbArc
50
-7.8207716533326913e-05
51
89.999704252686684
0
ARC
5
524
100
AcDbEntity
8
0
100
AcDbCircle
10
99.286727547842091
20
63.842645211107651
30
0
40
0.49999771416064442
100
AcDbArc
50
-0.00013113696398088918
51
89.999704252699715
0
LINE
5
525
100
AcDbEntity
8
0
100
AcDbLine
10
71.999226969666722
20
102.44264408460052
30
0
11
84.999223512597325
21
102.44264408460052
31
0
0
ARC
5
526
100
AcDbEntity
8
0
100
AcDbCircle
10
70.711727339244959
20
69.892639346057507
30
0
40
0.49999792277645916
100
AcDbArc
50
-89.999680349232392
51
0.00051021601677674077
0
ARC
5
527
100
AcDbEntity
8
0
100
AcDbCircle
10
76.76172623057316
20
82.892642278583935
30
0
40
0.5000011086538193
100
AcDbArc
50
89.999872957627119
51
179.99979509610364
0
ARC
5
528
100
AcDbEntity
8
0
100
AcDbCircle
10
91.04922623057405
20
131.80514227858319
30
0
40
0.50000110865344372
100
AcDbArc
50
179.99982583226875
51
270.00012704231256
0
ARC
5
529
100
AcDbEntity
8
0
100
AcDbCircle
10
37.374227547842658
20
144.80514521110769
30
0
40
0.49999771416063998
100
AcDbArc
50
-0.00013113696398088918
51
89.999704252702969
0
ARC
5
530
100
AcDbEntity
8
0
100
AcDbCircle
10
5.3242259772734002
20
131.80514227858401
30
0
40
0.50000085535314187
100
AcDbArc
50
179.99982583226875
51
270.00087187176007
0
ARC
5
531
100
AcDbEntity
8
0
100
AcDbCircle
10
-70.875774231343129
20
144.80514227858544
30
0
40
0.50000064673733857
100
AcDbArc
50
89.999104221755516
51
179.99979509610364
0
ARC
5
532
100
AcDbEntity
8
0
100
AcDbCircle
10
84.999227339210037
20
101.9426452111436
30
0
40
0.49999817609277264
100
AcDbArc
50
-0.00013113974322590316
51
89.999999997829292
0
LINE
5
533
100
AcDbEntity
8
0
100
AcDbLine
10
-33.275774407200551
20
131.80514379849831
30
0
11
-33.275774407200551
21
144.80514406671918
31
0
0
ARC
5
534
100
AcDbEntity
8
0
100
AcDbCircle
10
18.324227339245162
20
131.80513934605742
30
0
40
0.49999792277645916
100
AcDbArc
50
-89.999680349235234
51
0.00051021601677674077
0
LINE
5
535
100
AcDbEntity
8
0
100
AcDbLine
10
-32.775765943340986
20
131.30514138823548
30
0
11
-19.77576940041039
21
131.30514138823548
31
0
0
ARC
5
536
100
AcDbEntity
8
0
100
AcDbCircle
10
-13.72577402272678
20
131.80514227858401
30
0
40
0.50000085535312966
100
AcDbArc
50
179.99982583226875
51
270.00087187176143
0
LINE
5
537
100
AcDbEntity
8
0
100
AcDbLine
10
-33.275774407200551
20
107.99264303853903
30
0
11
-33.275774407200551
21
120.99264330675993
31
0
0
ARC
5
538
100
AcDbEntity
8
0
100
AcDbCircle
10
-51.82577423134294
20
120.99264227858549
30
0
40
0.50000064673733857
100
AcDbArc
50
89.999104221754706
51
179.99979509610364
0
ARC
5
539
100
AcDbEntity
8
0
100
AcDbCircle
10
-19.775772660755191
20
131.80513934605742
30
0
40
0.49999792277644139
100
AcDbArc
50
-89.999680349235234
51
0.00051021601677674077
0
LINE
5
540
100
AcDbEntity
8
0
100
AcDbLine
10
-57.375774911604864
20
131.80514379849831
30
0
11
-57.375774911604864
21
144.80514406671918
31
0
0
LINE
5
541
100
AcDbEntity
8
0
100
AcDbLine
10
-13.725767570547802
20
121.49264245739371
30
0
11
-0.72577102761719914
21
121.49264245739371
31
0
0
LINE
5
542
100
AcDbEntity
8
0
100
AcDbLine
10
5.3242345275356939
20
121.49264245739371
30
0
11
18.32423107046629
21
121.49264245739371
31
0
0
LINE
5
543
100
AcDbEntity
8
0
100
AcDbLine
10
-71.375774878077252
20
107.99264303853903
30
0
11
-71.375774878077252
21
120.99264330675993
31
0
0
LINE
5
544
100
AcDbEntity
8
0
100
AcDbLine
10
-0.22577746491883491
20
131.80514379849831
30
0
11
-0.22577746491883491
21
144.80514406671918
31
0
0
LINE
5
545
100
AcDbEntity
8
0
100
AcDbLine
10
18.824224633164661
20
131.80514379849831
30
0
11
18.824224633164661
21
144.80514406671918
31
0
0
ARC
5
546
100
AcDbEntity
8
0
100
AcDbCircle
10
94.524227547842287
20
120.99264521110771
30
0
40
0.49999771416066219
100
AcDbArc
50
-0.00013113696398088918
51
89.999704252696446
0
LINE
5
547
100
AcDbEntity
8
0
100
AcDbLine
10
-38.32577421050523
20
107.99264303853903
30
0
11
-38.32577421050523
21
120.99264330675993
31
0
0
LINE
5
548
100
AcDbEntity
8
0
100
AcDbLine
10
-13.725767570547802
20
131.30514138823548
30
0
11
-0.72577102761719914
21
131.30514138823548
31
0
0
ARC
5
549
100
AcDbEntity
8
0
100
AcDbCircle
10
-13.725774231343502
20
144.80514227858544
30
0
40
0.50000064673733857
100
AcDbArc
50
89.999104221753072
51
179.99979509610364
0
LINE
5
550
100
AcDbEntity
8
0
100
AcDbLine
10
-14.22577603440736
20
131.80514379849831
30
0
11
-14.22577603440736
21
144.80514406671918
31
0
0
LINE
5
551
100
AcDbEntity
8
0
100
AcDbLine
10
-19.275775837712029
20
107.99264303853903
30
0
11
-19.275775837712029
21
120.99264330675993
31
0
0
ARC
5
552
100
AcDbEntity
8
0
100
AcDbCircle
10
-32.775774022726964
20
131.80514227858401
30
0
40
0.5000008553531341
100
AcDbArc
50
179.99982583226875
51
270.00087187176018
0
ARC
5
553
100
AcDbEntity
8
0
100
AcDbCircle
10
-13.725774231343502
20
120.99264227858549
30
0
40
0.50000064673732081
100
AcDbArc
50
89.999104221753072
51
179.99979509610364
0
LINE
5
554
100
AcDbEntity
8
0
100
AcDbLine
10
-71.375774878077266
20
131.80514379849836
30
0
11
-71.375774878077266
21
144.80514406671918
31
0
0
ARC
5
555
100
AcDbEntity
8
0
100
AcDbCircle
10
-32.775774231343668
20
120.99264227858549
30
0
40
0.50000064673732081
100
AcDbArc
50
89.99910422175634
51
179.99979509610364
0
LINE
5
556
100
AcDbEntity
8
0
100
AcDbLine
10
43.424231273122082
20
121.49264245739371
30
0
11
56.424227816052685
21
121.49264245739371
31
0
0
LINE
5
557
100
AcDbEntity
8
0
100
AcDbLine
10
71.999226969666722
20
131.30514138823548
30
0
11
84.999223512597325
21
131.30514138823548
31
0
0
ARC
5
558
100
AcDbEntity
8
0
100
AcDbCircle
10
-57.875772452157364
20
144.80514521110769
30
0
40
0.49999771416066219
100
AcDbArc
50
-0.00013113696398088918
51
89.999704252699715
0
LINE
5
559
100
AcDbEntity
8
0
100
AcDbLine
10
-51.825766178779347
20
121.49264245739371
30
0
11
-38.825769635848744
21
121.49264245739371
31
0
0
LINE
5
560
100
AcDbEntity
8
0
100
AcDbLine
10
-70.875766414217694
20
121.49264245739371
30
0
11
-57.875769871287098
21
121.49264245739371
31
0
0
LINE
5
561
100
AcDbEntity
8
0
100
AcDbLine
10
56.924228829331646
20
107.99264303853903
30
0
11
56.924228829331646
21
120.99264330675993
31
0
0
ARC
5
562
100
AcDbEntity
8
0
100
AcDbCircle
10
91.049226230573538
20
101.9426422785838
30
0
40
0.5000011086538193
100
AcDbArc
50
89.999872957627119
51
179.99979509610364
0
LINE
5
563
100
AcDbEntity
8
0
100
AcDbLine
10
-32.775765943340986
20
145.30514275169168
30
0
11
-19.77576940041039
21
145.30514275169168
31
0
0
ARC
5
564
100
AcDbEntity
8
0
100
AcDbCircle
10
56.424227547842854
20
120.99264521110771
30
0
40
0.49999771416062666
100
AcDbArc
50
-0.00013113696398088918
51
89.999704252703779
0
LINE
5
565
100
AcDbEntity
8
0
100
AcDbLine
10
-57.375774911604864
20
107.99264303853903
30
0
11
-57.375774911604864
21
120.99264330675993
31
0
0
LINE
5
566
100
AcDbEntity
8
0
100
AcDbLine
10
62.474240821786182
20
121.49264245739371
30
0
11
75.474237364716771
21
121.49264245739371
31
0
0
LINE
5
567
100
AcDbEntity
8
0
100
AcDbLine
10
52.94922487158324
20
131.30514138823548
30
0
11
65.949236315675023
21
131.3051418538968
31
0
0
ARC
5
568
100
AcDbEntity
8
0
100
AcDbCircle
10
65.949227339243748
20
131.8051395993393
30
0
40
0.49999792277645916
100
AcDbArc
50
-89.999680349066296
51
0.00048119140187649661
0
ARC
5
569
100
AcDbEntity
8
0
100
AcDbCircle
10
-57.875772660754649
20
131.80513934605742
30
0
40
0.49999792277645916
100
AcDbArc
50
-89.999680349235646
51
0.00051021601677674077
0
LINE
5
570
100
AcDbEntity
8
0
100
AcDbLine
10
-70.875766414217694
20
145.30514275169168
30
0
11
-57.875769871287098
21
145.30514275169168
31
0
0
ARC
5
571
100
AcDbEntity
8
0
100
AcDbCircle
10
100.57422576865673
20
120.99264227858549
30
0
40
0.50000064673733857
100
AcDbArc
50
89.999104221755516
51
179.99979509610364
0
LINE
5
572
100
AcDbEntity
8
0
100
AcDbLine
10
-14.22577603440736
20
107.99264303853903
30
0
11
-14.22577603440736
21
120.99264330675993
31
0
0
LINE
5
573
100
AcDbEntity
8
0
100
AcDbLine
10
-70.875766414217694
20
131.30514138823548
30
0
11
-57.875769871287098
21
131.30514138823548
31
0
0
LINE
5
574
100
AcDbEntity
8
0
100
AcDbLine
10
71.999226969666722
20
145.30514321735299
30
0
11
84.999223512597325
21
145.30514321735299
31
0
0
LINE
5
575
100
AcDbEntity
8
0
100
AcDbLine
10
4.8242260636761349
20
107.99264303853903
30
0
11
4.8242260636761349
21
120.99264330675993
31
0
0
LINE
5
576
100
AcDbEntity
8
0
100
AcDbLine
10
75.974230927415135
20
107.99264303853903
30
0
11
75.974230927415135
21
120.99264330675993
31
0
0
LINE
5
577
100
AcDbEntity
8
0
100
AcDbLine
10
90.54922060389066
20
131.80514379849831
30
0
11
90.54922060389066
21
144.80514406671918
31
0
0
LINE
5
578
100
AcDbEntity
8
0
100
AcDbLine
10
37.87422673124815
20
107.99264303853903
30
0
11
37.87422673124815
21
120.99264330675993
31
0
0
LINE
5
579
100
AcDbEntity
8
0
100
AcDbLine
10
81.024219554848912
20
107.99264303853903
30
0
11
81.024219554848912
21
120.99264330675993
31
0
0
ARC
5
580
100
AcDbEntity
8
0
100
AcDbCircle
10
24.374225768656874
20
144.80514227858544
30
0
40
0.50000064673733857
100
AcDbArc
50
89.999104221754706
51
179.99979509610364
0
LINE
5
581
100
AcDbEntity
8
0
100
AcDbLine
10
5.3242345275356939
20
145.30514275169168
30
0
11
18.32423107046629
21
145.30514275169168
31
0
0
ARC
5
582
100
AcDbEntity
8
0
100
AcDbCircle
10
84.999227339210037
20
144.80514521114358
30
0
40
0.49999817609275488
100
AcDbArc
50
-0.00013113974322590316
51
89.999999997829292
0
LINE
5
583
100
AcDbEntity
8
0
100
AcDbLine
10
24.374236625619194
20
131.30514138823548
30
0
11
37.374233168549793
21
131.30514138823548
31
0
0
ARC
5
584
100
AcDbEntity
8
0
100
AcDbCircle
10
158.817977339245
20
31.792639346057321
30
0
40
0.49999792277647248
100
AcDbArc
50
-89.999680349230772
51
0.00051021601677674077
0
ARC
5
585
100
AcDbEntity
8
0
100
AcDbCircle
10
24.374225768656874
20
120.99264227858549
30
0
40
0.50000064673732081
100
AcDbArc
50
89.999104221754706
51
179.99979509610364
0
LINE
5
586
100
AcDbEntity
8
0
100
AcDbLine
10
142.93672637362019
20
31.792640234140549
30
0
11
142.93672637362019
21
44.792644227651756
31
0
0
LINE
5
587
100
AcDbEntity
8
0
100
AcDbLine
10
18.824224633164661
20
107.99264303853903
30
0
11
18.824224633164661
21
120.99264330675993
31
0
0
ARC
5
588
100
AcDbEntity
8
0
100
AcDbCircle
10
-0.72577245215769914
20
144.80514521110769
30
0
40
0.49999771416063832
100
AcDbArc
50
-0.00013113696398088918
51
89.999704252703424
0
ARC
5
589
100
AcDbEntity
8
0
100
AcDbCircle
10
71.999226230573868
20
131.80514227858319
30
0
40
0.50000110865344372
100
AcDbArc
50
179.99982583226875
51
270.0001270423142
0
ARC
5
590
100
AcDbEntity
8
0
100
AcDbCircle
10
75.474227547842062
20
120.99264521110771
30
0
40
0.49999771416066219
100
AcDbArc
50
-0.00013113696398088918
51
89.999704252694826
0
ARC
5
591
100
AcDbEntity
8
0
100
AcDbCircle
10
-0.72577245215769914
20
120.99264521110771
30
0
40
0.49999771416062677
100
AcDbArc
50
-0.00013113696398088918
51
89.999704252703424
0
LINE
5
592
100
AcDbEntity
8
0
100
AcDbLine
10
24.374236625619194
20
121.49264245739371
30
0
11
37.374233168549793
21
121.49264245739371
31
0
0
ARC
5
593
100
AcDbEntity
8
0
100
AcDbCircle
10
84.999227339228995
20
131.8051393460234
30
0
40
0.49999817609236885
100
AcDbArc
50
-90
51
0.00051021958843493914
0
LINE
5
594
100
AcDbEntity
8
0
100
AcDbLine
10
52.449223858304279
20
131.80514379849831
30
0
11
52.449223858304279
21
144.80514406671918
31
0
0
LINE
5
595
100
AcDbEntity
8
0
100
AcDbLine
10
61.974232357926617
20
107.99264303853903
30
0
11
61.974232357926617
21
120.99264330675993
31
0
0
ARC
5
596
100
AcDbEntity
8
0
100
AcDbCircle
10
-0.72577266075501257
20
131.80513934605742
30
0
40
0.49999792277644139
100
AcDbArc
50
-89.999680349236471
51
0.00051021530244210061
0
LINE
5
597
100
AcDbEntity
8
0
100
AcDbLine
10
-0.22577746491883491
20
107.99264303853903
30
0
11
-0.22577746491883491
21
120.99264330675993
31
0
0
LINE
5
598
100
AcDbEntity
8
0
100
AcDbLine
10
95.024218124337438
20
107.99264303853903
30
0
11
95.024218124337438
21
120.99264330675993
31
0
0
ARC
5
599
100
AcDbEntity
8
0
100
AcDbCircle
10
37.374227547842658
20
120.99264521110771
30
0
40
0.4999977141606311
100
AcDbArc
50
-0.00013113696398088918
51
89.999704252702969
0
ARC
5
600
100
AcDbEntity
8
0
100
AcDbCircle
10
5.3242257686566887
20
144.80514227858544
30
0
40
0.50000064673733857
100
AcDbArc
50
89.999104221754706
51
179.99979509610364
0
ARC
5
601
100
AcDbEntity
8
0
100
AcDbCircle
10
37.374227339245358
20
131.80513934605742
30
0
40
0.49999792277644139
100
AcDbArc
50
-89.999680349236471
51
0.00051021601677674077
0
LINE
5
602
100
AcDbEntity
8
0
100
AcDbLine
10
71.49921850580715
20
131.80514379849831
30
0
11
71.49921850580715
21
144.80514406671918
31
0
0
LINE
5
603
100
AcDbEntity
8
0
100
AcDbLine
10
66.449229878373387
20
131.80514379849831
30
0
11
66.449229878373387
21
144.80514406671918
31
0
0
LINE
5
604
100
AcDbEntity
8
0
100
AcDbLine
10
52.94922487158324
20
145.30514321735299
30
0
11
65.949236315675023
21
145.30514228603042
31
0
0
LINE
5
605
100
AcDbEntity
8
0
100
AcDbLine
10
42.924222809262531
20
107.99264303853903
30
0
11
42.924222809262531
21
120.99264330675993
31
0
0
LINE
5
606
100
AcDbEntity
8
0
100
AcDbLine
10
23.874228161759628
20
107.99264303853903
30
0
11
23.874228161759628
21
120.99264330675993
31
0
0
LINE
5
607
100
AcDbEntity
8
0
100
AcDbLine
10
81.524228018708442
20
121.49264245739371
30
0
11
94.524224561639073
21
121.49264245739371
31
0
0
ARC
5
608
100
AcDbEntity
8
0
100
AcDbCircle
10
62.474225768656375
20
120.99264227858549
30
0
40
0.50000064673733857
100
AcDbArc
50
89.999104221754706
51
179.99979509610364
0
ARC
5
609
100
AcDbEntity
8
0
100
AcDbCircle
10
52.949226230573686
20
131.80514227858319
30
0
40
0.50000110865344372
100
AcDbArc
50
179.99982583226875
51
270.00012704231176
0
LINE
5
610
100
AcDbEntity
8
0
100
AcDbLine
10
167.24923746008412
20
31.292639220861588
30
0
11
182.63048426527519
21
31.292639220861588
31
0
0
LINE
5
611
100
AcDbEntity
8
0
100
AcDbLine
10
5.3242345275356939
20
131.30514138823548
30
0
11
18.32423107046629
21
131.30514138823548
31
0
0
LINE
5
612
100
AcDbEntity
8
0
100
AcDbLine
10
24.374236625619194
20
145.30514275169168
30
0
11
37.374233168549793
21
145.30514275169168
31
0
0
ARC
5
613
100
AcDbEntity
8
0
100
AcDbCircle
10
18.324227547842462
20
144.80514521110769
30
0
40
0.49999771416063776
100
AcDbArc
50
-0.00013113696398088918
51
89.999704252701747
0
LINE
5
614
100
AcDbEntity
8
0
100
AcDbLine
10
100.07422165293242
20
107.99264303853903
30
0
11
100.07422165293242
21
120.99264330675993
31
0
0
ARC
5
615
100
AcDbEntity
8
0
100
AcDbCircle
10
24.374225977273582
20
131.80514227858401
30
0
40
0.50000085535313854
100
AcDbArc
50
179.99982583226875
51
270.00087187176058
0
ARC
5
616
100
AcDbEntity
8
0
100
AcDbCircle
10
5.3242257686566887
20
120.99264227858549
30
0
40
0.50000064673732081
100
AcDbArc
50
89.999104221754706
51
179.99979509610364
0
LINE
5
617
100
AcDbEntity
8
0
100
AcDbLine
10
85.499231976456883
20
131.80514379849831
30
0
11
85.499231976456883
21
144.80514406671918
31
0
0
ARC
5
618
100
AcDbEntity
8
0
100
AcDbCircle
10
81.524225768656549
20
120.99264227858549
30
0
40
0.50000064673733857
100
AcDbArc
50
89.999104221753896
51
179.99979509610364
0
ARC
5
619
100
AcDbEntity
8
0
100
AcDbCircle
10
52.949226230573174
20
144.80514227858382
30
0
40
0.50000110865380154
100
AcDbArc
50
89.999872957630373
51
179.99979509610364
0
ARC
5
620
100
AcDbEntity
8
0
100
AcDbCircle
10
18.324227547842462
20
120.99264521110771
30
0
40
0.49999771416063776
100
AcDbArc
50
-0.00013113696398088918
51
89.999704252701747
0
ARC
5
621
100
AcDbEntity
8
0
100
AcDbCircle
10
43.424225768657074
20
120.99264227858549
30
0
40
0.50000064673733857
100
AcDbArc
50
89.99910422175715
51
179.99979509610364
0
ARC
5
622
100
AcDbEntity
8
0
100
AcDbCircle
10
167.24922597727317
20
31.792642278583898
30
0
40
0.50000085535312966
100
AcDbArc
50
179.99982583226875
51
270.00087187176587
0
ARC
5
623
100
AcDbEntity
8
0
100
AcDbCircle
10
132.62422733924529
20
107.99263934605742
30
0
40
0.49999792277647692
100
AcDbArc
50
-89.999680349230772
51
0.00051021601677674077
0
ARC
5
624
100
AcDbEntity
8
0
100
AcDbCircle
10
113.57422733924508
20
107.99263934605742
30
0
40
0.49999792277644139
100
AcDbArc
50
-89.999680349234026
51
0.00051021601677674077
0
ARC
5
625
100
AcDbEntity
8
0
100
AcDbCircle
10
157.72422597727299
20
107.99264227858401
30
0
40
0.50000085535312966
100
AcDbArc
50
179.99982583226875
51
270.00087187176263
0
ARC
5
626
100
AcDbEntity
8
0
100
AcDbCircle
10
143.43672576865652
20
44.79264227858539
30
0
40
0.50000064673734745
100
AcDbArc
50
89.999104221753896
51
179.99979509610364
0
ARC
5
627
100
AcDbEntity
8
0
100
AcDbCircle
10
119.62422597727351
20
107.99264227858401
30
0
40
0.50000085535312966
100
AcDbArc
50
179.99982583226875
51
270.00087187176098
0
ARC
5
628
100
AcDbEntity
8
0
100
AcDbCircle
10
170.72422733924481
20
107.99263934605742
30
0
40
0.49999792277644139
100
AcDbArc
50
-89.999680349234026
51
0.00051021601677674077
0
ARC
5
629
100
AcDbEntity
8
0
100
AcDbCircle
10
118.3367273392449
20
50.842639346057332
30
0
40
0.49999792277645028
100
AcDbArc
50
-89.999680349234026
51
0.00051021601677674077
0
LINE
5
630
100
AcDbEntity
8
0
100
AcDbLine
10
152.46172742266199
20
69.892644430307541
30
0
11
152.46172742266199
21
82.892644698528443
31
0
0
ARC
5
631
100
AcDbEntity
8
0
100
AcDbCircle
10
138.67422597727372
20
107.99264227858401
30
0
40
0.50000085535314742
100
AcDbArc
50
179.99982583226875
51
270.00087187176263
0
ARC
5
632
100
AcDbEntity
8
0
100
AcDbCircle
10
65.94922754784244
20
144.80514474921046
30
0
40
0.49999771416063549
100
AcDbArc
50
-7.8207716533326913e-05
51
89.999704252686684
0
LINE
5
633
100
AcDbEntity
8
0
100
AcDbLine
10
206.94296554941673
20
31.792640234140549
30
0
11
206.94296554941673
21
44.792644227651756
31
0
0
ARC
5
634
100
AcDbEntity
8
0
100
AcDbCircle
10
151.6742273392455
20
107.99263934605742
30
0
40
0.49999792277644139
100
AcDbArc
50
-89.999680349234026
51
0.00051021601677674077
0
LINE
5
635
100
AcDbEntity
8
0
100
AcDbLine
10
166.74922899622459
20
31.792640234140549
30
0
11
166.74922899622459
21
44.792644227651756
31
0
0
LINE
5
636
100
AcDbEntity
8
0
100
AcDbLine
10
143.43673483747983
20
31.292639220861588
30
0
11
158.81798164267082
21
31.292639220861588
31
0
0
ARC
5
637
100
AcDbEntity
8
0
100
AcDbCircle
10
71.999226230573356
20
144.80514227858382
30
0
40
0.50000110865378378
100
AcDbArc
50
89.999872957627119
51
179.99979509610364
0
LINE
5
638
100
AcDbEntity
8
0
100
AcDbLine
10
159.31797520536918
20
31.792640234140549
30
0
11
159.31797520536918
21
44.792644227651756
31
0
0
LINE
5
639
100
AcDbEntity
8
0
100
AcDbLine
10
190.56173161882901
20
31.792640234140549
30
0
11
190.56173161882901
21
44.792644227651756
31
0
0
LINE
5
640
100
AcDbEntity
8
0
100
AcDbLine
10
142.93672637362019
20
50.842642332224052
30
0
11
142.93672637362019
21
63.842646325735259
31
0
0
LINE
5
641
100
AcDbEntity
8
0
100
AcDbLine
10
183.13047782797361
20
31.792640234140549
30
0
11
183.13047782797361
21
44.792644227651756
31
0
0
ARC
5
642
100
AcDbEntity
8
0
100
AcDbCircle
10
91.049226230573538
20
144.80514227858382
30
0
40
0.50000110865378378
100
AcDbArc
50
89.999872957627119
51
179.99979509610364
0
ARC
5
643
100
AcDbEntity
8
0
100
AcDbCircle
10
143.43672597727317
20
31.792642278583898
30
0
40
0.50000085535314742
100
AcDbArc
50
179.99982583226875
51
270.00087187176263
0
LWPOLYLINE
5
644
100
AcDbEntity
8
0
100
AcDbPolyline
90
8
70
1
43
0.0
10
238.18672512192293
20
31.792641423288753
10
238.18672512192293
20
44.718766009323147
42
-0.4142135623730846
10
238.6867251219229
20
45.218766009323154
10
251.68672512192288
20
45.218766009323126
42
-0.41421356237312101
10
252.18672512192288
20
44.718766009323147
10
252.18672512192288
20
31.79264142328876
42
-0.41421356237310281
10
251.68672512192288
20
31.29264142328875
10
238.6867251219229
20
31.292641423288746
42
-0.41421356237307422
0
LWPOLYLINE
5
645
100
AcDbEntity
8
0
100
AcDbPolyline
90
8
70
1
43
0.0
10
257.23672512192286
20
31.792641423288753
10
257.23672512192286
20
44.718766009323147
42
-0.41421356237314705
10
257.73672512192286
20
45.218766009323154
10
270.73673753160995
20
45.218766009323126
42
-0.41421356237312101
10
271.23673753160995
20
44.718766009323147
10
271.23673753161
20
31.792641423288753
42
-0.41421356237312362
10
270.73673753160995
20
31.29264142328875
10
257.73672512192286
20
31.292641423288735
42
-0.41421356237310025
0
LWPOLYLINE
5
646
100
AcDbEntity
8
0
100
AcDbPolyline
90
8
70
1
43
0.0
10
238.18672512192293
20
50.768766009323159
10
238.18672512192296
20
63.768766009323166
42
-0.4142135623730846
10
238.6867251219229
20
64.268766009323159
10
251.68672512192288
20
64.268766009323159
42
-0.41421356237313145
10
252.18672512192288
20
63.768766009323166
10
252.18672512192285
20
50.768766009323144
42
-0.4142135623730222
10
251.68672512192288
20
50.268766009323144
10
238.6867251219229
20
50.268766009323123
42
-0.41421356237304818
0
LWPOLYLINE
5
647
100
AcDbEntity
8
0
100
AcDbPolyline
90
8
70
1
43
0.0
10
219.17362747931861
20
31.792641423288753
10
219.17362747931861
20
44.718766009323147
42
-0.41421356237310542
10
219.67362747931872
20
45.218766009323154
10
232.63673476595432
20
45.218766009323161
42
-0.41421356237310025
10
233.13673476595432
20
44.718766009323147
10
233.13673476595432
20
31.792641423288739
42
-0.41421356237313667
10
232.63673476595432
20
31.29264142328875
10
219.67362747931872
20
31.29264142328875
42
-0.41421356237307161
0
LWPOLYLINE
5
648
100
AcDbEntity
8
0
100
AcDbPolyline
90
8
70
1
43
0.0
10
233.1367347659544
20
101.94264178982183
10
233.13673476595432
20
88.942641789821849
42
-0.41421356237314705
10
232.63673476595432
20
88.442641789821849
10
219.63673476595432
20
88.442641789821849
42
-0.41421356237307422
10
219.13673476595434
20
88.942641789821849
10
219.13673476595443
20
101.94264178982183
42
-0.4142135623730846
10
219.63673476595443
20
102.44264178982185
10
232.63673476595443
20
102.44264178982186
42
-0.4142135623730846
0
LWPOLYLINE
5
649
100
AcDbEntity
8
0
100
AcDbPolyline
90
8
70
1
43
0.0
10
252.18672512192288
20
101.94264178982183
10
252.1867251219229
20
88.942641789821849
42
-0.4142135623730846
10
251.68672512192288
20
88.442641789821849
10
238.6867251219229
20
88.442641789821849
42
-0.41421356237309503
10
238.18672512192285
20
88.94264178982182
10
238.18672512192285
20
101.94264178982183
42
-0.41421356237307422
10
238.6867251219229
20
102.44264178982185
10
251.68672512192288
20
102.44264178982186
42
-0.41421356237310542
0
LWPOLYLINE
5
650
100
AcDbEntity
8
0
100
AcDbPolyline
90
8
70
1
43
0.0
10
271.23672512192286
20
101.94264178982183
10
271.23672512192286
20
88.942641789821849
42
-0.41421356237307422
10
270.73672512192286
20
88.442641789821849
10
257.73672512192292
20
88.442641789821863
42
-0.41421356237306384
10
257.23672512192286
20
88.94264178982182
10
257.23672512192286
20
101.94264178982183
42
-0.41421356237314705
10
257.73672512192286
20
102.44264178982185
10
270.73672512192286
20
102.44264178982186
42
-0.4142135623730846
0
LWPOLYLINE
5
651
100
AcDbEntity
8
0
100
AcDbPolyline
90
8
70
1
43
0.0
10
257.23672512192286
20
120.99264178982183
10
257.23672512192286
20
107.99264178982186
42
0.41421356237312623
10
257.73672512192286
20
107.49264178982187
10
270.7367251219228
20
107.49264178982189
42
0.41421356237311585
10
271.2367251219228
20
107.99264178982186
10
271.23672512192286
20
120.99264178982183
42
0.41421356237304302
10
270.73672512192286
20
121.49264178982186
10
257.73672512192286
20
121.49264178982187
42
0.41421356237307422
0
LWPOLYLINE
5
652
100
AcDbEntity
8
0
100
AcDbPolyline
90
8
70
1
43
0.0
10
233.1367347659544
20
120.99264178982183
10
233.13673476595432
20
107.99264178982186
42
-0.41421356237312623
10
232.63673476595432
20
107.49264178982187
10
219.63673476595432
20
107.49264178982187
42
-0.41421356237310542
10
219.13673476595434
20
107.99264178982186
10
219.13673476595434
20
120.99264178982183
42
-0.41421356237307422
10
219.63673476595443
20
121.49264178982186
10
232.63673476595443
20
121.49264178982186
42
-0.41421356237304302
0
LWPOLYLINE
5
653
100
AcDbEntity
8
0
100
AcDbPolyline
90
8
70
1
43
0.0
10
233.13673476595432
20
144.80514275169182
10
233.13673476595432
20
131.80514138823565
42
-0.41421356237314705
10
232.63673476595432
20
131.30514138823565
10
219.63673476595432
20
131.30514138823565
42
-0.41421356237307422
10
219.13673476595434
20
131.80514138823565
10
219.13673476595437
20
144.80514275169182
42
-0.41421356237304302
10
219.63673476595437
20
145.30514275169182
10
232.63673476595437
20
145.30514275169182
42
-0.41421356237310542
0
LWPOLYLINE
5
654
100
AcDbEntity
8
0
100
AcDbPolyline
90
8
70
1
43
0.0
10
252.18672512192288
20
144.80514275169182
10
252.1867251219229
20
131.80514138823565
42
-0.4142135623730846
10
251.68672512192288
20
131.30514138823565
10
238.6867251219229
20
131.30514138823565
42
-0.4142135623730846
10
238.18672512192285
20
131.80514138823565
10
238.18672512192276
20
144.80514275169182
42
-0.4142135623730222
10
238.68672512192288
20
145.30514275169182
10
251.68672512192296
20
145.30514275169179
42
-0.41421356237310542
0
LWPOLYLINE
5
655
100
AcDbEntity
8
0
100
AcDbPolyline
90
8
70
1
43
0.0
10
271.23672512192286
20
144.80514275169182
10
271.23672512192286
20
131.80514138823565
42
-0.41421356237303258
10
270.7367251219228
20
131.30514138823565
10
257.73672512192286
20
131.30514138823565
42
-0.41421356237309503
10
257.23672512192286
20
131.80514138823565
10
257.23672512192286
20
144.80514275169182
42
-0.41421356237312623
10
257.73672512192286
20
145.30514275169182
10
270.73672512192286
20
145.30514275169182
42
-0.41421356237310542
0
LWPOLYLINE
5
656
100
AcDbEntity
8
0
100
AcDbPolyline
90
8
70
1
43
0.0
10
192.65548310894516
20
63.842642674950767
10
192.65548310894513
20
50.842643181590226
42
-0.41421356237307422
10
192.15548310894519
20
50.342643181590248
10
179.15548310894513
20
50.342643181590255
42
-0.41421356237313145
10
178.65548310894513
20
50.842643181590255
10
178.65548310894511
20
63.842642674950774
42
-0.41421356237312101
10
179.15548310894513
20
64.342642674950781
10
192.15548310894519
20
64.342642674950767
42
-0.414213562373069
0
LWPOLYLINE
5
657
100
AcDbEntity
8
0
100
AcDbPolyline
90
8
70
1
43
0.0
10
177.21748310894515
20
63.842642674950753
10
177.21748310894515
20
48.842642674950802
42
-0.41421356237307944
10
176.71748310894515
20
48.342642674950753
10
170.71748310894515
20
48.342642674950739
42
-0.41421356237306384
10
170.21748310894515
20
48.842642674950802
10
170.21748310894515
20
63.842642674950731
42
-0.41421356237315748
10
170.71748310894517
20
64.34264267495071
10
176.71748310894515
20
64.342642674950739
42
-0.41421356237312623
0
LWPOLYLINE
5
658
100
AcDbEntity
8
0
100
AcDbPolyline
90
8
70
1
43
0.0
10
201.09348310894515
20
63.842642674950802
10
201.09348310894515
20
48.842642674950781
42
-0.41421356237310542
10
200.59348310894509
20
48.342642674950795
10
194.59348310894512
20
48.342642674950795
42
-0.41421356237307422
10
194.09348310894515
20
48.842642674950802
10
194.09348310894518
20
63.842642674950802
42
-0.4142135623730846
10
194.59348310894512
20
64.342642674950795
10
200.59348310894509
20
64.342642674950781
42
-0.41421356237310025
0
LWPOLYLINE
5
659
100
AcDbEntity
8
0
100
AcDbPolyline
90
8
70
1
43
0.0
10
205.85597266621136
20
84.89264341702858
10
205.85597266621136
20
69.89264341702858
42
-0.41421356237314189
10
205.35597266621136
20
69.39264341702858
10
199.35597266621133
20
69.392643417028566
42
-0.41421356237310025
10
198.85597266621133
20
69.89264341702858
10
198.85597266621133
20
84.89264341702858
42
-0.41421356237303258
10
199.35597266621136
20
85.392643417028594
10
205.35597266621136
20
85.392643417028594
42
-0.41421356237309503
0
LWPOLYLINE
5
660
100
AcDbEntity
8
0
100
AcDbPolyline
90
8
70
1
43
0.0
10
197.41797266621134
20
82.892641354707862
10
197.41797266621134
20
69.89264341702858
42
-0.41421356237314189
10
196.91797266621134
20
69.39264341702858
10
183.91797266621137
20
69.392643417028609
42
-0.41421356237309503
10
183.4179726662114
20
69.89264341702858
10
183.41797266621137
20
82.892641354708147
42
-0.41421356237312623
10
183.91797266621137
20
83.392641354708132
10
196.91797266621131
20
83.392641354707848
42
-0.41421356237312623
0
LWPOLYLINE
5
661
100
AcDbEntity
8
0
100
AcDbPolyline
90
8
70
1
43
0.0
10
181.97997266621138
20
84.89264341702858
10
181.97997266621138
20
69.89264341702858
42
-0.41421356237310025
10
181.47997266621132
20
69.39264341702858
10
175.47997266621135
20
69.392643417028609
42
-0.41421356237309503
10
174.97997266621138
20
69.89264341702858
10
174.97997266621132
20
84.89264341702858
42
-0.41421356237309503
10
175.47997266621135
20
85.392643417028594
10
181.47997266621135
20
85.392643417028594
42
-0.41421356237309503
0
LWPOLYLINE
5
662
100
AcDbEntity
8
0
100
AcDbPolyline
90
8
70
1
43
0.0
10
184.36123185724665
20
120.98967320336359
10
184.36123185724665
20
105.98967320336364
42
-0.41421356237307422
10
183.86123185724665
20
105.48967320336359
10
177.86123185724662
20
105.48967320336359
42
-0.41421356237311585
10
177.36123185724662
20
105.98967320336364
10
177.36123185724665
20
120.98967320336359
42
-0.41421356237310542
10
177.86123185724662
20
121.48967320336361
10
183.86123185724665
20
121.48967320336362
42
-0.41421356237310542
0
LWPOLYLINE
5
663
100
AcDbEntity
8
0
100
AcDbPolyline
90
8
70
1
43
0.0
10
199.79923185724658
20
120.98967320336359
10
199.79923185724658
20
107.99264202518137
42
-0.41421356237468709
10
199.29923185724391
20
107.49264202518135
10
186.29923185724391
20
107.49264202525275
42
-0.41421356237149254
10
185.79923185724664
20
107.99264202525276
10
185.79923185724667
20
120.98967320336359
42
-0.41421356237310542
10
186.29923185724664
20
121.48967320336361
10
199.29923185724661
20
121.48967320336362
42
-0.4142135623730846
0
LWPOLYLINE
5
664
100
AcDbEntity
8
0
100
AcDbPolyline
90
8
70
1
43
0.0
10
208.2372318572466
20
120.98967320336359
10
208.2372318572466
20
105.98967320336364
42
-0.41421356237306384
10
207.73723185724663
20
105.48967320336359
10
201.73723185724663
20
105.48967320336361
42
-0.41421356237306384
10
201.2372318572466
20
105.98967320336364
10
201.23723185724663
20
120.98967320336359
42
-0.4142135623730846
10
201.73723185724666
20
121.48967320336361
10
207.73723185724663
20
121.48967320336362
42
-0.4142135623730846
0
LINE
5
665
100
AcDbEntity
8
0
100
AcDbLine
10
204.56173018831748
20
101.94264307132343
30
0
11
204.56173018831748
21
88.942641789821806
31
0
0
ARC
5
666
100
AcDbEntity
8
0
100
AcDbCircle
10
204.06173018831754
20
88.942641789821806
30
0
40
0.50000000000000711
100
AcDbArc
50
-90
51
0
0
LINE
5
667
100
AcDbEntity
8
0
100
AcDbLine
10
204.06173018831754
20
88.442641789821792
30
0
11
191.06172518152729
21
88.442641789821792
31
0
0
ARC
5
668
100
AcDbEntity
8
0
100
AcDbCircle
10
191.0617262305733
20
101.9426422785838
30
0
40
0.50000110865389036
100
AcDbArc
50
89.999872957630373
51
179.99979509254624
0
ARC
5
669
100
AcDbEntity
8
0
100
AcDbCircle
10
204.06172733922887
20
101.94264338723629
30
0
40
0.50000000000127165
100
AcDbArc
50
-0.00012703738731177254
51
89.998935859545099
0
LINE
5
670
100
AcDbEntity
8
0
100
AcDbLine
10
191.06172733922958
20
102.44264338723646
30
0
11
204.06173662560619
21
102.44264338715128
31
0
0
LINE
5
671
100
AcDbEntity
8
0
100
AcDbLine
10
190.56173161882901
20
88.942642803102927
30
0
11
190.56173161882901
21
101.9426430713319
31
0
0
ARC
5
672
100
AcDbEntity
8
0
100
AcDbCircle
10
191.06172733922409
20
88.942642531880182
30
0
40
0.49999974669993485
100
AcDbArc
50
180.00002902830397
51
269.99975274653303
0
LWPOLYLINE
5
673
100
AcDbEntity
8
0
100
AcDbPolyline
90
8
70
1
43
0.0
10
-60.907519806079762
20
63.842642236841904
10
-60.907519806079762
20
48.842641318945113
42
-0.41421356237311063
10
-61.407519806079748
20
48.342641318945113
10
-67.407519742647892
20
48.342641318945113
42
-0.41421356237313145
10
-67.907519742647906
20
48.842641318945113
10
-67.907519742647906
20
63.842642430397035
42
-0.41421357182158292
10
-67.407519726518288
20
64.342642430397049
10
-61.407519789950165
20
64.342642236841897
42
-0.41421355292459683
0
LWPOLYLINE
5
674
100
AcDbEntity
8
0
100
AcDbPolyline
90
8
70
1
43
0.0
10
-45.469525290288964
20
63.842641785592811
10
-45.469524074318663
20
50.842642706834482
42
-0.41421356237309503
10
-45.96952402755057
20
50.342642660066389
10
-58.969517631780889
20
50.342641444096571
42
-0.41421359921770234
10
-59.469517678548982
20
50.84264146022619
10
-59.469517259179511
20
63.84264217432353
42
-0.41421356237310542
10
-58.969517243049914
20
64.342642158193939
10
-45.969525274159359
20
64.342641738824724
42
-0.41421352552846785
0
LWPOLYLINE
5
675
100
AcDbEntity
8
0
100
AcDbPolyline
90
8
70
1
43
0.0
10
-37.031519806080439
20
63.842641466621529
10
-37.031519806080439
20
48.842641318945077
42
-0.41421356237309764
10
-37.531519806080439
20
48.342641318945077
10
-43.531518142752617
20
48.342641318945141
42
-0.41421356237311063
10
-44.031518142752617
20
48.842641318945098
10
-44.031518142752766
20
63.842641660176582
42
-0.41421357182158813
10
-43.531518126623034
20
64.342641660176582
10
-37.531519789950842
20
64.342641466621544
42
-0.41421355292460721
0
LWPOLYLINE
5
676
100
AcDbEntity
8
0
100
AcDbPolyline
90
8
70
1
43
0.0
10
252.18672512192288
20
120.99264178982183
10
252.18672512192288
20
107.99264178982186
42
-0.41421356237304302
10
251.68672512192288
20
107.49264178982187
10
238.68672512192285
20
107.49264178982187
42
-0.41421356237310542
10
238.18672512192279
20
107.99264178982186
10
238.18672512192279
20
120.99264178982183
42
-0.41421356237301177
10
238.68672512192288
20
121.49264178982186
10
251.68672512192288
20
121.49264178982186
42
-0.41421356237310542
0
ARC
5
677
100
AcDbEntity
8
0
100
AcDbCircle
10
135.0054773392317
20
31.792640454672231
30
0
40
0.49999817609240438
100
AcDbArc
50
270
51
359.99997474503499
0
ARC
5
678
100
AcDbEntity
8
0
100
AcDbCircle
10
122.00547623057354
20
31.792642278583134
30
0
40
0.50000110865342595
100
AcDbArc
50
179.99982583226875
51
270.0001270423142
0
LINE
5
679
100
AcDbEntity
8
0
100
AcDbLine
10
135.0054773392317
20
31.292642278579827
30
0
11
122.00547733922933
21
31.292641169930938
31
0
0
LINE
5
680
100
AcDbEntity
8
0
100
AcDbLine
10
135.50547258276481
20
44.792644066719305
30
0
11
135.50547258276481
21
31.792640234139252
31
0
0
LINE
5
681
100
AcDbEntity
8
0
100
AcDbLine
10
121.50547401327658
20
31.7926437984868
30
0
11
121.50547512192253
21
44.792645283570927
31
0
0
ARC
5
682
100
AcDbEntity
8
0
100
AcDbCircle
10
122.00547512192252
20
44.792645240930717
30
0
40
0.49999999999999822
100
AcDbArc
50
90
51
179.99999517032694
0
LINE
5
683
100
AcDbEntity
8
0
100
AcDbLine
10
122.00547512192252
20
45.292645240930717
30
0
11
122.0242366017773
21
45.292645240930717
31
0
0
ARC
5
684
100
AcDbEntity
8
0
100
AcDbCircle
10
122.02423660177729
20
45.792645240930753
30
0
40
0.50000000000003375
100
AcDbArc
50
-89.99999999999838
51
0
0
LINE
5
685
100
AcDbEntity
8
0
100
AcDbLine
10
122.52423660177733
20
45.792645240930753
30
0
11
122.52423660177729
21
46.79264524093071
31
0
0
ARC
5
686
100
AcDbEntity
8
0
100
AcDbCircle
10
123.0242366017773
20
46.792645240930717
30
0
40
0.49999999999999822
100
AcDbArc
50
90
51
180
0
LINE
5
687
100
AcDbEntity
8
0
100
AcDbLine
10
123.0242366017773
20
47.292645240930717
30
0
11
129.2242318572535
21
47.292645240930739
31
0
0
ARC
5
688
100
AcDbEntity
8
0
100
AcDbCircle
10
129.2242318572535
20
46.792645240930739
30
0
40
0.50000000000000711
100
AcDbArc
50
0
51
90
0
LINE
5
689
100
AcDbEntity
8
0
100
AcDbLine
10
129.7242318572535
20
46.792645240930746
30
0
11
129.72423185725356
21
45.792644787793684
31
0
0
ARC
5
690
100
AcDbEntity
8
0
100
AcDbCircle
10
130.22423185725356
20
45.792644787793684
30
0
40
0.50000000000000711
100
AcDbArc
50
180
51
269.99994807429482
0
ARC
5
691
100
AcDbEntity
8
0
100
AcDbCircle
10
135.00547733922329
20
44.792642278579997
30
0
40
0.49999817609277492
100
AcDbArc
50
0.00022334790386376426
51
89.999999999039218
0
LINE
5
692
100
AcDbEntity
8
0
100
AcDbLine
10
130.2242314041163
20
45.292644787793883
30
0
11
135.00547733923167
21
45.292640454672778
31
0
0
ARC
5
693
100
AcDbEntity
8
0
100
AcDbCircle
10
104.00603185724735
20
31.337642069963628
30
0
40
0.50000000000004263
100
AcDbArc
50
180
51
269.999459947329
0
ARC
5
694
100
AcDbEntity
8
0
100
AcDbCircle
10
104.00603185724735
20
46.792645240930703
30
0
40
0.50000000000002487
100
AcDbArc
50
90.000000000001634
51
180
0
LINE
5
695
100
AcDbEntity
8
0
100
AcDbLine
10
104.00603185724734
20
47.292645240930725
30
0
11
110.20603185724707
21
47.292645240930725
31
0
0
ARC
5
696
100
AcDbEntity
8
0
100
AcDbCircle
10
110.20603185724704
20
46.792645240930703
30
0
40
0.50000000000002487
100
AcDbArc
50
0
51
89.999999999996746
0
LINE
5
697
100
AcDbEntity
8
0
100
AcDbLine
10
110.70603185724707
20
46.792645240930703
30
0
11
110.70603185724705
21
31.337642069963394
31
0
0
ARC
5
698
100
AcDbEntity
8
0
100
AcDbCircle
10
110.2060318572471
20
31.337642069963373
30
0
40
0.49999999999997158
100
AcDbArc
50
-90.000000000003254
51
0
0
LINE
5
699
100
AcDbEntity
8
0
100
AcDbLine
10
103.50603185724731
20
31.337642069963628
30
0
11
103.50603185724734
21
46.792645240930703
31
0
0
LINE
5
700
100
AcDbEntity
8
0
100
AcDbLine
10
110.20602778812638
20
30.837640060094991
30
0
11
104.0060271443798
21
30.837640060094991
31
0
0
LINE
5
701
100
AcDbEntity
8
0
100
AcDbLine
10
75.474937719292882
20
31.292639220861588
30
0
11
50.568034213967579
21
31.292639220861588
31
0
0
ARC
5
702
100
AcDbEntity
8
0
100
AcDbCircle
10
75.474230927415149
20
44.792642920406465
30
0
40
0.49999999999999822
100
AcDbArc
50
0
51
89.99999998883051
0
LINE
5
703
100
AcDbEntity
8
0
100
AcDbLine
10
75.974230927415149
20
44.792642920406465
30
0
11
75.974230927415149
21
31.792640234161354
31
0
0
ARC
5
704
100
AcDbEntity
8
0
100
AcDbCircle
10
75.474225515320697
20
31.792642278574213
30
0
40
0.50000136452356225
100
AcDbArc
50
270.08161200923013
51
359.99976572973873
0
LINE
5
705
100
AcDbEntity
8
0
100
AcDbLine
10
50.568025122019726
20
45.292643235525205
30
0
11
75.474230927512622
21
45.292643451330434
31
0
0
ARC
5
706
100
AcDbEntity
8
0
100
AcDbCircle
10
50.568025121922261
20
44.792642925261603
30
0
40
0.49999999999999822
100
AcDbArc
50
89.99999998883132
51
180.00000269986933
0
LINE
5
707
100
AcDbEntity
8
0
100
AcDbLine
10
50.068025750108191
20
31.792640234146017
30
0
11
50.068025121922261
21
44.792642901100606
31
0
0
ARC
5
708
100
AcDbEntity
8
0
100
AcDbCircle
10
50.568025977273052
20
31.792642278583926
30
0
40
0.50000085535315186
100
AcDbArc
50
180.00023427492849
51
270.0009438498966
0
LINE
5
709
100
AcDbEntity
8
0
100
AcDbLine
10
14.892478746374486
20
30.837640060094991
30
0
11
3.9299850286787974
21
30.837640060094991
31
0
0
ARC
5
710
100
AcDbEntity
8
0
100
AcDbCircle
10
3.9299818572473666
20
31.337642069963628
30
0
40
0.49999999999999878
100
AcDbArc
50
180
51
270.00000000000074
0
ARC
5
711
100
AcDbEntity
8
0
100
AcDbCircle
10
3.9299818572473697
20
46.792645240930717
30
0
40
0.49999999999999822
100
AcDbArc
50
90.000000000000099
51
180
0
LINE
5
712
100
AcDbEntity
8
0
100
AcDbLine
10
3.9299818572473688
20
47.292645240930717
30
0
11
14.89248185724712
21
47.292645240930717
31
0
0
ARC
5
713
100
AcDbEntity
8
0
100
AcDbCircle
10
14.892481857247116
20
46.792645240930717
30
0
40
0.49999999999999378
100
AcDbArc
50
0
51
89.999999999999588
0
LINE
5
714
100
AcDbEntity
8
0
100
AcDbLine
10
15.392481857247109
20
46.792645240930717
30
0
11
15.392481857247109
21
31.337642069963398
31
0
0
ARC
5
715
100
AcDbEntity
8
0
100
AcDbCircle
10
14.892481857247109
20
31.337642069963394
30
0
40
0.49999999999999822
100
AcDbArc
50
-89.999999999998778
51
0
0
LINE
5
716
100
AcDbEntity
8
0
100
AcDbLine
10
3.4299818572473679
20
31.337642069963628
30
0
11
3.4299818572473715
21
46.792645240930717
31
0
0
LWPOLYLINE
5
717
100
AcDbEntity
8
0
100
AcDbPolyline
90
128
70
1
43
0.0
10
54.455707112262104
20
152.61211088181875
10
51.273384851981803
20
148.81956645719762
42
-0.22169466264275001
10
49.741295965744769
20
148.1051416765718
10
-45.835162053577733
20
148.10514167657271
42
-0.22169466264289212
10
-47.367250939814774
20
148.81956645720089
10
-50.549573415826728
20
152.61211070078764
42
0.22169466264315757
10
-52.4646845236256
20
153.5051416765728
10
-52.842933043913135
20
153.5051416765728
42
0.41421356237333956
10
-53.842933043913099
20
152.5051416765719
10
-53.842933043912886
20
150.70514167660258
42
-1.0000006539558002
10
-57.242933043913631
20
150.70514167657308
10
-57.242933043913638
20
152.50514167657283
42
0.41421356237309764
10
-58.242933043913624
20
153.5051416765728
10
-58.619994905560887
20
153.5051416765728
42
0.22181916402519605
10
-60.536292887737908
20
152.61211088181875
10
-63.718615148018216
20
148.81956645719762
42
-0.22169466264275223
10
-65.25070403425525
20
148.1051416765718
10
-72.175783160142714
20
148.10514125487026
42
0.41421356237309243
10
-74.175783160142714
20
146.10514125487023
10
-74.175783160142728
20
30.492643977312266
42
0.41421356237309115
10
-72.175783160142714
20
28.492643977312291
10
-65.25070403425525
20
28.492643555610684
42
-0.2216946626427499
10
-63.718615148018216
20
27.77821877498484
10
-60.536292887737901
20
23.985674350363752
42
0.22181916402519011
10
-58.619994905560887
20
23.092643555609705
10
-58.242933043913624
20
23.092643555609698
42
0.41421356237309503
10
-57.242933043913631
20
24.092643555609694
10
-57.242933043913631
20
25.892643555609421
42
-1.0000006539558002
10
-53.842933043912886
20
25.892643555579955
10
-53.842933043913078
20
24.0926435556106
42
0.41421356237334478
10
-52.842933043913135
20
23.092643555609694
10
-52.464684523625621
20
23.092643555609676
42
0.22169466264316617
10
-50.549573415826728
20
23.985674531394888
10
-47.367250939814774
20
27.778218774981642
42
-0.22169466264289969
10
-45.835162053577719
20
28.492643555609799
10
49.741295965744776
20
28.492643555610684
42
-0.22169466264274895
10
51.273384851981803
20
27.77821877498484
10
54.455707112262139
20
23.985674350363752
42
0.22181916402519011
10
56.372005094439146
20
23.092643555609705
10
56.749066956086395
20
23.092643555609683
42
0.41421356237308593
10
57.749066956086388
20
24.092643555609694
10
57.749066956086388
20
25.892643555609421
42
-1.0000006539558002
10
61.149066956087132
20
25.892643555579955
10
61.149066956086948
20
24.0926435556106
42
0.41421356237333828
10
62.149066956086898
20
23.092643555609694
10
62.527315476374412
20
23.092643555609683
42
0.22169466264316653
10
64.44242658417329
20
23.985674531394888
10
67.624749060185238
20
27.778218774981642
42
-0.22169466264289969
10
69.156837946422286
20
28.492643555609799
10
147.74129596574483
20
28.492643555610684
42
-0.22169466264276003
10
149.2733848519818
20
27.778218774984822
10
152.4557071122621
20
23.985674350363752
42
0.22181916402518742
10
154.3720050944392
20
23.092643555609698
10
154.74906695608641
20
23.092643555609694
42
0.41421356237309631
10
155.74906695608641
20
24.092643555609694
10
155.74906695608641
20
25.892643555609421
42
-1.0000006539558002
10
159.14906695608715
20
25.892643555579955
10
159.14906695608695
20
24.0926435556106
42
0.41421356237335255
10
160.1490669560869
20
23.092643555609712
10
160.52731547637447
20
23.092643555609691
42
0.22169466264317306
10
162.44242658417332
20
23.985674531394899
10
165.62474906018525
20
27.778218774981632
42
-0.22169466264288301
10
167.15683794642229
20
28.492643555609799
10
245.69629596574484
20
28.492643555610687
42
-0.22169466264275631
10
247.22838485198184
20
27.778218774984822
10
250.41070711226212
20
23.985674350363748
42
0.22181916402519394
10
252.32700509443924
20
23.092643555609694
10
252.70406695608642
20
23.092643555609705
42
0.41421356237311846
10
253.70406695608639
20
24.092643555609694
10
253.70406695608639
20
25.892643555898047
42
-1.0000006538709094
10
257.10406695608719
20
25.892643555579955
10
257.10406695608691
20
24.0926435556106
42
0.41421356237336299
10
258.10406695608691
20
23.092643555609712
10
258.48231547637442
20
23.092643555609691
42
0.22169466264318052
10
260.39742658417333
20
23.985674531394899
10
263.57974906018524
20
27.778218774981653
42
-0.22169466264291376
10
265.11183794642227
20
28.492643555609799
10
272.0367253245787
20
28.492643977312262
42
0.41421356237309631
10
274.0367253245787
20
30.492643977312266
10
274.03672532457875
20
146.10514125487023
42
0.41421356237312623
10
272.03672532457864
20
148.10514125487018
10
265.11183794642238
20
148.10514167657274
42
-0.22169466264287976
10
263.57974906018524
20
148.81956645720089
10
260.39742658417333
20
152.61211070078761
42
0.22169466264316212
10
258.48231547637448
20
153.5051416765728
10
258.10406695608691
20
153.5051416765728
42
0.41421356237337598
10
257.10406695608697
20
152.5051416765719
10
257.10406695608719
20
150.70514167631399
42
-1.0000006538709094
10
253.70406695608639
20
150.70514167657308
10
253.70406695608639
20
152.5051416765728
42
0.41421356237305862
10
252.70406695608642
20
153.5051416765728
10
252.32700509443924
20
153.50514167657283
42
0.22181916402520899
10
250.41070711226214
20
152.61211088181875
10
247.22838485198182
20
148.8195664571976
42
-0.22169466264275689
10
245.69629596574484
20
148.1051416765718
10
219.73048185724764
20
148.10514125487026
42
0.41421356237307944
10
218.73048185724758
20
147.10514125487023
10
218.73048185724758
20
145.90514185836722
42
-0.41421356237311585
10
217.73048185724761
20
144.90514185836724
10
210.73048185724758
20
144.90514185836724
42
-0.41421356237311585
10
209.73048185724761
20
145.90514185836722
10
209.73048185724764
20
147.10514125487023
42
0.41421356237308982
10
208.73048185724758
20
148.10514125487018
10
167.15683794642231
20
148.10514167657274
42
-0.22169466264288024
10
165.62474906018522
20
148.81956645720089
10
162.44242658417332
20
152.61211070078764
42
0.22169466264315826
10
160.5273154763745
20
153.50514167657278
10
160.14906695608687
20
153.50514167657278
42
0.41421356237331874
10
159.14906695608695
20
152.5051416765719
10
159.14906695608715
20
150.70514167660258
42
-1.0000006539558002
10
155.74906695608641
20
150.70514167657308
10
155.74906695608641
20
152.5051416765728
42
0.41421356237309503
10
154.74906695608641
20
153.5051416765728
10
154.3720050944392
20
153.5051416765728
42
0.22181916402520957
10
152.4557071122621
20
152.61211088181875
10
149.2733848519818
20
148.81956645719762
42
-0.22169466264273638
10
147.74129596574483
20
148.1051416765718
10
69.156837946422286
20
148.10514167657271
42
-0.22169466264289212
10
67.624749060185238
20
148.81956645720089
10
64.44242658417329
20
152.61211070078764
42
0.22169466264315604
10
62.527315476374426
20
153.5051416765728
10
62.149066956086898
20
153.5051416765728
42
0.41421356237333956
10
61.149066956086941
20
152.5051416765719
10
61.149066956087132
20
150.70514167660258
42
-1.0000006539558002
10
57.749066956086388
20
150.70514167657308
10
57.749066956086388
20
152.50514167657283
42
0.41421356237309764
10
56.749066956086402
20
153.5051416765728
10
56.372005094439146
20
153.5051416765728
42
0.22181916402519744
0
ENDSEC
0
SECTION
2
OBJECTS
0
DICTIONARY
5
C
100
AcDbDictionary
3
ACAD_GROUP
350
D
3
ACAD_MLINESTYLE
350
17
0
DICTIONARY
5
D
100
AcDbDictionary
0
DICTIONARY
5
1A
330
C
100
AcDbDictionary
0
DICTIONARY
5
17
100
AcDbDictionary
0
ENDSEC
0
EOF
