  0
SECTION
  2
HEADER
  9
$ACADVER
  1
AC1015
  9
$ACADMAINTVER
 70
    13
  9
$DWGCODEPAGE
  3
ANSI_949
  9
$INSBASE
 10
0.0
 20
0.0
 30
0.0
  9
$EXTMIN
 10
128.898011381852
 20
87.09329302922503
 30
-0.0015258207003583
  9
$EXTMAX
 10
415.9112558559413
 20
193.1388250334873
 30
0.0000000349246037
  9
$LIMMIN
 10
0.0
 20
0.0
  9
$LIMMAX
 10
420.0
 20
297.0
  9
$ORTHOMODE
 70
     1
  9
$REGENMODE
 70
     1
  9
$FILLMODE
 70
     1
  9
$QTEXTMODE
 70
     0
  9
$MIRRTEXT
 70
     1
  9
$LTSCALE
 40
1.0
  9
$ATTMODE
 70
     1
  9
$TEXTSIZE
 40
2.5
  9
$TRACEWID
 40
1.0
  9
$TEXTSTYLE
  7
Standard
  9
$CLAYER
  8
0
  9
$CELTYPE
  6
ByLayer
  9
$CECOLOR
 62
   256
  9
$CELTSCALE
 40
1.0
  9
$DISPSILH
 70
     0
  9
$DIMSCALE
 40
1.0
  9
$DIMASZ
 40
2.5
  9
$DIMEXO
 40
0.625
  9
$DIMDLI
 40
3.75
  9
$DIMRND
 40
0.0
  9
$DIMDLE
 40
0.0
  9
$DIMEXE
 40
1.25
  9
$DIMTP
 40
0.0
  9
$DIMTM
 40
0.0
  9
$DIMTXT
 40
2.5
  9
$DIMCEN
 40
2.5
  9
$DIMTSZ
 40
0.0
  9
$DIMTOL
 70
     0
  9
$DIMLIM
 70
     0
  9
$DIMTIH
 70
     0
  9
$DIMTOH
 70
     0
  9
$DIMSE1
 70
     0
  9
$DIMSE2
 70
     0
  9
$DIMTAD
 70
     1
  9
$DIMZIN
 70
     8
  9
$DIMBLK
  1

  9
$DIMASO
 70
     1
  9
$DIMSHO
 70
     1
  9
$DIMPOST
  1

  9
$DIMAPOST
  1

  9
$DIMALT
 70
     0
  9
$DIMALTD
 70
     3
  9
$DIMALTF
 40
0.03937007874016
  9
$DIMLFAC
 40
1.0
  9
$DIMTOFL
 70
     1
  9
$DIMTVP
 40
0.0
  9
$DIMTIX
 70
     0
  9
$DIMSOXD
 70
     0
  9
$DIMSAH
 70
     0
  9
$DIMBLK1
  1

  9
$DIMBLK2
  1

  9
$DIMSTYLE
  2
ISO-25
  9
$DIMCLRD
 70
     0
  9
$DIMCLRE
 70
     0
  9
$DIMCLRT
 70
     0
  9
$DIMTFAC
 40
1.0
  9
$DIMGAP
 40
0.625
  9
$DIMJUST
 70
     0
  9
$DIMSD1
 70
     0
  9
$DIMSD2
 70
     0
  9
$DIMTOLJ
 70
     0
  9
$DIMTZIN
 70
     8
  9
$DIMALTZ
 70
     0
  9
$DIMALTTZ
 70
     0
  9
$DIMUPT
 70
     0
  9
$DIMDEC
 70
     2
  9
$DIMTDEC
 70
     2
  9
$DIMALTU
 70
     2
  9
$DIMALTTD
 70
     3
  9
$DIMTXSTY
  7
Standard
  9
$DIMAUNIT
 70
     0
  9
$DIMADEC
 70
     0
  9
$DIMALTRND
 40
0.0
  9
$DIMAZIN
 70
     0
  9
$DIMDSEP
 70
    46
  9
$DIMATFIT
 70
     3
  9
$DIMFRAC
 70
     0
  9
$DIMLDRBLK
  1

  9
$DIMLUNIT
 70
     2
  9
$DIMLWD
 70
    -2
  9
$DIMLWE
 70
    -2
  9
$DIMTMOVE
 70
     0
  9
$LUNITS
 70
     2
  9
$LUPREC
 70
     4
  9
$SKETCHINC
 40
1.0
  9
$FILLETRAD
 40
10.0
  9
$AUNITS
 70
     0
  9
$AUPREC
 70
     0
  9
$MENU
  1
.
  9
$ELEVATION
 40
0.0
  9
$PELEVATION
 40
0.0
  9
$THICKNESS
 40
0.0
  9
$LIMCHECK
 70
     0
  9
$CHAMFERA
 40
10.0
  9
$CHAMFERB
 40
10.0
  9
$CHAMFERC
 40
20.0
  9
$CHAMFERD
 40
0.0
  9
$SKPOLY
 70
     0
  9
$TDCREATE
 40
2458290.363093808
  9
$TDUCREATE
 40
2458289.988093808
  9
$TDUPDATE
 40
2458290.363362210
  9
$TDUUPDATE
 40
2458289.988362210
  9
$TDINDWG
 40
0.0002684028
  9
$TDUSRTIMER
 40
0.0002684028
  9
$USRTIMER
 70
     1
  9
$ANGBASE
 50
0.0
  9
$ANGDIR
 70
     0
  9
$PDMODE
 70
     0
  9
$PDSIZE
 40
0.0
  9
$PLINEWID
 40
0.0
  9
$SPLFRAME
 70
     0
  9
$SPLINETYPE
 70
     6
  9
$SPLINESEGS
 70
     8
  9
$HANDSEED
  5
5AE
  9
$SURFTAB1
 70
     6
  9
$SURFTAB2
 70
     6
  9
$SURFTYPE
 70
     6
  9
$SURFU
 70
     6
  9
$SURFV
 70
     6
  9
$UCSBASE
  2

  9
$UCSNAME
  2

  9
$UCSORG
 10
0.0
 20
0.0
 30
0.0
  9
$UCSXDIR
 10
1.0
 20
0.0
 30
0.0
  9
$UCSYDIR
 10
0.0
 20
1.0
 30
0.0
  9
$UCSORTHOREF
  2

  9
$UCSORTHOVIEW
 70
     0
  9
$UCSORGTOP
 10
0.0
 20
0.0
 30
0.0
  9
$UCSORGBOTTOM
 10
0.0
 20
0.0
 30
0.0
  9
$UCSORGLEFT
 10
0.0
 20
0.0
 30
0.0
  9
$UCSORGRIGHT
 10
0.0
 20
0.0
 30
0.0
  9
$UCSORGFRONT
 10
0.0
 20
0.0
 30
0.0
  9
$UCSORGBACK
 10
0.0
 20
0.0
 30
0.0
  9
$PUCSBASE
  2

  9
$PUCSNAME
  2

  9
$PUCSORG
 10
0.0
 20
0.0
 30
0.0
  9
$PUCSXDIR
 10
1.0
 20
0.0
 30
0.0
  9
$PUCSYDIR
 10
0.0
 20
1.0
 30
0.0
  9
$PUCSORTHOREF
  2

  9
$PUCSORTHOVIEW
 70
     0
  9
$PUCSORGTOP
 10
0.0
 20
0.0
 30
0.0
  9
$PUCSORGBOTTOM
 10
0.0
 20
0.0
 30
0.0
  9
$PUCSORGLEFT
 10
0.0
 20
0.0
 30
0.0
  9
$PUCSORGRIGHT
 10
0.0
 20
0.0
 30
0.0
  9
$PUCSORGFRONT
 10
0.0
 20
0.0
 30
0.0
  9
$PUCSORGBACK
 10
0.0
 20
0.0
 30
0.0
  9
$USERI1
 70
     0
  9
$USERI2
 70
     0
  9
$USERI3
 70
     0
  9
$USERI4
 70
     0
  9
$USERI5
 70
     0
  9
$USERR1
 40
0.0
  9
$USERR2
 40
0.0
  9
$USERR3
 40
0.0
  9
$USERR4
 40
0.0
  9
$USERR5
 40
0.0
  9
$WORLDVIEW
 70
     1
  9
$SHADEDGE
 70
     3
  9
$SHADEDIF
 70
    70
  9
$TILEMODE
 70
     1
  9
$MAXACTVP
 70
    64
  9
$PINSBASE
 10
0.0
 20
0.0
 30
0.0
  9
$PLIMCHECK
 70
     0
  9
$PEXTMIN
 10
1.000000000000000E+20
 20
1.000000000000000E+20
 30
1.000000000000000E+20
  9
$PEXTMAX
 10
-1.000000000000000E+20
 20
-1.000000000000000E+20
 30
-1.000000000000000E+20
  9
$PLIMMIN
 10
0.0
 20
0.0
  9
$PLIMMAX
 10
420.0
 20
297.0
  9
$UNITMODE
 70
     0
  9
$VISRETAIN
 70
     1
  9
$PLINEGEN
 70
     0
  9
$PSLTSCALE
 70
     1
  9
$TREEDEPTH
 70
  3020
  9
$CMLSTYLE
  2
Standard
  9
$CMLJUST
 70
     0
  9
$CMLSCALE
 40
20.0
  9
$PROXYGRAPHICS
 70
     1
  9
$MEASUREMENT
 70
     1
  9
$CELWEIGHT
370
    -1
  9
$ENDCAPS
280
     0
  9
$JOINSTYLE
280
     0
  9
$LWDISPLAY
290
     0
  9
$INSUNITS
 70
     4
  9
$HYPERLINKBASE
  1

  9
$STYLESHEET
  1

  9
$XEDIT
290
     1
  9
$CEPSNTYPE
380
     0
  9
$PSTYLEMODE
290
     1
  9
$FINGERPRINTGUID
  2
{2DBED9D7-FDCD-4BDD-B2D9-E3551A6C1644}
  9
$VERSIONGUID
  2
{9282C7C8-0C9F-4E40-B2E2-89DF78FCDADB}
  9
$EXTNAMES
290
     1
  9
$PSVPSCALE
 40
0.0
  9
$OLESTARTUP
290
     0
  0
ENDSEC
  0
SECTION
  2
CLASSES
  0
CLASS
  1
ACDBDICTIONARYWDFLT
  2
AcDbDictionaryWithDefault
  3
AutoCAD 2000
 90
        0
280
     0
281
     0
  0
CLASS
  1
ACDBPLACEHOLDER
  2
AcDbPlaceHolder
  3
AutoCAD 2000
 90
        0
280
     0
281
     0
  0
CLASS
  1
LAYOUT
  2
AcDbLayout
  3
AutoCAD 2000
 90
        0
280
     0
281
     0
  0
CLASS
  1
DICTIONARYVAR
  2
AcDbDictionaryVar
  3
AutoCAD 2000
 90
        0
280
     0
281
     0
  0
ENDSEC
  0
SECTION
  2
TABLES
  0
TABLE
  2
VPORT
  5
8
330
0
100
AcDbSymbolTable
 70
     3
  0
VPORT
  5
5AD
330
8
100
AcDbSymbolTableRecord
100
AcDbViewportTableRecord
  2
*Active
 70
     0
 10
0.0
 20
0.0
 11
1.0
 21
1.0
 12
272.4046336188966
 22
140.1160590313561
 13
0.0
 23
0.0
 14
10.0
 24
10.0
 15
10.0
 25
10.0
 16
0.0
 26
0.0
 36
1.0
 17
0.0
 27
0.0
 37
0.0
 40
154.7756075424508
 41
1.861689106487147
 42
50.0
 43
0.0
 44
0.0
 50
0.0
 51
0.0
 71
     0
 72
   100
 73
     1
 74
     3
 75
     0
 76
     0
 77
     0
 78
     0
281
     0
 65
     1
110
0.0
120
0.0
130
0.0
111
1.0
121
0.0
131
0.0
112
0.0
122
1.0
132
0.0
 79
     0
146
0.0
  0
ENDTAB
  0
TABLE
  2
LTYPE
  5
5
330
0
100
AcDbSymbolTable
 70
     2
  0
LTYPE
  5
14
330
5
100
AcDbSymbolTableRecord
100
AcDbLinetypeTableRecord
  2
ByBlock
 70
     0
  3

 72
    65
 73
     0
 40
0.0
  0
LTYPE
  5
15
330
5
100
AcDbSymbolTableRecord
100
AcDbLinetypeTableRecord
  2
ByLayer
 70
     0
  3

 72
    65
 73
     0
 40
0.0
  0
LTYPE
  5
16
330
5
100
AcDbSymbolTableRecord
100
AcDbLinetypeTableRecord
  2
Continuous
 70
     0
  3
Solid line
 72
    65
 73
     0
 40
0.0
  0
LTYPE
  5
2B
330
5
100
AcDbSymbolTableRecord
100
AcDbLinetypeTableRecord
  2
CENTER
 70
     0
  3
Center ____ _ ____ _ ____ _ ____ _ ____ _ ____
 72
    65
 73
     4
 40
2.0
 49
1.25
 74
     0
 49
-0.25
 74
     0
 49
0.25
 74
     0
 49
-0.25
 74
     0
  0
ENDTAB
  0
TABLE
  2
LAYER
  5
2
102
{ACAD_XDICTIONARY
360
2F
102
}
330
0
100
AcDbSymbolTable
 70
     2
  0
LAYER
  5
10
330
2
100
AcDbSymbolTableRecord
100
AcDbLayerTableRecord
  2
0
 70
     0
 62
     7
  6
Continuous
370
    -3
390
F
  0
LAYER
  5
2C
102
{ACAD_XDICTIONARY
360
2D
102
}
330
2
100
AcDbSymbolTableRecord
100
AcDbLayerTableRecord
  2
1
 70
     0
 62
     1
  6
CENTER
370
    -3
390
F
  0
ENDTAB
  0
TABLE
  2
STYLE
  5
3
330
0
100
AcDbSymbolTable
 70
     1
  0
STYLE
  5
11
330
3
100
AcDbSymbolTableRecord
100
AcDbTextStyleTableRecord
  2
Standard
 70
     0
 40
0.0
 41
1.0
 50
0.0
 71
     0
 42
2.5
  3
txt
  4

  0
ENDTAB
  0
TABLE
  2
VIEW
  5
6
330
0
100
AcDbSymbolTable
 70
     0
  0
ENDTAB
  0
TABLE
  2
UCS
  5
7
330
0
100
AcDbSymbolTable
 70
     0
  0
ENDTAB
  0
TABLE
  2
APPID
  5
9
330
0
100
AcDbSymbolTable
 70
     1
  0
APPID
  5
12
330
9
100
AcDbSymbolTableRecord
100
AcDbRegAppTableRecord
  2
ACAD
 70
     0
  0
ENDTAB
  0
TABLE
  2
DIMSTYLE
  5
A
330
0
100
AcDbSymbolTable
 70
     1
100
AcDbDimStyleTable
 71
     1
340
27
  0
DIMSTYLE
105
27
330
A
100
AcDbSymbolTableRecord
100
AcDbDimStyleTableRecord
  2
ISO-25
 70
     0
 41
2.5
 42
0.625
 43
3.75
 44
1.25
 73
     0
 74
     0
 77
     1
 78
     8
140
2.5
141
2.5
143
0.03937007874016
147
0.625
171
     3
172
     1
271
     2
272
     2
274
     3
283
     0
284
     8
340
11
  0
ENDTAB
  0
TABLE
  2
BLOCK_RECORD
  5
1
330
0
100
AcDbSymbolTable
 70
     2
  0
BLOCK_RECORD
  5
1F
330
1
100
AcDbSymbolTableRecord
100
AcDbBlockTableRecord
  2
*Model_Space
340
22
  0
BLOCK_RECORD
  5
1B
330
1
100
AcDbSymbolTableRecord
100
AcDbBlockTableRecord
  2
*Paper_Space
340
1E
  0
BLOCK_RECORD
  5
23
330
1
100
AcDbSymbolTableRecord
100
AcDbBlockTableRecord
  2
*Paper_Space0
340
26
  0
ENDTAB
  0
ENDSEC
  0
SECTION
  2
BLOCKS
  0
BLOCK
  5
20
330
1F
100
AcDbEntity
  8
0
100
AcDbBlockBegin
  2
*Model_Space
 70
     0
 10
0.0
 20
0.0
 30
0.0
  3
*Model_Space
  1

  0
ENDBLK
  5
21
330
1F
100
AcDbEntity
  8
0
100
AcDbBlockEnd
  0
BLOCK
  5
1C
330
1B
100
AcDbEntity
 67
     1
  8
0
100
AcDbBlockBegin
  2
*Paper_Space
 70
     0
 10
0.0
 20
0.0
 30
0.0
  3
*Paper_Space
  1

  0
ENDBLK
  5
1D
330
1B
100
AcDbEntity
 67
     1
  8
0
100
AcDbBlockEnd
  0
BLOCK
  5
24
330
23
100
AcDbEntity
  8
0
100
AcDbBlockBegin
  2
*Paper_Space0
 70
     0
 10
0.0
 20
0.0
 30
0.0
  3
*Paper_Space0
  1

  0
ENDBLK
  5
25
330
23
100
AcDbEntity
  8
0
100
AcDbBlockEnd
  0
ENDSEC
  0
SECTION
  2
ENTITIES
  0
LINE
  5
2EF
330
1F
100
AcDbEntity
  8
0
  6
Continuous
 62
     7
370
    25
100
AcDbLine
 10
130.3482685168644
 20
92.12091322828689
 30
0.0
 11
139.7686678381073
 21
92.12091322828689
 31
0.0
  0
ARC
  5
2F0
330
1F
100
AcDbEntity
  8
0
  6
Continuous
 62
     7
370
    25
100
AcDbCircle
 10
130.3482686390134
 20
93.32091039110526
 30
0.0
 40
1.200000000000043
100
AcDbArc
 50
180.0
 51
270.0
  0
LINE
  5
2F1
330
1F
100
AcDbEntity
  8
0
  6
Continuous
 62
     7
370
    25
100
AcDbLine
 10
129.1482686926983
 20
186.9209105132953
 30
0.0
 11
129.1482686926983
 21
93.32091118980713
 31
0.0
  0
ARC
  5
2F2
330
1F
100
AcDbEntity
  8
0
  6
Continuous
 62
     7
370
    25
100
AcDbCircle
 10
130.3482686390134
 20
186.9209103911056
 30
0.0
 40
1.200000000000398
100
AcDbArc
 50
90.0
 51
180.0
  0
LINE
  5
2F3
330
1F
100
AcDbEntity
  8
0
  6
Continuous
 62
     7
370
    25
100
AcDbLine
 10
154.8261359264515
 20
188.1209103374616
 30
0.0
 11
130.3482685168644
 21
188.1209103374616
 31
0.0
  0
LINE
  5
2F4
330
1F
100
AcDbEntity
  8
0
  6
Continuous
 62
     7
370
    25
100
AcDbLine
 10
414.4482813706065
 20
188.1209103374616
 30
0.0
 11
389.9704120983745
 21
188.1209103374616
 31
0.0
  0
ARC
  5
2F5
330
1F
100
AcDbEntity
  8
0
  6
Continuous
 62
     7
370
    25
100
AcDbCircle
 10
414.4482687115935
 20
186.9209103911065
 30
0.0
 40
1.200000000000257
100
AcDbArc
 50
0.0
 51
90.00000000196717
  0
LINE
  5
2F6
330
1F
100
AcDbEntity
  8
0
  6
Continuous
 62
     7
370
    25
100
AcDbLine
 10
415.6482718815464
 20
93.32091118980713
 30
0.0
 11
415.6482718815464
 21
186.9209105132953
 31
0.0
  0
ARC
  5
2F7
330
1F
100
AcDbEntity
  8
0
  6
Continuous
 62
     7
370
    25
100
AcDbCircle
 10
414.4482687115944
 20
93.32091039110526
 30
0.0
 40
1.200000000000043
100
AcDbArc
 50
270.0
 51
0.0
  0
LINE
  5
2F8
330
1F
100
AcDbEntity
  8
0
  6
Continuous
 62
     7
370
    25
100
AcDbLine
 10
405.0278566708234
 20
92.12091322828689
 30
0.0
 11
414.4482813706065
 21
92.12091322828689
 31
0.0
  0
LINE
  5
2F9
330
1F
100
AcDbEntity
  8
0
  6
Continuous
 62
     7
370
    25
100
AcDbLine
 10
284.9704079260495
 20
92.12091322828689
 30
0.0
 11
373.7686626543663
 21
92.12091322828689
 31
0.0
  0
LINE
  5
2FA
330
1F
100
AcDbEntity
  8
0
  6
Continuous
 62
     7
370
    25
100
AcDbLine
 10
171.0278704692984
 20
92.12091322828689
 30
0.0
 11
259.8261363734863
 21
92.12091322828689
 31
0.0
  0
ARC
  5
2FB
330
1F
100
AcDbEntity
  8
0
  6
Continuous
 62
     7
370
    25
100
AcDbCircle
 10
157.8982690386715
 20
87.82091104587413
 30
0.0
 40
0.5000000000000428
100
AcDbArc
 50
180.0
 51
270.0
  0
LINE
  5
2FC
330
1F
100
AcDbEntity
  8
0
  6
Continuous
 62
     7
370
    25
100
AcDbLine
 10
157.3982682009605
 20
89.9209098546629
 30
0.0
 11
157.3982682009605
 21
87.82091155935665
 31
0.0
  0
ARC
  5
2FD
330
1F
100
AcDbEntity
  8
0
  6
Continuous
 62
     7
370
    25
100
AcDbCircle
 10
155.6982686390604
 20
89.9209126471427
 30
0.0
 40
1.700000000000805
100
AcDbArc
 50
359.9999625046731
 51
180.0000374953268
  0
LINE
  5
2FE
330
1F
100
AcDbEntity
  8
0
  6
Continuous
 62
     7
370
    25
100
AcDbLine
 10
153.9982683887144
 20
87.82091155935665
 30
0.0
 11
153.9982683887144
 21
89.9209098546629
 31
0.0
  0
ARC
  5
2FF
330
1F
100
AcDbEntity
  8
0
  6
Continuous
 62
     7
370
    25
100
AcDbCircle
 10
153.4982687607644
 20
87.82091104587413
 30
0.0
 40
0.5000000000000428
100
AcDbArc
 50
270.0
 51
0.0
  0
LINE
  5
300
330
1F
100
AcDbEntity
  8
0
  6
Continuous
 62
     7
370
    25
100
AcDbLine
 10
147.3286362295414
 20
91.79927166391861
 30
0.0
 11
150.3370921276923
 21
88.21394064218509
 31
0.0
  0
ARC
  5
301
330
1F
100
AcDbEntity
  8
0
  6
Continuous
 62
     7
370
    25
100
AcDbCircle
 10
145.0305038447045
 20
89.87091039116364
 30
0.0
 40
3.00000000000004
100
AcDbArc
 50
40.00001984694407
 51
90.0
  0
LINE
  5
302
330
1F
100
AcDbEntity
  8
0
  6
Continuous
 62
     7
370
    25
100
AcDbLine
 10
145.0305037130974
 20
92.87091102291503
 30
0.0
 11
142.1482687280883
 21
92.87091102291503
 31
0.0
  0
ARC
  5
303
330
1F
100
AcDbEntity
  8
0
  6
Continuous
 62
     7
370
    25
100
AcDbCircle
 10
142.1482686390345
 20
89.72091039116401
 30
0.0
 40
3.150000000000047
100
AcDbArc
 50
90.0
 51
124.9875051301159
  0
ARC
  5
304
330
1F
100
AcDbEntity
  8
0
  6
Continuous
 62
     7
370
    25
100
AcDbCircle
 10
139.7686678320924
 20
93.12091039110544
 30
0.0
 40
0.9999999999999507
100
AcDbArc
 50
270.0
 51
304.9875051301158
  0
ARC
  5
305
330
1F
100
AcDbEntity
  8
0
  6
Continuous
 62
     7
370
    25
100
AcDbCircle
 10
154.8261364581094
 20
190.1209103911054
 30
0.0
 40
2.000000000000034
100
AcDbArc
 50
270.0
 51
319.999980153064
  0
LINE
  5
306
330
1F
100
AcDbEntity
  8
0
  6
Continuous
 62
     7
370
    25
100
AcDbLine
 10
159.0370907121543
 20
192.027879917054
 30
0.0
 11
156.3582248916295
 21
188.8353344037071
 31
0.0
  0
ARC
  5
307
330
1F
100
AcDbEntity
  8
0
  6
Continuous
 62
     7
370
    25
100
AcDbCircle
 10
162.1982687607264
 20
192.4209097363376
 30
0.0
 40
0.5000000000000428
100
AcDbArc
 50
0.0
 51
90.0
  0
LINE
  5
308
330
1F
100
AcDbEntity
  8
0
  6
Continuous
 62
     7
370
    25
100
AcDbLine
 10
162.6982685109044
 20
190.3209090544709
 30
0.0
 11
162.6982685109044
 21
192.4209101437467
 31
0.0
  0
ARC
  5
309
330
1F
100
AcDbEntity
  8
0
  6
Continuous
 62
     7
370
    25
100
AcDbCircle
 10
164.3982686390215
 20
190.32090813507
 30
0.0
 40
1.700000000000734
100
AcDbArc
 50
179.9999625046731
 51
0.000037495326883
  0
LINE
  5
30A
330
1F
100
AcDbEntity
  8
0
  6
Continuous
 62
     7
370
    25
100
AcDbLine
 10
166.0982683231495
 20
192.4209101437467
 30
0.0
 11
166.0982683231495
 21
190.3209090544709
 31
0.0
  0
ARC
  5
30B
330
1F
100
AcDbEntity
  8
0
  6
Continuous
 62
     7
370
    25
100
AcDbCircle
 10
166.5982690386324
 20
192.4209097363376
 30
0.0
 40
0.5000000000000428
100
AcDbArc
 50
90.0
 51
180.0
  0
LINE
  5
30C
330
1F
100
AcDbEntity
  8
0
  6
Continuous
 62
     7
370
    25
100
AcDbLine
 10
172.4383138050693
 20
188.8353344037071
 30
0.0
 11
169.7594460765603
 21
192.0278801019507
 31
0.0
  0
ARC
  5
30D
330
1F
100
AcDbEntity
  8
0
  6
Continuous
 62
     7
370
    25
100
AcDbCircle
 10
173.9704005216053
 20
190.1209103911054
 30
0.0
 40
2.000000000000007
100
AcDbArc
 50
220.0000168902995
 51
270.0
  0
ARC
  5
30E
330
1F
100
AcDbEntity
  8
0
  6
Continuous
 62
     7
370
    25
100
AcDbCircle
 10
260.0261269137283
 20
190.1209103911054
 30
0.0
 40
2.000000000000004
100
AcDbArc
 50
270.0
 51
319.999980153064
  0
LINE
  5
30F
330
1F
100
AcDbEntity
  8
0
  6
Continuous
 62
     7
370
    25
100
AcDbLine
 10
264.2370788276864
 20
192.0278786829934
 30
0.0
 11
261.5582175483375
 21
188.8353344037071
 31
0.0
  0
ARC
  5
310
330
1F
100
AcDbEntity
  8
0
  6
Continuous
 62
     7
370
    25
100
AcDbCircle
 10
270.1982592163453
 20
192.4209101684704
 30
0.0
 40
0.5000000000000428
100
AcDbArc
 50
0.0
 51
90.0
  0
LINE
  5
311
330
1F
100
AcDbEntity
  8
0
  6
Continuous
 62
     7
370
    25
100
AcDbLine
 10
270.6982545485164
 20
190.3209090544709
 30
0.0
 11
270.6982545485164
 21
192.4209105758794
 31
0.0
  0
ARC
  5
312
330
1F
100
AcDbEntity
  8
0
  6
Continuous
 62
     7
370
    25
100
AcDbCircle
 10
272.3982591309024
 20
190.32090813507
 30
0.0
 40
1.700000036263495
100
AcDbArc
 50
179.9999625046731
 51
0.000037495326883
  0
LINE
  5
313
330
1F
100
AcDbEntity
  8
0
  6
Continuous
 62
     7
370
    25
100
AcDbLine
 10
274.0982524981163
 20
192.4209105758794
 30
0.0
 11
274.0982524981163
 21
190.3209090544709
 31
0.0
  0
ARC
  5
314
330
1F
100
AcDbEntity
  8
0
  6
Continuous
 62
     7
370
    25
100
AcDbCircle
 10
274.5982595667774
 20
192.4209101684704
 30
0.0
 40
0.5000000000000428
100
AcDbArc
 50
90.0
 51
180.0
  0
LINE
  5
315
330
1F
100
AcDbEntity
  8
0
  6
Continuous
 62
     7
370
    25
100
AcDbLine
 10
283.2382969488765
 20
188.8353344037071
 30
0.0
 11
280.5594447518744
 21
192.0278762148667
 31
0.0
  0
ARC
  5
316
330
1F
100
AcDbEntity
  8
0
  6
Continuous
 62
     7
370
    25
100
AcDbCircle
 10
284.7703910497505
 20
190.1209103911054
 30
0.0
 40
1.99999999999999
100
AcDbArc
 50
220.0000168902995
 51
270.0
  0
ARC
  5
317
330
1F
100
AcDbEntity
  8
0
  6
Continuous
 62
     7
370
    25
100
AcDbCircle
 10
370.8261365306343
 20
190.1209103911054
 30
0.0
 40
2.000000000000004
100
AcDbArc
 50
270.0
 51
319.999980153064
  0
LINE
  5
318
330
1F
100
AcDbEntity
  8
0
  6
Continuous
 62
     7
370
    25
100
AcDbLine
 10
375.0370934055865
 20
192.0278811511128
 30
0.0
 11
372.3582230438855
 21
188.8353344037071
 31
0.0
  0
ARC
  5
319
330
1F
100
AcDbEntity
  8
0
  6
Continuous
 62
     7
370
    25
100
AcDbCircle
 10
378.1982688332504
 20
192.4209101684704
 30
0.0
 40
0.4999999999999716
100
AcDbArc
 50
0.0
 51
90.0
  0
LINE
  5
31A
330
1F
100
AcDbEntity
  8
0
  6
Continuous
 62
     7
370
    25
100
AcDbLine
 10
378.6982648005155
 20
190.3209090544709
 30
0.0
 11
378.6982648005155
 21
192.4209105758794
 31
0.0
  0
ARC
  5
31B
330
1F
100
AcDbEntity
  8
0
  6
Continuous
 62
     7
370
    25
100
AcDbCircle
 10
380.3982687115453
 20
190.32090813507
 30
0.0
 40
1.700000000000664
100
AcDbArc
 50
179.9999625046731
 51
0.000037495326883
  0
LINE
  5
31C
330
1F
100
AcDbEntity
  8
0
  6
Continuous
 62
     7
370
    25
100
AcDbLine
 10
382.0982627501155
 20
192.4209105758794
 30
0.0
 11
382.0982627501155
 21
190.3209090544709
 31
0.0
  0
ARC
  5
31D
330
1F
100
AcDbEntity
  8
0
  6
Continuous
 62
     7
370
    25
100
AcDbCircle
 10
382.5982691111564
 20
192.4209101684704
 30
0.0
 40
0.5000000000000428
100
AcDbArc
 50
90.0
 51
180.0
  0
LINE
  5
31E
330
1F
100
AcDbEntity
  8
0
  6
Continuous
 62
     7
370
    25
100
AcDbLine
 10
388.4383194079063
 20
188.8353344037071
 30
0.0
 11
385.7594490462054
 21
192.0278811511128
 31
0.0
  0
ARC
  5
31F
330
1F
100
AcDbEntity
  8
0
  6
Continuous
 62
     7
370
    25
100
AcDbCircle
 10
389.9704005941293
 20
190.1209103911054
 30
0.0
 40
1.999999999999962
100
AcDbArc
 50
220.0000168902995
 51
270.0
  0
ARC
  5
320
330
1F
100
AcDbEntity
  8
0
  6
Continuous
 62
     7
370
    25
100
AcDbCircle
 10
405.0278694459843
 20
93.12091039110544
 30
0.0
 40
1.000000000000013
100
AcDbArc
 50
235.0124948699677
 51
270.0
  0
ARC
  5
321
330
1F
100
AcDbEntity
  8
0
  6
Continuous
 62
     7
370
    25
100
AcDbCircle
 10
402.6482686390474
 20
89.72091039116127
 30
0.0
 40
3.15000000000009
100
AcDbArc
 50
55.01249486995728
 51
89.9999999992965
  0
LINE
  5
322
330
1F
100
AcDbEntity
  8
0
  6
Continuous
 62
     7
370
    25
100
AcDbLine
 10
402.6482604374555
 20
92.87091102291503
 30
0.0
 11
399.7660480370184
 21
92.87091102291503
 31
0.0
  0
ARC
  5
323
330
1F
100
AcDbEntity
  8
0
  6
Continuous
 62
     7
370
    25
100
AcDbCircle
 10
399.7660334334164
 20
89.87091039116364
 30
0.0
 40
3.00000000000004
100
AcDbArc
 50
90.0
 51
139.9999801530559
  0
LINE
  5
324
330
1F
100
AcDbEntity
  8
0
  6
Continuous
 62
     7
370
    25
100
AcDbLine
 10
397.4679015507365
 20
91.79927166391861
 30
0.0
 11
397.1432052483223
 21
91.41232576061645
 31
0.0
  0
ARC
  5
325
330
1F
100
AcDbEntity
  8
0
  6
Continuous
 62
     7
370
    25
100
AcDbCircle
 10
398.6703818036565
 20
90.12091039110543
 30
0.0
 40
2.000000000000134
100
AcDbArc
 50
139.7812981693036
 51
139.9999801530559
  0
LINE
  5
326
330
1F
100
AcDbEntity
  8
0
  6
Continuous
 62
     7
370
    25
100
AcDbLine
 10
394.4594160373394
 20
88.21393951649076
 30
0.0
 11
397.1382878651283
 21
91.40648450542846
 31
0.0
  0
ARC
  5
327
330
1F
100
AcDbEntity
  8
0
  6
Continuous
 62
     7
370
    25
100
AcDbCircle
 10
391.2982495010405
 20
87.82091104587413
 30
0.0
 40
0.5000000000001137
100
AcDbArc
 50
180.0
 51
270.0
  0
LINE
  5
328
330
1F
100
AcDbEntity
  8
0
  6
Continuous
 62
     7
370
    25
100
AcDbLine
 10
390.7982610096594
 20
89.9209098546629
 30
0.0
 11
390.7982610096594
 21
87.82091155935665
 31
0.0
  0
ARC
  5
329
330
1F
100
AcDbEntity
  8
0
  6
Continuous
 62
     7
370
    25
100
AcDbCircle
 10
389.0982496227445
 20
89.9209126471427
 30
0.0
 40
1.700000000000664
100
AcDbArc
 50
359.9999625046731
 51
180.0000374953268
  0
LINE
  5
32A
330
1F
100
AcDbEntity
  8
0
  6
Continuous
 62
     7
370
    25
100
AcDbLine
 10
387.3982481588985
 20
87.82091155935665
 30
0.0
 11
387.3982481588985
 21
89.9209098546629
 31
0.0
  0
ARC
  5
32B
330
1F
100
AcDbEntity
  8
0
  6
Continuous
 62
     7
370
    25
100
AcDbCircle
 10
386.8982492231334
 20
87.82091104587413
 30
0.0
 40
0.5000000000000428
100
AcDbArc
 50
270.0
 51
0.0
  0
ARC
  5
32C
330
1F
100
AcDbEntity
  8
0
  6
Continuous
 62
     7
370
    25
100
AcDbCircle
 10
378.4305041775724
 20
89.87091039116364
 30
0.0
 40
3.000000000000071
100
AcDbArc
 50
40.00001689029958
 51
90.0
  0
LINE
  5
32D
330
1F
100
AcDbEntity
  8
0
  6
Continuous
 62
     7
370
    25
100
AcDbLine
 10
378.4305058350223
 20
92.87091102291503
 30
0.0
 11
376.1482737888954
 21
92.87091102291503
 31
0.0
  0
ARC
  5
32E
330
1F
100
AcDbEntity
  8
0
  6
Continuous
 62
     7
370
    25
100
AcDbCircle
 10
376.1482686390475
 20
89.7209103911631
 30
0.0
 40
3.150000000000971
100
AcDbArc
 50
90.0
 51
124.9875051301041
  0
ARC
  5
32F
330
1F
100
AcDbEntity
  8
0
  6
Continuous
 62
     7
370
    25
100
AcDbCircle
 10
373.7686678321074
 20
93.12091039110544
 30
0.0
 40
1.000000000000059
100
AcDbArc
 50
270.0
 51
304.9875051301041
  0
ARC
  5
330
330
1F
100
AcDbEntity
  8
0
  6
Continuous
 62
     7
370
    25
100
AcDbCircle
 10
284.9704005941685
 20
90.12091039110543
 30
0.0
 40
1.999999999999955
100
AcDbArc
 50
90.0
 51
139.9999831097085
  0
LINE
  5
331
330
1F
100
AcDbEntity
  8
0
  6
Continuous
 62
     7
370
    25
100
AcDbLine
 10
280.7594434077925
 20
88.21393951649076
 30
0.0
 11
283.4383152355815
 21
91.40648450542846
 31
0.0
  0
ARC
  5
332
330
1F
100
AcDbEntity
  8
0
  6
Continuous
 62
     7
370
    25
100
AcDbCircle
 10
274.5982690386704
 20
87.82091104587413
 30
0.0
 40
0.5000000000000428
100
AcDbArc
 50
180.0
 51
270.0
  0
LINE
  5
333
330
1F
100
AcDbEntity
  8
0
  6
Continuous
 62
     7
370
    25
100
AcDbLine
 10
274.0982673992775
 20
89.9209098546629
 30
0.0
 11
274.0982673992775
 21
87.82091155935665
 31
0.0
  0
ARC
  5
334
330
1F
100
AcDbEntity
  8
0
  6
Continuous
 62
     7
370
    25
100
AcDbCircle
 10
272.3982686390604
 20
89.9209126471427
 30
0.0
 40
1.700000000000734
100
AcDbArc
 50
359.9999625046731
 51
180.0000374953268
  0
LINE
  5
335
330
1F
100
AcDbEntity
  8
0
  6
Continuous
 62
     7
370
    25
100
AcDbLine
 10
270.6982694496773
 20
87.82091155935665
 30
0.0
 11
270.6982694496773
 21
89.9209098546629
 31
0.0
  0
ARC
  5
336
330
1F
100
AcDbEntity
  8
0
  6
Continuous
 62
     7
370
    25
100
AcDbCircle
 10
270.1982687607635
 20
87.82091104587413
 30
0.0
 40
0.4999999999999716
100
AcDbArc
 50
270.0
 51
0.0
  0
LINE
  5
337
330
1F
100
AcDbEntity
  8
0
  6
Continuous
 62
     7
370
    25
100
AcDbLine
 10
261.3582216133734
 20
91.40648450542846
 30
0.0
 11
264.0370934411623
 21
88.21393951649076
 31
0.0
  0
ARC
  5
338
330
1F
100
AcDbEntity
  8
0
  6
Continuous
 62
     7
370
    25
100
AcDbCircle
 10
259.8261364581474
 20
90.12091039110634
 30
0.0
 40
1.999999999999955
100
AcDbArc
 50
40.00001984694407
 51
90.0
  0
ARC
  5
339
330
1F
100
AcDbEntity
  8
0
  6
Continuous
 62
     7
370
    25
100
AcDbCircle
 10
171.0278694459743
 20
93.12091039110544
 30
0.0
 40
1.000000000000001
100
AcDbArc
 50
235.0124948698958
 51
270.0
  0
ARC
  5
33A
330
1F
100
AcDbEntity
  8
0
  6
Continuous
 62
     7
370
    25
100
AcDbCircle
 10
168.6482686390345
 20
89.7209103911631
 30
0.0
 40
3.150000000000971
100
AcDbArc
 50
55.01249486989583
 51
90.0
  0
LINE
  5
33B
330
1F
100
AcDbEntity
  8
0
  6
Continuous
 62
     7
370
    25
100
AcDbLine
 10
168.6482686479955
 20
92.87091102291503
 30
0.0
 11
166.3660328765774
 21
92.87091102291503
 31
0.0
  0
ARC
  5
33C
330
1F
100
AcDbEntity
  8
0
  6
Continuous
 62
     7
370
    25
100
AcDbCircle
 10
166.3660331005473
 20
89.87091039116364
 30
0.0
 40
3.00000000000004
100
AcDbArc
 50
90.0
 51
139.9999831097004
  0
LINE
  5
33D
330
1F
100
AcDbEntity
  8
0
  6
Continuous
 62
     7
370
    25
100
AcDbLine
 10
161.0594446447885
 20
88.21394091868695
 30
0.0
 11
164.0678994288114
 21
91.79927166391861
 31
0.0
  0
LINE
  5
33E
330
1F
100
AcDbEntity
  8
0
  6
Continuous
 62
     7
370
    25
100
AcDbLine
 10
383.7370789887634
 20
88.21394419845853
 30
0.0
 11
380.7286374201444
 21
91.79927166391861
 31
0.0
  0
LINE
  5
33F
330
1F
100
AcDbEntity
  8
0
100
AcDbLine
 10
383.8443395817244
 20
192.9209101684704
 30
0.0
 11
382.5982691111564
 21
192.9209101684704
 31
0.0
  0
LINE
  5
340
330
1F
100
AcDbEntity
  8
0
100
AcDbLine
 10
392.5443074417485
 20
87.32091153463295
 30
0.0
 11
391.2975503887114
 21
87.32091153463295
 31
0.0
  0
ARC
  5
341
330
1F
100
AcDbEntity
  8
0
100
AcDbCircle
 10
160.9522012121344
 20
190.4209101684704
 30
0.0
 40
2.5
100
AcDbArc
 50
90.0
 51
139.9999783285559
  0
LINE
  5
342
330
1F
100
AcDbEntity
  8
0
100
AcDbLine
 10
160.9522012121344
 20
192.9209101684704
 30
0.0
 11
162.1982687607264
 21
192.9209097363367
 31
0.0
  0
LINE
  5
343
330
1F
100
AcDbEntity
  8
0
100
AcDbLine
 10
166.5982690386324
 20
192.9209097363367
 30
0.0
 11
167.8443360943294
 21
192.9209097363367
 31
0.0
  0
ARC
  5
344
330
1F
100
AcDbEntity
  8
0
370
    25
100
AcDbCircle
 10
167.8443360943294
 20
190.4209097363376
 30
0.0
 40
2.5
100
AcDbArc
 50
40.00004013155752
 51
90.0
  0
ARC
  5
345
330
1F
100
AcDbEntity
  8
0
100
AcDbCircle
 10
383.8443395817244
 20
190.4209101684704
 30
0.0
 40
2.5
100
AcDbArc
 50
40.00005859171037
 51
90.0
  0
LINE
  5
346
330
1F
100
AcDbEntity
  8
0
100
AcDbLine
 10
378.1982688332504
 20
192.9209101684704
 30
0.0
 11
376.9522028700673
 21
192.9209101684704
 31
0.0
  0
ARC
  5
347
330
1F
100
AcDbEntity
  8
0
370
    25
100
AcDbCircle
 10
376.9522028700673
 20
190.4209101684704
 30
0.0
 40
2.5
100
AcDbArc
 50
90.0
 51
139.9999414082896
  0
LINE
  5
348
330
1F
100
AcDbEntity
  8
0
100
AcDbLine
 10
270.1982592163453
 20
192.9209101684704
 30
0.0
 11
266.1521903631673
 21
192.9209101684704
 31
0.0
  0
ARC
  5
349
330
1F
100
AcDbEntity
  8
0
370
    25
100
AcDbCircle
 10
266.1521903631673
 20
190.4209101684704
 30
0.0
 40
2.5
100
AcDbArc
 50
90.0
 51
140.0000152488694
  0
LINE
  5
34A
330
1F
100
AcDbEntity
  8
0
100
AcDbLine
 10
274.5982595667774
 20
192.9209101684704
 30
0.0
 11
278.6443311453924
 21
192.9209101684704
 31
0.0
  0
ARC
  5
34B
330
1F
100
AcDbEntity
  8
0
370
    25
100
AcDbCircle
 10
278.6443311453924
 20
190.4209101684704
 30
0.0
 40
2.5
100
AcDbArc
 50
39.99991091040645
 51
90.0
  0
ARC
  5
34C
330
1F
100
AcDbEntity
  8
0
100
AcDbCircle
 10
385.6521915129953
 20
89.82091153463205
 30
0.0
 40
2.5
100
AcDbArc
 50
219.999949497636
 51
270.0
  0
LINE
  5
34D
330
1F
100
AcDbEntity
  8
0
100
AcDbLine
 10
386.8989483354114
 20
87.32091153463295
 30
0.0
 11
385.6521915129953
 21
87.32091153463205
 31
0.0
  0
ARC
  5
34E
330
1F
100
AcDbEntity
  8
0
370
    25
100
AcDbCircle
 10
392.5443074417485
 20
89.82091153463295
 30
0.0
 40
2.5
100
AcDbArc
 50
270.0
 51
319.9999104284774
  0
LINE
  5
34F
330
1F
100
AcDbEntity
  8
0
100
AcDbLine
 10
278.8443348122013
 20
87.32091153463295
 30
0.0
 11
274.5975699262803
 21
87.32091153463295
 31
0.0
  0
ARC
  5
350
330
1F
100
AcDbEntity
  8
0
370
    25
100
AcDbCircle
 10
265.9522020367535
 20
89.82091153463295
 30
0.0
 40
2.5
100
AcDbArc
 50
220.0000895715226
 51
270.0
  0
ARC
  5
351
330
1F
100
AcDbEntity
  8
0
370
    25
100
AcDbCircle
 10
278.8443348122013
 20
89.82091153463295
 30
0.0
 40
2.5
100
AcDbArc
 50
270.0
 51
319.9999104284774
  0
LINE
  5
352
330
1F
100
AcDbEntity
  8
0
100
AcDbLine
 10
270.1989678729394
 20
87.32091153463295
 30
0.0
 11
265.9522020367535
 21
87.32091153463295
 31
0.0
  0
LINE
  5
353
330
1F
100
AcDbEntity
  8
0
100
AcDbLine
 10
159.1443348726125
 20
87.32091153463295
 30
0.0
 11
157.8975699262823
 21
87.32091153463295
 31
0.0
  0
ARC
  5
354
330
1F
100
AcDbEntity
  8
0
370
    25
100
AcDbCircle
 10
152.2522016678565
 20
89.82091153463295
 30
0.0
 40
2.5
100
AcDbArc
 50
220.0000558932411
 51
270.0
  0
LINE
  5
355
330
1F
100
AcDbEntity
  8
0
100
AcDbLine
 10
153.4989678731535
 20
87.32091153463295
 30
0.0
 11
152.2522016678565
 21
87.32091153463295
 31
0.0
  0
ARC
  5
356
330
1F
100
AcDbEntity
  8
0
370
    25
100
AcDbCircle
 10
159.1443348726125
 20
89.82091153463295
 30
0.0
 40
2.5
100
AcDbArc
 50
270.0
 51
319.9999523790355
  0
LINE
  5
357
330
1F
100
AcDbEntity
  8
0
100
AcDbLine
 10
173.9704005216053
 20
188.1209103911063
 30
0.0
 11
260.0261269137283
 21
188.1209103911063
 31
0.0
  0
LINE
  5
358
330
1F
100
AcDbEntity
  8
0
100
AcDbLine
 10
284.7703910497505
 20
188.1209103911063
 30
0.0
 11
370.8261365306343
 21
188.1209103911063
 31
0.0
  0
LINE
  5
359
330
1F
100
AcDbEntity
  8
0
100
AcDbLine
 10
309.0407686390544
 20
114.0509103911057
 30
0.0
 11
321.4807686390554
 21
114.0509103911057
 31
0.0
  0
LINE
  5
35A
330
1F
100
AcDbEntity
  8
0
100
AcDbLine
 10
309.0407686390544
 20
128.0909103911056
 30
0.0
 11
321.4807686390545
 21
128.0909103911038
 31
0.0
  0
LINE
  5
35B
330
1F
100
AcDbEntity
  8
0
100
AcDbLine
 10
304.2782686390544
 20
171.2009103911053
 30
0.0
 11
316.7182686390544
 21
171.2009103911053
 31
0.0
  0
LINE
  5
35C
330
1F
100
AcDbEntity
  8
0
100
AcDbLine
 10
304.2782686390544
 20
185.2409103911053
 30
0.0
 11
316.7182686390535
 21
185.2409103911053
 31
0.0
  0
LINE
  5
35D
330
1F
100
AcDbEntity
  8
0
100
AcDbLine
 10
313.8032686390545
 20
152.1509103911052
 30
0.0
 11
326.2432686390555
 21
152.1509103911052
 31
0.0
  0
LINE
  5
35E
330
1F
100
AcDbEntity
  8
0
100
AcDbLine
 10
313.8032686390545
 20
166.1909103911051
 30
0.0
 11
326.2432686390545
 21
166.1909103911051
 31
0.0
  0
LINE
  5
35F
330
1F
100
AcDbEntity
  8
0
100
AcDbLine
 10
306.8300686390534
 20
109.2409103911062
 30
0.0
 11
306.8300686390543
 21
95.80091039110573
 31
0.0
  0
LINE
  5
360
330
1F
100
AcDbEntity
  8
0
100
AcDbLine
 10
314.2300686390535
 20
109.2409103911098
 30
0.0
 11
314.2300686390544
 21
95.80091039110573
 31
0.0
  0
LINE
  5
361
330
1F
100
AcDbEntity
  8
0
100
AcDbLine
 10
218.9925686390533
 20
109.240910391108
 30
0.0
 11
218.9925686390545
 21
95.80091039110573
 31
0.0
  0
LINE
  5
362
330
1F
100
AcDbEntity
  8
0
100
AcDbLine
 10
206.8300686390534
 20
109.2409103911053
 30
0.0
 11
206.8300686390543
 21
95.80091039110573
 31
0.0
  0
LINE
  5
363
330
1F
100
AcDbEntity
  8
0
100
AcDbLine
 10
150.8307686390535
 20
108.2409103911053
 30
0.0
 11
150.8307686390544
 21
95.80091039110664
 31
0.0
  0
LINE
  5
364
330
1F
100
AcDbEntity
  8
0
100
AcDbLine
 10
134.4095186390525
 20
108.2409103911053
 30
0.0
 11
134.4095186390534
 21
95.80091039110664
 31
0.0
  0
LINE
  5
365
330
1F
100
AcDbEntity
  8
0
100
AcDbLine
 10
207.6300686390545
 20
95.00091039110463
 30
0.0
 11
218.1925686390545
 21
95.00091039110463
 31
0.0
  0
ARC
  5
366
330
1F
100
AcDbEntity
  8
0
100
AcDbCircle
 10
150.0307686390544
 20
95.80091039110664
 30
0.0
 40
0.8
100
AcDbArc
 50
270.0
 51
0.0
  0
ARC
  5
367
330
1F
100
AcDbEntity
  8
0
100
AcDbCircle
 10
135.2095186390533
 20
95.80091039110664
 30
0.0
 40
0.8
100
AcDbArc
 50
180.0
 51
270.0
  0
LINE
  5
368
330
1F
100
AcDbEntity
  8
0
100
AcDbLine
 10
135.2095186390533
 20
95.00091039110646
 30
0.0
 11
150.0307686390544
 21
95.00091039110646
 31
0.0
  0
LINE
  5
369
330
1F
100
AcDbEntity
  8
0
100
AcDbLine
 10
307.6300686390545
 20
95.00091039110463
 30
0.0
 11
313.4300686390545
 21
95.00091039110463
 31
0.0
  0
ARC
  5
36A
330
1F
100
AcDbEntity
  8
0
100
AcDbCircle
 10
213.7907686390544
 20
114.8509103911049
 30
0.0
 40
0.8
100
AcDbArc
 50
180.0
 51
270.0
  0
ARC
  5
36B
330
1F
100
AcDbEntity
  8
0
100
AcDbCircle
 10
213.7907686390544
 20
127.2909103911055
 30
0.0
 40
0.8
100
AcDbArc
 50
90.0
 51
180.0
  0
LINE
  5
36C
330
1F
100
AcDbEntity
  8
0
100
AcDbLine
 10
209.0282686390544
 20
171.2009103911053
 30
0.0
 11
221.4682686390545
 21
171.2009103911053
 31
0.0
  0
LINE
  5
36D
330
1F
100
AcDbEntity
  8
0
100
AcDbLine
 10
209.0282686390544
 20
185.2409103911053
 30
0.0
 11
221.4682686390535
 21
185.2409103911053
 31
0.0
  0
ARC
  5
36E
330
1F
100
AcDbEntity
  8
0
100
AcDbCircle
 10
211.9432686390544
 20
165.3909103911049
 30
0.0
 40
0.8
100
AcDbArc
 50
0.0
 51
90.0
  0
ARC
  5
36F
330
1F
100
AcDbEntity
  8
0
100
AcDbCircle
 10
211.9432686390544
 20
152.9509103911053
 30
0.0
 40
0.8
100
AcDbArc
 50
270.0
 51
0.0
  0
LINE
  5
370
330
1F
100
AcDbEntity
  8
0
100
AcDbLine
 10
204.2657686390543
 20
133.100910391105
 30
0.0
 11
216.7057686390544
 21
133.100910391105
 31
0.0
  0
LINE
  5
371
330
1F
100
AcDbEntity
  8
0
100
AcDbLine
 10
204.2657686390543
 20
147.1409103911049
 30
0.0
 11
216.7057686390535
 21
147.1409103911049
 31
0.0
  0
LINE
  5
372
330
1F
100
AcDbEntity
  8
0
100
AcDbLine
 10
146.0682686390543
 20
184.4409103911051
 30
0.0
 11
146.0682686390543
 21
172.0009103911064
 31
0.0
  0
LINE
  5
373
330
1F
100
AcDbEntity
  8
0
100
AcDbLine
 10
132.0282686390544
 20
184.4409103911051
 30
0.0
 11
132.0282686390544
 21
172.0009103911064
 31
0.0
  0
LINE
  5
374
330
1F
100
AcDbEntity
  8
0
100
AcDbLine
 10
184.1682686390534
 20
184.4409103911051
 30
0.0
 11
184.1682686390545
 21
172.0009103911064
 31
0.0
  0
LINE
  5
375
330
1F
100
AcDbEntity
  8
0
100
AcDbLine
 10
170.1282686390534
 20
184.4409103911051
 30
0.0
 11
170.1282686390534
 21
172.0009103911064
 31
0.0
  0
LINE
  5
376
330
1F
100
AcDbEntity
  8
0
100
AcDbLine
 10
165.1182686390534
 20
184.4409103911051
 30
0.0
 11
165.1182686390545
 21
172.0009103911064
 31
0.0
  0
LINE
  5
377
330
1F
100
AcDbEntity
  8
0
100
AcDbLine
 10
151.0782686390534
 20
184.4409103911051
 30
0.0
 11
151.0782686390534
 21
172.0009103911064
 31
0.0
  0
LINE
  5
378
330
1F
100
AcDbEntity
  8
0
100
AcDbLine
 10
203.2182686390535
 20
184.4409103911051
 30
0.0
 11
203.2182686390545
 21
172.0009103911064
 31
0.0
  0
LINE
  5
379
330
1F
100
AcDbEntity
  8
0
100
AcDbLine
 10
189.1782686390533
 20
184.4409103911051
 30
0.0
 11
189.1782686390533
 21
172.0009103911064
 31
0.0
  0
LINE
  5
37A
330
1F
100
AcDbEntity
  8
0
100
AcDbLine
 10
208.2282686390535
 20
184.4409103911051
 30
0.0
 11
208.2282686390535
 21
172.0009103911064
 31
0.0
  0
ARC
  5
37B
330
1F
100
AcDbEntity
  8
0
100
AcDbCircle
 10
161.4032686390535
 20
152.9509103911053
 30
0.0
 40
0.8
100
AcDbArc
 50
180.0
 51
270.0
  0
ARC
  5
37C
330
1F
100
AcDbEntity
  8
0
100
AcDbCircle
 10
161.4032686390535
 20
165.3909103911049
 30
0.0
 40
0.8
100
AcDbArc
 50
90.0
 51
180.0
  0
LINE
  5
37D
330
1F
100
AcDbEntity
  8
0
100
AcDbLine
 10
151.8782686390534
 20
171.2009103911053
 30
0.0
 11
164.3182686390534
 21
171.2009103911053
 31
0.0
  0
LINE
  5
37E
330
1F
100
AcDbEntity
  8
0
  6
Continuous
 62
     7
370
    15
100
AcDbLine
 10
135.2295117003284
 20
128.0909103911056
 30
0.0
 11
169.0607612331775
 21
128.0909103911038
 31
0.0
  0
ARC
  5
37F
330
1F
100
AcDbEntity
  8
0
100
AcDbCircle
 10
150.0307686390535
 20
165.3909103911049
 30
0.0
 40
0.8
100
AcDbArc
 50
0.0
 51
90.0
  0
LINE
  5
380
330
1F
100
AcDbEntity
  8
0
100
AcDbLine
 10
150.8307686390535
 20
165.3909103911049
 30
0.0
 11
150.8307686390544
 21
152.9509103911053
 31
0.0
  0
ARC
  5
381
330
1F
100
AcDbEntity
  8
0
100
AcDbCircle
 10
150.0307686390544
 20
152.9509103911053
 30
0.0
 40
0.8
100
AcDbArc
 50
270.0
 51
0.0
  0
LINE
  5
382
330
1F
100
AcDbEntity
  8
0
100
AcDbLine
 10
137.5907686390535
 20
152.1509103911052
 30
0.0
 11
150.0307686390544
 21
152.1509103911052
 31
0.0
  0
ARC
  5
383
330
1F
100
AcDbEntity
  8
0
100
AcDbCircle
 10
137.5907686390535
 20
152.9509103911053
 30
0.0
 40
0.8
100
AcDbArc
 50
180.0
 51
270.0
  0
LINE
  5
384
330
1F
100
AcDbEntity
  8
0
100
AcDbLine
 10
136.7907686390535
 20
165.3909103911049
 30
0.0
 11
136.7907686390535
 21
152.9509103911053
 31
0.0
  0
LINE
  5
385
330
1F
100
AcDbEntity
  8
0
100
AcDbLine
 10
137.5907686390535
 20
166.1909103911051
 30
0.0
 11
150.0307686390535
 21
166.1909103911051
 31
0.0
  0
ARC
  5
386
330
1F
100
AcDbEntity
  8
0
100
AcDbCircle
 10
137.5907686390535
 20
165.3909103911049
 30
0.0
 40
0.8
100
AcDbArc
 50
90.0
 51
180.0
  0
LINE
  5
387
330
1F
100
AcDbEntity
  8
0
100
AcDbLine
 10
160.6032686390535
 20
165.3909103911049
 30
0.0
 11
160.6032686390535
 21
152.9509103911053
 31
0.0
  0
ARC
  5
388
330
1F
100
AcDbEntity
  8
0
100
AcDbCircle
 10
145.2682686390544
 20
172.0009103911064
 30
0.0
 40
0.8
100
AcDbArc
 50
270.0
 51
0.0
  0
LINE
  5
389
330
1F
100
AcDbEntity
  8
0
100
AcDbLine
 10
132.8282686390543
 20
171.2009103911053
 30
0.0
 11
145.2682686390544
 21
171.2009103911053
 31
0.0
  0
ARC
  5
38A
330
1F
100
AcDbEntity
  8
0
100
AcDbCircle
 10
132.8282686390543
 20
172.0009103911064
 30
0.0
 40
0.8
100
AcDbArc
 50
180.0
 51
270.0
  0
ARC
  5
38B
330
1F
100
AcDbEntity
  8
0
100
AcDbCircle
 10
151.8782686390534
 20
172.0009103911064
 30
0.0
 40
0.8
100
AcDbArc
 50
180.0
 51
270.0
  0
LINE
  5
38C
330
1F
100
AcDbEntity
  8
0
  6
Continuous
 62
     7
370
    15
100
AcDbLine
 10
134.4295117003293
 20
113.850910391104
 30
0.0
 11
134.4295117003275
 21
127.2909103911055
 31
0.0
  0
ARC
  5
38D
330
1F
100
AcDbEntity
  8
0
100
AcDbCircle
 10
152.4118386390535
 20
146.3409103911057
 30
0.0
 40
0.8
100
AcDbArc
 50
0.0
 51
90.0
  0
LINE
  5
38E
330
1F
100
AcDbEntity
  8
0
100
AcDbLine
 10
153.2118386390534
 20
146.3409103911057
 30
0.0
 11
153.2118386390545
 21
133.9009103911051
 31
0.0
  0
ARC
  5
38F
330
1F
100
AcDbEntity
  8
0
100
AcDbCircle
 10
152.4118386390535
 20
133.9009103911051
 30
0.0
 40
0.8
100
AcDbArc
 50
270.0
 51
0.0
  0
ARC
  5
390
330
1F
100
AcDbEntity
  8
0
  6
Continuous
 62
     7
370
    15
100
AcDbCircle
 10
135.2295117003284
 20
127.2909103911055
 30
0.0
 40
0.8
100
AcDbArc
 50
90.0
 51
180.0
  0
ARC
  5
391
330
1F
100
AcDbEntity
  8
0
100
AcDbCircle
 10
135.2095186390533
 20
133.9009103911051
 30
0.0
 40
0.8
100
AcDbArc
 50
180.0
 51
270.0
  0
LINE
  5
392
330
1F
100
AcDbEntity
  8
0
100
AcDbLine
 10
134.4095186390534
 20
146.3409103911057
 30
0.0
 11
134.4095186390534
 21
133.9009103911051
 31
0.0
  0
ARC
  5
393
330
1F
100
AcDbEntity
  8
0
100
AcDbCircle
 10
135.2095186390533
 20
146.3409103911057
 30
0.0
 40
0.8
100
AcDbArc
 50
90.0
 51
180.0
  0
LINE
  5
394
330
1F
100
AcDbEntity
  8
0
100
AcDbLine
 10
135.2095186390533
 20
133.100910391105
 30
0.0
 11
152.4118386390535
 21
133.100910391105
 31
0.0
  0
LINE
  5
395
330
1F
100
AcDbEntity
  8
0
100
AcDbLine
 10
135.2095186390533
 20
147.1409103911049
 30
0.0
 11
152.4118386390535
 21
147.1409103911049
 31
0.0
  0
ARC
  5
396
330
1F
100
AcDbEntity
  8
0
100
AcDbCircle
 10
150.0307686390535
 20
108.2409103911053
 30
0.0
 40
0.8
100
AcDbArc
 50
0.0
 51
90.0
  0
ARC
  5
397
330
1F
100
AcDbEntity
  8
0
100
AcDbCircle
 10
135.2095186390524
 20
108.2409103911053
 30
0.0
 40
0.8
100
AcDbArc
 50
90.0
 51
180.0
  0
LINE
  5
398
330
1F
100
AcDbEntity
  8
0
100
AcDbLine
 10
135.2095186390524
 20
109.0409103911055
 30
0.0
 11
150.0307686390535
 21
109.0409103911055
 31
0.0
  0
ARC
  5
399
330
1F
100
AcDbEntity
  8
0
100
AcDbCircle
 10
207.1807686390545
 20
127.2909103911055
 30
0.0
 40
0.8
100
AcDbArc
 50
0.0
 51
90.0
  0
LINE
  5
39A
330
1F
100
AcDbEntity
  8
0
100
AcDbLine
 10
207.9807686390545
 20
127.2909103911055
 30
0.0
 11
207.9807686390554
 21
114.8509103911049
 31
0.0
  0
ARC
  5
39B
330
1F
100
AcDbEntity
  8
0
100
AcDbCircle
 10
207.1807686390554
 20
114.8509103911049
 30
0.0
 40
0.8
100
AcDbArc
 50
270.0
 51
0.0
  0
LINE
  5
39C
330
1F
100
AcDbEntity
  8
0
100
AcDbLine
 10
194.7407686390545
 20
114.0509103911057
 30
0.0
 11
207.1807686390554
 21
114.0509103911057
 31
0.0
  0
ARC
  5
39D
330
1F
100
AcDbEntity
  8
0
100
AcDbCircle
 10
194.7407686390545
 20
114.8509103911049
 30
0.0
 40
0.8
100
AcDbArc
 50
180.0
 51
270.0
  0
LINE
  5
39E
330
1F
100
AcDbEntity
  8
0
100
AcDbLine
 10
193.9407686390545
 20
127.2909103911055
 30
0.0
 11
193.9407686390545
 21
114.8509103911049
 31
0.0
  0
LINE
  5
39F
330
1F
100
AcDbEntity
  8
0
100
AcDbLine
 10
194.7407686390545
 20
128.0909103911056
 30
0.0
 11
207.1807686390545
 21
128.0909103911038
 31
0.0
  0
ARC
  5
3A0
330
1F
100
AcDbEntity
  8
0
100
AcDbCircle
 10
194.7407686390545
 20
127.2909103911055
 30
0.0
 40
0.8
100
AcDbArc
 50
90.0
 51
180.0
  0
ARC
  5
3A1
330
1F
100
AcDbEntity
  8
0
100
AcDbCircle
 10
188.1307686390544
 20
127.2909103911055
 30
0.0
 40
0.8
100
AcDbArc
 50
0.0
 51
90.0
  0
LINE
  5
3A2
330
1F
100
AcDbEntity
  8
0
100
AcDbLine
 10
188.9307686390545
 20
127.2909103911055
 30
0.0
 11
188.9307686390554
 21
114.8509103911049
 31
0.0
  0
ARC
  5
3A3
330
1F
100
AcDbEntity
  8
0
100
AcDbCircle
 10
188.1307686390544
 20
114.8509103911049
 30
0.0
 40
0.8
100
AcDbArc
 50
270.0
 51
0.0
  0
LINE
  5
3A4
330
1F
100
AcDbEntity
  8
0
100
AcDbLine
 10
175.6907686390545
 20
114.0509103911057
 30
0.0
 11
188.1307686390544
 21
114.0509103911057
 31
0.0
  0
ARC
  5
3A5
330
1F
100
AcDbEntity
  8
0
100
AcDbCircle
 10
175.6907686390545
 20
114.8509103911049
 30
0.0
 40
0.8
100
AcDbArc
 50
180.0
 51
270.0
  0
LINE
  5
3A6
330
1F
100
AcDbEntity
  8
0
100
AcDbLine
 10
174.8907686390543
 20
127.2909103911055
 30
0.0
 11
174.8907686390543
 21
114.8509103911049
 31
0.0
  0
LINE
  5
3A7
330
1F
100
AcDbEntity
  8
0
100
AcDbLine
 10
175.6907686390545
 20
128.0909103911056
 30
0.0
 11
188.1307686390544
 21
128.0909103911038
 31
0.0
  0
ARC
  5
3A8
330
1F
100
AcDbEntity
  8
0
100
AcDbCircle
 10
175.6907686390545
 20
127.2909103911055
 30
0.0
 40
0.8
100
AcDbArc
 50
90.0
 51
180.0
  0
ARC
  5
3A9
330
1F
100
AcDbEntity
  8
0
100
AcDbCircle
 10
192.8932686390535
 20
165.3909103911049
 30
0.0
 40
0.8
100
AcDbArc
 50
0.0
 51
90.0
  0
LINE
  5
3AA
330
1F
100
AcDbEntity
  8
0
100
AcDbLine
 10
193.6932686390534
 20
165.3909103911049
 30
0.0
 11
193.6932686390555
 21
152.9509103911053
 31
0.0
  0
ARC
  5
3AB
330
1F
100
AcDbEntity
  8
0
100
AcDbCircle
 10
192.8932686390544
 20
152.9509103911053
 30
0.0
 40
0.8
100
AcDbArc
 50
270.0
 51
0.0
  0
LINE
  5
3AC
330
1F
100
AcDbEntity
  8
0
100
AcDbLine
 10
180.4532686390544
 20
152.1509103911052
 30
0.0
 11
192.8932686390544
 21
152.1509103911052
 31
0.0
  0
ARC
  5
3AD
330
1F
100
AcDbEntity
  8
0
100
AcDbCircle
 10
180.4532686390544
 20
152.9509103911053
 30
0.0
 40
0.8
100
AcDbArc
 50
180.0
 51
270.0
  0
LINE
  5
3AE
330
1F
100
AcDbEntity
  8
0
100
AcDbLine
 10
179.6532686390544
 20
165.3909103911049
 30
0.0
 11
179.6532686390544
 21
152.9509103911053
 31
0.0
  0
LINE
  5
3AF
330
1F
100
AcDbEntity
  8
0
100
AcDbLine
 10
180.4532686390544
 20
166.1909103911051
 30
0.0
 11
192.8932686390535
 21
166.1909103911051
 31
0.0
  0
ARC
  5
3B0
330
1F
100
AcDbEntity
  8
0
100
AcDbCircle
 10
180.4532686390544
 20
165.3909103911049
 30
0.0
 40
0.8
100
AcDbArc
 50
90.0
 51
180.0
  0
ARC
  5
3B1
330
1F
100
AcDbEntity
  8
0
100
AcDbCircle
 10
197.6557686390535
 20
146.3409103911057
 30
0.0
 40
0.8
100
AcDbArc
 50
0.0
 51
90.0
  0
LINE
  5
3B2
330
1F
100
AcDbEntity
  8
0
100
AcDbLine
 10
198.4557686390535
 20
146.3409103911057
 30
0.0
 11
198.4557686390544
 21
133.9009103911051
 31
0.0
  0
ARC
  5
3B3
330
1F
100
AcDbEntity
  8
0
100
AcDbCircle
 10
197.6557686390544
 20
133.9009103911051
 30
0.0
 40
0.8
100
AcDbArc
 50
270.0
 51
0.0
  0
LINE
  5
3B4
330
1F
100
AcDbEntity
  8
0
100
AcDbLine
 10
185.2157686390544
 20
133.100910391105
 30
0.0
 11
197.6557686390544
 21
133.100910391105
 31
0.0
  0
ARC
  5
3B5
330
1F
100
AcDbEntity
  8
0
100
AcDbCircle
 10
185.2157686390544
 20
133.9009103911051
 30
0.0
 40
0.8
100
AcDbArc
 50
180.0
 51
270.0
  0
LINE
  5
3B6
330
1F
100
AcDbEntity
  8
0
100
AcDbLine
 10
184.4157686390535
 20
146.3409103911057
 30
0.0
 11
184.4157686390535
 21
133.9009103911051
 31
0.0
  0
LINE
  5
3B7
330
1F
100
AcDbEntity
  8
0
100
AcDbLine
 10
185.2157686390544
 20
147.1409103911049
 30
0.0
 11
197.6557686390535
 21
147.1409103911049
 31
0.0
  0
ARC
  5
3B8
330
1F
100
AcDbEntity
  8
0
100
AcDbCircle
 10
185.2157686390544
 20
146.3409103911057
 30
0.0
 40
0.8
100
AcDbArc
 50
90.0
 51
180.0
  0
ARC
  5
3B9
330
1F
100
AcDbEntity
  8
0
100
AcDbCircle
 10
178.6057686390534
 20
146.3409103911057
 30
0.0
 40
0.8
100
AcDbArc
 50
0.0
 51
90.0
  0
LINE
  5
3BA
330
1F
100
AcDbEntity
  8
0
100
AcDbLine
 10
179.4057686390535
 20
146.3409103911057
 30
0.0
 11
179.4057686390544
 21
133.9009103911051
 31
0.0
  0
ARC
  5
3BB
330
1F
100
AcDbEntity
  8
0
100
AcDbCircle
 10
178.6057686390545
 20
133.9009103911051
 30
0.0
 40
0.8
100
AcDbArc
 50
270.0
 51
0.0
  0
LINE
  5
3BC
330
1F
100
AcDbEntity
  8
0
100
AcDbLine
 10
166.1657686390535
 20
133.100910391105
 30
0.0
 11
178.6057686390545
 21
133.100910391105
 31
0.0
  0
ARC
  5
3BD
330
1F
100
AcDbEntity
  8
0
100
AcDbCircle
 10
166.1657686390535
 20
133.9009103911051
 30
0.0
 40
0.8
100
AcDbArc
 50
180.0
 51
270.0
  0
LINE
  5
3BE
330
1F
100
AcDbEntity
  8
0
100
AcDbLine
 10
165.3657686390533
 20
146.3409103911057
 30
0.0
 11
165.3657686390533
 21
133.9009103911051
 31
0.0
  0
LINE
  5
3BF
330
1F
100
AcDbEntity
  8
0
100
AcDbLine
 10
166.1657686390535
 20
147.1409103911049
 30
0.0
 11
178.6057686390534
 21
147.1409103911049
 31
0.0
  0
ARC
  5
3C0
330
1F
100
AcDbEntity
  8
0
100
AcDbCircle
 10
166.1657686390535
 20
146.3409103911057
 30
0.0
 40
0.8
100
AcDbArc
 50
90.0
 51
180.0
  0
ARC
  5
3C1
330
1F
100
AcDbEntity
  8
0
100
AcDbCircle
 10
173.8432686390535
 20
165.3909103911049
 30
0.0
 40
0.8
100
AcDbArc
 50
0.0
 51
90.0
  0
LINE
  5
3C2
330
1F
100
AcDbEntity
  8
0
100
AcDbLine
 10
174.6432686390535
 20
165.3909103911049
 30
0.0
 11
174.6432686390544
 21
152.9509103911053
 31
0.0
  0
ARC
  5
3C3
330
1F
100
AcDbEntity
  8
0
100
AcDbCircle
 10
173.8432686390544
 20
152.9509103911053
 30
0.0
 40
0.8
100
AcDbArc
 50
270.0
 51
0.0
  0
LINE
  5
3C4
330
1F
100
AcDbEntity
  8
0
100
AcDbLine
 10
161.4032686390535
 20
152.1509103911052
 30
0.0
 11
173.8432686390544
 21
152.1509103911052
 31
0.0
  0
LINE
  5
3C5
330
1F
100
AcDbEntity
  8
0
100
AcDbLine
 10
161.4032686390535
 20
166.1909103911051
 30
0.0
 11
173.8432686390535
 21
166.1909103911051
 31
0.0
  0
ARC
  5
3C6
330
1F
100
AcDbEntity
  8
0
100
AcDbCircle
 10
183.3682686390545
 20
172.0009103911064
 30
0.0
 40
0.8
100
AcDbArc
 50
270.0
 51
0.0
  0
LINE
  5
3C7
330
1F
100
AcDbEntity
  8
0
100
AcDbLine
 10
170.9282686390533
 20
171.2009103911053
 30
0.0
 11
183.3682686390545
 21
171.2009103911053
 31
0.0
  0
ARC
  5
3C8
330
1F
100
AcDbEntity
  8
0
100
AcDbCircle
 10
170.9282686390533
 20
172.0009103911064
 30
0.0
 40
0.8
100
AcDbArc
 50
180.0
 51
270.0
  0
ARC
  5
3C9
330
1F
100
AcDbEntity
  8
0
100
AcDbCircle
 10
164.3182686390534
 20
172.0009103911064
 30
0.0
 40
0.8
100
AcDbArc
 50
270.0
 51
0.0
  0
ARC
  5
3CA
330
1F
100
AcDbEntity
  8
0
100
AcDbCircle
 10
202.4182686390545
 20
172.0009103911064
 30
0.0
 40
0.8
100
AcDbArc
 50
270.0
 51
0.0
  0
LINE
  5
3CB
330
1F
100
AcDbEntity
  8
0
100
AcDbLine
 10
189.9782686390535
 20
171.2009103911053
 30
0.0
 11
202.4182686390545
 21
171.2009103911053
 31
0.0
  0
ARC
  5
3CC
330
1F
100
AcDbEntity
  8
0
100
AcDbCircle
 10
189.9782686390535
 20
172.0009103911064
 30
0.0
 40
0.8
100
AcDbArc
 50
180.0
 51
270.0
  0
ARC
  5
3CD
330
1F
100
AcDbEntity
  8
0
100
AcDbCircle
 10
209.0282686390544
 20
172.0009103911064
 30
0.0
 40
0.8
100
AcDbArc
 50
180.0
 51
270.0
  0
LINE
  5
3CE
330
1F
100
AcDbEntity
  8
0
100
AcDbLine
 10
212.7432686390545
 20
165.3909103911049
 30
0.0
 11
212.7432686390554
 21
152.9509103911053
 31
0.0
  0
LINE
  5
3CF
330
1F
100
AcDbEntity
  8
0
100
AcDbLine
 10
199.5032686390545
 20
152.1509103911052
 30
0.0
 11
211.9432686390544
 21
152.1509103911052
 31
0.0
  0
ARC
  5
3D0
330
1F
100
AcDbEntity
  8
0
100
AcDbCircle
 10
199.5032686390545
 20
152.9509103911053
 30
0.0
 40
0.8
100
AcDbArc
 50
180.0
 51
270.0
  0
LINE
  5
3D1
330
1F
100
AcDbEntity
  8
0
100
AcDbLine
 10
198.7032686390543
 20
165.3909103911049
 30
0.0
 11
198.7032686390543
 21
152.9509103911053
 31
0.0
  0
LINE
  5
3D2
330
1F
100
AcDbEntity
  8
0
100
AcDbLine
 10
199.5032686390545
 20
166.1909103911051
 30
0.0
 11
211.9432686390544
 21
166.1909103911051
 31
0.0
  0
ARC
  5
3D3
330
1F
100
AcDbEntity
  8
0
100
AcDbCircle
 10
199.5032686390545
 20
165.3909103911049
 30
0.0
 40
0.8
100
AcDbArc
 50
90.0
 51
180.0
  0
ARC
  5
3D4
330
1F
100
AcDbEntity
  8
0
100
AcDbCircle
 10
204.2657686390543
 20
133.9009103911051
 30
0.0
 40
0.8
100
AcDbArc
 50
180.0
 51
270.0
  0
LINE
  5
3D5
330
1F
100
AcDbEntity
  8
0
100
AcDbLine
 10
203.4657686390544
 20
146.3409103911057
 30
0.0
 11
203.4657686390544
 21
133.9009103911051
 31
0.0
  0
ARC
  5
3D6
330
1F
100
AcDbEntity
  8
0
100
AcDbCircle
 10
204.2657686390543
 20
146.3409103911057
 30
0.0
 40
0.8
100
AcDbArc
 50
90.0
 51
180.0
  0
LINE
  5
3D7
330
1F
100
AcDbEntity
  8
0
100
AcDbLine
 10
207.6300686390534
 20
110.0409103911055
 30
0.0
 11
218.1925686390534
 21
110.0409103911082
 31
0.0
  0
LINE
  5
3D8
330
1F
100
AcDbEntity
  8
0
  6
Continuous
 62
     7
370
    15
100
AcDbLine
 10
166.5924686390553
 20
114.0509103911066
 30
0.0
 11
169.0607612331775
 21
114.0509103911066
 31
0.0
  0
ARC
  5
3D9
330
1F
100
AcDbEntity
  8
0
  6
Continuous
 62
     7
370
    15
100
AcDbCircle
 10
169.0607612331775
 20
127.2909103911055
 30
0.0
 40
0.8
100
AcDbArc
 50
0.0
 51
90.0
  0
ARC
  5
3DA
330
1F
100
AcDbEntity
  8
0
  6
Continuous
 62
     7
370
    15
100
AcDbCircle
 10
169.0607612331775
 20
114.8509103911059
 30
0.0
 40
0.8
100
AcDbArc
 50
270.0
 51
0.0
  0
LINE
  5
3DB
330
1F
100
AcDbEntity
  8
0
  6
Continuous
 62
     7
370
    15
100
AcDbLine
 10
169.8607612331775
 20
114.8509103911059
 30
0.0
 11
169.8607612331775
 21
127.2909103911055
 31
0.0
  0
LINE
  5
3DC
330
1F
100
AcDbEntity
  8
0
100
AcDbLine
 10
151.8782686390534
 20
185.2409103911053
 30
0.0
 11
164.3182686390534
 21
185.2409103911053
 31
0.0
  0
ARC
  5
3DD
330
1F
100
AcDbEntity
  8
0
100
AcDbCircle
 10
145.2682686390535
 20
184.4409103911051
 30
0.0
 40
0.8
100
AcDbArc
 50
0.0
 51
90.0
  0
LINE
  5
3DE
330
1F
100
AcDbEntity
  8
0
100
AcDbLine
 10
132.8282686390543
 20
185.2409103911053
 30
0.0
 11
145.2682686390535
 21
185.2409103911053
 31
0.0
  0
ARC
  5
3DF
330
1F
100
AcDbEntity
  8
0
100
AcDbCircle
 10
132.8282686390543
 20
184.4409103911051
 30
0.0
 40
0.8
100
AcDbArc
 50
90.0
 51
180.0
  0
ARC
  5
3E0
330
1F
100
AcDbEntity
  8
0
100
AcDbCircle
 10
151.8782686390534
 20
184.4409103911051
 30
0.0
 40
0.8
100
AcDbArc
 50
90.0
 51
180.0
  0
ARC
  5
3E1
330
1F
100
AcDbEntity
  8
0
100
AcDbCircle
 10
183.3682686390534
 20
184.4409103911051
 30
0.0
 40
0.8
100
AcDbArc
 50
0.0
 51
90.0
  0
LINE
  5
3E2
330
1F
100
AcDbEntity
  8
0
100
AcDbLine
 10
170.9282686390533
 20
185.2409103911053
 30
0.0
 11
183.3682686390534
 21
185.2409103911053
 31
0.0
  0
ARC
  5
3E3
330
1F
100
AcDbEntity
  8
0
100
AcDbCircle
 10
170.9282686390533
 20
184.4409103911051
 30
0.0
 40
0.8
100
AcDbArc
 50
90.0
 51
180.0
  0
ARC
  5
3E4
330
1F
100
AcDbEntity
  8
0
100
AcDbCircle
 10
164.3182686390534
 20
184.4409103911051
 30
0.0
 40
0.8
100
AcDbArc
 50
0.0
 51
90.0
  0
ARC
  5
3E5
330
1F
100
AcDbEntity
  8
0
100
AcDbCircle
 10
202.4182686390533
 20
184.4409103911051
 30
0.0
 40
0.8
100
AcDbArc
 50
0.0
 51
90.0
  0
LINE
  5
3E6
330
1F
100
AcDbEntity
  8
0
100
AcDbLine
 10
189.9782686390535
 20
185.2409103911053
 30
0.0
 11
202.4182686390533
 21
185.2409103911053
 31
0.0
  0
ARC
  5
3E7
330
1F
100
AcDbEntity
  8
0
100
AcDbCircle
 10
189.9782686390535
 20
184.4409103911051
 30
0.0
 40
0.8
100
AcDbArc
 50
90.0
 51
180.0
  0
ARC
  5
3E8
330
1F
100
AcDbEntity
  8
0
100
AcDbCircle
 10
209.0282686390544
 20
184.4409103911051
 30
0.0
 40
0.8
100
AcDbArc
 50
90.0
 51
180.0
  0
LINE
  5
3E9
330
1F
100
AcDbEntity
  8
0
100
AcDbLine
 10
298.4682686390535
 20
184.4409103911051
 30
0.0
 11
298.4682686390545
 21
172.0009103911064
 31
0.0
  0
LINE
  5
3EA
330
1F
100
AcDbEntity
  8
0
100
AcDbLine
 10
284.4282686390533
 20
184.4409103911051
 30
0.0
 11
284.4282686390533
 21
172.0009103911064
 31
0.0
  0
LINE
  5
3EB
330
1F
100
AcDbEntity
  8
0
100
AcDbLine
 10
241.3182686390535
 20
184.4409103911051
 30
0.0
 11
241.3182686390543
 21
172.0009103911064
 31
0.0
  0
LINE
  5
3EC
330
1F
100
AcDbEntity
  8
0
100
AcDbLine
 10
227.2782686390544
 20
184.4409103911051
 30
0.0
 11
227.2782686390544
 21
172.0009103911064
 31
0.0
  0
LINE
  5
3ED
330
1F
100
AcDbEntity
  8
0
100
AcDbLine
 10
279.4182686390533
 20
184.4409103911051
 30
0.0
 11
279.4182686390545
 21
172.0009103911064
 31
0.0
  0
LINE
  5
3EE
330
1F
100
AcDbEntity
  8
0
100
AcDbLine
 10
265.3782686390534
 20
184.4409103911051
 30
0.0
 11
265.3782686390534
 21
172.0009103911064
 31
0.0
  0
LINE
  5
3EF
330
1F
100
AcDbEntity
  8
0
100
AcDbLine
 10
260.3682686390534
 20
184.4409103911051
 30
0.0
 11
260.3682686390545
 21
172.0009103911064
 31
0.0
  0
LINE
  5
3F0
330
1F
100
AcDbEntity
  8
0
100
AcDbLine
 10
246.3282686390534
 20
184.4409103911051
 30
0.0
 11
246.3282686390534
 21
172.0009103911064
 31
0.0
  0
LINE
  5
3F1
330
1F
100
AcDbEntity
  8
0
100
AcDbLine
 10
222.2682686390535
 20
184.4409103911051
 30
0.0
 11
222.2682686390544
 21
172.0009103911064
 31
0.0
  0
LINE
  5
3F2
330
1F
100
AcDbEntity
  8
0
100
AcDbLine
 10
303.4782686390535
 20
184.4409103911051
 30
0.0
 11
303.4782686390535
 21
172.0009103911064
 31
0.0
  0
ARC
  5
3F3
330
1F
100
AcDbEntity
  8
0
100
AcDbCircle
 10
264.3307686390544
 20
127.2909103911055
 30
0.0
 40
0.8
100
AcDbArc
 50
0.0
 51
90.0
  0
ARC
  5
3F4
330
1F
100
AcDbEntity
  8
0
100
AcDbCircle
 10
264.3307686390556
 20
114.8509103911049
 30
0.0
 40
0.8
100
AcDbArc
 50
270.0
 51
0.0
  0
LINE
  5
3F5
330
1F
100
AcDbEntity
  8
0
100
AcDbLine
 10
256.6532686390544
 20
152.1509103911052
 30
0.0
 11
269.0932686390544
 21
152.1509103911052
 31
0.0
  0
LINE
  5
3F6
330
1F
100
AcDbEntity
  8
0
100
AcDbLine
 10
256.6532686390544
 20
166.1909103911051
 30
0.0
 11
269.0932686390535
 21
166.1909103911051
 31
0.0
  0
LINE
  5
3F7
330
1F
100
AcDbEntity
  8
0
100
AcDbLine
 10
261.4157686390535
 20
133.100910391105
 30
0.0
 11
273.8557686390545
 21
133.100910391105
 31
0.0
  0
LINE
  5
3F8
330
1F
100
AcDbEntity
  8
0
100
AcDbLine
 10
261.4157686390535
 20
147.1409103911049
 30
0.0
 11
273.8557686390533
 21
147.1409103911049
 31
0.0
  0
ARC
  5
3F9
330
1F
100
AcDbEntity
  8
0
100
AcDbCircle
 10
245.2807686390544
 20
127.2909103911055
 30
0.0
 40
0.8
100
AcDbArc
 50
0.0
 51
90.0
  0
LINE
  5
3FA
330
1F
100
AcDbEntity
  8
0
100
AcDbLine
 10
246.0807686390544
 20
127.2909103911055
 30
0.0
 11
246.0807686390555
 21
114.8509103911049
 31
0.0
  0
ARC
  5
3FB
330
1F
100
AcDbEntity
  8
0
100
AcDbCircle
 10
245.2807686390554
 20
114.8509103911049
 30
0.0
 40
0.8
100
AcDbArc
 50
270.0
 51
0.0
  0
LINE
  5
3FC
330
1F
100
AcDbEntity
  8
0
100
AcDbLine
 10
232.8407686390544
 20
114.0509103911057
 30
0.0
 11
245.2807686390554
 21
114.0509103911057
 31
0.0
  0
ARC
  5
3FD
330
1F
100
AcDbEntity
  8
0
100
AcDbCircle
 10
232.8407686390544
 20
114.8509103911049
 30
0.0
 40
0.8
100
AcDbArc
 50
180.0
 51
270.0
  0
LINE
  5
3FE
330
1F
100
AcDbEntity
  8
0
100
AcDbLine
 10
232.0407686390544
 20
127.2909103911055
 30
0.0
 11
232.0407686390544
 21
114.8509103911049
 31
0.0
  0
LINE
  5
3FF
330
1F
100
AcDbEntity
  8
0
100
AcDbLine
 10
232.8407686390544
 20
128.0909103911056
 30
0.0
 11
245.2807686390544
 21
128.0909103911038
 31
0.0
  0
ARC
  5
400
330
1F
100
AcDbEntity
  8
0
100
AcDbCircle
 10
232.8407686390544
 20
127.2909103911055
 30
0.0
 40
0.8
100
AcDbArc
 50
90.0
 51
180.0
  0
ARC
  5
401
330
1F
100
AcDbEntity
  8
0
100
AcDbCircle
 10
235.7557686390543
 20
146.3409103911057
 30
0.0
 40
0.8
100
AcDbArc
 50
0.0
 51
90.0
  0
LINE
  5
402
330
1F
100
AcDbEntity
  8
0
100
AcDbLine
 10
236.5557686390545
 20
146.3409103911057
 30
0.0
 11
236.5557686390554
 21
133.9009103911051
 31
0.0
  0
ARC
  5
403
330
1F
100
AcDbEntity
  8
0
100
AcDbCircle
 10
235.7557686390543
 20
133.9009103911051
 30
0.0
 40
0.8
100
AcDbArc
 50
270.0
 51
0.0
  0
LINE
  5
404
330
1F
100
AcDbEntity
  8
0
100
AcDbLine
 10
223.3157686390545
 20
133.100910391105
 30
0.0
 11
235.7557686390543
 21
133.100910391105
 31
0.0
  0
ARC
  5
405
330
1F
100
AcDbEntity
  8
0
100
AcDbCircle
 10
223.3157686390545
 20
133.9009103911051
 30
0.0
 40
0.8
100
AcDbArc
 50
180.0
 51
270.0
  0
LINE
  5
406
330
1F
100
AcDbEntity
  8
0
100
AcDbLine
 10
222.5157686390543
 20
146.3409103911057
 30
0.0
 11
222.5157686390543
 21
133.9009103911051
 31
0.0
  0
LINE
  5
407
330
1F
100
AcDbEntity
  8
0
100
AcDbLine
 10
223.3157686390545
 20
147.1409103911049
 30
0.0
 11
235.7557686390543
 21
147.1409103911049
 31
0.0
  0
ARC
  5
408
330
1F
100
AcDbEntity
  8
0
100
AcDbCircle
 10
223.3157686390545
 20
146.3409103911057
 30
0.0
 40
0.8
100
AcDbArc
 50
90.0
 51
180.0
  0
ARC
  5
409
330
1F
100
AcDbEntity
  8
0
100
AcDbCircle
 10
230.9932686390545
 20
165.3909103911049
 30
0.0
 40
0.8
100
AcDbArc
 50
0.0
 51
90.0
  0
LINE
  5
40A
330
1F
100
AcDbEntity
  8
0
100
AcDbLine
 10
231.7932686390545
 20
165.3909103911049
 30
0.0
 11
231.7932686390554
 21
152.9509103911053
 31
0.0
  0
ARC
  5
40B
330
1F
100
AcDbEntity
  8
0
100
AcDbCircle
 10
230.9932686390554
 20
152.9509103911053
 30
0.0
 40
0.8
100
AcDbArc
 50
270.0
 51
0.0
  0
LINE
  5
40C
330
1F
100
AcDbEntity
  8
0
100
AcDbLine
 10
218.5532686390545
 20
152.1509103911052
 30
0.0
 11
230.9932686390554
 21
152.1509103911052
 31
0.0
  0
ARC
  5
40D
330
1F
100
AcDbEntity
  8
0
100
AcDbCircle
 10
218.5532686390545
 20
152.9509103911053
 30
0.0
 40
0.8
100
AcDbArc
 50
180.0
 51
270.0
  0
LINE
  5
40E
330
1F
100
AcDbEntity
  8
0
100
AcDbLine
 10
217.7532686390545
 20
165.3909103911049
 30
0.0
 11
217.7532686390545
 21
152.9509103911053
 31
0.0
  0
LINE
  5
40F
330
1F
100
AcDbEntity
  8
0
100
AcDbLine
 10
218.5532686390545
 20
166.1909103911051
 30
0.0
 11
230.9932686390545
 21
166.1909103911051
 31
0.0
  0
ARC
  5
410
330
1F
100
AcDbEntity
  8
0
100
AcDbCircle
 10
218.5532686390545
 20
165.3909103911049
 30
0.0
 40
0.8
100
AcDbArc
 50
90.0
 51
180.0
  0
ARC
  5
411
330
1F
100
AcDbEntity
  8
0
100
AcDbCircle
 10
250.0432686390545
 20
165.3909103911049
 30
0.0
 40
0.8
100
AcDbArc
 50
0.0
 51
90.0
  0
LINE
  5
412
330
1F
100
AcDbEntity
  8
0
100
AcDbLine
 10
250.8432686390544
 20
165.3909103911049
 30
0.0
 11
250.8432686390554
 21
152.9509103911053
 31
0.0
  0
ARC
  5
413
330
1F
100
AcDbEntity
  8
0
100
AcDbCircle
 10
250.0432686390554
 20
152.9509103911053
 30
0.0
 40
0.8
100
AcDbArc
 50
270.0
 51
0.0
  0
LINE
  5
414
330
1F
100
AcDbEntity
  8
0
100
AcDbLine
 10
237.6032686390544
 20
152.1509103911052
 30
0.0
 11
250.0432686390554
 21
152.1509103911052
 31
0.0
  0
ARC
  5
415
330
1F
100
AcDbEntity
  8
0
100
AcDbCircle
 10
237.6032686390544
 20
152.9509103911053
 30
0.0
 40
0.8
100
AcDbArc
 50
180.0
 51
270.0
  0
LINE
  5
416
330
1F
100
AcDbEntity
  8
0
100
AcDbLine
 10
236.8032686390545
 20
165.3909103911049
 30
0.0
 11
236.8032686390545
 21
152.9509103911053
 31
0.0
  0
LINE
  5
417
330
1F
100
AcDbEntity
  8
0
100
AcDbLine
 10
237.6032686390544
 20
166.1909103911051
 30
0.0
 11
250.0432686390545
 21
166.1909103911051
 31
0.0
  0
ARC
  5
418
330
1F
100
AcDbEntity
  8
0
100
AcDbCircle
 10
237.6032686390544
 20
165.3909103911049
 30
0.0
 40
0.8
100
AcDbArc
 50
90.0
 51
180.0
  0
ARC
  5
419
330
1F
100
AcDbEntity
  8
0
100
AcDbCircle
 10
254.8057686390545
 20
146.3409103911057
 30
0.0
 40
0.8
100
AcDbArc
 50
0.0
 51
90.0
  0
LINE
  5
41A
330
1F
100
AcDbEntity
  8
0
100
AcDbLine
 10
255.6057686390545
 20
146.3409103911057
 30
0.0
 11
255.6057686390554
 21
133.9009103911051
 31
0.0
  0
ARC
  5
41B
330
1F
100
AcDbEntity
  8
0
100
AcDbCircle
 10
254.8057686390555
 20
133.9009103911051
 30
0.0
 40
0.8
100
AcDbArc
 50
270.0
 51
0.0
  0
LINE
  5
41C
330
1F
100
AcDbEntity
  8
0
100
AcDbLine
 10
242.3657686390545
 20
133.100910391105
 30
0.0
 11
254.8057686390555
 21
133.100910391105
 31
0.0
  0
ARC
  5
41D
330
1F
100
AcDbEntity
  8
0
100
AcDbCircle
 10
242.3657686390545
 20
133.9009103911051
 30
0.0
 40
0.8
100
AcDbArc
 50
180.0
 51
270.0
  0
LINE
  5
41E
330
1F
100
AcDbEntity
  8
0
100
AcDbLine
 10
241.5657686390545
 20
146.3409103911057
 30
0.0
 11
241.5657686390545
 21
133.9009103911051
 31
0.0
  0
LINE
  5
41F
330
1F
100
AcDbEntity
  8
0
100
AcDbLine
 10
242.3657686390545
 20
147.1409103911049
 30
0.0
 11
254.8057686390545
 21
147.1409103911049
 31
0.0
  0
ARC
  5
420
330
1F
100
AcDbEntity
  8
0
100
AcDbCircle
 10
242.3657686390545
 20
146.3409103911057
 30
0.0
 40
0.8
100
AcDbArc
 50
90.0
 51
180.0
  0
LINE
  5
421
330
1F
100
AcDbEntity
  8
0
100
AcDbLine
 10
251.8907686390555
 20
114.0509103911057
 30
0.0
 11
264.3307686390556
 21
114.0509103911057
 31
0.0
  0
ARC
  5
422
330
1F
100
AcDbEntity
  8
0
100
AcDbCircle
 10
251.8907686390555
 20
114.8509103911049
 30
0.0
 40
0.8
100
AcDbArc
 50
180.0
 51
270.0
  0
LINE
  5
423
330
1F
100
AcDbEntity
  8
0
100
AcDbLine
 10
251.0907686390555
 20
127.2909103911055
 30
0.0
 11
251.0907686390555
 21
114.8509103911049
 31
0.0
  0
LINE
  5
424
330
1F
100
AcDbEntity
  8
0
100
AcDbLine
 10
251.8907686390555
 20
128.0909103911056
 30
0.0
 11
264.3307686390544
 21
128.0909103911038
 31
0.0
  0
ARC
  5
425
330
1F
100
AcDbEntity
  8
0
100
AcDbCircle
 10
251.8907686390555
 20
127.2909103911055
 30
0.0
 40
0.8
100
AcDbArc
 50
90.0
 51
180.0
  0
ARC
  5
426
330
1F
100
AcDbEntity
  8
0
100
AcDbCircle
 10
256.6532686390544
 20
152.9509103911053
 30
0.0
 40
0.8
100
AcDbArc
 50
180.0
 51
270.0
  0
LINE
  5
427
330
1F
100
AcDbEntity
  8
0
100
AcDbLine
 10
255.8532686390535
 20
165.3909103911049
 30
0.0
 11
255.8532686390535
 21
152.9509103911053
 31
0.0
  0
ARC
  5
428
330
1F
100
AcDbEntity
  8
0
100
AcDbCircle
 10
256.6532686390544
 20
165.3909103911049
 30
0.0
 40
0.8
100
AcDbArc
 50
90.0
 51
180.0
  0
ARC
  5
429
330
1F
100
AcDbEntity
  8
0
100
AcDbCircle
 10
261.4157686390535
 20
133.9009103911051
 30
0.0
 40
0.8
100
AcDbArc
 50
180.0
 51
270.0
  0
LINE
  5
42A
330
1F
100
AcDbEntity
  8
0
100
AcDbLine
 10
260.6157686390533
 20
146.3409103911057
 30
0.0
 11
260.6157686390533
 21
133.9009103911051
 31
0.0
  0
ARC
  5
42B
330
1F
100
AcDbEntity
  8
0
100
AcDbCircle
 10
261.4157686390535
 20
146.3409103911057
 30
0.0
 40
0.8
100
AcDbArc
 50
90.0
 51
180.0
  0
ARC
  5
42C
330
1F
100
AcDbEntity
  8
0
100
AcDbCircle
 10
240.5182686390544
 20
172.0009103911064
 30
0.0
 40
0.8
100
AcDbArc
 50
270.0
 51
0.0
  0
LINE
  5
42D
330
1F
100
AcDbEntity
  8
0
100
AcDbLine
 10
228.0782686390543
 20
171.2009103911053
 30
0.0
 11
240.5182686390544
 21
171.2009103911053
 31
0.0
  0
ARC
  5
42E
330
1F
100
AcDbEntity
  8
0
100
AcDbCircle
 10
228.0782686390543
 20
172.0009103911064
 30
0.0
 40
0.8
100
AcDbArc
 50
180.0
 51
270.0
  0
ARC
  5
42F
330
1F
100
AcDbEntity
  8
0
100
AcDbCircle
 10
259.5682686390544
 20
172.0009103911064
 30
0.0
 40
0.8
100
AcDbArc
 50
270.0
 51
0.0
  0
LINE
  5
430
330
1F
100
AcDbEntity
  8
0
100
AcDbLine
 10
247.1282686390534
 20
171.2009103911053
 30
0.0
 11
259.5682686390544
 21
171.2009103911053
 31
0.0
  0
ARC
  5
431
330
1F
100
AcDbEntity
  8
0
100
AcDbCircle
 10
247.1282686390534
 20
172.0009103911064
 30
0.0
 40
0.8
100
AcDbArc
 50
180.0
 51
270.0
  0
ARC
  5
432
330
1F
100
AcDbEntity
  8
0
100
AcDbCircle
 10
226.2307686390545
 20
127.2909103911055
 30
0.0
 40
0.8
100
AcDbArc
 50
0.0
 51
90.0
  0
LINE
  5
433
330
1F
100
AcDbEntity
  8
0
100
AcDbLine
 10
227.0307686390544
 20
127.2909103911055
 30
0.0
 11
227.0307686390554
 21
114.8509103911049
 31
0.0
  0
ARC
  5
434
330
1F
100
AcDbEntity
  8
0
100
AcDbCircle
 10
226.2307686390554
 20
114.8509103911049
 30
0.0
 40
0.8
100
AcDbArc
 50
270.0
 51
0.0
  0
LINE
  5
435
330
1F
100
AcDbEntity
  8
0
100
AcDbLine
 10
213.7907686390544
 20
114.0509103911057
 30
0.0
 11
226.2307686390554
 21
114.0509103911057
 31
0.0
  0
LINE
  5
436
330
1F
100
AcDbEntity
  8
0
100
AcDbLine
 10
212.9907686390545
 20
127.2909103911055
 30
0.0
 11
212.9907686390545
 21
114.8509103911049
 31
0.0
  0
LINE
  5
437
330
1F
100
AcDbEntity
  8
0
100
AcDbLine
 10
213.7907686390544
 20
128.0909103911056
 30
0.0
 11
226.2307686390545
 21
128.0909103911038
 31
0.0
  0
ARC
  5
438
330
1F
100
AcDbEntity
  8
0
100
AcDbCircle
 10
221.4682686390545
 20
172.0009103911064
 30
0.0
 40
0.8
100
AcDbArc
 50
270.0
 51
0.0
  0
ARC
  5
439
330
1F
100
AcDbEntity
  8
0
100
AcDbCircle
 10
216.7057686390535
 20
146.3409103911057
 30
0.0
 40
0.8
100
AcDbArc
 50
0.0
 51
90.0
  0
LINE
  5
43A
330
1F
100
AcDbEntity
  8
0
100
AcDbLine
 10
217.5057686390534
 20
146.3409103911057
 30
0.0
 11
217.5057686390544
 21
133.9009103911051
 31
0.0
  0
ARC
  5
43B
330
1F
100
AcDbEntity
  8
0
100
AcDbCircle
 10
216.7057686390544
 20
133.9009103911051
 30
0.0
 40
0.8
100
AcDbArc
 50
270.0
 51
0.0
  0
ARC
  5
43C
330
1F
100
AcDbEntity
  8
0
100
AcDbCircle
 10
288.1432686390535
 20
165.3909103911049
 30
0.0
 40
0.8
100
AcDbArc
 50
0.0
 51
90.0
  0
LINE
  5
43D
330
1F
100
AcDbEntity
  8
0
100
AcDbLine
 10
288.9432686390534
 20
165.3909103911049
 30
0.0
 11
288.9432686390544
 21
152.9509103911053
 31
0.0
  0
ARC
  5
43E
330
1F
100
AcDbEntity
  8
0
100
AcDbCircle
 10
288.1432686390544
 20
152.9509103911053
 30
0.0
 40
0.8
100
AcDbArc
 50
270.0
 51
0.0
  0
LINE
  5
43F
330
1F
100
AcDbEntity
  8
0
100
AcDbLine
 10
275.7032686390544
 20
152.1509103911052
 30
0.0
 11
288.1432686390544
 21
152.1509103911052
 31
0.0
  0
ARC
  5
440
330
1F
100
AcDbEntity
  8
0
100
AcDbCircle
 10
275.7032686390544
 20
152.9509103911053
 30
0.0
 40
0.8
100
AcDbArc
 50
180.0
 51
270.0
  0
LINE
  5
441
330
1F
100
AcDbEntity
  8
0
100
AcDbLine
 10
274.9032686390544
 20
165.3909103911049
 30
0.0
 11
274.9032686390544
 21
152.9509103911053
 31
0.0
  0
LINE
  5
442
330
1F
100
AcDbEntity
  8
0
100
AcDbLine
 10
275.7032686390544
 20
166.1909103911051
 30
0.0
 11
288.1432686390535
 21
166.1909103911051
 31
0.0
  0
ARC
  5
443
330
1F
100
AcDbEntity
  8
0
100
AcDbCircle
 10
275.7032686390544
 20
165.3909103911049
 30
0.0
 40
0.8
100
AcDbArc
 50
90.0
 51
180.0
  0
ARC
  5
444
330
1F
100
AcDbEntity
  8
0
100
AcDbCircle
 10
292.9057686390535
 20
146.3409103911057
 30
0.0
 40
0.8
100
AcDbArc
 50
0.0
 51
90.0
  0
LINE
  5
445
330
1F
100
AcDbEntity
  8
0
100
AcDbLine
 10
293.7057686390535
 20
146.3409103911057
 30
0.0
 11
293.7057686390544
 21
133.9009103911051
 31
0.0
  0
ARC
  5
446
330
1F
100
AcDbEntity
  8
0
100
AcDbCircle
 10
292.9057686390545
 20
133.9009103911051
 30
0.0
 40
0.8
100
AcDbArc
 50
270.0
 51
0.0
  0
LINE
  5
447
330
1F
100
AcDbEntity
  8
0
100
AcDbLine
 10
280.4657686390544
 20
133.100910391105
 30
0.0
 11
292.9057686390545
 21
133.100910391105
 31
0.0
  0
ARC
  5
448
330
1F
100
AcDbEntity
  8
0
100
AcDbCircle
 10
280.4657686390544
 20
133.9009103911051
 30
0.0
 40
0.8
100
AcDbArc
 50
180.0
 51
270.0
  0
LINE
  5
449
330
1F
100
AcDbEntity
  8
0
100
AcDbLine
 10
279.6657686390535
 20
146.3409103911057
 30
0.0
 11
279.6657686390535
 21
133.9009103911051
 31
0.0
  0
LINE
  5
44A
330
1F
100
AcDbEntity
  8
0
100
AcDbLine
 10
280.4657686390544
 20
147.1409103911049
 30
0.0
 11
292.9057686390535
 21
147.1409103911049
 31
0.0
  0
ARC
  5
44B
330
1F
100
AcDbEntity
  8
0
100
AcDbCircle
 10
280.4657686390544
 20
146.3409103911057
 30
0.0
 40
0.8
100
AcDbArc
 50
90.0
 51
180.0
  0
ARC
  5
44C
330
1F
100
AcDbEntity
  8
0
100
AcDbCircle
 10
283.3807686390544
 20
127.2909103911055
 30
0.0
 40
0.8
100
AcDbArc
 50
0.0
 51
90.0
  0
LINE
  5
44D
330
1F
100
AcDbEntity
  8
0
100
AcDbLine
 10
284.1807686390545
 20
127.2909103911055
 30
0.0
 11
284.1807686390554
 21
114.8509103911049
 31
0.0
  0
ARC
  5
44E
330
1F
100
AcDbEntity
  8
0
100
AcDbCircle
 10
283.3807686390544
 20
114.8509103911049
 30
0.0
 40
0.8
100
AcDbArc
 50
270.0
 51
0.0
  0
LINE
  5
44F
330
1F
100
AcDbEntity
  8
0
100
AcDbLine
 10
270.9407686390545
 20
114.0509103911057
 30
0.0
 11
283.3807686390544
 21
114.0509103911057
 31
0.0
  0
ARC
  5
450
330
1F
100
AcDbEntity
  8
0
100
AcDbCircle
 10
270.9407686390545
 20
114.8509103911049
 30
0.0
 40
0.8
100
AcDbArc
 50
180.0
 51
270.0
  0
LINE
  5
451
330
1F
100
AcDbEntity
  8
0
100
AcDbLine
 10
270.1407686390544
 20
127.2909103911055
 30
0.0
 11
270.1407686390544
 21
114.8509103911049
 31
0.0
  0
LINE
  5
452
330
1F
100
AcDbEntity
  8
0
100
AcDbLine
 10
270.9407686390545
 20
128.0909103911056
 30
0.0
 11
283.3807686390544
 21
128.0909103911038
 31
0.0
  0
ARC
  5
453
330
1F
100
AcDbEntity
  8
0
100
AcDbCircle
 10
270.9407686390545
 20
127.2909103911055
 30
0.0
 40
0.8
100
AcDbArc
 50
90.0
 51
180.0
  0
ARC
  5
454
330
1F
100
AcDbEntity
  8
0
100
AcDbCircle
 10
302.4307686390546
 20
127.2909103911055
 30
0.0
 40
0.8
100
AcDbArc
 50
0.0
 51
90.0
  0
LINE
  5
455
330
1F
100
AcDbEntity
  8
0
100
AcDbLine
 10
303.2307686390545
 20
127.2909103911055
 30
0.0
 11
303.2307686390554
 21
114.8509103911049
 31
0.0
  0
ARC
  5
456
330
1F
100
AcDbEntity
  8
0
100
AcDbCircle
 10
302.4307686390554
 20
114.8509103911049
 30
0.0
 40
0.8
100
AcDbArc
 50
270.0
 51
0.0
  0
LINE
  5
457
330
1F
100
AcDbEntity
  8
0
100
AcDbLine
 10
289.9907686390545
 20
114.0509103911057
 30
0.0
 11
302.4307686390554
 21
114.0509103911057
 31
0.0
  0
ARC
  5
458
330
1F
100
AcDbEntity
  8
0
100
AcDbCircle
 10
289.9907686390545
 20
114.8509103911049
 30
0.0
 40
0.8
100
AcDbArc
 50
180.0
 51
270.0
  0
LINE
  5
459
330
1F
100
AcDbEntity
  8
0
100
AcDbLine
 10
289.1907686390545
 20
127.2909103911055
 30
0.0
 11
289.1907686390545
 21
114.8509103911049
 31
0.0
  0
LINE
  5
45A
330
1F
100
AcDbEntity
  8
0
100
AcDbLine
 10
289.9907686390545
 20
128.0909103911056
 30
0.0
 11
302.4307686390546
 21
128.0909103911038
 31
0.0
  0
ARC
  5
45B
330
1F
100
AcDbEntity
  8
0
100
AcDbCircle
 10
289.9907686390545
 20
127.2909103911055
 30
0.0
 40
0.8
100
AcDbArc
 50
90.0
 51
180.0
  0
ARC
  5
45C
330
1F
100
AcDbEntity
  8
0
100
AcDbCircle
 10
307.1932686390543
 20
165.3909103911049
 30
0.0
 40
0.8
100
AcDbArc
 50
0.0
 51
90.0
  0
LINE
  5
45D
330
1F
100
AcDbEntity
  8
0
100
AcDbLine
 10
307.9932686390545
 20
165.3909103911049
 30
0.0
 11
307.9932686390554
 21
152.9509103911053
 31
0.0
  0
ARC
  5
45E
330
1F
100
AcDbEntity
  8
0
100
AcDbCircle
 10
307.1932686390543
 20
152.9509103911053
 30
0.0
 40
0.8
100
AcDbArc
 50
270.0
 51
0.0
  0
LINE
  5
45F
330
1F
100
AcDbEntity
  8
0
100
AcDbLine
 10
294.7532686390545
 20
152.1509103911052
 30
0.0
 11
307.1932686390543
 21
152.1509103911052
 31
0.0
  0
ARC
  5
460
330
1F
100
AcDbEntity
  8
0
100
AcDbCircle
 10
294.7532686390545
 20
152.9509103911053
 30
0.0
 40
0.8
100
AcDbArc
 50
180.0
 51
270.0
  0
LINE
  5
461
330
1F
100
AcDbEntity
  8
0
100
AcDbLine
 10
293.9532686390543
 20
165.3909103911049
 30
0.0
 11
293.9532686390543
 21
152.9509103911053
 31
0.0
  0
LINE
  5
462
330
1F
100
AcDbEntity
  8
0
100
AcDbLine
 10
294.7532686390545
 20
166.1909103911051
 30
0.0
 11
307.1932686390543
 21
166.1909103911051
 31
0.0
  0
ARC
  5
463
330
1F
100
AcDbEntity
  8
0
100
AcDbCircle
 10
294.7532686390545
 20
165.3909103911049
 30
0.0
 40
0.8
100
AcDbArc
 50
90.0
 51
180.0
  0
ARC
  5
464
330
1F
100
AcDbEntity
  8
0
100
AcDbCircle
 10
311.9557686390535
 20
146.3409103911057
 30
0.0
 40
0.8
100
AcDbArc
 50
0.0
 51
90.0
  0
LINE
  5
465
330
1F
100
AcDbEntity
  8
0
100
AcDbLine
 10
312.7557686390534
 20
146.3409103911057
 30
0.0
 11
312.7557686390543
 21
133.9009103911051
 31
0.0
  0
ARC
  5
466
330
1F
100
AcDbEntity
  8
0
100
AcDbCircle
 10
311.9557686390544
 20
133.9009103911051
 30
0.0
 40
0.8
100
AcDbArc
 50
270.0
 51
0.0
  0
LINE
  5
467
330
1F
100
AcDbEntity
  8
0
100
AcDbLine
 10
299.5157686390543
 20
133.100910391105
 30
0.0
 11
311.9557686390544
 21
133.100910391105
 31
0.0
  0
ARC
  5
468
330
1F
100
AcDbEntity
  8
0
100
AcDbCircle
 10
299.5157686390543
 20
133.9009103911051
 30
0.0
 40
0.8
100
AcDbArc
 50
180.0
 51
270.0
  0
LINE
  5
469
330
1F
100
AcDbEntity
  8
0
100
AcDbLine
 10
298.7157686390544
 20
146.3409103911057
 30
0.0
 11
298.7157686390544
 21
133.9009103911051
 31
0.0
  0
LINE
  5
46A
330
1F
100
AcDbEntity
  8
0
100
AcDbLine
 10
299.5157686390543
 20
147.1409103911049
 30
0.0
 11
311.9557686390535
 21
147.1409103911049
 31
0.0
  0
ARC
  5
46B
330
1F
100
AcDbEntity
  8
0
100
AcDbCircle
 10
299.5157686390543
 20
146.3409103911057
 30
0.0
 40
0.8
100
AcDbArc
 50
90.0
 51
180.0
  0
LINE
  5
46C
330
1F
100
AcDbEntity
  8
0
100
AcDbLine
 10
265.1307686390544
 20
127.2909103911055
 30
0.0
 11
265.1307686390555
 21
114.8509103911049
 31
0.0
  0
ARC
  5
46D
330
1F
100
AcDbEntity
  8
0
100
AcDbCircle
 10
269.0932686390535
 20
165.3909103911049
 30
0.0
 40
0.8
100
AcDbArc
 50
0.0
 51
90.0
  0
LINE
  5
46E
330
1F
100
AcDbEntity
  8
0
100
AcDbLine
 10
269.8932686390535
 20
165.3909103911049
 30
0.0
 11
269.8932686390544
 21
152.9509103911053
 31
0.0
  0
ARC
  5
46F
330
1F
100
AcDbEntity
  8
0
100
AcDbCircle
 10
269.0932686390544
 20
152.9509103911053
 30
0.0
 40
0.8
100
AcDbArc
 50
270.0
 51
0.0
  0
ARC
  5
470
330
1F
100
AcDbEntity
  8
0
100
AcDbCircle
 10
273.8557686390533
 20
146.3409103911057
 30
0.0
 40
0.8
100
AcDbArc
 50
0.0
 51
90.0
  0
LINE
  5
471
330
1F
100
AcDbEntity
  8
0
100
AcDbLine
 10
274.6557686390535
 20
146.3409103911057
 30
0.0
 11
274.6557686390544
 21
133.9009103911051
 31
0.0
  0
ARC
  5
472
330
1F
100
AcDbEntity
  8
0
100
AcDbCircle
 10
273.8557686390545
 20
133.9009103911051
 30
0.0
 40
0.8
100
AcDbArc
 50
270.0
 51
0.0
  0
ARC
  5
473
330
1F
100
AcDbEntity
  8
0
100
AcDbCircle
 10
297.6682686390545
 20
172.0009103911064
 30
0.0
 40
0.8
100
AcDbArc
 50
270.0
 51
0.0
  0
LINE
  5
474
330
1F
100
AcDbEntity
  8
0
100
AcDbLine
 10
285.2282686390535
 20
171.2009103911053
 30
0.0
 11
297.6682686390545
 21
171.2009103911053
 31
0.0
  0
ARC
  5
475
330
1F
100
AcDbEntity
  8
0
100
AcDbCircle
 10
285.2282686390535
 20
172.0009103911064
 30
0.0
 40
0.8
100
AcDbArc
 50
180.0
 51
270.0
  0
ARC
  5
476
330
1F
100
AcDbEntity
  8
0
100
AcDbCircle
 10
278.6182686390545
 20
172.0009103911064
 30
0.0
 40
0.8
100
AcDbArc
 50
270.0
 51
0.0
  0
LINE
  5
477
330
1F
100
AcDbEntity
  8
0
100
AcDbLine
 10
266.1782686390533
 20
171.2009103911053
 30
0.0
 11
278.6182686390545
 21
171.2009103911053
 31
0.0
  0
ARC
  5
478
330
1F
100
AcDbEntity
  8
0
100
AcDbCircle
 10
266.1782686390533
 20
172.0009103911064
 30
0.0
 40
0.8
100
AcDbArc
 50
180.0
 51
270.0
  0
ARC
  5
479
330
1F
100
AcDbEntity
  8
0
100
AcDbCircle
 10
309.0407686390544
 20
114.8509103911049
 30
0.0
 40
0.8
100
AcDbArc
 50
180.0
 51
270.0
  0
LINE
  5
47A
330
1F
100
AcDbEntity
  8
0
100
AcDbLine
 10
308.2407686390545
 20
127.2909103911055
 30
0.0
 11
308.2407686390545
 21
114.8509103911049
 31
0.0
  0
ARC
  5
47B
330
1F
100
AcDbEntity
  8
0
100
AcDbCircle
 10
309.0407686390544
 20
127.2909103911055
 30
0.0
 40
0.8
100
AcDbArc
 50
90.0
 51
180.0
  0
ARC
  5
47C
330
1F
100
AcDbEntity
  8
0
100
AcDbCircle
 10
304.2782686390544
 20
172.0009103911064
 30
0.0
 40
0.8
100
AcDbArc
 50
180.0
 51
270.0
  0
ARC
  5
47D
330
1F
100
AcDbEntity
  8
0
100
AcDbCircle
 10
313.8032686390545
 20
152.9509103911053
 30
0.0
 40
0.8
100
AcDbArc
 50
180.0
 51
270.0
  0
LINE
  5
47E
330
1F
100
AcDbEntity
  8
0
100
AcDbLine
 10
313.0032686390545
 20
165.3909103911049
 30
0.0
 11
313.0032686390545
 21
152.9509103911053
 31
0.0
  0
ARC
  5
47F
330
1F
100
AcDbEntity
  8
0
100
AcDbCircle
 10
313.8032686390545
 20
165.3909103911049
 30
0.0
 40
0.8
100
AcDbArc
 50
90.0
 51
180.0
  0
LINE
  5
480
330
1F
100
AcDbEntity
  8
0
100
AcDbLine
 10
307.6300686390525
 20
110.0409103911073
 30
0.0
 11
313.4300686390533
 21
110.04091039111
 31
0.0
  0
ARC
  5
481
330
1F
100
AcDbEntity
  8
0
100
AcDbCircle
 10
240.5182686390535
 20
184.4409103911051
 30
0.0
 40
0.8
100
AcDbArc
 50
0.0
 51
90.0
  0
LINE
  5
482
330
1F
100
AcDbEntity
  8
0
100
AcDbLine
 10
228.0782686390543
 20
185.2409103911053
 30
0.0
 11
240.5182686390535
 21
185.2409103911053
 31
0.0
  0
ARC
  5
483
330
1F
100
AcDbEntity
  8
0
100
AcDbCircle
 10
228.0782686390543
 20
184.4409103911051
 30
0.0
 40
0.8
100
AcDbArc
 50
90.0
 51
180.0
  0
ARC
  5
484
330
1F
100
AcDbEntity
  8
0
100
AcDbCircle
 10
259.5682686390535
 20
184.4409103911051
 30
0.0
 40
0.8
100
AcDbArc
 50
0.0
 51
90.0
  0
LINE
  5
485
330
1F
100
AcDbEntity
  8
0
100
AcDbLine
 10
247.1282686390534
 20
185.2409103911053
 30
0.0
 11
259.5682686390535
 21
185.2409103911053
 31
0.0
  0
ARC
  5
486
330
1F
100
AcDbEntity
  8
0
100
AcDbCircle
 10
247.1282686390534
 20
184.4409103911051
 30
0.0
 40
0.8
100
AcDbArc
 50
90.0
 51
180.0
  0
ARC
  5
487
330
1F
100
AcDbEntity
  8
0
100
AcDbCircle
 10
221.4682686390535
 20
184.4409103911051
 30
0.0
 40
0.8
100
AcDbArc
 50
0.0
 51
90.0
  0
ARC
  5
488
330
1F
100
AcDbEntity
  8
0
100
AcDbCircle
 10
297.6682686390534
 20
184.4409103911051
 30
0.0
 40
0.8
100
AcDbArc
 50
0.0
 51
90.0
  0
LINE
  5
489
330
1F
100
AcDbEntity
  8
0
100
AcDbLine
 10
285.2282686390535
 20
185.2409103911053
 30
0.0
 11
297.6682686390534
 21
185.2409103911053
 31
0.0
  0
ARC
  5
48A
330
1F
100
AcDbEntity
  8
0
100
AcDbCircle
 10
285.2282686390535
 20
184.4409103911051
 30
0.0
 40
0.8
100
AcDbArc
 50
90.0
 51
180.0
  0
ARC
  5
48B
330
1F
100
AcDbEntity
  8
0
100
AcDbCircle
 10
278.6182686390534
 20
184.4409103911051
 30
0.0
 40
0.8
100
AcDbArc
 50
0.0
 51
90.0
  0
LINE
  5
48C
330
1F
100
AcDbEntity
  8
0
100
AcDbLine
 10
266.1782686390533
 20
185.2409103911053
 30
0.0
 11
278.6182686390534
 21
185.2409103911053
 31
0.0
  0
ARC
  5
48D
330
1F
100
AcDbEntity
  8
0
100
AcDbCircle
 10
266.1782686390533
 20
184.4409103911051
 30
0.0
 40
0.8
100
AcDbArc
 50
90.0
 51
180.0
  0
ARC
  5
48E
330
1F
100
AcDbEntity
  8
0
100
AcDbCircle
 10
304.2782686390544
 20
184.4409103911051
 30
0.0
 40
0.8
100
AcDbArc
 50
90.0
 51
180.0
  0
LINE
  5
48F
330
1F
100
AcDbEntity
  8
0
100
AcDbLine
 10
317.5182686390535
 20
184.4409103911051
 30
0.0
 11
317.5182686390544
 21
172.0009103911064
 31
0.0
  0
LINE
  5
490
330
1F
100
AcDbEntity
  8
0
100
AcDbLine
 10
336.5682686390544
 20
184.4409103911051
 30
0.0
 11
336.5682686390544
 21
172.0009103911064
 31
0.0
  0
LINE
  5
491
330
1F
100
AcDbEntity
  8
0
100
AcDbLine
 10
322.5282686390544
 20
184.4409103911051
 30
0.0
 11
322.5282686390544
 21
172.0009103911064
 31
0.0
  0
LINE
  5
492
330
1F
100
AcDbEntity
  8
0
100
AcDbLine
 10
374.6682686390534
 20
184.4409103911051
 30
0.0
 11
374.6682686390545
 21
172.0009103911064
 31
0.0
  0
LINE
  5
493
330
1F
100
AcDbEntity
  8
0
100
AcDbLine
 10
360.6282686390534
 20
184.4409103911051
 30
0.0
 11
360.6282686390534
 21
172.0009103911064
 31
0.0
  0
LINE
  5
494
330
1F
100
AcDbEntity
  8
0
100
AcDbLine
 10
355.6182686390534
 20
184.4409103911051
 30
0.0
 11
355.6182686390545
 21
172.0009103911064
 31
0.0
  0
LINE
  5
495
330
1F
100
AcDbEntity
  8
0
100
AcDbLine
 10
341.5782686390534
 20
184.4409103911051
 30
0.0
 11
341.5782686390534
 21
172.0009103911064
 31
0.0
  0
LINE
  5
496
330
1F
100
AcDbEntity
  8
0
100
AcDbLine
 10
356.6657686390535
 20
133.100910391105
 30
0.0
 11
369.1057686390545
 21
133.100910391105
 31
0.0
  0
LINE
  5
497
330
1F
100
AcDbEntity
  8
0
100
AcDbLine
 10
356.6657686390535
 20
147.1409103911049
 30
0.0
 11
369.1057686390533
 21
147.1409103911049
 31
0.0
  0
LINE
  5
498
330
1F
100
AcDbEntity
  8
0
100
AcDbLine
 10
361.4282686390533
 20
171.2009103911053
 30
0.0
 11
373.8682686390546
 21
171.2009103911053
 31
0.0
  0
ARC
  5
499
330
1F
100
AcDbEntity
  8
0
100
AcDbCircle
 10
321.4807686390545
 20
127.2909103911055
 30
0.0
 40
0.8
100
AcDbArc
 50
0.0
 51
90.0
  0
LINE
  5
49A
330
1F
100
AcDbEntity
  8
0
100
AcDbLine
 10
322.2807686390544
 20
127.2909103911055
 30
0.0
 11
322.2807686390554
 21
114.8509103911049
 31
0.0
  0
ARC
  5
49B
330
1F
100
AcDbEntity
  8
0
100
AcDbCircle
 10
321.4807686390554
 20
114.8509103911049
 30
0.0
 40
0.8
100
AcDbArc
 50
270.0
 51
0.0
  0
ARC
  5
49C
330
1F
100
AcDbEntity
  8
0
100
AcDbCircle
 10
316.7182686390544
 20
172.0009103911064
 30
0.0
 40
0.8
100
AcDbArc
 50
270.0
 51
0.0
  0
ARC
  5
49D
330
1F
100
AcDbEntity
  8
0
100
AcDbCircle
 10
326.2432686390545
 20
165.3909103911049
 30
0.0
 40
0.8
100
AcDbArc
 50
0.0
 51
90.0
  0
LINE
  5
49E
330
1F
100
AcDbEntity
  8
0
100
AcDbLine
 10
327.0432686390545
 20
165.3909103911049
 30
0.0
 11
327.0432686390554
 21
152.9509103911053
 31
0.0
  0
ARC
  5
49F
330
1F
100
AcDbEntity
  8
0
100
AcDbCircle
 10
326.2432686390555
 20
152.9509103911053
 30
0.0
 40
0.8
100
AcDbArc
 50
270.0
 51
0.0
  0
ARC
  5
4A0
330
1F
100
AcDbEntity
  8
0
100
AcDbCircle
 10
340.5307686390544
 20
127.2909103911055
 30
0.0
 40
0.8
100
AcDbArc
 50
0.0
 51
90.0
  0
LINE
  5
4A1
330
1F
100
AcDbEntity
  8
0
100
AcDbLine
 10
341.3307686390544
 20
127.2909103911055
 30
0.0
 11
341.3307686390556
 21
114.8509103911049
 31
0.0
  0
ARC
  5
4A2
330
1F
100
AcDbEntity
  8
0
100
AcDbCircle
 10
340.5307686390553
 20
114.8509103911049
 30
0.0
 40
0.8
100
AcDbArc
 50
270.0
 51
0.0
  0
LINE
  5
4A3
330
1F
100
AcDbEntity
  8
0
100
AcDbLine
 10
328.0907686390544
 20
114.0509103911057
 30
0.0
 11
340.5307686390553
 21
114.0509103911057
 31
0.0
  0
ARC
  5
4A4
330
1F
100
AcDbEntity
  8
0
100
AcDbCircle
 10
328.0907686390544
 20
114.8509103911049
 30
0.0
 40
0.8
100
AcDbArc
 50
180.0
 51
270.0
  0
LINE
  5
4A5
330
1F
100
AcDbEntity
  8
0
100
AcDbLine
 10
327.2907686390544
 20
127.2909103911055
 30
0.0
 11
327.2907686390544
 21
114.8509103911049
 31
0.0
  0
LINE
  5
4A6
330
1F
100
AcDbEntity
  8
0
100
AcDbLine
 10
328.0907686390544
 20
128.0909103911056
 30
0.0
 11
340.5307686390544
 21
128.0909103911038
 31
0.0
  0
ARC
  5
4A7
330
1F
100
AcDbEntity
  8
0
100
AcDbCircle
 10
328.0907686390544
 20
127.2909103911055
 30
0.0
 40
0.8
100
AcDbArc
 50
90.0
 51
180.0
  0
ARC
  5
4A8
330
1F
100
AcDbEntity
  8
0
100
AcDbCircle
 10
359.5807686390544
 20
127.2909103911055
 30
0.0
 40
0.8
100
AcDbArc
 50
0.0
 51
90.0
  0
LINE
  5
4A9
330
1F
100
AcDbEntity
  8
0
100
AcDbLine
 10
360.3807686390544
 20
127.2909103911055
 30
0.0
 11
360.3807686390555
 21
114.8509103911049
 31
0.0
  0
ARC
  5
4AA
330
1F
100
AcDbEntity
  8
0
100
AcDbCircle
 10
359.5807686390555
 20
114.8509103911049
 30
0.0
 40
0.8
100
AcDbArc
 50
270.0
 51
0.0
  0
LINE
  5
4AB
330
1F
100
AcDbEntity
  8
0
100
AcDbLine
 10
347.1407686390555
 20
114.0509103911057
 30
0.0
 11
359.5807686390555
 21
114.0509103911057
 31
0.0
  0
ARC
  5
4AC
330
1F
100
AcDbEntity
  8
0
100
AcDbCircle
 10
347.1407686390555
 20
114.8509103911049
 30
0.0
 40
0.8
100
AcDbArc
 50
180.0
 51
270.0
  0
LINE
  5
4AD
330
1F
100
AcDbEntity
  8
0
100
AcDbLine
 10
346.3407686390555
 20
127.2909103911055
 30
0.0
 11
346.3407686390555
 21
114.8509103911049
 31
0.0
  0
LINE
  5
4AE
330
1F
100
AcDbEntity
  8
0
100
AcDbLine
 10
347.1407686390555
 20
128.0909103911056
 30
0.0
 11
359.5807686390544
 21
128.0909103911038
 31
0.0
  0
ARC
  5
4AF
330
1F
100
AcDbEntity
  8
0
100
AcDbCircle
 10
347.1407686390555
 20
127.2909103911055
 30
0.0
 40
0.8
100
AcDbArc
 50
90.0
 51
180.0
  0
ARC
  5
4B0
330
1F
100
AcDbEntity
  8
0
100
AcDbCircle
 10
345.2932686390545
 20
165.3909103911049
 30
0.0
 40
0.8
100
AcDbArc
 50
0.0
 51
90.0
  0
LINE
  5
4B1
330
1F
100
AcDbEntity
  8
0
100
AcDbLine
 10
346.0932686390544
 20
165.3909103911049
 30
0.0
 11
346.0932686390553
 21
152.9509103911053
 31
0.0
  0
ARC
  5
4B2
330
1F
100
AcDbEntity
  8
0
100
AcDbCircle
 10
345.2932686390554
 20
152.9509103911053
 30
0.0
 40
0.8
100
AcDbArc
 50
270.0
 51
0.0
  0
LINE
  5
4B3
330
1F
100
AcDbEntity
  8
0
100
AcDbLine
 10
332.8532686390544
 20
152.1509103911052
 30
0.0
 11
345.2932686390554
 21
152.1509103911052
 31
0.0
  0
ARC
  5
4B4
330
1F
100
AcDbEntity
  8
0
100
AcDbCircle
 10
332.8532686390544
 20
152.9509103911053
 30
0.0
 40
0.8
100
AcDbArc
 50
180.0
 51
270.0
  0
LINE
  5
4B5
330
1F
100
AcDbEntity
  8
0
100
AcDbLine
 10
332.0532686390545
 20
165.3909103911049
 30
0.0
 11
332.0532686390545
 21
152.9509103911053
 31
0.0
  0
LINE
  5
4B6
330
1F
100
AcDbEntity
  8
0
100
AcDbLine
 10
332.8532686390544
 20
166.1909103911051
 30
0.0
 11
345.2932686390545
 21
166.1909103911051
 31
0.0
  0
ARC
  5
4B7
330
1F
100
AcDbEntity
  8
0
100
AcDbCircle
 10
332.8532686390544
 20
165.3909103911049
 30
0.0
 40
0.8
100
AcDbArc
 50
90.0
 51
180.0
  0
ARC
  5
4B8
330
1F
100
AcDbEntity
  8
0
100
AcDbCircle
 10
331.0057686390543
 20
146.3409103911057
 30
0.0
 40
0.8
100
AcDbArc
 50
0.0
 51
90.0
  0
LINE
  5
4B9
330
1F
100
AcDbEntity
  8
0
100
AcDbLine
 10
331.8057686390545
 20
146.3409103911057
 30
0.0
 11
331.8057686390555
 21
133.9009103911051
 31
0.0
  0
ARC
  5
4BA
330
1F
100
AcDbEntity
  8
0
100
AcDbCircle
 10
331.0057686390543
 20
133.9009103911051
 30
0.0
 40
0.8
100
AcDbArc
 50
270.0
 51
0.0
  0
LINE
  5
4BB
330
1F
100
AcDbEntity
  8
0
100
AcDbLine
 10
318.5657686390545
 20
133.100910391105
 30
0.0
 11
331.0057686390543
 21
133.100910391105
 31
0.0
  0
ARC
  5
4BC
330
1F
100
AcDbEntity
  8
0
100
AcDbCircle
 10
318.5657686390545
 20
133.9009103911051
 30
0.0
 40
0.8
100
AcDbArc
 50
180.0
 51
270.0
  0
LINE
  5
4BD
330
1F
100
AcDbEntity
  8
0
100
AcDbLine
 10
317.7657686390543
 20
146.3409103911057
 30
0.0
 11
317.7657686390543
 21
133.9009103911051
 31
0.0
  0
LINE
  5
4BE
330
1F
100
AcDbEntity
  8
0
100
AcDbLine
 10
318.5657686390545
 20
147.1409103911049
 30
0.0
 11
331.0057686390543
 21
147.1409103911049
 31
0.0
  0
ARC
  5
4BF
330
1F
100
AcDbEntity
  8
0
100
AcDbCircle
 10
318.5657686390545
 20
146.3409103911057
 30
0.0
 40
0.8
100
AcDbArc
 50
90.0
 51
180.0
  0
ARC
  5
4C0
330
1F
100
AcDbEntity
  8
0
100
AcDbCircle
 10
364.3432686390535
 20
165.3909103911049
 30
0.0
 40
0.8
100
AcDbArc
 50
0.0
 51
90.0
  0
LINE
  5
4C1
330
1F
100
AcDbEntity
  8
0
100
AcDbLine
 10
365.1432686390535
 20
165.3909103911049
 30
0.0
 11
365.1432686390544
 21
152.9509103911053
 31
0.0
  0
ARC
  5
4C2
330
1F
100
AcDbEntity
  8
0
100
AcDbCircle
 10
364.3432686390545
 20
152.9509103911053
 30
0.0
 40
0.8
100
AcDbArc
 50
270.0
 51
0.0
  0
LINE
  5
4C3
330
1F
100
AcDbEntity
  8
0
100
AcDbLine
 10
351.9032686390544
 20
152.1509103911052
 30
0.0
 11
364.3432686390545
 21
152.1509103911052
 31
0.0
  0
ARC
  5
4C4
330
1F
100
AcDbEntity
  8
0
100
AcDbCircle
 10
351.9032686390544
 20
152.9509103911053
 30
0.0
 40
0.8
100
AcDbArc
 50
180.0
 51
270.0
  0
LINE
  5
4C5
330
1F
100
AcDbEntity
  8
0
100
AcDbLine
 10
351.1032686390535
 20
165.3909103911049
 30
0.0
 11
351.1032686390535
 21
152.9509103911053
 31
0.0
  0
LINE
  5
4C6
330
1F
100
AcDbEntity
  8
0
100
AcDbLine
 10
351.9032686390544
 20
166.1909103911051
 30
0.0
 11
364.3432686390535
 21
166.1909103911051
 31
0.0
  0
ARC
  5
4C7
330
1F
100
AcDbEntity
  8
0
100
AcDbCircle
 10
351.9032686390544
 20
165.3909103911049
 30
0.0
 40
0.8
100
AcDbArc
 50
90.0
 51
180.0
  0
ARC
  5
4C8
330
1F
100
AcDbEntity
  8
0
100
AcDbCircle
 10
350.0557686390545
 20
146.3409103911057
 30
0.0
 40
0.8
100
AcDbArc
 50
0.0
 51
90.0
  0
LINE
  5
4C9
330
1F
100
AcDbEntity
  8
0
100
AcDbLine
 10
350.8557686390545
 20
146.3409103911057
 30
0.0
 11
350.8557686390554
 21
133.9009103911051
 31
0.0
  0
ARC
  5
4CA
330
1F
100
AcDbEntity
  8
0
100
AcDbCircle
 10
350.0557686390554
 20
133.9009103911051
 30
0.0
 40
0.8
100
AcDbArc
 50
270.0
 51
0.0
  0
LINE
  5
4CB
330
1F
100
AcDbEntity
  8
0
100
AcDbLine
 10
337.6157686390545
 20
133.100910391105
 30
0.0
 11
350.0557686390554
 21
133.100910391105
 31
0.0
  0
ARC
  5
4CC
330
1F
100
AcDbEntity
  8
0
100
AcDbCircle
 10
337.6157686390545
 20
133.9009103911051
 30
0.0
 40
0.8
100
AcDbArc
 50
180.0
 51
270.0
  0
LINE
  5
4CD
330
1F
100
AcDbEntity
  8
0
100
AcDbLine
 10
336.8157686390545
 20
146.3409103911057
 30
0.0
 11
336.8157686390545
 21
133.9009103911051
 31
0.0
  0
LINE
  5
4CE
330
1F
100
AcDbEntity
  8
0
100
AcDbLine
 10
337.6157686390545
 20
147.1409103911049
 30
0.0
 11
350.0557686390545
 21
147.1409103911049
 31
0.0
  0
ARC
  5
4CF
330
1F
100
AcDbEntity
  8
0
100
AcDbCircle
 10
337.6157686390545
 20
146.3409103911057
 30
0.0
 40
0.8
100
AcDbArc
 50
90.0
 51
180.0
  0
ARC
  5
4D0
330
1F
100
AcDbEntity
  8
0
100
AcDbCircle
 10
356.6657686390535
 20
133.9009103911051
 30
0.0
 40
0.8
100
AcDbArc
 50
180.0
 51
270.0
  0
LINE
  5
4D1
330
1F
100
AcDbEntity
  8
0
100
AcDbLine
 10
355.8657686390533
 20
146.3409103911057
 30
0.0
 11
355.8657686390533
 21
133.9009103911051
 31
0.0
  0
ARC
  5
4D2
330
1F
100
AcDbEntity
  8
0
100
AcDbCircle
 10
356.6657686390535
 20
146.3409103911057
 30
0.0
 40
0.8
100
AcDbArc
 50
90.0
 51
180.0
  0
ARC
  5
4D3
330
1F
100
AcDbEntity
  8
0
100
AcDbCircle
 10
335.7682686390544
 20
172.0009103911064
 30
0.0
 40
0.8
100
AcDbArc
 50
270.0
 51
0.0
  0
LINE
  5
4D4
330
1F
100
AcDbEntity
  8
0
100
AcDbLine
 10
323.3282686390543
 20
171.2009103911053
 30
0.0
 11
335.7682686390544
 21
171.2009103911053
 31
0.0
  0
ARC
  5
4D5
330
1F
100
AcDbEntity
  8
0
100
AcDbCircle
 10
323.3282686390543
 20
172.0009103911064
 30
0.0
 40
0.8
100
AcDbArc
 50
180.0
 51
270.0
  0
ARC
  5
4D6
330
1F
100
AcDbEntity
  8
0
100
AcDbCircle
 10
361.4282686390533
 20
172.0009103911064
 30
0.0
 40
0.8
100
AcDbArc
 50
180.0
 51
270.0
  0
ARC
  5
4D7
330
1F
100
AcDbEntity
  8
0
100
AcDbCircle
 10
354.8182686390544
 20
172.0009103911064
 30
0.0
 40
0.8
100
AcDbArc
 50
270.0
 51
0.0
  0
LINE
  5
4D8
330
1F
100
AcDbEntity
  8
0
100
AcDbLine
 10
342.3782686390534
 20
171.2009103911053
 30
0.0
 11
354.8182686390544
 21
171.2009103911053
 31
0.0
  0
ARC
  5
4D9
330
1F
100
AcDbEntity
  8
0
100
AcDbCircle
 10
342.3782686390534
 20
172.0009103911064
 30
0.0
 40
0.8
100
AcDbArc
 50
180.0
 51
270.0
  0
ARC
  5
4DA
330
1F
100
AcDbEntity
  8
0
100
AcDbCircle
 10
383.3932686390535
 20
165.3909103911049
 30
0.0
 40
0.8
100
AcDbArc
 50
0.0
 51
90.0
  0
LINE
  5
4DB
330
1F
100
AcDbEntity
  8
0
100
AcDbLine
 10
384.1932686390543
 20
165.3909103911049
 30
0.0
 11
384.1932686390543
 21
152.9509103911053
 31
0.0
  0
ARC
  5
4DC
330
1F
100
AcDbEntity
  8
0
100
AcDbCircle
 10
383.3932686390544
 20
152.9509103911053
 30
0.0
 40
0.8
100
AcDbArc
 50
270.0
 51
0.0
  0
LINE
  5
4DD
330
1F
100
AcDbEntity
  8
0
100
AcDbLine
 10
370.9532686390543
 20
152.1509103911052
 30
0.0
 11
383.3932686390544
 21
152.1509103911052
 31
0.0
  0
ARC
  5
4DE
330
1F
100
AcDbEntity
  8
0
100
AcDbCircle
 10
370.9532686390543
 20
152.9509103911053
 30
0.0
 40
0.8
100
AcDbArc
 50
180.0
 51
270.0
  0
LINE
  5
4DF
330
1F
100
AcDbEntity
  8
0
100
AcDbLine
 10
370.1532686390535
 20
165.3909103911049
 30
0.0
 11
370.1532686390535
 21
152.9509103911053
 31
0.0
  0
LINE
  5
4E0
330
1F
100
AcDbEntity
  8
0
100
AcDbLine
 10
370.9532686390543
 20
166.1909103911051
 30
0.0
 11
383.3932686390535
 21
166.1909103911051
 31
0.0
  0
ARC
  5
4E1
330
1F
100
AcDbEntity
  8
0
100
AcDbCircle
 10
370.9532686390543
 20
165.3909103911049
 30
0.0
 40
0.8
100
AcDbArc
 50
90.0
 51
180.0
  0
ARC
  5
4E2
330
1F
100
AcDbEntity
  8
0
100
AcDbCircle
 10
369.1057686390533
 20
146.3409103911057
 30
0.0
 40
0.8
100
AcDbArc
 50
0.0
 51
90.0
  0
LINE
  5
4E3
330
1F
100
AcDbEntity
  8
0
100
AcDbLine
 10
369.9057686390535
 20
146.3409103911057
 30
0.0
 11
369.9057686390545
 21
133.9009103911051
 31
0.0
  0
ARC
  5
4E4
330
1F
100
AcDbEntity
  8
0
100
AcDbCircle
 10
369.1057686390545
 20
133.9009103911051
 30
0.0
 40
0.8
100
AcDbArc
 50
270.0
 51
0.0
  0
ARC
  5
4E5
330
1F
100
AcDbEntity
  8
0
100
AcDbCircle
 10
373.8682686390546
 20
172.0009103911064
 30
0.0
 40
0.8
100
AcDbArc
 50
270.0
 51
0.0
  0
LINE
  5
4E6
330
1F
100
AcDbEntity
  8
0
100
AcDbLine
 10
410.3552686390564
 20
132.9009103911051
 30
0.0
 11
410.3552686390564
 21
164.4839103911066
 31
0.0
  0
LINE
  5
4E7
330
1F
100
AcDbEntity
  8
0
100
AcDbLine
 10
408.0057686390534
 20
165.2839103911049
 30
0.0
 11
409.5552686390565
 21
165.2839103911049
 31
0.0
  0
LINE
  5
4E8
330
1F
100
AcDbEntity
  8
0
100
AcDbLine
 10
396.3152686390535
 20
151.6509103911051
 30
0.0
 11
396.3152686390535
 21
147.6409103911049
 31
0.0
  0
LINE
  5
4E9
330
1F
100
AcDbEntity
  8
0
100
AcDbLine
 10
394.7657686390543
 20
152.1509103911052
 30
0.0
 11
395.8152686390535
 21
152.1509103911052
 31
0.0
  0
ARC
  5
4EA
330
1F
100
AcDbEntity
  8
0
100
AcDbCircle
 10
395.8152686390535
 20
151.6509103911051
 30
0.0
 40
0.5
100
AcDbArc
 50
0.0
 51
90.0
  0
LINE
  5
4EB
330
1F
100
AcDbEntity
  8
0
100
AcDbLine
 10
375.7157686390544
 20
147.1409103911049
 30
0.0
 11
378.2040686390534
 21
147.1409103911049
 31
0.0
  0
ARC
  5
4EC
330
1F
100
AcDbEntity
  8
0
100
AcDbCircle
 10
395.8152686390535
 20
147.6409103911049
 30
0.0
 40
0.5
100
AcDbArc
 50
270.0
 51
0.0
  0
LINE
  5
4ED
330
1F
100
AcDbEntity
  8
0
100
AcDbLine
 10
375.7157686390544
 20
133.100910391105
 30
0.0
 11
378.2040686390534
 21
133.100910391105
 31
0.0
  0
LINE
  5
4EE
330
1F
100
AcDbEntity
  8
0
100
AcDbLine
 10
408.0057686390544
 20
165.3909103911049
 30
0.0
 11
408.0057686390544
 21
165.2839103911049
 31
0.0
  0
ARC
  5
4EF
330
1F
100
AcDbEntity
  8
0
100
AcDbCircle
 10
407.2057686390535
 20
165.3909103911049
 30
0.0
 40
0.8
100
AcDbArc
 50
0.0
 51
90.0
  0
ARC
  5
4F0
330
1F
100
AcDbEntity
  8
0
100
AcDbCircle
 10
394.7657686390543
 20
152.9509103911053
 30
0.0
 40
0.8
100
AcDbArc
 50
180.0
 51
270.0
  0
LINE
  5
4F1
330
1F
100
AcDbEntity
  8
0
100
AcDbLine
 10
393.9657686390535
 20
165.3909103911049
 30
0.0
 11
393.9657686390535
 21
152.9509103911053
 31
0.0
  0
LINE
  5
4F2
330
1F
100
AcDbEntity
  8
0
100
AcDbLine
 10
394.7657686390543
 20
166.1909103911051
 30
0.0
 11
407.2057686390535
 21
166.1909103911051
 31
0.0
  0
ARC
  5
4F3
330
1F
100
AcDbEntity
  8
0
100
AcDbCircle
 10
394.7657686390543
 20
165.3909103911049
 30
0.0
 40
0.8
100
AcDbArc
 50
90.0
 51
180.0
  0
LINE
  5
4F4
330
1F
100
AcDbEntity
  8
0
100
AcDbLine
 10
387.9852186390555
 20
171.2009103911053
 30
0.0
 11
404.4613186390525
 21
171.2009103911053
 31
0.0
  0
ARC
  5
4F5
330
1F
100
AcDbEntity
  8
0
100
AcDbCircle
 10
375.7157686390544
 20
133.9009103911051
 30
0.0
 40
0.8
100
AcDbArc
 50
180.0
 51
270.0
  0
LINE
  5
4F6
330
1F
100
AcDbEntity
  8
0
100
AcDbLine
 10
374.9157686390535
 20
146.3409103911057
 30
0.0
 11
374.9157686390535
 21
133.9009103911051
 31
0.0
  0
ARC
  5
4F7
330
1F
100
AcDbEntity
  8
0
100
AcDbCircle
 10
375.7157686390544
 20
146.3409103911057
 30
0.0
 40
0.8
100
AcDbArc
 50
90.0
 51
180.0
  0
LINE
  5
4F8
330
1F
100
AcDbEntity
  8
0
100
AcDbLine
 10
361.4282686390533
 20
185.2409103911053
 30
0.0
 11
373.8682686390534
 21
185.2409103911053
 31
0.0
  0
ARC
  5
4F9
330
1F
100
AcDbEntity
  8
0
100
AcDbCircle
 10
316.7182686390535
 20
184.4409103911051
 30
0.0
 40
0.8
100
AcDbArc
 50
0.0
 51
90.0
  0
ARC
  5
4FA
330
1F
100
AcDbEntity
  8
0
100
AcDbCircle
 10
335.7682686390535
 20
184.4409103911051
 30
0.0
 40
0.8
100
AcDbArc
 50
0.0
 51
90.0
  0
LINE
  5
4FB
330
1F
100
AcDbEntity
  8
0
100
AcDbLine
 10
323.3282686390543
 20
185.2409103911053
 30
0.0
 11
335.7682686390535
 21
185.2409103911053
 31
0.0
  0
ARC
  5
4FC
330
1F
100
AcDbEntity
  8
0
100
AcDbCircle
 10
323.3282686390543
 20
184.4409103911051
 30
0.0
 40
0.8
100
AcDbArc
 50
90.0
 51
180.0
  0
ARC
  5
4FD
330
1F
100
AcDbEntity
  8
0
100
AcDbCircle
 10
361.4282686390533
 20
184.4409103911051
 30
0.0
 40
0.8
100
AcDbArc
 50
90.0
 51
180.0
  0
ARC
  5
4FE
330
1F
100
AcDbEntity
  8
0
100
AcDbCircle
 10
354.8182686390534
 20
184.4409103911051
 30
0.0
 40
0.8
100
AcDbArc
 50
0.0
 51
90.0
  0
LINE
  5
4FF
330
1F
100
AcDbEntity
  8
0
100
AcDbLine
 10
342.3782686390534
 20
185.2409103911053
 30
0.0
 11
354.8182686390534
 21
185.2409103911053
 31
0.0
  0
ARC
  5
500
330
1F
100
AcDbEntity
  8
0
100
AcDbCircle
 10
342.3782686390534
 20
184.4409103911051
 30
0.0
 40
0.8
100
AcDbArc
 50
90.0
 51
180.0
  0
ARC
  5
501
330
1F
100
AcDbEntity
  8
0
100
AcDbCircle
 10
373.8682686390534
 20
184.4409103911051
 30
0.0
 40
0.8
100
AcDbArc
 50
0.0
 51
90.0
  0
LINE
  5
502
330
1F
100
AcDbEntity
  8
0
100
AcDbLine
 10
380.4782686390544
 20
185.2409103911053
 30
0.0
 11
411.9682686390545
 21
185.2409103911053
 31
0.0
  0
LINE
  5
503
330
1F
100
AcDbEntity
  8
0
100
AcDbLine
 10
325.7095703260604
 20
95.00091039110646
 30
0.0
 11
340.5307686390553
 21
95.00091039110646
 31
0.0
  0
ARC
  5
504
330
1F
100
AcDbEntity
  8
0
100
AcDbCircle
 10
325.7095703260604
 20
95.80091039110664
 30
0.0
 40
0.8
100
AcDbArc
 50
180.0
 51
270.0
  0
LINE
  5
505
330
1F
100
AcDbEntity
  8
0
100
AcDbLine
 10
324.9095703260604
 20
109.2409103911062
 30
0.0
 11
324.9095703260604
 21
95.80091039110664
 31
0.0
  0
LINE
  5
506
330
1F
100
AcDbEntity
  8
0
100
AcDbLine
 10
372.5345186390554
 20
127.2909103911055
 30
0.0
 11
372.5345186390554
 21
113.850910391104
 31
0.0
  0
ARC
  5
507
330
1F
100
AcDbEntity
  8
0
100
AcDbCircle
 10
373.3345186390554
 20
127.2909103911055
 30
0.0
 40
0.8
100
AcDbArc
 50
90.0
 51
180.0
  0
ARC
  5
508
330
1F
100
AcDbEntity
  8
0
100
AcDbCircle
 10
411.9682686390554
 20
127.2909103911055
 30
0.0
 40
0.8
100
AcDbArc
 50
0.0
 51
90.0
  0
LINE
  5
509
330
1F
100
AcDbEntity
  8
0
100
AcDbLine
 10
412.7682686390564
 20
127.2909103911055
 30
0.0
 11
412.7682686390564
 21
114.8509103911049
 31
0.0
  0
ARC
  5
50A
330
1F
100
AcDbEntity
  8
0
100
AcDbCircle
 10
411.9682686390565
 20
114.8509103911049
 30
0.0
 40
0.8
100
AcDbArc
 50
270.0
 51
0.0
  0
LINE
  5
50B
330
1F
100
AcDbEntity
  8
0
100
AcDbLine
 10
404.7174686390553
 20
114.0509103911057
 30
0.0
 11
411.9682686390565
 21
114.0509103911057
 31
0.0
  0
LINE
  5
50C
330
1F
100
AcDbEntity
  8
0
100
AcDbLine
 10
380.8414686390554
 20
114.0509103911066
 30
0.0
 11
397.3175686390525
 21
114.0509103911066
 31
0.0
  0
LINE
  5
50D
330
1F
100
AcDbEntity
  8
0
100
AcDbLine
 10
379.6782686390534
 20
184.4409103911051
 30
0.0
 11
379.6782686390534
 21
171.0009103911055
 31
0.0
  0
ARC
  5
50E
330
1F
100
AcDbEntity
  8
0
100
AcDbCircle
 10
380.4782686390544
 20
184.4409103911051
 30
0.0
 40
0.8
100
AcDbArc
 50
90.0
 51
180.0
  0
LINE
  5
50F
330
1F
100
AcDbEntity
  8
0
100
AcDbLine
 10
412.7682686390544
 20
184.4409103911051
 30
0.0
 11
412.7682686390556
 21
171.0009103911055
 31
0.0
  0
ARC
  5
510
330
1F
100
AcDbEntity
  8
0
100
AcDbCircle
 10
411.9682686390545
 20
184.4409103911051
 30
0.0
 40
0.8
100
AcDbArc
 50
0.0
 51
90.0
  0
LINE
  5
511
330
1F
100
AcDbEntity
  8
0
100
AcDbLine
 10
333.2483186390534
 20
109.0409103911055
 30
0.0
 11
340.5307686390544
 21
109.0409103911055
 31
0.0
  0
LINE
  5
512
330
1F
100
AcDbEntity
  8
0
100
AcDbLine
 10
341.3307686390544
 20
108.2409103911053
 30
0.0
 11
341.3307686390556
 21
95.80091039110573
 31
0.0
  0
ARC
  5
513
330
1F
100
AcDbEntity
  8
0
100
AcDbCircle
 10
340.5307686390544
 20
108.2409103911053
 30
0.0
 40
0.8
100
AcDbArc
 50
0.0
 51
90.0
  0
ARC
  5
514
330
1F
100
AcDbEntity
  8
0
100
AcDbCircle
 10
340.5307686390553
 20
95.80091039110573
 30
0.0
 40
0.8
100
AcDbArc
 50
270.0
 51
0.0
  0
ARC
  5
515
330
1F
100
AcDbEntity
  8
0
100
AcDbCircle
 10
361.9620186390545
 20
108.2409103911053
 30
0.0
 40
0.8
100
AcDbArc
 50
0.0
 51
90.0
  0
LINE
  5
516
330
1F
100
AcDbEntity
  8
0
100
AcDbLine
 10
362.7620186390545
 20
108.2409103911053
 30
0.0
 11
362.7620186390554
 21
95.80091039110664
 31
0.0
  0
ARC
  5
517
330
1F
100
AcDbEntity
  8
0
100
AcDbCircle
 10
361.9620186390554
 20
95.80091039110664
 30
0.0
 40
0.8
100
AcDbArc
 50
270.0
 51
0.0
  0
LINE
  5
518
330
1F
100
AcDbEntity
  8
0
100
AcDbLine
 10
347.1407686390555
 20
95.00091039110646
 30
0.0
 11
361.9620186390554
 21
95.00091039110646
 31
0.0
  0
ARC
  5
519
330
1F
100
AcDbEntity
  8
0
100
AcDbCircle
 10
347.1407686390555
 20
95.80091039110664
 30
0.0
 40
0.8
100
AcDbArc
 50
180.0
 51
270.0
  0
LINE
  5
51A
330
1F
100
AcDbEntity
  8
0
100
AcDbLine
 10
346.3407686390555
 20
108.2409103911053
 30
0.0
 11
346.3407686390555
 21
95.80091039110664
 31
0.0
  0
LINE
  5
51B
330
1F
100
AcDbEntity
  8
0
100
AcDbLine
 10
347.1407686390555
 20
109.0409103911055
 30
0.0
 11
361.9620186390545
 21
109.0409103911055
 31
0.0
  0
ARC
  5
51C
330
1F
100
AcDbEntity
  8
0
100
AcDbCircle
 10
347.1407686390555
 20
108.2409103911053
 30
0.0
 40
0.8
100
AcDbArc
 50
90.0
 51
180.0
  0
ARC
  5
51D
330
1F
100
AcDbEntity
  8
0
100
AcDbCircle
 10
385.7745186390545
 20
108.2409103911053
 30
0.0
 40
0.8
100
AcDbArc
 50
0.0
 51
90.0
  0
LINE
  5
51E
330
1F
100
AcDbEntity
  8
0
100
AcDbLine
 10
386.5745186390545
 20
108.2409103911053
 30
0.0
 11
386.5745186390554
 21
95.80091039110664
 31
0.0
  0
ARC
  5
51F
330
1F
100
AcDbEntity
  8
0
100
AcDbCircle
 10
385.7745186390554
 20
95.80091039110664
 30
0.0
 40
0.8
100
AcDbArc
 50
270.0
 51
0.0
  0
LINE
  5
520
330
1F
100
AcDbEntity
  8
0
100
AcDbLine
 10
370.9532686390555
 20
95.00091039110646
 30
0.0
 11
385.7745186390554
 21
95.00091039110646
 31
0.0
  0
ARC
  5
521
330
1F
100
AcDbEntity
  8
0
100
AcDbCircle
 10
370.9532686390555
 20
95.80091039110664
 30
0.0
 40
0.8
100
AcDbArc
 50
180.0
 51
270.0
  0
LINE
  5
522
330
1F
100
AcDbEntity
  8
0
100
AcDbLine
 10
370.1532686390544
 20
108.2409103911053
 30
0.0
 11
370.1532686390544
 21
95.80091039110664
 31
0.0
  0
LINE
  5
523
330
1F
100
AcDbEntity
  8
0
100
AcDbLine
 10
370.9532686390555
 20
109.0409103911055
 30
0.0
 11
385.7745186390545
 21
109.0409103911055
 31
0.0
  0
ARC
  5
524
330
1F
100
AcDbEntity
  8
0
100
AcDbCircle
 10
370.9532686390555
 20
108.2409103911053
 30
0.0
 40
0.8
100
AcDbArc
 50
90.0
 51
180.0
  0
ARC
  5
525
330
1F
100
AcDbEntity
  8
0
100
AcDbCircle
 10
409.5870186390546
 20
108.2409103911053
 30
0.0
 40
0.8
100
AcDbArc
 50
0.0
 51
90.0
  0
LINE
  5
526
330
1F
100
AcDbEntity
  8
0
100
AcDbLine
 10
410.3870186390545
 20
108.2409103911053
 30
0.0
 11
410.3870186390554
 21
95.80091039110664
 31
0.0
  0
ARC
  5
527
330
1F
100
AcDbEntity
  8
0
100
AcDbCircle
 10
409.5870186390555
 20
95.80091039110664
 30
0.0
 40
0.8
100
AcDbArc
 50
270.0
 51
0.0
  0
LINE
  5
528
330
1F
100
AcDbEntity
  8
0
100
AcDbLine
 10
394.7657686390555
 20
95.00091039110646
 30
0.0
 11
409.5870186390555
 21
95.00091039110646
 31
0.0
  0
ARC
  5
529
330
1F
100
AcDbEntity
  8
0
100
AcDbCircle
 10
394.7657686390555
 20
95.80091039110664
 30
0.0
 40
0.8
100
AcDbArc
 50
180.0
 51
270.0
  0
LINE
  5
52A
330
1F
100
AcDbEntity
  8
0
100
AcDbLine
 10
393.9657686390544
 20
108.2409103911053
 30
0.0
 11
393.9657686390544
 21
95.80091039110664
 31
0.0
  0
LINE
  5
52B
330
1F
100
AcDbEntity
  8
0
100
AcDbLine
 10
394.7657686390555
 20
109.0409103911055
 30
0.0
 11
409.5870186390546
 21
109.0409103911055
 31
0.0
  0
ARC
  5
52C
330
1F
100
AcDbEntity
  8
0
100
AcDbCircle
 10
394.7657686390555
 20
108.2409103911053
 30
0.0
 40
0.8
100
AcDbArc
 50
90.0
 51
180.0
  0
ARC
  5
52D
330
1F
100
AcDbEntity
  8
0
100
AcDbCircle
 10
173.8432686390535
 20
108.2409103911053
 30
0.0
 40
0.8
100
AcDbArc
 50
0.0
 51
90.0
  0
LINE
  5
52E
330
1F
100
AcDbEntity
  8
0
100
AcDbLine
 10
174.6432686390535
 20
108.2409103911053
 30
0.0
 11
174.6432686390544
 21
95.80091039110664
 31
0.0
  0
ARC
  5
52F
330
1F
100
AcDbEntity
  8
0
100
AcDbCircle
 10
173.8432686390544
 20
95.80091039110664
 30
0.0
 40
0.8
100
AcDbArc
 50
270.0
 51
0.0
  0
LINE
  5
530
330
1F
100
AcDbEntity
  8
0
100
AcDbLine
 10
159.0220186390533
 20
95.00091039110646
 30
0.0
 11
173.8432686390544
 21
95.00091039110646
 31
0.0
  0
ARC
  5
531
330
1F
100
AcDbEntity
  8
0
100
AcDbCircle
 10
159.0220186390533
 20
95.80091039110664
 30
0.0
 40
0.8
100
AcDbArc
 50
180.0
 51
270.0
  0
LINE
  5
532
330
1F
100
AcDbEntity
  8
0
100
AcDbLine
 10
158.2220186390534
 20
108.2409103911053
 30
0.0
 11
158.2220186390534
 21
95.80091039110664
 31
0.0
  0
LINE
  5
533
330
1F
100
AcDbEntity
  8
0
100
AcDbLine
 10
159.0220186390533
 20
109.0409103911055
 30
0.0
 11
173.8432686390535
 21
109.0409103911055
 31
0.0
  0
ARC
  5
534
330
1F
100
AcDbEntity
  8
0
100
AcDbCircle
 10
159.0220186390533
 20
108.2409103911053
 30
0.0
 40
0.8
100
AcDbArc
 50
90.0
 51
180.0
  0
ARC
  5
535
330
1F
100
AcDbEntity
  8
0
100
AcDbCircle
 10
197.6557686390544
 20
108.2409103911053
 30
0.0
 40
0.8
100
AcDbArc
 50
0.0
 51
90.0
  0
LINE
  5
536
330
1F
100
AcDbEntity
  8
0
100
AcDbLine
 10
198.4557686390544
 20
108.2409103911053
 30
0.0
 11
198.4557686390555
 21
95.80091039110664
 31
0.0
  0
ARC
  5
537
330
1F
100
AcDbEntity
  8
0
100
AcDbCircle
 10
197.6557686390554
 20
95.80091039110664
 30
0.0
 40
0.8
100
AcDbArc
 50
270.0
 51
0.0
  0
LINE
  5
538
330
1F
100
AcDbEntity
  8
0
100
AcDbLine
 10
182.8345186390545
 20
95.00091039110646
 30
0.0
 11
197.6557686390554
 21
95.00091039110646
 31
0.0
  0
ARC
  5
539
330
1F
100
AcDbEntity
  8
0
100
AcDbCircle
 10
182.8345186390545
 20
95.80091039110664
 30
0.0
 40
0.8
100
AcDbArc
 50
180.0
 51
270.0
  0
LINE
  5
53A
330
1F
100
AcDbEntity
  8
0
100
AcDbLine
 10
182.0345186390545
 20
108.2409103911053
 30
0.0
 11
182.0345186390545
 21
95.80091039110664
 31
0.0
  0
LINE
  5
53B
330
1F
100
AcDbEntity
  8
0
100
AcDbLine
 10
182.8345186390545
 20
109.0409103911055
 30
0.0
 11
197.6557686390544
 21
109.0409103911055
 31
0.0
  0
ARC
  5
53C
330
1F
100
AcDbEntity
  8
0
100
AcDbCircle
 10
182.8345186390545
 20
108.2409103911053
 30
0.0
 40
0.8
100
AcDbArc
 50
90.0
 51
180.0
  0
ARC
  5
53D
330
1F
100
AcDbEntity
  8
0
100
AcDbCircle
 10
278.6120703260714
 20
108.2409103911053
 30
0.0
 40
0.8
100
AcDbArc
 50
0.0
 51
90.0
  0
LINE
  5
53E
330
1F
100
AcDbEntity
  8
0
100
AcDbLine
 10
279.4120703260714
 20
108.2409103911053
 30
0.0
 11
279.4120703260726
 21
95.80091039110573
 31
0.0
  0
LINE
  5
53F
330
1F
100
AcDbEntity
  8
0
100
AcDbLine
 10
254.2720186390554
 20
95.00091039110646
 30
0.0
 11
278.6120703260724
 21
95.00091039110646
 31
0.0
  0
LINE
  5
540
330
1F
100
AcDbEntity
  8
0
100
AcDbLine
 10
254.2720186390554
 20
109.0409103911055
 30
0.0
 11
278.6120703260714
 21
109.0409103911055
 31
0.0
  0
ARC
  5
541
330
1F
100
AcDbEntity
  8
0
100
AcDbCircle
 10
278.6120703260724
 20
95.80091039110573
 30
0.0
 40
0.8
100
AcDbArc
 50
270.0
 51
0.0
  0
LINE
  5
542
330
1F
100
AcDbEntity
  8
0
100
AcDbLine
 10
253.4720186390545
 20
108.2409103911053
 30
0.0
 11
253.4720186390545
 21
95.80091039110573
 31
0.0
  0
ARC
  5
543
330
1F
100
AcDbEntity
  8
0
100
AcDbCircle
 10
254.2720186390554
 20
108.2409103911053
 30
0.0
 40
0.8
100
AcDbArc
 50
90.0
 51
180.0
  0
ARC
  5
544
330
1F
100
AcDbEntity
  8
0
100
AcDbCircle
 10
254.2720186390554
 20
95.80091039110573
 30
0.0
 40
0.8
100
AcDbArc
 50
180.0
 51
270.0
  0
LINE
  5
545
330
1F
100
AcDbEntity
  8
0
100
AcDbLine
 10
385.6039686390554
 20
133.100910391105
 30
0.0
 11
402.0800686390526
 21
133.100910391105
 31
0.0
  0
ARC
  5
546
330
1F
100
AcDbEntity
  8
0
100
AcDbCircle
 10
207.6300686390534
 20
109.2409103911053
 30
0.0
 40
0.8
100
AcDbArc
 50
90.00000000001303
 51
180.0
  0
ARC
  5
547
330
1F
100
AcDbEntity
  8
0
100
AcDbCircle
 10
218.1925686390534
 20
109.240910391108
 30
0.0
 40
0.8
100
AcDbArc
 50
0.0
 51
90.00000000001303
  0
ARC
  5
548
330
1F
100
AcDbEntity
  8
0
100
AcDbCircle
 10
307.6300686390534
 20
109.2409103911062
 30
0.0
 40
0.8
100
AcDbArc
 50
90.00000000003907
 51
180.0
  0
ARC
  5
549
330
1F
100
AcDbEntity
  8
0
100
AcDbCircle
 10
313.4300686390533
 20
109.2409103911098
 30
0.0
 40
0.8
100
AcDbArc
 50
0.0
 51
90.00000000003907
  0
LINE
  5
54A
330
1F
100
AcDbEntity
  8
0
100
AcDbLine
 10
385.6039686390554
 20
147.1409103911049
 30
0.0
 11
395.8152686390535
 21
147.1409103911049
 31
0.0
  0
ARC
  5
54B
330
1F
100
AcDbEntity
  8
0
100
AcDbCircle
 10
307.6300686390545
 20
95.80091039110573
 30
0.0
 40
0.8
100
AcDbArc
 50
180.0
 51
270.0
  0
ARC
  5
54C
330
1F
100
AcDbEntity
  8
0
100
AcDbCircle
 10
313.4300686390545
 20
95.80091039110573
 30
0.0
 40
0.8
100
AcDbArc
 50
270.0
 51
0.0
  0
ARC
  5
54D
330
1F
100
AcDbEntity
  8
0
100
AcDbCircle
 10
218.1925686390545
 20
95.80091039110573
 30
0.0
 40
0.8
100
AcDbArc
 50
270.0
 51
0.0
  0
ARC
  5
54E
330
1F
100
AcDbEntity
  8
0
100
AcDbCircle
 10
207.6300686390545
 20
95.80091039110573
 30
0.0
 40
0.8
100
AcDbArc
 50
180.0
 51
270.0
  0
LINE
  5
54F
330
1F
100
AcDbEntity
  8
0
100
AcDbLine
 10
380.4782686390535
 20
170.2009103911053
 30
0.0
 11
387.1852186390554
 21
170.2009103911053
 31
0.0
  0
ARC
  5
550
330
1F
100
AcDbEntity
  8
0
100
AcDbCircle
 10
387.1852186390554
 20
171.0009103911055
 30
0.0
 40
0.8
100
AcDbArc
 50
270.0
 51
0.0
  0
ARC
  5
551
330
1F
100
AcDbEntity
  8
0
100
AcDbCircle
 10
380.4782686390535
 20
171.0009103911055
 30
0.0
 40
0.8
100
AcDbArc
 50
180.0
 51
270.0
  0
LINE
  5
552
330
1F
100
AcDbEntity
  8
0
100
AcDbLine
 10
387.9852186390555
 20
171.0009103911055
 30
0.0
 11
387.9852186390555
 21
171.2009103911053
 31
0.0
  0
LINE
  5
553
330
1F
100
AcDbEntity
  8
0
100
AcDbLine
 10
411.9682686390545
 20
170.2009103911053
 30
0.0
 11
405.2613186390524
 21
170.2009103911053
 31
0.0
  0
ARC
  5
554
330
1F
100
AcDbEntity
  8
0
100
AcDbCircle
 10
405.2613186390524
 20
171.0009103911055
 30
0.0
 40
0.8
100
AcDbArc
 50
180.0
 51
270.0
  0
ARC
  5
555
330
1F
100
AcDbEntity
  8
0
100
AcDbCircle
 10
411.9682686390545
 20
171.0009103911055
 30
0.0
 40
0.8
100
AcDbArc
 50
270.0
 51
0.0
  0
LINE
  5
556
330
1F
100
AcDbEntity
  8
0
100
AcDbLine
 10
404.4613186390525
 20
171.0009103911055
 30
0.0
 11
404.4613186390525
 21
171.2009103911053
 31
0.0
  0
LINE
  5
557
330
1F
100
AcDbEntity
  8
0
100
AcDbLine
 10
384.8039686390555
 20
148.1409103911058
 30
0.0
 11
379.0040686390525
 21
148.1409103911058
 31
0.0
  0
ARC
  5
558
330
1F
100
AcDbEntity
  8
0
100
AcDbCircle
 10
379.0040686390525
 20
147.3409103911066
 30
0.0
 40
0.8
100
AcDbArc
 50
90.0
 51
180.0
  0
LINE
  5
559
330
1F
100
AcDbEntity
  8
0
100
AcDbLine
 10
378.2040686390534
 20
147.3409103911066
 30
0.0
 11
378.2040686390534
 21
147.1409103911049
 31
0.0
  0
ARC
  5
55A
330
1F
100
AcDbEntity
  8
0
100
AcDbCircle
 10
384.8039686390555
 20
147.3409103911066
 30
0.0
 40
0.8
100
AcDbArc
 50
0.0
 51
90.0
  0
LINE
  5
55B
330
1F
100
AcDbEntity
  8
0
100
AcDbLine
 10
385.6039686390554
 20
147.3409103911066
 30
0.0
 11
385.6039686390554
 21
147.1409103911049
 31
0.0
  0
LINE
  5
55C
330
1F
100
AcDbEntity
  8
0
100
AcDbLine
 10
384.8039686390555
 20
132.100910391105
 30
0.0
 11
379.0040686390525
 21
132.100910391105
 31
0.0
  0
ARC
  5
55D
330
1F
100
AcDbEntity
  8
0
100
AcDbCircle
 10
379.0040686390525
 20
132.9009103911051
 30
0.0
 40
0.8
100
AcDbArc
 50
180.0
 51
270.0
  0
LINE
  5
55E
330
1F
100
AcDbEntity
  8
0
100
AcDbLine
 10
378.2040686390534
 20
132.9009103911051
 30
0.0
 11
378.2040686390534
 21
133.100910391105
 31
0.0
  0
ARC
  5
55F
330
1F
100
AcDbEntity
  8
0
100
AcDbCircle
 10
384.8039686390555
 20
132.9009103911051
 30
0.0
 40
0.8
100
AcDbArc
 50
270.0
 51
0.0
  0
LINE
  5
560
330
1F
100
AcDbEntity
  8
0
100
AcDbLine
 10
385.6039686390554
 20
132.9009103911051
 30
0.0
 11
385.6039686390554
 21
133.100910391105
 31
0.0
  0
LINE
  5
561
330
1F
100
AcDbEntity
  8
0
100
AcDbLine
 10
409.5552686390565
 20
132.100910391105
 30
0.0
 11
402.8800686390525
 21
132.100910391105
 31
0.0
  0
ARC
  5
562
330
1F
100
AcDbEntity
  8
0
100
AcDbCircle
 10
402.8800686390525
 20
132.9009103911051
 30
0.0
 40
0.8
100
AcDbArc
 50
180.0
 51
270.0
  0
LINE
  5
563
330
1F
100
AcDbEntity
  8
0
100
AcDbLine
 10
402.0800686390526
 20
132.9009103911051
 30
0.0
 11
402.0800686390526
 21
133.100910391105
 31
0.0
  0
LINE
  5
564
330
1F
100
AcDbEntity
  8
0
100
AcDbLine
 10
373.3345186390554
 20
113.0509103911057
 30
0.0
 11
380.0414686390554
 21
113.0509103911057
 31
0.0
  0
ARC
  5
565
330
1F
100
AcDbEntity
  8
0
100
AcDbCircle
 10
380.0414686390554
 20
113.850910391104
 30
0.0
 40
0.8
100
AcDbArc
 50
270.0
 51
0.0
  0
LINE
  5
566
330
1F
100
AcDbEntity
  8
0
100
AcDbLine
 10
380.8414686390554
 20
113.850910391104
 30
0.0
 11
380.8414686390554
 21
114.0509103911066
 31
0.0
  0
ARC
  5
567
330
1F
100
AcDbEntity
  8
0
100
AcDbCircle
 10
373.3345186390554
 20
113.850910391104
 30
0.0
 40
0.8
100
AcDbArc
 50
180.0
 51
270.0
  0
LINE
  5
568
330
1F
100
AcDbEntity
  8
0
100
AcDbLine
 10
398.1175686390524
 20
113.0509103911057
 30
0.0
 11
403.9174686390554
 21
113.0509103911057
 31
0.0
  0
ARC
  5
569
330
1F
100
AcDbEntity
  8
0
100
AcDbCircle
 10
403.9174686390554
 20
113.850910391104
 30
0.0
 40
0.8
100
AcDbArc
 50
270.0
 51
0.0
  0
LINE
  5
56A
330
1F
100
AcDbEntity
  8
0
100
AcDbLine
 10
404.7174686390553
 20
113.850910391104
 30
0.0
 11
404.7174686390553
 21
114.0509103911066
 31
0.0
  0
LINE
  5
56B
330
1F
100
AcDbEntity
  8
0
100
AcDbLine
 10
373.3345186390554
 20
128.0909103911056
 30
0.0
 11
411.9682686390554
 21
128.0909103911038
 31
0.0
  0
ARC
  5
56C
330
1F
100
AcDbEntity
  8
0
100
AcDbCircle
 10
398.1175686390524
 20
113.850910391104
 30
0.0
 40
0.8
100
AcDbArc
 50
180.0
 51
270.0
  0
LINE
  5
56D
330
1F
100
AcDbEntity
  8
0
100
AcDbLine
 10
397.3175686390525
 20
113.850910391104
 30
0.0
 11
397.3175686390525
 21
114.0509103911066
 31
0.0
  0
LINE
  5
56E
330
1F
100
AcDbEntity
  8
0
100
AcDbLine
 10
159.9925686390524
 20
113.0509103911057
 30
0.0
 11
165.7924686390554
 21
113.0509103911057
 31
0.0
  0
ARC
  5
56F
330
1F
100
AcDbEntity
  8
0
100
AcDbCircle
 10
165.7924686390554
 20
113.850910391104
 30
0.0
 40
0.8
100
AcDbArc
 50
270.0
 51
0.0
  0
LINE
  5
570
330
1F
100
AcDbEntity
  8
0
100
AcDbLine
 10
166.5924686390553
 20
113.850910391104
 30
0.0
 11
166.5924686390553
 21
114.0509103911066
 31
0.0
  0
ARC
  5
571
330
1F
100
AcDbEntity
  8
0
100
AcDbCircle
 10
159.9925686390524
 20
113.850910391104
 30
0.0
 40
0.8
100
AcDbArc
 50
180.0
 51
270.0
  0
LINE
  5
572
330
1F
100
AcDbEntity
  8
0
100
AcDbLine
 10
159.1925686390525
 20
113.850910391104
 30
0.0
 11
159.1925686390525
 21
114.0509103911066
 31
0.0
  0
LINE
  5
573
330
1F
100
AcDbEntity
  8
0
100
AcDbLine
 10
135.2295117003295
 20
113.0509103911057
 30
0.0
 11
141.9164686390554
 21
113.0509103911057
 31
0.0
  0
ARC
  5
574
330
1F
100
AcDbEntity
  8
0
100
AcDbCircle
 10
141.9164686390554
 20
113.850910391104
 30
0.0
 40
0.8
100
AcDbArc
 50
270.0
 51
0.0
  0
LINE
  5
575
330
1F
100
AcDbEntity
  8
0
100
AcDbLine
 10
142.7164686390554
 20
113.850910391104
 30
0.0
 11
142.7164686390554
 21
114.0509103911066
 31
0.0
  0
ARC
  5
576
330
1F
100
AcDbEntity
  8
0
370
    15
100
AcDbCircle
 10
135.2295117003295
 20
113.850910391104
 30
0.0
 40
0.8
100
AcDbArc
 50
180.0
 51
270.0
  0
LINE
  5
577
330
1F
100
AcDbEntity
  8
0
100
AcDbLine
 10
142.7164686390554
 20
114.0509103911066
 30
0.0
 11
159.1925686390525
 21
114.0509103911066
 31
0.0
  0
LINE
  5
578
330
1F
100
AcDbEntity
  8
0
100
AcDbLine
 10
325.7095703260595
 20
110.0409103911064
 30
0.0
 11
332.4483186390534
 21
110.04091039111
 31
0.0
  0
ARC
  5
579
330
1F
100
AcDbEntity
  8
0
100
AcDbCircle
 10
332.4483186390534
 20
109.2409103911098
 30
0.0
 40
0.8
100
AcDbArc
 50
0.0
 51
90.00000000003907
  0
LINE
  5
57A
330
1F
100
AcDbEntity
  8
0
100
AcDbLine
 10
333.2483186390534
 20
109.2409103911098
 30
0.0
 11
333.2483186390534
 21
109.0409103911055
 31
0.0
  0
ARC
  5
57B
330
1F
100
AcDbEntity
  8
0
100
AcDbCircle
 10
325.7095703260604
 20
109.2409103911062
 30
0.0
 40
0.8
100
AcDbArc
 50
90.00000000003907
 51
180.0
  0
ARC
  5
57C
330
1F
100
AcDbEntity
  8
0
100
AcDbCircle
 10
409.5552686390565
 20
132.9009103911051
 30
0.0
 40
0.8
100
AcDbArc
 50
270.0
 51
0.0
  0
ARC
  5
57D
330
1F
100
AcDbEntity
  8
0
100
AcDbCircle
 10
409.5552686390565
 20
164.4839103911066
 30
0.0
 40
0.8
100
AcDbArc
 50
0.0
 51
90.0
  0
ENDSEC
  0
SECTION
  2
OBJECTS
  0
DICTIONARY
  5
C
330
0
100
AcDbDictionary
281
     1
  3
ACAD_GROUP
350
D
  3
ACAD_LAYOUT
350
1A
  3
ACAD_MLINESTYLE
350
17
  3
ACAD_PLOTSETTINGS
350
19
  3
ACAD_PLOTSTYLENAME
350
E
  3
AcDbVariableDictionary
350
5AA
  0
DICTIONARY
  5
2F
330
2
100
AcDbDictionary
280
     1
281
     1
  3
ACAD_LAYERSTATES
360
30
  0
DICTIONARY
  5
2D
330
2C
100
AcDbDictionary
280
     1
281
     1
  3
ADSK_XREC_LAYER_RECONCILED
360
2E
  0
DICTIONARY
  5
D
102
{ACAD_REACTORS
330
C
102
}
330
C
100
AcDbDictionary
281
     1
  0
DICTIONARY
  5
1A
102
{ACAD_REACTORS
330
C
102
}
330
C
100
AcDbDictionary
281
     1
  3
Model
350
22
  3
1
350
1E
  3
2
350
26
  0
DICTIONARY
  5
17
102
{ACAD_REACTORS
330
C
102
}
330
C
100
AcDbDictionary
281
     1
  3
Standard
350
18
  0
DICTIONARY
  5
19
102
{ACAD_REACTORS
330
C
102
}
330
C
100
AcDbDictionary
281
     1
  0
ACDBDICTIONARYWDFLT
  5
E
102
{ACAD_REACTORS
330
C
102
}
330
C
100
AcDbDictionary
281
     1
  3
Normal
350
F
100
AcDbDictionaryWithDefault
340
F
  0
DICTIONARY
  5
5AA
102
{ACAD_REACTORS
330
C
102
}
330
C
100
AcDbDictionary
281
     1
  3
DIMASSOC
350
5AC
  3
HIDETEXT
350
5AB
  0
DICTIONARY
  5
30
102
{ACAD_REACTORS
330
2F
102
}
330
2F
100
AcDbDictionary
281
     1
  0
XRECORD
  5
2E
102
{ACAD_REACTORS
330
2D
102
}
330
2D
100
AcDbXrecord
280
     1
290
     1
  0
LAYOUT
  5
22
102
{ACAD_REACTORS
330
1A
102
}
330
1A
100
AcDbPlotSettings
  1

  2
iR3530
  4

  6

 40
0.0
 41
0.0
 42
0.0
 43
0.0
 44
0.0
 45
0.0
 46
0.0
 47
0.0
 48
0.0
 49
0.0
140
0.0
141
0.0
142
1.0
143
1.0
 70
  1712
 72
     0
 73
     0
 74
     0
  7
NEX1.CTB
 75
     0
147
1.0
148
0.0
149
0.0
100
AcDbLayout
  1
Model
 70
     1
 71
     0
 10
0.0
 20
0.0
 11
12.0
 21
9.0
 12
0.0
 22
0.0
 32
0.0
 14
0.0
 24
0.0
 34
0.0
 15
0.0
 25
0.0
 35
0.0
146
0.0
 13
0.0
 23
0.0
 33
0.0
 16
1.0
 26
0.0
 36
0.0
 17
0.0
 27
1.0
 37
0.0
 76
     0
330
1F
  0
LAYOUT
  5
1E
102
{ACAD_REACTORS
330
1A
102
}
330
1A
100
AcDbPlotSettings
  1

  2
iR3530
  4

  6

 40
0.0
 41
0.0
 42
0.0
 43
0.0
 44
0.0
 45
0.0
 46
0.0
 47
0.0
 48
0.0
 49
0.0
140
0.0
141
0.0
142
1.0
143
1.0
 70
   688
 72
     0
 73
     0
 74
     5
  7
NEX1.CTB
 75
    16
147
1.0
148
0.0
149
0.0
100
AcDbLayout
  1
1
 70
     1
 71
     1
 10
0.0
 20
0.0
 11
420.0
 21
297.0
 12
0.0
 22
0.0
 32
0.0
 14
1.000000000000000E+20
 24
1.000000000000000E+20
 34
1.000000000000000E+20
 15
-1.000000000000000E+20
 25
-1.000000000000000E+20
 35
-1.000000000000000E+20
146
0.0
 13
0.0
 23
0.0
 33
0.0
 16
1.0
 26
0.0
 36
0.0
 17
0.0
 27
1.0
 37
0.0
 76
     0
330
1B
  0
LAYOUT
  5
26
102
{ACAD_REACTORS
330
1A
102
}
330
1A
100
AcDbPlotSettings
  1

  2
iR3530
  4

  6

 40
0.0
 41
0.0
 42
0.0
 43
0.0
 44
0.0
 45
0.0
 46
0.0
 47
0.0
 48
0.0
 49
0.0
140
0.0
141
0.0
142
1.0
143
1.0
 70
   688
 72
     0
 73
     0
 74
     5
  7
NEX1.CTB
 75
    16
147
1.0
148
0.0
149
0.0
100
AcDbLayout
  1
2
 70
     1
 71
     2
 10
0.0
 20
0.0
 11
12.0
 21
9.0
 12
0.0
 22
0.0
 32
0.0
 14
0.0
 24
0.0
 34
0.0
 15
0.0
 25
0.0
 35
0.0
146
0.0
 13
0.0
 23
0.0
 33
0.0
 16
1.0
 26
0.0
 36
0.0
 17
0.0
 27
1.0
 37
0.0
 76
     0
330
23
  0
MLINESTYLE
  5
18
102
{ACAD_REACTORS
330
17
102
}
330
17
100
AcDbMlineStyle
  2
STANDARD
 70
     0
  3

 62
   256
 51
90.0
 52
90.0
 71
     2
 49
0.5
 62
   256
  6
BYLAYER
 49
-0.5
 62
   256
  6
BYLAYER
  0
ACDBPLACEHOLDER
  5
F
102
{ACAD_REACTORS
330
E
102
}
330
E
  0
DICTIONARYVAR
  5
5AC
102
{ACAD_REACTORS
330
5AA
102
}
330
5AA
100
DictionaryVariables
280
     0
  1
2
  0
DICTIONARYVAR
  5
5AB
102
{ACAD_REACTORS
330
5AA
102
}
330
5AA
100
DictionaryVariables
280
     0
  1
1
  0
ENDSEC
  0
EOF
