0
SECTION
2
HEADER
9
$INSUNITS
70
4
9
$ACADVER
1
AC1014
9
$HANDSEED
5
FFFF
0
ENDSEC
0
SECTION
2
TABLES
0
TABLE
2
VPORT
5
8
100
AcDbSymbolTable
0
ENDTAB
0
TABLE
2
LTYPE
5
5
100
AcDbSymbolTable
0
LTYPE
5
14
100
AcDbSymbolTableRecord
100
AcDbLinetypeTableRecord
2
BYBLOCK
70
0
0
LTYPE
5
15
100
AcDbSymbolTableRecord
100
AcDbLinetypeTableRecord
2
BYLAYER
70
0
0
ENDTAB
0
TABLE
2
LAYER
5
2
100
AcDbSymbolTable
70
2
0
LAYER
5
50
100
AcDbSymbolTableRecord
100
AcDbLayerTableRecord
2
0
70
0
6
CONTINUOUS
0
ENDTAB
0
TABLE
2
STYLE
5
3
100
AcDbSymbolTable
70
1
0
STYLE
5
11
100
AcDbSymbolTableRecord
100
AcDbTextStyleTableRecord
2
STANDARD
70
0
0
ENDTAB
0
TABLE
2
VIEW
5
6
100
AcDbSymbolTable
70
0
0
ENDTAB
0
TABLE
2
UCS
5
7
100
AcDbSymbolTable
70
0
0
ENDTAB
0
TABLE
2
APPID
5
9
100
AcDbSymbolTable
70
2
0
APPID
5
12
100
AcDbSymbolTableRecord
100
AcDbRegAppTableRecord
2
ACAD
70
0
0
ENDTAB
0
TABLE
2
DIMSTYLE
5
A
100
AcDbSymbolTable
70
1
0
ENDTAB
0
TABLE
2
BLOCK_RECORD
5
1
100
AcDbSymbolTable
70
1
0
BLOCK_RECORD
5
1F
100
AcDbSymbolTableRecord
100
AcDbBlockTableRecord
2
*MODEL_SPACE
0
BLOCK_RECORD
5
1B
100
AcDbSymbolTableRecord
100
AcDbBlockTableRecord
2
*PAPER_SPACE
0
ENDTAB
0
ENDSEC
0
SECTION
2
BLOCKS
0
BLOCK
5
20
100
AcDbEntity
100
AcDbBlockBegin
2
*MODEL_SPACE
0
ENDBLK
5
21
100
AcDbEntity
100
AcDbBlockEnd
0
BLOCK
5
1C
100
AcDbEntity
100
AcDbBlockBegin
2
*PAPER_SPACE
0
ENDBLK
5
1D
100
AcDbEntity
100
AcDbBlockEnd
0
ENDSEC
0
SECTION
2
ENTITIES
0
LWPOLYLINE
5
100
100
AcDbEntity
8
0
100
AcDbPolyline
90
4
70
1
43
0.0
10
24.385106222863769
20
15.636850128378963
10
8.8851062228637687
20
15.636850128378963
10
8.8851062228637687
20
28.436850128378985
10
24.385106222863769
20
28.436850128378985
0
LWPOLYLINE
5
101
100
AcDbEntity
8
0
100
AcDbPolyline
90
4
70
1
43
0.0
10
43.435106222863766
20
15.636850128378963
10
27.935106222863769
20
15.636850128378963
10
27.935106222863769
20
28.436850128378985
10
43.435106222863766
20
28.436850128378985
0
LWPOLYLINE
5
102
100
AcDbEntity
8
0
100
AcDbPolyline
90
4
70
1
43
0.0
10
67.24760545992423
20
110.88685012837921
10
51.747605459924237
20
110.88685012837921
10
51.747605459924237
20
123.68685012837922
10
67.24760545992423
20
123.68685012837922
0
LWPOLYLINE
5
103
100
AcDbEntity
8
0
100
AcDbPolyline
90
4
70
1
43
0.0
10
67.247605459924245
20
91.836850128378956
10
51.747605459924237
20
91.836850128378956
10
51.747605459924237
20
104.63685012837892
10
67.247605459924245
20
104.63685012837892
0
LWPOLYLINE
5
104
100
AcDbEntity
8
0
100
AcDbPolyline
90
4
70
1
43
0.0
10
72.010105459924233
20
72.786850128379172
10
56.51010545992424
20
72.786850128379172
10
56.51010545992424
20
85.586850128379183
10
72.010105459924233
20
85.586850128379183
0
LWPOLYLINE
5
105
100
AcDbEntity
8
0
100
AcDbPolyline
90
4
70
1
43
0.0
10
95.822605078454473
20
72.786850128379101
10
80.322605078454487
20
72.786850128379101
10
80.322605078454487
20
85.586850128379126
10
95.822605078454473
20
85.586850128379126
0
LWPOLYLINE
5
106
100
AcDbEntity
8
0
100
AcDbPolyline
90
4
70
1
43
0.0
10
100.58560556673571
20
53.73685012837921
10
85.085605566735751
20
53.73685012837921
10
85.085605566735751
20
66.536850128379228
10
100.58560556673571
20
66.536850128379228
0
LWPOLYLINE
5
107
100
AcDbEntity
8
0
100
AcDbPolyline
90
4
70
1
43
0.0
10
110.110605185266
20
34.686850128379199
10
94.610605185265996
20
34.686850128379199
10
94.610605185265996
20
47.486850128379203
10
110.110605185266
20
47.486850128379203
0
LWPOLYLINE
5
108
100
AcDbEntity
8
0
100
AcDbPolyline
90
4
70
1
43
0.0
10
79.153855459924188
20
34.686850128379263
10
63.653855459924181
20
34.686850128379263
10
63.653855459924181
20
47.486850128379281
10
79.153855459924188
20
47.486850128379281
0
LWPOLYLINE
5
109
100
AcDbEntity
8
0
100
AcDbPolyline
90
4
70
1
43
0.0
10
250.59760545992421
20
110.88685012837921
10
235.09760545992435
20
110.88685012837921
10
235.09760545992435
20
123.68685012837922
10
250.59760545992421
20
123.68685012837922
0
LWPOLYLINE
5
110
100
AcDbEntity
8
0
100
AcDbPolyline
90
4
70
1
43
0.0
10
250.59760545992421
20
91.836850128378956
10
235.09760545992421
20
91.836850128378956
10
235.09760545992421
20
104.63685012837892
10
250.59760545992421
20
104.63685012837892
0
LWPOLYLINE
5
111
100
AcDbEntity
8
0
100
AcDbPolyline
90
4
70
1
43
0.0
10
241.07260507845439
20
72.786850128379342
10
225.57260507845442
20
72.786850128379342
10
225.57260507845442
20
85.586850128379339
10
241.07260507845439
20
85.586850128379339
0
LWPOLYLINE
5
112
100
AcDbEntity
8
0
100
AcDbPolyline
90
4
70
1
43
0.0
10
245.83560556673572
20
53.736850128379174
10
230.33560556673569
20
53.736850128379174
10
230.33560556673569
20
66.536850128379172
10
245.83560556673572
20
66.536850128379172
0
LWPOLYLINE
5
113
100
AcDbEntity
8
0
100
AcDbPolyline
90
4
70
1
43
0.0
10
255.36060518526611
20
34.686850128379263
10
239.86060518526611
20
34.686850128379263
10
239.86060518526611
20
47.486850128379281
10
255.36060518526611
20
47.486850128379281
0
LWPOLYLINE
5
114
100
AcDbEntity
8
0
100
AcDbPolyline
90
4
70
1
43
0.0
10
357.75385535992484
20
34.686850128379199
10
342.25385535992478
20
34.686850128379199
10
342.25385535992478
20
47.486850128379203
10
357.75385535992484
20
47.486850128379203
0
LWPOLYLINE
5
115
100
AcDbEntity
8
0
100
AcDbPolyline
90
4
70
1
43
0.0
10
372.04135552334463
20
53.736859829436689
10
356.54135552334469
20
53.736859829436689
10
356.54135552334469
20
66.536859829436708
10
372.04135552334463
20
66.536859829436708
0
LWPOLYLINE
5
116
100
AcDbEntity
8
0
100
AcDbPolyline
90
4
70
1
43
0.0
10
379.18510565065901
20
72.786850128379399
10
363.68510565065901
20
72.786850128379399
10
363.68510565065901
20
85.586850128379425
10
379.18510565065901
20
85.586850128379425
0
LWPOLYLINE
5
117
100
AcDbEntity
8
0
100
AcDbPolyline
90
4
70
1
43
0.0
10
74.391355659924187
20
66.536850128379172
10
58.891355659924187
20
66.536850128379172
10
58.891355659924187
20
53.736850128379245
10
74.391355659924187
20
53.736850128379245
0
LWPOLYLINE
5
118
100
AcDbEntity
8
0
100
AcDbPolyline
90
4
70
1
43
0.0
10
58.653857590464412
20
37.086853233723332
10
56.153857590464412
20
37.086853233723332
10
56.153857590464412
20
32.286853233723377
10
58.653857590464412
20
32.286853233723377
0
LWPOLYLINE
5
119
100
AcDbEntity
8
0
100
AcDbPolyline
90
4
70
1
43
0.0
10
86.653857590464185
20
37.086853233723332
10
84.153857590464426
20
37.086853233723332
10
84.153857590464426
20
32.286853233723377
10
86.653857590464185
20
32.286853233723377
0
LWPOLYLINE
5
120
100
AcDbEntity
8
0
100
AcDbPolyline
90
4
70
1
43
0.0
10
360.50385322938462
20
45.086847023035034
10
363.00385322938462
20
45.086847023035034
10
363.00385322938462
20
49.886847023035095
10
360.50385322938462
20
49.886847023035095
0
LWPOLYLINE
5
121
100
AcDbEntity
8
0
100
AcDbPolyline
90
4
70
1
43
0.0
10
337.00385322938496
20
45.086847023035034
10
339.50385322938467
20
45.086847023035034
10
339.50385322938467
20
49.886847023035095
10
337.00385322938496
20
49.886847023035095
0
LWPOLYLINE
5
122
100
AcDbEntity
8
0
100
AcDbPolyline
90
4
70
1
43
0.0
10
351.54135765388469
20
56.136862934780893
10
349.04135765388469
20
56.136862934780893
10
349.04135765388469
20
51.336862934780854
10
351.54135765388469
20
51.336862934780854
0
LWPOLYLINE
5
123
100
AcDbEntity
8
0
100
AcDbPolyline
90
4
70
1
43
0.0
10
379.54135765388435
20
56.136862934780893
10
377.04135765388463
20
56.136862934780893
10
377.04135765388463
20
51.336862934780854
10
379.54135765388435
20
51.336862934780854
0
LWPOLYLINE
5
124
100
AcDbEntity
8
0
100
AcDbPolyline
90
4
70
1
43
0.0
10
86.297605459924242
20
110.88685012837921
10
70.797605459924227
20
110.88685012837921
10
70.797605459924227
20
123.68685012837922
10
86.297605459924242
20
123.68685012837922
0
LWPOLYLINE
5
125
100
AcDbEntity
8
0
100
AcDbPolyline
90
4
70
1
43
0.0
10
86.297605459924242
20
91.836850128378956
10
70.797605459924227
20
91.836850128378956
10
70.797605459924227
20
104.63685012837892
10
86.297605459924242
20
104.63685012837892
0
LWPOLYLINE
5
126
100
AcDbEntity
8
0
100
AcDbPolyline
90
4
70
1
43
0.0
10
114.87260507845441
20
72.786850128379101
10
99.372605078454484
20
72.786850128379101
10
99.372605078454484
20
85.586850128379126
10
114.87260507845441
20
85.586850128379126
0
LWPOLYLINE
5
127
100
AcDbEntity
8
0
100
AcDbPolyline
90
4
70
1
43
0.0
10
119.63560556673571
20
53.73685012837921
10
104.13560556673572
20
53.73685012837921
10
104.13560556673572
20
66.536850128379228
10
119.63560556673571
20
66.536850128379228
0
LWPOLYLINE
5
128
100
AcDbEntity
8
0
100
AcDbPolyline
90
4
70
1
43
0.0
10
129.16060518526601
20
34.686850128379199
10
113.66060518526601
20
34.686850128379199
10
113.66060518526601
20
47.486850128379203
10
129.16060518526601
20
47.486850128379203
0
LWPOLYLINE
5
129
100
AcDbEntity
8
0
100
AcDbPolyline
90
4
70
1
43
0.0
10
105.3476054599242
20
110.88685012837921
10
89.847605459924239
20
110.88685012837921
10
89.847605459924239
20
123.68685012837922
10
105.3476054599242
20
123.68685012837922
0
LWPOLYLINE
5
130
100
AcDbEntity
8
0
100
AcDbPolyline
90
4
70
1
43
0.0
10
105.3476054599242
20
91.836850128378956
10
89.847605459924239
20
91.836850128378956
10
89.847605459924239
20
104.63685012837892
10
105.3476054599242
20
104.63685012837892
0
LWPOLYLINE
5
131
100
AcDbEntity
8
0
100
AcDbPolyline
90
4
70
1
43
0.0
10
133.92260507845441
20
72.786850128379101
10
118.42260507845451
20
72.786850128379101
10
118.42260507845451
20
85.586850128379126
10
133.92260507845441
20
85.586850128379126
0
LWPOLYLINE
5
132
100
AcDbEntity
8
0
100
AcDbPolyline
90
4
70
1
43
0.0
10
138.68560556673572
20
53.73685012837921
10
123.18560556673572
20
53.73685012837921
10
123.18560556673572
20
66.536850128379228
10
138.68560556673572
20
66.536850128379228
0
LWPOLYLINE
5
133
100
AcDbEntity
8
0
100
AcDbPolyline
90
4
70
1
43
0.0
10
148.21060518526599
20
34.686850128379199
10
132.71060518526599
20
34.686850128379199
10
132.71060518526599
20
47.486850128379203
10
148.21060518526599
20
47.486850128379203
0
LWPOLYLINE
5
134
100
AcDbEntity
8
0
100
AcDbPolyline
90
4
70
1
43
0.0
10
124.39760545992421
20
110.88685012837921
10
108.89760545992422
20
110.88685012837921
10
108.89760545992422
20
123.68685012837922
10
124.39760545992421
20
123.68685012837922
0
LWPOLYLINE
5
135
100
AcDbEntity
8
0
100
AcDbPolyline
90
4
70
1
43
0.0
10
124.39760545992421
20
91.836850128378956
10
108.89760545992422
20
91.836850128378956
10
108.89760545992422
20
104.63685012837892
10
124.39760545992421
20
104.63685012837892
0
LWPOLYLINE
5
136
100
AcDbEntity
8
0
100
AcDbPolyline
90
4
70
1
43
0.0
10
152.97260507845439
20
72.786850128379101
10
137.47260507845451
20
72.786850128379101
10
137.47260507845451
20
85.586850128379126
10
152.97260507845439
20
85.586850128379126
0
LWPOLYLINE
5
137
100
AcDbEntity
8
0
100
AcDbPolyline
90
4
70
1
43
0.0
10
157.7356055667357
20
53.73685012837921
10
142.2356055667357
20
53.73685012837921
10
142.2356055667357
20
66.536850128379228
10
157.7356055667357
20
66.536850128379228
0
LWPOLYLINE
5
138
100
AcDbEntity
8
0
100
AcDbPolyline
90
4
70
1
43
0.0
10
167.260605185266
20
34.686850128379199
10
151.760605185266
20
34.686850128379199
10
151.760605185266
20
47.486850128379203
10
167.260605185266
20
47.486850128379203
0
LWPOLYLINE
5
139
100
AcDbEntity
8
0
100
AcDbPolyline
90
4
70
1
43
0.0
10
143.44760545992418
20
91.836850128378956
10
127.9476054599242
20
91.836850128378956
10
127.9476054599242
20
104.63685012837892
10
143.44760545992418
20
104.63685012837892
0
LWPOLYLINE
5
140
100
AcDbEntity
8
0
100
AcDbPolyline
90
4
70
1
43
0.0
10
172.02260507845452
20
72.786850128379101
10
156.52260507845449
20
72.786850128379101
10
156.52260507845449
20
85.586850128379126
10
172.02260507845452
20
85.586850128379126
0
LWPOLYLINE
5
141
100
AcDbEntity
8
0
100
AcDbPolyline
90
4
70
1
43
0.0
10
176.78560556673571
20
53.73685012837921
10
161.28560556673568
20
53.73685012837921
10
161.28560556673568
20
66.536850128379228
10
176.78560556673571
20
66.536850128379228
0
LWPOLYLINE
5
142
100
AcDbEntity
8
0
100
AcDbPolyline
90
4
70
1
43
0.0
10
186.31060518526601
20
34.686850128379199
10
170.81060518526601
20
34.686850128379199
10
170.81060518526601
20
47.486850128379203
10
186.31060518526601
20
47.486850128379203
0
LWPOLYLINE
5
143
100
AcDbEntity
8
0
100
AcDbPolyline
90
4
70
1
43
0.0
10
162.49760545992419
20
91.836850128378956
10
146.99760545992419
20
91.836850128378956
10
146.99760545992419
20
104.63685012837892
10
162.49760545992419
20
104.63685012837892
0
LWPOLYLINE
5
144
100
AcDbEntity
8
0
100
AcDbPolyline
90
4
70
1
43
0.0
10
181.5476054599242
20
110.88685012837921
10
166.04760545992417
20
110.88685012837921
10
166.04760545992417
20
123.68685012837922
10
181.5476054599242
20
123.68685012837922
0
LWPOLYLINE
5
145
100
AcDbEntity
8
0
100
AcDbPolyline
90
4
70
1
43
0.0
10
181.5476054599242
20
91.836850128378956
10
166.04760545992417
20
91.836850128378956
10
166.04760545992417
20
104.63685012837892
10
181.5476054599242
20
104.63685012837892
0
LWPOLYLINE
5
146
100
AcDbEntity
8
0
100
AcDbPolyline
90
4
70
1
43
0.0
10
269.64760545992419
20
91.836850128378956
10
254.14760545992422
20
91.836850128378956
10
254.14760545992422
20
104.63685012837892
10
269.64760545992419
20
104.63685012837892
0
LWPOLYLINE
5
147
100
AcDbEntity
8
0
100
AcDbPolyline
90
4
70
1
43
0.0
10
260.1226050784544
20
72.786850128379342
10
244.62260507845443
20
72.786850128379342
10
244.62260507845443
20
85.586850128379339
10
260.1226050784544
20
85.586850128379339
0
LWPOLYLINE
5
148
100
AcDbEntity
8
0
100
AcDbPolyline
90
4
70
1
43
0.0
10
264.88560556673571
20
53.736850128379174
10
249.38560556673568
20
53.736850128379174
10
249.38560556673568
20
66.536850128379172
10
264.88560556673571
20
66.536850128379172
0
LWPOLYLINE
5
149
100
AcDbEntity
8
0
100
AcDbPolyline
90
4
70
1
43
0.0
10
274.41060518526621
20
34.686850128379263
10
258.91060518526609
20
34.686850128379263
10
258.91060518526609
20
47.486850128379281
10
274.41060518526621
20
47.486850128379281
0
LWPOLYLINE
5
150
100
AcDbEntity
8
0
100
AcDbPolyline
90
4
70
1
43
0.0
10
288.6976054599242
20
91.836850128378956
10
273.19760545992426
20
91.836850128378956
10
273.19760545992426
20
104.63685012837892
10
288.6976054599242
20
104.63685012837892
0
LWPOLYLINE
5
151
100
AcDbEntity
8
0
100
AcDbPolyline
90
4
70
1
43
0.0
10
279.17260507845441
20
72.786850128379342
10
263.67260507845447
20
72.786850128379342
10
263.67260507845447
20
85.586850128379339
10
279.17260507845441
20
85.586850128379339
0
LWPOLYLINE
5
152
100
AcDbEntity
8
0
100
AcDbPolyline
90
4
70
1
43
0.0
10
283.93560556673566
20
53.736850128379174
10
268.43560556673566
20
53.736850128379174
10
268.43560556673566
20
66.536850128379172
10
283.93560556673566
20
66.536850128379172
0
LWPOLYLINE
5
153
100
AcDbEntity
8
0
100
AcDbPolyline
90
4
70
1
43
0.0
10
293.46060518526622
20
34.686850128379263
10
277.96060518526605
20
34.686850128379263
10
277.96060518526605
20
47.486850128379281
10
293.46060518526622
20
47.486850128379281
0
LWPOLYLINE
5
154
100
AcDbEntity
8
0
100
AcDbPolyline
90
4
70
1
43
0.0
10
307.74760545992433
20
110.88685012837921
10
292.24760545992433
20
110.88685012837921
10
292.24760545992433
20
123.68685012837922
10
307.74760545992433
20
123.68685012837922
0
LWPOLYLINE
5
155
100
AcDbEntity
8
0
100
AcDbPolyline
90
4
70
1
43
0.0
10
307.74760545992422
20
91.836850128378956
10
292.24760545992422
20
91.836850128378956
10
292.24760545992422
20
104.63685012837892
10
307.74760545992422
20
104.63685012837892
0
LWPOLYLINE
5
156
100
AcDbEntity
8
0
100
AcDbPolyline
90
4
70
1
43
0.0
10
298.22260507845436
20
72.786850128379342
10
282.72260507845436
20
72.786850128379342
10
282.72260507845436
20
85.586850128379339
10
298.22260507845436
20
85.586850128379339
0
LWPOLYLINE
5
157
100
AcDbEntity
8
0
100
AcDbPolyline
90
4
70
1
43
0.0
10
302.98560556673567
20
53.736850128379174
10
287.48560556673567
20
53.736850128379174
10
287.48560556673567
20
66.536850128379172
10
302.98560556673567
20
66.536850128379172
0
LWPOLYLINE
5
158
100
AcDbEntity
8
0
100
AcDbPolyline
90
4
70
1
43
0.0
10
312.51060518526617
20
34.686850128379263
10
297.01060518526617
20
34.686850128379263
10
297.01060518526617
20
47.486850128379281
10
312.51060518526617
20
47.486850128379281
0
LWPOLYLINE
5
159
100
AcDbEntity
8
0
100
AcDbPolyline
90
4
70
1
43
0.0
10
326.7976054599244
20
110.88685012837921
10
311.29760545992434
20
110.88685012837921
10
311.29760545992434
20
123.68685012837922
10
326.7976054599244
20
123.68685012837922
0
LWPOLYLINE
5
160
100
AcDbEntity
8
0
100
AcDbPolyline
90
4
70
1
43
0.0
10
326.79760545992423
20
91.836850128378956
10
311.29760545992428
20
91.836850128378956
10
311.29760545992428
20
104.63685012837892
10
326.79760545992423
20
104.63685012837892
0
LWPOLYLINE
5
161
100
AcDbEntity
8
0
100
AcDbPolyline
90
4
70
1
43
0.0
10
317.27260507845438
20
72.786850128379342
10
301.77260507845438
20
72.786850128379342
10
301.77260507845438
20
85.586850128379339
10
317.27260507845438
20
85.586850128379339
0
LWPOLYLINE
5
162
100
AcDbEntity
8
0
100
AcDbPolyline
90
4
70
1
43
0.0
10
322.0356055667358
20
53.736850128379174
10
306.53560556673568
20
53.736850128379174
10
306.53560556673568
20
66.536850128379172
10
322.0356055667358
20
66.536850128379172
0
LWPOLYLINE
5
163
100
AcDbEntity
8
0
100
AcDbPolyline
90
4
70
1
43
0.0
10
331.56060518526624
20
34.686850128379263
10
316.06060518526618
20
34.686850128379263
10
316.06060518526618
20
47.486850128379281
10
331.56060518526624
20
47.486850128379281
0
LWPOLYLINE
5
164
100
AcDbEntity
8
0
100
AcDbPolyline
90
4
70
1
43
0.0
10
345.8476054599243
20
110.88685012837921
10
330.34760545992435
20
110.88685012837921
10
330.34760545992435
20
123.68685012837922
10
345.8476054599243
20
123.68685012837922
0
LWPOLYLINE
5
165
100
AcDbEntity
8
0
100
AcDbPolyline
90
4
70
1
43
0.0
10
345.8476054599243
20
91.836850128378956
10
330.34760545992418
20
91.836850128378956
10
330.34760545992418
20
104.63685012837892
10
345.8476054599243
20
104.63685012837892
0
LWPOLYLINE
5
166
100
AcDbEntity
8
0
100
AcDbPolyline
90
4
70
1
43
0.0
10
336.3226050784545
20
72.786850128379342
10
320.82260507845439
20
72.786850128379342
10
320.82260507845439
20
85.586850128379339
10
336.3226050784545
20
85.586850128379339
0
LWPOLYLINE
5
167
100
AcDbEntity
8
0
100
AcDbPolyline
90
4
70
1
43
0.0
10
341.08560556673581
20
53.736850128379174
10
325.58560556673569
20
53.736850128379174
10
325.58560556673569
20
66.536850128379172
10
341.08560556673581
20
66.536850128379172
0
LWPOLYLINE
5
168
100
AcDbEntity
8
0
100
AcDbPolyline
90
4
70
1
43
0.0
10
355.37260507845451
20
72.786850128379342
10
339.87260507845434
20
72.786850128379342
10
339.87260507845434
20
85.586850128379339
10
355.37260507845451
20
85.586850128379339
0
LWPOLYLINE
5
169
100
AcDbEntity
8
0
100
AcDbPolyline
90
4
70
1
43
0.0
10
402.99760545992433
20
110.88685012837921
10
387.49760545992444
20
110.88685012837921
10
387.49760545992444
20
123.68685012837922
10
402.99760545992433
20
123.68685012837922
0
LWPOLYLINE
5
170
100
AcDbEntity
8
0
100
AcDbPolyline
90
4
70
1
43
0.0
10
402.99760545992422
20
91.836850128378956
10
387.49760545992439
20
91.836850128378956
10
387.49760545992439
20
104.63685012837892
10
402.99760545992422
20
104.63685012837892
0
LWPOLYLINE
5
171
100
AcDbEntity
8
0
100
AcDbPolyline
90
4
70
1
43
0.0
10
402.99760545992422
20
72.786850128378944
10
387.49760545992439
20
72.786850128378944
10
387.49760545992439
20
85.58685012837897
10
402.99760545992422
20
85.58685012837897
0
LWPOLYLINE
5
172
100
AcDbEntity
8
0
100
AcDbPolyline
90
4
70
1
43
0.0
10
402.99760545992422
20
53.736850128378961
10
387.49760545992439
20
53.736850128378961
10
387.49760545992439
20
66.536850128378958
10
402.99760545992422
20
66.536850128378958
0
LWPOLYLINE
5
173
100
AcDbEntity
8
0
100
AcDbPolyline
90
4
70
1
43
0.0
10
402.99760545992422
20
34.68685012837895
10
387.49760545992439
20
34.68685012837895
10
387.49760545992439
20
47.486850128378961
10
402.99760545992422
20
47.486850128378961
0
LWPOLYLINE
5
174
100
AcDbEntity
8
0
100
AcDbPolyline
90
4
70
1
43
0.0
10
383.94760545992432
20
34.68685012837895
10
368.44760545992415
20
34.68685012837895
10
368.44760545992415
20
47.486850128378961
10
383.94760545992432
20
47.486850128378961
0
LWPOLYLINE
5
175
100
AcDbEntity
8
0
100
AcDbPolyline
90
4
70
1
43
0.0
10
374.42260545992417
20
91.836850128378956
10
358.92260545992423
20
91.836850128378956
10
358.92260545992423
20
104.63685012837892
10
374.42260545992417
20
104.63685012837892
0
LWPOLYLINE
5
176
100
AcDbEntity
8
0
100
AcDbPolyline
90
4
70
1
43
0.0
10
353.92260759046417
20
94.236853233723124
10
351.42260759046417
20
94.236853233723124
10
351.42260759046417
20
89.436853233723085
10
353.92260759046417
20
89.436853233723085
0
LWPOLYLINE
5
177
100
AcDbEntity
8
0
100
AcDbPolyline
90
4
70
1
43
0.0
10
381.922607590464
20
94.236853233723124
10
379.42260759046417
20
94.236853233723124
10
379.42260759046417
20
89.436853233723085
10
381.922607590464
20
89.436853233723085
0
LWPOLYLINE
5
178
100
AcDbEntity
8
0
100
AcDbPolyline
90
108
70
1
43
0.0
10
315.89729930240952
20
9.1368501283791943
10
315.89729930240935
20
6.2368501283791877
10
314.43652978695081
20
6.2368501283791966
42
-0.26794919243111082
10
312.70447897938203
20
7.2368501283793041
10
310.33734287570439
20
11.336850128379384
42
0.26794919243111193
10
308.60529206813538
20
12.336850128379291
10
255.27630653668339
20
12.336850128379279
42
0.26794919243111653
10
253.54425572911441
20
11.33685012837929
10
251.177119625437
20
7.2368501283793112
42
-0.26794919243112475
10
249.44506881786808
20
6.2368501283791877
10
247.98429930240954
20
6.2368501283791877
10
247.98429930240951
20
9.1368501283792476
42
0.99999999999999989
10
245.98429930240954
20
9.1368501283791943
10
245.98429930240954
20
6.2368501283791877
10
244.5235297869508
20
6.2368501283791966
42
-0.26794919243111082
10
242.79147897938202
20
7.2368501283793041
10
240.42434287570444
20
11.336850128379387
42
0.26794919243111037
10
238.69229206813549
20
12.336850128379291
10
228.88541741349911
20
12.336850128379291
10
228.68541741349918
20
12.536850128379291
10
228.68541741349924
20
29.936850128379323
42
-0.41421356237309503
10
230.18541741349921
20
31.436850128379319
10
236.71069649027316
20
31.436850128379294
42
0.41421356237308204
10
238.21069649027319
20
32.936850128379319
10
238.21069649027316
20
49.236850128379295
42
0.41421356237309681
10
236.71069649027316
20
50.736850128379302
10
230.18510488772023
20
50.736850128379331
42
-0.41421356237311935
10
228.68510488772017
20
52.236850128379295
10
228.68510488772017
20
68.286850128379172
42
0.41421356237310025
10
227.18510488772017
20
69.786850128379172
10
225.42260507845501
20
69.786850128379186
42
-0.41421356237310375
10
223.92260507845504
20
71.286850128379285
10
223.92260507845506
20
87.086850128379197
42
-0.41421356237308815
10
225.42260507845501
20
88.586850128379211
10
231.94760545992466
20
88.58685012837924
42
0.41421356237311935
10
233.44760545992472
20
90.086850128379211
10
233.447605459925
20
126.7868501283793
10
233.64760545992499
20
126.98685012837929
10
238.69229152975635
20
126.98685012837929
42
0.26794919243114285
10
240.4243423373251
20
127.98685012837922
10
242.79147844100271
20
132.08685012837921
42
-0.26794919243112664
10
244.52352924857152
20
133.0868501283791
10
245.9842987640302
20
133.0868501283791
10
245.98429876403026
20
130.18685012837918
42
0.99999999999999989
10
247.9842987640302
20
130.18685012837921
10
247.9842987640302
20
133.0868501283791
10
249.44506827948891
20
133.0868501283791
42
-0.26794919243112525
10
251.17711908705772
20
132.0868501283793
10
253.54425519073519
20
127.98685012837927
42
0.26794919243110715
10
255.27630599830403
20
126.98685012837929
10
262.16430545992512
20
126.98685012837929
10
262.164305459925
20
123.68685012837922
10
254.14760545992434
20
123.68685012837922
10
254.14760545992434
20
110.88685012837921
10
269.64760545992419
20
110.88685012837921
10
269.64760545992419
20
123.52685012837931
10
273.19760545992432
20
123.52685012837931
10
273.19760545992432
20
110.88685012837921
10
288.69760545992438
20
110.88685012837921
10
288.69760545992381
20
123.68685012837942
10
280.10430545992494
20
123.68685012837922
10
280.10430545992529
20
126.98685012837929
10
308.6052915297563
20
126.98685012837927
42
0.2679491924311187
10
310.33734233732514
20
127.98685012837922
10
312.70447844100261
20
132.08685012837924
42
-0.26794919243111914
10
314.43652924857162
20
133.0868501283791
10
315.89729876403032
20
133.08685012837921
10
315.89729876403027
20
130.18685012837918
42
0.99999999999999989
10
317.89729876403021
20
130.18685012837921
10
317.89729876403021
20
133.0868501283791
10
319.35806827948886
20
133.0868501283791
42
-0.2679491924311031
10
321.09011908705776
20
132.0868501283793
10
323.45725519073511
20
127.9868501283793
42
0.26794919243114584
10
325.18930599830406
20
126.98685012837929
10
378.5182915297562
20
126.98685012837929
42
0.26794919243114629
10
380.25034233732521
20
127.98685012837922
10
382.61747844100285
20
132.0868501283793
42
-0.26794919243109572
10
384.34952924857163
20
133.0868501283791
10
385.81029876403022
20
133.08685012837921
10
385.81029876403016
20
130.18685012837909
42
0.99999999999999989
10
387.81029876403016
20
130.18685012837921
10
387.81029876403016
20
133.0868501283791
10
389.27106827948899
20
133.0868501283791
42
-0.26794919243110393
10
391.00311908705777
20
132.0868501283793
10
393.37025519073518
20
127.98685012837929
42
0.26794919243113013
10
395.10230599830402
20
126.98685012837929
10
404.24760545992484
20
126.98685012837933
42
-0.41421356237300588
10
404.94760545992483
20
126.28685012837911
10
404.9476054599254
20
13.036850128379314
42
-0.41421356237315826
10
404.24760545992518
20
12.336850128379382
10
395.10230653668339
20
12.336850128379282
42
0.26794919243109133
10
393.37025572911455
20
11.336850128379382
10
391.00311962543708
20
7.2368501283793378
42
-0.26794919243115251
10
389.27106881786813
20
6.2368501283791877
10
387.81029930240959
20
6.2368501283791877
10
387.81029930240959
20
9.1368501283791232
42
0.99999999999999989
10
385.81029930240959
20
9.1368501283791943
10
385.81029930240959
20
6.2368501283791877
10
384.34952978695094
20
6.2368501283792011
42
-0.26794919243111903
10
382.61747897938216
20
7.2368501283793041
10
380.25034287570435
20
11.336850128379311
42
0.26794919243113691
10
378.51829206813562
20
12.336850128379291
10
325.18930653668338
20
12.336850128379291
42
0.26794919243108406
10
323.45725572911448
20
11.336850128379382
10
321.09011962543684
20
7.236850128379305
42
-0.26794919243109905
10
319.35806881786812
20
6.2368501283791877
10
317.89729930240935
20
6.2368501283792455
10
317.89729930240958
20
9.1368501283791765
42
0.99999999999999989
0
LWPOLYLINE
5
179
100
AcDbEntity
8
0
100
AcDbPolyline
90
120
70
1
43
0.0
10
95.985412918758485
20
130.18685012837921
10
95.985412918758485
20
133.08685012837921
10
97.446182434217135
20
133.0868501283791
42
-0.26794919243110238
10
99.178233241785961
20
132.08685012837921
10
101.54536934546343
20
127.98685012837922
42
0.26794919243110693
10
103.27742015303241
20
126.98685012837922
10
136.5408635647961
20
126.98685012837922
10
136.5408635647961
20
123.68685012837922
10
127.9476054599242
20
123.68685012837922
10
127.9476054599242
20
110.88685012837921
10
143.44760545992418
20
110.88685012837921
10
143.44760545992418
20
123.52685012837922
10
146.99760545992407
20
123.52685012837922
10
146.99760545992419
20
110.88685012837921
10
162.49760545992419
20
110.88685012837921
10
162.49760545992419
20
123.68685012837922
10
154.48086356479601
20
123.68685012837922
10
154.4808635647961
20
126.98685012837922
10
156.6064056844846
20
126.98685012837922
42
0.26794919243110654
10
158.33845649205341
20
127.9868501283791
10
160.70559259573102
20
132.08685012837921
42
-0.26794919243112664
10
162.43764340329983
20
133.0868501283791
10
163.89841291875851
20
133.0868501283791
10
163.89841291875851
20
130.18685012837921
42
0.99999999999999989
10
165.89841291875854
20
130.18685012837921
10
165.89841291875854
20
133.0868501283791
10
167.3591824342171
20
133.0868501283791
42
-0.26794919243110954
10
169.09123324178591
20
132.08685012837921
10
171.45836934546344
20
127.98685012837923
42
0.26794919243110454
10
173.19042015303242
20
126.98685012837922
10
182.99760545992453
20
126.98685012837922
10
183.19760545992452
20
126.78685012837923
10
183.19760545992452
20
90.336850128379211
42
-0.41421356237310897
10
181.69760545992443
20
88.836850128379211
10
175.17260507845469
20
88.836850128379226
42
0.41421356237308116
10
173.67260507845469
20
87.336850128379211
10
173.67260507845472
20
71.036850128379172
42
0.41421356237309681
10
175.17260507845469
20
69.536850128379172
10
176.93510488771983
20
69.536850128379172
42
-0.41421356237307771
10
178.4351048877198
20
68.036850128379172
10
178.43510488771983
20
51.986850128379302
42
0.41421356237309681
10
179.93510488771983
20
50.486850128379295
10
186.46069649027294
20
50.486850128379295
42
-0.41421356237308293
10
187.96069649027291
20
48.986850128379302
10
187.96069649027291
20
33.186850128379213
42
-0.41421356237308554
10
186.46069649027294
20
31.686850128379213
10
179.93541741349884
20
31.686850128379188
42
0.41421356237311324
10
178.43541741349881
20
30.186850128379213
10
178.43541741349881
20
12.536850128379291
10
178.23541741349882
20
12.336850128379291
10
173.19042069141159
20
12.33685012837919
42
0.26794919243112142
10
171.45836988384261
20
11.336850128379181
10
169.09123378016517
20
7.2368501283790643
42
-0.2679491924311162
10
167.35918297259641
20
6.2368501283791877
10
165.89841345713762
20
6.2368501283791877
10
165.89841345713756
20
9.1368501283791765
42
0.99999999999999989
10
163.89841345713768
20
9.1368501283791943
10
163.89841345713759
20
6.2368501283791877
10
162.437643941679
20
6.2368501283791788
42
-0.26794919243112442
10
160.70559313411022
20
7.2368501283793041
10
158.33845703043269
20
11.336850128379282
42
0.26794919243111692
10
156.6064062228638
20
12.336850128379291
10
103.27742069141159
20
12.336850128379297
42
0.26794919243112109
10
101.5453698838428
20
11.33685012837929
10
99.178233780165286
20
7.2368501283793121
42
-0.26794919243110799
10
97.446182972596432
20
6.2368501283791877
10
95.985413457137682
20
6.2229387645018042
10
95.98541345713771
20
9.1368501283791677
42
0.99999999999999989
10
93.985413457137724
20
9.1368501283791943
10
93.985413457137724
20
6.2368501283791877
10
92.524643941679145
20
6.2368501283791931
42
-0.26794919243112097
10
90.792593134110234
20
7.2368501283793041
10
88.425457030432696
20
11.336850128379384
42
0.26794919243111681
10
86.693406222863828
20
12.336850128379291
10
33.364420691411624
20
12.336850128379295
42
0.26794919243111653
10
31.632369883842735
20
11.33685012837929
10
29.265233780165289
20
7.2368501283793041
42
-0.26794919243111487
10
27.533182972596425
20
6.2368501283791877
10
26.07241291875852
20
6.2368501283791877
10
26.072412918758516
20
9.1368501283791925
42
0.99999999999999989
10
24.072412918758523
20
9.1368501283791943
10
24.072412918758523
20
6.2368501283791886
10
22.61164394167912
20
6.2368501283791904
42
-0.26794919243111665
10
20.87959313411023
20
7.2368501283793041
10
18.512457030432714
20
11.336850128379382
42
0.26794919243111193
10
16.780406222863839
20
12.336850128379291
10
7.6351062228638611
20
12.336850128379183
42
-0.41421356237308715
10
6.9351062228638538
20
13.036850128379314
10
6.9351062228638503
20
110.08689108903161
42
-0.41421356237309698
10
7.9351062228638538
20
111.08689108903161
10
14.405106213327093
20
111.08689108903161
42
0.41421356237307488
10
15.405106213327091
20
112.0868910890316
10
15.405106213327088
20
125.98685012837922
42
-0.41421356237309437
10
16.40510621332708
20
126.98685012837922
10
16.780405684484599
20
126.98685012837922
42
0.2679491924311212
10
18.512456492053442
20
127.9868501283791
10
20.879592595730969
20
132.08685012837921
42
-0.26794919243111287
10
22.611643403299869
20
133.0868501283791
10
24.072412918758459
20
133.0868501283791
10
24.072412918758459
20
130.18685012837921
42
0.99999999999999989
10
26.072412918758463
20
130.18685012837921
10
26.072412918758463
20
133.0868501283791
10
27.533182434217114
20
133.0868501283791
42
-0.26794919243110477
10
29.26523324178595
20
132.08685012837921
10
31.63236934546353
20
127.98685012837922
42
0.26794919243112131
10
33.36442015303237
20
126.98685012837922
10
34.833406241110858
20
126.98685012837925
42
-0.41421356162035106
10
35.833406241110872
20
125.98685013094922
10
35.83340624727888
20
123.5868501552855
42
0.4142135623730846
10
36.833406249848892
20
122.58685015785531
10
44.833406249848863
20
122.5868501784155
42
0.41421356237310025
10
45.833406247278859
20
123.58685018098552
10
45.833406241110843
20
125.98685012580908
42
-0.4142135631258273
10
46.83340624111085
20
126.98685012837922
10
86.693405684484617
20
126.98685012837922
42
0.26794919243111037
10
88.425456492053399
20
127.9868501283791
10
90.79259259573098
20
132.08685012837924
42
-0.26794919243111831
10
92.524643403299791
20
133.0868501283791
10
93.985412918758499
20
133.0868501283791
10
93.985412918758499
20
130.18685012837921
42
0.99999999999999989
0
LWPOLYLINE
5
180
100
AcDbEntity
8
0
100
AcDbPolyline
90
4
70
1
43
0.0
10
24.385106222863779
20
91.836850128378956
10
8.8851062228637829
20
91.836850128378956
10
8.8851062228637829
20
104.63685012837892
10
24.385106222863779
20
104.63685012837892
0
LWPOLYLINE
5
181
100
AcDbEntity
8
0
100
AcDbPolyline
90
4
70
1
43
0.0
10
43.43510622286378
20
91.836850128378956
10
27.935106222863784
20
91.836850128378956
10
27.935106222863784
20
104.63685012837892
10
43.43510622286378
20
104.63685012837892
0
LWPOLYLINE
5
182
100
AcDbEntity
8
0
100
AcDbPolyline
90
4
70
1
43
0.0
10
24.385106222863779
20
72.786850128378958
10
8.8851062228637794
20
72.786850128378958
10
8.8851062228637812
20
85.58685012837897
10
24.385106222863779
20
85.58685012837897
0
LWPOLYLINE
5
183
100
AcDbEntity
8
0
100
AcDbPolyline
90
4
70
1
43
0.0
10
43.43510622286378
20
72.786850128378958
10
27.935106222863784
20
72.786850128378958
10
27.935106222863784
20
85.58685012837897
10
43.43510622286378
20
85.58685012837897
0
LWPOLYLINE
5
184
100
AcDbEntity
8
0
100
AcDbPolyline
90
4
70
1
43
0.0
10
24.385106222863779
20
53.736850128378961
10
8.8851062228637758
20
53.736850128378961
10
8.8851062228637758
20
66.536850128378973
10
24.385106222863779
20
66.536850128378973
0
LWPOLYLINE
5
185
100
AcDbEntity
8
0
100
AcDbPolyline
90
4
70
1
43
0.0
10
43.435106222863773
20
53.736850128378961
10
27.935106222863784
20
53.736850128378961
10
27.935106222863784
20
66.536850128378973
10
43.435106222863773
20
66.536850128378973
0
LWPOLYLINE
5
186
100
AcDbEntity
8
0
100
AcDbPolyline
90
4
70
1
43
0.0
10
24.385106222863769
20
34.686850128378971
10
8.8851062228637723
20
34.686850128378971
10
8.8851062228637723
20
47.486850128378975
10
24.385106222863769
20
47.486850128378975
0
LWPOLYLINE
5
187
100
AcDbEntity
8
0
100
AcDbPolyline
90
4
70
1
43
0.0
10
43.435106222863766
20
34.686850128378971
10
27.935106222863769
20
34.686850128378971
10
27.935106222863769
20
47.486850128378975
10
43.435106222863766
20
47.486850128378975
0
LWPOLYLINE
5
188
100
AcDbEntity
8
0
100
AcDbPolyline
90
4
70
1
43
0.0
10
364.89760545992431
20
110.88685012837921
10
349.39760545992436
20
110.88685012837921
10
349.39760545992436
20
123.68685012837922
10
364.89760545992431
20
123.68685012837922
0
LWPOLYLINE
5
189
100
AcDbEntity
8
0
100
AcDbPolyline
90
4
70
1
43
0.0
10
383.94760545992432
20
110.88685012837921
10
368.44760545992438
20
110.88685012837921
10
368.44760545992438
20
123.68685012837922
10
383.94760545992432
20
123.68685012837922
0
LWPOLYLINE
5
190
100
AcDbEntity
8
0
100
AcDbPolyline
90
4
70
1
43
0.0
10
402.99760545992422
20
15.63627012837895
10
402.99760545992422
20
28.43685012837895
10
387.39660545992422
20
28.43685012837895
10
387.39660545992422
20
15.63627012837895
0
LWPOLYLINE
5
191
100
AcDbEntity
8
0
100
AcDbPolyline
90
4
70
1
43
0.0
10
383.9476054599242
20
28.43685012837895
10
368.34660545992421
20
28.43685012837895
10
368.34660545992421
20
15.63627012837895
10
383.9476054599242
20
15.63627012837895
0
LWPOLYLINE
5
192
100
AcDbEntity
8
0
100
AcDbPolyline
90
4
70
1
43
0.0
10
349.29660545992414
20
28.43685012837895
10
349.29660545992414
20
15.63627012837895
10
364.89760545992419
20
15.63627012837895
10
364.89760545992419
20
28.43685012837895
0
LWPOLYLINE
5
193
100
AcDbEntity
8
0
100
AcDbPolyline
90
4
70
1
43
0.0
10
124.98061741349885
20
12.951855128379266
10
124.98061741349885
20
18.163590128379269
10
127.64721741349882
20
18.163590128379269
10
127.64721741349882
20
12.955986128379266
0
LWPOLYLINE
5
194
100
AcDbEntity
8
0
100
AcDbPolyline
90
4
70
1
43
0.0
10
117.25411741349886
20
28.436850128379266
10
101.65321741349884
20
28.436850128379266
10
101.65321741349884
20
15.636270128379266
10
117.25411741349886
20
15.636270128379266
0
LWPOLYLINE
5
195
100
AcDbEntity
8
0
100
AcDbPolyline
90
4
70
1
43
0.0
10
148.21031741349881
20
28.436850128379266
10
132.60941741349885
20
28.436850128379266
10
132.60941741349885
20
15.636270128379266
10
148.21031741349881
20
15.636270128379266
0
LWPOLYLINE
5
196
100
AcDbEntity
8
0
100
AcDbPolyline
90
4
70
1
43
0.0
10
155.83901741349885
20
18.163590128379269
10
153.17201741349885
20
18.163590128379269
10
153.17201741349885
20
12.955986128379266
10
155.83901741349885
20
12.955986128379266
0
LWPOLYLINE
5
197
100
AcDbEntity
8
0
100
AcDbPolyline
90
4
70
1
43
0.0
10
327.86580545992416
20
28.43685012837895
10
327.86580545992416
20
15.63627012837895
10
343.46660545992415
20
15.63627012837895
10
343.46660545992415
20
28.43685012837895
0
LWPOLYLINE
5
198
100
AcDbEntity
8
0
100
AcDbPolyline
90
4
70
1
43
0.0
10
54.028297413498841
20
28.436850128379266
10
54.028297413498841
20
15.636270128379266
10
69.629017413498843
20
15.636270128379266
10
69.629017413498843
20
28.436850128379266
0
LWPOLYLINE
5
199
100
AcDbEntity
8
0
100
AcDbPolyline
90
4
70
1
43
0.0
10
176.78501741349885
20
28.436850128379266
10
161.18401741349882
20
28.436850128379266
10
161.18401741349882
20
15.636270128379266
10
176.78501741349885
20
15.636270128379266
0
LWPOLYLINE
5
200
100
AcDbEntity
8
0
100
AcDbPolyline
90
4
70
1
43
0.0
10
93.440217413498829
20
28.436850128379266
10
77.840817413498826
20
28.436850128379266
10
77.840817413498826
20
15.636270128379266
10
93.440217413498829
20
15.636270128379266
0
LWPOLYLINE
5
201
100
AcDbEntity
8
0
100
AcDbPolyline
90
4
70
1
43
0.0
10
267.46630545992417
20
12.955986128378951
10
270.13300545992416
20
12.955986128378951
10
270.13300545992416
20
18.163590128378949
10
267.46630545992417
20
18.163590128378949
0
LWPOLYLINE
5
202
100
AcDbEntity
8
0
100
AcDbPolyline
90
4
70
1
43
0.0
10
246.90340545992416
20
15.63627012837895
10
262.50280545992416
20
15.63627012837895
10
262.50280545992416
20
28.43685012837895
10
246.90340545992416
20
28.43685012837895
0
LWPOLYLINE
5
203
100
AcDbEntity
8
0
100
AcDbPolyline
90
4
70
1
43
0.0
10
306.43590545992419
20
15.63627012837895
10
322.03400545992417
20
15.63627012837895
10
322.03400545992417
20
28.43685012837895
10
306.43590545992419
20
28.43685012837895
0
LWPOLYLINE
5
204
100
AcDbEntity
8
0
100
AcDbPolyline
90
4
70
1
43
0.0
10
285.00330545992415
20
28.43685012837895
10
285.00330545992415
20
15.63627012837895
10
300.60280545992418
20
15.63627012837895
10
300.60280545992418
20
28.43685012837895
0
LWPOLYLINE
5
205
100
AcDbEntity
8
0
100
AcDbPolyline
90
4
70
1
43
0.0
10
241.93970545992417
20
12.955986128378639
10
239.27460545992417
20
12.951855128378639
10
239.27460545992417
20
18.163590128378637
10
241.93970545992417
20
18.163590128378637
0
ENDSEC
0
SECTION
2
OBJECTS
0
DICTIONARY
5
C
100
AcDbDictionary
3
ACAD_GROUP
350
D
3
ACAD_MLINESTYLE
350
17
0
DICTIONARY
5
D
100
AcDbDictionary
0
DICTIONARY
5
1A
330
C
100
AcDbDictionary
0
DICTIONARY
5
17
100
AcDbDictionary
0
ENDSEC
0
EOF
