  0
SECTION
  2
HEADER
  9
$ACADVER
  1
AC1009
  9
$EXTMIN
 10
0.0
 20
0.0
 30
0.0
  9
$EXTMAX
 10
1000.0
 20
1000.0
 30
0.0
  9
$FILLMODE
 70
 0
  9
$SPLFRAME
 70
 1
  0
ENDSEC
  0
SECTION
  2
TABLES
  0
TABLE
  2
LAYER
 70
1
  0
LAYER
  2
0
 70
     0
 62
     7
  6
CONTINUOUS
  0
ENDTAB
  0
ENDSEC
  0
SECTION
  2
ENTITIES
  0
LINE
  8
0
 62
     0
 10
303.844
 20
115.343
 30
0.0
 11
304.001
 21
115.339
 31
0.0
  0
LINE
  8
0
 62
     0
 10
304.001
 20
115.339
 30
0.0
 11
304.157
 21
115.318
 31
0.0
  0
LINE
  8
0
 62
     0
 10
304.157
 20
115.318
 30
0.0
 11
304.311
 21
115.288
 31
0.0
  0
LINE
  8
0
 62
     0
 10
304.311
 20
115.288
 30
0.0
 11
304.462
 21
115.245
 31
0.0
  0
LINE
  8
0
 62
     0
 10
304.462
 20
115.245
 30
0.0
 11
304.608
 21
115.193
 31
0.0
  0
LINE
  8
0
 62
     0
 10
304.608
 20
115.193
 30
0.0
 11
304.752
 21
115.125
 31
0.0
  0
LINE
  8
0
 62
     0
 10
304.752
 20
115.125
 30
0.0
 11
304.888
 21
115.048
 31
0.0
  0
LINE
  8
0
 62
     0
 10
304.888
 20
115.048
 30
0.0
 11
305.019
 21
114.961
 31
0.0
  0
LINE
  8
0
 62
     0
 10
305.019
 20
114.961
 30
0.0
 11
305.143
 21
114.864
 31
0.0
  0
LINE
  8
0
 62
     0
 10
305.143
 20
114.864
 30
0.0
 11
305.258
 21
114.758
 31
0.0
  0
LINE
  8
0
 62
     0
 10
305.258
 20
114.758
 30
0.0
 11
305.365
 21
114.642
 31
0.0
  0
LINE
  8
0
 62
     0
 10
305.365
 20
114.642
 30
0.0
 11
305.461
 21
114.519
 31
0.0
  0
LINE
  8
0
 62
     0
 10
305.461
 20
114.519
 30
0.0
 11
305.548
 21
114.388
 31
0.0
  0
LINE
  8
0
 62
     0
 10
305.548
 20
114.388
 30
0.0
 11
305.626
 21
114.253
 31
0.0
  0
LINE
  8
0
 62
     0
 10
305.626
 20
114.253
 30
0.0
 11
305.691
 21
114.108
 31
0.0
  0
LINE
  8
0
 62
     0
 10
305.691
 20
114.108
 30
0.0
 11
305.745
 21
113.961
 31
0.0
  0
LINE
  8
0
 62
     0
 10
305.745
 20
113.961
 30
0.0
 11
305.79
 21
113.812
 31
0.0
  0
LINE
  8
0
 62
     0
 10
305.79
 20
113.812
 30
0.0
 11
305.818
 21
113.657
 31
0.0
  0
LINE
  8
0
 62
     0
 10
305.818
 20
113.657
 30
0.0
 11
305.838
 21
113.502
 31
0.0
  0
LINE
  8
0
 62
     0
 10
305.838
 20
113.502
 30
0.0
 11
305.843
 21
113.344
 31
0.0
  0
LINE
  8
0
 62
     0
 10
305.843
 20
113.344
 30
0.0
 11
305.843
 21
2.09324
 31
0.0
  0
LINE
  8
0
 62
     0
 10
305.843
 20
2.09324
 30
0.0
 11
305.838
 21
1.93752
 31
0.0
  0
LINE
  8
0
 62
     0
 10
305.838
 20
1.93752
 30
0.0
 11
305.818
 21
1.78043
 31
0.0
  0
LINE
  8
0
 62
     0
 10
305.818
 20
1.78043
 30
0.0
 11
305.79
 21
1.62746
 31
0.0
  0
LINE
  8
0
 62
     0
 10
305.79
 20
1.62746
 30
0.0
 11
305.745
 21
1.4745
 31
0.0
  0
LINE
  8
0
 62
     0
 10
305.745
 20
1.4745
 30
0.0
 11
305.691
 21
1.32843
 31
0.0
  0
LINE
  8
0
 62
     0
 10
305.691
 20
1.32843
 30
0.0
 11
305.626
 21
1.18649
 31
0.0
  0
LINE
  8
0
 62
     0
 10
305.626
 20
1.18649
 30
0.0
 11
305.548
 21
1.04869
 31
0.0
  0
LINE
  8
0
 62
     0
 10
305.548
 20
1.04869
 30
0.0
 11
305.461
 21
0.917773
 31
0.0
  0
LINE
  8
0
 62
     0
 10
305.461
 20
0.917773
 30
0.0
 11
305.365
 21
0.79375
 31
0.0
  0
LINE
  8
0
 62
     0
 10
305.365
 20
0.79375
 30
0.0
 11
305.258
 21
0.679372
 31
0.0
  0
LINE
  8
0
 62
     0
 10
305.258
 20
0.679372
 30
0.0
 11
305.143
 21
0.571885
 31
0.0
  0
LINE
  8
0
 62
     0
 10
305.143
 20
0.571885
 30
0.0
 11
305.019
 21
0.475424
 31
0.0
  0
LINE
  8
0
 62
     0
 10
305.019
 20
0.475424
 30
0.0
 11
304.888
 21
0.388606
 31
0.0
  0
LINE
  8
0
 62
     0
 10
304.888
 20
0.388606
 30
0.0
 11
304.752
 21
0.311437
 31
0.0
  0
LINE
  8
0
 62
     0
 10
304.752
 20
0.311437
 30
0.0
 11
304.608
 21
0.246669
 31
0.0
  0
LINE
  8
0
 62
     0
 10
304.608
 20
0.246669
 30
0.0
 11
304.462
 21
0.191547
 31
0.0
  0
LINE
  8
0
 62
     0
 10
304.462
 20
0.191547
 30
0.0
 11
304.311
 21
0.14745
 31
0.0
  0
LINE
  8
0
 62
     0
 10
304.311
 20
0.14745
 30
0.0
 11
304.157
 21
0.118511
 31
0.0
  0
LINE
  8
0
 62
     0
 10
304.157
 20
0.118511
 30
0.0
 11
304.001
 21
0.100597
 31
0.0
  0
LINE
  8
0
 62
     0
 10
304.001
 20
0.100597
 30
0.0
 11
303.844
 21
0.0937066
 31
0.0
  0
LINE
  8
0
 62
     0
 10
303.844
 20
0.0937066
 30
0.0
 11
2.09324
 21
0.0937066
 31
0.0
  0
LINE
  8
0
 62
     0
 10
2.09324
 20
0.0937066
 30
0.0
 11
1.93614
 21
0.100597
 31
0.0
  0
LINE
  8
0
 62
     0
 10
1.93614
 20
0.100597
 30
0.0
 11
1.78043
 21
0.118511
 31
0.0
  0
LINE
  8
0
 62
     0
 10
1.78043
 20
0.118511
 30
0.0
 11
1.62609
 21
0.14745
 31
0.0
  0
LINE
  8
0
 62
     0
 10
1.62609
 20
0.14745
 30
0.0
 11
1.47588
 21
0.191547
 31
0.0
  0
LINE
  8
0
 62
     0
 10
1.47588
 20
0.191547
 30
0.0
 11
1.32843
 21
0.246669
 31
0.0
  0
LINE
  8
0
 62
     0
 10
1.32843
 20
0.246669
 30
0.0
 11
1.18511
 21
0.311437
 31
0.0
  0
LINE
  8
0
 62
     0
 10
1.18511
 20
0.311437
 30
0.0
 11
1.04869
 21
0.388606
 31
0.0
  0
LINE
  8
0
 62
     0
 10
1.04869
 20
0.388606
 30
0.0
 11
0.917773
 21
0.475424
 31
0.0
  0
LINE
  8
0
 62
     0
 10
0.917773
 20
0.475424
 30
0.0
 11
0.795129
 21
0.571885
 31
0.0
  0
LINE
  8
0
 62
     0
 10
0.795129
 20
0.571885
 30
0.0
 11
0.679372
 21
0.679372
 31
0.0
  0
LINE
  8
0
 62
     0
 10
0.679372
 20
0.679372
 30
0.0
 11
0.573264
 21
0.79375
 31
0.0
  0
LINE
  8
0
 62
     0
 10
0.573264
 20
0.79375
 30
0.0
 11
0.475424
 21
0.917773
 31
0.0
  0
LINE
  8
0
 62
     0
 10
0.475424
 20
0.917773
 30
0.0
 11
0.388606
 21
1.04869
 31
0.0
  0
LINE
  8
0
 62
     0
 10
0.388606
 20
1.04869
 30
0.0
 11
0.311437
 21
1.18649
 31
0.0
  0
LINE
  8
0
 62
     0
 10
0.311437
 20
1.18649
 30
0.0
 11
0.245291
 21
1.32843
 31
0.0
  0
LINE
  8
0
 62
     0
 10
0.245291
 20
1.32843
 30
0.0
 11
0.191547
 21
1.4745
 31
0.0
  0
LINE
  8
0
 62
     0
 10
0.191547
 20
1.4745
 30
0.0
 11
0.148828
 21
1.62746
 31
0.0
  0
LINE
  8
0
 62
     0
 10
0.148828
 20
1.62746
 30
0.0
 11
0.118511
 21
1.78043
 31
0.0
  0
LINE
  8
0
 62
     0
 10
0.118511
 20
1.78043
 30
0.0
 11
0.0992188
 21
1.93752
 31
0.0
  0
LINE
  8
0
 62
     0
 10
0.0992188
 20
1.93752
 30
0.0
 11
0.0937066
 21
2.09324
 31
0.0
  0
LINE
  8
0
 62
     0
 10
0.0937066
 20
2.09324
 30
0.0
 11
0.0937066
 21
113.344
 31
0.0
  0
LINE
  8
0
 62
     0
 10
0.0937066
 20
113.344
 30
0.0
 11
0.0992188
 21
113.502
 31
0.0
  0
LINE
  8
0
 62
     0
 10
0.0992188
 20
113.502
 30
0.0
 11
0.118511
 21
113.657
 31
0.0
  0
LINE
  8
0
 62
     0
 10
0.118511
 20
113.657
 30
0.0
 11
0.148828
 21
113.812
 31
0.0
  0
LINE
  8
0
 62
     0
 10
0.148828
 20
113.812
 30
0.0
 11
0.191547
 21
113.961
 31
0.0
  0
LINE
  8
0
 62
     0
 10
0.191547
 20
113.961
 30
0.0
 11
0.245291
 21
114.108
 31
0.0
  0
LINE
  8
0
 62
     0
 10
0.245291
 20
114.108
 30
0.0
 11
0.311437
 21
114.253
 31
0.0
  0
LINE
  8
0
 62
     0
 10
0.311437
 20
114.253
 30
0.0
 11
0.388606
 21
114.388
 31
0.0
  0
LINE
  8
0
 62
     0
 10
0.388606
 20
114.388
 30
0.0
 11
0.475424
 21
114.519
 31
0.0
  0
LINE
  8
0
 62
     0
 10
0.475424
 20
114.519
 30
0.0
 11
0.573264
 21
114.642
 31
0.0
  0
LINE
  8
0
 62
     0
 10
0.573264
 20
114.642
 30
0.0
 11
0.679372
 21
114.758
 31
0.0
  0
LINE
  8
0
 62
     0
 10
0.679372
 20
114.758
 30
0.0
 11
0.795129
 21
114.864
 31
0.0
  0
LINE
  8
0
 62
     0
 10
0.795129
 20
114.864
 30
0.0
 11
0.917773
 21
114.961
 31
0.0
  0
LINE
  8
0
 62
     0
 10
0.917773
 20
114.961
 30
0.0
 11
1.04869
 21
115.048
 31
0.0
  0
LINE
  8
0
 62
     0
 10
1.04869
 20
115.048
 30
0.0
 11
1.18511
 21
115.125
 31
0.0
  0
LINE
  8
0
 62
     0
 10
1.18511
 20
115.125
 30
0.0
 11
1.32843
 21
115.193
 31
0.0
  0
LINE
  8
0
 62
     0
 10
1.32843
 20
115.193
 30
0.0
 11
1.47588
 21
115.245
 31
0.0
  0
LINE
  8
0
 62
     0
 10
1.47588
 20
115.245
 30
0.0
 11
1.62609
 21
115.288
 31
0.0
  0
LINE
  8
0
 62
     0
 10
1.62609
 20
115.288
 30
0.0
 11
1.78043
 21
115.318
 31
0.0
  0
LINE
  8
0
 62
     0
 10
1.78043
 20
115.318
 30
0.0
 11
1.93614
 21
115.339
 31
0.0
  0
LINE
  8
0
 62
     0
 10
1.93614
 20
115.339
 30
0.0
 11
2.09324
 21
115.343
 31
0.0
  0
LINE
  8
0
 62
     0
 10
2.09324
 20
115.343
 30
0.0
 11
303.844
 21
115.343
 31
0.0
  0
LINE
  8
0
 62
     0
 10
10.0941
 20
105.344
 30
0.0
 11
295.844
 21
105.344
 31
0.0
  0
LINE
  8
0
 62
     0
 10
295.844
 20
105.344
 30
0.0
 11
295.844
 21
10.0941
 31
0.0
  0
LINE
  8
0
 62
     0
 10
295.844
 20
10.0941
 30
0.0
 11
10.0941
 21
10.0941
 31
0.0
  0
LINE
  8
0
 62
     0
 10
10.0941
 20
10.0941
 30
0.0
 11
10.0941
 21
105.344
 31
0.0
  0
LINE
  8
0
 62
     0
 10
152.969
 20
111.843
 30
0.0
 11
153.432
 21
111.77
 31
0.0
  0
LINE
  8
0
 62
     0
 10
153.432
 20
111.77
 30
0.0
 11
153.851
 21
111.558
 31
0.0
  0
LINE
  8
0
 62
     0
 10
153.851
 20
111.558
 30
0.0
 11
154.183
 21
111.226
 31
0.0
  0
LINE
  8
0
 62
     0
 10
154.183
 20
111.226
 30
0.0
 11
154.395
 21
110.807
 31
0.0
  0
LINE
  8
0
 62
     0
 10
154.395
 20
110.807
 30
0.0
 11
154.468
 21
110.344
 31
0.0
  0
LINE
  8
0
 62
     0
 10
154.468
 20
110.344
 30
0.0
 11
154.395
 21
109.879
 31
0.0
  0
LINE
  8
0
 62
     0
 10
154.395
 20
109.879
 30
0.0
 11
154.183
 21
109.462
 31
0.0
  0
LINE
  8
0
 62
     0
 10
154.183
 20
109.462
 30
0.0
 11
153.851
 21
109.13
 31
0.0
  0
LINE
  8
0
 62
     0
 10
153.851
 20
109.13
 30
0.0
 11
153.432
 21
108.917
 31
0.0
  0
LINE
  8
0
 62
     0
 10
153.432
 20
108.917
 30
0.0
 11
152.969
 21
108.844
 31
0.0
  0
LINE
  8
0
 62
     0
 10
152.969
 20
108.844
 30
0.0
 11
152.505
 21
108.917
 31
0.0
  0
LINE
  8
0
 62
     0
 10
152.505
 20
108.917
 30
0.0
 11
152.087
 21
109.13
 31
0.0
  0
LINE
  8
0
 62
     0
 10
152.087
 20
109.13
 30
0.0
 11
151.755
 21
109.462
 31
0.0
  0
LINE
  8
0
 62
     0
 10
151.755
 20
109.462
 30
0.0
 11
151.541
 21
109.879
 31
0.0
  0
LINE
  8
0
 62
     0
 10
151.541
 20
109.879
 30
0.0
 11
151.468
 21
110.344
 31
0.0
  0
LINE
  8
0
 62
     0
 10
151.468
 20
110.344
 30
0.0
 11
151.541
 21
110.807
 31
0.0
  0
LINE
  8
0
 62
     0
 10
151.541
 20
110.807
 30
0.0
 11
151.755
 21
111.226
 31
0.0
  0
LINE
  8
0
 62
     0
 10
151.755
 20
111.226
 30
0.0
 11
152.087
 21
111.558
 31
0.0
  0
LINE
  8
0
 62
     0
 10
152.087
 20
111.558
 30
0.0
 11
152.505
 21
111.77
 31
0.0
  0
LINE
  8
0
 62
     0
 10
152.505
 20
111.77
 30
0.0
 11
152.969
 21
111.843
 31
0.0
  0
LINE
  8
0
 62
     0
 10
300.844
 20
111.843
 30
0.0
 11
301.308
 21
111.77
 31
0.0
  0
LINE
  8
0
 62
     0
 10
301.308
 20
111.77
 30
0.0
 11
301.726
 21
111.558
 31
0.0
  0
LINE
  8
0
 62
     0
 10
301.726
 20
111.558
 30
0.0
 11
302.058
 21
111.226
 31
0.0
  0
LINE
  8
0
 62
     0
 10
302.058
 20
111.226
 30
0.0
 11
302.271
 21
110.807
 31
0.0
  0
LINE
  8
0
 62
     0
 10
302.271
 20
110.807
 30
0.0
 11
302.344
 21
110.344
 31
0.0
  0
LINE
  8
0
 62
     0
 10
302.344
 20
110.344
 30
0.0
 11
302.271
 21
109.879
 31
0.0
  0
LINE
  8
0
 62
     0
 10
302.271
 20
109.879
 30
0.0
 11
302.058
 21
109.462
 31
0.0
  0
LINE
  8
0
 62
     0
 10
302.058
 20
109.462
 30
0.0
 11
301.726
 21
109.13
 31
0.0
  0
LINE
  8
0
 62
     0
 10
301.726
 20
109.13
 30
0.0
 11
301.308
 21
108.917
 31
0.0
  0
LINE
  8
0
 62
     0
 10
301.308
 20
108.917
 30
0.0
 11
300.844
 21
108.844
 31
0.0
  0
LINE
  8
0
 62
     0
 10
300.844
 20
108.844
 30
0.0
 11
300.379
 21
108.917
 31
0.0
  0
LINE
  8
0
 62
     0
 10
300.379
 20
108.917
 30
0.0
 11
299.962
 21
109.13
 31
0.0
  0
LINE
  8
0
 62
     0
 10
299.962
 20
109.13
 30
0.0
 11
299.63
 21
109.462
 31
0.0
  0
LINE
  8
0
 62
     0
 10
299.63
 20
109.462
 30
0.0
 11
299.417
 21
109.879
 31
0.0
  0
LINE
  8
0
 62
     0
 10
299.417
 20
109.879
 30
0.0
 11
299.344
 21
110.344
 31
0.0
  0
LINE
  8
0
 62
     0
 10
299.344
 20
110.344
 30
0.0
 11
299.417
 21
110.807
 31
0.0
  0
LINE
  8
0
 62
     0
 10
299.417
 20
110.807
 30
0.0
 11
299.63
 21
111.226
 31
0.0
  0
LINE
  8
0
 62
     0
 10
299.63
 20
111.226
 30
0.0
 11
299.962
 21
111.558
 31
0.0
  0
LINE
  8
0
 62
     0
 10
299.962
 20
111.558
 30
0.0
 11
300.379
 21
111.77
 31
0.0
  0
LINE
  8
0
 62
     0
 10
300.379
 20
111.77
 30
0.0
 11
300.844
 21
111.843
 31
0.0
  0
LINE
  8
0
 62
     0
 10
300.844
 20
6.59253
 30
0.0
 11
301.308
 21
6.51951
 31
0.0
  0
LINE
  8
0
 62
     0
 10
301.308
 20
6.51951
 30
0.0
 11
301.726
 21
6.30728
 31
0.0
  0
LINE
  8
0
 62
     0
 10
301.726
 20
6.30728
 30
0.0
 11
302.058
 21
5.97517
 31
0.0
  0
LINE
  8
0
 62
     0
 10
302.058
 20
5.97517
 30
0.0
 11
302.271
 21
5.55763
 31
0.0
  0
LINE
  8
0
 62
     0
 10
302.271
 20
5.55763
 30
0.0
 11
302.344
 21
5.09323
 31
0.0
  0
LINE
  8
0
 62
     0
 10
302.344
 20
5.09323
 30
0.0
 11
302.271
 21
4.62883
 31
0.0
  0
LINE
  8
0
 62
     0
 10
302.271
 20
4.62883
 30
0.0
 11
302.058
 21
4.21128
 31
0.0
  0
LINE
  8
0
 62
     0
 10
302.058
 20
4.21128
 30
0.0
 11
301.726
 21
3.87918
 31
0.0
  0
LINE
  8
0
 62
     0
 10
301.726
 20
3.87918
 30
0.0
 11
301.308
 21
3.66557
 31
0.0
  0
LINE
  8
0
 62
     0
 10
301.308
 20
3.66557
 30
0.0
 11
300.844
 21
3.59255
 31
0.0
  0
LINE
  8
0
 62
     0
 10
300.844
 20
3.59255
 30
0.0
 11
300.379
 21
3.66557
 31
0.0
  0
LINE
  8
0
 62
     0
 10
300.379
 20
3.66557
 30
0.0
 11
299.962
 21
3.87918
 31
0.0
  0
LINE
  8
0
 62
     0
 10
299.962
 20
3.87918
 30
0.0
 11
299.63
 21
4.21128
 31
0.0
  0
LINE
  8
0
 62
     0
 10
299.63
 20
4.21128
 30
0.0
 11
299.417
 21
4.62883
 31
0.0
  0
LINE
  8
0
 62
     0
 10
299.417
 20
4.62883
 30
0.0
 11
299.344
 21
5.09323
 31
0.0
  0
LINE
  8
0
 62
     0
 10
299.344
 20
5.09323
 30
0.0
 11
299.417
 21
5.55763
 31
0.0
  0
LINE
  8
0
 62
     0
 10
299.417
 20
5.55763
 30
0.0
 11
299.63
 21
5.97517
 31
0.0
  0
LINE
  8
0
 62
     0
 10
299.63
 20
5.97517
 30
0.0
 11
299.962
 21
6.30728
 31
0.0
  0
LINE
  8
0
 62
     0
 10
299.962
 20
6.30728
 30
0.0
 11
300.379
 21
6.51951
 31
0.0
  0
LINE
  8
0
 62
     0
 10
300.379
 20
6.51951
 30
0.0
 11
300.844
 21
6.59253
 31
0.0
  0
LINE
  8
0
 62
     0
 10
152.969
 20
6.59253
 30
0.0
 11
153.432
 21
6.51951
 31
0.0
  0
LINE
  8
0
 62
     0
 10
153.432
 20
6.51951
 30
0.0
 11
153.851
 21
6.30728
 31
0.0
  0
LINE
  8
0
 62
     0
 10
153.851
 20
6.30728
 30
0.0
 11
154.183
 21
5.97517
 31
0.0
  0
LINE
  8
0
 62
     0
 10
154.183
 20
5.97517
 30
0.0
 11
154.395
 21
5.55763
 31
0.0
  0
LINE
  8
0
 62
     0
 10
154.395
 20
5.55763
 30
0.0
 11
154.468
 21
5.09323
 31
0.0
  0
LINE
  8
0
 62
     0
 10
154.468
 20
5.09323
 30
0.0
 11
154.395
 21
4.62883
 31
0.0
  0
LINE
  8
0
 62
     0
 10
154.395
 20
4.62883
 30
0.0
 11
154.183
 21
4.21128
 31
0.0
  0
LINE
  8
0
 62
     0
 10
154.183
 20
4.21128
 30
0.0
 11
153.851
 21
3.87918
 31
0.0
  0
LINE
  8
0
 62
     0
 10
153.851
 20
3.87918
 30
0.0
 11
153.432
 21
3.66557
 31
0.0
  0
LINE
  8
0
 62
     0
 10
153.432
 20
3.66557
 30
0.0
 11
152.969
 21
3.59255
 31
0.0
  0
LINE
  8
0
 62
     0
 10
152.969
 20
3.59255
 30
0.0
 11
152.505
 21
3.66557
 31
0.0
  0
LINE
  8
0
 62
     0
 10
152.505
 20
3.66557
 30
0.0
 11
152.087
 21
3.87918
 31
0.0
  0
LINE
  8
0
 62
     0
 10
152.087
 20
3.87918
 30
0.0
 11
151.755
 21
4.21128
 31
0.0
  0
LINE
  8
0
 62
     0
 10
151.755
 20
4.21128
 30
0.0
 11
151.541
 21
4.62883
 31
0.0
  0
LINE
  8
0
 62
     0
 10
151.541
 20
4.62883
 30
0.0
 11
151.468
 21
5.09323
 31
0.0
  0
LINE
  8
0
 62
     0
 10
151.468
 20
5.09323
 30
0.0
 11
151.541
 21
5.55763
 31
0.0
  0
LINE
  8
0
 62
     0
 10
151.541
 20
5.55763
 30
0.0
 11
151.755
 21
5.97517
 31
0.0
  0
LINE
  8
0
 62
     0
 10
151.755
 20
5.97517
 30
0.0
 11
152.087
 21
6.30728
 31
0.0
  0
LINE
  8
0
 62
     0
 10
152.087
 20
6.30728
 30
0.0
 11
152.505
 21
6.51951
 31
0.0
  0
LINE
  8
0
 62
     0
 10
152.505
 20
6.51951
 30
0.0
 11
152.969
 21
6.59253
 31
0.0
  0
LINE
  8
0
 62
     0
 10
5.09323
 20
6.59253
 30
0.0
 11
5.55763
 21
6.51951
 31
0.0
  0
LINE
  8
0
 62
     0
 10
5.55763
 20
6.51951
 30
0.0
 11
5.97517
 21
6.30728
 31
0.0
  0
LINE
  8
0
 62
     0
 10
5.97517
 20
6.30728
 30
0.0
 11
6.30728
 21
5.97517
 31
0.0
  0
LINE
  8
0
 62
     0
 10
6.30728
 20
5.97517
 30
0.0
 11
6.52089
 21
5.55763
 31
0.0
  0
LINE
  8
0
 62
     0
 10
6.52089
 20
5.55763
 30
0.0
 11
6.59391
 21
5.09323
 31
0.0
  0
LINE
  8
0
 62
     0
 10
6.59391
 20
5.09323
 30
0.0
 11
6.52089
 21
4.62883
 31
0.0
  0
LINE
  8
0
 62
     0
 10
6.52089
 20
4.62883
 30
0.0
 11
6.30728
 21
4.21128
 31
0.0
  0
LINE
  8
0
 62
     0
 10
6.30728
 20
4.21128
 30
0.0
 11
5.97517
 21
3.87918
 31
0.0
  0
LINE
  8
0
 62
     0
 10
5.97517
 20
3.87918
 30
0.0
 11
5.55763
 21
3.66557
 31
0.0
  0
LINE
  8
0
 62
     0
 10
5.55763
 20
3.66557
 30
0.0
 11
5.09323
 21
3.59255
 31
0.0
  0
LINE
  8
0
 62
     0
 10
5.09323
 20
3.59255
 30
0.0
 11
4.63021
 21
3.66557
 31
0.0
  0
LINE
  8
0
 62
     0
 10
4.63021
 20
3.66557
 30
0.0
 11
4.21128
 21
3.87918
 31
0.0
  0
LINE
  8
0
 62
     0
 10
4.21128
 20
3.87918
 30
0.0
 11
3.87918
 21
4.21128
 31
0.0
  0
LINE
  8
0
 62
     0
 10
3.87918
 20
4.21128
 30
0.0
 11
3.66695
 21
4.62883
 31
0.0
  0
LINE
  8
0
 62
     0
 10
3.66695
 20
4.62883
 30
0.0
 11
3.59392
 21
5.09323
 31
0.0
  0
LINE
  8
0
 62
     0
 10
3.59392
 20
5.09323
 30
0.0
 11
3.66695
 21
5.55763
 31
0.0
  0
LINE
  8
0
 62
     0
 10
3.66695
 20
5.55763
 30
0.0
 11
3.87918
 21
5.97517
 31
0.0
  0
LINE
  8
0
 62
     0
 10
3.87918
 20
5.97517
 30
0.0
 11
4.21128
 21
6.30728
 31
0.0
  0
LINE
  8
0
 62
     0
 10
4.21128
 20
6.30728
 30
0.0
 11
4.63021
 21
6.51951
 31
0.0
  0
LINE
  8
0
 62
     0
 10
4.63021
 20
6.51951
 30
0.0
 11
5.09323
 21
6.59253
 31
0.0
  0
LINE
  8
0
 62
     0
 10
5.09323
 20
111.843
 30
0.0
 11
5.55763
 21
111.77
 31
0.0
  0
LINE
  8
0
 62
     0
 10
5.55763
 20
111.77
 30
0.0
 11
5.97517
 21
111.558
 31
0.0
  0
LINE
  8
0
 62
     0
 10
5.97517
 20
111.558
 30
0.0
 11
6.30728
 21
111.226
 31
0.0
  0
LINE
  8
0
 62
     0
 10
6.30728
 20
111.226
 30
0.0
 11
6.52089
 21
110.807
 31
0.0
  0
LINE
  8
0
 62
     0
 10
6.52089
 20
110.807
 30
0.0
 11
6.59391
 21
110.344
 31
0.0
  0
LINE
  8
0
 62
     0
 10
6.59391
 20
110.344
 30
0.0
 11
6.52089
 21
109.879
 31
0.0
  0
LINE
  8
0
 62
     0
 10
6.52089
 20
109.879
 30
0.0
 11
6.30728
 21
109.462
 31
0.0
  0
LINE
  8
0
 62
     0
 10
6.30728
 20
109.462
 30
0.0
 11
5.97517
 21
109.13
 31
0.0
  0
LINE
  8
0
 62
     0
 10
5.97517
 20
109.13
 30
0.0
 11
5.55763
 21
108.917
 31
0.0
  0
LINE
  8
0
 62
     0
 10
5.55763
 20
108.917
 30
0.0
 11
5.09323
 21
108.844
 31
0.0
  0
LINE
  8
0
 62
     0
 10
5.09323
 20
108.844
 30
0.0
 11
4.63021
 21
108.917
 31
0.0
  0
LINE
  8
0
 62
     0
 10
4.63021
 20
108.917
 30
0.0
 11
4.21128
 21
109.13
 31
0.0
  0
LINE
  8
0
 62
     0
 10
4.21128
 20
109.13
 30
0.0
 11
3.87918
 21
109.462
 31
0.0
  0
LINE
  8
0
 62
     0
 10
3.87918
 20
109.462
 30
0.0
 11
3.66695
 21
109.879
 31
0.0
  0
LINE
  8
0
 62
     0
 10
3.66695
 20
109.879
 30
0.0
 11
3.59392
 21
110.344
 31
0.0
  0
LINE
  8
0
 62
     0
 10
3.59392
 20
110.344
 30
0.0
 11
3.66695
 21
110.807
 31
0.0
  0
LINE
  8
0
 62
     0
 10
3.66695
 20
110.807
 30
0.0
 11
3.87918
 21
111.226
 31
0.0
  0
LINE
  8
0
 62
     0
 10
3.87918
 20
111.226
 30
0.0
 11
4.21128
 21
111.558
 31
0.0
  0
LINE
  8
0
 62
     0
 10
4.21128
 20
111.558
 30
0.0
 11
4.63021
 21
111.77
 31
0.0
  0
LINE
  8
0
 62
     0
 10
4.63021
 20
111.77
 30
0.0
 11
5.09323
 21
111.843
 31
0.0
  0
ENDSEC
  0
EOF
