  0
SECTION
  2
HEADER
  9
$ACADVER
  1
AC1009
  9
$EXTMIN
 10
0.0
 20
0.0
 30
0.0
  9
$EXTMAX
 10
1000.0
 20
1000.0
 30
0.0
  9
$FILLMODE
 70
 0
  9
$SPLFRAME
 70
 1
  0
ENDSEC
  0
SECTION
  2
TABLES
  0
TABLE
  2
LAYER
 70
1
  0
LAYER
  2
0
 70
     0
 62
     7
  6
CONTINUOUS
  0
ENDTAB
  0
ENDSEC
  0
SECTION
  2
ENTITIES
  0
LINE
  8
0
 62
     0
 10
303.844
 20
115.343
 30
0.0
 11
304.001
 21
115.339
 31
0.0
  0
LINE
  8
0
 62
     0
 10
304.001
 20
115.339
 30
0.0
 11
304.157
 21
115.318
 31
0.0
  0
LINE
  8
0
 62
     0
 10
304.157
 20
115.318
 30
0.0
 11
304.311
 21
115.288
 31
0.0
  0
LINE
  8
0
 62
     0
 10
304.311
 20
115.288
 30
0.0
 11
304.462
 21
115.245
 31
0.0
  0
LINE
  8
0
 62
     0
 10
304.462
 20
115.245
 30
0.0
 11
304.608
 21
115.193
 31
0.0
  0
LINE
  8
0
 62
     0
 10
304.608
 20
115.193
 30
0.0
 11
304.752
 21
115.125
 31
0.0
  0
LINE
  8
0
 62
     0
 10
304.752
 20
115.125
 30
0.0
 11
304.888
 21
115.048
 31
0.0
  0
LINE
  8
0
 62
     0
 10
304.888
 20
115.048
 30
0.0
 11
305.019
 21
114.961
 31
0.0
  0
LINE
  8
0
 62
     0
 10
305.019
 20
114.961
 30
0.0
 11
305.143
 21
114.864
 31
0.0
  0
LINE
  8
0
 62
     0
 10
305.143
 20
114.864
 30
0.0
 11
305.258
 21
114.758
 31
0.0
  0
LINE
  8
0
 62
     0
 10
305.258
 20
114.758
 30
0.0
 11
305.365
 21
114.642
 31
0.0
  0
LINE
  8
0
 62
     0
 10
305.365
 20
114.642
 30
0.0
 11
305.461
 21
114.519
 31
0.0
  0
LINE
  8
0
 62
     0
 10
305.461
 20
114.519
 30
0.0
 11
305.548
 21
114.388
 31
0.0
  0
LINE
  8
0
 62
     0
 10
305.548
 20
114.388
 30
0.0
 11
305.626
 21
114.253
 31
0.0
  0
LINE
  8
0
 62
     0
 10
305.626
 20
114.253
 30
0.0
 11
305.691
 21
114.108
 31
0.0
  0
LINE
  8
0
 62
     0
 10
305.691
 20
114.108
 30
0.0
 11
305.745
 21
113.961
 31
0.0
  0
LINE
  8
0
 62
     0
 10
305.745
 20
113.961
 30
0.0
 11
305.79
 21
113.812
 31
0.0
  0
LINE
  8
0
 62
     0
 10
305.79
 20
113.812
 30
0.0
 11
305.818
 21
113.657
 31
0.0
  0
LINE
  8
0
 62
     0
 10
305.818
 20
113.657
 30
0.0
 11
305.838
 21
113.502
 31
0.0
  0
LINE
  8
0
 62
     0
 10
305.838
 20
113.502
 30
0.0
 11
305.843
 21
113.344
 31
0.0
  0
LINE
  8
0
 62
     0
 10
305.843
 20
113.344
 30
0.0
 11
305.843
 21
2.09324
 31
0.0
  0
LINE
  8
0
 62
     0
 10
305.843
 20
2.09324
 30
0.0
 11
305.838
 21
1.93752
 31
0.0
  0
LINE
  8
0
 62
     0
 10
305.838
 20
1.93752
 30
0.0
 11
305.818
 21
1.78043
 31
0.0
  0
LINE
  8
0
 62
     0
 10
305.818
 20
1.78043
 30
0.0
 11
305.79
 21
1.62746
 31
0.0
  0
LINE
  8
0
 62
     0
 10
305.79
 20
1.62746
 30
0.0
 11
305.745
 21
1.4745
 31
0.0
  0
LINE
  8
0
 62
     0
 10
305.745
 20
1.4745
 30
0.0
 11
305.691
 21
1.32843
 31
0.0
  0
LINE
  8
0
 62
     0
 10
305.691
 20
1.32843
 30
0.0
 11
305.626
 21
1.18649
 31
0.0
  0
LINE
  8
0
 62
     0
 10
305.626
 20
1.18649
 30
0.0
 11
305.548
 21
1.04869
 31
0.0
  0
LINE
  8
0
 62
     0
 10
305.548
 20
1.04869
 30
0.0
 11
305.461
 21
0.917773
 31
0.0
  0
LINE
  8
0
 62
     0
 10
305.461
 20
0.917773
 30
0.0
 11
305.365
 21
0.79375
 31
0.0
  0
LINE
  8
0
 62
     0
 10
305.365
 20
0.79375
 30
0.0
 11
305.258
 21
0.679372
 31
0.0
  0
LINE
  8
0
 62
     0
 10
305.258
 20
0.679372
 30
0.0
 11
305.143
 21
0.571885
 31
0.0
  0
LINE
  8
0
 62
     0
 10
305.143
 20
0.571885
 30
0.0
 11
305.019
 21
0.475424
 31
0.0
  0
LINE
  8
0
 62
     0
 10
305.019
 20
0.475424
 30
0.0
 11
304.888
 21
0.388606
 31
0.0
  0
LINE
  8
0
 62
     0
 10
304.888
 20
0.388606
 30
0.0
 11
304.752
 21
0.311437
 31
0.0
  0
LINE
  8
0
 62
     0
 10
304.752
 20
0.311437
 30
0.0
 11
304.608
 21
0.246669
 31
0.0
  0
LINE
  8
0
 62
     0
 10
304.608
 20
0.246669
 30
0.0
 11
304.462
 21
0.191547
 31
0.0
  0
LINE
  8
0
 62
     0
 10
304.462
 20
0.191547
 30
0.0
 11
304.311
 21
0.14745
 31
0.0
  0
LINE
  8
0
 62
     0
 10
304.311
 20
0.14745
 30
0.0
 11
304.157
 21
0.118511
 31
0.0
  0
LINE
  8
0
 62
     0
 10
304.157
 20
0.118511
 30
0.0
 11
304.001
 21
0.100597
 31
0.0
  0
LINE
  8
0
 62
     0
 10
304.001
 20
0.100597
 30
0.0
 11
303.844
 21
0.0937066
 31
0.0
  0
LINE
  8
0
 62
     0
 10
303.844
 20
0.0937066
 30
0.0
 11
2.09324
 21
0.0937066
 31
0.0
  0
LINE
  8
0
 62
     0
 10
2.09324
 20
0.0937066
 30
0.0
 11
1.93614
 21
0.100597
 31
0.0
  0
LINE
  8
0
 62
     0
 10
1.93614
 20
0.100597
 30
0.0
 11
1.78043
 21
0.118511
 31
0.0
  0
LINE
  8
0
 62
     0
 10
1.78043
 20
0.118511
 30
0.0
 11
1.62609
 21
0.14745
 31
0.0
  0
LINE
  8
0
 62
     0
 10
1.62609
 20
0.14745
 30
0.0
 11
1.47588
 21
0.191547
 31
0.0
  0
LINE
  8
0
 62
     0
 10
1.47588
 20
0.191547
 30
0.0
 11
1.32843
 21
0.246669
 31
0.0
  0
LINE
  8
0
 62
     0
 10
1.32843
 20
0.246669
 30
0.0
 11
1.18511
 21
0.311437
 31
0.0
  0
LINE
  8
0
 62
     0
 10
1.18511
 20
0.311437
 30
0.0
 11
1.04869
 21
0.388606
 31
0.0
  0
LINE
  8
0
 62
     0
 10
1.04869
 20
0.388606
 30
0.0
 11
0.917773
 21
0.475424
 31
0.0
  0
LINE
  8
0
 62
     0
 10
0.917773
 20
0.475424
 30
0.0
 11
0.795129
 21
0.571885
 31
0.0
  0
LINE
  8
0
 62
     0
 10
0.795129
 20
0.571885
 30
0.0
 11
0.679372
 21
0.679372
 31
0.0
  0
LINE
  8
0
 62
     0
 10
0.679372
 20
0.679372
 30
0.0
 11
0.573264
 21
0.79375
 31
0.0
  0
LINE
  8
0
 62
     0
 10
0.573264
 20
0.79375
 30
0.0
 11
0.475424
 21
0.917773
 31
0.0
  0
LINE
  8
0
 62
     0
 10
0.475424
 20
0.917773
 30
0.0
 11
0.388606
 21
1.04869
 31
0.0
  0
LINE
  8
0
 62
     0
 10
0.388606
 20
1.04869
 30
0.0
 11
0.311437
 21
1.18649
 31
0.0
  0
LINE
  8
0
 62
     0
 10
0.311437
 20
1.18649
 30
0.0
 11
0.245291
 21
1.32843
 31
0.0
  0
LINE
  8
0
 62
     0
 10
0.245291
 20
1.32843
 30
0.0
 11
0.191547
 21
1.4745
 31
0.0
  0
LINE
  8
0
 62
     0
 10
0.191547
 20
1.4745
 30
0.0
 11
0.148828
 21
1.62746
 31
0.0
  0
LINE
  8
0
 62
     0
 10
0.148828
 20
1.62746
 30
0.0
 11
0.118511
 21
1.78043
 31
0.0
  0
LINE
  8
0
 62
     0
 10
0.118511
 20
1.78043
 30
0.0
 11
0.0992188
 21
1.93752
 31
0.0
  0
LINE
  8
0
 62
     0
 10
0.0992188
 20
1.93752
 30
0.0
 11
0.0937066
 21
2.09324
 31
0.0
  0
LINE
  8
0
 62
     0
 10
0.0937066
 20
2.09324
 30
0.0
 11
0.0937066
 21
113.344
 31
0.0
  0
LINE
  8
0
 62
     0
 10
0.0937066
 20
113.344
 30
0.0
 11
0.0992188
 21
113.502
 31
0.0
  0
LINE
  8
0
 62
     0
 10
0.0992188
 20
113.502
 30
0.0
 11
0.118511
 21
113.657
 31
0.0
  0
LINE
  8
0
 62
     0
 10
0.118511
 20
113.657
 30
0.0
 11
0.148828
 21
113.812
 31
0.0
  0
LINE
  8
0
 62
     0
 10
0.148828
 20
113.812
 30
0.0
 11
0.191547
 21
113.961
 31
0.0
  0
LINE
  8
0
 62
     0
 10
0.191547
 20
113.961
 30
0.0
 11
0.245291
 21
114.108
 31
0.0
  0
LINE
  8
0
 62
     0
 10
0.245291
 20
114.108
 30
0.0
 11
0.311437
 21
114.253
 31
0.0
  0
LINE
  8
0
 62
     0
 10
0.311437
 20
114.253
 30
0.0
 11
0.388606
 21
114.388
 31
0.0
  0
LINE
  8
0
 62
     0
 10
0.388606
 20
114.388
 30
0.0
 11
0.475424
 21
114.519
 31
0.0
  0
LINE
  8
0
 62
     0
 10
0.475424
 20
114.519
 30
0.0
 11
0.573264
 21
114.642
 31
0.0
  0
LINE
  8
0
 62
     0
 10
0.573264
 20
114.642
 30
0.0
 11
0.679372
 21
114.758
 31
0.0
  0
LINE
  8
0
 62
     0
 10
0.679372
 20
114.758
 30
0.0
 11
0.795129
 21
114.864
 31
0.0
  0
LINE
  8
0
 62
     0
 10
0.795129
 20
114.864
 30
0.0
 11
0.917773
 21
114.961
 31
0.0
  0
LINE
  8
0
 62
     0
 10
0.917773
 20
114.961
 30
0.0
 11
1.04869
 21
115.048
 31
0.0
  0
LINE
  8
0
 62
     0
 10
1.04869
 20
115.048
 30
0.0
 11
1.18511
 21
115.125
 31
0.0
  0
LINE
  8
0
 62
     0
 10
1.18511
 20
115.125
 30
0.0
 11
1.32843
 21
115.193
 31
0.0
  0
LINE
  8
0
 62
     0
 10
1.32843
 20
115.193
 30
0.0
 11
1.47588
 21
115.245
 31
0.0
  0
LINE
  8
0
 62
     0
 10
1.47588
 20
115.245
 30
0.0
 11
1.62609
 21
115.288
 31
0.0
  0
LINE
  8
0
 62
     0
 10
1.62609
 20
115.288
 30
0.0
 11
1.78043
 21
115.318
 31
0.0
  0
LINE
  8
0
 62
     0
 10
1.78043
 20
115.318
 30
0.0
 11
1.93614
 21
115.339
 31
0.0
  0
LINE
  8
0
 62
     0
 10
1.93614
 20
115.339
 30
0.0
 11
2.09324
 21
115.343
 31
0.0
  0
LINE
  8
0
 62
     0
 10
2.09324
 20
115.343
 30
0.0
 11
303.844
 21
115.343
 31
0.0
  0
LINE
  8
0
 62
     0
 10
152.969
 20
111.843
 30
0.0
 11
153.432
 21
111.77
 31
0.0
  0
LINE
  8
0
 62
     0
 10
153.432
 20
111.77
 30
0.0
 11
153.851
 21
111.558
 31
0.0
  0
LINE
  8
0
 62
     0
 10
153.851
 20
111.558
 30
0.0
 11
154.183
 21
111.226
 31
0.0
  0
LINE
  8
0
 62
     0
 10
154.183
 20
111.226
 30
0.0
 11
154.395
 21
110.807
 31
0.0
  0
LINE
  8
0
 62
     0
 10
154.395
 20
110.807
 30
0.0
 11
154.468
 21
110.344
 31
0.0
  0
LINE
  8
0
 62
     0
 10
154.468
 20
110.344
 30
0.0
 11
154.395
 21
109.879
 31
0.0
  0
LINE
  8
0
 62
     0
 10
154.395
 20
109.879
 30
0.0
 11
154.183
 21
109.462
 31
0.0
  0
LINE
  8
0
 62
     0
 10
154.183
 20
109.462
 30
0.0
 11
153.851
 21
109.13
 31
0.0
  0
LINE
  8
0
 62
     0
 10
153.851
 20
109.13
 30
0.0
 11
153.432
 21
108.917
 31
0.0
  0
LINE
  8
0
 62
     0
 10
153.432
 20
108.917
 30
0.0
 11
152.969
 21
108.844
 31
0.0
  0
LINE
  8
0
 62
     0
 10
152.969
 20
108.844
 30
0.0
 11
152.505
 21
108.917
 31
0.0
  0
LINE
  8
0
 62
     0
 10
152.505
 20
108.917
 30
0.0
 11
152.087
 21
109.13
 31
0.0
  0
LINE
  8
0
 62
     0
 10
152.087
 20
109.13
 30
0.0
 11
151.755
 21
109.462
 31
0.0
  0
LINE
  8
0
 62
     0
 10
151.755
 20
109.462
 30
0.0
 11
151.541
 21
109.879
 31
0.0
  0
LINE
  8
0
 62
     0
 10
151.541
 20
109.879
 30
0.0
 11
151.468
 21
110.344
 31
0.0
  0
LINE
  8
0
 62
     0
 10
151.468
 20
110.344
 30
0.0
 11
151.541
 21
110.807
 31
0.0
  0
LINE
  8
0
 62
     0
 10
151.541
 20
110.807
 30
0.0
 11
151.755
 21
111.226
 31
0.0
  0
LINE
  8
0
 62
     0
 10
151.755
 20
111.226
 30
0.0
 11
152.087
 21
111.558
 31
0.0
  0
LINE
  8
0
 62
     0
 10
152.087
 20
111.558
 30
0.0
 11
152.505
 21
111.77
 31
0.0
  0
LINE
  8
0
 62
     0
 10
152.505
 20
111.77
 30
0.0
 11
152.969
 21
111.843
 31
0.0
  0
LINE
  8
0
 62
     0
 10
300.844
 20
111.843
 30
0.0
 11
301.308
 21
111.77
 31
0.0
  0
LINE
  8
0
 62
     0
 10
301.308
 20
111.77
 30
0.0
 11
301.726
 21
111.558
 31
0.0
  0
LINE
  8
0
 62
     0
 10
301.726
 20
111.558
 30
0.0
 11
302.058
 21
111.226
 31
0.0
  0
LINE
  8
0
 62
     0
 10
302.058
 20
111.226
 30
0.0
 11
302.271
 21
110.807
 31
0.0
  0
LINE
  8
0
 62
     0
 10
302.271
 20
110.807
 30
0.0
 11
302.344
 21
110.344
 31
0.0
  0
LINE
  8
0
 62
     0
 10
302.344
 20
110.344
 30
0.0
 11
302.271
 21
109.879
 31
0.0
  0
LINE
  8
0
 62
     0
 10
302.271
 20
109.879
 30
0.0
 11
302.058
 21
109.462
 31
0.0
  0
LINE
  8
0
 62
     0
 10
302.058
 20
109.462
 30
0.0
 11
301.726
 21
109.13
 31
0.0
  0
LINE
  8
0
 62
     0
 10
301.726
 20
109.13
 30
0.0
 11
301.308
 21
108.917
 31
0.0
  0
LINE
  8
0
 62
     0
 10
301.308
 20
108.917
 30
0.0
 11
300.844
 21
108.844
 31
0.0
  0
LINE
  8
0
 62
     0
 10
300.844
 20
108.844
 30
0.0
 11
300.379
 21
108.917
 31
0.0
  0
LINE
  8
0
 62
     0
 10
300.379
 20
108.917
 30
0.0
 11
299.962
 21
109.13
 31
0.0
  0
LINE
  8
0
 62
     0
 10
299.962
 20
109.13
 30
0.0
 11
299.63
 21
109.462
 31
0.0
  0
LINE
  8
0
 62
     0
 10
299.63
 20
109.462
 30
0.0
 11
299.417
 21
109.879
 31
0.0
  0
LINE
  8
0
 62
     0
 10
299.417
 20
109.879
 30
0.0
 11
299.344
 21
110.344
 31
0.0
  0
LINE
  8
0
 62
     0
 10
299.344
 20
110.344
 30
0.0
 11
299.417
 21
110.807
 31
0.0
  0
LINE
  8
0
 62
     0
 10
299.417
 20
110.807
 30
0.0
 11
299.63
 21
111.226
 31
0.0
  0
LINE
  8
0
 62
     0
 10
299.63
 20
111.226
 30
0.0
 11
299.962
 21
111.558
 31
0.0
  0
LINE
  8
0
 62
     0
 10
299.962
 20
111.558
 30
0.0
 11
300.379
 21
111.77
 31
0.0
  0
LINE
  8
0
 62
     0
 10
300.379
 20
111.77
 30
0.0
 11
300.844
 21
111.843
 31
0.0
  0
LINE
  8
0
 62
     0
 10
300.844
 20
6.59253
 30
0.0
 11
301.308
 21
6.51951
 31
0.0
  0
LINE
  8
0
 62
     0
 10
301.308
 20
6.51951
 30
0.0
 11
301.726
 21
6.30728
 31
0.0
  0
LINE
  8
0
 62
     0
 10
301.726
 20
6.30728
 30
0.0
 11
302.058
 21
5.97517
 31
0.0
  0
LINE
  8
0
 62
     0
 10
302.058
 20
5.97517
 30
0.0
 11
302.271
 21
5.55763
 31
0.0
  0
LINE
  8
0
 62
     0
 10
302.271
 20
5.55763
 30
0.0
 11
302.344
 21
5.09323
 31
0.0
  0
LINE
  8
0
 62
     0
 10
302.344
 20
5.09323
 30
0.0
 11
302.271
 21
4.62883
 31
0.0
  0
LINE
  8
0
 62
     0
 10
302.271
 20
4.62883
 30
0.0
 11
302.058
 21
4.21128
 31
0.0
  0
LINE
  8
0
 62
     0
 10
302.058
 20
4.21128
 30
0.0
 11
301.726
 21
3.87918
 31
0.0
  0
LINE
  8
0
 62
     0
 10
301.726
 20
3.87918
 30
0.0
 11
301.308
 21
3.66557
 31
0.0
  0
LINE
  8
0
 62
     0
 10
301.308
 20
3.66557
 30
0.0
 11
300.844
 21
3.59255
 31
0.0
  0
LINE
  8
0
 62
     0
 10
300.844
 20
3.59255
 30
0.0
 11
300.379
 21
3.66557
 31
0.0
  0
LINE
  8
0
 62
     0
 10
300.379
 20
3.66557
 30
0.0
 11
299.962
 21
3.87918
 31
0.0
  0
LINE
  8
0
 62
     0
 10
299.962
 20
3.87918
 30
0.0
 11
299.63
 21
4.21128
 31
0.0
  0
LINE
  8
0
 62
     0
 10
299.63
 20
4.21128
 30
0.0
 11
299.417
 21
4.62883
 31
0.0
  0
LINE
  8
0
 62
     0
 10
299.417
 20
4.62883
 30
0.0
 11
299.344
 21
5.09323
 31
0.0
  0
LINE
  8
0
 62
     0
 10
299.344
 20
5.09323
 30
0.0
 11
299.417
 21
5.55763
 31
0.0
  0
LINE
  8
0
 62
     0
 10
299.417
 20
5.55763
 30
0.0
 11
299.63
 21
5.97517
 31
0.0
  0
LINE
  8
0
 62
     0
 10
299.63
 20
5.97517
 30
0.0
 11
299.962
 21
6.30728
 31
0.0
  0
LINE
  8
0
 62
     0
 10
299.962
 20
6.30728
 30
0.0
 11
300.379
 21
6.51951
 31
0.0
  0
LINE
  8
0
 62
     0
 10
300.379
 20
6.51951
 30
0.0
 11
300.844
 21
6.59253
 31
0.0
  0
LINE
  8
0
 62
     0
 10
152.969
 20
6.59253
 30
0.0
 11
153.432
 21
6.51951
 31
0.0
  0
LINE
  8
0
 62
     0
 10
153.432
 20
6.51951
 30
0.0
 11
153.851
 21
6.30728
 31
0.0
  0
LINE
  8
0
 62
     0
 10
153.851
 20
6.30728
 30
0.0
 11
154.183
 21
5.97517
 31
0.0
  0
LINE
  8
0
 62
     0
 10
154.183
 20
5.97517
 30
0.0
 11
154.395
 21
5.55763
 31
0.0
  0
LINE
  8
0
 62
     0
 10
154.395
 20
5.55763
 30
0.0
 11
154.468
 21
5.09323
 31
0.0
  0
LINE
  8
0
 62
     0
 10
154.468
 20
5.09323
 30
0.0
 11
154.395
 21
4.62883
 31
0.0
  0
LINE
  8
0
 62
     0
 10
154.395
 20
4.62883
 30
0.0
 11
154.183
 21
4.21128
 31
0.0
  0
LINE
  8
0
 62
     0
 10
154.183
 20
4.21128
 30
0.0
 11
153.851
 21
3.87918
 31
0.0
  0
LINE
  8
0
 62
     0
 10
153.851
 20
3.87918
 30
0.0
 11
153.432
 21
3.66557
 31
0.0
  0
LINE
  8
0
 62
     0
 10
153.432
 20
3.66557
 30
0.0
 11
152.969
 21
3.59255
 31
0.0
  0
LINE
  8
0
 62
     0
 10
152.969
 20
3.59255
 30
0.0
 11
152.505
 21
3.66557
 31
0.0
  0
LINE
  8
0
 62
     0
 10
152.505
 20
3.66557
 30
0.0
 11
152.087
 21
3.87918
 31
0.0
  0
LINE
  8
0
 62
     0
 10
152.087
 20
3.87918
 30
0.0
 11
151.755
 21
4.21128
 31
0.0
  0
LINE
  8
0
 62
     0
 10
151.755
 20
4.21128
 30
0.0
 11
151.541
 21
4.62883
 31
0.0
  0
LINE
  8
0
 62
     0
 10
151.541
 20
4.62883
 30
0.0
 11
151.468
 21
5.09323
 31
0.0
  0
LINE
  8
0
 62
     0
 10
151.468
 20
5.09323
 30
0.0
 11
151.541
 21
5.55763
 31
0.0
  0
LINE
  8
0
 62
     0
 10
151.541
 20
5.55763
 30
0.0
 11
151.755
 21
5.97517
 31
0.0
  0
LINE
  8
0
 62
     0
 10
151.755
 20
5.97517
 30
0.0
 11
152.087
 21
6.30728
 31
0.0
  0
LINE
  8
0
 62
     0
 10
152.087
 20
6.30728
 30
0.0
 11
152.505
 21
6.51951
 31
0.0
  0
LINE
  8
0
 62
     0
 10
152.505
 20
6.51951
 30
0.0
 11
152.969
 21
6.59253
 31
0.0
  0
LINE
  8
0
 62
     0
 10
5.09323
 20
6.59253
 30
0.0
 11
5.55763
 21
6.51951
 31
0.0
  0
LINE
  8
0
 62
     0
 10
5.55763
 20
6.51951
 30
0.0
 11
5.97517
 21
6.30728
 31
0.0
  0
LINE
  8
0
 62
     0
 10
5.97517
 20
6.30728
 30
0.0
 11
6.30728
 21
5.97517
 31
0.0
  0
LINE
  8
0
 62
     0
 10
6.30728
 20
5.97517
 30
0.0
 11
6.52089
 21
5.55763
 31
0.0
  0
LINE
  8
0
 62
     0
 10
6.52089
 20
5.55763
 30
0.0
 11
6.59391
 21
5.09323
 31
0.0
  0
LINE
  8
0
 62
     0
 10
6.59391
 20
5.09323
 30
0.0
 11
6.52089
 21
4.62883
 31
0.0
  0
LINE
  8
0
 62
     0
 10
6.52089
 20
4.62883
 30
0.0
 11
6.30728
 21
4.21128
 31
0.0
  0
LINE
  8
0
 62
     0
 10
6.30728
 20
4.21128
 30
0.0
 11
5.97517
 21
3.87918
 31
0.0
  0
LINE
  8
0
 62
     0
 10
5.97517
 20
3.87918
 30
0.0
 11
5.55763
 21
3.66557
 31
0.0
  0
LINE
  8
0
 62
     0
 10
5.55763
 20
3.66557
 30
0.0
 11
5.09323
 21
3.59255
 31
0.0
  0
LINE
  8
0
 62
     0
 10
5.09323
 20
3.59255
 30
0.0
 11
4.63021
 21
3.66557
 31
0.0
  0
LINE
  8
0
 62
     0
 10
4.63021
 20
3.66557
 30
0.0
 11
4.21128
 21
3.87918
 31
0.0
  0
LINE
  8
0
 62
     0
 10
4.21128
 20
3.87918
 30
0.0
 11
3.87918
 21
4.21128
 31
0.0
  0
LINE
  8
0
 62
     0
 10
3.87918
 20
4.21128
 30
0.0
 11
3.66695
 21
4.62883
 31
0.0
  0
LINE
  8
0
 62
     0
 10
3.66695
 20
4.62883
 30
0.0
 11
3.59392
 21
5.09323
 31
0.0
  0
LINE
  8
0
 62
     0
 10
3.59392
 20
5.09323
 30
0.0
 11
3.66695
 21
5.55763
 31
0.0
  0
LINE
  8
0
 62
     0
 10
3.66695
 20
5.55763
 30
0.0
 11
3.87918
 21
5.97517
 31
0.0
  0
LINE
  8
0
 62
     0
 10
3.87918
 20
5.97517
 30
0.0
 11
4.21128
 21
6.30728
 31
0.0
  0
LINE
  8
0
 62
     0
 10
4.21128
 20
6.30728
 30
0.0
 11
4.63021
 21
6.51951
 31
0.0
  0
LINE
  8
0
 62
     0
 10
4.63021
 20
6.51951
 30
0.0
 11
5.09323
 21
6.59253
 31
0.0
  0
LINE
  8
0
 62
     0
 10
5.09323
 20
111.843
 30
0.0
 11
5.55763
 21
111.77
 31
0.0
  0
LINE
  8
0
 62
     0
 10
5.55763
 20
111.77
 30
0.0
 11
5.97517
 21
111.558
 31
0.0
  0
LINE
  8
0
 62
     0
 10
5.97517
 20
111.558
 30
0.0
 11
6.30728
 21
111.226
 31
0.0
  0
LINE
  8
0
 62
     0
 10
6.30728
 20
111.226
 30
0.0
 11
6.52089
 21
110.807
 31
0.0
  0
LINE
  8
0
 62
     0
 10
6.52089
 20
110.807
 30
0.0
 11
6.59391
 21
110.344
 31
0.0
  0
LINE
  8
0
 62
     0
 10
6.59391
 20
110.344
 30
0.0
 11
6.52089
 21
109.879
 31
0.0
  0
LINE
  8
0
 62
     0
 10
6.52089
 20
109.879
 30
0.0
 11
6.30728
 21
109.462
 31
0.0
  0
LINE
  8
0
 62
     0
 10
6.30728
 20
109.462
 30
0.0
 11
5.97517
 21
109.13
 31
0.0
  0
LINE
  8
0
 62
     0
 10
5.97517
 20
109.13
 30
0.0
 11
5.55763
 21
108.917
 31
0.0
  0
LINE
  8
0
 62
     0
 10
5.55763
 20
108.917
 30
0.0
 11
5.09323
 21
108.844
 31
0.0
  0
LINE
  8
0
 62
     0
 10
5.09323
 20
108.844
 30
0.0
 11
4.63021
 21
108.917
 31
0.0
  0
LINE
  8
0
 62
     0
 10
4.63021
 20
108.917
 30
0.0
 11
4.21128
 21
109.13
 31
0.0
  0
LINE
  8
0
 62
     0
 10
4.21128
 20
109.13
 30
0.0
 11
3.87918
 21
109.462
 31
0.0
  0
LINE
  8
0
 62
     0
 10
3.87918
 20
109.462
 30
0.0
 11
3.66695
 21
109.879
 31
0.0
  0
LINE
  8
0
 62
     0
 10
3.66695
 20
109.879
 30
0.0
 11
3.59392
 21
110.344
 31
0.0
  0
LINE
  8
0
 62
     0
 10
3.59392
 20
110.344
 30
0.0
 11
3.66695
 21
110.807
 31
0.0
  0
LINE
  8
0
 62
     0
 10
3.66695
 20
110.807
 30
0.0
 11
3.87918
 21
111.226
 31
0.0
  0
LINE
  8
0
 62
     0
 10
3.87918
 20
111.226
 30
0.0
 11
4.21128
 21
111.558
 31
0.0
  0
LINE
  8
0
 62
     0
 10
4.21128
 20
111.558
 30
0.0
 11
4.63021
 21
111.77
 31
0.0
  0
LINE
  8
0
 62
     0
 10
4.63021
 20
111.77
 30
0.0
 11
5.09323
 21
111.843
 31
0.0
  0
LINE
  8
0
 62
     0
 10
12.6187
 20
102.818
 30
0.0
 11
26.6182
 21
102.818
 31
0.0
  0
LINE
  8
0
 62
     0
 10
26.6182
 20
102.818
 30
0.0
 11
26.6182
 21
88.8189
 31
0.0
  0
LINE
  8
0
 62
     0
 10
26.6182
 20
88.8189
 30
0.0
 11
12.6187
 21
88.8189
 31
0.0
  0
LINE
  8
0
 62
     0
 10
12.6187
 20
88.8189
 30
0.0
 11
12.6187
 21
102.818
 31
0.0
  0
LINE
  8
0
 62
     0
 10
14.9999
 20
26.6182
 30
0.0
 11
28.9994
 21
26.6182
 31
0.0
  0
LINE
  8
0
 62
     0
 10
28.9994
 20
26.6182
 30
0.0
 11
28.9994
 21
12.6187
 31
0.0
  0
LINE
  8
0
 62
     0
 10
28.9994
 20
12.6187
 30
0.0
 11
14.9999
 21
12.6187
 31
0.0
  0
LINE
  8
0
 62
     0
 10
14.9999
 20
12.6187
 30
0.0
 11
14.9999
 21
26.6182
 31
0.0
  0
LINE
  8
0
 62
     0
 10
17.3812
 20
83.7681
 30
0.0
 11
31.3821
 21
83.7681
 31
0.0
  0
LINE
  8
0
 62
     0
 10
31.3821
 20
83.7681
 30
0.0
 11
31.3821
 21
69.7689
 31
0.0
  0
LINE
  8
0
 62
     0
 10
31.3821
 20
69.7689
 30
0.0
 11
17.3812
 21
69.7689
 31
0.0
  0
LINE
  8
0
 62
     0
 10
17.3812
 20
69.7689
 30
0.0
 11
17.3812
 21
83.7681
 31
0.0
  0
LINE
  8
0
 62
     0
 10
19.7624
 20
64.7181
 30
0.0
 11
33.7633
 21
64.7181
 31
0.0
  0
LINE
  8
0
 62
     0
 10
33.7633
 20
64.7181
 30
0.0
 11
33.7633
 21
50.7189
 31
0.0
  0
LINE
  8
0
 62
     0
 10
33.7633
 20
50.7189
 30
0.0
 11
19.7624
 21
50.7189
 31
0.0
  0
LINE
  8
0
 62
     0
 10
19.7624
 20
50.7189
 30
0.0
 11
19.7624
 21
64.7181
 31
0.0
  0
LINE
  8
0
 62
     0
 10
31.6687
 20
102.818
 30
0.0
 11
45.6681
 21
102.818
 31
0.0
  0
LINE
  8
0
 62
     0
 10
45.6681
 20
102.818
 30
0.0
 11
45.6681
 21
88.8189
 31
0.0
  0
LINE
  8
0
 62
     0
 10
45.6681
 20
88.8189
 30
0.0
 11
31.6687
 21
88.8189
 31
0.0
  0
LINE
  8
0
 62
     0
 10
31.6687
 20
88.8189
 30
0.0
 11
31.6687
 21
102.818
 31
0.0
  0
LINE
  8
0
 62
     0
 10
46.7501
 20
38.1674
 30
0.0
 11
46.7501
 21
31.8975
 31
0.0
  0
LINE
  8
0
 62
     0
 10
46.7501
 20
31.8975
 30
0.0
 11
45.1252
 21
31.8975
 31
0.0
  0
LINE
  8
0
 62
     0
 10
45.1252
 20
31.8975
 30
0.0
 11
45.1252
 21
30.9177
 31
0.0
  0
LINE
  8
0
 62
     0
 10
45.1252
 20
30.9177
 30
0.0
 11
41.825
 21
30.9177
 31
0.0
  0
LINE
  8
0
 62
     0
 10
41.825
 20
30.9177
 30
0.0
 11
41.825
 21
31.8975
 31
0.0
  0
LINE
  8
0
 62
     0
 10
41.825
 20
31.8975
 30
0.0
 11
40.0995
 21
31.8975
 31
0.0
  0
LINE
  8
0
 62
     0
 10
40.0995
 20
31.8975
 30
0.0
 11
40.0995
 21
32.6981
 31
0.0
  0
LINE
  8
0
 62
     0
 10
40.0995
 20
32.6981
 30
0.0
 11
38.5244
 21
32.6981
 31
0.0
  0
LINE
  8
0
 62
     0
 10
38.5244
 20
32.6981
 30
0.0
 11
38.5244
 21
31.6687
 31
0.0
  0
LINE
  8
0
 62
     0
 10
38.5244
 20
31.6687
 30
0.0
 11
24.5249
 21
31.6687
 31
0.0
  0
LINE
  8
0
 62
     0
 10
24.5249
 20
31.6687
 30
0.0
 11
24.5249
 21
32.6981
 31
0.0
  0
LINE
  8
0
 62
     0
 10
24.5249
 20
32.6981
 30
0.0
 11
22.9499
 21
32.6981
 31
0.0
  0
LINE
  8
0
 62
     0
 10
22.9499
 20
32.6981
 30
0.0
 11
22.9499
 21
31.8975
 31
0.0
  0
LINE
  8
0
 62
     0
 10
22.9499
 20
31.8975
 30
0.0
 11
21.2246
 21
31.8975
 31
0.0
  0
LINE
  8
0
 62
     0
 10
21.2246
 20
31.8975
 30
0.0
 11
21.2246
 21
30.9177
 31
0.0
  0
LINE
  8
0
 62
     0
 10
21.2246
 20
30.9177
 30
0.0
 11
17.9241
 21
30.9177
 31
0.0
  0
LINE
  8
0
 62
     0
 10
17.9241
 20
30.9177
 30
0.0
 11
17.9241
 21
31.8975
 31
0.0
  0
LINE
  8
0
 62
     0
 10
17.9241
 20
31.8975
 30
0.0
 11
16.2994
 21
31.8975
 31
0.0
  0
LINE
  8
0
 62
     0
 10
16.2994
 20
31.8975
 30
0.0
 11
16.2994
 21
38.1674
 31
0.0
  0
LINE
  8
0
 62
     0
 10
16.2994
 20
38.1674
 30
0.0
 11
15.4244
 21
38.1674
 31
0.0
  0
LINE
  8
0
 62
     0
 10
15.4244
 20
38.1674
 30
0.0
 11
15.4244
 21
40.9677
 31
0.0
  0
LINE
  8
0
 62
     0
 10
15.4244
 20
40.9677
 30
0.0
 11
16.2994
 21
40.9677
 31
0.0
  0
LINE
  8
0
 62
     0
 10
16.2994
 20
40.9677
 30
0.0
 11
16.2994
 21
44.1978
 31
0.0
  0
LINE
  8
0
 62
     0
 10
16.2994
 20
44.1978
 30
0.0
 11
17.9241
 21
44.1978
 31
0.0
  0
LINE
  8
0
 62
     0
 10
17.9241
 20
44.1978
 30
0.0
 11
17.9241
 21
45.1185
 31
0.0
  0
LINE
  8
0
 62
     0
 10
17.9241
 20
45.1185
 30
0.0
 11
21.2246
 21
45.1185
 31
0.0
  0
LINE
  8
0
 62
     0
 10
21.2246
 20
45.1185
 30
0.0
 11
21.2246
 21
44.1978
 31
0.0
  0
LINE
  8
0
 62
     0
 10
21.2246
 20
44.1978
 30
0.0
 11
22.9499
 21
44.1978
 31
0.0
  0
LINE
  8
0
 62
     0
 10
22.9499
 20
44.1978
 30
0.0
 11
22.9499
 21
43.3987
 31
0.0
  0
LINE
  8
0
 62
     0
 10
22.9499
 20
43.3987
 30
0.0
 11
24.5249
 21
43.3987
 31
0.0
  0
LINE
  8
0
 62
     0
 10
24.5249
 20
43.3987
 30
0.0
 11
24.5249
 21
45.6681
 31
0.0
  0
LINE
  8
0
 62
     0
 10
24.5249
 20
45.6681
 30
0.0
 11
38.5244
 21
45.6681
 31
0.0
  0
LINE
  8
0
 62
     0
 10
38.5244
 20
45.6681
 30
0.0
 11
38.5244
 21
43.3987
 31
0.0
  0
LINE
  8
0
 62
     0
 10
38.5244
 20
43.3987
 30
0.0
 11
40.0995
 21
43.3987
 31
0.0
  0
LINE
  8
0
 62
     0
 10
40.0995
 20
43.3987
 30
0.0
 11
40.0995
 21
44.1978
 31
0.0
  0
LINE
  8
0
 62
     0
 10
40.0995
 20
44.1978
 30
0.0
 11
41.825
 21
44.1978
 31
0.0
  0
LINE
  8
0
 62
     0
 10
41.825
 20
44.1978
 30
0.0
 11
41.825
 21
45.1185
 31
0.0
  0
LINE
  8
0
 62
     0
 10
41.825
 20
45.1185
 30
0.0
 11
45.1252
 21
45.1185
 31
0.0
  0
LINE
  8
0
 62
     0
 10
45.1252
 20
45.1185
 30
0.0
 11
45.1252
 21
44.1978
 31
0.0
  0
LINE
  8
0
 62
     0
 10
45.1252
 20
44.1978
 30
0.0
 11
46.7501
 21
44.1978
 31
0.0
  0
LINE
  8
0
 62
     0
 10
46.7501
 20
44.1978
 30
0.0
 11
46.7501
 21
40.9677
 31
0.0
  0
LINE
  8
0
 62
     0
 10
46.7501
 20
40.9677
 30
0.0
 11
47.625
 21
40.9677
 31
0.0
  0
LINE
  8
0
 62
     0
 10
47.625
 20
40.9677
 30
0.0
 11
47.625
 21
38.1674
 31
0.0
  0
LINE
  8
0
 62
     0
 10
47.625
 20
38.1674
 30
0.0
 11
46.7501
 21
38.1674
 31
0.0
  0
LINE
  8
0
 62
     0
 10
38.8126
 20
26.6182
 30
0.0
 11
52.8133
 21
26.6182
 31
0.0
  0
LINE
  8
0
 62
     0
 10
52.8133
 20
26.6182
 30
0.0
 11
52.8133
 21
12.6187
 31
0.0
  0
LINE
  8
0
 62
     0
 10
52.8133
 20
12.6187
 30
0.0
 11
38.8126
 21
12.6187
 31
0.0
  0
LINE
  8
0
 62
     0
 10
38.8126
 20
12.6187
 30
0.0
 11
38.8126
 21
26.6182
 31
0.0
  0
LINE
  8
0
 62
     0
 10
41.1939
 20
83.7681
 30
0.0
 11
55.1931
 21
83.7681
 31
0.0
  0
LINE
  8
0
 62
     0
 10
55.1931
 20
83.7681
 30
0.0
 11
55.1931
 21
69.7689
 31
0.0
  0
LINE
  8
0
 62
     0
 10
55.1931
 20
69.7689
 30
0.0
 11
41.1939
 21
69.7689
 31
0.0
  0
LINE
  8
0
 62
     0
 10
41.1939
 20
69.7689
 30
0.0
 11
41.1939
 21
83.7681
 31
0.0
  0
LINE
  8
0
 62
     0
 10
45.9564
 20
64.7181
 30
0.0
 11
59.9556
 21
64.7181
 31
0.0
  0
LINE
  8
0
 62
     0
 10
59.9556
 20
64.7181
 30
0.0
 11
59.9556
 21
50.7189
 31
0.0
  0
LINE
  8
0
 62
     0
 10
59.9556
 20
50.7189
 30
0.0
 11
45.9564
 21
50.7189
 31
0.0
  0
LINE
  8
0
 62
     0
 10
45.9564
 20
50.7189
 30
0.0
 11
45.9564
 21
64.7181
 31
0.0
  0
LINE
  8
0
 62
     0
 10
50.7189
 20
102.818
 30
0.0
 11
64.7181
 21
102.818
 31
0.0
  0
LINE
  8
0
 62
     0
 10
64.7181
 20
102.818
 30
0.0
 11
64.7181
 21
88.8189
 31
0.0
  0
LINE
  8
0
 62
     0
 10
64.7181
 20
88.8189
 30
0.0
 11
50.7189
 21
88.8189
 31
0.0
  0
LINE
  8
0
 62
     0
 10
50.7189
 20
88.8189
 30
0.0
 11
50.7189
 21
102.818
 31
0.0
  0
LINE
  8
0
 62
     0
 10
55.4814
 20
45.6681
 30
0.0
 11
69.4821
 21
45.6681
 31
0.0
  0
LINE
  8
0
 62
     0
 10
69.4821
 20
45.6681
 30
0.0
 11
69.4821
 21
31.6687
 31
0.0
  0
LINE
  8
0
 62
     0
 10
69.4821
 20
31.6687
 30
0.0
 11
55.4814
 21
31.6687
 31
0.0
  0
LINE
  8
0
 62
     0
 10
55.4814
 20
31.6687
 30
0.0
 11
55.4814
 21
45.6681
 31
0.0
  0
LINE
  8
0
 62
     0
 10
60.2439
 20
83.7681
 30
0.0
 11
74.2431
 21
83.7681
 31
0.0
  0
LINE
  8
0
 62
     0
 10
74.2431
 20
83.7681
 30
0.0
 11
74.2431
 21
69.7689
 31
0.0
  0
LINE
  8
0
 62
     0
 10
74.2431
 20
69.7689
 30
0.0
 11
60.2439
 21
69.7689
 31
0.0
  0
LINE
  8
0
 62
     0
 10
60.2439
 20
69.7689
 30
0.0
 11
60.2439
 21
83.7681
 31
0.0
  0
LINE
  8
0
 62
     0
 10
62.6251
 20
26.6182
 30
0.0
 11
76.6244
 21
26.6182
 31
0.0
  0
LINE
  8
0
 62
     0
 10
76.6244
 20
26.6182
 30
0.0
 11
76.6244
 21
12.6187
 31
0.0
  0
LINE
  8
0
 62
     0
 10
76.6244
 20
12.6187
 30
0.0
 11
62.6251
 21
12.6187
 31
0.0
  0
LINE
  8
0
 62
     0
 10
62.6251
 20
12.6187
 30
0.0
 11
62.6251
 21
26.6182
 31
0.0
  0
LINE
  8
0
 62
     0
 10
65.0064
 20
64.7181
 30
0.0
 11
79.0056
 21
64.7181
 31
0.0
  0
LINE
  8
0
 62
     0
 10
79.0056
 20
64.7181
 30
0.0
 11
79.0056
 21
50.7189
 31
0.0
  0
LINE
  8
0
 62
     0
 10
79.0056
 20
50.7189
 30
0.0
 11
65.0064
 21
50.7189
 31
0.0
  0
LINE
  8
0
 62
     0
 10
65.0064
 20
50.7189
 30
0.0
 11
65.0064
 21
64.7181
 31
0.0
  0
LINE
  8
0
 62
     0
 10
69.7689
 20
102.818
 30
0.0
 11
83.7681
 21
102.818
 31
0.0
  0
LINE
  8
0
 62
     0
 10
83.7681
 20
102.818
 30
0.0
 11
83.7681
 21
88.8189
 31
0.0
  0
LINE
  8
0
 62
     0
 10
83.7681
 20
88.8189
 30
0.0
 11
69.7689
 21
88.8189
 31
0.0
  0
LINE
  8
0
 62
     0
 10
69.7689
 20
88.8189
 30
0.0
 11
69.7689
 21
102.818
 31
0.0
  0
LINE
  8
0
 62
     0
 10
74.5314
 20
45.6681
 30
0.0
 11
88.5321
 21
45.6681
 31
0.0
  0
LINE
  8
0
 62
     0
 10
88.5321
 20
45.6681
 30
0.0
 11
88.5321
 21
31.6687
 31
0.0
  0
LINE
  8
0
 62
     0
 10
88.5321
 20
31.6687
 30
0.0
 11
74.5314
 21
31.6687
 31
0.0
  0
LINE
  8
0
 62
     0
 10
74.5314
 20
31.6687
 30
0.0
 11
74.5314
 21
45.6681
 31
0.0
  0
LINE
  8
0
 62
     0
 10
79.2939
 20
83.7681
 30
0.0
 11
93.2931
 21
83.7681
 31
0.0
  0
LINE
  8
0
 62
     0
 10
93.2931
 20
83.7681
 30
0.0
 11
93.2931
 21
69.7689
 31
0.0
  0
LINE
  8
0
 62
     0
 10
93.2931
 20
69.7689
 30
0.0
 11
79.2939
 21
69.7689
 31
0.0
  0
LINE
  8
0
 62
     0
 10
79.2939
 20
69.7689
 30
0.0
 11
79.2939
 21
83.7681
 31
0.0
  0
LINE
  8
0
 62
     0
 10
84.0564
 20
64.7181
 30
0.0
 11
98.0556
 21
64.7181
 31
0.0
  0
LINE
  8
0
 62
     0
 10
98.0556
 20
64.7181
 30
0.0
 11
98.0556
 21
50.7189
 31
0.0
  0
LINE
  8
0
 62
     0
 10
98.0556
 20
50.7189
 30
0.0
 11
84.0564
 21
50.7189
 31
0.0
  0
LINE
  8
0
 62
     0
 10
84.0564
 20
50.7189
 30
0.0
 11
84.0564
 21
64.7181
 31
0.0
  0
LINE
  8
0
 62
     0
 10
88.8189
 20
102.818
 30
0.0
 11
102.818
 21
102.818
 31
0.0
  0
LINE
  8
0
 62
     0
 10
102.818
 20
102.818
 30
0.0
 11
102.818
 21
88.8189
 31
0.0
  0
LINE
  8
0
 62
     0
 10
102.818
 20
88.8189
 30
0.0
 11
88.8189
 21
88.8189
 31
0.0
  0
LINE
  8
0
 62
     0
 10
88.8189
 20
88.8189
 30
0.0
 11
88.8189
 21
102.818
 31
0.0
  0
LINE
  8
0
 62
     0
 10
93.5814
 20
45.6681
 30
0.0
 11
107.582
 21
45.6681
 31
0.0
  0
LINE
  8
0
 62
     0
 10
107.582
 20
45.6681
 30
0.0
 11
107.582
 21
31.6687
 31
0.0
  0
LINE
  8
0
 62
     0
 10
107.582
 20
31.6687
 30
0.0
 11
93.5814
 21
31.6687
 31
0.0
  0
LINE
  8
0
 62
     0
 10
93.5814
 20
31.6687
 30
0.0
 11
93.5814
 21
45.6681
 31
0.0
  0
LINE
  8
0
 62
     0
 10
98.3439
 20
83.7681
 30
0.0
 11
112.343
 21
83.7681
 31
0.0
  0
LINE
  8
0
 62
     0
 10
112.343
 20
83.7681
 30
0.0
 11
112.343
 21
69.7689
 31
0.0
  0
LINE
  8
0
 62
     0
 10
112.343
 20
69.7689
 30
0.0
 11
98.3439
 21
69.7689
 31
0.0
  0
LINE
  8
0
 62
     0
 10
98.3439
 20
69.7689
 30
0.0
 11
98.3439
 21
83.7681
 31
0.0
  0
LINE
  8
0
 62
     0
 10
103.106
 20
64.7181
 30
0.0
 11
117.106
 21
64.7181
 31
0.0
  0
LINE
  8
0
 62
     0
 10
117.106
 20
64.7181
 30
0.0
 11
117.106
 21
50.7189
 31
0.0
  0
LINE
  8
0
 62
     0
 10
117.106
 20
50.7189
 30
0.0
 11
103.106
 21
50.7189
 31
0.0
  0
LINE
  8
0
 62
     0
 10
103.106
 20
50.7189
 30
0.0
 11
103.106
 21
64.7181
 31
0.0
  0
LINE
  8
0
 62
     0
 10
107.869
 20
102.818
 30
0.0
 11
121.868
 21
102.818
 31
0.0
  0
LINE
  8
0
 62
     0
 10
121.868
 20
102.818
 30
0.0
 11
121.868
 21
88.8189
 31
0.0
  0
LINE
  8
0
 62
     0
 10
121.868
 20
88.8189
 30
0.0
 11
107.869
 21
88.8189
 31
0.0
  0
LINE
  8
0
 62
     0
 10
107.869
 20
88.8189
 30
0.0
 11
107.869
 21
102.818
 31
0.0
  0
LINE
  8
0
 62
     0
 10
112.631
 20
45.6681
 30
0.0
 11
126.632
 21
45.6681
 31
0.0
  0
LINE
  8
0
 62
     0
 10
126.632
 20
45.6681
 30
0.0
 11
126.632
 21
31.6687
 31
0.0
  0
LINE
  8
0
 62
     0
 10
126.632
 20
31.6687
 30
0.0
 11
112.631
 21
31.6687
 31
0.0
  0
LINE
  8
0
 62
     0
 10
112.631
 20
31.6687
 30
0.0
 11
112.631
 21
45.6681
 31
0.0
  0
LINE
  8
0
 62
     0
 10
117.394
 20
83.7681
 30
0.0
 11
131.393
 21
83.7681
 31
0.0
  0
LINE
  8
0
 62
     0
 10
131.393
 20
83.7681
 30
0.0
 11
131.393
 21
69.7689
 31
0.0
  0
LINE
  8
0
 62
     0
 10
131.393
 20
69.7689
 30
0.0
 11
117.394
 21
69.7689
 31
0.0
  0
LINE
  8
0
 62
     0
 10
117.394
 20
69.7689
 30
0.0
 11
117.394
 21
83.7681
 31
0.0
  0
LINE
  8
0
 62
     0
 10
122.156
 20
64.7181
 30
0.0
 11
136.156
 21
64.7181
 31
0.0
  0
LINE
  8
0
 62
     0
 10
136.156
 20
64.7181
 30
0.0
 11
136.156
 21
50.7189
 31
0.0
  0
LINE
  8
0
 62
     0
 10
136.156
 20
50.7189
 30
0.0
 11
122.156
 21
50.7189
 31
0.0
  0
LINE
  8
0
 62
     0
 10
122.156
 20
50.7189
 30
0.0
 11
122.156
 21
64.7181
 31
0.0
  0
LINE
  8
0
 62
     0
 10
126.919
 20
102.818
 30
0.0
 11
140.918
 21
102.818
 31
0.0
  0
LINE
  8
0
 62
     0
 10
140.918
 20
102.818
 30
0.0
 11
140.918
 21
88.8189
 31
0.0
  0
LINE
  8
0
 62
     0
 10
140.918
 20
88.8189
 30
0.0
 11
126.919
 21
88.8189
 31
0.0
  0
LINE
  8
0
 62
     0
 10
126.919
 20
88.8189
 30
0.0
 11
126.919
 21
102.818
 31
0.0
  0
LINE
  8
0
 62
     0
 10
131.681
 20
45.6681
 30
0.0
 11
145.682
 21
45.6681
 31
0.0
  0
LINE
  8
0
 62
     0
 10
145.682
 20
45.6681
 30
0.0
 11
145.682
 21
31.6687
 31
0.0
  0
LINE
  8
0
 62
     0
 10
145.682
 20
31.6687
 30
0.0
 11
131.681
 21
31.6687
 31
0.0
  0
LINE
  8
0
 62
     0
 10
131.681
 20
31.6687
 30
0.0
 11
131.681
 21
45.6681
 31
0.0
  0
LINE
  8
0
 62
     0
 10
136.444
 20
83.7681
 30
0.0
 11
150.443
 21
83.7681
 31
0.0
  0
LINE
  8
0
 62
     0
 10
150.443
 20
83.7681
 30
0.0
 11
150.443
 21
69.7689
 31
0.0
  0
LINE
  8
0
 62
     0
 10
150.443
 20
69.7689
 30
0.0
 11
136.444
 21
69.7689
 31
0.0
  0
LINE
  8
0
 62
     0
 10
136.444
 20
69.7689
 30
0.0
 11
136.444
 21
83.7681
 31
0.0
  0
LINE
  8
0
 62
     0
 10
141.206
 20
64.7181
 30
0.0
 11
155.207
 21
64.7181
 31
0.0
  0
LINE
  8
0
 62
     0
 10
155.207
 20
64.7181
 30
0.0
 11
155.207
 21
50.7189
 31
0.0
  0
LINE
  8
0
 62
     0
 10
155.207
 20
50.7189
 30
0.0
 11
141.206
 21
50.7189
 31
0.0
  0
LINE
  8
0
 62
     0
 10
141.206
 20
50.7189
 30
0.0
 11
141.206
 21
64.7181
 31
0.0
  0
LINE
  8
0
 62
     0
 10
145.969
 20
102.818
 30
0.0
 11
159.968
 21
102.818
 31
0.0
  0
LINE
  8
0
 62
     0
 10
159.968
 20
102.818
 30
0.0
 11
159.968
 21
88.8189
 31
0.0
  0
LINE
  8
0
 62
     0
 10
159.968
 20
88.8189
 30
0.0
 11
145.969
 21
88.8189
 31
0.0
  0
LINE
  8
0
 62
     0
 10
145.969
 20
88.8189
 30
0.0
 11
145.969
 21
102.818
 31
0.0
  0
LINE
  8
0
 62
     0
 10
150.731
 20
45.6681
 30
0.0
 11
164.732
 21
45.6681
 31
0.0
  0
LINE
  8
0
 62
     0
 10
164.732
 20
45.6681
 30
0.0
 11
164.732
 21
31.6687
 31
0.0
  0
LINE
  8
0
 62
     0
 10
164.732
 20
31.6687
 30
0.0
 11
150.731
 21
31.6687
 31
0.0
  0
LINE
  8
0
 62
     0
 10
150.731
 20
31.6687
 30
0.0
 11
150.731
 21
45.6681
 31
0.0
  0
LINE
  8
0
 62
     0
 10
155.494
 20
83.7681
 30
0.0
 11
169.493
 21
83.7681
 31
0.0
  0
LINE
  8
0
 62
     0
 10
169.493
 20
83.7681
 30
0.0
 11
169.493
 21
69.7689
 31
0.0
  0
LINE
  8
0
 62
     0
 10
169.493
 20
69.7689
 30
0.0
 11
155.494
 21
69.7689
 31
0.0
  0
LINE
  8
0
 62
     0
 10
155.494
 20
69.7689
 30
0.0
 11
155.494
 21
83.7681
 31
0.0
  0
LINE
  8
0
 62
     0
 10
160.256
 20
64.7181
 30
0.0
 11
174.257
 21
64.7181
 31
0.0
  0
LINE
  8
0
 62
     0
 10
174.257
 20
64.7181
 30
0.0
 11
174.257
 21
50.7189
 31
0.0
  0
LINE
  8
0
 62
     0
 10
174.257
 20
50.7189
 30
0.0
 11
160.256
 21
50.7189
 31
0.0
  0
LINE
  8
0
 62
     0
 10
160.256
 20
50.7189
 30
0.0
 11
160.256
 21
64.7181
 31
0.0
  0
LINE
  8
0
 62
     0
 10
165.019
 20
102.818
 30
0.0
 11
179.018
 21
102.818
 31
0.0
  0
LINE
  8
0
 62
     0
 10
179.018
 20
102.818
 30
0.0
 11
179.018
 21
88.8189
 31
0.0
  0
LINE
  8
0
 62
     0
 10
179.018
 20
88.8189
 30
0.0
 11
165.019
 21
88.8189
 31
0.0
  0
LINE
  8
0
 62
     0
 10
165.019
 20
88.8189
 30
0.0
 11
165.019
 21
102.818
 31
0.0
  0
LINE
  8
0
 62
     0
 10
169.781
 20
45.6681
 30
0.0
 11
183.782
 21
45.6681
 31
0.0
  0
LINE
  8
0
 62
     0
 10
183.782
 20
45.6681
 30
0.0
 11
183.782
 21
31.6687
 31
0.0
  0
LINE
  8
0
 62
     0
 10
183.782
 20
31.6687
 30
0.0
 11
169.781
 21
31.6687
 31
0.0
  0
LINE
  8
0
 62
     0
 10
169.781
 20
31.6687
 30
0.0
 11
169.781
 21
45.6681
 31
0.0
  0
LINE
  8
0
 62
     0
 10
174.544
 20
83.7681
 30
0.0
 11
188.543
 21
83.7681
 31
0.0
  0
LINE
  8
0
 62
     0
 10
188.543
 20
83.7681
 30
0.0
 11
188.543
 21
69.7689
 31
0.0
  0
LINE
  8
0
 62
     0
 10
188.543
 20
69.7689
 30
0.0
 11
174.544
 21
69.7689
 31
0.0
  0
LINE
  8
0
 62
     0
 10
174.544
 20
69.7689
 30
0.0
 11
174.544
 21
83.7681
 31
0.0
  0
LINE
  8
0
 62
     0
 10
179.306
 20
64.7181
 30
0.0
 11
193.307
 21
64.7181
 31
0.0
  0
LINE
  8
0
 62
     0
 10
193.307
 20
64.7181
 30
0.0
 11
193.307
 21
50.7189
 31
0.0
  0
LINE
  8
0
 62
     0
 10
193.307
 20
50.7189
 30
0.0
 11
179.306
 21
50.7189
 31
0.0
  0
LINE
  8
0
 62
     0
 10
179.306
 20
50.7189
 30
0.0
 11
179.306
 21
64.7181
 31
0.0
  0
LINE
  8
0
 62
     0
 10
194.388
 20
19.1175
 30
0.0
 11
194.388
 21
12.8475
 31
0.0
  0
LINE
  8
0
 62
     0
 10
194.388
 20
12.8475
 30
0.0
 11
192.713
 21
12.8475
 31
0.0
  0
LINE
  8
0
 62
     0
 10
192.713
 20
12.8475
 30
0.0
 11
192.713
 21
11.8677
 31
0.0
  0
LINE
  8
0
 62
     0
 10
192.713
 20
11.8677
 30
0.0
 11
189.413
 21
11.8677
 31
0.0
  0
LINE
  8
0
 62
     0
 10
189.413
 20
11.8677
 30
0.0
 11
189.413
 21
12.8475
 31
0.0
  0
LINE
  8
0
 62
     0
 10
189.413
 20
12.8475
 30
0.0
 11
187.738
 21
12.8475
 31
0.0
  0
LINE
  8
0
 62
     0
 10
187.738
 20
12.8475
 30
0.0
 11
187.738
 21
17.3178
 31
0.0
  0
LINE
  8
0
 62
     0
 10
187.738
 20
17.3178
 30
0.0
 11
148.063
 21
17.3178
 31
0.0
  0
LINE
  8
0
 62
     0
 10
148.063
 20
17.3178
 30
0.0
 11
148.063
 21
12.6187
 31
0.0
  0
LINE
  8
0
 62
     0
 10
148.063
 20
12.6187
 30
0.0
 11
134.063
 21
12.6187
 31
0.0
  0
LINE
  8
0
 62
     0
 10
134.063
 20
12.6187
 30
0.0
 11
134.063
 21
17.3178
 31
0.0
  0
LINE
  8
0
 62
     0
 10
134.063
 20
17.3178
 30
0.0
 11
94.3875
 21
17.3178
 31
0.0
  0
LINE
  8
0
 62
     0
 10
94.3875
 20
17.3178
 30
0.0
 11
94.3875
 21
12.8475
 31
0.0
  0
LINE
  8
0
 62
     0
 10
94.3875
 20
12.8475
 30
0.0
 11
92.7132
 21
12.8475
 31
0.0
  0
LINE
  8
0
 62
     0
 10
92.7132
 20
12.8475
 30
0.0
 11
92.7132
 21
11.8677
 31
0.0
  0
LINE
  8
0
 62
     0
 10
92.7132
 20
11.8677
 30
0.0
 11
89.4126
 21
11.8677
 31
0.0
  0
LINE
  8
0
 62
     0
 10
89.4126
 20
11.8677
 30
0.0
 11
89.4126
 21
12.8475
 31
0.0
  0
LINE
  8
0
 62
     0
 10
89.4126
 20
12.8475
 30
0.0
 11
87.7383
 21
12.8475
 31
0.0
  0
LINE
  8
0
 62
     0
 10
87.7383
 20
12.8475
 30
0.0
 11
87.7383
 21
19.1175
 31
0.0
  0
LINE
  8
0
 62
     0
 10
87.7383
 20
19.1175
 30
0.0
 11
86.8634
 21
19.1175
 31
0.0
  0
LINE
  8
0
 62
     0
 10
86.8634
 20
19.1175
 30
0.0
 11
86.8634
 21
21.9177
 31
0.0
  0
LINE
  8
0
 62
     0
 10
86.8634
 20
21.9177
 30
0.0
 11
87.7383
 21
21.9177
 31
0.0
  0
LINE
  8
0
 62
     0
 10
87.7383
 20
21.9177
 30
0.0
 11
87.7383
 21
25.1478
 31
0.0
  0
LINE
  8
0
 62
     0
 10
87.7383
 20
25.1478
 30
0.0
 11
89.4126
 21
25.1478
 31
0.0
  0
LINE
  8
0
 62
     0
 10
89.4126
 20
25.1478
 30
0.0
 11
89.4126
 21
26.0683
 31
0.0
  0
LINE
  8
0
 62
     0
 10
89.4126
 20
26.0683
 30
0.0
 11
92.7132
 21
26.0683
 31
0.0
  0
LINE
  8
0
 62
     0
 10
92.7132
 20
26.0683
 30
0.0
 11
92.7132
 21
25.1478
 31
0.0
  0
LINE
  8
0
 62
     0
 10
92.7132
 20
25.1478
 30
0.0
 11
94.3875
 21
25.1478
 31
0.0
  0
LINE
  8
0
 62
     0
 10
94.3875
 20
25.1478
 30
0.0
 11
94.3875
 21
21.9177
 31
0.0
  0
LINE
  8
0
 62
     0
 10
94.3875
 20
21.9177
 30
0.0
 11
134.063
 21
21.9177
 31
0.0
  0
LINE
  8
0
 62
     0
 10
134.063
 20
21.9177
 30
0.0
 11
134.063
 21
26.6182
 31
0.0
  0
LINE
  8
0
 62
     0
 10
134.063
 20
26.6182
 30
0.0
 11
148.063
 21
26.6182
 31
0.0
  0
LINE
  8
0
 62
     0
 10
148.063
 20
26.6182
 30
0.0
 11
148.063
 21
21.9177
 31
0.0
  0
LINE
  8
0
 62
     0
 10
148.063
 20
21.9177
 30
0.0
 11
187.738
 21
21.9177
 31
0.0
  0
LINE
  8
0
 62
     0
 10
187.738
 20
21.9177
 30
0.0
 11
187.738
 21
25.1478
 31
0.0
  0
LINE
  8
0
 62
     0
 10
187.738
 20
25.1478
 30
0.0
 11
189.413
 21
25.1478
 31
0.0
  0
LINE
  8
0
 62
     0
 10
189.413
 20
25.1478
 30
0.0
 11
189.413
 21
26.0683
 31
0.0
  0
LINE
  8
0
 62
     0
 10
189.413
 20
26.0683
 30
0.0
 11
192.713
 21
26.0683
 31
0.0
  0
LINE
  8
0
 62
     0
 10
192.713
 20
26.0683
 30
0.0
 11
192.713
 21
25.1478
 31
0.0
  0
LINE
  8
0
 62
     0
 10
192.713
 20
25.1478
 30
0.0
 11
194.388
 21
25.1478
 31
0.0
  0
LINE
  8
0
 62
     0
 10
194.388
 20
25.1478
 30
0.0
 11
194.388
 21
21.9177
 31
0.0
  0
LINE
  8
0
 62
     0
 10
194.388
 20
21.9177
 30
0.0
 11
195.263
 21
21.9177
 31
0.0
  0
LINE
  8
0
 62
     0
 10
195.263
 20
21.9177
 30
0.0
 11
195.263
 21
19.1175
 31
0.0
  0
LINE
  8
0
 62
     0
 10
195.263
 20
19.1175
 30
0.0
 11
194.388
 21
19.1175
 31
0.0
  0
LINE
  8
0
 62
     0
 10
184.069
 20
102.818
 30
0.0
 11
198.068
 21
102.818
 31
0.0
  0
LINE
  8
0
 62
     0
 10
198.068
 20
102.818
 30
0.0
 11
198.068
 21
88.8189
 31
0.0
  0
LINE
  8
0
 62
     0
 10
198.068
 20
88.8189
 30
0.0
 11
184.069
 21
88.8189
 31
0.0
  0
LINE
  8
0
 62
     0
 10
184.069
 20
88.8189
 30
0.0
 11
184.069
 21
102.818
 31
0.0
  0
LINE
  8
0
 62
     0
 10
188.831
 20
45.6681
 30
0.0
 11
202.832
 21
45.6681
 31
0.0
  0
LINE
  8
0
 62
     0
 10
202.832
 20
45.6681
 30
0.0
 11
202.832
 21
31.6687
 31
0.0
  0
LINE
  8
0
 62
     0
 10
202.832
 20
31.6687
 30
0.0
 11
188.831
 21
31.6687
 31
0.0
  0
LINE
  8
0
 62
     0
 10
188.831
 20
31.6687
 30
0.0
 11
188.831
 21
45.6681
 31
0.0
  0
LINE
  8
0
 62
     0
 10
193.594
 20
83.7681
 30
0.0
 11
207.593
 21
83.7681
 31
0.0
  0
LINE
  8
0
 62
     0
 10
207.593
 20
83.7681
 30
0.0
 11
207.593
 21
69.7689
 31
0.0
  0
LINE
  8
0
 62
     0
 10
207.593
 20
69.7689
 30
0.0
 11
193.594
 21
69.7689
 31
0.0
  0
LINE
  8
0
 62
     0
 10
193.594
 20
69.7689
 30
0.0
 11
193.594
 21
83.7681
 31
0.0
  0
LINE
  8
0
 62
     0
 10
198.356
 20
64.7181
 30
0.0
 11
212.357
 21
64.7181
 31
0.0
  0
LINE
  8
0
 62
     0
 10
212.357
 20
64.7181
 30
0.0
 11
212.357
 21
50.7189
 31
0.0
  0
LINE
  8
0
 62
     0
 10
212.357
 20
50.7189
 30
0.0
 11
198.356
 21
50.7189
 31
0.0
  0
LINE
  8
0
 62
     0
 10
198.356
 20
50.7189
 30
0.0
 11
198.356
 21
64.7181
 31
0.0
  0
LINE
  8
0
 62
     0
 10
203.119
 20
102.818
 30
0.0
 11
217.118
 21
102.818
 31
0.0
  0
LINE
  8
0
 62
     0
 10
217.118
 20
102.818
 30
0.0
 11
217.118
 21
88.8189
 31
0.0
  0
LINE
  8
0
 62
     0
 10
217.118
 20
88.8189
 30
0.0
 11
203.119
 21
88.8189
 31
0.0
  0
LINE
  8
0
 62
     0
 10
203.119
 20
88.8189
 30
0.0
 11
203.119
 21
102.818
 31
0.0
  0
LINE
  8
0
 62
     0
 10
205.5
 20
26.6182
 30
0.0
 11
219.499
 21
26.6182
 31
0.0
  0
LINE
  8
0
 62
     0
 10
219.499
 20
26.6182
 30
0.0
 11
219.499
 21
12.6187
 31
0.0
  0
LINE
  8
0
 62
     0
 10
219.499
 20
12.6187
 30
0.0
 11
205.5
 21
12.6187
 31
0.0
  0
LINE
  8
0
 62
     0
 10
205.5
 20
12.6187
 30
0.0
 11
205.5
 21
26.6182
 31
0.0
  0
LINE
  8
0
 62
     0
 10
207.881
 20
45.6681
 30
0.0
 11
221.882
 21
45.6681
 31
0.0
  0
LINE
  8
0
 62
     0
 10
221.882
 20
45.6681
 30
0.0
 11
221.882
 21
31.6687
 31
0.0
  0
LINE
  8
0
 62
     0
 10
221.882
 20
31.6687
 30
0.0
 11
207.881
 21
31.6687
 31
0.0
  0
LINE
  8
0
 62
     0
 10
207.881
 20
31.6687
 30
0.0
 11
207.881
 21
45.6681
 31
0.0
  0
LINE
  8
0
 62
     0
 10
212.644
 20
83.7681
 30
0.0
 11
226.643
 21
83.7681
 31
0.0
  0
LINE
  8
0
 62
     0
 10
226.643
 20
83.7681
 30
0.0
 11
226.643
 21
69.7689
 31
0.0
  0
LINE
  8
0
 62
     0
 10
226.643
 20
69.7689
 30
0.0
 11
212.644
 21
69.7689
 31
0.0
  0
LINE
  8
0
 62
     0
 10
212.644
 20
69.7689
 30
0.0
 11
212.644
 21
83.7681
 31
0.0
  0
LINE
  8
0
 62
     0
 10
217.406
 20
64.7181
 30
0.0
 11
231.407
 21
64.7181
 31
0.0
  0
LINE
  8
0
 62
     0
 10
231.407
 20
64.7181
 30
0.0
 11
231.407
 21
50.7189
 31
0.0
  0
LINE
  8
0
 62
     0
 10
231.407
 20
50.7189
 30
0.0
 11
217.406
 21
50.7189
 31
0.0
  0
LINE
  8
0
 62
     0
 10
217.406
 20
50.7189
 30
0.0
 11
217.406
 21
64.7181
 31
0.0
  0
LINE
  8
0
 62
     0
 10
222.169
 20
102.818
 30
0.0
 11
236.168
 21
102.818
 31
0.0
  0
LINE
  8
0
 62
     0
 10
236.168
 20
102.818
 30
0.0
 11
236.168
 21
88.8189
 31
0.0
  0
LINE
  8
0
 62
     0
 10
236.168
 20
88.8189
 30
0.0
 11
222.169
 21
88.8189
 31
0.0
  0
LINE
  8
0
 62
     0
 10
222.169
 20
88.8189
 30
0.0
 11
222.169
 21
102.818
 31
0.0
  0
LINE
  8
0
 62
     0
 10
226.931
 20
45.6681
 30
0.0
 11
240.932
 21
45.6681
 31
0.0
  0
LINE
  8
0
 62
     0
 10
240.932
 20
45.6681
 30
0.0
 11
240.932
 21
31.6687
 31
0.0
  0
LINE
  8
0
 62
     0
 10
240.932
 20
31.6687
 30
0.0
 11
226.931
 21
31.6687
 31
0.0
  0
LINE
  8
0
 62
     0
 10
226.931
 20
31.6687
 30
0.0
 11
226.931
 21
45.6681
 31
0.0
  0
LINE
  8
0
 62
     0
 10
229.313
 20
26.6182
 30
0.0
 11
243.313
 21
26.6182
 31
0.0
  0
LINE
  8
0
 62
     0
 10
243.313
 20
26.6182
 30
0.0
 11
243.313
 21
12.6187
 31
0.0
  0
LINE
  8
0
 62
     0
 10
243.313
 20
12.6187
 30
0.0
 11
229.313
 21
12.6187
 31
0.0
  0
LINE
  8
0
 62
     0
 10
229.313
 20
12.6187
 30
0.0
 11
229.313
 21
26.6182
 31
0.0
  0
LINE
  8
0
 62
     0
 10
231.694
 20
83.7681
 30
0.0
 11
245.693
 21
83.7681
 31
0.0
  0
LINE
  8
0
 62
     0
 10
245.693
 20
83.7681
 30
0.0
 11
245.693
 21
69.7689
 31
0.0
  0
LINE
  8
0
 62
     0
 10
245.693
 20
69.7689
 30
0.0
 11
231.694
 21
69.7689
 31
0.0
  0
LINE
  8
0
 62
     0
 10
231.694
 20
69.7689
 30
0.0
 11
231.694
 21
83.7681
 31
0.0
  0
LINE
  8
0
 62
     0
 10
236.456
 20
64.7181
 30
0.0
 11
250.457
 21
64.7181
 31
0.0
  0
LINE
  8
0
 62
     0
 10
250.457
 20
64.7181
 30
0.0
 11
250.457
 21
50.7189
 31
0.0
  0
LINE
  8
0
 62
     0
 10
250.457
 20
50.7189
 30
0.0
 11
236.456
 21
50.7189
 31
0.0
  0
LINE
  8
0
 62
     0
 10
236.456
 20
50.7189
 30
0.0
 11
236.456
 21
64.7181
 31
0.0
  0
LINE
  8
0
 62
     0
 10
241.219
 20
102.818
 30
0.0
 11
255.218
 21
102.818
 31
0.0
  0
LINE
  8
0
 62
     0
 10
255.218
 20
102.818
 30
0.0
 11
255.218
 21
88.8189
 31
0.0
  0
LINE
  8
0
 62
     0
 10
255.218
 20
88.8189
 30
0.0
 11
241.219
 21
88.8189
 31
0.0
  0
LINE
  8
0
 62
     0
 10
241.219
 20
88.8189
 30
0.0
 11
241.219
 21
102.818
 31
0.0
  0
LINE
  8
0
 62
     0
 10
250.744
 20
83.7681
 30
0.0
 11
264.743
 21
83.7681
 31
0.0
  0
LINE
  8
0
 62
     0
 10
264.743
 20
83.7681
 30
0.0
 11
264.743
 21
69.7689
 31
0.0
  0
LINE
  8
0
 62
     0
 10
264.743
 20
69.7689
 30
0.0
 11
250.744
 21
69.7689
 31
0.0
  0
LINE
  8
0
 62
     0
 10
250.744
 20
69.7689
 30
0.0
 11
250.744
 21
83.7681
 31
0.0
  0
LINE
  8
0
 62
     0
 10
253.125
 20
26.6182
 30
0.0
 11
267.124
 21
26.6182
 31
0.0
  0
LINE
  8
0
 62
     0
 10
267.124
 20
26.6182
 30
0.0
 11
267.124
 21
12.6187
 31
0.0
  0
LINE
  8
0
 62
     0
 10
267.124
 20
12.6187
 30
0.0
 11
253.125
 21
12.6187
 31
0.0
  0
LINE
  8
0
 62
     0
 10
253.125
 20
12.6187
 30
0.0
 11
253.125
 21
26.6182
 31
0.0
  0
LINE
  8
0
 62
     0
 10
284.875
 20
38.1674
 30
0.0
 11
284.875
 21
31.8975
 31
0.0
  0
LINE
  8
0
 62
     0
 10
284.875
 20
31.8975
 30
0.0
 11
283.25
 21
31.8975
 31
0.0
  0
LINE
  8
0
 62
     0
 10
283.25
 20
31.8975
 30
0.0
 11
283.25
 21
30.9177
 31
0.0
  0
LINE
  8
0
 62
     0
 10
283.25
 20
30.9177
 30
0.0
 11
279.95
 21
30.9177
 31
0.0
  0
LINE
  8
0
 62
     0
 10
279.95
 20
30.9177
 30
0.0
 11
279.95
 21
31.8975
 31
0.0
  0
LINE
  8
0
 62
     0
 10
279.95
 20
31.8975
 30
0.0
 11
278.225
 21
31.8975
 31
0.0
  0
LINE
  8
0
 62
     0
 10
278.225
 20
31.8975
 30
0.0
 11
278.225
 21
32.6981
 31
0.0
  0
LINE
  8
0
 62
     0
 10
278.225
 20
32.6981
 30
0.0
 11
276.649
 21
32.6981
 31
0.0
  0
LINE
  8
0
 62
     0
 10
276.649
 20
32.6981
 30
0.0
 11
276.649
 21
31.6687
 31
0.0
  0
LINE
  8
0
 62
     0
 10
276.649
 20
31.6687
 30
0.0
 11
262.65
 21
31.6687
 31
0.0
  0
LINE
  8
0
 62
     0
 10
262.65
 20
31.6687
 30
0.0
 11
262.65
 21
32.6981
 31
0.0
  0
LINE
  8
0
 62
     0
 10
262.65
 20
32.6981
 30
0.0
 11
261.075
 21
32.6981
 31
0.0
  0
LINE
  8
0
 62
     0
 10
261.075
 20
32.6981
 30
0.0
 11
261.075
 21
31.8975
 31
0.0
  0
LINE
  8
0
 62
     0
 10
261.075
 20
31.8975
 30
0.0
 11
259.35
 21
31.8975
 31
0.0
  0
LINE
  8
0
 62
     0
 10
259.35
 20
31.8975
 30
0.0
 11
259.35
 21
30.9177
 31
0.0
  0
LINE
  8
0
 62
     0
 10
259.35
 20
30.9177
 30
0.0
 11
256.049
 21
30.9177
 31
0.0
  0
LINE
  8
0
 62
     0
 10
256.049
 20
30.9177
 30
0.0
 11
256.049
 21
31.8975
 31
0.0
  0
LINE
  8
0
 62
     0
 10
256.049
 20
31.8975
 30
0.0
 11
254.424
 21
31.8975
 31
0.0
  0
LINE
  8
0
 62
     0
 10
254.424
 20
31.8975
 30
0.0
 11
254.424
 21
38.1674
 31
0.0
  0
LINE
  8
0
 62
     0
 10
254.424
 20
38.1674
 30
0.0
 11
253.55
 21
38.1674
 31
0.0
  0
LINE
  8
0
 62
     0
 10
253.55
 20
38.1674
 30
0.0
 11
253.55
 21
40.9677
 31
0.0
  0
LINE
  8
0
 62
     0
 10
253.55
 20
40.9677
 30
0.0
 11
254.424
 21
40.9677
 31
0.0
  0
LINE
  8
0
 62
     0
 10
254.424
 20
40.9677
 30
0.0
 11
254.424
 21
44.1978
 31
0.0
  0
LINE
  8
0
 62
     0
 10
254.424
 20
44.1978
 30
0.0
 11
256.049
 21
44.1978
 31
0.0
  0
LINE
  8
0
 62
     0
 10
256.049
 20
44.1978
 30
0.0
 11
256.049
 21
45.1185
 31
0.0
  0
LINE
  8
0
 62
     0
 10
256.049
 20
45.1185
 30
0.0
 11
259.35
 21
45.1185
 31
0.0
  0
LINE
  8
0
 62
     0
 10
259.35
 20
45.1185
 30
0.0
 11
259.35
 21
44.1978
 31
0.0
  0
LINE
  8
0
 62
     0
 10
259.35
 20
44.1978
 30
0.0
 11
261.075
 21
44.1978
 31
0.0
  0
LINE
  8
0
 62
     0
 10
261.075
 20
44.1978
 30
0.0
 11
261.075
 21
43.3987
 31
0.0
  0
LINE
  8
0
 62
     0
 10
261.075
 20
43.3987
 30
0.0
 11
262.65
 21
43.3987
 31
0.0
  0
LINE
  8
0
 62
     0
 10
262.65
 20
43.3987
 30
0.0
 11
262.65
 21
45.6681
 31
0.0
  0
LINE
  8
0
 62
     0
 10
262.65
 20
45.6681
 30
0.0
 11
276.649
 21
45.6681
 31
0.0
  0
LINE
  8
0
 62
     0
 10
276.649
 20
45.6681
 30
0.0
 11
276.649
 21
43.3987
 31
0.0
  0
LINE
  8
0
 62
     0
 10
276.649
 20
43.3987
 30
0.0
 11
278.225
 21
43.3987
 31
0.0
  0
LINE
  8
0
 62
     0
 10
278.225
 20
43.3987
 30
0.0
 11
278.225
 21
44.1978
 31
0.0
  0
LINE
  8
0
 62
     0
 10
278.225
 20
44.1978
 30
0.0
 11
279.95
 21
44.1978
 31
0.0
  0
LINE
  8
0
 62
     0
 10
279.95
 20
44.1978
 30
0.0
 11
279.95
 21
45.1185
 31
0.0
  0
LINE
  8
0
 62
     0
 10
279.95
 20
45.1185
 30
0.0
 11
283.25
 21
45.1185
 31
0.0
  0
LINE
  8
0
 62
     0
 10
283.25
 20
45.1185
 30
0.0
 11
283.25
 21
44.1978
 31
0.0
  0
LINE
  8
0
 62
     0
 10
283.25
 20
44.1978
 30
0.0
 11
284.875
 21
44.1978
 31
0.0
  0
LINE
  8
0
 62
     0
 10
284.875
 20
44.1978
 30
0.0
 11
284.875
 21
40.9677
 31
0.0
  0
LINE
  8
0
 62
     0
 10
284.875
 20
40.9677
 30
0.0
 11
285.75
 21
40.9677
 31
0.0
  0
LINE
  8
0
 62
     0
 10
285.75
 20
40.9677
 30
0.0
 11
285.75
 21
38.1674
 31
0.0
  0
LINE
  8
0
 62
     0
 10
285.75
 20
38.1674
 30
0.0
 11
284.875
 21
38.1674
 31
0.0
  0
LINE
  8
0
 62
     0
 10
274.556
 20
83.7681
 30
0.0
 11
288.557
 21
83.7681
 31
0.0
  0
LINE
  8
0
 62
     0
 10
288.557
 20
83.7681
 30
0.0
 11
288.557
 21
69.7689
 31
0.0
  0
LINE
  8
0
 62
     0
 10
288.557
 20
69.7689
 30
0.0
 11
274.556
 21
69.7689
 31
0.0
  0
LINE
  8
0
 62
     0
 10
274.556
 20
69.7689
 30
0.0
 11
274.556
 21
83.7681
 31
0.0
  0
LINE
  8
0
 62
     0
 10
289.638
 20
57.2174
 30
0.0
 11
289.638
 21
50.9475
 31
0.0
  0
LINE
  8
0
 62
     0
 10
289.638
 20
50.9475
 30
0.0
 11
288.013
 21
50.9475
 31
0.0
  0
LINE
  8
0
 62
     0
 10
288.013
 20
50.9475
 30
0.0
 11
288.013
 21
49.9678
 31
0.0
  0
LINE
  8
0
 62
     0
 10
288.013
 20
49.9678
 30
0.0
 11
284.712
 21
49.9678
 31
0.0
  0
LINE
  8
0
 62
     0
 10
284.712
 20
49.9678
 30
0.0
 11
284.712
 21
50.9475
 31
0.0
  0
LINE
  8
0
 62
     0
 10
284.712
 20
50.9475
 30
0.0
 11
282.988
 21
50.9475
 31
0.0
  0
LINE
  8
0
 62
     0
 10
282.988
 20
50.9475
 30
0.0
 11
282.988
 21
51.7483
 31
0.0
  0
LINE
  8
0
 62
     0
 10
282.988
 20
51.7483
 30
0.0
 11
281.413
 21
51.7483
 31
0.0
  0
LINE
  8
0
 62
     0
 10
281.413
 20
51.7483
 30
0.0
 11
281.413
 21
50.7189
 31
0.0
  0
LINE
  8
0
 62
     0
 10
281.413
 20
50.7189
 30
0.0
 11
267.413
 21
50.7189
 31
0.0
  0
LINE
  8
0
 62
     0
 10
267.413
 20
50.7189
 30
0.0
 11
267.413
 21
51.7483
 31
0.0
  0
LINE
  8
0
 62
     0
 10
267.413
 20
51.7483
 30
0.0
 11
265.837
 21
51.7483
 31
0.0
  0
LINE
  8
0
 62
     0
 10
265.837
 20
51.7483
 30
0.0
 11
265.837
 21
50.9475
 31
0.0
  0
LINE
  8
0
 62
     0
 10
265.837
 20
50.9475
 30
0.0
 11
264.113
 21
50.9475
 31
0.0
  0
LINE
  8
0
 62
     0
 10
264.113
 20
50.9475
 30
0.0
 11
264.113
 21
49.9678
 31
0.0
  0
LINE
  8
0
 62
     0
 10
264.113
 20
49.9678
 30
0.0
 11
260.813
 21
49.9678
 31
0.0
  0
LINE
  8
0
 62
     0
 10
260.813
 20
49.9678
 30
0.0
 11
260.813
 21
50.9475
 31
0.0
  0
LINE
  8
0
 62
     0
 10
260.813
 20
50.9475
 30
0.0
 11
259.188
 21
50.9475
 31
0.0
  0
LINE
  8
0
 62
     0
 10
259.188
 20
50.9475
 30
0.0
 11
259.188
 21
57.2174
 31
0.0
  0
LINE
  8
0
 62
     0
 10
259.188
 20
57.2174
 30
0.0
 11
258.313
 21
57.2174
 31
0.0
  0
LINE
  8
0
 62
     0
 10
258.313
 20
57.2174
 30
0.0
 11
258.313
 21
60.0177
 31
0.0
  0
LINE
  8
0
 62
     0
 10
258.313
 20
60.0177
 30
0.0
 11
259.188
 21
60.0177
 31
0.0
  0
LINE
  8
0
 62
     0
 10
259.188
 20
60.0177
 30
0.0
 11
259.188
 21
63.2478
 31
0.0
  0
LINE
  8
0
 62
     0
 10
259.188
 20
63.2478
 30
0.0
 11
260.813
 21
63.2478
 31
0.0
  0
LINE
  8
0
 62
     0
 10
260.813
 20
63.2478
 30
0.0
 11
260.813
 21
64.1685
 31
0.0
  0
LINE
  8
0
 62
     0
 10
260.813
 20
64.1685
 30
0.0
 11
264.113
 21
64.1685
 31
0.0
  0
LINE
  8
0
 62
     0
 10
264.113
 20
64.1685
 30
0.0
 11
264.113
 21
63.2478
 31
0.0
  0
LINE
  8
0
 62
     0
 10
264.113
 20
63.2478
 30
0.0
 11
265.837
 21
63.2478
 31
0.0
  0
LINE
  8
0
 62
     0
 10
265.837
 20
63.2478
 30
0.0
 11
265.837
 21
62.4487
 31
0.0
  0
LINE
  8
0
 62
     0
 10
265.837
 20
62.4487
 30
0.0
 11
267.413
 21
62.4487
 31
0.0
  0
LINE
  8
0
 62
     0
 10
267.413
 20
62.4487
 30
0.0
 11
267.413
 21
64.7181
 31
0.0
  0
LINE
  8
0
 62
     0
 10
267.413
 20
64.7181
 30
0.0
 11
281.413
 21
64.7181
 31
0.0
  0
LINE
  8
0
 62
     0
 10
281.413
 20
64.7181
 30
0.0
 11
281.413
 21
62.4487
 31
0.0
  0
LINE
  8
0
 62
     0
 10
281.413
 20
62.4487
 30
0.0
 11
282.988
 21
62.4487
 31
0.0
  0
LINE
  8
0
 62
     0
 10
282.988
 20
62.4487
 30
0.0
 11
282.988
 21
63.2478
 31
0.0
  0
LINE
  8
0
 62
     0
 10
282.988
 20
63.2478
 30
0.0
 11
284.712
 21
63.2478
 31
0.0
  0
LINE
  8
0
 62
     0
 10
284.712
 20
63.2478
 30
0.0
 11
284.712
 21
64.1685
 31
0.0
  0
LINE
  8
0
 62
     0
 10
284.712
 20
64.1685
 30
0.0
 11
288.013
 21
64.1685
 31
0.0
  0
LINE
  8
0
 62
     0
 10
288.013
 20
64.1685
 30
0.0
 11
288.013
 21
63.2478
 31
0.0
  0
LINE
  8
0
 62
     0
 10
288.013
 20
63.2478
 30
0.0
 11
289.638
 21
63.2478
 31
0.0
  0
LINE
  8
0
 62
     0
 10
289.638
 20
63.2478
 30
0.0
 11
289.638
 21
60.0177
 31
0.0
  0
LINE
  8
0
 62
     0
 10
289.638
 20
60.0177
 30
0.0
 11
290.513
 21
60.0177
 31
0.0
  0
LINE
  8
0
 62
     0
 10
290.513
 20
60.0177
 30
0.0
 11
290.513
 21
57.2174
 31
0.0
  0
LINE
  8
0
 62
     0
 10
290.513
 20
57.2174
 30
0.0
 11
289.638
 21
57.2174
 31
0.0
  0
LINE
  8
0
 62
     0
 10
276.938
 20
26.6182
 30
0.0
 11
290.938
 21
26.6182
 31
0.0
  0
LINE
  8
0
 62
     0
 10
290.938
 20
26.6182
 30
0.0
 11
290.938
 21
12.6187
 31
0.0
  0
LINE
  8
0
 62
     0
 10
290.938
 20
12.6187
 30
0.0
 11
276.938
 21
12.6187
 31
0.0
  0
LINE
  8
0
 62
     0
 10
276.938
 20
12.6187
 30
0.0
 11
276.938
 21
26.6182
 31
0.0
  0
LINE
  8
0
 62
     0
 10
292.019
 20
95.3188
 30
0.0
 11
292.019
 21
89.0475
 31
0.0
  0
LINE
  8
0
 62
     0
 10
292.019
 20
89.0475
 30
0.0
 11
290.394
 21
89.0475
 31
0.0
  0
LINE
  8
0
 62
     0
 10
290.394
 20
89.0475
 30
0.0
 11
290.394
 21
88.0678
 31
0.0
  0
LINE
  8
0
 62
     0
 10
290.394
 20
88.0678
 30
0.0
 11
287.094
 21
88.0678
 31
0.0
  0
LINE
  8
0
 62
     0
 10
287.094
 20
88.0678
 30
0.0
 11
287.094
 21
89.0475
 31
0.0
  0
LINE
  8
0
 62
     0
 10
287.094
 20
89.0475
 30
0.0
 11
285.368
 21
89.0475
 31
0.0
  0
LINE
  8
0
 62
     0
 10
285.368
 20
89.0475
 30
0.0
 11
285.368
 21
89.8483
 31
0.0
  0
LINE
  8
0
 62
     0
 10
285.368
 20
89.8483
 30
0.0
 11
283.793
 21
89.8483
 31
0.0
  0
LINE
  8
0
 62
     0
 10
283.793
 20
89.8483
 30
0.0
 11
283.793
 21
88.8189
 31
0.0
  0
LINE
  8
0
 62
     0
 10
283.793
 20
88.8189
 30
0.0
 11
269.794
 21
88.8189
 31
0.0
  0
LINE
  8
0
 62
     0
 10
269.794
 20
88.8189
 30
0.0
 11
269.794
 21
89.8483
 31
0.0
  0
LINE
  8
0
 62
     0
 10
269.794
 20
89.8483
 30
0.0
 11
268.219
 21
89.8483
 31
0.0
  0
LINE
  8
0
 62
     0
 10
268.219
 20
89.8483
 30
0.0
 11
268.219
 21
89.0475
 31
0.0
  0
LINE
  8
0
 62
     0
 10
268.219
 20
89.0475
 30
0.0
 11
266.493
 21
89.0475
 31
0.0
  0
LINE
  8
0
 62
     0
 10
266.493
 20
89.0475
 30
0.0
 11
266.493
 21
88.0678
 31
0.0
  0
LINE
  8
0
 62
     0
 10
266.493
 20
88.0678
 30
0.0
 11
263.194
 21
88.0678
 31
0.0
  0
LINE
  8
0
 62
     0
 10
263.194
 20
88.0678
 30
0.0
 11
263.194
 21
89.0475
 31
0.0
  0
LINE
  8
0
 62
     0
 10
263.194
 20
89.0475
 30
0.0
 11
261.568
 21
89.0475
 31
0.0
  0
LINE
  8
0
 62
     0
 10
261.568
 20
89.0475
 30
0.0
 11
261.568
 21
95.3188
 31
0.0
  0
LINE
  8
0
 62
     0
 10
261.568
 20
95.3188
 30
0.0
 11
260.693
 21
95.3188
 31
0.0
  0
LINE
  8
0
 62
     0
 10
260.693
 20
95.3188
 30
0.0
 11
260.693
 21
98.1177
 31
0.0
  0
LINE
  8
0
 62
     0
 10
260.693
 20
98.1177
 30
0.0
 11
261.568
 21
98.1177
 31
0.0
  0
LINE
  8
0
 62
     0
 10
261.568
 20
98.1177
 30
0.0
 11
261.568
 21
101.348
 31
0.0
  0
LINE
  8
0
 62
     0
 10
261.568
 20
101.348
 30
0.0
 11
263.194
 21
101.348
 31
0.0
  0
LINE
  8
0
 62
     0
 10
263.194
 20
101.348
 30
0.0
 11
263.194
 21
102.269
 31
0.0
  0
LINE
  8
0
 62
     0
 10
263.194
 20
102.269
 30
0.0
 11
266.493
 21
102.269
 31
0.0
  0
LINE
  8
0
 62
     0
 10
266.493
 20
102.269
 30
0.0
 11
266.493
 21
101.348
 31
0.0
  0
LINE
  8
0
 62
     0
 10
266.493
 20
101.348
 30
0.0
 11
268.219
 21
101.348
 31
0.0
  0
LINE
  8
0
 62
     0
 10
268.219
 20
101.348
 30
0.0
 11
268.219
 21
100.549
 31
0.0
  0
LINE
  8
0
 62
     0
 10
268.219
 20
100.549
 30
0.0
 11
269.794
 21
100.549
 31
0.0
  0
LINE
  8
0
 62
     0
 10
269.794
 20
100.549
 30
0.0
 11
269.794
 21
102.818
 31
0.0
  0
LINE
  8
0
 62
     0
 10
269.794
 20
102.818
 30
0.0
 11
283.793
 21
102.818
 31
0.0
  0
LINE
  8
0
 62
     0
 10
283.793
 20
102.818
 30
0.0
 11
283.793
 21
100.549
 31
0.0
  0
LINE
  8
0
 62
     0
 10
283.793
 20
100.549
 30
0.0
 11
285.368
 21
100.549
 31
0.0
  0
LINE
  8
0
 62
     0
 10
285.368
 20
100.549
 30
0.0
 11
285.368
 21
101.348
 31
0.0
  0
LINE
  8
0
 62
     0
 10
285.368
 20
101.348
 30
0.0
 11
287.094
 21
101.348
 31
0.0
  0
LINE
  8
0
 62
     0
 10
287.094
 20
101.348
 30
0.0
 11
287.094
 21
102.269
 31
0.0
  0
LINE
  8
0
 62
     0
 10
287.094
 20
102.269
 30
0.0
 11
290.394
 21
102.269
 31
0.0
  0
LINE
  8
0
 62
     0
 10
290.394
 20
102.269
 30
0.0
 11
290.394
 21
101.348
 31
0.0
  0
LINE
  8
0
 62
     0
 10
290.394
 20
101.348
 30
0.0
 11
292.019
 21
101.348
 31
0.0
  0
LINE
  8
0
 62
     0
 10
292.019
 20
101.348
 30
0.0
 11
292.019
 21
98.1177
 31
0.0
  0
LINE
  8
0
 62
     0
 10
292.019
 20
98.1177
 30
0.0
 11
292.894
 21
98.1177
 31
0.0
  0
LINE
  8
0
 62
     0
 10
292.894
 20
98.1177
 30
0.0
 11
292.894
 21
95.3188
 31
0.0
  0
LINE
  8
0
 62
     0
 10
292.894
 20
95.3188
 30
0.0
 11
292.019
 21
95.3188
 31
0.0
  0
ENDSEC
  0
EOF
