  0
SECTION
  2
HEADER
  9
$ACADVER
  1
AC1009
  9
$EXTMIN
 10
0.0
 20
0.0
 30
0.0
  9
$EXTMAX
 10
1000.0
 20
1000.0
 30
0.0
  9
$FILLMODE
 70
 0
  9
$SPLFRAME
 70
 1
  0
ENDSEC
  0
SECTION
  2
TABLES
  0
TABLE
  2
LAYER
 70
1
  0
LAYER
  2
0
 70
     0
 62
     7
  6
CONTINUOUS
  0
ENDTAB
  0
ENDSEC
  0
SECTION
  2
ENTITIES
  0
LINE
  8
0
 62
     0
 10
287.244
 20
97.7498
 30
0.0
 11
287.322
 21
97.747
 31
0.0
  0
LINE
  8
0
 62
     0
 10
287.322
 20
97.747
 30
0.0
 11
287.4
 21
97.7374
 31
0.0
  0
LINE
  8
0
 62
     0
 10
287.4
 20
97.7374
 30
0.0
 11
287.477
 21
97.7223
 31
0.0
  0
LINE
  8
0
 62
     0
 10
287.477
 20
97.7223
 30
0.0
 11
287.552
 21
97.7
 31
0.0
  0
LINE
  8
0
 62
     0
 10
287.552
 20
97.7
 30
0.0
 11
287.627
 21
97.6739
 31
0.0
  0
LINE
  8
0
 62
     0
 10
287.627
 20
97.6739
 30
0.0
 11
287.697
 21
97.6408
 31
0.0
  0
LINE
  8
0
 62
     0
 10
287.697
 20
97.6408
 30
0.0
 11
287.766
 21
97.6023
 31
0.0
  0
LINE
  8
0
 62
     0
 10
287.766
 20
97.6023
 30
0.0
 11
287.832
 21
97.5582
 31
0.0
  0
LINE
  8
0
 62
     0
 10
287.832
 20
97.5582
 30
0.0
 11
287.893
 21
97.5099
 31
0.0
  0
LINE
  8
0
 62
     0
 10
287.893
 20
97.5099
 30
0.0
 11
287.951
 21
97.4563
 31
0.0
  0
LINE
  8
0
 62
     0
 10
287.951
 20
97.4563
 30
0.0
 11
288.003
 21
97.3984
 31
0.0
  0
LINE
  8
0
 62
     0
 10
288.003
 20
97.3984
 30
0.0
 11
288.053
 21
97.3377
 31
0.0
  0
LINE
  8
0
 62
     0
 10
288.053
 20
97.3377
 30
0.0
 11
288.097
 21
97.2714
 31
0.0
  0
LINE
  8
0
 62
     0
 10
288.097
 20
97.2714
 30
0.0
 11
288.135
 21
97.204
 31
0.0
  0
LINE
  8
0
 62
     0
 10
288.135
 20
97.204
 30
0.0
 11
288.167
 21
97.1324
 31
0.0
  0
LINE
  8
0
 62
     0
 10
288.167
 20
97.1324
 30
0.0
 11
288.195
 21
97.0594
 31
0.0
  0
LINE
  8
0
 62
     0
 10
288.195
 20
97.0594
 30
0.0
 11
288.215
 21
96.9821
 31
0.0
  0
LINE
  8
0
 62
     0
 10
288.215
 20
96.9821
 30
0.0
 11
288.232
 21
96.9063
 31
0.0
  0
LINE
  8
0
 62
     0
 10
288.232
 20
96.9063
 30
0.0
 11
288.24
 21
96.828
 31
0.0
  0
LINE
  8
0
 62
     0
 10
288.24
 20
96.828
 30
0.0
 11
288.244
 21
96.7493
 31
0.0
  0
LINE
  8
0
 62
     0
 10
288.244
 20
96.7493
 30
0.0
 11
288.244
 21
1.09968
 31
0.0
  0
LINE
  8
0
 62
     0
 10
288.244
 20
1.09968
 30
0.0
 11
288.24
 21
1.02113
 31
0.0
  0
LINE
  8
0
 62
     0
 10
288.24
 20
1.02113
 30
0.0
 11
288.232
 21
0.943956
 31
0.0
  0
LINE
  8
0
 62
     0
 10
288.232
 20
0.943956
 30
0.0
 11
288.215
 21
0.866786
 31
0.0
  0
LINE
  8
0
 62
     0
 10
288.215
 20
0.866786
 30
0.0
 11
288.195
 21
0.790995
 31
0.0
  0
LINE
  8
0
 62
     0
 10
288.195
 20
0.790995
 30
0.0
 11
288.167
 21
0.71658
 31
0.0
  0
LINE
  8
0
 62
     0
 10
288.167
 20
0.71658
 30
0.0
 11
288.135
 21
0.646299
 31
0.0
  0
LINE
  8
0
 62
     0
 10
288.135
 20
0.646299
 30
0.0
 11
288.097
 21
0.577398
 31
0.0
  0
LINE
  8
0
 62
     0
 10
288.097
 20
0.577398
 30
0.0
 11
288.053
 21
0.511253
 31
0.0
  0
LINE
  8
0
 62
     0
 10
288.053
 20
0.511253
 30
0.0
 11
288.003
 21
0.450617
 31
0.0
  0
LINE
  8
0
 62
     0
 10
288.003
 20
0.450617
 30
0.0
 11
287.951
 21
0.39274
 31
0.0
  0
LINE
  8
0
 62
     0
 10
287.951
 20
0.39274
 30
0.0
 11
287.893
 21
0.340376
 31
0.0
  0
LINE
  8
0
 62
     0
 10
287.893
 20
0.340376
 30
0.0
 11
287.832
 21
0.290766
 31
0.0
  0
LINE
  8
0
 62
     0
 10
287.832
 20
0.290766
 30
0.0
 11
287.766
 21
0.246669
 31
0.0
  0
LINE
  8
0
 62
     0
 10
287.766
 20
0.246669
 30
0.0
 11
287.697
 21
0.208084
 31
0.0
  0
LINE
  8
0
 62
     0
 10
287.697
 20
0.208084
 30
0.0
 11
287.627
 21
0.176389
 31
0.0
  0
LINE
  8
0
 62
     0
 10
287.627
 20
0.176389
 30
0.0
 11
287.552
 21
0.148828
 31
0.0
  0
LINE
  8
0
 62
     0
 10
287.552
 20
0.148828
 30
0.0
 11
287.477
 21
0.128157
 31
0.0
  0
LINE
  8
0
 62
     0
 10
287.477
 20
0.128157
 30
0.0
 11
287.4
 21
0.111621
 31
0.0
  0
LINE
  8
0
 62
     0
 10
287.4
 20
0.111621
 30
0.0
 11
287.322
 21
0.103353
 31
0.0
  0
LINE
  8
0
 62
     0
 10
287.322
 20
0.103353
 30
0.0
 11
287.244
 21
0.0992188
 31
0.0
  0
LINE
  8
0
 62
     0
 10
287.244
 20
0.0992188
 30
0.0
 11
1.09416
 21
0.0992188
 31
0.0
  0
LINE
  8
0
 62
     0
 10
1.09416
 20
0.0992188
 30
0.0
 11
1.01562
 21
0.103353
 31
0.0
  0
LINE
  8
0
 62
     0
 10
1.01562
 20
0.103353
 30
0.0
 11
0.937066
 21
0.111621
 31
0.0
  0
LINE
  8
0
 62
     0
 10
0.937066
 20
0.111621
 30
0.0
 11
0.861275
 21
0.128157
 31
0.0
  0
LINE
  8
0
 62
     0
 10
0.861275
 20
0.128157
 30
0.0
 11
0.784105
 21
0.148828
 31
0.0
  0
LINE
  8
0
 62
     0
 10
0.784105
 20
0.148828
 30
0.0
 11
0.711069
 21
0.176389
 31
0.0
  0
LINE
  8
0
 62
     0
 10
0.711069
 20
0.176389
 30
0.0
 11
0.63941
 21
0.208084
 31
0.0
  0
LINE
  8
0
 62
     0
 10
0.63941
 20
0.208084
 30
0.0
 11
0.571885
 21
0.246669
 31
0.0
  0
LINE
  8
0
 62
     0
 10
0.571885
 20
0.246669
 30
0.0
 11
0.505739
 21
0.290766
 31
0.0
  0
LINE
  8
0
 62
     0
 10
0.505739
 20
0.290766
 30
0.0
 11
0.445107
 21
0.340376
 31
0.0
  0
LINE
  8
0
 62
     0
 10
0.445107
 20
0.340376
 30
0.0
 11
0.38723
 21
0.39274
 31
0.0
  0
LINE
  8
0
 62
     0
 10
0.38723
 20
0.39274
 30
0.0
 11
0.333485
 21
0.450617
 31
0.0
  0
LINE
  8
0
 62
     0
 10
0.333485
 20
0.450617
 30
0.0
 11
0.285254
 21
0.511253
 31
0.0
  0
LINE
  8
0
 62
     0
 10
0.285254
 20
0.511253
 30
0.0
 11
0.241157
 21
0.577398
 31
0.0
  0
LINE
  8
0
 62
     0
 10
0.241157
 20
0.577398
 30
0.0
 11
0.202572
 21
0.646299
 31
0.0
  0
LINE
  8
0
 62
     0
 10
0.202572
 20
0.646299
 30
0.0
 11
0.169499
 21
0.71658
 31
0.0
  0
LINE
  8
0
 62
     0
 10
0.169499
 20
0.71658
 30
0.0
 11
0.143316
 21
0.790995
 31
0.0
  0
LINE
  8
0
 62
     0
 10
0.143316
 20
0.790995
 30
0.0
 11
0.121267
 21
0.866786
 31
0.0
  0
LINE
  8
0
 62
     0
 10
0.121267
 20
0.866786
 30
0.0
 11
0.106109
 21
0.943956
 31
0.0
  0
LINE
  8
0
 62
     0
 10
0.106109
 20
0.943956
 30
0.0
 11
0.0964629
 21
1.02113
 31
0.0
  0
LINE
  8
0
 62
     0
 10
0.0964629
 20
1.02113
 30
0.0
 11
0.0937066
 21
1.09968
 31
0.0
  0
LINE
  8
0
 62
     0
 10
0.0937066
 20
1.09968
 30
0.0
 11
0.0937066
 21
96.7493
 31
0.0
  0
LINE
  8
0
 62
     0
 10
0.0937066
 20
96.7493
 30
0.0
 11
0.0964629
 21
96.828
 31
0.0
  0
LINE
  8
0
 62
     0
 10
0.0964629
 20
96.828
 30
0.0
 11
0.106109
 21
96.9063
 31
0.0
  0
LINE
  8
0
 62
     0
 10
0.106109
 20
96.9063
 30
0.0
 11
0.121267
 21
96.9821
 31
0.0
  0
LINE
  8
0
 62
     0
 10
0.121267
 20
96.9821
 30
0.0
 11
0.143316
 21
97.0594
 31
0.0
  0
LINE
  8
0
 62
     0
 10
0.143316
 20
97.0594
 30
0.0
 11
0.169499
 21
97.1324
 31
0.0
  0
LINE
  8
0
 62
     0
 10
0.169499
 20
97.1324
 30
0.0
 11
0.202572
 21
97.204
 31
0.0
  0
LINE
  8
0
 62
     0
 10
0.202572
 20
97.204
 30
0.0
 11
0.241157
 21
97.2714
 31
0.0
  0
LINE
  8
0
 62
     0
 10
0.241157
 20
97.2714
 30
0.0
 11
0.285254
 21
97.3377
 31
0.0
  0
LINE
  8
0
 62
     0
 10
0.285254
 20
97.3377
 30
0.0
 11
0.333485
 21
97.3984
 31
0.0
  0
LINE
  8
0
 62
     0
 10
0.333485
 20
97.3984
 30
0.0
 11
0.38723
 21
97.4563
 31
0.0
  0
LINE
  8
0
 62
     0
 10
0.38723
 20
97.4563
 30
0.0
 11
0.445107
 21
97.5099
 31
0.0
  0
LINE
  8
0
 62
     0
 10
0.445107
 20
97.5099
 30
0.0
 11
0.505739
 21
97.5582
 31
0.0
  0
LINE
  8
0
 62
     0
 10
0.505739
 20
97.5582
 30
0.0
 11
0.571885
 21
97.6023
 31
0.0
  0
LINE
  8
0
 62
     0
 10
0.571885
 20
97.6023
 30
0.0
 11
0.63941
 21
97.6408
 31
0.0
  0
LINE
  8
0
 62
     0
 10
0.63941
 20
97.6408
 30
0.0
 11
0.711069
 21
97.6739
 31
0.0
  0
LINE
  8
0
 62
     0
 10
0.711069
 20
97.6739
 30
0.0
 11
0.784105
 21
97.7
 31
0.0
  0
LINE
  8
0
 62
     0
 10
0.784105
 20
97.7
 30
0.0
 11
0.861275
 21
97.7223
 31
0.0
  0
LINE
  8
0
 62
     0
 10
0.861275
 20
97.7223
 30
0.0
 11
0.937066
 21
97.7374
 31
0.0
  0
LINE
  8
0
 62
     0
 10
0.937066
 20
97.7374
 30
0.0
 11
1.01562
 21
97.747
 31
0.0
  0
LINE
  8
0
 62
     0
 10
1.01562
 20
97.747
 30
0.0
 11
1.09416
 21
97.7498
 31
0.0
  0
LINE
  8
0
 62
     0
 10
1.09416
 20
97.7498
 30
0.0
 11
287.244
 21
97.7498
 31
0.0
  0
LINE
  8
0
 62
     0
 10
1.29398
 20
96.5496
 30
0.0
 11
287.044
 21
96.5496
 31
0.0
  0
LINE
  8
0
 62
     0
 10
287.044
 20
96.5496
 30
0.0
 11
287.044
 21
1.29949
 31
0.0
  0
LINE
  8
0
 62
     0
 10
287.044
 20
1.29949
 30
0.0
 11
1.29398
 21
1.29949
 31
0.0
  0
LINE
  8
0
 62
     0
 10
1.29398
 20
1.29949
 30
0.0
 11
1.29398
 21
96.5496
 31
0.0
  0
LINE
  8
0
 62
     0
 10
287.643
 20
97.6492
 30
0.0
 11
287.799
 21
97.6256
 31
0.0
  0
LINE
  8
0
 62
     0
 10
287.799
 20
97.6256
 30
0.0
 11
287.938
 21
97.554
 31
0.0
  0
LINE
  8
0
 62
     0
 10
287.938
 20
97.554
 30
0.0
 11
288.049
 21
97.4439
 31
0.0
  0
LINE
  8
0
 62
     0
 10
288.049
 20
97.4439
 30
0.0
 11
288.12
 21
97.3046
 31
0.0
  0
LINE
  8
0
 62
     0
 10
288.12
 20
97.3046
 30
0.0
 11
288.144
 21
97.1504
 31
0.0
  0
LINE
  8
0
 62
     0
 10
288.144
 20
97.1504
 30
0.0
 11
288.12
 21
96.9945
 31
0.0
  0
LINE
  8
0
 62
     0
 10
288.12
 20
96.9945
 30
0.0
 11
288.049
 21
96.8555
 31
0.0
  0
LINE
  8
0
 62
     0
 10
288.049
 20
96.8555
 30
0.0
 11
287.938
 21
96.7451
 31
0.0
  0
LINE
  8
0
 62
     0
 10
287.938
 20
96.7451
 30
0.0
 11
287.799
 21
96.6735
 31
0.0
  0
LINE
  8
0
 62
     0
 10
287.799
 20
96.6735
 30
0.0
 11
287.643
 21
96.6502
 31
0.0
  0
LINE
  8
0
 62
     0
 10
287.643
 20
96.6502
 30
0.0
 11
287.489
 21
96.6735
 31
0.0
  0
LINE
  8
0
 62
     0
 10
287.489
 20
96.6735
 30
0.0
 11
287.35
 21
96.7451
 31
0.0
  0
LINE
  8
0
 62
     0
 10
287.35
 20
96.7451
 30
0.0
 11
287.238
 21
96.8555
 31
0.0
  0
LINE
  8
0
 62
     0
 10
287.238
 20
96.8555
 30
0.0
 11
287.168
 21
96.9945
 31
0.0
  0
LINE
  8
0
 62
     0
 10
287.168
 20
96.9945
 30
0.0
 11
287.143
 21
97.1504
 31
0.0
  0
LINE
  8
0
 62
     0
 10
287.143
 20
97.1504
 30
0.0
 11
287.168
 21
97.3046
 31
0.0
  0
LINE
  8
0
 62
     0
 10
287.168
 20
97.3046
 30
0.0
 11
287.238
 21
97.4439
 31
0.0
  0
LINE
  8
0
 62
     0
 10
287.238
 20
97.4439
 30
0.0
 11
287.35
 21
97.554
 31
0.0
  0
LINE
  8
0
 62
     0
 10
287.35
 20
97.554
 30
0.0
 11
287.489
 21
97.6256
 31
0.0
  0
LINE
  8
0
 62
     0
 10
287.489
 20
97.6256
 30
0.0
 11
287.643
 21
97.6492
 31
0.0
  0
LINE
  8
0
 62
     0
 10
287.643
 20
1.20027
 30
0.0
 11
287.799
 21
1.17547
 31
0.0
  0
LINE
  8
0
 62
     0
 10
287.799
 20
1.17547
 30
0.0
 11
287.938
 21
1.10519
 31
0.0
  0
LINE
  8
0
 62
     0
 10
287.938
 20
1.10519
 30
0.0
 11
288.049
 21
0.993567
 31
0.0
  0
LINE
  8
0
 62
     0
 10
288.049
 20
0.993567
 30
0.0
 11
288.12
 21
0.854385
 31
0.0
  0
LINE
  8
0
 62
     0
 10
288.12
 20
0.854385
 30
0.0
 11
288.144
 21
0.700045
 31
0.0
  0
LINE
  8
0
 62
     0
 10
288.144
 20
0.700045
 30
0.0
 11
288.12
 21
0.544326
 31
0.0
  0
LINE
  8
0
 62
     0
 10
288.12
 20
0.544326
 30
0.0
 11
288.049
 21
0.405144
 31
0.0
  0
LINE
  8
0
 62
     0
 10
288.049
 20
0.405144
 30
0.0
 11
287.938
 21
0.2949
 31
0.0
  0
LINE
  8
0
 62
     0
 10
287.938
 20
0.2949
 30
0.0
 11
287.799
 21
0.223242
 31
0.0
  0
LINE
  8
0
 62
     0
 10
287.799
 20
0.223242
 30
0.0
 11
287.643
 21
0.199815
 31
0.0
  0
LINE
  8
0
 62
     0
 10
287.643
 20
0.199815
 30
0.0
 11
287.489
 21
0.223242
 31
0.0
  0
LINE
  8
0
 62
     0
 10
287.489
 20
0.223242
 30
0.0
 11
287.35
 21
0.2949
 31
0.0
  0
LINE
  8
0
 62
     0
 10
287.35
 20
0.2949
 30
0.0
 11
287.238
 21
0.405144
 31
0.0
  0
LINE
  8
0
 62
     0
 10
287.238
 20
0.405144
 30
0.0
 11
287.168
 21
0.544326
 31
0.0
  0
LINE
  8
0
 62
     0
 10
287.168
 20
0.544326
 30
0.0
 11
287.143
 21
0.700045
 31
0.0
  0
LINE
  8
0
 62
     0
 10
287.143
 20
0.700045
 30
0.0
 11
287.168
 21
0.854385
 31
0.0
  0
LINE
  8
0
 62
     0
 10
287.168
 20
0.854385
 30
0.0
 11
287.238
 21
0.993567
 31
0.0
  0
LINE
  8
0
 62
     0
 10
287.238
 20
0.993567
 30
0.0
 11
287.35
 21
1.10519
 31
0.0
  0
LINE
  8
0
 62
     0
 10
287.35
 20
1.10519
 30
0.0
 11
287.489
 21
1.17547
 31
0.0
  0
LINE
  8
0
 62
     0
 10
287.489
 20
1.17547
 30
0.0
 11
287.643
 21
1.20027
 31
0.0
  0
LINE
  8
0
 62
     0
 10
0.693152
 20
1.20027
 30
0.0
 11
0.848872
 21
1.17547
 31
0.0
  0
LINE
  8
0
 62
     0
 10
0.848872
 20
1.17547
 30
0.0
 11
0.988053
 21
1.10519
 31
0.0
  0
LINE
  8
0
 62
     0
 10
0.988053
 20
1.10519
 30
0.0
 11
1.0983
 21
0.993567
 31
0.0
  0
LINE
  8
0
 62
     0
 10
1.0983
 20
0.993567
 30
0.0
 11
1.16996
 21
0.854385
 31
0.0
  0
LINE
  8
0
 62
     0
 10
1.16996
 20
0.854385
 30
0.0
 11
1.19338
 21
0.700045
 31
0.0
  0
LINE
  8
0
 62
     0
 10
1.19338
 20
0.700045
 30
0.0
 11
1.16996
 21
0.544326
 31
0.0
  0
LINE
  8
0
 62
     0
 10
1.16996
 20
0.544326
 30
0.0
 11
1.0983
 21
0.405144
 31
0.0
  0
LINE
  8
0
 62
     0
 10
1.0983
 20
0.405144
 30
0.0
 11
0.988053
 21
0.2949
 31
0.0
  0
LINE
  8
0
 62
     0
 10
0.988053
 20
0.2949
 30
0.0
 11
0.848872
 21
0.223242
 31
0.0
  0
LINE
  8
0
 62
     0
 10
0.848872
 20
0.223242
 30
0.0
 11
0.693152
 21
0.199815
 31
0.0
  0
LINE
  8
0
 62
     0
 10
0.693152
 20
0.199815
 30
0.0
 11
0.538812
 21
0.223242
 31
0.0
  0
LINE
  8
0
 62
     0
 10
0.538812
 20
0.223242
 30
0.0
 11
0.39963
 21
0.2949
 31
0.0
  0
LINE
  8
0
 62
     0
 10
0.39963
 20
0.2949
 30
0.0
 11
0.289388
 21
0.405144
 31
0.0
  0
LINE
  8
0
 62
     0
 10
0.289388
 20
0.405144
 30
0.0
 11
0.21773
 21
0.544326
 31
0.0
  0
LINE
  8
0
 62
     0
 10
0.21773
 20
0.544326
 30
0.0
 11
0.194303
 21
0.700045
 31
0.0
  0
LINE
  8
0
 62
     0
 10
0.194303
 20
0.700045
 30
0.0
 11
0.21773
 21
0.854385
 31
0.0
  0
LINE
  8
0
 62
     0
 10
0.21773
 20
0.854385
 30
0.0
 11
0.289388
 21
0.993567
 31
0.0
  0
LINE
  8
0
 62
     0
 10
0.289388
 20
0.993567
 30
0.0
 11
0.39963
 21
1.10519
 31
0.0
  0
LINE
  8
0
 62
     0
 10
0.39963
 20
1.10519
 30
0.0
 11
0.538812
 21
1.17547
 31
0.0
  0
LINE
  8
0
 62
     0
 10
0.538812
 20
1.17547
 30
0.0
 11
0.693152
 21
1.20027
 31
0.0
  0
LINE
  8
0
 62
     0
 10
0.693152
 20
97.6492
 30
0.0
 11
0.848872
 21
97.6256
 31
0.0
  0
LINE
  8
0
 62
     0
 10
0.848872
 20
97.6256
 30
0.0
 11
0.988053
 21
97.554
 31
0.0
  0
LINE
  8
0
 62
     0
 10
0.988053
 20
97.554
 30
0.0
 11
1.0983
 21
97.4439
 31
0.0
  0
LINE
  8
0
 62
     0
 10
1.0983
 20
97.4439
 30
0.0
 11
1.16996
 21
97.3046
 31
0.0
  0
LINE
  8
0
 62
     0
 10
1.16996
 20
97.3046
 30
0.0
 11
1.19338
 21
97.1504
 31
0.0
  0
LINE
  8
0
 62
     0
 10
1.19338
 20
97.1504
 30
0.0
 11
1.16996
 21
96.9945
 31
0.0
  0
LINE
  8
0
 62
     0
 10
1.16996
 20
96.9945
 30
0.0
 11
1.0983
 21
96.8555
 31
0.0
  0
LINE
  8
0
 62
     0
 10
1.0983
 20
96.8555
 30
0.0
 11
0.988053
 21
96.7451
 31
0.0
  0
LINE
  8
0
 62
     0
 10
0.988053
 20
96.7451
 30
0.0
 11
0.848872
 21
96.6735
 31
0.0
  0
LINE
  8
0
 62
     0
 10
0.848872
 20
96.6735
 30
0.0
 11
0.693152
 21
96.6502
 31
0.0
  0
LINE
  8
0
 62
     0
 10
0.693152
 20
96.6502
 30
0.0
 11
0.538812
 21
96.6735
 31
0.0
  0
LINE
  8
0
 62
     0
 10
0.538812
 20
96.6735
 30
0.0
 11
0.39963
 21
96.7451
 31
0.0
  0
LINE
  8
0
 62
     0
 10
0.39963
 20
96.7451
 30
0.0
 11
0.289388
 21
96.8555
 31
0.0
  0
LINE
  8
0
 62
     0
 10
0.289388
 20
96.8555
 30
0.0
 11
0.21773
 21
96.9945
 31
0.0
  0
LINE
  8
0
 62
     0
 10
0.21773
 20
96.9945
 30
0.0
 11
0.194303
 21
97.1504
 31
0.0
  0
LINE
  8
0
 62
     0
 10
0.194303
 20
97.1504
 30
0.0
 11
0.21773
 21
97.3046
 31
0.0
  0
LINE
  8
0
 62
     0
 10
0.21773
 20
97.3046
 30
0.0
 11
0.289388
 21
97.4439
 31
0.0
  0
LINE
  8
0
 62
     0
 10
0.289388
 20
97.4439
 30
0.0
 11
0.39963
 21
97.554
 31
0.0
  0
LINE
  8
0
 62
     0
 10
0.39963
 20
97.554
 30
0.0
 11
0.538812
 21
97.6256
 31
0.0
  0
LINE
  8
0
 62
     0
 10
0.538812
 20
97.6256
 30
0.0
 11
0.693152
 21
97.6492
 31
0.0
  0
ENDSEC
  0
EOF
