  0
SECTION
  2
HEADER
  9
$ACADVER
  1
AC1009
  9
$EXTMIN
 10
0.0
 20
0.0
 30
0.0
  9
$EXTMAX
 10
1000.0
 20
1000.0
 30
0.0
  9
$FILLMODE
 70
 0
  9
$SPLFRAME
 70
 1
  0
ENDSEC
  0
SECTION
  2
TABLES
  0
TABLE
  2
LAYER
 70
1
  0
LAYER
  2
0
 70
     0
 62
     7
  6
CONTINUOUS
  0
ENDTAB
  0
ENDSEC
  0
SECTION
  2
ENTITIES
  0
LINE
  8
0
 62
     0
 10
289.644
 20
100.156
 30
0.0
 11
289.722
 21
100.153
 31
0.0
  0
LINE
  8
0
 62
     0
 10
289.722
 20
100.153
 30
0.0
 11
289.8
 21
100.143
 31
0.0
  0
LINE
  8
0
 62
     0
 10
289.8
 20
100.143
 30
0.0
 11
289.877
 21
100.128
 31
0.0
  0
LINE
  8
0
 62
     0
 10
289.877
 20
100.128
 30
0.0
 11
289.953
 21
100.106
 31
0.0
  0
LINE
  8
0
 62
     0
 10
289.953
 20
100.106
 30
0.0
 11
290.027
 21
100.08
 31
0.0
  0
LINE
  8
0
 62
     0
 10
290.027
 20
100.08
 30
0.0
 11
290.098
 21
100.047
 31
0.0
  0
LINE
  8
0
 62
     0
 10
290.098
 20
100.047
 30
0.0
 11
290.165
 21
100.008
 31
0.0
  0
LINE
  8
0
 62
     0
 10
290.165
 20
100.008
 30
0.0
 11
290.231
 21
99.9642
 31
0.0
  0
LINE
  8
0
 62
     0
 10
290.231
 20
99.9642
 30
0.0
 11
290.293
 21
99.9162
 31
0.0
  0
LINE
  8
0
 62
     0
 10
290.293
 20
99.9162
 30
0.0
 11
290.351
 21
99.8622
 31
0.0
  0
LINE
  8
0
 62
     0
 10
290.351
 20
99.8622
 30
0.0
 11
290.403
 21
99.8044
 31
0.0
  0
LINE
  8
0
 62
     0
 10
290.403
 20
99.8044
 30
0.0
 11
290.453
 21
99.7437
 31
0.0
  0
LINE
  8
0
 62
     0
 10
290.453
 20
99.7437
 30
0.0
 11
290.497
 21
99.6777
 31
0.0
  0
LINE
  8
0
 62
     0
 10
290.497
 20
99.6777
 30
0.0
 11
290.535
 21
99.61
 31
0.0
  0
LINE
  8
0
 62
     0
 10
290.535
 20
99.61
 30
0.0
 11
290.568
 21
99.5384
 31
0.0
  0
LINE
  8
0
 62
     0
 10
290.568
 20
99.5384
 30
0.0
 11
290.595
 21
99.4653
 31
0.0
  0
LINE
  8
0
 62
     0
 10
290.595
 20
99.4653
 30
0.0
 11
290.616
 21
99.3881
 31
0.0
  0
LINE
  8
0
 62
     0
 10
290.616
 20
99.3881
 30
0.0
 11
290.632
 21
99.3126
 31
0.0
  0
LINE
  8
0
 62
     0
 10
290.632
 20
99.3126
 30
0.0
 11
290.641
 21
99.2339
 31
0.0
  0
LINE
  8
0
 62
     0
 10
290.641
 20
99.2339
 30
0.0
 11
290.643
 21
99.1553
 31
0.0
  0
LINE
  8
0
 62
     0
 10
290.643
 20
99.1553
 30
0.0
 11
290.643
 21
1.10519
 31
0.0
  0
LINE
  8
0
 62
     0
 10
290.643
 20
1.10519
 30
0.0
 11
290.641
 21
1.02802
 31
0.0
  0
LINE
  8
0
 62
     0
 10
290.641
 20
1.02802
 30
0.0
 11
290.632
 21
0.94947
 31
0.0
  0
LINE
  8
0
 62
     0
 10
290.632
 20
0.94947
 30
0.0
 11
290.616
 21
0.8723
 31
0.0
  0
LINE
  8
0
 62
     0
 10
290.616
 20
0.8723
 30
0.0
 11
290.595
 21
0.796505
 31
0.0
  0
LINE
  8
0
 62
     0
 10
290.595
 20
0.796505
 30
0.0
 11
290.568
 21
0.722094
 31
0.0
  0
LINE
  8
0
 62
     0
 10
290.568
 20
0.722094
 30
0.0
 11
290.535
 21
0.651813
 31
0.0
  0
LINE
  8
0
 62
     0
 10
290.535
 20
0.651813
 30
0.0
 11
290.497
 21
0.584288
 31
0.0
  0
LINE
  8
0
 62
     0
 10
290.497
 20
0.584288
 30
0.0
 11
290.453
 21
0.518142
 31
0.0
  0
LINE
  8
0
 62
     0
 10
290.453
 20
0.518142
 30
0.0
 11
290.403
 21
0.456131
 31
0.0
  0
LINE
  8
0
 62
     0
 10
290.403
 20
0.456131
 30
0.0
 11
290.351
 21
0.398254
 31
0.0
  0
LINE
  8
0
 62
     0
 10
290.351
 20
0.398254
 30
0.0
 11
290.293
 21
0.345888
 31
0.0
  0
LINE
  8
0
 62
     0
 10
290.293
 20
0.345888
 30
0.0
 11
290.231
 21
0.296278
 31
0.0
  0
LINE
  8
0
 62
     0
 10
290.231
 20
0.296278
 30
0.0
 11
290.165
 21
0.252181
 31
0.0
  0
LINE
  8
0
 62
     0
 10
290.165
 20
0.252181
 30
0.0
 11
290.098
 21
0.214974
 31
0.0
  0
LINE
  8
0
 62
     0
 10
290.098
 20
0.214974
 30
0.0
 11
290.027
 21
0.181901
 31
0.0
  0
LINE
  8
0
 62
     0
 10
290.027
 20
0.181901
 30
0.0
 11
289.953
 21
0.15434
 31
0.0
  0
LINE
  8
0
 62
     0
 10
289.953
 20
0.15434
 30
0.0
 11
289.877
 21
0.13367
 31
0.0
  0
LINE
  8
0
 62
     0
 10
289.877
 20
0.13367
 30
0.0
 11
289.8
 21
0.117133
 31
0.0
  0
LINE
  8
0
 62
     0
 10
289.8
 20
0.117133
 30
0.0
 11
289.722
 21
0.108865
 31
0.0
  0
LINE
  8
0
 62
     0
 10
289.722
 20
0.108865
 30
0.0
 11
289.644
 21
0.106109
 31
0.0
  0
LINE
  8
0
 62
     0
 10
289.644
 20
0.106109
 30
0.0
 11
1.09416
 21
0.106109
 31
0.0
  0
LINE
  8
0
 62
     0
 10
1.09416
 20
0.106109
 30
0.0
 11
1.01562
 21
0.108865
 31
0.0
  0
LINE
  8
0
 62
     0
 10
1.01562
 20
0.108865
 30
0.0
 11
0.937066
 21
0.117133
 31
0.0
  0
LINE
  8
0
 62
     0
 10
0.937066
 20
0.117133
 30
0.0
 11
0.861275
 21
0.13367
 31
0.0
  0
LINE
  8
0
 62
     0
 10
0.861275
 20
0.13367
 30
0.0
 11
0.784105
 21
0.15434
 31
0.0
  0
LINE
  8
0
 62
     0
 10
0.784105
 20
0.15434
 30
0.0
 11
0.711069
 21
0.181901
 31
0.0
  0
LINE
  8
0
 62
     0
 10
0.711069
 20
0.181901
 30
0.0
 11
0.63941
 21
0.214974
 31
0.0
  0
LINE
  8
0
 62
     0
 10
0.63941
 20
0.214974
 30
0.0
 11
0.571885
 21
0.252181
 31
0.0
  0
LINE
  8
0
 62
     0
 10
0.571885
 20
0.252181
 30
0.0
 11
0.505739
 21
0.296278
 31
0.0
  0
LINE
  8
0
 62
     0
 10
0.505739
 20
0.296278
 30
0.0
 11
0.445107
 21
0.345888
 31
0.0
  0
LINE
  8
0
 62
     0
 10
0.445107
 20
0.345888
 30
0.0
 11
0.38723
 21
0.398254
 31
0.0
  0
LINE
  8
0
 62
     0
 10
0.38723
 20
0.398254
 30
0.0
 11
0.333485
 21
0.456131
 31
0.0
  0
LINE
  8
0
 62
     0
 10
0.333485
 20
0.456131
 30
0.0
 11
0.285254
 21
0.518142
 31
0.0
  0
LINE
  8
0
 62
     0
 10
0.285254
 20
0.518142
 30
0.0
 11
0.241157
 21
0.584288
 31
0.0
  0
LINE
  8
0
 62
     0
 10
0.241157
 20
0.584288
 30
0.0
 11
0.202572
 21
0.651813
 31
0.0
  0
LINE
  8
0
 62
     0
 10
0.202572
 20
0.651813
 30
0.0
 11
0.169499
 21
0.722094
 31
0.0
  0
LINE
  8
0
 62
     0
 10
0.169499
 20
0.722094
 30
0.0
 11
0.143316
 21
0.796505
 31
0.0
  0
LINE
  8
0
 62
     0
 10
0.143316
 20
0.796505
 30
0.0
 11
0.121267
 21
0.8723
 31
0.0
  0
LINE
  8
0
 62
     0
 10
0.121267
 20
0.8723
 30
0.0
 11
0.106109
 21
0.94947
 31
0.0
  0
LINE
  8
0
 62
     0
 10
0.106109
 20
0.94947
 30
0.0
 11
0.0964629
 21
1.02802
 31
0.0
  0
LINE
  8
0
 62
     0
 10
0.0964629
 20
1.02802
 30
0.0
 11
0.0937066
 21
1.10519
 31
0.0
  0
LINE
  8
0
 62
     0
 10
0.0937066
 20
1.10519
 30
0.0
 11
0.0937066
 21
99.1553
 31
0.0
  0
LINE
  8
0
 62
     0
 10
0.0937066
 20
99.1553
 30
0.0
 11
0.0964629
 21
99.2339
 31
0.0
  0
LINE
  8
0
 62
     0
 10
0.0964629
 20
99.2339
 30
0.0
 11
0.106109
 21
99.3126
 31
0.0
  0
LINE
  8
0
 62
     0
 10
0.106109
 20
99.3126
 30
0.0
 11
0.121267
 21
99.3881
 31
0.0
  0
LINE
  8
0
 62
     0
 10
0.121267
 20
99.3881
 30
0.0
 11
0.143316
 21
99.4653
 31
0.0
  0
LINE
  8
0
 62
     0
 10
0.143316
 20
99.4653
 30
0.0
 11
0.169499
 21
99.5384
 31
0.0
  0
LINE
  8
0
 62
     0
 10
0.169499
 20
99.5384
 30
0.0
 11
0.202572
 21
99.61
 31
0.0
  0
LINE
  8
0
 62
     0
 10
0.202572
 20
99.61
 30
0.0
 11
0.241157
 21
99.6777
 31
0.0
  0
LINE
  8
0
 62
     0
 10
0.241157
 20
99.6777
 30
0.0
 11
0.285254
 21
99.7437
 31
0.0
  0
LINE
  8
0
 62
     0
 10
0.285254
 20
99.7437
 30
0.0
 11
0.333485
 21
99.8044
 31
0.0
  0
LINE
  8
0
 62
     0
 10
0.333485
 20
99.8044
 30
0.0
 11
0.38723
 21
99.8622
 31
0.0
  0
LINE
  8
0
 62
     0
 10
0.38723
 20
99.8622
 30
0.0
 11
0.445107
 21
99.9162
 31
0.0
  0
LINE
  8
0
 62
     0
 10
0.445107
 20
99.9162
 30
0.0
 11
0.505739
 21
99.9642
 31
0.0
  0
LINE
  8
0
 62
     0
 10
0.505739
 20
99.9642
 30
0.0
 11
0.571885
 21
100.008
 31
0.0
  0
LINE
  8
0
 62
     0
 10
0.571885
 20
100.008
 30
0.0
 11
0.63941
 21
100.047
 31
0.0
  0
LINE
  8
0
 62
     0
 10
0.63941
 20
100.047
 30
0.0
 11
0.711069
 21
100.08
 31
0.0
  0
LINE
  8
0
 62
     0
 10
0.711069
 20
100.08
 30
0.0
 11
0.784105
 21
100.106
 31
0.0
  0
LINE
  8
0
 62
     0
 10
0.784105
 20
100.106
 30
0.0
 11
0.861275
 21
100.128
 31
0.0
  0
LINE
  8
0
 62
     0
 10
0.861275
 20
100.128
 30
0.0
 11
0.937066
 21
100.143
 31
0.0
  0
LINE
  8
0
 62
     0
 10
0.937066
 20
100.143
 30
0.0
 11
1.01562
 21
100.153
 31
0.0
  0
LINE
  8
0
 62
     0
 10
1.01562
 20
100.153
 30
0.0
 11
1.09416
 21
100.156
 31
0.0
  0
LINE
  8
0
 62
     0
 10
1.09416
 20
100.156
 30
0.0
 11
289.644
 21
100.156
 31
0.0
  0
LINE
  8
0
 62
     0
 10
2.49425
 20
97.7554
 30
0.0
 11
288.244
 21
97.7554
 31
0.0
  0
LINE
  8
0
 62
     0
 10
288.244
 20
97.7554
 30
0.0
 11
288.244
 21
2.50527
 31
0.0
  0
LINE
  8
0
 62
     0
 10
288.244
 20
2.50527
 30
0.0
 11
2.49425
 21
2.50527
 31
0.0
  0
LINE
  8
0
 62
     0
 10
2.49425
 20
2.50527
 30
0.0
 11
2.49425
 21
97.7554
 31
0.0
  0
LINE
  8
0
 62
     0
 10
289.443
 20
99.4558
 30
0.0
 11
289.599
 21
99.4322
 31
0.0
  0
LINE
  8
0
 62
     0
 10
289.599
 20
99.4322
 30
0.0
 11
289.738
 21
99.3606
 31
0.0
  0
LINE
  8
0
 62
     0
 10
289.738
 20
99.3606
 30
0.0
 11
289.848
 21
99.2505
 31
0.0
  0
LINE
  8
0
 62
     0
 10
289.848
 20
99.2505
 30
0.0
 11
289.92
 21
99.1112
 31
0.0
  0
LINE
  8
0
 62
     0
 10
289.92
 20
99.1112
 30
0.0
 11
289.943
 21
98.9556
 31
0.0
  0
LINE
  8
0
 62
     0
 10
289.943
 20
98.9556
 30
0.0
 11
289.92
 21
98.8011
 31
0.0
  0
LINE
  8
0
 62
     0
 10
289.92
 20
98.8011
 30
0.0
 11
289.848
 21
98.6621
 31
0.0
  0
LINE
  8
0
 62
     0
 10
289.848
 20
98.6621
 30
0.0
 11
289.738
 21
98.5502
 31
0.0
  0
LINE
  8
0
 62
     0
 10
289.738
 20
98.5502
 30
0.0
 11
289.599
 21
98.48
 31
0.0
  0
LINE
  8
0
 62
     0
 10
289.599
 20
98.48
 30
0.0
 11
289.443
 21
98.4553
 31
0.0
  0
LINE
  8
0
 62
     0
 10
289.443
 20
98.4553
 30
0.0
 11
289.289
 21
98.48
 31
0.0
  0
LINE
  8
0
 62
     0
 10
289.289
 20
98.48
 30
0.0
 11
289.15
 21
98.5502
 31
0.0
  0
LINE
  8
0
 62
     0
 10
289.15
 20
98.5502
 30
0.0
 11
289.039
 21
98.6621
 31
0.0
  0
LINE
  8
0
 62
     0
 10
289.039
 20
98.6621
 30
0.0
 11
288.968
 21
98.8011
 31
0.0
  0
LINE
  8
0
 62
     0
 10
288.968
 20
98.8011
 30
0.0
 11
288.944
 21
98.9556
 31
0.0
  0
LINE
  8
0
 62
     0
 10
288.944
 20
98.9556
 30
0.0
 11
288.968
 21
99.1112
 31
0.0
  0
LINE
  8
0
 62
     0
 10
288.968
 20
99.1112
 30
0.0
 11
289.039
 21
99.2505
 31
0.0
  0
LINE
  8
0
 62
     0
 10
289.039
 20
99.2505
 30
0.0
 11
289.15
 21
99.3606
 31
0.0
  0
LINE
  8
0
 62
     0
 10
289.15
 20
99.3606
 30
0.0
 11
289.289
 21
99.4322
 31
0.0
  0
LINE
  8
0
 62
     0
 10
289.289
 20
99.4322
 30
0.0
 11
289.443
 21
99.4558
 31
0.0
  0
LINE
  8
0
 62
     0
 10
289.443
 20
1.80523
 30
0.0
 11
289.599
 21
1.7818
 31
0.0
  0
LINE
  8
0
 62
     0
 10
289.599
 20
1.7818
 30
0.0
 11
289.738
 21
1.71015
 31
0.0
  0
LINE
  8
0
 62
     0
 10
289.738
 20
1.71015
 30
0.0
 11
289.848
 21
1.5999
 31
0.0
  0
LINE
  8
0
 62
     0
 10
289.848
 20
1.5999
 30
0.0
 11
289.92
 21
1.46072
 31
0.0
  0
LINE
  8
0
 62
     0
 10
289.92
 20
1.46072
 30
0.0
 11
289.943
 21
1.30638
 31
0.0
  0
LINE
  8
0
 62
     0
 10
289.943
 20
1.30638
 30
0.0
 11
289.92
 21
1.15066
 31
0.0
  0
LINE
  8
0
 62
     0
 10
289.92
 20
1.15066
 30
0.0
 11
289.848
 21
1.01148
 31
0.0
  0
LINE
  8
0
 62
     0
 10
289.848
 20
1.01148
 30
0.0
 11
289.738
 21
0.901238
 31
0.0
  0
LINE
  8
0
 62
     0
 10
289.738
 20
0.901238
 30
0.0
 11
289.599
 21
0.829578
 31
0.0
  0
LINE
  8
0
 62
     0
 10
289.599
 20
0.829578
 30
0.0
 11
289.443
 21
0.806154
 31
0.0
  0
LINE
  8
0
 62
     0
 10
289.443
 20
0.806154
 30
0.0
 11
289.289
 21
0.829578
 31
0.0
  0
LINE
  8
0
 62
     0
 10
289.289
 20
0.829578
 30
0.0
 11
289.15
 21
0.901238
 31
0.0
  0
LINE
  8
0
 62
     0
 10
289.15
 20
0.901238
 30
0.0
 11
289.039
 21
1.01148
 31
0.0
  0
LINE
  8
0
 62
     0
 10
289.039
 20
1.01148
 30
0.0
 11
288.968
 21
1.15066
 31
0.0
  0
LINE
  8
0
 62
     0
 10
288.968
 20
1.15066
 30
0.0
 11
288.944
 21
1.30638
 31
0.0
  0
LINE
  8
0
 62
     0
 10
288.944
 20
1.30638
 30
0.0
 11
288.968
 21
1.46072
 31
0.0
  0
LINE
  8
0
 62
     0
 10
288.968
 20
1.46072
 30
0.0
 11
289.039
 21
1.5999
 31
0.0
  0
LINE
  8
0
 62
     0
 10
289.039
 20
1.5999
 30
0.0
 11
289.15
 21
1.71015
 31
0.0
  0
LINE
  8
0
 62
     0
 10
289.15
 20
1.71015
 30
0.0
 11
289.289
 21
1.7818
 31
0.0
  0
LINE
  8
0
 62
     0
 10
289.289
 20
1.7818
 30
0.0
 11
289.443
 21
1.80523
 31
0.0
  0
LINE
  8
0
 62
     0
 10
1.29398
 20
1.80523
 30
0.0
 11
1.44832
 21
1.7818
 31
0.0
  0
LINE
  8
0
 62
     0
 10
1.44832
 20
1.7818
 30
0.0
 11
1.5875
 21
1.71015
 31
0.0
  0
LINE
  8
0
 62
     0
 10
1.5875
 20
1.71015
 30
0.0
 11
1.69912
 21
1.5999
 31
0.0
  0
LINE
  8
0
 62
     0
 10
1.69912
 20
1.5999
 30
0.0
 11
1.7694
 21
1.46072
 31
0.0
  0
LINE
  8
0
 62
     0
 10
1.7694
 20
1.46072
 30
0.0
 11
1.79421
 21
1.30638
 31
0.0
  0
LINE
  8
0
 62
     0
 10
1.79421
 20
1.30638
 30
0.0
 11
1.7694
 21
1.15066
 31
0.0
  0
LINE
  8
0
 62
     0
 10
1.7694
 20
1.15066
 30
0.0
 11
1.69912
 21
1.01148
 31
0.0
  0
LINE
  8
0
 62
     0
 10
1.69912
 20
1.01148
 30
0.0
 11
1.5875
 21
0.901238
 31
0.0
  0
LINE
  8
0
 62
     0
 10
1.5875
 20
0.901238
 30
0.0
 11
1.44832
 21
0.829578
 31
0.0
  0
LINE
  8
0
 62
     0
 10
1.44832
 20
0.829578
 30
0.0
 11
1.29398
 21
0.806154
 31
0.0
  0
LINE
  8
0
 62
     0
 10
1.29398
 20
0.806154
 30
0.0
 11
1.13826
 21
0.829578
 31
0.0
  0
LINE
  8
0
 62
     0
 10
1.13826
 20
0.829578
 30
0.0
 11
0.999077
 21
0.901238
 31
0.0
  0
LINE
  8
0
 62
     0
 10
0.999077
 20
0.901238
 30
0.0
 11
0.888834
 21
1.01148
 31
0.0
  0
LINE
  8
0
 62
     0
 10
0.888834
 20
1.01148
 30
0.0
 11
0.817178
 21
1.15066
 31
0.0
  0
LINE
  8
0
 62
     0
 10
0.817178
 20
1.15066
 30
0.0
 11
0.79375
 21
1.30638
 31
0.0
  0
LINE
  8
0
 62
     0
 10
0.79375
 20
1.30638
 30
0.0
 11
0.817178
 21
1.46072
 31
0.0
  0
LINE
  8
0
 62
     0
 10
0.817178
 20
1.46072
 30
0.0
 11
0.888834
 21
1.5999
 31
0.0
  0
LINE
  8
0
 62
     0
 10
0.888834
 20
1.5999
 30
0.0
 11
0.999077
 21
1.71015
 31
0.0
  0
LINE
  8
0
 62
     0
 10
0.999077
 20
1.71015
 30
0.0
 11
1.13826
 21
1.7818
 31
0.0
  0
LINE
  8
0
 62
     0
 10
1.13826
 20
1.7818
 30
0.0
 11
1.29398
 21
1.80523
 31
0.0
  0
LINE
  8
0
 62
     0
 10
1.29398
 20
99.4558
 30
0.0
 11
1.44832
 21
99.4322
 31
0.0
  0
LINE
  8
0
 62
     0
 10
1.44832
 20
99.4322
 30
0.0
 11
1.5875
 21
99.3606
 31
0.0
  0
LINE
  8
0
 62
     0
 10
1.5875
 20
99.3606
 30
0.0
 11
1.69912
 21
99.2505
 31
0.0
  0
LINE
  8
0
 62
     0
 10
1.69912
 20
99.2505
 30
0.0
 11
1.7694
 21
99.1112
 31
0.0
  0
LINE
  8
0
 62
     0
 10
1.7694
 20
99.1112
 30
0.0
 11
1.79421
 21
98.9556
 31
0.0
  0
LINE
  8
0
 62
     0
 10
1.79421
 20
98.9556
 30
0.0
 11
1.7694
 21
98.8011
 31
0.0
  0
LINE
  8
0
 62
     0
 10
1.7694
 20
98.8011
 30
0.0
 11
1.69912
 21
98.6621
 31
0.0
  0
LINE
  8
0
 62
     0
 10
1.69912
 20
98.6621
 30
0.0
 11
1.5875
 21
98.5502
 31
0.0
  0
LINE
  8
0
 62
     0
 10
1.5875
 20
98.5502
 30
0.0
 11
1.44832
 21
98.48
 31
0.0
  0
LINE
  8
0
 62
     0
 10
1.44832
 20
98.48
 30
0.0
 11
1.29398
 21
98.4553
 31
0.0
  0
LINE
  8
0
 62
     0
 10
1.29398
 20
98.4553
 30
0.0
 11
1.13826
 21
98.48
 31
0.0
  0
LINE
  8
0
 62
     0
 10
1.13826
 20
98.48
 30
0.0
 11
0.999077
 21
98.5502
 31
0.0
  0
LINE
  8
0
 62
     0
 10
0.999077
 20
98.5502
 30
0.0
 11
0.888834
 21
98.6621
 31
0.0
  0
LINE
  8
0
 62
     0
 10
0.888834
 20
98.6621
 30
0.0
 11
0.817178
 21
98.8011
 31
0.0
  0
LINE
  8
0
 62
     0
 10
0.817178
 20
98.8011
 30
0.0
 11
0.79375
 21
98.9556
 31
0.0
  0
LINE
  8
0
 62
     0
 10
0.79375
 20
98.9556
 30
0.0
 11
0.817178
 21
99.1112
 31
0.0
  0
LINE
  8
0
 62
     0
 10
0.817178
 20
99.1112
 30
0.0
 11
0.888834
 21
99.2505
 31
0.0
  0
LINE
  8
0
 62
     0
 10
0.888834
 20
99.2505
 30
0.0
 11
0.999077
 21
99.3606
 31
0.0
  0
LINE
  8
0
 62
     0
 10
0.999077
 20
99.3606
 30
0.0
 11
1.13826
 21
99.4322
 31
0.0
  0
LINE
  8
0
 62
     0
 10
1.13826
 20
99.4322
 30
0.0
 11
1.29398
 21
99.4558
 31
0.0
  0
ENDSEC
  0
EOF
