  0
SECTION
  2
HEADER
  9
$ACADVER
  1
AC1009
  9
$EXTMIN
 10
0.0
 20
0.0
 30
0.0
  9
$EXTMAX
 10
1000.0
 20
1000.0
 30
0.0
  9
$FILLMODE
 70
 0
  9
$SPLFRAME
 70
 1
  0
ENDSEC
  0
SECTION
  2
TABLES
  0
TABLE
  2
LAYER
 70
1
  0
LAYER
  2
0
 70
     0
 62
     7
  6
CONTINUOUS
  0
ENDTAB
  0
ENDSEC
  0
SECTION
  2
ENTITIES
  0
LINE
  8
0
 62
     0
 10
297.844
 20
105.344
 30
0.0
 11
297.838
 21
105.501
 31
0.0
  0
LINE
  8
0
 62
     0
 10
297.838
 20
105.501
 30
0.0
 11
297.819
 21
105.657
 31
0.0
  0
LINE
  8
0
 62
     0
 10
297.819
 20
105.657
 30
0.0
 11
297.789
 21
105.811
 31
0.0
  0
LINE
  8
0
 62
     0
 10
297.789
 20
105.811
 30
0.0
 11
297.746
 21
105.961
 31
0.0
  0
LINE
  8
0
 62
     0
 10
297.746
 20
105.961
 30
0.0
 11
297.692
 21
106.109
 31
0.0
  0
LINE
  8
0
 62
     0
 10
297.692
 20
106.109
 30
0.0
 11
297.626
 21
106.252
 31
0.0
  0
LINE
  8
0
 62
     0
 10
297.626
 20
106.252
 30
0.0
 11
297.549
 21
106.389
 31
0.0
  0
LINE
  8
0
 62
     0
 10
297.549
 20
106.389
 30
0.0
 11
297.462
 21
106.519
 31
0.0
  0
LINE
  8
0
 62
     0
 10
297.462
 20
106.519
 30
0.0
 11
297.364
 21
106.642
 31
0.0
  0
LINE
  8
0
 62
     0
 10
297.364
 20
106.642
 30
0.0
 11
297.258
 21
106.758
 31
0.0
  0
LINE
  8
0
 62
     0
 10
297.258
 20
106.758
 30
0.0
 11
297.142
 21
106.864
 31
0.0
  0
LINE
  8
0
 62
     0
 10
297.142
 20
106.864
 30
0.0
 11
297.019
 21
106.962
 31
0.0
  0
LINE
  8
0
 62
     0
 10
297.019
 20
106.962
 30
0.0
 11
296.889
 21
107.049
 31
0.0
  0
LINE
  8
0
 62
     0
 10
296.889
 20
107.049
 30
0.0
 11
296.752
 21
107.126
 31
0.0
  0
LINE
  8
0
 62
     0
 10
296.752
 20
107.126
 30
0.0
 11
296.609
 21
107.192
 31
0.0
  0
LINE
  8
0
 62
     0
 10
296.609
 20
107.192
 30
0.0
 11
296.461
 21
107.246
 31
0.0
  0
LINE
  8
0
 62
     0
 10
296.461
 20
107.246
 30
0.0
 11
296.311
 21
107.289
 31
0.0
  0
LINE
  8
0
 62
     0
 10
296.311
 20
107.289
 30
0.0
 11
296.157
 21
107.319
 31
0.0
  0
LINE
  8
0
 62
     0
 10
296.157
 20
107.319
 30
0.0
 11
296.001
 21
107.338
 31
0.0
  0
LINE
  8
0
 62
     0
 10
296.001
 20
107.338
 30
0.0
 11
295.844
 21
107.344
 31
0.0
  0
LINE
  8
0
 62
     0
 10
295.844
 20
107.344
 30
0.0
 11
153.968
 21
107.344
 31
0.0
  0
LINE
  8
0
 62
     0
 10
153.968
 20
107.344
 30
0.0
 11
153.968
 21
101.344
 31
0.0
  0
LINE
  8
0
 62
     0
 10
153.968
 20
101.344
 30
0.0
 11
291.844
 21
101.344
 31
0.0
  0
LINE
  8
0
 62
     0
 10
291.844
 20
101.344
 30
0.0
 11
291.844
 21
6.09367
 31
0.0
  0
LINE
  8
0
 62
     0
 10
291.844
 20
6.09367
 30
0.0
 11
6.09367
 21
6.09367
 31
0.0
  0
LINE
  8
0
 62
     0
 10
6.09367
 20
6.09367
 30
0.0
 11
6.09367
 21
101.344
 31
0.0
  0
LINE
  8
0
 62
     0
 10
6.09367
 20
101.344
 30
0.0
 11
143.969
 21
101.344
 31
0.0
  0
LINE
  8
0
 62
     0
 10
143.969
 20
101.344
 30
0.0
 11
143.969
 21
107.344
 31
0.0
  0
LINE
  8
0
 62
     0
 10
143.969
 20
107.344
 30
0.0
 11
2.09324
 21
107.344
 31
0.0
  0
LINE
  8
0
 62
     0
 10
2.09324
 20
107.344
 30
0.0
 11
1.93614
 21
107.338
 31
0.0
  0
LINE
  8
0
 62
     0
 10
1.93614
 20
107.338
 30
0.0
 11
1.78043
 21
107.319
 31
0.0
  0
LINE
  8
0
 62
     0
 10
1.78043
 20
107.319
 30
0.0
 11
1.62609
 21
107.289
 31
0.0
  0
LINE
  8
0
 62
     0
 10
1.62609
 20
107.289
 30
0.0
 11
1.47588
 21
107.246
 31
0.0
  0
LINE
  8
0
 62
     0
 10
1.47588
 20
107.246
 30
0.0
 11
1.32843
 21
107.192
 31
0.0
  0
LINE
  8
0
 62
     0
 10
1.32843
 20
107.192
 30
0.0
 11
1.18511
 21
107.126
 31
0.0
  0
LINE
  8
0
 62
     0
 10
1.18511
 20
107.126
 30
0.0
 11
1.04869
 21
107.049
 31
0.0
  0
LINE
  8
0
 62
     0
 10
1.04869
 20
107.049
 30
0.0
 11
0.917773
 21
106.962
 31
0.0
  0
LINE
  8
0
 62
     0
 10
0.917773
 20
106.962
 30
0.0
 11
0.795129
 21
106.864
 31
0.0
  0
LINE
  8
0
 62
     0
 10
0.795129
 20
106.864
 30
0.0
 11
0.679372
 21
106.758
 31
0.0
  0
LINE
  8
0
 62
     0
 10
0.679372
 20
106.758
 30
0.0
 11
0.573264
 21
106.642
 31
0.0
  0
LINE
  8
0
 62
     0
 10
0.573264
 20
106.642
 30
0.0
 11
0.475424
 21
106.519
 31
0.0
  0
LINE
  8
0
 62
     0
 10
0.475424
 20
106.519
 30
0.0
 11
0.388606
 21
106.389
 31
0.0
  0
LINE
  8
0
 62
     0
 10
0.388606
 20
106.389
 30
0.0
 11
0.311437
 21
106.252
 31
0.0
  0
LINE
  8
0
 62
     0
 10
0.311437
 20
106.252
 30
0.0
 11
0.245291
 21
106.109
 31
0.0
  0
LINE
  8
0
 62
     0
 10
0.245291
 20
106.109
 30
0.0
 11
0.191547
 21
105.961
 31
0.0
  0
LINE
  8
0
 62
     0
 10
0.191547
 20
105.961
 30
0.0
 11
0.148828
 21
105.811
 31
0.0
  0
LINE
  8
0
 62
     0
 10
0.148828
 20
105.811
 30
0.0
 11
0.118511
 21
105.657
 31
0.0
  0
LINE
  8
0
 62
     0
 10
0.118511
 20
105.657
 30
0.0
 11
0.0992188
 21
105.501
 31
0.0
  0
LINE
  8
0
 62
     0
 10
0.0992188
 20
105.501
 30
0.0
 11
0.0937066
 21
105.344
 31
0.0
  0
LINE
  8
0
 62
     0
 10
0.0937066
 20
105.344
 30
0.0
 11
0.0937066
 21
2.09324
 31
0.0
  0
LINE
  8
0
 62
     0
 10
0.0937066
 20
2.09324
 30
0.0
 11
0.0992188
 21
1.93614
 31
0.0
  0
LINE
  8
0
 62
     0
 10
0.0992188
 20
1.93614
 30
0.0
 11
0.118511
 21
1.78043
 31
0.0
  0
LINE
  8
0
 62
     0
 10
0.118511
 20
1.78043
 30
0.0
 11
0.148828
 21
1.62609
 31
0.0
  0
LINE
  8
0
 62
     0
 10
0.148828
 20
1.62609
 30
0.0
 11
0.191547
 21
1.47588
 31
0.0
  0
LINE
  8
0
 62
     0
 10
0.191547
 20
1.47588
 30
0.0
 11
0.245291
 21
1.32843
 31
0.0
  0
LINE
  8
0
 62
     0
 10
0.245291
 20
1.32843
 30
0.0
 11
0.311437
 21
1.18511
 31
0.0
  0
LINE
  8
0
 62
     0
 10
0.311437
 20
1.18511
 30
0.0
 11
0.388606
 21
1.04869
 31
0.0
  0
LINE
  8
0
 62
     0
 10
0.388606
 20
1.04869
 30
0.0
 11
0.475424
 21
0.917773
 31
0.0
  0
LINE
  8
0
 62
     0
 10
0.475424
 20
0.917773
 30
0.0
 11
0.573264
 21
0.795129
 31
0.0
  0
LINE
  8
0
 62
     0
 10
0.573264
 20
0.795129
 30
0.0
 11
0.679372
 21
0.679372
 31
0.0
  0
LINE
  8
0
 62
     0
 10
0.679372
 20
0.679372
 30
0.0
 11
0.795129
 21
0.573264
 31
0.0
  0
LINE
  8
0
 62
     0
 10
0.795129
 20
0.573264
 30
0.0
 11
0.917773
 21
0.475424
 31
0.0
  0
LINE
  8
0
 62
     0
 10
0.917773
 20
0.475424
 30
0.0
 11
1.04869
 21
0.388606
 31
0.0
  0
LINE
  8
0
 62
     0
 10
1.04869
 20
0.388606
 30
0.0
 11
1.18511
 21
0.311437
 31
0.0
  0
LINE
  8
0
 62
     0
 10
1.18511
 20
0.311437
 30
0.0
 11
1.32843
 21
0.245291
 31
0.0
  0
LINE
  8
0
 62
     0
 10
1.32843
 20
0.245291
 30
0.0
 11
1.47588
 21
0.191547
 31
0.0
  0
LINE
  8
0
 62
     0
 10
1.47588
 20
0.191547
 30
0.0
 11
1.62609
 21
0.148828
 31
0.0
  0
LINE
  8
0
 62
     0
 10
1.62609
 20
0.148828
 30
0.0
 11
1.78043
 21
0.118511
 31
0.0
  0
LINE
  8
0
 62
     0
 10
1.78043
 20
0.118511
 30
0.0
 11
1.93614
 21
0.0992188
 31
0.0
  0
LINE
  8
0
 62
     0
 10
1.93614
 20
0.0992188
 30
0.0
 11
2.09324
 21
0.0937066
 31
0.0
  0
LINE
  8
0
 62
     0
 10
2.09324
 20
0.0937066
 30
0.0
 11
295.844
 21
0.0937066
 31
0.0
  0
LINE
  8
0
 62
     0
 10
295.844
 20
0.0937066
 30
0.0
 11
296.001
 21
0.0992188
 31
0.0
  0
LINE
  8
0
 62
     0
 10
296.001
 20
0.0992188
 30
0.0
 11
296.157
 21
0.118511
 31
0.0
  0
LINE
  8
0
 62
     0
 10
296.157
 20
0.118511
 30
0.0
 11
296.311
 21
0.148828
 31
0.0
  0
LINE
  8
0
 62
     0
 10
296.311
 20
0.148828
 30
0.0
 11
296.461
 21
0.191547
 31
0.0
  0
LINE
  8
0
 62
     0
 10
296.461
 20
0.191547
 30
0.0
 11
296.609
 21
0.245291
 31
0.0
  0
LINE
  8
0
 62
     0
 10
296.609
 20
0.245291
 30
0.0
 11
296.752
 21
0.311437
 31
0.0
  0
LINE
  8
0
 62
     0
 10
296.752
 20
0.311437
 30
0.0
 11
296.889
 21
0.388606
 31
0.0
  0
LINE
  8
0
 62
     0
 10
296.889
 20
0.388606
 30
0.0
 11
297.019
 21
0.475424
 31
0.0
  0
LINE
  8
0
 62
     0
 10
297.019
 20
0.475424
 30
0.0
 11
297.142
 21
0.573264
 31
0.0
  0
LINE
  8
0
 62
     0
 10
297.142
 20
0.573264
 30
0.0
 11
297.258
 21
0.679372
 31
0.0
  0
LINE
  8
0
 62
     0
 10
297.258
 20
0.679372
 30
0.0
 11
297.364
 21
0.795129
 31
0.0
  0
LINE
  8
0
 62
     0
 10
297.364
 20
0.795129
 30
0.0
 11
297.462
 21
0.917773
 31
0.0
  0
LINE
  8
0
 62
     0
 10
297.462
 20
0.917773
 30
0.0
 11
297.549
 21
1.04869
 31
0.0
  0
LINE
  8
0
 62
     0
 10
297.549
 20
1.04869
 30
0.0
 11
297.626
 21
1.18511
 31
0.0
  0
LINE
  8
0
 62
     0
 10
297.626
 20
1.18511
 30
0.0
 11
297.692
 21
1.32843
 31
0.0
  0
LINE
  8
0
 62
     0
 10
297.692
 20
1.32843
 30
0.0
 11
297.746
 21
1.47588
 31
0.0
  0
LINE
  8
0
 62
     0
 10
297.746
 20
1.47588
 30
0.0
 11
297.789
 21
1.62609
 31
0.0
  0
LINE
  8
0
 62
     0
 10
297.789
 20
1.62609
 30
0.0
 11
297.819
 21
1.78043
 31
0.0
  0
LINE
  8
0
 62
     0
 10
297.819
 20
1.78043
 30
0.0
 11
297.838
 21
1.93614
 31
0.0
  0
LINE
  8
0
 62
     0
 10
297.838
 20
1.93614
 30
0.0
 11
297.844
 21
2.09324
 31
0.0
  0
LINE
  8
0
 62
     0
 10
297.844
 20
2.09324
 30
0.0
 11
297.844
 21
105.344
 31
0.0
  0
LINE
  8
0
 62
     0
 10
100.343
 20
105.843
 30
0.0
 11
100.808
 21
105.77
 31
0.0
  0
LINE
  8
0
 62
     0
 10
100.808
 20
105.77
 30
0.0
 11
101.225
 21
105.558
 31
0.0
  0
LINE
  8
0
 62
     0
 10
101.225
 20
105.558
 30
0.0
 11
101.557
 21
105.226
 31
0.0
  0
LINE
  8
0
 62
     0
 10
101.557
 20
105.226
 30
0.0
 11
101.771
 21
104.808
 31
0.0
  0
LINE
  8
0
 62
     0
 10
101.771
 20
104.808
 30
0.0
 11
101.844
 21
104.344
 31
0.0
  0
LINE
  8
0
 62
     0
 10
101.844
 20
104.344
 30
0.0
 11
101.771
 21
103.879
 31
0.0
  0
LINE
  8
0
 62
     0
 10
101.771
 20
103.879
 30
0.0
 11
101.557
 21
103.462
 31
0.0
  0
LINE
  8
0
 62
     0
 10
101.557
 20
103.462
 30
0.0
 11
101.225
 21
103.13
 31
0.0
  0
LINE
  8
0
 62
     0
 10
101.225
 20
103.13
 30
0.0
 11
100.808
 21
102.916
 31
0.0
  0
LINE
  8
0
 62
     0
 10
100.808
 20
102.916
 30
0.0
 11
100.343
 21
102.843
 31
0.0
  0
LINE
  8
0
 62
     0
 10
100.343
 20
102.843
 30
0.0
 11
99.8802
 21
102.916
 31
0.0
  0
LINE
  8
0
 62
     0
 10
99.8802
 20
102.916
 30
0.0
 11
99.4615
 21
103.13
 31
0.0
  0
LINE
  8
0
 62
     0
 10
99.4615
 20
103.13
 30
0.0
 11
99.1291
 21
103.462
 31
0.0
  0
LINE
  8
0
 62
     0
 10
99.1291
 20
103.462
 30
0.0
 11
98.9171
 21
103.879
 31
0.0
  0
LINE
  8
0
 62
     0
 10
98.9171
 20
103.879
 30
0.0
 11
98.8441
 21
104.344
 31
0.0
  0
LINE
  8
0
 62
     0
 10
98.8441
 20
104.344
 30
0.0
 11
98.9171
 21
104.808
 31
0.0
  0
LINE
  8
0
 62
     0
 10
98.9171
 20
104.808
 30
0.0
 11
99.1291
 21
105.226
 31
0.0
  0
LINE
  8
0
 62
     0
 10
99.1291
 20
105.226
 30
0.0
 11
99.4615
 21
105.558
 31
0.0
  0
LINE
  8
0
 62
     0
 10
99.4615
 20
105.558
 30
0.0
 11
99.8802
 21
105.77
 31
0.0
  0
LINE
  8
0
 62
     0
 10
99.8802
 20
105.77
 30
0.0
 11
100.343
 21
105.843
 31
0.0
  0
LINE
  8
0
 62
     0
 10
197.594
 20
105.843
 30
0.0
 11
198.057
 21
105.77
 31
0.0
  0
LINE
  8
0
 62
     0
 10
198.057
 20
105.77
 30
0.0
 11
198.476
 21
105.558
 31
0.0
  0
LINE
  8
0
 62
     0
 10
198.476
 20
105.558
 30
0.0
 11
198.808
 21
105.226
 31
0.0
  0
LINE
  8
0
 62
     0
 10
198.808
 20
105.226
 30
0.0
 11
199.02
 21
104.808
 31
0.0
  0
LINE
  8
0
 62
     0
 10
199.02
 20
104.808
 30
0.0
 11
199.093
 21
104.344
 31
0.0
  0
LINE
  8
0
 62
     0
 10
199.093
 20
104.344
 30
0.0
 11
199.02
 21
103.879
 31
0.0
  0
LINE
  8
0
 62
     0
 10
199.02
 20
103.879
 30
0.0
 11
198.808
 21
103.462
 31
0.0
  0
LINE
  8
0
 62
     0
 10
198.808
 20
103.462
 30
0.0
 11
198.476
 21
103.13
 31
0.0
  0
LINE
  8
0
 62
     0
 10
198.476
 20
103.13
 30
0.0
 11
198.057
 21
102.916
 31
0.0
  0
LINE
  8
0
 62
     0
 10
198.057
 20
102.916
 30
0.0
 11
197.594
 21
102.843
 31
0.0
  0
LINE
  8
0
 62
     0
 10
197.594
 20
102.843
 30
0.0
 11
197.13
 21
102.916
 31
0.0
  0
LINE
  8
0
 62
     0
 10
197.13
 20
102.916
 30
0.0
 11
196.712
 21
103.13
 31
0.0
  0
LINE
  8
0
 62
     0
 10
196.712
 20
103.13
 30
0.0
 11
196.38
 21
103.462
 31
0.0
  0
LINE
  8
0
 62
     0
 10
196.38
 20
103.462
 30
0.0
 11
196.167
 21
103.879
 31
0.0
  0
LINE
  8
0
 62
     0
 10
196.167
 20
103.879
 30
0.0
 11
196.093
 21
104.344
 31
0.0
  0
LINE
  8
0
 62
     0
 10
196.093
 20
104.344
 30
0.0
 11
196.167
 21
104.808
 31
0.0
  0
LINE
  8
0
 62
     0
 10
196.167
 20
104.808
 30
0.0
 11
196.38
 21
105.226
 31
0.0
  0
LINE
  8
0
 62
     0
 10
196.38
 20
105.226
 30
0.0
 11
196.712
 21
105.558
 31
0.0
  0
LINE
  8
0
 62
     0
 10
196.712
 20
105.558
 30
0.0
 11
197.13
 21
105.77
 31
0.0
  0
LINE
  8
0
 62
     0
 10
197.13
 20
105.77
 30
0.0
 11
197.594
 21
105.843
 31
0.0
  0
LINE
  8
0
 62
     0
 10
294.844
 20
105.843
 30
0.0
 11
295.308
 21
105.77
 31
0.0
  0
LINE
  8
0
 62
     0
 10
295.308
 20
105.77
 30
0.0
 11
295.725
 21
105.558
 31
0.0
  0
LINE
  8
0
 62
     0
 10
295.725
 20
105.558
 30
0.0
 11
296.058
 21
105.226
 31
0.0
  0
LINE
  8
0
 62
     0
 10
296.058
 20
105.226
 30
0.0
 11
296.271
 21
104.808
 31
0.0
  0
LINE
  8
0
 62
     0
 10
296.271
 20
104.808
 30
0.0
 11
296.344
 21
104.344
 31
0.0
  0
LINE
  8
0
 62
     0
 10
296.344
 20
104.344
 30
0.0
 11
296.271
 21
103.879
 31
0.0
  0
LINE
  8
0
 62
     0
 10
296.271
 20
103.879
 30
0.0
 11
296.058
 21
103.462
 31
0.0
  0
LINE
  8
0
 62
     0
 10
296.058
 20
103.462
 30
0.0
 11
295.725
 21
103.13
 31
0.0
  0
LINE
  8
0
 62
     0
 10
295.725
 20
103.13
 30
0.0
 11
295.308
 21
102.916
 31
0.0
  0
LINE
  8
0
 62
     0
 10
295.308
 20
102.916
 30
0.0
 11
294.844
 21
102.843
 31
0.0
  0
LINE
  8
0
 62
     0
 10
294.844
 20
102.843
 30
0.0
 11
294.379
 21
102.916
 31
0.0
  0
LINE
  8
0
 62
     0
 10
294.379
 20
102.916
 30
0.0
 11
293.962
 21
103.13
 31
0.0
  0
LINE
  8
0
 62
     0
 10
293.962
 20
103.13
 30
0.0
 11
293.63
 21
103.462
 31
0.0
  0
LINE
  8
0
 62
     0
 10
293.63
 20
103.462
 30
0.0
 11
293.417
 21
103.879
 31
0.0
  0
LINE
  8
0
 62
     0
 10
293.417
 20
103.879
 30
0.0
 11
293.344
 21
104.344
 31
0.0
  0
LINE
  8
0
 62
     0
 10
293.344
 20
104.344
 30
0.0
 11
293.417
 21
104.808
 31
0.0
  0
LINE
  8
0
 62
     0
 10
293.417
 20
104.808
 30
0.0
 11
293.63
 21
105.226
 31
0.0
  0
LINE
  8
0
 62
     0
 10
293.63
 20
105.226
 30
0.0
 11
293.962
 21
105.558
 31
0.0
  0
LINE
  8
0
 62
     0
 10
293.962
 20
105.558
 30
0.0
 11
294.379
 21
105.77
 31
0.0
  0
LINE
  8
0
 62
     0
 10
294.379
 20
105.77
 30
0.0
 11
294.844
 21
105.843
 31
0.0
  0
LINE
  8
0
 62
     0
 10
294.844
 20
4.59299
 30
0.0
 11
295.308
 21
4.51997
 31
0.0
  0
LINE
  8
0
 62
     0
 10
295.308
 20
4.51997
 30
0.0
 11
295.725
 21
4.30773
 31
0.0
  0
LINE
  8
0
 62
     0
 10
295.725
 20
4.30773
 30
0.0
 11
296.058
 21
3.97563
 31
0.0
  0
LINE
  8
0
 62
     0
 10
296.058
 20
3.97563
 30
0.0
 11
296.271
 21
3.55808
 31
0.0
  0
LINE
  8
0
 62
     0
 10
296.271
 20
3.55808
 30
0.0
 11
296.344
 21
3.0937
 31
0.0
  0
LINE
  8
0
 62
     0
 10
296.344
 20
3.0937
 30
0.0
 11
296.271
 21
2.6293
 31
0.0
  0
LINE
  8
0
 62
     0
 10
296.271
 20
2.6293
 30
0.0
 11
296.058
 21
2.21175
 31
0.0
  0
LINE
  8
0
 62
     0
 10
296.058
 20
2.21175
 30
0.0
 11
295.725
 21
1.87965
 31
0.0
  0
LINE
  8
0
 62
     0
 10
295.725
 20
1.87965
 30
0.0
 11
295.308
 21
1.66605
 31
0.0
  0
LINE
  8
0
 62
     0
 10
295.308
 20
1.66605
 30
0.0
 11
294.844
 21
1.59301
 31
0.0
  0
LINE
  8
0
 62
     0
 10
294.844
 20
1.59301
 30
0.0
 11
294.379
 21
1.66605
 31
0.0
  0
LINE
  8
0
 62
     0
 10
294.379
 20
1.66605
 30
0.0
 11
293.962
 21
1.87965
 31
0.0
  0
LINE
  8
0
 62
     0
 10
293.962
 20
1.87965
 30
0.0
 11
293.63
 21
2.21175
 31
0.0
  0
LINE
  8
0
 62
     0
 10
293.63
 20
2.21175
 30
0.0
 11
293.417
 21
2.6293
 31
0.0
  0
LINE
  8
0
 62
     0
 10
293.417
 20
2.6293
 30
0.0
 11
293.344
 21
3.0937
 31
0.0
  0
LINE
  8
0
 62
     0
 10
293.344
 20
3.0937
 30
0.0
 11
293.417
 21
3.55808
 31
0.0
  0
LINE
  8
0
 62
     0
 10
293.417
 20
3.55808
 30
0.0
 11
293.63
 21
3.97563
 31
0.0
  0
LINE
  8
0
 62
     0
 10
293.63
 20
3.97563
 30
0.0
 11
293.962
 21
4.30773
 31
0.0
  0
LINE
  8
0
 62
     0
 10
293.962
 20
4.30773
 30
0.0
 11
294.379
 21
4.51997
 31
0.0
  0
LINE
  8
0
 62
     0
 10
294.379
 20
4.51997
 30
0.0
 11
294.844
 21
4.59299
 31
0.0
  0
LINE
  8
0
 62
     0
 10
197.594
 20
4.59299
 30
0.0
 11
198.057
 21
4.51997
 31
0.0
  0
LINE
  8
0
 62
     0
 10
198.057
 20
4.51997
 30
0.0
 11
198.476
 21
4.30773
 31
0.0
  0
LINE
  8
0
 62
     0
 10
198.476
 20
4.30773
 30
0.0
 11
198.808
 21
3.97563
 31
0.0
  0
LINE
  8
0
 62
     0
 10
198.808
 20
3.97563
 30
0.0
 11
199.02
 21
3.55808
 31
0.0
  0
LINE
  8
0
 62
     0
 10
199.02
 20
3.55808
 30
0.0
 11
199.093
 21
3.0937
 31
0.0
  0
LINE
  8
0
 62
     0
 10
199.093
 20
3.0937
 30
0.0
 11
199.02
 21
2.6293
 31
0.0
  0
LINE
  8
0
 62
     0
 10
199.02
 20
2.6293
 30
0.0
 11
198.808
 21
2.21175
 31
0.0
  0
LINE
  8
0
 62
     0
 10
198.808
 20
2.21175
 30
0.0
 11
198.476
 21
1.87965
 31
0.0
  0
LINE
  8
0
 62
     0
 10
198.476
 20
1.87965
 30
0.0
 11
198.057
 21
1.66605
 31
0.0
  0
LINE
  8
0
 62
     0
 10
198.057
 20
1.66605
 30
0.0
 11
197.594
 21
1.59301
 31
0.0
  0
LINE
  8
0
 62
     0
 10
197.594
 20
1.59301
 30
0.0
 11
197.13
 21
1.66605
 31
0.0
  0
LINE
  8
0
 62
     0
 10
197.13
 20
1.66605
 30
0.0
 11
196.712
 21
1.87965
 31
0.0
  0
LINE
  8
0
 62
     0
 10
196.712
 20
1.87965
 30
0.0
 11
196.38
 21
2.21175
 31
0.0
  0
LINE
  8
0
 62
     0
 10
196.38
 20
2.21175
 30
0.0
 11
196.167
 21
2.6293
 31
0.0
  0
LINE
  8
0
 62
     0
 10
196.167
 20
2.6293
 30
0.0
 11
196.093
 21
3.0937
 31
0.0
  0
LINE
  8
0
 62
     0
 10
196.093
 20
3.0937
 30
0.0
 11
196.167
 21
3.55808
 31
0.0
  0
LINE
  8
0
 62
     0
 10
196.167
 20
3.55808
 30
0.0
 11
196.38
 21
3.97563
 31
0.0
  0
LINE
  8
0
 62
     0
 10
196.38
 20
3.97563
 30
0.0
 11
196.712
 21
4.30773
 31
0.0
  0
LINE
  8
0
 62
     0
 10
196.712
 20
4.30773
 30
0.0
 11
197.13
 21
4.51997
 31
0.0
  0
LINE
  8
0
 62
     0
 10
197.13
 20
4.51997
 30
0.0
 11
197.594
 21
4.59299
 31
0.0
  0
LINE
  8
0
 62
     0
 10
100.343
 20
4.59299
 30
0.0
 11
100.808
 21
4.51997
 31
0.0
  0
LINE
  8
0
 62
     0
 10
100.808
 20
4.51997
 30
0.0
 11
101.225
 21
4.30773
 31
0.0
  0
LINE
  8
0
 62
     0
 10
101.225
 20
4.30773
 30
0.0
 11
101.557
 21
3.97563
 31
0.0
  0
LINE
  8
0
 62
     0
 10
101.557
 20
3.97563
 30
0.0
 11
101.771
 21
3.55808
 31
0.0
  0
LINE
  8
0
 62
     0
 10
101.771
 20
3.55808
 30
0.0
 11
101.844
 21
3.0937
 31
0.0
  0
LINE
  8
0
 62
     0
 10
101.844
 20
3.0937
 30
0.0
 11
101.771
 21
2.6293
 31
0.0
  0
LINE
  8
0
 62
     0
 10
101.771
 20
2.6293
 30
0.0
 11
101.557
 21
2.21175
 31
0.0
  0
LINE
  8
0
 62
     0
 10
101.557
 20
2.21175
 30
0.0
 11
101.225
 21
1.87965
 31
0.0
  0
LINE
  8
0
 62
     0
 10
101.225
 20
1.87965
 30
0.0
 11
100.808
 21
1.66605
 31
0.0
  0
LINE
  8
0
 62
     0
 10
100.808
 20
1.66605
 30
0.0
 11
100.343
 21
1.59301
 31
0.0
  0
LINE
  8
0
 62
     0
 10
100.343
 20
1.59301
 30
0.0
 11
99.8802
 21
1.66605
 31
0.0
  0
LINE
  8
0
 62
     0
 10
99.8802
 20
1.66605
 30
0.0
 11
99.4615
 21
1.87965
 31
0.0
  0
LINE
  8
0
 62
     0
 10
99.4615
 20
1.87965
 30
0.0
 11
99.1291
 21
2.21175
 31
0.0
  0
LINE
  8
0
 62
     0
 10
99.1291
 20
2.21175
 30
0.0
 11
98.9171
 21
2.6293
 31
0.0
  0
LINE
  8
0
 62
     0
 10
98.9171
 20
2.6293
 30
0.0
 11
98.8441
 21
3.0937
 31
0.0
  0
LINE
  8
0
 62
     0
 10
98.8441
 20
3.0937
 30
0.0
 11
98.9171
 21
3.55808
 31
0.0
  0
LINE
  8
0
 62
     0
 10
98.9171
 20
3.55808
 30
0.0
 11
99.1291
 21
3.97563
 31
0.0
  0
LINE
  8
0
 62
     0
 10
99.1291
 20
3.97563
 30
0.0
 11
99.4615
 21
4.30773
 31
0.0
  0
LINE
  8
0
 62
     0
 10
99.4615
 20
4.30773
 30
0.0
 11
99.8802
 21
4.51997
 31
0.0
  0
LINE
  8
0
 62
     0
 10
99.8802
 20
4.51997
 30
0.0
 11
100.343
 21
4.59299
 31
0.0
  0
LINE
  8
0
 62
     0
 10
3.0937
 20
4.59299
 30
0.0
 11
3.55808
 21
4.51997
 31
0.0
  0
LINE
  8
0
 62
     0
 10
3.55808
 20
4.51997
 30
0.0
 11
3.97563
 21
4.30773
 31
0.0
  0
LINE
  8
0
 62
     0
 10
3.97563
 20
4.30773
 30
0.0
 11
4.30773
 21
3.97563
 31
0.0
  0
LINE
  8
0
 62
     0
 10
4.30773
 20
3.97563
 30
0.0
 11
4.52134
 21
3.55808
 31
0.0
  0
LINE
  8
0
 62
     0
 10
4.52134
 20
3.55808
 30
0.0
 11
4.59437
 21
3.0937
 31
0.0
  0
LINE
  8
0
 62
     0
 10
4.59437
 20
3.0937
 30
0.0
 11
4.52134
 21
2.6293
 31
0.0
  0
LINE
  8
0
 62
     0
 10
4.52134
 20
2.6293
 30
0.0
 11
4.30773
 21
2.21175
 31
0.0
  0
LINE
  8
0
 62
     0
 10
4.30773
 20
2.21175
 30
0.0
 11
3.97563
 21
1.87965
 31
0.0
  0
LINE
  8
0
 62
     0
 10
3.97563
 20
1.87965
 30
0.0
 11
3.55808
 21
1.66605
 31
0.0
  0
LINE
  8
0
 62
     0
 10
3.55808
 20
1.66605
 30
0.0
 11
3.0937
 21
1.59301
 31
0.0
  0
LINE
  8
0
 62
     0
 10
3.0937
 20
1.59301
 30
0.0
 11
2.6293
 21
1.66605
 31
0.0
  0
LINE
  8
0
 62
     0
 10
2.6293
 20
1.66605
 30
0.0
 11
2.21175
 21
1.87965
 31
0.0
  0
LINE
  8
0
 62
     0
 10
2.21175
 20
1.87965
 30
0.0
 11
1.87965
 21
2.21175
 31
0.0
  0
LINE
  8
0
 62
     0
 10
1.87965
 20
2.21175
 30
0.0
 11
1.66743
 21
2.6293
 31
0.0
  0
LINE
  8
0
 62
     0
 10
1.66743
 20
2.6293
 30
0.0
 11
1.59439
 21
3.0937
 31
0.0
  0
LINE
  8
0
 62
     0
 10
1.59439
 20
3.0937
 30
0.0
 11
1.66743
 21
3.55808
 31
0.0
  0
LINE
  8
0
 62
     0
 10
1.66743
 20
3.55808
 30
0.0
 11
1.87965
 21
3.97563
 31
0.0
  0
LINE
  8
0
 62
     0
 10
1.87965
 20
3.97563
 30
0.0
 11
2.21175
 21
4.30773
 31
0.0
  0
LINE
  8
0
 62
     0
 10
2.21175
 20
4.30773
 30
0.0
 11
2.6293
 21
4.51997
 31
0.0
  0
LINE
  8
0
 62
     0
 10
2.6293
 20
4.51997
 30
0.0
 11
3.0937
 21
4.59299
 31
0.0
  0
LINE
  8
0
 62
     0
 10
3.0937
 20
105.843
 30
0.0
 11
3.55808
 21
105.77
 31
0.0
  0
LINE
  8
0
 62
     0
 10
3.55808
 20
105.77
 30
0.0
 11
3.97563
 21
105.558
 31
0.0
  0
LINE
  8
0
 62
     0
 10
3.97563
 20
105.558
 30
0.0
 11
4.30773
 21
105.226
 31
0.0
  0
LINE
  8
0
 62
     0
 10
4.30773
 20
105.226
 30
0.0
 11
4.52134
 21
104.808
 31
0.0
  0
LINE
  8
0
 62
     0
 10
4.52134
 20
104.808
 30
0.0
 11
4.59437
 21
104.344
 31
0.0
  0
LINE
  8
0
 62
     0
 10
4.59437
 20
104.344
 30
0.0
 11
4.52134
 21
103.879
 31
0.0
  0
LINE
  8
0
 62
     0
 10
4.52134
 20
103.879
 30
0.0
 11
4.30773
 21
103.462
 31
0.0
  0
LINE
  8
0
 62
     0
 10
4.30773
 20
103.462
 30
0.0
 11
3.97563
 21
103.13
 31
0.0
  0
LINE
  8
0
 62
     0
 10
3.97563
 20
103.13
 30
0.0
 11
3.55808
 21
102.916
 31
0.0
  0
LINE
  8
0
 62
     0
 10
3.55808
 20
102.916
 30
0.0
 11
3.0937
 21
102.843
 31
0.0
  0
LINE
  8
0
 62
     0
 10
3.0937
 20
102.843
 30
0.0
 11
2.6293
 21
102.916
 31
0.0
  0
LINE
  8
0
 62
     0
 10
2.6293
 20
102.916
 30
0.0
 11
2.21175
 21
103.13
 31
0.0
  0
LINE
  8
0
 62
     0
 10
2.21175
 20
103.13
 30
0.0
 11
1.87965
 21
103.462
 31
0.0
  0
LINE
  8
0
 62
     0
 10
1.87965
 20
103.462
 30
0.0
 11
1.66743
 21
103.879
 31
0.0
  0
LINE
  8
0
 62
     0
 10
1.66743
 20
103.879
 30
0.0
 11
1.59439
 21
104.344
 31
0.0
  0
LINE
  8
0
 62
     0
 10
1.59439
 20
104.344
 30
0.0
 11
1.66743
 21
104.808
 31
0.0
  0
LINE
  8
0
 62
     0
 10
1.66743
 20
104.808
 30
0.0
 11
1.87965
 21
105.226
 31
0.0
  0
LINE
  8
0
 62
     0
 10
1.87965
 20
105.226
 30
0.0
 11
2.21175
 21
105.558
 31
0.0
  0
LINE
  8
0
 62
     0
 10
2.21175
 20
105.558
 30
0.0
 11
2.6293
 21
105.77
 31
0.0
  0
LINE
  8
0
 62
     0
 10
2.6293
 20
105.77
 30
0.0
 11
3.0937
 21
105.843
 31
0.0
  0
ENDSEC
  0
EOF
