  0
SECTION
  2
HEADER
  9
$ACADVER
  1
AC1009
  9
$EXTMIN
 10
0.0
 20
0.0
 30
0.0
  9
$EXTMAX
 10
1000.0
 20
1000.0
 30
0.0
  9
$FILLMODE
 70
 0
  9
$SPLFRAME
 70
 1
  0
ENDSEC
  0
SECTION
  2
TABLES
  0
TABLE
  2
LAYER
 70
1
  0
LAYER
  2
0
 70
     0
 62
     7
  6
CONTINUOUS
  0
ENDTAB
  0
ENDSEC
  0
SECTION
  2
ENTITIES
  0
LINE
  8
0
 62
     0
 10
289.644
 20
100.156
 30
0.0
 11
289.722
 21
100.153
 31
0.0
  0
LINE
  8
0
 62
     0
 10
289.722
 20
100.153
 30
0.0
 11
289.8
 21
100.143
 31
0.0
  0
LINE
  8
0
 62
     0
 10
289.8
 20
100.143
 30
0.0
 11
289.877
 21
100.128
 31
0.0
  0
LINE
  8
0
 62
     0
 10
289.877
 20
100.128
 30
0.0
 11
289.953
 21
100.106
 31
0.0
  0
LINE
  8
0
 62
     0
 10
289.953
 20
100.106
 30
0.0
 11
290.027
 21
100.08
 31
0.0
  0
LINE
  8
0
 62
     0
 10
290.027
 20
100.08
 30
0.0
 11
290.098
 21
100.047
 31
0.0
  0
LINE
  8
0
 62
     0
 10
290.098
 20
100.047
 30
0.0
 11
290.165
 21
100.008
 31
0.0
  0
LINE
  8
0
 62
     0
 10
290.165
 20
100.008
 30
0.0
 11
290.231
 21
99.9642
 31
0.0
  0
LINE
  8
0
 62
     0
 10
290.231
 20
99.9642
 30
0.0
 11
290.293
 21
99.9162
 31
0.0
  0
LINE
  8
0
 62
     0
 10
290.293
 20
99.9162
 30
0.0
 11
290.351
 21
99.8622
 31
0.0
  0
LINE
  8
0
 62
     0
 10
290.351
 20
99.8622
 30
0.0
 11
290.403
 21
99.8044
 31
0.0
  0
LINE
  8
0
 62
     0
 10
290.403
 20
99.8044
 30
0.0
 11
290.453
 21
99.7437
 31
0.0
  0
LINE
  8
0
 62
     0
 10
290.453
 20
99.7437
 30
0.0
 11
290.497
 21
99.6777
 31
0.0
  0
LINE
  8
0
 62
     0
 10
290.497
 20
99.6777
 30
0.0
 11
290.535
 21
99.61
 31
0.0
  0
LINE
  8
0
 62
     0
 10
290.535
 20
99.61
 30
0.0
 11
290.568
 21
99.5384
 31
0.0
  0
LINE
  8
0
 62
     0
 10
290.568
 20
99.5384
 30
0.0
 11
290.595
 21
99.4653
 31
0.0
  0
LINE
  8
0
 62
     0
 10
290.595
 20
99.4653
 30
0.0
 11
290.616
 21
99.3881
 31
0.0
  0
LINE
  8
0
 62
     0
 10
290.616
 20
99.3881
 30
0.0
 11
290.632
 21
99.3126
 31
0.0
  0
LINE
  8
0
 62
     0
 10
290.632
 20
99.3126
 30
0.0
 11
290.641
 21
99.2339
 31
0.0
  0
LINE
  8
0
 62
     0
 10
290.641
 20
99.2339
 30
0.0
 11
290.643
 21
99.1553
 31
0.0
  0
LINE
  8
0
 62
     0
 10
290.643
 20
99.1553
 30
0.0
 11
290.643
 21
1.10519
 31
0.0
  0
LINE
  8
0
 62
     0
 10
290.643
 20
1.10519
 30
0.0
 11
290.641
 21
1.02802
 31
0.0
  0
LINE
  8
0
 62
     0
 10
290.641
 20
1.02802
 30
0.0
 11
290.632
 21
0.94947
 31
0.0
  0
LINE
  8
0
 62
     0
 10
290.632
 20
0.94947
 30
0.0
 11
290.616
 21
0.8723
 31
0.0
  0
LINE
  8
0
 62
     0
 10
290.616
 20
0.8723
 30
0.0
 11
290.595
 21
0.796505
 31
0.0
  0
LINE
  8
0
 62
     0
 10
290.595
 20
0.796505
 30
0.0
 11
290.568
 21
0.722094
 31
0.0
  0
LINE
  8
0
 62
     0
 10
290.568
 20
0.722094
 30
0.0
 11
290.535
 21
0.651813
 31
0.0
  0
LINE
  8
0
 62
     0
 10
290.535
 20
0.651813
 30
0.0
 11
290.497
 21
0.584288
 31
0.0
  0
LINE
  8
0
 62
     0
 10
290.497
 20
0.584288
 30
0.0
 11
290.453
 21
0.518142
 31
0.0
  0
LINE
  8
0
 62
     0
 10
290.453
 20
0.518142
 30
0.0
 11
290.403
 21
0.456131
 31
0.0
  0
LINE
  8
0
 62
     0
 10
290.403
 20
0.456131
 30
0.0
 11
290.351
 21
0.398254
 31
0.0
  0
LINE
  8
0
 62
     0
 10
290.351
 20
0.398254
 30
0.0
 11
290.293
 21
0.345888
 31
0.0
  0
LINE
  8
0
 62
     0
 10
290.293
 20
0.345888
 30
0.0
 11
290.231
 21
0.296278
 31
0.0
  0
LINE
  8
0
 62
     0
 10
290.231
 20
0.296278
 30
0.0
 11
290.165
 21
0.252181
 31
0.0
  0
LINE
  8
0
 62
     0
 10
290.165
 20
0.252181
 30
0.0
 11
290.098
 21
0.214974
 31
0.0
  0
LINE
  8
0
 62
     0
 10
290.098
 20
0.214974
 30
0.0
 11
290.027
 21
0.181901
 31
0.0
  0
LINE
  8
0
 62
     0
 10
290.027
 20
0.181901
 30
0.0
 11
289.953
 21
0.15434
 31
0.0
  0
LINE
  8
0
 62
     0
 10
289.953
 20
0.15434
 30
0.0
 11
289.877
 21
0.13367
 31
0.0
  0
LINE
  8
0
 62
     0
 10
289.877
 20
0.13367
 30
0.0
 11
289.8
 21
0.117133
 31
0.0
  0
LINE
  8
0
 62
     0
 10
289.8
 20
0.117133
 30
0.0
 11
289.722
 21
0.108865
 31
0.0
  0
LINE
  8
0
 62
     0
 10
289.722
 20
0.108865
 30
0.0
 11
289.644
 21
0.106109
 31
0.0
  0
LINE
  8
0
 62
     0
 10
289.644
 20
0.106109
 30
0.0
 11
1.09416
 21
0.106109
 31
0.0
  0
LINE
  8
0
 62
     0
 10
1.09416
 20
0.106109
 30
0.0
 11
1.01562
 21
0.108865
 31
0.0
  0
LINE
  8
0
 62
     0
 10
1.01562
 20
0.108865
 30
0.0
 11
0.937066
 21
0.117133
 31
0.0
  0
LINE
  8
0
 62
     0
 10
0.937066
 20
0.117133
 30
0.0
 11
0.861275
 21
0.13367
 31
0.0
  0
LINE
  8
0
 62
     0
 10
0.861275
 20
0.13367
 30
0.0
 11
0.784105
 21
0.15434
 31
0.0
  0
LINE
  8
0
 62
     0
 10
0.784105
 20
0.15434
 30
0.0
 11
0.711069
 21
0.181901
 31
0.0
  0
LINE
  8
0
 62
     0
 10
0.711069
 20
0.181901
 30
0.0
 11
0.63941
 21
0.214974
 31
0.0
  0
LINE
  8
0
 62
     0
 10
0.63941
 20
0.214974
 30
0.0
 11
0.571885
 21
0.252181
 31
0.0
  0
LINE
  8
0
 62
     0
 10
0.571885
 20
0.252181
 30
0.0
 11
0.505739
 21
0.296278
 31
0.0
  0
LINE
  8
0
 62
     0
 10
0.505739
 20
0.296278
 30
0.0
 11
0.445107
 21
0.345888
 31
0.0
  0
LINE
  8
0
 62
     0
 10
0.445107
 20
0.345888
 30
0.0
 11
0.38723
 21
0.398254
 31
0.0
  0
LINE
  8
0
 62
     0
 10
0.38723
 20
0.398254
 30
0.0
 11
0.333485
 21
0.456131
 31
0.0
  0
LINE
  8
0
 62
     0
 10
0.333485
 20
0.456131
 30
0.0
 11
0.285254
 21
0.518142
 31
0.0
  0
LINE
  8
0
 62
     0
 10
0.285254
 20
0.518142
 30
0.0
 11
0.241157
 21
0.584288
 31
0.0
  0
LINE
  8
0
 62
     0
 10
0.241157
 20
0.584288
 30
0.0
 11
0.202572
 21
0.651813
 31
0.0
  0
LINE
  8
0
 62
     0
 10
0.202572
 20
0.651813
 30
0.0
 11
0.169499
 21
0.722094
 31
0.0
  0
LINE
  8
0
 62
     0
 10
0.169499
 20
0.722094
 30
0.0
 11
0.143316
 21
0.796505
 31
0.0
  0
LINE
  8
0
 62
     0
 10
0.143316
 20
0.796505
 30
0.0
 11
0.121267
 21
0.8723
 31
0.0
  0
LINE
  8
0
 62
     0
 10
0.121267
 20
0.8723
 30
0.0
 11
0.106109
 21
0.94947
 31
0.0
  0
LINE
  8
0
 62
     0
 10
0.106109
 20
0.94947
 30
0.0
 11
0.0964629
 21
1.02802
 31
0.0
  0
LINE
  8
0
 62
     0
 10
0.0964629
 20
1.02802
 30
0.0
 11
0.0937066
 21
1.10519
 31
0.0
  0
LINE
  8
0
 62
     0
 10
0.0937066
 20
1.10519
 30
0.0
 11
0.0937066
 21
99.1553
 31
0.0
  0
LINE
  8
0
 62
     0
 10
0.0937066
 20
99.1553
 30
0.0
 11
0.0964629
 21
99.2339
 31
0.0
  0
LINE
  8
0
 62
     0
 10
0.0964629
 20
99.2339
 30
0.0
 11
0.106109
 21
99.3126
 31
0.0
  0
LINE
  8
0
 62
     0
 10
0.106109
 20
99.3126
 30
0.0
 11
0.121267
 21
99.3881
 31
0.0
  0
LINE
  8
0
 62
     0
 10
0.121267
 20
99.3881
 30
0.0
 11
0.143316
 21
99.4653
 31
0.0
  0
LINE
  8
0
 62
     0
 10
0.143316
 20
99.4653
 30
0.0
 11
0.169499
 21
99.5384
 31
0.0
  0
LINE
  8
0
 62
     0
 10
0.169499
 20
99.5384
 30
0.0
 11
0.202572
 21
99.61
 31
0.0
  0
LINE
  8
0
 62
     0
 10
0.202572
 20
99.61
 30
0.0
 11
0.241157
 21
99.6777
 31
0.0
  0
LINE
  8
0
 62
     0
 10
0.241157
 20
99.6777
 30
0.0
 11
0.285254
 21
99.7437
 31
0.0
  0
LINE
  8
0
 62
     0
 10
0.285254
 20
99.7437
 30
0.0
 11
0.333485
 21
99.8044
 31
0.0
  0
LINE
  8
0
 62
     0
 10
0.333485
 20
99.8044
 30
0.0
 11
0.38723
 21
99.8622
 31
0.0
  0
LINE
  8
0
 62
     0
 10
0.38723
 20
99.8622
 30
0.0
 11
0.445107
 21
99.9162
 31
0.0
  0
LINE
  8
0
 62
     0
 10
0.445107
 20
99.9162
 30
0.0
 11
0.505739
 21
99.9642
 31
0.0
  0
LINE
  8
0
 62
     0
 10
0.505739
 20
99.9642
 30
0.0
 11
0.571885
 21
100.008
 31
0.0
  0
LINE
  8
0
 62
     0
 10
0.571885
 20
100.008
 30
0.0
 11
0.63941
 21
100.047
 31
0.0
  0
LINE
  8
0
 62
     0
 10
0.63941
 20
100.047
 30
0.0
 11
0.711069
 21
100.08
 31
0.0
  0
LINE
  8
0
 62
     0
 10
0.711069
 20
100.08
 30
0.0
 11
0.784105
 21
100.106
 31
0.0
  0
LINE
  8
0
 62
     0
 10
0.784105
 20
100.106
 30
0.0
 11
0.861275
 21
100.128
 31
0.0
  0
LINE
  8
0
 62
     0
 10
0.861275
 20
100.128
 30
0.0
 11
0.937066
 21
100.143
 31
0.0
  0
LINE
  8
0
 62
     0
 10
0.937066
 20
100.143
 30
0.0
 11
1.01562
 21
100.153
 31
0.0
  0
LINE
  8
0
 62
     0
 10
1.01562
 20
100.153
 30
0.0
 11
1.09416
 21
100.156
 31
0.0
  0
LINE
  8
0
 62
     0
 10
1.09416
 20
100.156
 30
0.0
 11
289.644
 21
100.156
 31
0.0
  0
LINE
  8
0
 62
     0
 10
289.443
 20
99.4558
 30
0.0
 11
289.599
 21
99.4322
 31
0.0
  0
LINE
  8
0
 62
     0
 10
289.599
 20
99.4322
 30
0.0
 11
289.738
 21
99.3606
 31
0.0
  0
LINE
  8
0
 62
     0
 10
289.738
 20
99.3606
 30
0.0
 11
289.848
 21
99.2505
 31
0.0
  0
LINE
  8
0
 62
     0
 10
289.848
 20
99.2505
 30
0.0
 11
289.92
 21
99.1112
 31
0.0
  0
LINE
  8
0
 62
     0
 10
289.92
 20
99.1112
 30
0.0
 11
289.943
 21
98.9556
 31
0.0
  0
LINE
  8
0
 62
     0
 10
289.943
 20
98.9556
 30
0.0
 11
289.92
 21
98.8011
 31
0.0
  0
LINE
  8
0
 62
     0
 10
289.92
 20
98.8011
 30
0.0
 11
289.848
 21
98.6621
 31
0.0
  0
LINE
  8
0
 62
     0
 10
289.848
 20
98.6621
 30
0.0
 11
289.738
 21
98.5502
 31
0.0
  0
LINE
  8
0
 62
     0
 10
289.738
 20
98.5502
 30
0.0
 11
289.599
 21
98.48
 31
0.0
  0
LINE
  8
0
 62
     0
 10
289.599
 20
98.48
 30
0.0
 11
289.443
 21
98.4553
 31
0.0
  0
LINE
  8
0
 62
     0
 10
289.443
 20
98.4553
 30
0.0
 11
289.289
 21
98.48
 31
0.0
  0
LINE
  8
0
 62
     0
 10
289.289
 20
98.48
 30
0.0
 11
289.15
 21
98.5502
 31
0.0
  0
LINE
  8
0
 62
     0
 10
289.15
 20
98.5502
 30
0.0
 11
289.039
 21
98.6621
 31
0.0
  0
LINE
  8
0
 62
     0
 10
289.039
 20
98.6621
 30
0.0
 11
288.968
 21
98.8011
 31
0.0
  0
LINE
  8
0
 62
     0
 10
288.968
 20
98.8011
 30
0.0
 11
288.944
 21
98.9556
 31
0.0
  0
LINE
  8
0
 62
     0
 10
288.944
 20
98.9556
 30
0.0
 11
288.968
 21
99.1112
 31
0.0
  0
LINE
  8
0
 62
     0
 10
288.968
 20
99.1112
 30
0.0
 11
289.039
 21
99.2505
 31
0.0
  0
LINE
  8
0
 62
     0
 10
289.039
 20
99.2505
 30
0.0
 11
289.15
 21
99.3606
 31
0.0
  0
LINE
  8
0
 62
     0
 10
289.15
 20
99.3606
 30
0.0
 11
289.289
 21
99.4322
 31
0.0
  0
LINE
  8
0
 62
     0
 10
289.289
 20
99.4322
 30
0.0
 11
289.443
 21
99.4558
 31
0.0
  0
LINE
  8
0
 62
     0
 10
289.443
 20
1.80523
 30
0.0
 11
289.599
 21
1.7818
 31
0.0
  0
LINE
  8
0
 62
     0
 10
289.599
 20
1.7818
 30
0.0
 11
289.738
 21
1.71015
 31
0.0
  0
LINE
  8
0
 62
     0
 10
289.738
 20
1.71015
 30
0.0
 11
289.848
 21
1.5999
 31
0.0
  0
LINE
  8
0
 62
     0
 10
289.848
 20
1.5999
 30
0.0
 11
289.92
 21
1.46072
 31
0.0
  0
LINE
  8
0
 62
     0
 10
289.92
 20
1.46072
 30
0.0
 11
289.943
 21
1.30638
 31
0.0
  0
LINE
  8
0
 62
     0
 10
289.943
 20
1.30638
 30
0.0
 11
289.92
 21
1.15066
 31
0.0
  0
LINE
  8
0
 62
     0
 10
289.92
 20
1.15066
 30
0.0
 11
289.848
 21
1.01148
 31
0.0
  0
LINE
  8
0
 62
     0
 10
289.848
 20
1.01148
 30
0.0
 11
289.738
 21
0.901238
 31
0.0
  0
LINE
  8
0
 62
     0
 10
289.738
 20
0.901238
 30
0.0
 11
289.599
 21
0.829578
 31
0.0
  0
LINE
  8
0
 62
     0
 10
289.599
 20
0.829578
 30
0.0
 11
289.443
 21
0.806154
 31
0.0
  0
LINE
  8
0
 62
     0
 10
289.443
 20
0.806154
 30
0.0
 11
289.289
 21
0.829578
 31
0.0
  0
LINE
  8
0
 62
     0
 10
289.289
 20
0.829578
 30
0.0
 11
289.15
 21
0.901238
 31
0.0
  0
LINE
  8
0
 62
     0
 10
289.15
 20
0.901238
 30
0.0
 11
289.039
 21
1.01148
 31
0.0
  0
LINE
  8
0
 62
     0
 10
289.039
 20
1.01148
 30
0.0
 11
288.968
 21
1.15066
 31
0.0
  0
LINE
  8
0
 62
     0
 10
288.968
 20
1.15066
 30
0.0
 11
288.944
 21
1.30638
 31
0.0
  0
LINE
  8
0
 62
     0
 10
288.944
 20
1.30638
 30
0.0
 11
288.968
 21
1.46072
 31
0.0
  0
LINE
  8
0
 62
     0
 10
288.968
 20
1.46072
 30
0.0
 11
289.039
 21
1.5999
 31
0.0
  0
LINE
  8
0
 62
     0
 10
289.039
 20
1.5999
 30
0.0
 11
289.15
 21
1.71015
 31
0.0
  0
LINE
  8
0
 62
     0
 10
289.15
 20
1.71015
 30
0.0
 11
289.289
 21
1.7818
 31
0.0
  0
LINE
  8
0
 62
     0
 10
289.289
 20
1.7818
 30
0.0
 11
289.443
 21
1.80523
 31
0.0
  0
LINE
  8
0
 62
     0
 10
1.29398
 20
1.80523
 30
0.0
 11
1.44832
 21
1.7818
 31
0.0
  0
LINE
  8
0
 62
     0
 10
1.44832
 20
1.7818
 30
0.0
 11
1.5875
 21
1.71015
 31
0.0
  0
LINE
  8
0
 62
     0
 10
1.5875
 20
1.71015
 30
0.0
 11
1.69912
 21
1.5999
 31
0.0
  0
LINE
  8
0
 62
     0
 10
1.69912
 20
1.5999
 30
0.0
 11
1.7694
 21
1.46072
 31
0.0
  0
LINE
  8
0
 62
     0
 10
1.7694
 20
1.46072
 30
0.0
 11
1.79421
 21
1.30638
 31
0.0
  0
LINE
  8
0
 62
     0
 10
1.79421
 20
1.30638
 30
0.0
 11
1.7694
 21
1.15066
 31
0.0
  0
LINE
  8
0
 62
     0
 10
1.7694
 20
1.15066
 30
0.0
 11
1.69912
 21
1.01148
 31
0.0
  0
LINE
  8
0
 62
     0
 10
1.69912
 20
1.01148
 30
0.0
 11
1.5875
 21
0.901238
 31
0.0
  0
LINE
  8
0
 62
     0
 10
1.5875
 20
0.901238
 30
0.0
 11
1.44832
 21
0.829578
 31
0.0
  0
LINE
  8
0
 62
     0
 10
1.44832
 20
0.829578
 30
0.0
 11
1.29398
 21
0.806154
 31
0.0
  0
LINE
  8
0
 62
     0
 10
1.29398
 20
0.806154
 30
0.0
 11
1.13826
 21
0.829578
 31
0.0
  0
LINE
  8
0
 62
     0
 10
1.13826
 20
0.829578
 30
0.0
 11
0.999077
 21
0.901238
 31
0.0
  0
LINE
  8
0
 62
     0
 10
0.999077
 20
0.901238
 30
0.0
 11
0.888834
 21
1.01148
 31
0.0
  0
LINE
  8
0
 62
     0
 10
0.888834
 20
1.01148
 30
0.0
 11
0.817178
 21
1.15066
 31
0.0
  0
LINE
  8
0
 62
     0
 10
0.817178
 20
1.15066
 30
0.0
 11
0.79375
 21
1.30638
 31
0.0
  0
LINE
  8
0
 62
     0
 10
0.79375
 20
1.30638
 30
0.0
 11
0.817178
 21
1.46072
 31
0.0
  0
LINE
  8
0
 62
     0
 10
0.817178
 20
1.46072
 30
0.0
 11
0.888834
 21
1.5999
 31
0.0
  0
LINE
  8
0
 62
     0
 10
0.888834
 20
1.5999
 30
0.0
 11
0.999077
 21
1.71015
 31
0.0
  0
LINE
  8
0
 62
     0
 10
0.999077
 20
1.71015
 30
0.0
 11
1.13826
 21
1.7818
 31
0.0
  0
LINE
  8
0
 62
     0
 10
1.13826
 20
1.7818
 30
0.0
 11
1.29398
 21
1.80523
 31
0.0
  0
LINE
  8
0
 62
     0
 10
1.29398
 20
99.4558
 30
0.0
 11
1.44832
 21
99.4322
 31
0.0
  0
LINE
  8
0
 62
     0
 10
1.44832
 20
99.4322
 30
0.0
 11
1.5875
 21
99.3606
 31
0.0
  0
LINE
  8
0
 62
     0
 10
1.5875
 20
99.3606
 30
0.0
 11
1.69912
 21
99.2505
 31
0.0
  0
LINE
  8
0
 62
     0
 10
1.69912
 20
99.2505
 30
0.0
 11
1.7694
 21
99.1112
 31
0.0
  0
LINE
  8
0
 62
     0
 10
1.7694
 20
99.1112
 30
0.0
 11
1.79421
 21
98.9556
 31
0.0
  0
LINE
  8
0
 62
     0
 10
1.79421
 20
98.9556
 30
0.0
 11
1.7694
 21
98.8011
 31
0.0
  0
LINE
  8
0
 62
     0
 10
1.7694
 20
98.8011
 30
0.0
 11
1.69912
 21
98.6621
 31
0.0
  0
LINE
  8
0
 62
     0
 10
1.69912
 20
98.6621
 30
0.0
 11
1.5875
 21
98.5502
 31
0.0
  0
LINE
  8
0
 62
     0
 10
1.5875
 20
98.5502
 30
0.0
 11
1.44832
 21
98.48
 31
0.0
  0
LINE
  8
0
 62
     0
 10
1.44832
 20
98.48
 30
0.0
 11
1.29398
 21
98.4553
 31
0.0
  0
LINE
  8
0
 62
     0
 10
1.29398
 20
98.4553
 30
0.0
 11
1.13826
 21
98.48
 31
0.0
  0
LINE
  8
0
 62
     0
 10
1.13826
 20
98.48
 30
0.0
 11
0.999077
 21
98.5502
 31
0.0
  0
LINE
  8
0
 62
     0
 10
0.999077
 20
98.5502
 30
0.0
 11
0.888834
 21
98.6621
 31
0.0
  0
LINE
  8
0
 62
     0
 10
0.888834
 20
98.6621
 30
0.0
 11
0.817178
 21
98.8011
 31
0.0
  0
LINE
  8
0
 62
     0
 10
0.817178
 20
98.8011
 30
0.0
 11
0.79375
 21
98.9556
 31
0.0
  0
LINE
  8
0
 62
     0
 10
0.79375
 20
98.9556
 30
0.0
 11
0.817178
 21
99.1112
 31
0.0
  0
LINE
  8
0
 62
     0
 10
0.817178
 20
99.1112
 30
0.0
 11
0.888834
 21
99.2505
 31
0.0
  0
LINE
  8
0
 62
     0
 10
0.888834
 20
99.2505
 30
0.0
 11
0.999077
 21
99.3606
 31
0.0
  0
LINE
  8
0
 62
     0
 10
0.999077
 20
99.3606
 30
0.0
 11
1.13826
 21
99.4322
 31
0.0
  0
LINE
  8
0
 62
     0
 10
1.13826
 20
99.4322
 30
0.0
 11
1.29398
 21
99.4558
 31
0.0
  0
LINE
  8
0
 62
     0
 10
10.3243
 20
37.531
 30
0.0
 11
13.6247
 21
37.531
 31
0.0
  0
LINE
  8
0
 62
     0
 10
13.6247
 20
37.531
 30
0.0
 11
13.6247
 21
23.3302
 31
0.0
  0
LINE
  8
0
 62
     0
 10
13.6247
 20
23.3302
 30
0.0
 11
10.3243
 21
23.3302
 31
0.0
  0
LINE
  8
0
 62
     0
 10
10.3243
 20
23.3302
 30
0.0
 11
10.3243
 21
37.531
 31
0.0
  0
LINE
  8
0
 62
     0
 10
19.0183
 20
82.2304
 30
0.0
 11
19.0183
 21
81.2313
 31
0.0
  0
LINE
  8
0
 62
     0
 10
19.0183
 20
81.2313
 30
0.0
 11
5.01883
 21
81.2313
 31
0.0
  0
LINE
  8
0
 62
     0
 10
5.01883
 20
81.2313
 30
0.0
 11
5.01883
 21
82.2304
 31
0.0
  0
LINE
  8
0
 62
     0
 10
5.01883
 20
82.2304
 30
0.0
 11
4.21816
 21
82.2304
 31
0.0
  0
LINE
  8
0
 62
     0
 10
4.21816
 20
82.2304
 30
0.0
 11
4.21816
 21
85.3309
 31
0.0
  0
LINE
  8
0
 62
     0
 10
4.21816
 20
85.3309
 30
0.0
 11
5.01883
 21
85.3309
 31
0.0
  0
LINE
  8
0
 62
     0
 10
5.01883
 20
85.3309
 30
0.0
 11
5.01883
 21
91.131
 31
0.0
  0
LINE
  8
0
 62
     0
 10
5.01883
 20
91.131
 30
0.0
 11
4.21816
 21
91.131
 31
0.0
  0
LINE
  8
0
 62
     0
 10
4.21816
 20
91.131
 30
0.0
 11
4.21816
 21
94.2301
 31
0.0
  0
LINE
  8
0
 62
     0
 10
4.21816
 20
94.2301
 30
0.0
 11
5.01883
 21
94.2301
 31
0.0
  0
LINE
  8
0
 62
     0
 10
5.01883
 20
94.2301
 30
0.0
 11
5.01883
 21
95.2306
 31
0.0
  0
LINE
  8
0
 62
     0
 10
5.01883
 20
95.2306
 30
0.0
 11
19.0183
 21
95.2306
 31
0.0
  0
LINE
  8
0
 62
     0
 10
19.0183
 20
95.2306
 30
0.0
 11
19.0183
 21
94.2301
 31
0.0
  0
LINE
  8
0
 62
     0
 10
19.0183
 20
94.2301
 30
0.0
 11
19.8189
 21
94.2301
 31
0.0
  0
LINE
  8
0
 62
     0
 10
19.8189
 20
94.2301
 30
0.0
 11
19.8189
 21
91.131
 31
0.0
  0
LINE
  8
0
 62
     0
 10
19.8189
 20
91.131
 30
0.0
 11
19.0183
 21
91.131
 31
0.0
  0
LINE
  8
0
 62
     0
 10
19.0183
 20
91.131
 30
0.0
 11
19.0183
 21
85.3309
 31
0.0
  0
LINE
  8
0
 62
     0
 10
19.0183
 20
85.3309
 30
0.0
 11
19.8189
 21
85.3309
 31
0.0
  0
LINE
  8
0
 62
     0
 10
19.8189
 20
85.3309
 30
0.0
 11
19.8189
 21
82.2304
 31
0.0
  0
LINE
  8
0
 62
     0
 10
19.8189
 20
82.2304
 30
0.0
 11
19.0183
 21
82.2304
 31
0.0
  0
LINE
  8
0
 62
     0
 10
21.3996
 20
6.03031
 30
0.0
 11
21.3996
 21
5.03121
 31
0.0
  0
LINE
  8
0
 62
     0
 10
21.3996
 20
5.03121
 30
0.0
 11
7.40008
 21
5.03121
 31
0.0
  0
LINE
  8
0
 62
     0
 10
7.40008
 20
5.03121
 30
0.0
 11
7.40008
 21
6.03031
 31
0.0
  0
LINE
  8
0
 62
     0
 10
7.40008
 20
6.03031
 30
0.0
 11
6.59941
 21
6.03031
 31
0.0
  0
LINE
  8
0
 62
     0
 10
6.59941
 20
6.03031
 30
0.0
 11
6.59941
 21
9.13088
 31
0.0
  0
LINE
  8
0
 62
     0
 10
6.59941
 20
9.13088
 30
0.0
 11
7.40008
 21
9.13088
 31
0.0
  0
LINE
  8
0
 62
     0
 10
7.40008
 20
9.13088
 30
0.0
 11
7.40008
 21
14.931
 31
0.0
  0
LINE
  8
0
 62
     0
 10
7.40008
 20
14.931
 30
0.0
 11
6.59941
 21
14.931
 31
0.0
  0
LINE
  8
0
 62
     0
 10
6.59941
 20
14.931
 30
0.0
 11
6.59941
 21
18.0303
 31
0.0
  0
LINE
  8
0
 62
     0
 10
6.59941
 20
18.0303
 30
0.0
 11
7.40008
 21
18.0303
 31
0.0
  0
LINE
  8
0
 62
     0
 10
7.40008
 20
18.0303
 30
0.0
 11
7.40008
 21
19.0307
 31
0.0
  0
LINE
  8
0
 62
     0
 10
7.40008
 20
19.0307
 30
0.0
 11
21.3996
 21
19.0307
 31
0.0
  0
LINE
  8
0
 62
     0
 10
21.3996
 20
19.0307
 30
0.0
 11
21.3996
 21
18.0303
 31
0.0
  0
LINE
  8
0
 62
     0
 10
21.3996
 20
18.0303
 30
0.0
 11
22.2002
 21
18.0303
 31
0.0
  0
LINE
  8
0
 62
     0
 10
22.2002
 20
18.0303
 30
0.0
 11
22.2002
 21
14.931
 31
0.0
  0
LINE
  8
0
 62
     0
 10
22.2002
 20
14.931
 30
0.0
 11
21.3996
 21
14.931
 31
0.0
  0
LINE
  8
0
 62
     0
 10
21.3996
 20
14.931
 30
0.0
 11
21.3996
 21
9.13088
 31
0.0
  0
LINE
  8
0
 62
     0
 10
21.3996
 20
9.13088
 30
0.0
 11
22.2002
 21
9.13088
 31
0.0
  0
LINE
  8
0
 62
     0
 10
22.2002
 20
9.13088
 30
0.0
 11
22.2002
 21
6.03031
 31
0.0
  0
LINE
  8
0
 62
     0
 10
22.2002
 20
6.03031
 30
0.0
 11
21.3996
 21
6.03031
 31
0.0
  0
LINE
  8
0
 62
     0
 10
23.7822
 20
63.1804
 30
0.0
 11
23.7822
 21
62.1813
 31
0.0
  0
LINE
  8
0
 62
     0
 10
23.7822
 20
62.1813
 30
0.0
 11
9.78133
 21
62.1813
 31
0.0
  0
LINE
  8
0
 62
     0
 10
9.78133
 20
62.1813
 30
0.0
 11
9.78133
 21
63.1804
 31
0.0
  0
LINE
  8
0
 62
     0
 10
9.78133
 20
63.1804
 30
0.0
 11
8.98066
 21
63.1804
 31
0.0
  0
LINE
  8
0
 62
     0
 10
8.98066
 20
63.1804
 30
0.0
 11
8.98066
 21
66.2809
 31
0.0
  0
LINE
  8
0
 62
     0
 10
8.98066
 20
66.2809
 30
0.0
 11
9.78133
 21
66.2809
 31
0.0
  0
LINE
  8
0
 62
     0
 10
9.78133
 20
66.2809
 30
0.0
 11
9.78133
 21
72.081
 31
0.0
  0
LINE
  8
0
 62
     0
 10
9.78133
 20
72.081
 30
0.0
 11
8.98066
 21
72.081
 31
0.0
  0
LINE
  8
0
 62
     0
 10
8.98066
 20
72.081
 30
0.0
 11
8.98066
 21
75.1801
 31
0.0
  0
LINE
  8
0
 62
     0
 10
8.98066
 20
75.1801
 30
0.0
 11
9.78133
 21
75.1801
 31
0.0
  0
LINE
  8
0
 62
     0
 10
9.78133
 20
75.1801
 30
0.0
 11
9.78133
 21
76.1806
 31
0.0
  0
LINE
  8
0
 62
     0
 10
9.78133
 20
76.1806
 30
0.0
 11
23.7822
 21
76.1806
 31
0.0
  0
LINE
  8
0
 62
     0
 10
23.7822
 20
76.1806
 30
0.0
 11
23.7822
 21
75.1801
 31
0.0
  0
LINE
  8
0
 62
     0
 10
23.7822
 20
75.1801
 30
0.0
 11
24.5815
 21
75.1801
 31
0.0
  0
LINE
  8
0
 62
     0
 10
24.5815
 20
75.1801
 30
0.0
 11
24.5815
 21
72.081
 31
0.0
  0
LINE
  8
0
 62
     0
 10
24.5815
 20
72.081
 30
0.0
 11
23.7822
 21
72.081
 31
0.0
  0
LINE
  8
0
 62
     0
 10
23.7822
 20
72.081
 30
0.0
 11
23.7822
 21
66.2809
 31
0.0
  0
LINE
  8
0
 62
     0
 10
23.7822
 20
66.2809
 30
0.0
 11
24.5815
 21
66.2809
 31
0.0
  0
LINE
  8
0
 62
     0
 10
24.5815
 20
66.2809
 30
0.0
 11
24.5815
 21
63.1804
 31
0.0
  0
LINE
  8
0
 62
     0
 10
24.5815
 20
63.1804
 30
0.0
 11
23.7822
 21
63.1804
 31
0.0
  0
LINE
  8
0
 62
     0
 10
26.1634
 20
44.1304
 30
0.0
 11
26.1634
 21
43.1313
 31
0.0
  0
LINE
  8
0
 62
     0
 10
26.1634
 20
43.1313
 30
0.0
 11
12.1626
 21
43.1313
 31
0.0
  0
LINE
  8
0
 62
     0
 10
12.1626
 20
43.1313
 30
0.0
 11
12.1626
 21
44.1304
 31
0.0
  0
LINE
  8
0
 62
     0
 10
12.1626
 20
44.1304
 30
0.0
 11
11.3633
 21
44.1304
 31
0.0
  0
LINE
  8
0
 62
     0
 10
11.3633
 20
44.1304
 30
0.0
 11
11.3633
 21
47.2309
 31
0.0
  0
LINE
  8
0
 62
     0
 10
11.3633
 20
47.2309
 30
0.0
 11
12.1626
 21
47.2309
 31
0.0
  0
LINE
  8
0
 62
     0
 10
12.1626
 20
47.2309
 30
0.0
 11
12.1626
 21
53.031
 31
0.0
  0
LINE
  8
0
 62
     0
 10
12.1626
 20
53.031
 30
0.0
 11
11.3633
 21
53.031
 31
0.0
  0
LINE
  8
0
 62
     0
 10
11.3633
 20
53.031
 30
0.0
 11
11.3633
 21
56.1301
 31
0.0
  0
LINE
  8
0
 62
     0
 10
11.3633
 20
56.1301
 30
0.0
 11
12.1626
 21
56.1301
 31
0.0
  0
LINE
  8
0
 62
     0
 10
12.1626
 20
56.1301
 30
0.0
 11
12.1626
 21
57.1306
 31
0.0
  0
LINE
  8
0
 62
     0
 10
12.1626
 20
57.1306
 30
0.0
 11
26.1634
 21
57.1306
 31
0.0
  0
LINE
  8
0
 62
     0
 10
26.1634
 20
57.1306
 30
0.0
 11
26.1634
 21
56.1301
 31
0.0
  0
LINE
  8
0
 62
     0
 10
26.1634
 20
56.1301
 30
0.0
 11
26.9627
 21
56.1301
 31
0.0
  0
LINE
  8
0
 62
     0
 10
26.9627
 20
56.1301
 30
0.0
 11
26.9627
 21
53.031
 31
0.0
  0
LINE
  8
0
 62
     0
 10
26.9627
 20
53.031
 30
0.0
 11
26.1634
 21
53.031
 31
0.0
  0
LINE
  8
0
 62
     0
 10
26.1634
 20
53.031
 30
0.0
 11
26.1634
 21
47.2309
 31
0.0
  0
LINE
  8
0
 62
     0
 10
26.1634
 20
47.2309
 30
0.0
 11
26.9627
 21
47.2309
 31
0.0
  0
LINE
  8
0
 62
     0
 10
26.9627
 20
47.2309
 30
0.0
 11
26.9627
 21
44.1304
 31
0.0
  0
LINE
  8
0
 62
     0
 10
26.9627
 20
44.1304
 30
0.0
 11
26.1634
 21
44.1304
 31
0.0
  0
LINE
  8
0
 62
     0
 10
30.9246
 20
25.0803
 30
0.0
 11
30.9246
 21
24.0812
 31
0.0
  0
LINE
  8
0
 62
     0
 10
30.9246
 20
24.0812
 30
0.0
 11
16.9251
 21
24.0812
 31
0.0
  0
LINE
  8
0
 62
     0
 10
16.9251
 20
24.0812
 30
0.0
 11
16.9251
 21
25.0803
 31
0.0
  0
LINE
  8
0
 62
     0
 10
16.9251
 20
25.0803
 30
0.0
 11
16.1244
 21
25.0803
 31
0.0
  0
LINE
  8
0
 62
     0
 10
16.1244
 20
25.0803
 30
0.0
 11
16.1244
 21
28.1809
 31
0.0
  0
LINE
  8
0
 62
     0
 10
16.1244
 20
28.1809
 30
0.0
 11
16.9251
 21
28.1809
 31
0.0
  0
LINE
  8
0
 62
     0
 10
16.9251
 20
28.1809
 30
0.0
 11
16.9251
 21
33.981
 31
0.0
  0
LINE
  8
0
 62
     0
 10
16.9251
 20
33.981
 30
0.0
 11
16.1244
 21
33.981
 31
0.0
  0
LINE
  8
0
 62
     0
 10
16.1244
 20
33.981
 30
0.0
 11
16.1244
 21
37.0801
 31
0.0
  0
LINE
  8
0
 62
     0
 10
16.1244
 20
37.0801
 30
0.0
 11
16.9251
 21
37.0801
 31
0.0
  0
LINE
  8
0
 62
     0
 10
16.9251
 20
37.0801
 30
0.0
 11
16.9251
 21
38.0806
 31
0.0
  0
LINE
  8
0
 62
     0
 10
16.9251
 20
38.0806
 30
0.0
 11
30.9246
 21
38.0806
 31
0.0
  0
LINE
  8
0
 62
     0
 10
30.9246
 20
38.0806
 30
0.0
 11
30.9246
 21
37.0801
 31
0.0
  0
LINE
  8
0
 62
     0
 10
30.9246
 20
37.0801
 30
0.0
 11
31.7252
 21
37.0801
 31
0.0
  0
LINE
  8
0
 62
     0
 10
31.7252
 20
37.0801
 30
0.0
 11
31.7252
 21
33.981
 31
0.0
  0
LINE
  8
0
 62
     0
 10
31.7252
 20
33.981
 30
0.0
 11
30.9246
 21
33.981
 31
0.0
  0
LINE
  8
0
 62
     0
 10
30.9246
 20
33.981
 30
0.0
 11
30.9246
 21
28.1809
 31
0.0
  0
LINE
  8
0
 62
     0
 10
30.9246
 20
28.1809
 30
0.0
 11
31.7252
 21
28.1809
 31
0.0
  0
LINE
  8
0
 62
     0
 10
31.7252
 20
28.1809
 30
0.0
 11
31.7252
 21
25.0803
 31
0.0
  0
LINE
  8
0
 62
     0
 10
31.7252
 20
25.0803
 30
0.0
 11
30.9246
 21
25.0803
 31
0.0
  0
LINE
  8
0
 62
     0
 10
34.2249
 20
37.531
 30
0.0
 11
37.5253
 21
37.531
 31
0.0
  0
LINE
  8
0
 62
     0
 10
37.5253
 20
37.531
 30
0.0
 11
37.5253
 21
23.3302
 31
0.0
  0
LINE
  8
0
 62
     0
 10
37.5253
 20
23.3302
 30
0.0
 11
34.2249
 21
23.3302
 31
0.0
  0
LINE
  8
0
 62
     0
 10
34.2249
 20
23.3302
 30
0.0
 11
34.2249
 21
37.531
 31
0.0
  0
LINE
  8
0
 62
     0
 10
38.0683
 20
82.2304
 30
0.0
 11
38.0683
 21
81.2313
 31
0.0
  0
LINE
  8
0
 62
     0
 10
38.0683
 20
81.2313
 30
0.0
 11
24.0688
 21
81.2313
 31
0.0
  0
LINE
  8
0
 62
     0
 10
24.0688
 20
81.2313
 30
0.0
 11
24.0688
 21
82.2304
 31
0.0
  0
LINE
  8
0
 62
     0
 10
24.0688
 20
82.2304
 30
0.0
 11
23.2682
 21
82.2304
 31
0.0
  0
LINE
  8
0
 62
     0
 10
23.2682
 20
82.2304
 30
0.0
 11
23.2682
 21
85.3309
 31
0.0
  0
LINE
  8
0
 62
     0
 10
23.2682
 20
85.3309
 30
0.0
 11
24.0688
 21
85.3309
 31
0.0
  0
LINE
  8
0
 62
     0
 10
24.0688
 20
85.3309
 30
0.0
 11
24.0688
 21
91.131
 31
0.0
  0
LINE
  8
0
 62
     0
 10
24.0688
 20
91.131
 30
0.0
 11
23.2682
 21
91.131
 31
0.0
  0
LINE
  8
0
 62
     0
 10
23.2682
 20
91.131
 30
0.0
 11
23.2682
 21
94.2301
 31
0.0
  0
LINE
  8
0
 62
     0
 10
23.2682
 20
94.2301
 30
0.0
 11
24.0688
 21
94.2301
 31
0.0
  0
LINE
  8
0
 62
     0
 10
24.0688
 20
94.2301
 30
0.0
 11
24.0688
 21
95.2306
 31
0.0
  0
LINE
  8
0
 62
     0
 10
24.0688
 20
95.2306
 30
0.0
 11
38.0683
 21
95.2306
 31
0.0
  0
LINE
  8
0
 62
     0
 10
38.0683
 20
95.2306
 30
0.0
 11
38.0683
 21
94.2301
 31
0.0
  0
LINE
  8
0
 62
     0
 10
38.0683
 20
94.2301
 30
0.0
 11
38.8691
 21
94.2301
 31
0.0
  0
LINE
  8
0
 62
     0
 10
38.8691
 20
94.2301
 30
0.0
 11
38.8691
 21
91.131
 31
0.0
  0
LINE
  8
0
 62
     0
 10
38.8691
 20
91.131
 30
0.0
 11
38.0683
 21
91.131
 31
0.0
  0
LINE
  8
0
 62
     0
 10
38.0683
 20
91.131
 30
0.0
 11
38.0683
 21
85.3309
 31
0.0
  0
LINE
  8
0
 62
     0
 10
38.0683
 20
85.3309
 30
0.0
 11
38.8691
 21
85.3309
 31
0.0
  0
LINE
  8
0
 62
     0
 10
38.8691
 20
85.3309
 30
0.0
 11
38.8691
 21
82.2304
 31
0.0
  0
LINE
  8
0
 62
     0
 10
38.8691
 20
82.2304
 30
0.0
 11
38.0683
 21
82.2304
 31
0.0
  0
LINE
  8
0
 62
     0
 10
45.2134
 20
6.03031
 30
0.0
 11
45.2134
 21
5.03121
 31
0.0
  0
LINE
  8
0
 62
     0
 10
45.2134
 20
5.03121
 30
0.0
 11
31.2126
 21
5.03121
 31
0.0
  0
LINE
  8
0
 62
     0
 10
31.2126
 20
5.03121
 30
0.0
 11
31.2126
 21
6.03031
 31
0.0
  0
LINE
  8
0
 62
     0
 10
31.2126
 20
6.03031
 30
0.0
 11
30.4133
 21
6.03031
 31
0.0
  0
LINE
  8
0
 62
     0
 10
30.4133
 20
6.03031
 30
0.0
 11
30.4133
 21
9.13088
 31
0.0
  0
LINE
  8
0
 62
     0
 10
30.4133
 20
9.13088
 30
0.0
 11
31.2126
 21
9.13088
 31
0.0
  0
LINE
  8
0
 62
     0
 10
31.2126
 20
9.13088
 30
0.0
 11
31.2126
 21
14.931
 31
0.0
  0
LINE
  8
0
 62
     0
 10
31.2126
 20
14.931
 30
0.0
 11
30.4133
 21
14.931
 31
0.0
  0
LINE
  8
0
 62
     0
 10
30.4133
 20
14.931
 30
0.0
 11
30.4133
 21
18.0303
 31
0.0
  0
LINE
  8
0
 62
     0
 10
30.4133
 20
18.0303
 30
0.0
 11
31.2126
 21
18.0303
 31
0.0
  0
LINE
  8
0
 62
     0
 10
31.2126
 20
18.0303
 30
0.0
 11
31.2126
 21
19.0307
 31
0.0
  0
LINE
  8
0
 62
     0
 10
31.2126
 20
19.0307
 30
0.0
 11
45.2134
 21
19.0307
 31
0.0
  0
LINE
  8
0
 62
     0
 10
45.2134
 20
19.0307
 30
0.0
 11
45.2134
 21
18.0303
 31
0.0
  0
LINE
  8
0
 62
     0
 10
45.2134
 20
18.0303
 30
0.0
 11
46.0128
 21
18.0303
 31
0.0
  0
LINE
  8
0
 62
     0
 10
46.0128
 20
18.0303
 30
0.0
 11
46.0128
 21
14.931
 31
0.0
  0
LINE
  8
0
 62
     0
 10
46.0128
 20
14.931
 30
0.0
 11
45.2134
 21
14.931
 31
0.0
  0
LINE
  8
0
 62
     0
 10
45.2134
 20
14.931
 30
0.0
 11
45.2134
 21
9.13088
 31
0.0
  0
LINE
  8
0
 62
     0
 10
45.2134
 20
9.13088
 30
0.0
 11
46.0128
 21
9.13088
 31
0.0
  0
LINE
  8
0
 62
     0
 10
46.0128
 20
9.13088
 30
0.0
 11
46.0128
 21
6.03031
 31
0.0
  0
LINE
  8
0
 62
     0
 10
46.0128
 20
6.03031
 30
0.0
 11
45.2134
 21
6.03031
 31
0.0
  0
LINE
  8
0
 62
     0
 10
47.5933
 20
63.1804
 30
0.0
 11
47.5933
 21
62.1813
 31
0.0
  0
LINE
  8
0
 62
     0
 10
47.5933
 20
62.1813
 30
0.0
 11
33.5938
 21
62.1813
 31
0.0
  0
LINE
  8
0
 62
     0
 10
33.5938
 20
62.1813
 30
0.0
 11
33.5938
 21
63.1804
 31
0.0
  0
LINE
  8
0
 62
     0
 10
33.5938
 20
63.1804
 30
0.0
 11
32.7932
 21
63.1804
 31
0.0
  0
LINE
  8
0
 62
     0
 10
32.7932
 20
63.1804
 30
0.0
 11
32.7932
 21
66.2809
 31
0.0
  0
LINE
  8
0
 62
     0
 10
32.7932
 20
66.2809
 30
0.0
 11
33.5938
 21
66.2809
 31
0.0
  0
LINE
  8
0
 62
     0
 10
33.5938
 20
66.2809
 30
0.0
 11
33.5938
 21
72.081
 31
0.0
  0
LINE
  8
0
 62
     0
 10
33.5938
 20
72.081
 30
0.0
 11
32.7932
 21
72.081
 31
0.0
  0
LINE
  8
0
 62
     0
 10
32.7932
 20
72.081
 30
0.0
 11
32.7932
 21
75.1801
 31
0.0
  0
LINE
  8
0
 62
     0
 10
32.7932
 20
75.1801
 30
0.0
 11
33.5938
 21
75.1801
 31
0.0
  0
LINE
  8
0
 62
     0
 10
33.5938
 20
75.1801
 30
0.0
 11
33.5938
 21
76.1806
 31
0.0
  0
LINE
  8
0
 62
     0
 10
33.5938
 20
76.1806
 30
0.0
 11
47.5933
 21
76.1806
 31
0.0
  0
LINE
  8
0
 62
     0
 10
47.5933
 20
76.1806
 30
0.0
 11
47.5933
 21
75.1801
 31
0.0
  0
LINE
  8
0
 62
     0
 10
47.5933
 20
75.1801
 30
0.0
 11
48.3941
 21
75.1801
 31
0.0
  0
LINE
  8
0
 62
     0
 10
48.3941
 20
75.1801
 30
0.0
 11
48.3941
 21
72.081
 31
0.0
  0
LINE
  8
0
 62
     0
 10
48.3941
 20
72.081
 30
0.0
 11
47.5933
 21
72.081
 31
0.0
  0
LINE
  8
0
 62
     0
 10
47.5933
 20
72.081
 30
0.0
 11
47.5933
 21
66.2809
 31
0.0
  0
LINE
  8
0
 62
     0
 10
47.5933
 20
66.2809
 30
0.0
 11
48.3941
 21
66.2809
 31
0.0
  0
LINE
  8
0
 62
     0
 10
48.3941
 20
66.2809
 30
0.0
 11
48.3941
 21
63.1804
 31
0.0
  0
LINE
  8
0
 62
     0
 10
48.3941
 20
63.1804
 30
0.0
 11
47.5933
 21
63.1804
 31
0.0
  0
LINE
  8
0
 62
     0
 10
52.3572
 20
44.1304
 30
0.0
 11
52.3572
 21
43.1313
 31
0.0
  0
LINE
  8
0
 62
     0
 10
52.3572
 20
43.1313
 30
0.0
 11
38.3565
 21
43.1313
 31
0.0
  0
LINE
  8
0
 62
     0
 10
38.3565
 20
43.1313
 30
0.0
 11
38.3565
 21
44.1304
 31
0.0
  0
LINE
  8
0
 62
     0
 10
38.3565
 20
44.1304
 30
0.0
 11
37.5571
 21
44.1304
 31
0.0
  0
LINE
  8
0
 62
     0
 10
37.5571
 20
44.1304
 30
0.0
 11
37.5571
 21
47.2309
 31
0.0
  0
LINE
  8
0
 62
     0
 10
37.5571
 20
47.2309
 30
0.0
 11
38.3565
 21
47.2309
 31
0.0
  0
LINE
  8
0
 62
     0
 10
38.3565
 20
47.2309
 30
0.0
 11
38.3565
 21
53.031
 31
0.0
  0
LINE
  8
0
 62
     0
 10
38.3565
 20
53.031
 30
0.0
 11
37.5571
 21
53.031
 31
0.0
  0
LINE
  8
0
 62
     0
 10
37.5571
 20
53.031
 30
0.0
 11
37.5571
 21
56.1301
 31
0.0
  0
LINE
  8
0
 62
     0
 10
37.5571
 20
56.1301
 30
0.0
 11
38.3565
 21
56.1301
 31
0.0
  0
LINE
  8
0
 62
     0
 10
38.3565
 20
56.1301
 30
0.0
 11
38.3565
 21
57.1306
 31
0.0
  0
LINE
  8
0
 62
     0
 10
38.3565
 20
57.1306
 30
0.0
 11
52.3572
 21
57.1306
 31
0.0
  0
LINE
  8
0
 62
     0
 10
52.3572
 20
57.1306
 30
0.0
 11
52.3572
 21
56.1301
 31
0.0
  0
LINE
  8
0
 62
     0
 10
52.3572
 20
56.1301
 30
0.0
 11
53.1551
 21
56.1301
 31
0.0
  0
LINE
  8
0
 62
     0
 10
53.1551
 20
56.1301
 30
0.0
 11
53.1551
 21
53.031
 31
0.0
  0
LINE
  8
0
 62
     0
 10
53.1551
 20
53.031
 30
0.0
 11
52.3572
 21
53.031
 31
0.0
  0
LINE
  8
0
 62
     0
 10
52.3572
 20
53.031
 30
0.0
 11
52.3572
 21
47.2309
 31
0.0
  0
LINE
  8
0
 62
     0
 10
52.3572
 20
47.2309
 30
0.0
 11
53.1551
 21
47.2309
 31
0.0
  0
LINE
  8
0
 62
     0
 10
53.1551
 20
47.2309
 30
0.0
 11
53.1551
 21
44.1304
 31
0.0
  0
LINE
  8
0
 62
     0
 10
53.1551
 20
44.1304
 30
0.0
 11
52.3572
 21
44.1304
 31
0.0
  0
LINE
  8
0
 62
     0
 10
57.1183
 20
82.2304
 30
0.0
 11
57.1183
 21
81.2313
 31
0.0
  0
LINE
  8
0
 62
     0
 10
57.1183
 20
81.2313
 30
0.0
 11
43.119
 21
81.2313
 31
0.0
  0
LINE
  8
0
 62
     0
 10
43.119
 20
81.2313
 30
0.0
 11
43.119
 21
82.2304
 31
0.0
  0
LINE
  8
0
 62
     0
 10
43.119
 20
82.2304
 30
0.0
 11
42.3182
 21
82.2304
 31
0.0
  0
LINE
  8
0
 62
     0
 10
42.3182
 20
82.2304
 30
0.0
 11
42.3182
 21
85.3309
 31
0.0
  0
LINE
  8
0
 62
     0
 10
42.3182
 20
85.3309
 30
0.0
 11
43.119
 21
85.3309
 31
0.0
  0
LINE
  8
0
 62
     0
 10
43.119
 20
85.3309
 30
0.0
 11
43.119
 21
91.131
 31
0.0
  0
LINE
  8
0
 62
     0
 10
43.119
 20
91.131
 30
0.0
 11
42.3182
 21
91.131
 31
0.0
  0
LINE
  8
0
 62
     0
 10
42.3182
 20
91.131
 30
0.0
 11
42.3182
 21
94.2301
 31
0.0
  0
LINE
  8
0
 62
     0
 10
42.3182
 20
94.2301
 30
0.0
 11
43.119
 21
94.2301
 31
0.0
  0
LINE
  8
0
 62
     0
 10
43.119
 20
94.2301
 30
0.0
 11
43.119
 21
95.2306
 31
0.0
  0
LINE
  8
0
 62
     0
 10
43.119
 20
95.2306
 30
0.0
 11
57.1183
 21
95.2306
 31
0.0
  0
LINE
  8
0
 62
     0
 10
57.1183
 20
95.2306
 30
0.0
 11
57.1183
 21
94.2301
 31
0.0
  0
LINE
  8
0
 62
     0
 10
57.1183
 20
94.2301
 30
0.0
 11
57.9191
 21
94.2301
 31
0.0
  0
LINE
  8
0
 62
     0
 10
57.9191
 20
94.2301
 30
0.0
 11
57.9191
 21
91.131
 31
0.0
  0
LINE
  8
0
 62
     0
 10
57.9191
 20
91.131
 30
0.0
 11
57.1183
 21
91.131
 31
0.0
  0
LINE
  8
0
 62
     0
 10
57.1183
 20
91.131
 30
0.0
 11
57.1183
 21
85.3309
 31
0.0
  0
LINE
  8
0
 62
     0
 10
57.1183
 20
85.3309
 30
0.0
 11
57.9191
 21
85.3309
 31
0.0
  0
LINE
  8
0
 62
     0
 10
57.9191
 20
85.3309
 30
0.0
 11
57.9191
 21
82.2304
 31
0.0
  0
LINE
  8
0
 62
     0
 10
57.9191
 20
82.2304
 30
0.0
 11
57.1183
 21
82.2304
 31
0.0
  0
LINE
  8
0
 62
     0
 10
61.8822
 20
25.0803
 30
0.0
 11
61.8822
 21
24.0812
 31
0.0
  0
LINE
  8
0
 62
     0
 10
61.8822
 20
24.0812
 30
0.0
 11
47.8815
 21
24.0812
 31
0.0
  0
LINE
  8
0
 62
     0
 10
47.8815
 20
24.0812
 30
0.0
 11
47.8815
 21
25.0803
 31
0.0
  0
LINE
  8
0
 62
     0
 10
47.8815
 20
25.0803
 30
0.0
 11
47.0821
 21
25.0803
 31
0.0
  0
LINE
  8
0
 62
     0
 10
47.0821
 20
25.0803
 30
0.0
 11
47.0821
 21
28.1809
 31
0.0
  0
LINE
  8
0
 62
     0
 10
47.0821
 20
28.1809
 30
0.0
 11
47.8815
 21
28.1809
 31
0.0
  0
LINE
  8
0
 62
     0
 10
47.8815
 20
28.1809
 30
0.0
 11
47.8815
 21
33.981
 31
0.0
  0
LINE
  8
0
 62
     0
 10
47.8815
 20
33.981
 30
0.0
 11
47.0821
 21
33.981
 31
0.0
  0
LINE
  8
0
 62
     0
 10
47.0821
 20
33.981
 30
0.0
 11
47.0821
 21
37.0801
 31
0.0
  0
LINE
  8
0
 62
     0
 10
47.0821
 20
37.0801
 30
0.0
 11
47.8815
 21
37.0801
 31
0.0
  0
LINE
  8
0
 62
     0
 10
47.8815
 20
37.0801
 30
0.0
 11
47.8815
 21
38.0806
 31
0.0
  0
LINE
  8
0
 62
     0
 10
47.8815
 20
38.0806
 30
0.0
 11
61.8822
 21
38.0806
 31
0.0
  0
LINE
  8
0
 62
     0
 10
61.8822
 20
38.0806
 30
0.0
 11
61.8822
 21
37.0801
 31
0.0
  0
LINE
  8
0
 62
     0
 10
61.8822
 20
37.0801
 30
0.0
 11
62.6816
 21
37.0801
 31
0.0
  0
LINE
  8
0
 62
     0
 10
62.6816
 20
37.0801
 30
0.0
 11
62.6816
 21
33.981
 31
0.0
  0
LINE
  8
0
 62
     0
 10
62.6816
 20
33.981
 30
0.0
 11
61.8822
 21
33.981
 31
0.0
  0
LINE
  8
0
 62
     0
 10
61.8822
 20
33.981
 30
0.0
 11
61.8822
 21
28.1809
 31
0.0
  0
LINE
  8
0
 62
     0
 10
61.8822
 20
28.1809
 30
0.0
 11
62.6816
 21
28.1809
 31
0.0
  0
LINE
  8
0
 62
     0
 10
62.6816
 20
28.1809
 30
0.0
 11
62.6816
 21
25.0803
 31
0.0
  0
LINE
  8
0
 62
     0
 10
62.6816
 20
25.0803
 30
0.0
 11
61.8822
 21
25.0803
 31
0.0
  0
LINE
  8
0
 62
     0
 10
66.6433
 20
63.1804
 30
0.0
 11
66.6433
 21
62.1813
 31
0.0
  0
LINE
  8
0
 62
     0
 10
66.6433
 20
62.1813
 30
0.0
 11
52.644
 21
62.1813
 31
0.0
  0
LINE
  8
0
 62
     0
 10
52.644
 20
62.1813
 30
0.0
 11
52.644
 21
63.1804
 31
0.0
  0
LINE
  8
0
 62
     0
 10
52.644
 20
63.1804
 30
0.0
 11
51.8432
 21
63.1804
 31
0.0
  0
LINE
  8
0
 62
     0
 10
51.8432
 20
63.1804
 30
0.0
 11
51.8432
 21
66.2809
 31
0.0
  0
LINE
  8
0
 62
     0
 10
51.8432
 20
66.2809
 30
0.0
 11
52.644
 21
66.2809
 31
0.0
  0
LINE
  8
0
 62
     0
 10
52.644
 20
66.2809
 30
0.0
 11
52.644
 21
72.081
 31
0.0
  0
LINE
  8
0
 62
     0
 10
52.644
 20
72.081
 30
0.0
 11
51.8432
 21
72.081
 31
0.0
  0
LINE
  8
0
 62
     0
 10
51.8432
 20
72.081
 30
0.0
 11
51.8432
 21
75.1801
 31
0.0
  0
LINE
  8
0
 62
     0
 10
51.8432
 20
75.1801
 30
0.0
 11
52.644
 21
75.1801
 31
0.0
  0
LINE
  8
0
 62
     0
 10
52.644
 20
75.1801
 30
0.0
 11
52.644
 21
76.1806
 31
0.0
  0
LINE
  8
0
 62
     0
 10
52.644
 20
76.1806
 30
0.0
 11
66.6433
 21
76.1806
 31
0.0
  0
LINE
  8
0
 62
     0
 10
66.6433
 20
76.1806
 30
0.0
 11
66.6433
 21
75.1801
 31
0.0
  0
LINE
  8
0
 62
     0
 10
66.6433
 20
75.1801
 30
0.0
 11
67.4441
 21
75.1801
 31
0.0
  0
LINE
  8
0
 62
     0
 10
67.4441
 20
75.1801
 30
0.0
 11
67.4441
 21
72.081
 31
0.0
  0
LINE
  8
0
 62
     0
 10
67.4441
 20
72.081
 30
0.0
 11
66.6433
 21
72.081
 31
0.0
  0
LINE
  8
0
 62
     0
 10
66.6433
 20
72.081
 30
0.0
 11
66.6433
 21
66.2809
 31
0.0
  0
LINE
  8
0
 62
     0
 10
66.6433
 20
66.2809
 30
0.0
 11
67.4441
 21
66.2809
 31
0.0
  0
LINE
  8
0
 62
     0
 10
67.4441
 20
66.2809
 30
0.0
 11
67.4441
 21
63.1804
 31
0.0
  0
LINE
  8
0
 62
     0
 10
67.4441
 20
63.1804
 30
0.0
 11
66.6433
 21
63.1804
 31
0.0
  0
LINE
  8
0
 62
     0
 10
69.0245
 20
6.03031
 30
0.0
 11
69.0245
 21
5.03121
 31
0.0
  0
LINE
  8
0
 62
     0
 10
69.0245
 20
5.03121
 30
0.0
 11
55.0252
 21
5.03121
 31
0.0
  0
LINE
  8
0
 62
     0
 10
55.0252
 20
5.03121
 30
0.0
 11
55.0252
 21
6.03031
 31
0.0
  0
LINE
  8
0
 62
     0
 10
55.0252
 20
6.03031
 30
0.0
 11
54.2244
 21
6.03031
 31
0.0
  0
LINE
  8
0
 62
     0
 10
54.2244
 20
6.03031
 30
0.0
 11
54.2244
 21
9.13088
 31
0.0
  0
LINE
  8
0
 62
     0
 10
54.2244
 20
9.13088
 30
0.0
 11
55.0252
 21
9.13088
 31
0.0
  0
LINE
  8
0
 62
     0
 10
55.0252
 20
9.13088
 30
0.0
 11
55.0252
 21
14.931
 31
0.0
  0
LINE
  8
0
 62
     0
 10
55.0252
 20
14.931
 30
0.0
 11
54.2244
 21
14.931
 31
0.0
  0
LINE
  8
0
 62
     0
 10
54.2244
 20
14.931
 30
0.0
 11
54.2244
 21
18.0303
 31
0.0
  0
LINE
  8
0
 62
     0
 10
54.2244
 20
18.0303
 30
0.0
 11
55.0252
 21
18.0303
 31
0.0
  0
LINE
  8
0
 62
     0
 10
55.0252
 20
18.0303
 30
0.0
 11
55.0252
 21
19.0307
 31
0.0
  0
LINE
  8
0
 62
     0
 10
55.0252
 20
19.0307
 30
0.0
 11
69.0245
 21
19.0307
 31
0.0
  0
LINE
  8
0
 62
     0
 10
69.0245
 20
19.0307
 30
0.0
 11
69.0245
 21
18.0303
 31
0.0
  0
LINE
  8
0
 62
     0
 10
69.0245
 20
18.0303
 30
0.0
 11
69.8253
 21
18.0303
 31
0.0
  0
LINE
  8
0
 62
     0
 10
69.8253
 20
18.0303
 30
0.0
 11
69.8253
 21
14.931
 31
0.0
  0
LINE
  8
0
 62
     0
 10
69.8253
 20
14.931
 30
0.0
 11
69.0245
 21
14.931
 31
0.0
  0
LINE
  8
0
 62
     0
 10
69.0245
 20
14.931
 30
0.0
 11
69.0245
 21
9.13088
 31
0.0
  0
LINE
  8
0
 62
     0
 10
69.0245
 20
9.13088
 30
0.0
 11
69.8253
 21
9.13088
 31
0.0
  0
LINE
  8
0
 62
     0
 10
69.8253
 20
9.13088
 30
0.0
 11
69.8253
 21
6.03031
 31
0.0
  0
LINE
  8
0
 62
     0
 10
69.8253
 20
6.03031
 30
0.0
 11
69.0245
 21
6.03031
 31
0.0
  0
LINE
  8
0
 62
     0
 10
71.4058
 20
44.1304
 30
0.0
 11
71.4058
 21
43.1313
 31
0.0
  0
LINE
  8
0
 62
     0
 10
71.4058
 20
43.1313
 30
0.0
 11
57.4065
 21
43.1313
 31
0.0
  0
LINE
  8
0
 62
     0
 10
57.4065
 20
43.1313
 30
0.0
 11
57.4065
 21
44.1304
 31
0.0
  0
LINE
  8
0
 62
     0
 10
57.4065
 20
44.1304
 30
0.0
 11
56.6071
 21
44.1304
 31
0.0
  0
LINE
  8
0
 62
     0
 10
56.6071
 20
44.1304
 30
0.0
 11
56.6071
 21
47.2309
 31
0.0
  0
LINE
  8
0
 62
     0
 10
56.6071
 20
47.2309
 30
0.0
 11
57.4065
 21
47.2309
 31
0.0
  0
LINE
  8
0
 62
     0
 10
57.4065
 20
47.2309
 30
0.0
 11
57.4065
 21
53.031
 31
0.0
  0
LINE
  8
0
 62
     0
 10
57.4065
 20
53.031
 30
0.0
 11
56.6071
 21
53.031
 31
0.0
  0
LINE
  8
0
 62
     0
 10
56.6071
 20
53.031
 30
0.0
 11
56.6071
 21
56.1301
 31
0.0
  0
LINE
  8
0
 62
     0
 10
56.6071
 20
56.1301
 30
0.0
 11
57.4065
 21
56.1301
 31
0.0
  0
LINE
  8
0
 62
     0
 10
57.4065
 20
56.1301
 30
0.0
 11
57.4065
 21
57.1306
 31
0.0
  0
LINE
  8
0
 62
     0
 10
57.4065
 20
57.1306
 30
0.0
 11
71.4058
 21
57.1306
 31
0.0
  0
LINE
  8
0
 62
     0
 10
71.4058
 20
57.1306
 30
0.0
 11
71.4058
 21
56.1301
 31
0.0
  0
LINE
  8
0
 62
     0
 10
71.4058
 20
56.1301
 30
0.0
 11
72.2051
 21
56.1301
 31
0.0
  0
LINE
  8
0
 62
     0
 10
72.2051
 20
56.1301
 30
0.0
 11
72.2051
 21
53.031
 31
0.0
  0
LINE
  8
0
 62
     0
 10
72.2051
 20
53.031
 30
0.0
 11
71.4058
 21
53.031
 31
0.0
  0
LINE
  8
0
 62
     0
 10
71.4058
 20
53.031
 30
0.0
 11
71.4058
 21
47.2309
 31
0.0
  0
LINE
  8
0
 62
     0
 10
71.4058
 20
47.2309
 30
0.0
 11
72.2051
 21
47.2309
 31
0.0
  0
LINE
  8
0
 62
     0
 10
72.2051
 20
47.2309
 30
0.0
 11
72.2051
 21
44.1304
 31
0.0
  0
LINE
  8
0
 62
     0
 10
72.2051
 20
44.1304
 30
0.0
 11
71.4058
 21
44.1304
 31
0.0
  0
LINE
  8
0
 62
     0
 10
76.1683
 20
82.2304
 30
0.0
 11
76.1683
 21
81.2313
 31
0.0
  0
LINE
  8
0
 62
     0
 10
76.1683
 20
81.2313
 30
0.0
 11
62.169
 21
81.2313
 31
0.0
  0
LINE
  8
0
 62
     0
 10
62.169
 20
81.2313
 30
0.0
 11
62.169
 21
82.2304
 31
0.0
  0
LINE
  8
0
 62
     0
 10
62.169
 20
82.2304
 30
0.0
 11
61.3682
 21
82.2304
 31
0.0
  0
LINE
  8
0
 62
     0
 10
61.3682
 20
82.2304
 30
0.0
 11
61.3682
 21
85.3309
 31
0.0
  0
LINE
  8
0
 62
     0
 10
61.3682
 20
85.3309
 30
0.0
 11
62.169
 21
85.3309
 31
0.0
  0
LINE
  8
0
 62
     0
 10
62.169
 20
85.3309
 30
0.0
 11
62.169
 21
91.131
 31
0.0
  0
LINE
  8
0
 62
     0
 10
62.169
 20
91.131
 30
0.0
 11
61.3682
 21
91.131
 31
0.0
  0
LINE
  8
0
 62
     0
 10
61.3682
 20
91.131
 30
0.0
 11
61.3682
 21
94.2301
 31
0.0
  0
LINE
  8
0
 62
     0
 10
61.3682
 20
94.2301
 30
0.0
 11
62.169
 21
94.2301
 31
0.0
  0
LINE
  8
0
 62
     0
 10
62.169
 20
94.2301
 30
0.0
 11
62.169
 21
95.2306
 31
0.0
  0
LINE
  8
0
 62
     0
 10
62.169
 20
95.2306
 30
0.0
 11
76.1683
 21
95.2306
 31
0.0
  0
LINE
  8
0
 62
     0
 10
76.1683
 20
95.2306
 30
0.0
 11
76.1683
 21
94.2301
 31
0.0
  0
LINE
  8
0
 62
     0
 10
76.1683
 20
94.2301
 30
0.0
 11
76.9691
 21
94.2301
 31
0.0
  0
LINE
  8
0
 62
     0
 10
76.9691
 20
94.2301
 30
0.0
 11
76.9691
 21
91.131
 31
0.0
  0
LINE
  8
0
 62
     0
 10
76.9691
 20
91.131
 30
0.0
 11
76.1683
 21
91.131
 31
0.0
  0
LINE
  8
0
 62
     0
 10
76.1683
 20
91.131
 30
0.0
 11
76.1683
 21
85.3309
 31
0.0
  0
LINE
  8
0
 62
     0
 10
76.1683
 20
85.3309
 30
0.0
 11
76.9691
 21
85.3309
 31
0.0
  0
LINE
  8
0
 62
     0
 10
76.9691
 20
85.3309
 30
0.0
 11
76.9691
 21
82.2304
 31
0.0
  0
LINE
  8
0
 62
     0
 10
76.9691
 20
82.2304
 30
0.0
 11
76.1683
 21
82.2304
 31
0.0
  0
LINE
  8
0
 62
     0
 10
80.9322
 20
25.0803
 30
0.0
 11
80.9322
 21
24.0812
 31
0.0
  0
LINE
  8
0
 62
     0
 10
80.9322
 20
24.0812
 30
0.0
 11
66.9315
 21
24.0812
 31
0.0
  0
LINE
  8
0
 62
     0
 10
66.9315
 20
24.0812
 30
0.0
 11
66.9315
 21
25.0803
 31
0.0
  0
LINE
  8
0
 62
     0
 10
66.9315
 20
25.0803
 30
0.0
 11
66.1321
 21
25.0803
 31
0.0
  0
LINE
  8
0
 62
     0
 10
66.1321
 20
25.0803
 30
0.0
 11
66.1321
 21
28.1809
 31
0.0
  0
LINE
  8
0
 62
     0
 10
66.1321
 20
28.1809
 30
0.0
 11
66.9315
 21
28.1809
 31
0.0
  0
LINE
  8
0
 62
     0
 10
66.9315
 20
28.1809
 30
0.0
 11
66.9315
 21
33.981
 31
0.0
  0
LINE
  8
0
 62
     0
 10
66.9315
 20
33.981
 30
0.0
 11
66.1321
 21
33.981
 31
0.0
  0
LINE
  8
0
 62
     0
 10
66.1321
 20
33.981
 30
0.0
 11
66.1321
 21
37.0801
 31
0.0
  0
LINE
  8
0
 62
     0
 10
66.1321
 20
37.0801
 30
0.0
 11
66.9315
 21
37.0801
 31
0.0
  0
LINE
  8
0
 62
     0
 10
66.9315
 20
37.0801
 30
0.0
 11
66.9315
 21
38.0806
 31
0.0
  0
LINE
  8
0
 62
     0
 10
66.9315
 20
38.0806
 30
0.0
 11
80.9322
 21
38.0806
 31
0.0
  0
LINE
  8
0
 62
     0
 10
80.9322
 20
38.0806
 30
0.0
 11
80.9322
 21
37.0801
 31
0.0
  0
LINE
  8
0
 62
     0
 10
80.9322
 20
37.0801
 30
0.0
 11
81.7316
 21
37.0801
 31
0.0
  0
LINE
  8
0
 62
     0
 10
81.7316
 20
37.0801
 30
0.0
 11
81.7316
 21
33.981
 31
0.0
  0
LINE
  8
0
 62
     0
 10
81.7316
 20
33.981
 30
0.0
 11
80.9322
 21
33.981
 31
0.0
  0
LINE
  8
0
 62
     0
 10
80.9322
 20
33.981
 30
0.0
 11
80.9322
 21
28.1809
 31
0.0
  0
LINE
  8
0
 62
     0
 10
80.9322
 20
28.1809
 30
0.0
 11
81.7316
 21
28.1809
 31
0.0
  0
LINE
  8
0
 62
     0
 10
81.7316
 20
28.1809
 30
0.0
 11
81.7316
 21
25.0803
 31
0.0
  0
LINE
  8
0
 62
     0
 10
81.7316
 20
25.0803
 30
0.0
 11
80.9322
 21
25.0803
 31
0.0
  0
LINE
  8
0
 62
     0
 10
81.8127
 20
18.4809
 30
0.0
 11
85.1133
 21
18.4809
 31
0.0
  0
LINE
  8
0
 62
     0
 10
85.1133
 20
18.4809
 30
0.0
 11
85.1133
 21
4.28018
 31
0.0
  0
LINE
  8
0
 62
     0
 10
85.1133
 20
4.28018
 30
0.0
 11
81.8127
 21
4.28018
 31
0.0
  0
LINE
  8
0
 62
     0
 10
81.8127
 20
4.28018
 30
0.0
 11
81.8127
 21
18.4809
 31
0.0
  0
LINE
  8
0
 62
     0
 10
85.6933
 20
63.1804
 30
0.0
 11
85.6933
 21
62.1813
 31
0.0
  0
LINE
  8
0
 62
     0
 10
85.6933
 20
62.1813
 30
0.0
 11
71.694
 21
62.1813
 31
0.0
  0
LINE
  8
0
 62
     0
 10
71.694
 20
62.1813
 30
0.0
 11
71.694
 21
63.1804
 31
0.0
  0
LINE
  8
0
 62
     0
 10
71.694
 20
63.1804
 30
0.0
 11
70.8932
 21
63.1804
 31
0.0
  0
LINE
  8
0
 62
     0
 10
70.8932
 20
63.1804
 30
0.0
 11
70.8932
 21
66.2809
 31
0.0
  0
LINE
  8
0
 62
     0
 10
70.8932
 20
66.2809
 30
0.0
 11
71.694
 21
66.2809
 31
0.0
  0
LINE
  8
0
 62
     0
 10
71.694
 20
66.2809
 30
0.0
 11
71.694
 21
72.081
 31
0.0
  0
LINE
  8
0
 62
     0
 10
71.694
 20
72.081
 30
0.0
 11
70.8932
 21
72.081
 31
0.0
  0
LINE
  8
0
 62
     0
 10
70.8932
 20
72.081
 30
0.0
 11
70.8932
 21
75.1801
 31
0.0
  0
LINE
  8
0
 62
     0
 10
70.8932
 20
75.1801
 30
0.0
 11
71.694
 21
75.1801
 31
0.0
  0
LINE
  8
0
 62
     0
 10
71.694
 20
75.1801
 30
0.0
 11
71.694
 21
76.1806
 31
0.0
  0
LINE
  8
0
 62
     0
 10
71.694
 20
76.1806
 30
0.0
 11
85.6933
 21
76.1806
 31
0.0
  0
LINE
  8
0
 62
     0
 10
85.6933
 20
76.1806
 30
0.0
 11
85.6933
 21
75.1801
 31
0.0
  0
LINE
  8
0
 62
     0
 10
85.6933
 20
75.1801
 30
0.0
 11
86.4941
 21
75.1801
 31
0.0
  0
LINE
  8
0
 62
     0
 10
86.4941
 20
75.1801
 30
0.0
 11
86.4941
 21
72.081
 31
0.0
  0
LINE
  8
0
 62
     0
 10
86.4941
 20
72.081
 30
0.0
 11
85.6933
 21
72.081
 31
0.0
  0
LINE
  8
0
 62
     0
 10
85.6933
 20
72.081
 30
0.0
 11
85.6933
 21
66.2809
 31
0.0
  0
LINE
  8
0
 62
     0
 10
85.6933
 20
66.2809
 30
0.0
 11
86.4941
 21
66.2809
 31
0.0
  0
LINE
  8
0
 62
     0
 10
86.4941
 20
66.2809
 30
0.0
 11
86.4941
 21
63.1804
 31
0.0
  0
LINE
  8
0
 62
     0
 10
86.4941
 20
63.1804
 30
0.0
 11
85.6933
 21
63.1804
 31
0.0
  0
LINE
  8
0
 62
     0
 10
90.4558
 20
44.1304
 30
0.0
 11
90.4558
 21
43.1313
 31
0.0
  0
LINE
  8
0
 62
     0
 10
90.4558
 20
43.1313
 30
0.0
 11
76.4565
 21
43.1313
 31
0.0
  0
LINE
  8
0
 62
     0
 10
76.4565
 20
43.1313
 30
0.0
 11
76.4565
 21
44.1304
 31
0.0
  0
LINE
  8
0
 62
     0
 10
76.4565
 20
44.1304
 30
0.0
 11
75.6557
 21
44.1304
 31
0.0
  0
LINE
  8
0
 62
     0
 10
75.6557
 20
44.1304
 30
0.0
 11
75.6557
 21
47.2309
 31
0.0
  0
LINE
  8
0
 62
     0
 10
75.6557
 20
47.2309
 30
0.0
 11
76.4565
 21
47.2309
 31
0.0
  0
LINE
  8
0
 62
     0
 10
76.4565
 20
47.2309
 30
0.0
 11
76.4565
 21
53.031
 31
0.0
  0
LINE
  8
0
 62
     0
 10
76.4565
 20
53.031
 30
0.0
 11
75.6557
 21
53.031
 31
0.0
  0
LINE
  8
0
 62
     0
 10
75.6557
 20
53.031
 30
0.0
 11
75.6557
 21
56.1301
 31
0.0
  0
LINE
  8
0
 62
     0
 10
75.6557
 20
56.1301
 30
0.0
 11
76.4565
 21
56.1301
 31
0.0
  0
LINE
  8
0
 62
     0
 10
76.4565
 20
56.1301
 30
0.0
 11
76.4565
 21
57.1306
 31
0.0
  0
LINE
  8
0
 62
     0
 10
76.4565
 20
57.1306
 30
0.0
 11
90.4558
 21
57.1306
 31
0.0
  0
LINE
  8
0
 62
     0
 10
90.4558
 20
57.1306
 30
0.0
 11
90.4558
 21
56.1301
 31
0.0
  0
LINE
  8
0
 62
     0
 10
90.4558
 20
56.1301
 30
0.0
 11
91.2551
 21
56.1301
 31
0.0
  0
LINE
  8
0
 62
     0
 10
91.2551
 20
56.1301
 30
0.0
 11
91.2551
 21
53.031
 31
0.0
  0
LINE
  8
0
 62
     0
 10
91.2551
 20
53.031
 30
0.0
 11
90.4558
 21
53.031
 31
0.0
  0
LINE
  8
0
 62
     0
 10
90.4558
 20
53.031
 30
0.0
 11
90.4558
 21
47.2309
 31
0.0
  0
LINE
  8
0
 62
     0
 10
90.4558
 20
47.2309
 30
0.0
 11
91.2551
 21
47.2309
 31
0.0
  0
LINE
  8
0
 62
     0
 10
91.2551
 20
47.2309
 30
0.0
 11
91.2551
 21
44.1304
 31
0.0
  0
LINE
  8
0
 62
     0
 10
91.2551
 20
44.1304
 30
0.0
 11
90.4558
 21
44.1304
 31
0.0
  0
LINE
  8
0
 62
     0
 10
95.2183
 20
82.2304
 30
0.0
 11
95.2183
 21
81.2313
 31
0.0
  0
LINE
  8
0
 62
     0
 10
95.2183
 20
81.2313
 30
0.0
 11
81.219
 21
81.2313
 31
0.0
  0
LINE
  8
0
 62
     0
 10
81.219
 20
81.2313
 30
0.0
 11
81.219
 21
82.2304
 31
0.0
  0
LINE
  8
0
 62
     0
 10
81.219
 20
82.2304
 30
0.0
 11
80.4182
 21
82.2304
 31
0.0
  0
LINE
  8
0
 62
     0
 10
80.4182
 20
82.2304
 30
0.0
 11
80.4182
 21
85.3309
 31
0.0
  0
LINE
  8
0
 62
     0
 10
80.4182
 20
85.3309
 30
0.0
 11
81.219
 21
85.3309
 31
0.0
  0
LINE
  8
0
 62
     0
 10
81.219
 20
85.3309
 30
0.0
 11
81.219
 21
91.131
 31
0.0
  0
LINE
  8
0
 62
     0
 10
81.219
 20
91.131
 30
0.0
 11
80.4182
 21
91.131
 31
0.0
  0
LINE
  8
0
 62
     0
 10
80.4182
 20
91.131
 30
0.0
 11
80.4182
 21
94.2301
 31
0.0
  0
LINE
  8
0
 62
     0
 10
80.4182
 20
94.2301
 30
0.0
 11
81.219
 21
94.2301
 31
0.0
  0
LINE
  8
0
 62
     0
 10
81.219
 20
94.2301
 30
0.0
 11
81.219
 21
95.2306
 31
0.0
  0
LINE
  8
0
 62
     0
 10
81.219
 20
95.2306
 30
0.0
 11
95.2183
 21
95.2306
 31
0.0
  0
LINE
  8
0
 62
     0
 10
95.2183
 20
95.2306
 30
0.0
 11
95.2183
 21
94.2301
 31
0.0
  0
LINE
  8
0
 62
     0
 10
95.2183
 20
94.2301
 30
0.0
 11
96.0191
 21
94.2301
 31
0.0
  0
LINE
  8
0
 62
     0
 10
96.0191
 20
94.2301
 30
0.0
 11
96.0191
 21
91.131
 31
0.0
  0
LINE
  8
0
 62
     0
 10
96.0191
 20
91.131
 30
0.0
 11
95.2183
 21
91.131
 31
0.0
  0
LINE
  8
0
 62
     0
 10
95.2183
 20
91.131
 30
0.0
 11
95.2183
 21
85.3309
 31
0.0
  0
LINE
  8
0
 62
     0
 10
95.2183
 20
85.3309
 30
0.0
 11
96.0191
 21
85.3309
 31
0.0
  0
LINE
  8
0
 62
     0
 10
96.0191
 20
85.3309
 30
0.0
 11
96.0191
 21
82.2304
 31
0.0
  0
LINE
  8
0
 62
     0
 10
96.0191
 20
82.2304
 30
0.0
 11
95.2183
 21
82.2304
 31
0.0
  0
LINE
  8
0
 62
     0
 10
99.9822
 20
25.0803
 30
0.0
 11
99.9822
 21
24.0812
 31
0.0
  0
LINE
  8
0
 62
     0
 10
99.9822
 20
24.0812
 30
0.0
 11
85.9815
 21
24.0812
 31
0.0
  0
LINE
  8
0
 62
     0
 10
85.9815
 20
24.0812
 30
0.0
 11
85.9815
 21
25.0803
 31
0.0
  0
LINE
  8
0
 62
     0
 10
85.9815
 20
25.0803
 30
0.0
 11
85.1821
 21
25.0803
 31
0.0
  0
LINE
  8
0
 62
     0
 10
85.1821
 20
25.0803
 30
0.0
 11
85.1821
 21
28.1809
 31
0.0
  0
LINE
  8
0
 62
     0
 10
85.1821
 20
28.1809
 30
0.0
 11
85.9815
 21
28.1809
 31
0.0
  0
LINE
  8
0
 62
     0
 10
85.9815
 20
28.1809
 30
0.0
 11
85.9815
 21
33.981
 31
0.0
  0
LINE
  8
0
 62
     0
 10
85.9815
 20
33.981
 30
0.0
 11
85.1821
 21
33.981
 31
0.0
  0
LINE
  8
0
 62
     0
 10
85.1821
 20
33.981
 30
0.0
 11
85.1821
 21
37.0801
 31
0.0
  0
LINE
  8
0
 62
     0
 10
85.1821
 20
37.0801
 30
0.0
 11
85.9815
 21
37.0801
 31
0.0
  0
LINE
  8
0
 62
     0
 10
85.9815
 20
37.0801
 30
0.0
 11
85.9815
 21
38.0806
 31
0.0
  0
LINE
  8
0
 62
     0
 10
85.9815
 20
38.0806
 30
0.0
 11
99.9822
 21
38.0806
 31
0.0
  0
LINE
  8
0
 62
     0
 10
99.9822
 20
38.0806
 30
0.0
 11
99.9822
 21
37.0801
 31
0.0
  0
LINE
  8
0
 62
     0
 10
99.9822
 20
37.0801
 30
0.0
 11
100.782
 21
37.0801
 31
0.0
  0
LINE
  8
0
 62
     0
 10
100.782
 20
37.0801
 30
0.0
 11
100.782
 21
33.981
 31
0.0
  0
LINE
  8
0
 62
     0
 10
100.782
 20
33.981
 30
0.0
 11
99.9822
 21
33.981
 31
0.0
  0
LINE
  8
0
 62
     0
 10
99.9822
 20
33.981
 30
0.0
 11
99.9822
 21
28.1809
 31
0.0
  0
LINE
  8
0
 62
     0
 10
99.9822
 20
28.1809
 30
0.0
 11
100.782
 21
28.1809
 31
0.0
  0
LINE
  8
0
 62
     0
 10
100.782
 20
28.1809
 30
0.0
 11
100.782
 21
25.0803
 31
0.0
  0
LINE
  8
0
 62
     0
 10
100.782
 20
25.0803
 30
0.0
 11
99.9822
 21
25.0803
 31
0.0
  0
LINE
  8
0
 62
     0
 10
104.743
 20
63.1804
 30
0.0
 11
104.743
 21
62.1813
 31
0.0
  0
LINE
  8
0
 62
     0
 10
104.743
 20
62.1813
 30
0.0
 11
90.744
 21
62.1813
 31
0.0
  0
LINE
  8
0
 62
     0
 10
90.744
 20
62.1813
 30
0.0
 11
90.744
 21
63.1804
 31
0.0
  0
LINE
  8
0
 62
     0
 10
90.744
 20
63.1804
 30
0.0
 11
89.9432
 21
63.1804
 31
0.0
  0
LINE
  8
0
 62
     0
 10
89.9432
 20
63.1804
 30
0.0
 11
89.9432
 21
66.2809
 31
0.0
  0
LINE
  8
0
 62
     0
 10
89.9432
 20
66.2809
 30
0.0
 11
90.744
 21
66.2809
 31
0.0
  0
LINE
  8
0
 62
     0
 10
90.744
 20
66.2809
 30
0.0
 11
90.744
 21
72.081
 31
0.0
  0
LINE
  8
0
 62
     0
 10
90.744
 20
72.081
 30
0.0
 11
89.9432
 21
72.081
 31
0.0
  0
LINE
  8
0
 62
     0
 10
89.9432
 20
72.081
 30
0.0
 11
89.9432
 21
75.1801
 31
0.0
  0
LINE
  8
0
 62
     0
 10
89.9432
 20
75.1801
 30
0.0
 11
90.744
 21
75.1801
 31
0.0
  0
LINE
  8
0
 62
     0
 10
90.744
 20
75.1801
 30
0.0
 11
90.744
 21
76.1806
 31
0.0
  0
LINE
  8
0
 62
     0
 10
90.744
 20
76.1806
 30
0.0
 11
104.743
 21
76.1806
 31
0.0
  0
LINE
  8
0
 62
     0
 10
104.743
 20
76.1806
 30
0.0
 11
104.743
 21
75.1801
 31
0.0
  0
LINE
  8
0
 62
     0
 10
104.743
 20
75.1801
 30
0.0
 11
105.544
 21
75.1801
 31
0.0
  0
LINE
  8
0
 62
     0
 10
105.544
 20
75.1801
 30
0.0
 11
105.544
 21
72.081
 31
0.0
  0
LINE
  8
0
 62
     0
 10
105.544
 20
72.081
 30
0.0
 11
104.743
 21
72.081
 31
0.0
  0
LINE
  8
0
 62
     0
 10
104.743
 20
72.081
 30
0.0
 11
104.743
 21
66.2809
 31
0.0
  0
LINE
  8
0
 62
     0
 10
104.743
 20
66.2809
 30
0.0
 11
105.544
 21
66.2809
 31
0.0
  0
LINE
  8
0
 62
     0
 10
105.544
 20
66.2809
 30
0.0
 11
105.544
 21
63.1804
 31
0.0
  0
LINE
  8
0
 62
     0
 10
105.544
 20
63.1804
 30
0.0
 11
104.743
 21
63.1804
 31
0.0
  0
LINE
  8
0
 62
     0
 10
109.506
 20
44.1304
 30
0.0
 11
109.506
 21
43.1313
 31
0.0
  0
LINE
  8
0
 62
     0
 10
109.506
 20
43.1313
 30
0.0
 11
95.5065
 21
43.1313
 31
0.0
  0
LINE
  8
0
 62
     0
 10
95.5065
 20
43.1313
 30
0.0
 11
95.5065
 21
44.1304
 31
0.0
  0
LINE
  8
0
 62
     0
 10
95.5065
 20
44.1304
 30
0.0
 11
94.7057
 21
44.1304
 31
0.0
  0
LINE
  8
0
 62
     0
 10
94.7057
 20
44.1304
 30
0.0
 11
94.7057
 21
47.2309
 31
0.0
  0
LINE
  8
0
 62
     0
 10
94.7057
 20
47.2309
 30
0.0
 11
95.5065
 21
47.2309
 31
0.0
  0
LINE
  8
0
 62
     0
 10
95.5065
 20
47.2309
 30
0.0
 11
95.5065
 21
53.031
 31
0.0
  0
LINE
  8
0
 62
     0
 10
95.5065
 20
53.031
 30
0.0
 11
94.7057
 21
53.031
 31
0.0
  0
LINE
  8
0
 62
     0
 10
94.7057
 20
53.031
 30
0.0
 11
94.7057
 21
56.1301
 31
0.0
  0
LINE
  8
0
 62
     0
 10
94.7057
 20
56.1301
 30
0.0
 11
95.5065
 21
56.1301
 31
0.0
  0
LINE
  8
0
 62
     0
 10
95.5065
 20
56.1301
 30
0.0
 11
95.5065
 21
57.1306
 31
0.0
  0
LINE
  8
0
 62
     0
 10
95.5065
 20
57.1306
 30
0.0
 11
109.506
 21
57.1306
 31
0.0
  0
LINE
  8
0
 62
     0
 10
109.506
 20
57.1306
 30
0.0
 11
109.506
 21
56.1301
 31
0.0
  0
LINE
  8
0
 62
     0
 10
109.506
 20
56.1301
 30
0.0
 11
110.305
 21
56.1301
 31
0.0
  0
LINE
  8
0
 62
     0
 10
110.305
 20
56.1301
 30
0.0
 11
110.305
 21
53.031
 31
0.0
  0
LINE
  8
0
 62
     0
 10
110.305
 20
53.031
 30
0.0
 11
109.506
 21
53.031
 31
0.0
  0
LINE
  8
0
 62
     0
 10
109.506
 20
53.031
 30
0.0
 11
109.506
 21
47.2309
 31
0.0
  0
LINE
  8
0
 62
     0
 10
109.506
 20
47.2309
 30
0.0
 11
110.305
 21
47.2309
 31
0.0
  0
LINE
  8
0
 62
     0
 10
110.305
 20
47.2309
 30
0.0
 11
110.305
 21
44.1304
 31
0.0
  0
LINE
  8
0
 62
     0
 10
110.305
 20
44.1304
 30
0.0
 11
109.506
 21
44.1304
 31
0.0
  0
LINE
  8
0
 62
     0
 10
114.268
 20
82.2304
 30
0.0
 11
114.268
 21
81.2313
 31
0.0
  0
LINE
  8
0
 62
     0
 10
114.268
 20
81.2313
 30
0.0
 11
100.269
 21
81.2313
 31
0.0
  0
LINE
  8
0
 62
     0
 10
100.269
 20
81.2313
 30
0.0
 11
100.269
 21
82.2304
 31
0.0
  0
LINE
  8
0
 62
     0
 10
100.269
 20
82.2304
 30
0.0
 11
99.4682
 21
82.2304
 31
0.0
  0
LINE
  8
0
 62
     0
 10
99.4682
 20
82.2304
 30
0.0
 11
99.4682
 21
85.3309
 31
0.0
  0
LINE
  8
0
 62
     0
 10
99.4682
 20
85.3309
 30
0.0
 11
100.269
 21
85.3309
 31
0.0
  0
LINE
  8
0
 62
     0
 10
100.269
 20
85.3309
 30
0.0
 11
100.269
 21
91.131
 31
0.0
  0
LINE
  8
0
 62
     0
 10
100.269
 20
91.131
 30
0.0
 11
99.4682
 21
91.131
 31
0.0
  0
LINE
  8
0
 62
     0
 10
99.4682
 20
91.131
 30
0.0
 11
99.4682
 21
94.2301
 31
0.0
  0
LINE
  8
0
 62
     0
 10
99.4682
 20
94.2301
 30
0.0
 11
100.269
 21
94.2301
 31
0.0
  0
LINE
  8
0
 62
     0
 10
100.269
 20
94.2301
 30
0.0
 11
100.269
 21
95.2306
 31
0.0
  0
LINE
  8
0
 62
     0
 10
100.269
 20
95.2306
 30
0.0
 11
114.268
 21
95.2306
 31
0.0
  0
LINE
  8
0
 62
     0
 10
114.268
 20
95.2306
 30
0.0
 11
114.268
 21
94.2301
 31
0.0
  0
LINE
  8
0
 62
     0
 10
114.268
 20
94.2301
 30
0.0
 11
115.069
 21
94.2301
 31
0.0
  0
LINE
  8
0
 62
     0
 10
115.069
 20
94.2301
 30
0.0
 11
115.069
 21
91.131
 31
0.0
  0
LINE
  8
0
 62
     0
 10
115.069
 20
91.131
 30
0.0
 11
114.268
 21
91.131
 31
0.0
  0
LINE
  8
0
 62
     0
 10
114.268
 20
91.131
 30
0.0
 11
114.268
 21
85.3309
 31
0.0
  0
LINE
  8
0
 62
     0
 10
114.268
 20
85.3309
 30
0.0
 11
115.069
 21
85.3309
 31
0.0
  0
LINE
  8
0
 62
     0
 10
115.069
 20
85.3309
 30
0.0
 11
115.069
 21
82.2304
 31
0.0
  0
LINE
  8
0
 62
     0
 10
115.069
 20
82.2304
 30
0.0
 11
114.268
 21
82.2304
 31
0.0
  0
LINE
  8
0
 62
     0
 10
119.032
 20
25.0803
 30
0.0
 11
119.032
 21
24.0812
 31
0.0
  0
LINE
  8
0
 62
     0
 10
119.032
 20
24.0812
 30
0.0
 11
105.031
 21
24.0812
 31
0.0
  0
LINE
  8
0
 62
     0
 10
105.031
 20
24.0812
 30
0.0
 11
105.031
 21
25.0803
 31
0.0
  0
LINE
  8
0
 62
     0
 10
105.031
 20
25.0803
 30
0.0
 11
104.232
 21
25.0803
 31
0.0
  0
LINE
  8
0
 62
     0
 10
104.232
 20
25.0803
 30
0.0
 11
104.232
 21
28.1809
 31
0.0
  0
LINE
  8
0
 62
     0
 10
104.232
 20
28.1809
 30
0.0
 11
105.031
 21
28.1809
 31
0.0
  0
LINE
  8
0
 62
     0
 10
105.031
 20
28.1809
 30
0.0
 11
105.031
 21
33.981
 31
0.0
  0
LINE
  8
0
 62
     0
 10
105.031
 20
33.981
 30
0.0
 11
104.232
 21
33.981
 31
0.0
  0
LINE
  8
0
 62
     0
 10
104.232
 20
33.981
 30
0.0
 11
104.232
 21
37.0801
 31
0.0
  0
LINE
  8
0
 62
     0
 10
104.232
 20
37.0801
 30
0.0
 11
105.031
 21
37.0801
 31
0.0
  0
LINE
  8
0
 62
     0
 10
105.031
 20
37.0801
 30
0.0
 11
105.031
 21
38.0806
 31
0.0
  0
LINE
  8
0
 62
     0
 10
105.031
 20
38.0806
 30
0.0
 11
119.032
 21
38.0806
 31
0.0
  0
LINE
  8
0
 62
     0
 10
119.032
 20
38.0806
 30
0.0
 11
119.032
 21
37.0801
 31
0.0
  0
LINE
  8
0
 62
     0
 10
119.032
 20
37.0801
 30
0.0
 11
119.83
 21
37.0801
 31
0.0
  0
LINE
  8
0
 62
     0
 10
119.83
 20
37.0801
 30
0.0
 11
119.83
 21
33.981
 31
0.0
  0
LINE
  8
0
 62
     0
 10
119.83
 20
33.981
 30
0.0
 11
119.032
 21
33.981
 31
0.0
  0
LINE
  8
0
 62
     0
 10
119.032
 20
33.981
 30
0.0
 11
119.032
 21
28.1809
 31
0.0
  0
LINE
  8
0
 62
     0
 10
119.032
 20
28.1809
 30
0.0
 11
119.83
 21
28.1809
 31
0.0
  0
LINE
  8
0
 62
     0
 10
119.83
 20
28.1809
 30
0.0
 11
119.83
 21
25.0803
 31
0.0
  0
LINE
  8
0
 62
     0
 10
119.83
 20
25.0803
 30
0.0
 11
119.032
 21
25.0803
 31
0.0
  0
LINE
  8
0
 62
     0
 10
123.793
 20
63.1804
 30
0.0
 11
123.793
 21
62.1813
 31
0.0
  0
LINE
  8
0
 62
     0
 10
123.793
 20
62.1813
 30
0.0
 11
109.794
 21
62.1813
 31
0.0
  0
LINE
  8
0
 62
     0
 10
109.794
 20
62.1813
 30
0.0
 11
109.794
 21
63.1804
 31
0.0
  0
LINE
  8
0
 62
     0
 10
109.794
 20
63.1804
 30
0.0
 11
108.993
 21
63.1804
 31
0.0
  0
LINE
  8
0
 62
     0
 10
108.993
 20
63.1804
 30
0.0
 11
108.993
 21
66.2809
 31
0.0
  0
LINE
  8
0
 62
     0
 10
108.993
 20
66.2809
 30
0.0
 11
109.794
 21
66.2809
 31
0.0
  0
LINE
  8
0
 62
     0
 10
109.794
 20
66.2809
 30
0.0
 11
109.794
 21
72.081
 31
0.0
  0
LINE
  8
0
 62
     0
 10
109.794
 20
72.081
 30
0.0
 11
108.993
 21
72.081
 31
0.0
  0
LINE
  8
0
 62
     0
 10
108.993
 20
72.081
 30
0.0
 11
108.993
 21
75.1801
 31
0.0
  0
LINE
  8
0
 62
     0
 10
108.993
 20
75.1801
 30
0.0
 11
109.794
 21
75.1801
 31
0.0
  0
LINE
  8
0
 62
     0
 10
109.794
 20
75.1801
 30
0.0
 11
109.794
 21
76.1806
 31
0.0
  0
LINE
  8
0
 62
     0
 10
109.794
 20
76.1806
 30
0.0
 11
123.793
 21
76.1806
 31
0.0
  0
LINE
  8
0
 62
     0
 10
123.793
 20
76.1806
 30
0.0
 11
123.793
 21
75.1801
 31
0.0
  0
LINE
  8
0
 62
     0
 10
123.793
 20
75.1801
 30
0.0
 11
124.594
 21
75.1801
 31
0.0
  0
LINE
  8
0
 62
     0
 10
124.594
 20
75.1801
 30
0.0
 11
124.594
 21
72.081
 31
0.0
  0
LINE
  8
0
 62
     0
 10
124.594
 20
72.081
 30
0.0
 11
123.793
 21
72.081
 31
0.0
  0
LINE
  8
0
 62
     0
 10
123.793
 20
72.081
 30
0.0
 11
123.793
 21
66.2809
 31
0.0
  0
LINE
  8
0
 62
     0
 10
123.793
 20
66.2809
 30
0.0
 11
124.594
 21
66.2809
 31
0.0
  0
LINE
  8
0
 62
     0
 10
124.594
 20
66.2809
 30
0.0
 11
124.594
 21
63.1804
 31
0.0
  0
LINE
  8
0
 62
     0
 10
124.594
 20
63.1804
 30
0.0
 11
123.793
 21
63.1804
 31
0.0
  0
LINE
  8
0
 62
     0
 10
128.556
 20
44.1304
 30
0.0
 11
128.556
 21
43.1313
 31
0.0
  0
LINE
  8
0
 62
     0
 10
128.556
 20
43.1313
 30
0.0
 11
114.556
 21
43.1313
 31
0.0
  0
LINE
  8
0
 62
     0
 10
114.556
 20
43.1313
 30
0.0
 11
114.556
 21
44.1304
 31
0.0
  0
LINE
  8
0
 62
     0
 10
114.556
 20
44.1304
 30
0.0
 11
113.756
 21
44.1304
 31
0.0
  0
LINE
  8
0
 62
     0
 10
113.756
 20
44.1304
 30
0.0
 11
113.756
 21
47.2309
 31
0.0
  0
LINE
  8
0
 62
     0
 10
113.756
 20
47.2309
 30
0.0
 11
114.556
 21
47.2309
 31
0.0
  0
LINE
  8
0
 62
     0
 10
114.556
 20
47.2309
 30
0.0
 11
114.556
 21
53.031
 31
0.0
  0
LINE
  8
0
 62
     0
 10
114.556
 20
53.031
 30
0.0
 11
113.756
 21
53.031
 31
0.0
  0
LINE
  8
0
 62
     0
 10
113.756
 20
53.031
 30
0.0
 11
113.756
 21
56.1301
 31
0.0
  0
LINE
  8
0
 62
     0
 10
113.756
 20
56.1301
 30
0.0
 11
114.556
 21
56.1301
 31
0.0
  0
LINE
  8
0
 62
     0
 10
114.556
 20
56.1301
 30
0.0
 11
114.556
 21
57.1306
 31
0.0
  0
LINE
  8
0
 62
     0
 10
114.556
 20
57.1306
 30
0.0
 11
128.556
 21
57.1306
 31
0.0
  0
LINE
  8
0
 62
     0
 10
128.556
 20
57.1306
 30
0.0
 11
128.556
 21
56.1301
 31
0.0
  0
LINE
  8
0
 62
     0
 10
128.556
 20
56.1301
 30
0.0
 11
129.355
 21
56.1301
 31
0.0
  0
LINE
  8
0
 62
     0
 10
129.355
 20
56.1301
 30
0.0
 11
129.355
 21
53.031
 31
0.0
  0
LINE
  8
0
 62
     0
 10
129.355
 20
53.031
 30
0.0
 11
128.556
 21
53.031
 31
0.0
  0
LINE
  8
0
 62
     0
 10
128.556
 20
53.031
 30
0.0
 11
128.556
 21
47.2309
 31
0.0
  0
LINE
  8
0
 62
     0
 10
128.556
 20
47.2309
 30
0.0
 11
129.355
 21
47.2309
 31
0.0
  0
LINE
  8
0
 62
     0
 10
129.355
 20
47.2309
 30
0.0
 11
129.355
 21
44.1304
 31
0.0
  0
LINE
  8
0
 62
     0
 10
129.355
 20
44.1304
 30
0.0
 11
128.556
 21
44.1304
 31
0.0
  0
LINE
  8
0
 62
     0
 10
133.318
 20
82.2304
 30
0.0
 11
133.318
 21
81.2313
 31
0.0
  0
LINE
  8
0
 62
     0
 10
133.318
 20
81.2313
 30
0.0
 11
119.319
 21
81.2313
 31
0.0
  0
LINE
  8
0
 62
     0
 10
119.319
 20
81.2313
 30
0.0
 11
119.319
 21
82.2304
 31
0.0
  0
LINE
  8
0
 62
     0
 10
119.319
 20
82.2304
 30
0.0
 11
118.518
 21
82.2304
 31
0.0
  0
LINE
  8
0
 62
     0
 10
118.518
 20
82.2304
 30
0.0
 11
118.518
 21
85.3309
 31
0.0
  0
LINE
  8
0
 62
     0
 10
118.518
 20
85.3309
 30
0.0
 11
119.319
 21
85.3309
 31
0.0
  0
LINE
  8
0
 62
     0
 10
119.319
 20
85.3309
 30
0.0
 11
119.319
 21
91.131
 31
0.0
  0
LINE
  8
0
 62
     0
 10
119.319
 20
91.131
 30
0.0
 11
118.518
 21
91.131
 31
0.0
  0
LINE
  8
0
 62
     0
 10
118.518
 20
91.131
 30
0.0
 11
118.518
 21
94.2301
 31
0.0
  0
LINE
  8
0
 62
     0
 10
118.518
 20
94.2301
 30
0.0
 11
119.319
 21
94.2301
 31
0.0
  0
LINE
  8
0
 62
     0
 10
119.319
 20
94.2301
 30
0.0
 11
119.319
 21
95.2306
 31
0.0
  0
LINE
  8
0
 62
     0
 10
119.319
 20
95.2306
 30
0.0
 11
133.318
 21
95.2306
 31
0.0
  0
LINE
  8
0
 62
     0
 10
133.318
 20
95.2306
 30
0.0
 11
133.318
 21
94.2301
 31
0.0
  0
LINE
  8
0
 62
     0
 10
133.318
 20
94.2301
 30
0.0
 11
134.119
 21
94.2301
 31
0.0
  0
LINE
  8
0
 62
     0
 10
134.119
 20
94.2301
 30
0.0
 11
134.119
 21
91.131
 31
0.0
  0
LINE
  8
0
 62
     0
 10
134.119
 20
91.131
 30
0.0
 11
133.318
 21
91.131
 31
0.0
  0
LINE
  8
0
 62
     0
 10
133.318
 20
91.131
 30
0.0
 11
133.318
 21
85.3309
 31
0.0
  0
LINE
  8
0
 62
     0
 10
133.318
 20
85.3309
 30
0.0
 11
134.119
 21
85.3309
 31
0.0
  0
LINE
  8
0
 62
     0
 10
134.119
 20
85.3309
 30
0.0
 11
134.119
 21
82.2304
 31
0.0
  0
LINE
  8
0
 62
     0
 10
134.119
 20
82.2304
 30
0.0
 11
133.318
 21
82.2304
 31
0.0
  0
LINE
  8
0
 62
     0
 10
138.082
 20
25.0803
 30
0.0
 11
138.082
 21
24.0812
 31
0.0
  0
LINE
  8
0
 62
     0
 10
138.082
 20
24.0812
 30
0.0
 11
124.081
 21
24.0812
 31
0.0
  0
LINE
  8
0
 62
     0
 10
124.081
 20
24.0812
 30
0.0
 11
124.081
 21
25.0803
 31
0.0
  0
LINE
  8
0
 62
     0
 10
124.081
 20
25.0803
 30
0.0
 11
123.282
 21
25.0803
 31
0.0
  0
LINE
  8
0
 62
     0
 10
123.282
 20
25.0803
 30
0.0
 11
123.282
 21
28.1809
 31
0.0
  0
LINE
  8
0
 62
     0
 10
123.282
 20
28.1809
 30
0.0
 11
124.081
 21
28.1809
 31
0.0
  0
LINE
  8
0
 62
     0
 10
124.081
 20
28.1809
 30
0.0
 11
124.081
 21
33.981
 31
0.0
  0
LINE
  8
0
 62
     0
 10
124.081
 20
33.981
 30
0.0
 11
123.282
 21
33.981
 31
0.0
  0
LINE
  8
0
 62
     0
 10
123.282
 20
33.981
 30
0.0
 11
123.282
 21
37.0801
 31
0.0
  0
LINE
  8
0
 62
     0
 10
123.282
 20
37.0801
 30
0.0
 11
124.081
 21
37.0801
 31
0.0
  0
LINE
  8
0
 62
     0
 10
124.081
 20
37.0801
 30
0.0
 11
124.081
 21
38.0806
 31
0.0
  0
LINE
  8
0
 62
     0
 10
124.081
 20
38.0806
 30
0.0
 11
138.082
 21
38.0806
 31
0.0
  0
LINE
  8
0
 62
     0
 10
138.082
 20
38.0806
 30
0.0
 11
138.082
 21
37.0801
 31
0.0
  0
LINE
  8
0
 62
     0
 10
138.082
 20
37.0801
 30
0.0
 11
138.882
 21
37.0801
 31
0.0
  0
LINE
  8
0
 62
     0
 10
138.882
 20
37.0801
 30
0.0
 11
138.882
 21
33.981
 31
0.0
  0
LINE
  8
0
 62
     0
 10
138.882
 20
33.981
 30
0.0
 11
138.082
 21
33.981
 31
0.0
  0
LINE
  8
0
 62
     0
 10
138.082
 20
33.981
 30
0.0
 11
138.082
 21
28.1809
 31
0.0
  0
LINE
  8
0
 62
     0
 10
138.082
 20
28.1809
 30
0.0
 11
138.882
 21
28.1809
 31
0.0
  0
LINE
  8
0
 62
     0
 10
138.882
 20
28.1809
 30
0.0
 11
138.882
 21
25.0803
 31
0.0
  0
LINE
  8
0
 62
     0
 10
138.882
 20
25.0803
 30
0.0
 11
138.082
 21
25.0803
 31
0.0
  0
LINE
  8
0
 62
     0
 10
140.463
 20
6.03031
 30
0.0
 11
140.463
 21
5.03121
 31
0.0
  0
LINE
  8
0
 62
     0
 10
140.463
 20
5.03121
 30
0.0
 11
126.463
 21
5.03121
 31
0.0
  0
LINE
  8
0
 62
     0
 10
126.463
 20
5.03121
 30
0.0
 11
126.463
 21
6.03031
 31
0.0
  0
LINE
  8
0
 62
     0
 10
126.463
 20
6.03031
 30
0.0
 11
125.663
 21
6.03031
 31
0.0
  0
LINE
  8
0
 62
     0
 10
125.663
 20
6.03031
 30
0.0
 11
125.663
 21
9.13088
 31
0.0
  0
LINE
  8
0
 62
     0
 10
125.663
 20
9.13088
 30
0.0
 11
126.463
 21
9.13088
 31
0.0
  0
LINE
  8
0
 62
     0
 10
126.463
 20
9.13088
 30
0.0
 11
126.463
 21
14.931
 31
0.0
  0
LINE
  8
0
 62
     0
 10
126.463
 20
14.931
 30
0.0
 11
125.663
 21
14.931
 31
0.0
  0
LINE
  8
0
 62
     0
 10
125.663
 20
14.931
 30
0.0
 11
125.663
 21
18.0303
 31
0.0
  0
LINE
  8
0
 62
     0
 10
125.663
 20
18.0303
 30
0.0
 11
126.463
 21
18.0303
 31
0.0
  0
LINE
  8
0
 62
     0
 10
126.463
 20
18.0303
 30
0.0
 11
126.463
 21
19.0307
 31
0.0
  0
LINE
  8
0
 62
     0
 10
126.463
 20
19.0307
 30
0.0
 11
140.463
 21
19.0307
 31
0.0
  0
LINE
  8
0
 62
     0
 10
140.463
 20
19.0307
 30
0.0
 11
140.463
 21
18.0303
 31
0.0
  0
LINE
  8
0
 62
     0
 10
140.463
 20
18.0303
 30
0.0
 11
141.263
 21
18.0303
 31
0.0
  0
LINE
  8
0
 62
     0
 10
141.263
 20
18.0303
 30
0.0
 11
141.263
 21
14.931
 31
0.0
  0
LINE
  8
0
 62
     0
 10
141.263
 20
14.931
 30
0.0
 11
140.463
 21
14.931
 31
0.0
  0
LINE
  8
0
 62
     0
 10
140.463
 20
14.931
 30
0.0
 11
140.463
 21
9.13088
 31
0.0
  0
LINE
  8
0
 62
     0
 10
140.463
 20
9.13088
 30
0.0
 11
141.263
 21
9.13088
 31
0.0
  0
LINE
  8
0
 62
     0
 10
141.263
 20
9.13088
 30
0.0
 11
141.263
 21
6.03031
 31
0.0
  0
LINE
  8
0
 62
     0
 10
141.263
 20
6.03031
 30
0.0
 11
140.463
 21
6.03031
 31
0.0
  0
LINE
  8
0
 62
     0
 10
142.843
 20
63.1804
 30
0.0
 11
142.843
 21
62.1813
 31
0.0
  0
LINE
  8
0
 62
     0
 10
142.843
 20
62.1813
 30
0.0
 11
128.844
 21
62.1813
 31
0.0
  0
LINE
  8
0
 62
     0
 10
128.844
 20
62.1813
 30
0.0
 11
128.844
 21
63.1804
 31
0.0
  0
LINE
  8
0
 62
     0
 10
128.844
 20
63.1804
 30
0.0
 11
128.043
 21
63.1804
 31
0.0
  0
LINE
  8
0
 62
     0
 10
128.043
 20
63.1804
 30
0.0
 11
128.043
 21
66.2809
 31
0.0
  0
LINE
  8
0
 62
     0
 10
128.043
 20
66.2809
 30
0.0
 11
128.844
 21
66.2809
 31
0.0
  0
LINE
  8
0
 62
     0
 10
128.844
 20
66.2809
 30
0.0
 11
128.844
 21
72.081
 31
0.0
  0
LINE
  8
0
 62
     0
 10
128.844
 20
72.081
 30
0.0
 11
128.043
 21
72.081
 31
0.0
  0
LINE
  8
0
 62
     0
 10
128.043
 20
72.081
 30
0.0
 11
128.043
 21
75.1801
 31
0.0
  0
LINE
  8
0
 62
     0
 10
128.043
 20
75.1801
 30
0.0
 11
128.844
 21
75.1801
 31
0.0
  0
LINE
  8
0
 62
     0
 10
128.844
 20
75.1801
 30
0.0
 11
128.844
 21
76.1806
 31
0.0
  0
LINE
  8
0
 62
     0
 10
128.844
 20
76.1806
 30
0.0
 11
142.843
 21
76.1806
 31
0.0
  0
LINE
  8
0
 62
     0
 10
142.843
 20
76.1806
 30
0.0
 11
142.843
 21
75.1801
 31
0.0
  0
LINE
  8
0
 62
     0
 10
142.843
 20
75.1801
 30
0.0
 11
143.644
 21
75.1801
 31
0.0
  0
LINE
  8
0
 62
     0
 10
143.644
 20
75.1801
 30
0.0
 11
143.644
 21
72.081
 31
0.0
  0
LINE
  8
0
 62
     0
 10
143.644
 20
72.081
 30
0.0
 11
142.843
 21
72.081
 31
0.0
  0
LINE
  8
0
 62
     0
 10
142.843
 20
72.081
 30
0.0
 11
142.843
 21
66.2809
 31
0.0
  0
LINE
  8
0
 62
     0
 10
142.843
 20
66.2809
 30
0.0
 11
143.644
 21
66.2809
 31
0.0
  0
LINE
  8
0
 62
     0
 10
143.644
 20
66.2809
 30
0.0
 11
143.644
 21
63.1804
 31
0.0
  0
LINE
  8
0
 62
     0
 10
143.644
 20
63.1804
 30
0.0
 11
142.843
 21
63.1804
 31
0.0
  0
LINE
  8
0
 62
     0
 10
147.606
 20
44.1304
 30
0.0
 11
147.606
 21
43.1313
 31
0.0
  0
LINE
  8
0
 62
     0
 10
147.606
 20
43.1313
 30
0.0
 11
133.606
 21
43.1313
 31
0.0
  0
LINE
  8
0
 62
     0
 10
133.606
 20
43.1313
 30
0.0
 11
133.606
 21
44.1304
 31
0.0
  0
LINE
  8
0
 62
     0
 10
133.606
 20
44.1304
 30
0.0
 11
132.806
 21
44.1304
 31
0.0
  0
LINE
  8
0
 62
     0
 10
132.806
 20
44.1304
 30
0.0
 11
132.806
 21
47.2309
 31
0.0
  0
LINE
  8
0
 62
     0
 10
132.806
 20
47.2309
 30
0.0
 11
133.606
 21
47.2309
 31
0.0
  0
LINE
  8
0
 62
     0
 10
133.606
 20
47.2309
 30
0.0
 11
133.606
 21
53.031
 31
0.0
  0
LINE
  8
0
 62
     0
 10
133.606
 20
53.031
 30
0.0
 11
132.806
 21
53.031
 31
0.0
  0
LINE
  8
0
 62
     0
 10
132.806
 20
53.031
 30
0.0
 11
132.806
 21
56.1301
 31
0.0
  0
LINE
  8
0
 62
     0
 10
132.806
 20
56.1301
 30
0.0
 11
133.606
 21
56.1301
 31
0.0
  0
LINE
  8
0
 62
     0
 10
133.606
 20
56.1301
 30
0.0
 11
133.606
 21
57.1306
 31
0.0
  0
LINE
  8
0
 62
     0
 10
133.606
 20
57.1306
 30
0.0
 11
147.606
 21
57.1306
 31
0.0
  0
LINE
  8
0
 62
     0
 10
147.606
 20
57.1306
 30
0.0
 11
147.606
 21
56.1301
 31
0.0
  0
LINE
  8
0
 62
     0
 10
147.606
 20
56.1301
 30
0.0
 11
148.405
 21
56.1301
 31
0.0
  0
LINE
  8
0
 62
     0
 10
148.405
 20
56.1301
 30
0.0
 11
148.405
 21
53.031
 31
0.0
  0
LINE
  8
0
 62
     0
 10
148.405
 20
53.031
 30
0.0
 11
147.606
 21
53.031
 31
0.0
  0
LINE
  8
0
 62
     0
 10
147.606
 20
53.031
 30
0.0
 11
147.606
 21
47.2309
 31
0.0
  0
LINE
  8
0
 62
     0
 10
147.606
 20
47.2309
 30
0.0
 11
148.405
 21
47.2309
 31
0.0
  0
LINE
  8
0
 62
     0
 10
148.405
 20
47.2309
 30
0.0
 11
148.405
 21
44.1304
 31
0.0
  0
LINE
  8
0
 62
     0
 10
148.405
 20
44.1304
 30
0.0
 11
147.606
 21
44.1304
 31
0.0
  0
LINE
  8
0
 62
     0
 10
152.368
 20
82.2304
 30
0.0
 11
152.368
 21
81.2313
 31
0.0
  0
LINE
  8
0
 62
     0
 10
152.368
 20
81.2313
 30
0.0
 11
138.369
 21
81.2313
 31
0.0
  0
LINE
  8
0
 62
     0
 10
138.369
 20
81.2313
 30
0.0
 11
138.369
 21
82.2304
 31
0.0
  0
LINE
  8
0
 62
     0
 10
138.369
 20
82.2304
 30
0.0
 11
137.568
 21
82.2304
 31
0.0
  0
LINE
  8
0
 62
     0
 10
137.568
 20
82.2304
 30
0.0
 11
137.568
 21
85.3309
 31
0.0
  0
LINE
  8
0
 62
     0
 10
137.568
 20
85.3309
 30
0.0
 11
138.369
 21
85.3309
 31
0.0
  0
LINE
  8
0
 62
     0
 10
138.369
 20
85.3309
 30
0.0
 11
138.369
 21
91.131
 31
0.0
  0
LINE
  8
0
 62
     0
 10
138.369
 20
91.131
 30
0.0
 11
137.568
 21
91.131
 31
0.0
  0
LINE
  8
0
 62
     0
 10
137.568
 20
91.131
 30
0.0
 11
137.568
 21
94.2301
 31
0.0
  0
LINE
  8
0
 62
     0
 10
137.568
 20
94.2301
 30
0.0
 11
138.369
 21
94.2301
 31
0.0
  0
LINE
  8
0
 62
     0
 10
138.369
 20
94.2301
 30
0.0
 11
138.369
 21
95.2306
 31
0.0
  0
LINE
  8
0
 62
     0
 10
138.369
 20
95.2306
 30
0.0
 11
152.368
 21
95.2306
 31
0.0
  0
LINE
  8
0
 62
     0
 10
152.368
 20
95.2306
 30
0.0
 11
152.368
 21
94.2301
 31
0.0
  0
LINE
  8
0
 62
     0
 10
152.368
 20
94.2301
 30
0.0
 11
153.169
 21
94.2301
 31
0.0
  0
LINE
  8
0
 62
     0
 10
153.169
 20
94.2301
 30
0.0
 11
153.169
 21
91.131
 31
0.0
  0
LINE
  8
0
 62
     0
 10
153.169
 20
91.131
 30
0.0
 11
152.368
 21
91.131
 31
0.0
  0
LINE
  8
0
 62
     0
 10
152.368
 20
91.131
 30
0.0
 11
152.368
 21
85.3309
 31
0.0
  0
LINE
  8
0
 62
     0
 10
152.368
 20
85.3309
 30
0.0
 11
153.169
 21
85.3309
 31
0.0
  0
LINE
  8
0
 62
     0
 10
153.169
 20
85.3309
 30
0.0
 11
153.169
 21
82.2304
 31
0.0
  0
LINE
  8
0
 62
     0
 10
153.169
 20
82.2304
 30
0.0
 11
152.368
 21
82.2304
 31
0.0
  0
LINE
  8
0
 62
     0
 10
157.132
 20
25.0803
 30
0.0
 11
157.132
 21
24.0812
 31
0.0
  0
LINE
  8
0
 62
     0
 10
157.132
 20
24.0812
 30
0.0
 11
143.131
 21
24.0812
 31
0.0
  0
LINE
  8
0
 62
     0
 10
143.131
 20
24.0812
 30
0.0
 11
143.131
 21
25.0803
 31
0.0
  0
LINE
  8
0
 62
     0
 10
143.131
 20
25.0803
 30
0.0
 11
142.332
 21
25.0803
 31
0.0
  0
LINE
  8
0
 62
     0
 10
142.332
 20
25.0803
 30
0.0
 11
142.332
 21
28.1809
 31
0.0
  0
LINE
  8
0
 62
     0
 10
142.332
 20
28.1809
 30
0.0
 11
143.131
 21
28.1809
 31
0.0
  0
LINE
  8
0
 62
     0
 10
143.131
 20
28.1809
 30
0.0
 11
143.131
 21
33.981
 31
0.0
  0
LINE
  8
0
 62
     0
 10
143.131
 20
33.981
 30
0.0
 11
142.332
 21
33.981
 31
0.0
  0
LINE
  8
0
 62
     0
 10
142.332
 20
33.981
 30
0.0
 11
142.332
 21
37.0801
 31
0.0
  0
LINE
  8
0
 62
     0
 10
142.332
 20
37.0801
 30
0.0
 11
143.131
 21
37.0801
 31
0.0
  0
LINE
  8
0
 62
     0
 10
143.131
 20
37.0801
 30
0.0
 11
143.131
 21
38.0806
 31
0.0
  0
LINE
  8
0
 62
     0
 10
143.131
 20
38.0806
 30
0.0
 11
157.132
 21
38.0806
 31
0.0
  0
LINE
  8
0
 62
     0
 10
157.132
 20
38.0806
 30
0.0
 11
157.132
 21
37.0801
 31
0.0
  0
LINE
  8
0
 62
     0
 10
157.132
 20
37.0801
 30
0.0
 11
157.932
 21
37.0801
 31
0.0
  0
LINE
  8
0
 62
     0
 10
157.932
 20
37.0801
 30
0.0
 11
157.932
 21
33.981
 31
0.0
  0
LINE
  8
0
 62
     0
 10
157.932
 20
33.981
 30
0.0
 11
157.132
 21
33.981
 31
0.0
  0
LINE
  8
0
 62
     0
 10
157.132
 20
33.981
 30
0.0
 11
157.132
 21
28.1809
 31
0.0
  0
LINE
  8
0
 62
     0
 10
157.132
 20
28.1809
 30
0.0
 11
157.932
 21
28.1809
 31
0.0
  0
LINE
  8
0
 62
     0
 10
157.932
 20
28.1809
 30
0.0
 11
157.932
 21
25.0803
 31
0.0
  0
LINE
  8
0
 62
     0
 10
157.932
 20
25.0803
 30
0.0
 11
157.132
 21
25.0803
 31
0.0
  0
LINE
  8
0
 62
     0
 10
161.893
 20
63.1804
 30
0.0
 11
161.893
 21
62.1813
 31
0.0
  0
LINE
  8
0
 62
     0
 10
161.893
 20
62.1813
 30
0.0
 11
147.894
 21
62.1813
 31
0.0
  0
LINE
  8
0
 62
     0
 10
147.894
 20
62.1813
 30
0.0
 11
147.894
 21
63.1804
 31
0.0
  0
LINE
  8
0
 62
     0
 10
147.894
 20
63.1804
 30
0.0
 11
147.093
 21
63.1804
 31
0.0
  0
LINE
  8
0
 62
     0
 10
147.093
 20
63.1804
 30
0.0
 11
147.093
 21
66.2809
 31
0.0
  0
LINE
  8
0
 62
     0
 10
147.093
 20
66.2809
 30
0.0
 11
147.894
 21
66.2809
 31
0.0
  0
LINE
  8
0
 62
     0
 10
147.894
 20
66.2809
 30
0.0
 11
147.894
 21
72.081
 31
0.0
  0
LINE
  8
0
 62
     0
 10
147.894
 20
72.081
 30
0.0
 11
147.093
 21
72.081
 31
0.0
  0
LINE
  8
0
 62
     0
 10
147.093
 20
72.081
 30
0.0
 11
147.093
 21
75.1801
 31
0.0
  0
LINE
  8
0
 62
     0
 10
147.093
 20
75.1801
 30
0.0
 11
147.894
 21
75.1801
 31
0.0
  0
LINE
  8
0
 62
     0
 10
147.894
 20
75.1801
 30
0.0
 11
147.894
 21
76.1806
 31
0.0
  0
LINE
  8
0
 62
     0
 10
147.894
 20
76.1806
 30
0.0
 11
161.893
 21
76.1806
 31
0.0
  0
LINE
  8
0
 62
     0
 10
161.893
 20
76.1806
 30
0.0
 11
161.893
 21
75.1801
 31
0.0
  0
LINE
  8
0
 62
     0
 10
161.893
 20
75.1801
 30
0.0
 11
162.694
 21
75.1801
 31
0.0
  0
LINE
  8
0
 62
     0
 10
162.694
 20
75.1801
 30
0.0
 11
162.694
 21
72.081
 31
0.0
  0
LINE
  8
0
 62
     0
 10
162.694
 20
72.081
 30
0.0
 11
161.893
 21
72.081
 31
0.0
  0
LINE
  8
0
 62
     0
 10
161.893
 20
72.081
 30
0.0
 11
161.893
 21
66.2809
 31
0.0
  0
LINE
  8
0
 62
     0
 10
161.893
 20
66.2809
 30
0.0
 11
162.694
 21
66.2809
 31
0.0
  0
LINE
  8
0
 62
     0
 10
162.694
 20
66.2809
 30
0.0
 11
162.694
 21
63.1804
 31
0.0
  0
LINE
  8
0
 62
     0
 10
162.694
 20
63.1804
 30
0.0
 11
161.893
 21
63.1804
 31
0.0
  0
LINE
  8
0
 62
     0
 10
166.656
 20
44.1304
 30
0.0
 11
166.656
 21
43.1313
 31
0.0
  0
LINE
  8
0
 62
     0
 10
166.656
 20
43.1313
 30
0.0
 11
152.656
 21
43.1313
 31
0.0
  0
LINE
  8
0
 62
     0
 10
152.656
 20
43.1313
 30
0.0
 11
152.656
 21
44.1304
 31
0.0
  0
LINE
  8
0
 62
     0
 10
152.656
 20
44.1304
 30
0.0
 11
151.856
 21
44.1304
 31
0.0
  0
LINE
  8
0
 62
     0
 10
151.856
 20
44.1304
 30
0.0
 11
151.856
 21
47.2309
 31
0.0
  0
LINE
  8
0
 62
     0
 10
151.856
 20
47.2309
 30
0.0
 11
152.656
 21
47.2309
 31
0.0
  0
LINE
  8
0
 62
     0
 10
152.656
 20
47.2309
 30
0.0
 11
152.656
 21
53.031
 31
0.0
  0
LINE
  8
0
 62
     0
 10
152.656
 20
53.031
 30
0.0
 11
151.856
 21
53.031
 31
0.0
  0
LINE
  8
0
 62
     0
 10
151.856
 20
53.031
 30
0.0
 11
151.856
 21
56.1301
 31
0.0
  0
LINE
  8
0
 62
     0
 10
151.856
 20
56.1301
 30
0.0
 11
152.656
 21
56.1301
 31
0.0
  0
LINE
  8
0
 62
     0
 10
152.656
 20
56.1301
 30
0.0
 11
152.656
 21
57.1306
 31
0.0
  0
LINE
  8
0
 62
     0
 10
152.656
 20
57.1306
 30
0.0
 11
166.656
 21
57.1306
 31
0.0
  0
LINE
  8
0
 62
     0
 10
166.656
 20
57.1306
 30
0.0
 11
166.656
 21
56.1301
 31
0.0
  0
LINE
  8
0
 62
     0
 10
166.656
 20
56.1301
 30
0.0
 11
167.457
 21
56.1301
 31
0.0
  0
LINE
  8
0
 62
     0
 10
167.457
 20
56.1301
 30
0.0
 11
167.457
 21
53.031
 31
0.0
  0
LINE
  8
0
 62
     0
 10
167.457
 20
53.031
 30
0.0
 11
166.656
 21
53.031
 31
0.0
  0
LINE
  8
0
 62
     0
 10
166.656
 20
53.031
 30
0.0
 11
166.656
 21
47.2309
 31
0.0
  0
LINE
  8
0
 62
     0
 10
166.656
 20
47.2309
 30
0.0
 11
167.457
 21
47.2309
 31
0.0
  0
LINE
  8
0
 62
     0
 10
167.457
 20
47.2309
 30
0.0
 11
167.457
 21
44.1304
 31
0.0
  0
LINE
  8
0
 62
     0
 10
167.457
 20
44.1304
 30
0.0
 11
166.656
 21
44.1304
 31
0.0
  0
LINE
  8
0
 62
     0
 10
171.418
 20
82.2304
 30
0.0
 11
171.418
 21
81.2313
 31
0.0
  0
LINE
  8
0
 62
     0
 10
171.418
 20
81.2313
 30
0.0
 11
157.419
 21
81.2313
 31
0.0
  0
LINE
  8
0
 62
     0
 10
157.419
 20
81.2313
 30
0.0
 11
157.419
 21
82.2304
 31
0.0
  0
LINE
  8
0
 62
     0
 10
157.419
 20
82.2304
 30
0.0
 11
156.618
 21
82.2304
 31
0.0
  0
LINE
  8
0
 62
     0
 10
156.618
 20
82.2304
 30
0.0
 11
156.618
 21
85.3309
 31
0.0
  0
LINE
  8
0
 62
     0
 10
156.618
 20
85.3309
 30
0.0
 11
157.419
 21
85.3309
 31
0.0
  0
LINE
  8
0
 62
     0
 10
157.419
 20
85.3309
 30
0.0
 11
157.419
 21
91.131
 31
0.0
  0
LINE
  8
0
 62
     0
 10
157.419
 20
91.131
 30
0.0
 11
156.618
 21
91.131
 31
0.0
  0
LINE
  8
0
 62
     0
 10
156.618
 20
91.131
 30
0.0
 11
156.618
 21
94.2301
 31
0.0
  0
LINE
  8
0
 62
     0
 10
156.618
 20
94.2301
 30
0.0
 11
157.419
 21
94.2301
 31
0.0
  0
LINE
  8
0
 62
     0
 10
157.419
 20
94.2301
 30
0.0
 11
157.419
 21
95.2306
 31
0.0
  0
LINE
  8
0
 62
     0
 10
157.419
 20
95.2306
 30
0.0
 11
171.418
 21
95.2306
 31
0.0
  0
LINE
  8
0
 62
     0
 10
171.418
 20
95.2306
 30
0.0
 11
171.418
 21
94.2301
 31
0.0
  0
LINE
  8
0
 62
     0
 10
171.418
 20
94.2301
 30
0.0
 11
172.219
 21
94.2301
 31
0.0
  0
LINE
  8
0
 62
     0
 10
172.219
 20
94.2301
 30
0.0
 11
172.219
 21
91.131
 31
0.0
  0
LINE
  8
0
 62
     0
 10
172.219
 20
91.131
 30
0.0
 11
171.418
 21
91.131
 31
0.0
  0
LINE
  8
0
 62
     0
 10
171.418
 20
91.131
 30
0.0
 11
171.418
 21
85.3309
 31
0.0
  0
LINE
  8
0
 62
     0
 10
171.418
 20
85.3309
 30
0.0
 11
172.219
 21
85.3309
 31
0.0
  0
LINE
  8
0
 62
     0
 10
172.219
 20
85.3309
 30
0.0
 11
172.219
 21
82.2304
 31
0.0
  0
LINE
  8
0
 62
     0
 10
172.219
 20
82.2304
 30
0.0
 11
171.418
 21
82.2304
 31
0.0
  0
LINE
  8
0
 62
     0
 10
176.182
 20
25.0803
 30
0.0
 11
176.182
 21
24.0812
 31
0.0
  0
LINE
  8
0
 62
     0
 10
176.182
 20
24.0812
 30
0.0
 11
162.181
 21
24.0812
 31
0.0
  0
LINE
  8
0
 62
     0
 10
162.181
 20
24.0812
 30
0.0
 11
162.181
 21
25.0803
 31
0.0
  0
LINE
  8
0
 62
     0
 10
162.181
 20
25.0803
 30
0.0
 11
161.382
 21
25.0803
 31
0.0
  0
LINE
  8
0
 62
     0
 10
161.382
 20
25.0803
 30
0.0
 11
161.382
 21
28.1809
 31
0.0
  0
LINE
  8
0
 62
     0
 10
161.382
 20
28.1809
 30
0.0
 11
162.181
 21
28.1809
 31
0.0
  0
LINE
  8
0
 62
     0
 10
162.181
 20
28.1809
 30
0.0
 11
162.181
 21
33.981
 31
0.0
  0
LINE
  8
0
 62
     0
 10
162.181
 20
33.981
 30
0.0
 11
161.382
 21
33.981
 31
0.0
  0
LINE
  8
0
 62
     0
 10
161.382
 20
33.981
 30
0.0
 11
161.382
 21
37.0801
 31
0.0
  0
LINE
  8
0
 62
     0
 10
161.382
 20
37.0801
 30
0.0
 11
162.181
 21
37.0801
 31
0.0
  0
LINE
  8
0
 62
     0
 10
162.181
 20
37.0801
 30
0.0
 11
162.181
 21
38.0806
 31
0.0
  0
LINE
  8
0
 62
     0
 10
162.181
 20
38.0806
 30
0.0
 11
176.182
 21
38.0806
 31
0.0
  0
LINE
  8
0
 62
     0
 10
176.182
 20
38.0806
 30
0.0
 11
176.182
 21
37.0801
 31
0.0
  0
LINE
  8
0
 62
     0
 10
176.182
 20
37.0801
 30
0.0
 11
176.982
 21
37.0801
 31
0.0
  0
LINE
  8
0
 62
     0
 10
176.982
 20
37.0801
 30
0.0
 11
176.982
 21
33.981
 31
0.0
  0
LINE
  8
0
 62
     0
 10
176.982
 20
33.981
 30
0.0
 11
176.182
 21
33.981
 31
0.0
  0
LINE
  8
0
 62
     0
 10
176.182
 20
33.981
 30
0.0
 11
176.182
 21
28.1809
 31
0.0
  0
LINE
  8
0
 62
     0
 10
176.182
 20
28.1809
 30
0.0
 11
176.982
 21
28.1809
 31
0.0
  0
LINE
  8
0
 62
     0
 10
176.982
 20
28.1809
 30
0.0
 11
176.982
 21
25.0803
 31
0.0
  0
LINE
  8
0
 62
     0
 10
176.982
 20
25.0803
 30
0.0
 11
176.182
 21
25.0803
 31
0.0
  0
LINE
  8
0
 62
     0
 10
180.943
 20
63.1804
 30
0.0
 11
180.943
 21
62.1813
 31
0.0
  0
LINE
  8
0
 62
     0
 10
180.943
 20
62.1813
 30
0.0
 11
166.944
 21
62.1813
 31
0.0
  0
LINE
  8
0
 62
     0
 10
166.944
 20
62.1813
 30
0.0
 11
166.944
 21
63.1804
 31
0.0
  0
LINE
  8
0
 62
     0
 10
166.944
 20
63.1804
 30
0.0
 11
166.143
 21
63.1804
 31
0.0
  0
LINE
  8
0
 62
     0
 10
166.143
 20
63.1804
 30
0.0
 11
166.143
 21
66.2809
 31
0.0
  0
LINE
  8
0
 62
     0
 10
166.143
 20
66.2809
 30
0.0
 11
166.944
 21
66.2809
 31
0.0
  0
LINE
  8
0
 62
     0
 10
166.944
 20
66.2809
 30
0.0
 11
166.944
 21
72.081
 31
0.0
  0
LINE
  8
0
 62
     0
 10
166.944
 20
72.081
 30
0.0
 11
166.143
 21
72.081
 31
0.0
  0
LINE
  8
0
 62
     0
 10
166.143
 20
72.081
 30
0.0
 11
166.143
 21
75.1801
 31
0.0
  0
LINE
  8
0
 62
     0
 10
166.143
 20
75.1801
 30
0.0
 11
166.944
 21
75.1801
 31
0.0
  0
LINE
  8
0
 62
     0
 10
166.944
 20
75.1801
 30
0.0
 11
166.944
 21
76.1806
 31
0.0
  0
LINE
  8
0
 62
     0
 10
166.944
 20
76.1806
 30
0.0
 11
180.943
 21
76.1806
 31
0.0
  0
LINE
  8
0
 62
     0
 10
180.943
 20
76.1806
 30
0.0
 11
180.943
 21
75.1801
 31
0.0
  0
LINE
  8
0
 62
     0
 10
180.943
 20
75.1801
 30
0.0
 11
181.744
 21
75.1801
 31
0.0
  0
LINE
  8
0
 62
     0
 10
181.744
 20
75.1801
 30
0.0
 11
181.744
 21
72.081
 31
0.0
  0
LINE
  8
0
 62
     0
 10
181.744
 20
72.081
 30
0.0
 11
180.943
 21
72.081
 31
0.0
  0
LINE
  8
0
 62
     0
 10
180.943
 20
72.081
 30
0.0
 11
180.943
 21
66.2809
 31
0.0
  0
LINE
  8
0
 62
     0
 10
180.943
 20
66.2809
 30
0.0
 11
181.744
 21
66.2809
 31
0.0
  0
LINE
  8
0
 62
     0
 10
181.744
 20
66.2809
 30
0.0
 11
181.744
 21
63.1804
 31
0.0
  0
LINE
  8
0
 62
     0
 10
181.744
 20
63.1804
 30
0.0
 11
180.943
 21
63.1804
 31
0.0
  0
LINE
  8
0
 62
     0
 10
181.813
 20
18.4809
 30
0.0
 11
185.113
 21
18.4809
 31
0.0
  0
LINE
  8
0
 62
     0
 10
185.113
 20
18.4809
 30
0.0
 11
185.113
 21
4.28018
 31
0.0
  0
LINE
  8
0
 62
     0
 10
185.113
 20
4.28018
 30
0.0
 11
181.813
 21
4.28018
 31
0.0
  0
LINE
  8
0
 62
     0
 10
181.813
 20
4.28018
 30
0.0
 11
181.813
 21
18.4809
 31
0.0
  0
LINE
  8
0
 62
     0
 10
185.707
 20
44.1304
 30
0.0
 11
185.707
 21
43.1313
 31
0.0
  0
LINE
  8
0
 62
     0
 10
185.707
 20
43.1313
 30
0.0
 11
171.706
 21
43.1313
 31
0.0
  0
LINE
  8
0
 62
     0
 10
171.706
 20
43.1313
 30
0.0
 11
171.706
 21
44.1304
 31
0.0
  0
LINE
  8
0
 62
     0
 10
171.706
 20
44.1304
 30
0.0
 11
170.906
 21
44.1304
 31
0.0
  0
LINE
  8
0
 62
     0
 10
170.906
 20
44.1304
 30
0.0
 11
170.906
 21
47.2309
 31
0.0
  0
LINE
  8
0
 62
     0
 10
170.906
 20
47.2309
 30
0.0
 11
171.706
 21
47.2309
 31
0.0
  0
LINE
  8
0
 62
     0
 10
171.706
 20
47.2309
 30
0.0
 11
171.706
 21
53.031
 31
0.0
  0
LINE
  8
0
 62
     0
 10
171.706
 20
53.031
 30
0.0
 11
170.906
 21
53.031
 31
0.0
  0
LINE
  8
0
 62
     0
 10
170.906
 20
53.031
 30
0.0
 11
170.906
 21
56.1301
 31
0.0
  0
LINE
  8
0
 62
     0
 10
170.906
 20
56.1301
 30
0.0
 11
171.706
 21
56.1301
 31
0.0
  0
LINE
  8
0
 62
     0
 10
171.706
 20
56.1301
 30
0.0
 11
171.706
 21
57.1306
 31
0.0
  0
LINE
  8
0
 62
     0
 10
171.706
 20
57.1306
 30
0.0
 11
185.707
 21
57.1306
 31
0.0
  0
LINE
  8
0
 62
     0
 10
185.707
 20
57.1306
 30
0.0
 11
185.707
 21
56.1301
 31
0.0
  0
LINE
  8
0
 62
     0
 10
185.707
 20
56.1301
 30
0.0
 11
186.507
 21
56.1301
 31
0.0
  0
LINE
  8
0
 62
     0
 10
186.507
 20
56.1301
 30
0.0
 11
186.507
 21
53.031
 31
0.0
  0
LINE
  8
0
 62
     0
 10
186.507
 20
53.031
 30
0.0
 11
185.707
 21
53.031
 31
0.0
  0
LINE
  8
0
 62
     0
 10
185.707
 20
53.031
 30
0.0
 11
185.707
 21
47.2309
 31
0.0
  0
LINE
  8
0
 62
     0
 10
185.707
 20
47.2309
 30
0.0
 11
186.507
 21
47.2309
 31
0.0
  0
LINE
  8
0
 62
     0
 10
186.507
 20
47.2309
 30
0.0
 11
186.507
 21
44.1304
 31
0.0
  0
LINE
  8
0
 62
     0
 10
186.507
 20
44.1304
 30
0.0
 11
185.707
 21
44.1304
 31
0.0
  0
LINE
  8
0
 62
     0
 10
190.468
 20
82.2304
 30
0.0
 11
190.468
 21
81.2313
 31
0.0
  0
LINE
  8
0
 62
     0
 10
190.468
 20
81.2313
 30
0.0
 11
176.469
 21
81.2313
 31
0.0
  0
LINE
  8
0
 62
     0
 10
176.469
 20
81.2313
 30
0.0
 11
176.469
 21
82.2304
 31
0.0
  0
LINE
  8
0
 62
     0
 10
176.469
 20
82.2304
 30
0.0
 11
175.668
 21
82.2304
 31
0.0
  0
LINE
  8
0
 62
     0
 10
175.668
 20
82.2304
 30
0.0
 11
175.668
 21
85.3309
 31
0.0
  0
LINE
  8
0
 62
     0
 10
175.668
 20
85.3309
 30
0.0
 11
176.469
 21
85.3309
 31
0.0
  0
LINE
  8
0
 62
     0
 10
176.469
 20
85.3309
 30
0.0
 11
176.469
 21
91.131
 31
0.0
  0
LINE
  8
0
 62
     0
 10
176.469
 20
91.131
 30
0.0
 11
175.668
 21
91.131
 31
0.0
  0
LINE
  8
0
 62
     0
 10
175.668
 20
91.131
 30
0.0
 11
175.668
 21
94.2301
 31
0.0
  0
LINE
  8
0
 62
     0
 10
175.668
 20
94.2301
 30
0.0
 11
176.469
 21
94.2301
 31
0.0
  0
LINE
  8
0
 62
     0
 10
176.469
 20
94.2301
 30
0.0
 11
176.469
 21
95.2306
 31
0.0
  0
LINE
  8
0
 62
     0
 10
176.469
 20
95.2306
 30
0.0
 11
190.468
 21
95.2306
 31
0.0
  0
LINE
  8
0
 62
     0
 10
190.468
 20
95.2306
 30
0.0
 11
190.468
 21
94.2301
 31
0.0
  0
LINE
  8
0
 62
     0
 10
190.468
 20
94.2301
 30
0.0
 11
191.269
 21
94.2301
 31
0.0
  0
LINE
  8
0
 62
     0
 10
191.269
 20
94.2301
 30
0.0
 11
191.269
 21
91.131
 31
0.0
  0
LINE
  8
0
 62
     0
 10
191.269
 20
91.131
 30
0.0
 11
190.468
 21
91.131
 31
0.0
  0
LINE
  8
0
 62
     0
 10
190.468
 20
91.131
 30
0.0
 11
190.468
 21
85.3309
 31
0.0
  0
LINE
  8
0
 62
     0
 10
190.468
 20
85.3309
 30
0.0
 11
191.269
 21
85.3309
 31
0.0
  0
LINE
  8
0
 62
     0
 10
191.269
 20
85.3309
 30
0.0
 11
191.269
 21
82.2304
 31
0.0
  0
LINE
  8
0
 62
     0
 10
191.269
 20
82.2304
 30
0.0
 11
190.468
 21
82.2304
 31
0.0
  0
LINE
  8
0
 62
     0
 10
195.232
 20
25.0803
 30
0.0
 11
195.232
 21
24.0812
 31
0.0
  0
LINE
  8
0
 62
     0
 10
195.232
 20
24.0812
 30
0.0
 11
181.231
 21
24.0812
 31
0.0
  0
LINE
  8
0
 62
     0
 10
181.231
 20
24.0812
 30
0.0
 11
181.231
 21
25.0803
 31
0.0
  0
LINE
  8
0
 62
     0
 10
181.231
 20
25.0803
 30
0.0
 11
180.432
 21
25.0803
 31
0.0
  0
LINE
  8
0
 62
     0
 10
180.432
 20
25.0803
 30
0.0
 11
180.432
 21
28.1809
 31
0.0
  0
LINE
  8
0
 62
     0
 10
180.432
 20
28.1809
 30
0.0
 11
181.231
 21
28.1809
 31
0.0
  0
LINE
  8
0
 62
     0
 10
181.231
 20
28.1809
 30
0.0
 11
181.231
 21
33.981
 31
0.0
  0
LINE
  8
0
 62
     0
 10
181.231
 20
33.981
 30
0.0
 11
180.432
 21
33.981
 31
0.0
  0
LINE
  8
0
 62
     0
 10
180.432
 20
33.981
 30
0.0
 11
180.432
 21
37.0801
 31
0.0
  0
LINE
  8
0
 62
     0
 10
180.432
 20
37.0801
 30
0.0
 11
181.231
 21
37.0801
 31
0.0
  0
LINE
  8
0
 62
     0
 10
181.231
 20
37.0801
 30
0.0
 11
181.231
 21
38.0806
 31
0.0
  0
LINE
  8
0
 62
     0
 10
181.231
 20
38.0806
 30
0.0
 11
195.232
 21
38.0806
 31
0.0
  0
LINE
  8
0
 62
     0
 10
195.232
 20
38.0806
 30
0.0
 11
195.232
 21
37.0801
 31
0.0
  0
LINE
  8
0
 62
     0
 10
195.232
 20
37.0801
 30
0.0
 11
196.032
 21
37.0801
 31
0.0
  0
LINE
  8
0
 62
     0
 10
196.032
 20
37.0801
 30
0.0
 11
196.032
 21
33.981
 31
0.0
  0
LINE
  8
0
 62
     0
 10
196.032
 20
33.981
 30
0.0
 11
195.232
 21
33.981
 31
0.0
  0
LINE
  8
0
 62
     0
 10
195.232
 20
33.981
 30
0.0
 11
195.232
 21
28.1809
 31
0.0
  0
LINE
  8
0
 62
     0
 10
195.232
 20
28.1809
 30
0.0
 11
196.032
 21
28.1809
 31
0.0
  0
LINE
  8
0
 62
     0
 10
196.032
 20
28.1809
 30
0.0
 11
196.032
 21
25.0803
 31
0.0
  0
LINE
  8
0
 62
     0
 10
196.032
 20
25.0803
 30
0.0
 11
195.232
 21
25.0803
 31
0.0
  0
LINE
  8
0
 62
     0
 10
199.993
 20
63.1804
 30
0.0
 11
199.993
 21
62.1813
 31
0.0
  0
LINE
  8
0
 62
     0
 10
199.993
 20
62.1813
 30
0.0
 11
185.994
 21
62.1813
 31
0.0
  0
LINE
  8
0
 62
     0
 10
185.994
 20
62.1813
 30
0.0
 11
185.994
 21
63.1804
 31
0.0
  0
LINE
  8
0
 62
     0
 10
185.994
 20
63.1804
 30
0.0
 11
185.193
 21
63.1804
 31
0.0
  0
LINE
  8
0
 62
     0
 10
185.193
 20
63.1804
 30
0.0
 11
185.193
 21
66.2809
 31
0.0
  0
LINE
  8
0
 62
     0
 10
185.193
 20
66.2809
 30
0.0
 11
185.994
 21
66.2809
 31
0.0
  0
LINE
  8
0
 62
     0
 10
185.994
 20
66.2809
 30
0.0
 11
185.994
 21
72.081
 31
0.0
  0
LINE
  8
0
 62
     0
 10
185.994
 20
72.081
 30
0.0
 11
185.193
 21
72.081
 31
0.0
  0
LINE
  8
0
 62
     0
 10
185.193
 20
72.081
 30
0.0
 11
185.193
 21
75.1801
 31
0.0
  0
LINE
  8
0
 62
     0
 10
185.193
 20
75.1801
 30
0.0
 11
185.994
 21
75.1801
 31
0.0
  0
LINE
  8
0
 62
     0
 10
185.994
 20
75.1801
 30
0.0
 11
185.994
 21
76.1806
 31
0.0
  0
LINE
  8
0
 62
     0
 10
185.994
 20
76.1806
 30
0.0
 11
199.993
 21
76.1806
 31
0.0
  0
LINE
  8
0
 62
     0
 10
199.993
 20
76.1806
 30
0.0
 11
199.993
 21
75.1801
 31
0.0
  0
LINE
  8
0
 62
     0
 10
199.993
 20
75.1801
 30
0.0
 11
200.794
 21
75.1801
 31
0.0
  0
LINE
  8
0
 62
     0
 10
200.794
 20
75.1801
 30
0.0
 11
200.794
 21
72.081
 31
0.0
  0
LINE
  8
0
 62
     0
 10
200.794
 20
72.081
 30
0.0
 11
199.993
 21
72.081
 31
0.0
  0
LINE
  8
0
 62
     0
 10
199.993
 20
72.081
 30
0.0
 11
199.993
 21
66.2809
 31
0.0
  0
LINE
  8
0
 62
     0
 10
199.993
 20
66.2809
 30
0.0
 11
200.794
 21
66.2809
 31
0.0
  0
LINE
  8
0
 62
     0
 10
200.794
 20
66.2809
 30
0.0
 11
200.794
 21
63.1804
 31
0.0
  0
LINE
  8
0
 62
     0
 10
200.794
 20
63.1804
 30
0.0
 11
199.993
 21
63.1804
 31
0.0
  0
LINE
  8
0
 62
     0
 10
204.757
 20
44.1304
 30
0.0
 11
204.757
 21
43.1313
 31
0.0
  0
LINE
  8
0
 62
     0
 10
204.757
 20
43.1313
 30
0.0
 11
190.756
 21
43.1313
 31
0.0
  0
LINE
  8
0
 62
     0
 10
190.756
 20
43.1313
 30
0.0
 11
190.756
 21
44.1304
 31
0.0
  0
LINE
  8
0
 62
     0
 10
190.756
 20
44.1304
 30
0.0
 11
189.957
 21
44.1304
 31
0.0
  0
LINE
  8
0
 62
     0
 10
189.957
 20
44.1304
 30
0.0
 11
189.957
 21
47.2309
 31
0.0
  0
LINE
  8
0
 62
     0
 10
189.957
 20
47.2309
 30
0.0
 11
190.756
 21
47.2309
 31
0.0
  0
LINE
  8
0
 62
     0
 10
190.756
 20
47.2309
 30
0.0
 11
190.756
 21
53.031
 31
0.0
  0
LINE
  8
0
 62
     0
 10
190.756
 20
53.031
 30
0.0
 11
189.957
 21
53.031
 31
0.0
  0
LINE
  8
0
 62
     0
 10
189.957
 20
53.031
 30
0.0
 11
189.957
 21
56.1301
 31
0.0
  0
LINE
  8
0
 62
     0
 10
189.957
 20
56.1301
 30
0.0
 11
190.756
 21
56.1301
 31
0.0
  0
LINE
  8
0
 62
     0
 10
190.756
 20
56.1301
 30
0.0
 11
190.756
 21
57.1306
 31
0.0
  0
LINE
  8
0
 62
     0
 10
190.756
 20
57.1306
 30
0.0
 11
204.757
 21
57.1306
 31
0.0
  0
LINE
  8
0
 62
     0
 10
204.757
 20
57.1306
 30
0.0
 11
204.757
 21
56.1301
 31
0.0
  0
LINE
  8
0
 62
     0
 10
204.757
 20
56.1301
 30
0.0
 11
205.557
 21
56.1301
 31
0.0
  0
LINE
  8
0
 62
     0
 10
205.557
 20
56.1301
 30
0.0
 11
205.557
 21
53.031
 31
0.0
  0
LINE
  8
0
 62
     0
 10
205.557
 20
53.031
 30
0.0
 11
204.757
 21
53.031
 31
0.0
  0
LINE
  8
0
 62
     0
 10
204.757
 20
53.031
 30
0.0
 11
204.757
 21
47.2309
 31
0.0
  0
LINE
  8
0
 62
     0
 10
204.757
 20
47.2309
 30
0.0
 11
205.557
 21
47.2309
 31
0.0
  0
LINE
  8
0
 62
     0
 10
205.557
 20
47.2309
 30
0.0
 11
205.557
 21
44.1304
 31
0.0
  0
LINE
  8
0
 62
     0
 10
205.557
 20
44.1304
 30
0.0
 11
204.757
 21
44.1304
 31
0.0
  0
LINE
  8
0
 62
     0
 10
209.518
 20
82.2304
 30
0.0
 11
209.518
 21
81.2313
 31
0.0
  0
LINE
  8
0
 62
     0
 10
209.518
 20
81.2313
 30
0.0
 11
195.519
 21
81.2313
 31
0.0
  0
LINE
  8
0
 62
     0
 10
195.519
 20
81.2313
 30
0.0
 11
195.519
 21
82.2304
 31
0.0
  0
LINE
  8
0
 62
     0
 10
195.519
 20
82.2304
 30
0.0
 11
194.718
 21
82.2304
 31
0.0
  0
LINE
  8
0
 62
     0
 10
194.718
 20
82.2304
 30
0.0
 11
194.718
 21
85.3309
 31
0.0
  0
LINE
  8
0
 62
     0
 10
194.718
 20
85.3309
 30
0.0
 11
195.519
 21
85.3309
 31
0.0
  0
LINE
  8
0
 62
     0
 10
195.519
 20
85.3309
 30
0.0
 11
195.519
 21
91.131
 31
0.0
  0
LINE
  8
0
 62
     0
 10
195.519
 20
91.131
 30
0.0
 11
194.718
 21
91.131
 31
0.0
  0
LINE
  8
0
 62
     0
 10
194.718
 20
91.131
 30
0.0
 11
194.718
 21
94.2301
 31
0.0
  0
LINE
  8
0
 62
     0
 10
194.718
 20
94.2301
 30
0.0
 11
195.519
 21
94.2301
 31
0.0
  0
LINE
  8
0
 62
     0
 10
195.519
 20
94.2301
 30
0.0
 11
195.519
 21
95.2306
 31
0.0
  0
LINE
  8
0
 62
     0
 10
195.519
 20
95.2306
 30
0.0
 11
209.518
 21
95.2306
 31
0.0
  0
LINE
  8
0
 62
     0
 10
209.518
 20
95.2306
 30
0.0
 11
209.518
 21
94.2301
 31
0.0
  0
LINE
  8
0
 62
     0
 10
209.518
 20
94.2301
 30
0.0
 11
210.319
 21
94.2301
 31
0.0
  0
LINE
  8
0
 62
     0
 10
210.319
 20
94.2301
 30
0.0
 11
210.319
 21
91.131
 31
0.0
  0
LINE
  8
0
 62
     0
 10
210.319
 20
91.131
 30
0.0
 11
209.518
 21
91.131
 31
0.0
  0
LINE
  8
0
 62
     0
 10
209.518
 20
91.131
 30
0.0
 11
209.518
 21
85.3309
 31
0.0
  0
LINE
  8
0
 62
     0
 10
209.518
 20
85.3309
 30
0.0
 11
210.319
 21
85.3309
 31
0.0
  0
LINE
  8
0
 62
     0
 10
210.319
 20
85.3309
 30
0.0
 11
210.319
 21
82.2304
 31
0.0
  0
LINE
  8
0
 62
     0
 10
210.319
 20
82.2304
 30
0.0
 11
209.518
 21
82.2304
 31
0.0
  0
LINE
  8
0
 62
     0
 10
211.899
 20
6.03031
 30
0.0
 11
211.899
 21
5.03121
 31
0.0
  0
LINE
  8
0
 62
     0
 10
211.899
 20
5.03121
 30
0.0
 11
197.9
 21
5.03121
 31
0.0
  0
LINE
  8
0
 62
     0
 10
197.9
 20
5.03121
 30
0.0
 11
197.9
 21
6.03031
 31
0.0
  0
LINE
  8
0
 62
     0
 10
197.9
 20
6.03031
 30
0.0
 11
197.099
 21
6.03031
 31
0.0
  0
LINE
  8
0
 62
     0
 10
197.099
 20
6.03031
 30
0.0
 11
197.099
 21
9.13088
 31
0.0
  0
LINE
  8
0
 62
     0
 10
197.099
 20
9.13088
 30
0.0
 11
197.9
 21
9.13088
 31
0.0
  0
LINE
  8
0
 62
     0
 10
197.9
 20
9.13088
 30
0.0
 11
197.9
 21
14.931
 31
0.0
  0
LINE
  8
0
 62
     0
 10
197.9
 20
14.931
 30
0.0
 11
197.099
 21
14.931
 31
0.0
  0
LINE
  8
0
 62
     0
 10
197.099
 20
14.931
 30
0.0
 11
197.099
 21
18.0303
 31
0.0
  0
LINE
  8
0
 62
     0
 10
197.099
 20
18.0303
 30
0.0
 11
197.9
 21
18.0303
 31
0.0
  0
LINE
  8
0
 62
     0
 10
197.9
 20
18.0303
 30
0.0
 11
197.9
 21
19.0307
 31
0.0
  0
LINE
  8
0
 62
     0
 10
197.9
 20
19.0307
 30
0.0
 11
211.899
 21
19.0307
 31
0.0
  0
LINE
  8
0
 62
     0
 10
211.899
 20
19.0307
 30
0.0
 11
211.899
 21
18.0303
 31
0.0
  0
LINE
  8
0
 62
     0
 10
211.899
 20
18.0303
 30
0.0
 11
212.7
 21
18.0303
 31
0.0
  0
LINE
  8
0
 62
     0
 10
212.7
 20
18.0303
 30
0.0
 11
212.7
 21
14.931
 31
0.0
  0
LINE
  8
0
 62
     0
 10
212.7
 20
14.931
 30
0.0
 11
211.899
 21
14.931
 31
0.0
  0
LINE
  8
0
 62
     0
 10
211.899
 20
14.931
 30
0.0
 11
211.899
 21
9.13088
 31
0.0
  0
LINE
  8
0
 62
     0
 10
211.899
 20
9.13088
 30
0.0
 11
212.7
 21
9.13088
 31
0.0
  0
LINE
  8
0
 62
     0
 10
212.7
 20
9.13088
 30
0.0
 11
212.7
 21
6.03031
 31
0.0
  0
LINE
  8
0
 62
     0
 10
212.7
 20
6.03031
 30
0.0
 11
211.899
 21
6.03031
 31
0.0
  0
LINE
  8
0
 62
     0
 10
214.282
 20
25.0803
 30
0.0
 11
214.282
 21
24.0812
 31
0.0
  0
LINE
  8
0
 62
     0
 10
214.282
 20
24.0812
 30
0.0
 11
200.281
 21
24.0812
 31
0.0
  0
LINE
  8
0
 62
     0
 10
200.281
 20
24.0812
 30
0.0
 11
200.281
 21
25.0803
 31
0.0
  0
LINE
  8
0
 62
     0
 10
200.281
 20
25.0803
 30
0.0
 11
199.482
 21
25.0803
 31
0.0
  0
LINE
  8
0
 62
     0
 10
199.482
 20
25.0803
 30
0.0
 11
199.482
 21
28.1809
 31
0.0
  0
LINE
  8
0
 62
     0
 10
199.482
 20
28.1809
 30
0.0
 11
200.281
 21
28.1809
 31
0.0
  0
LINE
  8
0
 62
     0
 10
200.281
 20
28.1809
 30
0.0
 11
200.281
 21
33.981
 31
0.0
  0
LINE
  8
0
 62
     0
 10
200.281
 20
33.981
 30
0.0
 11
199.482
 21
33.981
 31
0.0
  0
LINE
  8
0
 62
     0
 10
199.482
 20
33.981
 30
0.0
 11
199.482
 21
37.0801
 31
0.0
  0
LINE
  8
0
 62
     0
 10
199.482
 20
37.0801
 30
0.0
 11
200.281
 21
37.0801
 31
0.0
  0
LINE
  8
0
 62
     0
 10
200.281
 20
37.0801
 30
0.0
 11
200.281
 21
38.0806
 31
0.0
  0
LINE
  8
0
 62
     0
 10
200.281
 20
38.0806
 30
0.0
 11
214.282
 21
38.0806
 31
0.0
  0
LINE
  8
0
 62
     0
 10
214.282
 20
38.0806
 30
0.0
 11
214.282
 21
37.0801
 31
0.0
  0
LINE
  8
0
 62
     0
 10
214.282
 20
37.0801
 30
0.0
 11
215.082
 21
37.0801
 31
0.0
  0
LINE
  8
0
 62
     0
 10
215.082
 20
37.0801
 30
0.0
 11
215.082
 21
33.981
 31
0.0
  0
LINE
  8
0
 62
     0
 10
215.082
 20
33.981
 30
0.0
 11
214.282
 21
33.981
 31
0.0
  0
LINE
  8
0
 62
     0
 10
214.282
 20
33.981
 30
0.0
 11
214.282
 21
28.1809
 31
0.0
  0
LINE
  8
0
 62
     0
 10
214.282
 20
28.1809
 30
0.0
 11
215.082
 21
28.1809
 31
0.0
  0
LINE
  8
0
 62
     0
 10
215.082
 20
28.1809
 30
0.0
 11
215.082
 21
25.0803
 31
0.0
  0
LINE
  8
0
 62
     0
 10
215.082
 20
25.0803
 30
0.0
 11
214.282
 21
25.0803
 31
0.0
  0
LINE
  8
0
 62
     0
 10
219.043
 20
63.1804
 30
0.0
 11
219.043
 21
62.1813
 31
0.0
  0
LINE
  8
0
 62
     0
 10
219.043
 20
62.1813
 30
0.0
 11
205.044
 21
62.1813
 31
0.0
  0
LINE
  8
0
 62
     0
 10
205.044
 20
62.1813
 30
0.0
 11
205.044
 21
63.1804
 31
0.0
  0
LINE
  8
0
 62
     0
 10
205.044
 20
63.1804
 30
0.0
 11
204.243
 21
63.1804
 31
0.0
  0
LINE
  8
0
 62
     0
 10
204.243
 20
63.1804
 30
0.0
 11
204.243
 21
66.2809
 31
0.0
  0
LINE
  8
0
 62
     0
 10
204.243
 20
66.2809
 30
0.0
 11
205.044
 21
66.2809
 31
0.0
  0
LINE
  8
0
 62
     0
 10
205.044
 20
66.2809
 30
0.0
 11
205.044
 21
72.081
 31
0.0
  0
LINE
  8
0
 62
     0
 10
205.044
 20
72.081
 30
0.0
 11
204.243
 21
72.081
 31
0.0
  0
LINE
  8
0
 62
     0
 10
204.243
 20
72.081
 30
0.0
 11
204.243
 21
75.1801
 31
0.0
  0
LINE
  8
0
 62
     0
 10
204.243
 20
75.1801
 30
0.0
 11
205.044
 21
75.1801
 31
0.0
  0
LINE
  8
0
 62
     0
 10
205.044
 20
75.1801
 30
0.0
 11
205.044
 21
76.1806
 31
0.0
  0
LINE
  8
0
 62
     0
 10
205.044
 20
76.1806
 30
0.0
 11
219.043
 21
76.1806
 31
0.0
  0
LINE
  8
0
 62
     0
 10
219.043
 20
76.1806
 30
0.0
 11
219.043
 21
75.1801
 31
0.0
  0
LINE
  8
0
 62
     0
 10
219.043
 20
75.1801
 30
0.0
 11
219.844
 21
75.1801
 31
0.0
  0
LINE
  8
0
 62
     0
 10
219.844
 20
75.1801
 30
0.0
 11
219.844
 21
72.081
 31
0.0
  0
LINE
  8
0
 62
     0
 10
219.844
 20
72.081
 30
0.0
 11
219.043
 21
72.081
 31
0.0
  0
LINE
  8
0
 62
     0
 10
219.043
 20
72.081
 30
0.0
 11
219.043
 21
66.2809
 31
0.0
  0
LINE
  8
0
 62
     0
 10
219.043
 20
66.2809
 30
0.0
 11
219.844
 21
66.2809
 31
0.0
  0
LINE
  8
0
 62
     0
 10
219.844
 20
66.2809
 30
0.0
 11
219.844
 21
63.1804
 31
0.0
  0
LINE
  8
0
 62
     0
 10
219.844
 20
63.1804
 30
0.0
 11
219.043
 21
63.1804
 31
0.0
  0
LINE
  8
0
 62
     0
 10
223.807
 20
44.1304
 30
0.0
 11
223.807
 21
43.1313
 31
0.0
  0
LINE
  8
0
 62
     0
 10
223.807
 20
43.1313
 30
0.0
 11
209.806
 21
43.1313
 31
0.0
  0
LINE
  8
0
 62
     0
 10
209.806
 20
43.1313
 30
0.0
 11
209.806
 21
44.1304
 31
0.0
  0
LINE
  8
0
 62
     0
 10
209.806
 20
44.1304
 30
0.0
 11
209.007
 21
44.1304
 31
0.0
  0
LINE
  8
0
 62
     0
 10
209.007
 20
44.1304
 30
0.0
 11
209.007
 21
47.2309
 31
0.0
  0
LINE
  8
0
 62
     0
 10
209.007
 20
47.2309
 30
0.0
 11
209.806
 21
47.2309
 31
0.0
  0
LINE
  8
0
 62
     0
 10
209.806
 20
47.2309
 30
0.0
 11
209.806
 21
53.031
 31
0.0
  0
LINE
  8
0
 62
     0
 10
209.806
 20
53.031
 30
0.0
 11
209.007
 21
53.031
 31
0.0
  0
LINE
  8
0
 62
     0
 10
209.007
 20
53.031
 30
0.0
 11
209.007
 21
56.1301
 31
0.0
  0
LINE
  8
0
 62
     0
 10
209.007
 20
56.1301
 30
0.0
 11
209.806
 21
56.1301
 31
0.0
  0
LINE
  8
0
 62
     0
 10
209.806
 20
56.1301
 30
0.0
 11
209.806
 21
57.1306
 31
0.0
  0
LINE
  8
0
 62
     0
 10
209.806
 20
57.1306
 30
0.0
 11
223.807
 21
57.1306
 31
0.0
  0
LINE
  8
0
 62
     0
 10
223.807
 20
57.1306
 30
0.0
 11
223.807
 21
56.1301
 31
0.0
  0
LINE
  8
0
 62
     0
 10
223.807
 20
56.1301
 30
0.0
 11
224.607
 21
56.1301
 31
0.0
  0
LINE
  8
0
 62
     0
 10
224.607
 20
56.1301
 30
0.0
 11
224.607
 21
53.031
 31
0.0
  0
LINE
  8
0
 62
     0
 10
224.607
 20
53.031
 30
0.0
 11
223.807
 21
53.031
 31
0.0
  0
LINE
  8
0
 62
     0
 10
223.807
 20
53.031
 30
0.0
 11
223.807
 21
47.2309
 31
0.0
  0
LINE
  8
0
 62
     0
 10
223.807
 20
47.2309
 30
0.0
 11
224.607
 21
47.2309
 31
0.0
  0
LINE
  8
0
 62
     0
 10
224.607
 20
47.2309
 30
0.0
 11
224.607
 21
44.1304
 31
0.0
  0
LINE
  8
0
 62
     0
 10
224.607
 20
44.1304
 30
0.0
 11
223.807
 21
44.1304
 31
0.0
  0
LINE
  8
0
 62
     0
 10
228.568
 20
82.2304
 30
0.0
 11
228.568
 21
81.2313
 31
0.0
  0
LINE
  8
0
 62
     0
 10
228.568
 20
81.2313
 30
0.0
 11
214.569
 21
81.2313
 31
0.0
  0
LINE
  8
0
 62
     0
 10
214.569
 20
81.2313
 30
0.0
 11
214.569
 21
82.2304
 31
0.0
  0
LINE
  8
0
 62
     0
 10
214.569
 20
82.2304
 30
0.0
 11
213.768
 21
82.2304
 31
0.0
  0
LINE
  8
0
 62
     0
 10
213.768
 20
82.2304
 30
0.0
 11
213.768
 21
85.3309
 31
0.0
  0
LINE
  8
0
 62
     0
 10
213.768
 20
85.3309
 30
0.0
 11
214.569
 21
85.3309
 31
0.0
  0
LINE
  8
0
 62
     0
 10
214.569
 20
85.3309
 30
0.0
 11
214.569
 21
91.131
 31
0.0
  0
LINE
  8
0
 62
     0
 10
214.569
 20
91.131
 30
0.0
 11
213.768
 21
91.131
 31
0.0
  0
LINE
  8
0
 62
     0
 10
213.768
 20
91.131
 30
0.0
 11
213.768
 21
94.2301
 31
0.0
  0
LINE
  8
0
 62
     0
 10
213.768
 20
94.2301
 30
0.0
 11
214.569
 21
94.2301
 31
0.0
  0
LINE
  8
0
 62
     0
 10
214.569
 20
94.2301
 30
0.0
 11
214.569
 21
95.2306
 31
0.0
  0
LINE
  8
0
 62
     0
 10
214.569
 20
95.2306
 30
0.0
 11
228.568
 21
95.2306
 31
0.0
  0
LINE
  8
0
 62
     0
 10
228.568
 20
95.2306
 30
0.0
 11
228.568
 21
94.2301
 31
0.0
  0
LINE
  8
0
 62
     0
 10
228.568
 20
94.2301
 30
0.0
 11
229.369
 21
94.2301
 31
0.0
  0
LINE
  8
0
 62
     0
 10
229.369
 20
94.2301
 30
0.0
 11
229.369
 21
91.131
 31
0.0
  0
LINE
  8
0
 62
     0
 10
229.369
 20
91.131
 30
0.0
 11
228.568
 21
91.131
 31
0.0
  0
LINE
  8
0
 62
     0
 10
228.568
 20
91.131
 30
0.0
 11
228.568
 21
85.3309
 31
0.0
  0
LINE
  8
0
 62
     0
 10
228.568
 20
85.3309
 30
0.0
 11
229.369
 21
85.3309
 31
0.0
  0
LINE
  8
0
 62
     0
 10
229.369
 20
85.3309
 30
0.0
 11
229.369
 21
82.2304
 31
0.0
  0
LINE
  8
0
 62
     0
 10
229.369
 20
82.2304
 30
0.0
 11
228.568
 21
82.2304
 31
0.0
  0
LINE
  8
0
 62
     0
 10
233.332
 20
25.0803
 30
0.0
 11
233.332
 21
24.0812
 31
0.0
  0
LINE
  8
0
 62
     0
 10
233.332
 20
24.0812
 30
0.0
 11
219.331
 21
24.0812
 31
0.0
  0
LINE
  8
0
 62
     0
 10
219.331
 20
24.0812
 30
0.0
 11
219.331
 21
25.0803
 31
0.0
  0
LINE
  8
0
 62
     0
 10
219.331
 20
25.0803
 30
0.0
 11
218.532
 21
25.0803
 31
0.0
  0
LINE
  8
0
 62
     0
 10
218.532
 20
25.0803
 30
0.0
 11
218.532
 21
28.1809
 31
0.0
  0
LINE
  8
0
 62
     0
 10
218.532
 20
28.1809
 30
0.0
 11
219.331
 21
28.1809
 31
0.0
  0
LINE
  8
0
 62
     0
 10
219.331
 20
28.1809
 30
0.0
 11
219.331
 21
33.981
 31
0.0
  0
LINE
  8
0
 62
     0
 10
219.331
 20
33.981
 30
0.0
 11
218.532
 21
33.981
 31
0.0
  0
LINE
  8
0
 62
     0
 10
218.532
 20
33.981
 30
0.0
 11
218.532
 21
37.0801
 31
0.0
  0
LINE
  8
0
 62
     0
 10
218.532
 20
37.0801
 30
0.0
 11
219.331
 21
37.0801
 31
0.0
  0
LINE
  8
0
 62
     0
 10
219.331
 20
37.0801
 30
0.0
 11
219.331
 21
38.0806
 31
0.0
  0
LINE
  8
0
 62
     0
 10
219.331
 20
38.0806
 30
0.0
 11
233.332
 21
38.0806
 31
0.0
  0
LINE
  8
0
 62
     0
 10
233.332
 20
38.0806
 30
0.0
 11
233.332
 21
37.0801
 31
0.0
  0
LINE
  8
0
 62
     0
 10
233.332
 20
37.0801
 30
0.0
 11
234.132
 21
37.0801
 31
0.0
  0
LINE
  8
0
 62
     0
 10
234.132
 20
37.0801
 30
0.0
 11
234.132
 21
33.981
 31
0.0
  0
LINE
  8
0
 62
     0
 10
234.132
 20
33.981
 30
0.0
 11
233.332
 21
33.981
 31
0.0
  0
LINE
  8
0
 62
     0
 10
233.332
 20
33.981
 30
0.0
 11
233.332
 21
28.1809
 31
0.0
  0
LINE
  8
0
 62
     0
 10
233.332
 20
28.1809
 30
0.0
 11
234.132
 21
28.1809
 31
0.0
  0
LINE
  8
0
 62
     0
 10
234.132
 20
28.1809
 30
0.0
 11
234.132
 21
25.0803
 31
0.0
  0
LINE
  8
0
 62
     0
 10
234.132
 20
25.0803
 30
0.0
 11
233.332
 21
25.0803
 31
0.0
  0
LINE
  8
0
 62
     0
 10
235.712
 20
6.03031
 30
0.0
 11
235.712
 21
5.03121
 31
0.0
  0
LINE
  8
0
 62
     0
 10
235.712
 20
5.03121
 30
0.0
 11
221.713
 21
5.03121
 31
0.0
  0
LINE
  8
0
 62
     0
 10
221.713
 20
5.03121
 30
0.0
 11
221.713
 21
6.03031
 31
0.0
  0
LINE
  8
0
 62
     0
 10
221.713
 20
6.03031
 30
0.0
 11
220.913
 21
6.03031
 31
0.0
  0
LINE
  8
0
 62
     0
 10
220.913
 20
6.03031
 30
0.0
 11
220.913
 21
9.13088
 31
0.0
  0
LINE
  8
0
 62
     0
 10
220.913
 20
9.13088
 30
0.0
 11
221.713
 21
9.13088
 31
0.0
  0
LINE
  8
0
 62
     0
 10
221.713
 20
9.13088
 30
0.0
 11
221.713
 21
14.931
 31
0.0
  0
LINE
  8
0
 62
     0
 10
221.713
 20
14.931
 30
0.0
 11
220.913
 21
14.931
 31
0.0
  0
LINE
  8
0
 62
     0
 10
220.913
 20
14.931
 30
0.0
 11
220.913
 21
18.0303
 31
0.0
  0
LINE
  8
0
 62
     0
 10
220.913
 20
18.0303
 30
0.0
 11
221.713
 21
18.0303
 31
0.0
  0
LINE
  8
0
 62
     0
 10
221.713
 20
18.0303
 30
0.0
 11
221.713
 21
19.0307
 31
0.0
  0
LINE
  8
0
 62
     0
 10
221.713
 20
19.0307
 30
0.0
 11
235.712
 21
19.0307
 31
0.0
  0
LINE
  8
0
 62
     0
 10
235.712
 20
19.0307
 30
0.0
 11
235.712
 21
18.0303
 31
0.0
  0
LINE
  8
0
 62
     0
 10
235.712
 20
18.0303
 30
0.0
 11
236.513
 21
18.0303
 31
0.0
  0
LINE
  8
0
 62
     0
 10
236.513
 20
18.0303
 30
0.0
 11
236.513
 21
14.931
 31
0.0
  0
LINE
  8
0
 62
     0
 10
236.513
 20
14.931
 30
0.0
 11
235.712
 21
14.931
 31
0.0
  0
LINE
  8
0
 62
     0
 10
235.712
 20
14.931
 30
0.0
 11
235.712
 21
9.13088
 31
0.0
  0
LINE
  8
0
 62
     0
 10
235.712
 20
9.13088
 30
0.0
 11
236.513
 21
9.13088
 31
0.0
  0
LINE
  8
0
 62
     0
 10
236.513
 20
9.13088
 30
0.0
 11
236.513
 21
6.03031
 31
0.0
  0
LINE
  8
0
 62
     0
 10
236.513
 20
6.03031
 30
0.0
 11
235.712
 21
6.03031
 31
0.0
  0
LINE
  8
0
 62
     0
 10
238.093
 20
63.1804
 30
0.0
 11
238.093
 21
62.1813
 31
0.0
  0
LINE
  8
0
 62
     0
 10
238.093
 20
62.1813
 30
0.0
 11
224.094
 21
62.1813
 31
0.0
  0
LINE
  8
0
 62
     0
 10
224.094
 20
62.1813
 30
0.0
 11
224.094
 21
63.1804
 31
0.0
  0
LINE
  8
0
 62
     0
 10
224.094
 20
63.1804
 30
0.0
 11
223.293
 21
63.1804
 31
0.0
  0
LINE
  8
0
 62
     0
 10
223.293
 20
63.1804
 30
0.0
 11
223.293
 21
66.2809
 31
0.0
  0
LINE
  8
0
 62
     0
 10
223.293
 20
66.2809
 30
0.0
 11
224.094
 21
66.2809
 31
0.0
  0
LINE
  8
0
 62
     0
 10
224.094
 20
66.2809
 30
0.0
 11
224.094
 21
72.081
 31
0.0
  0
LINE
  8
0
 62
     0
 10
224.094
 20
72.081
 30
0.0
 11
223.293
 21
72.081
 31
0.0
  0
LINE
  8
0
 62
     0
 10
223.293
 20
72.081
 30
0.0
 11
223.293
 21
75.1801
 31
0.0
  0
LINE
  8
0
 62
     0
 10
223.293
 20
75.1801
 30
0.0
 11
224.094
 21
75.1801
 31
0.0
  0
LINE
  8
0
 62
     0
 10
224.094
 20
75.1801
 30
0.0
 11
224.094
 21
76.1806
 31
0.0
  0
LINE
  8
0
 62
     0
 10
224.094
 20
76.1806
 30
0.0
 11
238.093
 21
76.1806
 31
0.0
  0
LINE
  8
0
 62
     0
 10
238.093
 20
76.1806
 30
0.0
 11
238.093
 21
75.1801
 31
0.0
  0
LINE
  8
0
 62
     0
 10
238.093
 20
75.1801
 30
0.0
 11
238.894
 21
75.1801
 31
0.0
  0
LINE
  8
0
 62
     0
 10
238.894
 20
75.1801
 30
0.0
 11
238.894
 21
72.081
 31
0.0
  0
LINE
  8
0
 62
     0
 10
238.894
 20
72.081
 30
0.0
 11
238.093
 21
72.081
 31
0.0
  0
LINE
  8
0
 62
     0
 10
238.093
 20
72.081
 30
0.0
 11
238.093
 21
66.2809
 31
0.0
  0
LINE
  8
0
 62
     0
 10
238.093
 20
66.2809
 30
0.0
 11
238.894
 21
66.2809
 31
0.0
  0
LINE
  8
0
 62
     0
 10
238.894
 20
66.2809
 30
0.0
 11
238.894
 21
63.1804
 31
0.0
  0
LINE
  8
0
 62
     0
 10
238.894
 20
63.1804
 30
0.0
 11
238.093
 21
63.1804
 31
0.0
  0
LINE
  8
0
 62
     0
 10
242.857
 20
44.1304
 30
0.0
 11
242.857
 21
43.1313
 31
0.0
  0
LINE
  8
0
 62
     0
 10
242.857
 20
43.1313
 30
0.0
 11
228.856
 21
43.1313
 31
0.0
  0
LINE
  8
0
 62
     0
 10
228.856
 20
43.1313
 30
0.0
 11
228.856
 21
44.1304
 31
0.0
  0
LINE
  8
0
 62
     0
 10
228.856
 20
44.1304
 30
0.0
 11
228.057
 21
44.1304
 31
0.0
  0
LINE
  8
0
 62
     0
 10
228.057
 20
44.1304
 30
0.0
 11
228.057
 21
47.2309
 31
0.0
  0
LINE
  8
0
 62
     0
 10
228.057
 20
47.2309
 30
0.0
 11
228.856
 21
47.2309
 31
0.0
  0
LINE
  8
0
 62
     0
 10
228.856
 20
47.2309
 30
0.0
 11
228.856
 21
53.031
 31
0.0
  0
LINE
  8
0
 62
     0
 10
228.856
 20
53.031
 30
0.0
 11
228.057
 21
53.031
 31
0.0
  0
LINE
  8
0
 62
     0
 10
228.057
 20
53.031
 30
0.0
 11
228.057
 21
56.1301
 31
0.0
  0
LINE
  8
0
 62
     0
 10
228.057
 20
56.1301
 30
0.0
 11
228.856
 21
56.1301
 31
0.0
  0
LINE
  8
0
 62
     0
 10
228.856
 20
56.1301
 30
0.0
 11
228.856
 21
57.1306
 31
0.0
  0
LINE
  8
0
 62
     0
 10
228.856
 20
57.1306
 30
0.0
 11
242.857
 21
57.1306
 31
0.0
  0
LINE
  8
0
 62
     0
 10
242.857
 20
57.1306
 30
0.0
 11
242.857
 21
56.1301
 31
0.0
  0
LINE
  8
0
 62
     0
 10
242.857
 20
56.1301
 30
0.0
 11
243.657
 21
56.1301
 31
0.0
  0
LINE
  8
0
 62
     0
 10
243.657
 20
56.1301
 30
0.0
 11
243.657
 21
53.031
 31
0.0
  0
LINE
  8
0
 62
     0
 10
243.657
 20
53.031
 30
0.0
 11
242.857
 21
53.031
 31
0.0
  0
LINE
  8
0
 62
     0
 10
242.857
 20
53.031
 30
0.0
 11
242.857
 21
47.2309
 31
0.0
  0
LINE
  8
0
 62
     0
 10
242.857
 20
47.2309
 30
0.0
 11
243.657
 21
47.2309
 31
0.0
  0
LINE
  8
0
 62
     0
 10
243.657
 20
47.2309
 30
0.0
 11
243.657
 21
44.1304
 31
0.0
  0
LINE
  8
0
 62
     0
 10
243.657
 20
44.1304
 30
0.0
 11
242.857
 21
44.1304
 31
0.0
  0
LINE
  8
0
 62
     0
 10
247.618
 20
82.2304
 30
0.0
 11
247.618
 21
81.2313
 31
0.0
  0
LINE
  8
0
 62
     0
 10
247.618
 20
81.2313
 30
0.0
 11
233.619
 21
81.2313
 31
0.0
  0
LINE
  8
0
 62
     0
 10
233.619
 20
81.2313
 30
0.0
 11
233.619
 21
82.2304
 31
0.0
  0
LINE
  8
0
 62
     0
 10
233.619
 20
82.2304
 30
0.0
 11
232.818
 21
82.2304
 31
0.0
  0
LINE
  8
0
 62
     0
 10
232.818
 20
82.2304
 30
0.0
 11
232.818
 21
85.3309
 31
0.0
  0
LINE
  8
0
 62
     0
 10
232.818
 20
85.3309
 30
0.0
 11
233.619
 21
85.3309
 31
0.0
  0
LINE
  8
0
 62
     0
 10
233.619
 20
85.3309
 30
0.0
 11
233.619
 21
91.131
 31
0.0
  0
LINE
  8
0
 62
     0
 10
233.619
 20
91.131
 30
0.0
 11
232.818
 21
91.131
 31
0.0
  0
LINE
  8
0
 62
     0
 10
232.818
 20
91.131
 30
0.0
 11
232.818
 21
94.2301
 31
0.0
  0
LINE
  8
0
 62
     0
 10
232.818
 20
94.2301
 30
0.0
 11
233.619
 21
94.2301
 31
0.0
  0
LINE
  8
0
 62
     0
 10
233.619
 20
94.2301
 30
0.0
 11
233.619
 21
95.2306
 31
0.0
  0
LINE
  8
0
 62
     0
 10
233.619
 20
95.2306
 30
0.0
 11
247.618
 21
95.2306
 31
0.0
  0
LINE
  8
0
 62
     0
 10
247.618
 20
95.2306
 30
0.0
 11
247.618
 21
94.2301
 31
0.0
  0
LINE
  8
0
 62
     0
 10
247.618
 20
94.2301
 30
0.0
 11
248.419
 21
94.2301
 31
0.0
  0
LINE
  8
0
 62
     0
 10
248.419
 20
94.2301
 30
0.0
 11
248.419
 21
91.131
 31
0.0
  0
LINE
  8
0
 62
     0
 10
248.419
 20
91.131
 30
0.0
 11
247.618
 21
91.131
 31
0.0
  0
LINE
  8
0
 62
     0
 10
247.618
 20
91.131
 30
0.0
 11
247.618
 21
85.3309
 31
0.0
  0
LINE
  8
0
 62
     0
 10
247.618
 20
85.3309
 30
0.0
 11
248.419
 21
85.3309
 31
0.0
  0
LINE
  8
0
 62
     0
 10
248.419
 20
85.3309
 30
0.0
 11
248.419
 21
82.2304
 31
0.0
  0
LINE
  8
0
 62
     0
 10
248.419
 20
82.2304
 30
0.0
 11
247.618
 21
82.2304
 31
0.0
  0
LINE
  8
0
 62
     0
 10
248.449
 20
37.531
 30
0.0
 11
251.75
 21
37.531
 31
0.0
  0
LINE
  8
0
 62
     0
 10
251.75
 20
37.531
 30
0.0
 11
251.75
 21
23.3302
 31
0.0
  0
LINE
  8
0
 62
     0
 10
251.75
 20
23.3302
 30
0.0
 11
248.449
 21
23.3302
 31
0.0
  0
LINE
  8
0
 62
     0
 10
248.449
 20
23.3302
 30
0.0
 11
248.449
 21
37.531
 31
0.0
  0
LINE
  8
0
 62
     0
 10
253.213
 20
56.581
 30
0.0
 11
256.512
 21
56.581
 31
0.0
  0
LINE
  8
0
 62
     0
 10
256.512
 20
56.581
 30
0.0
 11
256.512
 21
42.3803
 31
0.0
  0
LINE
  8
0
 62
     0
 10
256.512
 20
42.3803
 30
0.0
 11
253.213
 21
42.3803
 31
0.0
  0
LINE
  8
0
 62
     0
 10
253.213
 20
42.3803
 30
0.0
 11
253.213
 21
56.581
 31
0.0
  0
LINE
  8
0
 62
     0
 10
257.143
 20
63.1804
 30
0.0
 11
257.143
 21
62.1813
 31
0.0
  0
LINE
  8
0
 62
     0
 10
257.143
 20
62.1813
 30
0.0
 11
243.144
 21
62.1813
 31
0.0
  0
LINE
  8
0
 62
     0
 10
243.144
 20
62.1813
 30
0.0
 11
243.144
 21
63.1804
 31
0.0
  0
LINE
  8
0
 62
     0
 10
243.144
 20
63.1804
 30
0.0
 11
242.343
 21
63.1804
 31
0.0
  0
LINE
  8
0
 62
     0
 10
242.343
 20
63.1804
 30
0.0
 11
242.343
 21
66.2809
 31
0.0
  0
LINE
  8
0
 62
     0
 10
242.343
 20
66.2809
 30
0.0
 11
243.144
 21
66.2809
 31
0.0
  0
LINE
  8
0
 62
     0
 10
243.144
 20
66.2809
 30
0.0
 11
243.144
 21
72.081
 31
0.0
  0
LINE
  8
0
 62
     0
 10
243.144
 20
72.081
 30
0.0
 11
242.343
 21
72.081
 31
0.0
  0
LINE
  8
0
 62
     0
 10
242.343
 20
72.081
 30
0.0
 11
242.343
 21
75.1801
 31
0.0
  0
LINE
  8
0
 62
     0
 10
242.343
 20
75.1801
 30
0.0
 11
243.144
 21
75.1801
 31
0.0
  0
LINE
  8
0
 62
     0
 10
243.144
 20
75.1801
 30
0.0
 11
243.144
 21
76.1806
 31
0.0
  0
LINE
  8
0
 62
     0
 10
243.144
 20
76.1806
 30
0.0
 11
257.143
 21
76.1806
 31
0.0
  0
LINE
  8
0
 62
     0
 10
257.143
 20
76.1806
 30
0.0
 11
257.143
 21
75.1801
 31
0.0
  0
LINE
  8
0
 62
     0
 10
257.143
 20
75.1801
 30
0.0
 11
257.944
 21
75.1801
 31
0.0
  0
LINE
  8
0
 62
     0
 10
257.944
 20
75.1801
 30
0.0
 11
257.944
 21
72.081
 31
0.0
  0
LINE
  8
0
 62
     0
 10
257.944
 20
72.081
 30
0.0
 11
257.143
 21
72.081
 31
0.0
  0
LINE
  8
0
 62
     0
 10
257.143
 20
72.081
 30
0.0
 11
257.143
 21
66.2809
 31
0.0
  0
LINE
  8
0
 62
     0
 10
257.143
 20
66.2809
 30
0.0
 11
257.944
 21
66.2809
 31
0.0
  0
LINE
  8
0
 62
     0
 10
257.944
 20
66.2809
 30
0.0
 11
257.944
 21
63.1804
 31
0.0
  0
LINE
  8
0
 62
     0
 10
257.944
 20
63.1804
 30
0.0
 11
257.143
 21
63.1804
 31
0.0
  0
LINE
  8
0
 62
     0
 10
255.595
 20
94.681
 30
0.0
 11
258.893
 21
94.681
 31
0.0
  0
LINE
  8
0
 62
     0
 10
258.893
 20
94.681
 30
0.0
 11
258.893
 21
80.4803
 31
0.0
  0
LINE
  8
0
 62
     0
 10
258.893
 20
80.4803
 30
0.0
 11
255.595
 21
80.4803
 31
0.0
  0
LINE
  8
0
 62
     0
 10
255.595
 20
80.4803
 30
0.0
 11
255.595
 21
94.681
 31
0.0
  0
LINE
  8
0
 62
     0
 10
259.524
 20
6.03031
 30
0.0
 11
259.524
 21
5.03121
 31
0.0
  0
LINE
  8
0
 62
     0
 10
259.524
 20
5.03121
 30
0.0
 11
245.525
 21
5.03121
 31
0.0
  0
LINE
  8
0
 62
     0
 10
245.525
 20
5.03121
 30
0.0
 11
245.525
 21
6.03031
 31
0.0
  0
LINE
  8
0
 62
     0
 10
245.525
 20
6.03031
 30
0.0
 11
244.724
 21
6.03031
 31
0.0
  0
LINE
  8
0
 62
     0
 10
244.724
 20
6.03031
 30
0.0
 11
244.724
 21
9.13088
 31
0.0
  0
LINE
  8
0
 62
     0
 10
244.724
 20
9.13088
 30
0.0
 11
245.525
 21
9.13088
 31
0.0
  0
LINE
  8
0
 62
     0
 10
245.525
 20
9.13088
 30
0.0
 11
245.525
 21
14.931
 31
0.0
  0
LINE
  8
0
 62
     0
 10
245.525
 20
14.931
 30
0.0
 11
244.724
 21
14.931
 31
0.0
  0
LINE
  8
0
 62
     0
 10
244.724
 20
14.931
 30
0.0
 11
244.724
 21
18.0303
 31
0.0
  0
LINE
  8
0
 62
     0
 10
244.724
 20
18.0303
 30
0.0
 11
245.525
 21
18.0303
 31
0.0
  0
LINE
  8
0
 62
     0
 10
245.525
 20
18.0303
 30
0.0
 11
245.525
 21
19.0307
 31
0.0
  0
LINE
  8
0
 62
     0
 10
245.525
 20
19.0307
 30
0.0
 11
259.524
 21
19.0307
 31
0.0
  0
LINE
  8
0
 62
     0
 10
259.524
 20
19.0307
 30
0.0
 11
259.524
 21
18.0303
 31
0.0
  0
LINE
  8
0
 62
     0
 10
259.524
 20
18.0303
 30
0.0
 11
260.325
 21
18.0303
 31
0.0
  0
LINE
  8
0
 62
     0
 10
260.325
 20
18.0303
 30
0.0
 11
260.325
 21
14.931
 31
0.0
  0
LINE
  8
0
 62
     0
 10
260.325
 20
14.931
 30
0.0
 11
259.524
 21
14.931
 31
0.0
  0
LINE
  8
0
 62
     0
 10
259.524
 20
14.931
 30
0.0
 11
259.524
 21
9.13088
 31
0.0
  0
LINE
  8
0
 62
     0
 10
259.524
 20
9.13088
 30
0.0
 11
260.325
 21
9.13088
 31
0.0
  0
LINE
  8
0
 62
     0
 10
260.325
 20
9.13088
 30
0.0
 11
260.325
 21
6.03031
 31
0.0
  0
LINE
  8
0
 62
     0
 10
260.325
 20
6.03031
 30
0.0
 11
259.524
 21
6.03031
 31
0.0
  0
LINE
  8
0
 62
     0
 10
269.049
 20
25.0803
 30
0.0
 11
269.049
 21
24.0812
 31
0.0
  0
LINE
  8
0
 62
     0
 10
269.049
 20
24.0812
 30
0.0
 11
255.05
 21
24.0812
 31
0.0
  0
LINE
  8
0
 62
     0
 10
255.05
 20
24.0812
 30
0.0
 11
255.05
 21
25.0803
 31
0.0
  0
LINE
  8
0
 62
     0
 10
255.05
 20
25.0803
 30
0.0
 11
254.249
 21
25.0803
 31
0.0
  0
LINE
  8
0
 62
     0
 10
254.249
 20
25.0803
 30
0.0
 11
254.249
 21
28.1809
 31
0.0
  0
LINE
  8
0
 62
     0
 10
254.249
 20
28.1809
 30
0.0
 11
255.05
 21
28.1809
 31
0.0
  0
LINE
  8
0
 62
     0
 10
255.05
 20
28.1809
 30
0.0
 11
255.05
 21
33.981
 31
0.0
  0
LINE
  8
0
 62
     0
 10
255.05
 20
33.981
 30
0.0
 11
254.249
 21
33.981
 31
0.0
  0
LINE
  8
0
 62
     0
 10
254.249
 20
33.981
 30
0.0
 11
254.249
 21
37.0801
 31
0.0
  0
LINE
  8
0
 62
     0
 10
254.249
 20
37.0801
 30
0.0
 11
255.05
 21
37.0801
 31
0.0
  0
LINE
  8
0
 62
     0
 10
255.05
 20
37.0801
 30
0.0
 11
255.05
 21
38.0806
 31
0.0
  0
LINE
  8
0
 62
     0
 10
255.05
 20
38.0806
 30
0.0
 11
269.049
 21
38.0806
 31
0.0
  0
LINE
  8
0
 62
     0
 10
269.049
 20
38.0806
 30
0.0
 11
269.049
 21
37.0801
 31
0.0
  0
LINE
  8
0
 62
     0
 10
269.049
 20
37.0801
 30
0.0
 11
269.85
 21
37.0801
 31
0.0
  0
LINE
  8
0
 62
     0
 10
269.85
 20
37.0801
 30
0.0
 11
269.85
 21
33.981
 31
0.0
  0
LINE
  8
0
 62
     0
 10
269.85
 20
33.981
 30
0.0
 11
269.049
 21
33.981
 31
0.0
  0
LINE
  8
0
 62
     0
 10
269.049
 20
33.981
 30
0.0
 11
269.049
 21
28.1809
 31
0.0
  0
LINE
  8
0
 62
     0
 10
269.049
 20
28.1809
 30
0.0
 11
269.85
 21
28.1809
 31
0.0
  0
LINE
  8
0
 62
     0
 10
269.85
 20
28.1809
 30
0.0
 11
269.85
 21
25.0803
 31
0.0
  0
LINE
  8
0
 62
     0
 10
269.85
 20
25.0803
 30
0.0
 11
269.049
 21
25.0803
 31
0.0
  0
LINE
  8
0
 62
     0
 10
273.812
 20
44.1304
 30
0.0
 11
273.812
 21
43.1313
 31
0.0
  0
LINE
  8
0
 62
     0
 10
273.812
 20
43.1313
 30
0.0
 11
259.813
 21
43.1313
 31
0.0
  0
LINE
  8
0
 62
     0
 10
259.813
 20
43.1313
 30
0.0
 11
259.813
 21
44.1304
 31
0.0
  0
LINE
  8
0
 62
     0
 10
259.813
 20
44.1304
 30
0.0
 11
259.013
 21
44.1304
 31
0.0
  0
LINE
  8
0
 62
     0
 10
259.013
 20
44.1304
 30
0.0
 11
259.013
 21
47.2309
 31
0.0
  0
LINE
  8
0
 62
     0
 10
259.013
 20
47.2309
 30
0.0
 11
259.813
 21
47.2309
 31
0.0
  0
LINE
  8
0
 62
     0
 10
259.813
 20
47.2309
 30
0.0
 11
259.813
 21
53.031
 31
0.0
  0
LINE
  8
0
 62
     0
 10
259.813
 20
53.031
 30
0.0
 11
259.013
 21
53.031
 31
0.0
  0
LINE
  8
0
 62
     0
 10
259.013
 20
53.031
 30
0.0
 11
259.013
 21
56.1301
 31
0.0
  0
LINE
  8
0
 62
     0
 10
259.013
 20
56.1301
 30
0.0
 11
259.813
 21
56.1301
 31
0.0
  0
LINE
  8
0
 62
     0
 10
259.813
 20
56.1301
 30
0.0
 11
259.813
 21
57.1306
 31
0.0
  0
LINE
  8
0
 62
     0
 10
259.813
 20
57.1306
 30
0.0
 11
273.812
 21
57.1306
 31
0.0
  0
LINE
  8
0
 62
     0
 10
273.812
 20
57.1306
 30
0.0
 11
273.812
 21
56.1301
 31
0.0
  0
LINE
  8
0
 62
     0
 10
273.812
 20
56.1301
 30
0.0
 11
274.613
 21
56.1301
 31
0.0
  0
LINE
  8
0
 62
     0
 10
274.613
 20
56.1301
 30
0.0
 11
274.613
 21
53.031
 31
0.0
  0
LINE
  8
0
 62
     0
 10
274.613
 20
53.031
 30
0.0
 11
273.812
 21
53.031
 31
0.0
  0
LINE
  8
0
 62
     0
 10
273.812
 20
53.031
 30
0.0
 11
273.812
 21
47.2309
 31
0.0
  0
LINE
  8
0
 62
     0
 10
273.812
 20
47.2309
 30
0.0
 11
274.613
 21
47.2309
 31
0.0
  0
LINE
  8
0
 62
     0
 10
274.613
 20
47.2309
 30
0.0
 11
274.613
 21
44.1304
 31
0.0
  0
LINE
  8
0
 62
     0
 10
274.613
 20
44.1304
 30
0.0
 11
273.812
 21
44.1304
 31
0.0
  0
LINE
  8
0
 62
     0
 10
272.35
 20
37.531
 30
0.0
 11
275.65
 21
37.531
 31
0.0
  0
LINE
  8
0
 62
     0
 10
275.65
 20
37.531
 30
0.0
 11
275.65
 21
23.3302
 31
0.0
  0
LINE
  8
0
 62
     0
 10
275.65
 20
23.3302
 30
0.0
 11
272.35
 21
23.3302
 31
0.0
  0
LINE
  8
0
 62
     0
 10
272.35
 20
23.3302
 30
0.0
 11
272.35
 21
37.531
 31
0.0
  0
LINE
  8
0
 62
     0
 10
276.193
 20
82.2304
 30
0.0
 11
276.193
 21
81.2313
 31
0.0
  0
LINE
  8
0
 62
     0
 10
276.193
 20
81.2313
 30
0.0
 11
262.194
 21
81.2313
 31
0.0
  0
LINE
  8
0
 62
     0
 10
262.194
 20
81.2313
 30
0.0
 11
262.194
 21
82.2304
 31
0.0
  0
LINE
  8
0
 62
     0
 10
262.194
 20
82.2304
 30
0.0
 11
261.393
 21
82.2304
 31
0.0
  0
LINE
  8
0
 62
     0
 10
261.393
 20
82.2304
 30
0.0
 11
261.393
 21
85.3309
 31
0.0
  0
LINE
  8
0
 62
     0
 10
261.393
 20
85.3309
 30
0.0
 11
262.194
 21
85.3309
 31
0.0
  0
LINE
  8
0
 62
     0
 10
262.194
 20
85.3309
 30
0.0
 11
262.194
 21
91.131
 31
0.0
  0
LINE
  8
0
 62
     0
 10
262.194
 20
91.131
 30
0.0
 11
261.393
 21
91.131
 31
0.0
  0
LINE
  8
0
 62
     0
 10
261.393
 20
91.131
 30
0.0
 11
261.393
 21
94.2301
 31
0.0
  0
LINE
  8
0
 62
     0
 10
261.393
 20
94.2301
 30
0.0
 11
262.194
 21
94.2301
 31
0.0
  0
LINE
  8
0
 62
     0
 10
262.194
 20
94.2301
 30
0.0
 11
262.194
 21
95.2306
 31
0.0
  0
LINE
  8
0
 62
     0
 10
262.194
 20
95.2306
 30
0.0
 11
276.193
 21
95.2306
 31
0.0
  0
LINE
  8
0
 62
     0
 10
276.193
 20
95.2306
 30
0.0
 11
276.193
 21
94.2301
 31
0.0
  0
LINE
  8
0
 62
     0
 10
276.193
 20
94.2301
 30
0.0
 11
276.994
 21
94.2301
 31
0.0
  0
LINE
  8
0
 62
     0
 10
276.994
 20
94.2301
 30
0.0
 11
276.994
 21
91.131
 31
0.0
  0
LINE
  8
0
 62
     0
 10
276.994
 20
91.131
 30
0.0
 11
276.193
 21
91.131
 31
0.0
  0
LINE
  8
0
 62
     0
 10
276.193
 20
91.131
 30
0.0
 11
276.193
 21
85.3309
 31
0.0
  0
LINE
  8
0
 62
     0
 10
276.193
 20
85.3309
 30
0.0
 11
276.994
 21
85.3309
 31
0.0
  0
LINE
  8
0
 62
     0
 10
276.994
 20
85.3309
 30
0.0
 11
276.994
 21
82.2304
 31
0.0
  0
LINE
  8
0
 62
     0
 10
276.994
 20
82.2304
 30
0.0
 11
276.193
 21
82.2304
 31
0.0
  0
LINE
  8
0
 62
     0
 10
277.113
 20
56.581
 30
0.0
 11
280.413
 21
56.581
 31
0.0
  0
LINE
  8
0
 62
     0
 10
280.413
 20
56.581
 30
0.0
 11
280.413
 21
42.3803
 31
0.0
  0
LINE
  8
0
 62
     0
 10
280.413
 20
42.3803
 30
0.0
 11
277.113
 21
42.3803
 31
0.0
  0
LINE
  8
0
 62
     0
 10
277.113
 20
42.3803
 30
0.0
 11
277.113
 21
56.581
 31
0.0
  0
LINE
  8
0
 62
     0
 10
280.957
 20
63.1804
 30
0.0
 11
280.957
 21
62.1813
 31
0.0
  0
LINE
  8
0
 62
     0
 10
280.957
 20
62.1813
 30
0.0
 11
266.956
 21
62.1813
 31
0.0
  0
LINE
  8
0
 62
     0
 10
266.956
 20
62.1813
 30
0.0
 11
266.956
 21
63.1804
 31
0.0
  0
LINE
  8
0
 62
     0
 10
266.956
 20
63.1804
 30
0.0
 11
266.157
 21
63.1804
 31
0.0
  0
LINE
  8
0
 62
     0
 10
266.157
 20
63.1804
 30
0.0
 11
266.157
 21
66.2809
 31
0.0
  0
LINE
  8
0
 62
     0
 10
266.157
 20
66.2809
 30
0.0
 11
266.956
 21
66.2809
 31
0.0
  0
LINE
  8
0
 62
     0
 10
266.956
 20
66.2809
 30
0.0
 11
266.956
 21
72.081
 31
0.0
  0
LINE
  8
0
 62
     0
 10
266.956
 20
72.081
 30
0.0
 11
266.157
 21
72.081
 31
0.0
  0
LINE
  8
0
 62
     0
 10
266.157
 20
72.081
 30
0.0
 11
266.157
 21
75.1801
 31
0.0
  0
LINE
  8
0
 62
     0
 10
266.157
 20
75.1801
 30
0.0
 11
266.956
 21
75.1801
 31
0.0
  0
LINE
  8
0
 62
     0
 10
266.956
 20
75.1801
 30
0.0
 11
266.956
 21
76.1806
 31
0.0
  0
LINE
  8
0
 62
     0
 10
266.956
 20
76.1806
 30
0.0
 11
280.957
 21
76.1806
 31
0.0
  0
LINE
  8
0
 62
     0
 10
280.957
 20
76.1806
 30
0.0
 11
280.957
 21
75.1801
 31
0.0
  0
LINE
  8
0
 62
     0
 10
280.957
 20
75.1801
 30
0.0
 11
281.757
 21
75.1801
 31
0.0
  0
LINE
  8
0
 62
     0
 10
281.757
 20
75.1801
 30
0.0
 11
281.757
 21
72.081
 31
0.0
  0
LINE
  8
0
 62
     0
 10
281.757
 20
72.081
 30
0.0
 11
280.957
 21
72.081
 31
0.0
  0
LINE
  8
0
 62
     0
 10
280.957
 20
72.081
 30
0.0
 11
280.957
 21
66.2809
 31
0.0
  0
LINE
  8
0
 62
     0
 10
280.957
 20
66.2809
 30
0.0
 11
281.757
 21
66.2809
 31
0.0
  0
LINE
  8
0
 62
     0
 10
281.757
 20
66.2809
 30
0.0
 11
281.757
 21
63.1804
 31
0.0
  0
LINE
  8
0
 62
     0
 10
281.757
 20
63.1804
 30
0.0
 11
280.957
 21
63.1804
 31
0.0
  0
LINE
  8
0
 62
     0
 10
279.494
 20
94.681
 30
0.0
 11
282.794
 21
94.681
 31
0.0
  0
LINE
  8
0
 62
     0
 10
282.794
 20
94.681
 30
0.0
 11
282.794
 21
80.4803
 31
0.0
  0
LINE
  8
0
 62
     0
 10
282.794
 20
80.4803
 30
0.0
 11
279.494
 21
80.4803
 31
0.0
  0
LINE
  8
0
 62
     0
 10
279.494
 20
80.4803
 30
0.0
 11
279.494
 21
94.681
 31
0.0
  0
LINE
  8
0
 62
     0
 10
283.337
 20
6.03031
 30
0.0
 11
283.337
 21
5.03121
 31
0.0
  0
LINE
  8
0
 62
     0
 10
283.337
 20
5.03121
 30
0.0
 11
269.338
 21
5.03121
 31
0.0
  0
LINE
  8
0
 62
     0
 10
269.338
 20
5.03121
 30
0.0
 11
269.338
 21
6.03031
 31
0.0
  0
LINE
  8
0
 62
     0
 10
269.338
 20
6.03031
 30
0.0
 11
268.538
 21
6.03031
 31
0.0
  0
LINE
  8
0
 62
     0
 10
268.538
 20
6.03031
 30
0.0
 11
268.538
 21
9.13088
 31
0.0
  0
LINE
  8
0
 62
     0
 10
268.538
 20
9.13088
 30
0.0
 11
269.338
 21
9.13088
 31
0.0
  0
LINE
  8
0
 62
     0
 10
269.338
 20
9.13088
 30
0.0
 11
269.338
 21
14.931
 31
0.0
  0
LINE
  8
0
 62
     0
 10
269.338
 20
14.931
 30
0.0
 11
268.538
 21
14.931
 31
0.0
  0
LINE
  8
0
 62
     0
 10
268.538
 20
14.931
 30
0.0
 11
268.538
 21
18.0303
 31
0.0
  0
LINE
  8
0
 62
     0
 10
268.538
 20
18.0303
 30
0.0
 11
269.338
 21
18.0303
 31
0.0
  0
LINE
  8
0
 62
     0
 10
269.338
 20
18.0303
 30
0.0
 11
269.338
 21
19.0307
 31
0.0
  0
LINE
  8
0
 62
     0
 10
269.338
 20
19.0307
 30
0.0
 11
283.337
 21
19.0307
 31
0.0
  0
LINE
  8
0
 62
     0
 10
283.337
 20
19.0307
 30
0.0
 11
283.337
 21
18.0303
 31
0.0
  0
LINE
  8
0
 62
     0
 10
283.337
 20
18.0303
 30
0.0
 11
284.138
 21
18.0303
 31
0.0
  0
LINE
  8
0
 62
     0
 10
284.138
 20
18.0303
 30
0.0
 11
284.138
 21
14.931
 31
0.0
  0
LINE
  8
0
 62
     0
 10
284.138
 20
14.931
 30
0.0
 11
283.337
 21
14.931
 31
0.0
  0
LINE
  8
0
 62
     0
 10
283.337
 20
14.931
 30
0.0
 11
283.337
 21
9.13088
 31
0.0
  0
LINE
  8
0
 62
     0
 10
283.337
 20
9.13088
 30
0.0
 11
284.138
 21
9.13088
 31
0.0
  0
LINE
  8
0
 62
     0
 10
284.138
 20
9.13088
 30
0.0
 11
284.138
 21
6.03031
 31
0.0
  0
LINE
  8
0
 62
     0
 10
284.138
 20
6.03031
 30
0.0
 11
283.337
 21
6.03031
 31
0.0
  0
ENDSEC
  0
EOF
