  0
SECTION
  2
HEADER
  9
$ACADVER
  1
AC1009
  9
$EXTMIN
 10
0.0
 20
0.0
 30
0.0
  9
$EXTMAX
 10
1000.0
 20
1000.0
 30
0.0
  9
$FILLMODE
 70
 0
  9
$SPLFRAME
 70
 1
  0
ENDSEC
  0
SECTION
  2
TABLES
  0
TABLE
  2
LAYER
 70
1
  0
LAYER
  2
0
 70
     0
 62
     7
  6
CONTINUOUS
  0
ENDTAB
  0
ENDSEC
  0
SECTION
  2
ENTITIES
  0
LINE
  8
0
 62
     0
 10
7.55026
 20
34.7872
 30
0.0
 11
10.8493
 21
34.7872
 31
0.0
  0
LINE
  8
0
 62
     0
 10
10.8493
 20
34.7872
 30
0.0
 11
10.8493
 21
20.5879
 31
0.0
  0
LINE
  8
0
 62
     0
 10
10.8493
 20
20.5879
 30
0.0
 11
7.55026
 21
20.5879
 31
0.0
  0
LINE
  8
0
 62
     0
 10
7.55026
 20
20.5879
 30
0.0
 11
7.55026
 21
34.7872
 31
0.0
  0
LINE
  8
0
 62
     0
 10
2.24345
 20
92.487
 30
0.0
 11
16.2443
 21
92.487
 31
0.0
  0
LINE
  8
0
 62
     0
 10
16.2443
 20
92.487
 30
0.0
 11
16.2443
 21
78.4874
 31
0.0
  0
LINE
  8
0
 62
     0
 10
16.2443
 20
78.4874
 30
0.0
 11
2.24345
 21
78.4874
 31
0.0
  0
LINE
  8
0
 62
     0
 10
2.24345
 20
78.4874
 30
0.0
 11
2.24345
 21
92.487
 31
0.0
  0
LINE
  8
0
 62
     0
 10
4.6247
 20
16.287
 30
0.0
 11
18.6242
 21
16.287
 31
0.0
  0
LINE
  8
0
 62
     0
 10
18.6242
 20
16.287
 30
0.0
 11
18.6242
 21
2.28755
 31
0.0
  0
LINE
  8
0
 62
     0
 10
18.6242
 20
2.28755
 30
0.0
 11
4.6247
 21
2.28755
 31
0.0
  0
LINE
  8
0
 62
     0
 10
4.6247
 20
2.28755
 30
0.0
 11
4.6247
 21
16.287
 31
0.0
  0
LINE
  8
0
 62
     0
 10
7.00733
 20
73.437
 30
0.0
 11
21.0068
 21
73.437
 31
0.0
  0
LINE
  8
0
 62
     0
 10
21.0068
 20
73.437
 30
0.0
 11
21.0068
 21
59.4374
 31
0.0
  0
LINE
  8
0
 62
     0
 10
21.0068
 20
59.4374
 30
0.0
 11
7.00733
 21
59.4374
 31
0.0
  0
LINE
  8
0
 62
     0
 10
7.00733
 20
59.4374
 30
0.0
 11
7.00733
 21
73.437
 31
0.0
  0
LINE
  8
0
 62
     0
 10
9.3872
 20
54.387
 30
0.0
 11
23.3881
 21
54.387
 31
0.0
  0
LINE
  8
0
 62
     0
 10
23.3881
 20
54.387
 30
0.0
 11
23.3881
 21
40.3874
 31
0.0
  0
LINE
  8
0
 62
     0
 10
23.3881
 20
40.3874
 30
0.0
 11
9.3872
 21
40.3874
 31
0.0
  0
LINE
  8
0
 62
     0
 10
9.3872
 20
40.3874
 30
0.0
 11
9.3872
 21
54.387
 31
0.0
  0
LINE
  8
0
 62
     0
 10
27.7937
 20
66.7879
 30
0.0
 11
27.6724
 21
67.5612
 31
0.0
  0
LINE
  8
0
 62
     0
 10
27.6724
 20
67.5612
 30
0.0
 11
27.3169
 21
68.2569
 31
0.0
  0
LINE
  8
0
 62
     0
 10
27.3169
 20
68.2569
 30
0.0
 11
26.7629
 21
68.8111
 31
0.0
  0
LINE
  8
0
 62
     0
 10
26.7629
 20
68.8111
 30
0.0
 11
26.067
 21
69.1653
 31
0.0
  0
LINE
  8
0
 62
     0
 10
26.067
 20
69.1653
 30
0.0
 11
25.2939
 21
69.2877
 31
0.0
  0
LINE
  8
0
 62
     0
 10
25.2939
 20
69.2877
 30
0.0
 11
24.5208
 21
69.1653
 31
0.0
  0
LINE
  8
0
 62
     0
 10
24.5208
 20
69.1653
 30
0.0
 11
23.8249
 21
68.8111
 31
0.0
  0
LINE
  8
0
 62
     0
 10
23.8249
 20
68.8111
 30
0.0
 11
23.2709
 21
68.2569
 31
0.0
  0
LINE
  8
0
 62
     0
 10
23.2709
 20
68.2569
 30
0.0
 11
22.9154
 21
67.5612
 31
0.0
  0
LINE
  8
0
 62
     0
 10
22.9154
 20
67.5612
 30
0.0
 11
22.7941
 21
66.7879
 31
0.0
  0
LINE
  8
0
 62
     0
 10
22.7941
 20
66.7879
 30
0.0
 11
22.9154
 21
66.015
 31
0.0
  0
LINE
  8
0
 62
     0
 10
22.9154
 20
66.015
 30
0.0
 11
23.2709
 21
65.3189
 31
0.0
  0
LINE
  8
0
 62
     0
 10
23.2709
 20
65.3189
 30
0.0
 11
23.8249
 21
64.7651
 31
0.0
  0
LINE
  8
0
 62
     0
 10
23.8249
 20
64.7651
 30
0.0
 11
24.5208
 21
64.4095
 31
0.0
  0
LINE
  8
0
 62
     0
 10
24.5208
 20
64.4095
 30
0.0
 11
25.2939
 21
64.2881
 31
0.0
  0
LINE
  8
0
 62
     0
 10
25.2939
 20
64.2881
 30
0.0
 11
26.067
 21
64.4095
 31
0.0
  0
LINE
  8
0
 62
     0
 10
26.067
 20
64.4095
 30
0.0
 11
26.7629
 21
64.7651
 31
0.0
  0
LINE
  8
0
 62
     0
 10
26.7629
 20
64.7651
 30
0.0
 11
27.3169
 21
65.3189
 31
0.0
  0
LINE
  8
0
 62
     0
 10
27.3169
 20
65.3189
 30
0.0
 11
27.6724
 21
66.015
 31
0.0
  0
LINE
  8
0
 62
     0
 10
27.6724
 20
66.015
 30
0.0
 11
27.7937
 21
66.7879
 31
0.0
  0
LINE
  8
0
 62
     0
 10
14.1497
 20
35.337
 30
0.0
 11
28.1492
 21
35.337
 31
0.0
  0
LINE
  8
0
 62
     0
 10
28.1492
 20
35.337
 30
0.0
 11
28.1492
 21
21.3376
 31
0.0
  0
LINE
  8
0
 62
     0
 10
28.1492
 20
21.3376
 30
0.0
 11
14.1497
 21
21.3376
 31
0.0
  0
LINE
  8
0
 62
     0
 10
14.1497
 20
21.3376
 30
0.0
 11
14.1497
 21
35.337
 31
0.0
  0
LINE
  8
0
 62
     0
 10
31.4496
 20
34.7872
 30
0.0
 11
34.75
 21
34.7872
 31
0.0
  0
LINE
  8
0
 62
     0
 10
34.75
 20
34.7872
 30
0.0
 11
34.75
 21
20.5879
 31
0.0
  0
LINE
  8
0
 62
     0
 10
34.75
 20
20.5879
 30
0.0
 11
31.4496
 21
20.5879
 31
0.0
  0
LINE
  8
0
 62
     0
 10
31.4496
 20
20.5879
 30
0.0
 11
31.4496
 21
34.7872
 31
0.0
  0
LINE
  8
0
 62
     0
 10
21.2935
 20
92.487
 30
0.0
 11
35.2944
 21
92.487
 31
0.0
  0
LINE
  8
0
 62
     0
 10
35.2944
 20
92.487
 30
0.0
 11
35.2944
 21
78.4874
 31
0.0
  0
LINE
  8
0
 62
     0
 10
35.2944
 20
78.4874
 30
0.0
 11
21.2935
 21
78.4874
 31
0.0
  0
LINE
  8
0
 62
     0
 10
21.2935
 20
78.4874
 30
0.0
 11
21.2935
 21
92.487
 31
0.0
  0
LINE
  8
0
 62
     0
 10
28.4372
 20
16.287
 30
0.0
 11
42.4381
 21
16.287
 31
0.0
  0
LINE
  8
0
 62
     0
 10
42.4381
 20
16.287
 30
0.0
 11
42.4381
 21
2.28755
 31
0.0
  0
LINE
  8
0
 62
     0
 10
42.4381
 20
2.28755
 30
0.0
 11
28.4372
 21
2.28755
 31
0.0
  0
LINE
  8
0
 62
     0
 10
28.4372
 20
2.28755
 30
0.0
 11
28.4372
 21
16.287
 31
0.0
  0
LINE
  8
0
 62
     0
 10
30.8185
 20
73.437
 30
0.0
 11
44.8194
 21
73.437
 31
0.0
  0
LINE
  8
0
 62
     0
 10
44.8194
 20
73.437
 30
0.0
 11
44.8194
 21
59.4374
 31
0.0
  0
LINE
  8
0
 62
     0
 10
44.8194
 20
59.4374
 30
0.0
 11
30.8185
 21
59.4374
 31
0.0
  0
LINE
  8
0
 62
     0
 10
30.8185
 20
59.4374
 30
0.0
 11
30.8185
 21
73.437
 31
0.0
  0
LINE
  8
0
 62
     0
 10
35.5808
 20
54.387
 30
0.0
 11
49.5804
 21
54.387
 31
0.0
  0
LINE
  8
0
 62
     0
 10
49.5804
 20
54.387
 30
0.0
 11
49.5804
 21
40.3874
 31
0.0
  0
LINE
  8
0
 62
     0
 10
49.5804
 20
40.3874
 30
0.0
 11
35.5808
 21
40.3874
 31
0.0
  0
LINE
  8
0
 62
     0
 10
35.5808
 20
40.3874
 30
0.0
 11
35.5808
 21
54.387
 31
0.0
  0
LINE
  8
0
 62
     0
 10
40.3433
 20
92.487
 30
0.0
 11
54.3444
 21
92.487
 31
0.0
  0
LINE
  8
0
 62
     0
 10
54.3444
 20
92.487
 30
0.0
 11
54.3444
 21
78.4874
 31
0.0
  0
LINE
  8
0
 62
     0
 10
54.3444
 20
78.4874
 30
0.0
 11
40.3433
 21
78.4874
 31
0.0
  0
LINE
  8
0
 62
     0
 10
40.3433
 20
78.4874
 30
0.0
 11
40.3433
 21
92.487
 31
0.0
  0
LINE
  8
0
 62
     0
 10
45.1072
 20
35.337
 30
0.0
 11
59.1069
 21
35.337
 31
0.0
  0
LINE
  8
0
 62
     0
 10
59.1069
 20
35.337
 30
0.0
 11
59.1069
 21
21.3376
 31
0.0
  0
LINE
  8
0
 62
     0
 10
59.1069
 20
21.3376
 30
0.0
 11
45.1072
 21
21.3376
 31
0.0
  0
LINE
  8
0
 62
     0
 10
45.1072
 20
21.3376
 30
0.0
 11
45.1072
 21
35.337
 31
0.0
  0
LINE
  8
0
 62
     0
 10
49.8683
 20
73.437
 30
0.0
 11
63.8694
 21
73.437
 31
0.0
  0
LINE
  8
0
 62
     0
 10
63.8694
 20
73.437
 30
0.0
 11
63.8694
 21
59.4374
 31
0.0
  0
LINE
  8
0
 62
     0
 10
63.8694
 20
59.4374
 30
0.0
 11
49.8683
 21
59.4374
 31
0.0
  0
LINE
  8
0
 62
     0
 10
49.8683
 20
59.4374
 30
0.0
 11
49.8683
 21
73.437
 31
0.0
  0
LINE
  8
0
 62
     0
 10
52.2496
 20
16.287
 30
0.0
 11
66.2492
 21
16.287
 31
0.0
  0
LINE
  8
0
 62
     0
 10
66.2492
 20
16.287
 30
0.0
 11
66.2492
 21
2.28755
 31
0.0
  0
LINE
  8
0
 62
     0
 10
66.2492
 20
2.28755
 30
0.0
 11
52.2496
 21
2.28755
 31
0.0
  0
LINE
  8
0
 62
     0
 10
52.2496
 20
2.28755
 30
0.0
 11
52.2496
 21
16.287
 31
0.0
  0
LINE
  8
0
 62
     0
 10
54.6308
 20
54.387
 30
0.0
 11
68.6304
 21
54.387
 31
0.0
  0
LINE
  8
0
 62
     0
 10
68.6304
 20
54.387
 30
0.0
 11
68.6304
 21
40.3874
 31
0.0
  0
LINE
  8
0
 62
     0
 10
68.6304
 20
40.3874
 30
0.0
 11
54.6308
 21
40.3874
 31
0.0
  0
LINE
  8
0
 62
     0
 10
54.6308
 20
40.3874
 30
0.0
 11
54.6308
 21
54.387
 31
0.0
  0
LINE
  8
0
 62
     0
 10
59.3933
 20
92.487
 30
0.0
 11
73.3944
 21
92.487
 31
0.0
  0
LINE
  8
0
 62
     0
 10
73.3944
 20
92.487
 30
0.0
 11
73.3944
 21
78.4874
 31
0.0
  0
LINE
  8
0
 62
     0
 10
73.3944
 20
78.4874
 30
0.0
 11
59.3933
 21
78.4874
 31
0.0
  0
LINE
  8
0
 62
     0
 10
59.3933
 20
78.4874
 30
0.0
 11
59.3933
 21
92.487
 31
0.0
  0
LINE
  8
0
 62
     0
 10
64.1558
 20
35.337
 30
0.0
 11
78.1554
 21
35.337
 31
0.0
  0
LINE
  8
0
 62
     0
 10
78.1554
 20
35.337
 30
0.0
 11
78.1554
 21
21.3376
 31
0.0
  0
LINE
  8
0
 62
     0
 10
78.1554
 20
21.3376
 30
0.0
 11
64.1558
 21
21.3376
 31
0.0
  0
LINE
  8
0
 62
     0
 10
64.1558
 20
21.3376
 30
0.0
 11
64.1558
 21
35.337
 31
0.0
  0
LINE
  8
0
 62
     0
 10
79.0374
 20
15.7372
 30
0.0
 11
82.3376
 21
15.7372
 31
0.0
  0
LINE
  8
0
 62
     0
 10
82.3376
 20
15.7372
 30
0.0
 11
82.3376
 21
1.53789
 31
0.0
  0
LINE
  8
0
 62
     0
 10
82.3376
 20
1.53789
 30
0.0
 11
79.0374
 21
1.53789
 31
0.0
  0
LINE
  8
0
 62
     0
 10
79.0374
 20
1.53789
 30
0.0
 11
79.0374
 21
15.7372
 31
0.0
  0
LINE
  8
0
 62
     0
 10
68.9183
 20
73.437
 30
0.0
 11
82.9194
 21
73.437
 31
0.0
  0
LINE
  8
0
 62
     0
 10
82.9194
 20
73.437
 30
0.0
 11
82.9194
 21
59.4374
 31
0.0
  0
LINE
  8
0
 62
     0
 10
82.9194
 20
59.4374
 30
0.0
 11
68.9183
 21
59.4374
 31
0.0
  0
LINE
  8
0
 62
     0
 10
68.9183
 20
59.4374
 30
0.0
 11
68.9183
 21
73.437
 31
0.0
  0
LINE
  8
0
 62
     0
 10
73.6808
 20
54.387
 30
0.0
 11
87.6804
 21
54.387
 31
0.0
  0
LINE
  8
0
 62
     0
 10
87.6804
 20
54.387
 30
0.0
 11
87.6804
 21
40.3874
 31
0.0
  0
LINE
  8
0
 62
     0
 10
87.6804
 20
40.3874
 30
0.0
 11
73.6808
 21
40.3874
 31
0.0
  0
LINE
  8
0
 62
     0
 10
73.6808
 20
40.3874
 30
0.0
 11
73.6808
 21
54.387
 31
0.0
  0
LINE
  8
0
 62
     0
 10
78.4433
 20
92.487
 30
0.0
 11
92.4444
 21
92.487
 31
0.0
  0
LINE
  8
0
 62
     0
 10
92.4444
 20
92.487
 30
0.0
 11
92.4444
 21
78.4874
 31
0.0
  0
LINE
  8
0
 62
     0
 10
92.4444
 20
78.4874
 30
0.0
 11
78.4433
 21
78.4874
 31
0.0
  0
LINE
  8
0
 62
     0
 10
78.4433
 20
78.4874
 30
0.0
 11
78.4433
 21
92.487
 31
0.0
  0
LINE
  8
0
 62
     0
 10
83.2058
 20
35.337
 30
0.0
 11
97.2054
 21
35.337
 31
0.0
  0
LINE
  8
0
 62
     0
 10
97.2054
 20
35.337
 30
0.0
 11
97.2054
 21
21.3376
 31
0.0
  0
LINE
  8
0
 62
     0
 10
97.2054
 20
21.3376
 30
0.0
 11
83.2058
 21
21.3376
 31
0.0
  0
LINE
  8
0
 62
     0
 10
83.2058
 20
21.3376
 30
0.0
 11
83.2058
 21
35.337
 31
0.0
  0
LINE
  8
0
 62
     0
 10
87.9683
 20
73.437
 30
0.0
 11
101.969
 21
73.437
 31
0.0
  0
LINE
  8
0
 62
     0
 10
101.969
 20
73.437
 30
0.0
 11
101.969
 21
59.4374
 31
0.0
  0
LINE
  8
0
 62
     0
 10
101.969
 20
59.4374
 30
0.0
 11
87.9683
 21
59.4374
 31
0.0
  0
LINE
  8
0
 62
     0
 10
87.9683
 20
59.4374
 30
0.0
 11
87.9683
 21
73.437
 31
0.0
  0
LINE
  8
0
 62
     0
 10
92.7308
 20
54.387
 30
0.0
 11
106.73
 21
54.387
 31
0.0
  0
LINE
  8
0
 62
     0
 10
106.73
 20
54.387
 30
0.0
 11
106.73
 21
40.3874
 31
0.0
  0
LINE
  8
0
 62
     0
 10
106.73
 20
40.3874
 30
0.0
 11
92.7308
 21
40.3874
 31
0.0
  0
LINE
  8
0
 62
     0
 10
92.7308
 20
40.3874
 30
0.0
 11
92.7308
 21
54.387
 31
0.0
  0
LINE
  8
0
 62
     0
 10
97.4933
 20
92.487
 30
0.0
 11
111.494
 21
92.487
 31
0.0
  0
LINE
  8
0
 62
     0
 10
111.494
 20
92.487
 30
0.0
 11
111.494
 21
78.4874
 31
0.0
  0
LINE
  8
0
 62
     0
 10
111.494
 20
78.4874
 30
0.0
 11
97.4933
 21
78.4874
 31
0.0
  0
LINE
  8
0
 62
     0
 10
97.4933
 20
78.4874
 30
0.0
 11
97.4933
 21
92.487
 31
0.0
  0
LINE
  8
0
 62
     0
 10
102.256
 20
35.337
 30
0.0
 11
116.255
 21
35.337
 31
0.0
  0
LINE
  8
0
 62
     0
 10
116.255
 20
35.337
 30
0.0
 11
116.255
 21
21.3376
 31
0.0
  0
LINE
  8
0
 62
     0
 10
116.255
 20
21.3376
 30
0.0
 11
102.256
 21
21.3376
 31
0.0
  0
LINE
  8
0
 62
     0
 10
102.256
 20
21.3376
 30
0.0
 11
102.256
 21
35.337
 31
0.0
  0
LINE
  8
0
 62
     0
 10
107.018
 20
73.437
 30
0.0
 11
121.019
 21
73.437
 31
0.0
  0
LINE
  8
0
 62
     0
 10
121.019
 20
73.437
 30
0.0
 11
121.019
 21
59.4374
 31
0.0
  0
LINE
  8
0
 62
     0
 10
121.019
 20
59.4374
 30
0.0
 11
107.018
 21
59.4374
 31
0.0
  0
LINE
  8
0
 62
     0
 10
107.018
 20
59.4374
 30
0.0
 11
107.018
 21
73.437
 31
0.0
  0
LINE
  8
0
 62
     0
 10
111.781
 20
54.387
 30
0.0
 11
125.782
 21
54.387
 31
0.0
  0
LINE
  8
0
 62
     0
 10
125.782
 20
54.387
 30
0.0
 11
125.782
 21
40.3874
 31
0.0
  0
LINE
  8
0
 62
     0
 10
125.782
 20
40.3874
 30
0.0
 11
111.781
 21
40.3874
 31
0.0
  0
LINE
  8
0
 62
     0
 10
111.781
 20
40.3874
 30
0.0
 11
111.781
 21
54.387
 31
0.0
  0
LINE
  8
0
 62
     0
 10
116.543
 20
92.487
 30
0.0
 11
130.544
 21
92.487
 31
0.0
  0
LINE
  8
0
 62
     0
 10
130.544
 20
92.487
 30
0.0
 11
130.544
 21
78.4874
 31
0.0
  0
LINE
  8
0
 62
     0
 10
130.544
 20
78.4874
 30
0.0
 11
116.543
 21
78.4874
 31
0.0
  0
LINE
  8
0
 62
     0
 10
116.543
 20
78.4874
 30
0.0
 11
116.543
 21
92.487
 31
0.0
  0
LINE
  8
0
 62
     0
 10
130.794
 20
47.3879
 30
0.0
 11
130.671
 21
48.1612
 31
0.0
  0
LINE
  8
0
 62
     0
 10
130.671
 20
48.1612
 30
0.0
 11
130.317
 21
48.8569
 31
0.0
  0
LINE
  8
0
 62
     0
 10
130.317
 20
48.8569
 30
0.0
 11
129.763
 21
49.4111
 31
0.0
  0
LINE
  8
0
 62
     0
 10
129.763
 20
49.4111
 30
0.0
 11
129.067
 21
49.7649
 31
0.0
  0
LINE
  8
0
 62
     0
 10
129.067
 20
49.7649
 30
0.0
 11
128.294
 21
49.8877
 31
0.0
  0
LINE
  8
0
 62
     0
 10
128.294
 20
49.8877
 30
0.0
 11
127.521
 21
49.7649
 31
0.0
  0
LINE
  8
0
 62
     0
 10
127.521
 20
49.7649
 30
0.0
 11
126.825
 21
49.4111
 31
0.0
  0
LINE
  8
0
 62
     0
 10
126.825
 20
49.4111
 30
0.0
 11
126.271
 21
48.8569
 31
0.0
  0
LINE
  8
0
 62
     0
 10
126.271
 20
48.8569
 30
0.0
 11
125.916
 21
48.1612
 31
0.0
  0
LINE
  8
0
 62
     0
 10
125.916
 20
48.1612
 30
0.0
 11
125.794
 21
47.3879
 31
0.0
  0
LINE
  8
0
 62
     0
 10
125.794
 20
47.3879
 30
0.0
 11
125.916
 21
46.615
 31
0.0
  0
LINE
  8
0
 62
     0
 10
125.916
 20
46.615
 30
0.0
 11
126.271
 21
45.919
 31
0.0
  0
LINE
  8
0
 62
     0
 10
126.271
 20
45.919
 30
0.0
 11
126.825
 21
45.3651
 31
0.0
  0
LINE
  8
0
 62
     0
 10
126.825
 20
45.3651
 30
0.0
 11
127.521
 21
45.0095
 31
0.0
  0
LINE
  8
0
 62
     0
 10
127.521
 20
45.0095
 30
0.0
 11
128.294
 21
44.8881
 31
0.0
  0
LINE
  8
0
 62
     0
 10
128.294
 20
44.8881
 30
0.0
 11
129.067
 21
45.0095
 31
0.0
  0
LINE
  8
0
 62
     0
 10
129.067
 20
45.0095
 30
0.0
 11
129.763
 21
45.3651
 31
0.0
  0
LINE
  8
0
 62
     0
 10
129.763
 20
45.3651
 30
0.0
 11
130.317
 21
45.919
 31
0.0
  0
LINE
  8
0
 62
     0
 10
130.317
 20
45.919
 30
0.0
 11
130.671
 21
46.615
 31
0.0
  0
LINE
  8
0
 62
     0
 10
130.671
 20
46.615
 30
0.0
 11
130.794
 21
47.3879
 31
0.0
  0
LINE
  8
0
 62
     0
 10
121.307
 20
35.337
 30
0.0
 11
135.307
 21
35.337
 31
0.0
  0
LINE
  8
0
 62
     0
 10
135.307
 20
35.337
 30
0.0
 11
135.307
 21
21.3376
 31
0.0
  0
LINE
  8
0
 62
     0
 10
135.307
 20
21.3376
 30
0.0
 11
121.307
 21
21.3376
 31
0.0
  0
LINE
  8
0
 62
     0
 10
121.307
 20
21.3376
 30
0.0
 11
121.307
 21
35.337
 31
0.0
  0
LINE
  8
0
 62
     0
 10
123.687
 20
16.287
 30
0.0
 11
137.688
 21
16.287
 31
0.0
  0
LINE
  8
0
 62
     0
 10
137.688
 20
16.287
 30
0.0
 11
137.688
 21
2.28755
 31
0.0
  0
LINE
  8
0
 62
     0
 10
137.688
 20
2.28755
 30
0.0
 11
123.687
 21
2.28755
 31
0.0
  0
LINE
  8
0
 62
     0
 10
123.687
 20
2.28755
 30
0.0
 11
123.687
 21
16.287
 31
0.0
  0
LINE
  8
0
 62
     0
 10
126.068
 20
73.437
 30
0.0
 11
140.069
 21
73.437
 31
0.0
  0
LINE
  8
0
 62
     0
 10
140.069
 20
73.437
 30
0.0
 11
140.069
 21
59.4374
 31
0.0
  0
LINE
  8
0
 62
     0
 10
140.069
 20
59.4374
 30
0.0
 11
126.068
 21
59.4374
 31
0.0
  0
LINE
  8
0
 62
     0
 10
126.068
 20
59.4374
 30
0.0
 11
126.068
 21
73.437
 31
0.0
  0
LINE
  8
0
 62
     0
 10
130.831
 20
54.387
 30
0.0
 11
144.83
 21
54.387
 31
0.0
  0
LINE
  8
0
 62
     0
 10
144.83
 20
54.387
 30
0.0
 11
144.83
 21
40.3874
 31
0.0
  0
LINE
  8
0
 62
     0
 10
144.83
 20
40.3874
 30
0.0
 11
130.831
 21
40.3874
 31
0.0
  0
LINE
  8
0
 62
     0
 10
130.831
 20
40.3874
 30
0.0
 11
130.831
 21
54.387
 31
0.0
  0
LINE
  8
0
 62
     0
 10
135.593
 20
92.487
 30
0.0
 11
149.594
 21
92.487
 31
0.0
  0
LINE
  8
0
 62
     0
 10
149.594
 20
92.487
 30
0.0
 11
149.594
 21
78.4874
 31
0.0
  0
LINE
  8
0
 62
     0
 10
149.594
 20
78.4874
 30
0.0
 11
135.593
 21
78.4874
 31
0.0
  0
LINE
  8
0
 62
     0
 10
135.593
 20
78.4874
 30
0.0
 11
135.593
 21
92.487
 31
0.0
  0
LINE
  8
0
 62
     0
 10
140.357
 20
35.337
 30
0.0
 11
154.357
 21
35.337
 31
0.0
  0
LINE
  8
0
 62
     0
 10
154.357
 20
35.337
 30
0.0
 11
154.357
 21
21.3376
 31
0.0
  0
LINE
  8
0
 62
     0
 10
154.357
 20
21.3376
 30
0.0
 11
140.357
 21
21.3376
 31
0.0
  0
LINE
  8
0
 62
     0
 10
140.357
 20
21.3376
 30
0.0
 11
140.357
 21
35.337
 31
0.0
  0
LINE
  8
0
 62
     0
 10
145.118
 20
73.437
 30
0.0
 11
159.119
 21
73.437
 31
0.0
  0
LINE
  8
0
 62
     0
 10
159.119
 20
73.437
 30
0.0
 11
159.119
 21
59.4374
 31
0.0
  0
LINE
  8
0
 62
     0
 10
159.119
 20
59.4374
 30
0.0
 11
145.118
 21
59.4374
 31
0.0
  0
LINE
  8
0
 62
     0
 10
145.118
 20
59.4374
 30
0.0
 11
145.118
 21
73.437
 31
0.0
  0
LINE
  8
0
 62
     0
 10
149.881
 20
54.387
 30
0.0
 11
163.88
 21
54.387
 31
0.0
  0
LINE
  8
0
 62
     0
 10
163.88
 20
54.387
 30
0.0
 11
163.88
 21
40.3874
 31
0.0
  0
LINE
  8
0
 62
     0
 10
163.88
 20
40.3874
 30
0.0
 11
149.881
 21
40.3874
 31
0.0
  0
LINE
  8
0
 62
     0
 10
149.881
 20
40.3874
 30
0.0
 11
149.881
 21
54.387
 31
0.0
  0
LINE
  8
0
 62
     0
 10
154.643
 20
92.487
 30
0.0
 11
168.644
 21
92.487
 31
0.0
  0
LINE
  8
0
 62
     0
 10
168.644
 20
92.487
 30
0.0
 11
168.644
 21
78.4874
 31
0.0
  0
LINE
  8
0
 62
     0
 10
168.644
 20
78.4874
 30
0.0
 11
154.643
 21
78.4874
 31
0.0
  0
LINE
  8
0
 62
     0
 10
154.643
 20
78.4874
 30
0.0
 11
154.643
 21
92.487
 31
0.0
  0
LINE
  8
0
 62
     0
 10
159.407
 20
35.337
 30
0.0
 11
173.407
 21
35.337
 31
0.0
  0
LINE
  8
0
 62
     0
 10
173.407
 20
35.337
 30
0.0
 11
173.407
 21
21.3376
 31
0.0
  0
LINE
  8
0
 62
     0
 10
173.407
 20
21.3376
 30
0.0
 11
159.407
 21
21.3376
 31
0.0
  0
LINE
  8
0
 62
     0
 10
159.407
 20
21.3376
 30
0.0
 11
159.407
 21
35.337
 31
0.0
  0
LINE
  8
0
 62
     0
 10
164.168
 20
73.437
 30
0.0
 11
178.169
 21
73.437
 31
0.0
  0
LINE
  8
0
 62
     0
 10
178.169
 20
73.437
 30
0.0
 11
178.169
 21
59.4374
 31
0.0
  0
LINE
  8
0
 62
     0
 10
178.169
 20
59.4374
 30
0.0
 11
164.168
 21
59.4374
 31
0.0
  0
LINE
  8
0
 62
     0
 10
164.168
 20
59.4374
 30
0.0
 11
164.168
 21
73.437
 31
0.0
  0
LINE
  8
0
 62
     0
 10
179.038
 20
15.7372
 30
0.0
 11
182.338
 21
15.7372
 31
0.0
  0
LINE
  8
0
 62
     0
 10
182.338
 20
15.7372
 30
0.0
 11
182.338
 21
1.53789
 31
0.0
  0
LINE
  8
0
 62
     0
 10
182.338
 20
1.53789
 30
0.0
 11
179.038
 21
1.53789
 31
0.0
  0
LINE
  8
0
 62
     0
 10
179.038
 20
1.53789
 30
0.0
 11
179.038
 21
15.7372
 31
0.0
  0
LINE
  8
0
 62
     0
 10
168.932
 20
54.387
 30
0.0
 11
182.932
 21
54.387
 31
0.0
  0
LINE
  8
0
 62
     0
 10
182.932
 20
54.387
 30
0.0
 11
182.932
 21
40.3874
 31
0.0
  0
LINE
  8
0
 62
     0
 10
182.932
 20
40.3874
 30
0.0
 11
168.932
 21
40.3874
 31
0.0
  0
LINE
  8
0
 62
     0
 10
168.932
 20
40.3874
 30
0.0
 11
168.932
 21
54.387
 31
0.0
  0
LINE
  8
0
 62
     0
 10
173.693
 20
92.487
 30
0.0
 11
187.694
 21
92.487
 31
0.0
  0
LINE
  8
0
 62
     0
 10
187.694
 20
92.487
 30
0.0
 11
187.694
 21
78.4874
 31
0.0
  0
LINE
  8
0
 62
     0
 10
187.694
 20
78.4874
 30
0.0
 11
173.693
 21
78.4874
 31
0.0
  0
LINE
  8
0
 62
     0
 10
173.693
 20
78.4874
 30
0.0
 11
173.693
 21
92.487
 31
0.0
  0
LINE
  8
0
 62
     0
 10
178.457
 20
35.337
 30
0.0
 11
192.457
 21
35.337
 31
0.0
  0
LINE
  8
0
 62
     0
 10
192.457
 20
35.337
 30
0.0
 11
192.457
 21
21.3376
 31
0.0
  0
LINE
  8
0
 62
     0
 10
192.457
 20
21.3376
 30
0.0
 11
178.457
 21
21.3376
 31
0.0
  0
LINE
  8
0
 62
     0
 10
178.457
 20
21.3376
 30
0.0
 11
178.457
 21
35.337
 31
0.0
  0
LINE
  8
0
 62
     0
 10
193.094
 20
9.48778
 30
0.0
 11
192.972
 21
10.2609
 31
0.0
  0
LINE
  8
0
 62
     0
 10
192.972
 20
10.2609
 30
0.0
 11
192.617
 21
10.9568
 31
0.0
  0
LINE
  8
0
 62
     0
 10
192.617
 20
10.9568
 30
0.0
 11
192.063
 21
11.5108
 31
0.0
  0
LINE
  8
0
 62
     0
 10
192.063
 20
11.5108
 30
0.0
 11
191.367
 21
11.8663
 31
0.0
  0
LINE
  8
0
 62
     0
 10
191.367
 20
11.8663
 30
0.0
 11
190.594
 21
11.9876
 31
0.0
  0
LINE
  8
0
 62
     0
 10
190.594
 20
11.9876
 30
0.0
 11
189.821
 21
11.8663
 31
0.0
  0
LINE
  8
0
 62
     0
 10
189.821
 20
11.8663
 30
0.0
 11
189.125
 21
11.5108
 31
0.0
  0
LINE
  8
0
 62
     0
 10
189.125
 20
11.5108
 30
0.0
 11
188.571
 21
10.9568
 31
0.0
  0
LINE
  8
0
 62
     0
 10
188.571
 20
10.9568
 30
0.0
 11
188.215
 21
10.2609
 31
0.0
  0
LINE
  8
0
 62
     0
 10
188.215
 20
10.2609
 30
0.0
 11
188.094
 21
9.48778
 31
0.0
  0
LINE
  8
0
 62
     0
 10
188.094
 20
9.48778
 30
0.0
 11
188.215
 21
8.7147
 31
0.0
  0
LINE
  8
0
 62
     0
 10
188.215
 20
8.7147
 30
0.0
 11
188.571
 21
8.01882
 31
0.0
  0
LINE
  8
0
 62
     0
 10
188.571
 20
8.01882
 30
0.0
 11
189.125
 21
7.46485
 31
0.0
  0
LINE
  8
0
 62
     0
 10
189.125
 20
7.46485
 30
0.0
 11
189.821
 21
7.10928
 31
0.0
  0
LINE
  8
0
 62
     0
 10
189.821
 20
7.10928
 30
0.0
 11
190.594
 21
6.98803
 31
0.0
  0
LINE
  8
0
 62
     0
 10
190.594
 20
6.98803
 30
0.0
 11
191.367
 21
7.10928
 31
0.0
  0
LINE
  8
0
 62
     0
 10
191.367
 20
7.10928
 30
0.0
 11
192.063
 21
7.46485
 31
0.0
  0
LINE
  8
0
 62
     0
 10
192.063
 20
7.46485
 30
0.0
 11
192.617
 21
8.01882
 31
0.0
  0
LINE
  8
0
 62
     0
 10
192.617
 20
8.01882
 30
0.0
 11
192.972
 21
8.7147
 31
0.0
  0
LINE
  8
0
 62
     0
 10
192.972
 20
8.7147
 30
0.0
 11
193.094
 21
9.48778
 31
0.0
  0
LINE
  8
0
 62
     0
 10
183.218
 20
73.437
 30
0.0
 11
197.219
 21
73.437
 31
0.0
  0
LINE
  8
0
 62
     0
 10
197.219
 20
73.437
 30
0.0
 11
197.219
 21
59.4374
 31
0.0
  0
LINE
  8
0
 62
     0
 10
197.219
 20
59.4374
 30
0.0
 11
183.218
 21
59.4374
 31
0.0
  0
LINE
  8
0
 62
     0
 10
183.218
 20
59.4374
 30
0.0
 11
183.218
 21
73.437
 31
0.0
  0
LINE
  8
0
 62
     0
 10
187.982
 20
54.387
 30
0.0
 11
201.982
 21
54.387
 31
0.0
  0
LINE
  8
0
 62
     0
 10
201.982
 20
54.387
 30
0.0
 11
201.982
 21
40.3874
 31
0.0
  0
LINE
  8
0
 62
     0
 10
201.982
 20
40.3874
 30
0.0
 11
187.982
 21
40.3874
 31
0.0
  0
LINE
  8
0
 62
     0
 10
187.982
 20
40.3874
 30
0.0
 11
187.982
 21
54.387
 31
0.0
  0
LINE
  8
0
 62
     0
 10
192.743
 20
92.487
 30
0.0
 11
206.744
 21
92.487
 31
0.0
  0
LINE
  8
0
 62
     0
 10
206.744
 20
92.487
 30
0.0
 11
206.744
 21
78.4874
 31
0.0
  0
LINE
  8
0
 62
     0
 10
206.744
 20
78.4874
 30
0.0
 11
192.743
 21
78.4874
 31
0.0
  0
LINE
  8
0
 62
     0
 10
192.743
 20
78.4874
 30
0.0
 11
192.743
 21
92.487
 31
0.0
  0
LINE
  8
0
 62
     0
 10
195.125
 20
16.287
 30
0.0
 11
209.124
 21
16.287
 31
0.0
  0
LINE
  8
0
 62
     0
 10
209.124
 20
16.287
 30
0.0
 11
209.124
 21
2.28755
 31
0.0
  0
LINE
  8
0
 62
     0
 10
209.124
 20
2.28755
 30
0.0
 11
195.125
 21
2.28755
 31
0.0
  0
LINE
  8
0
 62
     0
 10
195.125
 20
2.28755
 30
0.0
 11
195.125
 21
16.287
 31
0.0
  0
LINE
  8
0
 62
     0
 10
197.507
 20
35.337
 30
0.0
 11
211.507
 21
35.337
 31
0.0
  0
LINE
  8
0
 62
     0
 10
211.507
 20
35.337
 30
0.0
 11
211.507
 21
21.3376
 31
0.0
  0
LINE
  8
0
 62
     0
 10
211.507
 20
21.3376
 30
0.0
 11
197.507
 21
21.3376
 31
0.0
  0
LINE
  8
0
 62
     0
 10
197.507
 20
21.3376
 30
0.0
 11
197.507
 21
35.337
 31
0.0
  0
LINE
  8
0
 62
     0
 10
202.268
 20
73.437
 30
0.0
 11
216.269
 21
73.437
 31
0.0
  0
LINE
  8
0
 62
     0
 10
216.269
 20
73.437
 30
0.0
 11
216.269
 21
59.4374
 31
0.0
  0
LINE
  8
0
 62
     0
 10
216.269
 20
59.4374
 30
0.0
 11
202.268
 21
59.4374
 31
0.0
  0
LINE
  8
0
 62
     0
 10
202.268
 20
59.4374
 30
0.0
 11
202.268
 21
73.437
 31
0.0
  0
LINE
  8
0
 62
     0
 10
207.032
 20
54.387
 30
0.0
 11
221.032
 21
54.387
 31
0.0
  0
LINE
  8
0
 62
     0
 10
221.032
 20
54.387
 30
0.0
 11
221.032
 21
40.3874
 31
0.0
  0
LINE
  8
0
 62
     0
 10
221.032
 20
40.3874
 30
0.0
 11
207.032
 21
40.3874
 31
0.0
  0
LINE
  8
0
 62
     0
 10
207.032
 20
40.3874
 30
0.0
 11
207.032
 21
54.387
 31
0.0
  0
LINE
  8
0
 62
     0
 10
211.793
 20
92.487
 30
0.0
 11
225.794
 21
92.487
 31
0.0
  0
LINE
  8
0
 62
     0
 10
225.794
 20
92.487
 30
0.0
 11
225.794
 21
78.4874
 31
0.0
  0
LINE
  8
0
 62
     0
 10
225.794
 20
78.4874
 30
0.0
 11
211.793
 21
78.4874
 31
0.0
  0
LINE
  8
0
 62
     0
 10
211.793
 20
78.4874
 30
0.0
 11
211.793
 21
92.487
 31
0.0
  0
LINE
  8
0
 62
     0
 10
216.557
 20
35.337
 30
0.0
 11
230.557
 21
35.337
 31
0.0
  0
LINE
  8
0
 62
     0
 10
230.557
 20
35.337
 30
0.0
 11
230.557
 21
21.3376
 31
0.0
  0
LINE
  8
0
 62
     0
 10
230.557
 20
21.3376
 30
0.0
 11
216.557
 21
21.3376
 31
0.0
  0
LINE
  8
0
 62
     0
 10
216.557
 20
21.3376
 30
0.0
 11
216.557
 21
35.337
 31
0.0
  0
LINE
  8
0
 62
     0
 10
218.937
 20
16.287
 30
0.0
 11
232.938
 21
16.287
 31
0.0
  0
LINE
  8
0
 62
     0
 10
232.938
 20
16.287
 30
0.0
 11
232.938
 21
2.28755
 31
0.0
  0
LINE
  8
0
 62
     0
 10
232.938
 20
2.28755
 30
0.0
 11
218.937
 21
2.28755
 31
0.0
  0
LINE
  8
0
 62
     0
 10
218.937
 20
2.28755
 30
0.0
 11
218.937
 21
16.287
 31
0.0
  0
LINE
  8
0
 62
     0
 10
221.318
 20
73.437
 30
0.0
 11
235.319
 21
73.437
 31
0.0
  0
LINE
  8
0
 62
     0
 10
235.319
 20
73.437
 30
0.0
 11
235.319
 21
59.4374
 31
0.0
  0
LINE
  8
0
 62
     0
 10
235.319
 20
59.4374
 30
0.0
 11
221.318
 21
59.4374
 31
0.0
  0
LINE
  8
0
 62
     0
 10
221.318
 20
59.4374
 30
0.0
 11
221.318
 21
73.437
 31
0.0
  0
LINE
  8
0
 62
     0
 10
226.082
 20
54.387
 30
0.0
 11
240.082
 21
54.387
 31
0.0
  0
LINE
  8
0
 62
     0
 10
240.082
 20
54.387
 30
0.0
 11
240.082
 21
40.3874
 31
0.0
  0
LINE
  8
0
 62
     0
 10
240.082
 20
40.3874
 30
0.0
 11
226.082
 21
40.3874
 31
0.0
  0
LINE
  8
0
 62
     0
 10
226.082
 20
40.3874
 30
0.0
 11
226.082
 21
54.387
 31
0.0
  0
LINE
  8
0
 62
     0
 10
230.843
 20
92.487
 30
0.0
 11
244.844
 21
92.487
 31
0.0
  0
LINE
  8
0
 62
     0
 10
244.844
 20
92.487
 30
0.0
 11
244.844
 21
78.4874
 31
0.0
  0
LINE
  8
0
 62
     0
 10
244.844
 20
78.4874
 30
0.0
 11
230.843
 21
78.4874
 31
0.0
  0
LINE
  8
0
 62
     0
 10
230.843
 20
78.4874
 30
0.0
 11
230.843
 21
92.487
 31
0.0
  0
LINE
  8
0
 62
     0
 10
245.675
 20
34.7872
 30
0.0
 11
248.974
 21
34.7872
 31
0.0
  0
LINE
  8
0
 62
     0
 10
248.974
 20
34.7872
 30
0.0
 11
248.974
 21
20.5879
 31
0.0
  0
LINE
  8
0
 62
     0
 10
248.974
 20
20.5879
 30
0.0
 11
245.675
 21
20.5879
 31
0.0
  0
LINE
  8
0
 62
     0
 10
245.675
 20
20.5879
 30
0.0
 11
245.675
 21
34.7872
 31
0.0
  0
LINE
  8
0
 62
     0
 10
250.438
 20
53.8371
 30
0.0
 11
253.738
 21
53.8371
 31
0.0
  0
LINE
  8
0
 62
     0
 10
253.738
 20
53.8371
 30
0.0
 11
253.738
 21
39.6378
 31
0.0
  0
LINE
  8
0
 62
     0
 10
253.738
 20
39.6378
 30
0.0
 11
250.438
 21
39.6378
 31
0.0
  0
LINE
  8
0
 62
     0
 10
250.438
 20
39.6378
 30
0.0
 11
250.438
 21
53.8371
 31
0.0
  0
LINE
  8
0
 62
     0
 10
240.368
 20
73.437
 30
0.0
 11
254.369
 21
73.437
 31
0.0
  0
LINE
  8
0
 62
     0
 10
254.369
 20
73.437
 30
0.0
 11
254.369
 21
59.4374
 31
0.0
  0
LINE
  8
0
 62
     0
 10
254.369
 20
59.4374
 30
0.0
 11
240.368
 21
59.4374
 31
0.0
  0
LINE
  8
0
 62
     0
 10
240.368
 20
59.4374
 30
0.0
 11
240.368
 21
73.437
 31
0.0
  0
LINE
  8
0
 62
     0
 10
252.819
 20
91.9371
 30
0.0
 11
256.119
 21
91.9371
 31
0.0
  0
LINE
  8
0
 62
     0
 10
256.119
 20
91.9371
 30
0.0
 11
256.119
 21
77.7378
 31
0.0
  0
LINE
  8
0
 62
     0
 10
256.119
 20
77.7378
 30
0.0
 11
252.819
 21
77.7378
 31
0.0
  0
LINE
  8
0
 62
     0
 10
252.819
 20
77.7378
 30
0.0
 11
252.819
 21
91.9371
 31
0.0
  0
LINE
  8
0
 62
     0
 10
242.75
 20
16.287
 30
0.0
 11
256.749
 21
16.287
 31
0.0
  0
LINE
  8
0
 62
     0
 10
256.749
 20
16.287
 30
0.0
 11
256.749
 21
2.28755
 31
0.0
  0
LINE
  8
0
 62
     0
 10
256.749
 20
2.28755
 30
0.0
 11
242.75
 21
2.28755
 31
0.0
  0
LINE
  8
0
 62
     0
 10
242.75
 20
2.28755
 30
0.0
 11
242.75
 21
16.287
 31
0.0
  0
LINE
  8
0
 62
     0
 10
262.643
 20
66.7879
 30
0.0
 11
262.522
 21
67.5612
 31
0.0
  0
LINE
  8
0
 62
     0
 10
262.522
 20
67.5612
 30
0.0
 11
262.166
 21
68.2569
 31
0.0
  0
LINE
  8
0
 62
     0
 10
262.166
 20
68.2569
 30
0.0
 11
261.612
 21
68.8111
 31
0.0
  0
LINE
  8
0
 62
     0
 10
261.612
 20
68.8111
 30
0.0
 11
260.916
 21
69.1653
 31
0.0
  0
LINE
  8
0
 62
     0
 10
260.916
 20
69.1653
 30
0.0
 11
260.143
 21
69.2877
 31
0.0
  0
LINE
  8
0
 62
     0
 10
260.143
 20
69.2877
 30
0.0
 11
259.37
 21
69.1653
 31
0.0
  0
LINE
  8
0
 62
     0
 10
259.37
 20
69.1653
 30
0.0
 11
258.674
 21
68.8111
 31
0.0
  0
LINE
  8
0
 62
     0
 10
258.674
 20
68.8111
 30
0.0
 11
258.12
 21
68.2569
 31
0.0
  0
LINE
  8
0
 62
     0
 10
258.12
 20
68.2569
 30
0.0
 11
257.766
 21
67.5612
 31
0.0
  0
LINE
  8
0
 62
     0
 10
257.766
 20
67.5612
 30
0.0
 11
257.643
 21
66.7879
 31
0.0
  0
LINE
  8
0
 62
     0
 10
257.643
 20
66.7879
 30
0.0
 11
257.766
 21
66.015
 31
0.0
  0
LINE
  8
0
 62
     0
 10
257.766
 20
66.015
 30
0.0
 11
258.12
 21
65.3189
 31
0.0
  0
LINE
  8
0
 62
     0
 10
258.12
 20
65.3189
 30
0.0
 11
258.674
 21
64.7651
 31
0.0
  0
LINE
  8
0
 62
     0
 10
258.674
 20
64.7651
 30
0.0
 11
259.37
 21
64.4095
 31
0.0
  0
LINE
  8
0
 62
     0
 10
259.37
 20
64.4095
 30
0.0
 11
260.143
 21
64.2881
 31
0.0
  0
LINE
  8
0
 62
     0
 10
260.143
 20
64.2881
 30
0.0
 11
260.916
 21
64.4095
 31
0.0
  0
LINE
  8
0
 62
     0
 10
260.916
 20
64.4095
 30
0.0
 11
261.612
 21
64.7651
 31
0.0
  0
LINE
  8
0
 62
     0
 10
261.612
 20
64.7651
 30
0.0
 11
262.166
 21
65.3189
 31
0.0
  0
LINE
  8
0
 62
     0
 10
262.166
 20
65.3189
 30
0.0
 11
262.522
 21
66.015
 31
0.0
  0
LINE
  8
0
 62
     0
 10
262.522
 20
66.015
 30
0.0
 11
262.643
 21
66.7879
 31
0.0
  0
LINE
  8
0
 62
     0
 10
252.275
 20
35.337
 30
0.0
 11
266.274
 21
35.337
 31
0.0
  0
LINE
  8
0
 62
     0
 10
266.274
 20
35.337
 30
0.0
 11
266.274
 21
21.3376
 31
0.0
  0
LINE
  8
0
 62
     0
 10
266.274
 20
21.3376
 30
0.0
 11
252.275
 21
21.3376
 31
0.0
  0
LINE
  8
0
 62
     0
 10
252.275
 20
21.3376
 30
0.0
 11
252.275
 21
35.337
 31
0.0
  0
LINE
  8
0
 62
     0
 10
257.037
 20
54.387
 30
0.0
 11
271.038
 21
54.387
 31
0.0
  0
LINE
  8
0
 62
     0
 10
271.038
 20
54.387
 30
0.0
 11
271.038
 21
40.3874
 31
0.0
  0
LINE
  8
0
 62
     0
 10
271.038
 20
40.3874
 30
0.0
 11
257.037
 21
40.3874
 31
0.0
  0
LINE
  8
0
 62
     0
 10
257.037
 20
40.3874
 30
0.0
 11
257.037
 21
54.387
 31
0.0
  0
LINE
  8
0
 62
     0
 10
269.574
 20
34.7872
 30
0.0
 11
272.875
 21
34.7872
 31
0.0
  0
LINE
  8
0
 62
     0
 10
272.875
 20
34.7872
 30
0.0
 11
272.875
 21
20.5879
 31
0.0
  0
LINE
  8
0
 62
     0
 10
272.875
 20
20.5879
 30
0.0
 11
269.574
 21
20.5879
 31
0.0
  0
LINE
  8
0
 62
     0
 10
269.574
 20
20.5879
 30
0.0
 11
269.574
 21
34.7872
 31
0.0
  0
LINE
  8
0
 62
     0
 10
259.418
 20
92.487
 30
0.0
 11
273.419
 21
92.487
 31
0.0
  0
LINE
  8
0
 62
     0
 10
273.419
 20
92.487
 30
0.0
 11
273.419
 21
78.4874
 31
0.0
  0
LINE
  8
0
 62
     0
 10
273.419
 20
78.4874
 30
0.0
 11
259.418
 21
78.4874
 31
0.0
  0
LINE
  8
0
 62
     0
 10
259.418
 20
78.4874
 30
0.0
 11
259.418
 21
92.487
 31
0.0
  0
LINE
  8
0
 62
     0
 10
274.337
 20
53.8371
 30
0.0
 11
277.638
 21
53.8371
 31
0.0
  0
LINE
  8
0
 62
     0
 10
277.638
 20
53.8371
 30
0.0
 11
277.638
 21
39.6378
 31
0.0
  0
LINE
  8
0
 62
     0
 10
277.638
 20
39.6378
 30
0.0
 11
274.337
 21
39.6378
 31
0.0
  0
LINE
  8
0
 62
     0
 10
274.337
 20
39.6378
 30
0.0
 11
274.337
 21
53.8371
 31
0.0
  0
LINE
  8
0
 62
     0
 10
264.182
 20
73.437
 30
0.0
 11
278.182
 21
73.437
 31
0.0
  0
LINE
  8
0
 62
     0
 10
278.182
 20
73.437
 30
0.0
 11
278.182
 21
59.4374
 31
0.0
  0
LINE
  8
0
 62
     0
 10
278.182
 20
59.4374
 30
0.0
 11
264.182
 21
59.4374
 31
0.0
  0
LINE
  8
0
 62
     0
 10
264.182
 20
59.4374
 30
0.0
 11
264.182
 21
73.437
 31
0.0
  0
LINE
  8
0
 62
     0
 10
276.718
 20
91.9371
 30
0.0
 11
280.019
 21
91.9371
 31
0.0
  0
LINE
  8
0
 62
     0
 10
280.019
 20
91.9371
 30
0.0
 11
280.019
 21
77.7378
 31
0.0
  0
LINE
  8
0
 62
     0
 10
280.019
 20
77.7378
 30
0.0
 11
276.718
 21
77.7378
 31
0.0
  0
LINE
  8
0
 62
     0
 10
276.718
 20
77.7378
 30
0.0
 11
276.718
 21
91.9371
 31
0.0
  0
LINE
  8
0
 62
     0
 10
266.562
 20
16.287
 30
0.0
 11
280.563
 21
16.287
 31
0.0
  0
LINE
  8
0
 62
     0
 10
280.563
 20
16.287
 30
0.0
 11
280.563
 21
2.28755
 31
0.0
  0
LINE
  8
0
 62
     0
 10
280.563
 20
2.28755
 30
0.0
 11
266.562
 21
2.28755
 31
0.0
  0
LINE
  8
0
 62
     0
 10
266.562
 20
2.28755
 30
0.0
 11
266.562
 21
16.287
 31
0.0
  0
LINE
  8
0
 62
     0
 10
285.094
 20
1.08727
 30
0.0
 11
285.094
 21
35.687
 31
0.0
  0
LINE
  8
0
 62
     0
 10
285.094
 20
35.687
 30
0.0
 11
281.593
 21
35.687
 31
0.0
  0
LINE
  8
0
 62
     0
 10
281.593
 20
35.687
 30
0.0
 11
280.821
 21
35.8098
 31
0.0
  0
LINE
  8
0
 62
     0
 10
280.821
 20
35.8098
 30
0.0
 11
280.124
 21
36.1654
 31
0.0
  0
LINE
  8
0
 62
     0
 10
280.124
 20
36.1654
 30
0.0
 11
279.571
 21
36.7178
 31
0.0
  0
LINE
  8
0
 62
     0
 10
279.571
 20
36.7178
 30
0.0
 11
279.215
 21
37.4153
 31
0.0
  0
LINE
  8
0
 62
     0
 10
279.215
 20
37.4153
 30
0.0
 11
279.094
 21
38.1868
 31
0.0
  0
LINE
  8
0
 62
     0
 10
279.094
 20
38.1868
 30
0.0
 11
279.094
 21
38.1882
 31
0.0
  0
LINE
  8
0
 62
     0
 10
279.094
 20
38.1882
 30
0.0
 11
279.215
 21
38.9611
 31
0.0
  0
LINE
  8
0
 62
     0
 10
279.215
 20
38.9611
 30
0.0
 11
279.571
 21
39.6572
 31
0.0
  0
LINE
  8
0
 62
     0
 10
279.571
 20
39.6572
 30
0.0
 11
280.124
 21
40.211
 31
0.0
  0
LINE
  8
0
 62
     0
 10
280.124
 20
40.211
 30
0.0
 11
280.821
 21
40.5652
 31
0.0
  0
LINE
  8
0
 62
     0
 10
280.821
 20
40.5652
 30
0.0
 11
281.593
 21
40.688
 31
0.0
  0
LINE
  8
0
 62
     0
 10
281.593
 20
40.688
 30
0.0
 11
285.094
 21
40.688
 31
0.0
  0
LINE
  8
0
 62
     0
 10
285.094
 20
40.688
 30
0.0
 11
285.094
 21
93.6872
 31
0.0
  0
LINE
  8
0
 62
     0
 10
285.094
 20
93.6872
 30
0.0
 11
285.091
 21
93.7659
 31
0.0
  0
LINE
  8
0
 62
     0
 10
285.091
 20
93.7659
 30
0.0
 11
285.081
 21
93.8445
 31
0.0
  0
LINE
  8
0
 62
     0
 10
285.081
 20
93.8445
 30
0.0
 11
285.065
 21
93.92
 31
0.0
  0
LINE
  8
0
 62
     0
 10
285.065
 20
93.92
 30
0.0
 11
285.044
 21
93.9973
 31
0.0
  0
LINE
  8
0
 62
     0
 10
285.044
 20
93.9973
 30
0.0
 11
285.018
 21
94.0703
 31
0.0
  0
LINE
  8
0
 62
     0
 10
285.018
 20
94.0703
 30
0.0
 11
284.985
 21
94.1419
 31
0.0
  0
LINE
  8
0
 62
     0
 10
284.985
 20
94.1419
 30
0.0
 11
284.947
 21
94.2097
 31
0.0
  0
LINE
  8
0
 62
     0
 10
284.947
 20
94.2097
 30
0.0
 11
284.903
 21
94.2756
 31
0.0
  0
LINE
  8
0
 62
     0
 10
284.903
 20
94.2756
 30
0.0
 11
284.854
 21
94.3363
 31
0.0
  0
LINE
  8
0
 62
     0
 10
284.854
 20
94.3363
 30
0.0
 11
284.801
 21
94.3942
 31
0.0
  0
LINE
  8
0
 62
     0
 10
284.801
 20
94.3942
 30
0.0
 11
284.743
 21
94.4481
 31
0.0
  0
LINE
  8
0
 62
     0
 10
284.743
 20
94.4481
 30
0.0
 11
284.682
 21
94.4961
 31
0.0
  0
LINE
  8
0
 62
     0
 10
284.682
 20
94.4961
 30
0.0
 11
284.616
 21
94.5402
 31
0.0
  0
LINE
  8
0
 62
     0
 10
284.616
 20
94.5402
 30
0.0
 11
284.548
 21
94.579
 31
0.0
  0
LINE
  8
0
 62
     0
 10
284.548
 20
94.579
 30
0.0
 11
284.477
 21
94.6118
 31
0.0
  0
LINE
  8
0
 62
     0
 10
284.477
 20
94.6118
 30
0.0
 11
284.402
 21
94.6383
 31
0.0
  0
LINE
  8
0
 62
     0
 10
284.402
 20
94.6383
 30
0.0
 11
284.327
 21
94.6602
 31
0.0
  0
LINE
  8
0
 62
     0
 10
284.327
 20
94.6602
 30
0.0
 11
284.249
 21
94.6753
 31
0.0
  0
LINE
  8
0
 62
     0
 10
284.249
 20
94.6753
 30
0.0
 11
284.172
 21
94.6849
 31
0.0
  0
LINE
  8
0
 62
     0
 10
284.172
 20
94.6849
 30
0.0
 11
284.094
 21
94.6877
 31
0.0
  0
LINE
  8
0
 62
     0
 10
284.094
 20
94.6877
 30
0.0
 11
1.09416
 21
94.6877
 31
0.0
  0
LINE
  8
0
 62
     0
 10
1.09416
 20
94.6877
 30
0.0
 11
1.01562
 21
94.6849
 31
0.0
  0
LINE
  8
0
 62
     0
 10
1.01562
 20
94.6849
 30
0.0
 11
0.937066
 21
94.6753
 31
0.0
  0
LINE
  8
0
 62
     0
 10
0.937066
 20
94.6753
 30
0.0
 11
0.861275
 21
94.6602
 31
0.0
  0
LINE
  8
0
 62
     0
 10
0.861275
 20
94.6602
 30
0.0
 11
0.784105
 21
94.6383
 31
0.0
  0
LINE
  8
0
 62
     0
 10
0.784105
 20
94.6383
 30
0.0
 11
0.711069
 21
94.6118
 31
0.0
  0
LINE
  8
0
 62
     0
 10
0.711069
 20
94.6118
 30
0.0
 11
0.63941
 21
94.579
 31
0.0
  0
LINE
  8
0
 62
     0
 10
0.63941
 20
94.579
 30
0.0
 11
0.571885
 21
94.5402
 31
0.0
  0
LINE
  8
0
 62
     0
 10
0.571885
 20
94.5402
 30
0.0
 11
0.505739
 21
94.4961
 31
0.0
  0
LINE
  8
0
 62
     0
 10
0.505739
 20
94.4961
 30
0.0
 11
0.445107
 21
94.4481
 31
0.0
  0
LINE
  8
0
 62
     0
 10
0.445107
 20
94.4481
 30
0.0
 11
0.38723
 21
94.3942
 31
0.0
  0
LINE
  8
0
 62
     0
 10
0.38723
 20
94.3942
 30
0.0
 11
0.333485
 21
94.3363
 31
0.0
  0
LINE
  8
0
 62
     0
 10
0.333485
 20
94.3363
 30
0.0
 11
0.285254
 21
94.2756
 31
0.0
  0
LINE
  8
0
 62
     0
 10
0.285254
 20
94.2756
 30
0.0
 11
0.241157
 21
94.2097
 31
0.0
  0
LINE
  8
0
 62
     0
 10
0.241157
 20
94.2097
 30
0.0
 11
0.202572
 21
94.1419
 31
0.0
  0
LINE
  8
0
 62
     0
 10
0.202572
 20
94.1419
 30
0.0
 11
0.169499
 21
94.0703
 31
0.0
  0
LINE
  8
0
 62
     0
 10
0.169499
 20
94.0703
 30
0.0
 11
0.143316
 21
93.9973
 31
0.0
  0
LINE
  8
0
 62
     0
 10
0.143316
 20
93.9973
 30
0.0
 11
0.121267
 21
93.92
 31
0.0
  0
LINE
  8
0
 62
     0
 10
0.121267
 20
93.92
 30
0.0
 11
0.106109
 21
93.8445
 31
0.0
  0
LINE
  8
0
 62
     0
 10
0.106109
 20
93.8445
 30
0.0
 11
0.0964629
 21
93.7659
 31
0.0
  0
LINE
  8
0
 62
     0
 10
0.0964629
 20
93.7659
 30
0.0
 11
0.0937066
 21
93.6872
 31
0.0
  0
LINE
  8
0
 62
     0
 10
0.0937066
 20
93.6872
 30
0.0
 11
0.0937066
 21
40.688
 31
0.0
  0
LINE
  8
0
 62
     0
 10
0.0937066
 20
40.688
 30
0.0
 11
3.5953
 21
40.688
 31
0.0
  0
LINE
  8
0
 62
     0
 10
3.5953
 20
40.688
 30
0.0
 11
4.367
 21
40.5652
 31
0.0
  0
LINE
  8
0
 62
     0
 10
4.367
 20
40.5652
 30
0.0
 11
5.0643
 21
40.211
 31
0.0
  0
LINE
  8
0
 62
     0
 10
5.0643
 20
40.211
 30
0.0
 11
5.61689
 21
39.6572
 31
0.0
  0
LINE
  8
0
 62
     0
 10
5.61689
 20
39.6572
 30
0.0
 11
5.97242
 21
38.9611
 31
0.0
  0
LINE
  8
0
 62
     0
 10
5.97242
 20
38.9611
 30
0.0
 11
6.09367
 21
38.1882
 31
0.0
  0
LINE
  8
0
 62
     0
 10
6.09367
 20
38.1882
 30
0.0
 11
6.09367
 21
38.1868
 31
0.0
  0
LINE
  8
0
 62
     0
 10
6.09367
 20
38.1868
 30
0.0
 11
5.97242
 21
37.4153
 31
0.0
  0
LINE
  8
0
 62
     0
 10
5.97242
 20
37.4153
 30
0.0
 11
5.61689
 21
36.7178
 31
0.0
  0
LINE
  8
0
 62
     0
 10
5.61689
 20
36.7178
 30
0.0
 11
5.0643
 21
36.1654
 31
0.0
  0
LINE
  8
0
 62
     0
 10
5.0643
 20
36.1654
 30
0.0
 11
4.367
 21
35.8098
 31
0.0
  0
LINE
  8
0
 62
     0
 10
4.367
 20
35.8098
 30
0.0
 11
3.5953
 21
35.687
 31
0.0
  0
LINE
  8
0
 62
     0
 10
3.5953
 20
35.687
 30
0.0
 11
0.0937066
 21
35.687
 31
0.0
  0
LINE
  8
0
 62
     0
 10
0.0937066
 20
35.687
 30
0.0
 11
0.0937066
 21
1.08727
 31
0.0
  0
LINE
  8
0
 62
     0
 10
0.0937066
 20
1.08727
 30
0.0
 11
0.0964629
 21
1.0101
 31
0.0
  0
LINE
  8
0
 62
     0
 10
0.0964629
 20
1.0101
 30
0.0
 11
0.106109
 21
0.931556
 31
0.0
  0
LINE
  8
0
 62
     0
 10
0.106109
 20
0.931556
 30
0.0
 11
0.121267
 21
0.854385
 31
0.0
  0
LINE
  8
0
 62
     0
 10
0.121267
 20
0.854385
 30
0.0
 11
0.143316
 21
0.778591
 31
0.0
  0
LINE
  8
0
 62
     0
 10
0.143316
 20
0.778591
 30
0.0
 11
0.169499
 21
0.704176
 31
0.0
  0
LINE
  8
0
 62
     0
 10
0.169499
 20
0.704176
 30
0.0
 11
0.202572
 21
0.633899
 31
0.0
  0
LINE
  8
0
 62
     0
 10
0.202572
 20
0.633899
 30
0.0
 11
0.241157
 21
0.566374
 31
0.0
  0
LINE
  8
0
 62
     0
 10
0.241157
 20
0.566374
 30
0.0
 11
0.285254
 21
0.500228
 31
0.0
  0
LINE
  8
0
 62
     0
 10
0.285254
 20
0.500228
 30
0.0
 11
0.333485
 21
0.438217
 31
0.0
  0
LINE
  8
0
 62
     0
 10
0.333485
 20
0.438217
 30
0.0
 11
0.38723
 21
0.38034
 31
0.0
  0
LINE
  8
0
 62
     0
 10
0.38723
 20
0.38034
 30
0.0
 11
0.445107
 21
0.327973
 31
0.0
  0
LINE
  8
0
 62
     0
 10
0.445107
 20
0.327973
 30
0.0
 11
0.505739
 21
0.278364
 31
0.0
  0
LINE
  8
0
 62
     0
 10
0.505739
 20
0.278364
 30
0.0
 11
0.571885
 21
0.234267
 31
0.0
  0
LINE
  8
0
 62
     0
 10
0.571885
 20
0.234267
 30
0.0
 11
0.63941
 21
0.19706
 31
0.0
  0
LINE
  8
0
 62
     0
 10
0.63941
 20
0.19706
 30
0.0
 11
0.711069
 21
0.163987
 31
0.0
  0
LINE
  8
0
 62
     0
 10
0.711069
 20
0.163987
 30
0.0
 11
0.784105
 21
0.136426
 31
0.0
  0
LINE
  8
0
 62
     0
 10
0.784105
 20
0.136426
 30
0.0
 11
0.861275
 21
0.115755
 31
0.0
  0
LINE
  8
0
 62
     0
 10
0.861275
 20
0.115755
 30
0.0
 11
0.937066
 21
0.0992188
 31
0.0
  0
LINE
  8
0
 62
     0
 10
0.937066
 20
0.0992188
 30
0.0
 11
1.01562
 21
0.0909507
 31
0.0
  0
LINE
  8
0
 62
     0
 10
1.01562
 20
0.0909507
 30
0.0
 11
1.09416
 21
0.0881944
 31
0.0
  0
LINE
  8
0
 62
     0
 10
1.09416
 20
0.0881944
 30
0.0
 11
284.094
 21
0.0881944
 31
0.0
  0
LINE
  8
0
 62
     0
 10
284.094
 20
0.0881944
 30
0.0
 11
284.172
 21
0.0909507
 31
0.0
  0
LINE
  8
0
 62
     0
 10
284.172
 20
0.0909507
 30
0.0
 11
284.249
 21
0.0992188
 31
0.0
  0
LINE
  8
0
 62
     0
 10
284.249
 20
0.0992188
 30
0.0
 11
284.327
 21
0.115755
 31
0.0
  0
LINE
  8
0
 62
     0
 10
284.327
 20
0.115755
 30
0.0
 11
284.402
 21
0.136426
 31
0.0
  0
LINE
  8
0
 62
     0
 10
284.402
 20
0.136426
 30
0.0
 11
284.477
 21
0.163987
 31
0.0
  0
LINE
  8
0
 62
     0
 10
284.477
 20
0.163987
 30
0.0
 11
284.548
 21
0.19706
 31
0.0
  0
LINE
  8
0
 62
     0
 10
284.548
 20
0.19706
 30
0.0
 11
284.616
 21
0.234267
 31
0.0
  0
LINE
  8
0
 62
     0
 10
284.616
 20
0.234267
 30
0.0
 11
284.682
 21
0.278364
 31
0.0
  0
LINE
  8
0
 62
     0
 10
284.682
 20
0.278364
 30
0.0
 11
284.743
 21
0.327973
 31
0.0
  0
LINE
  8
0
 62
     0
 10
284.743
 20
0.327973
 30
0.0
 11
284.801
 21
0.38034
 31
0.0
  0
LINE
  8
0
 62
     0
 10
284.801
 20
0.38034
 30
0.0
 11
284.854
 21
0.438217
 31
0.0
  0
LINE
  8
0
 62
     0
 10
284.854
 20
0.438217
 30
0.0
 11
284.903
 21
0.500228
 31
0.0
  0
LINE
  8
0
 62
     0
 10
284.903
 20
0.500228
 30
0.0
 11
284.947
 21
0.566374
 31
0.0
  0
LINE
  8
0
 62
     0
 10
284.947
 20
0.566374
 30
0.0
 11
284.985
 21
0.633899
 31
0.0
  0
LINE
  8
0
 62
     0
 10
284.985
 20
0.633899
 30
0.0
 11
285.018
 21
0.704176
 31
0.0
  0
LINE
  8
0
 62
     0
 10
285.018
 20
0.704176
 30
0.0
 11
285.044
 21
0.778591
 31
0.0
  0
LINE
  8
0
 62
     0
 10
285.044
 20
0.778591
 30
0.0
 11
285.065
 21
0.854385
 31
0.0
  0
LINE
  8
0
 62
     0
 10
285.065
 20
0.854385
 30
0.0
 11
285.081
 21
0.931556
 31
0.0
  0
LINE
  8
0
 62
     0
 10
285.081
 20
0.931556
 30
0.0
 11
285.091
 21
1.0101
 31
0.0
  0
LINE
  8
0
 62
     0
 10
285.091
 20
1.0101
 30
0.0
 11
285.094
 21
1.08727
 31
0.0
  0
ENDSEC
  0
EOF
