<?xml version="1.0"?>
<!-- Generated by SVGo -->
<svg width="295.000mm" height="104.600mm"
     viewBox="0.000 0.000 295.000 104.600"
     xmlns="http://www.w3.org/2000/svg" 
     xmlns:xlink="http://www.w3.org/1999/xlink">
<polygon points="21.150,20.200 21.150,21.200 7.150,21.200 7.150,20.200 6.350,20.200 6.350,17.100 7.150,17.100 7.150,11.300 6.350,11.300 6.350,8.200 7.150,8.200 7.150,7.200 21.150,7.200 21.150,8.200 21.950,8.200 21.950,11.300 21.150,11.300 21.150,17.100 21.950,17.100 21.950,20.200" style="fill:none;stroke-width:0.2;stroke:black"/>
<polygon points="23.531,96.400 23.531,97.400 9.531,97.400 9.531,96.400 8.731,96.400 8.731,93.300 9.531,93.300 9.531,87.500 8.731,87.500 8.731,84.400 9.531,84.400 9.531,83.400 23.531,83.400 23.531,84.400 24.331,84.400 24.331,87.500 23.531,87.500 23.531,93.300 24.331,93.300 24.331,96.400" style="fill:none;stroke-width:0.2;stroke:black"/>
<polygon points="25.913,39.250 25.913,40.250 11.913,40.250 11.913,39.250 11.113,39.250 11.113,36.150 11.913,36.150 11.913,30.350 11.113,30.350 11.113,27.250 11.913,27.250 11.913,26.250 25.913,26.250 25.913,27.250 26.713,27.250 26.713,30.350 25.913,30.350 25.913,36.150 26.713,36.150 26.713,39.250" style="fill:none;stroke-width:0.2;stroke:black"/>
<polygon points="28.294,58.300 28.294,59.300 14.294,59.300 14.294,58.300 13.494,58.300 13.494,55.200 14.294,55.200 14.294,49.400 13.494,49.400 13.494,46.300 14.294,46.300 14.294,45.300 28.294,45.300 28.294,46.300 29.094,46.300 29.094,49.400 28.294,49.400 28.294,55.200 29.094,55.200 29.094,58.300" style="fill:none;stroke-width:0.2;stroke:black"/>
<polygon points="32.700,32.900 32.578,32.127 32.223,31.431 31.669,30.877 30.973,30.522 30.200,30.400 29.427,30.522 28.731,30.877 28.177,31.431 27.822,32.127 27.700,32.900 27.822,33.673 28.177,34.369 28.731,34.923 29.427,35.278 30.200,35.400 30.973,35.278 31.669,34.923 32.223,34.369 32.578,33.673" style="fill:none;stroke-width:0.2;stroke:black"/>
<polygon points="40.200,20.200 40.200,21.200 26.200,21.200 26.200,20.200 25.400,20.200 25.400,17.100 26.200,17.100 26.200,11.300 25.400,11.300 25.400,8.200 26.200,8.200 26.200,7.200 40.200,7.200 40.200,8.200 41.000,8.200 41.000,11.300 40.200,11.300 40.200,17.100 41.000,17.100 41.000,20.200" style="fill:none;stroke-width:0.2;stroke:black"/>
<polygon points="41.281,71.850 41.281,78.120 39.656,78.120 39.656,79.100 36.356,79.100 36.356,78.120 34.631,78.120 34.631,77.320 33.856,77.320 33.856,77.350 33.056,77.350 33.056,78.350 19.056,78.350 19.056,77.350 18.256,77.350 18.256,77.320 17.481,77.320 17.481,78.120 15.756,78.120 15.756,79.100 12.456,79.100 12.456,78.120 10.831,78.120 10.831,71.850 9.956,71.850 9.956,69.050 10.831,69.050 10.831,65.820 12.456,65.820 12.456,64.900 15.756,64.900 15.756,65.820 17.481,65.820 17.481,66.620 18.256,66.620 18.256,65.350 19.056,65.350 19.056,64.350 33.056,64.350 33.056,65.350 33.856,65.350 33.856,66.620 34.631,66.620 34.631,65.820 36.356,65.820 36.356,64.900 39.656,64.900 39.656,65.820 41.281,65.820 41.281,69.050 42.156,69.050 42.156,71.850" style="fill:none;stroke-width:0.2;stroke:black"/>
<polygon points="47.344,96.400 47.344,97.400 33.344,97.400 33.344,96.400 32.544,96.400 32.544,93.300 33.344,93.300 33.344,87.500 32.544,87.500 32.544,84.400 33.344,84.400 33.344,83.400 47.344,83.400 47.344,84.400 48.144,84.400 48.144,87.500 47.344,87.500 47.344,93.300 48.144,93.300 48.144,96.400" style="fill:none;stroke-width:0.2;stroke:black"/>
<polygon points="49.725,39.250 49.725,40.250 35.725,40.250 35.725,39.250 34.925,39.250 34.925,36.150 35.725,36.150 35.725,30.350 34.925,30.350 34.925,27.250 35.725,27.250 35.725,26.250 49.725,26.250 49.725,27.250 50.525,27.250 50.525,30.350 49.725,30.350 49.725,36.150 50.525,36.150 50.525,39.250" style="fill:none;stroke-width:0.2;stroke:black"/>
<polygon points="54.487,58.300 54.487,59.300 40.487,59.300 40.487,58.300 39.688,58.300 39.688,55.200 40.487,55.200 40.487,49.400 39.688,49.400 39.688,46.300 40.487,46.300 40.487,45.300 54.487,45.300 54.487,46.300 55.287,46.300 55.287,49.400 54.487,49.400 54.487,55.200 55.287,55.200 55.287,58.300" style="fill:none;stroke-width:0.2;stroke:black"/>
<polygon points="59.250,20.200 59.250,21.200 45.250,21.200 45.250,20.200 44.450,20.200 44.450,17.100 45.250,17.100 45.250,11.300 44.450,11.300 44.450,8.200 45.250,8.200 45.250,7.200 59.250,7.200 59.250,8.200 60.050,8.200 60.050,11.300 59.250,11.300 59.250,17.100 60.050,17.100 60.050,20.200" style="fill:none;stroke-width:0.2;stroke:black"/>
<polygon points="64.013,77.350 64.013,78.350 50.013,78.350 50.013,77.350 49.213,77.350 49.213,74.250 50.013,74.250 50.013,68.450 49.213,68.450 49.213,65.350 50.013,65.350 50.013,64.350 64.013,64.350 64.013,65.350 64.812,65.350 64.812,68.450 64.013,68.450 64.013,74.250 64.812,74.250 64.812,77.350" style="fill:none;stroke-width:0.2;stroke:black"/>
<polygon points="68.775,39.250 68.775,40.250 54.775,40.250 54.775,39.250 53.975,39.250 53.975,36.150 54.775,36.150 54.775,30.350 53.975,30.350 53.975,27.250 54.775,27.250 54.775,26.250 68.775,26.250 68.775,27.250 69.575,27.250 69.575,30.350 68.775,30.350 68.775,36.150 69.575,36.150 69.575,39.250" style="fill:none;stroke-width:0.2;stroke:black"/>
<polygon points="71.156,96.400 71.156,97.400 57.156,97.400 57.156,96.400 56.356,96.400 56.356,93.300 57.156,93.300 57.156,87.500 56.356,87.500 56.356,84.400 57.156,84.400 57.156,83.400 71.156,83.400 71.156,84.400 71.956,84.400 71.956,87.500 71.156,87.500 71.156,93.300 71.956,93.300 71.956,96.400" style="fill:none;stroke-width:0.2;stroke:black"/>
<polygon points="73.537,58.300 73.537,59.300 59.537,59.300 59.537,58.300 58.737,58.300 58.737,55.200 59.537,55.200 59.537,49.400 58.737,49.400 58.737,46.300 59.537,46.300 59.537,45.300 73.537,45.300 73.537,46.300 74.337,46.300 74.337,49.400 73.537,49.400 73.537,55.200 74.337,55.200 74.337,58.300" style="fill:none;stroke-width:0.2;stroke:black"/>
<polygon points="78.300,20.200 78.300,21.200 64.300,21.200 64.300,20.200 63.500,20.200 63.500,17.100 64.300,17.100 64.300,11.300 63.500,11.300 63.500,8.200 64.300,8.200 64.300,7.200 78.300,7.200 78.300,8.200 79.100,8.200 79.100,11.300 78.300,11.300 78.300,17.100 79.100,17.100 79.100,20.200" style="fill:none;stroke-width:0.2;stroke:black"/>
<polygon points="83.062,77.350 83.062,78.350 69.062,78.350 69.062,77.350 68.263,77.350 68.263,74.250 69.062,74.250 69.062,68.450 68.263,68.450 68.263,65.350 69.062,65.350 69.062,64.350 83.062,64.350 83.062,65.350 83.862,65.350 83.862,68.450 83.062,68.450 83.062,74.250 83.862,74.250 83.862,77.350" style="fill:none;stroke-width:0.2;stroke:black"/>
<polygon points="87.825,39.250 87.825,40.250 73.825,40.250 73.825,39.250 73.025,39.250 73.025,36.150 73.825,36.150 73.825,30.350 73.025,30.350 73.025,27.250 73.825,27.250 73.825,26.250 87.825,26.250 87.825,27.250 88.625,27.250 88.625,30.350 87.825,30.350 87.825,36.150 88.625,36.150 88.625,39.250" style="fill:none;stroke-width:0.2;stroke:black"/>
<polygon points="92.587,58.300 92.587,59.300 78.587,59.300 78.587,58.300 77.787,58.300 77.787,55.200 78.587,55.200 78.587,49.400 77.787,49.400 77.787,46.300 78.587,46.300 78.587,45.300 92.587,45.300 92.587,46.300 93.387,46.300 93.387,49.400 92.587,49.400 92.587,55.200 93.387,55.200 93.387,58.300" style="fill:none;stroke-width:0.2;stroke:black"/>
<polygon points="97.350,20.200 97.350,21.200 83.350,21.200 83.350,20.200 82.550,20.200 82.550,17.100 83.350,17.100 83.350,11.300 82.550,11.300 82.550,8.200 83.350,8.200 83.350,7.200 97.350,7.200 97.350,8.200 98.150,8.200 98.150,11.300 97.350,11.300 97.350,17.100 98.150,17.100 98.150,20.200" style="fill:none;stroke-width:0.2;stroke:black"/>
<polygon points="102.112,77.350 102.112,78.350 88.112,78.350 88.112,77.350 87.312,77.350 87.312,74.250 88.112,74.250 88.112,68.450 87.312,68.450 87.312,65.350 88.112,65.350 88.112,64.350 102.112,64.350 102.112,65.350 102.912,65.350 102.912,68.450 102.112,68.450 102.112,74.250 102.912,74.250 102.912,77.350" style="fill:none;stroke-width:0.2;stroke:black"/>
<polygon points="106.875,39.250 106.875,40.250 92.875,40.250 92.875,39.250 92.075,39.250 92.075,36.150 92.875,36.150 92.875,30.350 92.075,30.350 92.075,27.250 92.875,27.250 92.875,26.250 106.875,26.250 106.875,27.250 107.675,27.250 107.675,30.350 106.875,30.350 106.875,36.150 107.675,36.150 107.675,39.250" style="fill:none;stroke-width:0.2;stroke:black"/>
<polygon points="111.637,58.300 111.637,59.300 97.637,59.300 97.637,58.300 96.837,58.300 96.837,55.200 97.637,55.200 97.637,49.400 96.837,49.400 96.837,46.300 97.637,46.300 97.637,45.300 111.637,45.300 111.637,46.300 112.437,46.300 112.437,49.400 111.637,49.400 111.637,55.200 112.437,55.200 112.437,58.300" style="fill:none;stroke-width:0.2;stroke:black"/>
<polygon points="116.400,20.200 116.400,21.200 102.400,21.200 102.400,20.200 101.600,20.200 101.600,17.100 102.400,17.100 102.400,11.300 101.600,11.300 101.600,8.200 102.400,8.200 102.400,7.200 116.400,7.200 116.400,8.200 117.200,8.200 117.200,11.300 116.400,11.300 116.400,17.100 117.200,17.100 117.200,20.200" style="fill:none;stroke-width:0.2;stroke:black"/>
<polygon points="121.162,77.350 121.162,78.350 107.162,78.350 107.162,77.350 106.362,77.350 106.362,74.250 107.162,74.250 107.162,68.450 106.362,68.450 106.362,65.350 107.162,65.350 107.162,64.350 121.162,64.350 121.162,65.350 121.962,65.350 121.962,68.450 121.162,68.450 121.162,74.250 121.962,74.250 121.962,77.350" style="fill:none;stroke-width:0.2;stroke:black"/>
<polygon points="125.925,39.250 125.925,40.250 111.925,40.250 111.925,39.250 111.125,39.250 111.125,36.150 111.925,36.150 111.925,30.350 111.125,30.350 111.125,27.250 111.925,27.250 111.925,26.250 125.925,26.250 125.925,27.250 126.725,27.250 126.725,30.350 125.925,30.350 125.925,36.150 126.725,36.150 126.725,39.250" style="fill:none;stroke-width:0.2;stroke:black"/>
<polygon points="130.688,58.300 130.688,59.300 116.687,59.300 116.687,58.300 115.887,58.300 115.887,55.200 116.687,55.200 116.687,49.400 115.887,49.400 115.887,46.300 116.687,46.300 116.687,45.300 130.688,45.300 130.688,46.300 131.487,46.300 131.487,49.400 130.688,49.400 130.688,55.200 131.487,55.200 131.487,58.300" style="fill:none;stroke-width:0.2;stroke:black"/>
<polygon points="135.700,52.300 135.578,51.527 135.223,50.831 134.669,50.277 133.973,49.922 133.200,49.800 132.427,49.922 131.731,50.277 131.177,50.831 130.822,51.527 130.700,52.300 130.822,53.073 131.177,53.769 131.731,54.323 132.427,54.678 133.200,54.800 133.973,54.678 134.669,54.323 135.223,53.769 135.578,53.073" style="fill:none;stroke-width:0.2;stroke:black"/>
<polygon points="135.450,20.200 135.450,21.200 121.450,21.200 121.450,20.200 120.650,20.200 120.650,17.100 121.450,17.100 121.450,11.300 120.650,11.300 120.650,8.200 121.450,8.200 121.450,7.200 135.450,7.200 135.450,8.200 136.250,8.200 136.250,11.300 135.450,11.300 135.450,17.100 136.250,17.100 136.250,20.200" style="fill:none;stroke-width:0.2;stroke:black"/>
<polygon points="140.213,77.350 140.213,78.350 126.213,78.350 126.213,77.350 125.413,77.350 125.413,74.250 126.213,74.250 126.213,68.450 125.413,68.450 125.413,65.350 126.213,65.350 126.213,64.350 140.213,64.350 140.213,65.350 141.013,65.350 141.013,68.450 140.213,68.450 140.213,74.250 141.013,74.250 141.013,77.350" style="fill:none;stroke-width:0.2;stroke:black"/>
<polygon points="144.975,39.250 144.975,40.250 130.975,40.250 130.975,39.250 130.175,39.250 130.175,36.150 130.975,36.150 130.975,30.350 130.175,30.350 130.175,27.250 130.975,27.250 130.975,26.250 144.975,26.250 144.975,27.250 145.775,27.250 145.775,30.350 144.975,30.350 144.975,36.150 145.775,36.150 145.775,39.250" style="fill:none;stroke-width:0.2;stroke:black"/>
<polygon points="149.737,58.300 149.737,59.300 135.737,59.300 135.737,58.300 134.937,58.300 134.937,55.200 135.737,55.200 135.737,49.400 134.937,49.400 134.937,46.300 135.737,46.300 135.737,45.300 149.737,45.300 149.737,46.300 150.537,46.300 150.537,49.400 149.737,49.400 149.737,55.200 150.537,55.200 150.537,58.300" style="fill:none;stroke-width:0.2;stroke:black"/>
<polygon points="154.500,20.200 154.500,21.200 140.500,21.200 140.500,20.200 139.700,20.200 139.700,17.100 140.500,17.100 140.500,11.300 139.700,11.300 139.700,8.200 140.500,8.200 140.500,7.200 154.500,7.200 154.500,8.200 155.300,8.200 155.300,11.300 154.500,11.300 154.500,17.100 155.300,17.100 155.300,20.200" style="fill:none;stroke-width:0.2;stroke:black"/>
<polygon points="159.263,77.350 159.263,78.350 145.263,78.350 145.263,77.350 144.463,77.350 144.463,74.250 145.263,74.250 145.263,68.450 144.463,68.450 144.463,65.350 145.263,65.350 145.263,64.350 159.263,64.350 159.263,65.350 160.063,65.350 160.063,68.450 159.263,68.450 159.263,74.250 160.063,74.250 160.063,77.350" style="fill:none;stroke-width:0.2;stroke:black"/>
<polygon points="164.025,39.250 164.025,40.250 150.025,40.250 150.025,39.250 149.225,39.250 149.225,36.150 150.025,36.150 150.025,30.350 149.225,30.350 149.225,27.250 150.025,27.250 150.025,26.250 164.025,26.250 164.025,27.250 164.825,27.250 164.825,30.350 164.025,30.350 164.025,36.150 164.825,36.150 164.825,39.250" style="fill:none;stroke-width:0.2;stroke:black"/>
<polygon points="168.787,58.300 168.787,59.300 154.787,59.300 154.787,58.300 153.987,58.300 153.987,55.200 154.787,55.200 154.787,49.400 153.987,49.400 153.987,46.300 154.787,46.300 154.787,45.300 168.787,45.300 168.787,46.300 169.588,46.300 169.588,49.400 168.787,49.400 168.787,55.200 169.588,55.200 169.588,58.300" style="fill:none;stroke-width:0.2;stroke:black"/>
<polygon points="173.550,20.200 173.550,21.200 159.550,21.200 159.550,20.200 158.750,20.200 158.750,17.100 159.550,17.100 159.550,11.300 158.750,11.300 158.750,8.200 159.550,8.200 159.550,7.200 173.550,7.200 173.550,8.200 174.350,8.200 174.350,11.300 173.550,11.300 173.550,17.100 174.350,17.100 174.350,20.200" style="fill:none;stroke-width:0.2;stroke:black"/>
<polygon points="178.313,77.350 178.313,78.350 164.313,78.350 164.313,77.350 163.513,77.350 163.513,74.250 164.313,74.250 164.313,68.450 163.513,68.450 163.513,65.350 164.313,65.350 164.313,64.350 178.313,64.350 178.313,65.350 179.113,65.350 179.113,68.450 178.313,68.450 178.313,74.250 179.113,74.250 179.113,77.350" style="fill:none;stroke-width:0.2;stroke:black"/>
<polygon points="183.075,39.250 183.075,40.250 169.075,40.250 169.075,39.250 168.275,39.250 168.275,36.150 169.075,36.150 169.075,30.350 168.275,30.350 168.275,27.250 169.075,27.250 169.075,26.250 183.075,26.250 183.075,27.250 183.875,27.250 183.875,30.350 183.075,30.350 183.075,36.150 183.875,36.150 183.875,39.250" style="fill:none;stroke-width:0.2;stroke:black"/>
<polygon points="187.838,58.300 187.838,59.300 173.838,59.300 173.838,58.300 173.037,58.300 173.037,55.200 173.838,55.200 173.838,49.400 173.037,49.400 173.037,46.300 173.838,46.300 173.838,45.300 187.838,45.300 187.838,46.300 188.638,46.300 188.638,49.400 187.838,49.400 187.838,55.200 188.638,55.200 188.638,58.300" style="fill:none;stroke-width:0.2;stroke:black"/>
<polygon points="188.919,90.900 188.919,97.170 187.244,97.170 187.244,98.150 183.944,98.150 183.944,97.170 182.269,97.170 182.269,92.700 142.594,92.700 142.594,93.300 143.394,93.300 143.394,96.400 142.594,96.400 142.594,97.400 128.594,97.400 128.594,96.400 127.794,96.400 127.794,93.300 128.594,93.300 128.594,92.700 88.919,92.700 88.919,97.170 87.244,97.170 87.244,98.150 83.944,98.150 83.944,97.170 82.269,97.170 82.269,90.900 81.394,90.900 81.394,88.100 82.269,88.100 82.269,84.870 83.944,84.870 83.944,83.950 87.244,83.950 87.244,84.870 88.919,84.870 88.919,88.100 128.594,88.100 128.594,87.500 127.794,87.500 127.794,84.400 128.594,84.400 128.594,83.400 142.594,83.400 142.594,84.400 143.394,84.400 143.394,87.500 142.594,87.500 142.594,88.100 182.269,88.100 182.269,84.870 183.944,84.870 183.944,83.950 187.244,83.950 187.244,84.870 188.919,84.870 188.919,88.100 189.794,88.100 189.794,90.900" style="fill:none;stroke-width:0.2;stroke:black"/>
<polygon points="192.600,20.200 192.600,21.200 178.600,21.200 178.600,20.200 177.800,20.200 177.800,17.100 178.600,17.100 178.600,11.300 177.800,11.300 177.800,8.200 178.600,8.200 178.600,7.200 192.600,7.200 192.600,8.200 193.400,8.200 193.400,11.300 192.600,11.300 192.600,17.100 193.400,17.100 193.400,20.200" style="fill:none;stroke-width:0.2;stroke:black"/>
<polygon points="198.000,90.200 197.878,89.427 197.523,88.731 196.969,88.177 196.273,87.822 195.500,87.700 194.727,87.822 194.031,88.177 193.477,88.731 193.122,89.427 193.000,90.200 193.122,90.973 193.477,91.669 194.031,92.223 194.727,92.578 195.500,92.700 196.273,92.578 196.969,92.223 197.523,91.669 197.878,90.973" style="fill:none;stroke-width:0.2;stroke:black"/>
<polygon points="197.363,77.350 197.363,78.350 183.363,78.350 183.363,77.350 182.563,77.350 182.563,74.250 183.363,74.250 183.363,68.450 182.563,68.450 182.563,65.350 183.363,65.350 183.363,64.350 197.363,64.350 197.363,65.350 198.163,65.350 198.163,68.450 197.363,68.450 197.363,74.250 198.163,74.250 198.163,77.350" style="fill:none;stroke-width:0.2;stroke:black"/>
<polygon points="202.125,39.250 202.125,40.250 188.125,40.250 188.125,39.250 187.325,39.250 187.325,36.150 188.125,36.150 188.125,30.350 187.325,30.350 187.325,27.250 188.125,27.250 188.125,26.250 202.125,26.250 202.125,27.250 202.925,27.250 202.925,30.350 202.125,30.350 202.125,36.150 202.925,36.150 202.925,39.250" style="fill:none;stroke-width:0.2;stroke:black"/>
<polygon points="206.888,58.300 206.888,59.300 192.888,59.300 192.888,58.300 192.088,58.300 192.088,55.200 192.888,55.200 192.888,49.400 192.088,49.400 192.088,46.300 192.888,46.300 192.888,45.300 206.888,45.300 206.888,46.300 207.688,46.300 207.688,49.400 206.888,49.400 206.888,55.200 207.688,55.200 207.688,58.300" style="fill:none;stroke-width:0.2;stroke:black"/>
<polygon points="211.650,20.200 211.650,21.200 197.650,21.200 197.650,20.200 196.850,20.200 196.850,17.100 197.650,17.100 197.650,11.300 196.850,11.300 196.850,8.200 197.650,8.200 197.650,7.200 211.650,7.200 211.650,8.200 212.450,8.200 212.450,11.300 211.650,11.300 211.650,17.100 212.450,17.100 212.450,20.200" style="fill:none;stroke-width:0.2;stroke:black"/>
<polygon points="214.031,96.400 214.031,97.400 200.031,97.400 200.031,96.400 199.231,96.400 199.231,93.300 200.031,93.300 200.031,87.500 199.231,87.500 199.231,84.400 200.031,84.400 200.031,83.400 214.031,83.400 214.031,84.400 214.831,84.400 214.831,87.500 214.031,87.500 214.031,93.300 214.831,93.300 214.831,96.400" style="fill:none;stroke-width:0.2;stroke:black"/>
<polygon points="216.413,77.350 216.413,78.350 202.413,78.350 202.413,77.350 201.613,77.350 201.613,74.250 202.413,74.250 202.413,68.450 201.613,68.450 201.613,65.350 202.413,65.350 202.413,64.350 216.413,64.350 216.413,65.350 217.213,65.350 217.213,68.450 216.413,68.450 216.413,74.250 217.213,74.250 217.213,77.350" style="fill:none;stroke-width:0.2;stroke:black"/>
<polygon points="221.175,39.250 221.175,40.250 207.175,40.250 207.175,39.250 206.375,39.250 206.375,36.150 207.175,36.150 207.175,30.350 206.375,30.350 206.375,27.250 207.175,27.250 207.175,26.250 221.175,26.250 221.175,27.250 221.975,27.250 221.975,30.350 221.175,30.350 221.175,36.150 221.975,36.150 221.975,39.250" style="fill:none;stroke-width:0.2;stroke:black"/>
<polygon points="225.938,58.300 225.938,59.300 211.938,59.300 211.938,58.300 211.138,58.300 211.138,55.200 211.938,55.200 211.938,49.400 211.138,49.400 211.138,46.300 211.938,46.300 211.938,45.300 225.938,45.300 225.938,46.300 226.738,46.300 226.738,49.400 225.938,49.400 225.938,55.200 226.738,55.200 226.738,58.300" style="fill:none;stroke-width:0.2;stroke:black"/>
<polygon points="230.700,20.200 230.700,21.200 216.700,21.200 216.700,20.200 215.900,20.200 215.900,17.100 216.700,17.100 216.700,11.300 215.900,11.300 215.900,8.200 216.700,8.200 216.700,7.200 230.700,7.200 230.700,8.200 231.500,8.200 231.500,11.300 230.700,11.300 230.700,17.100 231.500,17.100 231.500,20.200" style="fill:none;stroke-width:0.2;stroke:black"/>
<polygon points="235.463,77.350 235.463,78.350 221.463,78.350 221.463,77.350 220.663,77.350 220.663,74.250 221.463,74.250 221.463,68.450 220.663,68.450 220.663,65.350 221.463,65.350 221.463,64.350 235.463,64.350 235.463,65.350 236.263,65.350 236.263,68.450 235.463,68.450 235.463,74.250 236.263,74.250 236.263,77.350" style="fill:none;stroke-width:0.2;stroke:black"/>
<polygon points="237.844,96.400 237.844,97.400 223.844,97.400 223.844,96.400 223.044,96.400 223.044,93.300 223.844,93.300 223.844,87.500 223.044,87.500 223.044,84.400 223.844,84.400 223.844,83.400 237.844,83.400 237.844,84.400 238.644,84.400 238.644,87.500 237.844,87.500 237.844,93.300 238.644,93.300 238.644,96.400" style="fill:none;stroke-width:0.2;stroke:black"/>
<polygon points="240.225,39.250 240.225,40.250 226.225,40.250 226.225,39.250 225.425,39.250 225.425,36.150 226.225,36.150 226.225,30.350 225.425,30.350 225.425,27.250 226.225,27.250 226.225,26.250 240.225,26.250 240.225,27.250 241.025,27.250 241.025,30.350 240.225,30.350 240.225,36.150 241.025,36.150 241.025,39.250" style="fill:none;stroke-width:0.2;stroke:black"/>
<polygon points="244.988,58.300 244.988,59.300 230.988,59.300 230.988,58.300 230.188,58.300 230.188,55.200 230.988,55.200 230.988,49.400 230.188,49.400 230.188,46.300 230.988,46.300 230.988,45.300 244.988,45.300 244.988,46.300 245.788,46.300 245.788,49.400 244.988,49.400 244.988,55.200 245.788,55.200 245.788,58.300" style="fill:none;stroke-width:0.2;stroke:black"/>
<polygon points="249.750,20.200 249.750,21.200 235.750,21.200 235.750,20.200 234.950,20.200 234.950,17.100 235.750,17.100 235.750,11.300 234.950,11.300 234.950,8.200 235.750,8.200 235.750,7.200 249.750,7.200 249.750,8.200 250.550,8.200 250.550,11.300 249.750,11.300 249.750,17.100 250.550,17.100 250.550,20.200" style="fill:none;stroke-width:0.2;stroke:black"/>
<polygon points="259.275,39.250 259.275,40.250 245.275,40.250 245.275,39.250 244.475,39.250 244.475,36.150 245.275,36.150 245.275,30.350 244.475,30.350 244.475,27.250 245.275,27.250 245.275,26.250 259.275,26.250 259.275,27.250 260.075,27.250 260.075,30.350 259.275,30.350 259.275,36.150 260.075,36.150 260.075,39.250" style="fill:none;stroke-width:0.2;stroke:black"/>
<polygon points="261.656,96.400 261.656,97.400 247.656,97.400 247.656,96.400 246.856,96.400 246.856,93.300 247.656,93.300 247.656,87.500 246.856,87.500 246.856,84.400 247.656,84.400 247.656,83.400 261.656,83.400 261.656,84.400 262.456,84.400 262.456,87.500 261.656,87.500 261.656,93.300 262.456,93.300 262.456,96.400" style="fill:none;stroke-width:0.2;stroke:black"/>
<polygon points="267.550,32.900 267.428,32.127 267.073,31.431 266.519,30.877 265.823,30.522 265.050,30.400 264.277,30.522 263.581,30.877 263.027,31.431 262.672,32.127 262.550,32.900 262.672,33.673 263.027,34.369 263.581,34.923 264.277,35.278 265.050,35.400 265.823,35.278 266.519,34.923 267.073,34.369 267.428,33.673" style="fill:none;stroke-width:0.2;stroke:black"/>
<polygon points="279.406,71.850 279.406,78.120 277.781,78.120 277.781,79.100 274.481,79.100 274.481,78.120 272.756,78.120 272.756,77.320 271.981,77.320 271.981,77.350 271.181,77.350 271.181,78.350 257.181,78.350 257.181,77.350 256.381,77.350 256.381,77.320 255.606,77.320 255.606,78.120 253.881,78.120 253.881,79.100 250.581,79.100 250.581,78.120 248.956,78.120 248.956,71.850 248.081,71.850 248.081,69.050 248.956,69.050 248.956,65.820 250.581,65.820 250.581,64.900 253.881,64.900 253.881,65.820 255.606,65.820 255.606,66.620 256.381,66.620 256.381,65.350 257.181,65.350 257.181,64.350 271.181,64.350 271.181,65.350 271.981,65.350 271.981,66.620 272.756,66.620 272.756,65.820 274.481,65.820 274.481,64.900 277.781,64.900 277.781,65.820 279.406,65.820 279.406,69.050 280.281,69.050 280.281,71.850" style="fill:none;stroke-width:0.2;stroke:black"/>
<polygon points="283.088,39.250 283.088,40.250 269.088,40.250 269.088,39.250 268.288,39.250 268.288,36.150 269.088,36.150 269.088,30.350 268.288,30.350 268.288,27.250 269.088,27.250 269.088,26.250 283.088,26.250 283.088,27.250 283.888,27.250 283.888,30.350 283.088,30.350 283.088,36.150 283.888,36.150 283.888,39.250" style="fill:none;stroke-width:0.2;stroke:black"/>
<polygon points="284.169,52.800 284.169,59.070 282.544,59.070 282.544,60.050 279.244,60.050 279.244,59.070 277.519,59.070 277.519,58.270 276.744,58.270 276.744,58.300 275.944,58.300 275.944,59.300 261.944,59.300 261.944,58.300 261.144,58.300 261.144,58.270 260.369,58.270 260.369,59.070 258.644,59.070 258.644,60.050 255.344,60.050 255.344,59.070 253.719,59.070 253.719,52.800 252.844,52.800 252.844,50.000 253.719,50.000 253.719,46.770 255.344,46.770 255.344,45.850 258.644,45.850 258.644,46.770 260.369,46.770 260.369,47.570 261.144,47.570 261.144,46.300 261.944,46.300 261.944,45.300 275.944,45.300 275.944,46.300 276.744,46.300 276.744,47.570 277.519,47.570 277.519,46.770 279.244,46.770 279.244,45.850 282.544,45.850 282.544,46.770 284.169,46.770 284.169,50.000 285.044,50.000 285.044,52.800" style="fill:none;stroke-width:0.2;stroke:black"/>
<polygon points="285.469,96.400 285.469,97.400 271.469,97.400 271.469,96.400 270.669,96.400 270.669,93.300 271.469,93.300 271.469,87.500 270.669,87.500 270.669,84.400 271.469,84.400 271.469,83.400 285.469,83.400 285.469,84.400 286.269,84.400 286.269,87.500 285.469,87.500 285.469,93.300 286.269,93.300 286.269,96.400" style="fill:none;stroke-width:0.2;stroke:black"/>
<polygon points="286.550,14.700 286.550,20.970 284.925,20.970 284.925,21.950 281.625,21.950 281.625,20.970 279.900,20.970 279.900,20.170 279.125,20.170 279.125,20.200 278.325,20.200 278.325,21.200 264.325,21.200 264.325,20.200 263.525,20.200 263.525,20.170 262.750,20.170 262.750,20.970 261.025,20.970 261.025,21.950 257.725,21.950 257.725,20.970 256.100,20.970 256.100,14.700 255.225,14.700 255.225,11.900 256.100,11.900 256.100,8.670 257.725,8.670 257.725,7.750 261.025,7.750 261.025,8.670 262.750,8.670 262.750,9.470 263.525,9.470 263.525,8.200 264.325,8.200 264.325,7.200 278.325,7.200 278.325,8.200 279.125,8.200 279.125,9.470 279.900,9.470 279.900,8.670 281.625,8.670 281.625,7.750 284.925,7.750 284.925,8.670 286.550,8.670 286.550,11.900 287.425,11.900 287.425,14.700" style="fill:none;stroke-width:0.2;stroke:black"/>
<polygon points="5.000,99.600 5.000,64.000 8.501,64.000 9.273,63.878 9.970,63.523 10.523,62.970 10.878,62.273 11.000,61.501 11.000,61.499 10.878,60.727 10.523,60.030 9.970,59.477 9.273,59.122 8.501,59.000 5.000,59.000 5.000,5.000 290.000,5.000 290.000,59.000 286.499,59.000 285.727,59.122 285.030,59.477 284.477,60.030 284.122,60.727 284.000,61.499 284.000,61.501 284.122,62.273 284.477,62.970 285.030,63.523 285.727,63.878 286.499,64.000 290.000,64.000 290.000,99.600" style="fill:none;stroke-width:0.2;stroke:black"/>
</svg>
