  0
SECTION
  2
HEADER
  9
$ACADVER
  1
AC1009
  9
$EXTMIN
 10
0.0
 20
0.0
 30
0.0
  9
$EXTMAX
 10
1000.0
 20
1000.0
 30
0.0
  9
$FILLMODE
 70
 0
  9
$SPLFRAME
 70
 1
  0
ENDSEC
  0
SECTION
  2
TABLES
  0
TABLE
  2
LAYER
 70
1
  0
LAYER
  2
0
 70
     0
 62
     7
  6
CONTINUOUS
  0
ENDTAB
  0
ENDSEC
  0
SECTION
  2
ENTITIES
  0
LINE
  8
0
 62
     0
 10
0.0937066
 20
95.3438
 30
0.0
 11
285.844
 21
95.3438
 31
0.0
  0
LINE
  8
0
 62
     0
 10
285.844
 20
95.3438
 30
0.0
 11
285.844
 21
0.0937066
 31
0.0
  0
LINE
  8
0
 62
     0
 10
285.844
 20
0.0937066
 30
0.0
 11
0.0937066
 21
0.0937066
 31
0.0
  0
LINE
  8
0
 62
     0
 10
0.0937066
 20
0.0937066
 30
0.0
 11
0.0937066
 21
95.3438
 31
0.0
  0
LINE
  8
0
 62
     0
 10
7.92508
 20
35.1193
 30
0.0
 11
11.2241
 21
35.1193
 31
0.0
  0
LINE
  8
0
 62
     0
 10
11.2241
 20
35.1193
 30
0.0
 11
11.2241
 21
20.9186
 31
0.0
  0
LINE
  8
0
 62
     0
 10
11.2241
 20
20.9186
 30
0.0
 11
7.92508
 21
20.9186
 31
0.0
  0
LINE
  8
0
 62
     0
 10
7.92508
 20
20.9186
 30
0.0
 11
7.92508
 21
35.1193
 31
0.0
  0
LINE
  8
0
 62
     0
 10
2.61827
 20
92.819
 30
0.0
 11
16.6192
 21
92.819
 31
0.0
  0
LINE
  8
0
 62
     0
 10
16.6192
 20
92.819
 30
0.0
 11
16.6192
 21
78.8183
 31
0.0
  0
LINE
  8
0
 62
     0
 10
16.6192
 20
78.8183
 30
0.0
 11
2.61827
 21
78.8183
 31
0.0
  0
LINE
  8
0
 62
     0
 10
2.61827
 20
78.8183
 30
0.0
 11
2.61827
 21
92.819
 31
0.0
  0
LINE
  8
0
 62
     0
 10
4.99953
 20
16.6192
 30
0.0
 11
19.0004
 21
16.6192
 31
0.0
  0
LINE
  8
0
 62
     0
 10
19.0004
 20
16.6192
 30
0.0
 11
19.0004
 21
2.61827
 31
0.0
  0
LINE
  8
0
 62
     0
 10
19.0004
 20
2.61827
 30
0.0
 11
4.99953
 21
2.61827
 31
0.0
  0
LINE
  8
0
 62
     0
 10
4.99953
 20
2.61827
 30
0.0
 11
4.99953
 21
16.6192
 31
0.0
  0
LINE
  8
0
 62
     0
 10
7.38216
 20
73.769
 30
0.0
 11
21.3817
 21
73.769
 31
0.0
  0
LINE
  8
0
 62
     0
 10
21.3817
 20
73.769
 30
0.0
 11
21.3817
 21
59.7683
 31
0.0
  0
LINE
  8
0
 62
     0
 10
21.3817
 20
59.7683
 30
0.0
 11
7.38216
 21
59.7683
 31
0.0
  0
LINE
  8
0
 62
     0
 10
7.38216
 20
59.7683
 30
0.0
 11
7.38216
 21
73.769
 31
0.0
  0
LINE
  8
0
 62
     0
 10
9.76341
 20
54.719
 30
0.0
 11
23.7629
 21
54.719
 31
0.0
  0
LINE
  8
0
 62
     0
 10
23.7629
 20
54.719
 30
0.0
 11
23.7629
 21
40.7183
 31
0.0
  0
LINE
  8
0
 62
     0
 10
23.7629
 20
40.7183
 30
0.0
 11
9.76341
 21
40.7183
 31
0.0
  0
LINE
  8
0
 62
     0
 10
9.76341
 20
40.7183
 30
0.0
 11
9.76341
 21
54.719
 31
0.0
  0
LINE
  8
0
 62
     0
 10
14.5245
 20
35.669
 30
0.0
 11
28.5254
 21
35.669
 31
0.0
  0
LINE
  8
0
 62
     0
 10
28.5254
 20
35.669
 30
0.0
 11
28.5254
 21
21.6683
 31
0.0
  0
LINE
  8
0
 62
     0
 10
28.5254
 20
21.6683
 30
0.0
 11
14.5245
 21
21.6683
 31
0.0
  0
LINE
  8
0
 62
     0
 10
14.5245
 20
21.6683
 30
0.0
 11
14.5245
 21
35.669
 31
0.0
  0
LINE
  8
0
 62
     0
 10
31.8244
 20
35.1193
 30
0.0
 11
35.1248
 21
35.1193
 31
0.0
  0
LINE
  8
0
 62
     0
 10
35.1248
 20
35.1193
 30
0.0
 11
35.1248
 21
20.9186
 31
0.0
  0
LINE
  8
0
 62
     0
 10
35.1248
 20
20.9186
 30
0.0
 11
31.8244
 21
20.9186
 31
0.0
  0
LINE
  8
0
 62
     0
 10
31.8244
 20
20.9186
 30
0.0
 11
31.8244
 21
35.1193
 31
0.0
  0
LINE
  8
0
 62
     0
 10
21.6683
 20
92.819
 30
0.0
 11
35.669
 21
92.819
 31
0.0
  0
LINE
  8
0
 62
     0
 10
35.669
 20
92.819
 30
0.0
 11
35.669
 21
78.8183
 31
0.0
  0
LINE
  8
0
 62
     0
 10
35.669
 20
78.8183
 30
0.0
 11
21.6683
 21
78.8183
 31
0.0
  0
LINE
  8
0
 62
     0
 10
21.6683
 20
78.8183
 30
0.0
 11
21.6683
 21
92.819
 31
0.0
  0
LINE
  8
0
 62
     0
 10
28.8134
 20
16.6192
 30
0.0
 11
42.8128
 21
16.6192
 31
0.0
  0
LINE
  8
0
 62
     0
 10
42.8128
 20
16.6192
 30
0.0
 11
42.8128
 21
2.61827
 31
0.0
  0
LINE
  8
0
 62
     0
 10
42.8128
 20
2.61827
 30
0.0
 11
28.8134
 21
2.61827
 31
0.0
  0
LINE
  8
0
 62
     0
 10
28.8134
 20
2.61827
 30
0.0
 11
28.8134
 21
16.6192
 31
0.0
  0
LINE
  8
0
 62
     0
 10
31.1933
 20
73.769
 30
0.0
 11
45.194
 21
73.769
 31
0.0
  0
LINE
  8
0
 62
     0
 10
45.194
 20
73.769
 30
0.0
 11
45.194
 21
59.7683
 31
0.0
  0
LINE
  8
0
 62
     0
 10
45.194
 20
59.7683
 30
0.0
 11
31.1933
 21
59.7683
 31
0.0
  0
LINE
  8
0
 62
     0
 10
31.1933
 20
59.7683
 30
0.0
 11
31.1933
 21
73.769
 31
0.0
  0
LINE
  8
0
 62
     0
 10
35.9558
 20
54.719
 30
0.0
 11
49.9551
 21
54.719
 31
0.0
  0
LINE
  8
0
 62
     0
 10
49.9551
 20
54.719
 30
0.0
 11
49.9551
 21
40.7183
 31
0.0
  0
LINE
  8
0
 62
     0
 10
49.9551
 20
40.7183
 30
0.0
 11
35.9558
 21
40.7183
 31
0.0
  0
LINE
  8
0
 62
     0
 10
35.9558
 20
40.7183
 30
0.0
 11
35.9558
 21
54.719
 31
0.0
  0
LINE
  8
0
 62
     0
 10
40.7183
 20
92.819
 30
0.0
 11
54.719
 21
92.819
 31
0.0
  0
LINE
  8
0
 62
     0
 10
54.719
 20
92.819
 30
0.0
 11
54.719
 21
78.8183
 31
0.0
  0
LINE
  8
0
 62
     0
 10
54.719
 20
78.8183
 30
0.0
 11
40.7183
 21
78.8183
 31
0.0
  0
LINE
  8
0
 62
     0
 10
40.7183
 20
78.8183
 30
0.0
 11
40.7183
 21
92.819
 31
0.0
  0
LINE
  8
0
 62
     0
 10
45.4822
 20
35.669
 30
0.0
 11
59.4815
 21
35.669
 31
0.0
  0
LINE
  8
0
 62
     0
 10
59.4815
 20
35.669
 30
0.0
 11
59.4815
 21
21.6683
 31
0.0
  0
LINE
  8
0
 62
     0
 10
59.4815
 20
21.6683
 30
0.0
 11
45.4822
 21
21.6683
 31
0.0
  0
LINE
  8
0
 62
     0
 10
45.4822
 20
21.6683
 30
0.0
 11
45.4822
 21
35.669
 31
0.0
  0
LINE
  8
0
 62
     0
 10
50.2433
 20
73.769
 30
0.0
 11
64.244
 21
73.769
 31
0.0
  0
LINE
  8
0
 62
     0
 10
64.244
 20
73.769
 30
0.0
 11
64.244
 21
59.7683
 31
0.0
  0
LINE
  8
0
 62
     0
 10
64.244
 20
59.7683
 30
0.0
 11
50.2433
 21
59.7683
 31
0.0
  0
LINE
  8
0
 62
     0
 10
50.2433
 20
59.7683
 30
0.0
 11
50.2433
 21
73.769
 31
0.0
  0
LINE
  8
0
 62
     0
 10
52.6246
 20
16.6192
 30
0.0
 11
66.6253
 21
16.6192
 31
0.0
  0
LINE
  8
0
 62
     0
 10
66.6253
 20
16.6192
 30
0.0
 11
66.6253
 21
2.61827
 31
0.0
  0
LINE
  8
0
 62
     0
 10
66.6253
 20
2.61827
 30
0.0
 11
52.6246
 21
2.61827
 31
0.0
  0
LINE
  8
0
 62
     0
 10
52.6246
 20
2.61827
 30
0.0
 11
52.6246
 21
16.6192
 31
0.0
  0
LINE
  8
0
 62
     0
 10
55.0058
 20
54.719
 30
0.0
 11
69.0051
 21
54.719
 31
0.0
  0
LINE
  8
0
 62
     0
 10
69.0051
 20
54.719
 30
0.0
 11
69.0051
 21
40.7183
 31
0.0
  0
LINE
  8
0
 62
     0
 10
69.0051
 20
40.7183
 30
0.0
 11
55.0058
 21
40.7183
 31
0.0
  0
LINE
  8
0
 62
     0
 10
55.0058
 20
40.7183
 30
0.0
 11
55.0058
 21
54.719
 31
0.0
  0
LINE
  8
0
 62
     0
 10
59.7683
 20
92.819
 30
0.0
 11
73.769
 21
92.819
 31
0.0
  0
LINE
  8
0
 62
     0
 10
73.769
 20
92.819
 30
0.0
 11
73.769
 21
78.8183
 31
0.0
  0
LINE
  8
0
 62
     0
 10
73.769
 20
78.8183
 30
0.0
 11
59.7683
 21
78.8183
 31
0.0
  0
LINE
  8
0
 62
     0
 10
59.7683
 20
78.8183
 30
0.0
 11
59.7683
 21
92.819
 31
0.0
  0
LINE
  8
0
 62
     0
 10
64.5322
 20
35.669
 30
0.0
 11
78.5315
 21
35.669
 31
0.0
  0
LINE
  8
0
 62
     0
 10
78.5315
 20
35.669
 30
0.0
 11
78.5315
 21
21.6683
 31
0.0
  0
LINE
  8
0
 62
     0
 10
78.5315
 20
21.6683
 30
0.0
 11
64.5322
 21
21.6683
 31
0.0
  0
LINE
  8
0
 62
     0
 10
64.5322
 20
21.6683
 30
0.0
 11
64.5322
 21
35.669
 31
0.0
  0
LINE
  8
0
 62
     0
 10
79.412
 20
16.0693
 30
0.0
 11
82.7126
 21
16.0693
 31
0.0
  0
LINE
  8
0
 62
     0
 10
82.7126
 20
16.0693
 30
0.0
 11
82.7126
 21
1.86862
 31
0.0
  0
LINE
  8
0
 62
     0
 10
82.7126
 20
1.86862
 30
0.0
 11
79.412
 21
1.86862
 31
0.0
  0
LINE
  8
0
 62
     0
 10
79.412
 20
1.86862
 30
0.0
 11
79.412
 21
16.0693
 31
0.0
  0
LINE
  8
0
 62
     0
 10
69.2933
 20
73.769
 30
0.0
 11
83.294
 21
73.769
 31
0.0
  0
LINE
  8
0
 62
     0
 10
83.294
 20
73.769
 30
0.0
 11
83.294
 21
59.7683
 31
0.0
  0
LINE
  8
0
 62
     0
 10
83.294
 20
59.7683
 30
0.0
 11
69.2933
 21
59.7683
 31
0.0
  0
LINE
  8
0
 62
     0
 10
69.2933
 20
59.7683
 30
0.0
 11
69.2933
 21
73.769
 31
0.0
  0
LINE
  8
0
 62
     0
 10
74.0558
 20
54.719
 30
0.0
 11
88.0551
 21
54.719
 31
0.0
  0
LINE
  8
0
 62
     0
 10
88.0551
 20
54.719
 30
0.0
 11
88.0551
 21
40.7183
 31
0.0
  0
LINE
  8
0
 62
     0
 10
88.0551
 20
40.7183
 30
0.0
 11
74.0558
 21
40.7183
 31
0.0
  0
LINE
  8
0
 62
     0
 10
74.0558
 20
40.7183
 30
0.0
 11
74.0558
 21
54.719
 31
0.0
  0
LINE
  8
0
 62
     0
 10
78.8183
 20
92.819
 30
0.0
 11
92.819
 21
92.819
 31
0.0
  0
LINE
  8
0
 62
     0
 10
92.819
 20
92.819
 30
0.0
 11
92.819
 21
78.8183
 31
0.0
  0
LINE
  8
0
 62
     0
 10
92.819
 20
78.8183
 30
0.0
 11
78.8183
 21
78.8183
 31
0.0
  0
LINE
  8
0
 62
     0
 10
78.8183
 20
78.8183
 30
0.0
 11
78.8183
 21
92.819
 31
0.0
  0
LINE
  8
0
 62
     0
 10
83.5808
 20
35.669
 30
0.0
 11
97.5801
 21
35.669
 31
0.0
  0
LINE
  8
0
 62
     0
 10
97.5801
 20
35.669
 30
0.0
 11
97.5801
 21
21.6683
 31
0.0
  0
LINE
  8
0
 62
     0
 10
97.5801
 20
21.6683
 30
0.0
 11
83.5808
 21
21.6683
 31
0.0
  0
LINE
  8
0
 62
     0
 10
83.5808
 20
21.6683
 30
0.0
 11
83.5808
 21
35.669
 31
0.0
  0
LINE
  8
0
 62
     0
 10
88.3433
 20
73.769
 30
0.0
 11
102.344
 21
73.769
 31
0.0
  0
LINE
  8
0
 62
     0
 10
102.344
 20
73.769
 30
0.0
 11
102.344
 21
59.7683
 31
0.0
  0
LINE
  8
0
 62
     0
 10
102.344
 20
59.7683
 30
0.0
 11
88.3433
 21
59.7683
 31
0.0
  0
LINE
  8
0
 62
     0
 10
88.3433
 20
59.7683
 30
0.0
 11
88.3433
 21
73.769
 31
0.0
  0
LINE
  8
0
 62
     0
 10
93.1058
 20
54.719
 30
0.0
 11
107.105
 21
54.719
 31
0.0
  0
LINE
  8
0
 62
     0
 10
107.105
 20
54.719
 30
0.0
 11
107.105
 21
40.7183
 31
0.0
  0
LINE
  8
0
 62
     0
 10
107.105
 20
40.7183
 30
0.0
 11
93.1058
 21
40.7183
 31
0.0
  0
LINE
  8
0
 62
     0
 10
93.1058
 20
40.7183
 30
0.0
 11
93.1058
 21
54.719
 31
0.0
  0
LINE
  8
0
 62
     0
 10
97.8683
 20
92.819
 30
0.0
 11
111.869
 21
92.819
 31
0.0
  0
LINE
  8
0
 62
     0
 10
111.869
 20
92.819
 30
0.0
 11
111.869
 21
78.8183
 31
0.0
  0
LINE
  8
0
 62
     0
 10
111.869
 20
78.8183
 30
0.0
 11
97.8683
 21
78.8183
 31
0.0
  0
LINE
  8
0
 62
     0
 10
97.8683
 20
78.8183
 30
0.0
 11
97.8683
 21
92.819
 31
0.0
  0
LINE
  8
0
 62
     0
 10
102.631
 20
35.669
 30
0.0
 11
116.63
 21
35.669
 31
0.0
  0
LINE
  8
0
 62
     0
 10
116.63
 20
35.669
 30
0.0
 11
116.63
 21
21.6683
 31
0.0
  0
LINE
  8
0
 62
     0
 10
116.63
 20
21.6683
 30
0.0
 11
102.631
 21
21.6683
 31
0.0
  0
LINE
  8
0
 62
     0
 10
102.631
 20
21.6683
 30
0.0
 11
102.631
 21
35.669
 31
0.0
  0
LINE
  8
0
 62
     0
 10
107.393
 20
73.769
 30
0.0
 11
121.394
 21
73.769
 31
0.0
  0
LINE
  8
0
 62
     0
 10
121.394
 20
73.769
 30
0.0
 11
121.394
 21
59.7683
 31
0.0
  0
LINE
  8
0
 62
     0
 10
121.394
 20
59.7683
 30
0.0
 11
107.393
 21
59.7683
 31
0.0
  0
LINE
  8
0
 62
     0
 10
107.393
 20
59.7683
 30
0.0
 11
107.393
 21
73.769
 31
0.0
  0
LINE
  8
0
 62
     0
 10
112.156
 20
54.719
 30
0.0
 11
126.155
 21
54.719
 31
0.0
  0
LINE
  8
0
 62
     0
 10
126.155
 20
54.719
 30
0.0
 11
126.155
 21
40.7183
 31
0.0
  0
LINE
  8
0
 62
     0
 10
126.155
 20
40.7183
 30
0.0
 11
112.156
 21
40.7183
 31
0.0
  0
LINE
  8
0
 62
     0
 10
112.156
 20
40.7183
 30
0.0
 11
112.156
 21
54.719
 31
0.0
  0
LINE
  8
0
 62
     0
 10
116.918
 20
92.819
 30
0.0
 11
130.919
 21
92.819
 31
0.0
  0
LINE
  8
0
 62
     0
 10
130.919
 20
92.819
 30
0.0
 11
130.919
 21
78.8183
 31
0.0
  0
LINE
  8
0
 62
     0
 10
130.919
 20
78.8183
 30
0.0
 11
116.918
 21
78.8183
 31
0.0
  0
LINE
  8
0
 62
     0
 10
116.918
 20
78.8183
 30
0.0
 11
116.918
 21
92.819
 31
0.0
  0
LINE
  8
0
 62
     0
 10
121.682
 20
35.669
 30
0.0
 11
135.682
 21
35.669
 31
0.0
  0
LINE
  8
0
 62
     0
 10
135.682
 20
35.669
 30
0.0
 11
135.682
 21
21.6683
 31
0.0
  0
LINE
  8
0
 62
     0
 10
135.682
 20
21.6683
 30
0.0
 11
121.682
 21
21.6683
 31
0.0
  0
LINE
  8
0
 62
     0
 10
121.682
 20
21.6683
 30
0.0
 11
121.682
 21
35.669
 31
0.0
  0
LINE
  8
0
 62
     0
 10
124.063
 20
16.6192
 30
0.0
 11
138.063
 21
16.6192
 31
0.0
  0
LINE
  8
0
 62
     0
 10
138.063
 20
16.6192
 30
0.0
 11
138.063
 21
2.61827
 31
0.0
  0
LINE
  8
0
 62
     0
 10
138.063
 20
2.61827
 30
0.0
 11
124.063
 21
2.61827
 31
0.0
  0
LINE
  8
0
 62
     0
 10
124.063
 20
2.61827
 30
0.0
 11
124.063
 21
16.6192
 31
0.0
  0
LINE
  8
0
 62
     0
 10
126.443
 20
73.769
 30
0.0
 11
140.444
 21
73.769
 31
0.0
  0
LINE
  8
0
 62
     0
 10
140.444
 20
73.769
 30
0.0
 11
140.444
 21
59.7683
 31
0.0
  0
LINE
  8
0
 62
     0
 10
140.444
 20
59.7683
 30
0.0
 11
126.443
 21
59.7683
 31
0.0
  0
LINE
  8
0
 62
     0
 10
126.443
 20
59.7683
 30
0.0
 11
126.443
 21
73.769
 31
0.0
  0
LINE
  8
0
 62
     0
 10
131.206
 20
54.719
 30
0.0
 11
145.205
 21
54.719
 31
0.0
  0
LINE
  8
0
 62
     0
 10
145.205
 20
54.719
 30
0.0
 11
145.205
 21
40.7183
 31
0.0
  0
LINE
  8
0
 62
     0
 10
145.205
 20
40.7183
 30
0.0
 11
131.206
 21
40.7183
 31
0.0
  0
LINE
  8
0
 62
     0
 10
131.206
 20
40.7183
 30
0.0
 11
131.206
 21
54.719
 31
0.0
  0
LINE
  8
0
 62
     0
 10
135.968
 20
92.819
 30
0.0
 11
149.969
 21
92.819
 31
0.0
  0
LINE
  8
0
 62
     0
 10
149.969
 20
92.819
 30
0.0
 11
149.969
 21
78.8183
 31
0.0
  0
LINE
  8
0
 62
     0
 10
149.969
 20
78.8183
 30
0.0
 11
135.968
 21
78.8183
 31
0.0
  0
LINE
  8
0
 62
     0
 10
135.968
 20
78.8183
 30
0.0
 11
135.968
 21
92.819
 31
0.0
  0
LINE
  8
0
 62
     0
 10
140.732
 20
35.669
 30
0.0
 11
154.732
 21
35.669
 31
0.0
  0
LINE
  8
0
 62
     0
 10
154.732
 20
35.669
 30
0.0
 11
154.732
 21
21.6683
 31
0.0
  0
LINE
  8
0
 62
     0
 10
154.732
 20
21.6683
 30
0.0
 11
140.732
 21
21.6683
 31
0.0
  0
LINE
  8
0
 62
     0
 10
140.732
 20
21.6683
 30
0.0
 11
140.732
 21
35.669
 31
0.0
  0
LINE
  8
0
 62
     0
 10
145.493
 20
73.769
 30
0.0
 11
159.494
 21
73.769
 31
0.0
  0
LINE
  8
0
 62
     0
 10
159.494
 20
73.769
 30
0.0
 11
159.494
 21
59.7683
 31
0.0
  0
LINE
  8
0
 62
     0
 10
159.494
 20
59.7683
 30
0.0
 11
145.493
 21
59.7683
 31
0.0
  0
LINE
  8
0
 62
     0
 10
145.493
 20
59.7683
 30
0.0
 11
145.493
 21
73.769
 31
0.0
  0
LINE
  8
0
 62
     0
 10
150.256
 20
54.719
 30
0.0
 11
164.255
 21
54.719
 31
0.0
  0
LINE
  8
0
 62
     0
 10
164.255
 20
54.719
 30
0.0
 11
164.255
 21
40.7183
 31
0.0
  0
LINE
  8
0
 62
     0
 10
164.255
 20
40.7183
 30
0.0
 11
150.256
 21
40.7183
 31
0.0
  0
LINE
  8
0
 62
     0
 10
150.256
 20
40.7183
 30
0.0
 11
150.256
 21
54.719
 31
0.0
  0
LINE
  8
0
 62
     0
 10
155.018
 20
92.819
 30
0.0
 11
169.019
 21
92.819
 31
0.0
  0
LINE
  8
0
 62
     0
 10
169.019
 20
92.819
 30
0.0
 11
169.019
 21
78.8183
 31
0.0
  0
LINE
  8
0
 62
     0
 10
169.019
 20
78.8183
 30
0.0
 11
155.018
 21
78.8183
 31
0.0
  0
LINE
  8
0
 62
     0
 10
155.018
 20
78.8183
 30
0.0
 11
155.018
 21
92.819
 31
0.0
  0
LINE
  8
0
 62
     0
 10
159.782
 20
35.669
 30
0.0
 11
173.782
 21
35.669
 31
0.0
  0
LINE
  8
0
 62
     0
 10
173.782
 20
35.669
 30
0.0
 11
173.782
 21
21.6683
 31
0.0
  0
LINE
  8
0
 62
     0
 10
173.782
 20
21.6683
 30
0.0
 11
159.782
 21
21.6683
 31
0.0
  0
LINE
  8
0
 62
     0
 10
159.782
 20
21.6683
 30
0.0
 11
159.782
 21
35.669
 31
0.0
  0
LINE
  8
0
 62
     0
 10
164.543
 20
73.769
 30
0.0
 11
178.544
 21
73.769
 31
0.0
  0
LINE
  8
0
 62
     0
 10
178.544
 20
73.769
 30
0.0
 11
178.544
 21
59.7683
 31
0.0
  0
LINE
  8
0
 62
     0
 10
178.544
 20
59.7683
 30
0.0
 11
164.543
 21
59.7683
 31
0.0
  0
LINE
  8
0
 62
     0
 10
164.543
 20
59.7683
 30
0.0
 11
164.543
 21
73.769
 31
0.0
  0
LINE
  8
0
 62
     0
 10
179.412
 20
16.0693
 30
0.0
 11
182.713
 21
16.0693
 31
0.0
  0
LINE
  8
0
 62
     0
 10
182.713
 20
16.0693
 30
0.0
 11
182.713
 21
1.86862
 31
0.0
  0
LINE
  8
0
 62
     0
 10
182.713
 20
1.86862
 30
0.0
 11
179.412
 21
1.86862
 31
0.0
  0
LINE
  8
0
 62
     0
 10
179.412
 20
1.86862
 30
0.0
 11
179.412
 21
16.0693
 31
0.0
  0
LINE
  8
0
 62
     0
 10
169.307
 20
54.719
 30
0.0
 11
183.307
 21
54.719
 31
0.0
  0
LINE
  8
0
 62
     0
 10
183.307
 20
54.719
 30
0.0
 11
183.307
 21
40.7183
 31
0.0
  0
LINE
  8
0
 62
     0
 10
183.307
 20
40.7183
 30
0.0
 11
169.307
 21
40.7183
 31
0.0
  0
LINE
  8
0
 62
     0
 10
169.307
 20
40.7183
 30
0.0
 11
169.307
 21
54.719
 31
0.0
  0
LINE
  8
0
 62
     0
 10
174.068
 20
92.819
 30
0.0
 11
188.069
 21
92.819
 31
0.0
  0
LINE
  8
0
 62
     0
 10
188.069
 20
92.819
 30
0.0
 11
188.069
 21
78.8183
 31
0.0
  0
LINE
  8
0
 62
     0
 10
188.069
 20
78.8183
 30
0.0
 11
174.068
 21
78.8183
 31
0.0
  0
LINE
  8
0
 62
     0
 10
174.068
 20
78.8183
 30
0.0
 11
174.068
 21
92.819
 31
0.0
  0
LINE
  8
0
 62
     0
 10
178.832
 20
35.669
 30
0.0
 11
192.832
 21
35.669
 31
0.0
  0
LINE
  8
0
 62
     0
 10
192.832
 20
35.669
 30
0.0
 11
192.832
 21
21.6683
 31
0.0
  0
LINE
  8
0
 62
     0
 10
192.832
 20
21.6683
 30
0.0
 11
178.832
 21
21.6683
 31
0.0
  0
LINE
  8
0
 62
     0
 10
178.832
 20
21.6683
 30
0.0
 11
178.832
 21
35.669
 31
0.0
  0
LINE
  8
0
 62
     0
 10
183.593
 20
73.769
 30
0.0
 11
197.594
 21
73.769
 31
0.0
  0
LINE
  8
0
 62
     0
 10
197.594
 20
73.769
 30
0.0
 11
197.594
 21
59.7683
 31
0.0
  0
LINE
  8
0
 62
     0
 10
197.594
 20
59.7683
 30
0.0
 11
183.593
 21
59.7683
 31
0.0
  0
LINE
  8
0
 62
     0
 10
183.593
 20
59.7683
 30
0.0
 11
183.593
 21
73.769
 31
0.0
  0
LINE
  8
0
 62
     0
 10
188.357
 20
54.719
 30
0.0
 11
202.357
 21
54.719
 31
0.0
  0
LINE
  8
0
 62
     0
 10
202.357
 20
54.719
 30
0.0
 11
202.357
 21
40.7183
 31
0.0
  0
LINE
  8
0
 62
     0
 10
202.357
 20
40.7183
 30
0.0
 11
188.357
 21
40.7183
 31
0.0
  0
LINE
  8
0
 62
     0
 10
188.357
 20
40.7183
 30
0.0
 11
188.357
 21
54.719
 31
0.0
  0
LINE
  8
0
 62
     0
 10
193.118
 20
92.819
 30
0.0
 11
207.119
 21
92.819
 31
0.0
  0
LINE
  8
0
 62
     0
 10
207.119
 20
92.819
 30
0.0
 11
207.119
 21
78.8183
 31
0.0
  0
LINE
  8
0
 62
     0
 10
207.119
 20
78.8183
 30
0.0
 11
193.118
 21
78.8183
 31
0.0
  0
LINE
  8
0
 62
     0
 10
193.118
 20
78.8183
 30
0.0
 11
193.118
 21
92.819
 31
0.0
  0
LINE
  8
0
 62
     0
 10
195.5
 20
16.6192
 30
0.0
 11
209.5
 21
16.6192
 31
0.0
  0
LINE
  8
0
 62
     0
 10
209.5
 20
16.6192
 30
0.0
 11
209.5
 21
2.61827
 31
0.0
  0
LINE
  8
0
 62
     0
 10
209.5
 20
2.61827
 30
0.0
 11
195.5
 21
2.61827
 31
0.0
  0
LINE
  8
0
 62
     0
 10
195.5
 20
2.61827
 30
0.0
 11
195.5
 21
16.6192
 31
0.0
  0
LINE
  8
0
 62
     0
 10
197.882
 20
35.669
 30
0.0
 11
211.882
 21
35.669
 31
0.0
  0
LINE
  8
0
 62
     0
 10
211.882
 20
35.669
 30
0.0
 11
211.882
 21
21.6683
 31
0.0
  0
LINE
  8
0
 62
     0
 10
211.882
 20
21.6683
 30
0.0
 11
197.882
 21
21.6683
 31
0.0
  0
LINE
  8
0
 62
     0
 10
197.882
 20
21.6683
 30
0.0
 11
197.882
 21
35.669
 31
0.0
  0
LINE
  8
0
 62
     0
 10
202.643
 20
73.769
 30
0.0
 11
216.644
 21
73.769
 31
0.0
  0
LINE
  8
0
 62
     0
 10
216.644
 20
73.769
 30
0.0
 11
216.644
 21
59.7683
 31
0.0
  0
LINE
  8
0
 62
     0
 10
216.644
 20
59.7683
 30
0.0
 11
202.643
 21
59.7683
 31
0.0
  0
LINE
  8
0
 62
     0
 10
202.643
 20
59.7683
 30
0.0
 11
202.643
 21
73.769
 31
0.0
  0
LINE
  8
0
 62
     0
 10
207.407
 20
54.719
 30
0.0
 11
221.407
 21
54.719
 31
0.0
  0
LINE
  8
0
 62
     0
 10
221.407
 20
54.719
 30
0.0
 11
221.407
 21
40.7183
 31
0.0
  0
LINE
  8
0
 62
     0
 10
221.407
 20
40.7183
 30
0.0
 11
207.407
 21
40.7183
 31
0.0
  0
LINE
  8
0
 62
     0
 10
207.407
 20
40.7183
 30
0.0
 11
207.407
 21
54.719
 31
0.0
  0
LINE
  8
0
 62
     0
 10
212.168
 20
92.819
 30
0.0
 11
226.169
 21
92.819
 31
0.0
  0
LINE
  8
0
 62
     0
 10
226.169
 20
92.819
 30
0.0
 11
226.169
 21
78.8183
 31
0.0
  0
LINE
  8
0
 62
     0
 10
226.169
 20
78.8183
 30
0.0
 11
212.168
 21
78.8183
 31
0.0
  0
LINE
  8
0
 62
     0
 10
212.168
 20
78.8183
 30
0.0
 11
212.168
 21
92.819
 31
0.0
  0
LINE
  8
0
 62
     0
 10
216.932
 20
35.669
 30
0.0
 11
230.932
 21
35.669
 31
0.0
  0
LINE
  8
0
 62
     0
 10
230.932
 20
35.669
 30
0.0
 11
230.932
 21
21.6683
 31
0.0
  0
LINE
  8
0
 62
     0
 10
230.932
 20
21.6683
 30
0.0
 11
216.932
 21
21.6683
 31
0.0
  0
LINE
  8
0
 62
     0
 10
216.932
 20
21.6683
 30
0.0
 11
216.932
 21
35.669
 31
0.0
  0
LINE
  8
0
 62
     0
 10
219.313
 20
16.6192
 30
0.0
 11
233.313
 21
16.6192
 31
0.0
  0
LINE
  8
0
 62
     0
 10
233.313
 20
16.6192
 30
0.0
 11
233.313
 21
2.61827
 31
0.0
  0
LINE
  8
0
 62
     0
 10
233.313
 20
2.61827
 30
0.0
 11
219.313
 21
2.61827
 31
0.0
  0
LINE
  8
0
 62
     0
 10
219.313
 20
2.61827
 30
0.0
 11
219.313
 21
16.6192
 31
0.0
  0
LINE
  8
0
 62
     0
 10
221.693
 20
73.769
 30
0.0
 11
235.694
 21
73.769
 31
0.0
  0
LINE
  8
0
 62
     0
 10
235.694
 20
73.769
 30
0.0
 11
235.694
 21
59.7683
 31
0.0
  0
LINE
  8
0
 62
     0
 10
235.694
 20
59.7683
 30
0.0
 11
221.693
 21
59.7683
 31
0.0
  0
LINE
  8
0
 62
     0
 10
221.693
 20
59.7683
 30
0.0
 11
221.693
 21
73.769
 31
0.0
  0
LINE
  8
0
 62
     0
 10
226.457
 20
54.719
 30
0.0
 11
240.457
 21
54.719
 31
0.0
  0
LINE
  8
0
 62
     0
 10
240.457
 20
54.719
 30
0.0
 11
240.457
 21
40.7183
 31
0.0
  0
LINE
  8
0
 62
     0
 10
240.457
 20
40.7183
 30
0.0
 11
226.457
 21
40.7183
 31
0.0
  0
LINE
  8
0
 62
     0
 10
226.457
 20
40.7183
 30
0.0
 11
226.457
 21
54.719
 31
0.0
  0
LINE
  8
0
 62
     0
 10
231.218
 20
92.819
 30
0.0
 11
245.219
 21
92.819
 31
0.0
  0
LINE
  8
0
 62
     0
 10
245.219
 20
92.819
 30
0.0
 11
245.219
 21
78.8183
 31
0.0
  0
LINE
  8
0
 62
     0
 10
245.219
 20
78.8183
 30
0.0
 11
231.218
 21
78.8183
 31
0.0
  0
LINE
  8
0
 62
     0
 10
231.218
 20
78.8183
 30
0.0
 11
231.218
 21
92.819
 31
0.0
  0
LINE
  8
0
 62
     0
 10
250.813
 20
54.1694
 30
0.0
 11
254.113
 21
54.1694
 31
0.0
  0
LINE
  8
0
 62
     0
 10
254.113
 20
54.1694
 30
0.0
 11
254.113
 21
39.9687
 31
0.0
  0
LINE
  8
0
 62
     0
 10
254.113
 20
39.9687
 30
0.0
 11
250.813
 21
39.9687
 31
0.0
  0
LINE
  8
0
 62
     0
 10
250.813
 20
39.9687
 30
0.0
 11
250.813
 21
54.1694
 31
0.0
  0
LINE
  8
0
 62
     0
 10
240.743
 20
73.769
 30
0.0
 11
254.744
 21
73.769
 31
0.0
  0
LINE
  8
0
 62
     0
 10
254.744
 20
73.769
 30
0.0
 11
254.744
 21
59.7683
 31
0.0
  0
LINE
  8
0
 62
     0
 10
254.744
 20
59.7683
 30
0.0
 11
240.743
 21
59.7683
 31
0.0
  0
LINE
  8
0
 62
     0
 10
240.743
 20
59.7683
 30
0.0
 11
240.743
 21
73.769
 31
0.0
  0
LINE
  8
0
 62
     0
 10
253.194
 20
92.2694
 30
0.0
 11
256.494
 21
92.2694
 31
0.0
  0
LINE
  8
0
 62
     0
 10
256.494
 20
92.2694
 30
0.0
 11
256.494
 21
78.0687
 31
0.0
  0
LINE
  8
0
 62
     0
 10
256.494
 20
78.0687
 30
0.0
 11
253.194
 21
78.0687
 31
0.0
  0
LINE
  8
0
 62
     0
 10
253.194
 20
78.0687
 30
0.0
 11
253.194
 21
92.2694
 31
0.0
  0
LINE
  8
0
 62
     0
 10
243.125
 20
16.6192
 30
0.0
 11
257.125
 21
16.6192
 31
0.0
  0
LINE
  8
0
 62
     0
 10
257.125
 20
16.6192
 30
0.0
 11
257.125
 21
2.61827
 31
0.0
  0
LINE
  8
0
 62
     0
 10
257.125
 20
2.61827
 30
0.0
 11
243.125
 21
2.61827
 31
0.0
  0
LINE
  8
0
 62
     0
 10
243.125
 20
2.61827
 30
0.0
 11
243.125
 21
16.6192
 31
0.0
  0
LINE
  8
0
 62
     0
 10
243.125
 20
35.669
 30
0.0
 11
257.125
 21
35.669
 31
0.0
  0
LINE
  8
0
 62
     0
 10
257.125
 20
35.669
 30
0.0
 11
257.125
 21
21.6683
 31
0.0
  0
LINE
  8
0
 62
     0
 10
257.125
 20
21.6683
 30
0.0
 11
243.125
 21
21.6683
 31
0.0
  0
LINE
  8
0
 62
     0
 10
243.125
 20
21.6683
 30
0.0
 11
243.125
 21
35.669
 31
0.0
  0
LINE
  8
0
 62
     0
 10
257.413
 20
54.719
 30
0.0
 11
271.413
 21
54.719
 31
0.0
  0
LINE
  8
0
 62
     0
 10
271.413
 20
54.719
 30
0.0
 11
271.413
 21
40.7183
 31
0.0
  0
LINE
  8
0
 62
     0
 10
271.413
 20
40.7183
 30
0.0
 11
257.413
 21
40.7183
 31
0.0
  0
LINE
  8
0
 62
     0
 10
257.413
 20
40.7183
 30
0.0
 11
257.413
 21
54.719
 31
0.0
  0
LINE
  8
0
 62
     0
 10
259.793
 20
92.819
 30
0.0
 11
273.794
 21
92.819
 31
0.0
  0
LINE
  8
0
 62
     0
 10
273.794
 20
92.819
 30
0.0
 11
273.794
 21
78.8183
 31
0.0
  0
LINE
  8
0
 62
     0
 10
273.794
 20
78.8183
 30
0.0
 11
259.793
 21
78.8183
 31
0.0
  0
LINE
  8
0
 62
     0
 10
259.793
 20
78.8183
 30
0.0
 11
259.793
 21
92.819
 31
0.0
  0
LINE
  8
0
 62
     0
 10
274.713
 20
54.1694
 30
0.0
 11
278.012
 21
54.1694
 31
0.0
  0
LINE
  8
0
 62
     0
 10
278.012
 20
54.1694
 30
0.0
 11
278.012
 21
39.9687
 31
0.0
  0
LINE
  8
0
 62
     0
 10
278.012
 20
39.9687
 30
0.0
 11
274.713
 21
39.9687
 31
0.0
  0
LINE
  8
0
 62
     0
 10
274.713
 20
39.9687
 30
0.0
 11
274.713
 21
54.1694
 31
0.0
  0
LINE
  8
0
 62
     0
 10
264.557
 20
73.769
 30
0.0
 11
278.557
 21
73.769
 31
0.0
  0
LINE
  8
0
 62
     0
 10
278.557
 20
73.769
 30
0.0
 11
278.557
 21
59.7683
 31
0.0
  0
LINE
  8
0
 62
     0
 10
278.557
 20
59.7683
 30
0.0
 11
264.557
 21
59.7683
 31
0.0
  0
LINE
  8
0
 62
     0
 10
264.557
 20
59.7683
 30
0.0
 11
264.557
 21
73.769
 31
0.0
  0
LINE
  8
0
 62
     0
 10
277.093
 20
92.2694
 30
0.0
 11
280.393
 21
92.2694
 31
0.0
  0
LINE
  8
0
 62
     0
 10
280.393
 20
92.2694
 30
0.0
 11
280.393
 21
78.0687
 31
0.0
  0
LINE
  8
0
 62
     0
 10
280.393
 20
78.0687
 30
0.0
 11
277.093
 21
78.0687
 31
0.0
  0
LINE
  8
0
 62
     0
 10
277.093
 20
78.0687
 30
0.0
 11
277.093
 21
92.2694
 31
0.0
  0
LINE
  8
0
 62
     0
 10
266.938
 20
16.6192
 30
0.0
 11
280.938
 21
16.6192
 31
0.0
  0
LINE
  8
0
 62
     0
 10
280.938
 20
16.6192
 30
0.0
 11
280.938
 21
2.61827
 31
0.0
  0
LINE
  8
0
 62
     0
 10
280.938
 20
2.61827
 30
0.0
 11
266.938
 21
2.61827
 31
0.0
  0
LINE
  8
0
 62
     0
 10
266.938
 20
2.61827
 30
0.0
 11
266.938
 21
16.6192
 31
0.0
  0
LINE
  8
0
 62
     0
 10
269.318
 20
35.669
 30
0.0
 11
283.319
 21
35.669
 31
0.0
  0
LINE
  8
0
 62
     0
 10
283.319
 20
35.669
 30
0.0
 11
283.319
 21
21.6683
 31
0.0
  0
LINE
  8
0
 62
     0
 10
283.319
 20
21.6683
 30
0.0
 11
269.318
 21
21.6683
 31
0.0
  0
LINE
  8
0
 62
     0
 10
269.318
 20
21.6683
 30
0.0
 11
269.318
 21
35.669
 31
0.0
  0
ENDSEC
  0
EOF
