  0
SECTION
  2
HEADER
  9
$ACADVER
  1
AC1009
  9
$EXTMIN
 10
0.0
 20
0.0
 30
0.0
  9
$EXTMAX
 10
1000.0
 20
1000.0
 30
0.0
  9
$FILLMODE
 70
 0
  9
$SPLFRAME
 70
 1
  0
ENDSEC
  0
SECTION
  2
TABLES
  0
TABLE
  2
LAYER
 70
1
  0
LAYER
  2
0
 70
     0
 62
     7
  6
CONTINUOUS
  0
ENDTAB
  0
ENDSEC
  0
SECTION
  2
ENTITIES
  0
LINE
  8
0
 62
     0
 10
149.969
 20
103.343
 30
0.0
 11
150.046
 21
103.342
 31
0.0
  0
LINE
  8
0
 62
     0
 10
150.046
 20
103.342
 30
0.0
 11
150.125
 21
103.331
 31
0.0
  0
LINE
  8
0
 62
     0
 10
150.125
 20
103.331
 30
0.0
 11
150.202
 21
103.316
 31
0.0
  0
LINE
  8
0
 62
     0
 10
150.202
 20
103.316
 30
0.0
 11
150.278
 21
103.294
 31
0.0
  0
LINE
  8
0
 62
     0
 10
150.278
 20
103.294
 30
0.0
 11
150.352
 21
103.269
 31
0.0
  0
LINE
  8
0
 62
     0
 10
150.352
 20
103.269
 30
0.0
 11
150.423
 21
103.234
 31
0.0
  0
LINE
  8
0
 62
     0
 10
150.423
 20
103.234
 30
0.0
 11
150.491
 21
103.196
 31
0.0
  0
LINE
  8
0
 62
     0
 10
150.491
 20
103.196
 30
0.0
 11
150.556
 21
103.152
 31
0.0
  0
LINE
  8
0
 62
     0
 10
150.556
 20
103.152
 30
0.0
 11
150.618
 21
103.104
 31
0.0
  0
LINE
  8
0
 62
     0
 10
150.618
 20
103.104
 30
0.0
 11
150.676
 21
103.05
 31
0.0
  0
LINE
  8
0
 62
     0
 10
150.676
 20
103.05
 30
0.0
 11
150.729
 21
102.992
 31
0.0
  0
LINE
  8
0
 62
     0
 10
150.729
 20
102.992
 30
0.0
 11
150.778
 21
102.931
 31
0.0
  0
LINE
  8
0
 62
     0
 10
150.778
 20
102.931
 30
0.0
 11
150.822
 21
102.865
 31
0.0
  0
LINE
  8
0
 62
     0
 10
150.822
 20
102.865
 30
0.0
 11
150.859
 21
102.799
 31
0.0
  0
LINE
  8
0
 62
     0
 10
150.859
 20
102.799
 30
0.0
 11
150.893
 21
102.726
 31
0.0
  0
LINE
  8
0
 62
     0
 10
150.893
 20
102.726
 30
0.0
 11
150.92
 21
102.653
 31
0.0
  0
LINE
  8
0
 62
     0
 10
150.92
 20
102.653
 30
0.0
 11
150.941
 21
102.577
 31
0.0
  0
LINE
  8
0
 62
     0
 10
150.941
 20
102.577
 30
0.0
 11
150.957
 21
102.5
 31
0.0
  0
LINE
  8
0
 62
     0
 10
150.957
 20
102.5
 30
0.0
 11
150.966
 21
102.421
 31
0.0
  0
LINE
  8
0
 62
     0
 10
150.966
 20
102.421
 30
0.0
 11
150.968
 21
102.343
 31
0.0
  0
LINE
  8
0
 62
     0
 10
150.968
 20
102.343
 30
0.0
 11
150.968
 21
1.09416
 31
0.0
  0
LINE
  8
0
 62
     0
 10
150.968
 20
1.09416
 30
0.0
 11
150.966
 21
1.01562
 31
0.0
  0
LINE
  8
0
 62
     0
 10
150.966
 20
1.01562
 30
0.0
 11
150.957
 21
0.937066
 31
0.0
  0
LINE
  8
0
 62
     0
 10
150.957
 20
0.937066
 30
0.0
 11
150.941
 21
0.859896
 31
0.0
  0
LINE
  8
0
 62
     0
 10
150.941
 20
0.859896
 30
0.0
 11
150.92
 21
0.785481
 31
0.0
  0
LINE
  8
0
 62
     0
 10
150.92
 20
0.785481
 30
0.0
 11
150.893
 21
0.70969
 31
0.0
  0
LINE
  8
0
 62
     0
 10
150.893
 20
0.70969
 30
0.0
 11
150.859
 21
0.63941
 31
0.0
  0
LINE
  8
0
 62
     0
 10
150.859
 20
0.63941
 30
0.0
 11
150.822
 21
0.570509
 31
0.0
  0
LINE
  8
0
 62
     0
 10
150.822
 20
0.570509
 30
0.0
 11
150.778
 21
0.507118
 31
0.0
  0
LINE
  8
0
 62
     0
 10
150.778
 20
0.507118
 30
0.0
 11
150.729
 21
0.443727
 31
0.0
  0
LINE
  8
0
 62
     0
 10
150.729
 20
0.443727
 30
0.0
 11
150.676
 21
0.385851
 31
0.0
  0
LINE
  8
0
 62
     0
 10
150.676
 20
0.385851
 30
0.0
 11
150.618
 21
0.333485
 31
0.0
  0
LINE
  8
0
 62
     0
 10
150.618
 20
0.333485
 30
0.0
 11
150.556
 21
0.283876
 31
0.0
  0
LINE
  8
0
 62
     0
 10
150.556
 20
0.283876
 30
0.0
 11
150.491
 21
0.239779
 31
0.0
  0
LINE
  8
0
 62
     0
 10
150.491
 20
0.239779
 30
0.0
 11
150.423
 21
0.202572
 31
0.0
  0
LINE
  8
0
 62
     0
 10
150.423
 20
0.202572
 30
0.0
 11
150.352
 21
0.169499
 31
0.0
  0
LINE
  8
0
 62
     0
 10
150.352
 20
0.169499
 30
0.0
 11
150.278
 21
0.141938
 31
0.0
  0
LINE
  8
0
 62
     0
 10
150.278
 20
0.141938
 30
0.0
 11
150.202
 21
0.121267
 31
0.0
  0
LINE
  8
0
 62
     0
 10
150.202
 20
0.121267
 30
0.0
 11
150.125
 21
0.104731
 31
0.0
  0
LINE
  8
0
 62
     0
 10
150.125
 20
0.104731
 30
0.0
 11
150.046
 21
0.0964629
 31
0.0
  0
LINE
  8
0
 62
     0
 10
150.046
 20
0.0964629
 30
0.0
 11
149.969
 21
0.0950846
 31
0.0
  0
LINE
  8
0
 62
     0
 10
149.969
 20
0.0950846
 30
0.0
 11
1.09416
 21
0.0950846
 31
0.0
  0
LINE
  8
0
 62
     0
 10
1.09416
 20
0.0950846
 30
0.0
 11
1.01562
 21
0.0964629
 31
0.0
  0
LINE
  8
0
 62
     0
 10
1.01562
 20
0.0964629
 30
0.0
 11
0.937066
 21
0.104731
 31
0.0
  0
LINE
  8
0
 62
     0
 10
0.937066
 20
0.104731
 30
0.0
 11
0.861275
 21
0.121267
 31
0.0
  0
LINE
  8
0
 62
     0
 10
0.861275
 20
0.121267
 30
0.0
 11
0.784105
 21
0.141938
 31
0.0
  0
LINE
  8
0
 62
     0
 10
0.784105
 20
0.141938
 30
0.0
 11
0.711069
 21
0.169499
 31
0.0
  0
LINE
  8
0
 62
     0
 10
0.711069
 20
0.169499
 30
0.0
 11
0.63941
 21
0.202572
 31
0.0
  0
LINE
  8
0
 62
     0
 10
0.63941
 20
0.202572
 30
0.0
 11
0.571885
 21
0.239779
 31
0.0
  0
LINE
  8
0
 62
     0
 10
0.571885
 20
0.239779
 30
0.0
 11
0.505739
 21
0.283876
 31
0.0
  0
LINE
  8
0
 62
     0
 10
0.505739
 20
0.283876
 30
0.0
 11
0.445107
 21
0.333485
 31
0.0
  0
LINE
  8
0
 62
     0
 10
0.445107
 20
0.333485
 30
0.0
 11
0.38723
 21
0.385851
 31
0.0
  0
LINE
  8
0
 62
     0
 10
0.38723
 20
0.385851
 30
0.0
 11
0.333485
 21
0.443727
 31
0.0
  0
LINE
  8
0
 62
     0
 10
0.333485
 20
0.443727
 30
0.0
 11
0.285254
 21
0.507118
 31
0.0
  0
LINE
  8
0
 62
     0
 10
0.285254
 20
0.507118
 30
0.0
 11
0.241157
 21
0.570509
 31
0.0
  0
LINE
  8
0
 62
     0
 10
0.241157
 20
0.570509
 30
0.0
 11
0.202572
 21
0.63941
 31
0.0
  0
LINE
  8
0
 62
     0
 10
0.202572
 20
0.63941
 30
0.0
 11
0.169499
 21
0.70969
 31
0.0
  0
LINE
  8
0
 62
     0
 10
0.169499
 20
0.70969
 30
0.0
 11
0.143316
 21
0.785481
 31
0.0
  0
LINE
  8
0
 62
     0
 10
0.143316
 20
0.785481
 30
0.0
 11
0.121267
 21
0.859896
 31
0.0
  0
LINE
  8
0
 62
     0
 10
0.121267
 20
0.859896
 30
0.0
 11
0.106109
 21
0.937066
 31
0.0
  0
LINE
  8
0
 62
     0
 10
0.106109
 20
0.937066
 30
0.0
 11
0.0964629
 21
1.01562
 31
0.0
  0
LINE
  8
0
 62
     0
 10
0.0964629
 20
1.01562
 30
0.0
 11
0.0937066
 21
1.09416
 31
0.0
  0
LINE
  8
0
 62
     0
 10
0.0937066
 20
1.09416
 30
0.0
 11
0.0937066
 21
102.343
 31
0.0
  0
LINE
  8
0
 62
     0
 10
0.0937066
 20
102.343
 30
0.0
 11
0.0964629
 21
102.421
 31
0.0
  0
LINE
  8
0
 62
     0
 10
0.0964629
 20
102.421
 30
0.0
 11
0.106109
 21
102.5
 31
0.0
  0
LINE
  8
0
 62
     0
 10
0.106109
 20
102.5
 30
0.0
 11
0.121267
 21
102.577
 31
0.0
  0
LINE
  8
0
 62
     0
 10
0.121267
 20
102.577
 30
0.0
 11
0.143316
 21
102.653
 31
0.0
  0
LINE
  8
0
 62
     0
 10
0.143316
 20
102.653
 30
0.0
 11
0.169499
 21
102.726
 31
0.0
  0
LINE
  8
0
 62
     0
 10
0.169499
 20
102.726
 30
0.0
 11
0.202572
 21
102.799
 31
0.0
  0
LINE
  8
0
 62
     0
 10
0.202572
 20
102.799
 30
0.0
 11
0.241157
 21
102.865
 31
0.0
  0
LINE
  8
0
 62
     0
 10
0.241157
 20
102.865
 30
0.0
 11
0.285254
 21
102.931
 31
0.0
  0
LINE
  8
0
 62
     0
 10
0.285254
 20
102.931
 30
0.0
 11
0.333485
 21
102.992
 31
0.0
  0
LINE
  8
0
 62
     0
 10
0.333485
 20
102.992
 30
0.0
 11
0.38723
 21
103.05
 31
0.0
  0
LINE
  8
0
 62
     0
 10
0.38723
 20
103.05
 30
0.0
 11
0.445107
 21
103.104
 31
0.0
  0
LINE
  8
0
 62
     0
 10
0.445107
 20
103.104
 30
0.0
 11
0.505739
 21
103.152
 31
0.0
  0
LINE
  8
0
 62
     0
 10
0.505739
 20
103.152
 30
0.0
 11
0.571885
 21
103.196
 31
0.0
  0
LINE
  8
0
 62
     0
 10
0.571885
 20
103.196
 30
0.0
 11
0.63941
 21
103.234
 31
0.0
  0
LINE
  8
0
 62
     0
 10
0.63941
 20
103.234
 30
0.0
 11
0.711069
 21
103.269
 31
0.0
  0
LINE
  8
0
 62
     0
 10
0.711069
 20
103.269
 30
0.0
 11
0.784105
 21
103.294
 31
0.0
  0
LINE
  8
0
 62
     0
 10
0.784105
 20
103.294
 30
0.0
 11
0.861275
 21
103.316
 31
0.0
  0
LINE
  8
0
 62
     0
 10
0.861275
 20
103.316
 30
0.0
 11
0.937066
 21
103.331
 31
0.0
  0
LINE
  8
0
 62
     0
 10
0.937066
 20
103.331
 30
0.0
 11
1.01562
 21
103.342
 31
0.0
  0
LINE
  8
0
 62
     0
 10
1.01562
 20
103.342
 30
0.0
 11
1.09416
 21
103.343
 31
0.0
  0
LINE
  8
0
 62
     0
 10
1.09416
 20
103.343
 30
0.0
 11
149.969
 21
103.343
 31
0.0
  0
LINE
  8
0
 62
     0
 10
6.61871
 20
96.8181
 30
0.0
 11
20.6182
 21
96.8181
 31
0.0
  0
LINE
  8
0
 62
     0
 10
20.6182
 20
96.8181
 30
0.0
 11
20.6182
 21
82.8188
 31
0.0
  0
LINE
  8
0
 62
     0
 10
20.6182
 20
82.8188
 30
0.0
 11
6.61871
 21
82.8188
 31
0.0
  0
LINE
  8
0
 62
     0
 10
6.61871
 20
82.8188
 30
0.0
 11
6.61871
 21
96.8181
 31
0.0
  0
LINE
  8
0
 62
     0
 10
6.61871
 20
77.7681
 30
0.0
 11
20.6182
 21
77.7681
 31
0.0
  0
LINE
  8
0
 62
     0
 10
20.6182
 20
77.7681
 30
0.0
 11
20.6182
 21
63.7688
 31
0.0
  0
LINE
  8
0
 62
     0
 10
20.6182
 20
63.7688
 30
0.0
 11
6.61871
 21
63.7688
 31
0.0
  0
LINE
  8
0
 62
     0
 10
6.61871
 20
63.7688
 30
0.0
 11
6.61871
 21
77.7681
 31
0.0
  0
LINE
  8
0
 62
     0
 10
6.61871
 20
58.7181
 30
0.0
 11
20.6182
 21
58.7181
 31
0.0
  0
LINE
  8
0
 62
     0
 10
20.6182
 20
58.7181
 30
0.0
 11
20.6182
 21
44.7188
 31
0.0
  0
LINE
  8
0
 62
     0
 10
20.6182
 20
44.7188
 30
0.0
 11
6.61871
 21
44.7188
 31
0.0
  0
LINE
  8
0
 62
     0
 10
6.61871
 20
44.7188
 30
0.0
 11
6.61871
 21
58.7181
 31
0.0
  0
LINE
  8
0
 62
     0
 10
6.61871
 20
39.6681
 30
0.0
 11
20.6182
 21
39.6681
 31
0.0
  0
LINE
  8
0
 62
     0
 10
20.6182
 20
39.6681
 30
0.0
 11
20.6182
 21
25.6687
 31
0.0
  0
LINE
  8
0
 62
     0
 10
20.6182
 20
25.6687
 30
0.0
 11
6.61871
 21
25.6687
 31
0.0
  0
LINE
  8
0
 62
     0
 10
6.61871
 20
25.6687
 30
0.0
 11
6.61871
 21
39.6681
 31
0.0
  0
LINE
  8
0
 62
     0
 10
6.61871
 20
20.6182
 30
0.0
 11
20.6182
 21
20.6182
 31
0.0
  0
LINE
  8
0
 62
     0
 10
20.6182
 20
20.6182
 30
0.0
 11
20.6182
 21
6.61871
 31
0.0
  0
LINE
  8
0
 62
     0
 10
20.6182
 20
6.61871
 30
0.0
 11
6.61871
 21
6.61871
 31
0.0
  0
LINE
  8
0
 62
     0
 10
6.61871
 20
6.61871
 30
0.0
 11
6.61871
 21
20.6182
 31
0.0
  0
LINE
  8
0
 62
     0
 10
32.8125
 20
96.8181
 30
0.0
 11
46.8133
 21
96.8181
 31
0.0
  0
LINE
  8
0
 62
     0
 10
46.8133
 20
96.8181
 30
0.0
 11
46.8133
 21
82.8188
 31
0.0
  0
LINE
  8
0
 62
     0
 10
46.8133
 20
82.8188
 30
0.0
 11
32.8125
 21
82.8188
 31
0.0
  0
LINE
  8
0
 62
     0
 10
32.8125
 20
82.8188
 30
0.0
 11
32.8125
 21
96.8181
 31
0.0
  0
LINE
  8
0
 62
     0
 10
32.8125
 20
77.7681
 30
0.0
 11
46.8133
 21
77.7681
 31
0.0
  0
LINE
  8
0
 62
     0
 10
46.8133
 20
77.7681
 30
0.0
 11
46.8133
 21
63.7688
 31
0.0
  0
LINE
  8
0
 62
     0
 10
46.8133
 20
63.7688
 30
0.0
 11
32.8125
 21
63.7688
 31
0.0
  0
LINE
  8
0
 62
     0
 10
32.8125
 20
63.7688
 30
0.0
 11
32.8125
 21
77.7681
 31
0.0
  0
LINE
  8
0
 62
     0
 10
32.8125
 20
58.7181
 30
0.0
 11
46.8133
 21
58.7181
 31
0.0
  0
LINE
  8
0
 62
     0
 10
46.8133
 20
58.7181
 30
0.0
 11
46.8133
 21
44.7188
 31
0.0
  0
LINE
  8
0
 62
     0
 10
46.8133
 20
44.7188
 30
0.0
 11
32.8125
 21
44.7188
 31
0.0
  0
LINE
  8
0
 62
     0
 10
32.8125
 20
44.7188
 30
0.0
 11
32.8125
 21
58.7181
 31
0.0
  0
LINE
  8
0
 62
     0
 10
32.8125
 20
39.6681
 30
0.0
 11
46.8133
 21
39.6681
 31
0.0
  0
LINE
  8
0
 62
     0
 10
46.8133
 20
39.6681
 30
0.0
 11
46.8133
 21
25.6687
 31
0.0
  0
LINE
  8
0
 62
     0
 10
46.8133
 20
25.6687
 30
0.0
 11
32.8125
 21
25.6687
 31
0.0
  0
LINE
  8
0
 62
     0
 10
32.8125
 20
25.6687
 30
0.0
 11
32.8125
 21
39.6681
 31
0.0
  0
LINE
  8
0
 62
     0
 10
32.8125
 20
20.6182
 30
0.0
 11
46.8133
 21
20.6182
 31
0.0
  0
LINE
  8
0
 62
     0
 10
46.8133
 20
20.6182
 30
0.0
 11
46.8133
 21
6.61871
 31
0.0
  0
LINE
  8
0
 62
     0
 10
46.8133
 20
6.61871
 30
0.0
 11
32.8125
 21
6.61871
 31
0.0
  0
LINE
  8
0
 62
     0
 10
32.8125
 20
6.61871
 30
0.0
 11
32.8125
 21
20.6182
 31
0.0
  0
LINE
  8
0
 62
     0
 10
54.2438
 20
96.8181
 30
0.0
 11
68.2431
 21
96.8181
 31
0.0
  0
LINE
  8
0
 62
     0
 10
68.2431
 20
96.8181
 30
0.0
 11
68.2431
 21
82.8188
 31
0.0
  0
LINE
  8
0
 62
     0
 10
68.2431
 20
82.8188
 30
0.0
 11
54.2438
 21
82.8188
 31
0.0
  0
LINE
  8
0
 62
     0
 10
54.2438
 20
82.8188
 30
0.0
 11
54.2438
 21
96.8181
 31
0.0
  0
LINE
  8
0
 62
     0
 10
54.2438
 20
77.7681
 30
0.0
 11
68.2431
 21
77.7681
 31
0.0
  0
LINE
  8
0
 62
     0
 10
68.2431
 20
77.7681
 30
0.0
 11
68.2431
 21
63.7688
 31
0.0
  0
LINE
  8
0
 62
     0
 10
68.2431
 20
63.7688
 30
0.0
 11
54.2438
 21
63.7688
 31
0.0
  0
LINE
  8
0
 62
     0
 10
54.2438
 20
63.7688
 30
0.0
 11
54.2438
 21
77.7681
 31
0.0
  0
LINE
  8
0
 62
     0
 10
54.2438
 20
58.7181
 30
0.0
 11
68.2431
 21
58.7181
 31
0.0
  0
LINE
  8
0
 62
     0
 10
68.2431
 20
58.7181
 30
0.0
 11
68.2431
 21
44.7188
 31
0.0
  0
LINE
  8
0
 62
     0
 10
68.2431
 20
44.7188
 30
0.0
 11
54.2438
 21
44.7188
 31
0.0
  0
LINE
  8
0
 62
     0
 10
54.2438
 20
44.7188
 30
0.0
 11
54.2438
 21
58.7181
 31
0.0
  0
LINE
  8
0
 62
     0
 10
54.2438
 20
39.6681
 30
0.0
 11
68.2431
 21
39.6681
 31
0.0
  0
LINE
  8
0
 62
     0
 10
68.2431
 20
39.6681
 30
0.0
 11
68.2431
 21
25.6687
 31
0.0
  0
LINE
  8
0
 62
     0
 10
68.2431
 20
25.6687
 30
0.0
 11
54.2438
 21
25.6687
 31
0.0
  0
LINE
  8
0
 62
     0
 10
54.2438
 20
25.6687
 30
0.0
 11
54.2438
 21
39.6681
 31
0.0
  0
LINE
  8
0
 62
     0
 10
56.6251
 20
20.6182
 30
0.0
 11
70.6244
 21
20.6182
 31
0.0
  0
LINE
  8
0
 62
     0
 10
70.6244
 20
20.6182
 30
0.0
 11
70.6244
 21
6.61871
 31
0.0
  0
LINE
  8
0
 62
     0
 10
70.6244
 20
6.61871
 30
0.0
 11
56.6251
 21
6.61871
 31
0.0
  0
LINE
  8
0
 62
     0
 10
56.6251
 20
6.61871
 30
0.0
 11
56.6251
 21
20.6182
 31
0.0
  0
LINE
  8
0
 62
     0
 10
73.2938
 20
96.8181
 30
0.0
 11
87.2931
 21
96.8181
 31
0.0
  0
LINE
  8
0
 62
     0
 10
87.2931
 20
96.8181
 30
0.0
 11
87.2931
 21
82.8188
 31
0.0
  0
LINE
  8
0
 62
     0
 10
87.2931
 20
82.8188
 30
0.0
 11
73.2938
 21
82.8188
 31
0.0
  0
LINE
  8
0
 62
     0
 10
73.2938
 20
82.8188
 30
0.0
 11
73.2938
 21
96.8181
 31
0.0
  0
LINE
  8
0
 62
     0
 10
73.2938
 20
77.7681
 30
0.0
 11
87.2931
 21
77.7681
 31
0.0
  0
LINE
  8
0
 62
     0
 10
87.2931
 20
77.7681
 30
0.0
 11
87.2931
 21
63.7688
 31
0.0
  0
LINE
  8
0
 62
     0
 10
87.2931
 20
63.7688
 30
0.0
 11
73.2938
 21
63.7688
 31
0.0
  0
LINE
  8
0
 62
     0
 10
73.2938
 20
63.7688
 30
0.0
 11
73.2938
 21
77.7681
 31
0.0
  0
LINE
  8
0
 62
     0
 10
73.2938
 20
58.7181
 30
0.0
 11
87.2931
 21
58.7181
 31
0.0
  0
LINE
  8
0
 62
     0
 10
87.2931
 20
58.7181
 30
0.0
 11
87.2931
 21
44.7188
 31
0.0
  0
LINE
  8
0
 62
     0
 10
87.2931
 20
44.7188
 30
0.0
 11
73.2938
 21
44.7188
 31
0.0
  0
LINE
  8
0
 62
     0
 10
73.2938
 20
44.7188
 30
0.0
 11
73.2938
 21
58.7181
 31
0.0
  0
LINE
  8
0
 62
     0
 10
73.2938
 20
39.6681
 30
0.0
 11
87.2931
 21
39.6681
 31
0.0
  0
LINE
  8
0
 62
     0
 10
87.2931
 20
39.6681
 30
0.0
 11
87.2931
 21
25.6687
 31
0.0
  0
LINE
  8
0
 62
     0
 10
87.2931
 20
25.6687
 30
0.0
 11
73.2938
 21
25.6687
 31
0.0
  0
LINE
  8
0
 62
     0
 10
73.2938
 20
25.6687
 30
0.0
 11
73.2938
 21
39.6681
 31
0.0
  0
LINE
  8
0
 62
     0
 10
80.4376
 20
20.6182
 30
0.0
 11
94.4383
 21
20.6182
 31
0.0
  0
LINE
  8
0
 62
     0
 10
94.4383
 20
20.6182
 30
0.0
 11
94.4383
 21
6.61871
 31
0.0
  0
LINE
  8
0
 62
     0
 10
94.4383
 20
6.61871
 30
0.0
 11
80.4376
 21
6.61871
 31
0.0
  0
LINE
  8
0
 62
     0
 10
80.4376
 20
6.61871
 30
0.0
 11
80.4376
 21
20.6182
 31
0.0
  0
LINE
  8
0
 62
     0
 10
92.3438
 20
96.8181
 30
0.0
 11
106.343
 21
96.8181
 31
0.0
  0
LINE
  8
0
 62
     0
 10
106.343
 20
96.8181
 30
0.0
 11
106.343
 21
82.8188
 31
0.0
  0
LINE
  8
0
 62
     0
 10
106.343
 20
82.8188
 30
0.0
 11
92.3438
 21
82.8188
 31
0.0
  0
LINE
  8
0
 62
     0
 10
92.3438
 20
82.8188
 30
0.0
 11
92.3438
 21
96.8181
 31
0.0
  0
LINE
  8
0
 62
     0
 10
92.3438
 20
77.7681
 30
0.0
 11
106.343
 21
77.7681
 31
0.0
  0
LINE
  8
0
 62
     0
 10
106.343
 20
77.7681
 30
0.0
 11
106.343
 21
63.7688
 31
0.0
  0
LINE
  8
0
 62
     0
 10
106.343
 20
63.7688
 30
0.0
 11
92.3438
 21
63.7688
 31
0.0
  0
LINE
  8
0
 62
     0
 10
92.3438
 20
63.7688
 30
0.0
 11
92.3438
 21
77.7681
 31
0.0
  0
LINE
  8
0
 62
     0
 10
92.3438
 20
58.7181
 30
0.0
 11
106.343
 21
58.7181
 31
0.0
  0
LINE
  8
0
 62
     0
 10
106.343
 20
58.7181
 30
0.0
 11
106.343
 21
44.7188
 31
0.0
  0
LINE
  8
0
 62
     0
 10
106.343
 20
44.7188
 30
0.0
 11
92.3438
 21
44.7188
 31
0.0
  0
LINE
  8
0
 62
     0
 10
92.3438
 20
44.7188
 30
0.0
 11
92.3438
 21
58.7181
 31
0.0
  0
LINE
  8
0
 62
     0
 10
92.3438
 20
39.6681
 30
0.0
 11
106.343
 21
39.6681
 31
0.0
  0
LINE
  8
0
 62
     0
 10
106.343
 20
39.6681
 30
0.0
 11
106.343
 21
25.6687
 31
0.0
  0
LINE
  8
0
 62
     0
 10
106.343
 20
25.6687
 30
0.0
 11
92.3438
 21
25.6687
 31
0.0
  0
LINE
  8
0
 62
     0
 10
92.3438
 20
25.6687
 30
0.0
 11
92.3438
 21
39.6681
 31
0.0
  0
LINE
  8
0
 62
     0
 10
109.557
 20
20.0684
 30
0.0
 11
112.857
 21
20.0684
 31
0.0
  0
LINE
  8
0
 62
     0
 10
112.857
 20
20.0684
 30
0.0
 11
112.857
 21
5.86768
 31
0.0
  0
LINE
  8
0
 62
     0
 10
112.857
 20
5.86768
 30
0.0
 11
109.557
 21
5.86768
 31
0.0
  0
LINE
  8
0
 62
     0
 10
109.557
 20
5.86768
 30
0.0
 11
109.557
 21
20.0684
 31
0.0
  0
LINE
  8
0
 62
     0
 10
111.394
 20
96.8181
 30
0.0
 11
125.393
 21
96.8181
 31
0.0
  0
LINE
  8
0
 62
     0
 10
125.393
 20
96.8181
 30
0.0
 11
125.393
 21
82.8188
 31
0.0
  0
LINE
  8
0
 62
     0
 10
125.393
 20
82.8188
 30
0.0
 11
111.394
 21
82.8188
 31
0.0
  0
LINE
  8
0
 62
     0
 10
111.394
 20
82.8188
 30
0.0
 11
111.394
 21
96.8181
 31
0.0
  0
LINE
  8
0
 62
     0
 10
111.394
 20
77.7681
 30
0.0
 11
125.393
 21
77.7681
 31
0.0
  0
LINE
  8
0
 62
     0
 10
125.393
 20
77.7681
 30
0.0
 11
125.393
 21
63.7688
 31
0.0
  0
LINE
  8
0
 62
     0
 10
125.393
 20
63.7688
 30
0.0
 11
111.394
 21
63.7688
 31
0.0
  0
LINE
  8
0
 62
     0
 10
111.394
 20
63.7688
 30
0.0
 11
111.394
 21
77.7681
 31
0.0
  0
LINE
  8
0
 62
     0
 10
111.394
 20
58.7181
 30
0.0
 11
125.393
 21
58.7181
 31
0.0
  0
LINE
  8
0
 62
     0
 10
125.393
 20
58.7181
 30
0.0
 11
125.393
 21
44.7188
 31
0.0
  0
LINE
  8
0
 62
     0
 10
125.393
 20
44.7188
 30
0.0
 11
111.394
 21
44.7188
 31
0.0
  0
LINE
  8
0
 62
     0
 10
111.394
 20
44.7188
 30
0.0
 11
111.394
 21
58.7181
 31
0.0
  0
LINE
  8
0
 62
     0
 10
111.394
 20
39.6681
 30
0.0
 11
125.393
 21
39.6681
 31
0.0
  0
LINE
  8
0
 62
     0
 10
125.393
 20
39.6681
 30
0.0
 11
125.393
 21
25.6687
 31
0.0
  0
LINE
  8
0
 62
     0
 10
125.393
 20
25.6687
 30
0.0
 11
111.394
 21
25.6687
 31
0.0
  0
LINE
  8
0
 62
     0
 10
111.394
 20
25.6687
 30
0.0
 11
111.394
 21
39.6681
 31
0.0
  0
LINE
  8
0
 62
     0
 10
116.156
 20
20.6182
 30
0.0
 11
130.156
 21
20.6182
 31
0.0
  0
LINE
  8
0
 62
     0
 10
130.156
 20
20.6182
 30
0.0
 11
130.156
 21
6.61871
 31
0.0
  0
LINE
  8
0
 62
     0
 10
130.156
 20
6.61871
 30
0.0
 11
116.156
 21
6.61871
 31
0.0
  0
LINE
  8
0
 62
     0
 10
116.156
 20
6.61871
 30
0.0
 11
116.156
 21
20.6182
 31
0.0
  0
LINE
  8
0
 62
     0
 10
133.456
 20
20.0684
 30
0.0
 11
136.755
 21
20.0684
 31
0.0
  0
LINE
  8
0
 62
     0
 10
136.755
 20
20.0684
 30
0.0
 11
136.755
 21
5.86768
 31
0.0
  0
LINE
  8
0
 62
     0
 10
136.755
 20
5.86768
 30
0.0
 11
133.456
 21
5.86768
 31
0.0
  0
LINE
  8
0
 62
     0
 10
133.456
 20
5.86768
 30
0.0
 11
133.456
 21
20.0684
 31
0.0
  0
LINE
  8
0
 62
     0
 10
130.444
 20
96.8181
 30
0.0
 11
144.443
 21
96.8181
 31
0.0
  0
LINE
  8
0
 62
     0
 10
144.443
 20
96.8181
 30
0.0
 11
144.443
 21
82.8188
 31
0.0
  0
LINE
  8
0
 62
     0
 10
144.443
 20
82.8188
 30
0.0
 11
130.444
 21
82.8188
 31
0.0
  0
LINE
  8
0
 62
     0
 10
130.444
 20
82.8188
 30
0.0
 11
130.444
 21
96.8181
 31
0.0
  0
LINE
  8
0
 62
     0
 10
130.444
 20
77.7681
 30
0.0
 11
144.443
 21
77.7681
 31
0.0
  0
LINE
  8
0
 62
     0
 10
144.443
 20
77.7681
 30
0.0
 11
144.443
 21
63.7688
 31
0.0
  0
LINE
  8
0
 62
     0
 10
144.443
 20
63.7688
 30
0.0
 11
130.444
 21
63.7688
 31
0.0
  0
LINE
  8
0
 62
     0
 10
130.444
 20
63.7688
 30
0.0
 11
130.444
 21
77.7681
 31
0.0
  0
LINE
  8
0
 62
     0
 10
130.444
 20
58.7181
 30
0.0
 11
144.443
 21
58.7181
 31
0.0
  0
LINE
  8
0
 62
     0
 10
144.443
 20
58.7181
 30
0.0
 11
144.443
 21
44.7188
 31
0.0
  0
LINE
  8
0
 62
     0
 10
144.443
 20
44.7188
 30
0.0
 11
130.444
 21
44.7188
 31
0.0
  0
LINE
  8
0
 62
     0
 10
130.444
 20
44.7188
 30
0.0
 11
130.444
 21
58.7181
 31
0.0
  0
LINE
  8
0
 62
     0
 10
130.444
 20
39.6681
 30
0.0
 11
144.443
 21
39.6681
 31
0.0
  0
LINE
  8
0
 62
     0
 10
144.443
 20
39.6681
 30
0.0
 11
144.443
 21
25.6687
 31
0.0
  0
LINE
  8
0
 62
     0
 10
144.443
 20
25.6687
 30
0.0
 11
130.444
 21
25.6687
 31
0.0
  0
LINE
  8
0
 62
     0
 10
130.444
 20
25.6687
 30
0.0
 11
130.444
 21
39.6681
 31
0.0
  0
ENDSEC
  0
EOF
