  0
SECTION
  2
HEADER
  9
$ACADVER
  1
AC1009
  9
$EXTMIN
 10
0.0
 20
0.0
 30
0.0
  9
$EXTMAX
 10
1000.0
 20
1000.0
 30
0.0
  9
$FILLMODE
 70
 0
  9
$SPLFRAME
 70
 1
  0
ENDSEC
  0
SECTION
  2
TABLES
  0
TABLE
  2
LAYER
 70
1
  0
LAYER
  2
0
 70
     0
 62
     7
  6
CONTINUOUS
  0
ENDTAB
  0
ENDSEC
  0
SECTION
  2
ENTITIES
  0
LINE
  8
0
 62
     0
 10
145.969
 20
99.344
 30
0.0
 11
146.047
 21
99.3415
 31
0.0
  0
LINE
  8
0
 62
     0
 10
146.047
 20
99.3415
 30
0.0
 11
146.124
 21
99.3316
 31
0.0
  0
LINE
  8
0
 62
     0
 10
146.124
 20
99.3316
 30
0.0
 11
146.202
 21
99.3165
 31
0.0
  0
LINE
  8
0
 62
     0
 10
146.202
 20
99.3165
 30
0.0
 11
146.278
 21
99.2946
 31
0.0
  0
LINE
  8
0
 62
     0
 10
146.278
 20
99.2946
 30
0.0
 11
146.352
 21
99.2685
 31
0.0
  0
LINE
  8
0
 62
     0
 10
146.352
 20
99.2685
 30
0.0
 11
146.422
 21
99.2353
 31
0.0
  0
LINE
  8
0
 62
     0
 10
146.422
 20
99.2353
 30
0.0
 11
146.491
 21
99.1969
 31
0.0
  0
LINE
  8
0
 62
     0
 10
146.491
 20
99.1969
 30
0.0
 11
146.557
 21
99.1528
 31
0.0
  0
LINE
  8
0
 62
     0
 10
146.557
 20
99.1528
 30
0.0
 11
146.618
 21
99.1044
 31
0.0
  0
LINE
  8
0
 62
     0
 10
146.618
 20
99.1044
 30
0.0
 11
146.675
 21
99.0505
 31
0.0
  0
LINE
  8
0
 62
     0
 10
146.675
 20
99.0505
 30
0.0
 11
146.729
 21
98.9926
 31
0.0
  0
LINE
  8
0
 62
     0
 10
146.729
 20
98.9926
 30
0.0
 11
146.778
 21
98.9323
 31
0.0
  0
LINE
  8
0
 62
     0
 10
146.778
 20
98.9323
 30
0.0
 11
146.822
 21
98.866
 31
0.0
  0
LINE
  8
0
 62
     0
 10
146.822
 20
98.866
 30
0.0
 11
146.86
 21
98.7986
 31
0.0
  0
LINE
  8
0
 62
     0
 10
146.86
 20
98.7986
 30
0.0
 11
146.893
 21
98.7266
 31
0.0
  0
LINE
  8
0
 62
     0
 10
146.893
 20
98.7266
 30
0.0
 11
146.92
 21
98.6536
 31
0.0
  0
LINE
  8
0
 62
     0
 10
146.92
 20
98.6536
 30
0.0
 11
146.94
 21
98.5767
 31
0.0
  0
LINE
  8
0
 62
     0
 10
146.94
 20
98.5767
 30
0.0
 11
146.957
 21
98.5008
 31
0.0
  0
LINE
  8
0
 62
     0
 10
146.957
 20
98.5008
 30
0.0
 11
146.967
 21
98.4222
 31
0.0
  0
LINE
  8
0
 62
     0
 10
146.967
 20
98.4222
 30
0.0
 11
146.969
 21
98.3439
 31
0.0
  0
LINE
  8
0
 62
     0
 10
146.969
 20
98.3439
 30
0.0
 11
146.969
 21
1.09416
 31
0.0
  0
LINE
  8
0
 62
     0
 10
146.969
 20
1.09416
 30
0.0
 11
146.967
 21
1.01562
 31
0.0
  0
LINE
  8
0
 62
     0
 10
146.967
 20
1.01562
 30
0.0
 11
146.957
 21
0.938445
 31
0.0
  0
LINE
  8
0
 62
     0
 10
146.957
 20
0.938445
 30
0.0
 11
146.94
 21
0.861275
 31
0.0
  0
LINE
  8
0
 62
     0
 10
146.94
 20
0.861275
 30
0.0
 11
146.92
 21
0.785481
 31
0.0
  0
LINE
  8
0
 62
     0
 10
146.92
 20
0.785481
 30
0.0
 11
146.893
 21
0.711069
 31
0.0
  0
LINE
  8
0
 62
     0
 10
146.893
 20
0.711069
 30
0.0
 11
146.86
 21
0.640789
 31
0.0
  0
LINE
  8
0
 62
     0
 10
146.86
 20
0.640789
 30
0.0
 11
146.822
 21
0.571885
 31
0.0
  0
LINE
  8
0
 62
     0
 10
146.822
 20
0.571885
 30
0.0
 11
146.778
 21
0.505739
 31
0.0
  0
LINE
  8
0
 62
     0
 10
146.778
 20
0.505739
 30
0.0
 11
146.729
 21
0.445107
 31
0.0
  0
LINE
  8
0
 62
     0
 10
146.729
 20
0.445107
 30
0.0
 11
146.675
 21
0.38723
 31
0.0
  0
LINE
  8
0
 62
     0
 10
146.675
 20
0.38723
 30
0.0
 11
146.618
 21
0.333485
 31
0.0
  0
LINE
  8
0
 62
     0
 10
146.618
 20
0.333485
 30
0.0
 11
146.557
 21
0.285254
 31
0.0
  0
LINE
  8
0
 62
     0
 10
146.557
 20
0.285254
 30
0.0
 11
146.491
 21
0.241157
 31
0.0
  0
LINE
  8
0
 62
     0
 10
146.491
 20
0.241157
 30
0.0
 11
146.422
 21
0.202572
 31
0.0
  0
LINE
  8
0
 62
     0
 10
146.422
 20
0.202572
 30
0.0
 11
146.352
 21
0.169499
 31
0.0
  0
LINE
  8
0
 62
     0
 10
146.352
 20
0.169499
 30
0.0
 11
146.278
 21
0.143316
 31
0.0
  0
LINE
  8
0
 62
     0
 10
146.278
 20
0.143316
 30
0.0
 11
146.202
 21
0.122645
 31
0.0
  0
LINE
  8
0
 62
     0
 10
146.202
 20
0.122645
 30
0.0
 11
146.124
 21
0.106109
 31
0.0
  0
LINE
  8
0
 62
     0
 10
146.124
 20
0.106109
 30
0.0
 11
146.047
 21
0.0964629
 31
0.0
  0
LINE
  8
0
 62
     0
 10
146.047
 20
0.0964629
 30
0.0
 11
145.969
 21
0.0937066
 31
0.0
  0
LINE
  8
0
 62
     0
 10
145.969
 20
0.0937066
 30
0.0
 11
1.09416
 21
0.0937066
 31
0.0
  0
LINE
  8
0
 62
     0
 10
1.09416
 20
0.0937066
 30
0.0
 11
1.01562
 21
0.0964629
 31
0.0
  0
LINE
  8
0
 62
     0
 10
1.01562
 20
0.0964629
 30
0.0
 11
0.937066
 21
0.106109
 31
0.0
  0
LINE
  8
0
 62
     0
 10
0.937066
 20
0.106109
 30
0.0
 11
0.861275
 21
0.122645
 31
0.0
  0
LINE
  8
0
 62
     0
 10
0.861275
 20
0.122645
 30
0.0
 11
0.784105
 21
0.143316
 31
0.0
  0
LINE
  8
0
 62
     0
 10
0.784105
 20
0.143316
 30
0.0
 11
0.711069
 21
0.169499
 31
0.0
  0
LINE
  8
0
 62
     0
 10
0.711069
 20
0.169499
 30
0.0
 11
0.63941
 21
0.202572
 31
0.0
  0
LINE
  8
0
 62
     0
 10
0.63941
 20
0.202572
 30
0.0
 11
0.571885
 21
0.241157
 31
0.0
  0
LINE
  8
0
 62
     0
 10
0.571885
 20
0.241157
 30
0.0
 11
0.505739
 21
0.285254
 31
0.0
  0
LINE
  8
0
 62
     0
 10
0.505739
 20
0.285254
 30
0.0
 11
0.445107
 21
0.333485
 31
0.0
  0
LINE
  8
0
 62
     0
 10
0.445107
 20
0.333485
 30
0.0
 11
0.38723
 21
0.38723
 31
0.0
  0
LINE
  8
0
 62
     0
 10
0.38723
 20
0.38723
 30
0.0
 11
0.333485
 21
0.445107
 31
0.0
  0
LINE
  8
0
 62
     0
 10
0.333485
 20
0.445107
 30
0.0
 11
0.285254
 21
0.505739
 31
0.0
  0
LINE
  8
0
 62
     0
 10
0.285254
 20
0.505739
 30
0.0
 11
0.241157
 21
0.571885
 31
0.0
  0
LINE
  8
0
 62
     0
 10
0.241157
 20
0.571885
 30
0.0
 11
0.202572
 21
0.640789
 31
0.0
  0
LINE
  8
0
 62
     0
 10
0.202572
 20
0.640789
 30
0.0
 11
0.169499
 21
0.711069
 31
0.0
  0
LINE
  8
0
 62
     0
 10
0.169499
 20
0.711069
 30
0.0
 11
0.143316
 21
0.785481
 31
0.0
  0
LINE
  8
0
 62
     0
 10
0.143316
 20
0.785481
 30
0.0
 11
0.121267
 21
0.861275
 31
0.0
  0
LINE
  8
0
 62
     0
 10
0.121267
 20
0.861275
 30
0.0
 11
0.106109
 21
0.938445
 31
0.0
  0
LINE
  8
0
 62
     0
 10
0.106109
 20
0.938445
 30
0.0
 11
0.0964629
 21
1.01562
 31
0.0
  0
LINE
  8
0
 62
     0
 10
0.0964629
 20
1.01562
 30
0.0
 11
0.0937066
 21
1.09416
 31
0.0
  0
LINE
  8
0
 62
     0
 10
0.0937066
 20
1.09416
 30
0.0
 11
0.0937066
 21
98.3439
 31
0.0
  0
LINE
  8
0
 62
     0
 10
0.0937066
 20
98.3439
 30
0.0
 11
0.0964629
 21
98.4222
 31
0.0
  0
LINE
  8
0
 62
     0
 10
0.0964629
 20
98.4222
 30
0.0
 11
0.106109
 21
98.5008
 31
0.0
  0
LINE
  8
0
 62
     0
 10
0.106109
 20
98.5008
 30
0.0
 11
0.121267
 21
98.5767
 31
0.0
  0
LINE
  8
0
 62
     0
 10
0.121267
 20
98.5767
 30
0.0
 11
0.143316
 21
98.6536
 31
0.0
  0
LINE
  8
0
 62
     0
 10
0.143316
 20
98.6536
 30
0.0
 11
0.169499
 21
98.7266
 31
0.0
  0
LINE
  8
0
 62
     0
 10
0.169499
 20
98.7266
 30
0.0
 11
0.202572
 21
98.7986
 31
0.0
  0
LINE
  8
0
 62
     0
 10
0.202572
 20
98.7986
 30
0.0
 11
0.241157
 21
98.866
 31
0.0
  0
LINE
  8
0
 62
     0
 10
0.241157
 20
98.866
 30
0.0
 11
0.285254
 21
98.9323
 31
0.0
  0
LINE
  8
0
 62
     0
 10
0.285254
 20
98.9323
 30
0.0
 11
0.333485
 21
98.9926
 31
0.0
  0
LINE
  8
0
 62
     0
 10
0.333485
 20
98.9926
 30
0.0
 11
0.38723
 21
99.0505
 31
0.0
  0
LINE
  8
0
 62
     0
 10
0.38723
 20
99.0505
 30
0.0
 11
0.445107
 21
99.1044
 31
0.0
  0
LINE
  8
0
 62
     0
 10
0.445107
 20
99.1044
 30
0.0
 11
0.505739
 21
99.1528
 31
0.0
  0
LINE
  8
0
 62
     0
 10
0.505739
 20
99.1528
 30
0.0
 11
0.571885
 21
99.1969
 31
0.0
  0
LINE
  8
0
 62
     0
 10
0.571885
 20
99.1969
 30
0.0
 11
0.63941
 21
99.2353
 31
0.0
  0
LINE
  8
0
 62
     0
 10
0.63941
 20
99.2353
 30
0.0
 11
0.711069
 21
99.2685
 31
0.0
  0
LINE
  8
0
 62
     0
 10
0.711069
 20
99.2685
 30
0.0
 11
0.784105
 21
99.2946
 31
0.0
  0
LINE
  8
0
 62
     0
 10
0.784105
 20
99.2946
 30
0.0
 11
0.861275
 21
99.3165
 31
0.0
  0
LINE
  8
0
 62
     0
 10
0.861275
 20
99.3165
 30
0.0
 11
0.937066
 21
99.3316
 31
0.0
  0
LINE
  8
0
 62
     0
 10
0.937066
 20
99.3316
 30
0.0
 11
1.01562
 21
99.3415
 31
0.0
  0
LINE
  8
0
 62
     0
 10
1.01562
 20
99.3415
 30
0.0
 11
1.09416
 21
99.344
 31
0.0
  0
LINE
  8
0
 62
     0
 10
1.09416
 20
99.344
 30
0.0
 11
145.969
 21
99.344
 31
0.0
  0
LINE
  8
0
 62
     0
 10
4.6192
 20
94.8186
 30
0.0
 11
18.6187
 21
94.8186
 31
0.0
  0
LINE
  8
0
 62
     0
 10
18.6187
 20
94.8186
 30
0.0
 11
18.6187
 21
80.8193
 31
0.0
  0
LINE
  8
0
 62
     0
 10
18.6187
 20
80.8193
 30
0.0
 11
4.6192
 21
80.8193
 31
0.0
  0
LINE
  8
0
 62
     0
 10
4.6192
 20
80.8193
 30
0.0
 11
4.6192
 21
94.8186
 31
0.0
  0
LINE
  8
0
 62
     0
 10
4.6192
 20
75.7686
 30
0.0
 11
18.6187
 21
75.7686
 31
0.0
  0
LINE
  8
0
 62
     0
 10
18.6187
 20
75.7686
 30
0.0
 11
18.6187
 21
61.7693
 31
0.0
  0
LINE
  8
0
 62
     0
 10
18.6187
 20
61.7693
 30
0.0
 11
4.6192
 21
61.7693
 31
0.0
  0
LINE
  8
0
 62
     0
 10
4.6192
 20
61.7693
 30
0.0
 11
4.6192
 21
75.7686
 31
0.0
  0
LINE
  8
0
 62
     0
 10
4.6192
 20
56.7186
 30
0.0
 11
18.6187
 21
56.7186
 31
0.0
  0
LINE
  8
0
 62
     0
 10
18.6187
 20
56.7186
 30
0.0
 11
18.6187
 21
42.7193
 31
0.0
  0
LINE
  8
0
 62
     0
 10
18.6187
 20
42.7193
 30
0.0
 11
4.6192
 21
42.7193
 31
0.0
  0
LINE
  8
0
 62
     0
 10
4.6192
 20
42.7193
 30
0.0
 11
4.6192
 21
56.7186
 31
0.0
  0
LINE
  8
0
 62
     0
 10
4.6192
 20
37.6686
 30
0.0
 11
18.6187
 21
37.6686
 31
0.0
  0
LINE
  8
0
 62
     0
 10
18.6187
 20
37.6686
 30
0.0
 11
18.6187
 21
23.6692
 31
0.0
  0
LINE
  8
0
 62
     0
 10
18.6187
 20
23.6692
 30
0.0
 11
4.6192
 21
23.6692
 31
0.0
  0
LINE
  8
0
 62
     0
 10
4.6192
 20
23.6692
 30
0.0
 11
4.6192
 21
37.6686
 31
0.0
  0
LINE
  8
0
 62
     0
 10
4.6192
 20
18.6187
 30
0.0
 11
18.6187
 21
18.6187
 31
0.0
  0
LINE
  8
0
 62
     0
 10
18.6187
 20
18.6187
 30
0.0
 11
18.6187
 21
4.6192
 31
0.0
  0
LINE
  8
0
 62
     0
 10
18.6187
 20
4.6192
 30
0.0
 11
4.6192
 21
4.6192
 31
0.0
  0
LINE
  8
0
 62
     0
 10
4.6192
 20
4.6192
 30
0.0
 11
4.6192
 21
18.6187
 31
0.0
  0
LINE
  8
0
 62
     0
 10
30.813
 20
94.8186
 30
0.0
 11
44.8123
 21
94.8186
 31
0.0
  0
LINE
  8
0
 62
     0
 10
44.8123
 20
94.8186
 30
0.0
 11
44.8123
 21
80.8193
 31
0.0
  0
LINE
  8
0
 62
     0
 10
44.8123
 20
80.8193
 30
0.0
 11
30.813
 21
80.8193
 31
0.0
  0
LINE
  8
0
 62
     0
 10
30.813
 20
80.8193
 30
0.0
 11
30.813
 21
94.8186
 31
0.0
  0
LINE
  8
0
 62
     0
 10
30.813
 20
75.7686
 30
0.0
 11
44.8123
 21
75.7686
 31
0.0
  0
LINE
  8
0
 62
     0
 10
44.8123
 20
75.7686
 30
0.0
 11
44.8123
 21
61.7693
 31
0.0
  0
LINE
  8
0
 62
     0
 10
44.8123
 20
61.7693
 30
0.0
 11
30.813
 21
61.7693
 31
0.0
  0
LINE
  8
0
 62
     0
 10
30.813
 20
61.7693
 30
0.0
 11
30.813
 21
75.7686
 31
0.0
  0
LINE
  8
0
 62
     0
 10
30.813
 20
56.7186
 30
0.0
 11
44.8123
 21
56.7186
 31
0.0
  0
LINE
  8
0
 62
     0
 10
44.8123
 20
56.7186
 30
0.0
 11
44.8123
 21
42.7193
 31
0.0
  0
LINE
  8
0
 62
     0
 10
44.8123
 20
42.7193
 30
0.0
 11
30.813
 21
42.7193
 31
0.0
  0
LINE
  8
0
 62
     0
 10
30.813
 20
42.7193
 30
0.0
 11
30.813
 21
56.7186
 31
0.0
  0
LINE
  8
0
 62
     0
 10
30.813
 20
37.6686
 30
0.0
 11
44.8123
 21
37.6686
 31
0.0
  0
LINE
  8
0
 62
     0
 10
44.8123
 20
37.6686
 30
0.0
 11
44.8123
 21
23.6692
 31
0.0
  0
LINE
  8
0
 62
     0
 10
44.8123
 20
23.6692
 30
0.0
 11
30.813
 21
23.6692
 31
0.0
  0
LINE
  8
0
 62
     0
 10
30.813
 20
23.6692
 30
0.0
 11
30.813
 21
37.6686
 31
0.0
  0
LINE
  8
0
 62
     0
 10
30.813
 20
18.6187
 30
0.0
 11
44.8123
 21
18.6187
 31
0.0
  0
LINE
  8
0
 62
     0
 10
44.8123
 20
18.6187
 30
0.0
 11
44.8123
 21
4.6192
 31
0.0
  0
LINE
  8
0
 62
     0
 10
44.8123
 20
4.6192
 30
0.0
 11
30.813
 21
4.6192
 31
0.0
  0
LINE
  8
0
 62
     0
 10
30.813
 20
4.6192
 30
0.0
 11
30.813
 21
18.6187
 31
0.0
  0
LINE
  8
0
 62
     0
 10
52.2443
 20
94.8186
 30
0.0
 11
66.2436
 21
94.8186
 31
0.0
  0
LINE
  8
0
 62
     0
 10
66.2436
 20
94.8186
 30
0.0
 11
66.2436
 21
80.8193
 31
0.0
  0
LINE
  8
0
 62
     0
 10
66.2436
 20
80.8193
 30
0.0
 11
52.2443
 21
80.8193
 31
0.0
  0
LINE
  8
0
 62
     0
 10
52.2443
 20
80.8193
 30
0.0
 11
52.2443
 21
94.8186
 31
0.0
  0
LINE
  8
0
 62
     0
 10
52.2443
 20
75.7686
 30
0.0
 11
66.2436
 21
75.7686
 31
0.0
  0
LINE
  8
0
 62
     0
 10
66.2436
 20
75.7686
 30
0.0
 11
66.2436
 21
61.7693
 31
0.0
  0
LINE
  8
0
 62
     0
 10
66.2436
 20
61.7693
 30
0.0
 11
52.2443
 21
61.7693
 31
0.0
  0
LINE
  8
0
 62
     0
 10
52.2443
 20
61.7693
 30
0.0
 11
52.2443
 21
75.7686
 31
0.0
  0
LINE
  8
0
 62
     0
 10
52.2443
 20
56.7186
 30
0.0
 11
66.2436
 21
56.7186
 31
0.0
  0
LINE
  8
0
 62
     0
 10
66.2436
 20
56.7186
 30
0.0
 11
66.2436
 21
42.7193
 31
0.0
  0
LINE
  8
0
 62
     0
 10
66.2436
 20
42.7193
 30
0.0
 11
52.2443
 21
42.7193
 31
0.0
  0
LINE
  8
0
 62
     0
 10
52.2443
 20
42.7193
 30
0.0
 11
52.2443
 21
56.7186
 31
0.0
  0
LINE
  8
0
 62
     0
 10
52.2443
 20
37.6686
 30
0.0
 11
66.2436
 21
37.6686
 31
0.0
  0
LINE
  8
0
 62
     0
 10
66.2436
 20
37.6686
 30
0.0
 11
66.2436
 21
23.6692
 31
0.0
  0
LINE
  8
0
 62
     0
 10
66.2436
 20
23.6692
 30
0.0
 11
52.2443
 21
23.6692
 31
0.0
  0
LINE
  8
0
 62
     0
 10
52.2443
 20
23.6692
 30
0.0
 11
52.2443
 21
37.6686
 31
0.0
  0
LINE
  8
0
 62
     0
 10
54.6255
 20
18.6187
 30
0.0
 11
68.6248
 21
18.6187
 31
0.0
  0
LINE
  8
0
 62
     0
 10
68.6248
 20
18.6187
 30
0.0
 11
68.6248
 21
4.6192
 31
0.0
  0
LINE
  8
0
 62
     0
 10
68.6248
 20
4.6192
 30
0.0
 11
54.6255
 21
4.6192
 31
0.0
  0
LINE
  8
0
 62
     0
 10
54.6255
 20
4.6192
 30
0.0
 11
54.6255
 21
18.6187
 31
0.0
  0
LINE
  8
0
 62
     0
 10
71.2943
 20
94.8186
 30
0.0
 11
85.2936
 21
94.8186
 31
0.0
  0
LINE
  8
0
 62
     0
 10
85.2936
 20
94.8186
 30
0.0
 11
85.2936
 21
80.8193
 31
0.0
  0
LINE
  8
0
 62
     0
 10
85.2936
 20
80.8193
 30
0.0
 11
71.2943
 21
80.8193
 31
0.0
  0
LINE
  8
0
 62
     0
 10
71.2943
 20
80.8193
 30
0.0
 11
71.2943
 21
94.8186
 31
0.0
  0
LINE
  8
0
 62
     0
 10
71.2943
 20
75.7686
 30
0.0
 11
85.2936
 21
75.7686
 31
0.0
  0
LINE
  8
0
 62
     0
 10
85.2936
 20
75.7686
 30
0.0
 11
85.2936
 21
61.7693
 31
0.0
  0
LINE
  8
0
 62
     0
 10
85.2936
 20
61.7693
 30
0.0
 11
71.2943
 21
61.7693
 31
0.0
  0
LINE
  8
0
 62
     0
 10
71.2943
 20
61.7693
 30
0.0
 11
71.2943
 21
75.7686
 31
0.0
  0
LINE
  8
0
 62
     0
 10
71.2943
 20
56.7186
 30
0.0
 11
85.2936
 21
56.7186
 31
0.0
  0
LINE
  8
0
 62
     0
 10
85.2936
 20
56.7186
 30
0.0
 11
85.2936
 21
42.7193
 31
0.0
  0
LINE
  8
0
 62
     0
 10
85.2936
 20
42.7193
 30
0.0
 11
71.2943
 21
42.7193
 31
0.0
  0
LINE
  8
0
 62
     0
 10
71.2943
 20
42.7193
 30
0.0
 11
71.2943
 21
56.7186
 31
0.0
  0
LINE
  8
0
 62
     0
 10
71.2943
 20
37.6686
 30
0.0
 11
85.2936
 21
37.6686
 31
0.0
  0
LINE
  8
0
 62
     0
 10
85.2936
 20
37.6686
 30
0.0
 11
85.2936
 21
23.6692
 31
0.0
  0
LINE
  8
0
 62
     0
 10
85.2936
 20
23.6692
 30
0.0
 11
71.2943
 21
23.6692
 31
0.0
  0
LINE
  8
0
 62
     0
 10
71.2943
 20
23.6692
 30
0.0
 11
71.2943
 21
37.6686
 31
0.0
  0
LINE
  8
0
 62
     0
 10
78.438
 20
18.6187
 30
0.0
 11
92.4373
 21
18.6187
 31
0.0
  0
LINE
  8
0
 62
     0
 10
92.4373
 20
18.6187
 30
0.0
 11
92.4373
 21
4.6192
 31
0.0
  0
LINE
  8
0
 62
     0
 10
92.4373
 20
4.6192
 30
0.0
 11
78.438
 21
4.6192
 31
0.0
  0
LINE
  8
0
 62
     0
 10
78.438
 20
4.6192
 30
0.0
 11
78.438
 21
18.6187
 31
0.0
  0
LINE
  8
0
 62
     0
 10
90.3443
 20
94.8186
 30
0.0
 11
104.344
 21
94.8186
 31
0.0
  0
LINE
  8
0
 62
     0
 10
104.344
 20
94.8186
 30
0.0
 11
104.344
 21
80.8193
 31
0.0
  0
LINE
  8
0
 62
     0
 10
104.344
 20
80.8193
 30
0.0
 11
90.3443
 21
80.8193
 31
0.0
  0
LINE
  8
0
 62
     0
 10
90.3443
 20
80.8193
 30
0.0
 11
90.3443
 21
94.8186
 31
0.0
  0
LINE
  8
0
 62
     0
 10
90.3443
 20
75.7686
 30
0.0
 11
104.344
 21
75.7686
 31
0.0
  0
LINE
  8
0
 62
     0
 10
104.344
 20
75.7686
 30
0.0
 11
104.344
 21
61.7693
 31
0.0
  0
LINE
  8
0
 62
     0
 10
104.344
 20
61.7693
 30
0.0
 11
90.3443
 21
61.7693
 31
0.0
  0
LINE
  8
0
 62
     0
 10
90.3443
 20
61.7693
 30
0.0
 11
90.3443
 21
75.7686
 31
0.0
  0
LINE
  8
0
 62
     0
 10
90.3443
 20
56.7186
 30
0.0
 11
104.344
 21
56.7186
 31
0.0
  0
LINE
  8
0
 62
     0
 10
104.344
 20
56.7186
 30
0.0
 11
104.344
 21
42.7193
 31
0.0
  0
LINE
  8
0
 62
     0
 10
104.344
 20
42.7193
 30
0.0
 11
90.3443
 21
42.7193
 31
0.0
  0
LINE
  8
0
 62
     0
 10
90.3443
 20
42.7193
 30
0.0
 11
90.3443
 21
56.7186
 31
0.0
  0
LINE
  8
0
 62
     0
 10
90.3443
 20
37.6686
 30
0.0
 11
104.344
 21
37.6686
 31
0.0
  0
LINE
  8
0
 62
     0
 10
104.344
 20
37.6686
 30
0.0
 11
104.344
 21
23.6692
 31
0.0
  0
LINE
  8
0
 62
     0
 10
104.344
 20
23.6692
 30
0.0
 11
90.3443
 21
23.6692
 31
0.0
  0
LINE
  8
0
 62
     0
 10
90.3443
 20
23.6692
 30
0.0
 11
90.3443
 21
37.6686
 31
0.0
  0
LINE
  8
0
 62
     0
 10
107.557
 20
18.0689
 30
0.0
 11
110.856
 21
18.0689
 31
0.0
  0
LINE
  8
0
 62
     0
 10
110.856
 20
18.0689
 30
0.0
 11
110.856
 21
3.86955
 31
0.0
  0
LINE
  8
0
 62
     0
 10
110.856
 20
3.86955
 30
0.0
 11
107.557
 21
3.86955
 31
0.0
  0
LINE
  8
0
 62
     0
 10
107.557
 20
3.86955
 30
0.0
 11
107.557
 21
18.0689
 31
0.0
  0
LINE
  8
0
 62
     0
 10
109.394
 20
94.8186
 30
0.0
 11
123.394
 21
94.8186
 31
0.0
  0
LINE
  8
0
 62
     0
 10
123.394
 20
94.8186
 30
0.0
 11
123.394
 21
80.8193
 31
0.0
  0
LINE
  8
0
 62
     0
 10
123.394
 20
80.8193
 30
0.0
 11
109.394
 21
80.8193
 31
0.0
  0
LINE
  8
0
 62
     0
 10
109.394
 20
80.8193
 30
0.0
 11
109.394
 21
94.8186
 31
0.0
  0
LINE
  8
0
 62
     0
 10
109.394
 20
75.7686
 30
0.0
 11
123.394
 21
75.7686
 31
0.0
  0
LINE
  8
0
 62
     0
 10
123.394
 20
75.7686
 30
0.0
 11
123.394
 21
61.7693
 31
0.0
  0
LINE
  8
0
 62
     0
 10
123.394
 20
61.7693
 30
0.0
 11
109.394
 21
61.7693
 31
0.0
  0
LINE
  8
0
 62
     0
 10
109.394
 20
61.7693
 30
0.0
 11
109.394
 21
75.7686
 31
0.0
  0
LINE
  8
0
 62
     0
 10
109.394
 20
56.7186
 30
0.0
 11
123.394
 21
56.7186
 31
0.0
  0
LINE
  8
0
 62
     0
 10
123.394
 20
56.7186
 30
0.0
 11
123.394
 21
42.7193
 31
0.0
  0
LINE
  8
0
 62
     0
 10
123.394
 20
42.7193
 30
0.0
 11
109.394
 21
42.7193
 31
0.0
  0
LINE
  8
0
 62
     0
 10
109.394
 20
42.7193
 30
0.0
 11
109.394
 21
56.7186
 31
0.0
  0
LINE
  8
0
 62
     0
 10
109.394
 20
37.6686
 30
0.0
 11
123.394
 21
37.6686
 31
0.0
  0
LINE
  8
0
 62
     0
 10
123.394
 20
37.6686
 30
0.0
 11
123.394
 21
23.6692
 31
0.0
  0
LINE
  8
0
 62
     0
 10
123.394
 20
23.6692
 30
0.0
 11
109.394
 21
23.6692
 31
0.0
  0
LINE
  8
0
 62
     0
 10
109.394
 20
23.6692
 30
0.0
 11
109.394
 21
37.6686
 31
0.0
  0
LINE
  8
0
 62
     0
 10
114.155
 20
18.6187
 30
0.0
 11
128.156
 21
18.6187
 31
0.0
  0
LINE
  8
0
 62
     0
 10
128.156
 20
18.6187
 30
0.0
 11
128.156
 21
4.6192
 31
0.0
  0
LINE
  8
0
 62
     0
 10
128.156
 20
4.6192
 30
0.0
 11
114.155
 21
4.6192
 31
0.0
  0
LINE
  8
0
 62
     0
 10
114.155
 20
4.6192
 30
0.0
 11
114.155
 21
18.6187
 31
0.0
  0
LINE
  8
0
 62
     0
 10
131.457
 20
18.0689
 30
0.0
 11
134.755
 21
18.0689
 31
0.0
  0
LINE
  8
0
 62
     0
 10
134.755
 20
18.0689
 30
0.0
 11
134.755
 21
3.86955
 31
0.0
  0
LINE
  8
0
 62
     0
 10
134.755
 20
3.86955
 30
0.0
 11
131.457
 21
3.86955
 31
0.0
  0
LINE
  8
0
 62
     0
 10
131.457
 20
3.86955
 30
0.0
 11
131.457
 21
18.0689
 31
0.0
  0
LINE
  8
0
 62
     0
 10
128.444
 20
94.8186
 30
0.0
 11
142.444
 21
94.8186
 31
0.0
  0
LINE
  8
0
 62
     0
 10
142.444
 20
94.8186
 30
0.0
 11
142.444
 21
80.8193
 31
0.0
  0
LINE
  8
0
 62
     0
 10
142.444
 20
80.8193
 30
0.0
 11
128.444
 21
80.8193
 31
0.0
  0
LINE
  8
0
 62
     0
 10
128.444
 20
80.8193
 30
0.0
 11
128.444
 21
94.8186
 31
0.0
  0
LINE
  8
0
 62
     0
 10
128.444
 20
75.7686
 30
0.0
 11
142.444
 21
75.7686
 31
0.0
  0
LINE
  8
0
 62
     0
 10
142.444
 20
75.7686
 30
0.0
 11
142.444
 21
61.7693
 31
0.0
  0
LINE
  8
0
 62
     0
 10
142.444
 20
61.7693
 30
0.0
 11
128.444
 21
61.7693
 31
0.0
  0
LINE
  8
0
 62
     0
 10
128.444
 20
61.7693
 30
0.0
 11
128.444
 21
75.7686
 31
0.0
  0
LINE
  8
0
 62
     0
 10
128.444
 20
56.7186
 30
0.0
 11
142.444
 21
56.7186
 31
0.0
  0
LINE
  8
0
 62
     0
 10
142.444
 20
56.7186
 30
0.0
 11
142.444
 21
42.7193
 31
0.0
  0
LINE
  8
0
 62
     0
 10
142.444
 20
42.7193
 30
0.0
 11
128.444
 21
42.7193
 31
0.0
  0
LINE
  8
0
 62
     0
 10
128.444
 20
42.7193
 30
0.0
 11
128.444
 21
56.7186
 31
0.0
  0
LINE
  8
0
 62
     0
 10
128.444
 20
37.6686
 30
0.0
 11
142.444
 21
37.6686
 31
0.0
  0
LINE
  8
0
 62
     0
 10
142.444
 20
37.6686
 30
0.0
 11
142.444
 21
23.6692
 31
0.0
  0
LINE
  8
0
 62
     0
 10
142.444
 20
23.6692
 30
0.0
 11
128.444
 21
23.6692
 31
0.0
  0
LINE
  8
0
 62
     0
 10
128.444
 20
23.6692
 30
0.0
 11
128.444
 21
37.6686
 31
0.0
  0
ENDSEC
  0
EOF
