  0
SECTION
  2
HEADER
  9
$ACADVER
  1
AC1009
  9
$EXTMIN
 10
0.0
 20
0.0
 30
0.0
  9
$EXTMAX
 10
1000.0
 20
1000.0
 30
0.0
  9
$FILLMODE
 70
 0
  9
$SPLFRAME
 70
 1
  0
ENDSEC
  0
SECTION
  2
TABLES
  0
TABLE
  2
LAYER
 70
1
  0
LAYER
  2
0
 70
     0
 62
     7
  6
CONTINUOUS
  0
ENDTAB
  0
ENDSEC
  0
SECTION
  2
ENTITIES
  0
LINE
  8
0
 62
     0
 10
141.968
 20
95.3438
 30
0.0
 11
142.047
 21
95.341
 31
0.0
  0
LINE
  8
0
 62
     0
 10
142.047
 20
95.341
 30
0.0
 11
142.125
 21
95.3311
 31
0.0
  0
LINE
  8
0
 62
     0
 10
142.125
 20
95.3311
 30
0.0
 11
142.201
 21
95.3163
 31
0.0
  0
LINE
  8
0
 62
     0
 10
142.201
 20
95.3163
 30
0.0
 11
142.278
 21
95.2941
 31
0.0
  0
LINE
  8
0
 62
     0
 10
142.278
 20
95.2941
 30
0.0
 11
142.351
 21
95.268
 31
0.0
  0
LINE
  8
0
 62
     0
 10
142.351
 20
95.268
 30
0.0
 11
142.423
 21
95.2348
 31
0.0
  0
LINE
  8
0
 62
     0
 10
142.423
 20
95.2348
 30
0.0
 11
142.49
 21
95.1964
 31
0.0
  0
LINE
  8
0
 62
     0
 10
142.49
 20
95.1964
 30
0.0
 11
142.557
 21
95.1523
 31
0.0
  0
LINE
  8
0
 62
     0
 10
142.557
 20
95.1523
 30
0.0
 11
142.617
 21
95.1039
 31
0.0
  0
LINE
  8
0
 62
     0
 10
142.617
 20
95.1039
 30
0.0
 11
142.675
 21
95.0503
 31
0.0
  0
LINE
  8
0
 62
     0
 10
142.675
 20
95.0503
 30
0.0
 11
142.729
 21
94.9925
 31
0.0
  0
LINE
  8
0
 62
     0
 10
142.729
 20
94.9925
 30
0.0
 11
142.777
 21
94.9318
 31
0.0
  0
LINE
  8
0
 62
     0
 10
142.777
 20
94.9318
 30
0.0
 11
142.821
 21
94.8655
 31
0.0
  0
LINE
  8
0
 62
     0
 10
142.821
 20
94.8655
 30
0.0
 11
142.86
 21
94.7981
 31
0.0
  0
LINE
  8
0
 62
     0
 10
142.86
 20
94.7981
 30
0.0
 11
142.893
 21
94.7265
 31
0.0
  0
LINE
  8
0
 62
     0
 10
142.893
 20
94.7265
 30
0.0
 11
142.919
 21
94.6534
 31
0.0
  0
LINE
  8
0
 62
     0
 10
142.919
 20
94.6534
 30
0.0
 11
142.941
 21
94.5762
 31
0.0
  0
LINE
  8
0
 62
     0
 10
142.941
 20
94.5762
 30
0.0
 11
142.956
 21
94.5003
 31
0.0
  0
LINE
  8
0
 62
     0
 10
142.956
 20
94.5003
 30
0.0
 11
142.966
 21
94.4217
 31
0.0
  0
LINE
  8
0
 62
     0
 10
142.966
 20
94.4217
 30
0.0
 11
142.969
 21
94.3434
 31
0.0
  0
LINE
  8
0
 62
     0
 10
142.969
 20
94.3434
 30
0.0
 11
142.969
 21
1.09416
 31
0.0
  0
LINE
  8
0
 62
     0
 10
142.969
 20
1.09416
 30
0.0
 11
142.966
 21
1.01562
 31
0.0
  0
LINE
  8
0
 62
     0
 10
142.966
 20
1.01562
 30
0.0
 11
142.956
 21
0.937066
 31
0.0
  0
LINE
  8
0
 62
     0
 10
142.956
 20
0.937066
 30
0.0
 11
142.941
 21
0.861275
 31
0.0
  0
LINE
  8
0
 62
     0
 10
142.941
 20
0.861275
 30
0.0
 11
142.919
 21
0.784105
 31
0.0
  0
LINE
  8
0
 62
     0
 10
142.919
 20
0.784105
 30
0.0
 11
142.893
 21
0.711069
 31
0.0
  0
LINE
  8
0
 62
     0
 10
142.893
 20
0.711069
 30
0.0
 11
142.86
 21
0.63941
 31
0.0
  0
LINE
  8
0
 62
     0
 10
142.86
 20
0.63941
 30
0.0
 11
142.821
 21
0.571885
 31
0.0
  0
LINE
  8
0
 62
     0
 10
142.821
 20
0.571885
 30
0.0
 11
142.777
 21
0.505739
 31
0.0
  0
LINE
  8
0
 62
     0
 10
142.777
 20
0.505739
 30
0.0
 11
142.729
 21
0.445107
 31
0.0
  0
LINE
  8
0
 62
     0
 10
142.729
 20
0.445107
 30
0.0
 11
142.675
 21
0.38723
 31
0.0
  0
LINE
  8
0
 62
     0
 10
142.675
 20
0.38723
 30
0.0
 11
142.617
 21
0.333485
 31
0.0
  0
LINE
  8
0
 62
     0
 10
142.617
 20
0.333485
 30
0.0
 11
142.557
 21
0.285254
 31
0.0
  0
LINE
  8
0
 62
     0
 10
142.557
 20
0.285254
 30
0.0
 11
142.49
 21
0.241157
 31
0.0
  0
LINE
  8
0
 62
     0
 10
142.49
 20
0.241157
 30
0.0
 11
142.423
 21
0.202572
 31
0.0
  0
LINE
  8
0
 62
     0
 10
142.423
 20
0.202572
 30
0.0
 11
142.351
 21
0.169499
 31
0.0
  0
LINE
  8
0
 62
     0
 10
142.351
 20
0.169499
 30
0.0
 11
142.278
 21
0.143316
 31
0.0
  0
LINE
  8
0
 62
     0
 10
142.278
 20
0.143316
 30
0.0
 11
142.201
 21
0.121267
 31
0.0
  0
LINE
  8
0
 62
     0
 10
142.201
 20
0.121267
 30
0.0
 11
142.125
 21
0.106109
 31
0.0
  0
LINE
  8
0
 62
     0
 10
142.125
 20
0.106109
 30
0.0
 11
142.047
 21
0.0964629
 31
0.0
  0
LINE
  8
0
 62
     0
 10
142.047
 20
0.0964629
 30
0.0
 11
141.968
 21
0.0937066
 31
0.0
  0
LINE
  8
0
 62
     0
 10
141.968
 20
0.0937066
 30
0.0
 11
1.09416
 21
0.0937066
 31
0.0
  0
LINE
  8
0
 62
     0
 10
1.09416
 20
0.0937066
 30
0.0
 11
1.01562
 21
0.0964629
 31
0.0
  0
LINE
  8
0
 62
     0
 10
1.01562
 20
0.0964629
 30
0.0
 11
0.937066
 21
0.106109
 31
0.0
  0
LINE
  8
0
 62
     0
 10
0.937066
 20
0.106109
 30
0.0
 11
0.861275
 21
0.121267
 31
0.0
  0
LINE
  8
0
 62
     0
 10
0.861275
 20
0.121267
 30
0.0
 11
0.784105
 21
0.143316
 31
0.0
  0
LINE
  8
0
 62
     0
 10
0.784105
 20
0.143316
 30
0.0
 11
0.711069
 21
0.169499
 31
0.0
  0
LINE
  8
0
 62
     0
 10
0.711069
 20
0.169499
 30
0.0
 11
0.63941
 21
0.202572
 31
0.0
  0
LINE
  8
0
 62
     0
 10
0.63941
 20
0.202572
 30
0.0
 11
0.571885
 21
0.241157
 31
0.0
  0
LINE
  8
0
 62
     0
 10
0.571885
 20
0.241157
 30
0.0
 11
0.505739
 21
0.285254
 31
0.0
  0
LINE
  8
0
 62
     0
 10
0.505739
 20
0.285254
 30
0.0
 11
0.445107
 21
0.333485
 31
0.0
  0
LINE
  8
0
 62
     0
 10
0.445107
 20
0.333485
 30
0.0
 11
0.38723
 21
0.38723
 31
0.0
  0
LINE
  8
0
 62
     0
 10
0.38723
 20
0.38723
 30
0.0
 11
0.333485
 21
0.445107
 31
0.0
  0
LINE
  8
0
 62
     0
 10
0.333485
 20
0.445107
 30
0.0
 11
0.285254
 21
0.505739
 31
0.0
  0
LINE
  8
0
 62
     0
 10
0.285254
 20
0.505739
 30
0.0
 11
0.241157
 21
0.571885
 31
0.0
  0
LINE
  8
0
 62
     0
 10
0.241157
 20
0.571885
 30
0.0
 11
0.202572
 21
0.63941
 31
0.0
  0
LINE
  8
0
 62
     0
 10
0.202572
 20
0.63941
 30
0.0
 11
0.169499
 21
0.711069
 31
0.0
  0
LINE
  8
0
 62
     0
 10
0.169499
 20
0.711069
 30
0.0
 11
0.143316
 21
0.784105
 31
0.0
  0
LINE
  8
0
 62
     0
 10
0.143316
 20
0.784105
 30
0.0
 11
0.121267
 21
0.861275
 31
0.0
  0
LINE
  8
0
 62
     0
 10
0.121267
 20
0.861275
 30
0.0
 11
0.106109
 21
0.937066
 31
0.0
  0
LINE
  8
0
 62
     0
 10
0.106109
 20
0.937066
 30
0.0
 11
0.0964629
 21
1.01562
 31
0.0
  0
LINE
  8
0
 62
     0
 10
0.0964629
 20
1.01562
 30
0.0
 11
0.0937066
 21
1.09416
 31
0.0
  0
LINE
  8
0
 62
     0
 10
0.0937066
 20
1.09416
 30
0.0
 11
0.0937066
 21
94.3434
 31
0.0
  0
LINE
  8
0
 62
     0
 10
0.0937066
 20
94.3434
 30
0.0
 11
0.0964629
 21
94.4217
 31
0.0
  0
LINE
  8
0
 62
     0
 10
0.0964629
 20
94.4217
 30
0.0
 11
0.106109
 21
94.5003
 31
0.0
  0
LINE
  8
0
 62
     0
 10
0.106109
 20
94.5003
 30
0.0
 11
0.121267
 21
94.5762
 31
0.0
  0
LINE
  8
0
 62
     0
 10
0.121267
 20
94.5762
 30
0.0
 11
0.143316
 21
94.6534
 31
0.0
  0
LINE
  8
0
 62
     0
 10
0.143316
 20
94.6534
 30
0.0
 11
0.169499
 21
94.7265
 31
0.0
  0
LINE
  8
0
 62
     0
 10
0.169499
 20
94.7265
 30
0.0
 11
0.202572
 21
94.7981
 31
0.0
  0
LINE
  8
0
 62
     0
 10
0.202572
 20
94.7981
 30
0.0
 11
0.241157
 21
94.8655
 31
0.0
  0
LINE
  8
0
 62
     0
 10
0.241157
 20
94.8655
 30
0.0
 11
0.285254
 21
94.9318
 31
0.0
  0
LINE
  8
0
 62
     0
 10
0.285254
 20
94.9318
 30
0.0
 11
0.333485
 21
94.9925
 31
0.0
  0
LINE
  8
0
 62
     0
 10
0.333485
 20
94.9925
 30
0.0
 11
0.38723
 21
95.0503
 31
0.0
  0
LINE
  8
0
 62
     0
 10
0.38723
 20
95.0503
 30
0.0
 11
0.445107
 21
95.1039
 31
0.0
  0
LINE
  8
0
 62
     0
 10
0.445107
 20
95.1039
 30
0.0
 11
0.505739
 21
95.1523
 31
0.0
  0
LINE
  8
0
 62
     0
 10
0.505739
 20
95.1523
 30
0.0
 11
0.571885
 21
95.1964
 31
0.0
  0
LINE
  8
0
 62
     0
 10
0.571885
 20
95.1964
 30
0.0
 11
0.63941
 21
95.2348
 31
0.0
  0
LINE
  8
0
 62
     0
 10
0.63941
 20
95.2348
 30
0.0
 11
0.711069
 21
95.268
 31
0.0
  0
LINE
  8
0
 62
     0
 10
0.711069
 20
95.268
 30
0.0
 11
0.784105
 21
95.2941
 31
0.0
  0
LINE
  8
0
 62
     0
 10
0.784105
 20
95.2941
 30
0.0
 11
0.861275
 21
95.3163
 31
0.0
  0
LINE
  8
0
 62
     0
 10
0.861275
 20
95.3163
 30
0.0
 11
0.937066
 21
95.3311
 31
0.0
  0
LINE
  8
0
 62
     0
 10
0.937066
 20
95.3311
 30
0.0
 11
1.01562
 21
95.341
 31
0.0
  0
LINE
  8
0
 62
     0
 10
1.01562
 20
95.341
 30
0.0
 11
1.09416
 21
95.3438
 31
0.0
  0
LINE
  8
0
 62
     0
 10
1.09416
 20
95.3438
 30
0.0
 11
141.968
 21
95.3438
 31
0.0
  0
LINE
  8
0
 62
     0
 10
2.61827
 20
92.819
 30
0.0
 11
16.6192
 21
92.819
 31
0.0
  0
LINE
  8
0
 62
     0
 10
16.6192
 20
92.819
 30
0.0
 11
16.6192
 21
78.8183
 31
0.0
  0
LINE
  8
0
 62
     0
 10
16.6192
 20
78.8183
 30
0.0
 11
2.61827
 21
78.8183
 31
0.0
  0
LINE
  8
0
 62
     0
 10
2.61827
 20
78.8183
 30
0.0
 11
2.61827
 21
92.819
 31
0.0
  0
LINE
  8
0
 62
     0
 10
2.61827
 20
73.769
 30
0.0
 11
16.6192
 21
73.769
 31
0.0
  0
LINE
  8
0
 62
     0
 10
16.6192
 20
73.769
 30
0.0
 11
16.6192
 21
59.7683
 31
0.0
  0
LINE
  8
0
 62
     0
 10
16.6192
 20
59.7683
 30
0.0
 11
2.61827
 21
59.7683
 31
0.0
  0
LINE
  8
0
 62
     0
 10
2.61827
 20
59.7683
 30
0.0
 11
2.61827
 21
73.769
 31
0.0
  0
LINE
  8
0
 62
     0
 10
2.61827
 20
54.719
 30
0.0
 11
16.6192
 21
54.719
 31
0.0
  0
LINE
  8
0
 62
     0
 10
16.6192
 20
54.719
 30
0.0
 11
16.6192
 21
40.7183
 31
0.0
  0
LINE
  8
0
 62
     0
 10
16.6192
 20
40.7183
 30
0.0
 11
2.61827
 21
40.7183
 31
0.0
  0
LINE
  8
0
 62
     0
 10
2.61827
 20
40.7183
 30
0.0
 11
2.61827
 21
54.719
 31
0.0
  0
LINE
  8
0
 62
     0
 10
2.61827
 20
35.669
 30
0.0
 11
16.6192
 21
35.669
 31
0.0
  0
LINE
  8
0
 62
     0
 10
16.6192
 20
35.669
 30
0.0
 11
16.6192
 21
21.6683
 31
0.0
  0
LINE
  8
0
 62
     0
 10
16.6192
 20
21.6683
 30
0.0
 11
2.61827
 21
21.6683
 31
0.0
  0
LINE
  8
0
 62
     0
 10
2.61827
 20
21.6683
 30
0.0
 11
2.61827
 21
35.669
 31
0.0
  0
LINE
  8
0
 62
     0
 10
2.61827
 20
16.6192
 30
0.0
 11
16.6192
 21
16.6192
 31
0.0
  0
LINE
  8
0
 62
     0
 10
16.6192
 20
16.6192
 30
0.0
 11
16.6192
 21
2.61827
 31
0.0
  0
LINE
  8
0
 62
     0
 10
16.6192
 20
2.61827
 30
0.0
 11
2.61827
 21
2.61827
 31
0.0
  0
LINE
  8
0
 62
     0
 10
2.61827
 20
2.61827
 30
0.0
 11
2.61827
 21
16.6192
 31
0.0
  0
LINE
  8
0
 62
     0
 10
28.8134
 20
92.819
 30
0.0
 11
42.8128
 21
92.819
 31
0.0
  0
LINE
  8
0
 62
     0
 10
42.8128
 20
92.819
 30
0.0
 11
42.8128
 21
78.8183
 31
0.0
  0
LINE
  8
0
 62
     0
 10
42.8128
 20
78.8183
 30
0.0
 11
28.8134
 21
78.8183
 31
0.0
  0
LINE
  8
0
 62
     0
 10
28.8134
 20
78.8183
 30
0.0
 11
28.8134
 21
92.819
 31
0.0
  0
LINE
  8
0
 62
     0
 10
28.8134
 20
73.769
 30
0.0
 11
42.8128
 21
73.769
 31
0.0
  0
LINE
  8
0
 62
     0
 10
42.8128
 20
73.769
 30
0.0
 11
42.8128
 21
59.7683
 31
0.0
  0
LINE
  8
0
 62
     0
 10
42.8128
 20
59.7683
 30
0.0
 11
28.8134
 21
59.7683
 31
0.0
  0
LINE
  8
0
 62
     0
 10
28.8134
 20
59.7683
 30
0.0
 11
28.8134
 21
73.769
 31
0.0
  0
LINE
  8
0
 62
     0
 10
28.8134
 20
54.719
 30
0.0
 11
42.8128
 21
54.719
 31
0.0
  0
LINE
  8
0
 62
     0
 10
42.8128
 20
54.719
 30
0.0
 11
42.8128
 21
40.7183
 31
0.0
  0
LINE
  8
0
 62
     0
 10
42.8128
 20
40.7183
 30
0.0
 11
28.8134
 21
40.7183
 31
0.0
  0
LINE
  8
0
 62
     0
 10
28.8134
 20
40.7183
 30
0.0
 11
28.8134
 21
54.719
 31
0.0
  0
LINE
  8
0
 62
     0
 10
28.8134
 20
35.669
 30
0.0
 11
42.8128
 21
35.669
 31
0.0
  0
LINE
  8
0
 62
     0
 10
42.8128
 20
35.669
 30
0.0
 11
42.8128
 21
21.6683
 31
0.0
  0
LINE
  8
0
 62
     0
 10
42.8128
 20
21.6683
 30
0.0
 11
28.8134
 21
21.6683
 31
0.0
  0
LINE
  8
0
 62
     0
 10
28.8134
 20
21.6683
 30
0.0
 11
28.8134
 21
35.669
 31
0.0
  0
LINE
  8
0
 62
     0
 10
28.8134
 20
16.6192
 30
0.0
 11
42.8128
 21
16.6192
 31
0.0
  0
LINE
  8
0
 62
     0
 10
42.8128
 20
16.6192
 30
0.0
 11
42.8128
 21
2.61827
 31
0.0
  0
LINE
  8
0
 62
     0
 10
42.8128
 20
2.61827
 30
0.0
 11
28.8134
 21
2.61827
 31
0.0
  0
LINE
  8
0
 62
     0
 10
28.8134
 20
2.61827
 30
0.0
 11
28.8134
 21
16.6192
 31
0.0
  0
LINE
  8
0
 62
     0
 10
50.2433
 20
92.819
 30
0.0
 11
64.244
 21
92.819
 31
0.0
  0
LINE
  8
0
 62
     0
 10
64.244
 20
92.819
 30
0.0
 11
64.244
 21
78.8183
 31
0.0
  0
LINE
  8
0
 62
     0
 10
64.244
 20
78.8183
 30
0.0
 11
50.2433
 21
78.8183
 31
0.0
  0
LINE
  8
0
 62
     0
 10
50.2433
 20
78.8183
 30
0.0
 11
50.2433
 21
92.819
 31
0.0
  0
LINE
  8
0
 62
     0
 10
50.2433
 20
73.769
 30
0.0
 11
64.244
 21
73.769
 31
0.0
  0
LINE
  8
0
 62
     0
 10
64.244
 20
73.769
 30
0.0
 11
64.244
 21
59.7683
 31
0.0
  0
LINE
  8
0
 62
     0
 10
64.244
 20
59.7683
 30
0.0
 11
50.2433
 21
59.7683
 31
0.0
  0
LINE
  8
0
 62
     0
 10
50.2433
 20
59.7683
 30
0.0
 11
50.2433
 21
73.769
 31
0.0
  0
LINE
  8
0
 62
     0
 10
50.2433
 20
54.719
 30
0.0
 11
64.244
 21
54.719
 31
0.0
  0
LINE
  8
0
 62
     0
 10
64.244
 20
54.719
 30
0.0
 11
64.244
 21
40.7183
 31
0.0
  0
LINE
  8
0
 62
     0
 10
64.244
 20
40.7183
 30
0.0
 11
50.2433
 21
40.7183
 31
0.0
  0
LINE
  8
0
 62
     0
 10
50.2433
 20
40.7183
 30
0.0
 11
50.2433
 21
54.719
 31
0.0
  0
LINE
  8
0
 62
     0
 10
50.2433
 20
35.669
 30
0.0
 11
64.244
 21
35.669
 31
0.0
  0
LINE
  8
0
 62
     0
 10
64.244
 20
35.669
 30
0.0
 11
64.244
 21
21.6683
 31
0.0
  0
LINE
  8
0
 62
     0
 10
64.244
 20
21.6683
 30
0.0
 11
50.2433
 21
21.6683
 31
0.0
  0
LINE
  8
0
 62
     0
 10
50.2433
 20
21.6683
 30
0.0
 11
50.2433
 21
35.669
 31
0.0
  0
LINE
  8
0
 62
     0
 10
52.6246
 20
16.6192
 30
0.0
 11
66.6253
 21
16.6192
 31
0.0
  0
LINE
  8
0
 62
     0
 10
66.6253
 20
16.6192
 30
0.0
 11
66.6253
 21
2.61827
 31
0.0
  0
LINE
  8
0
 62
     0
 10
66.6253
 20
2.61827
 30
0.0
 11
52.6246
 21
2.61827
 31
0.0
  0
LINE
  8
0
 62
     0
 10
52.6246
 20
2.61827
 30
0.0
 11
52.6246
 21
16.6192
 31
0.0
  0
LINE
  8
0
 62
     0
 10
69.2933
 20
92.819
 30
0.0
 11
83.294
 21
92.819
 31
0.0
  0
LINE
  8
0
 62
     0
 10
83.294
 20
92.819
 30
0.0
 11
83.294
 21
78.8183
 31
0.0
  0
LINE
  8
0
 62
     0
 10
83.294
 20
78.8183
 30
0.0
 11
69.2933
 21
78.8183
 31
0.0
  0
LINE
  8
0
 62
     0
 10
69.2933
 20
78.8183
 30
0.0
 11
69.2933
 21
92.819
 31
0.0
  0
LINE
  8
0
 62
     0
 10
69.2933
 20
73.769
 30
0.0
 11
83.294
 21
73.769
 31
0.0
  0
LINE
  8
0
 62
     0
 10
83.294
 20
73.769
 30
0.0
 11
83.294
 21
59.7683
 31
0.0
  0
LINE
  8
0
 62
     0
 10
83.294
 20
59.7683
 30
0.0
 11
69.2933
 21
59.7683
 31
0.0
  0
LINE
  8
0
 62
     0
 10
69.2933
 20
59.7683
 30
0.0
 11
69.2933
 21
73.769
 31
0.0
  0
LINE
  8
0
 62
     0
 10
69.2933
 20
54.719
 30
0.0
 11
83.294
 21
54.719
 31
0.0
  0
LINE
  8
0
 62
     0
 10
83.294
 20
54.719
 30
0.0
 11
83.294
 21
40.7183
 31
0.0
  0
LINE
  8
0
 62
     0
 10
83.294
 20
40.7183
 30
0.0
 11
69.2933
 21
40.7183
 31
0.0
  0
LINE
  8
0
 62
     0
 10
69.2933
 20
40.7183
 30
0.0
 11
69.2933
 21
54.719
 31
0.0
  0
LINE
  8
0
 62
     0
 10
69.2933
 20
35.669
 30
0.0
 11
83.294
 21
35.669
 31
0.0
  0
LINE
  8
0
 62
     0
 10
83.294
 20
35.669
 30
0.0
 11
83.294
 21
21.6683
 31
0.0
  0
LINE
  8
0
 62
     0
 10
83.294
 20
21.6683
 30
0.0
 11
69.2933
 21
21.6683
 31
0.0
  0
LINE
  8
0
 62
     0
 10
69.2933
 20
21.6683
 30
0.0
 11
69.2933
 21
35.669
 31
0.0
  0
LINE
  8
0
 62
     0
 10
76.4385
 20
16.6192
 30
0.0
 11
90.4378
 21
16.6192
 31
0.0
  0
LINE
  8
0
 62
     0
 10
90.4378
 20
16.6192
 30
0.0
 11
90.4378
 21
2.61827
 31
0.0
  0
LINE
  8
0
 62
     0
 10
90.4378
 20
2.61827
 30
0.0
 11
76.4385
 21
2.61827
 31
0.0
  0
LINE
  8
0
 62
     0
 10
76.4385
 20
2.61827
 30
0.0
 11
76.4385
 21
16.6192
 31
0.0
  0
LINE
  8
0
 62
     0
 10
88.3433
 20
92.819
 30
0.0
 11
102.344
 21
92.819
 31
0.0
  0
LINE
  8
0
 62
     0
 10
102.344
 20
92.819
 30
0.0
 11
102.344
 21
78.8183
 31
0.0
  0
LINE
  8
0
 62
     0
 10
102.344
 20
78.8183
 30
0.0
 11
88.3433
 21
78.8183
 31
0.0
  0
LINE
  8
0
 62
     0
 10
88.3433
 20
78.8183
 30
0.0
 11
88.3433
 21
92.819
 31
0.0
  0
LINE
  8
0
 62
     0
 10
88.3433
 20
73.769
 30
0.0
 11
102.344
 21
73.769
 31
0.0
  0
LINE
  8
0
 62
     0
 10
102.344
 20
73.769
 30
0.0
 11
102.344
 21
59.7683
 31
0.0
  0
LINE
  8
0
 62
     0
 10
102.344
 20
59.7683
 30
0.0
 11
88.3433
 21
59.7683
 31
0.0
  0
LINE
  8
0
 62
     0
 10
88.3433
 20
59.7683
 30
0.0
 11
88.3433
 21
73.769
 31
0.0
  0
LINE
  8
0
 62
     0
 10
88.3433
 20
54.719
 30
0.0
 11
102.344
 21
54.719
 31
0.0
  0
LINE
  8
0
 62
     0
 10
102.344
 20
54.719
 30
0.0
 11
102.344
 21
40.7183
 31
0.0
  0
LINE
  8
0
 62
     0
 10
102.344
 20
40.7183
 30
0.0
 11
88.3433
 21
40.7183
 31
0.0
  0
LINE
  8
0
 62
     0
 10
88.3433
 20
40.7183
 30
0.0
 11
88.3433
 21
54.719
 31
0.0
  0
LINE
  8
0
 62
     0
 10
88.3433
 20
35.669
 30
0.0
 11
102.344
 21
35.669
 31
0.0
  0
LINE
  8
0
 62
     0
 10
102.344
 20
35.669
 30
0.0
 11
102.344
 21
21.6683
 31
0.0
  0
LINE
  8
0
 62
     0
 10
102.344
 20
21.6683
 30
0.0
 11
88.3433
 21
21.6683
 31
0.0
  0
LINE
  8
0
 62
     0
 10
88.3433
 20
21.6683
 30
0.0
 11
88.3433
 21
35.669
 31
0.0
  0
LINE
  8
0
 62
     0
 10
105.556
 20
16.0693
 30
0.0
 11
108.857
 21
16.0693
 31
0.0
  0
LINE
  8
0
 62
     0
 10
108.857
 20
16.0693
 30
0.0
 11
108.857
 21
1.86862
 31
0.0
  0
LINE
  8
0
 62
     0
 10
108.857
 20
1.86862
 30
0.0
 11
105.556
 21
1.86862
 31
0.0
  0
LINE
  8
0
 62
     0
 10
105.556
 20
1.86862
 30
0.0
 11
105.556
 21
16.0693
 31
0.0
  0
LINE
  8
0
 62
     0
 10
107.393
 20
92.819
 30
0.0
 11
121.394
 21
92.819
 31
0.0
  0
LINE
  8
0
 62
     0
 10
121.394
 20
92.819
 30
0.0
 11
121.394
 21
78.8183
 31
0.0
  0
LINE
  8
0
 62
     0
 10
121.394
 20
78.8183
 30
0.0
 11
107.393
 21
78.8183
 31
0.0
  0
LINE
  8
0
 62
     0
 10
107.393
 20
78.8183
 30
0.0
 11
107.393
 21
92.819
 31
0.0
  0
LINE
  8
0
 62
     0
 10
107.393
 20
73.769
 30
0.0
 11
121.394
 21
73.769
 31
0.0
  0
LINE
  8
0
 62
     0
 10
121.394
 20
73.769
 30
0.0
 11
121.394
 21
59.7683
 31
0.0
  0
LINE
  8
0
 62
     0
 10
121.394
 20
59.7683
 30
0.0
 11
107.393
 21
59.7683
 31
0.0
  0
LINE
  8
0
 62
     0
 10
107.393
 20
59.7683
 30
0.0
 11
107.393
 21
73.769
 31
0.0
  0
LINE
  8
0
 62
     0
 10
107.393
 20
54.719
 30
0.0
 11
121.394
 21
54.719
 31
0.0
  0
LINE
  8
0
 62
     0
 10
121.394
 20
54.719
 30
0.0
 11
121.394
 21
40.7183
 31
0.0
  0
LINE
  8
0
 62
     0
 10
121.394
 20
40.7183
 30
0.0
 11
107.393
 21
40.7183
 31
0.0
  0
LINE
  8
0
 62
     0
 10
107.393
 20
40.7183
 30
0.0
 11
107.393
 21
54.719
 31
0.0
  0
LINE
  8
0
 62
     0
 10
107.393
 20
35.669
 30
0.0
 11
121.394
 21
35.669
 31
0.0
  0
LINE
  8
0
 62
     0
 10
121.394
 20
35.669
 30
0.0
 11
121.394
 21
21.6683
 31
0.0
  0
LINE
  8
0
 62
     0
 10
121.394
 20
21.6683
 30
0.0
 11
107.393
 21
21.6683
 31
0.0
  0
LINE
  8
0
 62
     0
 10
107.393
 20
21.6683
 30
0.0
 11
107.393
 21
35.669
 31
0.0
  0
LINE
  8
0
 62
     0
 10
112.156
 20
16.6192
 30
0.0
 11
126.155
 21
16.6192
 31
0.0
  0
LINE
  8
0
 62
     0
 10
126.155
 20
16.6192
 30
0.0
 11
126.155
 21
2.61827
 31
0.0
  0
LINE
  8
0
 62
     0
 10
126.155
 20
2.61827
 30
0.0
 11
112.156
 21
2.61827
 31
0.0
  0
LINE
  8
0
 62
     0
 10
112.156
 20
2.61827
 30
0.0
 11
112.156
 21
16.6192
 31
0.0
  0
LINE
  8
0
 62
     0
 10
129.457
 20
16.0693
 30
0.0
 11
132.756
 21
16.0693
 31
0.0
  0
LINE
  8
0
 62
     0
 10
132.756
 20
16.0693
 30
0.0
 11
132.756
 21
1.86862
 31
0.0
  0
LINE
  8
0
 62
     0
 10
132.756
 20
1.86862
 30
0.0
 11
129.457
 21
1.86862
 31
0.0
  0
LINE
  8
0
 62
     0
 10
129.457
 20
1.86862
 30
0.0
 11
129.457
 21
16.0693
 31
0.0
  0
LINE
  8
0
 62
     0
 10
126.443
 20
92.819
 30
0.0
 11
140.444
 21
92.819
 31
0.0
  0
LINE
  8
0
 62
     0
 10
140.444
 20
92.819
 30
0.0
 11
140.444
 21
78.8183
 31
0.0
  0
LINE
  8
0
 62
     0
 10
140.444
 20
78.8183
 30
0.0
 11
126.443
 21
78.8183
 31
0.0
  0
LINE
  8
0
 62
     0
 10
126.443
 20
78.8183
 30
0.0
 11
126.443
 21
92.819
 31
0.0
  0
LINE
  8
0
 62
     0
 10
126.443
 20
73.769
 30
0.0
 11
140.444
 21
73.769
 31
0.0
  0
LINE
  8
0
 62
     0
 10
140.444
 20
73.769
 30
0.0
 11
140.444
 21
59.7683
 31
0.0
  0
LINE
  8
0
 62
     0
 10
140.444
 20
59.7683
 30
0.0
 11
126.443
 21
59.7683
 31
0.0
  0
LINE
  8
0
 62
     0
 10
126.443
 20
59.7683
 30
0.0
 11
126.443
 21
73.769
 31
0.0
  0
LINE
  8
0
 62
     0
 10
126.443
 20
54.719
 30
0.0
 11
140.444
 21
54.719
 31
0.0
  0
LINE
  8
0
 62
     0
 10
140.444
 20
54.719
 30
0.0
 11
140.444
 21
40.7183
 31
0.0
  0
LINE
  8
0
 62
     0
 10
140.444
 20
40.7183
 30
0.0
 11
126.443
 21
40.7183
 31
0.0
  0
LINE
  8
0
 62
     0
 10
126.443
 20
40.7183
 30
0.0
 11
126.443
 21
54.719
 31
0.0
  0
LINE
  8
0
 62
     0
 10
126.443
 20
35.669
 30
0.0
 11
140.444
 21
35.669
 31
0.0
  0
LINE
  8
0
 62
     0
 10
140.444
 20
35.669
 30
0.0
 11
140.444
 21
21.6683
 31
0.0
  0
LINE
  8
0
 62
     0
 10
140.444
 20
21.6683
 30
0.0
 11
126.443
 21
21.6683
 31
0.0
  0
LINE
  8
0
 62
     0
 10
126.443
 20
21.6683
 30
0.0
 11
126.443
 21
35.669
 31
0.0
  0
ENDSEC
  0
EOF
