  0
SECTION
  2
HEADER
  9
$ACADVER
  1
AC1009
  9
$EXTMIN
 10
0.0
 20
0.0
 30
0.0
  9
$EXTMAX
 10
1000.0
 20
1000.0
 30
0.0
  9
$FILLMODE
 70
 0
  9
$SPLFRAME
 70
 1
  0
ENDSEC
  0
SECTION
  2
TABLES
  0
TABLE
  2
LAYER
 70
1
  0
LAYER
  2
0
 70
     0
 62
     7
  6
CONTINUOUS
  0
ENDTAB
  0
ENDSEC
  0
SECTION
  2
ENTITIES
  0
LINE
  8
0
 62
     0
 10
160.256
 20
99.344
 30
0.0
 11
160.335
 21
99.3415
 31
0.0
  0
LINE
  8
0
 62
     0
 10
160.335
 20
99.3415
 30
0.0
 11
160.413
 21
99.3316
 31
0.0
  0
LINE
  8
0
 62
     0
 10
160.413
 20
99.3316
 30
0.0
 11
160.489
 21
99.3165
 31
0.0
  0
LINE
  8
0
 62
     0
 10
160.489
 20
99.3165
 30
0.0
 11
160.566
 21
99.2946
 31
0.0
  0
LINE
  8
0
 62
     0
 10
160.566
 20
99.2946
 30
0.0
 11
160.639
 21
99.2685
 31
0.0
  0
LINE
  8
0
 62
     0
 10
160.639
 20
99.2685
 30
0.0
 11
160.71
 21
99.2353
 31
0.0
  0
LINE
  8
0
 62
     0
 10
160.71
 20
99.2353
 30
0.0
 11
160.778
 21
99.1969
 31
0.0
  0
LINE
  8
0
 62
     0
 10
160.778
 20
99.1969
 30
0.0
 11
160.843
 21
99.1528
 31
0.0
  0
LINE
  8
0
 62
     0
 10
160.843
 20
99.1528
 30
0.0
 11
160.905
 21
99.1044
 31
0.0
  0
LINE
  8
0
 62
     0
 10
160.905
 20
99.1044
 30
0.0
 11
160.963
 21
99.0505
 31
0.0
  0
LINE
  8
0
 62
     0
 10
160.963
 20
99.0505
 30
0.0
 11
161.017
 21
98.9926
 31
0.0
  0
LINE
  8
0
 62
     0
 10
161.017
 20
98.9926
 30
0.0
 11
161.065
 21
98.9323
 31
0.0
  0
LINE
  8
0
 62
     0
 10
161.065
 20
98.9323
 30
0.0
 11
161.109
 21
98.866
 31
0.0
  0
LINE
  8
0
 62
     0
 10
161.109
 20
98.866
 30
0.0
 11
161.148
 21
98.7986
 31
0.0
  0
LINE
  8
0
 62
     0
 10
161.148
 20
98.7986
 30
0.0
 11
161.18
 21
98.7266
 31
0.0
  0
LINE
  8
0
 62
     0
 10
161.18
 20
98.7266
 30
0.0
 11
161.209
 21
98.6536
 31
0.0
  0
LINE
  8
0
 62
     0
 10
161.209
 20
98.6536
 30
0.0
 11
161.229
 21
98.5767
 31
0.0
  0
LINE
  8
0
 62
     0
 10
161.229
 20
98.5767
 30
0.0
 11
161.244
 21
98.5008
 31
0.0
  0
LINE
  8
0
 62
     0
 10
161.244
 20
98.5008
 30
0.0
 11
161.253
 21
98.4222
 31
0.0
  0
LINE
  8
0
 62
     0
 10
161.253
 20
98.4222
 30
0.0
 11
161.256
 21
98.3439
 31
0.0
  0
LINE
  8
0
 62
     0
 10
161.256
 20
98.3439
 30
0.0
 11
161.256
 21
1.09416
 31
0.0
  0
LINE
  8
0
 62
     0
 10
161.256
 20
1.09416
 30
0.0
 11
161.253
 21
1.01562
 31
0.0
  0
LINE
  8
0
 62
     0
 10
161.253
 20
1.01562
 30
0.0
 11
161.244
 21
0.938445
 31
0.0
  0
LINE
  8
0
 62
     0
 10
161.244
 20
0.938445
 30
0.0
 11
161.229
 21
0.861275
 31
0.0
  0
LINE
  8
0
 62
     0
 10
161.229
 20
0.861275
 30
0.0
 11
161.209
 21
0.785481
 31
0.0
  0
LINE
  8
0
 62
     0
 10
161.209
 20
0.785481
 30
0.0
 11
161.18
 21
0.711069
 31
0.0
  0
LINE
  8
0
 62
     0
 10
161.18
 20
0.711069
 30
0.0
 11
161.148
 21
0.640789
 31
0.0
  0
LINE
  8
0
 62
     0
 10
161.148
 20
0.640789
 30
0.0
 11
161.109
 21
0.571885
 31
0.0
  0
LINE
  8
0
 62
     0
 10
161.109
 20
0.571885
 30
0.0
 11
161.065
 21
0.505739
 31
0.0
  0
LINE
  8
0
 62
     0
 10
161.065
 20
0.505739
 30
0.0
 11
161.017
 21
0.445107
 31
0.0
  0
LINE
  8
0
 62
     0
 10
161.017
 20
0.445107
 30
0.0
 11
160.963
 21
0.38723
 31
0.0
  0
LINE
  8
0
 62
     0
 10
160.963
 20
0.38723
 30
0.0
 11
160.905
 21
0.333485
 31
0.0
  0
LINE
  8
0
 62
     0
 10
160.905
 20
0.333485
 30
0.0
 11
160.843
 21
0.285254
 31
0.0
  0
LINE
  8
0
 62
     0
 10
160.843
 20
0.285254
 30
0.0
 11
160.778
 21
0.241157
 31
0.0
  0
LINE
  8
0
 62
     0
 10
160.778
 20
0.241157
 30
0.0
 11
160.71
 21
0.202572
 31
0.0
  0
LINE
  8
0
 62
     0
 10
160.71
 20
0.202572
 30
0.0
 11
160.639
 21
0.169499
 31
0.0
  0
LINE
  8
0
 62
     0
 10
160.639
 20
0.169499
 30
0.0
 11
160.566
 21
0.143316
 31
0.0
  0
LINE
  8
0
 62
     0
 10
160.566
 20
0.143316
 30
0.0
 11
160.489
 21
0.122645
 31
0.0
  0
LINE
  8
0
 62
     0
 10
160.489
 20
0.122645
 30
0.0
 11
160.413
 21
0.106109
 31
0.0
  0
LINE
  8
0
 62
     0
 10
160.413
 20
0.106109
 30
0.0
 11
160.335
 21
0.0964629
 31
0.0
  0
LINE
  8
0
 62
     0
 10
160.335
 20
0.0964629
 30
0.0
 11
160.256
 21
0.0937066
 31
0.0
  0
LINE
  8
0
 62
     0
 10
160.256
 20
0.0937066
 30
0.0
 11
1.09416
 21
0.0937066
 31
0.0
  0
LINE
  8
0
 62
     0
 10
1.09416
 20
0.0937066
 30
0.0
 11
1.01562
 21
0.0964629
 31
0.0
  0
LINE
  8
0
 62
     0
 10
1.01562
 20
0.0964629
 30
0.0
 11
0.937066
 21
0.106109
 31
0.0
  0
LINE
  8
0
 62
     0
 10
0.937066
 20
0.106109
 30
0.0
 11
0.861275
 21
0.122645
 31
0.0
  0
LINE
  8
0
 62
     0
 10
0.861275
 20
0.122645
 30
0.0
 11
0.784105
 21
0.143316
 31
0.0
  0
LINE
  8
0
 62
     0
 10
0.784105
 20
0.143316
 30
0.0
 11
0.711069
 21
0.169499
 31
0.0
  0
LINE
  8
0
 62
     0
 10
0.711069
 20
0.169499
 30
0.0
 11
0.63941
 21
0.202572
 31
0.0
  0
LINE
  8
0
 62
     0
 10
0.63941
 20
0.202572
 30
0.0
 11
0.571885
 21
0.241157
 31
0.0
  0
LINE
  8
0
 62
     0
 10
0.571885
 20
0.241157
 30
0.0
 11
0.505739
 21
0.285254
 31
0.0
  0
LINE
  8
0
 62
     0
 10
0.505739
 20
0.285254
 30
0.0
 11
0.445107
 21
0.333485
 31
0.0
  0
LINE
  8
0
 62
     0
 10
0.445107
 20
0.333485
 30
0.0
 11
0.38723
 21
0.38723
 31
0.0
  0
LINE
  8
0
 62
     0
 10
0.38723
 20
0.38723
 30
0.0
 11
0.333485
 21
0.445107
 31
0.0
  0
LINE
  8
0
 62
     0
 10
0.333485
 20
0.445107
 30
0.0
 11
0.285254
 21
0.505739
 31
0.0
  0
LINE
  8
0
 62
     0
 10
0.285254
 20
0.505739
 30
0.0
 11
0.241157
 21
0.571885
 31
0.0
  0
LINE
  8
0
 62
     0
 10
0.241157
 20
0.571885
 30
0.0
 11
0.202572
 21
0.640789
 31
0.0
  0
LINE
  8
0
 62
     0
 10
0.202572
 20
0.640789
 30
0.0
 11
0.169499
 21
0.711069
 31
0.0
  0
LINE
  8
0
 62
     0
 10
0.169499
 20
0.711069
 30
0.0
 11
0.143316
 21
0.785481
 31
0.0
  0
LINE
  8
0
 62
     0
 10
0.143316
 20
0.785481
 30
0.0
 11
0.121267
 21
0.861275
 31
0.0
  0
LINE
  8
0
 62
     0
 10
0.121267
 20
0.861275
 30
0.0
 11
0.106109
 21
0.938445
 31
0.0
  0
LINE
  8
0
 62
     0
 10
0.106109
 20
0.938445
 30
0.0
 11
0.0964629
 21
1.01562
 31
0.0
  0
LINE
  8
0
 62
     0
 10
0.0964629
 20
1.01562
 30
0.0
 11
0.0937066
 21
1.09416
 31
0.0
  0
LINE
  8
0
 62
     0
 10
0.0937066
 20
1.09416
 30
0.0
 11
0.0937066
 21
98.3439
 31
0.0
  0
LINE
  8
0
 62
     0
 10
0.0937066
 20
98.3439
 30
0.0
 11
0.0964629
 21
98.4222
 31
0.0
  0
LINE
  8
0
 62
     0
 10
0.0964629
 20
98.4222
 30
0.0
 11
0.106109
 21
98.5008
 31
0.0
  0
LINE
  8
0
 62
     0
 10
0.106109
 20
98.5008
 30
0.0
 11
0.121267
 21
98.5767
 31
0.0
  0
LINE
  8
0
 62
     0
 10
0.121267
 20
98.5767
 30
0.0
 11
0.143316
 21
98.6536
 31
0.0
  0
LINE
  8
0
 62
     0
 10
0.143316
 20
98.6536
 30
0.0
 11
0.169499
 21
98.7266
 31
0.0
  0
LINE
  8
0
 62
     0
 10
0.169499
 20
98.7266
 30
0.0
 11
0.202572
 21
98.7986
 31
0.0
  0
LINE
  8
0
 62
     0
 10
0.202572
 20
98.7986
 30
0.0
 11
0.241157
 21
98.866
 31
0.0
  0
LINE
  8
0
 62
     0
 10
0.241157
 20
98.866
 30
0.0
 11
0.285254
 21
98.9323
 31
0.0
  0
LINE
  8
0
 62
     0
 10
0.285254
 20
98.9323
 30
0.0
 11
0.333485
 21
98.9926
 31
0.0
  0
LINE
  8
0
 62
     0
 10
0.333485
 20
98.9926
 30
0.0
 11
0.38723
 21
99.0505
 31
0.0
  0
LINE
  8
0
 62
     0
 10
0.38723
 20
99.0505
 30
0.0
 11
0.445107
 21
99.1044
 31
0.0
  0
LINE
  8
0
 62
     0
 10
0.445107
 20
99.1044
 30
0.0
 11
0.505739
 21
99.1528
 31
0.0
  0
LINE
  8
0
 62
     0
 10
0.505739
 20
99.1528
 30
0.0
 11
0.571885
 21
99.1969
 31
0.0
  0
LINE
  8
0
 62
     0
 10
0.571885
 20
99.1969
 30
0.0
 11
0.63941
 21
99.2353
 31
0.0
  0
LINE
  8
0
 62
     0
 10
0.63941
 20
99.2353
 30
0.0
 11
0.711069
 21
99.2685
 31
0.0
  0
LINE
  8
0
 62
     0
 10
0.711069
 20
99.2685
 30
0.0
 11
0.784105
 21
99.2946
 31
0.0
  0
LINE
  8
0
 62
     0
 10
0.784105
 20
99.2946
 30
0.0
 11
0.861275
 21
99.3165
 31
0.0
  0
LINE
  8
0
 62
     0
 10
0.861275
 20
99.3165
 30
0.0
 11
0.937066
 21
99.3316
 31
0.0
  0
LINE
  8
0
 62
     0
 10
0.937066
 20
99.3316
 30
0.0
 11
1.01562
 21
99.3415
 31
0.0
  0
LINE
  8
0
 62
     0
 10
1.01562
 20
99.3415
 30
0.0
 11
1.09416
 21
99.344
 31
0.0
  0
LINE
  8
0
 62
     0
 10
1.09416
 20
99.344
 30
0.0
 11
160.256
 21
99.344
 31
0.0
  0
LINE
  8
0
 62
     0
 10
12.3059
 20
18.0689
 30
0.0
 11
15.6063
 21
18.0689
 31
0.0
  0
LINE
  8
0
 62
     0
 10
15.6063
 20
18.0689
 30
0.0
 11
15.6063
 21
3.86955
 31
0.0
  0
LINE
  8
0
 62
     0
 10
15.6063
 20
3.86955
 30
0.0
 11
12.3059
 21
3.86955
 31
0.0
  0
LINE
  8
0
 62
     0
 10
12.3059
 20
3.86955
 30
0.0
 11
12.3059
 21
18.0689
 31
0.0
  0
LINE
  8
0
 62
     0
 10
4.6192
 20
94.8186
 30
0.0
 11
18.6187
 21
94.8186
 31
0.0
  0
LINE
  8
0
 62
     0
 10
18.6187
 20
94.8186
 30
0.0
 11
18.6187
 21
80.8193
 31
0.0
  0
LINE
  8
0
 62
     0
 10
18.6187
 20
80.8193
 30
0.0
 11
4.6192
 21
80.8193
 31
0.0
  0
LINE
  8
0
 62
     0
 10
4.6192
 20
80.8193
 30
0.0
 11
4.6192
 21
94.8186
 31
0.0
  0
LINE
  8
0
 62
     0
 10
4.6192
 20
75.7686
 30
0.0
 11
18.6187
 21
75.7686
 31
0.0
  0
LINE
  8
0
 62
     0
 10
18.6187
 20
75.7686
 30
0.0
 11
18.6187
 21
61.7693
 31
0.0
  0
LINE
  8
0
 62
     0
 10
18.6187
 20
61.7693
 30
0.0
 11
4.6192
 21
61.7693
 31
0.0
  0
LINE
  8
0
 62
     0
 10
4.6192
 20
61.7693
 30
0.0
 11
4.6192
 21
75.7686
 31
0.0
  0
LINE
  8
0
 62
     0
 10
4.6192
 20
56.7186
 30
0.0
 11
18.6187
 21
56.7186
 31
0.0
  0
LINE
  8
0
 62
     0
 10
18.6187
 20
56.7186
 30
0.0
 11
18.6187
 21
42.7193
 31
0.0
  0
LINE
  8
0
 62
     0
 10
18.6187
 20
42.7193
 30
0.0
 11
4.6192
 21
42.7193
 31
0.0
  0
LINE
  8
0
 62
     0
 10
4.6192
 20
42.7193
 30
0.0
 11
4.6192
 21
56.7186
 31
0.0
  0
LINE
  8
0
 62
     0
 10
4.6192
 20
37.6686
 30
0.0
 11
18.6187
 21
37.6686
 31
0.0
  0
LINE
  8
0
 62
     0
 10
18.6187
 20
37.6686
 30
0.0
 11
18.6187
 21
23.6692
 31
0.0
  0
LINE
  8
0
 62
     0
 10
18.6187
 20
23.6692
 30
0.0
 11
4.6192
 21
23.6692
 31
0.0
  0
LINE
  8
0
 62
     0
 10
4.6192
 20
23.6692
 30
0.0
 11
4.6192
 21
37.6686
 31
0.0
  0
LINE
  8
0
 62
     0
 10
18.9053
 20
18.6187
 30
0.0
 11
32.9062
 21
18.6187
 31
0.0
  0
LINE
  8
0
 62
     0
 10
32.9062
 20
18.6187
 30
0.0
 11
32.9062
 21
4.6192
 31
0.0
  0
LINE
  8
0
 62
     0
 10
32.9062
 20
4.6192
 30
0.0
 11
18.9053
 21
4.6192
 31
0.0
  0
LINE
  8
0
 62
     0
 10
18.9053
 20
4.6192
 30
0.0
 11
18.9053
 21
18.6187
 31
0.0
  0
LINE
  8
0
 62
     0
 10
23.6692
 20
94.8186
 30
0.0
 11
37.6686
 21
94.8186
 31
0.0
  0
LINE
  8
0
 62
     0
 10
37.6686
 20
94.8186
 30
0.0
 11
37.6686
 21
80.8193
 31
0.0
  0
LINE
  8
0
 62
     0
 10
37.6686
 20
80.8193
 30
0.0
 11
23.6692
 21
80.8193
 31
0.0
  0
LINE
  8
0
 62
     0
 10
23.6692
 20
80.8193
 30
0.0
 11
23.6692
 21
94.8186
 31
0.0
  0
LINE
  8
0
 62
     0
 10
23.6692
 20
75.7686
 30
0.0
 11
37.6686
 21
75.7686
 31
0.0
  0
LINE
  8
0
 62
     0
 10
37.6686
 20
75.7686
 30
0.0
 11
37.6686
 21
61.7693
 31
0.0
  0
LINE
  8
0
 62
     0
 10
37.6686
 20
61.7693
 30
0.0
 11
23.6692
 21
61.7693
 31
0.0
  0
LINE
  8
0
 62
     0
 10
23.6692
 20
61.7693
 30
0.0
 11
23.6692
 21
75.7686
 31
0.0
  0
LINE
  8
0
 62
     0
 10
23.6692
 20
56.7186
 30
0.0
 11
37.6686
 21
56.7186
 31
0.0
  0
LINE
  8
0
 62
     0
 10
37.6686
 20
56.7186
 30
0.0
 11
37.6686
 21
42.7193
 31
0.0
  0
LINE
  8
0
 62
     0
 10
37.6686
 20
42.7193
 30
0.0
 11
23.6692
 21
42.7193
 31
0.0
  0
LINE
  8
0
 62
     0
 10
23.6692
 20
42.7193
 30
0.0
 11
23.6692
 21
56.7186
 31
0.0
  0
LINE
  8
0
 62
     0
 10
23.6692
 20
37.6686
 30
0.0
 11
37.6686
 21
37.6686
 31
0.0
  0
LINE
  8
0
 62
     0
 10
37.6686
 20
37.6686
 30
0.0
 11
37.6686
 21
23.6692
 31
0.0
  0
LINE
  8
0
 62
     0
 10
37.6686
 20
23.6692
 30
0.0
 11
23.6692
 21
23.6692
 31
0.0
  0
LINE
  8
0
 62
     0
 10
23.6692
 20
23.6692
 30
0.0
 11
23.6692
 21
37.6686
 31
0.0
  0
LINE
  8
0
 62
     0
 10
36.2052
 20
18.0689
 30
0.0
 11
39.5069
 21
18.0689
 31
0.0
  0
LINE
  8
0
 62
     0
 10
39.5069
 20
18.0689
 30
0.0
 11
39.5069
 21
3.86955
 31
0.0
  0
LINE
  8
0
 62
     0
 10
39.5069
 20
3.86955
 30
0.0
 11
36.2052
 21
3.86955
 31
0.0
  0
LINE
  8
0
 62
     0
 10
36.2052
 20
3.86955
 30
0.0
 11
36.2052
 21
18.0689
 31
0.0
  0
LINE
  8
0
 62
     0
 10
42.7193
 20
94.8186
 30
0.0
 11
56.7186
 21
94.8186
 31
0.0
  0
LINE
  8
0
 62
     0
 10
56.7186
 20
94.8186
 30
0.0
 11
56.7186
 21
80.8193
 31
0.0
  0
LINE
  8
0
 62
     0
 10
56.7186
 20
80.8193
 30
0.0
 11
42.7193
 21
80.8193
 31
0.0
  0
LINE
  8
0
 62
     0
 10
42.7193
 20
80.8193
 30
0.0
 11
42.7193
 21
94.8186
 31
0.0
  0
LINE
  8
0
 62
     0
 10
42.7193
 20
75.7686
 30
0.0
 11
56.7186
 21
75.7686
 31
0.0
  0
LINE
  8
0
 62
     0
 10
56.7186
 20
75.7686
 30
0.0
 11
56.7186
 21
61.7693
 31
0.0
  0
LINE
  8
0
 62
     0
 10
56.7186
 20
61.7693
 30
0.0
 11
42.7193
 21
61.7693
 31
0.0
  0
LINE
  8
0
 62
     0
 10
42.7193
 20
61.7693
 30
0.0
 11
42.7193
 21
75.7686
 31
0.0
  0
LINE
  8
0
 62
     0
 10
42.7193
 20
56.7186
 30
0.0
 11
56.7186
 21
56.7186
 31
0.0
  0
LINE
  8
0
 62
     0
 10
56.7186
 20
56.7186
 30
0.0
 11
56.7186
 21
42.7193
 31
0.0
  0
LINE
  8
0
 62
     0
 10
56.7186
 20
42.7193
 30
0.0
 11
42.7193
 21
42.7193
 31
0.0
  0
LINE
  8
0
 62
     0
 10
42.7193
 20
42.7193
 30
0.0
 11
42.7193
 21
56.7186
 31
0.0
  0
LINE
  8
0
 62
     0
 10
42.7193
 20
37.6686
 30
0.0
 11
56.7186
 21
37.6686
 31
0.0
  0
LINE
  8
0
 62
     0
 10
56.7186
 20
37.6686
 30
0.0
 11
56.7186
 21
23.6692
 31
0.0
  0
LINE
  8
0
 62
     0
 10
56.7186
 20
23.6692
 30
0.0
 11
42.7193
 21
23.6692
 31
0.0
  0
LINE
  8
0
 62
     0
 10
42.7193
 20
23.6692
 30
0.0
 11
42.7193
 21
37.6686
 31
0.0
  0
LINE
  8
0
 62
     0
 10
54.6255
 20
18.6187
 30
0.0
 11
68.6248
 21
18.6187
 31
0.0
  0
LINE
  8
0
 62
     0
 10
68.6248
 20
18.6187
 30
0.0
 11
68.6248
 21
4.6192
 31
0.0
  0
LINE
  8
0
 62
     0
 10
68.6248
 20
4.6192
 30
0.0
 11
54.6255
 21
4.6192
 31
0.0
  0
LINE
  8
0
 62
     0
 10
54.6255
 20
4.6192
 30
0.0
 11
54.6255
 21
18.6187
 31
0.0
  0
LINE
  8
0
 62
     0
 10
61.7693
 20
94.8186
 30
0.0
 11
75.7686
 21
94.8186
 31
0.0
  0
LINE
  8
0
 62
     0
 10
75.7686
 20
94.8186
 30
0.0
 11
75.7686
 21
80.8193
 31
0.0
  0
LINE
  8
0
 62
     0
 10
75.7686
 20
80.8193
 30
0.0
 11
61.7693
 21
80.8193
 31
0.0
  0
LINE
  8
0
 62
     0
 10
61.7693
 20
80.8193
 30
0.0
 11
61.7693
 21
94.8186
 31
0.0
  0
LINE
  8
0
 62
     0
 10
61.7693
 20
75.7686
 30
0.0
 11
75.7686
 21
75.7686
 31
0.0
  0
LINE
  8
0
 62
     0
 10
75.7686
 20
75.7686
 30
0.0
 11
75.7686
 21
61.7693
 31
0.0
  0
LINE
  8
0
 62
     0
 10
75.7686
 20
61.7693
 30
0.0
 11
61.7693
 21
61.7693
 31
0.0
  0
LINE
  8
0
 62
     0
 10
61.7693
 20
61.7693
 30
0.0
 11
61.7693
 21
75.7686
 31
0.0
  0
LINE
  8
0
 62
     0
 10
61.7693
 20
56.7186
 30
0.0
 11
75.7686
 21
56.7186
 31
0.0
  0
LINE
  8
0
 62
     0
 10
75.7686
 20
56.7186
 30
0.0
 11
75.7686
 21
42.7193
 31
0.0
  0
LINE
  8
0
 62
     0
 10
75.7686
 20
42.7193
 30
0.0
 11
61.7693
 21
42.7193
 31
0.0
  0
LINE
  8
0
 62
     0
 10
61.7693
 20
42.7193
 30
0.0
 11
61.7693
 21
56.7186
 31
0.0
  0
LINE
  8
0
 62
     0
 10
61.7693
 20
37.6686
 30
0.0
 11
75.7686
 21
37.6686
 31
0.0
  0
LINE
  8
0
 62
     0
 10
75.7686
 20
37.6686
 30
0.0
 11
75.7686
 21
23.6692
 31
0.0
  0
LINE
  8
0
 62
     0
 10
75.7686
 20
23.6692
 30
0.0
 11
61.7693
 21
23.6692
 31
0.0
  0
LINE
  8
0
 62
     0
 10
61.7693
 20
23.6692
 30
0.0
 11
61.7693
 21
37.6686
 31
0.0
  0
LINE
  8
0
 62
     0
 10
78.438
 20
18.6187
 30
0.0
 11
92.4373
 21
18.6187
 31
0.0
  0
LINE
  8
0
 62
     0
 10
92.4373
 20
18.6187
 30
0.0
 11
92.4373
 21
4.6192
 31
0.0
  0
LINE
  8
0
 62
     0
 10
92.4373
 20
4.6192
 30
0.0
 11
78.438
 21
4.6192
 31
0.0
  0
LINE
  8
0
 62
     0
 10
78.438
 20
4.6192
 30
0.0
 11
78.438
 21
18.6187
 31
0.0
  0
LINE
  8
0
 62
     0
 10
80.8193
 20
94.8186
 30
0.0
 11
94.8186
 21
94.8186
 31
0.0
  0
LINE
  8
0
 62
     0
 10
94.8186
 20
94.8186
 30
0.0
 11
94.8186
 21
80.8193
 31
0.0
  0
LINE
  8
0
 62
     0
 10
94.8186
 20
80.8193
 30
0.0
 11
80.8193
 21
80.8193
 31
0.0
  0
LINE
  8
0
 62
     0
 10
80.8193
 20
80.8193
 30
0.0
 11
80.8193
 21
94.8186
 31
0.0
  0
LINE
  8
0
 62
     0
 10
80.8193
 20
75.7686
 30
0.0
 11
94.8186
 21
75.7686
 31
0.0
  0
LINE
  8
0
 62
     0
 10
94.8186
 20
75.7686
 30
0.0
 11
94.8186
 21
61.7693
 31
0.0
  0
LINE
  8
0
 62
     0
 10
94.8186
 20
61.7693
 30
0.0
 11
80.8193
 21
61.7693
 31
0.0
  0
LINE
  8
0
 62
     0
 10
80.8193
 20
61.7693
 30
0.0
 11
80.8193
 21
75.7686
 31
0.0
  0
LINE
  8
0
 62
     0
 10
80.8193
 20
56.7186
 30
0.0
 11
94.8186
 21
56.7186
 31
0.0
  0
LINE
  8
0
 62
     0
 10
94.8186
 20
56.7186
 30
0.0
 11
94.8186
 21
42.7193
 31
0.0
  0
LINE
  8
0
 62
     0
 10
94.8186
 20
42.7193
 30
0.0
 11
80.8193
 21
42.7193
 31
0.0
  0
LINE
  8
0
 62
     0
 10
80.8193
 20
42.7193
 30
0.0
 11
80.8193
 21
56.7186
 31
0.0
  0
LINE
  8
0
 62
     0
 10
80.8193
 20
37.6686
 30
0.0
 11
94.8186
 21
37.6686
 31
0.0
  0
LINE
  8
0
 62
     0
 10
94.8186
 20
37.6686
 30
0.0
 11
94.8186
 21
23.6692
 31
0.0
  0
LINE
  8
0
 62
     0
 10
94.8186
 20
23.6692
 30
0.0
 11
80.8193
 21
23.6692
 31
0.0
  0
LINE
  8
0
 62
     0
 10
80.8193
 20
23.6692
 30
0.0
 11
80.8193
 21
37.6686
 31
0.0
  0
LINE
  8
0
 62
     0
 10
99.8693
 20
94.8186
 30
0.0
 11
113.869
 21
94.8186
 31
0.0
  0
LINE
  8
0
 62
     0
 10
113.869
 20
94.8186
 30
0.0
 11
113.869
 21
80.8193
 31
0.0
  0
LINE
  8
0
 62
     0
 10
113.869
 20
80.8193
 30
0.0
 11
99.8693
 21
80.8193
 31
0.0
  0
LINE
  8
0
 62
     0
 10
99.8693
 20
80.8193
 30
0.0
 11
99.8693
 21
94.8186
 31
0.0
  0
LINE
  8
0
 62
     0
 10
99.8693
 20
75.7686
 30
0.0
 11
113.869
 21
75.7686
 31
0.0
  0
LINE
  8
0
 62
     0
 10
113.869
 20
75.7686
 30
0.0
 11
113.869
 21
61.7693
 31
0.0
  0
LINE
  8
0
 62
     0
 10
113.869
 20
61.7693
 30
0.0
 11
99.8693
 21
61.7693
 31
0.0
  0
LINE
  8
0
 62
     0
 10
99.8693
 20
61.7693
 30
0.0
 11
99.8693
 21
75.7686
 31
0.0
  0
LINE
  8
0
 62
     0
 10
99.8693
 20
56.7186
 30
0.0
 11
113.869
 21
56.7186
 31
0.0
  0
LINE
  8
0
 62
     0
 10
113.869
 20
56.7186
 30
0.0
 11
113.869
 21
42.7193
 31
0.0
  0
LINE
  8
0
 62
     0
 10
113.869
 20
42.7193
 30
0.0
 11
99.8693
 21
42.7193
 31
0.0
  0
LINE
  8
0
 62
     0
 10
99.8693
 20
42.7193
 30
0.0
 11
99.8693
 21
56.7186
 31
0.0
  0
LINE
  8
0
 62
     0
 10
102.249
 20
37.6686
 30
0.0
 11
116.25
 21
37.6686
 31
0.0
  0
LINE
  8
0
 62
     0
 10
116.25
 20
37.6686
 30
0.0
 11
116.25
 21
23.6692
 31
0.0
  0
LINE
  8
0
 62
     0
 10
116.25
 20
23.6692
 30
0.0
 11
102.249
 21
23.6692
 31
0.0
  0
LINE
  8
0
 62
     0
 10
102.249
 20
23.6692
 30
0.0
 11
102.249
 21
37.6686
 31
0.0
  0
LINE
  8
0
 62
     0
 10
104.63
 20
18.6187
 30
0.0
 11
118.631
 21
18.6187
 31
0.0
  0
LINE
  8
0
 62
     0
 10
118.631
 20
18.6187
 30
0.0
 11
118.631
 21
4.6192
 31
0.0
  0
LINE
  8
0
 62
     0
 10
118.631
 20
4.6192
 30
0.0
 11
104.63
 21
4.6192
 31
0.0
  0
LINE
  8
0
 62
     0
 10
104.63
 20
4.6192
 30
0.0
 11
104.63
 21
18.6187
 31
0.0
  0
LINE
  8
0
 62
     0
 10
124.225
 20
56.1689
 30
0.0
 11
127.525
 21
56.1689
 31
0.0
  0
LINE
  8
0
 62
     0
 10
127.525
 20
56.1689
 30
0.0
 11
127.525
 21
41.9696
 31
0.0
  0
LINE
  8
0
 62
     0
 10
127.525
 20
41.9696
 30
0.0
 11
124.225
 21
41.9696
 31
0.0
  0
LINE
  8
0
 62
     0
 10
124.225
 20
41.9696
 30
0.0
 11
124.225
 21
56.1689
 31
0.0
  0
LINE
  8
0
 62
     0
 10
118.919
 20
94.8186
 30
0.0
 11
132.919
 21
94.8186
 31
0.0
  0
LINE
  8
0
 62
     0
 10
132.919
 20
94.8186
 30
0.0
 11
132.919
 21
80.8193
 31
0.0
  0
LINE
  8
0
 62
     0
 10
132.919
 20
80.8193
 30
0.0
 11
118.919
 21
80.8193
 31
0.0
  0
LINE
  8
0
 62
     0
 10
118.919
 20
80.8193
 30
0.0
 11
118.919
 21
94.8186
 31
0.0
  0
LINE
  8
0
 62
     0
 10
118.919
 20
75.7686
 30
0.0
 11
132.919
 21
75.7686
 31
0.0
  0
LINE
  8
0
 62
     0
 10
132.919
 20
75.7686
 30
0.0
 11
132.919
 21
61.7693
 31
0.0
  0
LINE
  8
0
 62
     0
 10
132.919
 20
61.7693
 30
0.0
 11
118.919
 21
61.7693
 31
0.0
  0
LINE
  8
0
 62
     0
 10
118.919
 20
61.7693
 30
0.0
 11
118.919
 21
75.7686
 31
0.0
  0
LINE
  8
0
 62
     0
 10
123.682
 20
37.6686
 30
0.0
 11
137.681
 21
37.6686
 31
0.0
  0
LINE
  8
0
 62
     0
 10
137.681
 20
37.6686
 30
0.0
 11
137.681
 21
23.6692
 31
0.0
  0
LINE
  8
0
 62
     0
 10
137.681
 20
23.6692
 30
0.0
 11
123.682
 21
23.6692
 31
0.0
  0
LINE
  8
0
 62
     0
 10
123.682
 20
23.6692
 30
0.0
 11
123.682
 21
37.6686
 31
0.0
  0
LINE
  8
0
 62
     0
 10
123.682
 20
18.6187
 30
0.0
 11
137.681
 21
18.6187
 31
0.0
  0
LINE
  8
0
 62
     0
 10
137.681
 20
18.6187
 30
0.0
 11
137.681
 21
4.6192
 31
0.0
  0
LINE
  8
0
 62
     0
 10
137.681
 20
4.6192
 30
0.0
 11
123.682
 21
4.6192
 31
0.0
  0
LINE
  8
0
 62
     0
 10
123.682
 20
4.6192
 30
0.0
 11
123.682
 21
18.6187
 31
0.0
  0
LINE
  8
0
 62
     0
 10
130.824
 20
56.7186
 30
0.0
 11
144.825
 21
56.7186
 31
0.0
  0
LINE
  8
0
 62
     0
 10
144.825
 20
56.7186
 30
0.0
 11
144.825
 21
42.7193
 31
0.0
  0
LINE
  8
0
 62
     0
 10
144.825
 20
42.7193
 30
0.0
 11
130.824
 21
42.7193
 31
0.0
  0
LINE
  8
0
 62
     0
 10
130.824
 20
42.7193
 30
0.0
 11
130.824
 21
56.7186
 31
0.0
  0
LINE
  8
0
 62
     0
 10
148.125
 20
56.1689
 30
0.0
 11
151.424
 21
56.1689
 31
0.0
  0
LINE
  8
0
 62
     0
 10
151.424
 20
56.1689
 30
0.0
 11
151.424
 21
41.9696
 31
0.0
  0
LINE
  8
0
 62
     0
 10
151.424
 20
41.9696
 30
0.0
 11
148.125
 21
41.9696
 31
0.0
  0
LINE
  8
0
 62
     0
 10
148.125
 20
41.9696
 30
0.0
 11
148.125
 21
56.1689
 31
0.0
  0
LINE
  8
0
 62
     0
 10
140.349
 20
94.8186
 30
0.0
 11
154.35
 21
94.8186
 31
0.0
  0
LINE
  8
0
 62
     0
 10
154.35
 20
94.8186
 30
0.0
 11
154.35
 21
80.8193
 31
0.0
  0
LINE
  8
0
 62
     0
 10
154.35
 20
80.8193
 30
0.0
 11
140.349
 21
80.8193
 31
0.0
  0
LINE
  8
0
 62
     0
 10
140.349
 20
80.8193
 30
0.0
 11
140.349
 21
94.8186
 31
0.0
  0
LINE
  8
0
 62
     0
 10
140.349
 20
75.7686
 30
0.0
 11
154.35
 21
75.7686
 31
0.0
  0
LINE
  8
0
 62
     0
 10
154.35
 20
75.7686
 30
0.0
 11
154.35
 21
61.7693
 31
0.0
  0
LINE
  8
0
 62
     0
 10
154.35
 20
61.7693
 30
0.0
 11
140.349
 21
61.7693
 31
0.0
  0
LINE
  8
0
 62
     0
 10
140.349
 20
61.7693
 30
0.0
 11
140.349
 21
75.7686
 31
0.0
  0
LINE
  8
0
 62
     0
 10
142.732
 20
37.6686
 30
0.0
 11
156.731
 21
37.6686
 31
0.0
  0
LINE
  8
0
 62
     0
 10
156.731
 20
37.6686
 30
0.0
 11
156.731
 21
23.6692
 31
0.0
  0
LINE
  8
0
 62
     0
 10
156.731
 20
23.6692
 30
0.0
 11
142.732
 21
23.6692
 31
0.0
  0
LINE
  8
0
 62
     0
 10
142.732
 20
23.6692
 30
0.0
 11
142.732
 21
37.6686
 31
0.0
  0
LINE
  8
0
 62
     0
 10
142.732
 20
18.6187
 30
0.0
 11
156.731
 21
18.6187
 31
0.0
  0
LINE
  8
0
 62
     0
 10
156.731
 20
18.6187
 30
0.0
 11
156.731
 21
4.6192
 31
0.0
  0
LINE
  8
0
 62
     0
 10
156.731
 20
4.6192
 30
0.0
 11
142.732
 21
4.6192
 31
0.0
  0
LINE
  8
0
 62
     0
 10
142.732
 20
4.6192
 30
0.0
 11
142.732
 21
18.6187
 31
0.0
  0
ENDSEC
  0
EOF
