  0
SECTION
  2
HEADER
  9
$ACADVER
  1
AC1009
  9
$EXTMIN
 10
0.0
 20
0.0
 30
0.0
  9
$EXTMAX
 10
1000.0
 20
1000.0
 30
0.0
  9
$FILLMODE
 70
 0
  9
$SPLFRAME
 70
 1
  0
ENDSEC
  0
SECTION
  2
TABLES
  0
TABLE
  2
LAYER
 70
1
  0
LAYER
  2
0
 70
     0
 62
     7
  6
CONTINUOUS
  0
ENDTAB
  0
ENDSEC
  0
SECTION
  2
ENTITIES
  0
LINE
  8
0
 62
     0
 10
156.257
 20
95.3438
 30
0.0
 11
156.334
 21
95.341
 31
0.0
  0
LINE
  8
0
 62
     0
 10
156.334
 20
95.341
 30
0.0
 11
156.413
 21
95.3311
 31
0.0
  0
LINE
  8
0
 62
     0
 10
156.413
 20
95.3311
 30
0.0
 11
156.49
 21
95.3163
 31
0.0
  0
LINE
  8
0
 62
     0
 10
156.49
 20
95.3163
 30
0.0
 11
156.566
 21
95.2941
 31
0.0
  0
LINE
  8
0
 62
     0
 10
156.566
 20
95.2941
 30
0.0
 11
156.639
 21
95.268
 31
0.0
  0
LINE
  8
0
 62
     0
 10
156.639
 20
95.268
 30
0.0
 11
156.709
 21
95.2348
 31
0.0
  0
LINE
  8
0
 62
     0
 10
156.709
 20
95.2348
 30
0.0
 11
156.779
 21
95.1964
 31
0.0
  0
LINE
  8
0
 62
     0
 10
156.779
 20
95.1964
 30
0.0
 11
156.844
 21
95.1523
 31
0.0
  0
LINE
  8
0
 62
     0
 10
156.844
 20
95.1523
 30
0.0
 11
156.906
 21
95.1039
 31
0.0
  0
LINE
  8
0
 62
     0
 10
156.906
 20
95.1039
 30
0.0
 11
156.964
 21
95.0503
 31
0.0
  0
LINE
  8
0
 62
     0
 10
156.964
 20
95.0503
 30
0.0
 11
157.016
 21
94.9925
 31
0.0
  0
LINE
  8
0
 62
     0
 10
157.016
 20
94.9925
 30
0.0
 11
157.066
 21
94.9318
 31
0.0
  0
LINE
  8
0
 62
     0
 10
157.066
 20
94.9318
 30
0.0
 11
157.109
 21
94.8655
 31
0.0
  0
LINE
  8
0
 62
     0
 10
157.109
 20
94.8655
 30
0.0
 11
157.147
 21
94.7981
 31
0.0
  0
LINE
  8
0
 62
     0
 10
157.147
 20
94.7981
 30
0.0
 11
157.18
 21
94.7265
 31
0.0
  0
LINE
  8
0
 62
     0
 10
157.18
 20
94.7265
 30
0.0
 11
157.208
 21
94.6534
 31
0.0
  0
LINE
  8
0
 62
     0
 10
157.208
 20
94.6534
 30
0.0
 11
157.229
 21
94.5762
 31
0.0
  0
LINE
  8
0
 62
     0
 10
157.229
 20
94.5762
 30
0.0
 11
157.244
 21
94.5003
 31
0.0
  0
LINE
  8
0
 62
     0
 10
157.244
 20
94.5003
 30
0.0
 11
157.252
 21
94.4217
 31
0.0
  0
LINE
  8
0
 62
     0
 10
157.252
 20
94.4217
 30
0.0
 11
157.256
 21
94.3434
 31
0.0
  0
LINE
  8
0
 62
     0
 10
157.256
 20
94.3434
 30
0.0
 11
157.256
 21
1.09416
 31
0.0
  0
LINE
  8
0
 62
     0
 10
157.256
 20
1.09416
 30
0.0
 11
157.252
 21
1.01562
 31
0.0
  0
LINE
  8
0
 62
     0
 10
157.252
 20
1.01562
 30
0.0
 11
157.244
 21
0.937066
 31
0.0
  0
LINE
  8
0
 62
     0
 10
157.244
 20
0.937066
 30
0.0
 11
157.229
 21
0.861275
 31
0.0
  0
LINE
  8
0
 62
     0
 10
157.229
 20
0.861275
 30
0.0
 11
157.208
 21
0.784105
 31
0.0
  0
LINE
  8
0
 62
     0
 10
157.208
 20
0.784105
 30
0.0
 11
157.18
 21
0.711069
 31
0.0
  0
LINE
  8
0
 62
     0
 10
157.18
 20
0.711069
 30
0.0
 11
157.147
 21
0.63941
 31
0.0
  0
LINE
  8
0
 62
     0
 10
157.147
 20
0.63941
 30
0.0
 11
157.109
 21
0.571885
 31
0.0
  0
LINE
  8
0
 62
     0
 10
157.109
 20
0.571885
 30
0.0
 11
157.066
 21
0.505739
 31
0.0
  0
LINE
  8
0
 62
     0
 10
157.066
 20
0.505739
 30
0.0
 11
157.016
 21
0.445107
 31
0.0
  0
LINE
  8
0
 62
     0
 10
157.016
 20
0.445107
 30
0.0
 11
156.964
 21
0.38723
 31
0.0
  0
LINE
  8
0
 62
     0
 10
156.964
 20
0.38723
 30
0.0
 11
156.906
 21
0.333485
 31
0.0
  0
LINE
  8
0
 62
     0
 10
156.906
 20
0.333485
 30
0.0
 11
156.844
 21
0.285254
 31
0.0
  0
LINE
  8
0
 62
     0
 10
156.844
 20
0.285254
 30
0.0
 11
156.779
 21
0.241157
 31
0.0
  0
LINE
  8
0
 62
     0
 10
156.779
 20
0.241157
 30
0.0
 11
156.709
 21
0.202572
 31
0.0
  0
LINE
  8
0
 62
     0
 10
156.709
 20
0.202572
 30
0.0
 11
156.639
 21
0.169499
 31
0.0
  0
LINE
  8
0
 62
     0
 10
156.639
 20
0.169499
 30
0.0
 11
156.566
 21
0.143316
 31
0.0
  0
LINE
  8
0
 62
     0
 10
156.566
 20
0.143316
 30
0.0
 11
156.49
 21
0.121267
 31
0.0
  0
LINE
  8
0
 62
     0
 10
156.49
 20
0.121267
 30
0.0
 11
156.413
 21
0.106109
 31
0.0
  0
LINE
  8
0
 62
     0
 10
156.413
 20
0.106109
 30
0.0
 11
156.334
 21
0.0964629
 31
0.0
  0
LINE
  8
0
 62
     0
 10
156.334
 20
0.0964629
 30
0.0
 11
156.256
 21
0.0937066
 31
0.0
  0
LINE
  8
0
 62
     0
 10
156.256
 20
0.0937066
 30
0.0
 11
1.09416
 21
0.0937066
 31
0.0
  0
LINE
  8
0
 62
     0
 10
1.09416
 20
0.0937066
 30
0.0
 11
1.01562
 21
0.0964629
 31
0.0
  0
LINE
  8
0
 62
     0
 10
1.01562
 20
0.0964629
 30
0.0
 11
0.937066
 21
0.106109
 31
0.0
  0
LINE
  8
0
 62
     0
 10
0.937066
 20
0.106109
 30
0.0
 11
0.861275
 21
0.121267
 31
0.0
  0
LINE
  8
0
 62
     0
 10
0.861275
 20
0.121267
 30
0.0
 11
0.784105
 21
0.143316
 31
0.0
  0
LINE
  8
0
 62
     0
 10
0.784105
 20
0.143316
 30
0.0
 11
0.711069
 21
0.169499
 31
0.0
  0
LINE
  8
0
 62
     0
 10
0.711069
 20
0.169499
 30
0.0
 11
0.63941
 21
0.202572
 31
0.0
  0
LINE
  8
0
 62
     0
 10
0.63941
 20
0.202572
 30
0.0
 11
0.571885
 21
0.241157
 31
0.0
  0
LINE
  8
0
 62
     0
 10
0.571885
 20
0.241157
 30
0.0
 11
0.505739
 21
0.285254
 31
0.0
  0
LINE
  8
0
 62
     0
 10
0.505739
 20
0.285254
 30
0.0
 11
0.445107
 21
0.333485
 31
0.0
  0
LINE
  8
0
 62
     0
 10
0.445107
 20
0.333485
 30
0.0
 11
0.38723
 21
0.38723
 31
0.0
  0
LINE
  8
0
 62
     0
 10
0.38723
 20
0.38723
 30
0.0
 11
0.333485
 21
0.445107
 31
0.0
  0
LINE
  8
0
 62
     0
 10
0.333485
 20
0.445107
 30
0.0
 11
0.285254
 21
0.505739
 31
0.0
  0
LINE
  8
0
 62
     0
 10
0.285254
 20
0.505739
 30
0.0
 11
0.241157
 21
0.571885
 31
0.0
  0
LINE
  8
0
 62
     0
 10
0.241157
 20
0.571885
 30
0.0
 11
0.202572
 21
0.63941
 31
0.0
  0
LINE
  8
0
 62
     0
 10
0.202572
 20
0.63941
 30
0.0
 11
0.169499
 21
0.711069
 31
0.0
  0
LINE
  8
0
 62
     0
 10
0.169499
 20
0.711069
 30
0.0
 11
0.143316
 21
0.784105
 31
0.0
  0
LINE
  8
0
 62
     0
 10
0.143316
 20
0.784105
 30
0.0
 11
0.121267
 21
0.861275
 31
0.0
  0
LINE
  8
0
 62
     0
 10
0.121267
 20
0.861275
 30
0.0
 11
0.106109
 21
0.937066
 31
0.0
  0
LINE
  8
0
 62
     0
 10
0.106109
 20
0.937066
 30
0.0
 11
0.0964629
 21
1.01562
 31
0.0
  0
LINE
  8
0
 62
     0
 10
0.0964629
 20
1.01562
 30
0.0
 11
0.0937066
 21
1.09416
 31
0.0
  0
LINE
  8
0
 62
     0
 10
0.0937066
 20
1.09416
 30
0.0
 11
0.0937066
 21
94.3434
 31
0.0
  0
LINE
  8
0
 62
     0
 10
0.0937066
 20
94.3434
 30
0.0
 11
0.0964629
 21
94.4217
 31
0.0
  0
LINE
  8
0
 62
     0
 10
0.0964629
 20
94.4217
 30
0.0
 11
0.106109
 21
94.5003
 31
0.0
  0
LINE
  8
0
 62
     0
 10
0.106109
 20
94.5003
 30
0.0
 11
0.121267
 21
94.5762
 31
0.0
  0
LINE
  8
0
 62
     0
 10
0.121267
 20
94.5762
 30
0.0
 11
0.143316
 21
94.6534
 31
0.0
  0
LINE
  8
0
 62
     0
 10
0.143316
 20
94.6534
 30
0.0
 11
0.169499
 21
94.7265
 31
0.0
  0
LINE
  8
0
 62
     0
 10
0.169499
 20
94.7265
 30
0.0
 11
0.202572
 21
94.7981
 31
0.0
  0
LINE
  8
0
 62
     0
 10
0.202572
 20
94.7981
 30
0.0
 11
0.241157
 21
94.8655
 31
0.0
  0
LINE
  8
0
 62
     0
 10
0.241157
 20
94.8655
 30
0.0
 11
0.285254
 21
94.9318
 31
0.0
  0
LINE
  8
0
 62
     0
 10
0.285254
 20
94.9318
 30
0.0
 11
0.333485
 21
94.9925
 31
0.0
  0
LINE
  8
0
 62
     0
 10
0.333485
 20
94.9925
 30
0.0
 11
0.38723
 21
95.0503
 31
0.0
  0
LINE
  8
0
 62
     0
 10
0.38723
 20
95.0503
 30
0.0
 11
0.445107
 21
95.1039
 31
0.0
  0
LINE
  8
0
 62
     0
 10
0.445107
 20
95.1039
 30
0.0
 11
0.505739
 21
95.1523
 31
0.0
  0
LINE
  8
0
 62
     0
 10
0.505739
 20
95.1523
 30
0.0
 11
0.571885
 21
95.1964
 31
0.0
  0
LINE
  8
0
 62
     0
 10
0.571885
 20
95.1964
 30
0.0
 11
0.63941
 21
95.2348
 31
0.0
  0
LINE
  8
0
 62
     0
 10
0.63941
 20
95.2348
 30
0.0
 11
0.711069
 21
95.268
 31
0.0
  0
LINE
  8
0
 62
     0
 10
0.711069
 20
95.268
 30
0.0
 11
0.784105
 21
95.2941
 31
0.0
  0
LINE
  8
0
 62
     0
 10
0.784105
 20
95.2941
 30
0.0
 11
0.861275
 21
95.3163
 31
0.0
  0
LINE
  8
0
 62
     0
 10
0.861275
 20
95.3163
 30
0.0
 11
0.937066
 21
95.3311
 31
0.0
  0
LINE
  8
0
 62
     0
 10
0.937066
 20
95.3311
 30
0.0
 11
1.01562
 21
95.341
 31
0.0
  0
LINE
  8
0
 62
     0
 10
1.01562
 20
95.341
 30
0.0
 11
1.09416
 21
95.3438
 31
0.0
  0
LINE
  8
0
 62
     0
 10
1.09416
 20
95.3438
 30
0.0
 11
156.257
 21
95.3438
 31
0.0
  0
LINE
  8
0
 62
     0
 10
10.3063
 20
16.0693
 30
0.0
 11
13.6067
 21
16.0693
 31
0.0
  0
LINE
  8
0
 62
     0
 10
13.6067
 20
16.0693
 30
0.0
 11
13.6067
 21
1.86862
 31
0.0
  0
LINE
  8
0
 62
     0
 10
13.6067
 20
1.86862
 30
0.0
 11
10.3063
 21
1.86862
 31
0.0
  0
LINE
  8
0
 62
     0
 10
10.3063
 20
1.86862
 30
0.0
 11
10.3063
 21
16.0693
 31
0.0
  0
LINE
  8
0
 62
     0
 10
2.61827
 20
92.819
 30
0.0
 11
16.6192
 21
92.819
 31
0.0
  0
LINE
  8
0
 62
     0
 10
16.6192
 20
92.819
 30
0.0
 11
16.6192
 21
78.8183
 31
0.0
  0
LINE
  8
0
 62
     0
 10
16.6192
 20
78.8183
 30
0.0
 11
2.61827
 21
78.8183
 31
0.0
  0
LINE
  8
0
 62
     0
 10
2.61827
 20
78.8183
 30
0.0
 11
2.61827
 21
92.819
 31
0.0
  0
LINE
  8
0
 62
     0
 10
2.61827
 20
73.769
 30
0.0
 11
16.6192
 21
73.769
 31
0.0
  0
LINE
  8
0
 62
     0
 10
16.6192
 20
73.769
 30
0.0
 11
16.6192
 21
59.7683
 31
0.0
  0
LINE
  8
0
 62
     0
 10
16.6192
 20
59.7683
 30
0.0
 11
2.61827
 21
59.7683
 31
0.0
  0
LINE
  8
0
 62
     0
 10
2.61827
 20
59.7683
 30
0.0
 11
2.61827
 21
73.769
 31
0.0
  0
LINE
  8
0
 62
     0
 10
2.61827
 20
54.719
 30
0.0
 11
16.6192
 21
54.719
 31
0.0
  0
LINE
  8
0
 62
     0
 10
16.6192
 20
54.719
 30
0.0
 11
16.6192
 21
40.7183
 31
0.0
  0
LINE
  8
0
 62
     0
 10
16.6192
 20
40.7183
 30
0.0
 11
2.61827
 21
40.7183
 31
0.0
  0
LINE
  8
0
 62
     0
 10
2.61827
 20
40.7183
 30
0.0
 11
2.61827
 21
54.719
 31
0.0
  0
LINE
  8
0
 62
     0
 10
2.61827
 20
35.669
 30
0.0
 11
16.6192
 21
35.669
 31
0.0
  0
LINE
  8
0
 62
     0
 10
16.6192
 20
35.669
 30
0.0
 11
16.6192
 21
21.6683
 31
0.0
  0
LINE
  8
0
 62
     0
 10
16.6192
 20
21.6683
 30
0.0
 11
2.61827
 21
21.6683
 31
0.0
  0
LINE
  8
0
 62
     0
 10
2.61827
 20
21.6683
 30
0.0
 11
2.61827
 21
35.669
 31
0.0
  0
LINE
  8
0
 62
     0
 10
16.9058
 20
16.6192
 30
0.0
 11
30.9053
 21
16.6192
 31
0.0
  0
LINE
  8
0
 62
     0
 10
30.9053
 20
16.6192
 30
0.0
 11
30.9053
 21
2.61827
 31
0.0
  0
LINE
  8
0
 62
     0
 10
30.9053
 20
2.61827
 30
0.0
 11
16.9058
 21
2.61827
 31
0.0
  0
LINE
  8
0
 62
     0
 10
16.9058
 20
2.61827
 30
0.0
 11
16.9058
 21
16.6192
 31
0.0
  0
LINE
  8
0
 62
     0
 10
21.6683
 20
92.819
 30
0.0
 11
35.669
 21
92.819
 31
0.0
  0
LINE
  8
0
 62
     0
 10
35.669
 20
92.819
 30
0.0
 11
35.669
 21
78.8183
 31
0.0
  0
LINE
  8
0
 62
     0
 10
35.669
 20
78.8183
 30
0.0
 11
21.6683
 21
78.8183
 31
0.0
  0
LINE
  8
0
 62
     0
 10
21.6683
 20
78.8183
 30
0.0
 11
21.6683
 21
92.819
 31
0.0
  0
LINE
  8
0
 62
     0
 10
21.6683
 20
73.769
 30
0.0
 11
35.669
 21
73.769
 31
0.0
  0
LINE
  8
0
 62
     0
 10
35.669
 20
73.769
 30
0.0
 11
35.669
 21
59.7683
 31
0.0
  0
LINE
  8
0
 62
     0
 10
35.669
 20
59.7683
 30
0.0
 11
21.6683
 21
59.7683
 31
0.0
  0
LINE
  8
0
 62
     0
 10
21.6683
 20
59.7683
 30
0.0
 11
21.6683
 21
73.769
 31
0.0
  0
LINE
  8
0
 62
     0
 10
21.6683
 20
54.719
 30
0.0
 11
35.669
 21
54.719
 31
0.0
  0
LINE
  8
0
 62
     0
 10
35.669
 20
54.719
 30
0.0
 11
35.669
 21
40.7183
 31
0.0
  0
LINE
  8
0
 62
     0
 10
35.669
 20
40.7183
 30
0.0
 11
21.6683
 21
40.7183
 31
0.0
  0
LINE
  8
0
 62
     0
 10
21.6683
 20
40.7183
 30
0.0
 11
21.6683
 21
54.719
 31
0.0
  0
LINE
  8
0
 62
     0
 10
21.6683
 20
35.669
 30
0.0
 11
35.669
 21
35.669
 31
0.0
  0
LINE
  8
0
 62
     0
 10
35.669
 20
35.669
 30
0.0
 11
35.669
 21
21.6683
 31
0.0
  0
LINE
  8
0
 62
     0
 10
35.669
 20
21.6683
 30
0.0
 11
21.6683
 21
21.6683
 31
0.0
  0
LINE
  8
0
 62
     0
 10
21.6683
 20
21.6683
 30
0.0
 11
21.6683
 21
35.669
 31
0.0
  0
LINE
  8
0
 62
     0
 10
34.2057
 20
16.0693
 30
0.0
 11
37.5059
 21
16.0693
 31
0.0
  0
LINE
  8
0
 62
     0
 10
37.5059
 20
16.0693
 30
0.0
 11
37.5059
 21
1.86862
 31
0.0
  0
LINE
  8
0
 62
     0
 10
37.5059
 20
1.86862
 30
0.0
 11
34.2057
 21
1.86862
 31
0.0
  0
LINE
  8
0
 62
     0
 10
34.2057
 20
1.86862
 30
0.0
 11
34.2057
 21
16.0693
 31
0.0
  0
LINE
  8
0
 62
     0
 10
40.7183
 20
92.819
 30
0.0
 11
54.719
 21
92.819
 31
0.0
  0
LINE
  8
0
 62
     0
 10
54.719
 20
92.819
 30
0.0
 11
54.719
 21
78.8183
 31
0.0
  0
LINE
  8
0
 62
     0
 10
54.719
 20
78.8183
 30
0.0
 11
40.7183
 21
78.8183
 31
0.0
  0
LINE
  8
0
 62
     0
 10
40.7183
 20
78.8183
 30
0.0
 11
40.7183
 21
92.819
 31
0.0
  0
LINE
  8
0
 62
     0
 10
40.7183
 20
73.769
 30
0.0
 11
54.719
 21
73.769
 31
0.0
  0
LINE
  8
0
 62
     0
 10
54.719
 20
73.769
 30
0.0
 11
54.719
 21
59.7683
 31
0.0
  0
LINE
  8
0
 62
     0
 10
54.719
 20
59.7683
 30
0.0
 11
40.7183
 21
59.7683
 31
0.0
  0
LINE
  8
0
 62
     0
 10
40.7183
 20
59.7683
 30
0.0
 11
40.7183
 21
73.769
 31
0.0
  0
LINE
  8
0
 62
     0
 10
40.7183
 20
54.719
 30
0.0
 11
54.719
 21
54.719
 31
0.0
  0
LINE
  8
0
 62
     0
 10
54.719
 20
54.719
 30
0.0
 11
54.719
 21
40.7183
 31
0.0
  0
LINE
  8
0
 62
     0
 10
54.719
 20
40.7183
 30
0.0
 11
40.7183
 21
40.7183
 31
0.0
  0
LINE
  8
0
 62
     0
 10
40.7183
 20
40.7183
 30
0.0
 11
40.7183
 21
54.719
 31
0.0
  0
LINE
  8
0
 62
     0
 10
40.7183
 20
35.669
 30
0.0
 11
54.719
 21
35.669
 31
0.0
  0
LINE
  8
0
 62
     0
 10
54.719
 20
35.669
 30
0.0
 11
54.719
 21
21.6683
 31
0.0
  0
LINE
  8
0
 62
     0
 10
54.719
 20
21.6683
 30
0.0
 11
40.7183
 21
21.6683
 31
0.0
  0
LINE
  8
0
 62
     0
 10
40.7183
 20
21.6683
 30
0.0
 11
40.7183
 21
35.669
 31
0.0
  0
LINE
  8
0
 62
     0
 10
52.6246
 20
16.6192
 30
0.0
 11
66.6253
 21
16.6192
 31
0.0
  0
LINE
  8
0
 62
     0
 10
66.6253
 20
16.6192
 30
0.0
 11
66.6253
 21
2.61827
 31
0.0
  0
LINE
  8
0
 62
     0
 10
66.6253
 20
2.61827
 30
0.0
 11
52.6246
 21
2.61827
 31
0.0
  0
LINE
  8
0
 62
     0
 10
52.6246
 20
2.61827
 30
0.0
 11
52.6246
 21
16.6192
 31
0.0
  0
LINE
  8
0
 62
     0
 10
59.7683
 20
92.819
 30
0.0
 11
73.769
 21
92.819
 31
0.0
  0
LINE
  8
0
 62
     0
 10
73.769
 20
92.819
 30
0.0
 11
73.769
 21
78.8183
 31
0.0
  0
LINE
  8
0
 62
     0
 10
73.769
 20
78.8183
 30
0.0
 11
59.7683
 21
78.8183
 31
0.0
  0
LINE
  8
0
 62
     0
 10
59.7683
 20
78.8183
 30
0.0
 11
59.7683
 21
92.819
 31
0.0
  0
LINE
  8
0
 62
     0
 10
59.7683
 20
73.769
 30
0.0
 11
73.769
 21
73.769
 31
0.0
  0
LINE
  8
0
 62
     0
 10
73.769
 20
73.769
 30
0.0
 11
73.769
 21
59.7683
 31
0.0
  0
LINE
  8
0
 62
     0
 10
73.769
 20
59.7683
 30
0.0
 11
59.7683
 21
59.7683
 31
0.0
  0
LINE
  8
0
 62
     0
 10
59.7683
 20
59.7683
 30
0.0
 11
59.7683
 21
73.769
 31
0.0
  0
LINE
  8
0
 62
     0
 10
59.7683
 20
54.719
 30
0.0
 11
73.769
 21
54.719
 31
0.0
  0
LINE
  8
0
 62
     0
 10
73.769
 20
54.719
 30
0.0
 11
73.769
 21
40.7183
 31
0.0
  0
LINE
  8
0
 62
     0
 10
73.769
 20
40.7183
 30
0.0
 11
59.7683
 21
40.7183
 31
0.0
  0
LINE
  8
0
 62
     0
 10
59.7683
 20
40.7183
 30
0.0
 11
59.7683
 21
54.719
 31
0.0
  0
LINE
  8
0
 62
     0
 10
59.7683
 20
35.669
 30
0.0
 11
73.769
 21
35.669
 31
0.0
  0
LINE
  8
0
 62
     0
 10
73.769
 20
35.669
 30
0.0
 11
73.769
 21
21.6683
 31
0.0
  0
LINE
  8
0
 62
     0
 10
73.769
 20
21.6683
 30
0.0
 11
59.7683
 21
21.6683
 31
0.0
  0
LINE
  8
0
 62
     0
 10
59.7683
 20
21.6683
 30
0.0
 11
59.7683
 21
35.669
 31
0.0
  0
LINE
  8
0
 62
     0
 10
76.4385
 20
16.6192
 30
0.0
 11
90.4378
 21
16.6192
 31
0.0
  0
LINE
  8
0
 62
     0
 10
90.4378
 20
16.6192
 30
0.0
 11
90.4378
 21
2.61827
 31
0.0
  0
LINE
  8
0
 62
     0
 10
90.4378
 20
2.61827
 30
0.0
 11
76.4385
 21
2.61827
 31
0.0
  0
LINE
  8
0
 62
     0
 10
76.4385
 20
2.61827
 30
0.0
 11
76.4385
 21
16.6192
 31
0.0
  0
LINE
  8
0
 62
     0
 10
78.8183
 20
92.819
 30
0.0
 11
92.819
 21
92.819
 31
0.0
  0
LINE
  8
0
 62
     0
 10
92.819
 20
92.819
 30
0.0
 11
92.819
 21
78.8183
 31
0.0
  0
LINE
  8
0
 62
     0
 10
92.819
 20
78.8183
 30
0.0
 11
78.8183
 21
78.8183
 31
0.0
  0
LINE
  8
0
 62
     0
 10
78.8183
 20
78.8183
 30
0.0
 11
78.8183
 21
92.819
 31
0.0
  0
LINE
  8
0
 62
     0
 10
78.8183
 20
73.769
 30
0.0
 11
92.819
 21
73.769
 31
0.0
  0
LINE
  8
0
 62
     0
 10
92.819
 20
73.769
 30
0.0
 11
92.819
 21
59.7683
 31
0.0
  0
LINE
  8
0
 62
     0
 10
92.819
 20
59.7683
 30
0.0
 11
78.8183
 21
59.7683
 31
0.0
  0
LINE
  8
0
 62
     0
 10
78.8183
 20
59.7683
 30
0.0
 11
78.8183
 21
73.769
 31
0.0
  0
LINE
  8
0
 62
     0
 10
78.8183
 20
54.719
 30
0.0
 11
92.819
 21
54.719
 31
0.0
  0
LINE
  8
0
 62
     0
 10
92.819
 20
54.719
 30
0.0
 11
92.819
 21
40.7183
 31
0.0
  0
LINE
  8
0
 62
     0
 10
92.819
 20
40.7183
 30
0.0
 11
78.8183
 21
40.7183
 31
0.0
  0
LINE
  8
0
 62
     0
 10
78.8183
 20
40.7183
 30
0.0
 11
78.8183
 21
54.719
 31
0.0
  0
LINE
  8
0
 62
     0
 10
78.8183
 20
35.669
 30
0.0
 11
92.819
 21
35.669
 31
0.0
  0
LINE
  8
0
 62
     0
 10
92.819
 20
35.669
 30
0.0
 11
92.819
 21
21.6683
 31
0.0
  0
LINE
  8
0
 62
     0
 10
92.819
 20
21.6683
 30
0.0
 11
78.8183
 21
21.6683
 31
0.0
  0
LINE
  8
0
 62
     0
 10
78.8183
 20
21.6683
 30
0.0
 11
78.8183
 21
35.669
 31
0.0
  0
LINE
  8
0
 62
     0
 10
97.8683
 20
92.819
 30
0.0
 11
111.869
 21
92.819
 31
0.0
  0
LINE
  8
0
 62
     0
 10
111.869
 20
92.819
 30
0.0
 11
111.869
 21
78.8183
 31
0.0
  0
LINE
  8
0
 62
     0
 10
111.869
 20
78.8183
 30
0.0
 11
97.8683
 21
78.8183
 31
0.0
  0
LINE
  8
0
 62
     0
 10
97.8683
 20
78.8183
 30
0.0
 11
97.8683
 21
92.819
 31
0.0
  0
LINE
  8
0
 62
     0
 10
97.8683
 20
73.769
 30
0.0
 11
111.869
 21
73.769
 31
0.0
  0
LINE
  8
0
 62
     0
 10
111.869
 20
73.769
 30
0.0
 11
111.869
 21
59.7683
 31
0.0
  0
LINE
  8
0
 62
     0
 10
111.869
 20
59.7683
 30
0.0
 11
97.8683
 21
59.7683
 31
0.0
  0
LINE
  8
0
 62
     0
 10
97.8683
 20
59.7683
 30
0.0
 11
97.8683
 21
73.769
 31
0.0
  0
LINE
  8
0
 62
     0
 10
97.8683
 20
54.719
 30
0.0
 11
111.869
 21
54.719
 31
0.0
  0
LINE
  8
0
 62
     0
 10
111.869
 20
54.719
 30
0.0
 11
111.869
 21
40.7183
 31
0.0
  0
LINE
  8
0
 62
     0
 10
111.869
 20
40.7183
 30
0.0
 11
97.8683
 21
40.7183
 31
0.0
  0
LINE
  8
0
 62
     0
 10
97.8683
 20
40.7183
 30
0.0
 11
97.8683
 21
54.719
 31
0.0
  0
LINE
  8
0
 62
     0
 10
100.25
 20
35.669
 30
0.0
 11
114.25
 21
35.669
 31
0.0
  0
LINE
  8
0
 62
     0
 10
114.25
 20
35.669
 30
0.0
 11
114.25
 21
21.6683
 31
0.0
  0
LINE
  8
0
 62
     0
 10
114.25
 20
21.6683
 30
0.0
 11
100.25
 21
21.6683
 31
0.0
  0
LINE
  8
0
 62
     0
 10
100.25
 20
21.6683
 30
0.0
 11
100.25
 21
35.669
 31
0.0
  0
LINE
  8
0
 62
     0
 10
102.631
 20
16.6192
 30
0.0
 11
116.63
 21
16.6192
 31
0.0
  0
LINE
  8
0
 62
     0
 10
116.63
 20
16.6192
 30
0.0
 11
116.63
 21
2.61827
 31
0.0
  0
LINE
  8
0
 62
     0
 10
116.63
 20
2.61827
 30
0.0
 11
102.631
 21
2.61827
 31
0.0
  0
LINE
  8
0
 62
     0
 10
102.631
 20
2.61827
 30
0.0
 11
102.631
 21
16.6192
 31
0.0
  0
LINE
  8
0
 62
     0
 10
122.225
 20
54.1694
 30
0.0
 11
125.524
 21
54.1694
 31
0.0
  0
LINE
  8
0
 62
     0
 10
125.524
 20
54.1694
 30
0.0
 11
125.524
 21
39.9687
 31
0.0
  0
LINE
  8
0
 62
     0
 10
125.524
 20
39.9687
 30
0.0
 11
122.225
 21
39.9687
 31
0.0
  0
LINE
  8
0
 62
     0
 10
122.225
 20
39.9687
 30
0.0
 11
122.225
 21
54.1694
 31
0.0
  0
LINE
  8
0
 62
     0
 10
116.918
 20
92.819
 30
0.0
 11
130.919
 21
92.819
 31
0.0
  0
LINE
  8
0
 62
     0
 10
130.919
 20
92.819
 30
0.0
 11
130.919
 21
78.8183
 31
0.0
  0
LINE
  8
0
 62
     0
 10
130.919
 20
78.8183
 30
0.0
 11
116.918
 21
78.8183
 31
0.0
  0
LINE
  8
0
 62
     0
 10
116.918
 20
78.8183
 30
0.0
 11
116.918
 21
92.819
 31
0.0
  0
LINE
  8
0
 62
     0
 10
116.918
 20
73.769
 30
0.0
 11
130.919
 21
73.769
 31
0.0
  0
LINE
  8
0
 62
     0
 10
130.919
 20
73.769
 30
0.0
 11
130.919
 21
59.7683
 31
0.0
  0
LINE
  8
0
 62
     0
 10
130.919
 20
59.7683
 30
0.0
 11
116.918
 21
59.7683
 31
0.0
  0
LINE
  8
0
 62
     0
 10
116.918
 20
59.7683
 30
0.0
 11
116.918
 21
73.769
 31
0.0
  0
LINE
  8
0
 62
     0
 10
121.682
 20
35.669
 30
0.0
 11
135.682
 21
35.669
 31
0.0
  0
LINE
  8
0
 62
     0
 10
135.682
 20
35.669
 30
0.0
 11
135.682
 21
21.6683
 31
0.0
  0
LINE
  8
0
 62
     0
 10
135.682
 20
21.6683
 30
0.0
 11
121.682
 21
21.6683
 31
0.0
  0
LINE
  8
0
 62
     0
 10
121.682
 20
21.6683
 30
0.0
 11
121.682
 21
35.669
 31
0.0
  0
LINE
  8
0
 62
     0
 10
121.682
 20
16.6192
 30
0.0
 11
135.682
 21
16.6192
 31
0.0
  0
LINE
  8
0
 62
     0
 10
135.682
 20
16.6192
 30
0.0
 11
135.682
 21
2.61827
 31
0.0
  0
LINE
  8
0
 62
     0
 10
135.682
 20
2.61827
 30
0.0
 11
121.682
 21
2.61827
 31
0.0
  0
LINE
  8
0
 62
     0
 10
121.682
 20
2.61827
 30
0.0
 11
121.682
 21
16.6192
 31
0.0
  0
LINE
  8
0
 62
     0
 10
128.825
 20
54.719
 30
0.0
 11
142.825
 21
54.719
 31
0.0
  0
LINE
  8
0
 62
     0
 10
142.825
 20
54.719
 30
0.0
 11
142.825
 21
40.7183
 31
0.0
  0
LINE
  8
0
 62
     0
 10
142.825
 20
40.7183
 30
0.0
 11
128.825
 21
40.7183
 31
0.0
  0
LINE
  8
0
 62
     0
 10
128.825
 20
40.7183
 30
0.0
 11
128.825
 21
54.719
 31
0.0
  0
LINE
  8
0
 62
     0
 10
146.124
 20
54.1694
 30
0.0
 11
149.425
 21
54.1694
 31
0.0
  0
LINE
  8
0
 62
     0
 10
149.425
 20
54.1694
 30
0.0
 11
149.425
 21
39.9687
 31
0.0
  0
LINE
  8
0
 62
     0
 10
149.425
 20
39.9687
 30
0.0
 11
146.124
 21
39.9687
 31
0.0
  0
LINE
  8
0
 62
     0
 10
146.124
 20
39.9687
 30
0.0
 11
146.124
 21
54.1694
 31
0.0
  0
LINE
  8
0
 62
     0
 10
138.35
 20
92.819
 30
0.0
 11
152.35
 21
92.819
 31
0.0
  0
LINE
  8
0
 62
     0
 10
152.35
 20
92.819
 30
0.0
 11
152.35
 21
78.8183
 31
0.0
  0
LINE
  8
0
 62
     0
 10
152.35
 20
78.8183
 30
0.0
 11
138.35
 21
78.8183
 31
0.0
  0
LINE
  8
0
 62
     0
 10
138.35
 20
78.8183
 30
0.0
 11
138.35
 21
92.819
 31
0.0
  0
LINE
  8
0
 62
     0
 10
138.35
 20
73.769
 30
0.0
 11
152.35
 21
73.769
 31
0.0
  0
LINE
  8
0
 62
     0
 10
152.35
 20
73.769
 30
0.0
 11
152.35
 21
59.7683
 31
0.0
  0
LINE
  8
0
 62
     0
 10
152.35
 20
59.7683
 30
0.0
 11
138.35
 21
59.7683
 31
0.0
  0
LINE
  8
0
 62
     0
 10
138.35
 20
59.7683
 30
0.0
 11
138.35
 21
73.769
 31
0.0
  0
LINE
  8
0
 62
     0
 10
140.732
 20
35.669
 30
0.0
 11
154.732
 21
35.669
 31
0.0
  0
LINE
  8
0
 62
     0
 10
154.732
 20
35.669
 30
0.0
 11
154.732
 21
21.6683
 31
0.0
  0
LINE
  8
0
 62
     0
 10
154.732
 20
21.6683
 30
0.0
 11
140.732
 21
21.6683
 31
0.0
  0
LINE
  8
0
 62
     0
 10
140.732
 20
21.6683
 30
0.0
 11
140.732
 21
35.669
 31
0.0
  0
LINE
  8
0
 62
     0
 10
140.732
 20
16.6192
 30
0.0
 11
154.732
 21
16.6192
 31
0.0
  0
LINE
  8
0
 62
     0
 10
154.732
 20
16.6192
 30
0.0
 11
154.732
 21
2.61827
 31
0.0
  0
LINE
  8
0
 62
     0
 10
154.732
 20
2.61827
 30
0.0
 11
140.732
 21
2.61827
 31
0.0
  0
LINE
  8
0
 62
     0
 10
140.732
 20
2.61827
 30
0.0
 11
140.732
 21
16.6192
 31
0.0
  0
ENDSEC
  0
EOF
