  0
SECTION
  2
HEADER
  9
$ACADVER
  1
AC1009
  9
$EXTMIN
 10
0.0
 20
0.0
 30
0.0
  9
$EXTMAX
 10
1000.0
 20
1000.0
 30
0.0
  9
$FILLMODE
 70
 0
  9
$SPLFRAME
 70
 1
  0
ENDSEC
  0
SECTION
  2
TABLES
  0
TABLE
  2
LAYER
 70
1
  0
LAYER
  2
0
 70
     0
 62
     7
  6
CONTINUOUS
  0
ENDTAB
  0
ENDSEC
  0
SECTION
  2
ENTITIES
  0
LINE
  8
0
 62
     0
 10
164.257
 20
103.343
 30
0.0
 11
164.335
 21
103.342
 31
0.0
  0
LINE
  8
0
 62
     0
 10
164.335
 20
103.342
 30
0.0
 11
164.412
 21
103.331
 31
0.0
  0
LINE
  8
0
 62
     0
 10
164.412
 20
103.331
 30
0.0
 11
164.49
 21
103.316
 31
0.0
  0
LINE
  8
0
 62
     0
 10
164.49
 20
103.316
 30
0.0
 11
164.565
 21
103.294
 31
0.0
  0
LINE
  8
0
 62
     0
 10
164.565
 20
103.294
 30
0.0
 11
164.638
 21
103.269
 31
0.0
  0
LINE
  8
0
 62
     0
 10
164.638
 20
103.269
 30
0.0
 11
164.71
 21
103.234
 31
0.0
  0
LINE
  8
0
 62
     0
 10
164.71
 20
103.234
 30
0.0
 11
164.779
 21
103.196
 31
0.0
  0
LINE
  8
0
 62
     0
 10
164.779
 20
103.196
 30
0.0
 11
164.844
 21
103.152
 31
0.0
  0
LINE
  8
0
 62
     0
 10
164.844
 20
103.152
 30
0.0
 11
164.906
 21
103.104
 31
0.0
  0
LINE
  8
0
 62
     0
 10
164.906
 20
103.104
 30
0.0
 11
164.963
 21
103.05
 31
0.0
  0
LINE
  8
0
 62
     0
 10
164.963
 20
103.05
 30
0.0
 11
165.017
 21
102.992
 31
0.0
  0
LINE
  8
0
 62
     0
 10
165.017
 20
102.992
 30
0.0
 11
165.065
 21
102.931
 31
0.0
  0
LINE
  8
0
 62
     0
 10
165.065
 20
102.931
 30
0.0
 11
165.108
 21
102.865
 31
0.0
  0
LINE
  8
0
 62
     0
 10
165.108
 20
102.865
 30
0.0
 11
165.148
 21
102.799
 31
0.0
  0
LINE
  8
0
 62
     0
 10
165.148
 20
102.799
 30
0.0
 11
165.18
 21
102.726
 31
0.0
  0
LINE
  8
0
 62
     0
 10
165.18
 20
102.726
 30
0.0
 11
165.208
 21
102.653
 31
0.0
  0
LINE
  8
0
 62
     0
 10
165.208
 20
102.653
 30
0.0
 11
165.228
 21
102.577
 31
0.0
  0
LINE
  8
0
 62
     0
 10
165.228
 20
102.577
 30
0.0
 11
165.243
 21
102.5
 31
0.0
  0
LINE
  8
0
 62
     0
 10
165.243
 20
102.5
 30
0.0
 11
165.253
 21
102.421
 31
0.0
  0
LINE
  8
0
 62
     0
 10
165.253
 20
102.421
 30
0.0
 11
165.257
 21
102.343
 31
0.0
  0
LINE
  8
0
 62
     0
 10
165.257
 20
102.343
 30
0.0
 11
165.257
 21
1.09279
 31
0.0
  0
LINE
  8
0
 62
     0
 10
165.257
 20
1.09279
 30
0.0
 11
165.253
 21
1.01562
 31
0.0
  0
LINE
  8
0
 62
     0
 10
165.253
 20
1.01562
 30
0.0
 11
165.243
 21
0.937066
 31
0.0
  0
LINE
  8
0
 62
     0
 10
165.243
 20
0.937066
 30
0.0
 11
165.228
 21
0.859896
 31
0.0
  0
LINE
  8
0
 62
     0
 10
165.228
 20
0.859896
 30
0.0
 11
165.208
 21
0.784105
 31
0.0
  0
LINE
  8
0
 62
     0
 10
165.208
 20
0.784105
 30
0.0
 11
165.18
 21
0.70969
 31
0.0
  0
LINE
  8
0
 62
     0
 10
165.18
 20
0.70969
 30
0.0
 11
165.148
 21
0.63941
 31
0.0
  0
LINE
  8
0
 62
     0
 10
165.148
 20
0.63941
 30
0.0
 11
165.108
 21
0.570509
 31
0.0
  0
LINE
  8
0
 62
     0
 10
165.108
 20
0.570509
 30
0.0
 11
165.065
 21
0.507118
 31
0.0
  0
LINE
  8
0
 62
     0
 10
165.065
 20
0.507118
 30
0.0
 11
165.017
 21
0.443727
 31
0.0
  0
LINE
  8
0
 62
     0
 10
165.017
 20
0.443727
 30
0.0
 11
164.963
 21
0.385851
 31
0.0
  0
LINE
  8
0
 62
     0
 10
164.963
 20
0.385851
 30
0.0
 11
164.906
 21
0.333485
 31
0.0
  0
LINE
  8
0
 62
     0
 10
164.906
 20
0.333485
 30
0.0
 11
164.844
 21
0.283876
 31
0.0
  0
LINE
  8
0
 62
     0
 10
164.844
 20
0.283876
 30
0.0
 11
164.779
 21
0.239779
 31
0.0
  0
LINE
  8
0
 62
     0
 10
164.779
 20
0.239779
 30
0.0
 11
164.71
 21
0.202572
 31
0.0
  0
LINE
  8
0
 62
     0
 10
164.71
 20
0.202572
 30
0.0
 11
164.638
 21
0.169499
 31
0.0
  0
LINE
  8
0
 62
     0
 10
164.638
 20
0.169499
 30
0.0
 11
164.565
 21
0.141938
 31
0.0
  0
LINE
  8
0
 62
     0
 10
164.565
 20
0.141938
 30
0.0
 11
164.49
 21
0.121267
 31
0.0
  0
LINE
  8
0
 62
     0
 10
164.49
 20
0.121267
 30
0.0
 11
164.412
 21
0.104731
 31
0.0
  0
LINE
  8
0
 62
     0
 10
164.412
 20
0.104731
 30
0.0
 11
164.335
 21
0.0964629
 31
0.0
  0
LINE
  8
0
 62
     0
 10
164.335
 20
0.0964629
 30
0.0
 11
164.255
 21
0.0950846
 31
0.0
  0
LINE
  8
0
 62
     0
 10
164.255
 20
0.0950846
 30
0.0
 11
1.09416
 21
0.0950846
 31
0.0
  0
LINE
  8
0
 62
     0
 10
1.09416
 20
0.0950846
 30
0.0
 11
1.01562
 21
0.0964629
 31
0.0
  0
LINE
  8
0
 62
     0
 10
1.01562
 20
0.0964629
 30
0.0
 11
0.937066
 21
0.104731
 31
0.0
  0
LINE
  8
0
 62
     0
 10
0.937066
 20
0.104731
 30
0.0
 11
0.861275
 21
0.121267
 31
0.0
  0
LINE
  8
0
 62
     0
 10
0.861275
 20
0.121267
 30
0.0
 11
0.784105
 21
0.141938
 31
0.0
  0
LINE
  8
0
 62
     0
 10
0.784105
 20
0.141938
 30
0.0
 11
0.711069
 21
0.169499
 31
0.0
  0
LINE
  8
0
 62
     0
 10
0.711069
 20
0.169499
 30
0.0
 11
0.63941
 21
0.202572
 31
0.0
  0
LINE
  8
0
 62
     0
 10
0.63941
 20
0.202572
 30
0.0
 11
0.571885
 21
0.239779
 31
0.0
  0
LINE
  8
0
 62
     0
 10
0.571885
 20
0.239779
 30
0.0
 11
0.505739
 21
0.283876
 31
0.0
  0
LINE
  8
0
 62
     0
 10
0.505739
 20
0.283876
 30
0.0
 11
0.445107
 21
0.333485
 31
0.0
  0
LINE
  8
0
 62
     0
 10
0.445107
 20
0.333485
 30
0.0
 11
0.38723
 21
0.385851
 31
0.0
  0
LINE
  8
0
 62
     0
 10
0.38723
 20
0.385851
 30
0.0
 11
0.333485
 21
0.443727
 31
0.0
  0
LINE
  8
0
 62
     0
 10
0.333485
 20
0.443727
 30
0.0
 11
0.285254
 21
0.507118
 31
0.0
  0
LINE
  8
0
 62
     0
 10
0.285254
 20
0.507118
 30
0.0
 11
0.241157
 21
0.570509
 31
0.0
  0
LINE
  8
0
 62
     0
 10
0.241157
 20
0.570509
 30
0.0
 11
0.202572
 21
0.63941
 31
0.0
  0
LINE
  8
0
 62
     0
 10
0.202572
 20
0.63941
 30
0.0
 11
0.169499
 21
0.70969
 31
0.0
  0
LINE
  8
0
 62
     0
 10
0.169499
 20
0.70969
 30
0.0
 11
0.143316
 21
0.784105
 31
0.0
  0
LINE
  8
0
 62
     0
 10
0.143316
 20
0.784105
 30
0.0
 11
0.121267
 21
0.859896
 31
0.0
  0
LINE
  8
0
 62
     0
 10
0.121267
 20
0.859896
 30
0.0
 11
0.106109
 21
0.937066
 31
0.0
  0
LINE
  8
0
 62
     0
 10
0.106109
 20
0.937066
 30
0.0
 11
0.0964629
 21
1.01562
 31
0.0
  0
LINE
  8
0
 62
     0
 10
0.0964629
 20
1.01562
 30
0.0
 11
0.0937066
 21
1.09279
 31
0.0
  0
LINE
  8
0
 62
     0
 10
0.0937066
 20
1.09279
 30
0.0
 11
0.0937066
 21
102.343
 31
0.0
  0
LINE
  8
0
 62
     0
 10
0.0937066
 20
102.343
 30
0.0
 11
0.0964629
 21
102.421
 31
0.0
  0
LINE
  8
0
 62
     0
 10
0.0964629
 20
102.421
 30
0.0
 11
0.106109
 21
102.5
 31
0.0
  0
LINE
  8
0
 62
     0
 10
0.106109
 20
102.5
 30
0.0
 11
0.121267
 21
102.577
 31
0.0
  0
LINE
  8
0
 62
     0
 10
0.121267
 20
102.577
 30
0.0
 11
0.143316
 21
102.653
 31
0.0
  0
LINE
  8
0
 62
     0
 10
0.143316
 20
102.653
 30
0.0
 11
0.169499
 21
102.726
 31
0.0
  0
LINE
  8
0
 62
     0
 10
0.169499
 20
102.726
 30
0.0
 11
0.202572
 21
102.799
 31
0.0
  0
LINE
  8
0
 62
     0
 10
0.202572
 20
102.799
 30
0.0
 11
0.241157
 21
102.865
 31
0.0
  0
LINE
  8
0
 62
     0
 10
0.241157
 20
102.865
 30
0.0
 11
0.285254
 21
102.931
 31
0.0
  0
LINE
  8
0
 62
     0
 10
0.285254
 20
102.931
 30
0.0
 11
0.333485
 21
102.992
 31
0.0
  0
LINE
  8
0
 62
     0
 10
0.333485
 20
102.992
 30
0.0
 11
0.38723
 21
103.05
 31
0.0
  0
LINE
  8
0
 62
     0
 10
0.38723
 20
103.05
 30
0.0
 11
0.445107
 21
103.104
 31
0.0
  0
LINE
  8
0
 62
     0
 10
0.445107
 20
103.104
 30
0.0
 11
0.505739
 21
103.152
 31
0.0
  0
LINE
  8
0
 62
     0
 10
0.505739
 20
103.152
 30
0.0
 11
0.571885
 21
103.196
 31
0.0
  0
LINE
  8
0
 62
     0
 10
0.571885
 20
103.196
 30
0.0
 11
0.63941
 21
103.234
 31
0.0
  0
LINE
  8
0
 62
     0
 10
0.63941
 20
103.234
 30
0.0
 11
0.711069
 21
103.269
 31
0.0
  0
LINE
  8
0
 62
     0
 10
0.711069
 20
103.269
 30
0.0
 11
0.784105
 21
103.294
 31
0.0
  0
LINE
  8
0
 62
     0
 10
0.784105
 20
103.294
 30
0.0
 11
0.861275
 21
103.316
 31
0.0
  0
LINE
  8
0
 62
     0
 10
0.861275
 20
103.316
 30
0.0
 11
0.937066
 21
103.331
 31
0.0
  0
LINE
  8
0
 62
     0
 10
0.937066
 20
103.331
 30
0.0
 11
1.01562
 21
103.342
 31
0.0
  0
LINE
  8
0
 62
     0
 10
1.01562
 20
103.342
 30
0.0
 11
1.09416
 21
103.343
 31
0.0
  0
LINE
  8
0
 62
     0
 10
1.09416
 20
103.343
 30
0.0
 11
164.257
 21
103.343
 31
0.0
  0
LINE
  8
0
 62
     0
 10
14.3054
 20
20.0684
 30
0.0
 11
17.6072
 21
20.0684
 31
0.0
  0
LINE
  8
0
 62
     0
 10
17.6072
 20
20.0684
 30
0.0
 11
17.6072
 21
5.86768
 31
0.0
  0
LINE
  8
0
 62
     0
 10
17.6072
 20
5.86768
 30
0.0
 11
14.3054
 21
5.86768
 31
0.0
  0
LINE
  8
0
 62
     0
 10
14.3054
 20
5.86768
 30
0.0
 11
14.3054
 21
20.0684
 31
0.0
  0
LINE
  8
0
 62
     0
 10
6.61871
 20
96.8181
 30
0.0
 11
20.6182
 21
96.8181
 31
0.0
  0
LINE
  8
0
 62
     0
 10
20.6182
 20
96.8181
 30
0.0
 11
20.6182
 21
82.8188
 31
0.0
  0
LINE
  8
0
 62
     0
 10
20.6182
 20
82.8188
 30
0.0
 11
6.61871
 21
82.8188
 31
0.0
  0
LINE
  8
0
 62
     0
 10
6.61871
 20
82.8188
 30
0.0
 11
6.61871
 21
96.8181
 31
0.0
  0
LINE
  8
0
 62
     0
 10
6.61871
 20
77.7681
 30
0.0
 11
20.6182
 21
77.7681
 31
0.0
  0
LINE
  8
0
 62
     0
 10
20.6182
 20
77.7681
 30
0.0
 11
20.6182
 21
63.7688
 31
0.0
  0
LINE
  8
0
 62
     0
 10
20.6182
 20
63.7688
 30
0.0
 11
6.61871
 21
63.7688
 31
0.0
  0
LINE
  8
0
 62
     0
 10
6.61871
 20
63.7688
 30
0.0
 11
6.61871
 21
77.7681
 31
0.0
  0
LINE
  8
0
 62
     0
 10
6.61871
 20
58.7181
 30
0.0
 11
20.6182
 21
58.7181
 31
0.0
  0
LINE
  8
0
 62
     0
 10
20.6182
 20
58.7181
 30
0.0
 11
20.6182
 21
44.7188
 31
0.0
  0
LINE
  8
0
 62
     0
 10
20.6182
 20
44.7188
 30
0.0
 11
6.61871
 21
44.7188
 31
0.0
  0
LINE
  8
0
 62
     0
 10
6.61871
 20
44.7188
 30
0.0
 11
6.61871
 21
58.7181
 31
0.0
  0
LINE
  8
0
 62
     0
 10
6.61871
 20
39.6681
 30
0.0
 11
20.6182
 21
39.6681
 31
0.0
  0
LINE
  8
0
 62
     0
 10
20.6182
 20
39.6681
 30
0.0
 11
20.6182
 21
25.6687
 31
0.0
  0
LINE
  8
0
 62
     0
 10
20.6182
 20
25.6687
 30
0.0
 11
6.61871
 21
25.6687
 31
0.0
  0
LINE
  8
0
 62
     0
 10
6.61871
 20
25.6687
 30
0.0
 11
6.61871
 21
39.6681
 31
0.0
  0
LINE
  8
0
 62
     0
 10
20.9062
 20
20.6182
 30
0.0
 11
34.9057
 21
20.6182
 31
0.0
  0
LINE
  8
0
 62
     0
 10
34.9057
 20
20.6182
 30
0.0
 11
34.9057
 21
6.61871
 31
0.0
  0
LINE
  8
0
 62
     0
 10
34.9057
 20
6.61871
 30
0.0
 11
20.9062
 21
6.61871
 31
0.0
  0
LINE
  8
0
 62
     0
 10
20.9062
 20
6.61871
 30
0.0
 11
20.9062
 21
20.6182
 31
0.0
  0
LINE
  8
0
 62
     0
 10
25.6687
 20
96.8181
 30
0.0
 11
39.6681
 21
96.8181
 31
0.0
  0
LINE
  8
0
 62
     0
 10
39.6681
 20
96.8181
 30
0.0
 11
39.6681
 21
82.8188
 31
0.0
  0
LINE
  8
0
 62
     0
 10
39.6681
 20
82.8188
 30
0.0
 11
25.6687
 21
82.8188
 31
0.0
  0
LINE
  8
0
 62
     0
 10
25.6687
 20
82.8188
 30
0.0
 11
25.6687
 21
96.8181
 31
0.0
  0
LINE
  8
0
 62
     0
 10
25.6687
 20
77.7681
 30
0.0
 11
39.6681
 21
77.7681
 31
0.0
  0
LINE
  8
0
 62
     0
 10
39.6681
 20
77.7681
 30
0.0
 11
39.6681
 21
63.7688
 31
0.0
  0
LINE
  8
0
 62
     0
 10
39.6681
 20
63.7688
 30
0.0
 11
25.6687
 21
63.7688
 31
0.0
  0
LINE
  8
0
 62
     0
 10
25.6687
 20
63.7688
 30
0.0
 11
25.6687
 21
77.7681
 31
0.0
  0
LINE
  8
0
 62
     0
 10
25.6687
 20
58.7181
 30
0.0
 11
39.6681
 21
58.7181
 31
0.0
  0
LINE
  8
0
 62
     0
 10
39.6681
 20
58.7181
 30
0.0
 11
39.6681
 21
44.7188
 31
0.0
  0
LINE
  8
0
 62
     0
 10
39.6681
 20
44.7188
 30
0.0
 11
25.6687
 21
44.7188
 31
0.0
  0
LINE
  8
0
 62
     0
 10
25.6687
 20
44.7188
 30
0.0
 11
25.6687
 21
58.7181
 31
0.0
  0
LINE
  8
0
 62
     0
 10
25.6687
 20
39.6681
 30
0.0
 11
39.6681
 21
39.6681
 31
0.0
  0
LINE
  8
0
 62
     0
 10
39.6681
 20
39.6681
 30
0.0
 11
39.6681
 21
25.6687
 31
0.0
  0
LINE
  8
0
 62
     0
 10
39.6681
 20
25.6687
 30
0.0
 11
25.6687
 21
25.6687
 31
0.0
  0
LINE
  8
0
 62
     0
 10
25.6687
 20
25.6687
 30
0.0
 11
25.6687
 21
39.6681
 31
0.0
  0
LINE
  8
0
 62
     0
 10
38.2062
 20
20.0684
 30
0.0
 11
41.5064
 21
20.0684
 31
0.0
  0
LINE
  8
0
 62
     0
 10
41.5064
 20
20.0684
 30
0.0
 11
41.5064
 21
5.86768
 31
0.0
  0
LINE
  8
0
 62
     0
 10
41.5064
 20
5.86768
 30
0.0
 11
38.2062
 21
5.86768
 31
0.0
  0
LINE
  8
0
 62
     0
 10
38.2062
 20
5.86768
 30
0.0
 11
38.2062
 21
20.0684
 31
0.0
  0
LINE
  8
0
 62
     0
 10
44.7188
 20
96.8181
 30
0.0
 11
58.7181
 21
96.8181
 31
0.0
  0
LINE
  8
0
 62
     0
 10
58.7181
 20
96.8181
 30
0.0
 11
58.7181
 21
82.8188
 31
0.0
  0
LINE
  8
0
 62
     0
 10
58.7181
 20
82.8188
 30
0.0
 11
44.7188
 21
82.8188
 31
0.0
  0
LINE
  8
0
 62
     0
 10
44.7188
 20
82.8188
 30
0.0
 11
44.7188
 21
96.8181
 31
0.0
  0
LINE
  8
0
 62
     0
 10
44.7188
 20
77.7681
 30
0.0
 11
58.7181
 21
77.7681
 31
0.0
  0
LINE
  8
0
 62
     0
 10
58.7181
 20
77.7681
 30
0.0
 11
58.7181
 21
63.7688
 31
0.0
  0
LINE
  8
0
 62
     0
 10
58.7181
 20
63.7688
 30
0.0
 11
44.7188
 21
63.7688
 31
0.0
  0
LINE
  8
0
 62
     0
 10
44.7188
 20
63.7688
 30
0.0
 11
44.7188
 21
77.7681
 31
0.0
  0
LINE
  8
0
 62
     0
 10
44.7188
 20
58.7181
 30
0.0
 11
58.7181
 21
58.7181
 31
0.0
  0
LINE
  8
0
 62
     0
 10
58.7181
 20
58.7181
 30
0.0
 11
58.7181
 21
44.7188
 31
0.0
  0
LINE
  8
0
 62
     0
 10
58.7181
 20
44.7188
 30
0.0
 11
44.7188
 21
44.7188
 31
0.0
  0
LINE
  8
0
 62
     0
 10
44.7188
 20
44.7188
 30
0.0
 11
44.7188
 21
58.7181
 31
0.0
  0
LINE
  8
0
 62
     0
 10
44.7188
 20
39.6681
 30
0.0
 11
58.7181
 21
39.6681
 31
0.0
  0
LINE
  8
0
 62
     0
 10
58.7181
 20
39.6681
 30
0.0
 11
58.7181
 21
25.6687
 31
0.0
  0
LINE
  8
0
 62
     0
 10
58.7181
 20
25.6687
 30
0.0
 11
44.7188
 21
25.6687
 31
0.0
  0
LINE
  8
0
 62
     0
 10
44.7188
 20
25.6687
 30
0.0
 11
44.7188
 21
39.6681
 31
0.0
  0
LINE
  8
0
 62
     0
 10
56.6251
 20
20.6182
 30
0.0
 11
70.6244
 21
20.6182
 31
0.0
  0
LINE
  8
0
 62
     0
 10
70.6244
 20
20.6182
 30
0.0
 11
70.6244
 21
6.61871
 31
0.0
  0
LINE
  8
0
 62
     0
 10
70.6244
 20
6.61871
 30
0.0
 11
56.6251
 21
6.61871
 31
0.0
  0
LINE
  8
0
 62
     0
 10
56.6251
 20
6.61871
 30
0.0
 11
56.6251
 21
20.6182
 31
0.0
  0
LINE
  8
0
 62
     0
 10
63.7688
 20
96.8181
 30
0.0
 11
77.7681
 21
96.8181
 31
0.0
  0
LINE
  8
0
 62
     0
 10
77.7681
 20
96.8181
 30
0.0
 11
77.7681
 21
82.8188
 31
0.0
  0
LINE
  8
0
 62
     0
 10
77.7681
 20
82.8188
 30
0.0
 11
63.7688
 21
82.8188
 31
0.0
  0
LINE
  8
0
 62
     0
 10
63.7688
 20
82.8188
 30
0.0
 11
63.7688
 21
96.8181
 31
0.0
  0
LINE
  8
0
 62
     0
 10
63.7688
 20
77.7681
 30
0.0
 11
77.7681
 21
77.7681
 31
0.0
  0
LINE
  8
0
 62
     0
 10
77.7681
 20
77.7681
 30
0.0
 11
77.7681
 21
63.7688
 31
0.0
  0
LINE
  8
0
 62
     0
 10
77.7681
 20
63.7688
 30
0.0
 11
63.7688
 21
63.7688
 31
0.0
  0
LINE
  8
0
 62
     0
 10
63.7688
 20
63.7688
 30
0.0
 11
63.7688
 21
77.7681
 31
0.0
  0
LINE
  8
0
 62
     0
 10
63.7688
 20
58.7181
 30
0.0
 11
77.7681
 21
58.7181
 31
0.0
  0
LINE
  8
0
 62
     0
 10
77.7681
 20
58.7181
 30
0.0
 11
77.7681
 21
44.7188
 31
0.0
  0
LINE
  8
0
 62
     0
 10
77.7681
 20
44.7188
 30
0.0
 11
63.7688
 21
44.7188
 31
0.0
  0
LINE
  8
0
 62
     0
 10
63.7688
 20
44.7188
 30
0.0
 11
63.7688
 21
58.7181
 31
0.0
  0
LINE
  8
0
 62
     0
 10
63.7688
 20
39.6681
 30
0.0
 11
77.7681
 21
39.6681
 31
0.0
  0
LINE
  8
0
 62
     0
 10
77.7681
 20
39.6681
 30
0.0
 11
77.7681
 21
25.6687
 31
0.0
  0
LINE
  8
0
 62
     0
 10
77.7681
 20
25.6687
 30
0.0
 11
63.7688
 21
25.6687
 31
0.0
  0
LINE
  8
0
 62
     0
 10
63.7688
 20
25.6687
 30
0.0
 11
63.7688
 21
39.6681
 31
0.0
  0
LINE
  8
0
 62
     0
 10
80.4376
 20
20.6182
 30
0.0
 11
94.4383
 21
20.6182
 31
0.0
  0
LINE
  8
0
 62
     0
 10
94.4383
 20
20.6182
 30
0.0
 11
94.4383
 21
6.61871
 31
0.0
  0
LINE
  8
0
 62
     0
 10
94.4383
 20
6.61871
 30
0.0
 11
80.4376
 21
6.61871
 31
0.0
  0
LINE
  8
0
 62
     0
 10
80.4376
 20
6.61871
 30
0.0
 11
80.4376
 21
20.6182
 31
0.0
  0
LINE
  8
0
 62
     0
 10
82.8188
 20
96.8181
 30
0.0
 11
96.8181
 21
96.8181
 31
0.0
  0
LINE
  8
0
 62
     0
 10
96.8181
 20
96.8181
 30
0.0
 11
96.8181
 21
82.8188
 31
0.0
  0
LINE
  8
0
 62
     0
 10
96.8181
 20
82.8188
 30
0.0
 11
82.8188
 21
82.8188
 31
0.0
  0
LINE
  8
0
 62
     0
 10
82.8188
 20
82.8188
 30
0.0
 11
82.8188
 21
96.8181
 31
0.0
  0
LINE
  8
0
 62
     0
 10
82.8188
 20
77.7681
 30
0.0
 11
96.8181
 21
77.7681
 31
0.0
  0
LINE
  8
0
 62
     0
 10
96.8181
 20
77.7681
 30
0.0
 11
96.8181
 21
63.7688
 31
0.0
  0
LINE
  8
0
 62
     0
 10
96.8181
 20
63.7688
 30
0.0
 11
82.8188
 21
63.7688
 31
0.0
  0
LINE
  8
0
 62
     0
 10
82.8188
 20
63.7688
 30
0.0
 11
82.8188
 21
77.7681
 31
0.0
  0
LINE
  8
0
 62
     0
 10
82.8188
 20
58.7181
 30
0.0
 11
96.8181
 21
58.7181
 31
0.0
  0
LINE
  8
0
 62
     0
 10
96.8181
 20
58.7181
 30
0.0
 11
96.8181
 21
44.7188
 31
0.0
  0
LINE
  8
0
 62
     0
 10
96.8181
 20
44.7188
 30
0.0
 11
82.8188
 21
44.7188
 31
0.0
  0
LINE
  8
0
 62
     0
 10
82.8188
 20
44.7188
 30
0.0
 11
82.8188
 21
58.7181
 31
0.0
  0
LINE
  8
0
 62
     0
 10
82.8188
 20
39.6681
 30
0.0
 11
96.8181
 21
39.6681
 31
0.0
  0
LINE
  8
0
 62
     0
 10
96.8181
 20
39.6681
 30
0.0
 11
96.8181
 21
25.6687
 31
0.0
  0
LINE
  8
0
 62
     0
 10
96.8181
 20
25.6687
 30
0.0
 11
82.8188
 21
25.6687
 31
0.0
  0
LINE
  8
0
 62
     0
 10
82.8188
 20
25.6687
 30
0.0
 11
82.8188
 21
39.6681
 31
0.0
  0
LINE
  8
0
 62
     0
 10
101.869
 20
96.8181
 30
0.0
 11
115.868
 21
96.8181
 31
0.0
  0
LINE
  8
0
 62
     0
 10
115.868
 20
96.8181
 30
0.0
 11
115.868
 21
82.8188
 31
0.0
  0
LINE
  8
0
 62
     0
 10
115.868
 20
82.8188
 30
0.0
 11
101.869
 21
82.8188
 31
0.0
  0
LINE
  8
0
 62
     0
 10
101.869
 20
82.8188
 30
0.0
 11
101.869
 21
96.8181
 31
0.0
  0
LINE
  8
0
 62
     0
 10
101.869
 20
77.7681
 30
0.0
 11
115.868
 21
77.7681
 31
0.0
  0
LINE
  8
0
 62
     0
 10
115.868
 20
77.7681
 30
0.0
 11
115.868
 21
63.7688
 31
0.0
  0
LINE
  8
0
 62
     0
 10
115.868
 20
63.7688
 30
0.0
 11
101.869
 21
63.7688
 31
0.0
  0
LINE
  8
0
 62
     0
 10
101.869
 20
63.7688
 30
0.0
 11
101.869
 21
77.7681
 31
0.0
  0
LINE
  8
0
 62
     0
 10
101.869
 20
58.7181
 30
0.0
 11
115.868
 21
58.7181
 31
0.0
  0
LINE
  8
0
 62
     0
 10
115.868
 20
58.7181
 30
0.0
 11
115.868
 21
44.7188
 31
0.0
  0
LINE
  8
0
 62
     0
 10
115.868
 20
44.7188
 30
0.0
 11
101.869
 21
44.7188
 31
0.0
  0
LINE
  8
0
 62
     0
 10
101.869
 20
44.7188
 30
0.0
 11
101.869
 21
58.7181
 31
0.0
  0
LINE
  8
0
 62
     0
 10
104.25
 20
39.6681
 30
0.0
 11
118.249
 21
39.6681
 31
0.0
  0
LINE
  8
0
 62
     0
 10
118.249
 20
39.6681
 30
0.0
 11
118.249
 21
25.6687
 31
0.0
  0
LINE
  8
0
 62
     0
 10
118.249
 20
25.6687
 30
0.0
 11
104.25
 21
25.6687
 31
0.0
  0
LINE
  8
0
 62
     0
 10
104.25
 20
25.6687
 30
0.0
 11
104.25
 21
39.6681
 31
0.0
  0
LINE
  8
0
 62
     0
 10
106.631
 20
20.6182
 30
0.0
 11
120.631
 21
20.6182
 31
0.0
  0
LINE
  8
0
 62
     0
 10
120.631
 20
20.6182
 30
0.0
 11
120.631
 21
6.61871
 31
0.0
  0
LINE
  8
0
 62
     0
 10
120.631
 20
6.61871
 30
0.0
 11
106.631
 21
6.61871
 31
0.0
  0
LINE
  8
0
 62
     0
 10
106.631
 20
6.61871
 30
0.0
 11
106.631
 21
20.6182
 31
0.0
  0
LINE
  8
0
 62
     0
 10
126.224
 20
58.1685
 30
0.0
 11
129.524
 21
58.1685
 31
0.0
  0
LINE
  8
0
 62
     0
 10
129.524
 20
58.1685
 30
0.0
 11
129.524
 21
43.9678
 31
0.0
  0
LINE
  8
0
 62
     0
 10
129.524
 20
43.9678
 30
0.0
 11
126.224
 21
43.9678
 31
0.0
  0
LINE
  8
0
 62
     0
 10
126.224
 20
43.9678
 30
0.0
 11
126.224
 21
58.1685
 31
0.0
  0
LINE
  8
0
 62
     0
 10
120.919
 20
96.8181
 30
0.0
 11
134.918
 21
96.8181
 31
0.0
  0
LINE
  8
0
 62
     0
 10
134.918
 20
96.8181
 30
0.0
 11
134.918
 21
82.8188
 31
0.0
  0
LINE
  8
0
 62
     0
 10
134.918
 20
82.8188
 30
0.0
 11
120.919
 21
82.8188
 31
0.0
  0
LINE
  8
0
 62
     0
 10
120.919
 20
82.8188
 30
0.0
 11
120.919
 21
96.8181
 31
0.0
  0
LINE
  8
0
 62
     0
 10
120.919
 20
77.7681
 30
0.0
 11
134.918
 21
77.7681
 31
0.0
  0
LINE
  8
0
 62
     0
 10
134.918
 20
77.7681
 30
0.0
 11
134.918
 21
63.7688
 31
0.0
  0
LINE
  8
0
 62
     0
 10
134.918
 20
63.7688
 30
0.0
 11
120.919
 21
63.7688
 31
0.0
  0
LINE
  8
0
 62
     0
 10
120.919
 20
63.7688
 30
0.0
 11
120.919
 21
77.7681
 31
0.0
  0
LINE
  8
0
 62
     0
 10
125.681
 20
39.6681
 30
0.0
 11
139.682
 21
39.6681
 31
0.0
  0
LINE
  8
0
 62
     0
 10
139.682
 20
39.6681
 30
0.0
 11
139.682
 21
25.6687
 31
0.0
  0
LINE
  8
0
 62
     0
 10
139.682
 20
25.6687
 30
0.0
 11
125.681
 21
25.6687
 31
0.0
  0
LINE
  8
0
 62
     0
 10
125.681
 20
25.6687
 30
0.0
 11
125.681
 21
39.6681
 31
0.0
  0
LINE
  8
0
 62
     0
 10
125.681
 20
20.6182
 30
0.0
 11
139.682
 21
20.6182
 31
0.0
  0
LINE
  8
0
 62
     0
 10
139.682
 20
20.6182
 30
0.0
 11
139.682
 21
6.61871
 31
0.0
  0
LINE
  8
0
 62
     0
 10
139.682
 20
6.61871
 30
0.0
 11
125.681
 21
6.61871
 31
0.0
  0
LINE
  8
0
 62
     0
 10
125.681
 20
6.61871
 30
0.0
 11
125.681
 21
20.6182
 31
0.0
  0
LINE
  8
0
 62
     0
 10
132.825
 20
58.7181
 30
0.0
 11
146.824
 21
58.7181
 31
0.0
  0
LINE
  8
0
 62
     0
 10
146.824
 20
58.7181
 30
0.0
 11
146.824
 21
44.7188
 31
0.0
  0
LINE
  8
0
 62
     0
 10
146.824
 20
44.7188
 30
0.0
 11
132.825
 21
44.7188
 31
0.0
  0
LINE
  8
0
 62
     0
 10
132.825
 20
44.7188
 30
0.0
 11
132.825
 21
58.7181
 31
0.0
  0
LINE
  8
0
 62
     0
 10
150.125
 20
58.1685
 30
0.0
 11
153.425
 21
58.1685
 31
0.0
  0
LINE
  8
0
 62
     0
 10
153.425
 20
58.1685
 30
0.0
 11
153.425
 21
43.9678
 31
0.0
  0
LINE
  8
0
 62
     0
 10
153.425
 20
43.9678
 30
0.0
 11
150.125
 21
43.9678
 31
0.0
  0
LINE
  8
0
 62
     0
 10
150.125
 20
43.9678
 30
0.0
 11
150.125
 21
58.1685
 31
0.0
  0
LINE
  8
0
 62
     0
 10
142.35
 20
96.8181
 30
0.0
 11
156.349
 21
96.8181
 31
0.0
  0
LINE
  8
0
 62
     0
 10
156.349
 20
96.8181
 30
0.0
 11
156.349
 21
82.8188
 31
0.0
  0
LINE
  8
0
 62
     0
 10
156.349
 20
82.8188
 30
0.0
 11
142.35
 21
82.8188
 31
0.0
  0
LINE
  8
0
 62
     0
 10
142.35
 20
82.8188
 30
0.0
 11
142.35
 21
96.8181
 31
0.0
  0
LINE
  8
0
 62
     0
 10
142.35
 20
77.7681
 30
0.0
 11
156.349
 21
77.7681
 31
0.0
  0
LINE
  8
0
 62
     0
 10
156.349
 20
77.7681
 30
0.0
 11
156.349
 21
63.7688
 31
0.0
  0
LINE
  8
0
 62
     0
 10
156.349
 20
63.7688
 30
0.0
 11
142.35
 21
63.7688
 31
0.0
  0
LINE
  8
0
 62
     0
 10
142.35
 20
63.7688
 30
0.0
 11
142.35
 21
77.7681
 31
0.0
  0
LINE
  8
0
 62
     0
 10
144.731
 20
39.6681
 30
0.0
 11
158.732
 21
39.6681
 31
0.0
  0
LINE
  8
0
 62
     0
 10
158.732
 20
39.6681
 30
0.0
 11
158.732
 21
25.6687
 31
0.0
  0
LINE
  8
0
 62
     0
 10
158.732
 20
25.6687
 30
0.0
 11
144.731
 21
25.6687
 31
0.0
  0
LINE
  8
0
 62
     0
 10
144.731
 20
25.6687
 30
0.0
 11
144.731
 21
39.6681
 31
0.0
  0
LINE
  8
0
 62
     0
 10
144.731
 20
20.6182
 30
0.0
 11
158.732
 21
20.6182
 31
0.0
  0
LINE
  8
0
 62
     0
 10
158.732
 20
20.6182
 30
0.0
 11
158.732
 21
6.61871
 31
0.0
  0
LINE
  8
0
 62
     0
 10
158.732
 20
6.61871
 30
0.0
 11
144.731
 21
6.61871
 31
0.0
  0
LINE
  8
0
 62
     0
 10
144.731
 20
6.61871
 30
0.0
 11
144.731
 21
20.6182
 31
0.0
  0
ENDSEC
  0
EOF
