  0
SECTION
  2
HEADER
  9
$ACADVER
  1
AC1009
  9
$EXTMIN
 10
0.0
 20
0.0
 30
0.0
  9
$EXTMAX
 10
1000.0
 20
1000.0
 30
0.0
  9
$FILLMODE
 70
 0
  9
$SPLFRAME
 70
 1
  0
ENDSEC
  0
SECTION
  2
TABLES
  0
TABLE
  2
LAYER
 70
1
  0
LAYER
  2
0
 70
     0
 62
     7
  6
CONTINUOUS
  0
ENDTAB
  0
ENDSEC
  0
SECTION
  2
ENTITIES
  0
LINE
  8
0
 62
     0
 10
45.194
 20
46.1878
 30
0.0
 11
45.2713
 21
46.185
 31
0.0
  0
LINE
  8
0
 62
     0
 10
45.2713
 20
46.185
 30
0.0
 11
45.3499
 21
46.1754
 31
0.0
  0
LINE
  8
0
 62
     0
 10
45.3499
 20
46.1754
 30
0.0
 11
45.4272
 21
46.1603
 31
0.0
  0
LINE
  8
0
 62
     0
 10
45.4272
 20
46.1603
 30
0.0
 11
45.5027
 21
46.138
 31
0.0
  0
LINE
  8
0
 62
     0
 10
45.5027
 20
46.138
 30
0.0
 11
45.5771
 21
46.1119
 31
0.0
  0
LINE
  8
0
 62
     0
 10
45.5771
 20
46.1119
 30
0.0
 11
45.6477
 21
46.0788
 31
0.0
  0
LINE
  8
0
 62
     0
 10
45.6477
 20
46.0788
 30
0.0
 11
45.7165
 21
46.0403
 31
0.0
  0
LINE
  8
0
 62
     0
 10
45.7165
 20
46.0403
 30
0.0
 11
45.781
 21
45.9962
 31
0.0
  0
LINE
  8
0
 62
     0
 10
45.781
 20
45.9962
 30
0.0
 11
45.8431
 21
45.9479
 31
0.0
  0
LINE
  8
0
 62
     0
 10
45.8431
 20
45.9479
 30
0.0
 11
45.901
 21
45.8943
 31
0.0
  0
LINE
  8
0
 62
     0
 10
45.901
 20
45.8943
 30
0.0
 11
45.9535
 21
45.8364
 31
0.0
  0
LINE
  8
0
 62
     0
 10
45.9535
 20
45.8364
 30
0.0
 11
46.0029
 21
45.7757
 31
0.0
  0
LINE
  8
0
 62
     0
 10
46.0029
 20
45.7757
 30
0.0
 11
46.047
 21
45.7094
 31
0.0
  0
LINE
  8
0
 62
     0
 10
46.047
 20
45.7094
 30
0.0
 11
46.0844
 21
45.642
 31
0.0
  0
LINE
  8
0
 62
     0
 10
46.0844
 20
45.642
 30
0.0
 11
46.1176
 21
45.5704
 31
0.0
  0
LINE
  8
0
 62
     0
 10
46.1176
 20
45.5704
 30
0.0
 11
46.1451
 21
45.4974
 31
0.0
  0
LINE
  8
0
 62
     0
 10
46.1451
 20
45.4974
 30
0.0
 11
46.1656
 21
45.4201
 31
0.0
  0
LINE
  8
0
 62
     0
 10
46.1656
 20
45.4201
 30
0.0
 11
46.1821
 21
45.3443
 31
0.0
  0
LINE
  8
0
 62
     0
 10
46.1821
 20
45.3443
 30
0.0
 11
46.1906
 21
45.266
 31
0.0
  0
LINE
  8
0
 62
     0
 10
46.1906
 20
45.266
 30
0.0
 11
46.1931
 21
45.1873
 31
0.0
  0
LINE
  8
0
 62
     0
 10
46.1931
 20
45.1873
 30
0.0
 11
46.1931
 21
1.08727
 31
0.0
  0
LINE
  8
0
 62
     0
 10
46.1931
 20
1.08727
 30
0.0
 11
46.1906
 21
1.0101
 31
0.0
  0
LINE
  8
0
 62
     0
 10
46.1906
 20
1.0101
 30
0.0
 11
46.1821
 21
0.931556
 31
0.0
  0
LINE
  8
0
 62
     0
 10
46.1821
 20
0.931556
 30
0.0
 11
46.1656
 21
0.854385
 31
0.0
  0
LINE
  8
0
 62
     0
 10
46.1656
 20
0.854385
 30
0.0
 11
46.1451
 21
0.778591
 31
0.0
  0
LINE
  8
0
 62
     0
 10
46.1451
 20
0.778591
 30
0.0
 11
46.1176
 21
0.704176
 31
0.0
  0
LINE
  8
0
 62
     0
 10
46.1176
 20
0.704176
 30
0.0
 11
46.0844
 21
0.633899
 31
0.0
  0
LINE
  8
0
 62
     0
 10
46.0844
 20
0.633899
 30
0.0
 11
46.047
 21
0.564995
 31
0.0
  0
LINE
  8
0
 62
     0
 10
46.047
 20
0.564995
 30
0.0
 11
46.0029
 21
0.500228
 31
0.0
  0
LINE
  8
0
 62
     0
 10
46.0029
 20
0.500228
 30
0.0
 11
45.9535
 21
0.438217
 31
0.0
  0
LINE
  8
0
 62
     0
 10
45.9535
 20
0.438217
 30
0.0
 11
45.901
 21
0.38034
 31
0.0
  0
LINE
  8
0
 62
     0
 10
45.901
 20
0.38034
 30
0.0
 11
45.8431
 21
0.327973
 31
0.0
  0
LINE
  8
0
 62
     0
 10
45.8431
 20
0.327973
 30
0.0
 11
45.781
 21
0.278364
 31
0.0
  0
LINE
  8
0
 62
     0
 10
45.781
 20
0.278364
 30
0.0
 11
45.7165
 21
0.234267
 31
0.0
  0
LINE
  8
0
 62
     0
 10
45.7165
 20
0.234267
 30
0.0
 11
45.6477
 21
0.19706
 31
0.0
  0
LINE
  8
0
 62
     0
 10
45.6477
 20
0.19706
 30
0.0
 11
45.5771
 21
0.163987
 31
0.0
  0
LINE
  8
0
 62
     0
 10
45.5771
 20
0.163987
 30
0.0
 11
45.5027
 21
0.136426
 31
0.0
  0
LINE
  8
0
 62
     0
 10
45.5027
 20
0.136426
 30
0.0
 11
45.4272
 21
0.115755
 31
0.0
  0
LINE
  8
0
 62
     0
 10
45.4272
 20
0.115755
 30
0.0
 11
45.3499
 21
0.0992188
 31
0.0
  0
LINE
  8
0
 62
     0
 10
45.3499
 20
0.0992188
 30
0.0
 11
45.2713
 21
0.0909507
 31
0.0
  0
LINE
  8
0
 62
     0
 10
45.2713
 20
0.0909507
 30
0.0
 11
45.194
 21
0.0881944
 31
0.0
  0
LINE
  8
0
 62
     0
 10
45.194
 20
0.0881944
 30
0.0
 11
1.09416
 21
0.0881944
 31
0.0
  0
LINE
  8
0
 62
     0
 10
1.09416
 20
0.0881944
 30
0.0
 11
1.01562
 21
0.0909507
 31
0.0
  0
LINE
  8
0
 62
     0
 10
1.01562
 20
0.0909507
 30
0.0
 11
0.937066
 21
0.0992188
 31
0.0
  0
LINE
  8
0
 62
     0
 10
0.937066
 20
0.0992188
 30
0.0
 11
0.861275
 21
0.115755
 31
0.0
  0
LINE
  8
0
 62
     0
 10
0.861275
 20
0.115755
 30
0.0
 11
0.784105
 21
0.136426
 31
0.0
  0
LINE
  8
0
 62
     0
 10
0.784105
 20
0.136426
 30
0.0
 11
0.711069
 21
0.163987
 31
0.0
  0
LINE
  8
0
 62
     0
 10
0.711069
 20
0.163987
 30
0.0
 11
0.63941
 21
0.19706
 31
0.0
  0
LINE
  8
0
 62
     0
 10
0.63941
 20
0.19706
 30
0.0
 11
0.571885
 21
0.234267
 31
0.0
  0
LINE
  8
0
 62
     0
 10
0.571885
 20
0.234267
 30
0.0
 11
0.505739
 21
0.278364
 31
0.0
  0
LINE
  8
0
 62
     0
 10
0.505739
 20
0.278364
 30
0.0
 11
0.445107
 21
0.327973
 31
0.0
  0
LINE
  8
0
 62
     0
 10
0.445107
 20
0.327973
 30
0.0
 11
0.38723
 21
0.38034
 31
0.0
  0
LINE
  8
0
 62
     0
 10
0.38723
 20
0.38034
 30
0.0
 11
0.333485
 21
0.438217
 31
0.0
  0
LINE
  8
0
 62
     0
 10
0.333485
 20
0.438217
 30
0.0
 11
0.285254
 21
0.500228
 31
0.0
  0
LINE
  8
0
 62
     0
 10
0.285254
 20
0.500228
 30
0.0
 11
0.241157
 21
0.564995
 31
0.0
  0
LINE
  8
0
 62
     0
 10
0.241157
 20
0.564995
 30
0.0
 11
0.202572
 21
0.633899
 31
0.0
  0
LINE
  8
0
 62
     0
 10
0.202572
 20
0.633899
 30
0.0
 11
0.169499
 21
0.704176
 31
0.0
  0
LINE
  8
0
 62
     0
 10
0.169499
 20
0.704176
 30
0.0
 11
0.143316
 21
0.778591
 31
0.0
  0
LINE
  8
0
 62
     0
 10
0.143316
 20
0.778591
 30
0.0
 11
0.121267
 21
0.854385
 31
0.0
  0
LINE
  8
0
 62
     0
 10
0.121267
 20
0.854385
 30
0.0
 11
0.106109
 21
0.931556
 31
0.0
  0
LINE
  8
0
 62
     0
 10
0.106109
 20
0.931556
 30
0.0
 11
0.0964629
 21
1.0101
 31
0.0
  0
LINE
  8
0
 62
     0
 10
0.0964629
 20
1.0101
 30
0.0
 11
0.0937066
 21
1.08727
 31
0.0
  0
LINE
  8
0
 62
     0
 10
0.0937066
 20
1.08727
 30
0.0
 11
0.0937066
 21
45.1873
 31
0.0
  0
LINE
  8
0
 62
     0
 10
0.0937066
 20
45.1873
 30
0.0
 11
0.0964629
 21
45.266
 31
0.0
  0
LINE
  8
0
 62
     0
 10
0.0964629
 20
45.266
 30
0.0
 11
0.106109
 21
45.3443
 31
0.0
  0
LINE
  8
0
 62
     0
 10
0.106109
 20
45.3443
 30
0.0
 11
0.121267
 21
45.4201
 31
0.0
  0
LINE
  8
0
 62
     0
 10
0.121267
 20
45.4201
 30
0.0
 11
0.143316
 21
45.4974
 31
0.0
  0
LINE
  8
0
 62
     0
 10
0.143316
 20
45.4974
 30
0.0
 11
0.169499
 21
45.5704
 31
0.0
  0
LINE
  8
0
 62
     0
 10
0.169499
 20
45.5704
 30
0.0
 11
0.202572
 21
45.642
 31
0.0
  0
LINE
  8
0
 62
     0
 10
0.202572
 20
45.642
 30
0.0
 11
0.241157
 21
45.7094
 31
0.0
  0
LINE
  8
0
 62
     0
 10
0.241157
 20
45.7094
 30
0.0
 11
0.285254
 21
45.7757
 31
0.0
  0
LINE
  8
0
 62
     0
 10
0.285254
 20
45.7757
 30
0.0
 11
0.333485
 21
45.8364
 31
0.0
  0
LINE
  8
0
 62
     0
 10
0.333485
 20
45.8364
 30
0.0
 11
0.38723
 21
45.8943
 31
0.0
  0
LINE
  8
0
 62
     0
 10
0.38723
 20
45.8943
 30
0.0
 11
0.445107
 21
45.9479
 31
0.0
  0
LINE
  8
0
 62
     0
 10
0.445107
 20
45.9479
 30
0.0
 11
0.505739
 21
45.9962
 31
0.0
  0
LINE
  8
0
 62
     0
 10
0.505739
 20
45.9962
 30
0.0
 11
0.571885
 21
46.0403
 31
0.0
  0
LINE
  8
0
 62
     0
 10
0.571885
 20
46.0403
 30
0.0
 11
0.63941
 21
46.0788
 31
0.0
  0
LINE
  8
0
 62
     0
 10
0.63941
 20
46.0788
 30
0.0
 11
0.711069
 21
46.1119
 31
0.0
  0
LINE
  8
0
 62
     0
 10
0.711069
 20
46.1119
 30
0.0
 11
0.784105
 21
46.138
 31
0.0
  0
LINE
  8
0
 62
     0
 10
0.784105
 20
46.138
 30
0.0
 11
0.861275
 21
46.1603
 31
0.0
  0
LINE
  8
0
 62
     0
 10
0.861275
 20
46.1603
 30
0.0
 11
0.937066
 21
46.1754
 31
0.0
  0
LINE
  8
0
 62
     0
 10
0.937066
 20
46.1754
 30
0.0
 11
1.01562
 21
46.185
 31
0.0
  0
LINE
  8
0
 62
     0
 10
1.01562
 20
46.185
 30
0.0
 11
1.09416
 21
46.1878
 31
0.0
  0
LINE
  8
0
 62
     0
 10
1.09416
 20
46.1878
 30
0.0
 11
45.194
 21
46.1878
 31
0.0
  0
LINE
  8
0
 62
     0
 10
9.5443
 20
20.0629
 30
0.0
 11
12.8433
 21
20.0629
 31
0.0
  0
LINE
  8
0
 62
     0
 10
12.8433
 20
20.0629
 30
0.0
 11
12.8433
 21
5.86218
 31
0.0
  0
LINE
  8
0
 62
     0
 10
12.8433
 20
5.86218
 30
0.0
 11
9.5443
 21
5.86218
 31
0.0
  0
LINE
  8
0
 62
     0
 10
9.5443
 20
5.86218
 30
0.0
 11
9.5443
 21
20.0629
 31
0.0
  0
LINE
  8
0
 62
     0
 10
6.61871
 20
39.6628
 30
0.0
 11
20.6182
 21
39.6628
 31
0.0
  0
LINE
  8
0
 62
     0
 10
20.6182
 20
39.6628
 30
0.0
 11
20.6182
 21
25.6632
 31
0.0
  0
LINE
  8
0
 62
     0
 10
20.6182
 20
25.6632
 30
0.0
 11
6.61871
 21
25.6632
 31
0.0
  0
LINE
  8
0
 62
     0
 10
6.61871
 20
25.6632
 30
0.0
 11
6.61871
 21
39.6628
 31
0.0
  0
LINE
  8
0
 62
     0
 10
16.1437
 20
20.6127
 30
0.0
 11
30.1432
 21
20.6127
 31
0.0
  0
LINE
  8
0
 62
     0
 10
30.1432
 20
20.6127
 30
0.0
 11
30.1432
 21
6.61321
 31
0.0
  0
LINE
  8
0
 62
     0
 10
30.1432
 20
6.61321
 30
0.0
 11
16.1437
 21
6.61321
 31
0.0
  0
LINE
  8
0
 62
     0
 10
16.1437
 20
6.61321
 30
0.0
 11
16.1437
 21
20.6127
 31
0.0
  0
LINE
  8
0
 62
     0
 10
33.4436
 20
20.0629
 30
0.0
 11
36.7439
 21
20.0629
 31
0.0
  0
LINE
  8
0
 62
     0
 10
36.7439
 20
20.0629
 30
0.0
 11
36.7439
 21
5.86218
 31
0.0
  0
LINE
  8
0
 62
     0
 10
36.7439
 20
5.86218
 30
0.0
 11
33.4436
 21
5.86218
 31
0.0
  0
LINE
  8
0
 62
     0
 10
33.4436
 20
5.86218
 30
0.0
 11
33.4436
 21
20.0629
 31
0.0
  0
LINE
  8
0
 62
     0
 10
25.6687
 20
39.6628
 30
0.0
 11
39.6681
 21
39.6628
 31
0.0
  0
LINE
  8
0
 62
     0
 10
39.6681
 20
39.6628
 30
0.0
 11
39.6681
 21
25.6632
 31
0.0
  0
LINE
  8
0
 62
     0
 10
39.6681
 20
25.6632
 30
0.0
 11
25.6687
 21
25.6632
 31
0.0
  0
LINE
  8
0
 62
     0
 10
25.6687
 20
25.6632
 30
0.0
 11
25.6687
 21
39.6628
 31
0.0
  0
ENDSEC
  0
EOF
