  0
SECTION
  2
HEADER
  9
$ACADVER
  1
AC1009
  9
$EXTMIN
 10
0.0
 20
0.0
 30
0.0
  9
$EXTMAX
 10
1000.0
 20
1000.0
 30
0.0
  9
$FILLMODE
 70
 0
  9
$SPLFRAME
 70
 1
  0
ENDSEC
  0
SECTION
  2
TABLES
  0
TABLE
  2
LAYER
 70
1
  0
LAYER
  2
0
 70
     0
 62
     7
  6
CONTINUOUS
  0
ENDTAB
  0
ENDSEC
  0
SECTION
  2
ENTITIES
  0
LINE
  8
0
 62
     0
 10
41.1939
 20
42.1873
 30
0.0
 11
41.2722
 21
42.1845
 31
0.0
  0
LINE
  8
0
 62
     0
 10
41.2722
 20
42.1845
 30
0.0
 11
41.3494
 21
42.1749
 31
0.0
  0
LINE
  8
0
 62
     0
 10
41.3494
 20
42.1749
 30
0.0
 11
41.4267
 21
42.1598
 31
0.0
  0
LINE
  8
0
 62
     0
 10
41.4267
 20
42.1598
 30
0.0
 11
41.5025
 21
42.1375
 31
0.0
  0
LINE
  8
0
 62
     0
 10
41.5025
 20
42.1375
 30
0.0
 11
41.5766
 21
42.1114
 31
0.0
  0
LINE
  8
0
 62
     0
 10
41.5766
 20
42.1114
 30
0.0
 11
41.6472
 21
42.0783
 31
0.0
  0
LINE
  8
0
 62
     0
 10
41.6472
 20
42.0783
 30
0.0
 11
41.716
 21
42.0398
 31
0.0
  0
LINE
  8
0
 62
     0
 10
41.716
 20
42.0398
 30
0.0
 11
41.7823
 21
41.9957
 31
0.0
  0
LINE
  8
0
 62
     0
 10
41.7823
 20
41.9957
 30
0.0
 11
41.8426
 21
41.9474
 31
0.0
  0
LINE
  8
0
 62
     0
 10
41.8426
 20
41.9474
 30
0.0
 11
41.9005
 21
41.8938
 31
0.0
  0
LINE
  8
0
 62
     0
 10
41.9005
 20
41.8938
 30
0.0
 11
41.9545
 21
41.8359
 31
0.0
  0
LINE
  8
0
 62
     0
 10
41.9545
 20
41.8359
 30
0.0
 11
42.0028
 21
41.7752
 31
0.0
  0
LINE
  8
0
 62
     0
 10
42.0028
 20
41.7752
 30
0.0
 11
42.0469
 21
41.7089
 31
0.0
  0
LINE
  8
0
 62
     0
 10
42.0469
 20
41.7089
 30
0.0
 11
42.0853
 21
41.6415
 31
0.0
  0
LINE
  8
0
 62
     0
 10
42.0853
 20
41.6415
 30
0.0
 11
42.1185
 21
41.5699
 31
0.0
  0
LINE
  8
0
 62
     0
 10
42.1185
 20
41.5699
 30
0.0
 11
42.1446
 21
41.4969
 31
0.0
  0
LINE
  8
0
 62
     0
 10
42.1446
 20
41.4969
 30
0.0
 11
42.1651
 21
41.4196
 31
0.0
  0
LINE
  8
0
 62
     0
 10
42.1651
 20
41.4196
 30
0.0
 11
42.1816
 21
41.3438
 31
0.0
  0
LINE
  8
0
 62
     0
 10
42.1816
 20
41.3438
 30
0.0
 11
42.1915
 21
41.2655
 31
0.0
  0
LINE
  8
0
 62
     0
 10
42.1915
 20
41.2655
 30
0.0
 11
42.194
 21
41.1868
 31
0.0
  0
LINE
  8
0
 62
     0
 10
42.194
 20
41.1868
 30
0.0
 11
42.194
 21
1.08727
 31
0.0
  0
LINE
  8
0
 62
     0
 10
42.194
 20
1.08727
 30
0.0
 11
42.1915
 21
1.00873
 31
0.0
  0
LINE
  8
0
 62
     0
 10
42.1915
 20
1.00873
 30
0.0
 11
42.1816
 21
0.931556
 31
0.0
  0
LINE
  8
0
 62
     0
 10
42.1816
 20
0.931556
 30
0.0
 11
42.1651
 21
0.854385
 31
0.0
  0
LINE
  8
0
 62
     0
 10
42.1651
 20
0.854385
 30
0.0
 11
42.1446
 21
0.778591
 31
0.0
  0
LINE
  8
0
 62
     0
 10
42.1446
 20
0.778591
 30
0.0
 11
42.1185
 21
0.704176
 31
0.0
  0
LINE
  8
0
 62
     0
 10
42.1185
 20
0.704176
 30
0.0
 11
42.0853
 21
0.633899
 31
0.0
  0
LINE
  8
0
 62
     0
 10
42.0853
 20
0.633899
 30
0.0
 11
42.0469
 21
0.564995
 31
0.0
  0
LINE
  8
0
 62
     0
 10
42.0469
 20
0.564995
 30
0.0
 11
42.0028
 21
0.498849
 31
0.0
  0
LINE
  8
0
 62
     0
 10
42.0028
 20
0.498849
 30
0.0
 11
41.9545
 21
0.438217
 31
0.0
  0
LINE
  8
0
 62
     0
 10
41.9545
 20
0.438217
 30
0.0
 11
41.9005
 21
0.38034
 31
0.0
  0
LINE
  8
0
 62
     0
 10
41.9005
 20
0.38034
 30
0.0
 11
41.8426
 21
0.326595
 31
0.0
  0
LINE
  8
0
 62
     0
 10
41.8426
 20
0.326595
 30
0.0
 11
41.7823
 21
0.278364
 31
0.0
  0
LINE
  8
0
 62
     0
 10
41.7823
 20
0.278364
 30
0.0
 11
41.716
 21
0.234267
 31
0.0
  0
LINE
  8
0
 62
     0
 10
41.716
 20
0.234267
 30
0.0
 11
41.6472
 21
0.195682
 31
0.0
  0
LINE
  8
0
 62
     0
 10
41.6472
 20
0.195682
 30
0.0
 11
41.5766
 21
0.162609
 31
0.0
  0
LINE
  8
0
 62
     0
 10
41.5766
 20
0.162609
 30
0.0
 11
41.5025
 21
0.136426
 31
0.0
  0
LINE
  8
0
 62
     0
 10
41.5025
 20
0.136426
 30
0.0
 11
41.4267
 21
0.115755
 31
0.0
  0
LINE
  8
0
 62
     0
 10
41.4267
 20
0.115755
 30
0.0
 11
41.3494
 21
0.0992188
 31
0.0
  0
LINE
  8
0
 62
     0
 10
41.3494
 20
0.0992188
 30
0.0
 11
41.2722
 21
0.0895724
 31
0.0
  0
LINE
  8
0
 62
     0
 10
41.2722
 20
0.0895724
 30
0.0
 11
41.1939
 21
0.0868165
 31
0.0
  0
LINE
  8
0
 62
     0
 10
41.1939
 20
0.0868165
 30
0.0
 11
1.09416
 21
0.0868165
 31
0.0
  0
LINE
  8
0
 62
     0
 10
1.09416
 20
0.0868165
 30
0.0
 11
1.01562
 21
0.0895724
 31
0.0
  0
LINE
  8
0
 62
     0
 10
1.01562
 20
0.0895724
 30
0.0
 11
0.937066
 21
0.0992188
 31
0.0
  0
LINE
  8
0
 62
     0
 10
0.937066
 20
0.0992188
 30
0.0
 11
0.861275
 21
0.115755
 31
0.0
  0
LINE
  8
0
 62
     0
 10
0.861275
 20
0.115755
 30
0.0
 11
0.784105
 21
0.136426
 31
0.0
  0
LINE
  8
0
 62
     0
 10
0.784105
 20
0.136426
 30
0.0
 11
0.711069
 21
0.162609
 31
0.0
  0
LINE
  8
0
 62
     0
 10
0.711069
 20
0.162609
 30
0.0
 11
0.63941
 21
0.195682
 31
0.0
  0
LINE
  8
0
 62
     0
 10
0.63941
 20
0.195682
 30
0.0
 11
0.571885
 21
0.234267
 31
0.0
  0
LINE
  8
0
 62
     0
 10
0.571885
 20
0.234267
 30
0.0
 11
0.505739
 21
0.278364
 31
0.0
  0
LINE
  8
0
 62
     0
 10
0.505739
 20
0.278364
 30
0.0
 11
0.445107
 21
0.326595
 31
0.0
  0
LINE
  8
0
 62
     0
 10
0.445107
 20
0.326595
 30
0.0
 11
0.38723
 21
0.38034
 31
0.0
  0
LINE
  8
0
 62
     0
 10
0.38723
 20
0.38034
 30
0.0
 11
0.333485
 21
0.438217
 31
0.0
  0
LINE
  8
0
 62
     0
 10
0.333485
 20
0.438217
 30
0.0
 11
0.285254
 21
0.498849
 31
0.0
  0
LINE
  8
0
 62
     0
 10
0.285254
 20
0.498849
 30
0.0
 11
0.241157
 21
0.564995
 31
0.0
  0
LINE
  8
0
 62
     0
 10
0.241157
 20
0.564995
 30
0.0
 11
0.202572
 21
0.633899
 31
0.0
  0
LINE
  8
0
 62
     0
 10
0.202572
 20
0.633899
 30
0.0
 11
0.169499
 21
0.704176
 31
0.0
  0
LINE
  8
0
 62
     0
 10
0.169499
 20
0.704176
 30
0.0
 11
0.143316
 21
0.778591
 31
0.0
  0
LINE
  8
0
 62
     0
 10
0.143316
 20
0.778591
 30
0.0
 11
0.121267
 21
0.854385
 31
0.0
  0
LINE
  8
0
 62
     0
 10
0.121267
 20
0.854385
 30
0.0
 11
0.106109
 21
0.931556
 31
0.0
  0
LINE
  8
0
 62
     0
 10
0.106109
 20
0.931556
 30
0.0
 11
0.0964629
 21
1.00873
 31
0.0
  0
LINE
  8
0
 62
     0
 10
0.0964629
 20
1.00873
 30
0.0
 11
0.0937066
 21
1.08727
 31
0.0
  0
LINE
  8
0
 62
     0
 10
0.0937066
 20
1.08727
 30
0.0
 11
0.0937066
 21
41.1868
 31
0.0
  0
LINE
  8
0
 62
     0
 10
0.0937066
 20
41.1868
 30
0.0
 11
0.0964629
 21
41.2655
 31
0.0
  0
LINE
  8
0
 62
     0
 10
0.0964629
 20
41.2655
 30
0.0
 11
0.106109
 21
41.3438
 31
0.0
  0
LINE
  8
0
 62
     0
 10
0.106109
 20
41.3438
 30
0.0
 11
0.121267
 21
41.4196
 31
0.0
  0
LINE
  8
0
 62
     0
 10
0.121267
 20
41.4196
 30
0.0
 11
0.143316
 21
41.4969
 31
0.0
  0
LINE
  8
0
 62
     0
 10
0.143316
 20
41.4969
 30
0.0
 11
0.169499
 21
41.5699
 31
0.0
  0
LINE
  8
0
 62
     0
 10
0.169499
 20
41.5699
 30
0.0
 11
0.202572
 21
41.6415
 31
0.0
  0
LINE
  8
0
 62
     0
 10
0.202572
 20
41.6415
 30
0.0
 11
0.241157
 21
41.7089
 31
0.0
  0
LINE
  8
0
 62
     0
 10
0.241157
 20
41.7089
 30
0.0
 11
0.285254
 21
41.7752
 31
0.0
  0
LINE
  8
0
 62
     0
 10
0.285254
 20
41.7752
 30
0.0
 11
0.333485
 21
41.8359
 31
0.0
  0
LINE
  8
0
 62
     0
 10
0.333485
 20
41.8359
 30
0.0
 11
0.38723
 21
41.8938
 31
0.0
  0
LINE
  8
0
 62
     0
 10
0.38723
 20
41.8938
 30
0.0
 11
0.445107
 21
41.9474
 31
0.0
  0
LINE
  8
0
 62
     0
 10
0.445107
 20
41.9474
 30
0.0
 11
0.505739
 21
41.9957
 31
0.0
  0
LINE
  8
0
 62
     0
 10
0.505739
 20
41.9957
 30
0.0
 11
0.571885
 21
42.0398
 31
0.0
  0
LINE
  8
0
 62
     0
 10
0.571885
 20
42.0398
 30
0.0
 11
0.63941
 21
42.0783
 31
0.0
  0
LINE
  8
0
 62
     0
 10
0.63941
 20
42.0783
 30
0.0
 11
0.711069
 21
42.1114
 31
0.0
  0
LINE
  8
0
 62
     0
 10
0.711069
 20
42.1114
 30
0.0
 11
0.784105
 21
42.1375
 31
0.0
  0
LINE
  8
0
 62
     0
 10
0.784105
 20
42.1375
 30
0.0
 11
0.861275
 21
42.1598
 31
0.0
  0
LINE
  8
0
 62
     0
 10
0.861275
 20
42.1598
 30
0.0
 11
0.937066
 21
42.1749
 31
0.0
  0
LINE
  8
0
 62
     0
 10
0.937066
 20
42.1749
 30
0.0
 11
1.01562
 21
42.1845
 31
0.0
  0
LINE
  8
0
 62
     0
 10
1.01562
 20
42.1845
 30
0.0
 11
1.09416
 21
42.1873
 31
0.0
  0
LINE
  8
0
 62
     0
 10
1.09416
 20
42.1873
 30
0.0
 11
41.1939
 21
42.1873
 31
0.0
  0
LINE
  8
0
 62
     0
 10
7.54338
 20
18.0619
 30
0.0
 11
10.8438
 21
18.0619
 31
0.0
  0
LINE
  8
0
 62
     0
 10
10.8438
 20
18.0619
 30
0.0
 11
10.8438
 21
3.86263
 31
0.0
  0
LINE
  8
0
 62
     0
 10
10.8438
 20
3.86263
 30
0.0
 11
7.54338
 21
3.86263
 31
0.0
  0
LINE
  8
0
 62
     0
 10
7.54338
 20
3.86263
 30
0.0
 11
7.54338
 21
18.0619
 31
0.0
  0
LINE
  8
0
 62
     0
 10
4.6192
 20
37.6619
 30
0.0
 11
18.6187
 21
37.6619
 31
0.0
  0
LINE
  8
0
 62
     0
 10
18.6187
 20
37.6619
 30
0.0
 11
18.6187
 21
23.6623
 31
0.0
  0
LINE
  8
0
 62
     0
 10
18.6187
 20
23.6623
 30
0.0
 11
4.6192
 21
23.6623
 31
0.0
  0
LINE
  8
0
 62
     0
 10
4.6192
 20
23.6623
 30
0.0
 11
4.6192
 21
37.6619
 31
0.0
  0
LINE
  8
0
 62
     0
 10
14.1442
 20
18.6118
 30
0.0
 11
28.1437
 21
18.6118
 31
0.0
  0
LINE
  8
0
 62
     0
 10
28.1437
 20
18.6118
 30
0.0
 11
28.1437
 21
4.61229
 31
0.0
  0
LINE
  8
0
 62
     0
 10
28.1437
 20
4.61229
 30
0.0
 11
14.1442
 21
4.61229
 31
0.0
  0
LINE
  8
0
 62
     0
 10
14.1442
 20
4.61229
 30
0.0
 11
14.1442
 21
18.6118
 31
0.0
  0
LINE
  8
0
 62
     0
 10
31.4441
 20
18.0619
 30
0.0
 11
34.7431
 21
18.0619
 31
0.0
  0
LINE
  8
0
 62
     0
 10
34.7431
 20
18.0619
 30
0.0
 11
34.7431
 21
3.86263
 31
0.0
  0
LINE
  8
0
 62
     0
 10
34.7431
 20
3.86263
 30
0.0
 11
31.4441
 21
3.86263
 31
0.0
  0
LINE
  8
0
 62
     0
 10
31.4441
 20
3.86263
 30
0.0
 11
31.4441
 21
18.0619
 31
0.0
  0
LINE
  8
0
 62
     0
 10
23.6692
 20
37.6619
 30
0.0
 11
37.6686
 21
37.6619
 31
0.0
  0
LINE
  8
0
 62
     0
 10
37.6686
 20
37.6619
 30
0.0
 11
37.6686
 21
23.6623
 31
0.0
  0
LINE
  8
0
 62
     0
 10
37.6686
 20
23.6623
 30
0.0
 11
23.6692
 21
23.6623
 31
0.0
  0
LINE
  8
0
 62
     0
 10
23.6692
 20
23.6623
 30
0.0
 11
23.6692
 21
37.6619
 31
0.0
  0
ENDSEC
  0
EOF
